<?xml version="1.0" encoding="UTF-8" standalone="no"?><svg xmlns="http://www.w3.org/2000/svg" xmlns:xlink="http://www.w3.org/1999/xlink" contentScriptType="application/ecmascript" contentStyleType="text/css" height="692px" preserveAspectRatio="none" style="width:1420px;height:692px;background:#FFFFFF;" version="1.1" viewBox="0 0 1420 692" width="1420px" zoomAndPan="magnify"><defs><filter height="300%" id="f1tw0h363aihu" width="300%" x="-1" y="-1"><feGaussianBlur result="blurOut" stdDeviation="2.0"/><feColorMatrix in="blurOut" result="blurOut2" type="matrix" values="0 0 0 0 0 0 0 0 0 0 0 0 0 0 0 0 0 0 .4 0"/><feOffset dx="4.0" dy="4.0" in="blurOut2" result="blurOut3"/><feBlend in="SourceGraphic" in2="blurOut3" mode="normal"/></filter></defs><g><!--MD5=[c881b25adf3665c6568c9693d41a70f3]
class Activity--><rect codeLine="54" fill="#FFFFFF" filter="url(#f1tw0h363aihu)" height="52.8047" id="Activity" style="stroke:#A80036;stroke-width:1.5;" width="151" x="871" y="7"/><ellipse cx="920.75" cy="23" fill="#ADD1B2" rx="11" ry="11" style="stroke:#A80036;stroke-width:1.0;"/><path d="M923.7188,28.6406 Q923.1406,28.9375 922.5,29.0781 Q921.8594,29.2344 921.1563,29.2344 Q918.6563,29.2344 917.3281,27.5938 Q916.0156,25.9375 916.0156,22.8125 Q916.0156,19.6875 917.3281,18.0313 Q918.6563,16.375 921.1563,16.375 Q921.8594,16.375 922.5,16.5313 Q923.1563,16.6875 923.7188,16.9844 L923.7188,19.7031 Q923.0938,19.125 922.5,18.8594 Q921.9063,18.5781 921.2813,18.5781 Q919.9375,18.5781 919.25,19.6563 Q918.5625,20.7188 918.5625,22.8125 Q918.5625,24.9063 919.25,25.9844 Q919.9375,27.0469 921.2813,27.0469 Q921.9063,27.0469 922.5,26.7813 Q923.0938,26.5 923.7188,25.9219 L923.7188,28.6406 Z " fill="#000000"/><text fill="#000000" font-family="sans-serif" font-size="12" lengthAdjust="spacing" textLength="43" x="941.25" y="27.1543">Activity</text><line style="stroke:#A80036;stroke-width:1.5;" x1="872" x2="1021" y1="39" y2="39"/><text fill="#000000" font-family="sans-serif" font-size="11" lengthAdjust="spacing" textLength="139" x="877" y="53.2104">dateRange : Date_Range</text><!--MD5=[9d44916250b776386006c440668bcfbb]
class Agent--><rect codeLine="23" fill="#FFFFFF" filter="url(#f1tw0h363aihu)" height="32" id="Agent" style="stroke:#A80036;stroke-width:1.5;" width="69" x="504" y="646"/><ellipse cx="519" cy="662" fill="#ADD1B2" rx="11" ry="11" style="stroke:#A80036;stroke-width:1.0;"/><path d="M521.9688,667.6406 Q521.3906,667.9375 520.75,668.0781 Q520.1094,668.2344 519.4063,668.2344 Q516.9063,668.2344 515.5781,666.5938 Q514.2656,664.9375 514.2656,661.8125 Q514.2656,658.6875 515.5781,657.0313 Q516.9063,655.375 519.4063,655.375 Q520.1094,655.375 520.75,655.5313 Q521.4063,655.6875 521.9688,655.9844 L521.9688,658.7031 Q521.3438,658.125 520.75,657.8594 Q520.1563,657.5781 519.5313,657.5781 Q518.1875,657.5781 517.5,658.6563 Q516.8125,659.7188 516.8125,661.8125 Q516.8125,663.9063 517.5,664.9844 Q518.1875,666.0469 519.5313,666.0469 Q520.1563,666.0469 520.75,665.7813 Q521.3438,665.5 521.9688,664.9219 L521.9688,667.6406 Z " fill="#000000"/><text fill="#000000" font-family="sans-serif" font-size="12" lengthAdjust="spacing" textLength="37" x="533" y="666.1543">Agent</text><!--MD5=[0330879a1a385efee19ba3488ed490fa]
class Contribution--><rect codeLine="91" fill="#FFFFFF" filter="url(#f1tw0h363aihu)" height="32" id="Contribution" style="stroke:#A80036;stroke-width:1.5;" width="109" x="566" y="166.5"/><ellipse cx="581" cy="182.5" fill="#ADD1B2" rx="11" ry="11" style="stroke:#A80036;stroke-width:1.0;"/><path d="M583.9688,188.1406 Q583.3906,188.4375 582.75,188.5781 Q582.1094,188.7344 581.4063,188.7344 Q578.9063,188.7344 577.5781,187.0938 Q576.2656,185.4375 576.2656,182.3125 Q576.2656,179.1875 577.5781,177.5313 Q578.9063,175.875 581.4063,175.875 Q582.1094,175.875 582.75,176.0313 Q583.4063,176.1875 583.9688,176.4844 L583.9688,179.2031 Q583.3438,178.625 582.75,178.3594 Q582.1563,178.0781 581.5313,178.0781 Q580.1875,178.0781 579.5,179.1563 Q578.8125,180.2188 578.8125,182.3125 Q578.8125,184.4063 579.5,185.4844 Q580.1875,186.5469 581.5313,186.5469 Q582.1563,186.5469 582.75,186.2813 Q583.3438,186 583.9688,185.4219 L583.9688,188.1406 Z " fill="#000000"/><text fill="#000000" font-family="sans-serif" font-size="12" lengthAdjust="spacing" textLength="77" x="595" y="186.6543">Contribution</text><!--MD5=[532fe005ca0bef0ad6b309c9c6480e22]
class Contribution_Statement--><rect codeLine="97" fill="#FFFFFF" filter="url(#f1tw0h363aihu)" height="52.8047" id="Contribution_Statement" style="stroke:#A80036;stroke-width:1.5;" width="185" x="251" y="156"/><ellipse cx="267.8" cy="172" fill="#ADD1B2" rx="11" ry="11" style="stroke:#A80036;stroke-width:1.0;"/><path d="M270.7688,177.6406 Q270.1906,177.9375 269.55,178.0781 Q268.9094,178.2344 268.2063,178.2344 Q265.7063,178.2344 264.3781,176.5938 Q263.0656,174.9375 263.0656,171.8125 Q263.0656,168.6875 264.3781,167.0313 Q265.7063,165.375 268.2063,165.375 Q268.9094,165.375 269.55,165.5313 Q270.2063,165.6875 270.7688,165.9844 L270.7688,168.7031 Q270.1438,168.125 269.55,167.8594 Q268.9563,167.5781 268.3313,167.5781 Q266.9875,167.5781 266.3,168.6563 Q265.6125,169.7188 265.6125,171.8125 Q265.6125,173.9063 266.3,174.9844 Q266.9875,176.0469 268.3313,176.0469 Q268.9563,176.0469 269.55,175.7813 Q270.1438,175.5 270.7688,174.9219 L270.7688,177.6406 Z " fill="#000000"/><text fill="#000000" font-family="sans-serif" font-size="12" lengthAdjust="spacing" textLength="149" x="282.2" y="176.1543">Contribution_Statement</text><line style="stroke:#A80036;stroke-width:1.5;" x1="252" x2="435" y1="188" y2="188"/><text fill="#000000" font-family="sans-serif" font-size="11" lengthAdjust="spacing" textLength="173" x="257" y="202.2104">statement : Multilingual_String</text><!--MD5=[d15571cf24ab559e7706ea00ec17c00f]
class Resource_Usage_Statement--><rect codeLine="101" fill="#FFFFFF" filter="url(#f1tw0h363aihu)" height="52.8047" id="Resource_Usage_Statement" style="stroke:#A80036;stroke-width:1.5;" width="209" x="7" y="156"/><ellipse cx="22" cy="172" fill="#ADD1B2" rx="11" ry="11" style="stroke:#A80036;stroke-width:1.0;"/><path d="M24.9688,177.6406 Q24.3906,177.9375 23.75,178.0781 Q23.1094,178.2344 22.4063,178.2344 Q19.9063,178.2344 18.5781,176.5938 Q17.2656,174.9375 17.2656,171.8125 Q17.2656,168.6875 18.5781,167.0313 Q19.9063,165.375 22.4063,165.375 Q23.1094,165.375 23.75,165.5313 Q24.4063,165.6875 24.9688,165.9844 L24.9688,168.7031 Q24.3438,168.125 23.75,167.8594 Q23.1563,167.5781 22.5313,167.5781 Q21.1875,167.5781 20.5,168.6563 Q19.8125,169.7188 19.8125,171.8125 Q19.8125,173.9063 20.5,174.9844 Q21.1875,176.0469 22.5313,176.0469 Q23.1563,176.0469 23.75,175.7813 Q24.3438,175.5 24.9688,174.9219 L24.9688,177.6406 Z " fill="#000000"/><text fill="#000000" font-family="sans-serif" font-size="12" lengthAdjust="spacing" textLength="177" x="36" y="176.1543">Resource_Usage_Statement</text><line style="stroke:#A80036;stroke-width:1.5;" x1="8" x2="215" y1="188" y2="188"/><text fill="#000000" font-family="sans-serif" font-size="11" lengthAdjust="spacing" textLength="173" x="13" y="202.2104">statement : Multilingual_String</text><!--MD5=[6b13f1b330d33795af281e5c1dfe1e98]
class Resource--><rect codeLine="105" fill="#FFFFFF" filter="url(#f1tw0h363aihu)" height="32" id="Resource" style="stroke:#A80036;stroke-width:1.5;" width="91" x="145" y="305"/><ellipse cx="160" cy="321" fill="#ADD1B2" rx="11" ry="11" style="stroke:#A80036;stroke-width:1.0;"/><path d="M162.9688,326.6406 Q162.3906,326.9375 161.75,327.0781 Q161.1094,327.2344 160.4063,327.2344 Q157.9063,327.2344 156.5781,325.5938 Q155.2656,323.9375 155.2656,320.8125 Q155.2656,317.6875 156.5781,316.0313 Q157.9063,314.375 160.4063,314.375 Q161.1094,314.375 161.75,314.5313 Q162.4063,314.6875 162.9688,314.9844 L162.9688,317.7031 Q162.3438,317.125 161.75,316.8594 Q161.1563,316.5781 160.5313,316.5781 Q159.1875,316.5781 158.5,317.6563 Q157.8125,318.7188 157.8125,320.8125 Q157.8125,322.9063 158.5,323.9844 Q159.1875,325.0469 160.5313,325.0469 Q161.1563,325.0469 161.75,324.7813 Q162.3438,324.5 162.9688,323.9219 L162.9688,326.6406 Z " fill="#000000"/><text fill="#000000" font-family="sans-serif" font-size="12" lengthAdjust="spacing" textLength="59" x="174" y="325.1543">Resource</text><!--MD5=[92dc6ef2f70a23983af4e570fc6275cd]
class Funding--><rect codeLine="108" fill="#FFFFFF" filter="url(#f1tw0h363aihu)" height="32" id="Funding" style="stroke:#A80036;stroke-width:1.5;" width="82" x="90.5" y="437"/><ellipse cx="105.5" cy="453" fill="#ADD1B2" rx="11" ry="11" style="stroke:#A80036;stroke-width:1.0;"/><path d="M108.4688,458.6406 Q107.8906,458.9375 107.25,459.0781 Q106.6094,459.2344 105.9063,459.2344 Q103.4063,459.2344 102.0781,457.5938 Q100.7656,455.9375 100.7656,452.8125 Q100.7656,449.6875 102.0781,448.0313 Q103.4063,446.375 105.9063,446.375 Q106.6094,446.375 107.25,446.5313 Q107.9063,446.6875 108.4688,446.9844 L108.4688,449.7031 Q107.8438,449.125 107.25,448.8594 Q106.6563,448.5781 106.0313,448.5781 Q104.6875,448.5781 104,449.6563 Q103.3125,450.7188 103.3125,452.8125 Q103.3125,454.9063 104,455.9844 Q104.6875,457.0469 106.0313,457.0469 Q106.6563,457.0469 107.25,456.7813 Q107.8438,456.5 108.4688,455.9219 L108.4688,458.6406 Z " fill="#000000"/><text fill="#000000" font-family="sans-serif" font-size="12" lengthAdjust="spacing" textLength="50" x="119.5" y="457.1543">Funding</text><!--MD5=[05151c161079be2c12996cf31a3c6866]
class Contribution_to_Document--><rect codeLine="114" fill="#FFFFFF" filter="url(#f1tw0h363aihu)" height="32" id="Contribution_to_Document" style="stroke:#A80036;stroke-width:1.5;" width="198" x="278.5" y="305"/><ellipse cx="293.5" cy="321" fill="#ADD1B2" rx="11" ry="11" style="stroke:#A80036;stroke-width:1.0;"/><path d="M296.4688,326.6406 Q295.8906,326.9375 295.25,327.0781 Q294.6094,327.2344 293.9063,327.2344 Q291.4063,327.2344 290.0781,325.5938 Q288.7656,323.9375 288.7656,320.8125 Q288.7656,317.6875 290.0781,316.0313 Q291.4063,314.375 293.9063,314.375 Q294.6094,314.375 295.25,314.5313 Q295.9063,314.6875 296.4688,314.9844 L296.4688,317.7031 Q295.8438,317.125 295.25,316.8594 Q294.6563,316.5781 294.0313,316.5781 Q292.6875,316.5781 292,317.6563 Q291.3125,318.7188 291.3125,320.8125 Q291.3125,322.9063 292,323.9844 Q292.6875,325.0469 294.0313,325.0469 Q294.6563,325.0469 295.25,324.7813 Q295.8438,324.5 296.4688,323.9219 L296.4688,326.6406 Z " fill="#000000"/><text fill="#000000" font-family="sans-serif" font-size="12" lengthAdjust="spacing" textLength="166" x="307.5" y="325.1543">Contribution_to_Document</text><!--MD5=[59b530d44ae785dc18db921986a9c15c]
class Document--><rect codeLine="8" fill="#FFFFFF" filter="url(#f1tw0h363aihu)" height="78.4141" id="Document" style="stroke:#A80036;stroke-width:1.5;" width="148" x="207.5" y="414"/><ellipse cx="245.9" cy="430" fill="#ADD1B2" rx="11" ry="11" style="stroke:#A80036;stroke-width:1.0;"/><path d="M248.8688,435.6406 Q248.2906,435.9375 247.65,436.0781 Q247.0094,436.2344 246.3063,436.2344 Q243.8063,436.2344 242.4781,434.5938 Q241.1656,432.9375 241.1656,429.8125 Q241.1656,426.6875 242.4781,425.0313 Q243.8063,423.375 246.3063,423.375 Q247.0094,423.375 247.65,423.5313 Q248.3063,423.6875 248.8688,423.9844 L248.8688,426.7031 Q248.2438,426.125 247.65,425.8594 Q247.0563,425.5781 246.4313,425.5781 Q245.0875,425.5781 244.4,426.6563 Q243.7125,427.7188 243.7125,429.8125 Q243.7125,431.9063 244.4,432.9844 Q245.0875,434.0469 246.4313,434.0469 Q247.0563,434.0469 247.65,433.7813 Q248.2438,433.5 248.8688,432.9219 L248.8688,435.6406 Z " fill="#000000"/><text fill="#000000" font-family="sans-serif" font-size="12" lengthAdjust="spacing" textLength="64" x="265.1" y="434.1543">Document</text><line style="stroke:#A80036;stroke-width:1.5;" x1="208.5" x2="354.5" y1="446" y2="446"/><text fill="#000000" font-family="sans-serif" font-size="11" lengthAdjust="spacing" textLength="85" x="213.5" y="460.2104">DOI : DOI_Type</text><text fill="#000000" font-family="sans-serif" font-size="11" lengthAdjust="spacing" textLength="136" x="213.5" y="473.0151">title : Multilingual_String</text><text fill="#000000" font-family="sans-serif" font-size="11" lengthAdjust="spacing" textLength="125" x="213.5" y="485.8198">publicationDate : Date</text><!--MD5=[3b25461e5df73ababc6765bb9b0c47d3]
class Authorship--><rect codeLine="119" fill="#FFFFFF" filter="url(#f1tw0h363aihu)" height="52.8047" id="Authorship" style="stroke:#A80036;stroke-width:1.5;" width="212" x="390.5" y="426.5"/><ellipse cx="458.25" cy="442.5" fill="#ADD1B2" rx="11" ry="11" style="stroke:#A80036;stroke-width:1.0;"/><path d="M461.2188,448.1406 Q460.6406,448.4375 460,448.5781 Q459.3594,448.7344 458.6563,448.7344 Q456.1563,448.7344 454.8281,447.0938 Q453.5156,445.4375 453.5156,442.3125 Q453.5156,439.1875 454.8281,437.5313 Q456.1563,435.875 458.6563,435.875 Q459.3594,435.875 460,436.0313 Q460.6563,436.1875 461.2188,436.4844 L461.2188,439.2031 Q460.5938,438.625 460,438.3594 Q459.4063,438.0781 458.7813,438.0781 Q457.4375,438.0781 456.75,439.1563 Q456.0625,440.2188 456.0625,442.3125 Q456.0625,444.4063 456.75,445.4844 Q457.4375,446.5469 458.7813,446.5469 Q459.4063,446.5469 460,446.2813 Q460.5938,446 461.2188,445.4219 L461.2188,448.1406 Z " fill="#000000"/><text fill="#000000" font-family="sans-serif" font-size="12" lengthAdjust="spacing" textLength="68" x="478.75" y="446.6543">Authorship</text><line style="stroke:#A80036;stroke-width:1.5;" x1="391.5" x2="601.5" y1="458.5" y2="458.5"/><text fill="#000000" font-family="sans-serif" font-size="11" lengthAdjust="spacing" textLength="200" x="396.5" y="472.7104">correspondingAuthorFlag : Boolean</text><!--MD5=[fe105c2ee1fabf2400c31a97ce9128bc]
class Textual_Document--><rect codeLine="13" fill="#FFFFFF" filter="url(#f1tw0h363aihu)" height="32" id="Textual_Document" style="stroke:#A80036;stroke-width:1.5;" width="147" x="338" y="553"/><ellipse cx="353" cy="569" fill="#ADD1B2" rx="11" ry="11" style="stroke:#A80036;stroke-width:1.0;"/><path d="M355.9688,574.6406 Q355.3906,574.9375 354.75,575.0781 Q354.1094,575.2344 353.4063,575.2344 Q350.9063,575.2344 349.5781,573.5938 Q348.2656,571.9375 348.2656,568.8125 Q348.2656,565.6875 349.5781,564.0313 Q350.9063,562.375 353.4063,562.375 Q354.1094,562.375 354.75,562.5313 Q355.4063,562.6875 355.9688,562.9844 L355.9688,565.7031 Q355.3438,565.125 354.75,564.8594 Q354.1563,564.5781 353.5313,564.5781 Q352.1875,564.5781 351.5,565.6563 Q350.8125,566.7188 350.8125,568.8125 Q350.8125,570.9063 351.5,571.9844 Q352.1875,573.0469 353.5313,573.0469 Q354.1563,573.0469 354.75,572.7813 Q355.3438,572.5 355.9688,571.9219 L355.9688,574.6406 Z " fill="#000000"/><text fill="#000000" font-family="sans-serif" font-size="12" lengthAdjust="spacing" textLength="115" x="367" y="573.1543">Textual_Document</text><!--MD5=[d8ce9658d3ea3b764ca76e27f1ae6382]
class Contribution_to_Project--><rect codeLine="75" fill="#FFFFFF" filter="url(#f1tw0h363aihu)" height="32" id="Contribution_to_Project" style="stroke:#A80036;stroke-width:1.5;" width="178" x="511.5" y="305"/><ellipse cx="526.5" cy="321" fill="#ADD1B2" rx="11" ry="11" style="stroke:#A80036;stroke-width:1.0;"/><path d="M529.4688,326.6406 Q528.8906,326.9375 528.25,327.0781 Q527.6094,327.2344 526.9063,327.2344 Q524.4063,327.2344 523.0781,325.5938 Q521.7656,323.9375 521.7656,320.8125 Q521.7656,317.6875 523.0781,316.0313 Q524.4063,314.375 526.9063,314.375 Q527.6094,314.375 528.25,314.5313 Q528.9063,314.6875 529.4688,314.9844 L529.4688,317.7031 Q528.8438,317.125 528.25,316.8594 Q527.6563,316.5781 527.0313,316.5781 Q525.6875,316.5781 525,317.6563 Q524.3125,318.7188 524.3125,320.8125 Q524.3125,322.9063 525,323.9844 Q525.6875,325.0469 527.0313,325.0469 Q527.6563,325.0469 528.25,324.7813 Q528.8438,324.5 529.4688,323.9219 L529.4688,326.6406 Z " fill="#000000"/><text fill="#000000" font-family="sans-serif" font-size="12" lengthAdjust="spacing" textLength="146" x="540.5" y="325.1543">Contribution_to_Project</text><!--MD5=[79d378210367c0c6ec62ef762ddfbd1b]
class Project--><rect codeLine="78" fill="#FFFFFF" filter="url(#f1tw0h363aihu)" height="32" id="Project" style="stroke:#A80036;stroke-width:1.5;" width="76" x="637.5" y="437"/><ellipse cx="652.5" cy="453" fill="#ADD1B2" rx="11" ry="11" style="stroke:#A80036;stroke-width:1.0;"/><path d="M655.4688,458.6406 Q654.8906,458.9375 654.25,459.0781 Q653.6094,459.2344 652.9063,459.2344 Q650.4063,459.2344 649.0781,457.5938 Q647.7656,455.9375 647.7656,452.8125 Q647.7656,449.6875 649.0781,448.0313 Q650.4063,446.375 652.9063,446.375 Q653.6094,446.375 654.25,446.5313 Q654.9063,446.6875 655.4688,446.9844 L655.4688,449.7031 Q654.8438,449.125 654.25,448.8594 Q653.6563,448.5781 653.0313,448.5781 Q651.6875,448.5781 651,449.6563 Q650.3125,450.7188 650.3125,452.8125 Q650.3125,454.9063 651,455.9844 Q651.6875,457.0469 653.0313,457.0469 Q653.6563,457.0469 654.25,456.7813 Q654.8438,456.5 655.4688,455.9219 L655.4688,458.6406 Z " fill="#000000"/><text fill="#000000" font-family="sans-serif" font-size="12" lengthAdjust="spacing" textLength="44" x="666.5" y="457.1543">Project</text><!--MD5=[e02578a13076095640a9a08de0c36172]
class Contribution_to_Event--><rect codeLine="83" fill="#FFFFFF" filter="url(#f1tw0h363aihu)" height="32" id="Contribution_to_Event" style="stroke:#A80036;stroke-width:1.5;" width="169" x="724" y="305"/><ellipse cx="739" cy="321" fill="#ADD1B2" rx="11" ry="11" style="stroke:#A80036;stroke-width:1.0;"/><path d="M741.9688,326.6406 Q741.3906,326.9375 740.75,327.0781 Q740.1094,327.2344 739.4063,327.2344 Q736.9063,327.2344 735.5781,325.5938 Q734.2656,323.9375 734.2656,320.8125 Q734.2656,317.6875 735.5781,316.0313 Q736.9063,314.375 739.4063,314.375 Q740.1094,314.375 740.75,314.5313 Q741.4063,314.6875 741.9688,314.9844 L741.9688,317.7031 Q741.3438,317.125 740.75,316.8594 Q740.1563,316.5781 739.5313,316.5781 Q738.1875,316.5781 737.5,317.6563 Q736.8125,318.7188 736.8125,320.8125 Q736.8125,322.9063 737.5,323.9844 Q738.1875,325.0469 739.5313,325.0469 Q740.1563,325.0469 740.75,324.7813 Q741.3438,324.5 741.9688,323.9219 L741.9688,326.6406 Z " fill="#000000"/><text fill="#000000" font-family="sans-serif" font-size="12" lengthAdjust="spacing" textLength="137" x="753" y="325.1543">Contribution_to_Event</text><!--MD5=[ac13618b1a974308c1f12eb6c57723dc]
class Event--><rect codeLine="86" fill="#FFFFFF" filter="url(#f1tw0h363aihu)" height="32" id="Event" style="stroke:#A80036;stroke-width:1.5;" width="67" x="775" y="437"/><ellipse cx="790" cy="453" fill="#ADD1B2" rx="11" ry="11" style="stroke:#A80036;stroke-width:1.0;"/><path d="M792.9688,458.6406 Q792.3906,458.9375 791.75,459.0781 Q791.1094,459.2344 790.4063,459.2344 Q787.9063,459.2344 786.5781,457.5938 Q785.2656,455.9375 785.2656,452.8125 Q785.2656,449.6875 786.5781,448.0313 Q787.9063,446.375 790.4063,446.375 Q791.1094,446.375 791.75,446.5313 Q792.4063,446.6875 792.9688,446.9844 L792.9688,449.7031 Q792.3438,449.125 791.75,448.8594 Q791.1563,448.5781 790.5313,448.5781 Q789.1875,448.5781 788.5,449.6563 Q787.8125,450.7188 787.8125,452.8125 Q787.8125,454.9063 788.5,455.9844 Q789.1875,457.0469 790.5313,457.0469 Q791.1563,457.0469 791.75,456.7813 Q792.3438,456.5 792.9688,455.9219 L792.9688,458.6406 Z " fill="#000000"/><text fill="#000000" font-family="sans-serif" font-size="12" lengthAdjust="spacing" textLength="35" x="804" y="457.1543">Event</text><!--MD5=[77463bb17ddcfe3891c27a1f4a877731]
class Membership--><rect codeLine="60" fill="#FFFFFF" filter="url(#f1tw0h363aihu)" height="32" id="Membership" style="stroke:#A80036;stroke-width:1.5;" width="108" x="1057.5" y="17.5"/><ellipse cx="1072.5" cy="33.5" fill="#ADD1B2" rx="11" ry="11" style="stroke:#A80036;stroke-width:1.0;"/><path d="M1075.4688,39.1406 Q1074.8906,39.4375 1074.25,39.5781 Q1073.6094,39.7344 1072.9063,39.7344 Q1070.4063,39.7344 1069.0781,38.0938 Q1067.7656,36.4375 1067.7656,33.3125 Q1067.7656,30.1875 1069.0781,28.5313 Q1070.4063,26.875 1072.9063,26.875 Q1073.6094,26.875 1074.25,27.0313 Q1074.9063,27.1875 1075.4688,27.4844 L1075.4688,30.2031 Q1074.8438,29.625 1074.25,29.3594 Q1073.6563,29.0781 1073.0313,29.0781 Q1071.6875,29.0781 1071,30.1563 Q1070.3125,31.2188 1070.3125,33.3125 Q1070.3125,35.4063 1071,36.4844 Q1071.6875,37.5469 1073.0313,37.5469 Q1073.6563,37.5469 1074.25,37.2813 Q1074.8438,37 1075.4688,36.4219 L1075.4688,39.1406 Z " fill="#000000"/><text fill="#000000" font-family="sans-serif" font-size="12" lengthAdjust="spacing" textLength="76" x="1086.5" y="37.6543">Membership</text><!--MD5=[ddbff00b4911ad4b77d6aa32dd14d1d7]
class Affiliation_Statement--><rect codeLine="138" fill="#FFFFFF" filter="url(#f1tw0h363aihu)" height="91.2188" id="Affiliation_Statement" style="stroke:#A80036;stroke-width:1.5;" width="215" x="1000" y="137"/><ellipse cx="1039.3" cy="153" fill="#ADD1B2" rx="11" ry="11" style="stroke:#A80036;stroke-width:1.0;"/><path d="M1042.2688,158.6406 Q1041.6906,158.9375 1041.05,159.0781 Q1040.4094,159.2344 1039.7063,159.2344 Q1037.2063,159.2344 1035.8781,157.5938 Q1034.5656,155.9375 1034.5656,152.8125 Q1034.5656,149.6875 1035.8781,148.0313 Q1037.2063,146.375 1039.7063,146.375 Q1040.4094,146.375 1041.05,146.5313 Q1041.7063,146.6875 1042.2688,146.9844 L1042.2688,149.7031 Q1041.6438,149.125 1041.05,148.8594 Q1040.4563,148.5781 1039.8313,148.5781 Q1038.4875,148.5781 1037.8,149.6563 Q1037.1125,150.7188 1037.1125,152.8125 Q1037.1125,154.9063 1037.8,155.9844 Q1038.4875,157.0469 1039.8313,157.0469 Q1040.4563,157.0469 1041.05,156.7813 Q1041.6438,156.5 1042.2688,155.9219 L1042.2688,158.6406 Z " fill="#000000"/><text fill="#000000" font-family="sans-serif" font-size="12" lengthAdjust="spacing" textLength="129" x="1058.7" y="157.1543">Affiliation_Statement</text><line style="stroke:#A80036;stroke-width:1.5;" x1="1001" x2="1214" y1="169" y2="169"/><text fill="#000000" font-family="sans-serif" font-size="11" lengthAdjust="spacing" textLength="203" x="1006" y="183.2104">displayAffiliation_Statement : String</text><text fill="#000000" font-family="sans-serif" font-size="11" lengthAdjust="spacing" textLength="159" x="1006" y="196.0151">displayPersonName : String</text><text fill="#000000" font-family="sans-serif" font-size="11" lengthAdjust="spacing" textLength="147" x="1006" y="208.8198">address : Postal_Address</text><text fill="#000000" font-family="sans-serif" font-size="11" lengthAdjust="spacing" textLength="116" x="1006" y="221.6245">contacts : List&lt;URI&gt;</text><!--MD5=[affb11a45f8309443fb20b6133e8d181]
class Group_or_Organisation_Unit--><rect codeLine="25" fill="#FFFFFF" filter="url(#f1tw0h363aihu)" height="32" id="Group_or_Organisation_Unit" style="stroke:#A80036;stroke-width:1.5;" width="206" x="1200.5" y="17.5"/><ellipse cx="1215.5" cy="33.5" fill="#ADD1B2" rx="11" ry="11" style="stroke:#A80036;stroke-width:1.0;"/><path d="M1218.4688,39.1406 Q1217.8906,39.4375 1217.25,39.5781 Q1216.6094,39.7344 1215.9063,39.7344 Q1213.4063,39.7344 1212.0781,38.0938 Q1210.7656,36.4375 1210.7656,33.3125 Q1210.7656,30.1875 1212.0781,28.5313 Q1213.4063,26.875 1215.9063,26.875 Q1216.6094,26.875 1217.25,27.0313 Q1217.9063,27.1875 1218.4688,27.4844 L1218.4688,30.2031 Q1217.8438,29.625 1217.25,29.3594 Q1216.6563,29.0781 1216.0313,29.0781 Q1214.6875,29.0781 1214,30.1563 Q1213.3125,31.2188 1213.3125,33.3125 Q1213.3125,35.4063 1214,36.4844 Q1214.6875,37.5469 1216.0313,37.5469 Q1216.6563,37.5469 1217.25,37.2813 Q1217.8438,37 1218.4688,36.4219 L1218.4688,39.1406 Z " fill="#000000"/><text fill="#000000" font-family="sans-serif" font-size="12" lengthAdjust="spacing" textLength="174" x="1229.5" y="37.6543">Group_or_Organisation_Unit</text><!--MD5=[cd935cc757d29bd6a59b1252b30899e0]
link Activity to Agent--><path codeLine="263" d="M946.5,60.26 C946.5,89.61 946.5,139.01 946.5,181.5 C946.5,181.5 946.5,181.5 946.5,570 C946.5,643.08 694.01,657.49 586.28,660.32 " fill="none" id="Activity-to-Agent" style="stroke:#A80036;stroke-width:1.0;"/><polygon fill="#FFFFFF" points="573.29,660.62,579.3807,664.4805,585.2868,660.3432,579.1961,656.4826,573.29,660.62" style="stroke:#A80036;stroke-width:1.0;"/><text fill="#000000" font-family="sans-serif" font-size="13" lengthAdjust="spacing" textLength="23" x="920.9844" y="79.8572">0..*</text><text fill="#000000" font-family="sans-serif" font-size="13" lengthAdjust="spacing" textLength="53" x="581.1428" y="656.5577">0..1 who</text><!--MD5=[7f6050a74bc451868143c93ee5406b0d]
link Contribution_Statement to Contribution--><path codeLine="255" d="M436.12,182.5 C474.33,182.5 517.8,182.5 552.93,182.5 " fill="none" id="Contribution_Statement-to-Contribution" style="stroke:#A80036;stroke-width:1.0;"/><polygon fill="#A80036" points="565.95,182.5,559.95,178.5,553.95,182.5,559.95,186.5,565.95,182.5" style="stroke:#A80036;stroke-width:1.0;"/><polygon fill="#000000" points="453.5,171.0664,462.5451,174.0053,462.5451,168.1275,453.5,171.0664" style="stroke:#000000;stroke-width:1.0;"/><text fill="#000000" font-family="sans-serif" font-size="13" lengthAdjust="spacing" textLength="80" x="467.5" y="175.5669">is detailed in</text><text fill="#000000" font-family="sans-serif" font-size="13" lengthAdjust="spacing" textLength="23" x="444.0917" y="195.1537">0..*</text><!--MD5=[55f20054f286b2e7074e8d22fab1f608]
reverse link Activity to Contribution--><path codeLine="295" d="M871.27,68.42 C802.87,99.26 705.1,143.35 654.21,166.3 " fill="none" id="Activity-backto-Contribution" style="stroke:#A80036;stroke-width:1.0;"/><polygon fill="none" points="868.61,61.95,889.72,60.11,874.36,74.71,868.61,61.95" style="stroke:#A80036;stroke-width:1.0;"/><!--MD5=[b01ee177fc17bf8bb95324fc01c31b3b]
link Contribution_Statement to Resource--><path codeLine="307" d="M314.72,209.17 C284.52,236.12 237.81,277.79 211.1,301.62 " fill="none" id="Contribution_Statement-to-Resource" style="stroke:#A80036;stroke-width:1.0;"/><polygon fill="#A80036" points="207.31,305,216.6877,301.9903,211.0399,301.6702,211.3601,296.0224,207.31,305" style="stroke:#A80036;stroke-width:1.0;"/><polygon fill="#000000" points="259.7691,269.8951,268.4749,266.0664,264.5618,261.6804,259.7691,269.8951" style="stroke:#000000;stroke-width:1.0;"/><text fill="#000000" font-family="sans-serif" font-size="13" lengthAdjust="spacing" textLength="54" x="272.5" y="271.0669">provides</text><text fill="#000000" font-family="sans-serif" font-size="13" lengthAdjust="spacing" textLength="24" x="184.9634" y="294.0116">0..1</text><!--MD5=[b86dd3d6caac9ef35311a748754f0957]
link Resource_Usage_Statement to Resource--><path codeLine="308" d="M126.36,209.17 C141.7,235.67 165.28,276.43 179.17,300.43 " fill="none" id="Resource_Usage_Statement-to-Resource" style="stroke:#A80036;stroke-width:1.0;"/><polygon fill="#A80036" points="181.82,305,180.7826,295.2059,179.3193,300.6703,173.855,299.207,181.82,305" style="stroke:#A80036;stroke-width:1.0;"/><polygon fill="#000000" points="171.0043,270.894,169.0177,261.5933,163.9303,264.5373,171.0043,270.894" style="stroke:#000000;stroke-width:1.0;"/><text fill="#000000" font-family="sans-serif" font-size="13" lengthAdjust="spacing" textLength="30" x="177.5" y="271.0669">uses</text><!--MD5=[b4d83fecb285bfa9e47b90918b67714d]
link Resource_Usage_Statement to Contribution_Statement--><path codeLine="309" d="M216.17,182.5 C223.43,182.5 230.68,182.5 237.93,182.5 " fill="none" id="Resource_Usage_Statement-to-Contribution_Statement" style="stroke:#A80036;stroke-width:1.0;"/><polygon fill="#FFFFFF" points="250.99,182.5,244.99,178.5,238.99,182.5,244.99,186.5,250.99,182.5" style="stroke:#A80036;stroke-width:1.0;"/><text fill="#000000" font-family="sans-serif" font-size="13" lengthAdjust="spacing" textLength="23" x="223.9752" y="179.074">0..*</text><!--MD5=[a21829bf9e22d7ad2257d12c520c50b2]
reverse link Resource to Funding--><path codeLine="310" d="M175.31,355.46 C163.38,381.75 147.33,417.12 138.34,436.93 " fill="none" id="Resource-backto-Funding" style="stroke:#A80036;stroke-width:1.0;"/><polygon fill="none" points="168.98,352.49,183.62,337.17,181.73,358.27,168.98,352.49" style="stroke:#A80036;stroke-width:1.0;"/><!--MD5=[117c8d017b65f89954aa553a8ad2cfe8]
link Contribution_to_Document to Document--><path codeLine="259" d="M361.55,337.11 C353.06,345.53 342.72,356.42 334.5,367 C324.34,380.08 314.41,395.19 305.94,409.02 " fill="none" id="Contribution_to_Document-to-Document" style="stroke:#A80036;stroke-width:1.0;"/><polygon fill="#A80036" points="303.12,413.65,311.2026,408.0222,305.7093,409.3727,304.3589,403.8794,303.12,413.65" style="stroke:#A80036;stroke-width:1.0;"/><polygon fill="#000000" points="336.4413,379.5217,344.2994,374.1644,339.6497,370.5686,336.4413,379.5217" style="stroke:#000000;stroke-width:1.0;"/><text fill="#000000" font-family="sans-serif" font-size="13" lengthAdjust="spacing" textLength="65" x="348.5" y="380.0669">document</text><!--MD5=[8d7c614e8203540f95956299e63d224a]
reverse link Contribution to Contribution_to_Document--><path codeLine="275" d="M575.96,208.52 C525.84,236.67 446.05,281.5 404.55,304.8 " fill="none" id="Contribution-backto-Contribution_to_Document" style="stroke:#A80036;stroke-width:1.0;"/><polygon fill="none" points="572.7,202.32,593.57,198.63,579.56,214.53,572.7,202.32" style="stroke:#A80036;stroke-width:1.0;"/><!--MD5=[db20fd804d8595e73b6b8c99fdd1338c]
link Authorship to Textual_Document--><path codeLine="267" d="M477.42,479.58 C463.41,498.37 444.47,523.79 430.48,542.54 " fill="none" id="Authorship-to-Textual_Document" style="stroke:#A80036;stroke-width:1.0;"/><polygon fill="#A80036" points="422.7,552.98,429.4926,550.5591,429.8704,543.3579,423.0779,545.7788,422.7,552.98" style="stroke:#A80036;stroke-width:1.0;"/><!--MD5=[585439cc3a9acb21770d204e54b00812]
reverse link Contribution_to_Document to Authorship--><path codeLine="271" d="M405.14,352.19 C425.66,374.62 453.37,404.89 472.87,426.19 " fill="none" id="Contribution_to_Document-backto-Authorship" style="stroke:#A80036;stroke-width:1.0;"/><polygon fill="none" points="399.72,356.65,391.38,337.17,410.05,347.19,399.72,356.65" style="stroke:#A80036;stroke-width:1.0;"/><!--MD5=[49125a4ba45432b051dcbcd9e53401d7]
link Authorship to Agent--><path codeLine="314" d="M501.73,479.8 C509.66,518.87 524.65,592.75 532.83,633.05 " fill="none" id="Authorship-to-Agent" style="stroke:#A80036;stroke-width:1.0;"/><polygon fill="#FFFFFF" points="535.42,645.8,538.1469,639.1244,533.0337,634.0397,530.3067,640.7153,535.42,645.8" style="stroke:#A80036;stroke-width:1.0;"/><text fill="#000000" font-family="sans-serif" font-size="13" lengthAdjust="spacing" textLength="23" x="477.3584" y="499.4059">0..*</text><text fill="#000000" font-family="sans-serif" font-size="13" lengthAdjust="spacing" textLength="70" x="452.806" y="635.0383">0..1 author</text><!--MD5=[3bc04dee94cc69985a1813f74705f429]
reverse link Textual_Document to Agent--><path codeLine="357" d="M443.17,592.7 C466.39,609.33 497.26,631.45 517.5,645.95 " fill="none" id="Textual_Document-backto-Agent" style="stroke:#A80036;stroke-width:1.0;"/><polygon fill="#FFFFFF" points="432.47,585.03,435.0188,591.7756,442.2259,592.0173,439.6771,585.2717,432.47,585.03" style="stroke:#A80036;stroke-width:1.0;"/><text fill="#000000" font-family="sans-serif" font-size="13" lengthAdjust="spacing" textLength="159" x="253.3503" y="605.2082">0..* authoredDocuments</text><text fill="#000000" font-family="sans-serif" font-size="13" lengthAdjust="spacing" textLength="76" x="419.7438" y="654.8886">0..* authors</text><!--MD5=[e36b49b71580bc35ebd964809c09ea7d]
reverse link Contribution to Contribution_to_Project--><path codeLine="279" d="M615.33,218.79 C611.25,246.66 605.75,284.16 602.73,304.8 " fill="none" id="Contribution-backto-Contribution_to_Project" style="stroke:#A80036;stroke-width:1.0;"/><polygon fill="none" points="608.46,217.4,618.28,198.63,622.31,219.43,608.46,217.4" style="stroke:#A80036;stroke-width:1.0;"/><!--MD5=[57fd60736781c4a6a1ada02cfd005744]
link Contribution_to_Project to Project--><path codeLine="283" d="M609.25,337.17 C622.86,360.75 649.08,406.2 664.13,432.29 " fill="none" id="Contribution_to_Project-to-Project" style="stroke:#A80036;stroke-width:1.0;"/><polygon fill="#A80036" points="666.81,436.93,665.7726,427.1359,664.3093,432.6003,658.845,431.137,666.81,436.93" style="stroke:#A80036;stroke-width:1.0;"/><polygon fill="#000000" points="642.9987,379.8973,641.0241,370.594,635.9329,373.5314,642.9987,379.8973" style="stroke:#000000;stroke-width:1.0;"/><text fill="#000000" font-family="sans-serif" font-size="13" lengthAdjust="spacing" textLength="44" x="649.5" y="380.0669">project</text><!--MD5=[ff4a6d145294525e05493403423321eb]
reverse link Contribution to Contribution_to_Event--><path codeLine="287" d="M657.56,210.41 C696.44,238.64 756.17,282.01 787.57,304.8 " fill="none" id="Contribution-backto-Contribution_to_Event" style="stroke:#A80036;stroke-width:1.0;"/><polygon fill="none" points="653.41,216.04,641.34,198.63,661.63,204.72,653.41,216.04" style="stroke:#A80036;stroke-width:1.0;"/><!--MD5=[467ded19ca6884babd44a8b5c496328d]
link Contribution_to_Event to Event--><path codeLine="291" d="M808.5,337.17 C808.5,360.55 808.5,405.45 808.5,431.64 " fill="none" id="Contribution_to_Event-to-Event" style="stroke:#A80036;stroke-width:1.0;"/><polygon fill="#A80036" points="808.5,436.93,812.5,427.93,808.5,431.93,804.5,427.93,808.5,436.93" style="stroke:#A80036;stroke-width:1.0;"/><polygon fill="#000000" points="813.5,380.5664,816.4389,371.5213,810.5611,371.5213,813.5,380.5664" style="stroke:#000000;stroke-width:1.0;"/><text fill="#000000" font-family="sans-serif" font-size="13" lengthAdjust="spacing" textLength="36" x="822.5" y="380.0669">event</text><!--MD5=[335bc652314d68e20c6b9db39c8a9e92]
reverse link Activity to Affiliation_Statement--><path codeLine="251" d="M984.27,68.99 C1006.47,89.25 1034.76,115.09 1058.64,136.89 " fill="none" id="Activity-backto-Affiliation_Statement" style="stroke:#A80036;stroke-width:1.0;"/><polygon fill="#FFFFFF" points="974.54,60.11,976.277,67.1088,983.4055,68.1972,981.6685,61.1984,974.54,60.11" style="stroke:#A80036;stroke-width:1.0;"/><polygon fill="#000000" points="1030.1925,101.9377,1025.4943,93.6686,1021.5311,98.0094,1030.1925,101.9377" style="stroke:#000000;stroke-width:1.0;"/><text fill="#000000" font-family="sans-serif" font-size="13" lengthAdjust="spacing" textLength="61" x="1035.5" y="103.0669">affilations</text><text fill="#000000" font-family="sans-serif" font-size="13" lengthAdjust="spacing" textLength="23" x="955.1581" y="79.6743">0..*</text><text fill="#000000" font-family="sans-serif" font-size="13" lengthAdjust="spacing" textLength="23" x="1026.3974" y="125.8178">0..*</text><!--MD5=[945a4f0eaeab9fbe466b0309c366801e]
reverse link Resource to Document--><path codeLine="348" d="M212.7,353.72 C225.42,371.88 241.45,394.78 254.84,413.91 " fill="none" id="Resource-backto-Document" style="stroke:#A80036;stroke-width:1.0;"/><polygon fill="none" points="206.85,357.57,201.12,337.17,218.32,349.54,206.85,357.57" style="stroke:#A80036;stroke-width:1.0;"/><!--MD5=[67ceb885199ca7e1fa058287d8756a2e]
reverse link Document to Textual_Document--><path codeLine="349" d="M340.22,505.5 C359.84,522.7 380.22,540.57 394.14,552.77 " fill="none" id="Document-backto-Textual_Document" style="stroke:#A80036;stroke-width:1.0;"/><polygon fill="none" points="335.57,510.73,325.15,492.28,344.8,500.2,335.57,510.73" style="stroke:#A80036;stroke-width:1.0;"/><!--MD5=[668dab6a8c107fdb5d29785e4d6d3aec]
@startuml

    !includesub core.puml!common
    !includesub core.puml!Activity
    !includesub core.puml!Contribution
    !includesub core.puml!ContributionToDocument
    !includesub core.puml!Authorship
    !includesub core.puml!ContributionToProject
    !includesub core.puml!ContributionToEvent
    !includesub core.puml!Membership
    !includesub core.puml!AffiliationStatement
    !includesub core.puml!Document
    !includesub core.puml!Agent

@enduml

@startuml

        hide empty members
        skinparam BoxPadding 120
        class "Activity" #ffffff {
      		dateRange : Date_Range
        }
        "Activity" "0..*" - -o "0..1 who" "Agent"
        class "Contribution" #ffffff {
        }
            
        
        class "Contribution_Statement" #ffffff {
            statement : Multilingual_String
        }
    
        class "Resource_Usage_Statement" #ffffff {
            statement : Multilingual_String
        }
    
        class "Resource" #ffffff {
        }

        class "Funding" #ffffff {
        }
        "Contribution" *-l- "0..*" "Contribution_Statement" : is detailed in >
        "Activity" <|- - "Contribution"
         "Contribution_Statement" - -> "0..1" "Resource" : provides >
         "Resource_Usage_Statement" - -> "Resource" : uses >
         "Contribution_Statement" o-l- "0..*" "Resource_Usage_Statement"
         "Resource" <|- - "Funding"
        class "Contribution_to_Document" #ffffff {
        }
        "Contribution_to_Document" - -> "Document" : document >
        "Contribution" <|- - "Contribution_to_Document"
        class "Authorship" #ffffff {
            correspondingAuthorFlag : Boolean
        }
        "Authorship" - -* "Textual_Document"
        "Contribution_to_Document" <|- - "Authorship"
        "Authorship" "0..*" - -o "0..1 author" "Agent"
        "Textual_Document" "0..* authoredDocuments" o- - "0..* authors" "Agent"
        class "Contribution_to_Project" #ffffff {
        }
    
        class "Project" #ffffff {
        }
        "Contribution" <|- - "Contribution_to_Project"
        "Contribution_to_Project" - -> "Project" : project >
        class "Contribution_to_Event" #ffffff {
        }
    
        class "Event" #ffffff {
        }
        "Contribution" <|- - "Contribution_to_Event"
        "Contribution_to_Event" - -> "Event" : event >
        class "Membership" #ffffff {
        }
        class "Affiliation_Statement" #ffffff {
            displayAffiliation_Statement : String
            displayPersonName : String
            address : Postal_Address
            contacts : List<URI>
        }
        "Activity" "0..*" o- - "0..*" "Affiliation_Statement" : affilations >
        class "Document" #ffffff {
            DOI : DOI_Type
            title : Multilingual_String
            publicationDate : Date
        }
        class "Textual_Document" #ffffff {
        }
    	"Resource" <|- - "Document"
        "Document" <|-d- "Textual_Document"
        class "Agent" #ffffff {
        }
        class "Group_or_Organisation_Unit" #ffffff {
        }

@enduml

PlantUML version 1.2021.8(Sat Jun 26 08:20:59 UTC 2021)
(GPL source distribution)
Java Runtime: OpenJDK Runtime Environment
JVM: OpenJDK 64-Bit Server VM
Default Encoding: UTF-8
Language: en
Country: null
--></g></svg>