<?xml version="1.0" encoding="UTF-8" standalone="no"?><svg xmlns="http://www.w3.org/2000/svg" xmlns:xlink="http://www.w3.org/1999/xlink" contentScriptType="application/ecmascript" contentStyleType="text/css" height="506px" preserveAspectRatio="none" style="width:1652px;height:506px;background:#FFFFFF;" version="1.1" viewBox="0 0 1652 506" width="1652px" zoomAndPan="magnify"><defs><filter height="300%" id="f9gld4hy2aftf" width="300%" x="-1" y="-1"><feGaussianBlur result="blurOut" stdDeviation="2.0"/><feColorMatrix in="blurOut" result="blurOut2" type="matrix" values="0 0 0 0 0 0 0 0 0 0 0 0 0 0 0 0 0 0 .4 0"/><feOffset dx="4.0" dy="4.0" in="blurOut2" result="blurOut3"/><feBlend in="SourceGraphic" in2="blurOut3" mode="normal"/></filter></defs><g><!--MD5=[c881b25adf3665c6568c9693d41a70f3]
class Activity--><rect codeLine="91" fill="#FFFFFF" filter="url(#f9gld4hy2aftf)" height="52.8047" id="Activity" style="stroke:#A80036;stroke-width:1.5;" width="151" x="684" y="7"/><ellipse cx="733.75" cy="23" fill="#ADD1B2" rx="11" ry="11" style="stroke:#A80036;stroke-width:1.0;"/><path d="M736.7188,28.6406 Q736.1406,28.9375 735.5,29.0781 Q734.8594,29.2344 734.1563,29.2344 Q731.6563,29.2344 730.3281,27.5938 Q729.0156,25.9375 729.0156,22.8125 Q729.0156,19.6875 730.3281,18.0313 Q731.6563,16.375 734.1563,16.375 Q734.8594,16.375 735.5,16.5313 Q736.1563,16.6875 736.7188,16.9844 L736.7188,19.7031 Q736.0938,19.125 735.5,18.8594 Q734.9063,18.5781 734.2813,18.5781 Q732.9375,18.5781 732.25,19.6563 Q731.5625,20.7188 731.5625,22.8125 Q731.5625,24.9063 732.25,25.9844 Q732.9375,27.0469 734.2813,27.0469 Q734.9063,27.0469 735.5,26.7813 Q736.0938,26.5 736.7188,25.9219 L736.7188,28.6406 Z " fill="#000000"/><text fill="#000000" font-family="sans-serif" font-size="12" lengthAdjust="spacing" textLength="43" x="754.25" y="27.1543">Activity</text><line style="stroke:#A80036;stroke-width:1.5;" x1="685" x2="834" y1="39" y2="39"/><text fill="#000000" font-family="sans-serif" font-size="11" lengthAdjust="spacing" textLength="139" x="690" y="53.2104">dateRange : Date_Range</text><!--MD5=[9d44916250b776386006c440668bcfbb]
class Agent--><rect codeLine="10" fill="#FFFFFF" filter="url(#f9gld4hy2aftf)" height="52.8047" id="Agent" style="stroke:#A80036;stroke-width:1.5;" width="133" x="962" y="156"/><ellipse cx="1005.8" cy="172" fill="#ADD1B2" rx="11" ry="11" style="stroke:#A80036;stroke-width:1.0;"/><path d="M1008.7688,177.6406 Q1008.1906,177.9375 1007.55,178.0781 Q1006.9094,178.2344 1006.2063,178.2344 Q1003.7063,178.2344 1002.3781,176.5938 Q1001.0656,174.9375 1001.0656,171.8125 Q1001.0656,168.6875 1002.3781,167.0313 Q1003.7063,165.375 1006.2063,165.375 Q1006.9094,165.375 1007.55,165.5313 Q1008.2063,165.6875 1008.7688,165.9844 L1008.7688,168.7031 Q1008.1438,168.125 1007.55,167.8594 Q1006.9563,167.5781 1006.3313,167.5781 Q1004.9875,167.5781 1004.3,168.6563 Q1003.6125,169.7188 1003.6125,171.8125 Q1003.6125,173.9063 1004.3,174.9844 Q1004.9875,176.0469 1006.3313,176.0469 Q1006.9563,176.0469 1007.55,175.7813 Q1008.1438,175.5 1008.7688,174.9219 L1008.7688,177.6406 Z " fill="#000000"/><text fill="#000000" font-family="sans-serif" font-size="12" lengthAdjust="spacing" textLength="37" x="1026.2" y="176.1543">Agent</text><line style="stroke:#A80036;stroke-width:1.5;" x1="963" x2="1094" y1="188" y2="188"/><text fill="#000000" font-family="sans-serif" font-size="11" lengthAdjust="spacing" textLength="121" x="968" y="202.2104">lifetime : Date_Range</text><!--MD5=[0330879a1a385efee19ba3488ed490fa]
class Contribution--><rect codeLine="133" fill="#FFFFFF" filter="url(#f9gld4hy2aftf)" height="32" id="Contribution" style="stroke:#A80036;stroke-width:1.5;" width="109" x="1130" y="166.5"/><ellipse cx="1145" cy="182.5" fill="#ADD1B2" rx="11" ry="11" style="stroke:#A80036;stroke-width:1.0;"/><path d="M1147.9688,188.1406 Q1147.3906,188.4375 1146.75,188.5781 Q1146.1094,188.7344 1145.4063,188.7344 Q1142.9063,188.7344 1141.5781,187.0938 Q1140.2656,185.4375 1140.2656,182.3125 Q1140.2656,179.1875 1141.5781,177.5313 Q1142.9063,175.875 1145.4063,175.875 Q1146.1094,175.875 1146.75,176.0313 Q1147.4063,176.1875 1147.9688,176.4844 L1147.9688,179.2031 Q1147.3438,178.625 1146.75,178.3594 Q1146.1563,178.0781 1145.5313,178.0781 Q1144.1875,178.0781 1143.5,179.1563 Q1142.8125,180.2188 1142.8125,182.3125 Q1142.8125,184.4063 1143.5,185.4844 Q1144.1875,186.5469 1145.5313,186.5469 Q1146.1563,186.5469 1146.75,186.2813 Q1147.3438,186 1147.9688,185.4219 L1147.9688,188.1406 Z " fill="#000000"/><text fill="#000000" font-family="sans-serif" font-size="12" lengthAdjust="spacing" textLength="77" x="1159" y="186.6543">Contribution</text><!--MD5=[532fe005ca0bef0ad6b309c9c6480e22]
class Contribution_Statement--><rect codeLine="233" fill="#FFFFFF" filter="url(#f9gld4hy2aftf)" height="52.8047" id="Contribution_Statement" style="stroke:#A80036;stroke-width:1.5;" width="185" x="7" y="156"/><ellipse cx="23.8" cy="172" fill="#ADD1B2" rx="11" ry="11" style="stroke:#A80036;stroke-width:1.0;"/><path d="M26.7688,177.6406 Q26.1906,177.9375 25.55,178.0781 Q24.9094,178.2344 24.2063,178.2344 Q21.7063,178.2344 20.3781,176.5938 Q19.0656,174.9375 19.0656,171.8125 Q19.0656,168.6875 20.3781,167.0313 Q21.7063,165.375 24.2063,165.375 Q24.9094,165.375 25.55,165.5313 Q26.2063,165.6875 26.7688,165.9844 L26.7688,168.7031 Q26.1438,168.125 25.55,167.8594 Q24.9563,167.5781 24.3313,167.5781 Q22.9875,167.5781 22.3,168.6563 Q21.6125,169.7188 21.6125,171.8125 Q21.6125,173.9063 22.3,174.9844 Q22.9875,176.0469 24.3313,176.0469 Q24.9563,176.0469 25.55,175.7813 Q26.1438,175.5 26.7688,174.9219 L26.7688,177.6406 Z " fill="#000000"/><text fill="#000000" font-family="sans-serif" font-size="12" lengthAdjust="spacing" textLength="149" x="38.2" y="176.1543">Contribution_Statement</text><line style="stroke:#A80036;stroke-width:1.5;" x1="8" x2="191" y1="188" y2="188"/><text fill="#000000" font-family="sans-serif" font-size="11" lengthAdjust="spacing" textLength="173" x="13" y="202.2104">statement : Multilingual_String</text><!--MD5=[6b13f1b330d33795af281e5c1dfe1e98]
class Resource--><rect codeLine="181" fill="#FFFFFF" filter="url(#f9gld4hy2aftf)" height="32" id="Resource" style="stroke:#A80036;stroke-width:1.5;" width="91" x="54" y="305"/><ellipse cx="69" cy="321" fill="#ADD1B2" rx="11" ry="11" style="stroke:#A80036;stroke-width:1.0;"/><path d="M71.9688,326.6406 Q71.3906,326.9375 70.75,327.0781 Q70.1094,327.2344 69.4063,327.2344 Q66.9063,327.2344 65.5781,325.5938 Q64.2656,323.9375 64.2656,320.8125 Q64.2656,317.6875 65.5781,316.0313 Q66.9063,314.375 69.4063,314.375 Q70.1094,314.375 70.75,314.5313 Q71.4063,314.6875 71.9688,314.9844 L71.9688,317.7031 Q71.3438,317.125 70.75,316.8594 Q70.1563,316.5781 69.5313,316.5781 Q68.1875,316.5781 67.5,317.6563 Q66.8125,318.7188 66.8125,320.8125 Q66.8125,322.9063 67.5,323.9844 Q68.1875,325.0469 69.5313,325.0469 Q70.1563,325.0469 70.75,324.7813 Q71.3438,324.5 71.9688,323.9219 L71.9688,326.6406 Z " fill="#000000"/><text fill="#000000" font-family="sans-serif" font-size="12" lengthAdjust="spacing" textLength="59" x="83" y="325.1543">Resource</text><!--MD5=[05151c161079be2c12996cf31a3c6866]
class Contribution_to_Document--><rect codeLine="151" fill="#FFFFFF" filter="url(#f9gld4hy2aftf)" height="32" id="Contribution_to_Document" style="stroke:#A80036;stroke-width:1.5;" width="198" x="1023.5" y="305"/><ellipse cx="1038.5" cy="321" fill="#ADD1B2" rx="11" ry="11" style="stroke:#A80036;stroke-width:1.0;"/><path d="M1041.4688,326.6406 Q1040.8906,326.9375 1040.25,327.0781 Q1039.6094,327.2344 1038.9063,327.2344 Q1036.4063,327.2344 1035.0781,325.5938 Q1033.7656,323.9375 1033.7656,320.8125 Q1033.7656,317.6875 1035.0781,316.0313 Q1036.4063,314.375 1038.9063,314.375 Q1039.6094,314.375 1040.25,314.5313 Q1040.9063,314.6875 1041.4688,314.9844 L1041.4688,317.7031 Q1040.8438,317.125 1040.25,316.8594 Q1039.6563,316.5781 1039.0313,316.5781 Q1037.6875,316.5781 1037,317.6563 Q1036.3125,318.7188 1036.3125,320.8125 Q1036.3125,322.9063 1037,323.9844 Q1037.6875,325.0469 1039.0313,325.0469 Q1039.6563,325.0469 1040.25,324.7813 Q1040.8438,324.5 1041.4688,323.9219 L1041.4688,326.6406 Z " fill="#000000"/><text fill="#000000" font-family="sans-serif" font-size="12" lengthAdjust="spacing" textLength="166" x="1052.5" y="325.1543">Contribution_to_Document</text><!--MD5=[59b530d44ae785dc18db921986a9c15c]
class Document--><rect codeLine="199" fill="#FFFFFF" filter="url(#f9gld4hy2aftf)" height="78.4141" id="Document" style="stroke:#A80036;stroke-width:1.5;" width="148" x="1048.5" y="414"/><ellipse cx="1086.9" cy="430" fill="#ADD1B2" rx="11" ry="11" style="stroke:#A80036;stroke-width:1.0;"/><path d="M1089.8688,435.6406 Q1089.2906,435.9375 1088.65,436.0781 Q1088.0094,436.2344 1087.3063,436.2344 Q1084.8063,436.2344 1083.4781,434.5938 Q1082.1656,432.9375 1082.1656,429.8125 Q1082.1656,426.6875 1083.4781,425.0313 Q1084.8063,423.375 1087.3063,423.375 Q1088.0094,423.375 1088.65,423.5313 Q1089.3063,423.6875 1089.8688,423.9844 L1089.8688,426.7031 Q1089.2438,426.125 1088.65,425.8594 Q1088.0563,425.5781 1087.4313,425.5781 Q1086.0875,425.5781 1085.4,426.6563 Q1084.7125,427.7188 1084.7125,429.8125 Q1084.7125,431.9063 1085.4,432.9844 Q1086.0875,434.0469 1087.4313,434.0469 Q1088.0563,434.0469 1088.65,433.7813 Q1089.2438,433.5 1089.8688,432.9219 L1089.8688,435.6406 Z " fill="#000000"/><text fill="#000000" font-family="sans-serif" font-size="12" lengthAdjust="spacing" textLength="64" x="1106.1" y="434.1543">Document</text><line style="stroke:#A80036;stroke-width:1.5;" x1="1049.5" x2="1195.5" y1="446" y2="446"/><text fill="#000000" font-family="sans-serif" font-size="11" lengthAdjust="spacing" textLength="52" x="1054.5" y="460.2104">DOI : DOI</text><text fill="#000000" font-family="sans-serif" font-size="11" lengthAdjust="spacing" textLength="136" x="1054.5" y="473.0151">title : Multilingual_String</text><text fill="#000000" font-family="sans-serif" font-size="11" lengthAdjust="spacing" textLength="125" x="1054.5" y="485.8198">publicationDate : Date</text><!--MD5=[d8ce9658d3ea3b764ca76e27f1ae6382]
class Contribution_to_Project--><rect codeLine="142" fill="#FFFFFF" filter="url(#f9gld4hy2aftf)" height="32" id="Contribution_to_Project" style="stroke:#A80036;stroke-width:1.5;" width="178" x="1256.5" y="305"/><ellipse cx="1271.5" cy="321" fill="#ADD1B2" rx="11" ry="11" style="stroke:#A80036;stroke-width:1.0;"/><path d="M1274.4688,326.6406 Q1273.8906,326.9375 1273.25,327.0781 Q1272.6094,327.2344 1271.9063,327.2344 Q1269.4063,327.2344 1268.0781,325.5938 Q1266.7656,323.9375 1266.7656,320.8125 Q1266.7656,317.6875 1268.0781,316.0313 Q1269.4063,314.375 1271.9063,314.375 Q1272.6094,314.375 1273.25,314.5313 Q1273.9063,314.6875 1274.4688,314.9844 L1274.4688,317.7031 Q1273.8438,317.125 1273.25,316.8594 Q1272.6563,316.5781 1272.0313,316.5781 Q1270.6875,316.5781 1270,317.6563 Q1269.3125,318.7188 1269.3125,320.8125 Q1269.3125,322.9063 1270,323.9844 Q1270.6875,325.0469 1272.0313,325.0469 Q1272.6563,325.0469 1273.25,324.7813 Q1273.8438,324.5 1274.4688,323.9219 L1274.4688,326.6406 Z " fill="#000000"/><text fill="#000000" font-family="sans-serif" font-size="12" lengthAdjust="spacing" textLength="146" x="1285.5" y="325.1543">Contribution_to_Project</text><!--MD5=[79d378210367c0c6ec62ef762ddfbd1b]
class Project--><rect codeLine="223" fill="#FFFFFF" filter="url(#f9gld4hy2aftf)" height="32" id="Project" style="stroke:#A80036;stroke-width:1.5;" width="76" x="1307.5" y="437"/><ellipse cx="1322.5" cy="453" fill="#ADD1B2" rx="11" ry="11" style="stroke:#A80036;stroke-width:1.0;"/><path d="M1325.4688,458.6406 Q1324.8906,458.9375 1324.25,459.0781 Q1323.6094,459.2344 1322.9063,459.2344 Q1320.4063,459.2344 1319.0781,457.5938 Q1317.7656,455.9375 1317.7656,452.8125 Q1317.7656,449.6875 1319.0781,448.0313 Q1320.4063,446.375 1322.9063,446.375 Q1323.6094,446.375 1324.25,446.5313 Q1324.9063,446.6875 1325.4688,446.9844 L1325.4688,449.7031 Q1324.8438,449.125 1324.25,448.8594 Q1323.6563,448.5781 1323.0313,448.5781 Q1321.6875,448.5781 1321,449.6563 Q1320.3125,450.7188 1320.3125,452.8125 Q1320.3125,454.9063 1321,455.9844 Q1321.6875,457.0469 1323.0313,457.0469 Q1323.6563,457.0469 1324.25,456.7813 Q1324.8438,456.5 1325.4688,455.9219 L1325.4688,458.6406 Z " fill="#000000"/><text fill="#000000" font-family="sans-serif" font-size="12" lengthAdjust="spacing" textLength="44" x="1336.5" y="457.1543">Project</text><!--MD5=[e02578a13076095640a9a08de0c36172]
class Contribution_to_Event--><rect codeLine="160" fill="#FFFFFF" filter="url(#f9gld4hy2aftf)" height="32" id="Contribution_to_Event" style="stroke:#A80036;stroke-width:1.5;" width="169" x="1469" y="305"/><ellipse cx="1484" cy="321" fill="#ADD1B2" rx="11" ry="11" style="stroke:#A80036;stroke-width:1.0;"/><path d="M1486.9688,326.6406 Q1486.3906,326.9375 1485.75,327.0781 Q1485.1094,327.2344 1484.4063,327.2344 Q1481.9063,327.2344 1480.5781,325.5938 Q1479.2656,323.9375 1479.2656,320.8125 Q1479.2656,317.6875 1480.5781,316.0313 Q1481.9063,314.375 1484.4063,314.375 Q1485.1094,314.375 1485.75,314.5313 Q1486.4063,314.6875 1486.9688,314.9844 L1486.9688,317.7031 Q1486.3438,317.125 1485.75,316.8594 Q1485.1563,316.5781 1484.5313,316.5781 Q1483.1875,316.5781 1482.5,317.6563 Q1481.8125,318.7188 1481.8125,320.8125 Q1481.8125,322.9063 1482.5,323.9844 Q1483.1875,325.0469 1484.5313,325.0469 Q1485.1563,325.0469 1485.75,324.7813 Q1486.3438,324.5 1486.9688,323.9219 L1486.9688,326.6406 Z " fill="#000000"/><text fill="#000000" font-family="sans-serif" font-size="12" lengthAdjust="spacing" textLength="137" x="1498" y="325.1543">Contribution_to_Event</text><!--MD5=[ac13618b1a974308c1f12eb6c57723dc]
class Event--><rect codeLine="228" fill="#FFFFFF" filter="url(#f9gld4hy2aftf)" height="32" id="Event" style="stroke:#A80036;stroke-width:1.5;" width="67" x="1520" y="437"/><ellipse cx="1535" cy="453" fill="#ADD1B2" rx="11" ry="11" style="stroke:#A80036;stroke-width:1.0;"/><path d="M1537.9688,458.6406 Q1537.3906,458.9375 1536.75,459.0781 Q1536.1094,459.2344 1535.4063,459.2344 Q1532.9063,459.2344 1531.5781,457.5938 Q1530.2656,455.9375 1530.2656,452.8125 Q1530.2656,449.6875 1531.5781,448.0313 Q1532.9063,446.375 1535.4063,446.375 Q1536.1094,446.375 1536.75,446.5313 Q1537.4063,446.6875 1537.9688,446.9844 L1537.9688,449.7031 Q1537.3438,449.125 1536.75,448.8594 Q1536.1563,448.5781 1535.5313,448.5781 Q1534.1875,448.5781 1533.5,449.6563 Q1532.8125,450.7188 1532.8125,452.8125 Q1532.8125,454.9063 1533.5,455.9844 Q1534.1875,457.0469 1535.5313,457.0469 Q1536.1563,457.0469 1536.75,456.7813 Q1537.3438,456.5 1537.9688,455.9219 L1537.9688,458.6406 Z " fill="#000000"/><text fill="#000000" font-family="sans-serif" font-size="12" lengthAdjust="spacing" textLength="35" x="1549" y="457.1543">Event</text><!--MD5=[6a029e66987f6edc98a50822cc78695f]
class Involvement--><rect codeLine="97" fill="#FFFFFF" filter="url(#f9gld4hy2aftf)" height="32" id="Involvement" style="stroke:#A80036;stroke-width:1.5;" width="106" x="619.5" y="166.5"/><ellipse cx="634.5" cy="182.5" fill="#ADD1B2" rx="11" ry="11" style="stroke:#A80036;stroke-width:1.0;"/><path d="M637.4688,188.1406 Q636.8906,188.4375 636.25,188.5781 Q635.6094,188.7344 634.9063,188.7344 Q632.4063,188.7344 631.0781,187.0938 Q629.7656,185.4375 629.7656,182.3125 Q629.7656,179.1875 631.0781,177.5313 Q632.4063,175.875 634.9063,175.875 Q635.6094,175.875 636.25,176.0313 Q636.9063,176.1875 637.4688,176.4844 L637.4688,179.2031 Q636.8438,178.625 636.25,178.3594 Q635.6563,178.0781 635.0313,178.0781 Q633.6875,178.0781 633,179.1563 Q632.3125,180.2188 632.3125,182.3125 Q632.3125,184.4063 633,185.4844 Q633.6875,186.5469 635.0313,186.5469 Q635.6563,186.5469 636.25,186.2813 Q636.8438,186 637.4688,185.4219 L637.4688,188.1406 Z " fill="#000000"/><text fill="#000000" font-family="sans-serif" font-size="12" lengthAdjust="spacing" textLength="74" x="648.5" y="186.6543">Involvement</text><!--MD5=[affb11a45f8309443fb20b6133e8d181]
class Group_or_Organisation_Unit--><rect codeLine="43" fill="#FFFFFF" filter="url(#f9gld4hy2aftf)" height="32" id="Group_or_Organisation_Unit" style="stroke:#A80036;stroke-width:1.5;" width="206" x="782.5" y="305"/><ellipse cx="797.5" cy="321" fill="#ADD1B2" rx="11" ry="11" style="stroke:#A80036;stroke-width:1.0;"/><path d="M800.4688,326.6406 Q799.8906,326.9375 799.25,327.0781 Q798.6094,327.2344 797.9063,327.2344 Q795.4063,327.2344 794.0781,325.5938 Q792.7656,323.9375 792.7656,320.8125 Q792.7656,317.6875 794.0781,316.0313 Q795.4063,314.375 797.9063,314.375 Q798.6094,314.375 799.25,314.5313 Q799.9063,314.6875 800.4688,314.9844 L800.4688,317.7031 Q799.8438,317.125 799.25,316.8594 Q798.6563,316.5781 798.0313,316.5781 Q796.6875,316.5781 796,317.6563 Q795.3125,318.7188 795.3125,320.8125 Q795.3125,322.9063 796,323.9844 Q796.6875,325.0469 798.0313,325.0469 Q798.6563,325.0469 799.25,324.7813 Q799.8438,324.5 800.4688,323.9219 L800.4688,326.6406 Z " fill="#000000"/><text fill="#000000" font-family="sans-serif" font-size="12" lengthAdjust="spacing" textLength="174" x="811.5" y="325.1543">Group_or_Organisation_Unit</text><!--MD5=[ddbff00b4911ad4b77d6aa32dd14d1d7]
class Affiliation_Statement--><rect codeLine="276" fill="#FFFFFF" filter="url(#f9gld4hy2aftf)" height="91.2188" id="Affiliation_Statement" style="stroke:#A80036;stroke-width:1.5;" width="215" x="227" y="137"/><ellipse cx="266.3" cy="153" fill="#ADD1B2" rx="11" ry="11" style="stroke:#A80036;stroke-width:1.0;"/><path d="M269.2688,158.6406 Q268.6906,158.9375 268.05,159.0781 Q267.4094,159.2344 266.7063,159.2344 Q264.2063,159.2344 262.8781,157.5938 Q261.5656,155.9375 261.5656,152.8125 Q261.5656,149.6875 262.8781,148.0313 Q264.2063,146.375 266.7063,146.375 Q267.4094,146.375 268.05,146.5313 Q268.7063,146.6875 269.2688,146.9844 L269.2688,149.7031 Q268.6438,149.125 268.05,148.8594 Q267.4563,148.5781 266.8313,148.5781 Q265.4875,148.5781 264.8,149.6563 Q264.1125,150.7188 264.1125,152.8125 Q264.1125,154.9063 264.8,155.9844 Q265.4875,157.0469 266.8313,157.0469 Q267.4563,157.0469 268.05,156.7813 Q268.6438,156.5 269.2688,155.9219 L269.2688,158.6406 Z " fill="#000000"/><text fill="#000000" font-family="sans-serif" font-size="12" lengthAdjust="spacing" textLength="129" x="285.7" y="157.1543">Affiliation_Statement</text><line style="stroke:#A80036;stroke-width:1.5;" x1="228" x2="441" y1="169" y2="169"/><text fill="#000000" font-family="sans-serif" font-size="11" lengthAdjust="spacing" textLength="203" x="233" y="183.2104">displayAffiliation_Statement : String</text><text fill="#000000" font-family="sans-serif" font-size="11" lengthAdjust="spacing" textLength="159" x="233" y="196.0151">displayPersonName : String</text><text fill="#000000" font-family="sans-serif" font-size="11" lengthAdjust="spacing" textLength="147" x="233" y="208.8198">address : Postal_Address</text><text fill="#000000" font-family="sans-serif" font-size="11" lengthAdjust="spacing" textLength="116" x="233" y="221.6245">contacts : List&lt;URI&gt;</text><!--MD5=[77463bb17ddcfe3891c27a1f4a877731]
class Membership--><rect codeLine="124" fill="#FFFFFF" filter="url(#f9gld4hy2aftf)" height="32" id="Membership" style="stroke:#A80036;stroke-width:1.5;" width="108" x="365.5" y="305"/><ellipse cx="380.5" cy="321" fill="#ADD1B2" rx="11" ry="11" style="stroke:#A80036;stroke-width:1.0;"/><path d="M383.4688,326.6406 Q382.8906,326.9375 382.25,327.0781 Q381.6094,327.2344 380.9063,327.2344 Q378.4063,327.2344 377.0781,325.5938 Q375.7656,323.9375 375.7656,320.8125 Q375.7656,317.6875 377.0781,316.0313 Q378.4063,314.375 380.9063,314.375 Q381.6094,314.375 382.25,314.5313 Q382.9063,314.6875 383.4688,314.9844 L383.4688,317.7031 Q382.8438,317.125 382.25,316.8594 Q381.6563,316.5781 381.0313,316.5781 Q379.6875,316.5781 379,317.6563 Q378.3125,318.7188 378.3125,320.8125 Q378.3125,322.9063 379,323.9844 Q379.6875,325.0469 381.0313,325.0469 Q381.6563,325.0469 382.25,324.7813 Q382.8438,324.5 383.4688,323.9219 L383.4688,326.6406 Z " fill="#000000"/><text fill="#000000" font-family="sans-serif" font-size="12" lengthAdjust="spacing" textLength="76" x="394.5" y="325.1543">Membership</text><!--MD5=[3e7c08c6da448472712568ab49cd8e32]
class Education--><rect codeLine="115" fill="#FFFFFF" filter="url(#f9gld4hy2aftf)" height="32" id="Education" style="stroke:#A80036;stroke-width:1.5;" width="95" x="509" y="305"/><ellipse cx="524" cy="321" fill="#ADD1B2" rx="11" ry="11" style="stroke:#A80036;stroke-width:1.0;"/><path d="M526.9688,326.6406 Q526.3906,326.9375 525.75,327.0781 Q525.1094,327.2344 524.4063,327.2344 Q521.9063,327.2344 520.5781,325.5938 Q519.2656,323.9375 519.2656,320.8125 Q519.2656,317.6875 520.5781,316.0313 Q521.9063,314.375 524.4063,314.375 Q525.1094,314.375 525.75,314.5313 Q526.4063,314.6875 526.9688,314.9844 L526.9688,317.7031 Q526.3438,317.125 525.75,316.8594 Q525.1563,316.5781 524.5313,316.5781 Q523.1875,316.5781 522.5,317.6563 Q521.8125,318.7188 521.8125,320.8125 Q521.8125,322.9063 522.5,323.9844 Q523.1875,325.0469 524.5313,325.0469 Q525.1563,325.0469 525.75,324.7813 Q526.3438,324.5 526.9688,323.9219 L526.9688,326.6406 Z " fill="#000000"/><text fill="#000000" font-family="sans-serif" font-size="12" lengthAdjust="spacing" textLength="63" x="538" y="325.1543">Education</text><!--MD5=[1c0f67851325b0845e0b86703ac36f9d]
class Employment--><rect codeLine="106" fill="#FFFFFF" filter="url(#f9gld4hy2aftf)" height="32" id="Employment" style="stroke:#A80036;stroke-width:1.5;" width="108" x="639.5" y="305"/><ellipse cx="654.5" cy="321" fill="#ADD1B2" rx="11" ry="11" style="stroke:#A80036;stroke-width:1.0;"/><path d="M657.4688,326.6406 Q656.8906,326.9375 656.25,327.0781 Q655.6094,327.2344 654.9063,327.2344 Q652.4063,327.2344 651.0781,325.5938 Q649.7656,323.9375 649.7656,320.8125 Q649.7656,317.6875 651.0781,316.0313 Q652.4063,314.375 654.9063,314.375 Q655.6094,314.375 656.25,314.5313 Q656.9063,314.6875 657.4688,314.9844 L657.4688,317.7031 Q656.8438,317.125 656.25,316.8594 Q655.6563,316.5781 655.0313,316.5781 Q653.6875,316.5781 653,317.6563 Q652.3125,318.7188 652.3125,320.8125 Q652.3125,322.9063 653,323.9844 Q653.6875,325.0469 655.0313,325.0469 Q655.6563,325.0469 656.25,324.7813 Q656.8438,324.5 657.4688,323.9219 L657.4688,326.6406 Z " fill="#000000"/><text fill="#000000" font-family="sans-serif" font-size="12" lengthAdjust="spacing" textLength="76" x="668.5" y="325.1543">Employment</text><!--MD5=[cd935cc757d29bd6a59b1252b30899e0]
link Activity to Agent--><path codeLine="171" d="M806.36,60.11 C854.14,86.22 928.05,126.61 977.34,153.54 " fill="none" id="Activity-to-Agent" style="stroke:#A80036;stroke-width:1.0;"/><polygon fill="#A80036" points="981.73,155.94,975.7551,148.1106,977.3438,153.5397,971.9146,155.1285,981.73,155.94" style="stroke:#A80036;stroke-width:1.0;"/><polygon fill="#000000" points="894.8877,100.964,888.3596,94.0477,885.541,99.2057,894.8877,100.964" style="stroke:#000000;stroke-width:1.0;"/><text fill="#000000" font-family="sans-serif" font-size="13" lengthAdjust="spacing" textLength="33" x="899.5" y="103.0669">actor</text><text fill="#000000" font-family="sans-serif" font-size="13" lengthAdjust="spacing" textLength="23" x="791.095" y="79.6743">0..*</text><text fill="#000000" font-family="sans-serif" font-size="13" lengthAdjust="spacing" textLength="24" x="943.4048" y="144.7448">0..1</text><!--MD5=[55f20054f286b2e7074e8d22fab1f608]
reverse link Activity to Contribution--><path codeLine="138" d="M854.91,54.78 C927.38,71.93 1028.54,99.7 1112.5,137 C1130.63,145.05 1149.66,156.99 1163.6,166.47 " fill="none" id="Activity-backto-Contribution" style="stroke:#A80036;stroke-width:1.0;"/><polygon fill="none" points="853.17,61.56,835.27,50.22,856.33,47.92,853.17,61.56" style="stroke:#A80036;stroke-width:1.0;"/><!--MD5=[b01ee177fc17bf8bb95324fc01c31b3b]
link Contribution_Statement to Resource--><path codeLine="433" d="M99.5,209.17 C99.5,235.45 99.5,275.75 99.5,299.83 " fill="none" id="Contribution_Statement-to-Resource" style="stroke:#A80036;stroke-width:1.0;"/><polygon fill="#A80036" points="99.5,305,103.5,296,99.5,300,95.5,296,99.5,305" style="stroke:#A80036;stroke-width:1.0;"/><polygon fill="#000000" points="104.5,271.5664,107.4389,262.5213,101.5611,262.5213,104.5,271.5664" style="stroke:#000000;stroke-width:1.0;"/><text fill="#000000" font-family="sans-serif" font-size="13" lengthAdjust="spacing" textLength="54" x="113.5" y="271.0669">provides</text><text fill="#000000" font-family="sans-serif" font-size="13" lengthAdjust="spacing" textLength="24" x="71.375" y="294.0116">0..1</text><!--MD5=[8d7c614e8203540f95956299e63d224a]
reverse link Contribution to Contribution_to_Document--><path codeLine="156" d="M1169.22,217.14 C1156.49,245.16 1138.96,283.75 1129.4,304.8 " fill="none" id="Contribution-backto-Contribution_to_Document" style="stroke:#A80036;stroke-width:1.0;"/><polygon fill="none" points="1162.98,213.94,1177.63,198.63,1175.73,219.73,1162.98,213.94" style="stroke:#A80036;stroke-width:1.0;"/><!--MD5=[117c8d017b65f89954aa553a8ad2cfe8]
link Contribution_to_Document to Document--><path codeLine="417" d="M1122.5,337.17 C1122.5,354.61 1122.5,384.03 1122.5,408.72 " fill="none" id="Contribution_to_Document-to-Document" style="stroke:#A80036;stroke-width:1.0;"/><polygon fill="#A80036" points="1122.5,413.91,1126.5,404.91,1122.5,408.91,1118.5,404.91,1122.5,413.91" style="stroke:#A80036;stroke-width:1.0;"/><polygon fill="#000000" points="1127.5,380.5664,1130.4389,371.5213,1124.5611,371.5213,1127.5,380.5664" style="stroke:#000000;stroke-width:1.0;"/><text fill="#000000" font-family="sans-serif" font-size="13" lengthAdjust="spacing" textLength="65" x="1136.5" y="380.0669">document</text><!--MD5=[e36b49b71580bc35ebd964809c09ea7d]
reverse link Contribution to Contribution_to_Project--><path codeLine="147" d="M1218.05,211.95 C1251.37,240.19 1301.17,282.42 1327.58,304.8 " fill="none" id="Contribution-backto-Contribution_to_Project" style="stroke:#A80036;stroke-width:1.0;"/><polygon fill="none" points="1213.07,216.9,1202.34,198.63,1222.13,206.22,1213.07,216.9" style="stroke:#A80036;stroke-width:1.0;"/><!--MD5=[57fd60736781c4a6a1ada02cfd005744]
link Contribution_to_Project to Project--><path codeLine="219" d="M1345.5,337.17 C1345.5,360.55 1345.5,405.45 1345.5,431.64 " fill="none" id="Contribution_to_Project-to-Project" style="stroke:#A80036;stroke-width:1.0;"/><polygon fill="#A80036" points="1345.5,436.93,1349.5,427.93,1345.5,431.93,1341.5,427.93,1345.5,436.93" style="stroke:#A80036;stroke-width:1.0;"/><polygon fill="#000000" points="1350.5,380.5664,1353.4389,371.5213,1347.5611,371.5213,1350.5,380.5664" style="stroke:#000000;stroke-width:1.0;"/><text fill="#000000" font-family="sans-serif" font-size="13" lengthAdjust="spacing" textLength="44" x="1359.5" y="380.0669">project</text><!--MD5=[ff4a6d145294525e05493403423321eb]
reverse link Contribution to Contribution_to_Event--><path codeLine="165" d="M1244.3,205.62 C1319.76,233.54 1447.57,280.81 1512.7,304.91 " fill="none" id="Contribution-backto-Contribution_to_Event" style="stroke:#A80036;stroke-width:1.0;"/><polygon fill="none" points="1241.73,212.13,1225.4,198.63,1246.59,199,1241.73,212.13" style="stroke:#A80036;stroke-width:1.0;"/><!--MD5=[467ded19ca6884babd44a8b5c496328d]
link Contribution_to_Event to Event--><path codeLine="429" d="M1553.5,337.17 C1553.5,360.55 1553.5,405.45 1553.5,431.64 " fill="none" id="Contribution_to_Event-to-Event" style="stroke:#A80036;stroke-width:1.0;"/><polygon fill="#A80036" points="1553.5,436.93,1557.5,427.93,1553.5,431.93,1549.5,427.93,1553.5,436.93" style="stroke:#A80036;stroke-width:1.0;"/><polygon fill="#000000" points="1558.5,380.5664,1561.4389,371.5213,1555.5611,371.5213,1558.5,380.5664" style="stroke:#000000;stroke-width:1.0;"/><text fill="#000000" font-family="sans-serif" font-size="13" lengthAdjust="spacing" textLength="36" x="1567.5" y="380.0669">event</text><!--MD5=[5310b7429ef001befd0a176a00932538]
reverse link Activity to Involvement--><path codeLine="102" d="M734.11,77.4 C716.46,107.23 693.95,145.25 681.62,166.1 " fill="none" id="Activity-backto-Involvement" style="stroke:#A80036;stroke-width:1.0;"/><polygon fill="none" points="728.14,73.75,744.35,60.11,740.18,80.88,728.14,73.75" style="stroke:#A80036;stroke-width:1.0;"/><!--MD5=[3e6df519c6409dff9ecce5f5942987dd]
link Involvement to Group_or_Organisation_Unit--><path codeLine="175" d="M696.11,198.63 C735.69,224 815.26,274.99 857.56,302.1 " fill="none" id="Involvement-to-Group_or_Organisation_Unit" style="stroke:#A80036;stroke-width:1.0;"/><polygon fill="#A80036" points="861.79,304.8,856.3697,296.5768,857.5799,302.1027,852.0541,303.3129,861.79,304.8" style="stroke:#A80036;stroke-width:1.0;"/><polygon fill="#000000" points="819.7097,269.2643,813.6801,261.9094,810.5085,266.8581,819.7097,269.2643" style="stroke:#000000;stroke-width:1.0;"/><text fill="#000000" font-family="sans-serif" font-size="13" lengthAdjust="spacing" textLength="67" x="824.5" y="271.0669">involved in</text><text fill="#000000" font-family="sans-serif" font-size="13" lengthAdjust="spacing" textLength="23" x="677.1214" y="218.5463">0..*</text><!--MD5=[ec091f800280b56df8e15aaaa2e5104f]
reverse link Affiliation_Statement to Involvement--><path codeLine="572" d="M447.6,182.5 C505.61,182.5 573.53,182.5 619.43,182.5 " fill="none" id="Affiliation_Statement-backto-Involvement" style="stroke:#A80036;stroke-width:1.0;"/><polygon fill="#A80036" points="442.37,182.5,451.37,186.5,447.37,182.5,451.37,178.5,442.37,182.5" style="stroke:#A80036;stroke-width:1.0;"/><polygon fill="#000000" points="459.25,171.0664,468.2951,174.0053,468.2951,168.1275,459.25,171.0664" style="stroke:#000000;stroke-width:1.0;"/><text fill="#000000" font-family="sans-serif" font-size="13" lengthAdjust="spacing" textLength="128" x="473.25" y="175.5669">is the foundation for</text><text fill="#000000" font-family="sans-serif" font-size="13" lengthAdjust="spacing" textLength="23" x="450.0171" y="195.0446">0..*</text><text fill="#000000" font-family="sans-serif" font-size="13" lengthAdjust="spacing" textLength="23" x="588.5605" y="195.4891">0..*</text><!--MD5=[eeb1986463f873db234da87eccdc590b]
link Involvement to Involvement--><path codeLine="576" d="M725.77,174.63 C744.9,174.46 760.5,177.09 760.5,182.5 C760.5,187.41 747.69,190.02 731.05,190.34 " fill="none" id="Involvement-to-Involvement" style="stroke:#A80036;stroke-width:1.0;"/><polygon fill="#A80036" points="725.77,190.37,734.7927,194.3185,730.7699,190.3414,734.747,186.3186,725.77,190.37" style="stroke:#A80036;stroke-width:1.0;"/><polygon fill="#000000" points="765.4556,187.5662,768.4748,178.5476,762.5971,178.4954,765.4556,187.5662" style="stroke:#000000;stroke-width:1.0;"/><text fill="#000000" font-family="sans-serif" font-size="13" lengthAdjust="spacing" textLength="26" x="779.5" y="187.0669">part</text><text fill="#000000" font-family="sans-serif" font-size="13" lengthAdjust="spacing" textLength="23" x="733.6638" y="186.6599">0..*</text><text fill="#000000" font-family="sans-serif" font-size="13" lengthAdjust="spacing" textLength="24" x="733.3168" y="204.2217">0..1</text><!--MD5=[eeb1986463f873db234da87eccdc590b]
link Involvement to Involvement--><path codeLine="580" d="M725.79,168.61 C767.26,163.76 811.5,168.39 811.5,182.5 C811.5,196 770.98,200.82 731.15,196.96 " fill="none" id="Involvement-to-Involvement-1" style="stroke:#A80036;stroke-width:1.0;"/><polygon fill="#A80036" points="725.79,196.39,734.3167,201.3191,730.762,196.9186,735.1625,193.364,725.79,196.39" style="stroke:#A80036;stroke-width:1.0;"/><polygon fill="#000000" points="815.9192,187.5326,819.8889,178.8901,814.0508,178.2073,815.9192,187.5326" style="stroke:#000000;stroke-width:1.0;"/><text fill="#000000" font-family="sans-serif" font-size="13" lengthAdjust="spacing" textLength="89" x="830.5" y="187.0669">part transitive</text><text fill="#000000" font-family="sans-serif" font-size="13" lengthAdjust="spacing" textLength="23" x="733.6863" y="163.0781">0..*</text><text fill="#000000" font-family="sans-serif" font-size="13" lengthAdjust="spacing" textLength="23" x="722.1179" y="218.3805">0..*</text><!--MD5=[774ab914c44fde287bade86ae1a1d531]
reverse link Involvement to Membership--><path codeLine="129" d="M626.81,208.15 C574.68,236.28 491.06,281.39 447.67,304.8 " fill="none" id="Involvement-backto-Membership" style="stroke:#A80036;stroke-width:1.0;"/><polygon fill="none" points="623.53,201.97,644.46,198.63,630.18,214.29,623.53,201.97" style="stroke:#A80036;stroke-width:1.0;"/><!--MD5=[e6302ca8d503674dcb8235c7c53cdc01]
reverse link Involvement to Education--><path codeLine="120" d="M646.66,213.91 C622.68,242.12 588,282.93 569.41,304.8 " fill="none" id="Involvement-backto-Education" style="stroke:#A80036;stroke-width:1.0;"/><polygon fill="none" points="641.36,209.34,659.64,198.63,652.03,218.4,641.36,209.34" style="stroke:#A80036;stroke-width:1.0;"/><!--MD5=[5dcf1ca4d8097aa908f88de41c3d702a]
reverse link Involvement to Employment--><path codeLine="111" d="M677.93,218.79 C682.22,246.66 687.99,284.16 691.16,304.8 " fill="none" id="Involvement-backto-Employment" style="stroke:#A80036;stroke-width:1.0;"/><polygon fill="none" points="670.95,219.46,674.83,198.63,684.79,217.33,670.95,219.46" style="stroke:#A80036;stroke-width:1.0;"/><!--MD5=[335bc652314d68e20c6b9db39c8a9e92]
reverse link Activity to Affiliation_Statement--><path codeLine="409" d="M670.57,40.3 C608.96,46.82 526.18,60.66 458.5,90 C431.87,101.55 405.53,119.74 384.03,136.87 " fill="none" id="Activity-backto-Affiliation_Statement" style="stroke:#A80036;stroke-width:1.0;"/><polygon fill="#FFFFFF" points="683.78,38.98,677.4136,35.5934,671.8389,40.1675,678.2053,43.5541,683.78,38.98" style="stroke:#A80036;stroke-width:1.0;"/><polygon fill="#000000" points="458.7619,100.1633,468.2719,100.0595,466.3946,94.4895,458.7619,100.1633" style="stroke:#000000;stroke-width:1.0;"/><text fill="#000000" font-family="sans-serif" font-size="13" lengthAdjust="spacing" textLength="61" x="472.5" y="103.0669">affilations</text><text fill="#000000" font-family="sans-serif" font-size="13" lengthAdjust="spacing" textLength="23" x="653.012" y="35.8816">0..*</text><text fill="#000000" font-family="sans-serif" font-size="13" lengthAdjust="spacing" textLength="23" x="366.8533" y="125.7948">0..*</text><!--MD5=[7f6050a74bc451868143c93ee5406b0d]
link Contribution_Statement to Contribution--><path codeLine="413" d="M154.67,155.97 C171.87,148.72 191.16,141.59 209.5,137 C353.98,100.81 394.23,111.34 543,104 C744.54,94.05 1103.73,134.13 1112.5,137 C1127.2,141.81 1141.9,150.29 1154.15,158.63 " fill="none" id="Contribution_Statement-to-Contribution" style="stroke:#A80036;stroke-width:1.0;"/><polygon fill="#A80036" points="1165.07,166.46,1162.5212,159.7144,1155.3141,159.4727,1157.8629,166.2183,1165.07,166.46" style="stroke:#A80036;stroke-width:1.0;"/><polygon fill="#000000" points="543,98.5531,552.0372,101.5161,552.0529,95.6383,543,98.5531" style="stroke:#000000;stroke-width:1.0;"/><text fill="#000000" font-family="sans-serif" font-size="13" lengthAdjust="spacing" textLength="80" x="557" y="103.0669">is detailed in</text><text fill="#000000" font-family="sans-serif" font-size="13" lengthAdjust="spacing" textLength="23" x="142.3146" y="144.7821">0..*</text><!--MD5=[8baa0633a34be8ca6adcc4fd46743d97]
reverse link Agent to Group_or_Organisation_Unit--><path codeLine="48" d="M987.03,223.09 C958.31,250.5 921.7,285.44 901.21,305 " fill="none" id="Agent-backto-Group_or_Organisation_Unit" style="stroke:#A80036;stroke-width:1.0;"/><polygon fill="none" points="982.3,217.92,1001.6,209.17,991.97,228.05,982.3,217.92" style="stroke:#A80036;stroke-width:1.0;"/><!--MD5=[f2324477f224312dcf006f97010f7e75]
@startuml

    !includesub core.puml!common
    !includesub core.puml!Activity
    !includesub core.puml!Contribution
    !includesub core.puml!Contribution_to_Document
    !includesub core.puml!Contribution_to_Project
    !includesub core.puml!Contribution_to_Event
    !includesub core.puml!Involvement
    !includesub core.puml!Membership
    !includesub core.puml!Education
    !includesub core.puml!Employment
    !includesub core.puml!Affiliation_Statement
    !includesub core.puml!Contribution_Statement
    !includesub core.puml!Resource
    !includesub core.puml!Document
    !includesub core.puml!Project
    !includesub core.puml!Event
    !includesub core.puml!Agent
    !includesub core.puml!Group_or_Organisation_Unit

@enduml

@startuml

    hide empty members
    skinparam BoxPadding 120
    class "Activity" #ffffff {
  		dateRange : Date_Range
    }
    "Activity" "0..*" - -> "0..1" "Agent" : actor >
    class "Contribution" #ffffff {
    }
    "Activity" <|- - "Contribution"
     "Contribution_Statement" - -> "0..1" "Resource" : provides >
    class "Contribution_to_Document" #ffffff {
    }
    "Contribution" <|- - "Contribution_to_Document"
    "Contribution_to_Document" - -> "Document" : document >
    class "Contribution_to_Project" #ffffff {
    }
    "Contribution" <|- - "Contribution_to_Project"
    "Contribution_to_Project" - -> "Project" : project >
    class "Contribution_to_Event" #ffffff {
    }
    "Contribution" <|- - "Contribution_to_Event"
    "Contribution_to_Event" - -> "Event" : event >
    class "Involvement" #ffffff {
    }
    "Activity" <|- - "Involvement"
	"Involvement" "0..*" - -> "Group_or_Organisation_Unit" : involved in >
	"Involvement" "0..*" -l-> "0..*" "Affiliation_Statement" : is the foundation for >
	"Involvement" "0..*" - -> "0..1" "Involvement" : part >
	"Involvement" "0..*" - -> "0..*" "Involvement" : part transitive >
    class "Membership" #ffffff {
    }
    "Involvement" <|- - "Membership"
    class "Education" #ffffff {
    }
    "Involvement" <|- - "Education"
    class "Employment" #ffffff {
    }
    "Involvement" <|- - "Employment"
    class "Affiliation_Statement" #ffffff {
        displayAffiliation_Statement : String
        displayPersonName : String
        address : Postal_Address
        contacts : List<URI>
    }
    "Activity" "0..*" o- - "0..*" "Affiliation_Statement" : affilations >
    class "Contribution_Statement" #ffffff {
        statement : Multilingual_String
    }
    "Contribution" *-l- "0..*" "Contribution_Statement" : is detailed in >
    class "Resource" #ffffff {
    }
    class "Document" #ffffff {
        DOI : DOI
        title : Multilingual_String
        publicationDate : Date
    }
    class "Project" #ffffff {
    }
    class "Event" #ffffff {
    }
    class "Agent" #ffffff {
    	lifetime : Date_Range
    }
    class "Group_or_Organisation_Unit" #ffffff {
    }
	"Agent" <|- - "Group_or_Organisation_Unit"

@enduml

PlantUML version 1.2021.8(Sat Jun 26 08:20:59 UTC 2021)
(GPL source distribution)
Java Runtime: OpenJDK Runtime Environment
JVM: OpenJDK 64-Bit Server VM
Default Encoding: UTF-8
Language: en
Country: null
--></g></svg>