<?xml version="1.0" encoding="UTF-8" standalone="no"?><svg xmlns="http://www.w3.org/2000/svg" xmlns:xlink="http://www.w3.org/1999/xlink" contentScriptType="application/ecmascript" contentStyleType="text/css" height="639px" preserveAspectRatio="none" style="width:1232px;height:639px;background:#FFFFFF;" version="1.1" viewBox="0 0 1232 639" width="1232px" zoomAndPan="magnify"><defs><filter height="300%" id="f15ovpsv1321qp" width="300%" x="-1" y="-1"><feGaussianBlur result="blurOut" stdDeviation="2.0"/><feColorMatrix in="blurOut" result="blurOut2" type="matrix" values="0 0 0 0 0 0 0 0 0 0 0 0 0 0 0 0 0 0 .4 0"/><feOffset dx="4.0" dy="4.0" in="blurOut2" result="blurOut3"/><feBlend in="SourceGraphic" in2="blurOut3" mode="normal"/></filter></defs><g><!--MD5=[c881b25adf3665c6568c9693d41a70f3]
class Activity--><rect codeLine="52" fill="#FFFFFF" filter="url(#f15ovpsv1321qp)" height="32" id="Activity" style="stroke:#A80036;stroke-width:1.5;" width="75" x="647.5" y="7"/><ellipse cx="662.5" cy="23" fill="#ADD1B2" rx="11" ry="11" style="stroke:#A80036;stroke-width:1.0;"/><path d="M665.4688,28.6406 Q664.8906,28.9375 664.25,29.0781 Q663.6094,29.2344 662.9063,29.2344 Q660.4063,29.2344 659.0781,27.5938 Q657.7656,25.9375 657.7656,22.8125 Q657.7656,19.6875 659.0781,18.0313 Q660.4063,16.375 662.9063,16.375 Q663.6094,16.375 664.25,16.5313 Q664.9063,16.6875 665.4688,16.9844 L665.4688,19.7031 Q664.8438,19.125 664.25,18.8594 Q663.6563,18.5781 663.0313,18.5781 Q661.6875,18.5781 661,19.6563 Q660.3125,20.7188 660.3125,22.8125 Q660.3125,24.9063 661,25.9844 Q661.6875,27.0469 663.0313,27.0469 Q663.6563,27.0469 664.25,26.7813 Q664.8438,26.5 665.4688,25.9219 L665.4688,28.6406 Z " fill="#000000"/><text fill="#000000" font-family="sans-serif" font-size="12" lengthAdjust="spacing" textLength="43" x="676.5" y="27.1543">Activity</text><!--MD5=[9d44916250b776386006c440668bcfbb]
class Agent--><rect codeLine="23" fill="#FFFFFF" filter="url(#f15ovpsv1321qp)" height="32" id="Agent" style="stroke:#A80036;stroke-width:1.5;" width="69" x="247.5" y="593"/><ellipse cx="262.5" cy="609" fill="#ADD1B2" rx="11" ry="11" style="stroke:#A80036;stroke-width:1.0;"/><path d="M265.4688,614.6406 Q264.8906,614.9375 264.25,615.0781 Q263.6094,615.2344 262.9063,615.2344 Q260.4063,615.2344 259.0781,613.5938 Q257.7656,611.9375 257.7656,608.8125 Q257.7656,605.6875 259.0781,604.0313 Q260.4063,602.375 262.9063,602.375 Q263.6094,602.375 264.25,602.5313 Q264.9063,602.6875 265.4688,602.9844 L265.4688,605.7031 Q264.8438,605.125 264.25,604.8594 Q263.6563,604.5781 263.0313,604.5781 Q261.6875,604.5781 261,605.6563 Q260.3125,606.7188 260.3125,608.8125 Q260.3125,610.9063 261,611.9844 Q261.6875,613.0469 263.0313,613.0469 Q263.6563,613.0469 264.25,612.7813 Q264.8438,612.5 265.4688,611.9219 L265.4688,614.6406 Z " fill="#000000"/><text fill="#000000" font-family="sans-serif" font-size="12" lengthAdjust="spacing" textLength="37" x="276.5" y="613.1543">Agent</text><!--MD5=[0330879a1a385efee19ba3488ed490fa]
class Contribution--><rect codeLine="88" fill="#FFFFFF" filter="url(#f15ovpsv1321qp)" height="32" id="Contribution" style="stroke:#A80036;stroke-width:1.5;" width="109" x="547.5" y="128.5"/><ellipse cx="562.5" cy="144.5" fill="#ADD1B2" rx="11" ry="11" style="stroke:#A80036;stroke-width:1.0;"/><path d="M565.4688,150.1406 Q564.8906,150.4375 564.25,150.5781 Q563.6094,150.7344 562.9063,150.7344 Q560.4063,150.7344 559.0781,149.0938 Q557.7656,147.4375 557.7656,144.3125 Q557.7656,141.1875 559.0781,139.5313 Q560.4063,137.875 562.9063,137.875 Q563.6094,137.875 564.25,138.0313 Q564.9063,138.1875 565.4688,138.4844 L565.4688,141.2031 Q564.8438,140.625 564.25,140.3594 Q563.6563,140.0781 563.0313,140.0781 Q561.6875,140.0781 561,141.1563 Q560.3125,142.2188 560.3125,144.3125 Q560.3125,146.4063 561,147.4844 Q561.6875,148.5469 563.0313,148.5469 Q563.6563,148.5469 564.25,148.2813 Q564.8438,148 565.4688,147.4219 L565.4688,150.1406 Z " fill="#000000"/><text fill="#000000" font-family="sans-serif" font-size="12" lengthAdjust="spacing" textLength="77" x="576.5" y="148.6543">Contribution</text><!--MD5=[532fe005ca0bef0ad6b309c9c6480e22]
class Contribution_Statement--><rect codeLine="94" fill="#FFFFFF" filter="url(#f15ovpsv1321qp)" height="52.8047" id="Contribution_Statement" style="stroke:#A80036;stroke-width:1.5;" width="185" x="59.5" y="250"/><ellipse cx="76.3" cy="266" fill="#ADD1B2" rx="11" ry="11" style="stroke:#A80036;stroke-width:1.0;"/><path d="M79.2688,271.6406 Q78.6906,271.9375 78.05,272.0781 Q77.4094,272.2344 76.7063,272.2344 Q74.2063,272.2344 72.8781,270.5938 Q71.5656,268.9375 71.5656,265.8125 Q71.5656,262.6875 72.8781,261.0313 Q74.2063,259.375 76.7063,259.375 Q77.4094,259.375 78.05,259.5313 Q78.7063,259.6875 79.2688,259.9844 L79.2688,262.7031 Q78.6438,262.125 78.05,261.8594 Q77.4563,261.5781 76.8313,261.5781 Q75.4875,261.5781 74.8,262.6563 Q74.1125,263.7188 74.1125,265.8125 Q74.1125,267.9063 74.8,268.9844 Q75.4875,270.0469 76.8313,270.0469 Q77.4563,270.0469 78.05,269.7813 Q78.6438,269.5 79.2688,268.9219 L79.2688,271.6406 Z " fill="#000000"/><text fill="#000000" font-family="sans-serif" font-size="12" lengthAdjust="spacing" textLength="149" x="90.7" y="270.1543">Contribution_Statement</text><line style="stroke:#A80036;stroke-width:1.5;" x1="60.5" x2="243.5" y1="282" y2="282"/><text fill="#000000" font-family="sans-serif" font-size="11" lengthAdjust="spacing" textLength="173" x="65.5" y="296.2104">statement : Multilingual_String</text><!--MD5=[6b13f1b330d33795af281e5c1dfe1e98]
class Resource--><rect codeLine="98" fill="#FFFFFF" filter="url(#f15ovpsv1321qp)" height="32" id="Resource" style="stroke:#A80036;stroke-width:1.5;" width="91" x="59.5" y="386"/><ellipse cx="74.5" cy="402" fill="#ADD1B2" rx="11" ry="11" style="stroke:#A80036;stroke-width:1.0;"/><path d="M77.4688,407.6406 Q76.8906,407.9375 76.25,408.0781 Q75.6094,408.2344 74.9063,408.2344 Q72.4063,408.2344 71.0781,406.5938 Q69.7656,404.9375 69.7656,401.8125 Q69.7656,398.6875 71.0781,397.0313 Q72.4063,395.375 74.9063,395.375 Q75.6094,395.375 76.25,395.5313 Q76.9063,395.6875 77.4688,395.9844 L77.4688,398.7031 Q76.8438,398.125 76.25,397.8594 Q75.6563,397.5781 75.0313,397.5781 Q73.6875,397.5781 73,398.6563 Q72.3125,399.7188 72.3125,401.8125 Q72.3125,403.9063 73,404.9844 Q73.6875,406.0469 75.0313,406.0469 Q75.6563,406.0469 76.25,405.7813 Q76.8438,405.5 77.4688,404.9219 L77.4688,407.6406 Z " fill="#000000"/><text fill="#000000" font-family="sans-serif" font-size="12" lengthAdjust="spacing" textLength="59" x="88.5" y="406.1543">Resource</text><!--MD5=[05151c161079be2c12996cf31a3c6866]
class Contribution_to_Document--><rect codeLine="104" fill="#FFFFFF" filter="url(#f15ovpsv1321qp)" height="32" id="Contribution_to_Document" style="stroke:#A80036;stroke-width:1.5;" width="198" x="280" y="260.5"/><ellipse cx="295" cy="276.5" fill="#ADD1B2" rx="11" ry="11" style="stroke:#A80036;stroke-width:1.0;"/><path d="M297.9688,282.1406 Q297.3906,282.4375 296.75,282.5781 Q296.1094,282.7344 295.4063,282.7344 Q292.9063,282.7344 291.5781,281.0938 Q290.2656,279.4375 290.2656,276.3125 Q290.2656,273.1875 291.5781,271.5313 Q292.9063,269.875 295.4063,269.875 Q296.1094,269.875 296.75,270.0313 Q297.4063,270.1875 297.9688,270.4844 L297.9688,273.2031 Q297.3438,272.625 296.75,272.3594 Q296.1563,272.0781 295.5313,272.0781 Q294.1875,272.0781 293.5,273.1563 Q292.8125,274.2188 292.8125,276.3125 Q292.8125,278.4063 293.5,279.4844 Q294.1875,280.5469 295.5313,280.5469 Q296.1563,280.5469 296.75,280.2813 Q297.3438,280 297.9688,279.4219 L297.9688,282.1406 Z " fill="#000000"/><text fill="#000000" font-family="sans-serif" font-size="12" lengthAdjust="spacing" textLength="166" x="309" y="280.6543">Contribution_to_Document</text><!--MD5=[59b530d44ae785dc18db921986a9c15c]
class Document--><rect codeLine="8" fill="#FFFFFF" filter="url(#f15ovpsv1321qp)" height="78.4141" id="Document" style="stroke:#A80036;stroke-width:1.5;" width="148" x="186" y="363"/><ellipse cx="224.4" cy="379" fill="#ADD1B2" rx="11" ry="11" style="stroke:#A80036;stroke-width:1.0;"/><path d="M227.3688,384.6406 Q226.7906,384.9375 226.15,385.0781 Q225.5094,385.2344 224.8063,385.2344 Q222.3063,385.2344 220.9781,383.5938 Q219.6656,381.9375 219.6656,378.8125 Q219.6656,375.6875 220.9781,374.0313 Q222.3063,372.375 224.8063,372.375 Q225.5094,372.375 226.15,372.5313 Q226.8063,372.6875 227.3688,372.9844 L227.3688,375.7031 Q226.7438,375.125 226.15,374.8594 Q225.5563,374.5781 224.9313,374.5781 Q223.5875,374.5781 222.9,375.6563 Q222.2125,376.7188 222.2125,378.8125 Q222.2125,380.9063 222.9,381.9844 Q223.5875,383.0469 224.9313,383.0469 Q225.5563,383.0469 226.15,382.7813 Q226.7438,382.5 227.3688,381.9219 L227.3688,384.6406 Z " fill="#000000"/><text fill="#000000" font-family="sans-serif" font-size="12" lengthAdjust="spacing" textLength="64" x="243.6" y="383.1543">Document</text><line style="stroke:#A80036;stroke-width:1.5;" x1="187" x2="333" y1="395" y2="395"/><text fill="#000000" font-family="sans-serif" font-size="11" lengthAdjust="spacing" textLength="85" x="192" y="409.2104">DOI : DOI_Type</text><text fill="#000000" font-family="sans-serif" font-size="11" lengthAdjust="spacing" textLength="136" x="192" y="422.0151">title : Multilingual_String</text><text fill="#000000" font-family="sans-serif" font-size="11" lengthAdjust="spacing" textLength="125" x="192" y="434.8198">publicationDate : Date</text><!--MD5=[3b25461e5df73ababc6765bb9b0c47d3]
class Authorship--><rect codeLine="109" fill="#FFFFFF" filter="url(#f15ovpsv1321qp)" height="52.8047" id="Authorship" style="stroke:#A80036;stroke-width:1.5;" width="212" x="369" y="375.5"/><ellipse cx="436.75" cy="391.5" fill="#ADD1B2" rx="11" ry="11" style="stroke:#A80036;stroke-width:1.0;"/><path d="M439.7188,397.1406 Q439.1406,397.4375 438.5,397.5781 Q437.8594,397.7344 437.1563,397.7344 Q434.6563,397.7344 433.3281,396.0938 Q432.0156,394.4375 432.0156,391.3125 Q432.0156,388.1875 433.3281,386.5313 Q434.6563,384.875 437.1563,384.875 Q437.8594,384.875 438.5,385.0313 Q439.1563,385.1875 439.7188,385.4844 L439.7188,388.2031 Q439.0938,387.625 438.5,387.3594 Q437.9063,387.0781 437.2813,387.0781 Q435.9375,387.0781 435.25,388.1563 Q434.5625,389.2188 434.5625,391.3125 Q434.5625,393.4063 435.25,394.4844 Q435.9375,395.5469 437.2813,395.5469 Q437.9063,395.5469 438.5,395.2813 Q439.0938,395 439.7188,394.4219 L439.7188,397.1406 Z " fill="#000000"/><text fill="#000000" font-family="sans-serif" font-size="12" lengthAdjust="spacing" textLength="68" x="457.25" y="395.6543">Authorship</text><line style="stroke:#A80036;stroke-width:1.5;" x1="370" x2="580" y1="407.5" y2="407.5"/><text fill="#000000" font-family="sans-serif" font-size="11" lengthAdjust="spacing" textLength="200" x="375" y="421.7104">correspondingAuthorFlag : Boolean</text><!--MD5=[fe105c2ee1fabf2400c31a97ce9128bc]
class Textual_Document--><rect codeLine="13" fill="#FFFFFF" filter="url(#f15ovpsv1321qp)" height="32" id="Textual_Document" style="stroke:#A80036;stroke-width:1.5;" width="147" x="208.5" y="501"/><ellipse cx="223.5" cy="517" fill="#ADD1B2" rx="11" ry="11" style="stroke:#A80036;stroke-width:1.0;"/><path d="M226.4688,522.6406 Q225.8906,522.9375 225.25,523.0781 Q224.6094,523.2344 223.9063,523.2344 Q221.4063,523.2344 220.0781,521.5938 Q218.7656,519.9375 218.7656,516.8125 Q218.7656,513.6875 220.0781,512.0313 Q221.4063,510.375 223.9063,510.375 Q224.6094,510.375 225.25,510.5313 Q225.9063,510.6875 226.4688,510.9844 L226.4688,513.7031 Q225.8438,513.125 225.25,512.8594 Q224.6563,512.5781 224.0313,512.5781 Q222.6875,512.5781 222,513.6563 Q221.3125,514.7188 221.3125,516.8125 Q221.3125,518.9063 222,519.9844 Q222.6875,521.0469 224.0313,521.0469 Q224.6563,521.0469 225.25,520.7813 Q225.8438,520.5 226.4688,519.9219 L226.4688,522.6406 Z " fill="#000000"/><text fill="#000000" font-family="sans-serif" font-size="12" lengthAdjust="spacing" textLength="115" x="237.5" y="521.1543">Textual_Document</text><!--MD5=[d8ce9658d3ea3b764ca76e27f1ae6382]
class Contribution_to_Project--><rect codeLine="72" fill="#FFFFFF" filter="url(#f15ovpsv1321qp)" height="32" id="Contribution_to_Project" style="stroke:#A80036;stroke-width:1.5;" width="178" x="513" y="260.5"/><ellipse cx="528" cy="276.5" fill="#ADD1B2" rx="11" ry="11" style="stroke:#A80036;stroke-width:1.0;"/><path d="M530.9688,282.1406 Q530.3906,282.4375 529.75,282.5781 Q529.1094,282.7344 528.4063,282.7344 Q525.9063,282.7344 524.5781,281.0938 Q523.2656,279.4375 523.2656,276.3125 Q523.2656,273.1875 524.5781,271.5313 Q525.9063,269.875 528.4063,269.875 Q529.1094,269.875 529.75,270.0313 Q530.4063,270.1875 530.9688,270.4844 L530.9688,273.2031 Q530.3438,272.625 529.75,272.3594 Q529.1563,272.0781 528.5313,272.0781 Q527.1875,272.0781 526.5,273.1563 Q525.8125,274.2188 525.8125,276.3125 Q525.8125,278.4063 526.5,279.4844 Q527.1875,280.5469 528.5313,280.5469 Q529.1563,280.5469 529.75,280.2813 Q530.3438,280 530.9688,279.4219 L530.9688,282.1406 Z " fill="#000000"/><text fill="#000000" font-family="sans-serif" font-size="12" lengthAdjust="spacing" textLength="146" x="542" y="280.6543">Contribution_to_Project</text><!--MD5=[79d378210367c0c6ec62ef762ddfbd1b]
class Project--><rect codeLine="75" fill="#FFFFFF" filter="url(#f15ovpsv1321qp)" height="32" id="Project" style="stroke:#A80036;stroke-width:1.5;" width="76" x="616" y="386"/><ellipse cx="631" cy="402" fill="#ADD1B2" rx="11" ry="11" style="stroke:#A80036;stroke-width:1.0;"/><path d="M633.9688,407.6406 Q633.3906,407.9375 632.75,408.0781 Q632.1094,408.2344 631.4063,408.2344 Q628.9063,408.2344 627.5781,406.5938 Q626.2656,404.9375 626.2656,401.8125 Q626.2656,398.6875 627.5781,397.0313 Q628.9063,395.375 631.4063,395.375 Q632.1094,395.375 632.75,395.5313 Q633.4063,395.6875 633.9688,395.9844 L633.9688,398.7031 Q633.3438,398.125 632.75,397.8594 Q632.1563,397.5781 631.5313,397.5781 Q630.1875,397.5781 629.5,398.6563 Q628.8125,399.7188 628.8125,401.8125 Q628.8125,403.9063 629.5,404.9844 Q630.1875,406.0469 631.5313,406.0469 Q632.1563,406.0469 632.75,405.7813 Q633.3438,405.5 633.9688,404.9219 L633.9688,407.6406 Z " fill="#000000"/><text fill="#000000" font-family="sans-serif" font-size="12" lengthAdjust="spacing" textLength="44" x="645" y="406.1543">Project</text><!--MD5=[e02578a13076095640a9a08de0c36172]
class Contribution_to_Event--><rect codeLine="80" fill="#FFFFFF" filter="url(#f15ovpsv1321qp)" height="32" id="Contribution_to_Event" style="stroke:#A80036;stroke-width:1.5;" width="169" x="725.5" y="260.5"/><ellipse cx="740.5" cy="276.5" fill="#ADD1B2" rx="11" ry="11" style="stroke:#A80036;stroke-width:1.0;"/><path d="M743.4688,282.1406 Q742.8906,282.4375 742.25,282.5781 Q741.6094,282.7344 740.9063,282.7344 Q738.4063,282.7344 737.0781,281.0938 Q735.7656,279.4375 735.7656,276.3125 Q735.7656,273.1875 737.0781,271.5313 Q738.4063,269.875 740.9063,269.875 Q741.6094,269.875 742.25,270.0313 Q742.9063,270.1875 743.4688,270.4844 L743.4688,273.2031 Q742.8438,272.625 742.25,272.3594 Q741.6563,272.0781 741.0313,272.0781 Q739.6875,272.0781 739,273.1563 Q738.3125,274.2188 738.3125,276.3125 Q738.3125,278.4063 739,279.4844 Q739.6875,280.5469 741.0313,280.5469 Q741.6563,280.5469 742.25,280.2813 Q742.8438,280 743.4688,279.4219 L743.4688,282.1406 Z " fill="#000000"/><text fill="#000000" font-family="sans-serif" font-size="12" lengthAdjust="spacing" textLength="137" x="754.5" y="280.6543">Contribution_to_Event</text><!--MD5=[ac13618b1a974308c1f12eb6c57723dc]
class Event--><rect codeLine="83" fill="#FFFFFF" filter="url(#f15ovpsv1321qp)" height="32" id="Event" style="stroke:#A80036;stroke-width:1.5;" width="67" x="776.5" y="386"/><ellipse cx="791.5" cy="402" fill="#ADD1B2" rx="11" ry="11" style="stroke:#A80036;stroke-width:1.0;"/><path d="M794.4688,407.6406 Q793.8906,407.9375 793.25,408.0781 Q792.6094,408.2344 791.9063,408.2344 Q789.4063,408.2344 788.0781,406.5938 Q786.7656,404.9375 786.7656,401.8125 Q786.7656,398.6875 788.0781,397.0313 Q789.4063,395.375 791.9063,395.375 Q792.6094,395.375 793.25,395.5313 Q793.9063,395.6875 794.4688,395.9844 L794.4688,398.7031 Q793.8438,398.125 793.25,397.8594 Q792.6563,397.5781 792.0313,397.5781 Q790.6875,397.5781 790,398.6563 Q789.3125,399.7188 789.3125,401.8125 Q789.3125,403.9063 790,404.9844 Q790.6875,406.0469 792.0313,406.0469 Q792.6563,406.0469 793.25,405.7813 Q793.8438,405.5 794.4688,404.9219 L794.4688,407.6406 Z " fill="#000000"/><text fill="#000000" font-family="sans-serif" font-size="12" lengthAdjust="spacing" textLength="35" x="805.5" y="406.1543">Event</text><!--MD5=[77463bb17ddcfe3891c27a1f4a877731]
class Membership--><rect codeLine="57" fill="#FFFFFF" filter="url(#f15ovpsv1321qp)" height="32" id="Membership" style="stroke:#A80036;stroke-width:1.5;" width="108" x="796" y="128.5"/><ellipse cx="811" cy="144.5" fill="#ADD1B2" rx="11" ry="11" style="stroke:#A80036;stroke-width:1.0;"/><path d="M813.9688,150.1406 Q813.3906,150.4375 812.75,150.5781 Q812.1094,150.7344 811.4063,150.7344 Q808.9063,150.7344 807.5781,149.0938 Q806.2656,147.4375 806.2656,144.3125 Q806.2656,141.1875 807.5781,139.5313 Q808.9063,137.875 811.4063,137.875 Q812.1094,137.875 812.75,138.0313 Q813.4063,138.1875 813.9688,138.4844 L813.9688,141.2031 Q813.3438,140.625 812.75,140.3594 Q812.1563,140.0781 811.5313,140.0781 Q810.1875,140.0781 809.5,141.1563 Q808.8125,142.2188 808.8125,144.3125 Q808.8125,146.4063 809.5,147.4844 Q810.1875,148.5469 811.5313,148.5469 Q812.1563,148.5469 812.75,148.2813 Q813.3438,148 813.9688,147.4219 L813.9688,150.1406 Z " fill="#000000"/><text fill="#000000" font-family="sans-serif" font-size="12" lengthAdjust="spacing" textLength="76" x="825" y="148.6543">Membership</text><!--MD5=[41314a0efc36828092cff9ebad2fcafd]
class Group--><rect fill="#FEFECE" filter="url(#f15ovpsv1321qp)" height="32" id="Group" style="stroke:#A80036;stroke-width:1.5;" width="70" x="930" y="260.5"/><ellipse cx="945" cy="276.5" fill="#ADD1B2" rx="11" ry="11" style="stroke:#A80036;stroke-width:1.0;"/><path d="M947.9688,282.1406 Q947.3906,282.4375 946.75,282.5781 Q946.1094,282.7344 945.4063,282.7344 Q942.9063,282.7344 941.5781,281.0938 Q940.2656,279.4375 940.2656,276.3125 Q940.2656,273.1875 941.5781,271.5313 Q942.9063,269.875 945.4063,269.875 Q946.1094,269.875 946.75,270.0313 Q947.4063,270.1875 947.9688,270.4844 L947.9688,273.2031 Q947.3438,272.625 946.75,272.3594 Q946.1563,272.0781 945.5313,272.0781 Q944.1875,272.0781 943.5,273.1563 Q942.8125,274.2188 942.8125,276.3125 Q942.8125,278.4063 943.5,279.4844 Q944.1875,280.5469 945.5313,280.5469 Q946.1563,280.5469 946.75,280.2813 Q947.3438,280 947.9688,279.4219 L947.9688,282.1406 Z " fill="#000000"/><text fill="#000000" font-family="sans-serif" font-size="12" lengthAdjust="spacing" textLength="38" x="959" y="280.6543">Group</text><!--MD5=[ddbff00b4911ad4b77d6aa32dd14d1d7]
class Affiliation_Statement--><rect codeLine="128" fill="#FFFFFF" filter="url(#f15ovpsv1321qp)" height="91.2188" id="Affiliation_Statement" style="stroke:#A80036;stroke-width:1.5;" width="171" x="1021.5" y="99"/><ellipse cx="1041" cy="115" fill="#ADD1B2" rx="11" ry="11" style="stroke:#A80036;stroke-width:1.0;"/><path d="M1043.9688,120.6406 Q1043.3906,120.9375 1042.75,121.0781 Q1042.1094,121.2344 1041.4063,121.2344 Q1038.9063,121.2344 1037.5781,119.5938 Q1036.2656,117.9375 1036.2656,114.8125 Q1036.2656,111.6875 1037.5781,110.0313 Q1038.9063,108.375 1041.4063,108.375 Q1042.1094,108.375 1042.75,108.5313 Q1043.4063,108.6875 1043.9688,108.9844 L1043.9688,111.7031 Q1043.3438,111.125 1042.75,110.8594 Q1042.1563,110.5781 1041.5313,110.5781 Q1040.1875,110.5781 1039.5,111.6563 Q1038.8125,112.7188 1038.8125,114.8125 Q1038.8125,116.9063 1039.5,117.9844 Q1040.1875,119.0469 1041.5313,119.0469 Q1042.1563,119.0469 1042.75,118.7813 Q1043.3438,118.5 1043.9688,117.9219 L1043.9688,120.6406 Z " fill="#000000"/><text fill="#000000" font-family="sans-serif" font-size="12" lengthAdjust="spacing" textLength="129" x="1056" y="119.1543">Affiliation_Statement</text><line style="stroke:#A80036;stroke-width:1.5;" x1="1022.5" x2="1191.5" y1="131" y2="131"/><text fill="#000000" font-family="sans-serif" font-size="11" lengthAdjust="spacing" textLength="138" x="1027.5" y="145.2104">displayAffiliation : String</text><text fill="#000000" font-family="sans-serif" font-size="11" lengthAdjust="spacing" textLength="159" x="1027.5" y="158.0151">displayPersonName : String</text><text fill="#000000" font-family="sans-serif" font-size="11" lengthAdjust="spacing" textLength="147" x="1027.5" y="170.8198">address : Postal_Address</text><text fill="#000000" font-family="sans-serif" font-size="11" lengthAdjust="spacing" textLength="116" x="1027.5" y="183.6245">contacts : List&lt;URI&gt;</text><!--MD5=[779f3743e425ed8a6f0bf188ddea4860]
class Organisation_Unit--><rect fill="#FEFECE" filter="url(#f15ovpsv1321qp)" height="32" id="Organisation_Unit" style="stroke:#A80036;stroke-width:1.5;" width="143" x="1035.5" y="260.5"/><ellipse cx="1050.5" cy="276.5" fill="#ADD1B2" rx="11" ry="11" style="stroke:#A80036;stroke-width:1.0;"/><path d="M1053.4688,282.1406 Q1052.8906,282.4375 1052.25,282.5781 Q1051.6094,282.7344 1050.9063,282.7344 Q1048.4063,282.7344 1047.0781,281.0938 Q1045.7656,279.4375 1045.7656,276.3125 Q1045.7656,273.1875 1047.0781,271.5313 Q1048.4063,269.875 1050.9063,269.875 Q1051.6094,269.875 1052.25,270.0313 Q1052.9063,270.1875 1053.4688,270.4844 L1053.4688,273.2031 Q1052.8438,272.625 1052.25,272.3594 Q1051.6563,272.0781 1051.0313,272.0781 Q1049.6875,272.0781 1049,273.1563 Q1048.3125,274.2188 1048.3125,276.3125 Q1048.3125,278.4063 1049,279.4844 Q1049.6875,280.5469 1051.0313,280.5469 Q1051.6563,280.5469 1052.25,280.2813 Q1052.8438,280 1053.4688,279.4219 L1053.4688,282.1406 Z " fill="#000000"/><text fill="#000000" font-family="sans-serif" font-size="12" lengthAdjust="spacing" textLength="111" x="1064.5" y="280.6543">Organisation_Unit</text><!--MD5=[09ce52be0ee7de43c61b6e2d59bf108b]
class Person--><rect fill="#FEFECE" filter="url(#f15ovpsv1321qp)" height="32" id="Person" style="stroke:#A80036;stroke-width:1.5;" width="76" x="1069" y="7"/><ellipse cx="1084" cy="23" fill="#ADD1B2" rx="11" ry="11" style="stroke:#A80036;stroke-width:1.0;"/><path d="M1086.9688,28.6406 Q1086.3906,28.9375 1085.75,29.0781 Q1085.1094,29.2344 1084.4063,29.2344 Q1081.9063,29.2344 1080.5781,27.5938 Q1079.2656,25.9375 1079.2656,22.8125 Q1079.2656,19.6875 1080.5781,18.0313 Q1081.9063,16.375 1084.4063,16.375 Q1085.1094,16.375 1085.75,16.5313 Q1086.4063,16.6875 1086.9688,16.9844 L1086.9688,19.7031 Q1086.3438,19.125 1085.75,18.8594 Q1085.1563,18.5781 1084.5313,18.5781 Q1083.1875,18.5781 1082.5,19.6563 Q1081.8125,20.7188 1081.8125,22.8125 Q1081.8125,24.9063 1082.5,25.9844 Q1083.1875,27.0469 1084.5313,27.0469 Q1085.1563,27.0469 1085.75,26.7813 Q1086.3438,26.5 1086.9688,25.9219 L1086.9688,28.6406 Z " fill="#000000"/><text fill="#000000" font-family="sans-serif" font-size="12" lengthAdjust="spacing" textLength="44" x="1098" y="27.1543">Person</text><!--MD5=[cd935cc757d29bd6a59b1252b30899e0]
link Activity to Agent--><path codeLine="245" d="M647.04,29.54 C504.05,51.46 6,137.69 6,275.5 C6,275.5 6,275.5 6,403 C6,515.42 155.41,573.39 234.37,596.17 " fill="none" id="Activity-to-Agent" style="stroke:#A80036;stroke-width:1.0;"/><polygon fill="#FFFFFF" points="247.32,599.78,242.6117,594.3181,235.7591,596.5635,240.4674,602.0254,247.32,599.78" style="stroke:#A80036;stroke-width:1.0;"/><text fill="#000000" font-family="sans-serif" font-size="13" lengthAdjust="spacing" textLength="23" x="616.4664" y="26.4701">0..*</text><text fill="#000000" font-family="sans-serif" font-size="13" lengthAdjust="spacing" textLength="53" x="186.4813" y="594.7132">0..1 who</text><!--MD5=[985660d160cc1234ef784a412fcab047]
reverse link Contribution to Contribution_Statement--><path codeLine="237" d="M537.44,164.15 C459.52,186.66 328.08,224.63 240.69,249.88 " fill="none" id="Contribution-backto-Contribution_Statement" style="stroke:#A80036;stroke-width:1.0;"/><polygon fill="#A80036" points="549.94,160.54,543.0667,158.3588,538.4097,163.8645,545.283,166.0457,549.94,160.54" style="stroke:#A80036;stroke-width:1.0;"/><text fill="#000000" font-family="sans-serif" font-size="13" lengthAdjust="spacing" textLength="179" x="61.5027" y="239.0946">0..* contributionStatements</text><!--MD5=[55f20054f286b2e7074e8d22fab1f608]
reverse link Activity to Contribution--><path codeLine="277" d="M663,55.68 C646.64,79.23 625.05,110.32 612.43,128.49 " fill="none" id="Activity-backto-Contribution" style="stroke:#A80036;stroke-width:1.0;"/><polygon fill="none" points="657.33,51.57,674.49,39.13,668.83,59.55,657.33,51.57" style="stroke:#A80036;stroke-width:1.0;"/><!--MD5=[b01ee177fc17bf8bb95324fc01c31b3b]
link Contribution_Statement to Resource--><path codeLine="297" d="M142.26,303.09 C133.45,326.24 120.65,359.87 112.58,381.08 " fill="none" id="Contribution_Statement-to-Resource" style="stroke:#A80036;stroke-width:1.0;"/><polygon fill="#A80036" points="110.74,385.93,117.6899,378.9515,112.5253,381.2596,110.2173,376.095,110.74,385.93" style="stroke:#A80036;stroke-width:1.0;"/><text fill="#000000" font-family="sans-serif" font-size="13" lengthAdjust="spacing" textLength="84" x="14.2756" y="374.9175">0..1 resource</text><!--MD5=[117c8d017b65f89954aa553a8ad2cfe8]
link Contribution_to_Document to Document--><path codeLine="241" d="M364.41,292.64 C348.5,309.15 322.36,336.28 300.21,359.27 " fill="none" id="Contribution_to_Document-to-Document" style="stroke:#A80036;stroke-width:1.0;"/><polygon fill="#A80036" points="296.7,362.92,305.8266,359.2179,300.1707,359.3208,300.0678,353.6649,296.7,362.92" style="stroke:#A80036;stroke-width:1.0;"/><text fill="#000000" font-family="sans-serif" font-size="13" lengthAdjust="spacing" textLength="65" x="232.4219" y="351.9568">document</text><!--MD5=[8d7c614e8203540f95956299e63d224a]
reverse link Contribution to Contribution_to_Document--><path codeLine="257" d="M558.66,170.76 C512.98,197.4 442.52,238.47 404.85,260.43 " fill="none" id="Contribution-backto-Contribution_to_Document" style="stroke:#A80036;stroke-width:1.0;"/><polygon fill="none" points="555.18,164.69,575.98,160.67,562.23,176.79,555.18,164.69" style="stroke:#A80036;stroke-width:1.0;"/><!--MD5=[db20fd804d8595e73b6b8c99fdd1338c]
link Authorship to Textual_Document--><path codeLine="249" d="M431.21,428.64 C397.48,448.39 351.36,475.39 319.36,494.13 " fill="none" id="Authorship-to-Textual_Document" style="stroke:#A80036;stroke-width:1.0;"/><polygon fill="#A80036" points="307.84,500.87,315.0388,501.2916,318.1967,494.8088,310.998,494.3872,307.84,500.87" style="stroke:#A80036;stroke-width:1.0;"/><!--MD5=[585439cc3a9acb21770d204e54b00812]
reverse link Contribution_to_Document to Authorship--><path codeLine="253" d="M403.14,308.56 C419.19,329.2 440.01,355.99 455.11,375.41 " fill="none" id="Contribution_to_Document-backto-Authorship" style="stroke:#A80036;stroke-width:1.0;"/><polygon fill="none" points="397.52,312.73,390.77,292.64,408.57,304.14,397.52,312.73" style="stroke:#A80036;stroke-width:1.0;"/><!--MD5=[49125a4ba45432b051dcbcd9e53401d7]
link Authorship to Agent--><path codeLine="301" d="M457.51,428.51 C438.28,455.72 405.77,499.44 373,533 C354.56,551.89 331.6,570.78 313.36,584.88 " fill="none" id="Authorship-to-Agent" style="stroke:#A80036;stroke-width:1.0;"/><polygon fill="#FFFFFF" points="302.97,592.79,310.1666,592.3331,312.5128,585.5143,305.3161,585.9712,302.97,592.79" style="stroke:#A80036;stroke-width:1.0;"/><text fill="#000000" font-family="sans-serif" font-size="13" lengthAdjust="spacing" textLength="23" x="427.8061" y="448.4796">0..*</text><text fill="#000000" font-family="sans-serif" font-size="13" lengthAdjust="spacing" textLength="70" x="321.5101" y="582.025">0..1 author</text><!--MD5=[3bc04dee94cc69985a1813f74705f429]
reverse link Textual_Document to Agent--><path codeLine="343" d="M282,546.34 C282,561.79 282,580.28 282,592.96 " fill="none" id="Textual_Document-backto-Agent" style="stroke:#A80036;stroke-width:1.0;"/><polygon fill="#FFFFFF" points="282,533.27,278,539.27,282,545.27,286,539.27,282,533.27" style="stroke:#A80036;stroke-width:1.0;"/><text fill="#000000" font-family="sans-serif" font-size="13" lengthAdjust="spacing" textLength="159" x="97.6594" y="552.9347">0..* authoredDocuments</text><text fill="#000000" font-family="sans-serif" font-size="13" lengthAdjust="spacing" textLength="76" x="192.9375" y="581.9578">0..* authors</text><!--MD5=[e36b49b71580bc35ebd964809c09ea7d]
reverse link Contribution to Contribution_to_Project--><path codeLine="261" d="M602,180.92 C602,206.98 602,241.1 602,260.43 " fill="none" id="Contribution-backto-Contribution_to_Project" style="stroke:#A80036;stroke-width:1.0;"/><polygon fill="none" points="595,180.67,602,160.67,609,180.67,595,180.67" style="stroke:#A80036;stroke-width:1.0;"/><!--MD5=[57fd60736781c4a6a1ada02cfd005744]
link Contribution_to_Project to Project--><path codeLine="265" d="M608.38,292.64 C617.73,314.87 635.2,356.34 645.59,381.03 " fill="none" id="Contribution_to_Project-to-Project" style="stroke:#A80036;stroke-width:1.0;"/><polygon fill="#A80036" points="647.57,385.73,647.7791,375.8834,645.6368,381.1189,640.4013,378.9765,647.57,385.73" style="stroke:#A80036;stroke-width:1.0;"/><text fill="#000000" font-family="sans-serif" font-size="13" lengthAdjust="spacing" textLength="44" x="594.1526" y="374.9451">project</text><!--MD5=[ff4a6d145294525e05493403423321eb]
reverse link Contribution to Contribution_to_Event--><path codeLine="269" d="M643.28,171.3 C685.91,197.94 750.98,238.62 785.89,260.43 " fill="none" id="Contribution-backto-Contribution_to_Event" style="stroke:#A80036;stroke-width:1.0;"/><polygon fill="none" points="639.52,177.2,626.27,160.67,646.94,165.33,639.52,177.2" style="stroke:#A80036;stroke-width:1.0;"/><!--MD5=[467ded19ca6884babd44a8b5c496328d]
link Contribution_to_Event to Event--><path codeLine="273" d="M810,292.64 C810,314.77 810,355.99 810,380.72 " fill="none" id="Contribution_to_Event-to-Event" style="stroke:#A80036;stroke-width:1.0;"/><polygon fill="#A80036" points="810,385.73,814,376.73,810,380.73,806,376.73,810,385.73" style="stroke:#A80036;stroke-width:1.0;"/><text fill="#000000" font-family="sans-serif" font-size="13" lengthAdjust="spacing" textLength="36" x="768.0375" y="374.9451">event</text><!--MD5=[ac110f789ae7a6a0503e4df1ad0c3da4]
reverse link Activity to Membership--><path codeLine="281" d="M722.17,50.92 C755.26,74.88 802.45,109.07 829.27,128.49 " fill="none" id="Activity-backto-Membership" style="stroke:#A80036;stroke-width:1.0;"/><polygon fill="none" points="717.99,56.54,705.9,39.13,726.2,45.2,717.99,56.54" style="stroke:#A80036;stroke-width:1.0;"/><!--MD5=[f5e0273634b15655b552a32017180749]
link Membership to Group--><path codeLine="285" d="M863.42,160.67 C884.45,184.44 925.15,230.46 948.14,256.44 " fill="none" id="Membership-to-Group" style="stroke:#A80036;stroke-width:1.0;"/><polygon fill="#A80036" points="951.67,260.43,948.7361,251.0283,948.3704,256.6733,942.7254,256.3076,951.67,260.43" style="stroke:#A80036;stroke-width:1.0;"/><text fill="#000000" font-family="sans-serif" font-size="13" lengthAdjust="spacing" textLength="23" x="841.056" y="180.5996">0..*</text><text fill="#000000" font-family="sans-serif" font-size="13" lengthAdjust="spacing" textLength="99" x="884.3534" y="249.4175">0..1 member of</text><!--MD5=[fe03d2c8e9644e7513bef3a6fb6291e6]
reverse link Affiliation_Statement to Organisation_Unit--><path codeLine="220" d="M1094.32,203.4 C1093.92,224.33 1095.3,246.24 1098.45,260.34 " fill="none" id="Affiliation_Statement-backto-Organisation_Unit" style="stroke:#A80036;stroke-width:1.0;"/><polygon fill="#FFFFFF" points="1094.82,190.24,1090.5985,196.0863,1094.3715,202.2316,1098.5929,196.3853,1094.82,190.24" style="stroke:#A80036;stroke-width:1.0;"/><text fill="#000000" font-family="sans-serif" font-size="13" lengthAdjust="spacing" textLength="75" x="1007.6203" y="249.2966">0..1 orgUnit</text><!--MD5=[fe03d2c8e9644e7513bef3a6fb6291e6]
reverse link Affiliation_Statement to Organisation_Unit--><path codeLine="224" d="M1120.43,203.4 C1120.85,224.33 1119.39,246.24 1116.05,260.34 " fill="none" id="Affiliation_Statement-backto-Organisation_Unit-1" style="stroke:#A80036;stroke-width:1.0;"/><polygon fill="#FFFFFF" points="1119.9,190.24,1116.1403,196.3934,1120.3744,202.2306,1124.1341,196.0772,1119.9,190.24" style="stroke:#A80036;stroke-width:1.0;"/><text fill="#000000" font-family="sans-serif" font-size="13" lengthAdjust="spacing" textLength="91" x="1134.8016" y="249.2966">0..1 institution</text><!--MD5=[dc2c5634ff295731fc33abbfcbd96d36]
reverse link Person to Affiliation_Statement--><path codeLine="229" d="M1107,52.29 C1107,66.21 1107,83.31 1107,98.93 " fill="none" id="Person-backto-Affiliation_Statement" style="stroke:#A80036;stroke-width:1.0;"/><polygon fill="#FFFFFF" points="1107,39.13,1103,45.13,1107,51.13,1111,45.13,1107,39.13" style="stroke:#A80036;stroke-width:1.0;"/><text fill="#000000" font-family="sans-serif" font-size="13" lengthAdjust="spacing" textLength="91" x="1009.0328" y="87.864">0..* affiliations</text><!--MD5=[335bc652314d68e20c6b9db39c8a9e92]
reverse link Activity to Affiliation_Statement--><path codeLine="233" d="M735.73,38.37 C806.39,58.38 935.41,94.91 1021.19,119.2 " fill="none" id="Activity-backto-Affiliation_Statement" style="stroke:#A80036;stroke-width:1.0;"/><polygon fill="#A80036" points="722.82,34.71,727.5035,40.1931,734.3662,37.9788,729.6827,32.4957,722.82,34.71" style="stroke:#A80036;stroke-width:1.0;"/><text fill="#000000" font-family="sans-serif" font-size="13" lengthAdjust="spacing" textLength="91" x="922.5986" y="114.3682">0..* affiliations</text><!--MD5=[67ceb885199ca7e1fa058287d8756a2e]
reverse link Document to Textual_Document--><path codeLine="335" d="M271.32,461.13 C274.2,475.92 277.05,490.56 279.08,500.99 " fill="none" id="Document-backto-Textual_Document" style="stroke:#A80036;stroke-width:1.0;"/><polygon fill="none" points="264.4,462.23,267.45,441.26,278.14,459.55,264.4,462.23" style="stroke:#A80036;stroke-width:1.0;"/><!--MD5=[1ab6456cf4bfa2a2b367b23f8abd7d6b]
@startuml

    !includesub core.puml!common
    !includesub core.puml!Activity
    !includesub core.puml!Contribution
    !includesub core.puml!ContributionToDocument
    !includesub core.puml!Authorship
    !includesub core.puml!ContributionToProject
    !includesub core.puml!ContributionToEvent
    !includesub core.puml!Membership
    !includesub core.puml!AffiliationStatement
    !includesub core.puml!Document
    !includesub core.puml!Agent

@enduml

@startuml

        hide empty members
        skinparam BoxPadding 120
        class "Activity" #ffffff {
        }
        "Activity" "0..*" - -o "0..1 who" "Agent"
        class "Contribution" #ffffff {
        }
            
        
        class "Contribution_Statement" #ffffff {
            statement : Multilingual_String
        }
    
        class "Resource" #ffffff {
        }
        "Contribution" *- - "0..* contributionStatements" "Contribution_Statement"
        "Activity" <|- - "Contribution"
        "Contribution_Statement" - -> "0..1 resource" "Resource"
        class "Contribution_to_Document" #ffffff {
        }
        "Contribution_to_Document" - -> "document" "Document"
        "Contribution" <|- - "Contribution_to_Document"
        class "Authorship" #ffffff {
            correspondingAuthorFlag : Boolean
        }
        "Authorship" - -* "Textual_Document"
        "Contribution_to_Document" <|- - "Authorship"
        "Authorship" "0..*" - -o "0..1 author" "Agent"
        "Textual_Document" "0..* authoredDocuments" o- - "0..* authors" "Agent"
        class "Contribution_to_Project" #ffffff {
        }
    
        class "Project" #ffffff {
        }
        "Contribution" <|- - "Contribution_to_Project"
        "Contribution_to_Project" - -> "project" "Project"
        class "Contribution_to_Event" #ffffff {
        }
    
        class "Event" #ffffff {
        }
        "Contribution" <|- - "Contribution_to_Event"
        "Contribution_to_Event" - -> "event" "Event"
        class "Membership" #ffffff {
        }
        "Activity" <|- - "Membership"
        "Membership" "0..*" - -> "0..1 member of" "Group"
        class "Affiliation_Statement" #ffffff {
            displayAffiliation : String
            displayPersonName : String
            address : Postal_Address
            contacts : List<URI>
        }
        "Affiliation_Statement" o- - "0..1 orgUnit" "Organisation_Unit"
        "Affiliation_Statement" o- - "0..1 institution" "Organisation_Unit"
        "Person" o- - "0..* affiliations" "Affiliation_Statement"
        "Activity" *- - "0..* affiliations" "Affiliation_Statement"
        class "Document" #ffffff {
            DOI : DOI_Type
            title : Multilingual_String
            publicationDate : Date
        }
        class "Textual_Document" #ffffff {
        }
        "Document" <|- - "Textual_Document"
        class "Agent" #ffffff {
        }

@enduml

PlantUML version 1.2021.8(Sat Jun 26 08:20:59 UTC 2021)
(GPL source distribution)
Java Runtime: OpenJDK Runtime Environment
JVM: OpenJDK 64-Bit Server VM
Default Encoding: UTF-8
Language: en
Country: null
--></g></svg>