<?xml version="1.0" encoding="UTF-8" standalone="no"?><svg xmlns="http://www.w3.org/2000/svg" xmlns:xlink="http://www.w3.org/1999/xlink" contentScriptType="application/ecmascript" contentStyleType="text/css" height="671px" preserveAspectRatio="none" style="width:1371px;height:671px;background:#FFFFFF;" version="1.1" viewBox="0 0 1371 671" width="1371px" zoomAndPan="magnify"><defs><filter height="300%" id="f11r1nyv9m4fry" width="300%" x="-1" y="-1"><feGaussianBlur result="blurOut" stdDeviation="2.0"/><feColorMatrix in="blurOut" result="blurOut2" type="matrix" values="0 0 0 0 0 0 0 0 0 0 0 0 0 0 0 0 0 0 .4 0"/><feOffset dx="4.0" dy="4.0" in="blurOut2" result="blurOut3"/><feBlend in="SourceGraphic" in2="blurOut3" mode="normal"/></filter></defs><g><!--MD5=[c881b25adf3665c6568c9693d41a70f3]
class Activity--><rect codeLine="52" fill="#FFFFFF" filter="url(#f11r1nyv9m4fry)" height="32" id="Activity" style="stroke:#A80036;stroke-width:1.5;" width="75" x="742.5" y="7"/><ellipse cx="757.5" cy="23" fill="#ADD1B2" rx="11" ry="11" style="stroke:#A80036;stroke-width:1.0;"/><path d="M760.4688,28.6406 Q759.8906,28.9375 759.25,29.0781 Q758.6094,29.2344 757.9063,29.2344 Q755.4063,29.2344 754.0781,27.5938 Q752.7656,25.9375 752.7656,22.8125 Q752.7656,19.6875 754.0781,18.0313 Q755.4063,16.375 757.9063,16.375 Q758.6094,16.375 759.25,16.5313 Q759.9063,16.6875 760.4688,16.9844 L760.4688,19.7031 Q759.8438,19.125 759.25,18.8594 Q758.6563,18.5781 758.0313,18.5781 Q756.6875,18.5781 756,19.6563 Q755.3125,20.7188 755.3125,22.8125 Q755.3125,24.9063 756,25.9844 Q756.6875,27.0469 758.0313,27.0469 Q758.6563,27.0469 759.25,26.7813 Q759.8438,26.5 760.4688,25.9219 L760.4688,28.6406 Z " fill="#000000"/><text fill="#000000" font-family="sans-serif" font-size="12" lengthAdjust="spacing" textLength="43" x="771.5" y="27.1543">Activity</text><!--MD5=[9d44916250b776386006c440668bcfbb]
class Agent--><rect codeLine="23" fill="#FFFFFF" filter="url(#f11r1nyv9m4fry)" height="32" id="Agent" style="stroke:#A80036;stroke-width:1.5;" width="69" x="248.5" y="625"/><ellipse cx="263.5" cy="641" fill="#ADD1B2" rx="11" ry="11" style="stroke:#A80036;stroke-width:1.0;"/><path d="M266.4688,646.6406 Q265.8906,646.9375 265.25,647.0781 Q264.6094,647.2344 263.9063,647.2344 Q261.4063,647.2344 260.0781,645.5938 Q258.7656,643.9375 258.7656,640.8125 Q258.7656,637.6875 260.0781,636.0313 Q261.4063,634.375 263.9063,634.375 Q264.6094,634.375 265.25,634.5313 Q265.9063,634.6875 266.4688,634.9844 L266.4688,637.7031 Q265.8438,637.125 265.25,636.8594 Q264.6563,636.5781 264.0313,636.5781 Q262.6875,636.5781 262,637.6563 Q261.3125,638.7188 261.3125,640.8125 Q261.3125,642.9063 262,643.9844 Q262.6875,645.0469 264.0313,645.0469 Q264.6563,645.0469 265.25,644.7813 Q265.8438,644.5 266.4688,643.9219 L266.4688,646.6406 Z " fill="#000000"/><text fill="#000000" font-family="sans-serif" font-size="12" lengthAdjust="spacing" textLength="37" x="277.5" y="645.1543">Agent</text><!--MD5=[0330879a1a385efee19ba3488ed490fa]
class Contribution--><rect codeLine="88" fill="#FFFFFF" filter="url(#f11r1nyv9m4fry)" height="32" id="Contribution" style="stroke:#A80036;stroke-width:1.5;" width="109" x="632.5" y="145.5"/><ellipse cx="647.5" cy="161.5" fill="#ADD1B2" rx="11" ry="11" style="stroke:#A80036;stroke-width:1.0;"/><path d="M650.4688,167.1406 Q649.8906,167.4375 649.25,167.5781 Q648.6094,167.7344 647.9063,167.7344 Q645.4063,167.7344 644.0781,166.0938 Q642.7656,164.4375 642.7656,161.3125 Q642.7656,158.1875 644.0781,156.5313 Q645.4063,154.875 647.9063,154.875 Q648.6094,154.875 649.25,155.0313 Q649.9063,155.1875 650.4688,155.4844 L650.4688,158.2031 Q649.8438,157.625 649.25,157.3594 Q648.6563,157.0781 648.0313,157.0781 Q646.6875,157.0781 646,158.1563 Q645.3125,159.2188 645.3125,161.3125 Q645.3125,163.4063 646,164.4844 Q646.6875,165.5469 648.0313,165.5469 Q648.6563,165.5469 649.25,165.2813 Q649.8438,165 650.4688,164.4219 L650.4688,167.1406 Z " fill="#000000"/><text fill="#000000" font-family="sans-serif" font-size="12" lengthAdjust="spacing" textLength="77" x="661.5" y="165.6543">Contribution</text><!--MD5=[532fe005ca0bef0ad6b309c9c6480e22]
class Contribution_Statement--><rect codeLine="94" fill="#FFFFFF" filter="url(#f11r1nyv9m4fry)" height="52.8047" id="Contribution_Statement" style="stroke:#A80036;stroke-width:1.5;" width="185" x="317.5" y="135"/><ellipse cx="334.3" cy="151" fill="#ADD1B2" rx="11" ry="11" style="stroke:#A80036;stroke-width:1.0;"/><path d="M337.2688,156.6406 Q336.6906,156.9375 336.05,157.0781 Q335.4094,157.2344 334.7063,157.2344 Q332.2063,157.2344 330.8781,155.5938 Q329.5656,153.9375 329.5656,150.8125 Q329.5656,147.6875 330.8781,146.0313 Q332.2063,144.375 334.7063,144.375 Q335.4094,144.375 336.05,144.5313 Q336.7063,144.6875 337.2688,144.9844 L337.2688,147.7031 Q336.6438,147.125 336.05,146.8594 Q335.4563,146.5781 334.8313,146.5781 Q333.4875,146.5781 332.8,147.6563 Q332.1125,148.7188 332.1125,150.8125 Q332.1125,152.9063 332.8,153.9844 Q333.4875,155.0469 334.8313,155.0469 Q335.4563,155.0469 336.05,154.7813 Q336.6438,154.5 337.2688,153.9219 L337.2688,156.6406 Z " fill="#000000"/><text fill="#000000" font-family="sans-serif" font-size="12" lengthAdjust="spacing" textLength="149" x="348.7" y="155.1543">Contribution_Statement</text><line style="stroke:#A80036;stroke-width:1.5;" x1="318.5" x2="501.5" y1="167" y2="167"/><text fill="#000000" font-family="sans-serif" font-size="11" lengthAdjust="spacing" textLength="173" x="323.5" y="181.2104">statement : Multilingual_String</text><!--MD5=[d15571cf24ab559e7706ea00ec17c00f]
class Resource_Usage_Statement--><rect codeLine="98" fill="#FFFFFF" filter="url(#f11r1nyv9m4fry)" height="52.8047" id="Resource_Usage_Statement" style="stroke:#A80036;stroke-width:1.5;" width="209" x="73.5" y="135"/><ellipse cx="88.5" cy="151" fill="#ADD1B2" rx="11" ry="11" style="stroke:#A80036;stroke-width:1.0;"/><path d="M91.4688,156.6406 Q90.8906,156.9375 90.25,157.0781 Q89.6094,157.2344 88.9063,157.2344 Q86.4063,157.2344 85.0781,155.5938 Q83.7656,153.9375 83.7656,150.8125 Q83.7656,147.6875 85.0781,146.0313 Q86.4063,144.375 88.9063,144.375 Q89.6094,144.375 90.25,144.5313 Q90.9063,144.6875 91.4688,144.9844 L91.4688,147.7031 Q90.8438,147.125 90.25,146.8594 Q89.6563,146.5781 89.0313,146.5781 Q87.6875,146.5781 87,147.6563 Q86.3125,148.7188 86.3125,150.8125 Q86.3125,152.9063 87,153.9844 Q87.6875,155.0469 89.0313,155.0469 Q89.6563,155.0469 90.25,154.7813 Q90.8438,154.5 91.4688,153.9219 L91.4688,156.6406 Z " fill="#000000"/><text fill="#000000" font-family="sans-serif" font-size="12" lengthAdjust="spacing" textLength="177" x="102.5" y="155.1543">Resource_Usage_Statement</text><line style="stroke:#A80036;stroke-width:1.5;" x1="74.5" x2="281.5" y1="167" y2="167"/><text fill="#000000" font-family="sans-serif" font-size="11" lengthAdjust="spacing" textLength="173" x="79.5" y="181.2104">statement : Multilingual_String</text><!--MD5=[6b13f1b330d33795af281e5c1dfe1e98]
class Resource--><rect codeLine="102" fill="#FFFFFF" filter="url(#f11r1nyv9m4fry)" height="32" id="Resource" style="stroke:#A80036;stroke-width:1.5;" width="91" x="141.5" y="284"/><ellipse cx="156.5" cy="300" fill="#ADD1B2" rx="11" ry="11" style="stroke:#A80036;stroke-width:1.0;"/><path d="M159.4688,305.6406 Q158.8906,305.9375 158.25,306.0781 Q157.6094,306.2344 156.9063,306.2344 Q154.4063,306.2344 153.0781,304.5938 Q151.7656,302.9375 151.7656,299.8125 Q151.7656,296.6875 153.0781,295.0313 Q154.4063,293.375 156.9063,293.375 Q157.6094,293.375 158.25,293.5313 Q158.9063,293.6875 159.4688,293.9844 L159.4688,296.7031 Q158.8438,296.125 158.25,295.8594 Q157.6563,295.5781 157.0313,295.5781 Q155.6875,295.5781 155,296.6563 Q154.3125,297.7188 154.3125,299.8125 Q154.3125,301.9063 155,302.9844 Q155.6875,304.0469 157.0313,304.0469 Q157.6563,304.0469 158.25,303.7813 Q158.8438,303.5 159.4688,302.9219 L159.4688,305.6406 Z " fill="#000000"/><text fill="#000000" font-family="sans-serif" font-size="12" lengthAdjust="spacing" textLength="59" x="170.5" y="304.1543">Resource</text><!--MD5=[92dc6ef2f70a23983af4e570fc6275cd]
class Funding--><rect codeLine="105" fill="#FFFFFF" filter="url(#f11r1nyv9m4fry)" height="32" id="Funding" style="stroke:#A80036;stroke-width:1.5;" width="82" x="59" y="416"/><ellipse cx="74" cy="432" fill="#ADD1B2" rx="11" ry="11" style="stroke:#A80036;stroke-width:1.0;"/><path d="M76.9688,437.6406 Q76.3906,437.9375 75.75,438.0781 Q75.1094,438.2344 74.4063,438.2344 Q71.9063,438.2344 70.5781,436.5938 Q69.2656,434.9375 69.2656,431.8125 Q69.2656,428.6875 70.5781,427.0313 Q71.9063,425.375 74.4063,425.375 Q75.1094,425.375 75.75,425.5313 Q76.4063,425.6875 76.9688,425.9844 L76.9688,428.7031 Q76.3438,428.125 75.75,427.8594 Q75.1563,427.5781 74.5313,427.5781 Q73.1875,427.5781 72.5,428.6563 Q71.8125,429.7188 71.8125,431.8125 Q71.8125,433.9063 72.5,434.9844 Q73.1875,436.0469 74.5313,436.0469 Q75.1563,436.0469 75.75,435.7813 Q76.3438,435.5 76.9688,434.9219 L76.9688,437.6406 Z " fill="#000000"/><text fill="#000000" font-family="sans-serif" font-size="12" lengthAdjust="spacing" textLength="50" x="88" y="436.1543">Funding</text><!--MD5=[05151c161079be2c12996cf31a3c6866]
class Contribution_to_Document--><rect codeLine="111" fill="#FFFFFF" filter="url(#f11r1nyv9m4fry)" height="32" id="Contribution_to_Document" style="stroke:#A80036;stroke-width:1.5;" width="198" x="299" y="284"/><ellipse cx="314" cy="300" fill="#ADD1B2" rx="11" ry="11" style="stroke:#A80036;stroke-width:1.0;"/><path d="M316.9688,305.6406 Q316.3906,305.9375 315.75,306.0781 Q315.1094,306.2344 314.4063,306.2344 Q311.9063,306.2344 310.5781,304.5938 Q309.2656,302.9375 309.2656,299.8125 Q309.2656,296.6875 310.5781,295.0313 Q311.9063,293.375 314.4063,293.375 Q315.1094,293.375 315.75,293.5313 Q316.4063,293.6875 316.9688,293.9844 L316.9688,296.7031 Q316.3438,296.125 315.75,295.8594 Q315.1563,295.5781 314.5313,295.5781 Q313.1875,295.5781 312.5,296.6563 Q311.8125,297.7188 311.8125,299.8125 Q311.8125,301.9063 312.5,302.9844 Q313.1875,304.0469 314.5313,304.0469 Q315.1563,304.0469 315.75,303.7813 Q316.3438,303.5 316.9688,302.9219 L316.9688,305.6406 Z " fill="#000000"/><text fill="#000000" font-family="sans-serif" font-size="12" lengthAdjust="spacing" textLength="166" x="328" y="304.1543">Contribution_to_Document</text><!--MD5=[59b530d44ae785dc18db921986a9c15c]
class Document--><rect codeLine="8" fill="#FFFFFF" filter="url(#f11r1nyv9m4fry)" height="78.4141" id="Document" style="stroke:#A80036;stroke-width:1.5;" width="148" x="176" y="393"/><ellipse cx="214.4" cy="409" fill="#ADD1B2" rx="11" ry="11" style="stroke:#A80036;stroke-width:1.0;"/><path d="M217.3688,414.6406 Q216.7906,414.9375 216.15,415.0781 Q215.5094,415.2344 214.8063,415.2344 Q212.3063,415.2344 210.9781,413.5938 Q209.6656,411.9375 209.6656,408.8125 Q209.6656,405.6875 210.9781,404.0313 Q212.3063,402.375 214.8063,402.375 Q215.5094,402.375 216.15,402.5313 Q216.8063,402.6875 217.3688,402.9844 L217.3688,405.7031 Q216.7438,405.125 216.15,404.8594 Q215.5563,404.5781 214.9313,404.5781 Q213.5875,404.5781 212.9,405.6563 Q212.2125,406.7188 212.2125,408.8125 Q212.2125,410.9063 212.9,411.9844 Q213.5875,413.0469 214.9313,413.0469 Q215.5563,413.0469 216.15,412.7813 Q216.7438,412.5 217.3688,411.9219 L217.3688,414.6406 Z " fill="#000000"/><text fill="#000000" font-family="sans-serif" font-size="12" lengthAdjust="spacing" textLength="64" x="233.6" y="413.1543">Document</text><line style="stroke:#A80036;stroke-width:1.5;" x1="177" x2="323" y1="425" y2="425"/><text fill="#000000" font-family="sans-serif" font-size="11" lengthAdjust="spacing" textLength="85" x="182" y="439.2104">DOI : DOI_Type</text><text fill="#000000" font-family="sans-serif" font-size="11" lengthAdjust="spacing" textLength="136" x="182" y="452.0151">title : Multilingual_String</text><text fill="#000000" font-family="sans-serif" font-size="11" lengthAdjust="spacing" textLength="125" x="182" y="464.8198">publicationDate : Date</text><!--MD5=[3b25461e5df73ababc6765bb9b0c47d3]
class Authorship--><rect codeLine="116" fill="#FFFFFF" filter="url(#f11r1nyv9m4fry)" height="52.8047" id="Authorship" style="stroke:#A80036;stroke-width:1.5;" width="212" x="359" y="405.5"/><ellipse cx="426.75" cy="421.5" fill="#ADD1B2" rx="11" ry="11" style="stroke:#A80036;stroke-width:1.0;"/><path d="M429.7188,427.1406 Q429.1406,427.4375 428.5,427.5781 Q427.8594,427.7344 427.1563,427.7344 Q424.6563,427.7344 423.3281,426.0938 Q422.0156,424.4375 422.0156,421.3125 Q422.0156,418.1875 423.3281,416.5313 Q424.6563,414.875 427.1563,414.875 Q427.8594,414.875 428.5,415.0313 Q429.1563,415.1875 429.7188,415.4844 L429.7188,418.2031 Q429.0938,417.625 428.5,417.3594 Q427.9063,417.0781 427.2813,417.0781 Q425.9375,417.0781 425.25,418.1563 Q424.5625,419.2188 424.5625,421.3125 Q424.5625,423.4063 425.25,424.4844 Q425.9375,425.5469 427.2813,425.5469 Q427.9063,425.5469 428.5,425.2813 Q429.0938,425 429.7188,424.4219 L429.7188,427.1406 Z " fill="#000000"/><text fill="#000000" font-family="sans-serif" font-size="12" lengthAdjust="spacing" textLength="68" x="447.25" y="425.6543">Authorship</text><line style="stroke:#A80036;stroke-width:1.5;" x1="360" x2="570" y1="437.5" y2="437.5"/><text fill="#000000" font-family="sans-serif" font-size="11" lengthAdjust="spacing" textLength="200" x="365" y="451.7104">correspondingAuthorFlag : Boolean</text><!--MD5=[fe105c2ee1fabf2400c31a97ce9128bc]
class Textual_Document--><rect codeLine="13" fill="#FFFFFF" filter="url(#f11r1nyv9m4fry)" height="32" id="Textual_Document" style="stroke:#A80036;stroke-width:1.5;" width="147" x="209.5" y="532"/><ellipse cx="224.5" cy="548" fill="#ADD1B2" rx="11" ry="11" style="stroke:#A80036;stroke-width:1.0;"/><path d="M227.4688,553.6406 Q226.8906,553.9375 226.25,554.0781 Q225.6094,554.2344 224.9063,554.2344 Q222.4063,554.2344 221.0781,552.5938 Q219.7656,550.9375 219.7656,547.8125 Q219.7656,544.6875 221.0781,543.0313 Q222.4063,541.375 224.9063,541.375 Q225.6094,541.375 226.25,541.5313 Q226.9063,541.6875 227.4688,541.9844 L227.4688,544.7031 Q226.8438,544.125 226.25,543.8594 Q225.6563,543.5781 225.0313,543.5781 Q223.6875,543.5781 223,544.6563 Q222.3125,545.7188 222.3125,547.8125 Q222.3125,549.9063 223,550.9844 Q223.6875,552.0469 225.0313,552.0469 Q225.6563,552.0469 226.25,551.7813 Q226.8438,551.5 227.4688,550.9219 L227.4688,553.6406 Z " fill="#000000"/><text fill="#000000" font-family="sans-serif" font-size="12" lengthAdjust="spacing" textLength="115" x="238.5" y="552.1543">Textual_Document</text><!--MD5=[d8ce9658d3ea3b764ca76e27f1ae6382]
class Contribution_to_Project--><rect codeLine="72" fill="#FFFFFF" filter="url(#f11r1nyv9m4fry)" height="32" id="Contribution_to_Project" style="stroke:#A80036;stroke-width:1.5;" width="178" x="532" y="284"/><ellipse cx="547" cy="300" fill="#ADD1B2" rx="11" ry="11" style="stroke:#A80036;stroke-width:1.0;"/><path d="M549.9688,305.6406 Q549.3906,305.9375 548.75,306.0781 Q548.1094,306.2344 547.4063,306.2344 Q544.9063,306.2344 543.5781,304.5938 Q542.2656,302.9375 542.2656,299.8125 Q542.2656,296.6875 543.5781,295.0313 Q544.9063,293.375 547.4063,293.375 Q548.1094,293.375 548.75,293.5313 Q549.4063,293.6875 549.9688,293.9844 L549.9688,296.7031 Q549.3438,296.125 548.75,295.8594 Q548.1563,295.5781 547.5313,295.5781 Q546.1875,295.5781 545.5,296.6563 Q544.8125,297.7188 544.8125,299.8125 Q544.8125,301.9063 545.5,302.9844 Q546.1875,304.0469 547.5313,304.0469 Q548.1563,304.0469 548.75,303.7813 Q549.3438,303.5 549.9688,302.9219 L549.9688,305.6406 Z " fill="#000000"/><text fill="#000000" font-family="sans-serif" font-size="12" lengthAdjust="spacing" textLength="146" x="561" y="304.1543">Contribution_to_Project</text><!--MD5=[79d378210367c0c6ec62ef762ddfbd1b]
class Project--><rect codeLine="75" fill="#FFFFFF" filter="url(#f11r1nyv9m4fry)" height="32" id="Project" style="stroke:#A80036;stroke-width:1.5;" width="76" x="606" y="416"/><ellipse cx="621" cy="432" fill="#ADD1B2" rx="11" ry="11" style="stroke:#A80036;stroke-width:1.0;"/><path d="M623.9688,437.6406 Q623.3906,437.9375 622.75,438.0781 Q622.1094,438.2344 621.4063,438.2344 Q618.9063,438.2344 617.5781,436.5938 Q616.2656,434.9375 616.2656,431.8125 Q616.2656,428.6875 617.5781,427.0313 Q618.9063,425.375 621.4063,425.375 Q622.1094,425.375 622.75,425.5313 Q623.4063,425.6875 623.9688,425.9844 L623.9688,428.7031 Q623.3438,428.125 622.75,427.8594 Q622.1563,427.5781 621.5313,427.5781 Q620.1875,427.5781 619.5,428.6563 Q618.8125,429.7188 618.8125,431.8125 Q618.8125,433.9063 619.5,434.9844 Q620.1875,436.0469 621.5313,436.0469 Q622.1563,436.0469 622.75,435.7813 Q623.3438,435.5 623.9688,434.9219 L623.9688,437.6406 Z " fill="#000000"/><text fill="#000000" font-family="sans-serif" font-size="12" lengthAdjust="spacing" textLength="44" x="635" y="436.1543">Project</text><!--MD5=[e02578a13076095640a9a08de0c36172]
class Contribution_to_Event--><rect codeLine="80" fill="#FFFFFF" filter="url(#f11r1nyv9m4fry)" height="32" id="Contribution_to_Event" style="stroke:#A80036;stroke-width:1.5;" width="169" x="744.5" y="284"/><ellipse cx="759.5" cy="300" fill="#ADD1B2" rx="11" ry="11" style="stroke:#A80036;stroke-width:1.0;"/><path d="M762.4688,305.6406 Q761.8906,305.9375 761.25,306.0781 Q760.6094,306.2344 759.9063,306.2344 Q757.4063,306.2344 756.0781,304.5938 Q754.7656,302.9375 754.7656,299.8125 Q754.7656,296.6875 756.0781,295.0313 Q757.4063,293.375 759.9063,293.375 Q760.6094,293.375 761.25,293.5313 Q761.9063,293.6875 762.4688,293.9844 L762.4688,296.7031 Q761.8438,296.125 761.25,295.8594 Q760.6563,295.5781 760.0313,295.5781 Q758.6875,295.5781 758,296.6563 Q757.3125,297.7188 757.3125,299.8125 Q757.3125,301.9063 758,302.9844 Q758.6875,304.0469 760.0313,304.0469 Q760.6563,304.0469 761.25,303.7813 Q761.8438,303.5 762.4688,302.9219 L762.4688,305.6406 Z " fill="#000000"/><text fill="#000000" font-family="sans-serif" font-size="12" lengthAdjust="spacing" textLength="137" x="773.5" y="304.1543">Contribution_to_Event</text><!--MD5=[ac13618b1a974308c1f12eb6c57723dc]
class Event--><rect codeLine="83" fill="#FFFFFF" filter="url(#f11r1nyv9m4fry)" height="32" id="Event" style="stroke:#A80036;stroke-width:1.5;" width="67" x="795.5" y="416"/><ellipse cx="810.5" cy="432" fill="#ADD1B2" rx="11" ry="11" style="stroke:#A80036;stroke-width:1.0;"/><path d="M813.4688,437.6406 Q812.8906,437.9375 812.25,438.0781 Q811.6094,438.2344 810.9063,438.2344 Q808.4063,438.2344 807.0781,436.5938 Q805.7656,434.9375 805.7656,431.8125 Q805.7656,428.6875 807.0781,427.0313 Q808.4063,425.375 810.9063,425.375 Q811.6094,425.375 812.25,425.5313 Q812.9063,425.6875 813.4688,425.9844 L813.4688,428.7031 Q812.8438,428.125 812.25,427.8594 Q811.6563,427.5781 811.0313,427.5781 Q809.6875,427.5781 809,428.6563 Q808.3125,429.7188 808.3125,431.8125 Q808.3125,433.9063 809,434.9844 Q809.6875,436.0469 811.0313,436.0469 Q811.6563,436.0469 812.25,435.7813 Q812.8438,435.5 813.4688,434.9219 L813.4688,437.6406 Z " fill="#000000"/><text fill="#000000" font-family="sans-serif" font-size="12" lengthAdjust="spacing" textLength="35" x="824.5" y="436.1543">Event</text><!--MD5=[77463bb17ddcfe3891c27a1f4a877731]
class Membership--><rect codeLine="57" fill="#FFFFFF" filter="url(#f11r1nyv9m4fry)" height="32" id="Membership" style="stroke:#A80036;stroke-width:1.5;" width="108" x="882" y="145.5"/><ellipse cx="897" cy="161.5" fill="#ADD1B2" rx="11" ry="11" style="stroke:#A80036;stroke-width:1.0;"/><path d="M899.9688,167.1406 Q899.3906,167.4375 898.75,167.5781 Q898.1094,167.7344 897.4063,167.7344 Q894.9063,167.7344 893.5781,166.0938 Q892.2656,164.4375 892.2656,161.3125 Q892.2656,158.1875 893.5781,156.5313 Q894.9063,154.875 897.4063,154.875 Q898.1094,154.875 898.75,155.0313 Q899.4063,155.1875 899.9688,155.4844 L899.9688,158.2031 Q899.3438,157.625 898.75,157.3594 Q898.1563,157.0781 897.5313,157.0781 Q896.1875,157.0781 895.5,158.1563 Q894.8125,159.2188 894.8125,161.3125 Q894.8125,163.4063 895.5,164.4844 Q896.1875,165.5469 897.5313,165.5469 Q898.1563,165.5469 898.75,165.2813 Q899.3438,165 899.9688,164.4219 L899.9688,167.1406 Z " fill="#000000"/><text fill="#000000" font-family="sans-serif" font-size="12" lengthAdjust="spacing" textLength="76" x="911" y="165.6543">Membership</text><!--MD5=[41314a0efc36828092cff9ebad2fcafd]
class Group--><rect fill="#FEFECE" filter="url(#f11r1nyv9m4fry)" height="32" id="Group" style="stroke:#A80036;stroke-width:1.5;" width="70" x="949" y="284"/><ellipse cx="964" cy="300" fill="#ADD1B2" rx="11" ry="11" style="stroke:#A80036;stroke-width:1.0;"/><path d="M966.9688,305.6406 Q966.3906,305.9375 965.75,306.0781 Q965.1094,306.2344 964.4063,306.2344 Q961.9063,306.2344 960.5781,304.5938 Q959.2656,302.9375 959.2656,299.8125 Q959.2656,296.6875 960.5781,295.0313 Q961.9063,293.375 964.4063,293.375 Q965.1094,293.375 965.75,293.5313 Q966.4063,293.6875 966.9688,293.9844 L966.9688,296.7031 Q966.3438,296.125 965.75,295.8594 Q965.1563,295.5781 964.5313,295.5781 Q963.1875,295.5781 962.5,296.6563 Q961.8125,297.7188 961.8125,299.8125 Q961.8125,301.9063 962.5,302.9844 Q963.1875,304.0469 964.5313,304.0469 Q965.1563,304.0469 965.75,303.7813 Q966.3438,303.5 966.9688,302.9219 L966.9688,305.6406 Z " fill="#000000"/><text fill="#000000" font-family="sans-serif" font-size="12" lengthAdjust="spacing" textLength="38" x="978" y="304.1543">Group</text><!--MD5=[ddbff00b4911ad4b77d6aa32dd14d1d7]
class Affiliation_Statement--><rect codeLine="135" fill="#FFFFFF" filter="url(#f11r1nyv9m4fry)" height="91.2188" id="Affiliation_Statement" style="stroke:#A80036;stroke-width:1.5;" width="171" x="1048.5" y="116"/><ellipse cx="1068" cy="132" fill="#ADD1B2" rx="11" ry="11" style="stroke:#A80036;stroke-width:1.0;"/><path d="M1070.9688,137.6406 Q1070.3906,137.9375 1069.75,138.0781 Q1069.1094,138.2344 1068.4063,138.2344 Q1065.9063,138.2344 1064.5781,136.5938 Q1063.2656,134.9375 1063.2656,131.8125 Q1063.2656,128.6875 1064.5781,127.0313 Q1065.9063,125.375 1068.4063,125.375 Q1069.1094,125.375 1069.75,125.5313 Q1070.4063,125.6875 1070.9688,125.9844 L1070.9688,128.7031 Q1070.3438,128.125 1069.75,127.8594 Q1069.1563,127.5781 1068.5313,127.5781 Q1067.1875,127.5781 1066.5,128.6563 Q1065.8125,129.7188 1065.8125,131.8125 Q1065.8125,133.9063 1066.5,134.9844 Q1067.1875,136.0469 1068.5313,136.0469 Q1069.1563,136.0469 1069.75,135.7813 Q1070.3438,135.5 1070.9688,134.9219 L1070.9688,137.6406 Z " fill="#000000"/><text fill="#000000" font-family="sans-serif" font-size="12" lengthAdjust="spacing" textLength="129" x="1083" y="136.1543">Affiliation_Statement</text><line style="stroke:#A80036;stroke-width:1.5;" x1="1049.5" x2="1218.5" y1="148" y2="148"/><text fill="#000000" font-family="sans-serif" font-size="11" lengthAdjust="spacing" textLength="138" x="1054.5" y="162.2104">displayAffiliation : String</text><text fill="#000000" font-family="sans-serif" font-size="11" lengthAdjust="spacing" textLength="159" x="1054.5" y="175.0151">displayPersonName : String</text><text fill="#000000" font-family="sans-serif" font-size="11" lengthAdjust="spacing" textLength="147" x="1054.5" y="187.8198">address : Postal_Address</text><text fill="#000000" font-family="sans-serif" font-size="11" lengthAdjust="spacing" textLength="116" x="1054.5" y="200.6245">contacts : List&lt;URI&gt;</text><!--MD5=[779f3743e425ed8a6f0bf188ddea4860]
class Organisation_Unit--><rect fill="#FEFECE" filter="url(#f11r1nyv9m4fry)" height="32" id="Organisation_Unit" style="stroke:#A80036;stroke-width:1.5;" width="143" x="1075.5" y="284"/><ellipse cx="1090.5" cy="300" fill="#ADD1B2" rx="11" ry="11" style="stroke:#A80036;stroke-width:1.0;"/><path d="M1093.4688,305.6406 Q1092.8906,305.9375 1092.25,306.0781 Q1091.6094,306.2344 1090.9063,306.2344 Q1088.4063,306.2344 1087.0781,304.5938 Q1085.7656,302.9375 1085.7656,299.8125 Q1085.7656,296.6875 1087.0781,295.0313 Q1088.4063,293.375 1090.9063,293.375 Q1091.6094,293.375 1092.25,293.5313 Q1092.9063,293.6875 1093.4688,293.9844 L1093.4688,296.7031 Q1092.8438,296.125 1092.25,295.8594 Q1091.6563,295.5781 1091.0313,295.5781 Q1089.6875,295.5781 1089,296.6563 Q1088.3125,297.7188 1088.3125,299.8125 Q1088.3125,301.9063 1089,302.9844 Q1089.6875,304.0469 1091.0313,304.0469 Q1091.6563,304.0469 1092.25,303.7813 Q1092.8438,303.5 1093.4688,302.9219 L1093.4688,305.6406 Z " fill="#000000"/><text fill="#000000" font-family="sans-serif" font-size="12" lengthAdjust="spacing" textLength="111" x="1104.5" y="304.1543">Organisation_Unit</text><!--MD5=[09ce52be0ee7de43c61b6e2d59bf108b]
class Person--><rect fill="#FEFECE" filter="url(#f11r1nyv9m4fry)" height="32" id="Person" style="stroke:#A80036;stroke-width:1.5;" width="76" x="1281" y="284"/><ellipse cx="1296" cy="300" fill="#ADD1B2" rx="11" ry="11" style="stroke:#A80036;stroke-width:1.0;"/><path d="M1298.9688,305.6406 Q1298.3906,305.9375 1297.75,306.0781 Q1297.1094,306.2344 1296.4063,306.2344 Q1293.9063,306.2344 1292.5781,304.5938 Q1291.2656,302.9375 1291.2656,299.8125 Q1291.2656,296.6875 1292.5781,295.0313 Q1293.9063,293.375 1296.4063,293.375 Q1297.1094,293.375 1297.75,293.5313 Q1298.4063,293.6875 1298.9688,293.9844 L1298.9688,296.7031 Q1298.3438,296.125 1297.75,295.8594 Q1297.1563,295.5781 1296.5313,295.5781 Q1295.1875,295.5781 1294.5,296.6563 Q1293.8125,297.7188 1293.8125,299.8125 Q1293.8125,301.9063 1294.5,302.9844 Q1295.1875,304.0469 1296.5313,304.0469 Q1297.1563,304.0469 1297.75,303.7813 Q1298.3438,303.5 1298.9688,302.9219 L1298.9688,305.6406 Z " fill="#000000"/><text fill="#000000" font-family="sans-serif" font-size="12" lengthAdjust="spacing" textLength="44" x="1310" y="304.1543">Person</text><!--MD5=[cd935cc757d29bd6a59b1252b30899e0]
link Activity to Agent--><path codeLine="266" d="M742.07,25.86 C611.35,32.74 180.71,59.28 56,116 C28.92,128.32 6,130.75 6,160.5 C6,160.5 6,160.5 6,549 C6,596.73 156.33,623.52 235.5,634.32 " fill="none" id="Activity-to-Agent" style="stroke:#A80036;stroke-width:1.0;"/><polygon fill="#FFFFFF" points="248.48,636.04,243.0592,631.2845,236.5846,634.4592,242.0054,639.2147,248.48,636.04" style="stroke:#A80036;stroke-width:1.0;"/><text fill="#000000" font-family="sans-serif" font-size="13" lengthAdjust="spacing" textLength="23" x="711.501" y="22.2266">0..*</text><text fill="#000000" font-family="sans-serif" font-size="13" lengthAdjust="spacing" textLength="53" x="187.6618" y="631.519">0..1 who</text><!--MD5=[7f6050a74bc451868143c93ee5406b0d]
link Contribution_Statement to Contribution--><path codeLine="258" d="M502.62,161.5 C540.83,161.5 584.3,161.5 619.43,161.5 " fill="none" id="Contribution_Statement-to-Contribution" style="stroke:#A80036;stroke-width:1.0;"/><polygon fill="#A80036" points="632.45,161.5,626.45,157.5,620.45,161.5,626.45,165.5,632.45,161.5" style="stroke:#A80036;stroke-width:1.0;"/><polygon fill="#000000" points="520,150.0664,529.0451,153.0053,529.0451,147.1275,520,150.0664" style="stroke:#000000;stroke-width:1.0;"/><text fill="#000000" font-family="sans-serif" font-size="13" lengthAdjust="spacing" textLength="80" x="534" y="154.5669">is detailed in</text><text fill="#000000" font-family="sans-serif" font-size="13" lengthAdjust="spacing" textLength="23" x="510.5917" y="174.1537">0..*</text><!--MD5=[55f20054f286b2e7074e8d22fab1f608]
reverse link Activity to Contribution--><path codeLine="298" d="M758.19,56.01 C739.02,84.14 711.97,123.84 697.35,145.3 " fill="none" id="Activity-backto-Contribution" style="stroke:#A80036;stroke-width:1.0;"/><polygon fill="none" points="752.65,51.72,769.69,39.13,764.22,59.6,752.65,51.72" style="stroke:#A80036;stroke-width:1.0;"/><!--MD5=[b01ee177fc17bf8bb95324fc01c31b3b]
link Contribution_Statement to Resource--><path codeLine="318" d="M368.32,188.01 C323.98,215.15 255,257.38 216.15,281.16 " fill="none" id="Contribution_Statement-to-Resource" style="stroke:#A80036;stroke-width:1.0;"/><polygon fill="#A80036" points="211.57,283.96,221.3325,282.6589,215.8307,281.3435,217.1461,275.8417,211.57,283.96" style="stroke:#A80036;stroke-width:1.0;"/><polygon fill="#000000" points="286.7356,248.1769,295.9844,245.9611,292.9156,240.9479,286.7356,248.1769" style="stroke:#000000;stroke-width:1.0;"/><text fill="#000000" font-family="sans-serif" font-size="13" lengthAdjust="spacing" textLength="52" x="300" y="250.0669">produce</text><text fill="#000000" font-family="sans-serif" font-size="13" lengthAdjust="spacing" textLength="24" x="191.8909" y="272.9578">0..1</text><!--MD5=[b86dd3d6caac9ef35311a748754f0957]
link Resource_Usage_Statement to Resource--><path codeLine="319" d="M179.69,188.17 C181.43,214.45 184.08,254.75 185.67,278.83 " fill="none" id="Resource_Usage_Statement-to-Resource" style="stroke:#A80036;stroke-width:1.0;"/><polygon fill="#A80036" points="186.01,284,189.4095,274.7564,185.6812,279.0108,181.4268,275.2825,186.01,284" style="stroke:#A80036;stroke-width:1.0;"/><polygon fill="#000000" points="189.3291,250.5556,191.6663,241.3367,185.8012,241.7235,189.3291,250.5556" style="stroke:#000000;stroke-width:1.0;"/><text fill="#000000" font-family="sans-serif" font-size="13" lengthAdjust="spacing" textLength="23" x="198" y="250.0669">use</text><!--MD5=[b4d83fecb285bfa9e47b90918b67714d]
link Resource_Usage_Statement to Contribution_Statement--><path codeLine="320" d="M282.67,161.5 C289.93,161.5 297.18,161.5 304.43,161.5 " fill="none" id="Resource_Usage_Statement-to-Contribution_Statement" style="stroke:#A80036;stroke-width:1.0;"/><polygon fill="#FFFFFF" points="317.49,161.5,311.49,157.5,305.49,161.5,311.49,165.5,317.49,161.5" style="stroke:#A80036;stroke-width:1.0;"/><text fill="#000000" font-family="sans-serif" font-size="13" lengthAdjust="spacing" textLength="23" x="290.4752" y="158.074">0..*</text><!--MD5=[a21829bf9e22d7ad2257d12c520c50b2]
reverse link Resource to Funding--><path codeLine="321" d="M165.64,332.92 C147.95,359.35 123.61,395.73 110.09,415.93 " fill="none" id="Resource-backto-Funding" style="stroke:#A80036;stroke-width:1.0;"/><polygon fill="none" points="159.91,328.9,176.85,316.17,171.54,336.68,159.91,328.9" style="stroke:#A80036;stroke-width:1.0;"/><!--MD5=[117c8d017b65f89954aa553a8ad2cfe8]
link Contribution_to_Document to Document--><path codeLine="262" d="M374.45,316.08 C362.03,324.4 346.76,335.21 334,346 C318.51,359.1 302.59,374.6 288.84,388.75 " fill="none" id="Contribution_to_Document-to-Document" style="stroke:#A80036;stroke-width:1.0;"/><polygon fill="#A80036" points="285.02,392.7,294.1542,389.0167,288.4981,389.1079,288.4068,383.4518,285.02,392.7" style="stroke:#A80036;stroke-width:1.0;"/><polygon fill="#000000" points="335.1881,357.8021,343.9858,354.1892,340.182,349.7081,335.1881,357.8021" style="stroke:#000000;stroke-width:1.0;"/><text fill="#000000" font-family="sans-serif" font-size="13" lengthAdjust="spacing" textLength="65" x="348" y="359.0669">document</text><!--MD5=[8d7c614e8203540f95956299e63d224a]
reverse link Contribution to Contribution_to_Document--><path codeLine="278" d="M636.75,186.23 C577.36,214.28 480.28,260.14 430.18,283.8 " fill="none" id="Contribution-backto-Contribution_to_Document" style="stroke:#A80036;stroke-width:1.0;"/><polygon fill="none" points="633.89,179.84,654.97,177.63,639.87,192.5,633.89,179.84" style="stroke:#A80036;stroke-width:1.0;"/><!--MD5=[db20fd804d8595e73b6b8c99fdd1338c]
link Authorship to Textual_Document--><path codeLine="270" d="M424.16,458.58 C392.33,478.52 348.6,505.91 318.28,524.9 " fill="none" id="Authorship-to-Textual_Document" style="stroke:#A80036;stroke-width:1.0;"/><polygon fill="#A80036" points="306.97,531.98,314.1782,532.1844,317.1393,525.6093,309.9311,525.4049,306.97,531.98" style="stroke:#A80036;stroke-width:1.0;"/><!--MD5=[585439cc3a9acb21770d204e54b00812]
reverse link Contribution_to_Document to Authorship--><path codeLine="274" d="M415.1,334.19 C426.48,356.26 441.2,384.82 451.7,405.19 " fill="none" id="Contribution_to_Document-backto-Authorship" style="stroke:#A80036;stroke-width:1.0;"/><polygon fill="none" points="408.76,337.15,405.82,316.17,421.2,330.74,408.76,337.15" style="stroke:#A80036;stroke-width:1.0;"/><!--MD5=[49125a4ba45432b051dcbcd9e53401d7]
link Authorship to Agent--><path codeLine="325" d="M450.07,458.61 C433.38,486.16 404.66,530.49 374,564 C356.08,583.58 333.12,602.72 314.75,616.9 " fill="none" id="Authorship-to-Agent" style="stroke:#A80036;stroke-width:1.0;"/><polygon fill="#FFFFFF" points="304.26,624.84,311.4584,624.4115,313.8314,617.6021,306.6331,618.0306,304.26,624.84" style="stroke:#A80036;stroke-width:1.0;"/><text fill="#000000" font-family="sans-serif" font-size="13" lengthAdjust="spacing" textLength="23" x="421.2884" y="478.1743">0..*</text><text fill="#000000" font-family="sans-serif" font-size="13" lengthAdjust="spacing" textLength="70" x="323.5994" y="613.7966">0..1 author</text><!--MD5=[3bc04dee94cc69985a1813f74705f429]
reverse link Textual_Document to Agent--><path codeLine="368" d="M283,577.32 C283,593.07 283,612.03 283,624.95 " fill="none" id="Textual_Document-backto-Agent" style="stroke:#A80036;stroke-width:1.0;"/><polygon fill="#FFFFFF" points="283,564.03,279,570.03,283,576.03,287,570.03,283,564.03" style="stroke:#A80036;stroke-width:1.0;"/><text fill="#000000" font-family="sans-serif" font-size="13" lengthAdjust="spacing" textLength="159" x="96.6719" y="584.2082">0..* authoredDocuments</text><text fill="#000000" font-family="sans-serif" font-size="13" lengthAdjust="spacing" textLength="76" x="193.9375" y="613.9444">0..* authors</text><!--MD5=[e36b49b71580bc35ebd964809c09ea7d]
reverse link Contribution to Contribution_to_Project--><path codeLine="282" d="M670.93,195.73 C657.37,223.78 638.58,262.65 628.35,283.8 " fill="none" id="Contribution-backto-Contribution_to_Project" style="stroke:#A80036;stroke-width:1.0;"/><polygon fill="none" points="664.68,192.59,679.68,177.63,677.28,198.68,664.68,192.59" style="stroke:#A80036;stroke-width:1.0;"/><!--MD5=[57fd60736781c4a6a1ada02cfd005744]
link Contribution_to_Project to Project--><path codeLine="286" d="M623.68,316.17 C627.84,339.65 635.83,384.82 640.46,410.97 " fill="none" id="Contribution_to_Project-to-Project" style="stroke:#A80036;stroke-width:1.0;"/><polygon fill="#A80036" points="641.33,415.93,643.7019,406.371,640.4594,411.0064,635.8241,407.7639,641.33,415.93" style="stroke:#A80036;stroke-width:1.0;"/><polygon fill="#000000" points="637.8715,359.4899,639.1889,350.071,633.401,351.0955,637.8715,359.4899" style="stroke:#000000;stroke-width:1.0;"/><text fill="#000000" font-family="sans-serif" font-size="13" lengthAdjust="spacing" textLength="44" x="646" y="359.0669">project</text><!--MD5=[ff4a6d145294525e05493403423321eb]
reverse link Contribution to Contribution_to_Event--><path codeLine="290" d="M717.4,191.73 C746.78,219.97 790.12,261.62 813.19,283.8 " fill="none" id="Contribution-backto-Contribution_to_Event" style="stroke:#A80036;stroke-width:1.0;"/><polygon fill="none" points="712.31,196.54,702.74,177.63,722.01,186.44,712.31,196.54" style="stroke:#A80036;stroke-width:1.0;"/><!--MD5=[467ded19ca6884babd44a8b5c496328d]
link Contribution_to_Event to Event--><path codeLine="294" d="M829,316.17 C829,339.55 829,384.45 829,410.64 " fill="none" id="Contribution_to_Event-to-Event" style="stroke:#A80036;stroke-width:1.0;"/><polygon fill="#A80036" points="829,415.93,833,406.93,829,410.93,825,406.93,829,415.93" style="stroke:#A80036;stroke-width:1.0;"/><polygon fill="#000000" points="834,359.5664,836.9389,350.5213,831.0611,350.5213,834,359.5664" style="stroke:#000000;stroke-width:1.0;"/><text fill="#000000" font-family="sans-serif" font-size="13" lengthAdjust="spacing" textLength="36" x="843" y="359.0669">event</text><!--MD5=[ac110f789ae7a6a0503e4df1ad0c3da4]
reverse link Activity to Membership--><path codeLine="302" d="M812.51,52.45 C844.79,80.69 893.05,122.92 918.63,145.3 " fill="none" id="Activity-backto-Membership" style="stroke:#A80036;stroke-width:1.0;"/><polygon fill="none" points="807.73,57.57,797.29,39.13,816.95,47.03,807.73,57.57" style="stroke:#A80036;stroke-width:1.0;"/><!--MD5=[f5e0273634b15655b552a32017180749]
link Membership to Group--><path codeLine="306" d="M941.32,177.63 C950.01,202.33 967.24,251.32 976.94,278.91 " fill="none" id="Membership-to-Group" style="stroke:#A80036;stroke-width:1.0;"/><polygon fill="#A80036" points="978.66,283.8,979.449,273.9828,977.0019,279.0829,971.9017,276.6358,978.66,283.8" style="stroke:#A80036;stroke-width:1.0;"/><polygon fill="#000000" points="974.6589,250.2832,974.4304,240.7754,968.8855,242.7255,974.6589,250.2832" style="stroke:#000000;stroke-width:1.0;"/><text fill="#000000" font-family="sans-serif" font-size="13" lengthAdjust="spacing" textLength="11" x="982" y="250.0669">in</text><text fill="#000000" font-family="sans-serif" font-size="13" lengthAdjust="spacing" textLength="23" x="916.2729" y="197.5463">0..*</text><text fill="#000000" font-family="sans-serif" font-size="13" lengthAdjust="spacing" textLength="24" x="948.9161" y="273.0383">0..1</text><!--MD5=[fe03d2c8e9644e7513bef3a6fb6291e6]
reverse link Affiliation_Statement to Organisation_Unit--><path codeLine="245" d="M1139.5,220.23 C1141.71,243.48 1144.08,268.39 1145.56,283.83 " fill="none" id="Affiliation_Statement-backto-Organisation_Unit" style="stroke:#A80036;stroke-width:1.0;"/><polygon fill="#FFFFFF" points="1138.26,207.2,1134.8449,213.5511,1139.394,219.1463,1142.8091,212.7952,1138.26,207.2" style="stroke:#A80036;stroke-width:1.0;"/><polygon fill="#000000" points="1147.4743,250.5439,1149.542,241.2608,1143.6906,241.8183,1147.4743,250.5439" style="stroke:#000000;stroke-width:1.0;"/><text fill="#000000" font-family="sans-serif" font-size="13" lengthAdjust="spacing" textLength="107" x="1156" y="250.0669">organisation unit</text><text fill="#000000" font-family="sans-serif" font-size="13" lengthAdjust="spacing" textLength="24" x="1117.108" y="273.0782">0..1</text><!--MD5=[fe03d2c8e9644e7513bef3a6fb6291e6]
reverse link Affiliation_Statement to Organisation_Unit--><path codeLine="249" d="M1057.07,217.64 C1049.58,229.17 1047.26,241.6 1055,254 C1063.47,267.58 1077.36,277.17 1091.8,283.9 " fill="none" id="Affiliation_Statement-backto-Organisation_Unit-1" style="stroke:#A80036;stroke-width:1.0;"/><polygon fill="#FFFFFF" points="1065.25,207.34,1058.3851,209.5477,1057.7827,216.7335,1064.6475,214.5259,1065.25,207.34" style="stroke:#A80036;stroke-width:1.0;"/><polygon fill="#000000" points="1062.3212,249.9949,1060.7251,240.6193,1055.5191,243.348,1062.3212,249.9949" style="stroke:#000000;stroke-width:1.0;"/><text fill="#000000" font-family="sans-serif" font-size="13" lengthAdjust="spacing" textLength="63" x="1069" y="250.0669">institution</text><text fill="#000000" font-family="sans-serif" font-size="13" lengthAdjust="spacing" textLength="24" x="1044.7" y="272.8772">0..1</text><!--MD5=[d9b08b031298a036c8fb3d44263a5204]
reverse link Affiliation_Statement to Person--><path codeLine="250" d="M1231.31,208.13 C1245.63,216.77 1259.68,226.44 1272,237 C1287.79,250.54 1301.59,270.22 1310.08,283.76 " fill="none" id="Affiliation_Statement-backto-Person" style="stroke:#A80036;stroke-width:1.0;"/><polygon fill="#FFFFFF" points="1219.79,201.43,1222.9603,207.9068,1230.1582,207.4715,1226.988,200.9947,1219.79,201.43" style="stroke:#A80036;stroke-width:1.0;"/><polygon fill="#000000" points="1296.6067,249.0293,1292.1176,240.6449,1288.0467,244.8848,1296.6067,249.0293" style="stroke:#000000;stroke-width:1.0;"/><text fill="#000000" font-family="sans-serif" font-size="13" lengthAdjust="spacing" textLength="44" x="1302" y="250.0669">person</text><text fill="#000000" font-family="sans-serif" font-size="13" lengthAdjust="spacing" textLength="24" x="1279.1503" y="272.985">0..1</text><!--MD5=[335bc652314d68e20c6b9db39c8a9e92]
reverse link Activity to Affiliation_Statement--><path codeLine="254" d="M829.74,43.18 C886.38,65.02 979.91,101.08 1048.34,127.47 " fill="none" id="Activity-backto-Affiliation_Statement" style="stroke:#A80036;stroke-width:1.0;"/><polygon fill="#FFFFFF" points="817.55,38.48,821.7053,44.3735,828.7437,42.8045,824.5883,36.911,817.55,38.48" style="stroke:#A80036;stroke-width:1.0;"/><polygon fill="#000000" points="945.6652,79.3653,938.2831,73.369,936.1684,78.8532,945.6652,79.3653" style="stroke:#000000;stroke-width:1.0;"/><text fill="#000000" font-family="sans-serif" font-size="13" lengthAdjust="spacing" textLength="61" x="950" y="82.0669">affilations</text><text fill="#000000" font-family="sans-serif" font-size="13" lengthAdjust="spacing" textLength="23" x="804.1559" y="59.0453">0..*</text><text fill="#000000" font-family="sans-serif" font-size="13" lengthAdjust="spacing" textLength="23" x="1017.5976" y="121.224">0..*</text><!--MD5=[945a4f0eaeab9fbe466b0309c366801e]
reverse link Resource to Document--><path codeLine="359" d="M203.21,334.45 C211.87,352.31 222.56,374.38 231.54,392.91 " fill="none" id="Resource-backto-Document" style="stroke:#A80036;stroke-width:1.0;"/><polygon fill="none" points="196.77,337.22,194.35,316.17,209.37,331.11,196.77,337.22" style="stroke:#A80036;stroke-width:1.0;"/><!--MD5=[67ceb885199ca7e1fa058287d8756a2e]
reverse link Document to Textual_Document--><path codeLine="360" d="M266.68,490.61 C271.09,505.84 275.48,521.01 278.59,531.77 " fill="none" id="Document-backto-Textual_Document" style="stroke:#A80036;stroke-width:1.0;"/><polygon fill="none" points="259.92,492.44,261.08,471.28,273.37,488.54,259.92,492.44" style="stroke:#A80036;stroke-width:1.0;"/><!--MD5=[495981f1d979d639cddbd566b740e24c]
@startuml

    !includesub core.puml!common
    !includesub core.puml!Activity
    !includesub core.puml!Contribution
    !includesub core.puml!ContributionToDocument
    !includesub core.puml!Authorship
    !includesub core.puml!ContributionToProject
    !includesub core.puml!ContributionToEvent
    !includesub core.puml!Membership
    !includesub core.puml!AffiliationStatement
    !includesub core.puml!Document
    !includesub core.puml!Agent

@enduml

@startuml

        hide empty members
        skinparam BoxPadding 120
        class "Activity" #ffffff {
        }
        "Activity" "0..*" - -o "0..1 who" "Agent"
        class "Contribution" #ffffff {
        }
            
        
        class "Contribution_Statement" #ffffff {
            statement : Multilingual_String
        }
    
        class "Resource_Usage_Statement" #ffffff {
            statement : Multilingual_String
        }
    
        class "Resource" #ffffff {
        }

        class "Funding" #ffffff {
        }
        "Contribution" *-l- "0..*" "Contribution_Statement" : is detailed in >
        "Activity" <|- - "Contribution"
         "Contribution_Statement" - -> "0..1" "Resource" : produce >
         "Resource_Usage_Statement" - -> "Resource" : use >
         "Contribution_Statement" o-l- "0..*" "Resource_Usage_Statement"
         "Resource" <|- - "Funding"
        class "Contribution_to_Document" #ffffff {
        }
        "Contribution_to_Document" - -> "Document" : document >
        "Contribution" <|- - "Contribution_to_Document"
        class "Authorship" #ffffff {
            correspondingAuthorFlag : Boolean
        }
        "Authorship" - -* "Textual_Document"
        "Contribution_to_Document" <|- - "Authorship"
        "Authorship" "0..*" - -o "0..1 author" "Agent"
        "Textual_Document" "0..* authoredDocuments" o- - "0..* authors" "Agent"
        class "Contribution_to_Project" #ffffff {
        }
    
        class "Project" #ffffff {
        }
        "Contribution" <|- - "Contribution_to_Project"
        "Contribution_to_Project" - -> "Project" : project >
        class "Contribution_to_Event" #ffffff {
        }
    
        class "Event" #ffffff {
        }
        "Contribution" <|- - "Contribution_to_Event"
        "Contribution_to_Event" - -> "Event" : event >
        class "Membership" #ffffff {
        }
        "Activity" <|- - "Membership"
        "Membership" "0..*" - -> "0..1" "Group" : in >
        class "Affiliation_Statement" #ffffff {
            displayAffiliation : String
            displayPersonName : String
            address : Postal_Address
            contacts : List<URI>
        }
        "Affiliation_Statement" o- - "0..1" "Organisation_Unit" : organisation unit >
        "Affiliation_Statement" o- - "0..1" "Organisation_Unit" : institution >
        "Affiliation_Statement" o- - "0..1" "Person" : person >
        "Activity" "0..*" o- - "0..*" "Affiliation_Statement" : affilations >
        class "Document" #ffffff {
            DOI : DOI_Type
            title : Multilingual_String
            publicationDate : Date
        }
        class "Textual_Document" #ffffff {
        }
    	"Resource" <|- - "Document"
        "Document" <|- - "Textual_Document"
        class "Agent" #ffffff {
        }

@enduml

PlantUML version 1.2021.8(Sat Jun 26 08:20:59 UTC 2021)
(GPL source distribution)
Java Runtime: OpenJDK Runtime Environment
JVM: OpenJDK 64-Bit Server VM
Default Encoding: UTF-8
Language: en
Country: null
--></g></svg>