<?xml version="1.0" encoding="UTF-8" standalone="no"?><svg xmlns="http://www.w3.org/2000/svg" xmlns:xlink="http://www.w3.org/1999/xlink" contentScriptType="application/ecmascript" contentStyleType="text/css" height="671px" preserveAspectRatio="none" style="width:1413px;height:671px;background:#FFFFFF;" version="1.1" viewBox="0 0 1413 671" width="1413px" zoomAndPan="magnify"><defs><filter height="300%" id="f75b2c9y85cx4" width="300%" x="-1" y="-1"><feGaussianBlur result="blurOut" stdDeviation="2.0"/><feColorMatrix in="blurOut" result="blurOut2" type="matrix" values="0 0 0 0 0 0 0 0 0 0 0 0 0 0 0 0 0 0 .4 0"/><feOffset dx="4.0" dy="4.0" in="blurOut2" result="blurOut3"/><feBlend in="SourceGraphic" in2="blurOut3" mode="normal"/></filter></defs><g><!--MD5=[c881b25adf3665c6568c9693d41a70f3]
class Activity--><rect codeLine="52" fill="#FFFFFF" filter="url(#f75b2c9y85cx4)" height="32" id="Activity" style="stroke:#A80036;stroke-width:1.5;" width="75" x="816.5" y="7"/><ellipse cx="831.5" cy="23" fill="#ADD1B2" rx="11" ry="11" style="stroke:#A80036;stroke-width:1.0;"/><path d="M834.4688,28.6406 Q833.8906,28.9375 833.25,29.0781 Q832.6094,29.2344 831.9063,29.2344 Q829.4063,29.2344 828.0781,27.5938 Q826.7656,25.9375 826.7656,22.8125 Q826.7656,19.6875 828.0781,18.0313 Q829.4063,16.375 831.9063,16.375 Q832.6094,16.375 833.25,16.5313 Q833.9063,16.6875 834.4688,16.9844 L834.4688,19.7031 Q833.8438,19.125 833.25,18.8594 Q832.6563,18.5781 832.0313,18.5781 Q830.6875,18.5781 830,19.6563 Q829.3125,20.7188 829.3125,22.8125 Q829.3125,24.9063 830,25.9844 Q830.6875,27.0469 832.0313,27.0469 Q832.6563,27.0469 833.25,26.7813 Q833.8438,26.5 834.4688,25.9219 L834.4688,28.6406 Z " fill="#000000"/><text fill="#000000" font-family="sans-serif" font-size="12" lengthAdjust="spacing" textLength="43" x="845.5" y="27.1543">Activity</text><!--MD5=[9d44916250b776386006c440668bcfbb]
class Agent--><rect codeLine="23" fill="#FFFFFF" filter="url(#f75b2c9y85cx4)" height="32" id="Agent" style="stroke:#A80036;stroke-width:1.5;" width="69" x="412.5" y="625"/><ellipse cx="427.5" cy="641" fill="#ADD1B2" rx="11" ry="11" style="stroke:#A80036;stroke-width:1.0;"/><path d="M430.4688,646.6406 Q429.8906,646.9375 429.25,647.0781 Q428.6094,647.2344 427.9063,647.2344 Q425.4063,647.2344 424.0781,645.5938 Q422.7656,643.9375 422.7656,640.8125 Q422.7656,637.6875 424.0781,636.0313 Q425.4063,634.375 427.9063,634.375 Q428.6094,634.375 429.25,634.5313 Q429.9063,634.6875 430.4688,634.9844 L430.4688,637.7031 Q429.8438,637.125 429.25,636.8594 Q428.6563,636.5781 428.0313,636.5781 Q426.6875,636.5781 426,637.6563 Q425.3125,638.7188 425.3125,640.8125 Q425.3125,642.9063 426,643.9844 Q426.6875,645.0469 428.0313,645.0469 Q428.6563,645.0469 429.25,644.7813 Q429.8438,644.5 430.4688,643.9219 L430.4688,646.6406 Z " fill="#000000"/><text fill="#000000" font-family="sans-serif" font-size="12" lengthAdjust="spacing" textLength="37" x="441.5" y="645.1543">Agent</text><!--MD5=[0330879a1a385efee19ba3488ed490fa]
class Contribution--><rect codeLine="88" fill="#FFFFFF" filter="url(#f75b2c9y85cx4)" height="32" id="Contribution" style="stroke:#A80036;stroke-width:1.5;" width="109" x="376.5" y="145.5"/><ellipse cx="391.5" cy="161.5" fill="#ADD1B2" rx="11" ry="11" style="stroke:#A80036;stroke-width:1.0;"/><path d="M394.4688,167.1406 Q393.8906,167.4375 393.25,167.5781 Q392.6094,167.7344 391.9063,167.7344 Q389.4063,167.7344 388.0781,166.0938 Q386.7656,164.4375 386.7656,161.3125 Q386.7656,158.1875 388.0781,156.5313 Q389.4063,154.875 391.9063,154.875 Q392.6094,154.875 393.25,155.0313 Q393.9063,155.1875 394.4688,155.4844 L394.4688,158.2031 Q393.8438,157.625 393.25,157.3594 Q392.6563,157.0781 392.0313,157.0781 Q390.6875,157.0781 390,158.1563 Q389.3125,159.2188 389.3125,161.3125 Q389.3125,163.4063 390,164.4844 Q390.6875,165.5469 392.0313,165.5469 Q392.6563,165.5469 393.25,165.2813 Q393.8438,165 394.4688,164.4219 L394.4688,167.1406 Z " fill="#000000"/><text fill="#000000" font-family="sans-serif" font-size="12" lengthAdjust="spacing" textLength="77" x="405.5" y="165.6543">Contribution</text><!--MD5=[532fe005ca0bef0ad6b309c9c6480e22]
class Contribution_Statement--><rect codeLine="94" fill="#FFFFFF" filter="url(#f75b2c9y85cx4)" height="52.8047" id="Contribution_Statement" style="stroke:#A80036;stroke-width:1.5;" width="185" x="615.5" y="135"/><ellipse cx="632.3" cy="151" fill="#ADD1B2" rx="11" ry="11" style="stroke:#A80036;stroke-width:1.0;"/><path d="M635.2688,156.6406 Q634.6906,156.9375 634.05,157.0781 Q633.4094,157.2344 632.7063,157.2344 Q630.2063,157.2344 628.8781,155.5938 Q627.5656,153.9375 627.5656,150.8125 Q627.5656,147.6875 628.8781,146.0313 Q630.2063,144.375 632.7063,144.375 Q633.4094,144.375 634.05,144.5313 Q634.7063,144.6875 635.2688,144.9844 L635.2688,147.7031 Q634.6438,147.125 634.05,146.8594 Q633.4563,146.5781 632.8313,146.5781 Q631.4875,146.5781 630.8,147.6563 Q630.1125,148.7188 630.1125,150.8125 Q630.1125,152.9063 630.8,153.9844 Q631.4875,155.0469 632.8313,155.0469 Q633.4563,155.0469 634.05,154.7813 Q634.6438,154.5 635.2688,153.9219 L635.2688,156.6406 Z " fill="#000000"/><text fill="#000000" font-family="sans-serif" font-size="12" lengthAdjust="spacing" textLength="149" x="646.7" y="155.1543">Contribution_Statement</text><line style="stroke:#A80036;stroke-width:1.5;" x1="616.5" x2="799.5" y1="167" y2="167"/><text fill="#000000" font-family="sans-serif" font-size="11" lengthAdjust="spacing" textLength="173" x="621.5" y="181.2104">statement : Multilingual_String</text><!--MD5=[6b13f1b330d33795af281e5c1dfe1e98]
class Resource--><rect codeLine="98" fill="#FFFFFF" filter="url(#f75b2c9y85cx4)" height="32" id="Resource" style="stroke:#A80036;stroke-width:1.5;" width="91" x="709.5" y="284"/><ellipse cx="724.5" cy="300" fill="#ADD1B2" rx="11" ry="11" style="stroke:#A80036;stroke-width:1.0;"/><path d="M727.4688,305.6406 Q726.8906,305.9375 726.25,306.0781 Q725.6094,306.2344 724.9063,306.2344 Q722.4063,306.2344 721.0781,304.5938 Q719.7656,302.9375 719.7656,299.8125 Q719.7656,296.6875 721.0781,295.0313 Q722.4063,293.375 724.9063,293.375 Q725.6094,293.375 726.25,293.5313 Q726.9063,293.6875 727.4688,293.9844 L727.4688,296.7031 Q726.8438,296.125 726.25,295.8594 Q725.6563,295.5781 725.0313,295.5781 Q723.6875,295.5781 723,296.6563 Q722.3125,297.7188 722.3125,299.8125 Q722.3125,301.9063 723,302.9844 Q723.6875,304.0469 725.0313,304.0469 Q725.6563,304.0469 726.25,303.7813 Q726.8438,303.5 727.4688,302.9219 L727.4688,305.6406 Z " fill="#000000"/><text fill="#000000" font-family="sans-serif" font-size="12" lengthAdjust="spacing" textLength="59" x="738.5" y="304.1543">Resource</text><!--MD5=[92dc6ef2f70a23983af4e570fc6275cd]
class Funding--><rect codeLine="101" fill="#FFFFFF" filter="url(#f75b2c9y85cx4)" height="32" id="Funding" style="stroke:#A80036;stroke-width:1.5;" width="82" x="813" y="416"/><ellipse cx="828" cy="432" fill="#ADD1B2" rx="11" ry="11" style="stroke:#A80036;stroke-width:1.0;"/><path d="M830.9688,437.6406 Q830.3906,437.9375 829.75,438.0781 Q829.1094,438.2344 828.4063,438.2344 Q825.9063,438.2344 824.5781,436.5938 Q823.2656,434.9375 823.2656,431.8125 Q823.2656,428.6875 824.5781,427.0313 Q825.9063,425.375 828.4063,425.375 Q829.1094,425.375 829.75,425.5313 Q830.4063,425.6875 830.9688,425.9844 L830.9688,428.7031 Q830.3438,428.125 829.75,427.8594 Q829.1563,427.5781 828.5313,427.5781 Q827.1875,427.5781 826.5,428.6563 Q825.8125,429.7188 825.8125,431.8125 Q825.8125,433.9063 826.5,434.9844 Q827.1875,436.0469 828.5313,436.0469 Q829.1563,436.0469 829.75,435.7813 Q830.3438,435.5 830.9688,434.9219 L830.9688,437.6406 Z " fill="#000000"/><text fill="#000000" font-family="sans-serif" font-size="12" lengthAdjust="spacing" textLength="50" x="842" y="436.1543">Funding</text><!--MD5=[05151c161079be2c12996cf31a3c6866]
class Contribution_to_Document--><rect codeLine="107" fill="#FFFFFF" filter="url(#f75b2c9y85cx4)" height="32" id="Contribution_to_Document" style="stroke:#A80036;stroke-width:1.5;" width="198" x="476" y="284"/><ellipse cx="491" cy="300" fill="#ADD1B2" rx="11" ry="11" style="stroke:#A80036;stroke-width:1.0;"/><path d="M493.9688,305.6406 Q493.3906,305.9375 492.75,306.0781 Q492.1094,306.2344 491.4063,306.2344 Q488.9063,306.2344 487.5781,304.5938 Q486.2656,302.9375 486.2656,299.8125 Q486.2656,296.6875 487.5781,295.0313 Q488.9063,293.375 491.4063,293.375 Q492.1094,293.375 492.75,293.5313 Q493.4063,293.6875 493.9688,293.9844 L493.9688,296.7031 Q493.3438,296.125 492.75,295.8594 Q492.1563,295.5781 491.5313,295.5781 Q490.1875,295.5781 489.5,296.6563 Q488.8125,297.7188 488.8125,299.8125 Q488.8125,301.9063 489.5,302.9844 Q490.1875,304.0469 491.5313,304.0469 Q492.1563,304.0469 492.75,303.7813 Q493.3438,303.5 493.9688,302.9219 L493.9688,305.6406 Z " fill="#000000"/><text fill="#000000" font-family="sans-serif" font-size="12" lengthAdjust="spacing" textLength="166" x="505" y="304.1543">Contribution_to_Document</text><!--MD5=[59b530d44ae785dc18db921986a9c15c]
class Document--><rect codeLine="8" fill="#FFFFFF" filter="url(#f75b2c9y85cx4)" height="78.4141" id="Document" style="stroke:#A80036;stroke-width:1.5;" width="148" x="630" y="393"/><ellipse cx="668.4" cy="409" fill="#ADD1B2" rx="11" ry="11" style="stroke:#A80036;stroke-width:1.0;"/><path d="M671.3688,414.6406 Q670.7906,414.9375 670.15,415.0781 Q669.5094,415.2344 668.8063,415.2344 Q666.3063,415.2344 664.9781,413.5938 Q663.6656,411.9375 663.6656,408.8125 Q663.6656,405.6875 664.9781,404.0313 Q666.3063,402.375 668.8063,402.375 Q669.5094,402.375 670.15,402.5313 Q670.8063,402.6875 671.3688,402.9844 L671.3688,405.7031 Q670.7438,405.125 670.15,404.8594 Q669.5563,404.5781 668.9313,404.5781 Q667.5875,404.5781 666.9,405.6563 Q666.2125,406.7188 666.2125,408.8125 Q666.2125,410.9063 666.9,411.9844 Q667.5875,413.0469 668.9313,413.0469 Q669.5563,413.0469 670.15,412.7813 Q670.7438,412.5 671.3688,411.9219 L671.3688,414.6406 Z " fill="#000000"/><text fill="#000000" font-family="sans-serif" font-size="12" lengthAdjust="spacing" textLength="64" x="687.6" y="413.1543">Document</text><line style="stroke:#A80036;stroke-width:1.5;" x1="631" x2="777" y1="425" y2="425"/><text fill="#000000" font-family="sans-serif" font-size="11" lengthAdjust="spacing" textLength="85" x="636" y="439.2104">DOI : DOI_Type</text><text fill="#000000" font-family="sans-serif" font-size="11" lengthAdjust="spacing" textLength="136" x="636" y="452.0151">title : Multilingual_String</text><text fill="#000000" font-family="sans-serif" font-size="11" lengthAdjust="spacing" textLength="125" x="636" y="464.8198">publicationDate : Date</text><!--MD5=[3b25461e5df73ababc6765bb9b0c47d3]
class Authorship--><rect codeLine="112" fill="#FFFFFF" filter="url(#f75b2c9y85cx4)" height="52.8047" id="Authorship" style="stroke:#A80036;stroke-width:1.5;" width="212" x="383" y="405.5"/><ellipse cx="450.75" cy="421.5" fill="#ADD1B2" rx="11" ry="11" style="stroke:#A80036;stroke-width:1.0;"/><path d="M453.7188,427.1406 Q453.1406,427.4375 452.5,427.5781 Q451.8594,427.7344 451.1563,427.7344 Q448.6563,427.7344 447.3281,426.0938 Q446.0156,424.4375 446.0156,421.3125 Q446.0156,418.1875 447.3281,416.5313 Q448.6563,414.875 451.1563,414.875 Q451.8594,414.875 452.5,415.0313 Q453.1563,415.1875 453.7188,415.4844 L453.7188,418.2031 Q453.0938,417.625 452.5,417.3594 Q451.9063,417.0781 451.2813,417.0781 Q449.9375,417.0781 449.25,418.1563 Q448.5625,419.2188 448.5625,421.3125 Q448.5625,423.4063 449.25,424.4844 Q449.9375,425.5469 451.2813,425.5469 Q451.9063,425.5469 452.5,425.2813 Q453.0938,425 453.7188,424.4219 L453.7188,427.1406 Z " fill="#000000"/><text fill="#000000" font-family="sans-serif" font-size="12" lengthAdjust="spacing" textLength="68" x="471.25" y="425.6543">Authorship</text><line style="stroke:#A80036;stroke-width:1.5;" x1="384" x2="594" y1="437.5" y2="437.5"/><text fill="#000000" font-family="sans-serif" font-size="11" lengthAdjust="spacing" textLength="200" x="389" y="451.7104">correspondingAuthorFlag : Boolean</text><!--MD5=[fe105c2ee1fabf2400c31a97ce9128bc]
class Textual_Document--><rect codeLine="13" fill="#FFFFFF" filter="url(#f75b2c9y85cx4)" height="32" id="Textual_Document" style="stroke:#A80036;stroke-width:1.5;" width="147" x="500.5" y="532"/><ellipse cx="515.5" cy="548" fill="#ADD1B2" rx="11" ry="11" style="stroke:#A80036;stroke-width:1.0;"/><path d="M518.4688,553.6406 Q517.8906,553.9375 517.25,554.0781 Q516.6094,554.2344 515.9063,554.2344 Q513.4063,554.2344 512.0781,552.5938 Q510.7656,550.9375 510.7656,547.8125 Q510.7656,544.6875 512.0781,543.0313 Q513.4063,541.375 515.9063,541.375 Q516.6094,541.375 517.25,541.5313 Q517.9063,541.6875 518.4688,541.9844 L518.4688,544.7031 Q517.8438,544.125 517.25,543.8594 Q516.6563,543.5781 516.0313,543.5781 Q514.6875,543.5781 514,544.6563 Q513.3125,545.7188 513.3125,547.8125 Q513.3125,549.9063 514,550.9844 Q514.6875,552.0469 516.0313,552.0469 Q516.6563,552.0469 517.25,551.7813 Q517.8438,551.5 518.4688,550.9219 L518.4688,553.6406 Z " fill="#000000"/><text fill="#000000" font-family="sans-serif" font-size="12" lengthAdjust="spacing" textLength="115" x="529.5" y="552.1543">Textual_Document</text><!--MD5=[d8ce9658d3ea3b764ca76e27f1ae6382]
class Contribution_to_Project--><rect codeLine="72" fill="#FFFFFF" filter="url(#f75b2c9y85cx4)" height="32" id="Contribution_to_Project" style="stroke:#A80036;stroke-width:1.5;" width="178" x="59" y="284"/><ellipse cx="74" cy="300" fill="#ADD1B2" rx="11" ry="11" style="stroke:#A80036;stroke-width:1.0;"/><path d="M76.9688,305.6406 Q76.3906,305.9375 75.75,306.0781 Q75.1094,306.2344 74.4063,306.2344 Q71.9063,306.2344 70.5781,304.5938 Q69.2656,302.9375 69.2656,299.8125 Q69.2656,296.6875 70.5781,295.0313 Q71.9063,293.375 74.4063,293.375 Q75.1094,293.375 75.75,293.5313 Q76.4063,293.6875 76.9688,293.9844 L76.9688,296.7031 Q76.3438,296.125 75.75,295.8594 Q75.1563,295.5781 74.5313,295.5781 Q73.1875,295.5781 72.5,296.6563 Q71.8125,297.7188 71.8125,299.8125 Q71.8125,301.9063 72.5,302.9844 Q73.1875,304.0469 74.5313,304.0469 Q75.1563,304.0469 75.75,303.7813 Q76.3438,303.5 76.9688,302.9219 L76.9688,305.6406 Z " fill="#000000"/><text fill="#000000" font-family="sans-serif" font-size="12" lengthAdjust="spacing" textLength="146" x="88" y="304.1543">Contribution_to_Project</text><!--MD5=[79d378210367c0c6ec62ef762ddfbd1b]
class Project--><rect codeLine="75" fill="#FFFFFF" filter="url(#f75b2c9y85cx4)" height="32" id="Project" style="stroke:#A80036;stroke-width:1.5;" width="76" x="110" y="416"/><ellipse cx="125" cy="432" fill="#ADD1B2" rx="11" ry="11" style="stroke:#A80036;stroke-width:1.0;"/><path d="M127.9688,437.6406 Q127.3906,437.9375 126.75,438.0781 Q126.1094,438.2344 125.4063,438.2344 Q122.9063,438.2344 121.5781,436.5938 Q120.2656,434.9375 120.2656,431.8125 Q120.2656,428.6875 121.5781,427.0313 Q122.9063,425.375 125.4063,425.375 Q126.1094,425.375 126.75,425.5313 Q127.4063,425.6875 127.9688,425.9844 L127.9688,428.7031 Q127.3438,428.125 126.75,427.8594 Q126.1563,427.5781 125.5313,427.5781 Q124.1875,427.5781 123.5,428.6563 Q122.8125,429.7188 122.8125,431.8125 Q122.8125,433.9063 123.5,434.9844 Q124.1875,436.0469 125.5313,436.0469 Q126.1563,436.0469 126.75,435.7813 Q127.3438,435.5 127.9688,434.9219 L127.9688,437.6406 Z " fill="#000000"/><text fill="#000000" font-family="sans-serif" font-size="12" lengthAdjust="spacing" textLength="44" x="139" y="436.1543">Project</text><!--MD5=[e02578a13076095640a9a08de0c36172]
class Contribution_to_Event--><rect codeLine="80" fill="#FFFFFF" filter="url(#f75b2c9y85cx4)" height="32" id="Contribution_to_Event" style="stroke:#A80036;stroke-width:1.5;" width="169" x="271.5" y="284"/><ellipse cx="286.5" cy="300" fill="#ADD1B2" rx="11" ry="11" style="stroke:#A80036;stroke-width:1.0;"/><path d="M289.4688,305.6406 Q288.8906,305.9375 288.25,306.0781 Q287.6094,306.2344 286.9063,306.2344 Q284.4063,306.2344 283.0781,304.5938 Q281.7656,302.9375 281.7656,299.8125 Q281.7656,296.6875 283.0781,295.0313 Q284.4063,293.375 286.9063,293.375 Q287.6094,293.375 288.25,293.5313 Q288.9063,293.6875 289.4688,293.9844 L289.4688,296.7031 Q288.8438,296.125 288.25,295.8594 Q287.6563,295.5781 287.0313,295.5781 Q285.6875,295.5781 285,296.6563 Q284.3125,297.7188 284.3125,299.8125 Q284.3125,301.9063 285,302.9844 Q285.6875,304.0469 287.0313,304.0469 Q287.6563,304.0469 288.25,303.7813 Q288.8438,303.5 289.4688,302.9219 L289.4688,305.6406 Z " fill="#000000"/><text fill="#000000" font-family="sans-serif" font-size="12" lengthAdjust="spacing" textLength="137" x="300.5" y="304.1543">Contribution_to_Event</text><!--MD5=[ac13618b1a974308c1f12eb6c57723dc]
class Event--><rect codeLine="83" fill="#FFFFFF" filter="url(#f75b2c9y85cx4)" height="32" id="Event" style="stroke:#A80036;stroke-width:1.5;" width="67" x="280.5" y="416"/><ellipse cx="295.5" cy="432" fill="#ADD1B2" rx="11" ry="11" style="stroke:#A80036;stroke-width:1.0;"/><path d="M298.4688,437.6406 Q297.8906,437.9375 297.25,438.0781 Q296.6094,438.2344 295.9063,438.2344 Q293.4063,438.2344 292.0781,436.5938 Q290.7656,434.9375 290.7656,431.8125 Q290.7656,428.6875 292.0781,427.0313 Q293.4063,425.375 295.9063,425.375 Q296.6094,425.375 297.25,425.5313 Q297.9063,425.6875 298.4688,425.9844 L298.4688,428.7031 Q297.8438,428.125 297.25,427.8594 Q296.6563,427.5781 296.0313,427.5781 Q294.6875,427.5781 294,428.6563 Q293.3125,429.7188 293.3125,431.8125 Q293.3125,433.9063 294,434.9844 Q294.6875,436.0469 296.0313,436.0469 Q296.6563,436.0469 297.25,435.7813 Q297.8438,435.5 298.4688,434.9219 L298.4688,437.6406 Z " fill="#000000"/><text fill="#000000" font-family="sans-serif" font-size="12" lengthAdjust="spacing" textLength="35" x="309.5" y="436.1543">Event</text><!--MD5=[77463bb17ddcfe3891c27a1f4a877731]
class Membership--><rect codeLine="57" fill="#FFFFFF" filter="url(#f75b2c9y85cx4)" height="32" id="Membership" style="stroke:#A80036;stroke-width:1.5;" width="108" x="923" y="145.5"/><ellipse cx="938" cy="161.5" fill="#ADD1B2" rx="11" ry="11" style="stroke:#A80036;stroke-width:1.0;"/><path d="M940.9688,167.1406 Q940.3906,167.4375 939.75,167.5781 Q939.1094,167.7344 938.4063,167.7344 Q935.9063,167.7344 934.5781,166.0938 Q933.2656,164.4375 933.2656,161.3125 Q933.2656,158.1875 934.5781,156.5313 Q935.9063,154.875 938.4063,154.875 Q939.1094,154.875 939.75,155.0313 Q940.4063,155.1875 940.9688,155.4844 L940.9688,158.2031 Q940.3438,157.625 939.75,157.3594 Q939.1563,157.0781 938.5313,157.0781 Q937.1875,157.0781 936.5,158.1563 Q935.8125,159.2188 935.8125,161.3125 Q935.8125,163.4063 936.5,164.4844 Q937.1875,165.5469 938.5313,165.5469 Q939.1563,165.5469 939.75,165.2813 Q940.3438,165 940.9688,164.4219 L940.9688,167.1406 Z " fill="#000000"/><text fill="#000000" font-family="sans-serif" font-size="12" lengthAdjust="spacing" textLength="76" x="952" y="165.6543">Membership</text><!--MD5=[41314a0efc36828092cff9ebad2fcafd]
class Group--><rect fill="#FEFECE" filter="url(#f75b2c9y85cx4)" height="32" id="Group" style="stroke:#A80036;stroke-width:1.5;" width="70" x="958" y="284"/><ellipse cx="973" cy="300" fill="#ADD1B2" rx="11" ry="11" style="stroke:#A80036;stroke-width:1.0;"/><path d="M975.9688,305.6406 Q975.3906,305.9375 974.75,306.0781 Q974.1094,306.2344 973.4063,306.2344 Q970.9063,306.2344 969.5781,304.5938 Q968.2656,302.9375 968.2656,299.8125 Q968.2656,296.6875 969.5781,295.0313 Q970.9063,293.375 973.4063,293.375 Q974.1094,293.375 974.75,293.5313 Q975.4063,293.6875 975.9688,293.9844 L975.9688,296.7031 Q975.3438,296.125 974.75,295.8594 Q974.1563,295.5781 973.5313,295.5781 Q972.1875,295.5781 971.5,296.6563 Q970.8125,297.7188 970.8125,299.8125 Q970.8125,301.9063 971.5,302.9844 Q972.1875,304.0469 973.5313,304.0469 Q974.1563,304.0469 974.75,303.7813 Q975.3438,303.5 975.9688,302.9219 L975.9688,305.6406 Z " fill="#000000"/><text fill="#000000" font-family="sans-serif" font-size="12" lengthAdjust="spacing" textLength="38" x="987" y="304.1543">Group</text><!--MD5=[ddbff00b4911ad4b77d6aa32dd14d1d7]
class Affiliation_Statement--><rect codeLine="131" fill="#FFFFFF" filter="url(#f75b2c9y85cx4)" height="91.2188" id="Affiliation_Statement" style="stroke:#A80036;stroke-width:1.5;" width="171" x="1090.5" y="116"/><ellipse cx="1110" cy="132" fill="#ADD1B2" rx="11" ry="11" style="stroke:#A80036;stroke-width:1.0;"/><path d="M1112.9688,137.6406 Q1112.3906,137.9375 1111.75,138.0781 Q1111.1094,138.2344 1110.4063,138.2344 Q1107.9063,138.2344 1106.5781,136.5938 Q1105.2656,134.9375 1105.2656,131.8125 Q1105.2656,128.6875 1106.5781,127.0313 Q1107.9063,125.375 1110.4063,125.375 Q1111.1094,125.375 1111.75,125.5313 Q1112.4063,125.6875 1112.9688,125.9844 L1112.9688,128.7031 Q1112.3438,128.125 1111.75,127.8594 Q1111.1563,127.5781 1110.5313,127.5781 Q1109.1875,127.5781 1108.5,128.6563 Q1107.8125,129.7188 1107.8125,131.8125 Q1107.8125,133.9063 1108.5,134.9844 Q1109.1875,136.0469 1110.5313,136.0469 Q1111.1563,136.0469 1111.75,135.7813 Q1112.3438,135.5 1112.9688,134.9219 L1112.9688,137.6406 Z " fill="#000000"/><text fill="#000000" font-family="sans-serif" font-size="12" lengthAdjust="spacing" textLength="129" x="1125" y="136.1543">Affiliation_Statement</text><line style="stroke:#A80036;stroke-width:1.5;" x1="1091.5" x2="1260.5" y1="148" y2="148"/><text fill="#000000" font-family="sans-serif" font-size="11" lengthAdjust="spacing" textLength="138" x="1096.5" y="162.2104">displayAffiliation : String</text><text fill="#000000" font-family="sans-serif" font-size="11" lengthAdjust="spacing" textLength="159" x="1096.5" y="175.0151">displayPersonName : String</text><text fill="#000000" font-family="sans-serif" font-size="11" lengthAdjust="spacing" textLength="147" x="1096.5" y="187.8198">address : Postal_Address</text><text fill="#000000" font-family="sans-serif" font-size="11" lengthAdjust="spacing" textLength="116" x="1096.5" y="200.6245">contacts : List&lt;URI&gt;</text><!--MD5=[779f3743e425ed8a6f0bf188ddea4860]
class Organisation_Unit--><rect fill="#FEFECE" filter="url(#f75b2c9y85cx4)" height="32" id="Organisation_Unit" style="stroke:#A80036;stroke-width:1.5;" width="143" x="1210.5" y="284"/><ellipse cx="1225.5" cy="300" fill="#ADD1B2" rx="11" ry="11" style="stroke:#A80036;stroke-width:1.0;"/><path d="M1228.4688,305.6406 Q1227.8906,305.9375 1227.25,306.0781 Q1226.6094,306.2344 1225.9063,306.2344 Q1223.4063,306.2344 1222.0781,304.5938 Q1220.7656,302.9375 1220.7656,299.8125 Q1220.7656,296.6875 1222.0781,295.0313 Q1223.4063,293.375 1225.9063,293.375 Q1226.6094,293.375 1227.25,293.5313 Q1227.9063,293.6875 1228.4688,293.9844 L1228.4688,296.7031 Q1227.8438,296.125 1227.25,295.8594 Q1226.6563,295.5781 1226.0313,295.5781 Q1224.6875,295.5781 1224,296.6563 Q1223.3125,297.7188 1223.3125,299.8125 Q1223.3125,301.9063 1224,302.9844 Q1224.6875,304.0469 1226.0313,304.0469 Q1226.6563,304.0469 1227.25,303.7813 Q1227.8438,303.5 1228.4688,302.9219 L1228.4688,305.6406 Z " fill="#000000"/><text fill="#000000" font-family="sans-serif" font-size="12" lengthAdjust="spacing" textLength="111" x="1239.5" y="304.1543">Organisation_Unit</text><!--MD5=[09ce52be0ee7de43c61b6e2d59bf108b]
class Person--><rect fill="#FEFECE" filter="url(#f75b2c9y85cx4)" height="32" id="Person" style="stroke:#A80036;stroke-width:1.5;" width="76" x="1063" y="284"/><ellipse cx="1078" cy="300" fill="#ADD1B2" rx="11" ry="11" style="stroke:#A80036;stroke-width:1.0;"/><path d="M1080.9688,305.6406 Q1080.3906,305.9375 1079.75,306.0781 Q1079.1094,306.2344 1078.4063,306.2344 Q1075.9063,306.2344 1074.5781,304.5938 Q1073.2656,302.9375 1073.2656,299.8125 Q1073.2656,296.6875 1074.5781,295.0313 Q1075.9063,293.375 1078.4063,293.375 Q1079.1094,293.375 1079.75,293.5313 Q1080.4063,293.6875 1080.9688,293.9844 L1080.9688,296.7031 Q1080.3438,296.125 1079.75,295.8594 Q1079.1563,295.5781 1078.5313,295.5781 Q1077.1875,295.5781 1076.5,296.6563 Q1075.8125,297.7188 1075.8125,299.8125 Q1075.8125,301.9063 1076.5,302.9844 Q1077.1875,304.0469 1078.5313,304.0469 Q1079.1563,304.0469 1079.75,303.7813 Q1080.3438,303.5 1080.9688,302.9219 L1080.9688,305.6406 Z " fill="#000000"/><text fill="#000000" font-family="sans-serif" font-size="12" lengthAdjust="spacing" textLength="44" x="1092" y="304.1543">Person</text><!--MD5=[cd935cc757d29bd6a59b1252b30899e0]
link Activity to Agent--><path codeLine="263" d="M816.47,26.01 C652.35,35.3 6,77.18 6,160.5 C6,160.5 6,160.5 6,549 C6,628.63 285.27,639.15 399.33,640.13 " fill="none" id="Activity-to-Agent" style="stroke:#A80036;stroke-width:1.0;"/><polygon fill="#FFFFFF" points="412.4,640.2,406.4221,636.1671,400.4002,640.1341,406.3781,644.167,412.4,640.2" style="stroke:#A80036;stroke-width:1.0;"/><text fill="#000000" font-family="sans-serif" font-size="13" lengthAdjust="spacing" textLength="23" x="785.3494" y="22.3442">0..*</text><text fill="#000000" font-family="sans-serif" font-size="13" lengthAdjust="spacing" textLength="53" x="351.5716" y="636.212">0..1 who</text><!--MD5=[985660d160cc1234ef784a412fcab047]
reverse link Contribution to Contribution_Statement--><path codeLine="254" d="M498.75,161.5 C533.88,161.5 577.31,161.5 615.48,161.5 " fill="none" id="Contribution-backto-Contribution_Statement" style="stroke:#A80036;stroke-width:1.0;"/><polygon fill="#A80036" points="485.73,161.5,491.73,165.5,497.73,161.5,491.73,157.5,485.73,161.5" style="stroke:#A80036;stroke-width:1.0;"/><polygon fill="#000000" points="513,150.0664,503.9549,147.1275,503.9549,153.0053,513,150.0664" style="stroke:#000000;stroke-width:1.0;"/><text fill="#000000" font-family="sans-serif" font-size="13" lengthAdjust="spacing" textLength="80" x="517" y="154.5669">is detailed in</text><text fill="#000000" font-family="sans-serif" font-size="13" lengthAdjust="spacing" textLength="23" x="584.516" y="174.1537">0..*</text><!--MD5=[ff11c2ae19cf8b0222e8ec830cb319de]
link Activity to Funding--><path codeLine="255" d="M854,39.46 C854,104.07 854,352.14 854,415.96 " fill="none" id="Activity-Funding" style="stroke:#A80036;stroke-width:1.0;"/><polygon fill="#000000" points="859,250.5664,861.9389,241.5213,856.0611,241.5213,859,250.5664" style="stroke:#000000;stroke-width:1.0;"/><text fill="#000000" font-family="sans-serif" font-size="13" lengthAdjust="spacing" textLength="84" x="868" y="250.0669">is covered by</text><text fill="#000000" font-family="sans-serif" font-size="13" lengthAdjust="spacing" textLength="23" x="827.3344" y="59.1853">0..*</text><text fill="#000000" font-family="sans-serif" font-size="13" lengthAdjust="spacing" textLength="23" x="827.0469" y="404.9578">0..*</text><!--MD5=[55f20054f286b2e7074e8d22fab1f608]
reverse link Activity to Contribution--><path codeLine="295" d="M797.41,42.26 C713.04,69.49 555.85,120.21 477.66,145.44 " fill="none" id="Activity-backto-Contribution" style="stroke:#A80036;stroke-width:1.0;"/><polygon fill="none" points="795.28,35.59,816.46,36.11,799.58,48.92,795.28,35.59" style="stroke:#A80036;stroke-width:1.0;"/><!--MD5=[b01ee177fc17bf8bb95324fc01c31b3b]
link Contribution_Statement to Resource--><path codeLine="315" d="M714.57,188.04 C719.56,206.55 726.94,232.08 735,254 C738.08,262.37 741.97,271.4 745.5,279.15 " fill="none" id="Contribution_Statement-to-Resource" style="stroke:#A80036;stroke-width:1.0;"/><polygon fill="#A80036" points="747.64,283.79,747.52,273.9419,745.5538,279.246,740.2496,277.2798,747.64,283.79" style="stroke:#A80036;stroke-width:1.0;"/><polygon fill="#000000" points="741.6073,250.301,741.4826,240.7913,735.9167,242.6808,741.6073,250.301" style="stroke:#000000;stroke-width:1.0;"/><text fill="#000000" font-family="sans-serif" font-size="13" lengthAdjust="spacing" textLength="61" x="749" y="250.0669">reference</text><text fill="#000000" font-family="sans-serif" font-size="13" lengthAdjust="spacing" textLength="24" x="717.227" y="273.025">0..1</text><!--MD5=[a21829bf9e22d7ad2257d12c520c50b2]
reverse link Resource to Funding--><path codeLine="316" d="M778.72,332.15 C798.9,358.64 826.99,395.53 842.52,415.93 " fill="none" id="Resource-backto-Funding" style="stroke:#A80036;stroke-width:1.0;"/><polygon fill="none" points="773.1,336.32,766.55,316.17,784.24,327.84,773.1,336.32" style="stroke:#A80036;stroke-width:1.0;"/><!--MD5=[117c8d017b65f89954aa553a8ad2cfe8]
link Contribution_to_Document to Document--><path codeLine="259" d="M590.05,316.17 C607.72,333.98 637.78,364.26 662.58,389.26 " fill="none" id="Contribution_to_Document-to-Document" style="stroke:#A80036;stroke-width:1.0;"/><polygon fill="#A80036" points="666.2,392.91,662.7017,383.7034,662.6788,389.3602,657.022,389.3373,666.2,392.91" style="stroke:#A80036;stroke-width:1.0;"/><polygon fill="#000000" points="643.5219,358.1155,639.2368,349.625,635.0646,353.7652,643.5219,358.1155" style="stroke:#000000;stroke-width:1.0;"/><text fill="#000000" font-family="sans-serif" font-size="13" lengthAdjust="spacing" textLength="65" x="649" y="359.0669">document</text><!--MD5=[8d7c614e8203540f95956299e63d224a]
reverse link Contribution to Contribution_to_Document--><path codeLine="275" d="M461.83,191.73 C491.62,219.97 535.57,261.62 558.97,283.8 " fill="none" id="Contribution-backto-Contribution_to_Document" style="stroke:#A80036;stroke-width:1.0;"/><polygon fill="none" points="456.66,196.47,446.96,177.63,466.29,186.31,456.66,196.47" style="stroke:#A80036;stroke-width:1.0;"/><!--MD5=[db20fd804d8595e73b6b8c99fdd1338c]
link Authorship to Textual_Document--><path codeLine="267" d="M508.08,458.58 C522.09,477.37 541.03,502.79 555.02,521.54 " fill="none" id="Authorship-to-Textual_Document" style="stroke:#A80036;stroke-width:1.0;"/><polygon fill="#A80036" points="562.8,531.98,562.4221,524.7788,555.6296,522.3579,556.0074,529.5591,562.8,531.98" style="stroke:#A80036;stroke-width:1.0;"/><!--MD5=[585439cc3a9acb21770d204e54b00812]
reverse link Contribution_to_Document to Authorship--><path codeLine="271" d="M553.71,333.18 C539.02,355.38 519.76,384.51 506.07,405.19 " fill="none" id="Contribution_to_Document-backto-Authorship" style="stroke:#A80036;stroke-width:1.0;"/><polygon fill="none" points="548.09,328.99,564.97,316.17,559.77,336.71,548.09,328.99" style="stroke:#A80036;stroke-width:1.0;"/><!--MD5=[49125a4ba45432b051dcbcd9e53401d7]
link Authorship to Agent--><path codeLine="320" d="M483.77,458.8 C475.84,497.87 460.85,571.75 452.67,612.05 " fill="none" id="Authorship-to-Agent" style="stroke:#A80036;stroke-width:1.0;"/><polygon fill="#FFFFFF" points="450.08,624.8,455.1933,619.7153,452.4663,613.0397,447.3531,618.1244,450.08,624.8" style="stroke:#A80036;stroke-width:1.0;"/><text fill="#000000" font-family="sans-serif" font-size="13" lengthAdjust="spacing" textLength="23" x="457.1103" y="478.4059">0..*</text><text fill="#000000" font-family="sans-serif" font-size="13" lengthAdjust="spacing" textLength="70" x="369.5065" y="614.0383">0..1 author</text><!--MD5=[3bc04dee94cc69985a1813f74705f429]
reverse link Textual_Document to Agent--><path codeLine="363" d="M542.33,571.7 C519.11,588.33 488.24,610.45 468,624.95 " fill="none" id="Textual_Document-backto-Agent" style="stroke:#A80036;stroke-width:1.0;"/><polygon fill="#FFFFFF" points="553.03,564.03,545.8229,564.2717,543.2741,571.0173,550.4812,570.7756,553.03,564.03" style="stroke:#A80036;stroke-width:1.0;"/><text fill="#000000" font-family="sans-serif" font-size="13" lengthAdjust="spacing" textLength="159" x="359.4934" y="584.2082">0..* authoredDocuments</text><text fill="#000000" font-family="sans-serif" font-size="13" lengthAdjust="spacing" textLength="76" x="488.2813" y="613.9444">0..* authors</text><!--MD5=[e36b49b71580bc35ebd964809c09ea7d]
reverse link Contribution to Contribution_to_Project--><path codeLine="279" d="M381.42,186.41 C323.23,214.48 228.47,260.19 179.51,283.8 " fill="none" id="Contribution-backto-Contribution_to_Project" style="stroke:#A80036;stroke-width:1.0;"/><polygon fill="none" points="378.58,180.01,399.63,177.63,384.66,192.62,378.58,180.01" style="stroke:#A80036;stroke-width:1.0;"/><!--MD5=[57fd60736781c4a6a1ada02cfd005744]
link Contribution_to_Project to Project--><path codeLine="283" d="M148,316.17 C148,339.55 148,384.45 148,410.64 " fill="none" id="Contribution_to_Project-to-Project" style="stroke:#A80036;stroke-width:1.0;"/><polygon fill="#A80036" points="148,415.93,152,406.93,148,410.93,144,406.93,148,415.93" style="stroke:#A80036;stroke-width:1.0;"/><polygon fill="#000000" points="153,359.5664,155.9389,350.5213,150.0611,350.5213,153,359.5664" style="stroke:#000000;stroke-width:1.0;"/><text fill="#000000" font-family="sans-serif" font-size="13" lengthAdjust="spacing" textLength="44" x="162" y="359.0669">project</text><!--MD5=[ff4a6d145294525e05493403423321eb]
reverse link Contribution to Contribution_to_Event--><path codeLine="287" d="M412.96,195.32 C397.54,223.4 376.03,262.55 364.35,283.8 " fill="none" id="Contribution-backto-Contribution_to_Event" style="stroke:#A80036;stroke-width:1.0;"/><polygon fill="none" points="406.92,191.79,422.69,177.63,419.19,198.53,406.92,191.79" style="stroke:#A80036;stroke-width:1.0;"/><!--MD5=[467ded19ca6884babd44a8b5c496328d]
link Contribution_to_Event to Event--><path codeLine="291" d="M351.1,316.17 C343.51,339.65 328.92,384.82 320.47,410.97 " fill="none" id="Contribution_to_Event-to-Event" style="stroke:#A80036;stroke-width:1.0;"/><polygon fill="#A80036" points="318.87,415.93,325.4514,408.603,320.4125,411.1739,317.8417,406.135,318.87,415.93" style="stroke:#A80036;stroke-width:1.0;"/><polygon fill="#000000" points="344.4627,359.3242,350.0402,351.6208,344.4471,349.8137,344.4627,359.3242" style="stroke:#000000;stroke-width:1.0;"/><text fill="#000000" font-family="sans-serif" font-size="13" lengthAdjust="spacing" textLength="36" x="355" y="359.0669">event</text><!--MD5=[ac110f789ae7a6a0503e4df1ad0c3da4]
reverse link Activity to Membership--><path codeLine="299" d="M881.05,54.02 C906.48,82.23 943.51,123.33 963.31,145.3 " fill="none" id="Activity-backto-Membership" style="stroke:#A80036;stroke-width:1.0;"/><polygon fill="none" points="875.82,58.67,867.63,39.13,886.22,49.3,875.82,58.67" style="stroke:#A80036;stroke-width:1.0;"/><!--MD5=[f5e0273634b15655b552a32017180749]
link Membership to Group--><path codeLine="303" d="M978.77,177.63 C981.66,202.23 987.36,250.92 990.6,278.57 " fill="none" id="Membership-to-Group" style="stroke:#A80036;stroke-width:1.0;"/><polygon fill="#A80036" points="991.22,283.8,994.1363,274.3928,990.6333,278.8345,986.1916,275.3315,991.22,283.8" style="stroke:#A80036;stroke-width:1.0;"/><polygon fill="#000000" points="992.582,250.5324,994.4481,241.2067,988.6102,241.8909,992.582,250.5324" style="stroke:#000000;stroke-width:1.0;"/><text fill="#000000" font-family="sans-serif" font-size="13" lengthAdjust="spacing" textLength="11" x="1001" y="250.0669">in</text><text fill="#000000" font-family="sans-serif" font-size="13" lengthAdjust="spacing" textLength="23" x="952.5469" y="197.5463">0..*</text><text fill="#000000" font-family="sans-serif" font-size="13" lengthAdjust="spacing" textLength="24" x="962.6554" y="273.0383">0..1</text><!--MD5=[fe03d2c8e9644e7513bef3a6fb6291e6]
reverse link Affiliation_Statement to Organisation_Unit--><path codeLine="241" d="M1264.15,216.49 C1269.91,222.78 1275,229.61 1279,237 C1286.8,251.4 1286.4,270.56 1284.78,283.75 " fill="none" id="Affiliation_Statement-backto-Organisation_Unit" style="stroke:#A80036;stroke-width:1.0;"/><polygon fill="#FFFFFF" points="1254.59,207.06,1256.0536,214.121,1263.1344,215.4857,1261.6708,208.4247,1254.59,207.06" style="stroke:#A80036;stroke-width:1.0;"/><polygon fill="#000000" points="1290.4662,250.3466,1290.6236,240.8373,1285.0041,242.5609,1290.4662,250.3466" style="stroke:#000000;stroke-width:1.0;"/><text fill="#000000" font-family="sans-serif" font-size="13" lengthAdjust="spacing" textLength="107" x="1298" y="250.0669">organisation unit</text><text fill="#000000" font-family="sans-serif" font-size="13" lengthAdjust="spacing" textLength="24" x="1257.7259" y="272.9717">0..1</text><!--MD5=[fe03d2c8e9644e7513bef3a6fb6291e6]
reverse link Affiliation_Statement to Organisation_Unit--><path codeLine="245" d="M1178.51,220.19 C1181.19,232.23 1185.67,244.22 1193,254 C1202.97,267.3 1217.98,276.95 1232.84,283.82 " fill="none" id="Affiliation_Statement-backto-Organisation_Unit-1" style="stroke:#A80036;stroke-width:1.0;"/><polygon fill="#FFFFFF" points="1176.26,207.21,1173.3413,213.804,1178.3055,219.0344,1181.2242,212.4404,1176.26,207.21" style="stroke:#A80036;stroke-width:1.0;"/><polygon fill="#000000" points="1201.2467,249.3689,1197.6084,240.5818,1193.1383,244.3985,1201.2467,249.3689" style="stroke:#000000;stroke-width:1.0;"/><text fill="#000000" font-family="sans-serif" font-size="13" lengthAdjust="spacing" textLength="63" x="1207" y="250.0669">institution</text><text fill="#000000" font-family="sans-serif" font-size="13" lengthAdjust="spacing" textLength="24" x="1188.5807" y="273.0649">0..1</text><!--MD5=[d9b08b031298a036c8fb3d44263a5204]
reverse link Affiliation_Statement to Person--><path codeLine="246" d="M1109.2,217.69 C1104.75,223.76 1100.9,230.22 1098,237 C1091.6,251.96 1093.79,270.84 1096.67,283.82 " fill="none" id="Affiliation_Statement-backto-Person" style="stroke:#A80036;stroke-width:1.0;"/><polygon fill="#FFFFFF" points="1117.76,207.19,1110.868,209.3115,1110.1755,216.4892,1117.0675,214.3678,1117.76,207.19" style="stroke:#A80036;stroke-width:1.0;"/><polygon fill="#000000" points="1102.0692,250.479,1106.6406,242.1392,1100.8655,241.0449,1102.0692,250.479" style="stroke:#000000;stroke-width:1.0;"/><text fill="#000000" font-family="sans-serif" font-size="13" lengthAdjust="spacing" textLength="44" x="1112" y="250.0669">person</text><text fill="#000000" font-family="sans-serif" font-size="13" lengthAdjust="spacing" textLength="24" x="1067.2607" y="273.0649">0..1</text><!--MD5=[335bc652314d68e20c6b9db39c8a9e92]
reverse link Activity to Affiliation_Statement--><path codeLine="250" d="M901.95,44.33 C951.55,65.35 1030.04,98.63 1090.33,124.18 " fill="none" id="Activity-backto-Affiliation_Statement" style="stroke:#A80036;stroke-width:1.0;"/><polygon fill="#FFFFFF" points="889.69,39.13,893.6544,45.1536,900.7394,43.8108,896.775,37.7873,889.69,39.13" style="stroke:#A80036;stroke-width:1.0;"/><polygon fill="#000000" points="1004.6035,79.5177,997.4226,73.2819,995.1287,78.6936,1004.6035,79.5177" style="stroke:#000000;stroke-width:1.0;"/><text fill="#000000" font-family="sans-serif" font-size="13" lengthAdjust="spacing" textLength="61" x="1009" y="82.0669">affilations</text><text fill="#000000" font-family="sans-serif" font-size="13" lengthAdjust="spacing" textLength="23" x="874.7029" y="59.0463">0..*</text><text fill="#000000" font-family="sans-serif" font-size="13" lengthAdjust="spacing" textLength="23" x="1059.5868" y="117.6719">0..*</text><!--MD5=[945a4f0eaeab9fbe466b0309c366801e]
reverse link Resource to Document--><path codeLine="354" d="M741.65,335.03 C734.68,352.79 726.13,374.58 718.94,392.91 " fill="none" id="Resource-backto-Document" style="stroke:#A80036;stroke-width:1.0;"/><polygon fill="none" points="735.23,332.23,749.05,316.17,748.26,337.34,735.23,332.23" style="stroke:#A80036;stroke-width:1.0;"/><!--MD5=[67ceb885199ca7e1fa058287d8756a2e]
reverse link Document to Textual_Document--><path codeLine="355" d="M645.28,484.5 C625.66,501.7 605.28,519.57 591.36,531.77 " fill="none" id="Document-backto-Textual_Document" style="stroke:#A80036;stroke-width:1.0;"/><polygon fill="none" points="640.7,479.2,660.35,471.28,649.93,489.73,640.7,479.2" style="stroke:#A80036;stroke-width:1.0;"/><!--MD5=[3dec838e3db62a88fd1cda41a8cf8e6a]
@startuml

    !includesub core.puml!common
    !includesub core.puml!Activity
    !includesub core.puml!Contribution
    !includesub core.puml!ContributionToDocument
    !includesub core.puml!Authorship
    !includesub core.puml!ContributionToProject
    !includesub core.puml!ContributionToEvent
    !includesub core.puml!Membership
    !includesub core.puml!AffiliationStatement
    !includesub core.puml!Document
    !includesub core.puml!Agent

@enduml

@startuml

        hide empty members
        skinparam BoxPadding 120
        class "Activity" #ffffff {
        }
        "Activity" "0..*" - -o "0..1 who" "Agent"
        class "Contribution" #ffffff {
        }
            
        
        class "Contribution_Statement" #ffffff {
            statement : Multilingual_String
        }
    
        class "Resource" #ffffff {
        }

        class "Funding" #ffffff {
        }
        "Contribution" *-r- "0..*" "Contribution_Statement" : is detailed in >
        "Activity" "0..*" - - "0..*" "Funding" : is covered by >
        "Activity" <|- - "Contribution"
         "Contribution_Statement" - -> "0..1" "Resource" : reference >
         "Resource" <|- - "Funding"
        class "Contribution_to_Document" #ffffff {
        }
        "Contribution_to_Document" - -> "Document" : document >
        "Contribution" <|- - "Contribution_to_Document"
        class "Authorship" #ffffff {
            correspondingAuthorFlag : Boolean
        }
        "Authorship" - -* "Textual_Document"
        "Contribution_to_Document" <|- - "Authorship"
        "Authorship" "0..*" - -o "0..1 author" "Agent"
        "Textual_Document" "0..* authoredDocuments" o- - "0..* authors" "Agent"
        class "Contribution_to_Project" #ffffff {
        }
    
        class "Project" #ffffff {
        }
        "Contribution" <|- - "Contribution_to_Project"
        "Contribution_to_Project" - -> "Project" : project >
        class "Contribution_to_Event" #ffffff {
        }
    
        class "Event" #ffffff {
        }
        "Contribution" <|- - "Contribution_to_Event"
        "Contribution_to_Event" - -> "Event" : event >
        class "Membership" #ffffff {
        }
        "Activity" <|- - "Membership"
        "Membership" "0..*" - -> "0..1" "Group" : in >
        class "Affiliation_Statement" #ffffff {
            displayAffiliation : String
            displayPersonName : String
            address : Postal_Address
            contacts : List<URI>
        }
        "Affiliation_Statement" o- - "0..1" "Organisation_Unit" : organisation unit >
        "Affiliation_Statement" o- - "0..1" "Organisation_Unit" : institution >
        "Affiliation_Statement" o- - "0..1" "Person" : person >
        "Activity" "0..*" o- - "0..*" "Affiliation_Statement" : affilations >
        class "Document" #ffffff {
            DOI : DOI_Type
            title : Multilingual_String
            publicationDate : Date
        }
        class "Textual_Document" #ffffff {
        }
    	"Resource" <|- - "Document"
        "Document" <|- - "Textual_Document"
        class "Agent" #ffffff {
        }

@enduml

PlantUML version 1.2021.8(Sat Jun 26 08:20:59 UTC 2021)
(GPL source distribution)
Java Runtime: OpenJDK Runtime Environment
JVM: OpenJDK 64-Bit Server VM
Default Encoding: UTF-8
Language: en
Country: null
--></g></svg>