<?xml version="1.0" encoding="UTF-8" standalone="no"?><svg xmlns="http://www.w3.org/2000/svg" xmlns:xlink="http://www.w3.org/1999/xlink" contentScriptType="application/ecmascript" contentStyleType="text/css" height="940px" preserveAspectRatio="none" style="width:1330px;height:940px;background:#FFFFFF;" version="1.1" viewBox="0 0 1330 940" width="1330px" zoomAndPan="magnify"><defs><filter height="300%" id="fai3s498093uk" width="300%" x="-1" y="-1"><feGaussianBlur result="blurOut" stdDeviation="2.0"/><feColorMatrix in="blurOut" result="blurOut2" type="matrix" values="0 0 0 0 0 0 0 0 0 0 0 0 0 0 0 0 0 0 .4 0"/><feOffset dx="4.0" dy="4.0" in="blurOut2" result="blurOut3"/><feBlend in="SourceGraphic" in2="blurOut3" mode="normal"/></filter></defs><g><!--MD5=[c881b25adf3665c6568c9693d41a70f3]
class Activity--><rect codeLine="143" fill="#FFFFFF" filter="url(#fai3s498093uk)" height="52.8047" id="Activity" style="stroke:#A80036;stroke-width:1.5;" width="151" x="714.5" y="454"/><ellipse cx="764.25" cy="470" fill="#ADD1B2" rx="11" ry="11" style="stroke:#A80036;stroke-width:1.0;"/><path d="M767.2188,475.6406 Q766.6406,475.9375 766,476.0781 Q765.3594,476.2344 764.6563,476.2344 Q762.1563,476.2344 760.8281,474.5938 Q759.5156,472.9375 759.5156,469.8125 Q759.5156,466.6875 760.8281,465.0313 Q762.1563,463.375 764.6563,463.375 Q765.3594,463.375 766,463.5313 Q766.6563,463.6875 767.2188,463.9844 L767.2188,466.7031 Q766.5938,466.125 766,465.8594 Q765.4063,465.5781 764.7813,465.5781 Q763.4375,465.5781 762.75,466.6563 Q762.0625,467.7188 762.0625,469.8125 Q762.0625,471.9063 762.75,472.9844 Q763.4375,474.0469 764.7813,474.0469 Q765.4063,474.0469 766,473.7813 Q766.5938,473.5 767.2188,472.9219 L767.2188,475.6406 Z " fill="#000000"/><text fill="#000000" font-family="sans-serif" font-size="12" lengthAdjust="spacing" textLength="43" x="784.75" y="474.1543">Activity</text><line style="stroke:#A80036;stroke-width:1.5;" x1="715.5" x2="864.5" y1="486" y2="486"/><text fill="#000000" font-family="sans-serif" font-size="11" lengthAdjust="spacing" textLength="139" x="720.5" y="500.2104">dateRange : Date_Range</text><!--MD5=[59b530d44ae785dc18db921986a9c15c]
class Document--><rect codeLine="256" fill="#FFFFFF" filter="url(#fai3s498093uk)" height="65.6094" id="Document" style="stroke:#A80036;stroke-width:1.5;" width="148" x="858" y="311"/><ellipse cx="896.4" cy="327" fill="#ADD1B2" rx="11" ry="11" style="stroke:#A80036;stroke-width:1.0;"/><path d="M899.3688,332.6406 Q898.7906,332.9375 898.15,333.0781 Q897.5094,333.2344 896.8063,333.2344 Q894.3063,333.2344 892.9781,331.5938 Q891.6656,329.9375 891.6656,326.8125 Q891.6656,323.6875 892.9781,322.0313 Q894.3063,320.375 896.8063,320.375 Q897.5094,320.375 898.15,320.5313 Q898.8063,320.6875 899.3688,320.9844 L899.3688,323.7031 Q898.7438,323.125 898.15,322.8594 Q897.5563,322.5781 896.9313,322.5781 Q895.5875,322.5781 894.9,323.6563 Q894.2125,324.7188 894.2125,326.8125 Q894.2125,328.9063 894.9,329.9844 Q895.5875,331.0469 896.9313,331.0469 Q897.5563,331.0469 898.15,330.7813 Q898.7438,330.5 899.3688,329.9219 L899.3688,332.6406 Z " fill="#000000"/><text fill="#000000" font-family="sans-serif" font-size="12" lengthAdjust="spacing" textLength="64" x="915.6" y="331.1543">Document</text><line style="stroke:#A80036;stroke-width:1.5;" x1="859" x2="1005" y1="343" y2="343"/><text fill="#000000" font-family="sans-serif" font-size="11" lengthAdjust="spacing" textLength="136" x="864" y="357.2104">title : Multilingual_String</text><text fill="#000000" font-family="sans-serif" font-size="11" lengthAdjust="spacing" textLength="125" x="864" y="370.0151">publicationDate : Date</text><!--MD5=[9d44916250b776386006c440668bcfbb]
class Agent--><rect codeLine="10" fill="#FFFFFF" filter="url(#fai3s498093uk)" height="78.4141" id="Agent" style="stroke:#A80036;stroke-width:1.5;" width="224" x="378" y="584"/><ellipse cx="467.25" cy="600" fill="#ADD1B2" rx="11" ry="11" style="stroke:#A80036;stroke-width:1.0;"/><path d="M470.2188,605.6406 Q469.6406,605.9375 469,606.0781 Q468.3594,606.2344 467.6563,606.2344 Q465.1563,606.2344 463.8281,604.5938 Q462.5156,602.9375 462.5156,599.8125 Q462.5156,596.6875 463.8281,595.0313 Q465.1563,593.375 467.6563,593.375 Q468.3594,593.375 469,593.5313 Q469.6563,593.6875 470.2188,593.9844 L470.2188,596.7031 Q469.5938,596.125 469,595.8594 Q468.4063,595.5781 467.7813,595.5781 Q466.4375,595.5781 465.75,596.6563 Q465.0625,597.7188 465.0625,599.8125 Q465.0625,601.9063 465.75,602.9844 Q466.4375,604.0469 467.7813,604.0469 Q468.4063,604.0469 469,603.7813 Q469.5938,603.5 470.2188,602.9219 L470.2188,605.6406 Z " fill="#000000"/><text fill="#000000" font-family="sans-serif" font-size="12" lengthAdjust="spacing" textLength="37" x="487.75" y="604.1543">Agent</text><line style="stroke:#A80036;stroke-width:1.5;" x1="379" x2="601" y1="616" y2="616"/><text fill="#000000" font-family="sans-serif" font-size="11" lengthAdjust="spacing" textLength="207" x="384" y="630.2104">keywords : List&lt;Multilingual_String&gt;</text><text fill="#000000" font-family="sans-serif" font-size="11" lengthAdjust="spacing" textLength="121" x="384" y="643.0151">lifetime : Date_Range</text><text fill="#000000" font-family="sans-serif" font-size="11" lengthAdjust="spacing" textLength="212" x="384" y="655.8198">contacts : List&lt;Contact_Information&gt;</text><!--MD5=[0330879a1a385efee19ba3488ed490fa]
class Contribution--><rect codeLine="186" fill="#FFFFFF" filter="url(#fai3s498093uk)" height="32" id="Contribution" style="stroke:#A80036;stroke-width:1.5;" width="109" x="735.5" y="607"/><ellipse cx="750.5" cy="623" fill="#ADD1B2" rx="11" ry="11" style="stroke:#A80036;stroke-width:1.0;"/><path d="M753.4688,628.6406 Q752.8906,628.9375 752.25,629.0781 Q751.6094,629.2344 750.9063,629.2344 Q748.4063,629.2344 747.0781,627.5938 Q745.7656,625.9375 745.7656,622.8125 Q745.7656,619.6875 747.0781,618.0313 Q748.4063,616.375 750.9063,616.375 Q751.6094,616.375 752.25,616.5313 Q752.9063,616.6875 753.4688,616.9844 L753.4688,619.7031 Q752.8438,619.125 752.25,618.8594 Q751.6563,618.5781 751.0313,618.5781 Q749.6875,618.5781 749,619.6563 Q748.3125,620.7188 748.3125,622.8125 Q748.3125,624.9063 749,625.9844 Q749.6875,627.0469 751.0313,627.0469 Q751.6563,627.0469 752.25,626.7813 Q752.8438,626.5 753.4688,625.9219 L753.4688,628.6406 Z " fill="#000000"/><text fill="#000000" font-family="sans-serif" font-size="12" lengthAdjust="spacing" textLength="77" x="764.5" y="627.1543">Contribution</text><!--MD5=[532fe005ca0bef0ad6b309c9c6480e22]
class Contribution_Statement--><rect codeLine="310" fill="#FFFFFF" filter="url(#fai3s498093uk)" height="52.8047" id="Contribution_Statement" style="stroke:#A80036;stroke-width:1.5;" width="185" x="685.5" y="751.5"/><ellipse cx="702.3" cy="767.5" fill="#ADD1B2" rx="11" ry="11" style="stroke:#A80036;stroke-width:1.0;"/><path d="M705.2688,773.1406 Q704.6906,773.4375 704.05,773.5781 Q703.4094,773.7344 702.7063,773.7344 Q700.2063,773.7344 698.8781,772.0938 Q697.5656,770.4375 697.5656,767.3125 Q697.5656,764.1875 698.8781,762.5313 Q700.2063,760.875 702.7063,760.875 Q703.4094,760.875 704.05,761.0313 Q704.7063,761.1875 705.2688,761.4844 L705.2688,764.2031 Q704.6438,763.625 704.05,763.3594 Q703.4563,763.0781 702.8313,763.0781 Q701.4875,763.0781 700.8,764.1563 Q700.1125,765.2188 700.1125,767.3125 Q700.1125,769.4063 700.8,770.4844 Q701.4875,771.5469 702.8313,771.5469 Q703.4563,771.5469 704.05,771.2813 Q704.6438,771 705.2688,770.4219 L705.2688,773.1406 Z " fill="#000000"/><text fill="#000000" font-family="sans-serif" font-size="12" lengthAdjust="spacing" textLength="149" x="716.7" y="771.6543">Contribution_Statement</text><line style="stroke:#A80036;stroke-width:1.5;" x1="686.5" x2="869.5" y1="783.5" y2="783.5"/><text fill="#000000" font-family="sans-serif" font-size="11" lengthAdjust="spacing" textLength="173" x="691.5" y="797.7104">statement : Multilingual_String</text><!--MD5=[6b13f1b330d33795af281e5c1dfe1e98]
class Resource--><rect codeLine="238" fill="#FFFFFF" filter="url(#fai3s498093uk)" height="32" id="Resource" style="stroke:#A80036;stroke-width:1.5;" width="91" x="732.5" y="894"/><ellipse cx="747.5" cy="910" fill="#ADD1B2" rx="11" ry="11" style="stroke:#A80036;stroke-width:1.0;"/><path d="M750.4688,915.6406 Q749.8906,915.9375 749.25,916.0781 Q748.6094,916.2344 747.9063,916.2344 Q745.4063,916.2344 744.0781,914.5938 Q742.7656,912.9375 742.7656,909.8125 Q742.7656,906.6875 744.0781,905.0313 Q745.4063,903.375 747.9063,903.375 Q748.6094,903.375 749.25,903.5313 Q749.9063,903.6875 750.4688,903.9844 L750.4688,906.7031 Q749.8438,906.125 749.25,905.8594 Q748.6563,905.5781 748.0313,905.5781 Q746.6875,905.5781 746,906.6563 Q745.3125,907.7188 745.3125,909.8125 Q745.3125,911.9063 746,912.9844 Q746.6875,914.0469 748.0313,914.0469 Q748.6563,914.0469 749.25,913.7813 Q749.8438,913.5 750.4688,912.9219 L750.4688,915.6406 Z " fill="#000000"/><text fill="#000000" font-family="sans-serif" font-size="12" lengthAdjust="spacing" textLength="59" x="761.5" y="914.1543">Resource</text><!--MD5=[05151c161079be2c12996cf31a3c6866]
class Contribution_to_Document--><rect codeLine="204" fill="#FFFFFF" filter="url(#fai3s498093uk)" height="32" id="Contribution_to_Document" style="stroke:#A80036;stroke-width:1.5;" width="198" x="1118" y="762"/><ellipse cx="1133" cy="778" fill="#ADD1B2" rx="11" ry="11" style="stroke:#A80036;stroke-width:1.0;"/><path d="M1135.9688,783.6406 Q1135.3906,783.9375 1134.75,784.0781 Q1134.1094,784.2344 1133.4063,784.2344 Q1130.9063,784.2344 1129.5781,782.5938 Q1128.2656,780.9375 1128.2656,777.8125 Q1128.2656,774.6875 1129.5781,773.0313 Q1130.9063,771.375 1133.4063,771.375 Q1134.1094,771.375 1134.75,771.5313 Q1135.4063,771.6875 1135.9688,771.9844 L1135.9688,774.7031 Q1135.3438,774.125 1134.75,773.8594 Q1134.1563,773.5781 1133.5313,773.5781 Q1132.1875,773.5781 1131.5,774.6563 Q1130.8125,775.7188 1130.8125,777.8125 Q1130.8125,779.9063 1131.5,780.9844 Q1132.1875,782.0469 1133.5313,782.0469 Q1134.1563,782.0469 1134.75,781.7813 Q1135.3438,781.5 1135.9688,780.9219 L1135.9688,783.6406 Z " fill="#000000"/><text fill="#000000" font-family="sans-serif" font-size="12" lengthAdjust="spacing" textLength="166" x="1147" y="782.1543">Contribution_to_Document</text><!--MD5=[d8ce9658d3ea3b764ca76e27f1ae6382]
class Contribution_to_Project--><rect codeLine="195" fill="#FFFFFF" filter="url(#fai3s498093uk)" height="32" id="Contribution_to_Project" style="stroke:#A80036;stroke-width:1.5;" width="178" x="905" y="762"/><ellipse cx="920" cy="778" fill="#ADD1B2" rx="11" ry="11" style="stroke:#A80036;stroke-width:1.0;"/><path d="M922.9688,783.6406 Q922.3906,783.9375 921.75,784.0781 Q921.1094,784.2344 920.4063,784.2344 Q917.9063,784.2344 916.5781,782.5938 Q915.2656,780.9375 915.2656,777.8125 Q915.2656,774.6875 916.5781,773.0313 Q917.9063,771.375 920.4063,771.375 Q921.1094,771.375 921.75,771.5313 Q922.4063,771.6875 922.9688,771.9844 L922.9688,774.7031 Q922.3438,774.125 921.75,773.8594 Q921.1563,773.5781 920.5313,773.5781 Q919.1875,773.5781 918.5,774.6563 Q917.8125,775.7188 917.8125,777.8125 Q917.8125,779.9063 918.5,780.9844 Q919.1875,782.0469 920.5313,782.0469 Q921.1563,782.0469 921.75,781.7813 Q922.3438,781.5 922.9688,780.9219 L922.9688,783.6406 Z " fill="#000000"/><text fill="#000000" font-family="sans-serif" font-size="12" lengthAdjust="spacing" textLength="146" x="934" y="782.1543">Contribution_to_Project</text><!--MD5=[79d378210367c0c6ec62ef762ddfbd1b]
class Project--><rect codeLine="300" fill="#FFFFFF" filter="url(#fai3s498093uk)" height="32" id="Project" style="stroke:#A80036;stroke-width:1.5;" width="76" x="956" y="894"/><ellipse cx="971" cy="910" fill="#ADD1B2" rx="11" ry="11" style="stroke:#A80036;stroke-width:1.0;"/><path d="M973.9688,915.6406 Q973.3906,915.9375 972.75,916.0781 Q972.1094,916.2344 971.4063,916.2344 Q968.9063,916.2344 967.5781,914.5938 Q966.2656,912.9375 966.2656,909.8125 Q966.2656,906.6875 967.5781,905.0313 Q968.9063,903.375 971.4063,903.375 Q972.1094,903.375 972.75,903.5313 Q973.4063,903.6875 973.9688,903.9844 L973.9688,906.7031 Q973.3438,906.125 972.75,905.8594 Q972.1563,905.5781 971.5313,905.5781 Q970.1875,905.5781 969.5,906.6563 Q968.8125,907.7188 968.8125,909.8125 Q968.8125,911.9063 969.5,912.9844 Q970.1875,914.0469 971.5313,914.0469 Q972.1563,914.0469 972.75,913.7813 Q973.3438,913.5 973.9688,912.9219 L973.9688,915.6406 Z " fill="#000000"/><text fill="#000000" font-family="sans-serif" font-size="12" lengthAdjust="spacing" textLength="44" x="985" y="914.1543">Project</text><!--MD5=[e02578a13076095640a9a08de0c36172]
class Contribution_to_Event--><rect codeLine="213" fill="#FFFFFF" filter="url(#fai3s498093uk)" height="32" id="Contribution_to_Event" style="stroke:#A80036;stroke-width:1.5;" width="169" x="481.5" y="762"/><ellipse cx="496.5" cy="778" fill="#ADD1B2" rx="11" ry="11" style="stroke:#A80036;stroke-width:1.0;"/><path d="M499.4688,783.6406 Q498.8906,783.9375 498.25,784.0781 Q497.6094,784.2344 496.9063,784.2344 Q494.4063,784.2344 493.0781,782.5938 Q491.7656,780.9375 491.7656,777.8125 Q491.7656,774.6875 493.0781,773.0313 Q494.4063,771.375 496.9063,771.375 Q497.6094,771.375 498.25,771.5313 Q498.9063,771.6875 499.4688,771.9844 L499.4688,774.7031 Q498.8438,774.125 498.25,773.8594 Q497.6563,773.5781 497.0313,773.5781 Q495.6875,773.5781 495,774.6563 Q494.3125,775.7188 494.3125,777.8125 Q494.3125,779.9063 495,780.9844 Q495.6875,782.0469 497.0313,782.0469 Q497.6563,782.0469 498.25,781.7813 Q498.8438,781.5 499.4688,780.9219 L499.4688,783.6406 Z " fill="#000000"/><text fill="#000000" font-family="sans-serif" font-size="12" lengthAdjust="spacing" textLength="137" x="510.5" y="782.1543">Contribution_to_Event</text><!--MD5=[ac13618b1a974308c1f12eb6c57723dc]
class Event--><rect codeLine="305" fill="#FFFFFF" filter="url(#fai3s498093uk)" height="32" id="Event" style="stroke:#A80036;stroke-width:1.5;" width="67" x="532.5" y="894"/><ellipse cx="547.5" cy="910" fill="#ADD1B2" rx="11" ry="11" style="stroke:#A80036;stroke-width:1.0;"/><path d="M550.4688,915.6406 Q549.8906,915.9375 549.25,916.0781 Q548.6094,916.2344 547.9063,916.2344 Q545.4063,916.2344 544.0781,914.5938 Q542.7656,912.9375 542.7656,909.8125 Q542.7656,906.6875 544.0781,905.0313 Q545.4063,903.375 547.9063,903.375 Q548.6094,903.375 549.25,903.5313 Q549.9063,903.6875 550.4688,903.9844 L550.4688,906.7031 Q549.8438,906.125 549.25,905.8594 Q548.6563,905.5781 548.0313,905.5781 Q546.6875,905.5781 546,906.6563 Q545.3125,907.7188 545.3125,909.8125 Q545.3125,911.9063 546,912.9844 Q546.6875,914.0469 548.0313,914.0469 Q548.6563,914.0469 549.25,913.7813 Q549.8438,913.5 550.4688,912.9219 L550.4688,915.6406 Z " fill="#000000"/><text fill="#000000" font-family="sans-serif" font-size="12" lengthAdjust="spacing" textLength="35" x="561.5" y="914.1543">Event</text><!--MD5=[6a029e66987f6edc98a50822cc78695f]
class Involvement--><rect codeLine="149" fill="#FFFFFF" filter="url(#fai3s498093uk)" height="32" id="Involvement" style="stroke:#A80036;stroke-width:1.5;" width="106" x="503" y="30"/><ellipse cx="518" cy="46" fill="#ADD1B2" rx="11" ry="11" style="stroke:#A80036;stroke-width:1.0;"/><path d="M520.9688,51.6406 Q520.3906,51.9375 519.75,52.0781 Q519.1094,52.2344 518.4063,52.2344 Q515.9063,52.2344 514.5781,50.5938 Q513.2656,48.9375 513.2656,45.8125 Q513.2656,42.6875 514.5781,41.0313 Q515.9063,39.375 518.4063,39.375 Q519.1094,39.375 519.75,39.5313 Q520.4063,39.6875 520.9688,39.9844 L520.9688,42.7031 Q520.3438,42.125 519.75,41.8594 Q519.1563,41.5781 518.5313,41.5781 Q517.1875,41.5781 516.5,42.6563 Q515.8125,43.7188 515.8125,45.8125 Q515.8125,47.9063 516.5,48.9844 Q517.1875,50.0469 518.5313,50.0469 Q519.1563,50.0469 519.75,49.7813 Q520.3438,49.5 520.9688,48.9219 L520.9688,51.6406 Z " fill="#000000"/><text fill="#000000" font-family="sans-serif" font-size="12" lengthAdjust="spacing" textLength="74" x="532" y="50.1543">Involvement</text><!--MD5=[affb11a45f8309443fb20b6133e8d181]
class Group_or_Organisation_Unit--><rect codeLine="94" fill="#FFFFFF" filter="url(#fai3s498093uk)" height="78.4141" id="Group_or_Organisation_Unit" style="stroke:#A80036;stroke-width:1.5;" width="206" x="222" y="739"/><ellipse cx="237" cy="755" fill="#ADD1B2" rx="11" ry="11" style="stroke:#A80036;stroke-width:1.0;"/><path d="M239.9688,760.6406 Q239.3906,760.9375 238.75,761.0781 Q238.1094,761.2344 237.4063,761.2344 Q234.9063,761.2344 233.5781,759.5938 Q232.2656,757.9375 232.2656,754.8125 Q232.2656,751.6875 233.5781,750.0313 Q234.9063,748.375 237.4063,748.375 Q238.1094,748.375 238.75,748.5313 Q239.4063,748.6875 239.9688,748.9844 L239.9688,751.7031 Q239.3438,751.125 238.75,750.8594 Q238.1563,750.5781 237.5313,750.5781 Q236.1875,750.5781 235.5,751.6563 Q234.8125,752.7188 234.8125,754.8125 Q234.8125,756.9063 235.5,757.9844 Q236.1875,759.0469 237.5313,759.0469 Q238.1563,759.0469 238.75,758.7813 Q239.3438,758.5 239.9688,757.9219 L239.9688,760.6406 Z " fill="#000000"/><text fill="#000000" font-family="sans-serif" font-size="12" lengthAdjust="spacing" textLength="174" x="251" y="759.1543">Group_or_Organisation_Unit</text><line style="stroke:#A80036;stroke-width:1.5;" x1="223" x2="427" y1="771" y2="771"/><text fill="#000000" font-family="sans-serif" font-size="11" lengthAdjust="spacing" textLength="147" x="228" y="785.2104">name : Multilingual_String</text><text fill="#000000" font-family="sans-serif" font-size="11" lengthAdjust="spacing" textLength="95" x="228" y="798.0151">acronym : String</text><text fill="#000000" font-family="sans-serif" font-size="11" lengthAdjust="spacing" textLength="178" x="228" y="810.8198">description : Multilingual_String</text><!--MD5=[ddbff00b4911ad4b77d6aa32dd14d1d7]
class Affiliation_Statement--><rect codeLine="408" fill="#FFFFFF" filter="url(#fai3s498093uk)" height="78.4141" id="Affiliation_Statement" style="stroke:#A80036;stroke-width:1.5;" width="224" x="97" y="7"/><ellipse cx="140.35" cy="23" fill="#ADD1B2" rx="11" ry="11" style="stroke:#A80036;stroke-width:1.0;"/><path d="M143.3188,28.6406 Q142.7406,28.9375 142.1,29.0781 Q141.4594,29.2344 140.7563,29.2344 Q138.2563,29.2344 136.9281,27.5938 Q135.6156,25.9375 135.6156,22.8125 Q135.6156,19.6875 136.9281,18.0313 Q138.2563,16.375 140.7563,16.375 Q141.4594,16.375 142.1,16.5313 Q142.7563,16.6875 143.3188,16.9844 L143.3188,19.7031 Q142.6938,19.125 142.1,18.8594 Q141.5063,18.5781 140.8813,18.5781 Q139.5375,18.5781 138.85,19.6563 Q138.1625,20.7188 138.1625,22.8125 Q138.1625,24.9063 138.85,25.9844 Q139.5375,27.0469 140.8813,27.0469 Q141.5063,27.0469 142.1,26.7813 Q142.6938,26.5 143.3188,25.9219 L143.3188,28.6406 Z " fill="#000000"/><text fill="#000000" font-family="sans-serif" font-size="12" lengthAdjust="spacing" textLength="129" x="160.65" y="27.1543">Affiliation_Statement</text><line style="stroke:#A80036;stroke-width:1.5;" x1="98" x2="320" y1="39" y2="39"/><text fill="#000000" font-family="sans-serif" font-size="11" lengthAdjust="spacing" textLength="203" x="103" y="53.2104">displayAffiliation_Statement : String</text><text fill="#000000" font-family="sans-serif" font-size="11" lengthAdjust="spacing" textLength="159" x="103" y="66.0151">displayPersonName : String</text><text fill="#000000" font-family="sans-serif" font-size="11" lengthAdjust="spacing" textLength="212" x="103" y="78.8198">contacts : List&lt;Contact_Information&gt;</text><!--MD5=[77463bb17ddcfe3891c27a1f4a877731]
class Membership--><rect codeLine="177" fill="#FFFFFF" filter="url(#fai3s498093uk)" height="32" id="Membership" style="stroke:#A80036;stroke-width:1.5;" width="108" x="463" y="182"/><ellipse cx="478" cy="198" fill="#ADD1B2" rx="11" ry="11" style="stroke:#A80036;stroke-width:1.0;"/><path d="M480.9688,203.6406 Q480.3906,203.9375 479.75,204.0781 Q479.1094,204.2344 478.4063,204.2344 Q475.9063,204.2344 474.5781,202.5938 Q473.2656,200.9375 473.2656,197.8125 Q473.2656,194.6875 474.5781,193.0313 Q475.9063,191.375 478.4063,191.375 Q479.1094,191.375 479.75,191.5313 Q480.4063,191.6875 480.9688,191.9844 L480.9688,194.7031 Q480.3438,194.125 479.75,193.8594 Q479.1563,193.5781 478.5313,193.5781 Q477.1875,193.5781 476.5,194.6563 Q475.8125,195.7188 475.8125,197.8125 Q475.8125,199.9063 476.5,200.9844 Q477.1875,202.0469 478.5313,202.0469 Q479.1563,202.0469 479.75,201.7813 Q480.3438,201.5 480.9688,200.9219 L480.9688,203.6406 Z " fill="#000000"/><text fill="#000000" font-family="sans-serif" font-size="12" lengthAdjust="spacing" textLength="76" x="492" y="202.1543">Membership</text><!--MD5=[3e7c08c6da448472712568ab49cd8e32]
class Education--><rect codeLine="167" fill="#FFFFFF" filter="url(#fai3s498093uk)" height="52.8047" id="Education" style="stroke:#A80036;stroke-width:1.5;" width="145" x="606.5" y="171.5"/><ellipse cx="644" cy="187.5" fill="#ADD1B2" rx="11" ry="11" style="stroke:#A80036;stroke-width:1.0;"/><path d="M646.9688,193.1406 Q646.3906,193.4375 645.75,193.5781 Q645.1094,193.7344 644.4063,193.7344 Q641.9063,193.7344 640.5781,192.0938 Q639.2656,190.4375 639.2656,187.3125 Q639.2656,184.1875 640.5781,182.5313 Q641.9063,180.875 644.4063,180.875 Q645.1094,180.875 645.75,181.0313 Q646.4063,181.1875 646.9688,181.4844 L646.9688,184.2031 Q646.3438,183.625 645.75,183.3594 Q645.1563,183.0781 644.5313,183.0781 Q643.1875,183.0781 642.5,184.1563 Q641.8125,185.2188 641.8125,187.3125 Q641.8125,189.4063 642.5,190.4844 Q643.1875,191.5469 644.5313,191.5469 Q645.1563,191.5469 645.75,191.2813 Q646.3438,191 646.9688,190.4219 L646.9688,193.1406 Z " fill="#000000"/><text fill="#000000" font-family="sans-serif" font-size="12" lengthAdjust="spacing" textLength="63" x="663" y="191.6543">Education</text><line style="stroke:#A80036;stroke-width:1.5;" x1="607.5" x2="750.5" y1="203.5" y2="203.5"/><text fill="#000000" font-family="sans-serif" font-size="11" lengthAdjust="spacing" textLength="133" x="612.5" y="217.7104">completed   :   Boolean</text><!--MD5=[1c0f67851325b0845e0b86703ac36f9d]
class Employment--><rect codeLine="158" fill="#FFFFFF" filter="url(#fai3s498093uk)" height="32" id="Employment" style="stroke:#A80036;stroke-width:1.5;" width="108" x="868" y="182"/><ellipse cx="883" cy="198" fill="#ADD1B2" rx="11" ry="11" style="stroke:#A80036;stroke-width:1.0;"/><path d="M885.9688,203.6406 Q885.3906,203.9375 884.75,204.0781 Q884.1094,204.2344 883.4063,204.2344 Q880.9063,204.2344 879.5781,202.5938 Q878.2656,200.9375 878.2656,197.8125 Q878.2656,194.6875 879.5781,193.0313 Q880.9063,191.375 883.4063,191.375 Q884.1094,191.375 884.75,191.5313 Q885.4063,191.6875 885.9688,191.9844 L885.9688,194.7031 Q885.3438,194.125 884.75,193.8594 Q884.1563,193.5781 883.5313,193.5781 Q882.1875,193.5781 881.5,194.6563 Q880.8125,195.7188 880.8125,197.8125 Q880.8125,199.9063 881.5,200.9844 Q882.1875,202.0469 883.5313,202.0469 Q884.1563,202.0469 884.75,201.7813 Q885.3438,201.5 885.9688,200.9219 L885.9688,203.6406 Z " fill="#000000"/><text fill="#000000" font-family="sans-serif" font-size="12" lengthAdjust="spacing" textLength="76" x="897" y="202.1543">Employment</text><!--MD5=[a0318ef586937002b2555963e2a1f4ad]
class Contact_Information--><rect fill="#FEFECE" filter="url(#fai3s498093uk)" height="32" id="Contact_Information" style="stroke:#A80036;stroke-width:1.5;" width="158" x="7" y="762"/><ellipse cx="22" cy="778" fill="#ADD1B2" rx="11" ry="11" style="stroke:#A80036;stroke-width:1.0;"/><path d="M24.9688,783.6406 Q24.3906,783.9375 23.75,784.0781 Q23.1094,784.2344 22.4063,784.2344 Q19.9063,784.2344 18.5781,782.5938 Q17.2656,780.9375 17.2656,777.8125 Q17.2656,774.6875 18.5781,773.0313 Q19.9063,771.375 22.4063,771.375 Q23.1094,771.375 23.75,771.5313 Q24.4063,771.6875 24.9688,771.9844 L24.9688,774.7031 Q24.3438,774.125 23.75,773.8594 Q23.1563,773.5781 22.5313,773.5781 Q21.1875,773.5781 20.5,774.6563 Q19.8125,775.7188 19.8125,777.8125 Q19.8125,779.9063 20.5,780.9844 Q21.1875,782.0469 22.5313,782.0469 Q23.1563,782.0469 23.75,781.7813 Q24.3438,781.5 24.9688,780.9219 L24.9688,783.6406 Z " fill="#000000"/><text fill="#000000" font-family="sans-serif" font-size="12" lengthAdjust="spacing" textLength="126" x="36" y="782.1543">Contact_Information</text><!--MD5=[a64a835c3d62471a77f615251fdde58a]
class Position--><rect codeLine="700" fill="#FFFFFF" filter="url(#fai3s498093uk)" height="71.5469" id="Position" style="stroke:#A80036;stroke-width:1.5;" width="164" x="122" y="162"/><ellipse cx="164.9" cy="180.9688" fill="#ADD0B2" rx="11" ry="11" style="stroke:#A80036;stroke-width:1.0;"/><path d="M164.4938,176.7813 L164.4938,184.7656 L165.15,184.7656 Q166.5875,184.7656 167.1969,183.8594 Q167.8219,182.9375 167.8219,180.7656 Q167.8219,178.5938 167.1969,177.6875 Q166.5875,176.7813 165.15,176.7813 L164.4938,176.7813 Z M162.0406,174.5781 L164.6656,174.5781 Q167.6969,174.5781 169.025,176.0313 Q170.3688,177.4688 170.3688,180.7656 Q170.3688,184.0625 169.025,185.5156 Q167.6969,186.9688 164.6656,186.9688 L162.0406,186.9688 L162.0406,174.5781 Z " fill="#000000"/><text fill="#000000" font-family="sans-serif" font-size="12" font-style="italic" lengthAdjust="spacing" textLength="74" x="183.1" y="178.1387">«DataType»</text><text fill="#000000" font-family="sans-serif" font-size="12" lengthAdjust="spacing" textLength="50" x="195.1" y="192.1074">Position</text><line style="stroke:#A80036;stroke-width:1.5;" x1="123" x2="285" y1="199.9375" y2="199.9375"/><text fill="#000000" font-family="sans-serif" font-size="11" lengthAdjust="spacing" textLength="152" x="128" y="214.1479">title   :   Multilingual_String</text><text fill="#000000" font-family="sans-serif" font-size="11" lengthAdjust="spacing" textLength="93" x="128" y="226.9526">code    :   String</text><!--MD5=[ff9dfe2dddb5fe4a69020d7834f0d207]
link Document to Activity--><path codeLine="222" d="M897.99,377.22 C873.21,400.69 840.09,432.06 817.09,453.84 " fill="none" id="Document-Activity" style="stroke:#A80036;stroke-width:1.0;"/><polygon fill="#000000" points="866.3697,419.0046,874.9579,414.9187,870.916,410.651,866.3697,419.0046" style="stroke:#000000;stroke-width:1.0;"/><text fill="#000000" font-family="sans-serif" font-size="13" lengthAdjust="spacing" textLength="36" x="879" y="420.0669">prove</text><text fill="#000000" font-family="sans-serif" font-size="13" lengthAdjust="spacing" textLength="23" x="866.8835" y="396.5868">0..*</text><text fill="#000000" font-family="sans-serif" font-size="13" lengthAdjust="spacing" textLength="23" x="797.6952" y="443.0453">0..*</text><!--MD5=[cd935cc757d29bd6a59b1252b30899e0]
link Activity to Agent--><path codeLine="228" d="M735.32,507.11 C690.78,527.97 627.1,557.79 575.78,581.83 " fill="none" id="Activity-to-Agent" style="stroke:#A80036;stroke-width:1.0;"/><polygon fill="#A80036" points="571.16,583.99,581.0072,583.8071,575.6906,581.8748,577.6228,576.5582,571.16,583.99" style="stroke:#A80036;stroke-width:1.0;"/><polygon fill="#000000" points="666.472,547.6871,675.9097,546.5122,673.4167,541.1893,666.472,547.6871" style="stroke:#000000;stroke-width:1.0;"/><text fill="#000000" font-family="sans-serif" font-size="13" lengthAdjust="spacing" textLength="33" x="680" y="550.0669">actor</text><text fill="#000000" font-family="sans-serif" font-size="13" lengthAdjust="spacing" textLength="23" x="697.8431" y="526.6743">0..*</text><text fill="#000000" font-family="sans-serif" font-size="13" lengthAdjust="spacing" textLength="24" x="559.0469" y="573.0388">0..1</text><!--MD5=[55f20054f286b2e7074e8d22fab1f608]
reverse link Activity to Contribution--><path codeLine="191" d="M790,527.66 C790,555.04 790,587.97 790,606.8 " fill="none" id="Activity-backto-Contribution" style="stroke:#A80036;stroke-width:1.0;"/><polygon fill="none" points="783,527.27,790,507.27,797,527.27,783,527.27" style="stroke:#A80036;stroke-width:1.0;"/><!--MD5=[b01ee177fc17bf8bb95324fc01c31b3b]
link Contribution_Statement to Resource--><path codeLine="556" d="M778,804.68 C778,829.35 778,866.1 778,888.76 " fill="none" id="Contribution_Statement-to-Resource" style="stroke:#A80036;stroke-width:1.0;"/><polygon fill="#A80036" points="778,893.92,782,884.92,778,888.92,774,884.92,778,893.92" style="stroke:#A80036;stroke-width:1.0;"/><polygon fill="#000000" points="783,860.5664,785.9389,851.5213,780.0611,851.5213,783,860.5664" style="stroke:#000000;stroke-width:1.0;"/><text fill="#000000" font-family="sans-serif" font-size="13" lengthAdjust="spacing" textLength="54" x="792" y="860.0669">provides</text><text fill="#000000" font-family="sans-serif" font-size="13" lengthAdjust="spacing" textLength="24" x="749.875" y="882.9041">0..1</text><!--MD5=[8d7c614e8203540f95956299e63d224a]
reverse link Contribution to Contribution_to_Document--><path codeLine="209" d="M843.35,647.07 C885.7,665 946.63,689.94 1001,709 C1044.79,724.35 1056.73,725.11 1101,739 C1124.46,746.36 1150.47,754.85 1171.91,761.94 " fill="none" id="Contribution-backto-Contribution_to_Document" style="stroke:#A80036;stroke-width:1.0;"/><polygon fill="none" points="840.37,653.41,824.72,639.13,845.86,640.53,840.37,653.41" style="stroke:#A80036;stroke-width:1.0;"/><!--MD5=[117c8d017b65f89954aa553a8ad2cfe8]
link Contribution_to_Document to Document--><path codeLine="540" d="M1207.03,761.89 C1166.77,700.86 1015.48,471.53 956.12,381.55 " fill="none" id="Contribution_to_Document-to-Document" style="stroke:#A80036;stroke-width:1.0;"/><polygon fill="#A80036" points="953.19,377.12,954.7924,386.8376,955.937,381.2978,961.4769,382.4424,953.19,377.12" style="stroke:#A80036;stroke-width:1.0;"/><polygon fill="#000000" points="1069.2467,541.3928,1071.7743,550.5613,1076.6807,547.3246,1069.2467,541.3928" style="stroke:#000000;stroke-width:1.0;"/><text fill="#000000" font-family="sans-serif" font-size="13" lengthAdjust="spacing" textLength="65" x="1081" y="550.0669">document</text><!--MD5=[e36b49b71580bc35ebd964809c09ea7d]
reverse link Contribution to Contribution_to_Project--><path codeLine="200" d="M828.73,650.37 C846.64,662.76 868.09,677.88 887,692 C918.75,715.7 954.61,744.65 975.71,761.92 " fill="none" id="Contribution-backto-Contribution_to_Project" style="stroke:#A80036;stroke-width:1.0;"/><polygon fill="none" points="824.75,656.12,812.23,639.02,832.68,644.58,824.75,656.12" style="stroke:#A80036;stroke-width:1.0;"/><!--MD5=[57fd60736781c4a6a1ada02cfd005744]
link Contribution_to_Project to Project--><path codeLine="296" d="M994,794.17 C994,817.55 994,862.45 994,888.64 " fill="none" id="Contribution_to_Project-to-Project" style="stroke:#A80036;stroke-width:1.0;"/><polygon fill="#A80036" points="994,893.93,998,884.93,994,888.93,990,884.93,994,893.93" style="stroke:#A80036;stroke-width:1.0;"/><polygon fill="#000000" points="999,860.5664,1001.9389,851.5213,996.0611,851.5213,999,860.5664" style="stroke:#000000;stroke-width:1.0;"/><text fill="#000000" font-family="sans-serif" font-size="13" lengthAdjust="spacing" textLength="44" x="1008" y="860.0669">project</text><!--MD5=[ff4a6d145294525e05493403423321eb]
reverse link Contribution to Contribution_to_Event--><path codeLine="218" d="M750.99,650.64 C703.85,682.84 626.13,735.93 588.21,761.83 " fill="none" id="Contribution-backto-Contribution_to_Event" style="stroke:#A80036;stroke-width:1.0;"/><polygon fill="none" points="747.24,644.73,767.7,639.23,755.14,656.29,747.24,644.73" style="stroke:#A80036;stroke-width:1.0;"/><!--MD5=[467ded19ca6884babd44a8b5c496328d]
link Contribution_to_Event to Event--><path codeLine="552" d="M566,794.17 C566,817.55 566,862.45 566,888.64 " fill="none" id="Contribution_to_Event-to-Event" style="stroke:#A80036;stroke-width:1.0;"/><polygon fill="#A80036" points="566,893.93,570,884.93,566,888.93,562,884.93,566,893.93" style="stroke:#A80036;stroke-width:1.0;"/><polygon fill="#000000" points="571,860.5664,573.9389,851.5213,568.0611,851.5213,571,860.5664" style="stroke:#000000;stroke-width:1.0;"/><text fill="#000000" font-family="sans-serif" font-size="13" lengthAdjust="spacing" textLength="36" x="580" y="860.0669">event</text><!--MD5=[5310b7429ef001befd0a176a00932538]
reverse link Activity to Involvement--><path codeLine="154" d="M799.81,433.95 C811.33,368.22 822.64,245.52 769,162 C732.89,105.78 659.47,75.03 609.01,59.8 " fill="none" id="Activity-backto-Involvement" style="stroke:#A80036;stroke-width:1.0;"/><polygon fill="none" points="806.63,435.58,796,453.91,792.88,432.95,806.63,435.58" style="stroke:#A80036;stroke-width:1.0;"/><!--MD5=[3e6df519c6409dff9ecce5f5942987dd]
link Involvement to Group_or_Organisation_Unit--><path codeLine="232" d="M502.71,49.87 C457.18,55.43 393.97,71.16 361,115 C287.73,212.42 311.06,601.83 321.3,733.35 " fill="none" id="Involvement-to-Group_or_Organisation_Unit" style="stroke:#A80036;stroke-width:1.0;"/><polygon fill="#A80036" points="321.72,738.67,325.0139,729.3883,321.3343,733.6849,317.0377,730.0053,321.72,738.67" style="stroke:#A80036;stroke-width:1.0;"/><polygon fill="#000000" points="312.7173,420.3991,317.8783,412.4106,312.1971,410.9027,312.7173,420.3991" style="stroke:#000000;stroke-width:1.0;"/><text fill="#000000" font-family="sans-serif" font-size="13" lengthAdjust="spacing" textLength="67" x="323" y="420.0669">involved in</text><text fill="#000000" font-family="sans-serif" font-size="13" lengthAdjust="spacing" textLength="23" x="471.8137" y="46.5026">0..*</text><!--MD5=[ec091f800280b56df8e15aaaa2e5104f]
reverse link Affiliation_Statement to Involvement--><path codeLine="719" d="M326.21,46 C386.12,46 456.07,46 502.92,46 " fill="none" id="Affiliation_Statement-backto-Involvement" style="stroke:#A80036;stroke-width:1.0;"/><polygon fill="#A80036" points="321.18,46,330.18,50,326.18,46,330.18,42,321.18,46" style="stroke:#A80036;stroke-width:1.0;"/><polygon fill="#000000" points="340.5,34.5664,349.5451,37.5053,349.5451,31.6275,340.5,34.5664" style="stroke:#000000;stroke-width:1.0;"/><text fill="#000000" font-family="sans-serif" font-size="13" lengthAdjust="spacing" textLength="128" x="354.5" y="39.0669">is the foundation for</text><text fill="#000000" font-family="sans-serif" font-size="13" lengthAdjust="spacing" textLength="23" x="329.1033" y="58.5384">0..*</text><text fill="#000000" font-family="sans-serif" font-size="13" lengthAdjust="spacing" textLength="23" x="472.0493" y="58.9891">0..*</text><!--MD5=[eeb1986463f873db234da87eccdc590b]
link Involvement to Involvement--><path codeLine="723" d="M609.27,38.88 C628.4,38.73 644,41.1 644,46 C644,50.44 631.19,52.8 614.55,53.09 " fill="none" id="Involvement-to-Involvement" style="stroke:#A80036;stroke-width:1.0;"/><polygon fill="#A80036" points="609.27,53.12,618.2927,57.0685,614.2699,53.0914,618.247,49.0686,609.27,53.12" style="stroke:#A80036;stroke-width:1.0;"/><polygon fill="#000000" points="648.9608,51.0663,651.9706,42.0445,646.0929,41.9984,648.9608,51.0663" style="stroke:#000000;stroke-width:1.0;"/><text fill="#000000" font-family="sans-serif" font-size="13" lengthAdjust="spacing" textLength="26" x="663" y="50.5669">part</text><text fill="#000000" font-family="sans-serif" font-size="13" lengthAdjust="spacing" textLength="23" x="617.1638" y="51.0013">0..*</text><text fill="#000000" font-family="sans-serif" font-size="13" lengthAdjust="spacing" textLength="24" x="616.8168" y="66.885">0..1</text><!--MD5=[eeb1986463f873db234da87eccdc590b]
link Involvement to Involvement--><path codeLine="727" d="M609.29,33.43 C650.76,29.05 695,33.23 695,46 C695,58.22 654.48,62.58 614.65,59.08 " fill="none" id="Involvement-to-Involvement-1" style="stroke:#A80036;stroke-width:1.0;"/><polygon fill="#A80036" points="609.29,58.57,617.8584,63.4262,614.2663,59.0562,618.6363,55.4641,609.29,58.57" style="stroke:#A80036;stroke-width:1.0;"/><polygon fill="#000000" points="699.4748,51.0387,703.3475,42.3524,697.5022,41.735,699.4748,51.0387" style="stroke:#000000;stroke-width:1.0;"/><text fill="#000000" font-family="sans-serif" font-size="13" lengthAdjust="spacing" textLength="89" x="714" y="50.5669">part transitive</text><text fill="#000000" font-family="sans-serif" font-size="13" lengthAdjust="spacing" textLength="23" x="617.1863" y="28.059">0..*</text><text fill="#000000" font-family="sans-serif" font-size="13" lengthAdjust="spacing" textLength="23" x="609.7969" y="81.9636">0..*</text><!--MD5=[774ab914c44fde287bade86ae1a1d531]
reverse link Involvement to Membership--><path codeLine="182" d="M547.05,81.67 C543.06,97.08 538.31,115.45 534,132 C529.57,149.05 524.45,168.6 521,181.77 " fill="none" id="Involvement-backto-Membership" style="stroke:#A80036;stroke-width:1.0;"/><polygon fill="none" points="540.34,79.66,552.12,62.05,553.89,83.17,540.34,79.66" style="stroke:#A80036;stroke-width:1.0;"/><!--MD5=[e6302ca8d503674dcb8235c7c53cdc01]
reverse link Involvement to Education--><path codeLine="173" d="M581.35,77.91 C603.96,105.49 636.68,145.39 657.89,171.26 " fill="none" id="Involvement-backto-Education" style="stroke:#A80036;stroke-width:1.0;"/><polygon fill="none" points="575.74,82.11,568.47,62.21,586.57,73.24,575.74,82.11" style="stroke:#A80036;stroke-width:1.0;"/><!--MD5=[5dcf1ca4d8097aa908f88de41c3d702a]
reverse link Involvement to Employment--><path codeLine="163" d="M629.22,55.18 C686.73,63.89 767.45,81.27 831,115 C863.31,132.15 893.28,163.27 909.47,181.85 " fill="none" id="Involvement-backto-Employment" style="stroke:#A80036;stroke-width:1.0;"/><polygon fill="none" points="627.98,62.07,609.15,52.35,629.94,48.21,627.98,62.07" style="stroke:#A80036;stroke-width:1.0;"/><!--MD5=[61f16e3d960520d2b039fd3aa546c893]
link Affiliation_Statement to Contact_Information--><path codeLine="416" d="M142.69,85.09 C106.5,111.28 69,149.8 69,197 C69,197 69,197 69,624 C69,671.8 77.3,727.5 82.3,756.72 " fill="none" id="Affiliation_Statement-to-Contact_Information" style="stroke:#A80036;stroke-width:1.0;"/><polygon fill="#A80036" points="83.19,761.86,85.5888,752.3077,82.3333,756.9339,77.7071,753.6785,83.19,761.86" style="stroke:#A80036;stroke-width:1.0;"/><polygon fill="#000000" points="73.5522,420.5463,77.2894,411.8008,71.4351,411.2744,73.5522,420.5463" style="stroke:#000000;stroke-width:1.0;"/><text fill="#000000" font-family="sans-serif" font-size="13" lengthAdjust="spacing" textLength="55" x="83" y="420.0669">contacts</text><text fill="#000000" font-family="sans-serif" font-size="13" lengthAdjust="spacing" textLength="23" x="55.2709" y="750.8235">0..*</text><!--MD5=[335bc652314d68e20c6b9db39c8a9e92]
reverse link Activity to Affiliation_Statement--><path codeLine="532" d="M741.89,446.26 C674.89,399.72 550,312.07 446,234 C379.14,183.81 303.6,123.57 256.14,85.29 " fill="none" id="Activity-backto-Affiliation_Statement" style="stroke:#A80036;stroke-width:1.0;"/><polygon fill="#FFFFFF" points="752.92,453.91,750.2749,447.2015,743.0651,447.063,745.7102,453.7715,752.92,453.91" style="stroke:#A80036;stroke-width:1.0;"/><polygon fill="#000000" points="506.9868,269.5841,512.4938,277.338,515.9997,272.6202,506.9868,269.5841" style="stroke:#000000;stroke-width:1.0;"/><text fill="#000000" font-family="sans-serif" font-size="13" lengthAdjust="spacing" textLength="61" x="520" y="277.0669">affilations</text><text fill="#000000" font-family="sans-serif" font-size="13" lengthAdjust="spacing" textLength="23" x="718.6859" y="443.1315">0..*</text><text fill="#000000" font-family="sans-serif" font-size="13" lengthAdjust="spacing" textLength="23" x="239.2656" y="105.3748">0..*</text><!--MD5=[985660d160cc1234ef784a412fcab047]
reverse link Contribution to Contribution_Statement--><path codeLine="536" d="M787.79,652.19 C785.56,680.6 782.15,724.05 780,751.47 " fill="none" id="Contribution-backto-Contribution_Statement" style="stroke:#A80036;stroke-width:1.0;"/><polygon fill="#A80036" points="788.81,639.23,784.3482,644.895,787.8614,651.1925,792.3232,645.5274,788.81,639.23" style="stroke:#A80036;stroke-width:1.0;"/><polygon fill="#000000" points="788.6089,705.5511,792.2463,696.7636,786.3865,696.3038,788.6089,705.5511" style="stroke:#000000;stroke-width:1.0;"/><text fill="#000000" font-family="sans-serif" font-size="13" lengthAdjust="spacing" textLength="80" x="798" y="705.0669">is detailed in</text><text fill="#000000" font-family="sans-serif" font-size="13" lengthAdjust="spacing" textLength="23" x="754.6844" y="740.2821">0..*</text><!--MD5=[d43df4fbdad36fd00892352d175d5460]
link Agent to Contact_Information--><path codeLine="18" d="M389.62,662.02 C306.48,693.5 192.31,736.74 130.35,760.2 " fill="none" id="Agent-to-Contact_Information" style="stroke:#A80036;stroke-width:1.0;"/><polygon fill="#A80036" points="125.62,762,135.4535,762.549,130.2952,760.2272,132.617,755.0688,125.62,762" style="stroke:#A80036;stroke-width:1.0;"/><polygon fill="#000000" points="300.324,702.3371,309.8237,701.8824,307.7422,696.3854,300.324,702.3371" style="stroke:#000000;stroke-width:1.0;"/><text fill="#000000" font-family="sans-serif" font-size="13" lengthAdjust="spacing" textLength="55" x="314" y="705.0669">contacts</text><text fill="#000000" font-family="sans-serif" font-size="13" lengthAdjust="spacing" textLength="8" x="363.0273" y="682.3482">1</text><text fill="#000000" font-family="sans-serif" font-size="13" lengthAdjust="spacing" textLength="23" x="112.2863" y="751.0116">0..*</text><!--MD5=[8baa0633a34be8ca6adcc4fd46743d97]
reverse link Agent to Group_or_Organisation_Unit--><path codeLine="102" d="M477.27,681.43 C473.23,691.38 467.94,701.06 461,709 C450.84,720.63 438.22,730.5 424.8,738.8 " fill="none" id="Agent-backto-Group_or_Organisation_Unit" style="stroke:#A80036;stroke-width:1.0;"/><polygon fill="none" points="470.65,679.16,483.59,662.37,483.94,683.56,470.65,679.16" style="stroke:#A80036;stroke-width:1.0;"/><!--MD5=[eebede85e8e6ba3335a352732690084a]
link Group_or_Organisation_Unit to Group_or_Organisation_Unit--><path codeLine="124" d="M433.32,764.83 C450.92,766.72 463,771.11 463,778 C463,784.89 450.92,789.28 433.32,791.17 " fill="none" id="Group_or_Organisation_Unit-Group_or_Organisation_Unit" style="stroke:#A80036;stroke-width:1.0;stroke-dasharray:7.0,7.0;"/><polygon fill="#A80036" points="428.21,791.64,437.5376,794.8015,433.1891,791.1835,436.8072,786.8349,428.21,791.64" style="stroke:#A80036;stroke-width:1.0;"/><polygon fill="#A80036" points="428.21,764.36,436.8072,769.1651,433.1891,764.8165,437.5376,761.1985,428.21,764.36" style="stroke:#A80036;stroke-width:1.0;"/><text fill="#000000" font-family="sans-serif" font-size="13" lengthAdjust="spacing" textLength="69" x="436.3372" y="749.1978">0..* part of</text><text fill="#000000" font-family="sans-serif" font-size="13" lengthAdjust="spacing" textLength="60" x="436.3578" y="811.1027">0..* parts</text><!--MD5=[3de6c2a89a8a49a9b82ca15cd383fd75]
link Affiliation_Statement to Position--><path codeLine="707" d="M207.73,85.24 C207,107.1 206.08,134.49 205.34,156.68 " fill="none" id="Affiliation_Statement-to-Position" style="stroke:#A80036;stroke-width:1.0;"/><polygon fill="#A80036" points="205.17,161.91,209.476,153.0523,205.3413,156.9129,201.4807,152.7782,205.17,161.91" style="stroke:#A80036;stroke-width:1.0;"/><polygon fill="#000000" points="211.8328,128.5636,215.0725,119.6218,209.198,119.4253,211.8328,128.5636" style="stroke:#000000;stroke-width:1.0;"/><text fill="#000000" font-family="sans-serif" font-size="13" lengthAdjust="spacing" textLength="50" x="221" y="128.0669">position</text><text fill="#000000" font-family="sans-serif" font-size="13" lengthAdjust="spacing" textLength="23" x="182.4553" y="105.6074">0..*</text><text fill="#000000" font-family="sans-serif" font-size="13" lengthAdjust="spacing" textLength="24" x="179.1732" y="150.994">0..1</text><!--MD5=[d6510b82a04cb388394283fdb06ac616]
link Employment to Document--><path codeLine="711" d="M923.05,214.14 C924.55,235.71 927.35,275.97 929.41,305.78 " fill="none" id="Employment-to-Document" style="stroke:#A80036;stroke-width:1.0;"/><polygon fill="#A80036" points="929.77,310.84,933.1449,301.5874,929.4279,305.8517,925.1637,302.1347,929.77,310.84" style="stroke:#A80036;stroke-width:1.0;"/><polygon fill="#000000" points="932.3462,277.5544,934.6518,268.3276,928.7881,268.7345,932.3462,277.5544" style="stroke:#000000;stroke-width:1.0;"/><text fill="#000000" font-family="sans-serif" font-size="13" lengthAdjust="spacing" textLength="53" x="941" y="277.0669">contract</text><text fill="#000000" font-family="sans-serif" font-size="13" lengthAdjust="spacing" textLength="24" x="895.4228" y="234.0596">0..1</text><text fill="#000000" font-family="sans-serif" font-size="13" lengthAdjust="spacing" textLength="23" x="904.0669" y="299.9535">0..*</text><!--MD5=[714662591c02188f1682f6888921effc]
link Involvement to Position--><path codeLine="715" d="M520.64,62.07 C467.41,84.75 365.08,128.36 291.13,159.87 " fill="none" id="Involvement-to-Position" style="stroke:#A80036;stroke-width:1.0;"/><polygon fill="#A80036" points="286.3,161.93,296.148,162.0613,290.8957,159.9604,292.9966,154.7081,286.3,161.93" style="stroke:#A80036;stroke-width:1.0;"/><polygon fill="#000000" points="390.4002,125.5265,399.8734,124.6844,397.5692,119.277,390.4002,125.5265" style="stroke:#000000;stroke-width:1.0;"/><text fill="#000000" font-family="sans-serif" font-size="13" lengthAdjust="spacing" textLength="50" x="404" y="128.0669">position</text><text fill="#000000" font-family="sans-serif" font-size="13" lengthAdjust="spacing" textLength="23" x="482.1176" y="81.9665">0..*</text><text fill="#000000" font-family="sans-serif" font-size="13" lengthAdjust="spacing" textLength="24" x="275.2616" y="151.0177">0..1</text><!--MD5=[67cffc7efa7f9406660398d314590e0a]
@startuml

    !includesub core.puml!common
    !includesub core.puml!Activity
    !includesub core.puml!Contribution
    !includesub core.puml!Contribution_to_Document
    !includesub core.puml!Contribution_to_Project
    !includesub core.puml!Contribution_to_Event
    !includesub core.puml!Involvement
    !includesub core.puml!Membership
    !includesub core.puml!Education
    !includesub core.puml!Employment
    !includesub core.puml!Affiliation_Statement
    !includesub core.puml!Contribution_Statement
    !includesub core.puml!Resource
    !includesub core.puml!Document
    !includesub core.puml!Project
    !includesub core.puml!Event
    !includesub core.puml!Agent
    !includesub core.puml!Group_or_Organisation_Unit
    !includesub core.puml!Position

@enduml

@startuml

    hide empty members
    skinparam BoxPadding 120
    class "Activity" #ffffff {
  		dateRange : Date_Range
    }
	"Document" "0..*" - - "0..*" "Activity" : prove >
    "Activity" "0..*" - -> "0..1" "Agent" : actor >
    class "Contribution" #ffffff {
    }
    "Activity" <|-d- "Contribution"
     "Contribution_Statement" - -> "0..1" "Resource" : provides >
    class "Contribution_to_Document" #ffffff {
    }
    "Contribution" <|-d- "Contribution_to_Document"
    "Contribution_to_Document" - -> "Document" : document >
    class "Contribution_to_Project" #ffffff {
    }
    "Contribution" <|-d- "Contribution_to_Project"
    "Contribution_to_Project" - -> "Project" : project >
    class "Contribution_to_Event" #ffffff {
    }
    "Contribution" <|-d- "Contribution_to_Event"
    "Contribution_to_Event" - -> "Event" : event >
    class "Involvement" #ffffff {
    }
   "Activity" <|-d- "Involvement"
	"Involvement" "0..*" - -> "Group_or_Organisation_Unit" : involved in >
	"Involvement" "0..*" -l-> "0..*" "Affiliation_Statement" : is the foundation for >
	"Involvement" "0..*" - -> "0..1" "Involvement" : part >
	"Involvement" "0..*" - -> "0..*" "Involvement" : part transitive >
    class "Membership" #ffffff {
    }
    "Involvement" <|-d- "Membership"
    class "Education" #ffffff {
        completed   :   Boolean
    }
    "Involvement" <|-d- "Education"
    class "Employment" #ffffff {
    }
    "Involvement" <|-d- "Employment"
    class "Affiliation_Statement" #ffffff {
        displayAffiliation_Statement : String
        displayPersonName : String
        contacts : List<Contact_Information>
    }
    "Affiliation_Statement" - -> "0..*" "Contact_Information" : contacts >
    "Activity" "0..*" o- - "0..*" "Affiliation_Statement" : affilations >
    class "Contribution_Statement" #ffffff {
        statement : Multilingual_String
    }
    "Contribution" *- - "0..*" "Contribution_Statement" : is detailed in >
    class "Resource" #ffffff {
    }
    class "Document" #ffffff {
        title : Multilingual_String
        publicationDate : Date
    }
    class "Project" #ffffff {
    }
    class "Event" #ffffff {
    }
    class "Agent" #ffffff {
        keywords : List<Multilingual_String>
    	lifetime : Date_Range
    	contacts : List<Contact_Information>
    }
    "Agent" "1" - -> "0..*" "Contact_Information" : contacts >
    class "Group_or_Organisation_Unit" #ffffff {
        name : Multilingual_String
        acronym : String
        description : Multilingual_String
    }
	"Agent" <|- - "Group_or_Organisation_Unit"
	"Group_or_Organisation_Unit" "0..* part of" <..> "0..* parts" "Group_or_Organisation_Unit"
    class Position << (D,#add0b2) DataType>> #ffffff {
        title   :   Multilingual_String
        code    :   String
	}
	"Affiliation_Statement" "0..*" - -> "0..1" "Position" : position >
	"Employment" "0..1" - -> "0..*" "Document" : contract >
	"Involvement" "0..*" - -> "0..1" "Position" : position >

@enduml

PlantUML version 1.2021.8(Sat Jun 26 08:20:59 UTC 2021)
(GPL source distribution)
Java Runtime: OpenJDK Runtime Environment
JVM: OpenJDK 64-Bit Server VM
Default Encoding: UTF-8
Language: en
Country: null
--></g></svg>