<?xml version="1.0" encoding="UTF-8" standalone="no"?><svg xmlns="http://www.w3.org/2000/svg" xmlns:xlink="http://www.w3.org/1999/xlink" contentScriptType="application/ecmascript" contentStyleType="text/css" height="671px" preserveAspectRatio="none" style="width:1573px;height:671px;background:#FFFFFF;" version="1.1" viewBox="0 0 1573 671" width="1573px" zoomAndPan="magnify"><defs><filter height="300%" id="fdnax3l1bus9j" width="300%" x="-1" y="-1"><feGaussianBlur result="blurOut" stdDeviation="2.0"/><feColorMatrix in="blurOut" result="blurOut2" type="matrix" values="0 0 0 0 0 0 0 0 0 0 0 0 0 0 0 0 0 0 .4 0"/><feOffset dx="4.0" dy="4.0" in="blurOut2" result="blurOut3"/><feBlend in="SourceGraphic" in2="blurOut3" mode="normal"/></filter></defs><g><!--MD5=[c881b25adf3665c6568c9693d41a70f3]
class Activity--><rect codeLine="52" fill="#FFFFFF" filter="url(#fdnax3l1bus9j)" height="32" id="Activity" style="stroke:#A80036;stroke-width:1.5;" width="75" x="796.5" y="7"/><ellipse cx="811.5" cy="23" fill="#ADD1B2" rx="11" ry="11" style="stroke:#A80036;stroke-width:1.0;"/><path d="M814.4688,28.6406 Q813.8906,28.9375 813.25,29.0781 Q812.6094,29.2344 811.9063,29.2344 Q809.4063,29.2344 808.0781,27.5938 Q806.7656,25.9375 806.7656,22.8125 Q806.7656,19.6875 808.0781,18.0313 Q809.4063,16.375 811.9063,16.375 Q812.6094,16.375 813.25,16.5313 Q813.9063,16.6875 814.4688,16.9844 L814.4688,19.7031 Q813.8438,19.125 813.25,18.8594 Q812.6563,18.5781 812.0313,18.5781 Q810.6875,18.5781 810,19.6563 Q809.3125,20.7188 809.3125,22.8125 Q809.3125,24.9063 810,25.9844 Q810.6875,27.0469 812.0313,27.0469 Q812.6563,27.0469 813.25,26.7813 Q813.8438,26.5 814.4688,25.9219 L814.4688,28.6406 Z " fill="#000000"/><text fill="#000000" font-family="sans-serif" font-size="12" lengthAdjust="spacing" textLength="43" x="825.5" y="27.1543">Activity</text><!--MD5=[9d44916250b776386006c440668bcfbb]
class Agent--><rect codeLine="23" fill="#FFFFFF" filter="url(#fdnax3l1bus9j)" height="32" id="Agent" style="stroke:#A80036;stroke-width:1.5;" width="69" x="579.5" y="625"/><ellipse cx="594.5" cy="641" fill="#ADD1B2" rx="11" ry="11" style="stroke:#A80036;stroke-width:1.0;"/><path d="M597.4688,646.6406 Q596.8906,646.9375 596.25,647.0781 Q595.6094,647.2344 594.9063,647.2344 Q592.4063,647.2344 591.0781,645.5938 Q589.7656,643.9375 589.7656,640.8125 Q589.7656,637.6875 591.0781,636.0313 Q592.4063,634.375 594.9063,634.375 Q595.6094,634.375 596.25,634.5313 Q596.9063,634.6875 597.4688,634.9844 L597.4688,637.7031 Q596.8438,637.125 596.25,636.8594 Q595.6563,636.5781 595.0313,636.5781 Q593.6875,636.5781 593,637.6563 Q592.3125,638.7188 592.3125,640.8125 Q592.3125,642.9063 593,643.9844 Q593.6875,645.0469 595.0313,645.0469 Q595.6563,645.0469 596.25,644.7813 Q596.8438,644.5 597.4688,643.9219 L597.4688,646.6406 Z " fill="#000000"/><text fill="#000000" font-family="sans-serif" font-size="12" lengthAdjust="spacing" textLength="37" x="608.5" y="645.1543">Agent</text><!--MD5=[0330879a1a385efee19ba3488ed490fa]
class Contribution--><rect codeLine="88" fill="#FFFFFF" filter="url(#fdnax3l1bus9j)" height="32" id="Contribution" style="stroke:#A80036;stroke-width:1.5;" width="109" x="405.5" y="145.5"/><ellipse cx="420.5" cy="161.5" fill="#ADD1B2" rx="11" ry="11" style="stroke:#A80036;stroke-width:1.0;"/><path d="M423.4688,167.1406 Q422.8906,167.4375 422.25,167.5781 Q421.6094,167.7344 420.9063,167.7344 Q418.4063,167.7344 417.0781,166.0938 Q415.7656,164.4375 415.7656,161.3125 Q415.7656,158.1875 417.0781,156.5313 Q418.4063,154.875 420.9063,154.875 Q421.6094,154.875 422.25,155.0313 Q422.9063,155.1875 423.4688,155.4844 L423.4688,158.2031 Q422.8438,157.625 422.25,157.3594 Q421.6563,157.0781 421.0313,157.0781 Q419.6875,157.0781 419,158.1563 Q418.3125,159.2188 418.3125,161.3125 Q418.3125,163.4063 419,164.4844 Q419.6875,165.5469 421.0313,165.5469 Q421.6563,165.5469 422.25,165.2813 Q422.8438,165 423.4688,164.4219 L423.4688,167.1406 Z " fill="#000000"/><text fill="#000000" font-family="sans-serif" font-size="12" lengthAdjust="spacing" textLength="77" x="434.5" y="165.6543">Contribution</text><!--MD5=[532fe005ca0bef0ad6b309c9c6480e22]
class Contribution_Statement--><rect codeLine="94" fill="#FFFFFF" filter="url(#fdnax3l1bus9j)" height="52.8047" id="Contribution_Statement" style="stroke:#A80036;stroke-width:1.5;" width="185" x="887.5" y="135"/><ellipse cx="904.3" cy="151" fill="#ADD1B2" rx="11" ry="11" style="stroke:#A80036;stroke-width:1.0;"/><path d="M907.2688,156.6406 Q906.6906,156.9375 906.05,157.0781 Q905.4094,157.2344 904.7063,157.2344 Q902.2063,157.2344 900.8781,155.5938 Q899.5656,153.9375 899.5656,150.8125 Q899.5656,147.6875 900.8781,146.0313 Q902.2063,144.375 904.7063,144.375 Q905.4094,144.375 906.05,144.5313 Q906.7063,144.6875 907.2688,144.9844 L907.2688,147.7031 Q906.6438,147.125 906.05,146.8594 Q905.4563,146.5781 904.8313,146.5781 Q903.4875,146.5781 902.8,147.6563 Q902.1125,148.7188 902.1125,150.8125 Q902.1125,152.9063 902.8,153.9844 Q903.4875,155.0469 904.8313,155.0469 Q905.4563,155.0469 906.05,154.7813 Q906.6438,154.5 907.2688,153.9219 L907.2688,156.6406 Z " fill="#000000"/><text fill="#000000" font-family="sans-serif" font-size="12" lengthAdjust="spacing" textLength="149" x="918.7" y="155.1543">Contribution_Statement</text><line style="stroke:#A80036;stroke-width:1.5;" x1="888.5" x2="1071.5" y1="167" y2="167"/><text fill="#000000" font-family="sans-serif" font-size="11" lengthAdjust="spacing" textLength="173" x="893.5" y="181.2104">statement : Multilingual_String</text><!--MD5=[6b13f1b330d33795af281e5c1dfe1e98]
class Resource--><rect codeLine="98" fill="#FFFFFF" filter="url(#fdnax3l1bus9j)" height="32" id="Resource" style="stroke:#A80036;stroke-width:1.5;" width="91" x="909.5" y="284"/><ellipse cx="924.5" cy="300" fill="#ADD1B2" rx="11" ry="11" style="stroke:#A80036;stroke-width:1.0;"/><path d="M927.4688,305.6406 Q926.8906,305.9375 926.25,306.0781 Q925.6094,306.2344 924.9063,306.2344 Q922.4063,306.2344 921.0781,304.5938 Q919.7656,302.9375 919.7656,299.8125 Q919.7656,296.6875 921.0781,295.0313 Q922.4063,293.375 924.9063,293.375 Q925.6094,293.375 926.25,293.5313 Q926.9063,293.6875 927.4688,293.9844 L927.4688,296.7031 Q926.8438,296.125 926.25,295.8594 Q925.6563,295.5781 925.0313,295.5781 Q923.6875,295.5781 923,296.6563 Q922.3125,297.7188 922.3125,299.8125 Q922.3125,301.9063 923,302.9844 Q923.6875,304.0469 925.0313,304.0469 Q925.6563,304.0469 926.25,303.7813 Q926.8438,303.5 927.4688,302.9219 L927.4688,305.6406 Z " fill="#000000"/><text fill="#000000" font-family="sans-serif" font-size="12" lengthAdjust="spacing" textLength="59" x="938.5" y="304.1543">Resource</text><!--MD5=[92dc6ef2f70a23983af4e570fc6275cd]
class Funding--><rect codeLine="101" fill="#FFFFFF" filter="url(#fdnax3l1bus9j)" height="32" id="Funding" style="stroke:#A80036;stroke-width:1.5;" width="82" x="845" y="416"/><ellipse cx="860" cy="432" fill="#ADD1B2" rx="11" ry="11" style="stroke:#A80036;stroke-width:1.0;"/><path d="M862.9688,437.6406 Q862.3906,437.9375 861.75,438.0781 Q861.1094,438.2344 860.4063,438.2344 Q857.9063,438.2344 856.5781,436.5938 Q855.2656,434.9375 855.2656,431.8125 Q855.2656,428.6875 856.5781,427.0313 Q857.9063,425.375 860.4063,425.375 Q861.1094,425.375 861.75,425.5313 Q862.4063,425.6875 862.9688,425.9844 L862.9688,428.7031 Q862.3438,428.125 861.75,427.8594 Q861.1563,427.5781 860.5313,427.5781 Q859.1875,427.5781 858.5,428.6563 Q857.8125,429.7188 857.8125,431.8125 Q857.8125,433.9063 858.5,434.9844 Q859.1875,436.0469 860.5313,436.0469 Q861.1563,436.0469 861.75,435.7813 Q862.3438,435.5 862.9688,434.9219 L862.9688,437.6406 Z " fill="#000000"/><text fill="#000000" font-family="sans-serif" font-size="12" lengthAdjust="spacing" textLength="50" x="874" y="436.1543">Funding</text><!--MD5=[05151c161079be2c12996cf31a3c6866]
class Contribution_to_Document--><rect codeLine="107" fill="#FFFFFF" filter="url(#fdnax3l1bus9j)" height="32" id="Contribution_to_Document" style="stroke:#A80036;stroke-width:1.5;" width="198" x="424" y="284"/><ellipse cx="439" cy="300" fill="#ADD1B2" rx="11" ry="11" style="stroke:#A80036;stroke-width:1.0;"/><path d="M441.9688,305.6406 Q441.3906,305.9375 440.75,306.0781 Q440.1094,306.2344 439.4063,306.2344 Q436.9063,306.2344 435.5781,304.5938 Q434.2656,302.9375 434.2656,299.8125 Q434.2656,296.6875 435.5781,295.0313 Q436.9063,293.375 439.4063,293.375 Q440.1094,293.375 440.75,293.5313 Q441.4063,293.6875 441.9688,293.9844 L441.9688,296.7031 Q441.3438,296.125 440.75,295.8594 Q440.1563,295.5781 439.5313,295.5781 Q438.1875,295.5781 437.5,296.6563 Q436.8125,297.7188 436.8125,299.8125 Q436.8125,301.9063 437.5,302.9844 Q438.1875,304.0469 439.5313,304.0469 Q440.1563,304.0469 440.75,303.7813 Q441.3438,303.5 441.9688,302.9219 L441.9688,305.6406 Z " fill="#000000"/><text fill="#000000" font-family="sans-serif" font-size="12" lengthAdjust="spacing" textLength="166" x="453" y="304.1543">Contribution_to_Document</text><!--MD5=[59b530d44ae785dc18db921986a9c15c]
class Document--><rect codeLine="8" fill="#FFFFFF" filter="url(#fdnax3l1bus9j)" height="78.4141" id="Document" style="stroke:#A80036;stroke-width:1.5;" width="148" x="562" y="393"/><ellipse cx="600.4" cy="409" fill="#ADD1B2" rx="11" ry="11" style="stroke:#A80036;stroke-width:1.0;"/><path d="M603.3688,414.6406 Q602.7906,414.9375 602.15,415.0781 Q601.5094,415.2344 600.8063,415.2344 Q598.3063,415.2344 596.9781,413.5938 Q595.6656,411.9375 595.6656,408.8125 Q595.6656,405.6875 596.9781,404.0313 Q598.3063,402.375 600.8063,402.375 Q601.5094,402.375 602.15,402.5313 Q602.8063,402.6875 603.3688,402.9844 L603.3688,405.7031 Q602.7438,405.125 602.15,404.8594 Q601.5563,404.5781 600.9313,404.5781 Q599.5875,404.5781 598.9,405.6563 Q598.2125,406.7188 598.2125,408.8125 Q598.2125,410.9063 598.9,411.9844 Q599.5875,413.0469 600.9313,413.0469 Q601.5563,413.0469 602.15,412.7813 Q602.7438,412.5 603.3688,411.9219 L603.3688,414.6406 Z " fill="#000000"/><text fill="#000000" font-family="sans-serif" font-size="12" lengthAdjust="spacing" textLength="64" x="619.6" y="413.1543">Document</text><line style="stroke:#A80036;stroke-width:1.5;" x1="563" x2="709" y1="425" y2="425"/><text fill="#000000" font-family="sans-serif" font-size="11" lengthAdjust="spacing" textLength="85" x="568" y="439.2104">DOI : DOI_Type</text><text fill="#000000" font-family="sans-serif" font-size="11" lengthAdjust="spacing" textLength="136" x="568" y="452.0151">title : Multilingual_String</text><text fill="#000000" font-family="sans-serif" font-size="11" lengthAdjust="spacing" textLength="125" x="568" y="464.8198">publicationDate : Date</text><!--MD5=[3b25461e5df73ababc6765bb9b0c47d3]
class Authorship--><rect codeLine="112" fill="#FFFFFF" filter="url(#fdnax3l1bus9j)" height="52.8047" id="Authorship" style="stroke:#A80036;stroke-width:1.5;" width="212" x="315" y="405.5"/><ellipse cx="382.75" cy="421.5" fill="#ADD1B2" rx="11" ry="11" style="stroke:#A80036;stroke-width:1.0;"/><path d="M385.7188,427.1406 Q385.1406,427.4375 384.5,427.5781 Q383.8594,427.7344 383.1563,427.7344 Q380.6563,427.7344 379.3281,426.0938 Q378.0156,424.4375 378.0156,421.3125 Q378.0156,418.1875 379.3281,416.5313 Q380.6563,414.875 383.1563,414.875 Q383.8594,414.875 384.5,415.0313 Q385.1563,415.1875 385.7188,415.4844 L385.7188,418.2031 Q385.0938,417.625 384.5,417.3594 Q383.9063,417.0781 383.2813,417.0781 Q381.9375,417.0781 381.25,418.1563 Q380.5625,419.2188 380.5625,421.3125 Q380.5625,423.4063 381.25,424.4844 Q381.9375,425.5469 383.2813,425.5469 Q383.9063,425.5469 384.5,425.2813 Q385.0938,425 385.7188,424.4219 L385.7188,427.1406 Z " fill="#000000"/><text fill="#000000" font-family="sans-serif" font-size="12" lengthAdjust="spacing" textLength="68" x="403.25" y="425.6543">Authorship</text><line style="stroke:#A80036;stroke-width:1.5;" x1="316" x2="526" y1="437.5" y2="437.5"/><text fill="#000000" font-family="sans-serif" font-size="11" lengthAdjust="spacing" textLength="200" x="321" y="451.7104">correspondingAuthorFlag : Boolean</text><!--MD5=[fe105c2ee1fabf2400c31a97ce9128bc]
class Textual_Document--><rect codeLine="13" fill="#FFFFFF" filter="url(#fdnax3l1bus9j)" height="32" id="Textual_Document" style="stroke:#A80036;stroke-width:1.5;" width="147" x="540.5" y="532"/><ellipse cx="555.5" cy="548" fill="#ADD1B2" rx="11" ry="11" style="stroke:#A80036;stroke-width:1.0;"/><path d="M558.4688,553.6406 Q557.8906,553.9375 557.25,554.0781 Q556.6094,554.2344 555.9063,554.2344 Q553.4063,554.2344 552.0781,552.5938 Q550.7656,550.9375 550.7656,547.8125 Q550.7656,544.6875 552.0781,543.0313 Q553.4063,541.375 555.9063,541.375 Q556.6094,541.375 557.25,541.5313 Q557.9063,541.6875 558.4688,541.9844 L558.4688,544.7031 Q557.8438,544.125 557.25,543.8594 Q556.6563,543.5781 556.0313,543.5781 Q554.6875,543.5781 554,544.6563 Q553.3125,545.7188 553.3125,547.8125 Q553.3125,549.9063 554,550.9844 Q554.6875,552.0469 556.0313,552.0469 Q556.6563,552.0469 557.25,551.7813 Q557.8438,551.5 558.4688,550.9219 L558.4688,553.6406 Z " fill="#000000"/><text fill="#000000" font-family="sans-serif" font-size="12" lengthAdjust="spacing" textLength="115" x="569.5" y="552.1543">Textual_Document</text><!--MD5=[d8ce9658d3ea3b764ca76e27f1ae6382]
class Contribution_to_Project--><rect codeLine="72" fill="#FFFFFF" filter="url(#fdnax3l1bus9j)" height="32" id="Contribution_to_Project" style="stroke:#A80036;stroke-width:1.5;" width="178" x="7" y="284"/><ellipse cx="22" cy="300" fill="#ADD1B2" rx="11" ry="11" style="stroke:#A80036;stroke-width:1.0;"/><path d="M24.9688,305.6406 Q24.3906,305.9375 23.75,306.0781 Q23.1094,306.2344 22.4063,306.2344 Q19.9063,306.2344 18.5781,304.5938 Q17.2656,302.9375 17.2656,299.8125 Q17.2656,296.6875 18.5781,295.0313 Q19.9063,293.375 22.4063,293.375 Q23.1094,293.375 23.75,293.5313 Q24.4063,293.6875 24.9688,293.9844 L24.9688,296.7031 Q24.3438,296.125 23.75,295.8594 Q23.1563,295.5781 22.5313,295.5781 Q21.1875,295.5781 20.5,296.6563 Q19.8125,297.7188 19.8125,299.8125 Q19.8125,301.9063 20.5,302.9844 Q21.1875,304.0469 22.5313,304.0469 Q23.1563,304.0469 23.75,303.7813 Q24.3438,303.5 24.9688,302.9219 L24.9688,305.6406 Z " fill="#000000"/><text fill="#000000" font-family="sans-serif" font-size="12" lengthAdjust="spacing" textLength="146" x="36" y="304.1543">Contribution_to_Project</text><!--MD5=[79d378210367c0c6ec62ef762ddfbd1b]
class Project--><rect codeLine="75" fill="#FFFFFF" filter="url(#fdnax3l1bus9j)" height="32" id="Project" style="stroke:#A80036;stroke-width:1.5;" width="76" x="58" y="416"/><ellipse cx="73" cy="432" fill="#ADD1B2" rx="11" ry="11" style="stroke:#A80036;stroke-width:1.0;"/><path d="M75.9688,437.6406 Q75.3906,437.9375 74.75,438.0781 Q74.1094,438.2344 73.4063,438.2344 Q70.9063,438.2344 69.5781,436.5938 Q68.2656,434.9375 68.2656,431.8125 Q68.2656,428.6875 69.5781,427.0313 Q70.9063,425.375 73.4063,425.375 Q74.1094,425.375 74.75,425.5313 Q75.4063,425.6875 75.9688,425.9844 L75.9688,428.7031 Q75.3438,428.125 74.75,427.8594 Q74.1563,427.5781 73.5313,427.5781 Q72.1875,427.5781 71.5,428.6563 Q70.8125,429.7188 70.8125,431.8125 Q70.8125,433.9063 71.5,434.9844 Q72.1875,436.0469 73.5313,436.0469 Q74.1563,436.0469 74.75,435.7813 Q75.3438,435.5 75.9688,434.9219 L75.9688,437.6406 Z " fill="#000000"/><text fill="#000000" font-family="sans-serif" font-size="12" lengthAdjust="spacing" textLength="44" x="87" y="436.1543">Project</text><!--MD5=[e02578a13076095640a9a08de0c36172]
class Contribution_to_Event--><rect codeLine="80" fill="#FFFFFF" filter="url(#fdnax3l1bus9j)" height="32" id="Contribution_to_Event" style="stroke:#A80036;stroke-width:1.5;" width="169" x="219.5" y="284"/><ellipse cx="234.5" cy="300" fill="#ADD1B2" rx="11" ry="11" style="stroke:#A80036;stroke-width:1.0;"/><path d="M237.4688,305.6406 Q236.8906,305.9375 236.25,306.0781 Q235.6094,306.2344 234.9063,306.2344 Q232.4063,306.2344 231.0781,304.5938 Q229.7656,302.9375 229.7656,299.8125 Q229.7656,296.6875 231.0781,295.0313 Q232.4063,293.375 234.9063,293.375 Q235.6094,293.375 236.25,293.5313 Q236.9063,293.6875 237.4688,293.9844 L237.4688,296.7031 Q236.8438,296.125 236.25,295.8594 Q235.6563,295.5781 235.0313,295.5781 Q233.6875,295.5781 233,296.6563 Q232.3125,297.7188 232.3125,299.8125 Q232.3125,301.9063 233,302.9844 Q233.6875,304.0469 235.0313,304.0469 Q235.6563,304.0469 236.25,303.7813 Q236.8438,303.5 237.4688,302.9219 L237.4688,305.6406 Z " fill="#000000"/><text fill="#000000" font-family="sans-serif" font-size="12" lengthAdjust="spacing" textLength="137" x="248.5" y="304.1543">Contribution_to_Event</text><!--MD5=[ac13618b1a974308c1f12eb6c57723dc]
class Event--><rect codeLine="83" fill="#FFFFFF" filter="url(#fdnax3l1bus9j)" height="32" id="Event" style="stroke:#A80036;stroke-width:1.5;" width="67" x="212.5" y="416"/><ellipse cx="227.5" cy="432" fill="#ADD1B2" rx="11" ry="11" style="stroke:#A80036;stroke-width:1.0;"/><path d="M230.4688,437.6406 Q229.8906,437.9375 229.25,438.0781 Q228.6094,438.2344 227.9063,438.2344 Q225.4063,438.2344 224.0781,436.5938 Q222.7656,434.9375 222.7656,431.8125 Q222.7656,428.6875 224.0781,427.0313 Q225.4063,425.375 227.9063,425.375 Q228.6094,425.375 229.25,425.5313 Q229.9063,425.6875 230.4688,425.9844 L230.4688,428.7031 Q229.8438,428.125 229.25,427.8594 Q228.6563,427.5781 228.0313,427.5781 Q226.6875,427.5781 226,428.6563 Q225.3125,429.7188 225.3125,431.8125 Q225.3125,433.9063 226,434.9844 Q226.6875,436.0469 228.0313,436.0469 Q228.6563,436.0469 229.25,435.7813 Q229.8438,435.5 230.4688,434.9219 L230.4688,437.6406 Z " fill="#000000"/><text fill="#000000" font-family="sans-serif" font-size="12" lengthAdjust="spacing" textLength="35" x="241.5" y="436.1543">Event</text><!--MD5=[77463bb17ddcfe3891c27a1f4a877731]
class Membership--><rect codeLine="57" fill="#FFFFFF" filter="url(#fdnax3l1bus9j)" height="32" id="Membership" style="stroke:#A80036;stroke-width:1.5;" width="108" x="1108" y="145.5"/><ellipse cx="1123" cy="161.5" fill="#ADD1B2" rx="11" ry="11" style="stroke:#A80036;stroke-width:1.0;"/><path d="M1125.9688,167.1406 Q1125.3906,167.4375 1124.75,167.5781 Q1124.1094,167.7344 1123.4063,167.7344 Q1120.9063,167.7344 1119.5781,166.0938 Q1118.2656,164.4375 1118.2656,161.3125 Q1118.2656,158.1875 1119.5781,156.5313 Q1120.9063,154.875 1123.4063,154.875 Q1124.1094,154.875 1124.75,155.0313 Q1125.4063,155.1875 1125.9688,155.4844 L1125.9688,158.2031 Q1125.3438,157.625 1124.75,157.3594 Q1124.1563,157.0781 1123.5313,157.0781 Q1122.1875,157.0781 1121.5,158.1563 Q1120.8125,159.2188 1120.8125,161.3125 Q1120.8125,163.4063 1121.5,164.4844 Q1122.1875,165.5469 1123.5313,165.5469 Q1124.1563,165.5469 1124.75,165.2813 Q1125.3438,165 1125.9688,164.4219 L1125.9688,167.1406 Z " fill="#000000"/><text fill="#000000" font-family="sans-serif" font-size="12" lengthAdjust="spacing" textLength="76" x="1137" y="165.6543">Membership</text><!--MD5=[41314a0efc36828092cff9ebad2fcafd]
class Group--><rect fill="#FEFECE" filter="url(#fdnax3l1bus9j)" height="32" id="Group" style="stroke:#A80036;stroke-width:1.5;" width="70" x="1119" y="284"/><ellipse cx="1134" cy="300" fill="#ADD1B2" rx="11" ry="11" style="stroke:#A80036;stroke-width:1.0;"/><path d="M1136.9688,305.6406 Q1136.3906,305.9375 1135.75,306.0781 Q1135.1094,306.2344 1134.4063,306.2344 Q1131.9063,306.2344 1130.5781,304.5938 Q1129.2656,302.9375 1129.2656,299.8125 Q1129.2656,296.6875 1130.5781,295.0313 Q1131.9063,293.375 1134.4063,293.375 Q1135.1094,293.375 1135.75,293.5313 Q1136.4063,293.6875 1136.9688,293.9844 L1136.9688,296.7031 Q1136.3438,296.125 1135.75,295.8594 Q1135.1563,295.5781 1134.5313,295.5781 Q1133.1875,295.5781 1132.5,296.6563 Q1131.8125,297.7188 1131.8125,299.8125 Q1131.8125,301.9063 1132.5,302.9844 Q1133.1875,304.0469 1134.5313,304.0469 Q1135.1563,304.0469 1135.75,303.7813 Q1136.3438,303.5 1136.9688,302.9219 L1136.9688,305.6406 Z " fill="#000000"/><text fill="#000000" font-family="sans-serif" font-size="12" lengthAdjust="spacing" textLength="38" x="1148" y="304.1543">Group</text><!--MD5=[ddbff00b4911ad4b77d6aa32dd14d1d7]
class Affiliation_Statement--><rect codeLine="131" fill="#FFFFFF" filter="url(#fdnax3l1bus9j)" height="91.2188" id="Affiliation_Statement" style="stroke:#A80036;stroke-width:1.5;" width="171" x="1267.5" y="116"/><ellipse cx="1287" cy="132" fill="#ADD1B2" rx="11" ry="11" style="stroke:#A80036;stroke-width:1.0;"/><path d="M1289.9688,137.6406 Q1289.3906,137.9375 1288.75,138.0781 Q1288.1094,138.2344 1287.4063,138.2344 Q1284.9063,138.2344 1283.5781,136.5938 Q1282.2656,134.9375 1282.2656,131.8125 Q1282.2656,128.6875 1283.5781,127.0313 Q1284.9063,125.375 1287.4063,125.375 Q1288.1094,125.375 1288.75,125.5313 Q1289.4063,125.6875 1289.9688,125.9844 L1289.9688,128.7031 Q1289.3438,128.125 1288.75,127.8594 Q1288.1563,127.5781 1287.5313,127.5781 Q1286.1875,127.5781 1285.5,128.6563 Q1284.8125,129.7188 1284.8125,131.8125 Q1284.8125,133.9063 1285.5,134.9844 Q1286.1875,136.0469 1287.5313,136.0469 Q1288.1563,136.0469 1288.75,135.7813 Q1289.3438,135.5 1289.9688,134.9219 L1289.9688,137.6406 Z " fill="#000000"/><text fill="#000000" font-family="sans-serif" font-size="12" lengthAdjust="spacing" textLength="129" x="1302" y="136.1543">Affiliation_Statement</text><line style="stroke:#A80036;stroke-width:1.5;" x1="1268.5" x2="1437.5" y1="148" y2="148"/><text fill="#000000" font-family="sans-serif" font-size="11" lengthAdjust="spacing" textLength="138" x="1273.5" y="162.2104">displayAffiliation : String</text><text fill="#000000" font-family="sans-serif" font-size="11" lengthAdjust="spacing" textLength="159" x="1273.5" y="175.0151">displayPersonName : String</text><text fill="#000000" font-family="sans-serif" font-size="11" lengthAdjust="spacing" textLength="147" x="1273.5" y="187.8198">address : Postal_Address</text><text fill="#000000" font-family="sans-serif" font-size="11" lengthAdjust="spacing" textLength="116" x="1273.5" y="200.6245">contacts : List&lt;URI&gt;</text><!--MD5=[779f3743e425ed8a6f0bf188ddea4860]
class Organisation_Unit--><rect fill="#FEFECE" filter="url(#fdnax3l1bus9j)" height="32" id="Organisation_Unit" style="stroke:#A80036;stroke-width:1.5;" width="143" x="1371.5" y="284"/><ellipse cx="1386.5" cy="300" fill="#ADD1B2" rx="11" ry="11" style="stroke:#A80036;stroke-width:1.0;"/><path d="M1389.4688,305.6406 Q1388.8906,305.9375 1388.25,306.0781 Q1387.6094,306.2344 1386.9063,306.2344 Q1384.4063,306.2344 1383.0781,304.5938 Q1381.7656,302.9375 1381.7656,299.8125 Q1381.7656,296.6875 1383.0781,295.0313 Q1384.4063,293.375 1386.9063,293.375 Q1387.6094,293.375 1388.25,293.5313 Q1388.9063,293.6875 1389.4688,293.9844 L1389.4688,296.7031 Q1388.8438,296.125 1388.25,295.8594 Q1387.6563,295.5781 1387.0313,295.5781 Q1385.6875,295.5781 1385,296.6563 Q1384.3125,297.7188 1384.3125,299.8125 Q1384.3125,301.9063 1385,302.9844 Q1385.6875,304.0469 1387.0313,304.0469 Q1387.6563,304.0469 1388.25,303.7813 Q1388.8438,303.5 1389.4688,302.9219 L1389.4688,305.6406 Z " fill="#000000"/><text fill="#000000" font-family="sans-serif" font-size="12" lengthAdjust="spacing" textLength="111" x="1400.5" y="304.1543">Organisation_Unit</text><!--MD5=[09ce52be0ee7de43c61b6e2d59bf108b]
class Person--><rect fill="#FEFECE" filter="url(#fdnax3l1bus9j)" height="32" id="Person" style="stroke:#A80036;stroke-width:1.5;" width="76" x="1224" y="284"/><ellipse cx="1239" cy="300" fill="#ADD1B2" rx="11" ry="11" style="stroke:#A80036;stroke-width:1.0;"/><path d="M1241.9688,305.6406 Q1241.3906,305.9375 1240.75,306.0781 Q1240.1094,306.2344 1239.4063,306.2344 Q1236.9063,306.2344 1235.5781,304.5938 Q1234.2656,302.9375 1234.2656,299.8125 Q1234.2656,296.6875 1235.5781,295.0313 Q1236.9063,293.375 1239.4063,293.375 Q1240.1094,293.375 1240.75,293.5313 Q1241.4063,293.6875 1241.9688,293.9844 L1241.9688,296.7031 Q1241.3438,296.125 1240.75,295.8594 Q1240.1563,295.5781 1239.5313,295.5781 Q1238.1875,295.5781 1237.5,296.6563 Q1236.8125,297.7188 1236.8125,299.8125 Q1236.8125,301.9063 1237.5,302.9844 Q1238.1875,304.0469 1239.5313,304.0469 Q1240.1563,304.0469 1240.75,303.7813 Q1241.3438,303.5 1241.9688,302.9219 L1241.9688,305.6406 Z " fill="#000000"/><text fill="#000000" font-family="sans-serif" font-size="12" lengthAdjust="spacing" textLength="44" x="1253" y="304.1543">Person</text><!--MD5=[cd935cc757d29bd6a59b1252b30899e0]
link Activity to Agent--><path codeLine="263" d="M819.97,39.04 C799.28,62.87 763,111.62 763,160.5 C763,160.5 763,160.5 763,549 C763,597.45 704.91,620.87 661.27,631.64 " fill="none" id="Activity-to-Agent" style="stroke:#A80036;stroke-width:1.0;"/><polygon fill="#FFFFFF" points="648.56,634.52,655.2957,637.0951,660.2633,631.868,653.5276,629.2929,648.56,634.52" style="stroke:#A80036;stroke-width:1.0;"/><text fill="#000000" font-family="sans-serif" font-size="13" lengthAdjust="spacing" textLength="23" x="788.5132" y="58.9265">0..*</text><text fill="#000000" font-family="sans-serif" font-size="13" lengthAdjust="spacing" textLength="53" x="656.3833" y="629.8042">0..1 who</text><!--MD5=[985660d160cc1234ef784a412fcab047]
reverse link Contribution to Contribution_Statement--><path codeLine="254" d="M527.67,161.5 C619.52,161.5 784,161.5 887.28,161.5 " fill="none" id="Contribution-backto-Contribution_Statement" style="stroke:#A80036;stroke-width:1.0;"/><polygon fill="#A80036" points="514.67,161.5,520.67,165.5,526.67,161.5,520.67,157.5,514.67,161.5" style="stroke:#A80036;stroke-width:1.0;"/><polygon fill="#000000" points="663.5,150.0664,654.4549,147.1275,654.4549,153.0053,663.5,150.0664" style="stroke:#000000;stroke-width:1.0;"/><text fill="#000000" font-family="sans-serif" font-size="13" lengthAdjust="spacing" textLength="80" x="667.5" y="154.5669">is detailed in</text><text fill="#000000" font-family="sans-serif" font-size="13" lengthAdjust="spacing" textLength="23" x="856.6263" y="158.0282">0..*</text><!--MD5=[ff11c2ae19cf8b0222e8ec830cb319de]
link Activity to Funding--><path codeLine="255" d="M835.06,39.11 C837.74,75.95 845.31,173.28 856,254 C863.98,314.25 877.21,385.41 883.06,415.9 " fill="none" id="Activity-Funding" style="stroke:#A80036;stroke-width:1.0;"/><polygon fill="#000000" points="861.6319,250.5263,863.4042,241.1824,857.5735,241.9251,861.6319,250.5263" style="stroke:#000000;stroke-width:1.0;"/><text fill="#000000" font-family="sans-serif" font-size="13" lengthAdjust="spacing" textLength="84" x="870" y="250.0669">is covered by</text><text fill="#000000" font-family="sans-serif" font-size="13" lengthAdjust="spacing" textLength="23" x="839.2205" y="59.0197">0..*</text><text fill="#000000" font-family="sans-serif" font-size="13" lengthAdjust="spacing" textLength="23" x="855.0962" y="404.8772">0..*</text><!--MD5=[55f20054f286b2e7074e8d22fab1f608]
reverse link Activity to Contribution--><path codeLine="295" d="M777.53,44.61 C701.61,72.32 568.41,120.93 501.23,145.45 " fill="none" id="Activity-backto-Contribution" style="stroke:#A80036;stroke-width:1.0;"/><polygon fill="none" points="775.24,37.99,796.43,37.71,780.04,51.15,775.24,37.99" style="stroke:#A80036;stroke-width:1.0;"/><!--MD5=[b01ee177fc17bf8bb95324fc01c31b3b]
link Contribution_Statement to Resource--><path codeLine="315" d="M975.3,188.17 C970.48,214.45 963.1,254.75 958.69,278.83 " fill="none" id="Contribution_Statement-to-Resource" style="stroke:#A80036;stroke-width:1.0;"/><polygon fill="#A80036" points="957.75,284,963.3059,275.8678,958.6507,279.0818,955.4367,274.4267,957.75,284" style="stroke:#A80036;stroke-width:1.0;"/><polygon fill="#000000" points="970.0989,250.4845,974.6198,242.1172,968.8382,241.0579,970.0989,250.4845" style="stroke:#000000;stroke-width:1.0;"/><text fill="#000000" font-family="sans-serif" font-size="13" lengthAdjust="spacing" textLength="61" x="980" y="250.0669">reference</text><text fill="#000000" font-family="sans-serif" font-size="13" lengthAdjust="spacing" textLength="24" x="930.5703" y="273.0116">0..1</text><!--MD5=[a21829bf9e22d7ad2257d12c520c50b2]
reverse link Resource to Funding--><path codeLine="316" d="M937.45,334.07 C923.47,360.4 904.57,396.02 894,415.93 " fill="none" id="Resource-backto-Funding" style="stroke:#A80036;stroke-width:1.0;"/><polygon fill="none" points="931.39,330.55,946.95,316.17,943.76,337.11,931.39,330.55" style="stroke:#A80036;stroke-width:1.0;"/><!--MD5=[117c8d017b65f89954aa553a8ad2cfe8]
link Contribution_to_Document to Document--><path codeLine="259" d="M536.18,316.17 C551.6,333.9 577.78,364.02 599.45,388.95 " fill="none" id="Contribution_to_Document-to-Document" style="stroke:#A80036;stroke-width:1.0;"/><polygon fill="#A80036" points="602.89,392.91,600.0143,383.4903,599.6137,389.133,593.9711,388.7324,602.89,392.91" style="stroke:#A80036;stroke-width:1.0;"/><polygon fill="#000000" points="584.2804,358.3399,580.5641,349.5854,576.1281,353.4418,584.2804,358.3399" style="stroke:#000000;stroke-width:1.0;"/><text fill="#000000" font-family="sans-serif" font-size="13" lengthAdjust="spacing" textLength="65" x="590" y="359.0669">document</text><!--MD5=[8d7c614e8203540f95956299e63d224a]
reverse link Contribution to Contribution_to_Document--><path codeLine="275" d="M475.53,196.14 C488.46,224.16 506.27,262.75 515.99,283.8 " fill="none" id="Contribution-backto-Contribution_to_Document" style="stroke:#A80036;stroke-width:1.0;"/><polygon fill="none" points="469.01,198.72,466.98,177.63,481.72,192.86,469.01,198.72" style="stroke:#A80036;stroke-width:1.0;"/><!--MD5=[db20fd804d8595e73b6b8c99fdd1338c]
link Authorship to Textual_Document--><path codeLine="267" d="M464.31,458.58 C498.21,478.61 544.85,506.15 577.01,525.15 " fill="none" id="Authorship-to-Textual_Document" style="stroke:#A80036;stroke-width:1.0;"/><polygon fill="#A80036" points="588.58,531.98,585.4477,525.4847,578.2473,525.8779,581.3796,532.3732,588.58,531.98" style="stroke:#A80036;stroke-width:1.0;"/><!--MD5=[585439cc3a9acb21770d204e54b00812]
reverse link Contribution_to_Document to Authorship--><path codeLine="271" d="M498.54,332.18 C481.02,354.5 457.72,384.2 441.25,405.19 " fill="none" id="Contribution_to_Document-backto-Authorship" style="stroke:#A80036;stroke-width:1.0;"/><polygon fill="none" points="493.25,327.58,511.1,316.17,504.26,336.22,493.25,327.58" style="stroke:#A80036;stroke-width:1.0;"/><!--MD5=[49125a4ba45432b051dcbcd9e53401d7]
link Authorship to Agent--><path codeLine="320" d="M438.5,458.68 C457.73,486.07 490.25,530.11 523,564 C541.57,583.21 564.7,602.48 582.99,616.81 " fill="none" id="Authorship-to-Agent" style="stroke:#A80036;stroke-width:1.0;"/><polygon fill="#FFFFFF" points="593.41,624.84,591.1059,618.0069,583.9123,617.5056,586.2163,624.3387,593.41,624.84" style="stroke:#A80036;stroke-width:1.0;"/><text fill="#000000" font-family="sans-serif" font-size="13" lengthAdjust="spacing" textLength="23" x="416.8125" y="478.2597">0..*</text><text fill="#000000" font-family="sans-serif" font-size="13" lengthAdjust="spacing" textLength="70" x="504.3009" y="613.7966">0..1 author</text><!--MD5=[3bc04dee94cc69985a1813f74705f429]
reverse link Textual_Document to Agent--><path codeLine="362" d="M614,577.32 C614,593.07 614,612.03 614,624.95 " fill="none" id="Textual_Document-backto-Agent" style="stroke:#A80036;stroke-width:1.0;"/><polygon fill="#FFFFFF" points="614,564.03,610,570.03,614,576.03,618,570.03,614,564.03" style="stroke:#A80036;stroke-width:1.0;"/><text fill="#000000" font-family="sans-serif" font-size="13" lengthAdjust="spacing" textLength="159" x="427.6719" y="584.2082">0..* authoredDocuments</text><text fill="#000000" font-family="sans-serif" font-size="13" lengthAdjust="spacing" textLength="76" x="627.0625" y="613.9444">0..* authors</text><!--MD5=[e36b49b71580bc35ebd964809c09ea7d]
reverse link Contribution to Contribution_to_Project--><path codeLine="279" d="M400.54,184.8 C326.03,212.74 200.36,259.86 136.25,283.91 " fill="none" id="Contribution-backto-Contribution_to_Project" style="stroke:#A80036;stroke-width:1.0;"/><polygon fill="none" points="398.47,178.1,419.65,177.63,403.39,191.21,398.47,178.1" style="stroke:#A80036;stroke-width:1.0;"/><!--MD5=[57fd60736781c4a6a1ada02cfd005744]
link Contribution_to_Project to Project--><path codeLine="283" d="M96,316.17 C96,339.55 96,384.45 96,410.64 " fill="none" id="Contribution_to_Project-to-Project" style="stroke:#A80036;stroke-width:1.0;"/><polygon fill="#A80036" points="96,415.93,100,406.93,96,410.93,92,406.93,96,415.93" style="stroke:#A80036;stroke-width:1.0;"/><polygon fill="#000000" points="101,359.5664,103.9389,350.5213,98.0611,350.5213,101,359.5664" style="stroke:#000000;stroke-width:1.0;"/><text fill="#000000" font-family="sans-serif" font-size="13" lengthAdjust="spacing" textLength="44" x="110" y="359.0669">project</text><!--MD5=[ff4a6d145294525e05493403423321eb]
reverse link Contribution to Contribution_to_Event--><path codeLine="287" d="M427.49,190.95 C395.21,219.19 346.95,261.42 321.37,283.8 " fill="none" id="Contribution-backto-Contribution_to_Event" style="stroke:#A80036;stroke-width:1.0;"/><polygon fill="none" points="423.05,185.53,442.71,177.63,432.27,196.07,423.05,185.53" style="stroke:#A80036;stroke-width:1.0;"/><!--MD5=[467ded19ca6884babd44a8b5c496328d]
link Contribution_to_Event to Event--><path codeLine="291" d="M297.23,316.17 C286.71,339.75 266.43,385.2 254.79,411.29 " fill="none" id="Contribution_to_Event-to-Event" style="stroke:#A80036;stroke-width:1.0;"/><polygon fill="#A80036" points="252.72,415.93,260.0439,409.3451,254.76,411.3651,252.74,406.0812,252.72,415.93" style="stroke:#A80036;stroke-width:1.0;"/><polygon fill="#000000" points="285.9627,359.1325,292.3321,352.0698,286.9643,349.6749,285.9627,359.1325" style="stroke:#000000;stroke-width:1.0;"/><text fill="#000000" font-family="sans-serif" font-size="13" lengthAdjust="spacing" textLength="36" x="297" y="359.0669">event</text><!--MD5=[ac110f789ae7a6a0503e4df1ad0c3da4]
reverse link Activity to Membership--><path codeLine="299" d="M891.03,40.73 C943.84,57.09 1023.95,84.15 1090,116 C1107.6,124.49 1126.35,136.17 1140.3,145.43 " fill="none" id="Activity-backto-Membership" style="stroke:#A80036;stroke-width:1.0;"/><polygon fill="none" points="888.97,47.42,871.87,34.89,893.05,34.02,888.97,47.42" style="stroke:#A80036;stroke-width:1.0;"/><!--MD5=[f5e0273634b15655b552a32017180749]
link Membership to Group--><path codeLine="303" d="M1161.11,177.63 C1159.67,202.23 1156.82,250.92 1155.2,278.57 " fill="none" id="Membership-to-Group" style="stroke:#A80036;stroke-width:1.0;"/><polygon fill="#A80036" points="1154.89,283.8,1159.3984,275.0436,1155.1761,278.8082,1151.4115,274.5859,1154.89,283.8" style="stroke:#A80036;stroke-width:1.0;"/><polygon fill="#000000" points="1161.7078,250.5579,1165.1703,241.7,1159.3025,241.3565,1161.7078,250.5579" style="stroke:#000000;stroke-width:1.0;"/><text fill="#000000" font-family="sans-serif" font-size="13" lengthAdjust="spacing" textLength="11" x="1171" y="250.0669">in</text><text fill="#000000" font-family="sans-serif" font-size="13" lengthAdjust="spacing" textLength="23" x="1134.0058" y="197.5463">0..*</text><text fill="#000000" font-family="sans-serif" font-size="13" lengthAdjust="spacing" textLength="24" x="1127.2098" y="273.0383">0..1</text><!--MD5=[fe03d2c8e9644e7513bef3a6fb6291e6]
reverse link Affiliation_Statement to Organisation_Unit--><path codeLine="241" d="M1427.17,217.29 C1432.18,223.44 1436.58,230.02 1440,237 C1447.21,251.71 1446.91,270.81 1445.48,283.9 " fill="none" id="Affiliation_Statement-backto-Organisation_Unit" style="stroke:#A80036;stroke-width:1.0;"/><polygon fill="#FFFFFF" points="1418.25,207.36,1419.2883,214.496,1426.2747,216.2822,1425.2364,209.1462,1418.25,207.36" style="stroke:#A80036;stroke-width:1.0;"/><polygon fill="#000000" points="1450.3253,250.3876,1450.7617,240.887,1445.094,242.445,1450.3253,250.3876" style="stroke:#000000;stroke-width:1.0;"/><text fill="#000000" font-family="sans-serif" font-size="13" lengthAdjust="spacing" textLength="107" x="1458" y="250.0669">organisation unit</text><text fill="#000000" font-family="sans-serif" font-size="13" lengthAdjust="spacing" textLength="24" x="1418.2075" y="272.8772">0..1</text><!--MD5=[fe03d2c8e9644e7513bef3a6fb6291e6]
reverse link Affiliation_Statement to Organisation_Unit--><path codeLine="245" d="M1344.37,220.3 C1345.07,232.13 1347.78,244.01 1354,254 C1362.42,267.52 1376.28,277.14 1390.59,283.91 " fill="none" id="Affiliation_Statement-backto-Organisation_Unit-1" style="stroke:#A80036;stroke-width:1.0;"/><polygon fill="#FFFFFF" points="1344.35,207.06,1340.3566,213.0644,1344.3632,219.06,1348.3566,213.0556,1344.35,207.06" style="stroke:#A80036;stroke-width:1.0;"/><polygon fill="#000000" points="1361.9391,249.6114,1358.9998,240.5664,1354.2446,244.0215,1361.9391,249.6114" style="stroke:#000000;stroke-width:1.0;"/><text fill="#000000" font-family="sans-serif" font-size="13" lengthAdjust="spacing" textLength="63" x="1368" y="250.0669">institution</text><text fill="#000000" font-family="sans-serif" font-size="13" lengthAdjust="spacing" textLength="24" x="1344.4491" y="272.8907">0..1</text><!--MD5=[d9b08b031298a036c8fb3d44263a5204]
reverse link Affiliation_Statement to Person--><path codeLine="246" d="M1293.62,217.47 C1288.58,223.74 1283.92,230.29 1280,237 C1271.4,251.71 1266.67,270.81 1264.24,283.9 " fill="none" id="Affiliation_Statement-backto-Person" style="stroke:#A80036;stroke-width:1.0;"/><polygon fill="#FFFFFF" points="1302.39,207.23,1295.4471,209.1782,1294.5751,216.3364,1301.518,214.3882,1302.39,207.23" style="stroke:#A80036;stroke-width:1.0;"/><polygon fill="#000000" points="1282.9776,250.1391,1289.3239,243.0557,1283.9484,240.6783,1282.9776,250.1391" style="stroke:#000000;stroke-width:1.0;"/><text fill="#000000" font-family="sans-serif" font-size="13" lengthAdjust="spacing" textLength="44" x="1294" y="250.0669">person</text><text fill="#000000" font-family="sans-serif" font-size="13" lengthAdjust="spacing" textLength="24" x="1236.885" y="272.8772">0..1</text><!--MD5=[335bc652314d68e20c6b9db39c8a9e92]
reverse link Activity to Affiliation_Statement--><path codeLine="250" d="M884.62,33.42 C961.08,48.14 1110.24,78.8 1234,116 C1244.88,119.27 1256.2,123.02 1267.34,126.94 " fill="none" id="Activity-backto-Affiliation_Statement" style="stroke:#A80036;stroke-width:1.0;"/><polygon fill="#FFFFFF" points="871.65,30.94,876.7917,35.996,883.4363,33.1944,878.2946,28.1384,871.65,30.94" style="stroke:#A80036;stroke-width:1.0;"/><polygon fill="#000000" points="1123.8571,78.7533,1115.7681,73.7513,1114.3729,79.4611,1123.8571,78.7533" style="stroke:#000000;stroke-width:1.0;"/><text fill="#000000" font-family="sans-serif" font-size="13" lengthAdjust="spacing" textLength="61" x="1128" y="82.0669">affilations</text><text fill="#000000" font-family="sans-serif" font-size="13" lengthAdjust="spacing" textLength="23" x="879.4833" y="28.0876">0..*</text><text fill="#000000" font-family="sans-serif" font-size="13" lengthAdjust="spacing" textLength="23" x="1236.5976" y="120.6518">0..*</text><!--MD5=[67ceb885199ca7e1fa058287d8756a2e]
reverse link Document to Textual_Document--><path codeLine="354" d="M624.78,491.13 C621.88,506.18 618.99,521.13 616.94,531.77 " fill="none" id="Document-backto-Textual_Document" style="stroke:#A80036;stroke-width:1.0;"/><polygon fill="none" points="617.95,489.59,628.61,471.28,631.7,492.24,617.95,489.59" style="stroke:#A80036;stroke-width:1.0;"/><!--MD5=[5ff5ad937f983a52c380167ab0e01587]
@startuml

    !includesub core.puml!common
    !includesub core.puml!Activity
    !includesub core.puml!Contribution
    !includesub core.puml!ContributionToDocument
    !includesub core.puml!Authorship
    !includesub core.puml!ContributionToProject
    !includesub core.puml!ContributionToEvent
    !includesub core.puml!Membership
    !includesub core.puml!AffiliationStatement
    !includesub core.puml!Document
    !includesub core.puml!Agent

@enduml

@startuml

        hide empty members
        skinparam BoxPadding 120
        class "Activity" #ffffff {
        }
        "Activity" "0..*" - -o "0..1 who" "Agent"
        class "Contribution" #ffffff {
        }
            
        
        class "Contribution_Statement" #ffffff {
            statement : Multilingual_String
        }
    
        class "Resource" #ffffff {
        }

        class "Funding" #ffffff {
        }
        "Contribution" *-r- "0..*" "Contribution_Statement" : is detailed in >
        "Activity" "0..*" - - "0..*" "Funding" : is covered by >
        "Activity" <|- - "Contribution"
         "Contribution_Statement" - -> "0..1" "Resource" : reference >
         "Resource" <|- - "Funding"
        class "Contribution_to_Document" #ffffff {
        }
        "Contribution_to_Document" - -> "Document" : document >
        "Contribution" <|- - "Contribution_to_Document"
        class "Authorship" #ffffff {
            correspondingAuthorFlag : Boolean
        }
        "Authorship" - -* "Textual_Document"
        "Contribution_to_Document" <|- - "Authorship"
        "Authorship" "0..*" - -o "0..1 author" "Agent"
        "Textual_Document" "0..* authoredDocuments" o- - "0..* authors" "Agent"
        class "Contribution_to_Project" #ffffff {
        }
    
        class "Project" #ffffff {
        }
        "Contribution" <|- - "Contribution_to_Project"
        "Contribution_to_Project" - -> "Project" : project >
        class "Contribution_to_Event" #ffffff {
        }
    
        class "Event" #ffffff {
        }
        "Contribution" <|- - "Contribution_to_Event"
        "Contribution_to_Event" - -> "Event" : event >
        class "Membership" #ffffff {
        }
        "Activity" <|- - "Membership"
        "Membership" "0..*" - -> "0..1" "Group" : in >
        class "Affiliation_Statement" #ffffff {
            displayAffiliation : String
            displayPersonName : String
            address : Postal_Address
            contacts : List<URI>
        }
        "Affiliation_Statement" o- - "0..1" "Organisation_Unit" : organisation unit >
        "Affiliation_Statement" o- - "0..1" "Organisation_Unit" : institution >
        "Affiliation_Statement" o- - "0..1" "Person" : person >
        "Activity" "0..*" o- - "0..*" "Affiliation_Statement" : affilations >
        class "Document" #ffffff {
            DOI : DOI_Type
            title : Multilingual_String
            publicationDate : Date
        }
        class "Textual_Document" #ffffff {
        }
        "Document" <|- - "Textual_Document"
        class "Agent" #ffffff {
        }

@enduml

PlantUML version 1.2021.8(Sat Jun 26 08:20:59 UTC 2021)
(GPL source distribution)
Java Runtime: OpenJDK Runtime Environment
JVM: OpenJDK 64-Bit Server VM
Default Encoding: UTF-8
Language: en
Country: null
--></g></svg>