<?xml version="1.0" encoding="UTF-8" standalone="no"?><svg xmlns="http://www.w3.org/2000/svg" xmlns:xlink="http://www.w3.org/1999/xlink" contentScriptType="application/ecmascript" contentStyleType="text/css" height="940px" preserveAspectRatio="none" style="width:1312px;height:940px;background:#FFFFFF;" version="1.1" viewBox="0 0 1312 940" width="1312px" zoomAndPan="magnify"><defs><filter height="300%" id="fb36ppnxbe76s" width="300%" x="-1" y="-1"><feGaussianBlur result="blurOut" stdDeviation="2.0"/><feColorMatrix in="blurOut" result="blurOut2" type="matrix" values="0 0 0 0 0 0 0 0 0 0 0 0 0 0 0 0 0 0 .4 0"/><feOffset dx="4.0" dy="4.0" in="blurOut2" result="blurOut3"/><feBlend in="SourceGraphic" in2="blurOut3" mode="normal"/></filter></defs><g><!--MD5=[c881b25adf3665c6568c9693d41a70f3]
class Activity--><rect codeLine="144" fill="#FFFFFF" filter="url(#fb36ppnxbe76s)" height="52.8047" id="Activity" style="stroke:#A80036;stroke-width:1.5;" width="151" x="706.5" y="454"/><ellipse cx="756.25" cy="470" fill="#ADD1B2" rx="11" ry="11" style="stroke:#A80036;stroke-width:1.0;"/><path d="M759.2188,475.6406 Q758.6406,475.9375 758,476.0781 Q757.3594,476.2344 756.6563,476.2344 Q754.1563,476.2344 752.8281,474.5938 Q751.5156,472.9375 751.5156,469.8125 Q751.5156,466.6875 752.8281,465.0313 Q754.1563,463.375 756.6563,463.375 Q757.3594,463.375 758,463.5313 Q758.6563,463.6875 759.2188,463.9844 L759.2188,466.7031 Q758.5938,466.125 758,465.8594 Q757.4063,465.5781 756.7813,465.5781 Q755.4375,465.5781 754.75,466.6563 Q754.0625,467.7188 754.0625,469.8125 Q754.0625,471.9063 754.75,472.9844 Q755.4375,474.0469 756.7813,474.0469 Q757.4063,474.0469 758,473.7813 Q758.5938,473.5 759.2188,472.9219 L759.2188,475.6406 Z " fill="#000000"/><text fill="#000000" font-family="sans-serif" font-size="12" lengthAdjust="spacing" textLength="43" x="776.75" y="474.1543">Activity</text><line style="stroke:#A80036;stroke-width:1.5;" x1="707.5" x2="856.5" y1="486" y2="486"/><text fill="#000000" font-family="sans-serif" font-size="11" lengthAdjust="spacing" textLength="139" x="712.5" y="500.2104">dateRange : Date_Range</text><!--MD5=[59b530d44ae785dc18db921986a9c15c]
class Document--><rect codeLine="257" fill="#FFFFFF" filter="url(#fb36ppnxbe76s)" height="65.6094" id="Document" style="stroke:#A80036;stroke-width:1.5;" width="148" x="858" y="311"/><ellipse cx="896.4" cy="327" fill="#ADD1B2" rx="11" ry="11" style="stroke:#A80036;stroke-width:1.0;"/><path d="M899.3688,332.6406 Q898.7906,332.9375 898.15,333.0781 Q897.5094,333.2344 896.8063,333.2344 Q894.3063,333.2344 892.9781,331.5938 Q891.6656,329.9375 891.6656,326.8125 Q891.6656,323.6875 892.9781,322.0313 Q894.3063,320.375 896.8063,320.375 Q897.5094,320.375 898.15,320.5313 Q898.8063,320.6875 899.3688,320.9844 L899.3688,323.7031 Q898.7438,323.125 898.15,322.8594 Q897.5563,322.5781 896.9313,322.5781 Q895.5875,322.5781 894.9,323.6563 Q894.2125,324.7188 894.2125,326.8125 Q894.2125,328.9063 894.9,329.9844 Q895.5875,331.0469 896.9313,331.0469 Q897.5563,331.0469 898.15,330.7813 Q898.7438,330.5 899.3688,329.9219 L899.3688,332.6406 Z " fill="#000000"/><text fill="#000000" font-family="sans-serif" font-size="12" lengthAdjust="spacing" textLength="64" x="915.6" y="331.1543">Document</text><line style="stroke:#A80036;stroke-width:1.5;" x1="859" x2="1005" y1="343" y2="343"/><text fill="#000000" font-family="sans-serif" font-size="11" lengthAdjust="spacing" textLength="136" x="864" y="357.2104">title : Multilingual_String</text><text fill="#000000" font-family="sans-serif" font-size="11" lengthAdjust="spacing" textLength="125" x="864" y="370.0151">publicationDate : Date</text><!--MD5=[9d44916250b776386006c440668bcfbb]
class Agent--><rect codeLine="10" fill="#FFFFFF" filter="url(#fb36ppnxbe76s)" height="78.4141" id="Agent" style="stroke:#A80036;stroke-width:1.5;" width="224" x="378" y="584"/><ellipse cx="467.25" cy="600" fill="#ADD1B2" rx="11" ry="11" style="stroke:#A80036;stroke-width:1.0;"/><path d="M470.2188,605.6406 Q469.6406,605.9375 469,606.0781 Q468.3594,606.2344 467.6563,606.2344 Q465.1563,606.2344 463.8281,604.5938 Q462.5156,602.9375 462.5156,599.8125 Q462.5156,596.6875 463.8281,595.0313 Q465.1563,593.375 467.6563,593.375 Q468.3594,593.375 469,593.5313 Q469.6563,593.6875 470.2188,593.9844 L470.2188,596.7031 Q469.5938,596.125 469,595.8594 Q468.4063,595.5781 467.7813,595.5781 Q466.4375,595.5781 465.75,596.6563 Q465.0625,597.7188 465.0625,599.8125 Q465.0625,601.9063 465.75,602.9844 Q466.4375,604.0469 467.7813,604.0469 Q468.4063,604.0469 469,603.7813 Q469.5938,603.5 470.2188,602.9219 L470.2188,605.6406 Z " fill="#000000"/><text fill="#000000" font-family="sans-serif" font-size="12" lengthAdjust="spacing" textLength="37" x="487.75" y="604.1543">Agent</text><line style="stroke:#A80036;stroke-width:1.5;" x1="379" x2="601" y1="616" y2="616"/><text fill="#000000" font-family="sans-serif" font-size="11" lengthAdjust="spacing" textLength="207" x="384" y="630.2104">keywords : List&lt;Multilingual_String&gt;</text><text fill="#000000" font-family="sans-serif" font-size="11" lengthAdjust="spacing" textLength="121" x="384" y="643.0151">lifetime : Date_Range</text><text fill="#000000" font-family="sans-serif" font-size="11" lengthAdjust="spacing" textLength="212" x="384" y="655.8198">contacts : List&lt;Contact_Information&gt;</text><!--MD5=[0330879a1a385efee19ba3488ed490fa]
class Contribution--><rect codeLine="187" fill="#FFFFFF" filter="url(#fb36ppnxbe76s)" height="32" id="Contribution" style="stroke:#A80036;stroke-width:1.5;" width="109" x="727.5" y="607"/><ellipse cx="742.5" cy="623" fill="#ADD1B2" rx="11" ry="11" style="stroke:#A80036;stroke-width:1.0;"/><path d="M745.4688,628.6406 Q744.8906,628.9375 744.25,629.0781 Q743.6094,629.2344 742.9063,629.2344 Q740.4063,629.2344 739.0781,627.5938 Q737.7656,625.9375 737.7656,622.8125 Q737.7656,619.6875 739.0781,618.0313 Q740.4063,616.375 742.9063,616.375 Q743.6094,616.375 744.25,616.5313 Q744.9063,616.6875 745.4688,616.9844 L745.4688,619.7031 Q744.8438,619.125 744.25,618.8594 Q743.6563,618.5781 743.0313,618.5781 Q741.6875,618.5781 741,619.6563 Q740.3125,620.7188 740.3125,622.8125 Q740.3125,624.9063 741,625.9844 Q741.6875,627.0469 743.0313,627.0469 Q743.6563,627.0469 744.25,626.7813 Q744.8438,626.5 745.4688,625.9219 L745.4688,628.6406 Z " fill="#000000"/><text fill="#000000" font-family="sans-serif" font-size="12" lengthAdjust="spacing" textLength="77" x="756.5" y="627.1543">Contribution</text><!--MD5=[532fe005ca0bef0ad6b309c9c6480e22]
class Contribution_Statement--><rect codeLine="311" fill="#FFFFFF" filter="url(#fb36ppnxbe76s)" height="52.8047" id="Contribution_Statement" style="stroke:#A80036;stroke-width:1.5;" width="185" x="667.5" y="751.5"/><ellipse cx="684.3" cy="767.5" fill="#ADD1B2" rx="11" ry="11" style="stroke:#A80036;stroke-width:1.0;"/><path d="M687.2688,773.1406 Q686.6906,773.4375 686.05,773.5781 Q685.4094,773.7344 684.7063,773.7344 Q682.2063,773.7344 680.8781,772.0938 Q679.5656,770.4375 679.5656,767.3125 Q679.5656,764.1875 680.8781,762.5313 Q682.2063,760.875 684.7063,760.875 Q685.4094,760.875 686.05,761.0313 Q686.7063,761.1875 687.2688,761.4844 L687.2688,764.2031 Q686.6438,763.625 686.05,763.3594 Q685.4563,763.0781 684.8313,763.0781 Q683.4875,763.0781 682.8,764.1563 Q682.1125,765.2188 682.1125,767.3125 Q682.1125,769.4063 682.8,770.4844 Q683.4875,771.5469 684.8313,771.5469 Q685.4563,771.5469 686.05,771.2813 Q686.6438,771 687.2688,770.4219 L687.2688,773.1406 Z " fill="#000000"/><text fill="#000000" font-family="sans-serif" font-size="12" lengthAdjust="spacing" textLength="149" x="698.7" y="771.6543">Contribution_Statement</text><line style="stroke:#A80036;stroke-width:1.5;" x1="668.5" x2="851.5" y1="783.5" y2="783.5"/><text fill="#000000" font-family="sans-serif" font-size="11" lengthAdjust="spacing" textLength="173" x="673.5" y="797.7104">statement : Multilingual_String</text><!--MD5=[6b13f1b330d33795af281e5c1dfe1e98]
class Resource--><rect codeLine="239" fill="#FFFFFF" filter="url(#fb36ppnxbe76s)" height="32" id="Resource" style="stroke:#A80036;stroke-width:1.5;" width="91" x="714.5" y="894"/><ellipse cx="729.5" cy="910" fill="#ADD1B2" rx="11" ry="11" style="stroke:#A80036;stroke-width:1.0;"/><path d="M732.4688,915.6406 Q731.8906,915.9375 731.25,916.0781 Q730.6094,916.2344 729.9063,916.2344 Q727.4063,916.2344 726.0781,914.5938 Q724.7656,912.9375 724.7656,909.8125 Q724.7656,906.6875 726.0781,905.0313 Q727.4063,903.375 729.9063,903.375 Q730.6094,903.375 731.25,903.5313 Q731.9063,903.6875 732.4688,903.9844 L732.4688,906.7031 Q731.8438,906.125 731.25,905.8594 Q730.6563,905.5781 730.0313,905.5781 Q728.6875,905.5781 728,906.6563 Q727.3125,907.7188 727.3125,909.8125 Q727.3125,911.9063 728,912.9844 Q728.6875,914.0469 730.0313,914.0469 Q730.6563,914.0469 731.25,913.7813 Q731.8438,913.5 732.4688,912.9219 L732.4688,915.6406 Z " fill="#000000"/><text fill="#000000" font-family="sans-serif" font-size="12" lengthAdjust="spacing" textLength="59" x="743.5" y="914.1543">Resource</text><!--MD5=[05151c161079be2c12996cf31a3c6866]
class Contribution_to_Document--><rect codeLine="205" fill="#FFFFFF" filter="url(#fb36ppnxbe76s)" height="32" id="Contribution_to_Document" style="stroke:#A80036;stroke-width:1.5;" width="198" x="1100" y="762"/><ellipse cx="1115" cy="778" fill="#ADD1B2" rx="11" ry="11" style="stroke:#A80036;stroke-width:1.0;"/><path d="M1117.9688,783.6406 Q1117.3906,783.9375 1116.75,784.0781 Q1116.1094,784.2344 1115.4063,784.2344 Q1112.9063,784.2344 1111.5781,782.5938 Q1110.2656,780.9375 1110.2656,777.8125 Q1110.2656,774.6875 1111.5781,773.0313 Q1112.9063,771.375 1115.4063,771.375 Q1116.1094,771.375 1116.75,771.5313 Q1117.4063,771.6875 1117.9688,771.9844 L1117.9688,774.7031 Q1117.3438,774.125 1116.75,773.8594 Q1116.1563,773.5781 1115.5313,773.5781 Q1114.1875,773.5781 1113.5,774.6563 Q1112.8125,775.7188 1112.8125,777.8125 Q1112.8125,779.9063 1113.5,780.9844 Q1114.1875,782.0469 1115.5313,782.0469 Q1116.1563,782.0469 1116.75,781.7813 Q1117.3438,781.5 1117.9688,780.9219 L1117.9688,783.6406 Z " fill="#000000"/><text fill="#000000" font-family="sans-serif" font-size="12" lengthAdjust="spacing" textLength="166" x="1129" y="782.1543">Contribution_to_Document</text><!--MD5=[d8ce9658d3ea3b764ca76e27f1ae6382]
class Contribution_to_Project--><rect codeLine="196" fill="#FFFFFF" filter="url(#fb36ppnxbe76s)" height="32" id="Contribution_to_Project" style="stroke:#A80036;stroke-width:1.5;" width="178" x="887" y="762"/><ellipse cx="902" cy="778" fill="#ADD1B2" rx="11" ry="11" style="stroke:#A80036;stroke-width:1.0;"/><path d="M904.9688,783.6406 Q904.3906,783.9375 903.75,784.0781 Q903.1094,784.2344 902.4063,784.2344 Q899.9063,784.2344 898.5781,782.5938 Q897.2656,780.9375 897.2656,777.8125 Q897.2656,774.6875 898.5781,773.0313 Q899.9063,771.375 902.4063,771.375 Q903.1094,771.375 903.75,771.5313 Q904.4063,771.6875 904.9688,771.9844 L904.9688,774.7031 Q904.3438,774.125 903.75,773.8594 Q903.1563,773.5781 902.5313,773.5781 Q901.1875,773.5781 900.5,774.6563 Q899.8125,775.7188 899.8125,777.8125 Q899.8125,779.9063 900.5,780.9844 Q901.1875,782.0469 902.5313,782.0469 Q903.1563,782.0469 903.75,781.7813 Q904.3438,781.5 904.9688,780.9219 L904.9688,783.6406 Z " fill="#000000"/><text fill="#000000" font-family="sans-serif" font-size="12" lengthAdjust="spacing" textLength="146" x="916" y="782.1543">Contribution_to_Project</text><!--MD5=[79d378210367c0c6ec62ef762ddfbd1b]
class Project--><rect codeLine="301" fill="#FFFFFF" filter="url(#fb36ppnxbe76s)" height="32" id="Project" style="stroke:#A80036;stroke-width:1.5;" width="76" x="938" y="894"/><ellipse cx="953" cy="910" fill="#ADD1B2" rx="11" ry="11" style="stroke:#A80036;stroke-width:1.0;"/><path d="M955.9688,915.6406 Q955.3906,915.9375 954.75,916.0781 Q954.1094,916.2344 953.4063,916.2344 Q950.9063,916.2344 949.5781,914.5938 Q948.2656,912.9375 948.2656,909.8125 Q948.2656,906.6875 949.5781,905.0313 Q950.9063,903.375 953.4063,903.375 Q954.1094,903.375 954.75,903.5313 Q955.4063,903.6875 955.9688,903.9844 L955.9688,906.7031 Q955.3438,906.125 954.75,905.8594 Q954.1563,905.5781 953.5313,905.5781 Q952.1875,905.5781 951.5,906.6563 Q950.8125,907.7188 950.8125,909.8125 Q950.8125,911.9063 951.5,912.9844 Q952.1875,914.0469 953.5313,914.0469 Q954.1563,914.0469 954.75,913.7813 Q955.3438,913.5 955.9688,912.9219 L955.9688,915.6406 Z " fill="#000000"/><text fill="#000000" font-family="sans-serif" font-size="12" lengthAdjust="spacing" textLength="44" x="967" y="914.1543">Project</text><!--MD5=[e02578a13076095640a9a08de0c36172]
class Contribution_to_Event--><rect codeLine="214" fill="#FFFFFF" filter="url(#fb36ppnxbe76s)" height="32" id="Contribution_to_Event" style="stroke:#A80036;stroke-width:1.5;" width="169" x="463.5" y="762"/><ellipse cx="478.5" cy="778" fill="#ADD1B2" rx="11" ry="11" style="stroke:#A80036;stroke-width:1.0;"/><path d="M481.4688,783.6406 Q480.8906,783.9375 480.25,784.0781 Q479.6094,784.2344 478.9063,784.2344 Q476.4063,784.2344 475.0781,782.5938 Q473.7656,780.9375 473.7656,777.8125 Q473.7656,774.6875 475.0781,773.0313 Q476.4063,771.375 478.9063,771.375 Q479.6094,771.375 480.25,771.5313 Q480.9063,771.6875 481.4688,771.9844 L481.4688,774.7031 Q480.8438,774.125 480.25,773.8594 Q479.6563,773.5781 479.0313,773.5781 Q477.6875,773.5781 477,774.6563 Q476.3125,775.7188 476.3125,777.8125 Q476.3125,779.9063 477,780.9844 Q477.6875,782.0469 479.0313,782.0469 Q479.6563,782.0469 480.25,781.7813 Q480.8438,781.5 481.4688,780.9219 L481.4688,783.6406 Z " fill="#000000"/><text fill="#000000" font-family="sans-serif" font-size="12" lengthAdjust="spacing" textLength="137" x="492.5" y="782.1543">Contribution_to_Event</text><!--MD5=[ac13618b1a974308c1f12eb6c57723dc]
class Event--><rect codeLine="306" fill="#FFFFFF" filter="url(#fb36ppnxbe76s)" height="32" id="Event" style="stroke:#A80036;stroke-width:1.5;" width="67" x="514.5" y="894"/><ellipse cx="529.5" cy="910" fill="#ADD1B2" rx="11" ry="11" style="stroke:#A80036;stroke-width:1.0;"/><path d="M532.4688,915.6406 Q531.8906,915.9375 531.25,916.0781 Q530.6094,916.2344 529.9063,916.2344 Q527.4063,916.2344 526.0781,914.5938 Q524.7656,912.9375 524.7656,909.8125 Q524.7656,906.6875 526.0781,905.0313 Q527.4063,903.375 529.9063,903.375 Q530.6094,903.375 531.25,903.5313 Q531.9063,903.6875 532.4688,903.9844 L532.4688,906.7031 Q531.8438,906.125 531.25,905.8594 Q530.6563,905.5781 530.0313,905.5781 Q528.6875,905.5781 528,906.6563 Q527.3125,907.7188 527.3125,909.8125 Q527.3125,911.9063 528,912.9844 Q528.6875,914.0469 530.0313,914.0469 Q530.6563,914.0469 531.25,913.7813 Q531.8438,913.5 532.4688,912.9219 L532.4688,915.6406 Z " fill="#000000"/><text fill="#000000" font-family="sans-serif" font-size="12" lengthAdjust="spacing" textLength="35" x="543.5" y="914.1543">Event</text><!--MD5=[6a029e66987f6edc98a50822cc78695f]
class Involvement--><rect codeLine="150" fill="#FFFFFF" filter="url(#fb36ppnxbe76s)" height="32" id="Involvement" style="stroke:#A80036;stroke-width:1.5;" width="106" x="503" y="30"/><ellipse cx="518" cy="46" fill="#ADD1B2" rx="11" ry="11" style="stroke:#A80036;stroke-width:1.0;"/><path d="M520.9688,51.6406 Q520.3906,51.9375 519.75,52.0781 Q519.1094,52.2344 518.4063,52.2344 Q515.9063,52.2344 514.5781,50.5938 Q513.2656,48.9375 513.2656,45.8125 Q513.2656,42.6875 514.5781,41.0313 Q515.9063,39.375 518.4063,39.375 Q519.1094,39.375 519.75,39.5313 Q520.4063,39.6875 520.9688,39.9844 L520.9688,42.7031 Q520.3438,42.125 519.75,41.8594 Q519.1563,41.5781 518.5313,41.5781 Q517.1875,41.5781 516.5,42.6563 Q515.8125,43.7188 515.8125,45.8125 Q515.8125,47.9063 516.5,48.9844 Q517.1875,50.0469 518.5313,50.0469 Q519.1563,50.0469 519.75,49.7813 Q520.3438,49.5 520.9688,48.9219 L520.9688,51.6406 Z " fill="#000000"/><text fill="#000000" font-family="sans-serif" font-size="12" lengthAdjust="spacing" textLength="74" x="532" y="50.1543">Involvement</text><!--MD5=[affb11a45f8309443fb20b6133e8d181]
class Group_or_Organisation_Unit--><rect codeLine="94" fill="#FFFFFF" filter="url(#fb36ppnxbe76s)" height="78.4141" id="Group_or_Organisation_Unit" style="stroke:#A80036;stroke-width:1.5;" width="206" x="222" y="739"/><ellipse cx="237" cy="755" fill="#ADD1B2" rx="11" ry="11" style="stroke:#A80036;stroke-width:1.0;"/><path d="M239.9688,760.6406 Q239.3906,760.9375 238.75,761.0781 Q238.1094,761.2344 237.4063,761.2344 Q234.9063,761.2344 233.5781,759.5938 Q232.2656,757.9375 232.2656,754.8125 Q232.2656,751.6875 233.5781,750.0313 Q234.9063,748.375 237.4063,748.375 Q238.1094,748.375 238.75,748.5313 Q239.4063,748.6875 239.9688,748.9844 L239.9688,751.7031 Q239.3438,751.125 238.75,750.8594 Q238.1563,750.5781 237.5313,750.5781 Q236.1875,750.5781 235.5,751.6563 Q234.8125,752.7188 234.8125,754.8125 Q234.8125,756.9063 235.5,757.9844 Q236.1875,759.0469 237.5313,759.0469 Q238.1563,759.0469 238.75,758.7813 Q239.3438,758.5 239.9688,757.9219 L239.9688,760.6406 Z " fill="#000000"/><text fill="#000000" font-family="sans-serif" font-size="12" lengthAdjust="spacing" textLength="174" x="251" y="759.1543">Group_or_Organisation_Unit</text><line style="stroke:#A80036;stroke-width:1.5;" x1="223" x2="427" y1="771" y2="771"/><text fill="#000000" font-family="sans-serif" font-size="11" lengthAdjust="spacing" textLength="147" x="228" y="785.2104">name : Multilingual_String</text><text fill="#000000" font-family="sans-serif" font-size="11" lengthAdjust="spacing" textLength="95" x="228" y="798.0151">acronym : String</text><text fill="#000000" font-family="sans-serif" font-size="11" lengthAdjust="spacing" textLength="178" x="228" y="810.8198">description : Multilingual_String</text><!--MD5=[ddbff00b4911ad4b77d6aa32dd14d1d7]
class Affiliation_Statement--><rect codeLine="376" fill="#FFFFFF" filter="url(#fb36ppnxbe76s)" height="78.4141" id="Affiliation_Statement" style="stroke:#A80036;stroke-width:1.5;" width="224" x="97" y="7"/><ellipse cx="140.35" cy="23" fill="#ADD1B2" rx="11" ry="11" style="stroke:#A80036;stroke-width:1.0;"/><path d="M143.3188,28.6406 Q142.7406,28.9375 142.1,29.0781 Q141.4594,29.2344 140.7563,29.2344 Q138.2563,29.2344 136.9281,27.5938 Q135.6156,25.9375 135.6156,22.8125 Q135.6156,19.6875 136.9281,18.0313 Q138.2563,16.375 140.7563,16.375 Q141.4594,16.375 142.1,16.5313 Q142.7563,16.6875 143.3188,16.9844 L143.3188,19.7031 Q142.6938,19.125 142.1,18.8594 Q141.5063,18.5781 140.8813,18.5781 Q139.5375,18.5781 138.85,19.6563 Q138.1625,20.7188 138.1625,22.8125 Q138.1625,24.9063 138.85,25.9844 Q139.5375,27.0469 140.8813,27.0469 Q141.5063,27.0469 142.1,26.7813 Q142.6938,26.5 143.3188,25.9219 L143.3188,28.6406 Z " fill="#000000"/><text fill="#000000" font-family="sans-serif" font-size="12" lengthAdjust="spacing" textLength="129" x="160.65" y="27.1543">Affiliation_Statement</text><line style="stroke:#A80036;stroke-width:1.5;" x1="98" x2="320" y1="39" y2="39"/><text fill="#000000" font-family="sans-serif" font-size="11" lengthAdjust="spacing" textLength="203" x="103" y="53.2104">displayAffiliation_Statement : String</text><text fill="#000000" font-family="sans-serif" font-size="11" lengthAdjust="spacing" textLength="159" x="103" y="66.0151">displayPersonName : String</text><text fill="#000000" font-family="sans-serif" font-size="11" lengthAdjust="spacing" textLength="212" x="103" y="78.8198">contacts : List&lt;Contact_Information&gt;</text><!--MD5=[77463bb17ddcfe3891c27a1f4a877731]
class Membership--><rect codeLine="178" fill="#FFFFFF" filter="url(#fb36ppnxbe76s)" height="32" id="Membership" style="stroke:#A80036;stroke-width:1.5;" width="108" x="463" y="182"/><ellipse cx="478" cy="198" fill="#ADD1B2" rx="11" ry="11" style="stroke:#A80036;stroke-width:1.0;"/><path d="M480.9688,203.6406 Q480.3906,203.9375 479.75,204.0781 Q479.1094,204.2344 478.4063,204.2344 Q475.9063,204.2344 474.5781,202.5938 Q473.2656,200.9375 473.2656,197.8125 Q473.2656,194.6875 474.5781,193.0313 Q475.9063,191.375 478.4063,191.375 Q479.1094,191.375 479.75,191.5313 Q480.4063,191.6875 480.9688,191.9844 L480.9688,194.7031 Q480.3438,194.125 479.75,193.8594 Q479.1563,193.5781 478.5313,193.5781 Q477.1875,193.5781 476.5,194.6563 Q475.8125,195.7188 475.8125,197.8125 Q475.8125,199.9063 476.5,200.9844 Q477.1875,202.0469 478.5313,202.0469 Q479.1563,202.0469 479.75,201.7813 Q480.3438,201.5 480.9688,200.9219 L480.9688,203.6406 Z " fill="#000000"/><text fill="#000000" font-family="sans-serif" font-size="12" lengthAdjust="spacing" textLength="76" x="492" y="202.1543">Membership</text><!--MD5=[3e7c08c6da448472712568ab49cd8e32]
class Education--><rect codeLine="168" fill="#FFFFFF" filter="url(#fb36ppnxbe76s)" height="52.8047" id="Education" style="stroke:#A80036;stroke-width:1.5;" width="145" x="606.5" y="171.5"/><ellipse cx="644" cy="187.5" fill="#ADD1B2" rx="11" ry="11" style="stroke:#A80036;stroke-width:1.0;"/><path d="M646.9688,193.1406 Q646.3906,193.4375 645.75,193.5781 Q645.1094,193.7344 644.4063,193.7344 Q641.9063,193.7344 640.5781,192.0938 Q639.2656,190.4375 639.2656,187.3125 Q639.2656,184.1875 640.5781,182.5313 Q641.9063,180.875 644.4063,180.875 Q645.1094,180.875 645.75,181.0313 Q646.4063,181.1875 646.9688,181.4844 L646.9688,184.2031 Q646.3438,183.625 645.75,183.3594 Q645.1563,183.0781 644.5313,183.0781 Q643.1875,183.0781 642.5,184.1563 Q641.8125,185.2188 641.8125,187.3125 Q641.8125,189.4063 642.5,190.4844 Q643.1875,191.5469 644.5313,191.5469 Q645.1563,191.5469 645.75,191.2813 Q646.3438,191 646.9688,190.4219 L646.9688,193.1406 Z " fill="#000000"/><text fill="#000000" font-family="sans-serif" font-size="12" lengthAdjust="spacing" textLength="63" x="663" y="191.6543">Education</text><line style="stroke:#A80036;stroke-width:1.5;" x1="607.5" x2="750.5" y1="203.5" y2="203.5"/><text fill="#000000" font-family="sans-serif" font-size="11" lengthAdjust="spacing" textLength="133" x="612.5" y="217.7104">completed   :   Boolean</text><!--MD5=[1c0f67851325b0845e0b86703ac36f9d]
class Employment--><rect codeLine="159" fill="#FFFFFF" filter="url(#fb36ppnxbe76s)" height="32" id="Employment" style="stroke:#A80036;stroke-width:1.5;" width="108" x="868" y="182"/><ellipse cx="883" cy="198" fill="#ADD1B2" rx="11" ry="11" style="stroke:#A80036;stroke-width:1.0;"/><path d="M885.9688,203.6406 Q885.3906,203.9375 884.75,204.0781 Q884.1094,204.2344 883.4063,204.2344 Q880.9063,204.2344 879.5781,202.5938 Q878.2656,200.9375 878.2656,197.8125 Q878.2656,194.6875 879.5781,193.0313 Q880.9063,191.375 883.4063,191.375 Q884.1094,191.375 884.75,191.5313 Q885.4063,191.6875 885.9688,191.9844 L885.9688,194.7031 Q885.3438,194.125 884.75,193.8594 Q884.1563,193.5781 883.5313,193.5781 Q882.1875,193.5781 881.5,194.6563 Q880.8125,195.7188 880.8125,197.8125 Q880.8125,199.9063 881.5,200.9844 Q882.1875,202.0469 883.5313,202.0469 Q884.1563,202.0469 884.75,201.7813 Q885.3438,201.5 885.9688,200.9219 L885.9688,203.6406 Z " fill="#000000"/><text fill="#000000" font-family="sans-serif" font-size="12" lengthAdjust="spacing" textLength="76" x="897" y="202.1543">Employment</text><!--MD5=[a0318ef586937002b2555963e2a1f4ad]
class Contact_Information--><rect fill="#FEFECE" filter="url(#fb36ppnxbe76s)" height="32" id="Contact_Information" style="stroke:#A80036;stroke-width:1.5;" width="158" x="7" y="762"/><ellipse cx="22" cy="778" fill="#ADD1B2" rx="11" ry="11" style="stroke:#A80036;stroke-width:1.0;"/><path d="M24.9688,783.6406 Q24.3906,783.9375 23.75,784.0781 Q23.1094,784.2344 22.4063,784.2344 Q19.9063,784.2344 18.5781,782.5938 Q17.2656,780.9375 17.2656,777.8125 Q17.2656,774.6875 18.5781,773.0313 Q19.9063,771.375 22.4063,771.375 Q23.1094,771.375 23.75,771.5313 Q24.4063,771.6875 24.9688,771.9844 L24.9688,774.7031 Q24.3438,774.125 23.75,773.8594 Q23.1563,773.5781 22.5313,773.5781 Q21.1875,773.5781 20.5,774.6563 Q19.8125,775.7188 19.8125,777.8125 Q19.8125,779.9063 20.5,780.9844 Q21.1875,782.0469 22.5313,782.0469 Q23.1563,782.0469 23.75,781.7813 Q24.3438,781.5 24.9688,780.9219 L24.9688,783.6406 Z " fill="#000000"/><text fill="#000000" font-family="sans-serif" font-size="12" lengthAdjust="spacing" textLength="126" x="36" y="782.1543">Contact_Information</text><!--MD5=[a64a835c3d62471a77f615251fdde58a]
class Position--><rect codeLine="668" fill="#FFFFFF" filter="url(#fb36ppnxbe76s)" height="71.5469" id="Position" style="stroke:#A80036;stroke-width:1.5;" width="164" x="122" y="162"/><ellipse cx="164.9" cy="180.9688" fill="#ADD0B2" rx="11" ry="11" style="stroke:#A80036;stroke-width:1.0;"/><path d="M164.4938,176.7813 L164.4938,184.7656 L165.15,184.7656 Q166.5875,184.7656 167.1969,183.8594 Q167.8219,182.9375 167.8219,180.7656 Q167.8219,178.5938 167.1969,177.6875 Q166.5875,176.7813 165.15,176.7813 L164.4938,176.7813 Z M162.0406,174.5781 L164.6656,174.5781 Q167.6969,174.5781 169.025,176.0313 Q170.3688,177.4688 170.3688,180.7656 Q170.3688,184.0625 169.025,185.5156 Q167.6969,186.9688 164.6656,186.9688 L162.0406,186.9688 L162.0406,174.5781 Z " fill="#000000"/><text fill="#000000" font-family="sans-serif" font-size="12" font-style="italic" lengthAdjust="spacing" textLength="74" x="183.1" y="178.1387">«DataType»</text><text fill="#000000" font-family="sans-serif" font-size="12" lengthAdjust="spacing" textLength="50" x="195.1" y="192.1074">Position</text><line style="stroke:#A80036;stroke-width:1.5;" x1="123" x2="285" y1="199.9375" y2="199.9375"/><text fill="#000000" font-family="sans-serif" font-size="11" lengthAdjust="spacing" textLength="152" x="128" y="214.1479">title   :   Multilingual_String</text><text fill="#000000" font-family="sans-serif" font-size="11" lengthAdjust="spacing" textLength="93" x="128" y="226.9526">code    :   String</text><!--MD5=[ff9dfe2dddb5fe4a69020d7834f0d207]
link Document to Activity--><path codeLine="223" d="M896.07,377.22 C869.9,400.69 834.91,432.06 810.62,453.84 " fill="none" id="Document-Activity" style="stroke:#A80036;stroke-width:1.0;"/><polygon fill="#000000" points="862.2774,418.9044,870.9737,415.0541,867.0497,410.6778,862.2774,418.9044" style="stroke:#000000;stroke-width:1.0;"/><text fill="#000000" font-family="sans-serif" font-size="13" lengthAdjust="spacing" textLength="36" x="875" y="420.0669">prove</text><text fill="#000000" font-family="sans-serif" font-size="13" lengthAdjust="spacing" textLength="23" x="864.6215" y="396.5868">0..*</text><text fill="#000000" font-family="sans-serif" font-size="13" lengthAdjust="spacing" textLength="23" x="791.579" y="443.0453">0..*</text><!--MD5=[cd935cc757d29bd6a59b1252b30899e0]
link Activity to Agent--><path codeLine="229" d="M728.78,507.11 C685.52,527.92 623.69,557.67 573.79,581.68 " fill="none" id="Activity-to-Agent" style="stroke:#A80036;stroke-width:1.0;"/><polygon fill="#A80036" points="569,583.99,578.8451,583.7187,573.5114,581.8342,575.3959,576.5005,569,583.99" style="stroke:#A80036;stroke-width:1.0;"/><polygon fill="#000000" points="662.4944,547.7342,671.9193,546.461,669.3709,541.1643,662.4944,547.7342" style="stroke:#000000;stroke-width:1.0;"/><text fill="#000000" font-family="sans-serif" font-size="13" lengthAdjust="spacing" textLength="33" x="676" y="550.0669">actor</text><text fill="#000000" font-family="sans-serif" font-size="13" lengthAdjust="spacing" textLength="23" x="691.6225" y="526.6743">0..*</text><text fill="#000000" font-family="sans-serif" font-size="13" lengthAdjust="spacing" textLength="24" x="556.5156" y="573.0388">0..1</text><!--MD5=[55f20054f286b2e7074e8d22fab1f608]
reverse link Activity to Contribution--><path codeLine="192" d="M782,527.66 C782,555.04 782,587.97 782,606.8 " fill="none" id="Activity-backto-Contribution" style="stroke:#A80036;stroke-width:1.0;"/><polygon fill="none" points="775,527.27,782,507.27,789,527.27,775,527.27" style="stroke:#A80036;stroke-width:1.0;"/><!--MD5=[b01ee177fc17bf8bb95324fc01c31b3b]
link Contribution_Statement to Resource--><path codeLine="524" d="M760,804.68 C760,829.35 760,866.1 760,888.76 " fill="none" id="Contribution_Statement-to-Resource" style="stroke:#A80036;stroke-width:1.0;"/><polygon fill="#A80036" points="760,893.92,764,884.92,760,888.92,756,884.92,760,893.92" style="stroke:#A80036;stroke-width:1.0;"/><polygon fill="#000000" points="765,860.5664,767.9389,851.5213,762.0611,851.5213,765,860.5664" style="stroke:#000000;stroke-width:1.0;"/><text fill="#000000" font-family="sans-serif" font-size="13" lengthAdjust="spacing" textLength="54" x="774" y="860.0669">provides</text><text fill="#000000" font-family="sans-serif" font-size="13" lengthAdjust="spacing" textLength="24" x="731.875" y="882.9041">0..1</text><!--MD5=[8d7c614e8203540f95956299e63d224a]
reverse link Contribution to Contribution_to_Document--><path codeLine="210" d="M835.32,646.91 C877.31,664.65 937.49,689.42 991,709 C1031.39,723.78 1042.12,725.64 1083,739 C1106.06,746.54 1131.7,754.94 1153,761.91 " fill="none" id="Contribution-backto-Contribution_to_Document" style="stroke:#A80036;stroke-width:1.0;"/><polygon fill="none" points="832.51,653.32,816.83,639.05,837.98,640.43,832.51,653.32" style="stroke:#A80036;stroke-width:1.0;"/><!--MD5=[117c8d017b65f89954aa553a8ad2cfe8]
link Contribution_to_Document to Document--><path codeLine="508" d="M1189.66,761.89 C1151.94,700.86 1010.2,471.53 954.59,381.55 " fill="none" id="Contribution_to_Document-to-Document" style="stroke:#A80036;stroke-width:1.0;"/><polygon fill="#A80036" points="951.85,377.12,953.1748,386.8793,954.4769,381.3744,959.9818,382.6764,951.85,377.12" style="stroke:#A80036;stroke-width:1.0;"/><polygon fill="#000000" points="1061.3713,541.3132,1063.6267,550.5525,1068.6267,547.4622,1061.3713,541.3132" style="stroke:#000000;stroke-width:1.0;"/><text fill="#000000" font-family="sans-serif" font-size="13" lengthAdjust="spacing" textLength="65" x="1073" y="550.0669">document</text><!--MD5=[e36b49b71580bc35ebd964809c09ea7d]
reverse link Contribution to Contribution_to_Project--><path codeLine="201" d="M819.54,650.99 C836.37,663.28 856.35,678.15 874,692 C904.28,715.77 938.46,744.7 958.57,761.94 " fill="none" id="Contribution-backto-Contribution_to_Project" style="stroke:#A80036;stroke-width:1.0;"/><polygon fill="none" points="815.17,656.46,803.09,639.05,823.39,645.13,815.17,656.46" style="stroke:#A80036;stroke-width:1.0;"/><!--MD5=[57fd60736781c4a6a1ada02cfd005744]
link Contribution_to_Project to Project--><path codeLine="297" d="M976,794.17 C976,817.55 976,862.45 976,888.64 " fill="none" id="Contribution_to_Project-to-Project" style="stroke:#A80036;stroke-width:1.0;"/><polygon fill="#A80036" points="976,893.93,980,884.93,976,888.93,972,884.93,976,893.93" style="stroke:#A80036;stroke-width:1.0;"/><polygon fill="#000000" points="981,860.5664,983.9389,851.5213,978.0611,851.5213,981,860.5664" style="stroke:#000000;stroke-width:1.0;"/><text fill="#000000" font-family="sans-serif" font-size="13" lengthAdjust="spacing" textLength="44" x="990" y="860.0669">project</text><!--MD5=[ff4a6d145294525e05493403423321eb]
reverse link Contribution to Contribution_to_Event--><path codeLine="219" d="M741.9,650.22 C692.72,682.38 610.99,735.81 571.2,761.83 " fill="none" id="Contribution-backto-Contribution_to_Event" style="stroke:#A80036;stroke-width:1.0;"/><polygon fill="none" points="738.14,644.32,758.71,639.23,745.8,656.03,738.14,644.32" style="stroke:#A80036;stroke-width:1.0;"/><!--MD5=[467ded19ca6884babd44a8b5c496328d]
link Contribution_to_Event to Event--><path codeLine="520" d="M548,794.17 C548,817.55 548,862.45 548,888.64 " fill="none" id="Contribution_to_Event-to-Event" style="stroke:#A80036;stroke-width:1.0;"/><polygon fill="#A80036" points="548,893.93,552,884.93,548,888.93,544,884.93,548,893.93" style="stroke:#A80036;stroke-width:1.0;"/><polygon fill="#000000" points="553,860.5664,555.9389,851.5213,550.0611,851.5213,553,860.5664" style="stroke:#000000;stroke-width:1.0;"/><text fill="#000000" font-family="sans-serif" font-size="13" lengthAdjust="spacing" textLength="36" x="562" y="860.0669">event</text><!--MD5=[5310b7429ef001befd0a176a00932538]
reverse link Activity to Involvement--><path codeLine="155" d="M793.24,434.03 C806.72,368.47 821.5,246.05 769,162 C733.6,105.33 660.01,74.69 609.32,59.61 " fill="none" id="Activity-backto-Involvement" style="stroke:#A80036;stroke-width:1.0;"/><polygon fill="none" points="800.07,435.56,788.9,453.57,786.4,432.53,800.07,435.56" style="stroke:#A80036;stroke-width:1.0;"/><!--MD5=[3e6df519c6409dff9ecce5f5942987dd]
link Involvement to Group_or_Organisation_Unit--><path codeLine="233" d="M502.71,49.87 C457.18,55.43 393.97,71.16 361,115 C287.73,212.42 311.06,601.83 321.3,733.35 " fill="none" id="Involvement-to-Group_or_Organisation_Unit" style="stroke:#A80036;stroke-width:1.0;"/><polygon fill="#A80036" points="321.72,738.67,325.0139,729.3883,321.3343,733.6849,317.0377,730.0053,321.72,738.67" style="stroke:#A80036;stroke-width:1.0;"/><polygon fill="#000000" points="312.7173,420.3991,317.8783,412.4106,312.1971,410.9027,312.7173,420.3991" style="stroke:#000000;stroke-width:1.0;"/><text fill="#000000" font-family="sans-serif" font-size="13" lengthAdjust="spacing" textLength="67" x="323" y="420.0669">involved in</text><text fill="#000000" font-family="sans-serif" font-size="13" lengthAdjust="spacing" textLength="23" x="471.8137" y="46.5026">0..*</text><!--MD5=[ec091f800280b56df8e15aaaa2e5104f]
reverse link Affiliation_Statement to Involvement--><path codeLine="687" d="M326.21,46 C386.12,46 456.07,46 502.92,46 " fill="none" id="Affiliation_Statement-backto-Involvement" style="stroke:#A80036;stroke-width:1.0;"/><polygon fill="#A80036" points="321.18,46,330.18,50,326.18,46,330.18,42,321.18,46" style="stroke:#A80036;stroke-width:1.0;"/><polygon fill="#000000" points="340.5,34.5664,349.5451,37.5053,349.5451,31.6275,340.5,34.5664" style="stroke:#000000;stroke-width:1.0;"/><text fill="#000000" font-family="sans-serif" font-size="13" lengthAdjust="spacing" textLength="128" x="354.5" y="39.0669">is the foundation for</text><text fill="#000000" font-family="sans-serif" font-size="13" lengthAdjust="spacing" textLength="23" x="329.1033" y="58.5384">0..*</text><text fill="#000000" font-family="sans-serif" font-size="13" lengthAdjust="spacing" textLength="23" x="472.0493" y="58.9891">0..*</text><!--MD5=[eeb1986463f873db234da87eccdc590b]
link Involvement to Involvement--><path codeLine="691" d="M609.27,38.88 C628.4,38.73 644,41.1 644,46 C644,50.44 631.19,52.8 614.55,53.09 " fill="none" id="Involvement-to-Involvement" style="stroke:#A80036;stroke-width:1.0;"/><polygon fill="#A80036" points="609.27,53.12,618.2927,57.0685,614.2699,53.0914,618.247,49.0686,609.27,53.12" style="stroke:#A80036;stroke-width:1.0;"/><polygon fill="#000000" points="648.9608,51.0663,651.9706,42.0445,646.0929,41.9984,648.9608,51.0663" style="stroke:#000000;stroke-width:1.0;"/><text fill="#000000" font-family="sans-serif" font-size="13" lengthAdjust="spacing" textLength="26" x="663" y="50.5669">part</text><text fill="#000000" font-family="sans-serif" font-size="13" lengthAdjust="spacing" textLength="23" x="617.1638" y="51.0013">0..*</text><text fill="#000000" font-family="sans-serif" font-size="13" lengthAdjust="spacing" textLength="24" x="616.8168" y="66.885">0..1</text><!--MD5=[eeb1986463f873db234da87eccdc590b]
link Involvement to Involvement--><path codeLine="695" d="M609.29,33.43 C650.76,29.05 695,33.23 695,46 C695,58.22 654.48,62.58 614.65,59.08 " fill="none" id="Involvement-to-Involvement-1" style="stroke:#A80036;stroke-width:1.0;"/><polygon fill="#A80036" points="609.29,58.57,617.8584,63.4262,614.2663,59.0562,618.6363,55.4641,609.29,58.57" style="stroke:#A80036;stroke-width:1.0;"/><polygon fill="#000000" points="699.4748,51.0387,703.3475,42.3524,697.5022,41.735,699.4748,51.0387" style="stroke:#000000;stroke-width:1.0;"/><text fill="#000000" font-family="sans-serif" font-size="13" lengthAdjust="spacing" textLength="89" x="714" y="50.5669">part transitive</text><text fill="#000000" font-family="sans-serif" font-size="13" lengthAdjust="spacing" textLength="23" x="617.1863" y="28.059">0..*</text><text fill="#000000" font-family="sans-serif" font-size="13" lengthAdjust="spacing" textLength="23" x="609.7969" y="81.9636">0..*</text><!--MD5=[774ab914c44fde287bade86ae1a1d531]
reverse link Involvement to Membership--><path codeLine="183" d="M547.05,81.67 C543.06,97.08 538.31,115.45 534,132 C529.57,149.05 524.45,168.6 521,181.77 " fill="none" id="Involvement-backto-Membership" style="stroke:#A80036;stroke-width:1.0;"/><polygon fill="none" points="540.34,79.66,552.12,62.05,553.89,83.17,540.34,79.66" style="stroke:#A80036;stroke-width:1.0;"/><!--MD5=[e6302ca8d503674dcb8235c7c53cdc01]
reverse link Involvement to Education--><path codeLine="174" d="M581.35,77.91 C603.96,105.49 636.68,145.39 657.89,171.26 " fill="none" id="Involvement-backto-Education" style="stroke:#A80036;stroke-width:1.0;"/><polygon fill="none" points="575.74,82.11,568.47,62.21,586.57,73.24,575.74,82.11" style="stroke:#A80036;stroke-width:1.0;"/><!--MD5=[5dcf1ca4d8097aa908f88de41c3d702a]
reverse link Involvement to Employment--><path codeLine="164" d="M629.22,55.18 C686.73,63.89 767.45,81.27 831,115 C863.31,132.15 893.28,163.27 909.47,181.85 " fill="none" id="Involvement-backto-Employment" style="stroke:#A80036;stroke-width:1.0;"/><polygon fill="none" points="627.98,62.07,609.15,52.35,629.94,48.21,627.98,62.07" style="stroke:#A80036;stroke-width:1.0;"/><!--MD5=[61f16e3d960520d2b039fd3aa546c893]
link Affiliation_Statement to Contact_Information--><path codeLine="384" d="M142.69,85.09 C106.5,111.28 69,149.8 69,197 C69,197 69,197 69,624 C69,671.8 77.3,727.5 82.3,756.72 " fill="none" id="Affiliation_Statement-to-Contact_Information" style="stroke:#A80036;stroke-width:1.0;"/><polygon fill="#A80036" points="83.19,761.86,85.5888,752.3077,82.3333,756.9339,77.7071,753.6785,83.19,761.86" style="stroke:#A80036;stroke-width:1.0;"/><polygon fill="#000000" points="73.5522,420.5463,77.2894,411.8008,71.4351,411.2744,73.5522,420.5463" style="stroke:#000000;stroke-width:1.0;"/><text fill="#000000" font-family="sans-serif" font-size="13" lengthAdjust="spacing" textLength="55" x="83" y="420.0669">contacts</text><text fill="#000000" font-family="sans-serif" font-size="13" lengthAdjust="spacing" textLength="23" x="55.2709" y="750.8235">0..*</text><!--MD5=[335bc652314d68e20c6b9db39c8a9e92]
reverse link Activity to Affiliation_Statement--><path codeLine="500" d="M735.12,446.08 C669.81,399.34 547.98,311.45 446,234 C379.43,183.44 303.81,123.29 256.26,85.13 " fill="none" id="Activity-backto-Affiliation_Statement" style="stroke:#A80036;stroke-width:1.0;"/><polygon fill="#FFFFFF" points="745.87,453.77,743.3212,447.0244,736.1141,446.7827,738.6629,453.5283,745.87,453.77" style="stroke:#A80036;stroke-width:1.0;"/><polygon fill="#000000" points="506.0072,269.5568,511.4612,277.3481,514.9992,272.6544,506.0072,269.5568" style="stroke:#000000;stroke-width:1.0;"/><text fill="#000000" font-family="sans-serif" font-size="13" lengthAdjust="spacing" textLength="61" x="519" y="277.0669">affilations</text><text fill="#000000" font-family="sans-serif" font-size="13" lengthAdjust="spacing" textLength="23" x="711.8556" y="442.9591">0..*</text><text fill="#000000" font-family="sans-serif" font-size="13" lengthAdjust="spacing" textLength="23" x="239.6298" y="105.4778">0..*</text><!--MD5=[985660d160cc1234ef784a412fcab047]
reverse link Contribution to Contribution_Statement--><path codeLine="504" d="M777.95,652.19 C773.86,680.6 767.61,724.05 763.67,751.47 " fill="none" id="Contribution-backto-Contribution_Statement" style="stroke:#A80036;stroke-width:1.0;"/><polygon fill="#A80036" points="779.81,639.23,774.9992,644.6018,778.1074,651.1086,782.9182,645.7368,779.81,639.23" style="stroke:#A80036;stroke-width:1.0;"/><polygon fill="#000000" points="775.2881,705.5155,779.4849,696.9809,773.6669,696.1441,775.2881,705.5155" style="stroke:#000000;stroke-width:1.0;"/><text fill="#000000" font-family="sans-serif" font-size="13" lengthAdjust="spacing" textLength="80" x="785" y="705.0669">is detailed in</text><text fill="#000000" font-family="sans-serif" font-size="13" lengthAdjust="spacing" textLength="23" x="738.7614" y="740.2821">0..*</text><!--MD5=[d43df4fbdad36fd00892352d175d5460]
link Agent to Contact_Information--><path codeLine="18" d="M389.62,662.02 C306.48,693.5 192.31,736.74 130.35,760.2 " fill="none" id="Agent-to-Contact_Information" style="stroke:#A80036;stroke-width:1.0;"/><polygon fill="#A80036" points="125.62,762,135.4535,762.549,130.2952,760.2272,132.617,755.0688,125.62,762" style="stroke:#A80036;stroke-width:1.0;"/><polygon fill="#000000" points="300.324,702.3371,309.8237,701.8824,307.7422,696.3854,300.324,702.3371" style="stroke:#000000;stroke-width:1.0;"/><text fill="#000000" font-family="sans-serif" font-size="13" lengthAdjust="spacing" textLength="55" x="314" y="705.0669">contacts</text><text fill="#000000" font-family="sans-serif" font-size="13" lengthAdjust="spacing" textLength="8" x="363.0273" y="682.3482">1</text><text fill="#000000" font-family="sans-serif" font-size="13" lengthAdjust="spacing" textLength="23" x="112.2863" y="751.0116">0..*</text><!--MD5=[8baa0633a34be8ca6adcc4fd46743d97]
reverse link Agent to Group_or_Organisation_Unit--><path codeLine="102" d="M477.27,681.43 C473.23,691.38 467.94,701.06 461,709 C450.84,720.63 438.22,730.5 424.8,738.8 " fill="none" id="Agent-backto-Group_or_Organisation_Unit" style="stroke:#A80036;stroke-width:1.0;"/><polygon fill="none" points="470.65,679.16,483.59,662.37,483.94,683.56,470.65,679.16" style="stroke:#A80036;stroke-width:1.0;"/><!--MD5=[3de6c2a89a8a49a9b82ca15cd383fd75]
link Affiliation_Statement to Position--><path codeLine="675" d="M207.73,85.24 C207,107.1 206.08,134.49 205.34,156.68 " fill="none" id="Affiliation_Statement-to-Position" style="stroke:#A80036;stroke-width:1.0;"/><polygon fill="#A80036" points="205.17,161.91,209.476,153.0523,205.3413,156.9129,201.4807,152.7782,205.17,161.91" style="stroke:#A80036;stroke-width:1.0;"/><polygon fill="#000000" points="211.8328,128.5636,215.0725,119.6218,209.198,119.4253,211.8328,128.5636" style="stroke:#000000;stroke-width:1.0;"/><text fill="#000000" font-family="sans-serif" font-size="13" lengthAdjust="spacing" textLength="50" x="221" y="128.0669">position</text><text fill="#000000" font-family="sans-serif" font-size="13" lengthAdjust="spacing" textLength="23" x="182.4553" y="105.6074">0..*</text><text fill="#000000" font-family="sans-serif" font-size="13" lengthAdjust="spacing" textLength="24" x="179.1732" y="150.994">0..1</text><!--MD5=[d6510b82a04cb388394283fdb06ac616]
link Employment to Document--><path codeLine="679" d="M923.05,214.14 C924.55,235.71 927.35,275.97 929.41,305.78 " fill="none" id="Employment-to-Document" style="stroke:#A80036;stroke-width:1.0;"/><polygon fill="#A80036" points="929.77,310.84,933.1449,301.5874,929.4279,305.8517,925.1637,302.1347,929.77,310.84" style="stroke:#A80036;stroke-width:1.0;"/><polygon fill="#000000" points="932.3462,277.5544,934.6518,268.3276,928.7881,268.7345,932.3462,277.5544" style="stroke:#000000;stroke-width:1.0;"/><text fill="#000000" font-family="sans-serif" font-size="13" lengthAdjust="spacing" textLength="53" x="941" y="277.0669">contract</text><text fill="#000000" font-family="sans-serif" font-size="13" lengthAdjust="spacing" textLength="24" x="895.4228" y="234.0596">0..1</text><text fill="#000000" font-family="sans-serif" font-size="13" lengthAdjust="spacing" textLength="23" x="904.0669" y="299.9535">0..*</text><!--MD5=[714662591c02188f1682f6888921effc]
link Involvement to Position--><path codeLine="683" d="M520.64,62.07 C467.41,84.75 365.08,128.36 291.13,159.87 " fill="none" id="Involvement-to-Position" style="stroke:#A80036;stroke-width:1.0;"/><polygon fill="#A80036" points="286.3,161.93,296.148,162.0613,290.8957,159.9604,292.9966,154.7081,286.3,161.93" style="stroke:#A80036;stroke-width:1.0;"/><polygon fill="#000000" points="390.4002,125.5265,399.8734,124.6844,397.5692,119.277,390.4002,125.5265" style="stroke:#000000;stroke-width:1.0;"/><text fill="#000000" font-family="sans-serif" font-size="13" lengthAdjust="spacing" textLength="50" x="404" y="128.0669">position</text><text fill="#000000" font-family="sans-serif" font-size="13" lengthAdjust="spacing" textLength="23" x="482.1176" y="81.9665">0..*</text><text fill="#000000" font-family="sans-serif" font-size="13" lengthAdjust="spacing" textLength="24" x="275.2616" y="151.0177">0..1</text><!--MD5=[5d78004c20484a0866abe46f9a32927f]
@startuml

    !includesub core.puml!common
    !includesub core.puml!Activity
    !includesub core.puml!Contribution
    !includesub core.puml!Contribution_to_Document
    !includesub core.puml!Contribution_to_Project
    !includesub core.puml!Contribution_to_Event
    !includesub core.puml!Involvement
    !includesub core.puml!Membership
    !includesub core.puml!Education
    !includesub core.puml!Employment
    !includesub core.puml!Affiliation_Statement
    !includesub core.puml!Contribution_Statement
    !includesub core.puml!Resource
    !includesub core.puml!Document
    !includesub core.puml!Project
    !includesub core.puml!Event
    !includesub core.puml!Agent
    !includesub core.puml!Group_or_Organisation_Unit
    !includesub core.puml!Position

@enduml

@startuml

    hide empty members
    skinparam BoxPadding 120
    class "Activity" #ffffff {
  		dateRange : Date_Range
    }
	"Document" "0..*" - - "0..*" "Activity" : prove >
    "Activity" "0..*" - -> "0..1" "Agent" : actor >
    class "Contribution" #ffffff {
    }
    "Activity" <|-d- "Contribution"
     "Contribution_Statement" - -> "0..1" "Resource" : provides >
    class "Contribution_to_Document" #ffffff {
    }
    "Contribution" <|-d- "Contribution_to_Document"
    "Contribution_to_Document" - -> "Document" : document >
    class "Contribution_to_Project" #ffffff {
    }
    "Contribution" <|-d- "Contribution_to_Project"
    "Contribution_to_Project" - -> "Project" : project >
    class "Contribution_to_Event" #ffffff {
    }
    "Contribution" <|-d- "Contribution_to_Event"
    "Contribution_to_Event" - -> "Event" : event >
    class "Involvement" #ffffff {
    }
   "Activity" <|-d- "Involvement"
	"Involvement" "0..*" - -> "Group_or_Organisation_Unit" : involved in >
	"Involvement" "0..*" -l-> "0..*" "Affiliation_Statement" : is the foundation for >
	"Involvement" "0..*" - -> "0..1" "Involvement" : part >
	"Involvement" "0..*" - -> "0..*" "Involvement" : part transitive >
    class "Membership" #ffffff {
    }
    "Involvement" <|-d- "Membership"
    class "Education" #ffffff {
        completed   :   Boolean
    }
    "Involvement" <|-d- "Education"
    class "Employment" #ffffff {
    }
    "Involvement" <|-d- "Employment"
    class "Affiliation_Statement" #ffffff {
        displayAffiliation_Statement : String
        displayPersonName : String
        contacts : List<Contact_Information>
    }
    "Affiliation_Statement" - -> "0..*" "Contact_Information" : contacts >
    "Activity" "0..*" o- - "0..*" "Affiliation_Statement" : affilations >
    class "Contribution_Statement" #ffffff {
        statement : Multilingual_String
    }
    "Contribution" *- - "0..*" "Contribution_Statement" : is detailed in >
    class "Resource" #ffffff {
    }
    class "Document" #ffffff {
        title : Multilingual_String
        publicationDate : Date
    }
    class "Project" #ffffff {
    }
    class "Event" #ffffff {
    }
    class "Agent" #ffffff {
        keywords : List<Multilingual_String>
    	lifetime : Date_Range
    	contacts : List<Contact_Information>
    }
    "Agent" "1" - -> "0..*" "Contact_Information" : contacts >
    class "Group_or_Organisation_Unit" #ffffff {
        name : Multilingual_String
        acronym : String
        description : Multilingual_String
    }
	"Agent" <|- - "Group_or_Organisation_Unit"
    class Position << (D,#add0b2) DataType>> #ffffff {
        title   :   Multilingual_String
        code    :   String
	}
	"Affiliation_Statement" "0..*" - -> "0..1" "Position" : position >
	"Employment" "0..1" - -> "0..*" "Document" : contract >
	"Involvement" "0..*" - -> "0..1" "Position" : position >

@enduml

PlantUML version 1.2021.8(Sat Jun 26 08:20:59 UTC 2021)
(GPL source distribution)
Java Runtime: OpenJDK Runtime Environment
JVM: OpenJDK 64-Bit Server VM
Default Encoding: UTF-8
Language: en
Country: null
--></g></svg>