<?xml version="1.0" encoding="UTF-8" standalone="no"?><svg xmlns="http://www.w3.org/2000/svg" xmlns:xlink="http://www.w3.org/1999/xlink" contentScriptType="application/ecmascript" contentStyleType="text/css" height="671px" preserveAspectRatio="none" style="width:1379px;height:671px;background:#FFFFFF;" version="1.1" viewBox="0 0 1379 671" width="1379px" zoomAndPan="magnify"><defs><filter height="300%" id="f1hes3t1xwtrgl" width="300%" x="-1" y="-1"><feGaussianBlur result="blurOut" stdDeviation="2.0"/><feColorMatrix in="blurOut" result="blurOut2" type="matrix" values="0 0 0 0 0 0 0 0 0 0 0 0 0 0 0 0 0 0 .4 0"/><feOffset dx="4.0" dy="4.0" in="blurOut2" result="blurOut3"/><feBlend in="SourceGraphic" in2="blurOut3" mode="normal"/></filter></defs><g><!--MD5=[c881b25adf3665c6568c9693d41a70f3]
class Activity--><rect codeLine="52" fill="#FFFFFF" filter="url(#f1hes3t1xwtrgl)" height="32" id="Activity" style="stroke:#A80036;stroke-width:1.5;" width="75" x="866.5" y="7"/><ellipse cx="881.5" cy="23" fill="#ADD1B2" rx="11" ry="11" style="stroke:#A80036;stroke-width:1.0;"/><path d="M884.4688,28.6406 Q883.8906,28.9375 883.25,29.0781 Q882.6094,29.2344 881.9063,29.2344 Q879.4063,29.2344 878.0781,27.5938 Q876.7656,25.9375 876.7656,22.8125 Q876.7656,19.6875 878.0781,18.0313 Q879.4063,16.375 881.9063,16.375 Q882.6094,16.375 883.25,16.5313 Q883.9063,16.6875 884.4688,16.9844 L884.4688,19.7031 Q883.8438,19.125 883.25,18.8594 Q882.6563,18.5781 882.0313,18.5781 Q880.6875,18.5781 880,19.6563 Q879.3125,20.7188 879.3125,22.8125 Q879.3125,24.9063 880,25.9844 Q880.6875,27.0469 882.0313,27.0469 Q882.6563,27.0469 883.25,26.7813 Q883.8438,26.5 884.4688,25.9219 L884.4688,28.6406 Z " fill="#000000"/><text fill="#000000" font-family="sans-serif" font-size="12" lengthAdjust="spacing" textLength="43" x="895.5" y="27.1543">Activity</text><!--MD5=[9d44916250b776386006c440668bcfbb]
class Agent--><rect codeLine="23" fill="#FFFFFF" filter="url(#f1hes3t1xwtrgl)" height="32" id="Agent" style="stroke:#A80036;stroke-width:1.5;" width="69" x="303.5" y="625"/><ellipse cx="318.5" cy="641" fill="#ADD1B2" rx="11" ry="11" style="stroke:#A80036;stroke-width:1.0;"/><path d="M321.4688,646.6406 Q320.8906,646.9375 320.25,647.0781 Q319.6094,647.2344 318.9063,647.2344 Q316.4063,647.2344 315.0781,645.5938 Q313.7656,643.9375 313.7656,640.8125 Q313.7656,637.6875 315.0781,636.0313 Q316.4063,634.375 318.9063,634.375 Q319.6094,634.375 320.25,634.5313 Q320.9063,634.6875 321.4688,634.9844 L321.4688,637.7031 Q320.8438,637.125 320.25,636.8594 Q319.6563,636.5781 319.0313,636.5781 Q317.6875,636.5781 317,637.6563 Q316.3125,638.7188 316.3125,640.8125 Q316.3125,642.9063 317,643.9844 Q317.6875,645.0469 319.0313,645.0469 Q319.6563,645.0469 320.25,644.7813 Q320.8438,644.5 321.4688,643.9219 L321.4688,646.6406 Z " fill="#000000"/><text fill="#000000" font-family="sans-serif" font-size="12" lengthAdjust="spacing" textLength="37" x="332.5" y="645.1543">Agent</text><!--MD5=[0330879a1a385efee19ba3488ed490fa]
class Contribution--><rect codeLine="88" fill="#FFFFFF" filter="url(#f1hes3t1xwtrgl)" height="32" id="Contribution" style="stroke:#A80036;stroke-width:1.5;" width="109" x="406.5" y="145.5"/><ellipse cx="421.5" cy="161.5" fill="#ADD1B2" rx="11" ry="11" style="stroke:#A80036;stroke-width:1.0;"/><path d="M424.4688,167.1406 Q423.8906,167.4375 423.25,167.5781 Q422.6094,167.7344 421.9063,167.7344 Q419.4063,167.7344 418.0781,166.0938 Q416.7656,164.4375 416.7656,161.3125 Q416.7656,158.1875 418.0781,156.5313 Q419.4063,154.875 421.9063,154.875 Q422.6094,154.875 423.25,155.0313 Q423.9063,155.1875 424.4688,155.4844 L424.4688,158.2031 Q423.8438,157.625 423.25,157.3594 Q422.6563,157.0781 422.0313,157.0781 Q420.6875,157.0781 420,158.1563 Q419.3125,159.2188 419.3125,161.3125 Q419.3125,163.4063 420,164.4844 Q420.6875,165.5469 422.0313,165.5469 Q422.6563,165.5469 423.25,165.2813 Q423.8438,165 424.4688,164.4219 L424.4688,167.1406 Z " fill="#000000"/><text fill="#000000" font-family="sans-serif" font-size="12" lengthAdjust="spacing" textLength="77" x="435.5" y="165.6543">Contribution</text><!--MD5=[532fe005ca0bef0ad6b309c9c6480e22]
class Contribution_Statement--><rect codeLine="94" fill="#FFFFFF" filter="url(#f1hes3t1xwtrgl)" height="52.8047" id="Contribution_Statement" style="stroke:#A80036;stroke-width:1.5;" width="185" x="645.5" y="135"/><ellipse cx="662.3" cy="151" fill="#ADD1B2" rx="11" ry="11" style="stroke:#A80036;stroke-width:1.0;"/><path d="M665.2688,156.6406 Q664.6906,156.9375 664.05,157.0781 Q663.4094,157.2344 662.7063,157.2344 Q660.2063,157.2344 658.8781,155.5938 Q657.5656,153.9375 657.5656,150.8125 Q657.5656,147.6875 658.8781,146.0313 Q660.2063,144.375 662.7063,144.375 Q663.4094,144.375 664.05,144.5313 Q664.7063,144.6875 665.2688,144.9844 L665.2688,147.7031 Q664.6438,147.125 664.05,146.8594 Q663.4563,146.5781 662.8313,146.5781 Q661.4875,146.5781 660.8,147.6563 Q660.1125,148.7188 660.1125,150.8125 Q660.1125,152.9063 660.8,153.9844 Q661.4875,155.0469 662.8313,155.0469 Q663.4563,155.0469 664.05,154.7813 Q664.6438,154.5 665.2688,153.9219 L665.2688,156.6406 Z " fill="#000000"/><text fill="#000000" font-family="sans-serif" font-size="12" lengthAdjust="spacing" textLength="149" x="676.7" y="155.1543">Contribution_Statement</text><line style="stroke:#A80036;stroke-width:1.5;" x1="646.5" x2="829.5" y1="167" y2="167"/><text fill="#000000" font-family="sans-serif" font-size="11" lengthAdjust="spacing" textLength="173" x="651.5" y="181.2104">statement : Multilingual_String</text><!--MD5=[6b13f1b330d33795af281e5c1dfe1e98]
class Resource--><rect codeLine="98" fill="#FFFFFF" filter="url(#f1hes3t1xwtrgl)" height="32" id="Resource" style="stroke:#A80036;stroke-width:1.5;" width="91" x="739.5" y="284"/><ellipse cx="754.5" cy="300" fill="#ADD1B2" rx="11" ry="11" style="stroke:#A80036;stroke-width:1.0;"/><path d="M757.4688,305.6406 Q756.8906,305.9375 756.25,306.0781 Q755.6094,306.2344 754.9063,306.2344 Q752.4063,306.2344 751.0781,304.5938 Q749.7656,302.9375 749.7656,299.8125 Q749.7656,296.6875 751.0781,295.0313 Q752.4063,293.375 754.9063,293.375 Q755.6094,293.375 756.25,293.5313 Q756.9063,293.6875 757.4688,293.9844 L757.4688,296.7031 Q756.8438,296.125 756.25,295.8594 Q755.6563,295.5781 755.0313,295.5781 Q753.6875,295.5781 753,296.6563 Q752.3125,297.7188 752.3125,299.8125 Q752.3125,301.9063 753,302.9844 Q753.6875,304.0469 755.0313,304.0469 Q755.6563,304.0469 756.25,303.7813 Q756.8438,303.5 757.4688,302.9219 L757.4688,305.6406 Z " fill="#000000"/><text fill="#000000" font-family="sans-serif" font-size="12" lengthAdjust="spacing" textLength="59" x="768.5" y="304.1543">Resource</text><!--MD5=[92dc6ef2f70a23983af4e570fc6275cd]
class Funding--><rect codeLine="101" fill="#FFFFFF" filter="url(#f1hes3t1xwtrgl)" height="32" id="Funding" style="stroke:#A80036;stroke-width:1.5;" width="82" x="744" y="416"/><ellipse cx="759" cy="432" fill="#ADD1B2" rx="11" ry="11" style="stroke:#A80036;stroke-width:1.0;"/><path d="M761.9688,437.6406 Q761.3906,437.9375 760.75,438.0781 Q760.1094,438.2344 759.4063,438.2344 Q756.9063,438.2344 755.5781,436.5938 Q754.2656,434.9375 754.2656,431.8125 Q754.2656,428.6875 755.5781,427.0313 Q756.9063,425.375 759.4063,425.375 Q760.1094,425.375 760.75,425.5313 Q761.4063,425.6875 761.9688,425.9844 L761.9688,428.7031 Q761.3438,428.125 760.75,427.8594 Q760.1563,427.5781 759.5313,427.5781 Q758.1875,427.5781 757.5,428.6563 Q756.8125,429.7188 756.8125,431.8125 Q756.8125,433.9063 757.5,434.9844 Q758.1875,436.0469 759.5313,436.0469 Q760.1563,436.0469 760.75,435.7813 Q761.3438,435.5 761.9688,434.9219 L761.9688,437.6406 Z " fill="#000000"/><text fill="#000000" font-family="sans-serif" font-size="12" lengthAdjust="spacing" textLength="50" x="773" y="436.1543">Funding</text><!--MD5=[05151c161079be2c12996cf31a3c6866]
class Contribution_to_Document--><rect codeLine="107" fill="#FFFFFF" filter="url(#f1hes3t1xwtrgl)" height="32" id="Contribution_to_Document" style="stroke:#A80036;stroke-width:1.5;" width="198" x="90" y="284"/><ellipse cx="105" cy="300" fill="#ADD1B2" rx="11" ry="11" style="stroke:#A80036;stroke-width:1.0;"/><path d="M107.9688,305.6406 Q107.3906,305.9375 106.75,306.0781 Q106.1094,306.2344 105.4063,306.2344 Q102.9063,306.2344 101.5781,304.5938 Q100.2656,302.9375 100.2656,299.8125 Q100.2656,296.6875 101.5781,295.0313 Q102.9063,293.375 105.4063,293.375 Q106.1094,293.375 106.75,293.5313 Q107.4063,293.6875 107.9688,293.9844 L107.9688,296.7031 Q107.3438,296.125 106.75,295.8594 Q106.1563,295.5781 105.5313,295.5781 Q104.1875,295.5781 103.5,296.6563 Q102.8125,297.7188 102.8125,299.8125 Q102.8125,301.9063 103.5,302.9844 Q104.1875,304.0469 105.5313,304.0469 Q106.1563,304.0469 106.75,303.7813 Q107.3438,303.5 107.9688,302.9219 L107.9688,305.6406 Z " fill="#000000"/><text fill="#000000" font-family="sans-serif" font-size="12" lengthAdjust="spacing" textLength="166" x="119" y="304.1543">Contribution_to_Document</text><!--MD5=[59b530d44ae785dc18db921986a9c15c]
class Document--><rect codeLine="8" fill="#FFFFFF" filter="url(#f1hes3t1xwtrgl)" height="78.4141" id="Document" style="stroke:#A80036;stroke-width:1.5;" width="148" x="7" y="393"/><ellipse cx="45.4" cy="409" fill="#ADD1B2" rx="11" ry="11" style="stroke:#A80036;stroke-width:1.0;"/><path d="M48.3688,414.6406 Q47.7906,414.9375 47.15,415.0781 Q46.5094,415.2344 45.8063,415.2344 Q43.3063,415.2344 41.9781,413.5938 Q40.6656,411.9375 40.6656,408.8125 Q40.6656,405.6875 41.9781,404.0313 Q43.3063,402.375 45.8063,402.375 Q46.5094,402.375 47.15,402.5313 Q47.8063,402.6875 48.3688,402.9844 L48.3688,405.7031 Q47.7438,405.125 47.15,404.8594 Q46.5563,404.5781 45.9313,404.5781 Q44.5875,404.5781 43.9,405.6563 Q43.2125,406.7188 43.2125,408.8125 Q43.2125,410.9063 43.9,411.9844 Q44.5875,413.0469 45.9313,413.0469 Q46.5563,413.0469 47.15,412.7813 Q47.7438,412.5 48.3688,411.9219 L48.3688,414.6406 Z " fill="#000000"/><text fill="#000000" font-family="sans-serif" font-size="12" lengthAdjust="spacing" textLength="64" x="64.6" y="413.1543">Document</text><line style="stroke:#A80036;stroke-width:1.5;" x1="8" x2="154" y1="425" y2="425"/><text fill="#000000" font-family="sans-serif" font-size="11" lengthAdjust="spacing" textLength="85" x="13" y="439.2104">DOI : DOI_Type</text><text fill="#000000" font-family="sans-serif" font-size="11" lengthAdjust="spacing" textLength="136" x="13" y="452.0151">title : Multilingual_String</text><text fill="#000000" font-family="sans-serif" font-size="11" lengthAdjust="spacing" textLength="125" x="13" y="464.8198">publicationDate : Date</text><!--MD5=[3b25461e5df73ababc6765bb9b0c47d3]
class Authorship--><rect codeLine="112" fill="#FFFFFF" filter="url(#f1hes3t1xwtrgl)" height="52.8047" id="Authorship" style="stroke:#A80036;stroke-width:1.5;" width="212" x="190" y="405.5"/><ellipse cx="257.75" cy="421.5" fill="#ADD1B2" rx="11" ry="11" style="stroke:#A80036;stroke-width:1.0;"/><path d="M260.7188,427.1406 Q260.1406,427.4375 259.5,427.5781 Q258.8594,427.7344 258.1563,427.7344 Q255.6563,427.7344 254.3281,426.0938 Q253.0156,424.4375 253.0156,421.3125 Q253.0156,418.1875 254.3281,416.5313 Q255.6563,414.875 258.1563,414.875 Q258.8594,414.875 259.5,415.0313 Q260.1563,415.1875 260.7188,415.4844 L260.7188,418.2031 Q260.0938,417.625 259.5,417.3594 Q258.9063,417.0781 258.2813,417.0781 Q256.9375,417.0781 256.25,418.1563 Q255.5625,419.2188 255.5625,421.3125 Q255.5625,423.4063 256.25,424.4844 Q256.9375,425.5469 258.2813,425.5469 Q258.9063,425.5469 259.5,425.2813 Q260.0938,425 260.7188,424.4219 L260.7188,427.1406 Z " fill="#000000"/><text fill="#000000" font-family="sans-serif" font-size="12" lengthAdjust="spacing" textLength="68" x="278.25" y="425.6543">Authorship</text><line style="stroke:#A80036;stroke-width:1.5;" x1="191" x2="401" y1="437.5" y2="437.5"/><text fill="#000000" font-family="sans-serif" font-size="11" lengthAdjust="spacing" textLength="200" x="196" y="451.7104">correspondingAuthorFlag : Boolean</text><!--MD5=[fe105c2ee1fabf2400c31a97ce9128bc]
class Textual_Document--><rect codeLine="13" fill="#FFFFFF" filter="url(#f1hes3t1xwtrgl)" height="32" id="Textual_Document" style="stroke:#A80036;stroke-width:1.5;" width="147" x="137.5" y="532"/><ellipse cx="152.5" cy="548" fill="#ADD1B2" rx="11" ry="11" style="stroke:#A80036;stroke-width:1.0;"/><path d="M155.4688,553.6406 Q154.8906,553.9375 154.25,554.0781 Q153.6094,554.2344 152.9063,554.2344 Q150.4063,554.2344 149.0781,552.5938 Q147.7656,550.9375 147.7656,547.8125 Q147.7656,544.6875 149.0781,543.0313 Q150.4063,541.375 152.9063,541.375 Q153.6094,541.375 154.25,541.5313 Q154.9063,541.6875 155.4688,541.9844 L155.4688,544.7031 Q154.8438,544.125 154.25,543.8594 Q153.6563,543.5781 153.0313,543.5781 Q151.6875,543.5781 151,544.6563 Q150.3125,545.7188 150.3125,547.8125 Q150.3125,549.9063 151,550.9844 Q151.6875,552.0469 153.0313,552.0469 Q153.6563,552.0469 154.25,551.7813 Q154.8438,551.5 155.4688,550.9219 L155.4688,553.6406 Z " fill="#000000"/><text fill="#000000" font-family="sans-serif" font-size="12" lengthAdjust="spacing" textLength="115" x="166.5" y="552.1543">Textual_Document</text><!--MD5=[d8ce9658d3ea3b764ca76e27f1ae6382]
class Contribution_to_Project--><rect codeLine="72" fill="#FFFFFF" filter="url(#f1hes3t1xwtrgl)" height="32" id="Contribution_to_Project" style="stroke:#A80036;stroke-width:1.5;" width="178" x="323" y="284"/><ellipse cx="338" cy="300" fill="#ADD1B2" rx="11" ry="11" style="stroke:#A80036;stroke-width:1.0;"/><path d="M340.9688,305.6406 Q340.3906,305.9375 339.75,306.0781 Q339.1094,306.2344 338.4063,306.2344 Q335.9063,306.2344 334.5781,304.5938 Q333.2656,302.9375 333.2656,299.8125 Q333.2656,296.6875 334.5781,295.0313 Q335.9063,293.375 338.4063,293.375 Q339.1094,293.375 339.75,293.5313 Q340.4063,293.6875 340.9688,293.9844 L340.9688,296.7031 Q340.3438,296.125 339.75,295.8594 Q339.1563,295.5781 338.5313,295.5781 Q337.1875,295.5781 336.5,296.6563 Q335.8125,297.7188 335.8125,299.8125 Q335.8125,301.9063 336.5,302.9844 Q337.1875,304.0469 338.5313,304.0469 Q339.1563,304.0469 339.75,303.7813 Q340.3438,303.5 340.9688,302.9219 L340.9688,305.6406 Z " fill="#000000"/><text fill="#000000" font-family="sans-serif" font-size="12" lengthAdjust="spacing" textLength="146" x="352" y="304.1543">Contribution_to_Project</text><!--MD5=[79d378210367c0c6ec62ef762ddfbd1b]
class Project--><rect codeLine="75" fill="#FFFFFF" filter="url(#f1hes3t1xwtrgl)" height="32" id="Project" style="stroke:#A80036;stroke-width:1.5;" width="76" x="437" y="416"/><ellipse cx="452" cy="432" fill="#ADD1B2" rx="11" ry="11" style="stroke:#A80036;stroke-width:1.0;"/><path d="M454.9688,437.6406 Q454.3906,437.9375 453.75,438.0781 Q453.1094,438.2344 452.4063,438.2344 Q449.9063,438.2344 448.5781,436.5938 Q447.2656,434.9375 447.2656,431.8125 Q447.2656,428.6875 448.5781,427.0313 Q449.9063,425.375 452.4063,425.375 Q453.1094,425.375 453.75,425.5313 Q454.4063,425.6875 454.9688,425.9844 L454.9688,428.7031 Q454.3438,428.125 453.75,427.8594 Q453.1563,427.5781 452.5313,427.5781 Q451.1875,427.5781 450.5,428.6563 Q449.8125,429.7188 449.8125,431.8125 Q449.8125,433.9063 450.5,434.9844 Q451.1875,436.0469 452.5313,436.0469 Q453.1563,436.0469 453.75,435.7813 Q454.3438,435.5 454.9688,434.9219 L454.9688,437.6406 Z " fill="#000000"/><text fill="#000000" font-family="sans-serif" font-size="12" lengthAdjust="spacing" textLength="44" x="466" y="436.1543">Project</text><!--MD5=[e02578a13076095640a9a08de0c36172]
class Contribution_to_Event--><rect codeLine="80" fill="#FFFFFF" filter="url(#f1hes3t1xwtrgl)" height="32" id="Contribution_to_Event" style="stroke:#A80036;stroke-width:1.5;" width="169" x="535.5" y="284"/><ellipse cx="550.5" cy="300" fill="#ADD1B2" rx="11" ry="11" style="stroke:#A80036;stroke-width:1.0;"/><path d="M553.4688,305.6406 Q552.8906,305.9375 552.25,306.0781 Q551.6094,306.2344 550.9063,306.2344 Q548.4063,306.2344 547.0781,304.5938 Q545.7656,302.9375 545.7656,299.8125 Q545.7656,296.6875 547.0781,295.0313 Q548.4063,293.375 550.9063,293.375 Q551.6094,293.375 552.25,293.5313 Q552.9063,293.6875 553.4688,293.9844 L553.4688,296.7031 Q552.8438,296.125 552.25,295.8594 Q551.6563,295.5781 551.0313,295.5781 Q549.6875,295.5781 549,296.6563 Q548.3125,297.7188 548.3125,299.8125 Q548.3125,301.9063 549,302.9844 Q549.6875,304.0469 551.0313,304.0469 Q551.6563,304.0469 552.25,303.7813 Q552.8438,303.5 553.4688,302.9219 L553.4688,305.6406 Z " fill="#000000"/><text fill="#000000" font-family="sans-serif" font-size="12" lengthAdjust="spacing" textLength="137" x="564.5" y="304.1543">Contribution_to_Event</text><!--MD5=[ac13618b1a974308c1f12eb6c57723dc]
class Event--><rect codeLine="83" fill="#FFFFFF" filter="url(#f1hes3t1xwtrgl)" height="32" id="Event" style="stroke:#A80036;stroke-width:1.5;" width="67" x="586.5" y="416"/><ellipse cx="601.5" cy="432" fill="#ADD1B2" rx="11" ry="11" style="stroke:#A80036;stroke-width:1.0;"/><path d="M604.4688,437.6406 Q603.8906,437.9375 603.25,438.0781 Q602.6094,438.2344 601.9063,438.2344 Q599.4063,438.2344 598.0781,436.5938 Q596.7656,434.9375 596.7656,431.8125 Q596.7656,428.6875 598.0781,427.0313 Q599.4063,425.375 601.9063,425.375 Q602.6094,425.375 603.25,425.5313 Q603.9063,425.6875 604.4688,425.9844 L604.4688,428.7031 Q603.8438,428.125 603.25,427.8594 Q602.6563,427.5781 602.0313,427.5781 Q600.6875,427.5781 600,428.6563 Q599.3125,429.7188 599.3125,431.8125 Q599.3125,433.9063 600,434.9844 Q600.6875,436.0469 602.0313,436.0469 Q602.6563,436.0469 603.25,435.7813 Q603.8438,435.5 604.4688,434.9219 L604.4688,437.6406 Z " fill="#000000"/><text fill="#000000" font-family="sans-serif" font-size="12" lengthAdjust="spacing" textLength="35" x="615.5" y="436.1543">Event</text><!--MD5=[77463bb17ddcfe3891c27a1f4a877731]
class Membership--><rect codeLine="57" fill="#FFFFFF" filter="url(#f1hes3t1xwtrgl)" height="32" id="Membership" style="stroke:#A80036;stroke-width:1.5;" width="108" x="937" y="145.5"/><ellipse cx="952" cy="161.5" fill="#ADD1B2" rx="11" ry="11" style="stroke:#A80036;stroke-width:1.0;"/><path d="M954.9688,167.1406 Q954.3906,167.4375 953.75,167.5781 Q953.1094,167.7344 952.4063,167.7344 Q949.9063,167.7344 948.5781,166.0938 Q947.2656,164.4375 947.2656,161.3125 Q947.2656,158.1875 948.5781,156.5313 Q949.9063,154.875 952.4063,154.875 Q953.1094,154.875 953.75,155.0313 Q954.4063,155.1875 954.9688,155.4844 L954.9688,158.2031 Q954.3438,157.625 953.75,157.3594 Q953.1563,157.0781 952.5313,157.0781 Q951.1875,157.0781 950.5,158.1563 Q949.8125,159.2188 949.8125,161.3125 Q949.8125,163.4063 950.5,164.4844 Q951.1875,165.5469 952.5313,165.5469 Q953.1563,165.5469 953.75,165.2813 Q954.3438,165 954.9688,164.4219 L954.9688,167.1406 Z " fill="#000000"/><text fill="#000000" font-family="sans-serif" font-size="12" lengthAdjust="spacing" textLength="76" x="966" y="165.6543">Membership</text><!--MD5=[41314a0efc36828092cff9ebad2fcafd]
class Group--><rect fill="#FEFECE" filter="url(#f1hes3t1xwtrgl)" height="32" id="Group" style="stroke:#A80036;stroke-width:1.5;" width="70" x="946" y="284"/><ellipse cx="961" cy="300" fill="#ADD1B2" rx="11" ry="11" style="stroke:#A80036;stroke-width:1.0;"/><path d="M963.9688,305.6406 Q963.3906,305.9375 962.75,306.0781 Q962.1094,306.2344 961.4063,306.2344 Q958.9063,306.2344 957.5781,304.5938 Q956.2656,302.9375 956.2656,299.8125 Q956.2656,296.6875 957.5781,295.0313 Q958.9063,293.375 961.4063,293.375 Q962.1094,293.375 962.75,293.5313 Q963.4063,293.6875 963.9688,293.9844 L963.9688,296.7031 Q963.3438,296.125 962.75,295.8594 Q962.1563,295.5781 961.5313,295.5781 Q960.1875,295.5781 959.5,296.6563 Q958.8125,297.7188 958.8125,299.8125 Q958.8125,301.9063 959.5,302.9844 Q960.1875,304.0469 961.5313,304.0469 Q962.1563,304.0469 962.75,303.7813 Q963.3438,303.5 963.9688,302.9219 L963.9688,305.6406 Z " fill="#000000"/><text fill="#000000" font-family="sans-serif" font-size="12" lengthAdjust="spacing" textLength="38" x="975" y="304.1543">Group</text><!--MD5=[ddbff00b4911ad4b77d6aa32dd14d1d7]
class Affiliation_Statement--><rect codeLine="131" fill="#FFFFFF" filter="url(#f1hes3t1xwtrgl)" height="91.2188" id="Affiliation_Statement" style="stroke:#A80036;stroke-width:1.5;" width="171" x="1102.5" y="116"/><ellipse cx="1122" cy="132" fill="#ADD1B2" rx="11" ry="11" style="stroke:#A80036;stroke-width:1.0;"/><path d="M1124.9688,137.6406 Q1124.3906,137.9375 1123.75,138.0781 Q1123.1094,138.2344 1122.4063,138.2344 Q1119.9063,138.2344 1118.5781,136.5938 Q1117.2656,134.9375 1117.2656,131.8125 Q1117.2656,128.6875 1118.5781,127.0313 Q1119.9063,125.375 1122.4063,125.375 Q1123.1094,125.375 1123.75,125.5313 Q1124.4063,125.6875 1124.9688,125.9844 L1124.9688,128.7031 Q1124.3438,128.125 1123.75,127.8594 Q1123.1563,127.5781 1122.5313,127.5781 Q1121.1875,127.5781 1120.5,128.6563 Q1119.8125,129.7188 1119.8125,131.8125 Q1119.8125,133.9063 1120.5,134.9844 Q1121.1875,136.0469 1122.5313,136.0469 Q1123.1563,136.0469 1123.75,135.7813 Q1124.3438,135.5 1124.9688,134.9219 L1124.9688,137.6406 Z " fill="#000000"/><text fill="#000000" font-family="sans-serif" font-size="12" lengthAdjust="spacing" textLength="129" x="1137" y="136.1543">Affiliation_Statement</text><line style="stroke:#A80036;stroke-width:1.5;" x1="1103.5" x2="1272.5" y1="148" y2="148"/><text fill="#000000" font-family="sans-serif" font-size="11" lengthAdjust="spacing" textLength="138" x="1108.5" y="162.2104">displayAffiliation : String</text><text fill="#000000" font-family="sans-serif" font-size="11" lengthAdjust="spacing" textLength="159" x="1108.5" y="175.0151">displayPersonName : String</text><text fill="#000000" font-family="sans-serif" font-size="11" lengthAdjust="spacing" textLength="147" x="1108.5" y="187.8198">address : Postal_Address</text><text fill="#000000" font-family="sans-serif" font-size="11" lengthAdjust="spacing" textLength="116" x="1108.5" y="200.6245">contacts : List&lt;URI&gt;</text><!--MD5=[779f3743e425ed8a6f0bf188ddea4860]
class Organisation_Unit--><rect fill="#FEFECE" filter="url(#f1hes3t1xwtrgl)" height="32" id="Organisation_Unit" style="stroke:#A80036;stroke-width:1.5;" width="143" x="1081.5" y="284"/><ellipse cx="1096.5" cy="300" fill="#ADD1B2" rx="11" ry="11" style="stroke:#A80036;stroke-width:1.0;"/><path d="M1099.4688,305.6406 Q1098.8906,305.9375 1098.25,306.0781 Q1097.6094,306.2344 1096.9063,306.2344 Q1094.4063,306.2344 1093.0781,304.5938 Q1091.7656,302.9375 1091.7656,299.8125 Q1091.7656,296.6875 1093.0781,295.0313 Q1094.4063,293.375 1096.9063,293.375 Q1097.6094,293.375 1098.25,293.5313 Q1098.9063,293.6875 1099.4688,293.9844 L1099.4688,296.7031 Q1098.8438,296.125 1098.25,295.8594 Q1097.6563,295.5781 1097.0313,295.5781 Q1095.6875,295.5781 1095,296.6563 Q1094.3125,297.7188 1094.3125,299.8125 Q1094.3125,301.9063 1095,302.9844 Q1095.6875,304.0469 1097.0313,304.0469 Q1097.6563,304.0469 1098.25,303.7813 Q1098.8438,303.5 1099.4688,302.9219 L1099.4688,305.6406 Z " fill="#000000"/><text fill="#000000" font-family="sans-serif" font-size="12" lengthAdjust="spacing" textLength="111" x="1110.5" y="304.1543">Organisation_Unit</text><!--MD5=[09ce52be0ee7de43c61b6e2d59bf108b]
class Person--><rect fill="#FEFECE" filter="url(#f1hes3t1xwtrgl)" height="32" id="Person" style="stroke:#A80036;stroke-width:1.5;" width="76" x="1289" y="284"/><ellipse cx="1304" cy="300" fill="#ADD1B2" rx="11" ry="11" style="stroke:#A80036;stroke-width:1.0;"/><path d="M1306.9688,305.6406 Q1306.3906,305.9375 1305.75,306.0781 Q1305.1094,306.2344 1304.4063,306.2344 Q1301.9063,306.2344 1300.5781,304.5938 Q1299.2656,302.9375 1299.2656,299.8125 Q1299.2656,296.6875 1300.5781,295.0313 Q1301.9063,293.375 1304.4063,293.375 Q1305.1094,293.375 1305.75,293.5313 Q1306.4063,293.6875 1306.9688,293.9844 L1306.9688,296.7031 Q1306.3438,296.125 1305.75,295.8594 Q1305.1563,295.5781 1304.5313,295.5781 Q1303.1875,295.5781 1302.5,296.6563 Q1301.8125,297.7188 1301.8125,299.8125 Q1301.8125,301.9063 1302.5,302.9844 Q1303.1875,304.0469 1304.5313,304.0469 Q1305.1563,304.0469 1305.75,303.7813 Q1306.3438,303.5 1306.9688,302.9219 L1306.9688,305.6406 Z " fill="#000000"/><text fill="#000000" font-family="sans-serif" font-size="12" lengthAdjust="spacing" textLength="44" x="1318" y="304.1543">Person</text><!--MD5=[cd935cc757d29bd6a59b1252b30899e0]
link Activity to Agent--><path codeLine="262" d="M900.33,39.04 C894.56,64.08 884,115.95 884,160.5 C884,160.5 884,160.5 884,549 C884,599.29 518.89,628.18 385.8,637.05 " fill="none" id="Activity-to-Agent" style="stroke:#A80036;stroke-width:1.0;"/><polygon fill="#FFFFFF" points="372.57,637.91,378.8207,641.5057,384.5439,637.1188,378.2932,633.5231,372.57,637.91" style="stroke:#A80036;stroke-width:1.0;"/><text fill="#000000" font-family="sans-serif" font-size="13" lengthAdjust="spacing" textLength="23" x="872.3049" y="58.9265">0..*</text><text fill="#000000" font-family="sans-serif" font-size="13" lengthAdjust="spacing" textLength="53" x="380.3946" y="633.6286">0..1 who</text><!--MD5=[985660d160cc1234ef784a412fcab047]
reverse link Contribution to Contribution_Statement--><path codeLine="254" d="M528.75,161.5 C563.88,161.5 607.31,161.5 645.48,161.5 " fill="none" id="Contribution-backto-Contribution_Statement" style="stroke:#A80036;stroke-width:1.0;"/><polygon fill="#A80036" points="515.73,161.5,521.73,165.5,527.73,161.5,521.73,157.5,515.73,161.5" style="stroke:#A80036;stroke-width:1.0;"/><polygon fill="#000000" points="543,150.0664,533.9549,147.1275,533.9549,153.0053,543,150.0664" style="stroke:#000000;stroke-width:1.0;"/><text fill="#000000" font-family="sans-serif" font-size="13" lengthAdjust="spacing" textLength="80" x="547" y="154.5669">is detailed in</text><text fill="#000000" font-family="sans-serif" font-size="13" lengthAdjust="spacing" textLength="23" x="614.516" y="174.1537">0..*</text><!--MD5=[55f20054f286b2e7074e8d22fab1f608]
reverse link Activity to Contribution--><path codeLine="294" d="M846.98,41.57 C759.22,68.61 592.56,119.96 509.95,145.42 " fill="none" id="Activity-backto-Contribution" style="stroke:#A80036;stroke-width:1.0;"/><polygon fill="none" points="845.06,34.84,866.23,35.64,849.18,48.22,845.06,34.84" style="stroke:#A80036;stroke-width:1.0;"/><!--MD5=[b01ee177fc17bf8bb95324fc01c31b3b]
link Contribution_Statement to Resource--><path codeLine="314" d="M746.84,188.17 C755.93,214.56 769.88,255.09 778.16,279.13 " fill="none" id="Contribution_Statement-to-Resource" style="stroke:#A80036;stroke-width:1.0;"/><polygon fill="#A80036" points="779.84,284,780.6912,274.188,778.2118,279.2725,773.1273,276.7931,779.84,284" style="stroke:#A80036;stroke-width:1.0;"/><polygon fill="#000000" points="775.6278,250.294,775.4619,240.7849,769.9042,242.6985,775.6278,250.294" style="stroke:#000000;stroke-width:1.0;"/><text fill="#000000" font-family="sans-serif" font-size="13" lengthAdjust="spacing" textLength="61" x="783" y="250.0669">reference</text><text fill="#000000" font-family="sans-serif" font-size="13" lengthAdjust="spacing" textLength="24" x="749.9413" y="273.0116">0..1</text><!--MD5=[a21829bf9e22d7ad2257d12c520c50b2]
reverse link Resource to Funding--><path codeLine="315" d="M785,336.42 C785,362.48 785,396.6 785,415.93 " fill="none" id="Resource-backto-Funding" style="stroke:#A80036;stroke-width:1.0;"/><polygon fill="none" points="778,336.17,785,316.17,792,336.17,778,336.17" style="stroke:#A80036;stroke-width:1.0;"/><!--MD5=[117c8d017b65f89954aa553a8ad2cfe8]
link Contribution_to_Document to Document--><path codeLine="258" d="M176.4,316.17 C161.66,333.9 136.65,364.02 115.93,388.95 " fill="none" id="Contribution_to_Document-to-Document" style="stroke:#A80036;stroke-width:1.0;"/><polygon fill="#A80036" points="112.64,392.91,121.4633,388.5341,115.8311,389.0607,115.3045,383.4284,112.64,392.91" style="stroke:#A80036;stroke-width:1.0;"/><polygon fill="#000000" points="152.8047,358.4122,160.8455,353.3333,156.3246,349.577,152.8047,358.4122" style="stroke:#000000;stroke-width:1.0;"/><text fill="#000000" font-family="sans-serif" font-size="13" lengthAdjust="spacing" textLength="65" x="165" y="359.0669">document</text><!--MD5=[8d7c614e8203540f95956299e63d224a]
reverse link Contribution to Contribution_to_Document--><path codeLine="274" d="M412.61,186.78 C356.62,214.88 266.14,260.29 219.28,283.8 " fill="none" id="Contribution-backto-Contribution_to_Document" style="stroke:#A80036;stroke-width:1.0;"/><polygon fill="none" points="409.84,180.34,430.85,177.63,416.12,192.86,409.84,180.34" style="stroke:#A80036;stroke-width:1.0;"/><!--MD5=[db20fd804d8595e73b6b8c99fdd1338c]
link Authorship to Textual_Document--><path codeLine="266" d="M276.92,458.58 C262.91,477.37 243.97,502.79 229.98,521.54 " fill="none" id="Authorship-to-Textual_Document" style="stroke:#A80036;stroke-width:1.0;"/><polygon fill="#A80036" points="222.2,531.98,228.9926,529.5591,229.3704,522.3579,222.5779,524.7788,222.2,531.98" style="stroke:#A80036;stroke-width:1.0;"/><!--MD5=[585439cc3a9acb21770d204e54b00812]
reverse link Contribution_to_Document to Authorship--><path codeLine="270" d="M225.08,329.07 C231.03,334.4 236.9,340.15 242,346 C257.96,364.33 272.51,387.81 282.47,405.45 " fill="none" id="Contribution_to_Document-backto-Authorship" style="stroke:#A80036;stroke-width:1.0;"/><polygon fill="none" points="220.5,334.37,209.67,316.15,229.5,323.63,220.5,334.37" style="stroke:#A80036;stroke-width:1.0;"/><!--MD5=[49125a4ba45432b051dcbcd9e53401d7]
link Authorship to Agent--><path codeLine="319" d="M301.23,458.8 C309.16,497.87 324.15,571.75 332.33,612.05 " fill="none" id="Authorship-to-Agent" style="stroke:#A80036;stroke-width:1.0;"/><polygon fill="#FFFFFF" points="334.92,624.8,337.6469,618.1244,332.5337,613.0397,329.8067,619.7153,334.92,624.8" style="stroke:#A80036;stroke-width:1.0;"/><text fill="#000000" font-family="sans-serif" font-size="13" lengthAdjust="spacing" textLength="23" x="276.8584" y="478.4059">0..*</text><text fill="#000000" font-family="sans-serif" font-size="13" lengthAdjust="spacing" textLength="70" x="252.306" y="614.0383">0..1 author</text><!--MD5=[3bc04dee94cc69985a1813f74705f429]
reverse link Textual_Document to Agent--><path codeLine="361" d="M242.67,571.7 C265.89,588.33 296.76,610.45 317,624.95 " fill="none" id="Textual_Document-backto-Agent" style="stroke:#A80036;stroke-width:1.0;"/><polygon fill="#FFFFFF" points="231.97,564.03,234.5188,570.7756,241.7259,571.0173,239.1771,564.2717,231.97,564.03" style="stroke:#A80036;stroke-width:1.0;"/><text fill="#000000" font-family="sans-serif" font-size="13" lengthAdjust="spacing" textLength="159" x="52.8503" y="584.2082">0..* authoredDocuments</text><text fill="#000000" font-family="sans-serif" font-size="13" lengthAdjust="spacing" textLength="76" x="219.2438" y="633.8886">0..* authors</text><!--MD5=[e36b49b71580bc35ebd964809c09ea7d]
reverse link Contribution to Contribution_to_Project--><path codeLine="278" d="M448.78,196.55 C438.73,224.53 424.97,262.86 417.46,283.8 " fill="none" id="Contribution-backto-Contribution_to_Project" style="stroke:#A80036;stroke-width:1.0;"/><polygon fill="none" points="442.22,194.09,455.57,177.63,455.4,198.82,442.22,194.09" style="stroke:#A80036;stroke-width:1.0;"/><!--MD5=[57fd60736781c4a6a1ada02cfd005744]
link Contribution_to_Project to Project--><path codeLine="282" d="M419.35,316.17 C430.78,339.75 452.81,385.2 465.45,411.29 " fill="none" id="Contribution_to_Project-to-Project" style="stroke:#A80036;stroke-width:1.0;"/><polygon fill="#A80036" points="467.7,415.93,467.3912,406.086,465.5271,411.4269,460.1862,409.5627,467.7,415.93" style="stroke:#A80036;stroke-width:1.0;"/><polygon fill="#000000" points="449.1806,359.0658,447.8805,349.6445,442.5911,352.2081,449.1806,359.0658" style="stroke:#000000;stroke-width:1.0;"/><text fill="#000000" font-family="sans-serif" font-size="13" lengthAdjust="spacing" textLength="44" x="456" y="359.0669">project</text><!--MD5=[ff4a6d145294525e05493403423321eb]
reverse link Contribution to Contribution_to_Event--><path codeLine="286" d="M494.14,190.95 C527.04,219.19 576.22,261.42 602.3,283.8 " fill="none" id="Contribution-backto-Contribution_to_Event" style="stroke:#A80036;stroke-width:1.0;"/><polygon fill="none" points="489.24,195.97,478.62,177.63,498.36,185.35,489.24,195.97" style="stroke:#A80036;stroke-width:1.0;"/><!--MD5=[467ded19ca6884babd44a8b5c496328d]
link Contribution_to_Event to Event--><path codeLine="290" d="M620,316.17 C620,339.55 620,384.45 620,410.64 " fill="none" id="Contribution_to_Event-to-Event" style="stroke:#A80036;stroke-width:1.0;"/><polygon fill="#A80036" points="620,415.93,624,406.93,620,410.93,616,406.93,620,415.93" style="stroke:#A80036;stroke-width:1.0;"/><polygon fill="#000000" points="625,359.5664,627.9389,350.5213,622.0611,350.5213,625,359.5664" style="stroke:#000000;stroke-width:1.0;"/><text fill="#000000" font-family="sans-serif" font-size="13" lengthAdjust="spacing" textLength="36" x="634" y="359.0669">event</text><!--MD5=[ac110f789ae7a6a0503e4df1ad0c3da4]
reverse link Activity to Membership--><path codeLine="298" d="M924.4,56.01 C942.33,84.14 967.64,123.84 981.31,145.3 " fill="none" id="Activity-backto-Membership" style="stroke:#A80036;stroke-width:1.0;"/><polygon fill="none" points="918.49,59.76,913.64,39.13,930.3,52.23,918.49,59.76" style="stroke:#A80036;stroke-width:1.0;"/><!--MD5=[f5e0273634b15655b552a32017180749]
link Membership to Group--><path codeLine="302" d="M987.59,177.52 C984.38,192.5 979.8,216.2 978,237 C977.35,244.53 977.75,246.45 978,254 C978.27,262.01 978.8,270.81 979.34,278.49 " fill="none" id="Membership-to-Group" style="stroke:#A80036;stroke-width:1.0;"/><polygon fill="#A80036" points="979.72,283.6,983.0667,274.3372,979.3627,278.6128,975.0872,274.9088,979.72,283.6" style="stroke:#A80036;stroke-width:1.0;"/><polygon fill="#000000" points="982.5928,250.5498,986.2586,241.7741,980.4003,241.2954,982.5928,250.5498" style="stroke:#000000;stroke-width:1.0;"/><text fill="#000000" font-family="sans-serif" font-size="13" lengthAdjust="spacing" textLength="11" x="992" y="250.0669">in</text><text fill="#000000" font-family="sans-serif" font-size="13" lengthAdjust="spacing" textLength="23" x="959.4647" y="197.6947">0..*</text><text fill="#000000" font-family="sans-serif" font-size="13" lengthAdjust="spacing" textLength="24" x="951.487" y="273.0699">0..1</text><!--MD5=[fe03d2c8e9644e7513bef3a6fb6291e6]
reverse link Affiliation_Statement to Organisation_Unit--><path codeLine="241" d="M1090.56,194.37 C1072.04,204.97 1055.03,218.88 1044,237 C1030.42,259.32 1053.52,274.34 1081.9,283.99 " fill="none" id="Affiliation_Statement-backto-Organisation_Unit" style="stroke:#A80036;stroke-width:1.0;"/><polygon fill="#FFFFFF" points="1102.25,188.18,1095.0762,187.4477,1091.641,193.788,1098.8148,194.5203,1102.25,188.18" style="stroke:#A80036;stroke-width:1.0;"/><polygon fill="#000000" points="1048.5191,250.5432,1052.3144,241.8227,1046.4638,241.2574,1048.5191,250.5432" style="stroke:#000000;stroke-width:1.0;"/><text fill="#000000" font-family="sans-serif" font-size="13" lengthAdjust="spacing" textLength="107" x="1058" y="250.0669">organisation unit</text><text fill="#000000" font-family="sans-serif" font-size="13" lengthAdjust="spacing" textLength="24" x="1049.3303" y="278.6393">0..1</text><!--MD5=[fe03d2c8e9644e7513bef3a6fb6291e6]
reverse link Affiliation_Statement to Organisation_Unit--><path codeLine="245" d="M1178.19,220.09 C1175.84,231.42 1173.09,243.15 1170,254 C1167.12,264.12 1162.95,275.18 1159.47,283.8 " fill="none" id="Affiliation_Statement-backto-Organisation_Unit-1" style="stroke:#A80036;stroke-width:1.0;"/><polygon fill="#FFFFFF" points="1180.78,207.07,1175.6887,212.1767,1178.4444,218.8405,1183.5357,213.7338,1180.78,207.07" style="stroke:#A80036;stroke-width:1.0;"/><polygon fill="#000000" points="1176.5904,250.3636,1181.9601,242.5139,1176.3206,240.8569,1176.5904,250.3636" style="stroke:#000000;stroke-width:1.0;"/><text fill="#000000" font-family="sans-serif" font-size="13" lengthAdjust="spacing" textLength="63" x="1187" y="250.0669">institution</text><text fill="#000000" font-family="sans-serif" font-size="13" lengthAdjust="spacing" textLength="24" x="1133.6382" y="273.0383">0..1</text><!--MD5=[d9b08b031298a036c8fb3d44263a5204]
reverse link Affiliation_Statement to Person--><path codeLine="246" d="M1242.85,216.36 C1267.6,240.67 1294.95,267.52 1311.55,283.83 " fill="none" id="Affiliation_Statement-backto-Person" style="stroke:#A80036;stroke-width:1.0;"/><polygon fill="#FFFFFF" points="1233.51,207.2,1234.9846,214.2587,1242.0675,215.6125,1240.5929,208.5537,1233.51,207.2" style="stroke:#A80036;stroke-width:1.0;"/><polygon fill="#000000" points="1286.5673,249.0699,1282.1733,240.6352,1278.0547,244.8289,1286.5673,249.0699" style="stroke:#000000;stroke-width:1.0;"/><text fill="#000000" font-family="sans-serif" font-size="13" lengthAdjust="spacing" textLength="44" x="1292" y="250.0669">person</text><text fill="#000000" font-family="sans-serif" font-size="13" lengthAdjust="spacing" textLength="24" x="1278.4572" y="273.0782">0..1</text><!--MD5=[335bc652314d68e20c6b9db39c8a9e92]
reverse link Activity to Affiliation_Statement--><path codeLine="250" d="M947.21,44.77 C988.23,64.48 1051.03,94.67 1102.22,119.27 " fill="none" id="Activity-backto-Affiliation_Statement" style="stroke:#A80036;stroke-width:1.0;"/><polygon fill="#FFFFFF" points="935.48,39.13,939.1496,45.3376,946.2911,44.3378,942.6215,38.1302,935.48,39.13" style="stroke:#A80036;stroke-width:1.0;"/><polygon fill="#000000" points="1037.5065,79.7323,1030.6272,73.1653,1028.081,78.463,1037.5065,79.7323" style="stroke:#000000;stroke-width:1.0;"/><text fill="#000000" font-family="sans-serif" font-size="13" lengthAdjust="spacing" textLength="61" x="1042" y="82.0669">affilations</text><text fill="#000000" font-family="sans-serif" font-size="13" lengthAdjust="spacing" textLength="23" x="919.0984" y="59.0463">0..*</text><text fill="#000000" font-family="sans-serif" font-size="13" lengthAdjust="spacing" textLength="23" x="1071.468" y="112.3706">0..*</text><!--MD5=[67ceb885199ca7e1fa058287d8756a2e]
reverse link Document to Textual_Document--><path codeLine="353" d="M139.72,484.5 C159.34,501.7 179.72,519.57 193.64,531.77 " fill="none" id="Document-backto-Textual_Document" style="stroke:#A80036;stroke-width:1.0;"/><polygon fill="none" points="135.07,489.73,124.65,471.28,144.3,479.2,135.07,489.73" style="stroke:#A80036;stroke-width:1.0;"/><!--MD5=[887fe2d36544f78b2f712b79fce9eb4d]
@startuml

    !includesub core.puml!common
    !includesub core.puml!Activity
    !includesub core.puml!Contribution
    !includesub core.puml!ContributionToDocument
    !includesub core.puml!Authorship
    !includesub core.puml!ContributionToProject
    !includesub core.puml!ContributionToEvent
    !includesub core.puml!Membership
    !includesub core.puml!AffiliationStatement
    !includesub core.puml!Document
    !includesub core.puml!Agent

@enduml

@startuml

        hide empty members
        skinparam BoxPadding 120
        class "Activity" #ffffff {
        }
        "Activity" "0..*" - -o "0..1 who" "Agent"
        class "Contribution" #ffffff {
        }
            
        
        class "Contribution_Statement" #ffffff {
            statement : Multilingual_String
        }
    
        class "Resource" #ffffff {
        }

        class "Funding" #ffffff {
        }
        "Contribution" *-r- "0..*" "Contribution_Statement" : is detailed in >
        "Activity" <|- - "Contribution"
         "Contribution_Statement" - -> "0..1" "Resource" : reference >
         "Resource" <|- - "Funding"
        class "Contribution_to_Document" #ffffff {
        }
        "Contribution_to_Document" - -> "Document" : document >
        "Contribution" <|- - "Contribution_to_Document"
        class "Authorship" #ffffff {
            correspondingAuthorFlag : Boolean
        }
        "Authorship" - -* "Textual_Document"
        "Contribution_to_Document" <|- - "Authorship"
        "Authorship" "0..*" - -o "0..1 author" "Agent"
        "Textual_Document" "0..* authoredDocuments" o- - "0..* authors" "Agent"
        class "Contribution_to_Project" #ffffff {
        }
    
        class "Project" #ffffff {
        }
        "Contribution" <|- - "Contribution_to_Project"
        "Contribution_to_Project" - -> "Project" : project >
        class "Contribution_to_Event" #ffffff {
        }
    
        class "Event" #ffffff {
        }
        "Contribution" <|- - "Contribution_to_Event"
        "Contribution_to_Event" - -> "Event" : event >
        class "Membership" #ffffff {
        }
        "Activity" <|- - "Membership"
        "Membership" "0..*" - -> "0..1" "Group" : in >
        class "Affiliation_Statement" #ffffff {
            displayAffiliation : String
            displayPersonName : String
            address : Postal_Address
            contacts : List<URI>
        }
        "Affiliation_Statement" o- - "0..1" "Organisation_Unit" : organisation unit >
        "Affiliation_Statement" o- - "0..1" "Organisation_Unit" : institution >
        "Affiliation_Statement" o- - "0..1" "Person" : person >
        "Activity" "0..*" o- - "0..*" "Affiliation_Statement" : affilations >
        class "Document" #ffffff {
            DOI : DOI_Type
            title : Multilingual_String
            publicationDate : Date
        }
        class "Textual_Document" #ffffff {
        }
        "Document" <|- - "Textual_Document"
        class "Agent" #ffffff {
        }

@enduml

PlantUML version 1.2021.8(Sat Jun 26 08:20:59 UTC 2021)
(GPL source distribution)
Java Runtime: OpenJDK Runtime Environment
JVM: OpenJDK 64-Bit Server VM
Default Encoding: UTF-8
Language: en
Country: null
--></g></svg>