<?xml version="1.0" encoding="UTF-8" standalone="no"?><svg xmlns="http://www.w3.org/2000/svg" xmlns:xlink="http://www.w3.org/1999/xlink" contentScriptType="application/ecmascript" contentStyleType="text/css" height="745px" preserveAspectRatio="none" style="width:1056px;height:745px;background:#FFFFFF;" version="1.1" viewBox="0 0 1056 745" width="1056px" zoomAndPan="magnify"><defs><filter height="300%" id="fv7q1xuprqhvj" width="300%" x="-1" y="-1"><feGaussianBlur result="blurOut" stdDeviation="2.0"/><feColorMatrix in="blurOut" result="blurOut2" type="matrix" values="0 0 0 0 0 0 0 0 0 0 0 0 0 0 0 0 0 0 .4 0"/><feOffset dx="4.0" dy="4.0" in="blurOut2" result="blurOut3"/><feBlend in="SourceGraphic" in2="blurOut3" mode="normal"/></filter></defs><g><!--MD5=[c881b25adf3665c6568c9693d41a70f3]
class Activity--><rect codeLine="103" fill="#FFFFFF" filter="url(#fv7q1xuprqhvj)" height="52.8047" id="Activity" style="stroke:#A80036;stroke-width:1.5;" width="151" x="522" y="401"/><ellipse cx="571.75" cy="417" fill="#ADD1B2" rx="11" ry="11" style="stroke:#A80036;stroke-width:1.0;"/><path d="M574.7188,422.6406 Q574.1406,422.9375 573.5,423.0781 Q572.8594,423.2344 572.1563,423.2344 Q569.6563,423.2344 568.3281,421.5938 Q567.0156,419.9375 567.0156,416.8125 Q567.0156,413.6875 568.3281,412.0313 Q569.6563,410.375 572.1563,410.375 Q572.8594,410.375 573.5,410.5313 Q574.1563,410.6875 574.7188,410.9844 L574.7188,413.7031 Q574.0938,413.125 573.5,412.8594 Q572.9063,412.5781 572.2813,412.5781 Q570.9375,412.5781 570.25,413.6563 Q569.5625,414.7188 569.5625,416.8125 Q569.5625,418.9063 570.25,419.9844 Q570.9375,421.0469 572.2813,421.0469 Q572.9063,421.0469 573.5,420.7813 Q574.0938,420.5 574.7188,419.9219 L574.7188,422.6406 Z " fill="#000000"/><text fill="#000000" font-family="sans-serif" font-size="12" lengthAdjust="spacing" textLength="43" x="592.25" y="421.1543">Activity</text><line style="stroke:#A80036;stroke-width:1.5;" x1="523" x2="672" y1="433" y2="433"/><text fill="#000000" font-family="sans-serif" font-size="11" lengthAdjust="spacing" textLength="139" x="528" y="447.2104">dateRange : Date_Range</text><!--MD5=[59b530d44ae785dc18db921986a9c15c]
class Document--><rect codeLine="215" fill="#FFFFFF" filter="url(#fv7q1xuprqhvj)" height="78.4141" id="Document" style="stroke:#A80036;stroke-width:1.5;" width="148" x="633.5" y="246"/><ellipse cx="671.9" cy="262" fill="#ADD1B2" rx="11" ry="11" style="stroke:#A80036;stroke-width:1.0;"/><path d="M674.8688,267.6406 Q674.2906,267.9375 673.65,268.0781 Q673.0094,268.2344 672.3063,268.2344 Q669.8063,268.2344 668.4781,266.5938 Q667.1656,264.9375 667.1656,261.8125 Q667.1656,258.6875 668.4781,257.0313 Q669.8063,255.375 672.3063,255.375 Q673.0094,255.375 673.65,255.5313 Q674.3063,255.6875 674.8688,255.9844 L674.8688,258.7031 Q674.2438,258.125 673.65,257.8594 Q673.0563,257.5781 672.4313,257.5781 Q671.0875,257.5781 670.4,258.6563 Q669.7125,259.7188 669.7125,261.8125 Q669.7125,263.9063 670.4,264.9844 Q671.0875,266.0469 672.4313,266.0469 Q673.0563,266.0469 673.65,265.7813 Q674.2438,265.5 674.8688,264.9219 L674.8688,267.6406 Z " fill="#000000"/><text fill="#000000" font-family="sans-serif" font-size="12" lengthAdjust="spacing" textLength="64" x="691.1" y="266.1543">Document</text><line style="stroke:#A80036;stroke-width:1.5;" x1="634.5" x2="780.5" y1="278" y2="278"/><text fill="#000000" font-family="sans-serif" font-size="11" lengthAdjust="spacing" textLength="52" x="639.5" y="292.2104">DOI : DOI</text><text fill="#000000" font-family="sans-serif" font-size="11" lengthAdjust="spacing" textLength="136" x="639.5" y="305.0151">title : Multilingual_String</text><text fill="#000000" font-family="sans-serif" font-size="11" lengthAdjust="spacing" textLength="125" x="639.5" y="317.8198">publicationDate : Date</text><!--MD5=[9d44916250b776386006c440668bcfbb]
class Agent--><rect codeLine="10" fill="#FFFFFF" filter="url(#fv7q1xuprqhvj)" height="52.8047" id="Agent" style="stroke:#A80036;stroke-width:1.5;" width="133" x="887" y="550"/><ellipse cx="930.8" cy="566" fill="#ADD1B2" rx="11" ry="11" style="stroke:#A80036;stroke-width:1.0;"/><path d="M933.7688,571.6406 Q933.1906,571.9375 932.55,572.0781 Q931.9094,572.2344 931.2063,572.2344 Q928.7063,572.2344 927.3781,570.5938 Q926.0656,568.9375 926.0656,565.8125 Q926.0656,562.6875 927.3781,561.0313 Q928.7063,559.375 931.2063,559.375 Q931.9094,559.375 932.55,559.5313 Q933.2063,559.6875 933.7688,559.9844 L933.7688,562.7031 Q933.1438,562.125 932.55,561.8594 Q931.9563,561.5781 931.3313,561.5781 Q929.9875,561.5781 929.3,562.6563 Q928.6125,563.7188 928.6125,565.8125 Q928.6125,567.9063 929.3,568.9844 Q929.9875,570.0469 931.3313,570.0469 Q931.9563,570.0469 932.55,569.7813 Q933.1438,569.5 933.7688,568.9219 L933.7688,571.6406 Z " fill="#000000"/><text fill="#000000" font-family="sans-serif" font-size="12" lengthAdjust="spacing" textLength="37" x="951.2" y="570.1543">Agent</text><line style="stroke:#A80036;stroke-width:1.5;" x1="888" x2="1019" y1="582" y2="582"/><text fill="#000000" font-family="sans-serif" font-size="11" lengthAdjust="spacing" textLength="121" x="893" y="596.2104">lifetime : Date_Range</text><!--MD5=[0330879a1a385efee19ba3488ed490fa]
class Contribution--><rect codeLine="145" fill="#FFFFFF" filter="url(#fv7q1xuprqhvj)" height="32" id="Contribution" style="stroke:#A80036;stroke-width:1.5;" width="109" x="376" y="17.5"/><ellipse cx="391" cy="33.5" fill="#ADD1B2" rx="11" ry="11" style="stroke:#A80036;stroke-width:1.0;"/><path d="M393.9688,39.1406 Q393.3906,39.4375 392.75,39.5781 Q392.1094,39.7344 391.4063,39.7344 Q388.9063,39.7344 387.5781,38.0938 Q386.2656,36.4375 386.2656,33.3125 Q386.2656,30.1875 387.5781,28.5313 Q388.9063,26.875 391.4063,26.875 Q392.1094,26.875 392.75,27.0313 Q393.4063,27.1875 393.9688,27.4844 L393.9688,30.2031 Q393.3438,29.625 392.75,29.3594 Q392.1563,29.0781 391.5313,29.0781 Q390.1875,29.0781 389.5,30.1563 Q388.8125,31.2188 388.8125,33.3125 Q388.8125,35.4063 389.5,36.4844 Q390.1875,37.5469 391.5313,37.5469 Q392.1563,37.5469 392.75,37.2813 Q393.3438,37 393.9688,36.4219 L393.9688,39.1406 Z " fill="#000000"/><text fill="#000000" font-family="sans-serif" font-size="12" lengthAdjust="spacing" textLength="77" x="405" y="37.6543">Contribution</text><!--MD5=[532fe005ca0bef0ad6b309c9c6480e22]
class Contribution_Statement--><rect codeLine="253" fill="#FFFFFF" filter="url(#fv7q1xuprqhvj)" height="52.8047" id="Contribution_Statement" style="stroke:#A80036;stroke-width:1.5;" width="185" x="11" y="7"/><ellipse cx="27.8" cy="23" fill="#ADD1B2" rx="11" ry="11" style="stroke:#A80036;stroke-width:1.0;"/><path d="M30.7688,28.6406 Q30.1906,28.9375 29.55,29.0781 Q28.9094,29.2344 28.2063,29.2344 Q25.7063,29.2344 24.3781,27.5938 Q23.0656,25.9375 23.0656,22.8125 Q23.0656,19.6875 24.3781,18.0313 Q25.7063,16.375 28.2063,16.375 Q28.9094,16.375 29.55,16.5313 Q30.2063,16.6875 30.7688,16.9844 L30.7688,19.7031 Q30.1438,19.125 29.55,18.8594 Q28.9563,18.5781 28.3313,18.5781 Q26.9875,18.5781 26.3,19.6563 Q25.6125,20.7188 25.6125,22.8125 Q25.6125,24.9063 26.3,25.9844 Q26.9875,27.0469 28.3313,27.0469 Q28.9563,27.0469 29.55,26.7813 Q30.1438,26.5 30.7688,25.9219 L30.7688,28.6406 Z " fill="#000000"/><text fill="#000000" font-family="sans-serif" font-size="12" lengthAdjust="spacing" textLength="149" x="42.2" y="27.1543">Contribution_Statement</text><line style="stroke:#A80036;stroke-width:1.5;" x1="12" x2="195" y1="39" y2="39"/><text fill="#000000" font-family="sans-serif" font-size="11" lengthAdjust="spacing" textLength="173" x="17" y="53.2104">statement : Multilingual_String</text><!--MD5=[6b13f1b330d33795af281e5c1dfe1e98]
class Resource--><rect codeLine="197" fill="#FFFFFF" filter="url(#fv7q1xuprqhvj)" height="32" id="Resource" style="stroke:#A80036;stroke-width:1.5;" width="91" x="7" y="137"/><ellipse cx="22" cy="153" fill="#ADD1B2" rx="11" ry="11" style="stroke:#A80036;stroke-width:1.0;"/><path d="M24.9688,158.6406 Q24.3906,158.9375 23.75,159.0781 Q23.1094,159.2344 22.4063,159.2344 Q19.9063,159.2344 18.5781,157.5938 Q17.2656,155.9375 17.2656,152.8125 Q17.2656,149.6875 18.5781,148.0313 Q19.9063,146.375 22.4063,146.375 Q23.1094,146.375 23.75,146.5313 Q24.4063,146.6875 24.9688,146.9844 L24.9688,149.7031 Q24.3438,149.125 23.75,148.8594 Q23.1563,148.5781 22.5313,148.5781 Q21.1875,148.5781 20.5,149.6563 Q19.8125,150.7188 19.8125,152.8125 Q19.8125,154.9063 20.5,155.9844 Q21.1875,157.0469 22.5313,157.0469 Q23.1563,157.0469 23.75,156.7813 Q24.3438,156.5 24.9688,155.9219 L24.9688,158.6406 Z " fill="#000000"/><text fill="#000000" font-family="sans-serif" font-size="12" lengthAdjust="spacing" textLength="59" x="36" y="157.1543">Resource</text><!--MD5=[05151c161079be2c12996cf31a3c6866]
class Contribution_to_Document--><rect codeLine="163" fill="#FFFFFF" filter="url(#fv7q1xuprqhvj)" height="32" id="Contribution_to_Document" style="stroke:#A80036;stroke-width:1.5;" width="198" x="621.5" y="137"/><ellipse cx="636.5" cy="153" fill="#ADD1B2" rx="11" ry="11" style="stroke:#A80036;stroke-width:1.0;"/><path d="M639.4688,158.6406 Q638.8906,158.9375 638.25,159.0781 Q637.6094,159.2344 636.9063,159.2344 Q634.4063,159.2344 633.0781,157.5938 Q631.7656,155.9375 631.7656,152.8125 Q631.7656,149.6875 633.0781,148.0313 Q634.4063,146.375 636.9063,146.375 Q637.6094,146.375 638.25,146.5313 Q638.9063,146.6875 639.4688,146.9844 L639.4688,149.7031 Q638.8438,149.125 638.25,148.8594 Q637.6563,148.5781 637.0313,148.5781 Q635.6875,148.5781 635,149.6563 Q634.3125,150.7188 634.3125,152.8125 Q634.3125,154.9063 635,155.9844 Q635.6875,157.0469 637.0313,157.0469 Q637.6563,157.0469 638.25,156.7813 Q638.8438,156.5 639.4688,155.9219 L639.4688,158.6406 Z " fill="#000000"/><text fill="#000000" font-family="sans-serif" font-size="12" lengthAdjust="spacing" textLength="166" x="650.5" y="157.1543">Contribution_to_Document</text><!--MD5=[d8ce9658d3ea3b764ca76e27f1ae6382]
class Contribution_to_Project--><rect codeLine="154" fill="#FFFFFF" filter="url(#fv7q1xuprqhvj)" height="32" id="Contribution_to_Project" style="stroke:#A80036;stroke-width:1.5;" width="178" x="133.5" y="137"/><ellipse cx="148.5" cy="153" fill="#ADD1B2" rx="11" ry="11" style="stroke:#A80036;stroke-width:1.0;"/><path d="M151.4688,158.6406 Q150.8906,158.9375 150.25,159.0781 Q149.6094,159.2344 148.9063,159.2344 Q146.4063,159.2344 145.0781,157.5938 Q143.7656,155.9375 143.7656,152.8125 Q143.7656,149.6875 145.0781,148.0313 Q146.4063,146.375 148.9063,146.375 Q149.6094,146.375 150.25,146.5313 Q150.9063,146.6875 151.4688,146.9844 L151.4688,149.7031 Q150.8438,149.125 150.25,148.8594 Q149.6563,148.5781 149.0313,148.5781 Q147.6875,148.5781 147,149.6563 Q146.3125,150.7188 146.3125,152.8125 Q146.3125,154.9063 147,155.9844 Q147.6875,157.0469 149.0313,157.0469 Q149.6563,157.0469 150.25,156.7813 Q150.8438,156.5 151.4688,155.9219 L151.4688,158.6406 Z " fill="#000000"/><text fill="#000000" font-family="sans-serif" font-size="12" lengthAdjust="spacing" textLength="146" x="162.5" y="157.1543">Contribution_to_Project</text><!--MD5=[79d378210367c0c6ec62ef762ddfbd1b]
class Project--><rect codeLine="243" fill="#FFFFFF" filter="url(#fv7q1xuprqhvj)" height="32" id="Project" style="stroke:#A80036;stroke-width:1.5;" width="76" x="184.5" y="269"/><ellipse cx="199.5" cy="285" fill="#ADD1B2" rx="11" ry="11" style="stroke:#A80036;stroke-width:1.0;"/><path d="M202.4688,290.6406 Q201.8906,290.9375 201.25,291.0781 Q200.6094,291.2344 199.9063,291.2344 Q197.4063,291.2344 196.0781,289.5938 Q194.7656,287.9375 194.7656,284.8125 Q194.7656,281.6875 196.0781,280.0313 Q197.4063,278.375 199.9063,278.375 Q200.6094,278.375 201.25,278.5313 Q201.9063,278.6875 202.4688,278.9844 L202.4688,281.7031 Q201.8438,281.125 201.25,280.8594 Q200.6563,280.5781 200.0313,280.5781 Q198.6875,280.5781 198,281.6563 Q197.3125,282.7188 197.3125,284.8125 Q197.3125,286.9063 198,287.9844 Q198.6875,289.0469 200.0313,289.0469 Q200.6563,289.0469 201.25,288.7813 Q201.8438,288.5 202.4688,287.9219 L202.4688,290.6406 Z " fill="#000000"/><text fill="#000000" font-family="sans-serif" font-size="12" lengthAdjust="spacing" textLength="44" x="213.5" y="289.1543">Project</text><!--MD5=[e02578a13076095640a9a08de0c36172]
class Contribution_to_Event--><rect codeLine="172" fill="#FFFFFF" filter="url(#fv7q1xuprqhvj)" height="32" id="Contribution_to_Event" style="stroke:#A80036;stroke-width:1.5;" width="169" x="346" y="137"/><ellipse cx="361" cy="153" fill="#ADD1B2" rx="11" ry="11" style="stroke:#A80036;stroke-width:1.0;"/><path d="M363.9688,158.6406 Q363.3906,158.9375 362.75,159.0781 Q362.1094,159.2344 361.4063,159.2344 Q358.9063,159.2344 357.5781,157.5938 Q356.2656,155.9375 356.2656,152.8125 Q356.2656,149.6875 357.5781,148.0313 Q358.9063,146.375 361.4063,146.375 Q362.1094,146.375 362.75,146.5313 Q363.4063,146.6875 363.9688,146.9844 L363.9688,149.7031 Q363.3438,149.125 362.75,148.8594 Q362.1563,148.5781 361.5313,148.5781 Q360.1875,148.5781 359.5,149.6563 Q358.8125,150.7188 358.8125,152.8125 Q358.8125,154.9063 359.5,155.9844 Q360.1875,157.0469 361.5313,157.0469 Q362.1563,157.0469 362.75,156.7813 Q363.3438,156.5 363.9688,155.9219 L363.9688,158.6406 Z " fill="#000000"/><text fill="#000000" font-family="sans-serif" font-size="12" lengthAdjust="spacing" textLength="137" x="375" y="157.1543">Contribution_to_Event</text><!--MD5=[ac13618b1a974308c1f12eb6c57723dc]
class Event--><rect codeLine="248" fill="#FFFFFF" filter="url(#fv7q1xuprqhvj)" height="32" id="Event" style="stroke:#A80036;stroke-width:1.5;" width="67" x="397" y="269"/><ellipse cx="412" cy="285" fill="#ADD1B2" rx="11" ry="11" style="stroke:#A80036;stroke-width:1.0;"/><path d="M414.9688,290.6406 Q414.3906,290.9375 413.75,291.0781 Q413.1094,291.2344 412.4063,291.2344 Q409.9063,291.2344 408.5781,289.5938 Q407.2656,287.9375 407.2656,284.8125 Q407.2656,281.6875 408.5781,280.0313 Q409.9063,278.375 412.4063,278.375 Q413.1094,278.375 413.75,278.5313 Q414.4063,278.6875 414.9688,278.9844 L414.9688,281.7031 Q414.3438,281.125 413.75,280.8594 Q413.1563,280.5781 412.5313,280.5781 Q411.1875,280.5781 410.5,281.6563 Q409.8125,282.7188 409.8125,284.8125 Q409.8125,286.9063 410.5,287.9844 Q411.1875,289.0469 412.5313,289.0469 Q413.1563,289.0469 413.75,288.7813 Q414.3438,288.5 414.9688,287.9219 L414.9688,290.6406 Z " fill="#000000"/><text fill="#000000" font-family="sans-serif" font-size="12" lengthAdjust="spacing" textLength="35" x="426" y="289.1543">Event</text><!--MD5=[6a029e66987f6edc98a50822cc78695f]
class Involvement--><rect codeLine="109" fill="#FFFFFF" filter="url(#fv7q1xuprqhvj)" height="32" id="Involvement" style="stroke:#A80036;stroke-width:1.5;" width="106" x="544.5" y="560.5"/><ellipse cx="559.5" cy="576.5" fill="#ADD1B2" rx="11" ry="11" style="stroke:#A80036;stroke-width:1.0;"/><path d="M562.4688,582.1406 Q561.8906,582.4375 561.25,582.5781 Q560.6094,582.7344 559.9063,582.7344 Q557.4063,582.7344 556.0781,581.0938 Q554.7656,579.4375 554.7656,576.3125 Q554.7656,573.1875 556.0781,571.5313 Q557.4063,569.875 559.9063,569.875 Q560.6094,569.875 561.25,570.0313 Q561.9063,570.1875 562.4688,570.4844 L562.4688,573.2031 Q561.8438,572.625 561.25,572.3594 Q560.6563,572.0781 560.0313,572.0781 Q558.6875,572.0781 558,573.1563 Q557.3125,574.2188 557.3125,576.3125 Q557.3125,578.4063 558,579.4844 Q558.6875,580.5469 560.0313,580.5469 Q560.6563,580.5469 561.25,580.2813 Q561.8438,580 562.4688,579.4219 L562.4688,582.1406 Z " fill="#000000"/><text fill="#000000" font-family="sans-serif" font-size="12" lengthAdjust="spacing" textLength="74" x="573.5" y="580.6543">Involvement</text><!--MD5=[affb11a45f8309443fb20b6133e8d181]
class Group_or_Organisation_Unit--><rect codeLine="55" fill="#FFFFFF" filter="url(#fv7q1xuprqhvj)" height="32" id="Group_or_Organisation_Unit" style="stroke:#A80036;stroke-width:1.5;" width="206" x="836.5" y="699"/><ellipse cx="851.5" cy="715" fill="#ADD1B2" rx="11" ry="11" style="stroke:#A80036;stroke-width:1.0;"/><path d="M854.4688,720.6406 Q853.8906,720.9375 853.25,721.0781 Q852.6094,721.2344 851.9063,721.2344 Q849.4063,721.2344 848.0781,719.5938 Q846.7656,717.9375 846.7656,714.8125 Q846.7656,711.6875 848.0781,710.0313 Q849.4063,708.375 851.9063,708.375 Q852.6094,708.375 853.25,708.5313 Q853.9063,708.6875 854.4688,708.9844 L854.4688,711.7031 Q853.8438,711.125 853.25,710.8594 Q852.6563,710.5781 852.0313,710.5781 Q850.6875,710.5781 850,711.6563 Q849.3125,712.7188 849.3125,714.8125 Q849.3125,716.9063 850,717.9844 Q850.6875,719.0469 852.0313,719.0469 Q852.6563,719.0469 853.25,718.7813 Q853.8438,718.5 854.4688,717.9219 L854.4688,720.6406 Z " fill="#000000"/><text fill="#000000" font-family="sans-serif" font-size="12" lengthAdjust="spacing" textLength="174" x="865.5" y="719.1543">Group_or_Organisation_Unit</text><!--MD5=[ddbff00b4911ad4b77d6aa32dd14d1d7]
class Affiliation_Statement--><rect codeLine="296" fill="#FFFFFF" filter="url(#fv7q1xuprqhvj)" height="91.2188" id="Affiliation_Statement" style="stroke:#A80036;stroke-width:1.5;" width="215" x="152" y="531"/><ellipse cx="191.3" cy="547" fill="#ADD1B2" rx="11" ry="11" style="stroke:#A80036;stroke-width:1.0;"/><path d="M194.2688,552.6406 Q193.6906,552.9375 193.05,553.0781 Q192.4094,553.2344 191.7063,553.2344 Q189.2063,553.2344 187.8781,551.5938 Q186.5656,549.9375 186.5656,546.8125 Q186.5656,543.6875 187.8781,542.0313 Q189.2063,540.375 191.7063,540.375 Q192.4094,540.375 193.05,540.5313 Q193.7063,540.6875 194.2688,540.9844 L194.2688,543.7031 Q193.6438,543.125 193.05,542.8594 Q192.4563,542.5781 191.8313,542.5781 Q190.4875,542.5781 189.8,543.6563 Q189.1125,544.7188 189.1125,546.8125 Q189.1125,548.9063 189.8,549.9844 Q190.4875,551.0469 191.8313,551.0469 Q192.4563,551.0469 193.05,550.7813 Q193.6438,550.5 194.2688,549.9219 L194.2688,552.6406 Z " fill="#000000"/><text fill="#000000" font-family="sans-serif" font-size="12" lengthAdjust="spacing" textLength="129" x="210.7" y="551.1543">Affiliation_Statement</text><line style="stroke:#A80036;stroke-width:1.5;" x1="153" x2="366" y1="563" y2="563"/><text fill="#000000" font-family="sans-serif" font-size="11" lengthAdjust="spacing" textLength="203" x="158" y="577.2104">displayAffiliation_Statement : String</text><text fill="#000000" font-family="sans-serif" font-size="11" lengthAdjust="spacing" textLength="159" x="158" y="590.0151">displayPersonName : String</text><text fill="#000000" font-family="sans-serif" font-size="11" lengthAdjust="spacing" textLength="147" x="158" y="602.8198">address : Postal_Address</text><text fill="#000000" font-family="sans-serif" font-size="11" lengthAdjust="spacing" textLength="116" x="158" y="615.6245">contacts : List&lt;URI&gt;</text><!--MD5=[77463bb17ddcfe3891c27a1f4a877731]
class Membership--><rect codeLine="136" fill="#FFFFFF" filter="url(#fv7q1xuprqhvj)" height="32" id="Membership" style="stroke:#A80036;stroke-width:1.5;" width="108" x="406.5" y="699"/><ellipse cx="421.5" cy="715" fill="#ADD1B2" rx="11" ry="11" style="stroke:#A80036;stroke-width:1.0;"/><path d="M424.4688,720.6406 Q423.8906,720.9375 423.25,721.0781 Q422.6094,721.2344 421.9063,721.2344 Q419.4063,721.2344 418.0781,719.5938 Q416.7656,717.9375 416.7656,714.8125 Q416.7656,711.6875 418.0781,710.0313 Q419.4063,708.375 421.9063,708.375 Q422.6094,708.375 423.25,708.5313 Q423.9063,708.6875 424.4688,708.9844 L424.4688,711.7031 Q423.8438,711.125 423.25,710.8594 Q422.6563,710.5781 422.0313,710.5781 Q420.6875,710.5781 420,711.6563 Q419.3125,712.7188 419.3125,714.8125 Q419.3125,716.9063 420,717.9844 Q420.6875,719.0469 422.0313,719.0469 Q422.6563,719.0469 423.25,718.7813 Q423.8438,718.5 424.4688,717.9219 L424.4688,720.6406 Z " fill="#000000"/><text fill="#000000" font-family="sans-serif" font-size="12" lengthAdjust="spacing" textLength="76" x="435.5" y="719.1543">Membership</text><!--MD5=[3e7c08c6da448472712568ab49cd8e32]
class Education--><rect codeLine="127" fill="#FFFFFF" filter="url(#fv7q1xuprqhvj)" height="32" id="Education" style="stroke:#A80036;stroke-width:1.5;" width="95" x="550" y="699"/><ellipse cx="565" cy="715" fill="#ADD1B2" rx="11" ry="11" style="stroke:#A80036;stroke-width:1.0;"/><path d="M567.9688,720.6406 Q567.3906,720.9375 566.75,721.0781 Q566.1094,721.2344 565.4063,721.2344 Q562.9063,721.2344 561.5781,719.5938 Q560.2656,717.9375 560.2656,714.8125 Q560.2656,711.6875 561.5781,710.0313 Q562.9063,708.375 565.4063,708.375 Q566.1094,708.375 566.75,708.5313 Q567.4063,708.6875 567.9688,708.9844 L567.9688,711.7031 Q567.3438,711.125 566.75,710.8594 Q566.1563,710.5781 565.5313,710.5781 Q564.1875,710.5781 563.5,711.6563 Q562.8125,712.7188 562.8125,714.8125 Q562.8125,716.9063 563.5,717.9844 Q564.1875,719.0469 565.5313,719.0469 Q566.1563,719.0469 566.75,718.7813 Q567.3438,718.5 567.9688,717.9219 L567.9688,720.6406 Z " fill="#000000"/><text fill="#000000" font-family="sans-serif" font-size="12" lengthAdjust="spacing" textLength="63" x="579" y="719.1543">Education</text><!--MD5=[1c0f67851325b0845e0b86703ac36f9d]
class Employment--><rect codeLine="118" fill="#FFFFFF" filter="url(#fv7q1xuprqhvj)" height="32" id="Employment" style="stroke:#A80036;stroke-width:1.5;" width="108" x="680.5" y="699"/><ellipse cx="695.5" cy="715" fill="#ADD1B2" rx="11" ry="11" style="stroke:#A80036;stroke-width:1.0;"/><path d="M698.4688,720.6406 Q697.8906,720.9375 697.25,721.0781 Q696.6094,721.2344 695.9063,721.2344 Q693.4063,721.2344 692.0781,719.5938 Q690.7656,717.9375 690.7656,714.8125 Q690.7656,711.6875 692.0781,710.0313 Q693.4063,708.375 695.9063,708.375 Q696.6094,708.375 697.25,708.5313 Q697.9063,708.6875 698.4688,708.9844 L698.4688,711.7031 Q697.8438,711.125 697.25,710.8594 Q696.6563,710.5781 696.0313,710.5781 Q694.6875,710.5781 694,711.6563 Q693.3125,712.7188 693.3125,714.8125 Q693.3125,716.9063 694,717.9844 Q694.6875,719.0469 696.0313,719.0469 Q696.6563,719.0469 697.25,718.7813 Q697.8438,718.5 698.4688,717.9219 L698.4688,720.6406 Z " fill="#000000"/><text fill="#000000" font-family="sans-serif" font-size="12" lengthAdjust="spacing" textLength="76" x="709.5" y="719.1543">Employment</text><!--MD5=[ff9dfe2dddb5fe4a69020d7834f0d207]
link Document to Activity--><path codeLine="181" d="M677.73,324.02 C658.64,348.4 634.38,379.39 617.56,400.88 " fill="none" id="Document-Activity" style="stroke:#A80036;stroke-width:1.0;"/><polygon fill="#000000" points="654.4179,366.5035,662.3076,361.1929,657.6794,357.5696,654.4179,366.5035" style="stroke:#000000;stroke-width:1.0;"/><text fill="#000000" font-family="sans-serif" font-size="13" lengthAdjust="spacing" textLength="36" x="666.5" y="367.0669">prove</text><text fill="#000000" font-family="sans-serif" font-size="13" lengthAdjust="spacing" textLength="23" x="647.3788" y="344.3482">0..*</text><text fill="#000000" font-family="sans-serif" font-size="13" lengthAdjust="spacing" textLength="23" x="596.5395" y="390.0946">0..*</text><!--MD5=[cd935cc757d29bd6a59b1252b30899e0]
link Activity to Agent--><path codeLine="187" d="M673,454.05 C728.17,473.42 804.41,501.64 869.5,531 C880.56,535.99 892.19,541.78 903.15,547.5 " fill="none" id="Activity-to-Agent" style="stroke:#A80036;stroke-width:1.0;"/><polygon fill="#A80036" points="907.81,549.95,901.7056,542.221,903.3845,547.623,897.9825,549.3019,907.81,549.95" style="stroke:#A80036;stroke-width:1.0;"/><polygon fill="#000000" points="805.1327,494.4475,797.8577,488.3216,795.6464,493.7676,805.1327,494.4475" style="stroke:#000000;stroke-width:1.0;"/><text fill="#000000" font-family="sans-serif" font-size="13" lengthAdjust="spacing" textLength="33" x="809.5" y="497.0669">actor</text><text fill="#000000" font-family="sans-serif" font-size="13" lengthAdjust="spacing" textLength="23" x="664.8" y="474.0289">0..*</text><text fill="#000000" font-family="sans-serif" font-size="13" lengthAdjust="spacing" textLength="24" x="869.7481" y="538.7572">0..1</text><!--MD5=[55f20054f286b2e7074e8d22fab1f608]
reverse link Activity to Contribution--><path codeLine="150" d="M595.05,380.79 C590.18,321.3 575.67,215.66 532.5,137 C512.33,100.25 475.07,67.83 451.6,49.73 " fill="none" id="Activity-backto-Contribution" style="stroke:#A80036;stroke-width:1.0;"/><polygon fill="none" points="602.04,380.39,596.47,400.83,588.08,381.37,602.04,380.39" style="stroke:#A80036;stroke-width:1.0;"/><!--MD5=[b01ee177fc17bf8bb95324fc01c31b3b]
link Contribution_Statement to Resource--><path codeLine="445" d="M92.31,60.29 C82.96,81.83 69.81,112.13 61.22,131.91 " fill="none" id="Contribution_Statement-to-Resource" style="stroke:#A80036;stroke-width:1.0;"/><polygon fill="#A80036" points="59.14,136.7,66.3869,130.0305,61.1268,132.1117,59.0457,126.8516,59.14,136.7" style="stroke:#A80036;stroke-width:1.0;"/><polygon fill="#000000" points="81.509,103.1529,87.8066,96.0261,82.4149,93.6856,81.509,103.1529" style="stroke:#000000;stroke-width:1.0;"/><text fill="#000000" font-family="sans-serif" font-size="13" lengthAdjust="spacing" textLength="54" x="92.5" y="103.0669">provides</text><text fill="#000000" font-family="sans-serif" font-size="13" lengthAdjust="spacing" textLength="24" x="33.3645" y="125.9051">0..1</text><!--MD5=[8d7c614e8203540f95956299e63d224a]
reverse link Contribution to Contribution_to_Document--><path codeLine="168" d="M500.12,55.83 C529.56,65.42 564.03,77.41 594.5,90 C628.97,104.24 667.25,123.61 692.46,136.88 " fill="none" id="Contribution-backto-Contribution_to_Document" style="stroke:#A80036;stroke-width:1.0;"/><polygon fill="none" points="497.56,62.36,480.64,49.59,501.83,49.02,497.56,62.36" style="stroke:#A80036;stroke-width:1.0;"/><!--MD5=[117c8d017b65f89954aa553a8ad2cfe8]
link Contribution_to_Document to Document--><path codeLine="429" d="M718.98,169.17 C717.24,186.61 714.3,216.03 711.83,240.72 " fill="none" id="Contribution_to_Document-to-Document" style="stroke:#A80036;stroke-width:1.0;"/><polygon fill="#A80036" points="711.31,245.91,716.1906,237.3555,711.8103,240.9351,708.2307,236.5549,711.31,245.91" style="stroke:#A80036;stroke-width:1.0;"/><polygon fill="#000000" points="720.0028,212.5416,723.8266,203.8336,717.9779,203.2491,720.0028,212.5416" style="stroke:#000000;stroke-width:1.0;"/><text fill="#000000" font-family="sans-serif" font-size="13" lengthAdjust="spacing" textLength="65" x="729.5" y="212.0669">document</text><!--MD5=[e36b49b71580bc35ebd964809c09ea7d]
reverse link Contribution to Contribution_to_Project--><path codeLine="159" d="M386.14,59.56 C344.55,83.05 283.75,117.4 249.16,136.94 " fill="none" id="Contribution-backto-Contribution_to_Project" style="stroke:#A80036;stroke-width:1.0;"/><polygon fill="none" points="382.88,53.36,403.73,49.62,389.76,65.55,382.88,53.36" style="stroke:#A80036;stroke-width:1.0;"/><!--MD5=[57fd60736781c4a6a1ada02cfd005744]
link Contribution_to_Project to Project--><path codeLine="239" d="M222.5,169.17 C222.5,192.55 222.5,237.45 222.5,263.64 " fill="none" id="Contribution_to_Project-to-Project" style="stroke:#A80036;stroke-width:1.0;"/><polygon fill="#A80036" points="222.5,268.93,226.5,259.93,222.5,263.93,218.5,259.93,222.5,268.93" style="stroke:#A80036;stroke-width:1.0;"/><polygon fill="#000000" points="227.5,212.5664,230.4389,203.5213,224.5611,203.5213,227.5,212.5664" style="stroke:#000000;stroke-width:1.0;"/><text fill="#000000" font-family="sans-serif" font-size="13" lengthAdjust="spacing" textLength="44" x="236.5" y="212.0669">project</text><!--MD5=[ff4a6d145294525e05493403423321eb]
reverse link Contribution to Contribution_to_Event--><path codeLine="177" d="M430.5,70.1 C430.5,92.33 430.5,119.83 430.5,136.64 " fill="none" id="Contribution-backto-Contribution_to_Event" style="stroke:#A80036;stroke-width:1.0;"/><polygon fill="none" points="423.5,69.86,430.5,49.86,437.5,69.86,423.5,69.86" style="stroke:#A80036;stroke-width:1.0;"/><!--MD5=[467ded19ca6884babd44a8b5c496328d]
link Contribution_to_Event to Event--><path codeLine="441" d="M430.5,169.17 C430.5,192.55 430.5,237.45 430.5,263.64 " fill="none" id="Contribution_to_Event-to-Event" style="stroke:#A80036;stroke-width:1.0;"/><polygon fill="#A80036" points="430.5,268.93,434.5,259.93,430.5,263.93,426.5,259.93,430.5,268.93" style="stroke:#A80036;stroke-width:1.0;"/><polygon fill="#000000" points="435.5,212.5664,438.4389,203.5213,432.5611,203.5213,435.5,212.5664" style="stroke:#000000;stroke-width:1.0;"/><text fill="#000000" font-family="sans-serif" font-size="13" lengthAdjust="spacing" textLength="36" x="444.5" y="212.0669">event</text><!--MD5=[5310b7429ef001befd0a176a00932538]
reverse link Activity to Involvement--><path codeLine="114" d="M597.5,474.38 C597.5,503.72 597.5,539.94 597.5,560.1 " fill="none" id="Activity-backto-Involvement" style="stroke:#A80036;stroke-width:1.0;"/><polygon fill="none" points="590.5,474.11,597.5,454.11,604.5,474.11,590.5,474.11" style="stroke:#A80036;stroke-width:1.0;"/><!--MD5=[3e6df519c6409dff9ecce5f5942987dd]
link Involvement to Group_or_Organisation_Unit--><path codeLine="191" d="M635.41,592.63 C699.69,618.29 829.65,670.15 896.95,697.02 " fill="none" id="Involvement-to-Group_or_Organisation_Unit" style="stroke:#A80036;stroke-width:1.0;"/><polygon fill="#A80036" points="901.68,698.91,894.8093,691.8536,897.0376,697.053,891.8381,699.2814,901.68,698.91" style="stroke:#A80036;stroke-width:1.0;"/><polygon fill="#000000" points="828.1438,662.4199,820.8326,656.3374,818.6537,661.7964,828.1438,662.4199" style="stroke:#000000;stroke-width:1.0;"/><text fill="#000000" font-family="sans-serif" font-size="13" lengthAdjust="spacing" textLength="67" x="832.5" y="665.0669">involved in</text><text fill="#000000" font-family="sans-serif" font-size="13" lengthAdjust="spacing" textLength="23" x="621.1583" y="612.5463">0..*</text><!--MD5=[ec091f800280b56df8e15aaaa2e5104f]
reverse link Affiliation_Statement to Involvement--><path codeLine="606" d="M372.6,576.5 C430.61,576.5 498.53,576.5 544.43,576.5 " fill="none" id="Affiliation_Statement-backto-Involvement" style="stroke:#A80036;stroke-width:1.0;"/><polygon fill="#A80036" points="367.37,576.5,376.37,580.5,372.37,576.5,376.37,572.5,367.37,576.5" style="stroke:#A80036;stroke-width:1.0;"/><polygon fill="#000000" points="384.25,565.0664,393.2951,568.0053,393.2951,562.1275,384.25,565.0664" style="stroke:#000000;stroke-width:1.0;"/><text fill="#000000" font-family="sans-serif" font-size="13" lengthAdjust="spacing" textLength="128" x="398.25" y="569.5669">is the foundation for</text><text fill="#000000" font-family="sans-serif" font-size="13" lengthAdjust="spacing" textLength="23" x="375.0171" y="589.0446">0..*</text><text fill="#000000" font-family="sans-serif" font-size="13" lengthAdjust="spacing" textLength="23" x="513.5605" y="589.4891">0..*</text><!--MD5=[eeb1986463f873db234da87eccdc590b]
link Involvement to Involvement--><path codeLine="610" d="M650.77,568.63 C669.9,568.46 685.5,571.09 685.5,576.5 C685.5,581.41 672.69,584.02 656.05,584.34 " fill="none" id="Involvement-to-Involvement" style="stroke:#A80036;stroke-width:1.0;"/><polygon fill="#A80036" points="650.77,584.37,659.7927,588.3185,655.7699,584.3414,659.747,580.3186,650.77,584.37" style="stroke:#A80036;stroke-width:1.0;"/><polygon fill="#000000" points="690.4556,581.5662,693.4748,572.5476,687.5971,572.4954,690.4556,581.5662" style="stroke:#000000;stroke-width:1.0;"/><text fill="#000000" font-family="sans-serif" font-size="13" lengthAdjust="spacing" textLength="26" x="704.5" y="581.0669">part</text><text fill="#000000" font-family="sans-serif" font-size="13" lengthAdjust="spacing" textLength="23" x="658.6638" y="580.6599">0..*</text><text fill="#000000" font-family="sans-serif" font-size="13" lengthAdjust="spacing" textLength="24" x="658.3168" y="598.2217">0..1</text><!--MD5=[eeb1986463f873db234da87eccdc590b]
link Involvement to Involvement--><path codeLine="614" d="M650.79,562.61 C692.26,557.76 736.5,562.39 736.5,576.5 C736.5,590 695.98,594.82 656.15,590.96 " fill="none" id="Involvement-to-Involvement-1" style="stroke:#A80036;stroke-width:1.0;"/><polygon fill="#A80036" points="650.79,590.39,659.3167,595.3191,655.762,590.9186,660.1625,587.364,650.79,590.39" style="stroke:#A80036;stroke-width:1.0;"/><polygon fill="#000000" points="740.9192,581.5326,744.8889,572.8901,739.0508,572.2073,740.9192,581.5326" style="stroke:#000000;stroke-width:1.0;"/><text fill="#000000" font-family="sans-serif" font-size="13" lengthAdjust="spacing" textLength="89" x="755.5" y="581.0669">part transitive</text><text fill="#000000" font-family="sans-serif" font-size="13" lengthAdjust="spacing" textLength="23" x="658.6863" y="557.0781">0..*</text><text fill="#000000" font-family="sans-serif" font-size="13" lengthAdjust="spacing" textLength="23" x="647.1179" y="612.3805">0..*</text><!--MD5=[774ab914c44fde287bade86ae1a1d531]
reverse link Involvement to Membership--><path codeLine="141" d="M567.77,607.12 C539.44,635.35 497.91,676.73 475.75,698.8 " fill="none" id="Involvement-backto-Membership" style="stroke:#A80036;stroke-width:1.0;"/><polygon fill="none" points="563.21,601.79,582.32,592.63,573.09,611.7,563.21,601.79" style="stroke:#A80036;stroke-width:1.0;"/><!--MD5=[e6302ca8d503674dcb8235c7c53cdc01]
reverse link Involvement to Education--><path codeLine="132" d="M597.5,612.79 C597.5,640.66 597.5,678.16 597.5,698.8 " fill="none" id="Involvement-backto-Education" style="stroke:#A80036;stroke-width:1.0;"/><polygon fill="none" points="590.5,612.63,597.5,592.63,604.5,612.63,590.5,612.63" style="stroke:#A80036;stroke-width:1.0;"/><!--MD5=[5dcf1ca4d8097aa908f88de41c3d702a]
reverse link Involvement to Employment--><path codeLine="123" d="M627.23,607.12 C655.56,635.35 697.09,676.73 719.25,698.8 " fill="none" id="Involvement-backto-Employment" style="stroke:#A80036;stroke-width:1.0;"/><polygon fill="none" points="621.91,611.7,612.68,592.63,631.79,601.79,621.91,611.7" style="stroke:#A80036;stroke-width:1.0;"/><!--MD5=[335bc652314d68e20c6b9db39c8a9e92]
reverse link Activity to Affiliation_Statement--><path codeLine="421" d="M526.55,459.36 C478.86,480.1 415.25,507.76 362.07,530.89 " fill="none" id="Activity-backto-Affiliation_Statement" style="stroke:#A80036;stroke-width:1.0;"/><polygon fill="#FFFFFF" points="538.62,454.11,531.5222,452.8369,527.617,458.8991,534.7149,460.1722,538.62,454.11" style="stroke:#A80036;stroke-width:1.0;"/><polygon fill="#000000" points="468.9148,494.5604,478.3815,493.6483,476.0374,488.2581,468.9148,494.5604" style="stroke:#000000;stroke-width:1.0;"/><text fill="#000000" font-family="sans-serif" font-size="13" lengthAdjust="spacing" textLength="61" x="482.5" y="497.0669">affilations</text><text fill="#000000" font-family="sans-serif" font-size="13" lengthAdjust="spacing" textLength="23" x="500.2244" y="473.6743">0..*</text><text fill="#000000" font-family="sans-serif" font-size="13" lengthAdjust="spacing" textLength="23" x="353.0151" y="519.8178">0..*</text><!--MD5=[7f6050a74bc451868143c93ee5406b0d]
link Contribution_Statement to Contribution--><path codeLine="425" d="M196.33,33.5 C249.32,33.5 314.56,33.5 362.72,33.5 " fill="none" id="Contribution_Statement-to-Contribution" style="stroke:#A80036;stroke-width:1.0;"/><polygon fill="#A80036" points="375.82,33.5,369.82,29.5,363.82,33.5,369.82,37.5,375.82,33.5" style="stroke:#A80036;stroke-width:1.0;"/><polygon fill="#000000" points="238.5,22.0664,247.5451,25.0053,247.5451,19.1275,238.5,22.0664" style="stroke:#000000;stroke-width:1.0;"/><text fill="#000000" font-family="sans-serif" font-size="13" lengthAdjust="spacing" textLength="80" x="252.5" y="26.5669">is detailed in</text><text fill="#000000" font-family="sans-serif" font-size="13" lengthAdjust="spacing" textLength="23" x="203.9917" y="30.0282">0..*</text><!--MD5=[8baa0633a34be8ca6adcc4fd46743d97]
reverse link Agent to Group_or_Organisation_Unit--><path codeLine="60" d="M948.81,623.27 C946.11,649.57 942.9,680.88 941.04,699 " fill="none" id="Agent-backto-Group_or_Organisation_Unit" style="stroke:#A80036;stroke-width:1.0;"/><polygon fill="none" points="941.86,622.36,950.87,603.17,955.79,623.78,941.86,622.36" style="stroke:#A80036;stroke-width:1.0;"/><!--MD5=[c078c24407262bfaa6b3fb717082710d]
@startuml

    !includesub core.puml!common
    !includesub core.puml!Activity
    !includesub core.puml!Contribution
    !includesub core.puml!Contribution_to_Document
    !includesub core.puml!Contribution_to_Project
    !includesub core.puml!Contribution_to_Event
    !includesub core.puml!Involvement
    !includesub core.puml!Membership
    !includesub core.puml!Education
    !includesub core.puml!Employment
    !includesub core.puml!Affiliation_Statement
    !includesub core.puml!Contribution_Statement
    !includesub core.puml!Resource
    !includesub core.puml!Document
    !includesub core.puml!Project
    !includesub core.puml!Event
    !includesub core.puml!Agent
    !includesub core.puml!Group_or_Organisation_Unit

@enduml

@startuml

    hide empty members
    skinparam BoxPadding 120
    class "Activity" #ffffff {
  		dateRange : Date_Range
    }
	"Document" "0..*" - - "0..*" "Activity" : prove >
    "Activity" "0..*" - -> "0..1" "Agent" : actor >
    class "Contribution" #ffffff {
    }
    "Activity" <|- - "Contribution"
     "Contribution_Statement" - -> "0..1" "Resource" : provides >
    class "Contribution_to_Document" #ffffff {
    }
    "Contribution" <|- - "Contribution_to_Document"
    "Contribution_to_Document" - -> "Document" : document >
    class "Contribution_to_Project" #ffffff {
    }
    "Contribution" <|- - "Contribution_to_Project"
    "Contribution_to_Project" - -> "Project" : project >
    class "Contribution_to_Event" #ffffff {
    }
    "Contribution" <|- - "Contribution_to_Event"
    "Contribution_to_Event" - -> "Event" : event >
    class "Involvement" #ffffff {
    }
    "Activity" <|- - "Involvement"
	"Involvement" "0..*" - -> "Group_or_Organisation_Unit" : involved in >
	"Involvement" "0..*" -l-> "0..*" "Affiliation_Statement" : is the foundation for >
	"Involvement" "0..*" - -> "0..1" "Involvement" : part >
	"Involvement" "0..*" - -> "0..*" "Involvement" : part transitive >
    class "Membership" #ffffff {
    }
    "Involvement" <|- - "Membership"
    class "Education" #ffffff {
    }
    "Involvement" <|- - "Education"
    class "Employment" #ffffff {
    }
    "Involvement" <|- - "Employment"
    class "Affiliation_Statement" #ffffff {
        displayAffiliation_Statement : String
        displayPersonName : String
        address : Postal_Address
        contacts : List<URI>
    }
    "Activity" "0..*" o- - "0..*" "Affiliation_Statement" : affilations >
    class "Contribution_Statement" #ffffff {
        statement : Multilingual_String
    }
    "Contribution" *-l- "0..*" "Contribution_Statement" : is detailed in >
    class "Resource" #ffffff {
    }
    class "Document" #ffffff {
        DOI : DOI
        title : Multilingual_String
        publicationDate : Date
    }
    class "Project" #ffffff {
    }
    class "Event" #ffffff {
    }
    class "Agent" #ffffff {
    	lifetime : Date_Range
    }
    class "Group_or_Organisation_Unit" #ffffff {
    }
	"Agent" <|- - "Group_or_Organisation_Unit"

@enduml

PlantUML version 1.2021.8(Sat Jun 26 08:20:59 UTC 2021)
(GPL source distribution)
Java Runtime: OpenJDK Runtime Environment
JVM: OpenJDK 64-Bit Server VM
Default Encoding: UTF-8
Language: en
Country: null
--></g></svg>