<?xml version="1.0" encoding="UTF-8" standalone="no"?><svg xmlns="http://www.w3.org/2000/svg" xmlns:xlink="http://www.w3.org/1999/xlink" contentScriptType="application/ecmascript" contentStyleType="text/css" height="688px" preserveAspectRatio="none" style="width:1884px;height:688px;background:#FFFFFF;" version="1.1" viewBox="0 0 1884 688" width="1884px" zoomAndPan="magnify"><defs><filter height="300%" id="f4wieak04666i" width="300%" x="-1" y="-1"><feGaussianBlur result="blurOut" stdDeviation="2.0"/><feColorMatrix in="blurOut" result="blurOut2" type="matrix" values="0 0 0 0 0 0 0 0 0 0 0 0 0 0 0 0 0 0 .4 0"/><feOffset dx="4.0" dy="4.0" in="blurOut2" result="blurOut3"/><feBlend in="SourceGraphic" in2="blurOut3" mode="normal"/></filter></defs><g><!--MD5=[c881b25adf3665c6568c9693d41a70f3]
class Activity--><rect codeLine="52" fill="#FFFFFF" filter="url(#f4wieak04666i)" height="65.6094" id="Activity" style="stroke:#A80036;stroke-width:1.5;" width="131" x="1353.0938" y="7"/><ellipse cx="1393.2938" cy="23" fill="#ADD1B2" rx="11" ry="11" style="stroke:#A80036;stroke-width:1.0;"/><path d="M1396.2625,28.6406 Q1395.6844,28.9375 1395.0438,29.0781 Q1394.4031,29.2344 1393.7,29.2344 Q1391.2,29.2344 1389.8719,27.5938 Q1388.5594,25.9375 1388.5594,22.8125 Q1388.5594,19.6875 1389.8719,18.0313 Q1391.2,16.375 1393.7,16.375 Q1394.4031,16.375 1395.0438,16.5313 Q1395.7,16.6875 1396.2625,16.9844 L1396.2625,19.7031 Q1395.6375,19.125 1395.0438,18.8594 Q1394.45,18.5781 1393.825,18.5781 Q1392.4813,18.5781 1391.7938,19.6563 Q1391.1063,20.7188 1391.1063,22.8125 Q1391.1063,24.9063 1391.7938,25.9844 Q1392.4813,27.0469 1393.825,27.0469 Q1394.45,27.0469 1395.0438,26.7813 Q1395.6375,26.5 1396.2625,25.9219 L1396.2625,28.6406 Z " fill="#000000"/><text fill="#000000" font-family="sans-serif" font-size="12" lengthAdjust="spacing" textLength="43" x="1412.8938" y="27.1543">Activity</text><line style="stroke:#A80036;stroke-width:1.5;" x1="1354.0938" x2="1483.0938" y1="39" y2="39"/><text fill="#000000" font-family="sans-serif" font-size="11" lengthAdjust="spacing" textLength="116" x="1359.0938" y="53.2104">contacts : List&lt;URI&gt;</text><text fill="#000000" font-family="sans-serif" font-size="11" lengthAdjust="spacing" textLength="119" x="1359.0938" y="66.0151">displayName : String</text><!--MD5=[9d44916250b776386006c440668bcfbb]
class Agent--><rect fill="#FEFECE" filter="url(#f4wieak04666i)" height="32" id="Agent" style="stroke:#A80036;stroke-width:1.5;" width="69" x="1216.0938" y="642"/><ellipse cx="1231.0938" cy="658" fill="#ADD1B2" rx="11" ry="11" style="stroke:#A80036;stroke-width:1.0;"/><path d="M1234.0625,663.6406 Q1233.4844,663.9375 1232.8438,664.0781 Q1232.2031,664.2344 1231.5,664.2344 Q1229,664.2344 1227.6719,662.5938 Q1226.3594,660.9375 1226.3594,657.8125 Q1226.3594,654.6875 1227.6719,653.0313 Q1229,651.375 1231.5,651.375 Q1232.2031,651.375 1232.8438,651.5313 Q1233.5,651.6875 1234.0625,651.9844 L1234.0625,654.7031 Q1233.4375,654.125 1232.8438,653.8594 Q1232.25,653.5781 1231.625,653.5781 Q1230.2813,653.5781 1229.5938,654.6563 Q1228.9063,655.7188 1228.9063,657.8125 Q1228.9063,659.9063 1229.5938,660.9844 Q1230.2813,662.0469 1231.625,662.0469 Q1232.25,662.0469 1232.8438,661.7813 Q1233.4375,661.5 1234.0625,660.9219 L1234.0625,663.6406 Z " fill="#000000"/><text fill="#000000" font-family="sans-serif" font-size="12" lengthAdjust="spacing" textLength="37" x="1245.0938" y="662.1543">Agent</text><!--MD5=[0330879a1a385efee19ba3488ed490fa]
class Contribution--><rect codeLine="82" fill="#FFFFFF" filter="url(#f4wieak04666i)" height="32" id="Contribution" style="stroke:#A80036;stroke-width:1.5;" width="109" x="715.0938" y="150"/><ellipse cx="730.0938" cy="166" fill="#ADD1B2" rx="11" ry="11" style="stroke:#A80036;stroke-width:1.0;"/><path d="M733.0625,171.6406 Q732.4844,171.9375 731.8438,172.0781 Q731.2031,172.2344 730.5,172.2344 Q728,172.2344 726.6719,170.5938 Q725.3594,168.9375 725.3594,165.8125 Q725.3594,162.6875 726.6719,161.0313 Q728,159.375 730.5,159.375 Q731.2031,159.375 731.8438,159.5313 Q732.5,159.6875 733.0625,159.9844 L733.0625,162.7031 Q732.4375,162.125 731.8438,161.8594 Q731.25,161.5781 730.625,161.5781 Q729.2813,161.5781 728.5938,162.6563 Q727.9063,163.7188 727.9063,165.8125 Q727.9063,167.9063 728.5938,168.9844 Q729.2813,170.0469 730.625,170.0469 Q731.25,170.0469 731.8438,169.7813 Q732.4375,169.5 733.0625,168.9219 L733.0625,171.6406 Z " fill="#000000"/><text fill="#000000" font-family="sans-serif" font-size="12" lengthAdjust="spacing" textLength="77" x="744.0938" y="170.1543">Contribution</text><!--MD5=[9291c471b34ea1f1faaed3f62ed2250a]
class Acknowledgement_Statement--><rect codeLine="85" fill="#FFFFFF" filter="url(#f4wieak04666i)" height="32" id="Acknowledgement_Statement" style="stroke:#A80036;stroke-width:1.5;" width="218" x="383.5938" y="24"/><ellipse cx="398.5938" cy="40" fill="#ADD1B2" rx="11" ry="11" style="stroke:#A80036;stroke-width:1.0;"/><path d="M401.5625,45.6406 Q400.9844,45.9375 400.3438,46.0781 Q399.7031,46.2344 399,46.2344 Q396.5,46.2344 395.1719,44.5938 Q393.8594,42.9375 393.8594,39.8125 Q393.8594,36.6875 395.1719,35.0313 Q396.5,33.375 399,33.375 Q399.7031,33.375 400.3438,33.5313 Q401,33.6875 401.5625,33.9844 L401.5625,36.7031 Q400.9375,36.125 400.3438,35.8594 Q399.75,35.5781 399.125,35.5781 Q397.7813,35.5781 397.0938,36.6563 Q396.4063,37.7188 396.4063,39.8125 Q396.4063,41.9063 397.0938,42.9844 Q397.7813,44.0469 399.125,44.0469 Q399.75,44.0469 400.3438,43.7813 Q400.9375,43.5 401.5625,42.9219 L401.5625,45.6406 Z " fill="#000000"/><text fill="#000000" font-family="sans-serif" font-size="12" lengthAdjust="spacing" textLength="186" x="412.5938" y="44.1543">Acknowledgement_Statement</text><!--MD5=[532fe005ca0bef0ad6b309c9c6480e22]
class Contribution_Statement--><rect codeLine="88" fill="#FFFFFF" filter="url(#f4wieak04666i)" height="32" id="Contribution_Statement" style="stroke:#A80036;stroke-width:1.5;" width="181" x="360.0938" y="259"/><ellipse cx="375.0938" cy="275" fill="#ADD1B2" rx="11" ry="11" style="stroke:#A80036;stroke-width:1.0;"/><path d="M378.0625,280.6406 Q377.4844,280.9375 376.8438,281.0781 Q376.2031,281.2344 375.5,281.2344 Q373,281.2344 371.6719,279.5938 Q370.3594,277.9375 370.3594,274.8125 Q370.3594,271.6875 371.6719,270.0313 Q373,268.375 375.5,268.375 Q376.2031,268.375 376.8438,268.5313 Q377.5,268.6875 378.0625,268.9844 L378.0625,271.7031 Q377.4375,271.125 376.8438,270.8594 Q376.25,270.5781 375.625,270.5781 Q374.2813,270.5781 373.5938,271.6563 Q372.9063,272.7188 372.9063,274.8125 Q372.9063,276.9063 373.5938,277.9844 Q374.2813,279.0469 375.625,279.0469 Q376.25,279.0469 376.8438,278.7813 Q377.4375,278.5 378.0625,277.9219 L378.0625,280.6406 Z " fill="#000000"/><text fill="#000000" font-family="sans-serif" font-size="12" lengthAdjust="spacing" textLength="149" x="389.0938" y="279.1543">Contribution_Statement</text><!--MD5=[75e6ee6f0cee60576da1adad405695b7]
class Free_Text_Contribution_Statement--><rect codeLine="91" fill="#FFFFFF" filter="url(#f4wieak04666i)" height="52.8047" id="Free_Text_Contribution_Statement" style="stroke:#A80036;stroke-width:1.5;" width="247" x="371.0938" y="363.5"/><ellipse cx="386.0938" cy="379.5" fill="#ADD1B2" rx="11" ry="11" style="stroke:#A80036;stroke-width:1.0;"/><path d="M389.0625,385.1406 Q388.4844,385.4375 387.8438,385.5781 Q387.2031,385.7344 386.5,385.7344 Q384,385.7344 382.6719,384.0938 Q381.3594,382.4375 381.3594,379.3125 Q381.3594,376.1875 382.6719,374.5313 Q384,372.875 386.5,372.875 Q387.2031,372.875 387.8438,373.0313 Q388.5,373.1875 389.0625,373.4844 L389.0625,376.2031 Q388.4375,375.625 387.8438,375.3594 Q387.25,375.0781 386.625,375.0781 Q385.2813,375.0781 384.5938,376.1563 Q383.9063,377.2188 383.9063,379.3125 Q383.9063,381.4063 384.5938,382.4844 Q385.2813,383.5469 386.625,383.5469 Q387.25,383.5469 387.8438,383.2813 Q388.4375,383 389.0625,382.4219 L389.0625,385.1406 Z " fill="#000000"/><text fill="#000000" font-family="sans-serif" font-size="12" lengthAdjust="spacing" textLength="215" x="400.0938" y="383.6543">Free_Text_Contribution_Statement</text><line style="stroke:#A80036;stroke-width:1.5;" x1="372.0938" x2="617.0938" y1="395.5" y2="395.5"/><text fill="#000000" font-family="sans-serif" font-size="11" lengthAdjust="spacing" textLength="173" x="377.0938" y="409.7104">statement : Multilingual_String</text><!--MD5=[694c8da16a3aeed8cc252f2a2bde6980]
class Resource_Contribution_Statement--><rect codeLine="95" fill="#FFFFFF" filter="url(#f4wieak04666i)" height="32" id="Resource_Contribution_Statement" style="stroke:#A80036;stroke-width:1.5;" width="246" x="89.5938" y="374"/><ellipse cx="104.5938" cy="390" fill="#ADD1B2" rx="11" ry="11" style="stroke:#A80036;stroke-width:1.0;"/><path d="M107.5625,395.6406 Q106.9844,395.9375 106.3438,396.0781 Q105.7031,396.2344 105,396.2344 Q102.5,396.2344 101.1719,394.5938 Q99.8594,392.9375 99.8594,389.8125 Q99.8594,386.6875 101.1719,385.0313 Q102.5,383.375 105,383.375 Q105.7031,383.375 106.3438,383.5313 Q107,383.6875 107.5625,383.9844 L107.5625,386.7031 Q106.9375,386.125 106.3438,385.8594 Q105.75,385.5781 105.125,385.5781 Q103.7813,385.5781 103.0938,386.6563 Q102.4063,387.7188 102.4063,389.8125 Q102.4063,391.9063 103.0938,392.9844 Q103.7813,394.0469 105.125,394.0469 Q105.75,394.0469 106.3438,393.7813 Q106.9375,393.5 107.5625,392.9219 L107.5625,395.6406 Z " fill="#000000"/><text fill="#000000" font-family="sans-serif" font-size="12" lengthAdjust="spacing" textLength="214" x="118.5938" y="394.1543">Resource_Contribution_Statement</text><!--MD5=[6b13f1b330d33795af281e5c1dfe1e98]
class Resource--><rect codeLine="98" fill="#FFFFFF" filter="url(#f4wieak04666i)" height="32" id="Resource" style="stroke:#A80036;stroke-width:1.5;" width="91" x="79.0938" y="489"/><ellipse cx="94.0938" cy="505" fill="#ADD1B2" rx="11" ry="11" style="stroke:#A80036;stroke-width:1.0;"/><path d="M97.0625,510.6406 Q96.4844,510.9375 95.8438,511.0781 Q95.2031,511.2344 94.5,511.2344 Q92,511.2344 90.6719,509.5938 Q89.3594,507.9375 89.3594,504.8125 Q89.3594,501.6875 90.6719,500.0313 Q92,498.375 94.5,498.375 Q95.2031,498.375 95.8438,498.5313 Q96.5,498.6875 97.0625,498.9844 L97.0625,501.7031 Q96.4375,501.125 95.8438,500.8594 Q95.25,500.5781 94.625,500.5781 Q93.2813,500.5781 92.5938,501.6563 Q91.9063,502.7188 91.9063,504.8125 Q91.9063,506.9063 92.5938,507.9844 Q93.2813,509.0469 94.625,509.0469 Q95.25,509.0469 95.8438,508.7813 Q96.4375,508.5 97.0625,507.9219 L97.0625,510.6406 Z " fill="#000000"/><text fill="#000000" font-family="sans-serif" font-size="12" lengthAdjust="spacing" textLength="59" x="108.0938" y="509.1543">Resource</text><!--MD5=[05151c161079be2c12996cf31a3c6866]
class Contribution_to_Document--><rect codeLine="104" fill="#FFFFFF" filter="url(#f4wieak04666i)" height="32" id="Contribution_to_Document" style="stroke:#A80036;stroke-width:1.5;" width="198" x="993.5938" y="259"/><ellipse cx="1008.5938" cy="275" fill="#ADD1B2" rx="11" ry="11" style="stroke:#A80036;stroke-width:1.0;"/><path d="M1011.5625,280.6406 Q1010.9844,280.9375 1010.3438,281.0781 Q1009.7031,281.2344 1009,281.2344 Q1006.5,281.2344 1005.1719,279.5938 Q1003.8594,277.9375 1003.8594,274.8125 Q1003.8594,271.6875 1005.1719,270.0313 Q1006.5,268.375 1009,268.375 Q1009.7031,268.375 1010.3438,268.5313 Q1011,268.6875 1011.5625,268.9844 L1011.5625,271.7031 Q1010.9375,271.125 1010.3438,270.8594 Q1009.75,270.5781 1009.125,270.5781 Q1007.7813,270.5781 1007.0938,271.6563 Q1006.4063,272.7188 1006.4063,274.8125 Q1006.4063,276.9063 1007.0938,277.9844 Q1007.7813,279.0469 1009.125,279.0469 Q1009.75,279.0469 1010.3438,278.7813 Q1010.9375,278.5 1011.5625,277.9219 L1011.5625,280.6406 Z " fill="#000000"/><text fill="#000000" font-family="sans-serif" font-size="12" lengthAdjust="spacing" textLength="166" x="1022.5938" y="279.1543">Contribution_to_Document</text><!--MD5=[59b530d44ae785dc18db921986a9c15c]
class Document--><rect codeLine="8" fill="#FFFFFF" filter="url(#f4wieak04666i)" height="78.4141" id="Document" style="stroke:#A80036;stroke-width:1.5;" width="148" x="917.5938" y="351"/><ellipse cx="955.9938" cy="367" fill="#ADD1B2" rx="11" ry="11" style="stroke:#A80036;stroke-width:1.0;"/><path d="M958.9625,372.6406 Q958.3844,372.9375 957.7438,373.0781 Q957.1031,373.2344 956.4,373.2344 Q953.9,373.2344 952.5719,371.5938 Q951.2594,369.9375 951.2594,366.8125 Q951.2594,363.6875 952.5719,362.0313 Q953.9,360.375 956.4,360.375 Q957.1031,360.375 957.7438,360.5313 Q958.4,360.6875 958.9625,360.9844 L958.9625,363.7031 Q958.3375,363.125 957.7438,362.8594 Q957.15,362.5781 956.525,362.5781 Q955.1813,362.5781 954.4938,363.6563 Q953.8063,364.7188 953.8063,366.8125 Q953.8063,368.9063 954.4938,369.9844 Q955.1813,371.0469 956.525,371.0469 Q957.15,371.0469 957.7438,370.7813 Q958.3375,370.5 958.9625,369.9219 L958.9625,372.6406 Z " fill="#000000"/><text fill="#000000" font-family="sans-serif" font-size="12" lengthAdjust="spacing" textLength="64" x="975.1938" y="371.1543">Document</text><line style="stroke:#A80036;stroke-width:1.5;" x1="918.5938" x2="1064.5938" y1="383" y2="383"/><text fill="#000000" font-family="sans-serif" font-size="11" lengthAdjust="spacing" textLength="85" x="923.5938" y="397.2104">DOI : DOI_Type</text><text fill="#000000" font-family="sans-serif" font-size="11" lengthAdjust="spacing" textLength="136" x="923.5938" y="410.0151">title : Multilingual_String</text><text fill="#000000" font-family="sans-serif" font-size="11" lengthAdjust="spacing" textLength="125" x="923.5938" y="422.8198">publicationDate : Date</text><!--MD5=[3b25461e5df73ababc6765bb9b0c47d3]
class Authorship--><rect codeLine="108" fill="#FFFFFF" filter="url(#f4wieak04666i)" height="52.8047" id="Authorship" style="stroke:#A80036;stroke-width:1.5;" width="212" x="1100.5938" y="363.5"/><ellipse cx="1168.3438" cy="379.5" fill="#ADD1B2" rx="11" ry="11" style="stroke:#A80036;stroke-width:1.0;"/><path d="M1171.3125,385.1406 Q1170.7344,385.4375 1170.0938,385.5781 Q1169.4531,385.7344 1168.75,385.7344 Q1166.25,385.7344 1164.9219,384.0938 Q1163.6094,382.4375 1163.6094,379.3125 Q1163.6094,376.1875 1164.9219,374.5313 Q1166.25,372.875 1168.75,372.875 Q1169.4531,372.875 1170.0938,373.0313 Q1170.75,373.1875 1171.3125,373.4844 L1171.3125,376.2031 Q1170.6875,375.625 1170.0938,375.3594 Q1169.5,375.0781 1168.875,375.0781 Q1167.5313,375.0781 1166.8438,376.1563 Q1166.1563,377.2188 1166.1563,379.3125 Q1166.1563,381.4063 1166.8438,382.4844 Q1167.5313,383.5469 1168.875,383.5469 Q1169.5,383.5469 1170.0938,383.2813 Q1170.6875,383 1171.3125,382.4219 L1171.3125,385.1406 Z " fill="#000000"/><text fill="#000000" font-family="sans-serif" font-size="12" lengthAdjust="spacing" textLength="68" x="1188.8438" y="383.6543">Authorship</text><line style="stroke:#A80036;stroke-width:1.5;" x1="1101.5938" x2="1311.5938" y1="395.5" y2="395.5"/><text fill="#000000" font-family="sans-serif" font-size="11" lengthAdjust="spacing" textLength="200" x="1106.5938" y="409.7104">correspondingAuthorFlag : Boolean</text><!--MD5=[fe105c2ee1fabf2400c31a97ce9128bc]
class Textual_Document--><rect codeLine="13" fill="#FFFFFF" filter="url(#f4wieak04666i)" height="32" id="Textual_Document" style="stroke:#A80036;stroke-width:1.5;" width="147" x="1050.0938" y="489"/><ellipse cx="1065.0938" cy="505" fill="#ADD1B2" rx="11" ry="11" style="stroke:#A80036;stroke-width:1.0;"/><path d="M1068.0625,510.6406 Q1067.4844,510.9375 1066.8438,511.0781 Q1066.2031,511.2344 1065.5,511.2344 Q1063,511.2344 1061.6719,509.5938 Q1060.3594,507.9375 1060.3594,504.8125 Q1060.3594,501.6875 1061.6719,500.0313 Q1063,498.375 1065.5,498.375 Q1066.2031,498.375 1066.8438,498.5313 Q1067.5,498.6875 1068.0625,498.9844 L1068.0625,501.7031 Q1067.4375,501.125 1066.8438,500.8594 Q1066.25,500.5781 1065.625,500.5781 Q1064.2813,500.5781 1063.5938,501.6563 Q1062.9063,502.7188 1062.9063,504.8125 Q1062.9063,506.9063 1063.5938,507.9844 Q1064.2813,509.0469 1065.625,509.0469 Q1066.25,509.0469 1066.8438,508.7813 Q1067.4375,508.5 1068.0625,507.9219 L1068.0625,510.6406 Z " fill="#000000"/><text fill="#000000" font-family="sans-serif" font-size="12" lengthAdjust="spacing" textLength="115" x="1079.0938" y="509.1543">Textual_Document</text><!--MD5=[d8ce9658d3ea3b764ca76e27f1ae6382]
class Contribution_to_Project--><rect codeLine="66" fill="#FFFFFF" filter="url(#f4wieak04666i)" height="32" id="Contribution_to_Project" style="stroke:#A80036;stroke-width:1.5;" width="178" x="576.5938" y="259"/><ellipse cx="591.5938" cy="275" fill="#ADD1B2" rx="11" ry="11" style="stroke:#A80036;stroke-width:1.0;"/><path d="M594.5625,280.6406 Q593.9844,280.9375 593.3438,281.0781 Q592.7031,281.2344 592,281.2344 Q589.5,281.2344 588.1719,279.5938 Q586.8594,277.9375 586.8594,274.8125 Q586.8594,271.6875 588.1719,270.0313 Q589.5,268.375 592,268.375 Q592.7031,268.375 593.3438,268.5313 Q594,268.6875 594.5625,268.9844 L594.5625,271.7031 Q593.9375,271.125 593.3438,270.8594 Q592.75,270.5781 592.125,270.5781 Q590.7813,270.5781 590.0938,271.6563 Q589.4063,272.7188 589.4063,274.8125 Q589.4063,276.9063 590.0938,277.9844 Q590.7813,279.0469 592.125,279.0469 Q592.75,279.0469 593.3438,278.7813 Q593.9375,278.5 594.5625,277.9219 L594.5625,280.6406 Z " fill="#000000"/><text fill="#000000" font-family="sans-serif" font-size="12" lengthAdjust="spacing" textLength="146" x="605.5938" y="279.1543">Contribution_to_Project</text><!--MD5=[79d378210367c0c6ec62ef762ddfbd1b]
class Project--><rect codeLine="69" fill="#FFFFFF" filter="url(#f4wieak04666i)" height="32" id="Project" style="stroke:#A80036;stroke-width:1.5;" width="76" x="653.5938" y="374"/><ellipse cx="668.5938" cy="390" fill="#ADD1B2" rx="11" ry="11" style="stroke:#A80036;stroke-width:1.0;"/><path d="M671.5625,395.6406 Q670.9844,395.9375 670.3438,396.0781 Q669.7031,396.2344 669,396.2344 Q666.5,396.2344 665.1719,394.5938 Q663.8594,392.9375 663.8594,389.8125 Q663.8594,386.6875 665.1719,385.0313 Q666.5,383.375 669,383.375 Q669.7031,383.375 670.3438,383.5313 Q671,383.6875 671.5625,383.9844 L671.5625,386.7031 Q670.9375,386.125 670.3438,385.8594 Q669.75,385.5781 669.125,385.5781 Q667.7813,385.5781 667.0938,386.6563 Q666.4063,387.7188 666.4063,389.8125 Q666.4063,391.9063 667.0938,392.9844 Q667.7813,394.0469 669.125,394.0469 Q669.75,394.0469 670.3438,393.7813 Q670.9375,393.5 671.5625,392.9219 L671.5625,395.6406 Z " fill="#000000"/><text fill="#000000" font-family="sans-serif" font-size="12" lengthAdjust="spacing" textLength="44" x="682.5938" y="394.1543">Project</text><!--MD5=[e02578a13076095640a9a08de0c36172]
class Contribution_to_Event--><rect codeLine="74" fill="#FFFFFF" filter="url(#f4wieak04666i)" height="32" id="Contribution_to_Event" style="stroke:#A80036;stroke-width:1.5;" width="169" x="789.0938" y="259"/><ellipse cx="804.0938" cy="275" fill="#ADD1B2" rx="11" ry="11" style="stroke:#A80036;stroke-width:1.0;"/><path d="M807.0625,280.6406 Q806.4844,280.9375 805.8438,281.0781 Q805.2031,281.2344 804.5,281.2344 Q802,281.2344 800.6719,279.5938 Q799.3594,277.9375 799.3594,274.8125 Q799.3594,271.6875 800.6719,270.0313 Q802,268.375 804.5,268.375 Q805.2031,268.375 805.8438,268.5313 Q806.5,268.6875 807.0625,268.9844 L807.0625,271.7031 Q806.4375,271.125 805.8438,270.8594 Q805.25,270.5781 804.625,270.5781 Q803.2813,270.5781 802.5938,271.6563 Q801.9063,272.7188 801.9063,274.8125 Q801.9063,276.9063 802.5938,277.9844 Q803.2813,279.0469 804.625,279.0469 Q805.25,279.0469 805.8438,278.7813 Q806.4375,278.5 807.0625,277.9219 L807.0625,280.6406 Z " fill="#000000"/><text fill="#000000" font-family="sans-serif" font-size="12" lengthAdjust="spacing" textLength="137" x="818.0938" y="279.1543">Contribution_to_Event</text><!--MD5=[ac13618b1a974308c1f12eb6c57723dc]
class Event--><rect codeLine="77" fill="#FFFFFF" filter="url(#f4wieak04666i)" height="32" id="Event" style="stroke:#A80036;stroke-width:1.5;" width="67" x="815.0938" y="374"/><ellipse cx="830.0938" cy="390" fill="#ADD1B2" rx="11" ry="11" style="stroke:#A80036;stroke-width:1.0;"/><path d="M833.0625,395.6406 Q832.4844,395.9375 831.8438,396.0781 Q831.2031,396.2344 830.5,396.2344 Q828,396.2344 826.6719,394.5938 Q825.3594,392.9375 825.3594,389.8125 Q825.3594,386.6875 826.6719,385.0313 Q828,383.375 830.5,383.375 Q831.2031,383.375 831.8438,383.5313 Q832.5,383.6875 833.0625,383.9844 L833.0625,386.7031 Q832.4375,386.125 831.8438,385.8594 Q831.25,385.5781 830.625,385.5781 Q829.2813,385.5781 828.5938,386.6563 Q827.9063,387.7188 827.9063,389.8125 Q827.9063,391.9063 828.5938,392.9844 Q829.2813,394.0469 830.625,394.0469 Q831.25,394.0469 831.8438,393.7813 Q832.4375,393.5 833.0625,392.9219 L833.0625,395.6406 Z " fill="#000000"/><text fill="#000000" font-family="sans-serif" font-size="12" lengthAdjust="spacing" textLength="35" x="844.0938" y="394.1543">Event</text><!--MD5=[77463bb17ddcfe3891c27a1f4a877731]
class Membership--><rect codeLine="59" fill="#FFFFFF" filter="url(#f4wieak04666i)" height="32" id="Membership" style="stroke:#A80036;stroke-width:1.5;" width="108" x="1418.5938" y="150"/><ellipse cx="1433.5938" cy="166" fill="#ADD1B2" rx="11" ry="11" style="stroke:#A80036;stroke-width:1.0;"/><path d="M1436.5625,171.6406 Q1435.9844,171.9375 1435.3438,172.0781 Q1434.7031,172.2344 1434,172.2344 Q1431.5,172.2344 1430.1719,170.5938 Q1428.8594,168.9375 1428.8594,165.8125 Q1428.8594,162.6875 1430.1719,161.0313 Q1431.5,159.375 1434,159.375 Q1434.7031,159.375 1435.3438,159.5313 Q1436,159.6875 1436.5625,159.9844 L1436.5625,162.7031 Q1435.9375,162.125 1435.3438,161.8594 Q1434.75,161.5781 1434.125,161.5781 Q1432.7813,161.5781 1432.0938,162.6563 Q1431.4063,163.7188 1431.4063,165.8125 Q1431.4063,167.9063 1432.0938,168.9844 Q1432.7813,170.0469 1434.125,170.0469 Q1434.75,170.0469 1435.3438,169.7813 Q1435.9375,169.5 1436.5625,168.9219 L1436.5625,171.6406 Z " fill="#000000"/><text fill="#000000" font-family="sans-serif" font-size="12" lengthAdjust="spacing" textLength="76" x="1447.5938" y="170.1543">Membership</text><!--MD5=[41314a0efc36828092cff9ebad2fcafd]
class Group--><rect codeLine="61" fill="#FFFFFF" filter="url(#f4wieak04666i)" height="32" id="Group" style="stroke:#A80036;stroke-width:1.5;" width="70" x="1428.5938" y="259"/><ellipse cx="1443.5938" cy="275" fill="#ADD1B2" rx="11" ry="11" style="stroke:#A80036;stroke-width:1.0;"/><path d="M1446.5625,280.6406 Q1445.9844,280.9375 1445.3438,281.0781 Q1444.7031,281.2344 1444,281.2344 Q1441.5,281.2344 1440.1719,279.5938 Q1438.8594,277.9375 1438.8594,274.8125 Q1438.8594,271.6875 1440.1719,270.0313 Q1441.5,268.375 1444,268.375 Q1444.7031,268.375 1445.3438,268.5313 Q1446,268.6875 1446.5625,268.9844 L1446.5625,271.7031 Q1445.9375,271.125 1445.3438,270.8594 Q1444.75,270.5781 1444.125,270.5781 Q1442.7813,270.5781 1442.0938,271.6563 Q1441.4063,272.7188 1441.4063,274.8125 Q1441.4063,276.9063 1442.0938,277.9844 Q1442.7813,279.0469 1444.125,279.0469 Q1444.75,279.0469 1445.3438,278.7813 Q1445.9375,278.5 1446.5625,277.9219 L1446.5625,280.6406 Z " fill="#000000"/><text fill="#000000" font-family="sans-serif" font-size="12" lengthAdjust="spacing" textLength="38" x="1457.5938" y="279.1543">Group</text><!--MD5=[ddbff00b4911ad4b77d6aa32dd14d1d7]
class Affiliation_Statement--><rect codeLine="127" fill="#FFFFFF" filter="url(#f4wieak04666i)" height="65.6094" id="Affiliation_Statement" style="stroke:#A80036;stroke-width:1.5;" width="161" x="1629.0938" y="133"/><ellipse cx="1644.0938" cy="149" fill="#ADD1B2" rx="11" ry="11" style="stroke:#A80036;stroke-width:1.0;"/><path d="M1647.0625,154.6406 Q1646.4844,154.9375 1645.8438,155.0781 Q1645.2031,155.2344 1644.5,155.2344 Q1642,155.2344 1640.6719,153.5938 Q1639.3594,151.9375 1639.3594,148.8125 Q1639.3594,145.6875 1640.6719,144.0313 Q1642,142.375 1644.5,142.375 Q1645.2031,142.375 1645.8438,142.5313 Q1646.5,142.6875 1647.0625,142.9844 L1647.0625,145.7031 Q1646.4375,145.125 1645.8438,144.8594 Q1645.25,144.5781 1644.625,144.5781 Q1643.2813,144.5781 1642.5938,145.6563 Q1641.9063,146.7188 1641.9063,148.8125 Q1641.9063,150.9063 1642.5938,151.9844 Q1643.2813,153.0469 1644.625,153.0469 Q1645.25,153.0469 1645.8438,152.7813 Q1646.4375,152.5 1647.0625,151.9219 L1647.0625,154.6406 Z " fill="#000000"/><text fill="#000000" font-family="sans-serif" font-size="12" lengthAdjust="spacing" textLength="129" x="1658.0938" y="153.1543">Affiliation_Statement</text><line style="stroke:#A80036;stroke-width:1.5;" x1="1630.0938" x2="1789.0938" y1="165" y2="165"/><text fill="#000000" font-family="sans-serif" font-size="11" lengthAdjust="spacing" textLength="138" x="1635.0938" y="179.2104">displayAffiliation : String</text><text fill="#000000" font-family="sans-serif" font-size="11" lengthAdjust="spacing" textLength="147" x="1635.0938" y="192.0151">address : Postal_Address</text><!--MD5=[fe1d14fe6d68ca7e76eb34268c62a1f3]
class Postal_Address--><rect fill="#FEFECE" filter="url(#f4wieak04666i)" height="32" id="Postal_Address" style="stroke:#A80036;stroke-width:1.5;" width="128" x="1533.5938" y="259"/><ellipse cx="1548.5938" cy="275" fill="#ADD1B2" rx="11" ry="11" style="stroke:#A80036;stroke-width:1.0;"/><path d="M1551.5625,280.6406 Q1550.9844,280.9375 1550.3438,281.0781 Q1549.7031,281.2344 1549,281.2344 Q1546.5,281.2344 1545.1719,279.5938 Q1543.8594,277.9375 1543.8594,274.8125 Q1543.8594,271.6875 1545.1719,270.0313 Q1546.5,268.375 1549,268.375 Q1549.7031,268.375 1550.3438,268.5313 Q1551,268.6875 1551.5625,268.9844 L1551.5625,271.7031 Q1550.9375,271.125 1550.3438,270.8594 Q1549.75,270.5781 1549.125,270.5781 Q1547.7813,270.5781 1547.0938,271.6563 Q1546.4063,272.7188 1546.4063,274.8125 Q1546.4063,276.9063 1547.0938,277.9844 Q1547.7813,279.0469 1549.125,279.0469 Q1549.75,279.0469 1550.3438,278.7813 Q1550.9375,278.5 1551.5625,277.9219 L1551.5625,280.6406 Z " fill="#000000"/><text fill="#000000" font-family="sans-serif" font-size="12" lengthAdjust="spacing" textLength="96" x="1562.5938" y="279.1543">Postal_Address</text><!--MD5=[779f3743e425ed8a6f0bf188ddea4860]
class Organisation_Unit--><rect fill="#FEFECE" filter="url(#f4wieak04666i)" height="32" id="Organisation_Unit" style="stroke:#A80036;stroke-width:1.5;" width="143" x="1697.0938" y="259"/><ellipse cx="1712.0938" cy="275" fill="#ADD1B2" rx="11" ry="11" style="stroke:#A80036;stroke-width:1.0;"/><path d="M1715.0625,280.6406 Q1714.4844,280.9375 1713.8438,281.0781 Q1713.2031,281.2344 1712.5,281.2344 Q1710,281.2344 1708.6719,279.5938 Q1707.3594,277.9375 1707.3594,274.8125 Q1707.3594,271.6875 1708.6719,270.0313 Q1710,268.375 1712.5,268.375 Q1713.2031,268.375 1713.8438,268.5313 Q1714.5,268.6875 1715.0625,268.9844 L1715.0625,271.7031 Q1714.4375,271.125 1713.8438,270.8594 Q1713.25,270.5781 1712.625,270.5781 Q1711.2813,270.5781 1710.5938,271.6563 Q1709.9063,272.7188 1709.9063,274.8125 Q1709.9063,276.9063 1710.5938,277.9844 Q1711.2813,279.0469 1712.625,279.0469 Q1713.25,279.0469 1713.8438,278.7813 Q1714.4375,278.5 1715.0625,277.9219 L1715.0625,280.6406 Z " fill="#000000"/><text fill="#000000" font-family="sans-serif" font-size="12" lengthAdjust="spacing" textLength="111" x="1726.0938" y="279.1543">Organisation_Unit</text><!--MD5=[09ce52be0ee7de43c61b6e2d59bf108b]
class Person--><rect fill="#FEFECE" filter="url(#f4wieak04666i)" height="32" id="Person" style="stroke:#A80036;stroke-width:1.5;" width="76" x="1671.5938" y="24"/><ellipse cx="1686.5938" cy="40" fill="#ADD1B2" rx="11" ry="11" style="stroke:#A80036;stroke-width:1.0;"/><path d="M1689.5625,45.6406 Q1688.9844,45.9375 1688.3438,46.0781 Q1687.7031,46.2344 1687,46.2344 Q1684.5,46.2344 1683.1719,44.5938 Q1681.8594,42.9375 1681.8594,39.8125 Q1681.8594,36.6875 1683.1719,35.0313 Q1684.5,33.375 1687,33.375 Q1687.7031,33.375 1688.3438,33.5313 Q1689,33.6875 1689.5625,33.9844 L1689.5625,36.7031 Q1688.9375,36.125 1688.3438,35.8594 Q1687.75,35.5781 1687.125,35.5781 Q1685.7813,35.5781 1685.0938,36.6563 Q1684.4063,37.7188 1684.4063,39.8125 Q1684.4063,41.9063 1685.0938,42.9844 Q1685.7813,44.0469 1687.125,44.0469 Q1687.75,44.0469 1688.3438,43.7813 Q1688.9375,43.5 1689.5625,42.9219 L1689.5625,45.6406 Z " fill="#000000"/><text fill="#000000" font-family="sans-serif" font-size="12" lengthAdjust="spacing" textLength="44" x="1700.5938" y="44.1543">Person</text><!--MD5=[cd935cc757d29bd6a59b1252b30899e0]
link Activity to Agent--><path codeLine="165" d="M1406.4338,73.27 C1390.7838,117.77 1365.5938,200.78 1365.5938,274 C1365.5938,274 1365.5938,274 1365.5938,506 C1365.5938,560.41 1317.7438,607.46 1283.7738,634 " fill="none" id="Activity-to-Agent" style="stroke:#A80036;stroke-width:1.0;"/><polygon fill="#FFFFFF" points="1273.3138,641.88,1280.5128,641.4626,1282.8963,634.6568,1275.6973,635.0742,1273.3138,641.88" style="stroke:#A80036;stroke-width:1.0;"/><text fill="#000000" font-family="sans-serif" font-size="13" lengthAdjust="spacing" textLength="23" x="1379.2193" y="92.6457">0..*</text><text fill="#000000" font-family="sans-serif" font-size="13" lengthAdjust="spacing" textLength="53" x="1290.2331" y="630.8503">0..1 who</text><!--MD5=[985660d160cc1234ef784a412fcab047]
reverse link Contribution to Contribution_Statement--><path codeLine="153" d="M711.8538,186.37 C649.6638,207.22 552.0438,239.97 495.3938,258.97 " fill="none" id="Contribution-backto-Contribution_Statement" style="stroke:#A80036;stroke-width:1.0;"/><polygon fill="#A80036" points="724.5638,182.1,717.6041,180.2123,713.1848,185.9106,720.1445,187.7982,724.5638,182.1" style="stroke:#A80036;stroke-width:1.0;"/><text fill="#000000" font-family="sans-serif" font-size="13" lengthAdjust="spacing" textLength="179" x="301.0281" y="247.9713">0..* contributionStatements</text><!--MD5=[21f8b3605054312288eb3132d9b75edc]
reverse link Contribution_Statement to Free_Text_Contribution_Statement--><path codeLine="156" d="M463.8038,309.92 C470.4538,327.02 478.3938,347.42 484.5438,363.21 " fill="none" id="Contribution_Statement-backto-Free_Text_Contribution_Statement" style="stroke:#A80036;stroke-width:1.0;"/><polygon fill="none" points="457.2538,312.42,456.5238,291.24,470.3038,307.34,457.2538,312.42" style="stroke:#A80036;stroke-width:1.0;"/><!--MD5=[a32bc6b77530b63001477d316ccad4f4]
reverse link Contribution_Statement to Resource_Contribution_Statement--><path codeLine="159" d="M400.9138,299.59 C353.7838,321.96 284.3938,354.91 244.3238,373.93 " fill="none" id="Contribution_Statement-backto-Resource_Contribution_Statement" style="stroke:#A80036;stroke-width:1.0;"/><polygon fill="none" points="397.9138,293.26,418.9838,291.01,403.9238,305.91,397.9138,293.26" style="stroke:#A80036;stroke-width:1.0;"/><!--MD5=[55f20054f286b2e7074e8d22fab1f608]
reverse link Activity to Contribution--><path codeLine="189" d="M1333.2638,57.3 C1197.8838,83.17 937.6438,132.89 824.4438,154.52 " fill="none" id="Activity-backto-Contribution" style="stroke:#A80036;stroke-width:1.0;"/><polygon fill="none" points="1332.1338,50.39,1353.0938,53.51,1334.7638,64.14,1332.1338,50.39" style="stroke:#A80036;stroke-width:1.0;"/><!--MD5=[69e52749bc6a88f912658ed2a89efd9a]
link Acknowledgement_Statement to Contribution--><path codeLine="198" d="M526.2838,56.08 C575.7438,78.22 668.1538,119.59 723.7538,144.48 " fill="none" id="Acknowledgement_Statement-to-Contribution" style="stroke:#A80036;stroke-width:1.0;"/><polygon fill="#FFFFFF" points="735.7038,149.83,731.8645,143.7259,724.7533,144.9221,728.5926,151.0262,735.7038,149.83" style="stroke:#A80036;stroke-width:1.0;"/><text fill="#000000" font-family="sans-serif" font-size="13" lengthAdjust="spacing" textLength="87" x="436.0342" y="75.9798">0..* thanks to</text><text fill="#000000" font-family="sans-serif" font-size="13" lengthAdjust="spacing" textLength="24" x="696.5027" y="139.0782">0..1</text><!--MD5=[9a54662a9dd62a0778534af2fcaddce0]
link Acknowledgement_Statement to Resource--><path codeLine="201" d="M452.0638,56.02 C363.3238,91.4 153.2838,189.39 71.5938,351 C55.9538,381.94 61.0938,395.96 71.5938,429 C77.4538,447.46 89.6938,465.3 100.9338,478.94 " fill="none" id="Acknowledgement_Statement-to-Resource" style="stroke:#A80036;stroke-width:1.0;"/><polygon fill="#FFFFFF" points="109.5938,488.91,108.6774,481.7574,101.7225,479.8522,102.6389,487.0048,109.5938,488.91" style="stroke:#A80036;stroke-width:1.0;"/><text fill="#000000" font-family="sans-serif" font-size="13" lengthAdjust="spacing" textLength="23" x="411.1784" y="76.1947">0..*</text><text fill="#000000" font-family="sans-serif" font-size="13" lengthAdjust="spacing" textLength="84" x="6" y="477.8907">0..1 resource</text><!--MD5=[bd2b41009eed06f10d8bee85cf3b965a]
link Resource_Contribution_Statement to Resource--><path codeLine="204" d="M200.7238,406.24 C186.3538,424.69 161.9338,456.05 144.6338,478.27 " fill="none" id="Resource_Contribution_Statement-to-Resource" style="stroke:#A80036;stroke-width:1.0;"/><polygon fill="#A80036" points="136.5537,488.64,143.3974,486.3676,143.932,479.1763,137.0883,481.4487,136.5537,488.64" style="stroke:#A80036;stroke-width:1.0;"/><text fill="#000000" font-family="sans-serif" font-size="13" lengthAdjust="spacing" textLength="23" x="169.9824" y="426.1928">0..*</text><text fill="#000000" font-family="sans-serif" font-size="13" lengthAdjust="spacing" textLength="84" x="154.428" y="477.8253">0..1 resource</text><!--MD5=[117c8d017b65f89954aa553a8ad2cfe8]
link Contribution_to_Document to Document--><path codeLine="162" d="M1078.9738,291.24 C1067.5238,304.05 1050.5138,323.08 1034.5338,340.95 " fill="none" id="Contribution_to_Document-to-Document" style="stroke:#A80036;stroke-width:1.0;"/><polygon fill="#A80036" points="1025.8038,350.72,1032.7847,348.9127,1033.8014,341.7737,1026.8205,343.5809,1025.8038,350.72" style="stroke:#A80036;stroke-width:1.0;"/><text fill="#000000" font-family="sans-serif" font-size="13" lengthAdjust="spacing" textLength="23" x="1047.6528" y="311.1928">0..*</text><!--MD5=[8d7c614e8203540f95956299e63d224a]
reverse link Contribution to Contribution_to_Document--><path codeLine="174" d="M834.4838,188.5 C897.5838,209.4 991.7938,240.61 1047.2337,258.97 " fill="none" id="Contribution-backto-Contribution_to_Document" style="stroke:#A80036;stroke-width:1.0;"/><polygon fill="none" points="831.9638,195.04,815.1838,182.1,836.3738,181.75,831.9638,195.04" style="stroke:#A80036;stroke-width:1.0;"/><!--MD5=[db20fd804d8595e73b6b8c99fdd1338c]
link Authorship to Textual_Document--><path codeLine="168" d="M1187.7538,416.64 C1174.2138,435.08 1156.0138,459.85 1142.4638,478.31 " fill="none" id="Authorship-to-Textual_Document" style="stroke:#A80036;stroke-width:1.0;"/><polygon fill="#A80036" points="1134.7038,488.87,1141.4786,486.3998,1141.8041,479.1961,1135.0293,481.6662,1134.7038,488.87" style="stroke:#A80036;stroke-width:1.0;"/><!--MD5=[585439cc3a9acb21770d204e54b00812]
reverse link Contribution_to_Document to Authorship--><path codeLine="171" d="M1122.3538,305.5 C1140.4038,323.4 1163.2338,346.03 1180.5738,363.21 " fill="none" id="Contribution_to_Document-backto-Authorship" style="stroke:#A80036;stroke-width:1.0;"/><polygon fill="none" points="1117.2438,310.29,1107.9638,291.24,1127.0938,300.35,1117.2438,310.29" style="stroke:#A80036;stroke-width:1.0;"/><!--MD5=[49125a4ba45432b051dcbcd9e53401d7]
link Authorship to Agent--><path codeLine="207" d="M1210.8138,416.51 C1219.0638,466.43 1237.3038,576.7 1245.9138,628.75 " fill="none" id="Authorship-to-Agent" style="stroke:#A80036;stroke-width:1.0;"/><polygon fill="#FFFFFF" points="1248.0738,641.79,1251.0448,635.2194,1246.1223,629.9497,1243.1513,636.5203,1248.0738,641.79" style="stroke:#A80036;stroke-width:1.0;"/><text fill="#000000" font-family="sans-serif" font-size="13" lengthAdjust="spacing" textLength="23" x="1186.1303" y="436.4796">0..*</text><text fill="#000000" font-family="sans-serif" font-size="13" lengthAdjust="spacing" textLength="70" x="1165.6453" y="631.025">0..1 author</text><!--MD5=[2c23d09c80fbfac9dc5109bf504b493e]
link Textual_Document to Agent--><path codeLine="227" d="M1136.2338,521.03 C1160.4538,549.82 1213.1538,612.48 1237.6238,641.58 " fill="none" id="Textual_Document-Agent" style="stroke:#A80036;stroke-width:1.0;"/><text fill="#000000" font-family="sans-serif" font-size="13" lengthAdjust="spacing" textLength="159" x="954.2506" y="541.2082">0..* authoredDocuments</text><text fill="#000000" font-family="sans-serif" font-size="13" lengthAdjust="spacing" textLength="76" x="1131.6789" y="648.4454">0..* authors</text><!--MD5=[e36b49b71580bc35ebd964809c09ea7d]
reverse link Contribution to Contribution_to_Project--><path codeLine="177" d="M740.4638,196.96 C720.9438,217.05 696.0538,242.66 680.4638,258.7 " fill="none" id="Contribution-backto-Contribution_to_Project" style="stroke:#A80036;stroke-width:1.0;"/><polygon fill="none" points="735.7338,191.79,754.6938,182.33,745.7738,201.55,735.7338,191.79" style="stroke:#A80036;stroke-width:1.0;"/><!--MD5=[57fd60736781c4a6a1ada02cfd005744]
link Contribution_to_Project to Project--><path codeLine="180" d="M669.0938,291.24 C673.1838,309.02 680.0338,338.77 685.1038,360.8 " fill="none" id="Contribution_to_Project-to-Project" style="stroke:#A80036;stroke-width:1.0;"/><polygon fill="#A80036" points="688.0538,373.64,690.6072,366.8961,685.3641,361.9453,682.8107,368.6892,688.0538,373.64" style="stroke:#A80036;stroke-width:1.0;"/><text fill="#000000" font-family="sans-serif" font-size="13" lengthAdjust="spacing" textLength="23" x="643.4438" y="311.1928">0..*</text><text fill="#000000" font-family="sans-serif" font-size="13" lengthAdjust="spacing" textLength="72" x="698.8061" y="362.8253">0..1 project</text><!--MD5=[ff4a6d145294525e05493403423321eb]
reverse link Contribution to Contribution_to_Event--><path codeLine="183" d="M798.7138,196.96 C818.2338,217.05 843.1238,242.66 858.7138,258.7 " fill="none" id="Contribution-backto-Contribution_to_Event" style="stroke:#A80036;stroke-width:1.0;"/><polygon fill="none" points="793.4138,201.55,784.4938,182.33,803.4538,191.79,793.4138,201.55" style="stroke:#A80036;stroke-width:1.0;"/><!--MD5=[467ded19ca6884babd44a8b5c496328d]
link Contribution_to_Event to Event--><path codeLine="186" d="M870.2138,291.24 C866.2838,309.02 859.7038,338.77 854.8338,360.8 " fill="none" id="Contribution_to_Event-to-Event" style="stroke:#A80036;stroke-width:1.0;"/><polygon fill="#A80036" points="851.9838,373.64,857.1871,368.6475,854.5799,361.9242,849.3766,366.9167,851.9838,373.64" style="stroke:#A80036;stroke-width:1.0;"/><text fill="#000000" font-family="sans-serif" font-size="13" lengthAdjust="spacing" textLength="23" x="842.2848" y="311.1928">0..*</text><text fill="#000000" font-family="sans-serif" font-size="13" lengthAdjust="spacing" textLength="64" x="778.5067" y="362.8253">0..1 event</text><!--MD5=[ac110f789ae7a6a0503e4df1ad0c3da4]
reverse link Activity to Membership--><path codeLine="192" d="M1440.6638,91.69 C1449.7738,112.61 1459.6638,135.31 1465.9838,149.82 " fill="none" id="Activity-backto-Membership" style="stroke:#A80036;stroke-width:1.0;"/><polygon fill="none" points="1434.2038,94.39,1432.6338,73.26,1447.0438,88.8,1434.2038,94.39" style="stroke:#A80036;stroke-width:1.0;"/><!--MD5=[f5e0273634b15655b552a32017180749]
link Membership to Group--><path codeLine="195" d="M1471.3038,182.33 C1469.9138,198.78 1467.6938,225.27 1465.9838,245.55 " fill="none" id="Membership-to-Group" style="stroke:#A80036;stroke-width:1.0;"/><polygon fill="#FFFFFF" points="1464.8738,258.7,1469.367,253.0599,1465.8888,246.743,1461.3956,252.3831,1464.8738,258.7" style="stroke:#A80036;stroke-width:1.0;"/><text fill="#000000" font-family="sans-serif" font-size="13" lengthAdjust="spacing" textLength="23" x="1444.2269" y="202.0139">0..*</text><text fill="#000000" font-family="sans-serif" font-size="13" lengthAdjust="spacing" textLength="99" x="1349.9009" y="247.9051">0..1 member of</text><!--MD5=[af6b79ce3af62c8c5ee779db9fbc8cf6]
link Affiliation_Statement to Postal_Address--><path codeLine="137" d="M1675.9838,199.1 C1656.8638,217.38 1633.5638,239.64 1617.3538,255.12 " fill="none" id="Affiliation_Statement-to-Postal_Address" style="stroke:#A80036;stroke-width:1.0;stroke-dasharray:7.0,7.0;"/><polygon fill="#A80036" points="1613.3938,258.9,1622.6693,255.5887,1617.0141,255.4514,1617.1515,249.7962,1613.3938,258.9" style="stroke:#A80036;stroke-width:1.0;"/><text fill="#000000" font-family="sans-serif" font-size="13" lengthAdjust="spacing" textLength="91" x="1512.1844" y="247.8772">postalAddress</text><!--MD5=[fe03d2c8e9644e7513bef3a6fb6291e6]
reverse link Affiliation_Statement to Organisation_Unit--><path codeLine="140" d="M1721.3638,211.15 C1730.0938,228.16 1741.3138,246.46 1751.0638,258.9 " fill="none" id="Affiliation_Statement-backto-Organisation_Unit" style="stroke:#A80036;stroke-width:1.0;"/><polygon fill="#FFFFFF" points="1715.4938,199.1,1714.522,206.2453,1720.7439,209.8905,1721.7157,202.7452,1715.4938,199.1" style="stroke:#A80036;stroke-width:1.0;"/><text fill="#000000" font-family="sans-serif" font-size="13" lengthAdjust="spacing" textLength="75" x="1657.1472" y="247.8772">0..1 orgUnit</text><!--MD5=[fe03d2c8e9644e7513bef3a6fb6291e6]
reverse link Affiliation_Statement to Organisation_Unit--><path codeLine="143" d="M1746.6638,210.16 C1756.9538,227.44 1766.1338,246.22 1770.0138,258.9 " fill="none" id="Affiliation_Statement-backto-Organisation_Unit-1" style="stroke:#A80036;stroke-width:1.0;"/><polygon fill="#FFFFFF" points="1739.7838,199.1,1739.5575,206.3076,1746.1236,209.2885,1746.3498,202.081,1739.7838,199.1" style="stroke:#A80036;stroke-width:1.0;"/><text fill="#000000" font-family="sans-serif" font-size="13" lengthAdjust="spacing" textLength="91" x="1786.1425" y="247.8772">0..1 institution</text><!--MD5=[dc2c5634ff295731fc33abbfcbd96d36]
reverse link Person to Affiliation_Statement--><path codeLine="147" d="M1709.5938,69.34 C1709.5938,88.3 1709.5938,113.29 1709.5938,132.97 " fill="none" id="Person-backto-Affiliation_Statement" style="stroke:#A80036;stroke-width:1.0;"/><polygon fill="#FFFFFF" points="1709.5938,56.2,1705.5938,62.2,1709.5938,68.2,1713.5938,62.2,1709.5938,56.2" style="stroke:#A80036;stroke-width:1.0;"/><text fill="#000000" font-family="sans-serif" font-size="13" lengthAdjust="spacing" textLength="91" x="1718.9781" y="121.7316">0..* affiliations</text><!--MD5=[335bc652314d68e20c6b9db39c8a9e92]
reverse link Activity to Affiliation_Statement--><path codeLine="150" d="M1496.3338,74.13 C1539.1338,92.37 1592.0138,114.9 1634.4038,132.96 " fill="none" id="Activity-backto-Affiliation_Statement" style="stroke:#A80036;stroke-width:1.0;"/><polygon fill="#A80036" points="1484.2638,68.98,1488.2134,75.0133,1495.3017,73.6879,1491.352,67.6547,1484.2638,68.98" style="stroke:#A80036;stroke-width:1.0;"/><text fill="#000000" font-family="sans-serif" font-size="13" lengthAdjust="spacing" textLength="91" x="1530.2033" y="125.6215">0..* affiliations</text><!--MD5=[67ceb885199ca7e1fa058287d8756a2e]
reverse link Document to Textual_Document--><path codeLine="223" d="M1051.5538,442.33 C1071.4138,459.33 1092.0038,476.96 1106.0638,488.99 " fill="none" id="Document-backto-Textual_Document" style="stroke:#A80036;stroke-width:1.0;"/><polygon fill="none" points="1046.9238,447.58,1036.2838,429.26,1056.0238,436.95,1046.9238,447.58" style="stroke:#A80036;stroke-width:1.0;"/><!--MD5=[df53ddde43dfc1567a053356cd4be8c3]
@startuml

    !includesub core.puml!common
    !includesub core.puml!Activity
    !includesub core.puml!Contribution
    !includesub core.puml!ContributionToDocument
    !includesub core.puml!Authorship
    !includesub core.puml!ContributionToProject
    !includesub core.puml!ContributionToEvent
    !includesub core.puml!Membership
    !includesub core.puml!AffiliationStatement
    !includesub core.puml!Document

@enduml

@startuml

        hide empty members
        skinparam BoxPadding 120
    class "Activity" #ffffff {
        contacts : List<URI>
        displayName : String
    }
        "Activity" "0..*" - -o "0..1 who" "Agent"
        class "Contribution" #ffffff {
        }
            
        class "Acknowledgement_Statement" #ffffff {
        }
        
        class "Contribution_Statement" #ffffff {
        }
        
        class "Free_Text_Contribution_Statement" #ffffff {
            statement : Multilingual_String
        }
    
        class "Resource_Contribution_Statement" #ffffff {
        }
    
        class "Resource" #ffffff {
        }
        "Contribution" *- - "0..* contributionStatements" "Contribution_Statement"
        "Contribution_Statement" <|- - "Free_Text_Contribution_Statement"
        "Contribution_Statement" <|- - "Resource_Contribution_Statement"
        "Activity" <|- - "Contribution"
        "Acknowledgement_Statement" "0..* thanks to" - -o "0..1" "Contribution"
        "Acknowledgement_Statement" "0..*" - -o "0..1 resource" "Resource"
        "Resource_Contribution_Statement" "0..*" - -* "0..1 resource" "Resource"
        class "Contribution_to_Document" #ffffff {
        }
        "Contribution_to_Document" "0..*" - -* "Document"
        "Contribution" <|- - "Contribution_to_Document"
        class "Authorship" #ffffff {
            correspondingAuthorFlag : Boolean
        }
        "Authorship" - -* "Textual_Document"
        "Contribution_to_Document" <|- - "Authorship"
        "Authorship" "0..*" - -o "0..1 author" "Agent"
        "Textual_Document" "0..* authoredDocuments" - - - "0..* authors" "Agent"
        class "Contribution_to_Project" #ffffff {
        }
    
        class "Project" #ffffff {
        }
        "Contribution" <|- - "Contribution_to_Project"
        "Contribution_to_Project" "0..*" - -* "0..1 project" "Project"
        class "Contribution_to_Event" #ffffff {
        }
    
        class "Event" #ffffff {
        }
        "Contribution" <|- - "Contribution_to_Event"
        "Contribution_to_Event" "0..*" - -* "0..1 event" "Event"
        class "Membership" #ffffff {
        }
        class "Group" #ffffff {
        }
        "Activity" <|- - "Membership"
        "Membership" "0..*" - -o "0..1 member of" "Group"
        class "Affiliation_Statement" #ffffff {
            displayAffiliation : String
            address : Postal_Address
        }
        "Affiliation_Statement" ..> "postalAddress" "Postal_Address"
        "Affiliation_Statement" o- - "0..1 orgUnit" "Organisation_Unit"
        "Affiliation_Statement" o- - "0..1 institution" "Organisation_Unit"
        "Person" o- - "0..* affiliations" "Affiliation_Statement"
        "Activity" *- - "0..* affiliations" "Affiliation_Statement"
        class "Document" #ffffff {
            DOI : DOI_Type
            title : Multilingual_String
            publicationDate : Date
        }
        class "Textual_Document" #ffffff {
        }
        "Document" <|- - "Textual_Document"

@enduml

PlantUML version 1.2021.8(Sat Jun 26 08:20:59 UTC 2021)
(GPL source distribution)
Java Runtime: OpenJDK Runtime Environment
JVM: OpenJDK 64-Bit Server VM
Default Encoding: UTF-8
Language: en
Country: null
--></g></svg>