<?xml version="1.0" encoding="UTF-8" standalone="no"?><svg xmlns="http://www.w3.org/2000/svg" xmlns:xlink="http://www.w3.org/1999/xlink" contentScriptType="application/ecmascript" contentStyleType="text/css" height="501px" preserveAspectRatio="none" style="width:1716px;height:501px;background:#FFFFFF;" version="1.1" viewBox="0 0 1716 501" width="1716px" zoomAndPan="magnify"><defs><filter height="300%" id="f1tdn5exxq9lqg" width="300%" x="-1" y="-1"><feGaussianBlur result="blurOut" stdDeviation="2.0"/><feColorMatrix in="blurOut" result="blurOut2" type="matrix" values="0 0 0 0 0 0 0 0 0 0 0 0 0 0 0 0 0 0 .4 0"/><feOffset dx="4.0" dy="4.0" in="blurOut2" result="blurOut3"/><feBlend in="SourceGraphic" in2="blurOut3" mode="normal"/></filter></defs><g><!--MD5=[c881b25adf3665c6568c9693d41a70f3]
class Activity--><rect codeLine="132" fill="#FFFFFF" filter="url(#f1tdn5exxq9lqg)" height="52.8047" id="Activity" style="stroke:#A80036;stroke-width:1.5;" width="151" x="742.5" y="7"/><ellipse cx="792.25" cy="23" fill="#ADD1B2" rx="11" ry="11" style="stroke:#A80036;stroke-width:1.0;"/><path d="M795.2188,28.6406 Q794.6406,28.9375 794,29.0781 Q793.3594,29.2344 792.6563,29.2344 Q790.1563,29.2344 788.8281,27.5938 Q787.5156,25.9375 787.5156,22.8125 Q787.5156,19.6875 788.8281,18.0313 Q790.1563,16.375 792.6563,16.375 Q793.3594,16.375 794,16.5313 Q794.6563,16.6875 795.2188,16.9844 L795.2188,19.7031 Q794.5938,19.125 794,18.8594 Q793.4063,18.5781 792.7813,18.5781 Q791.4375,18.5781 790.75,19.6563 Q790.0625,20.7188 790.0625,22.8125 Q790.0625,24.9063 790.75,25.9844 Q791.4375,27.0469 792.7813,27.0469 Q793.4063,27.0469 794,26.7813 Q794.5938,26.5 795.2188,25.9219 L795.2188,28.6406 Z " fill="#000000"/><text fill="#000000" font-family="sans-serif" font-size="12" lengthAdjust="spacing" textLength="43" x="812.75" y="27.1543">Activity</text><line style="stroke:#A80036;stroke-width:1.5;" x1="743.5" x2="892.5" y1="39" y2="39"/><text fill="#000000" font-family="sans-serif" font-size="11" lengthAdjust="spacing" textLength="139" x="748.5" y="53.2104">dateRange : Date_Range</text><!--MD5=[59b530d44ae785dc18db921986a9c15c]
class Document--><rect codeLine="244" fill="#FFFFFF" filter="url(#f1tdn5exxq9lqg)" height="65.6094" id="Document" style="stroke:#A80036;stroke-width:1.5;" width="148" x="1554" y="422"/><ellipse cx="1592.4" cy="438" fill="#ADD1B2" rx="11" ry="11" style="stroke:#A80036;stroke-width:1.0;"/><path d="M1595.3688,443.6406 Q1594.7906,443.9375 1594.15,444.0781 Q1593.5094,444.2344 1592.8063,444.2344 Q1590.3063,444.2344 1588.9781,442.5938 Q1587.6656,440.9375 1587.6656,437.8125 Q1587.6656,434.6875 1588.9781,433.0313 Q1590.3063,431.375 1592.8063,431.375 Q1593.5094,431.375 1594.15,431.5313 Q1594.8063,431.6875 1595.3688,431.9844 L1595.3688,434.7031 Q1594.7438,434.125 1594.15,433.8594 Q1593.5563,433.5781 1592.9313,433.5781 Q1591.5875,433.5781 1590.9,434.6563 Q1590.2125,435.7188 1590.2125,437.8125 Q1590.2125,439.9063 1590.9,440.9844 Q1591.5875,442.0469 1592.9313,442.0469 Q1593.5563,442.0469 1594.15,441.7813 Q1594.7438,441.5 1595.3688,440.9219 L1595.3688,443.6406 Z " fill="#000000"/><text fill="#000000" font-family="sans-serif" font-size="12" lengthAdjust="spacing" textLength="64" x="1611.6" y="442.1543">Document</text><line style="stroke:#A80036;stroke-width:1.5;" x1="1555" x2="1701" y1="454" y2="454"/><text fill="#000000" font-family="sans-serif" font-size="11" lengthAdjust="spacing" textLength="136" x="1560" y="468.2104">title : Multilingual_String</text><text fill="#000000" font-family="sans-serif" font-size="11" lengthAdjust="spacing" textLength="125" x="1560" y="481.0151">publicationDate : Date</text><!--MD5=[9d44916250b776386006c440668bcfbb]
class Agent--><rect codeLine="10" fill="#FFFFFF" filter="url(#f1tdn5exxq9lqg)" height="52.8047" id="Agent" style="stroke:#A80036;stroke-width:1.5;" width="133" x="751.5" y="149.5"/><ellipse cx="795.3" cy="165.5" fill="#ADD1B2" rx="11" ry="11" style="stroke:#A80036;stroke-width:1.0;"/><path d="M798.2688,171.1406 Q797.6906,171.4375 797.05,171.5781 Q796.4094,171.7344 795.7063,171.7344 Q793.2063,171.7344 791.8781,170.0938 Q790.5656,168.4375 790.5656,165.3125 Q790.5656,162.1875 791.8781,160.5313 Q793.2063,158.875 795.7063,158.875 Q796.4094,158.875 797.05,159.0313 Q797.7063,159.1875 798.2688,159.4844 L798.2688,162.2031 Q797.6438,161.625 797.05,161.3594 Q796.4563,161.0781 795.8313,161.0781 Q794.4875,161.0781 793.8,162.1563 Q793.1125,163.2188 793.1125,165.3125 Q793.1125,167.4063 793.8,168.4844 Q794.4875,169.5469 795.8313,169.5469 Q796.4563,169.5469 797.05,169.2813 Q797.6438,169 798.2688,168.4219 L798.2688,171.1406 Z " fill="#000000"/><text fill="#000000" font-family="sans-serif" font-size="12" lengthAdjust="spacing" textLength="37" x="815.7" y="169.6543">Agent</text><line style="stroke:#A80036;stroke-width:1.5;" x1="752.5" x2="883.5" y1="181.5" y2="181.5"/><text fill="#000000" font-family="sans-serif" font-size="11" lengthAdjust="spacing" textLength="121" x="757.5" y="195.7104">lifetime : Date_Range</text><!--MD5=[0330879a1a385efee19ba3488ed490fa]
class Contribution--><rect codeLine="174" fill="#FFFFFF" filter="url(#f1tdn5exxq9lqg)" height="32" id="Contribution" style="stroke:#A80036;stroke-width:1.5;" width="109" x="1034.5" y="160"/><ellipse cx="1049.5" cy="176" fill="#ADD1B2" rx="11" ry="11" style="stroke:#A80036;stroke-width:1.0;"/><path d="M1052.4688,181.6406 Q1051.8906,181.9375 1051.25,182.0781 Q1050.6094,182.2344 1049.9063,182.2344 Q1047.4063,182.2344 1046.0781,180.5938 Q1044.7656,178.9375 1044.7656,175.8125 Q1044.7656,172.6875 1046.0781,171.0313 Q1047.4063,169.375 1049.9063,169.375 Q1050.6094,169.375 1051.25,169.5313 Q1051.9063,169.6875 1052.4688,169.9844 L1052.4688,172.7031 Q1051.8438,172.125 1051.25,171.8594 Q1050.6563,171.5781 1050.0313,171.5781 Q1048.6875,171.5781 1048,172.6563 Q1047.3125,173.7188 1047.3125,175.8125 Q1047.3125,177.9063 1048,178.9844 Q1048.6875,180.0469 1050.0313,180.0469 Q1050.6563,180.0469 1051.25,179.7813 Q1051.8438,179.5 1052.4688,178.9219 L1052.4688,181.6406 Z " fill="#000000"/><text fill="#000000" font-family="sans-serif" font-size="12" lengthAdjust="spacing" textLength="77" x="1063.5" y="180.1543">Contribution</text><!--MD5=[532fe005ca0bef0ad6b309c9c6480e22]
class Contribution_Statement--><rect codeLine="292" fill="#FFFFFF" filter="url(#f1tdn5exxq9lqg)" height="52.8047" id="Contribution_Statement" style="stroke:#A80036;stroke-width:1.5;" width="185" x="1208.5" y="292"/><ellipse cx="1225.3" cy="308" fill="#ADD1B2" rx="11" ry="11" style="stroke:#A80036;stroke-width:1.0;"/><path d="M1228.2688,313.6406 Q1227.6906,313.9375 1227.05,314.0781 Q1226.4094,314.2344 1225.7063,314.2344 Q1223.2063,314.2344 1221.8781,312.5938 Q1220.5656,310.9375 1220.5656,307.8125 Q1220.5656,304.6875 1221.8781,303.0313 Q1223.2063,301.375 1225.7063,301.375 Q1226.4094,301.375 1227.05,301.5313 Q1227.7063,301.6875 1228.2688,301.9844 L1228.2688,304.7031 Q1227.6438,304.125 1227.05,303.8594 Q1226.4563,303.5781 1225.8313,303.5781 Q1224.4875,303.5781 1223.8,304.6563 Q1223.1125,305.7188 1223.1125,307.8125 Q1223.1125,309.9063 1223.8,310.9844 Q1224.4875,312.0469 1225.8313,312.0469 Q1226.4563,312.0469 1227.05,311.7813 Q1227.6438,311.5 1228.2688,310.9219 L1228.2688,313.6406 Z " fill="#000000"/><text fill="#000000" font-family="sans-serif" font-size="12" lengthAdjust="spacing" textLength="149" x="1239.7" y="312.1543">Contribution_Statement</text><line style="stroke:#A80036;stroke-width:1.5;" x1="1209.5" x2="1392.5" y1="324" y2="324"/><text fill="#000000" font-family="sans-serif" font-size="11" lengthAdjust="spacing" textLength="173" x="1214.5" y="338.2104">statement : Multilingual_String</text><!--MD5=[6b13f1b330d33795af281e5c1dfe1e98]
class Resource--><rect codeLine="226" fill="#FFFFFF" filter="url(#f1tdn5exxq9lqg)" height="32" id="Resource" style="stroke:#A80036;stroke-width:1.5;" width="91" x="1255.5" y="439"/><ellipse cx="1270.5" cy="455" fill="#ADD1B2" rx="11" ry="11" style="stroke:#A80036;stroke-width:1.0;"/><path d="M1273.4688,460.6406 Q1272.8906,460.9375 1272.25,461.0781 Q1271.6094,461.2344 1270.9063,461.2344 Q1268.4063,461.2344 1267.0781,459.5938 Q1265.7656,457.9375 1265.7656,454.8125 Q1265.7656,451.6875 1267.0781,450.0313 Q1268.4063,448.375 1270.9063,448.375 Q1271.6094,448.375 1272.25,448.5313 Q1272.9063,448.6875 1273.4688,448.9844 L1273.4688,451.7031 Q1272.8438,451.125 1272.25,450.8594 Q1271.6563,450.5781 1271.0313,450.5781 Q1269.6875,450.5781 1269,451.6563 Q1268.3125,452.7188 1268.3125,454.8125 Q1268.3125,456.9063 1269,457.9844 Q1269.6875,459.0469 1271.0313,459.0469 Q1271.6563,459.0469 1272.25,458.7813 Q1272.8438,458.5 1273.4688,457.9219 L1273.4688,460.6406 Z " fill="#000000"/><text fill="#000000" font-family="sans-serif" font-size="12" lengthAdjust="spacing" textLength="59" x="1284.5" y="459.1543">Resource</text><!--MD5=[05151c161079be2c12996cf31a3c6866]
class Contribution_to_Document--><rect codeLine="192" fill="#FFFFFF" filter="url(#f1tdn5exxq9lqg)" height="32" id="Contribution_to_Document" style="stroke:#A80036;stroke-width:1.5;" width="198" x="1429" y="302.5"/><ellipse cx="1444" cy="318.5" fill="#ADD1B2" rx="11" ry="11" style="stroke:#A80036;stroke-width:1.0;"/><path d="M1446.9688,324.1406 Q1446.3906,324.4375 1445.75,324.5781 Q1445.1094,324.7344 1444.4063,324.7344 Q1441.9063,324.7344 1440.5781,323.0938 Q1439.2656,321.4375 1439.2656,318.3125 Q1439.2656,315.1875 1440.5781,313.5313 Q1441.9063,311.875 1444.4063,311.875 Q1445.1094,311.875 1445.75,312.0313 Q1446.4063,312.1875 1446.9688,312.4844 L1446.9688,315.2031 Q1446.3438,314.625 1445.75,314.3594 Q1445.1563,314.0781 1444.5313,314.0781 Q1443.1875,314.0781 1442.5,315.1563 Q1441.8125,316.2188 1441.8125,318.3125 Q1441.8125,320.4063 1442.5,321.4844 Q1443.1875,322.5469 1444.5313,322.5469 Q1445.1563,322.5469 1445.75,322.2813 Q1446.3438,322 1446.9688,321.4219 L1446.9688,324.1406 Z " fill="#000000"/><text fill="#000000" font-family="sans-serif" font-size="12" lengthAdjust="spacing" textLength="166" x="1458" y="322.6543">Contribution_to_Document</text><!--MD5=[d8ce9658d3ea3b764ca76e27f1ae6382]
class Contribution_to_Project--><rect codeLine="183" fill="#FFFFFF" filter="url(#f1tdn5exxq9lqg)" height="32" id="Contribution_to_Project" style="stroke:#A80036;stroke-width:1.5;" width="178" x="792" y="302.5"/><ellipse cx="807" cy="318.5" fill="#ADD1B2" rx="11" ry="11" style="stroke:#A80036;stroke-width:1.0;"/><path d="M809.9688,324.1406 Q809.3906,324.4375 808.75,324.5781 Q808.1094,324.7344 807.4063,324.7344 Q804.9063,324.7344 803.5781,323.0938 Q802.2656,321.4375 802.2656,318.3125 Q802.2656,315.1875 803.5781,313.5313 Q804.9063,311.875 807.4063,311.875 Q808.1094,311.875 808.75,312.0313 Q809.4063,312.1875 809.9688,312.4844 L809.9688,315.2031 Q809.3438,314.625 808.75,314.3594 Q808.1563,314.0781 807.5313,314.0781 Q806.1875,314.0781 805.5,315.1563 Q804.8125,316.2188 804.8125,318.3125 Q804.8125,320.4063 805.5,321.4844 Q806.1875,322.5469 807.5313,322.5469 Q808.1563,322.5469 808.75,322.2813 Q809.3438,322 809.9688,321.4219 L809.9688,324.1406 Z " fill="#000000"/><text fill="#000000" font-family="sans-serif" font-size="12" lengthAdjust="spacing" textLength="146" x="821" y="322.6543">Contribution_to_Project</text><!--MD5=[79d378210367c0c6ec62ef762ddfbd1b]
class Project--><rect codeLine="282" fill="#FFFFFF" filter="url(#f1tdn5exxq9lqg)" height="32" id="Project" style="stroke:#A80036;stroke-width:1.5;" width="76" x="843" y="439"/><ellipse cx="858" cy="455" fill="#ADD1B2" rx="11" ry="11" style="stroke:#A80036;stroke-width:1.0;"/><path d="M860.9688,460.6406 Q860.3906,460.9375 859.75,461.0781 Q859.1094,461.2344 858.4063,461.2344 Q855.9063,461.2344 854.5781,459.5938 Q853.2656,457.9375 853.2656,454.8125 Q853.2656,451.6875 854.5781,450.0313 Q855.9063,448.375 858.4063,448.375 Q859.1094,448.375 859.75,448.5313 Q860.4063,448.6875 860.9688,448.9844 L860.9688,451.7031 Q860.3438,451.125 859.75,450.8594 Q859.1563,450.5781 858.5313,450.5781 Q857.1875,450.5781 856.5,451.6563 Q855.8125,452.7188 855.8125,454.8125 Q855.8125,456.9063 856.5,457.9844 Q857.1875,459.0469 858.5313,459.0469 Q859.1563,459.0469 859.75,458.7813 Q860.3438,458.5 860.9688,457.9219 L860.9688,460.6406 Z " fill="#000000"/><text fill="#000000" font-family="sans-serif" font-size="12" lengthAdjust="spacing" textLength="44" x="872" y="459.1543">Project</text><!--MD5=[e02578a13076095640a9a08de0c36172]
class Contribution_to_Event--><rect codeLine="201" fill="#FFFFFF" filter="url(#f1tdn5exxq9lqg)" height="32" id="Contribution_to_Event" style="stroke:#A80036;stroke-width:1.5;" width="169" x="1004.5" y="302.5"/><ellipse cx="1019.5" cy="318.5" fill="#ADD1B2" rx="11" ry="11" style="stroke:#A80036;stroke-width:1.0;"/><path d="M1022.4688,324.1406 Q1021.8906,324.4375 1021.25,324.5781 Q1020.6094,324.7344 1019.9063,324.7344 Q1017.4063,324.7344 1016.0781,323.0938 Q1014.7656,321.4375 1014.7656,318.3125 Q1014.7656,315.1875 1016.0781,313.5313 Q1017.4063,311.875 1019.9063,311.875 Q1020.6094,311.875 1021.25,312.0313 Q1021.9063,312.1875 1022.4688,312.4844 L1022.4688,315.2031 Q1021.8438,314.625 1021.25,314.3594 Q1020.6563,314.0781 1020.0313,314.0781 Q1018.6875,314.0781 1018,315.1563 Q1017.3125,316.2188 1017.3125,318.3125 Q1017.3125,320.4063 1018,321.4844 Q1018.6875,322.5469 1020.0313,322.5469 Q1020.6563,322.5469 1021.25,322.2813 Q1021.8438,322 1022.4688,321.4219 L1022.4688,324.1406 Z " fill="#000000"/><text fill="#000000" font-family="sans-serif" font-size="12" lengthAdjust="spacing" textLength="137" x="1033.5" y="322.6543">Contribution_to_Event</text><!--MD5=[ac13618b1a974308c1f12eb6c57723dc]
class Event--><rect codeLine="287" fill="#FFFFFF" filter="url(#f1tdn5exxq9lqg)" height="32" id="Event" style="stroke:#A80036;stroke-width:1.5;" width="67" x="1055.5" y="439"/><ellipse cx="1070.5" cy="455" fill="#ADD1B2" rx="11" ry="11" style="stroke:#A80036;stroke-width:1.0;"/><path d="M1073.4688,460.6406 Q1072.8906,460.9375 1072.25,461.0781 Q1071.6094,461.2344 1070.9063,461.2344 Q1068.4063,461.2344 1067.0781,459.5938 Q1065.7656,457.9375 1065.7656,454.8125 Q1065.7656,451.6875 1067.0781,450.0313 Q1068.4063,448.375 1070.9063,448.375 Q1071.6094,448.375 1072.25,448.5313 Q1072.9063,448.6875 1073.4688,448.9844 L1073.4688,451.7031 Q1072.8438,451.125 1072.25,450.8594 Q1071.6563,450.5781 1071.0313,450.5781 Q1069.6875,450.5781 1069,451.6563 Q1068.3125,452.7188 1068.3125,454.8125 Q1068.3125,456.9063 1069,457.9844 Q1069.6875,459.0469 1071.0313,459.0469 Q1071.6563,459.0469 1072.25,458.7813 Q1072.8438,458.5 1073.4688,457.9219 L1073.4688,460.6406 Z " fill="#000000"/><text fill="#000000" font-family="sans-serif" font-size="12" lengthAdjust="spacing" textLength="35" x="1084.5" y="459.1543">Event</text><!--MD5=[6a029e66987f6edc98a50822cc78695f]
class Involvement--><rect codeLine="138" fill="#FFFFFF" filter="url(#f1tdn5exxq9lqg)" height="32" id="Involvement" style="stroke:#A80036;stroke-width:1.5;" width="106" x="409" y="160"/><ellipse cx="424" cy="176" fill="#ADD1B2" rx="11" ry="11" style="stroke:#A80036;stroke-width:1.0;"/><path d="M426.9688,181.6406 Q426.3906,181.9375 425.75,182.0781 Q425.1094,182.2344 424.4063,182.2344 Q421.9063,182.2344 420.5781,180.5938 Q419.2656,178.9375 419.2656,175.8125 Q419.2656,172.6875 420.5781,171.0313 Q421.9063,169.375 424.4063,169.375 Q425.1094,169.375 425.75,169.5313 Q426.4063,169.6875 426.9688,169.9844 L426.9688,172.7031 Q426.3438,172.125 425.75,171.8594 Q425.1563,171.5781 424.5313,171.5781 Q423.1875,171.5781 422.5,172.6563 Q421.8125,173.7188 421.8125,175.8125 Q421.8125,177.9063 422.5,178.9844 Q423.1875,180.0469 424.5313,180.0469 Q425.1563,180.0469 425.75,179.7813 Q426.3438,179.5 426.9688,178.9219 L426.9688,181.6406 Z " fill="#000000"/><text fill="#000000" font-family="sans-serif" font-size="12" lengthAdjust="spacing" textLength="74" x="438" y="180.1543">Involvement</text><!--MD5=[affb11a45f8309443fb20b6133e8d181]
class Group_or_Organisation_Unit--><rect codeLine="87" fill="#FFFFFF" filter="url(#f1tdn5exxq9lqg)" height="32" id="Group_or_Organisation_Unit" style="stroke:#A80036;stroke-width:1.5;" width="206" x="551" y="302.5"/><ellipse cx="566" cy="318.5" fill="#ADD1B2" rx="11" ry="11" style="stroke:#A80036;stroke-width:1.0;"/><path d="M568.9688,324.1406 Q568.3906,324.4375 567.75,324.5781 Q567.1094,324.7344 566.4063,324.7344 Q563.9063,324.7344 562.5781,323.0938 Q561.2656,321.4375 561.2656,318.3125 Q561.2656,315.1875 562.5781,313.5313 Q563.9063,311.875 566.4063,311.875 Q567.1094,311.875 567.75,312.0313 Q568.4063,312.1875 568.9688,312.4844 L568.9688,315.2031 Q568.3438,314.625 567.75,314.3594 Q567.1563,314.0781 566.5313,314.0781 Q565.1875,314.0781 564.5,315.1563 Q563.8125,316.2188 563.8125,318.3125 Q563.8125,320.4063 564.5,321.4844 Q565.1875,322.5469 566.5313,322.5469 Q567.1563,322.5469 567.75,322.2813 Q568.3438,322 568.9688,321.4219 L568.9688,324.1406 Z " fill="#000000"/><text fill="#000000" font-family="sans-serif" font-size="12" lengthAdjust="spacing" textLength="174" x="580" y="322.6543">Group_or_Organisation_Unit</text><!--MD5=[ddbff00b4911ad4b77d6aa32dd14d1d7]
class Affiliation_Statement--><rect codeLine="353" fill="#FFFFFF" filter="url(#f1tdn5exxq9lqg)" height="78.4141" id="Affiliation_Statement" style="stroke:#A80036;stroke-width:1.5;" width="224" x="7" y="137"/><ellipse cx="50.35" cy="153" fill="#ADD1B2" rx="11" ry="11" style="stroke:#A80036;stroke-width:1.0;"/><path d="M53.3188,158.6406 Q52.7406,158.9375 52.1,159.0781 Q51.4594,159.2344 50.7563,159.2344 Q48.2563,159.2344 46.9281,157.5938 Q45.6156,155.9375 45.6156,152.8125 Q45.6156,149.6875 46.9281,148.0313 Q48.2563,146.375 50.7563,146.375 Q51.4594,146.375 52.1,146.5313 Q52.7563,146.6875 53.3188,146.9844 L53.3188,149.7031 Q52.6938,149.125 52.1,148.8594 Q51.5063,148.5781 50.8813,148.5781 Q49.5375,148.5781 48.85,149.6563 Q48.1625,150.7188 48.1625,152.8125 Q48.1625,154.9063 48.85,155.9844 Q49.5375,157.0469 50.8813,157.0469 Q51.5063,157.0469 52.1,156.7813 Q52.6938,156.5 53.3188,155.9219 L53.3188,158.6406 Z " fill="#000000"/><text fill="#000000" font-family="sans-serif" font-size="12" lengthAdjust="spacing" textLength="129" x="70.65" y="157.1543">Affiliation_Statement</text><line style="stroke:#A80036;stroke-width:1.5;" x1="8" x2="230" y1="169" y2="169"/><text fill="#000000" font-family="sans-serif" font-size="11" lengthAdjust="spacing" textLength="203" x="13" y="183.2104">displayAffiliation_Statement : String</text><text fill="#000000" font-family="sans-serif" font-size="11" lengthAdjust="spacing" textLength="159" x="13" y="196.0151">displayPersonName : String</text><text fill="#000000" font-family="sans-serif" font-size="11" lengthAdjust="spacing" textLength="212" x="13" y="208.8198">contacts : List&lt;Contact_Information&gt;</text><!--MD5=[77463bb17ddcfe3891c27a1f4a877731]
class Membership--><rect codeLine="165" fill="#FFFFFF" filter="url(#f1tdn5exxq9lqg)" height="32" id="Membership" style="stroke:#A80036;stroke-width:1.5;" width="108" x="408" y="302.5"/><ellipse cx="423" cy="318.5" fill="#ADD1B2" rx="11" ry="11" style="stroke:#A80036;stroke-width:1.0;"/><path d="M425.9688,324.1406 Q425.3906,324.4375 424.75,324.5781 Q424.1094,324.7344 423.4063,324.7344 Q420.9063,324.7344 419.5781,323.0938 Q418.2656,321.4375 418.2656,318.3125 Q418.2656,315.1875 419.5781,313.5313 Q420.9063,311.875 423.4063,311.875 Q424.1094,311.875 424.75,312.0313 Q425.4063,312.1875 425.9688,312.4844 L425.9688,315.2031 Q425.3438,314.625 424.75,314.3594 Q424.1563,314.0781 423.5313,314.0781 Q422.1875,314.0781 421.5,315.1563 Q420.8125,316.2188 420.8125,318.3125 Q420.8125,320.4063 421.5,321.4844 Q422.1875,322.5469 423.5313,322.5469 Q424.1563,322.5469 424.75,322.2813 Q425.3438,322 425.9688,321.4219 L425.9688,324.1406 Z " fill="#000000"/><text fill="#000000" font-family="sans-serif" font-size="12" lengthAdjust="spacing" textLength="76" x="437" y="322.6543">Membership</text><!--MD5=[3e7c08c6da448472712568ab49cd8e32]
class Education--><rect codeLine="156" fill="#FFFFFF" filter="url(#f1tdn5exxq9lqg)" height="32" id="Education" style="stroke:#A80036;stroke-width:1.5;" width="95" x="134.5" y="302.5"/><ellipse cx="149.5" cy="318.5" fill="#ADD1B2" rx="11" ry="11" style="stroke:#A80036;stroke-width:1.0;"/><path d="M152.4688,324.1406 Q151.8906,324.4375 151.25,324.5781 Q150.6094,324.7344 149.9063,324.7344 Q147.4063,324.7344 146.0781,323.0938 Q144.7656,321.4375 144.7656,318.3125 Q144.7656,315.1875 146.0781,313.5313 Q147.4063,311.875 149.9063,311.875 Q150.6094,311.875 151.25,312.0313 Q151.9063,312.1875 152.4688,312.4844 L152.4688,315.2031 Q151.8438,314.625 151.25,314.3594 Q150.6563,314.0781 150.0313,314.0781 Q148.6875,314.0781 148,315.1563 Q147.3125,316.2188 147.3125,318.3125 Q147.3125,320.4063 148,321.4844 Q148.6875,322.5469 150.0313,322.5469 Q150.6563,322.5469 151.25,322.2813 Q151.8438,322 152.4688,321.4219 L152.4688,324.1406 Z " fill="#000000"/><text fill="#000000" font-family="sans-serif" font-size="12" lengthAdjust="spacing" textLength="63" x="163.5" y="322.6543">Education</text><!--MD5=[1c0f67851325b0845e0b86703ac36f9d]
class Employment--><rect codeLine="147" fill="#FFFFFF" filter="url(#f1tdn5exxq9lqg)" height="32" id="Employment" style="stroke:#A80036;stroke-width:1.5;" width="108" x="265" y="302.5"/><ellipse cx="280" cy="318.5" fill="#ADD1B2" rx="11" ry="11" style="stroke:#A80036;stroke-width:1.0;"/><path d="M282.9688,324.1406 Q282.3906,324.4375 281.75,324.5781 Q281.1094,324.7344 280.4063,324.7344 Q277.9063,324.7344 276.5781,323.0938 Q275.2656,321.4375 275.2656,318.3125 Q275.2656,315.1875 276.5781,313.5313 Q277.9063,311.875 280.4063,311.875 Q281.1094,311.875 281.75,312.0313 Q282.4063,312.1875 282.9688,312.4844 L282.9688,315.2031 Q282.3438,314.625 281.75,314.3594 Q281.1563,314.0781 280.5313,314.0781 Q279.1875,314.0781 278.5,315.1563 Q277.8125,316.2188 277.8125,318.3125 Q277.8125,320.4063 278.5,321.4844 Q279.1875,322.5469 280.5313,322.5469 Q281.1563,322.5469 281.75,322.2813 Q282.3438,322 282.9688,321.4219 L282.9688,324.1406 Z " fill="#000000"/><text fill="#000000" font-family="sans-serif" font-size="12" lengthAdjust="spacing" textLength="76" x="294" y="322.6543">Employment</text><!--MD5=[ff9dfe2dddb5fe4a69020d7834f0d207]
link Document to Activity--><path codeLine="210" d="M1646.92,421.87 C1651.47,412.55 1655.68,402.14 1658,392 C1668.01,348.31 1674.15,326.04 1645,292 C1545.18,175.42 1078.75,81.04 893.82,47.57 " fill="none" id="Document-Activity" style="stroke:#A80036;stroke-width:1.0;"/><polygon fill="#000000" points="1606.5225,251.341,1613.3143,257.9986,1615.9304,252.735,1606.5225,251.341" style="stroke:#000000;stroke-width:1.0;"/><text fill="#000000" font-family="sans-serif" font-size="13" lengthAdjust="spacing" textLength="36" x="1620" y="258.0669">prove</text><text fill="#000000" font-family="sans-serif" font-size="13" lengthAdjust="spacing" textLength="23" x="1625.3808" y="410.9894">0..*</text><text fill="#000000" font-family="sans-serif" font-size="13" lengthAdjust="spacing" textLength="23" x="901.5969" y="45.2366">0..*</text><!--MD5=[cd935cc757d29bd6a59b1252b30899e0]
link Activity to Agent--><path codeLine="216" d="M818,60.27 C818,83.94 818,119.05 818,144.19 " fill="none" id="Activity-to-Agent" style="stroke:#A80036;stroke-width:1.0;"/><polygon fill="#A80036" points="818,149.39,822,140.39,818,144.39,814,140.39,818,149.39" style="stroke:#A80036;stroke-width:1.0;"/><polygon fill="#000000" points="823,103.5664,825.9389,94.5213,820.0611,94.5213,823,103.5664" style="stroke:#000000;stroke-width:1.0;"/><text fill="#000000" font-family="sans-serif" font-size="13" lengthAdjust="spacing" textLength="33" x="832" y="103.0669">actor</text><text fill="#000000" font-family="sans-serif" font-size="13" lengthAdjust="spacing" textLength="23" x="792.4844" y="79.8693">0..*</text><text fill="#000000" font-family="sans-serif" font-size="13" lengthAdjust="spacing" textLength="24" x="791.225" y="138.6069">0..1</text><!--MD5=[55f20054f286b2e7074e8d22fab1f608]
reverse link Activity to Contribution--><path codeLine="179" d="M885.16,69.32 C941.26,98.41 1018.55,138.47 1059.98,159.95 " fill="none" id="Activity-backto-Contribution" style="stroke:#A80036;stroke-width:1.0;"/><polygon fill="none" points="881.92,75.53,867.39,60.11,888.37,63.1,881.92,75.53" style="stroke:#A80036;stroke-width:1.0;"/><!--MD5=[b01ee177fc17bf8bb95324fc01c31b3b]
link Contribution_Statement to Resource--><path codeLine="497" d="M1301,345.12 C1301,370.91 1301,410.17 1301,433.83 " fill="none" id="Contribution_Statement-to-Resource" style="stroke:#A80036;stroke-width:1.0;"/><polygon fill="#A80036" points="1301,438.92,1305,429.92,1301,433.92,1297,429.92,1301,438.92" style="stroke:#A80036;stroke-width:1.0;"/><polygon fill="#000000" points="1306,388.5664,1308.9389,379.5213,1303.0611,379.5213,1306,388.5664" style="stroke:#000000;stroke-width:1.0;"/><text fill="#000000" font-family="sans-serif" font-size="13" lengthAdjust="spacing" textLength="54" x="1315" y="388.0669">provides</text><text fill="#000000" font-family="sans-serif" font-size="13" lengthAdjust="spacing" textLength="24" x="1272.875" y="427.9041">0..1</text><!--MD5=[8d7c614e8203540f95956299e63d224a]
reverse link Contribution to Contribution_to_Document--><path codeLine="197" d="M1160.67,197.7 C1205.45,210.83 1264.25,228.41 1316,245 C1375.08,263.94 1442.84,287.43 1485.52,302.44 " fill="none" id="Contribution-backto-Contribution_to_Document" style="stroke:#A80036;stroke-width:1.0;"/><polygon fill="none" points="1158.71,204.42,1141.47,192.1,1162.63,190.98,1158.71,204.42" style="stroke:#A80036;stroke-width:1.0;"/><!--MD5=[117c8d017b65f89954aa553a8ad2cfe8]
link Contribution_to_Document to Document--><path codeLine="481" d="M1536.7,334.66 C1545.51,349.64 1559.83,373 1574,392 C1580.45,400.65 1587.81,409.6 1594.97,417.92 " fill="none" id="Contribution_to_Document-to-Document" style="stroke:#A80036;stroke-width:1.0;"/><polygon fill="#A80036" points="1598.46,421.95,1595.6019,412.525,1595.1908,418.1668,1589.5489,417.7557,1598.46,421.95" style="stroke:#A80036;stroke-width:1.0;"/><polygon fill="#000000" points="1581.8669,387.6628,1579.0884,378.5672,1574.2728,381.9374,1581.8669,387.6628" style="stroke:#000000;stroke-width:1.0;"/><text fill="#000000" font-family="sans-serif" font-size="13" lengthAdjust="spacing" textLength="65" x="1588" y="388.0669">document</text><!--MD5=[e36b49b71580bc35ebd964809c09ea7d]
reverse link Contribution to Contribution_to_Project--><path codeLine="188" d="M1049.9,203.41 C1006.65,232.63 938.45,278.69 903.41,302.36 " fill="none" id="Contribution-backto-Contribution_to_Project" style="stroke:#A80036;stroke-width:1.0;"/><polygon fill="none" points="1046.25,197.43,1066.74,192.04,1054.09,209.03,1046.25,197.43" style="stroke:#A80036;stroke-width:1.0;"/><!--MD5=[57fd60736781c4a6a1ada02cfd005744]
link Contribution_to_Project to Project--><path codeLine="278" d="M881,334.67 C881,358.88 881,406.32 881,433.52 " fill="none" id="Contribution_to_Project-to-Project" style="stroke:#A80036;stroke-width:1.0;"/><polygon fill="#A80036" points="881,438.68,885,429.68,881,433.68,877,429.68,881,438.68" style="stroke:#A80036;stroke-width:1.0;"/><polygon fill="#000000" points="886,388.5664,888.9389,379.5213,883.0611,379.5213,886,388.5664" style="stroke:#000000;stroke-width:1.0;"/><text fill="#000000" font-family="sans-serif" font-size="13" lengthAdjust="spacing" textLength="44" x="895" y="388.0669">project</text><!--MD5=[ff4a6d145294525e05493403423321eb]
reverse link Contribution to Contribution_to_Event--><path codeLine="206" d="M1089,212.41 C1089,241.31 1089,280.74 1089,302.15 " fill="none" id="Contribution-backto-Contribution_to_Event" style="stroke:#A80036;stroke-width:1.0;"/><polygon fill="none" points="1082,212.04,1089,192.04,1096,212.04,1082,212.04" style="stroke:#A80036;stroke-width:1.0;"/><!--MD5=[467ded19ca6884babd44a8b5c496328d]
link Contribution_to_Event to Event--><path codeLine="493" d="M1089,334.67 C1089,358.88 1089,406.32 1089,433.52 " fill="none" id="Contribution_to_Event-to-Event" style="stroke:#A80036;stroke-width:1.0;"/><polygon fill="#A80036" points="1089,438.68,1093,429.68,1089,433.68,1085,429.68,1089,438.68" style="stroke:#A80036;stroke-width:1.0;"/><polygon fill="#000000" points="1094,388.5664,1096.9389,379.5213,1091.0611,379.5213,1094,388.5664" style="stroke:#000000;stroke-width:1.0;"/><text fill="#000000" font-family="sans-serif" font-size="13" lengthAdjust="spacing" textLength="36" x="1103" y="388.0669">event</text><!--MD5=[5310b7429ef001befd0a176a00932538]
reverse link Activity to Involvement--><path codeLine="143" d="M734.06,67.63 C660.06,96.83 555.61,138.06 500.12,159.95 " fill="none" id="Activity-backto-Involvement" style="stroke:#A80036;stroke-width:1.0;"/><polygon fill="none" points="731.94,60.94,753.12,60.11,737.08,73.96,731.94,60.94" style="stroke:#A80036;stroke-width:1.0;"/><!--MD5=[3e6df519c6409dff9ecce5f5942987dd]
link Involvement to Group_or_Organisation_Unit--><path codeLine="220" d="M482.55,192.04 C518.11,218.06 590.99,271.39 629.27,299.4 " fill="none" id="Involvement-to-Group_or_Organisation_Unit" style="stroke:#A80036;stroke-width:1.0;"/><polygon fill="#A80036" points="633.31,302.36,628.4073,293.8181,629.2744,299.4081,623.6843,300.2752,633.31,302.36" style="stroke:#A80036;stroke-width:1.0;"/><polygon fill="#000000" points="585.0351,256.519,579.471,248.8059,576,253.5495,585.0351,256.519" style="stroke:#000000;stroke-width:1.0;"/><text fill="#000000" font-family="sans-serif" font-size="13" lengthAdjust="spacing" textLength="67" x="590" y="258.0669">involved in</text><text fill="#000000" font-family="sans-serif" font-size="13" lengthAdjust="spacing" textLength="23" x="462.5478" y="211.9265">0..*</text><!--MD5=[ec091f800280b56df8e15aaaa2e5104f]
reverse link Affiliation_Statement to Involvement--><path codeLine="658" d="M236.58,176 C295.01,176 362.74,176 408.59,176 " fill="none" id="Affiliation_Statement-backto-Involvement" style="stroke:#A80036;stroke-width:1.0;"/><polygon fill="#A80036" points="231.31,176,240.31,180,236.31,176,240.31,172,231.31,176" style="stroke:#A80036;stroke-width:1.0;"/><polygon fill="#000000" points="248.5,164.5664,257.5451,167.5053,257.5451,161.6275,248.5,164.5664" style="stroke:#000000;stroke-width:1.0;"/><text fill="#000000" font-family="sans-serif" font-size="13" lengthAdjust="spacing" textLength="128" x="262.5" y="169.0669">is the foundation for</text><text fill="#000000" font-family="sans-serif" font-size="13" lengthAdjust="spacing" textLength="23" x="238.8547" y="188.5154">0..*</text><text fill="#000000" font-family="sans-serif" font-size="13" lengthAdjust="spacing" textLength="23" x="378.0848" y="188.9418">0..*</text><!--MD5=[eeb1986463f873db234da87eccdc590b]
link Involvement to Involvement--><path codeLine="662" d="M515.27,168.88 C534.4,168.73 550,171.1 550,176 C550,180.44 537.19,182.8 520.55,183.09 " fill="none" id="Involvement-to-Involvement" style="stroke:#A80036;stroke-width:1.0;"/><polygon fill="#A80036" points="515.27,183.12,524.2927,187.0685,520.2699,183.0914,524.247,179.0686,515.27,183.12" style="stroke:#A80036;stroke-width:1.0;"/><polygon fill="#000000" points="554.9608,181.0663,557.9706,172.0445,552.0929,171.9984,554.9608,181.0663" style="stroke:#000000;stroke-width:1.0;"/><text fill="#000000" font-family="sans-serif" font-size="13" lengthAdjust="spacing" textLength="26" x="569" y="180.5669">part</text><text fill="#000000" font-family="sans-serif" font-size="13" lengthAdjust="spacing" textLength="23" x="523.1638" y="181.0013">0..*</text><text fill="#000000" font-family="sans-serif" font-size="13" lengthAdjust="spacing" textLength="24" x="522.8168" y="196.885">0..1</text><!--MD5=[eeb1986463f873db234da87eccdc590b]
link Involvement to Involvement--><path codeLine="666" d="M515.29,163.43 C556.76,159.05 601,163.23 601,176 C601,188.22 560.48,192.58 520.65,189.08 " fill="none" id="Involvement-to-Involvement-1" style="stroke:#A80036;stroke-width:1.0;"/><polygon fill="#A80036" points="515.29,188.57,523.8584,193.4262,520.2663,189.0562,524.6363,185.4641,515.29,188.57" style="stroke:#A80036;stroke-width:1.0;"/><polygon fill="#000000" points="605.4748,181.0387,609.3475,172.3524,603.5022,171.735,605.4748,181.0387" style="stroke:#000000;stroke-width:1.0;"/><text fill="#000000" font-family="sans-serif" font-size="13" lengthAdjust="spacing" textLength="89" x="620" y="180.5669">part transitive</text><text fill="#000000" font-family="sans-serif" font-size="13" lengthAdjust="spacing" textLength="23" x="523.1863" y="158.059">0..*</text><text fill="#000000" font-family="sans-serif" font-size="13" lengthAdjust="spacing" textLength="23" x="515.7969" y="211.9636">0..*</text><!--MD5=[774ab914c44fde287bade86ae1a1d531]
reverse link Involvement to Membership--><path codeLine="170" d="M462,212.41 C462,241.31 462,280.74 462,302.15 " fill="none" id="Involvement-backto-Membership" style="stroke:#A80036;stroke-width:1.0;"/><polygon fill="none" points="455,212.04,462,192.04,469,212.04,455,212.04" style="stroke:#A80036;stroke-width:1.0;"/><!--MD5=[e6302ca8d503674dcb8235c7c53cdc01]
reverse link Involvement to Education--><path codeLine="161" d="M413.97,201.1 C356.09,230.14 260.6,278.06 212.17,302.36 " fill="none" id="Involvement-backto-Education" style="stroke:#A80036;stroke-width:1.0;"/><polygon fill="none" points="411.02,194.75,432.04,192.04,417.3,207.26,411.02,194.75" style="stroke:#A80036;stroke-width:1.0;"/><!--MD5=[5dcf1ca4d8097aa908f88de41c3d702a]
reverse link Involvement to Employment--><path codeLine="152" d="M432.32,206.16 C402.61,235.35 358.03,279.15 334.63,302.15 " fill="none" id="Involvement-backto-Employment" style="stroke:#A80036;stroke-width:1.0;"/><polygon fill="none" points="427.52,201.06,446.7,192.04,437.34,211.05,427.52,201.06" style="stroke:#A80036;stroke-width:1.0;"/><!--MD5=[335bc652314d68e20c6b9db39c8a9e92]
reverse link Activity to Affiliation_Statement--><path codeLine="473" d="M729.14,52.36 C602.34,77.85 369.55,124.64 231.07,152.47 " fill="none" id="Activity-backto-Affiliation_Statement" style="stroke:#A80036;stroke-width:1.0;"/><polygon fill="#FFFFFF" points="742.2,49.74,735.5303,46.9987,730.4346,52.101,737.1043,54.8423,742.2,49.74" style="stroke:#A80036;stroke-width:1.0;"/><polygon fill="#000000" points="532.098,99.5517,541.5449,100.6506,540.3866,94.888,532.098,99.5517" style="stroke:#000000;stroke-width:1.0;"/><text fill="#000000" font-family="sans-serif" font-size="13" lengthAdjust="spacing" textLength="61" x="546" y="103.0669">affilations</text><text fill="#000000" font-family="sans-serif" font-size="13" lengthAdjust="spacing" textLength="23" x="711.4248" y="47.5999">0..*</text><text fill="#000000" font-family="sans-serif" font-size="13" lengthAdjust="spacing" textLength="23" x="238.9862" y="147.54">0..*</text><!--MD5=[985660d160cc1234ef784a412fcab047]
reverse link Contribution to Contribution_Statement--><path codeLine="477" d="M1122.67,199.32 C1160.69,224.51 1222.44,265.44 1262.39,291.91 " fill="none" id="Contribution-backto-Contribution_Statement" style="stroke:#A80036;stroke-width:1.0;"/><polygon fill="#A80036" points="1111.69,192.04,1114.4817,198.6888,1121.6928,198.669,1118.9011,192.0202,1111.69,192.04" style="stroke:#A80036;stroke-width:1.0;"/><polygon fill="#000000" points="1222.1679,256.3284,1216.2516,248.8821,1213.0046,253.7817,1222.1679,256.3284" style="stroke:#000000;stroke-width:1.0;"/><text fill="#000000" font-family="sans-serif" font-size="13" lengthAdjust="spacing" textLength="80" x="1227" y="258.0669">is detailed in</text><text fill="#000000" font-family="sans-serif" font-size="13" lengthAdjust="spacing" textLength="23" x="1227.8021" y="281.1315">0..*</text><!--MD5=[8baa0633a34be8ca6adcc4fd46743d97]
reverse link Agent to Group_or_Organisation_Unit--><path codeLine="92" d="M772.49,215.99 C739.14,244.56 695.68,281.79 671.75,302.3 " fill="none" id="Agent-backto-Group_or_Organisation_Unit" style="stroke:#A80036;stroke-width:1.0;"/><polygon fill="none" points="768.18,210.47,787.92,202.77,777.29,221.1,768.18,210.47" style="stroke:#A80036;stroke-width:1.0;"/><!--MD5=[11dc31954c49b7a90841328cea912302]
@startuml

    !includesub core.puml!common
    !includesub core.puml!Activity
    !includesub core.puml!Contribution
    !includesub core.puml!Contribution_to_Document
    !includesub core.puml!Contribution_to_Project
    !includesub core.puml!Contribution_to_Event
    !includesub core.puml!Involvement
    !includesub core.puml!Membership
    !includesub core.puml!Education
    !includesub core.puml!Employment
    !includesub core.puml!Affiliation_Statement
    !includesub core.puml!Contribution_Statement
    !includesub core.puml!Resource
    !includesub core.puml!Document
    !includesub core.puml!Project
    !includesub core.puml!Event
    !includesub core.puml!Agent
    !includesub core.puml!Group_or_Organisation_Unit

@enduml

@startuml

    hide empty members
    skinparam BoxPadding 120
    class "Activity" #ffffff {
  		dateRange : Date_Range
    }
	"Document" "0..*" - - "0..*" "Activity" : prove >
    "Activity" "0..*" - -> "0..1" "Agent" : actor >
    class "Contribution" #ffffff {
    }
    "Activity" <|-d- "Contribution"
     "Contribution_Statement" - -> "0..1" "Resource" : provides >
    class "Contribution_to_Document" #ffffff {
    }
    "Contribution" <|-d- "Contribution_to_Document"
    "Contribution_to_Document" - -> "Document" : document >
    class "Contribution_to_Project" #ffffff {
    }
    "Contribution" <|-d- "Contribution_to_Project"
    "Contribution_to_Project" - -> "Project" : project >
    class "Contribution_to_Event" #ffffff {
    }
    "Contribution" <|-d- "Contribution_to_Event"
    "Contribution_to_Event" - -> "Event" : event >
    class "Involvement" #ffffff {
    }
   "Activity" <|-d- "Involvement"
	"Involvement" "0..*" - -> "Group_or_Organisation_Unit" : involved in >
	"Involvement" "0..*" -l-> "0..*" "Affiliation_Statement" : is the foundation for >
	"Involvement" "0..*" - -> "0..1" "Involvement" : part >
	"Involvement" "0..*" - -> "0..*" "Involvement" : part transitive >
    class "Membership" #ffffff {
    }
    "Involvement" <|-d- "Membership"
    class "Education" #ffffff {
    }
    "Involvement" <|-d- "Education"
    class "Employment" #ffffff {
    }
    "Involvement" <|-d- "Employment"
    class "Affiliation_Statement" #ffffff {
        displayAffiliation_Statement : String
        displayPersonName : String
        contacts : List<Contact_Information>
    }
    "Activity" "0..*" o- - "0..*" "Affiliation_Statement" : affilations >
    class "Contribution_Statement" #ffffff {
        statement : Multilingual_String
    }
    "Contribution" *- - "0..*" "Contribution_Statement" : is detailed in >
    class "Resource" #ffffff {
    }
    class "Document" #ffffff {
        title : Multilingual_String
        publicationDate : Date
    }
    class "Project" #ffffff {
    }
    class "Event" #ffffff {
    }
    class "Agent" #ffffff {
    	lifetime : Date_Range
    }
    class "Group_or_Organisation_Unit" #ffffff {
    }
	"Agent" <|- - "Group_or_Organisation_Unit"

@enduml

PlantUML version 1.2021.8(Sat Jun 26 08:20:59 UTC 2021)
(GPL source distribution)
Java Runtime: OpenJDK Runtime Environment
JVM: OpenJDK 64-Bit Server VM
Default Encoding: UTF-8
Language: en
Country: null
--></g></svg>