<?xml version="1.0" encoding="UTF-8" standalone="no"?><svg xmlns="http://www.w3.org/2000/svg" xmlns:xlink="http://www.w3.org/1999/xlink" contentScriptType="application/ecmascript" contentStyleType="text/css" height="514px" preserveAspectRatio="none" style="width:1706px;height:514px;background:#FFFFFF;" version="1.1" viewBox="0 0 1706 514" width="1706px" zoomAndPan="magnify"><defs><filter height="300%" id="feo79007rjqyw" width="300%" x="-1" y="-1"><feGaussianBlur result="blurOut" stdDeviation="2.0"/><feColorMatrix in="blurOut" result="blurOut2" type="matrix" values="0 0 0 0 0 0 0 0 0 0 0 0 0 0 0 0 0 0 .4 0"/><feOffset dx="4.0" dy="4.0" in="blurOut2" result="blurOut3"/><feBlend in="SourceGraphic" in2="blurOut3" mode="normal"/></filter></defs><g><!--MD5=[c881b25adf3665c6568c9693d41a70f3]
class Activity--><rect codeLine="138" fill="#FFFFFF" filter="url(#feo79007rjqyw)" height="52.8047" id="Activity" style="stroke:#A80036;stroke-width:1.5;" width="151" x="733" y="7"/><ellipse cx="782.75" cy="23" fill="#ADD1B2" rx="11" ry="11" style="stroke:#A80036;stroke-width:1.0;"/><path d="M785.7188,28.6406 Q785.1406,28.9375 784.5,29.0781 Q783.8594,29.2344 783.1563,29.2344 Q780.6563,29.2344 779.3281,27.5938 Q778.0156,25.9375 778.0156,22.8125 Q778.0156,19.6875 779.3281,18.0313 Q780.6563,16.375 783.1563,16.375 Q783.8594,16.375 784.5,16.5313 Q785.1563,16.6875 785.7188,16.9844 L785.7188,19.7031 Q785.0938,19.125 784.5,18.8594 Q783.9063,18.5781 783.2813,18.5781 Q781.9375,18.5781 781.25,19.6563 Q780.5625,20.7188 780.5625,22.8125 Q780.5625,24.9063 781.25,25.9844 Q781.9375,27.0469 783.2813,27.0469 Q783.9063,27.0469 784.5,26.7813 Q785.0938,26.5 785.7188,25.9219 L785.7188,28.6406 Z " fill="#000000"/><text fill="#000000" font-family="sans-serif" font-size="12" lengthAdjust="spacing" textLength="43" x="803.25" y="27.1543">Activity</text><line style="stroke:#A80036;stroke-width:1.5;" x1="734" x2="883" y1="39" y2="39"/><text fill="#000000" font-family="sans-serif" font-size="11" lengthAdjust="spacing" textLength="139" x="739" y="53.2104">dateRange : Date_Range</text><!--MD5=[59b530d44ae785dc18db921986a9c15c]
class Document--><rect codeLine="250" fill="#FFFFFF" filter="url(#feo79007rjqyw)" height="65.6094" id="Document" style="stroke:#A80036;stroke-width:1.5;" width="148" x="1544.5" y="435"/><ellipse cx="1582.9" cy="451" fill="#ADD1B2" rx="11" ry="11" style="stroke:#A80036;stroke-width:1.0;"/><path d="M1585.8688,456.6406 Q1585.2906,456.9375 1584.65,457.0781 Q1584.0094,457.2344 1583.3063,457.2344 Q1580.8063,457.2344 1579.4781,455.5938 Q1578.1656,453.9375 1578.1656,450.8125 Q1578.1656,447.6875 1579.4781,446.0313 Q1580.8063,444.375 1583.3063,444.375 Q1584.0094,444.375 1584.65,444.5313 Q1585.3063,444.6875 1585.8688,444.9844 L1585.8688,447.7031 Q1585.2438,447.125 1584.65,446.8594 Q1584.0563,446.5781 1583.4313,446.5781 Q1582.0875,446.5781 1581.4,447.6563 Q1580.7125,448.7188 1580.7125,450.8125 Q1580.7125,452.9063 1581.4,453.9844 Q1582.0875,455.0469 1583.4313,455.0469 Q1584.0563,455.0469 1584.65,454.7813 Q1585.2438,454.5 1585.8688,453.9219 L1585.8688,456.6406 Z " fill="#000000"/><text fill="#000000" font-family="sans-serif" font-size="12" lengthAdjust="spacing" textLength="64" x="1602.1" y="455.1543">Document</text><line style="stroke:#A80036;stroke-width:1.5;" x1="1545.5" x2="1691.5" y1="467" y2="467"/><text fill="#000000" font-family="sans-serif" font-size="11" lengthAdjust="spacing" textLength="136" x="1550.5" y="481.2104">title : Multilingual_String</text><text fill="#000000" font-family="sans-serif" font-size="11" lengthAdjust="spacing" textLength="125" x="1550.5" y="494.0151">publicationDate : Date</text><!--MD5=[9d44916250b776386006c440668bcfbb]
class Agent--><rect codeLine="10" fill="#FFFFFF" filter="url(#feo79007rjqyw)" height="52.8047" id="Agent" style="stroke:#A80036;stroke-width:1.5;" width="133" x="742" y="156"/><ellipse cx="785.8" cy="172" fill="#ADD1B2" rx="11" ry="11" style="stroke:#A80036;stroke-width:1.0;"/><path d="M788.7688,177.6406 Q788.1906,177.9375 787.55,178.0781 Q786.9094,178.2344 786.2063,178.2344 Q783.7063,178.2344 782.3781,176.5938 Q781.0656,174.9375 781.0656,171.8125 Q781.0656,168.6875 782.3781,167.0313 Q783.7063,165.375 786.2063,165.375 Q786.9094,165.375 787.55,165.5313 Q788.2063,165.6875 788.7688,165.9844 L788.7688,168.7031 Q788.1438,168.125 787.55,167.8594 Q786.9563,167.5781 786.3313,167.5781 Q784.9875,167.5781 784.3,168.6563 Q783.6125,169.7188 783.6125,171.8125 Q783.6125,173.9063 784.3,174.9844 Q784.9875,176.0469 786.3313,176.0469 Q786.9563,176.0469 787.55,175.7813 Q788.1438,175.5 788.7688,174.9219 L788.7688,177.6406 Z " fill="#000000"/><text fill="#000000" font-family="sans-serif" font-size="12" lengthAdjust="spacing" textLength="37" x="806.2" y="176.1543">Agent</text><line style="stroke:#A80036;stroke-width:1.5;" x1="743" x2="874" y1="188" y2="188"/><text fill="#000000" font-family="sans-serif" font-size="11" lengthAdjust="spacing" textLength="121" x="748" y="202.2104">lifetime : Date_Range</text><!--MD5=[0330879a1a385efee19ba3488ed490fa]
class Contribution--><rect codeLine="180" fill="#FFFFFF" filter="url(#feo79007rjqyw)" height="32" id="Contribution" style="stroke:#A80036;stroke-width:1.5;" width="109" x="1025" y="166.5"/><ellipse cx="1040" cy="182.5" fill="#ADD1B2" rx="11" ry="11" style="stroke:#A80036;stroke-width:1.0;"/><path d="M1042.9688,188.1406 Q1042.3906,188.4375 1041.75,188.5781 Q1041.1094,188.7344 1040.4063,188.7344 Q1037.9063,188.7344 1036.5781,187.0938 Q1035.2656,185.4375 1035.2656,182.3125 Q1035.2656,179.1875 1036.5781,177.5313 Q1037.9063,175.875 1040.4063,175.875 Q1041.1094,175.875 1041.75,176.0313 Q1042.4063,176.1875 1042.9688,176.4844 L1042.9688,179.2031 Q1042.3438,178.625 1041.75,178.3594 Q1041.1563,178.0781 1040.5313,178.0781 Q1039.1875,178.0781 1038.5,179.1563 Q1037.8125,180.2188 1037.8125,182.3125 Q1037.8125,184.4063 1038.5,185.4844 Q1039.1875,186.5469 1040.5313,186.5469 Q1041.1563,186.5469 1041.75,186.2813 Q1042.3438,186 1042.9688,185.4219 L1042.9688,188.1406 Z " fill="#000000"/><text fill="#000000" font-family="sans-serif" font-size="12" lengthAdjust="spacing" textLength="77" x="1054" y="186.6543">Contribution</text><!--MD5=[532fe005ca0bef0ad6b309c9c6480e22]
class Contribution_Statement--><rect codeLine="287" fill="#FFFFFF" filter="url(#feo79007rjqyw)" height="52.8047" id="Contribution_Statement" style="stroke:#A80036;stroke-width:1.5;" width="185" x="1199" y="305"/><ellipse cx="1215.8" cy="321" fill="#ADD1B2" rx="11" ry="11" style="stroke:#A80036;stroke-width:1.0;"/><path d="M1218.7688,326.6406 Q1218.1906,326.9375 1217.55,327.0781 Q1216.9094,327.2344 1216.2063,327.2344 Q1213.7063,327.2344 1212.3781,325.5938 Q1211.0656,323.9375 1211.0656,320.8125 Q1211.0656,317.6875 1212.3781,316.0313 Q1213.7063,314.375 1216.2063,314.375 Q1216.9094,314.375 1217.55,314.5313 Q1218.2063,314.6875 1218.7688,314.9844 L1218.7688,317.7031 Q1218.1438,317.125 1217.55,316.8594 Q1216.9563,316.5781 1216.3313,316.5781 Q1214.9875,316.5781 1214.3,317.6563 Q1213.6125,318.7188 1213.6125,320.8125 Q1213.6125,322.9063 1214.3,323.9844 Q1214.9875,325.0469 1216.3313,325.0469 Q1216.9563,325.0469 1217.55,324.7813 Q1218.1438,324.5 1218.7688,323.9219 L1218.7688,326.6406 Z " fill="#000000"/><text fill="#000000" font-family="sans-serif" font-size="12" lengthAdjust="spacing" textLength="149" x="1230.2" y="325.1543">Contribution_Statement</text><line style="stroke:#A80036;stroke-width:1.5;" x1="1200" x2="1383" y1="337" y2="337"/><text fill="#000000" font-family="sans-serif" font-size="11" lengthAdjust="spacing" textLength="173" x="1205" y="351.2104">statement : Multilingual_String</text><!--MD5=[6b13f1b330d33795af281e5c1dfe1e98]
class Resource--><rect codeLine="232" fill="#FFFFFF" filter="url(#feo79007rjqyw)" height="32" id="Resource" style="stroke:#A80036;stroke-width:1.5;" width="91" x="1246" y="452"/><ellipse cx="1261" cy="468" fill="#ADD1B2" rx="11" ry="11" style="stroke:#A80036;stroke-width:1.0;"/><path d="M1263.9688,473.6406 Q1263.3906,473.9375 1262.75,474.0781 Q1262.1094,474.2344 1261.4063,474.2344 Q1258.9063,474.2344 1257.5781,472.5938 Q1256.2656,470.9375 1256.2656,467.8125 Q1256.2656,464.6875 1257.5781,463.0313 Q1258.9063,461.375 1261.4063,461.375 Q1262.1094,461.375 1262.75,461.5313 Q1263.4063,461.6875 1263.9688,461.9844 L1263.9688,464.7031 Q1263.3438,464.125 1262.75,463.8594 Q1262.1563,463.5781 1261.5313,463.5781 Q1260.1875,463.5781 1259.5,464.6563 Q1258.8125,465.7188 1258.8125,467.8125 Q1258.8125,469.9063 1259.5,470.9844 Q1260.1875,472.0469 1261.5313,472.0469 Q1262.1563,472.0469 1262.75,471.7813 Q1263.3438,471.5 1263.9688,470.9219 L1263.9688,473.6406 Z " fill="#000000"/><text fill="#000000" font-family="sans-serif" font-size="12" lengthAdjust="spacing" textLength="59" x="1275" y="472.1543">Resource</text><!--MD5=[05151c161079be2c12996cf31a3c6866]
class Contribution_to_Document--><rect codeLine="198" fill="#FFFFFF" filter="url(#feo79007rjqyw)" height="32" id="Contribution_to_Document" style="stroke:#A80036;stroke-width:1.5;" width="198" x="1419.5" y="315.5"/><ellipse cx="1434.5" cy="331.5" fill="#ADD1B2" rx="11" ry="11" style="stroke:#A80036;stroke-width:1.0;"/><path d="M1437.4688,337.1406 Q1436.8906,337.4375 1436.25,337.5781 Q1435.6094,337.7344 1434.9063,337.7344 Q1432.4063,337.7344 1431.0781,336.0938 Q1429.7656,334.4375 1429.7656,331.3125 Q1429.7656,328.1875 1431.0781,326.5313 Q1432.4063,324.875 1434.9063,324.875 Q1435.6094,324.875 1436.25,325.0313 Q1436.9063,325.1875 1437.4688,325.4844 L1437.4688,328.2031 Q1436.8438,327.625 1436.25,327.3594 Q1435.6563,327.0781 1435.0313,327.0781 Q1433.6875,327.0781 1433,328.1563 Q1432.3125,329.2188 1432.3125,331.3125 Q1432.3125,333.4063 1433,334.4844 Q1433.6875,335.5469 1435.0313,335.5469 Q1435.6563,335.5469 1436.25,335.2813 Q1436.8438,335 1437.4688,334.4219 L1437.4688,337.1406 Z " fill="#000000"/><text fill="#000000" font-family="sans-serif" font-size="12" lengthAdjust="spacing" textLength="166" x="1448.5" y="335.6543">Contribution_to_Document</text><!--MD5=[d8ce9658d3ea3b764ca76e27f1ae6382]
class Contribution_to_Project--><rect codeLine="189" fill="#FFFFFF" filter="url(#feo79007rjqyw)" height="32" id="Contribution_to_Project" style="stroke:#A80036;stroke-width:1.5;" width="178" x="782.5" y="315.5"/><ellipse cx="797.5" cy="331.5" fill="#ADD1B2" rx="11" ry="11" style="stroke:#A80036;stroke-width:1.0;"/><path d="M800.4688,337.1406 Q799.8906,337.4375 799.25,337.5781 Q798.6094,337.7344 797.9063,337.7344 Q795.4063,337.7344 794.0781,336.0938 Q792.7656,334.4375 792.7656,331.3125 Q792.7656,328.1875 794.0781,326.5313 Q795.4063,324.875 797.9063,324.875 Q798.6094,324.875 799.25,325.0313 Q799.9063,325.1875 800.4688,325.4844 L800.4688,328.2031 Q799.8438,327.625 799.25,327.3594 Q798.6563,327.0781 798.0313,327.0781 Q796.6875,327.0781 796,328.1563 Q795.3125,329.2188 795.3125,331.3125 Q795.3125,333.4063 796,334.4844 Q796.6875,335.5469 798.0313,335.5469 Q798.6563,335.5469 799.25,335.2813 Q799.8438,335 800.4688,334.4219 L800.4688,337.1406 Z " fill="#000000"/><text fill="#000000" font-family="sans-serif" font-size="12" lengthAdjust="spacing" textLength="146" x="811.5" y="335.6543">Contribution_to_Project</text><!--MD5=[79d378210367c0c6ec62ef762ddfbd1b]
class Project--><rect codeLine="277" fill="#FFFFFF" filter="url(#feo79007rjqyw)" height="32" id="Project" style="stroke:#A80036;stroke-width:1.5;" width="76" x="833.5" y="452"/><ellipse cx="848.5" cy="468" fill="#ADD1B2" rx="11" ry="11" style="stroke:#A80036;stroke-width:1.0;"/><path d="M851.4688,473.6406 Q850.8906,473.9375 850.25,474.0781 Q849.6094,474.2344 848.9063,474.2344 Q846.4063,474.2344 845.0781,472.5938 Q843.7656,470.9375 843.7656,467.8125 Q843.7656,464.6875 845.0781,463.0313 Q846.4063,461.375 848.9063,461.375 Q849.6094,461.375 850.25,461.5313 Q850.9063,461.6875 851.4688,461.9844 L851.4688,464.7031 Q850.8438,464.125 850.25,463.8594 Q849.6563,463.5781 849.0313,463.5781 Q847.6875,463.5781 847,464.6563 Q846.3125,465.7188 846.3125,467.8125 Q846.3125,469.9063 847,470.9844 Q847.6875,472.0469 849.0313,472.0469 Q849.6563,472.0469 850.25,471.7813 Q850.8438,471.5 851.4688,470.9219 L851.4688,473.6406 Z " fill="#000000"/><text fill="#000000" font-family="sans-serif" font-size="12" lengthAdjust="spacing" textLength="44" x="862.5" y="472.1543">Project</text><!--MD5=[e02578a13076095640a9a08de0c36172]
class Contribution_to_Event--><rect codeLine="207" fill="#FFFFFF" filter="url(#feo79007rjqyw)" height="32" id="Contribution_to_Event" style="stroke:#A80036;stroke-width:1.5;" width="169" x="995" y="315.5"/><ellipse cx="1010" cy="331.5" fill="#ADD1B2" rx="11" ry="11" style="stroke:#A80036;stroke-width:1.0;"/><path d="M1012.9688,337.1406 Q1012.3906,337.4375 1011.75,337.5781 Q1011.1094,337.7344 1010.4063,337.7344 Q1007.9063,337.7344 1006.5781,336.0938 Q1005.2656,334.4375 1005.2656,331.3125 Q1005.2656,328.1875 1006.5781,326.5313 Q1007.9063,324.875 1010.4063,324.875 Q1011.1094,324.875 1011.75,325.0313 Q1012.4063,325.1875 1012.9688,325.4844 L1012.9688,328.2031 Q1012.3438,327.625 1011.75,327.3594 Q1011.1563,327.0781 1010.5313,327.0781 Q1009.1875,327.0781 1008.5,328.1563 Q1007.8125,329.2188 1007.8125,331.3125 Q1007.8125,333.4063 1008.5,334.4844 Q1009.1875,335.5469 1010.5313,335.5469 Q1011.1563,335.5469 1011.75,335.2813 Q1012.3438,335 1012.9688,334.4219 L1012.9688,337.1406 Z " fill="#000000"/><text fill="#000000" font-family="sans-serif" font-size="12" lengthAdjust="spacing" textLength="137" x="1024" y="335.6543">Contribution_to_Event</text><!--MD5=[ac13618b1a974308c1f12eb6c57723dc]
class Event--><rect codeLine="282" fill="#FFFFFF" filter="url(#feo79007rjqyw)" height="32" id="Event" style="stroke:#A80036;stroke-width:1.5;" width="67" x="1046" y="452"/><ellipse cx="1061" cy="468" fill="#ADD1B2" rx="11" ry="11" style="stroke:#A80036;stroke-width:1.0;"/><path d="M1063.9688,473.6406 Q1063.3906,473.9375 1062.75,474.0781 Q1062.1094,474.2344 1061.4063,474.2344 Q1058.9063,474.2344 1057.5781,472.5938 Q1056.2656,470.9375 1056.2656,467.8125 Q1056.2656,464.6875 1057.5781,463.0313 Q1058.9063,461.375 1061.4063,461.375 Q1062.1094,461.375 1062.75,461.5313 Q1063.4063,461.6875 1063.9688,461.9844 L1063.9688,464.7031 Q1063.3438,464.125 1062.75,463.8594 Q1062.1563,463.5781 1061.5313,463.5781 Q1060.1875,463.5781 1059.5,464.6563 Q1058.8125,465.7188 1058.8125,467.8125 Q1058.8125,469.9063 1059.5,470.9844 Q1060.1875,472.0469 1061.5313,472.0469 Q1062.1563,472.0469 1062.75,471.7813 Q1063.3438,471.5 1063.9688,470.9219 L1063.9688,473.6406 Z " fill="#000000"/><text fill="#000000" font-family="sans-serif" font-size="12" lengthAdjust="spacing" textLength="35" x="1075" y="472.1543">Event</text><!--MD5=[6a029e66987f6edc98a50822cc78695f]
class Involvement--><rect codeLine="144" fill="#FFFFFF" filter="url(#feo79007rjqyw)" height="32" id="Involvement" style="stroke:#A80036;stroke-width:1.5;" width="106" x="399.5" y="166.5"/><ellipse cx="414.5" cy="182.5" fill="#ADD1B2" rx="11" ry="11" style="stroke:#A80036;stroke-width:1.0;"/><path d="M417.4688,188.1406 Q416.8906,188.4375 416.25,188.5781 Q415.6094,188.7344 414.9063,188.7344 Q412.4063,188.7344 411.0781,187.0938 Q409.7656,185.4375 409.7656,182.3125 Q409.7656,179.1875 411.0781,177.5313 Q412.4063,175.875 414.9063,175.875 Q415.6094,175.875 416.25,176.0313 Q416.9063,176.1875 417.4688,176.4844 L417.4688,179.2031 Q416.8438,178.625 416.25,178.3594 Q415.6563,178.0781 415.0313,178.0781 Q413.6875,178.0781 413,179.1563 Q412.3125,180.2188 412.3125,182.3125 Q412.3125,184.4063 413,185.4844 Q413.6875,186.5469 415.0313,186.5469 Q415.6563,186.5469 416.25,186.2813 Q416.8438,186 417.4688,185.4219 L417.4688,188.1406 Z " fill="#000000"/><text fill="#000000" font-family="sans-serif" font-size="12" lengthAdjust="spacing" textLength="74" x="428.5" y="186.6543">Involvement</text><!--MD5=[affb11a45f8309443fb20b6133e8d181]
class Group_or_Organisation_Unit--><rect codeLine="91" fill="#FFFFFF" filter="url(#feo79007rjqyw)" height="32" id="Group_or_Organisation_Unit" style="stroke:#A80036;stroke-width:1.5;" width="206" x="541.5" y="315.5"/><ellipse cx="556.5" cy="331.5" fill="#ADD1B2" rx="11" ry="11" style="stroke:#A80036;stroke-width:1.0;"/><path d="M559.4688,337.1406 Q558.8906,337.4375 558.25,337.5781 Q557.6094,337.7344 556.9063,337.7344 Q554.4063,337.7344 553.0781,336.0938 Q551.7656,334.4375 551.7656,331.3125 Q551.7656,328.1875 553.0781,326.5313 Q554.4063,324.875 556.9063,324.875 Q557.6094,324.875 558.25,325.0313 Q558.9063,325.1875 559.4688,325.4844 L559.4688,328.2031 Q558.8438,327.625 558.25,327.3594 Q557.6563,327.0781 557.0313,327.0781 Q555.6875,327.0781 555,328.1563 Q554.3125,329.2188 554.3125,331.3125 Q554.3125,333.4063 555,334.4844 Q555.6875,335.5469 557.0313,335.5469 Q557.6563,335.5469 558.25,335.2813 Q558.8438,335 559.4688,334.4219 L559.4688,337.1406 Z " fill="#000000"/><text fill="#000000" font-family="sans-serif" font-size="12" lengthAdjust="spacing" textLength="174" x="570.5" y="335.6543">Group_or_Organisation_Unit</text><!--MD5=[ddbff00b4911ad4b77d6aa32dd14d1d7]
class Affiliation_Statement--><rect codeLine="340" fill="#FFFFFF" filter="url(#feo79007rjqyw)" height="91.2188" id="Affiliation_Statement" style="stroke:#A80036;stroke-width:1.5;" width="215" x="7" y="137"/><ellipse cx="46.3" cy="153" fill="#ADD1B2" rx="11" ry="11" style="stroke:#A80036;stroke-width:1.0;"/><path d="M49.2688,158.6406 Q48.6906,158.9375 48.05,159.0781 Q47.4094,159.2344 46.7063,159.2344 Q44.2063,159.2344 42.8781,157.5938 Q41.5656,155.9375 41.5656,152.8125 Q41.5656,149.6875 42.8781,148.0313 Q44.2063,146.375 46.7063,146.375 Q47.4094,146.375 48.05,146.5313 Q48.7063,146.6875 49.2688,146.9844 L49.2688,149.7031 Q48.6438,149.125 48.05,148.8594 Q47.4563,148.5781 46.8313,148.5781 Q45.4875,148.5781 44.8,149.6563 Q44.1125,150.7188 44.1125,152.8125 Q44.1125,154.9063 44.8,155.9844 Q45.4875,157.0469 46.8313,157.0469 Q47.4563,157.0469 48.05,156.7813 Q48.6438,156.5 49.2688,155.9219 L49.2688,158.6406 Z " fill="#000000"/><text fill="#000000" font-family="sans-serif" font-size="12" lengthAdjust="spacing" textLength="129" x="65.7" y="157.1543">Affiliation_Statement</text><line style="stroke:#A80036;stroke-width:1.5;" x1="8" x2="221" y1="169" y2="169"/><text fill="#000000" font-family="sans-serif" font-size="11" lengthAdjust="spacing" textLength="203" x="13" y="183.2104">displayAffiliation_Statement : String</text><text fill="#000000" font-family="sans-serif" font-size="11" lengthAdjust="spacing" textLength="159" x="13" y="196.0151">displayPersonName : String</text><text fill="#000000" font-family="sans-serif" font-size="11" lengthAdjust="spacing" textLength="147" x="13" y="208.8198">address : Postal_Address</text><text fill="#000000" font-family="sans-serif" font-size="11" lengthAdjust="spacing" textLength="116" x="13" y="221.6245">contacts : List&lt;URI&gt;</text><!--MD5=[77463bb17ddcfe3891c27a1f4a877731]
class Membership--><rect codeLine="171" fill="#FFFFFF" filter="url(#feo79007rjqyw)" height="32" id="Membership" style="stroke:#A80036;stroke-width:1.5;" width="108" x="398.5" y="315.5"/><ellipse cx="413.5" cy="331.5" fill="#ADD1B2" rx="11" ry="11" style="stroke:#A80036;stroke-width:1.0;"/><path d="M416.4688,337.1406 Q415.8906,337.4375 415.25,337.5781 Q414.6094,337.7344 413.9063,337.7344 Q411.4063,337.7344 410.0781,336.0938 Q408.7656,334.4375 408.7656,331.3125 Q408.7656,328.1875 410.0781,326.5313 Q411.4063,324.875 413.9063,324.875 Q414.6094,324.875 415.25,325.0313 Q415.9063,325.1875 416.4688,325.4844 L416.4688,328.2031 Q415.8438,327.625 415.25,327.3594 Q414.6563,327.0781 414.0313,327.0781 Q412.6875,327.0781 412,328.1563 Q411.3125,329.2188 411.3125,331.3125 Q411.3125,333.4063 412,334.4844 Q412.6875,335.5469 414.0313,335.5469 Q414.6563,335.5469 415.25,335.2813 Q415.8438,335 416.4688,334.4219 L416.4688,337.1406 Z " fill="#000000"/><text fill="#000000" font-family="sans-serif" font-size="12" lengthAdjust="spacing" textLength="76" x="427.5" y="335.6543">Membership</text><!--MD5=[3e7c08c6da448472712568ab49cd8e32]
class Education--><rect codeLine="162" fill="#FFFFFF" filter="url(#feo79007rjqyw)" height="32" id="Education" style="stroke:#A80036;stroke-width:1.5;" width="95" x="125" y="315.5"/><ellipse cx="140" cy="331.5" fill="#ADD1B2" rx="11" ry="11" style="stroke:#A80036;stroke-width:1.0;"/><path d="M142.9688,337.1406 Q142.3906,337.4375 141.75,337.5781 Q141.1094,337.7344 140.4063,337.7344 Q137.9063,337.7344 136.5781,336.0938 Q135.2656,334.4375 135.2656,331.3125 Q135.2656,328.1875 136.5781,326.5313 Q137.9063,324.875 140.4063,324.875 Q141.1094,324.875 141.75,325.0313 Q142.4063,325.1875 142.9688,325.4844 L142.9688,328.2031 Q142.3438,327.625 141.75,327.3594 Q141.1563,327.0781 140.5313,327.0781 Q139.1875,327.0781 138.5,328.1563 Q137.8125,329.2188 137.8125,331.3125 Q137.8125,333.4063 138.5,334.4844 Q139.1875,335.5469 140.5313,335.5469 Q141.1563,335.5469 141.75,335.2813 Q142.3438,335 142.9688,334.4219 L142.9688,337.1406 Z " fill="#000000"/><text fill="#000000" font-family="sans-serif" font-size="12" lengthAdjust="spacing" textLength="63" x="154" y="335.6543">Education</text><!--MD5=[1c0f67851325b0845e0b86703ac36f9d]
class Employment--><rect codeLine="153" fill="#FFFFFF" filter="url(#feo79007rjqyw)" height="32" id="Employment" style="stroke:#A80036;stroke-width:1.5;" width="108" x="255.5" y="315.5"/><ellipse cx="270.5" cy="331.5" fill="#ADD1B2" rx="11" ry="11" style="stroke:#A80036;stroke-width:1.0;"/><path d="M273.4688,337.1406 Q272.8906,337.4375 272.25,337.5781 Q271.6094,337.7344 270.9063,337.7344 Q268.4063,337.7344 267.0781,336.0938 Q265.7656,334.4375 265.7656,331.3125 Q265.7656,328.1875 267.0781,326.5313 Q268.4063,324.875 270.9063,324.875 Q271.6094,324.875 272.25,325.0313 Q272.9063,325.1875 273.4688,325.4844 L273.4688,328.2031 Q272.8438,327.625 272.25,327.3594 Q271.6563,327.0781 271.0313,327.0781 Q269.6875,327.0781 269,328.1563 Q268.3125,329.2188 268.3125,331.3125 Q268.3125,333.4063 269,334.4844 Q269.6875,335.5469 271.0313,335.5469 Q271.6563,335.5469 272.25,335.2813 Q272.8438,335 273.4688,334.4219 L273.4688,337.1406 Z " fill="#000000"/><text fill="#000000" font-family="sans-serif" font-size="12" lengthAdjust="spacing" textLength="76" x="284.5" y="335.6543">Employment</text><!--MD5=[ff9dfe2dddb5fe4a69020d7834f0d207]
link Document to Activity--><path codeLine="216" d="M1637.42,434.87 C1641.97,425.55 1646.18,415.14 1648.5,405 C1658.51,361.31 1664.24,339.39 1635.5,305 C1442.63,74.17 1049.45,38.77 884.26,34.44 " fill="none" id="Document-Activity" style="stroke:#A80036;stroke-width:1.0;"/><polygon fill="#000000" points="1605.0852,264.2192,1611.692,271.0603,1614.4513,265.8704,1605.0852,264.2192" style="stroke:#000000;stroke-width:1.0;"/><text fill="#000000" font-family="sans-serif" font-size="13" lengthAdjust="spacing" textLength="36" x="1618.5" y="271.0669">prove</text><text fill="#000000" font-family="sans-serif" font-size="13" lengthAdjust="spacing" textLength="23" x="1615.8808" y="423.9894">0..*</text><text fill="#000000" font-family="sans-serif" font-size="13" lengthAdjust="spacing" textLength="23" x="892.0316" y="30.9373">0..*</text><!--MD5=[cd935cc757d29bd6a59b1252b30899e0]
link Activity to Agent--><path codeLine="222" d="M808.5,60.11 C808.5,85.25 808.5,123.63 808.5,150.48 " fill="none" id="Activity-to-Agent" style="stroke:#A80036;stroke-width:1.0;"/><polygon fill="#A80036" points="808.5,155.69,812.5,146.69,808.5,150.69,804.5,146.69,808.5,155.69" style="stroke:#A80036;stroke-width:1.0;"/><polygon fill="#000000" points="813.5,103.5664,816.4389,94.5213,810.5611,94.5213,813.5,103.5664" style="stroke:#000000;stroke-width:1.0;"/><text fill="#000000" font-family="sans-serif" font-size="13" lengthAdjust="spacing" textLength="33" x="822.5" y="103.0669">actor</text><text fill="#000000" font-family="sans-serif" font-size="13" lengthAdjust="spacing" textLength="23" x="782.9844" y="79.6743">0..*</text><text fill="#000000" font-family="sans-serif" font-size="13" lengthAdjust="spacing" textLength="24" x="781.725" y="144.8606">0..1</text><!--MD5=[55f20054f286b2e7074e8d22fab1f608]
reverse link Activity to Contribution--><path codeLine="185" d="M873.61,69.82 C930.32,100.58 1009.8,143.69 1051.48,166.3 " fill="none" id="Activity-backto-Contribution" style="stroke:#A80036;stroke-width:1.0;"/><polygon fill="none" points="869.95,75.79,855.7,60.11,876.62,63.49,869.95,75.79" style="stroke:#A80036;stroke-width:1.0;"/><!--MD5=[b01ee177fc17bf8bb95324fc01c31b3b]
link Contribution_Statement to Resource--><path codeLine="489" d="M1291.5,358.12 C1291.5,383.91 1291.5,423.17 1291.5,446.83 " fill="none" id="Contribution_Statement-to-Resource" style="stroke:#A80036;stroke-width:1.0;"/><polygon fill="#A80036" points="1291.5,451.92,1295.5,442.92,1291.5,446.92,1287.5,442.92,1291.5,451.92" style="stroke:#A80036;stroke-width:1.0;"/><polygon fill="#000000" points="1296.5,401.5664,1299.4389,392.5213,1293.5611,392.5213,1296.5,401.5664" style="stroke:#000000;stroke-width:1.0;"/><text fill="#000000" font-family="sans-serif" font-size="13" lengthAdjust="spacing" textLength="54" x="1305.5" y="401.0669">provides</text><text fill="#000000" font-family="sans-serif" font-size="13" lengthAdjust="spacing" textLength="24" x="1263.375" y="440.9041">0..1</text><!--MD5=[8d7c614e8203540f95956299e63d224a]
reverse link Contribution to Contribution_to_Document--><path codeLine="203" d="M1147.77,204.61 C1194.54,219.22 1257.93,239.33 1313.5,258 C1370.4,277.11 1435.7,300.45 1477.02,315.39 " fill="none" id="Contribution-backto-Contribution_to_Document" style="stroke:#A80036;stroke-width:1.0;"/><polygon fill="none" points="1145.51,211.24,1128.5,198.6,1149.68,197.87,1145.51,211.24" style="stroke:#A80036;stroke-width:1.0;"/><!--MD5=[117c8d017b65f89954aa553a8ad2cfe8]
link Contribution_to_Document to Document--><path codeLine="473" d="M1527.2,347.66 C1536.01,362.64 1550.33,386 1564.5,405 C1570.95,413.65 1578.31,422.6 1585.47,430.92 " fill="none" id="Contribution_to_Document-to-Document" style="stroke:#A80036;stroke-width:1.0;"/><polygon fill="#A80036" points="1588.96,434.95,1586.1019,425.525,1585.6908,431.1668,1580.0489,430.7557,1588.96,434.95" style="stroke:#A80036;stroke-width:1.0;"/><polygon fill="#000000" points="1572.3669,400.6628,1569.5884,391.5672,1564.7728,394.9374,1572.3669,400.6628" style="stroke:#000000;stroke-width:1.0;"/><text fill="#000000" font-family="sans-serif" font-size="13" lengthAdjust="spacing" textLength="65" x="1578.5" y="401.0669">document</text><!--MD5=[e36b49b71580bc35ebd964809c09ea7d]
reverse link Contribution to Contribution_to_Project--><path codeLine="194" d="M1041.67,210.23 C998.06,241.05 927.9,290.64 892.86,315.4 " fill="none" id="Contribution-backto-Contribution_to_Project" style="stroke:#A80036;stroke-width:1.0;"/><polygon fill="none" points="1037.65,204.5,1058.02,198.68,1045.73,215.94,1037.65,204.5" style="stroke:#A80036;stroke-width:1.0;"/><!--MD5=[57fd60736781c4a6a1ada02cfd005744]
link Contribution_to_Project to Project--><path codeLine="273" d="M871.5,347.67 C871.5,371.88 871.5,419.32 871.5,446.52 " fill="none" id="Contribution_to_Project-to-Project" style="stroke:#A80036;stroke-width:1.0;"/><polygon fill="#A80036" points="871.5,451.68,875.5,442.68,871.5,446.68,867.5,442.68,871.5,451.68" style="stroke:#A80036;stroke-width:1.0;"/><polygon fill="#000000" points="876.5,401.5664,879.4389,392.5213,873.5611,392.5213,876.5,401.5664" style="stroke:#000000;stroke-width:1.0;"/><text fill="#000000" font-family="sans-serif" font-size="13" lengthAdjust="spacing" textLength="44" x="885.5" y="401.0669">project</text><!--MD5=[ff4a6d145294525e05493403423321eb]
reverse link Contribution to Contribution_to_Event--><path codeLine="212" d="M1079.5,218.81 C1079.5,249.52 1079.5,292.54 1079.5,315.18 " fill="none" id="Contribution-backto-Contribution_to_Event" style="stroke:#A80036;stroke-width:1.0;"/><polygon fill="none" points="1072.5,218.68,1079.5,198.68,1086.5,218.68,1072.5,218.68" style="stroke:#A80036;stroke-width:1.0;"/><!--MD5=[467ded19ca6884babd44a8b5c496328d]
link Contribution_to_Event to Event--><path codeLine="485" d="M1079.5,347.67 C1079.5,371.88 1079.5,419.32 1079.5,446.52 " fill="none" id="Contribution_to_Event-to-Event" style="stroke:#A80036;stroke-width:1.0;"/><polygon fill="#A80036" points="1079.5,451.68,1083.5,442.68,1079.5,446.68,1075.5,442.68,1079.5,451.68" style="stroke:#A80036;stroke-width:1.0;"/><polygon fill="#000000" points="1084.5,401.5664,1087.4389,392.5213,1081.5611,392.5213,1084.5,401.5664" style="stroke:#000000;stroke-width:1.0;"/><text fill="#000000" font-family="sans-serif" font-size="13" lengthAdjust="spacing" textLength="36" x="1093.5" y="401.0669">event</text><!--MD5=[5310b7429ef001befd0a176a00932538]
reverse link Activity to Involvement--><path codeLine="149" d="M727.78,67.83 C653.03,98.7 545.24,143.2 489.31,166.3 " fill="none" id="Activity-backto-Involvement" style="stroke:#A80036;stroke-width:1.0;"/><polygon fill="none" points="725.33,61.27,746.49,60.11,730.68,74.21,725.33,61.27" style="stroke:#A80036;stroke-width:1.0;"/><!--MD5=[3e6df519c6409dff9ecce5f5942987dd]
link Involvement to Group_or_Organisation_Unit--><path codeLine="226" d="M472.32,198.68 C507.91,225.93 582.49,283.02 620.75,312.32 " fill="none" id="Involvement-to-Group_or_Organisation_Unit" style="stroke:#A80036;stroke-width:1.0;"/><polygon fill="#A80036" points="624.78,315.4,620.0837,306.7429,620.8163,312.3521,615.2071,313.0848,624.78,315.4" style="stroke:#A80036;stroke-width:1.0;"/><polygon fill="#000000" points="580.47,269.6059,575.0747,261.7738,571.5016,266.4409,580.47,269.6059" style="stroke:#000000;stroke-width:1.0;"/><text fill="#000000" font-family="sans-serif" font-size="13" lengthAdjust="spacing" textLength="67" x="585.5" y="271.0669">involved in</text><text fill="#000000" font-family="sans-serif" font-size="13" lengthAdjust="spacing" textLength="23" x="452.076" y="218.6129">0..*</text><!--MD5=[ec091f800280b56df8e15aaaa2e5104f]
reverse link Affiliation_Statement to Involvement--><path codeLine="650" d="M227.6,182.5 C285.61,182.5 353.53,182.5 399.43,182.5 " fill="none" id="Affiliation_Statement-backto-Involvement" style="stroke:#A80036;stroke-width:1.0;"/><polygon fill="#A80036" points="222.37,182.5,231.37,186.5,227.37,182.5,231.37,178.5,222.37,182.5" style="stroke:#A80036;stroke-width:1.0;"/><polygon fill="#000000" points="239.25,171.0664,248.2951,174.0053,248.2951,168.1275,239.25,171.0664" style="stroke:#000000;stroke-width:1.0;"/><text fill="#000000" font-family="sans-serif" font-size="13" lengthAdjust="spacing" textLength="128" x="253.25" y="175.5669">is the foundation for</text><text fill="#000000" font-family="sans-serif" font-size="13" lengthAdjust="spacing" textLength="23" x="230.0171" y="195.0446">0..*</text><text fill="#000000" font-family="sans-serif" font-size="13" lengthAdjust="spacing" textLength="23" x="368.5605" y="195.4891">0..*</text><!--MD5=[eeb1986463f873db234da87eccdc590b]
link Involvement to Involvement--><path codeLine="654" d="M505.77,174.63 C524.9,174.46 540.5,177.09 540.5,182.5 C540.5,187.41 527.69,190.02 511.05,190.34 " fill="none" id="Involvement-to-Involvement" style="stroke:#A80036;stroke-width:1.0;"/><polygon fill="#A80036" points="505.77,190.37,514.7927,194.3185,510.7699,190.3414,514.747,186.3186,505.77,190.37" style="stroke:#A80036;stroke-width:1.0;"/><polygon fill="#000000" points="545.4556,187.5662,548.4748,178.5476,542.5971,178.4954,545.4556,187.5662" style="stroke:#000000;stroke-width:1.0;"/><text fill="#000000" font-family="sans-serif" font-size="13" lengthAdjust="spacing" textLength="26" x="559.5" y="187.0669">part</text><text fill="#000000" font-family="sans-serif" font-size="13" lengthAdjust="spacing" textLength="23" x="513.6638" y="186.6599">0..*</text><text fill="#000000" font-family="sans-serif" font-size="13" lengthAdjust="spacing" textLength="24" x="513.3168" y="204.2217">0..1</text><!--MD5=[eeb1986463f873db234da87eccdc590b]
link Involvement to Involvement--><path codeLine="658" d="M505.79,168.61 C547.26,163.76 591.5,168.39 591.5,182.5 C591.5,196 550.98,200.82 511.15,196.96 " fill="none" id="Involvement-to-Involvement-1" style="stroke:#A80036;stroke-width:1.0;"/><polygon fill="#A80036" points="505.79,196.39,514.3167,201.3191,510.762,196.9186,515.1625,193.364,505.79,196.39" style="stroke:#A80036;stroke-width:1.0;"/><polygon fill="#000000" points="595.9192,187.5326,599.8889,178.8901,594.0508,178.2073,595.9192,187.5326" style="stroke:#000000;stroke-width:1.0;"/><text fill="#000000" font-family="sans-serif" font-size="13" lengthAdjust="spacing" textLength="89" x="610.5" y="187.0669">part transitive</text><text fill="#000000" font-family="sans-serif" font-size="13" lengthAdjust="spacing" textLength="23" x="513.6863" y="163.0781">0..*</text><text fill="#000000" font-family="sans-serif" font-size="13" lengthAdjust="spacing" textLength="23" x="502.1179" y="218.3805">0..*</text><!--MD5=[774ab914c44fde287bade86ae1a1d531]
reverse link Involvement to Membership--><path codeLine="176" d="M452.5,218.81 C452.5,249.52 452.5,292.54 452.5,315.18 " fill="none" id="Involvement-backto-Membership" style="stroke:#A80036;stroke-width:1.0;"/><polygon fill="none" points="445.5,218.68,452.5,198.68,459.5,218.68,445.5,218.68" style="stroke:#A80036;stroke-width:1.0;"/><!--MD5=[e6302ca8d503674dcb8235c7c53cdc01]
reverse link Involvement to Education--><path codeLine="167" d="M406.11,207.86 C347.87,238.43 249.75,289.94 201.32,315.37 " fill="none" id="Involvement-backto-Education" style="stroke:#A80036;stroke-width:1.0;"/><polygon fill="none" points="402.89,201.64,423.85,198.54,409.4,214.04,402.89,201.64" style="stroke:#A80036;stroke-width:1.0;"/><!--MD5=[5dcf1ca4d8097aa908f88de41c3d702a]
reverse link Involvement to Employment--><path codeLine="158" d="M423.68,213.12 C393.67,243.98 347.82,291.11 324.4,315.18 " fill="none" id="Involvement-backto-Employment" style="stroke:#A80036;stroke-width:1.0;"/><polygon fill="none" points="418.77,208.13,437.74,198.68,428.81,217.89,418.77,208.13" style="stroke:#A80036;stroke-width:1.0;"/><!--MD5=[335bc652314d68e20c6b9db39c8a9e92]
reverse link Activity to Affiliation_Statement--><path codeLine="465" d="M719.82,53.28 C592.66,80.22 358.83,129.75 222,158.73 " fill="none" id="Activity-backto-Affiliation_Statement" style="stroke:#A80036;stroke-width:1.0;"/><polygon fill="#FFFFFF" points="732.91,50.51,726.2134,47.8349,721.1685,52.9874,727.8651,55.6625,732.91,50.51" style="stroke:#A80036;stroke-width:1.0;"/><polygon fill="#000000" points="544.6085,99.6025,554.0663,100.6033,552.8483,94.853,544.6085,99.6025" style="stroke:#000000;stroke-width:1.0;"/><text fill="#000000" font-family="sans-serif" font-size="13" lengthAdjust="spacing" textLength="61" x="558.5" y="103.0669">affilations</text><text fill="#000000" font-family="sans-serif" font-size="13" lengthAdjust="spacing" textLength="23" x="701.8814" y="48.4687">0..*</text><text fill="#000000" font-family="sans-serif" font-size="13" lengthAdjust="spacing" textLength="23" x="229.9953" y="153.6931">0..*</text><!--MD5=[985660d160cc1234ef784a412fcab047]
reverse link Contribution to Contribution_Statement--><path codeLine="469" d="M1112.47,206.36 C1150.95,233.04 1214.39,277.03 1254.51,304.85 " fill="none" id="Contribution-backto-Contribution_Statement" style="stroke:#A80036;stroke-width:1.0;"/><polygon fill="#A80036" points="1101.39,198.68,1104.0412,205.3861,1111.2511,205.5181,1108.5999,198.812,1101.39,198.68" style="stroke:#A80036;stroke-width:1.0;"/><polygon fill="#000000" points="1219.6089,269.4155,1213.8505,261.8463,1210.5012,266.6766,1219.6089,269.4155" style="stroke:#000000;stroke-width:1.0;"/><text fill="#000000" font-family="sans-serif" font-size="13" lengthAdjust="spacing" textLength="80" x="1224.5" y="271.0669">is detailed in</text><text fill="#000000" font-family="sans-serif" font-size="13" lengthAdjust="spacing" textLength="23" x="1220.2967" y="294.0576">0..*</text><!--MD5=[8baa0633a34be8ca6adcc4fd46743d97]
reverse link Agent to Group_or_Organisation_Unit--><path codeLine="96" d="M764.83,222.64 C731,252.97 685.93,293.37 661.68,315.1 " fill="none" id="Agent-backto-Group_or_Organisation_Unit" style="stroke:#A80036;stroke-width:1.0;"/><polygon fill="none" points="760.37,217.24,779.93,209.11,769.71,227.67,760.37,217.24" style="stroke:#A80036;stroke-width:1.0;"/><!--MD5=[2612619b77e4990116a871a5d6aa28f6]
@startuml

    !includesub core.puml!common
    !includesub core.puml!Activity
    !includesub core.puml!Contribution
    !includesub core.puml!Contribution_to_Document
    !includesub core.puml!Contribution_to_Project
    !includesub core.puml!Contribution_to_Event
    !includesub core.puml!Involvement
    !includesub core.puml!Membership
    !includesub core.puml!Education
    !includesub core.puml!Employment
    !includesub core.puml!Affiliation_Statement
    !includesub core.puml!Contribution_Statement
    !includesub core.puml!Resource
    !includesub core.puml!Document
    !includesub core.puml!Project
    !includesub core.puml!Event
    !includesub core.puml!Agent
    !includesub core.puml!Group_or_Organisation_Unit

@enduml

@startuml

    hide empty members
    skinparam BoxPadding 120
    class "Activity" #ffffff {
  		dateRange : Date_Range
    }
	"Document" "0..*" - - "0..*" "Activity" : prove >
    "Activity" "0..*" - -> "0..1" "Agent" : actor >
    class "Contribution" #ffffff {
    }
    "Activity" <|-d- "Contribution"
     "Contribution_Statement" - -> "0..1" "Resource" : provides >
    class "Contribution_to_Document" #ffffff {
    }
    "Contribution" <|-d- "Contribution_to_Document"
    "Contribution_to_Document" - -> "Document" : document >
    class "Contribution_to_Project" #ffffff {
    }
    "Contribution" <|-d- "Contribution_to_Project"
    "Contribution_to_Project" - -> "Project" : project >
    class "Contribution_to_Event" #ffffff {
    }
    "Contribution" <|-d- "Contribution_to_Event"
    "Contribution_to_Event" - -> "Event" : event >
    class "Involvement" #ffffff {
    }
   "Activity" <|-d- "Involvement"
	"Involvement" "0..*" - -> "Group_or_Organisation_Unit" : involved in >
	"Involvement" "0..*" -l-> "0..*" "Affiliation_Statement" : is the foundation for >
	"Involvement" "0..*" - -> "0..1" "Involvement" : part >
	"Involvement" "0..*" - -> "0..*" "Involvement" : part transitive >
    class "Membership" #ffffff {
    }
    "Involvement" <|-d- "Membership"
    class "Education" #ffffff {
    }
    "Involvement" <|-d- "Education"
    class "Employment" #ffffff {
    }
    "Involvement" <|-d- "Employment"
    class "Affiliation_Statement" #ffffff {
        displayAffiliation_Statement : String
        displayPersonName : String
        address : Postal_Address
        contacts : List<URI>
    }
    "Activity" "0..*" o- - "0..*" "Affiliation_Statement" : affilations >
    class "Contribution_Statement" #ffffff {
        statement : Multilingual_String
    }
    "Contribution" *- - "0..*" "Contribution_Statement" : is detailed in >
    class "Resource" #ffffff {
    }
    class "Document" #ffffff {
        title : Multilingual_String
        publicationDate : Date
    }
    class "Project" #ffffff {
    }
    class "Event" #ffffff {
    }
    class "Agent" #ffffff {
    	lifetime : Date_Range
    }
    class "Group_or_Organisation_Unit" #ffffff {
    }
	"Agent" <|- - "Group_or_Organisation_Unit"

@enduml

PlantUML version 1.2021.8(Sat Jun 26 08:20:59 UTC 2021)
(GPL source distribution)
Java Runtime: OpenJDK Runtime Environment
JVM: OpenJDK 64-Bit Server VM
Default Encoding: UTF-8
Language: en
Country: null
--></g></svg>