<?xml version="1.0" encoding="UTF-8" standalone="no"?><svg xmlns="http://www.w3.org/2000/svg" xmlns:xlink="http://www.w3.org/1999/xlink" contentScriptType="application/ecmascript" contentStyleType="text/css" height="1033px" preserveAspectRatio="none" style="width:1167px;height:1033px;background:#FFFFFF;" version="1.1" viewBox="0 0 1167 1033" width="1167px" zoomAndPan="magnify"><defs><filter height="300%" id="f5v6qmo8xfrqv" width="300%" x="-1" y="-1"><feGaussianBlur result="blurOut" stdDeviation="2.0"/><feColorMatrix in="blurOut" result="blurOut2" type="matrix" values="0 0 0 0 0 0 0 0 0 0 0 0 0 0 0 0 0 0 .4 0"/><feOffset dx="4.0" dy="4.0" in="blurOut2" result="blurOut3"/><feBlend in="SourceGraphic" in2="blurOut3" mode="normal"/></filter></defs><g><!--MD5=[c881b25adf3665c6568c9693d41a70f3]
class Activity--><rect codeLine="141" fill="#FFFFFF" filter="url(#f5v6qmo8xfrqv)" height="52.8047" id="Activity" style="stroke:#A80036;stroke-width:1.5;" width="151" x="416.5" y="454"/><ellipse cx="466.25" cy="470" fill="#ADD1B2" rx="11" ry="11" style="stroke:#A80036;stroke-width:1.0;"/><path d="M469.2188,475.6406 Q468.6406,475.9375 468,476.0781 Q467.3594,476.2344 466.6563,476.2344 Q464.1563,476.2344 462.8281,474.5938 Q461.5156,472.9375 461.5156,469.8125 Q461.5156,466.6875 462.8281,465.0313 Q464.1563,463.375 466.6563,463.375 Q467.3594,463.375 468,463.5313 Q468.6563,463.6875 469.2188,463.9844 L469.2188,466.7031 Q468.5938,466.125 468,465.8594 Q467.4063,465.5781 466.7813,465.5781 Q465.4375,465.5781 464.75,466.6563 Q464.0625,467.7188 464.0625,469.8125 Q464.0625,471.9063 464.75,472.9844 Q465.4375,474.0469 466.7813,474.0469 Q467.4063,474.0469 468,473.7813 Q468.5938,473.5 469.2188,472.9219 L469.2188,475.6406 Z " fill="#000000"/><text fill="#000000" font-family="sans-serif" font-size="12" lengthAdjust="spacing" textLength="43" x="486.75" y="474.1543">Activity</text><line style="stroke:#A80036;stroke-width:1.5;" x1="417.5" x2="566.5" y1="486" y2="486"/><text fill="#000000" font-family="sans-serif" font-size="11" lengthAdjust="spacing" textLength="139" x="422.5" y="500.2104">dateRange : Date_Range</text><!--MD5=[59b530d44ae785dc18db921986a9c15c]
class Document--><rect codeLine="254" fill="#FFFFFF" filter="url(#f5v6qmo8xfrqv)" height="65.6094" id="Document" style="stroke:#A80036;stroke-width:1.5;" width="148" x="384" y="311"/><ellipse cx="422.4" cy="327" fill="#ADD1B2" rx="11" ry="11" style="stroke:#A80036;stroke-width:1.0;"/><path d="M425.3688,332.6406 Q424.7906,332.9375 424.15,333.0781 Q423.5094,333.2344 422.8063,333.2344 Q420.3063,333.2344 418.9781,331.5938 Q417.6656,329.9375 417.6656,326.8125 Q417.6656,323.6875 418.9781,322.0313 Q420.3063,320.375 422.8063,320.375 Q423.5094,320.375 424.15,320.5313 Q424.8063,320.6875 425.3688,320.9844 L425.3688,323.7031 Q424.7438,323.125 424.15,322.8594 Q423.5563,322.5781 422.9313,322.5781 Q421.5875,322.5781 420.9,323.6563 Q420.2125,324.7188 420.2125,326.8125 Q420.2125,328.9063 420.9,329.9844 Q421.5875,331.0469 422.9313,331.0469 Q423.5563,331.0469 424.15,330.7813 Q424.7438,330.5 425.3688,329.9219 L425.3688,332.6406 Z " fill="#000000"/><text fill="#000000" font-family="sans-serif" font-size="12" lengthAdjust="spacing" textLength="64" x="441.6" y="331.1543">Document</text><line style="stroke:#A80036;stroke-width:1.5;" x1="385" x2="531" y1="343" y2="343"/><text fill="#000000" font-family="sans-serif" font-size="11" lengthAdjust="spacing" textLength="136" x="390" y="357.2104">title : Multilingual_String</text><text fill="#000000" font-family="sans-serif" font-size="11" lengthAdjust="spacing" textLength="125" x="390" y="370.0151">publicationDate : Date</text><!--MD5=[9d44916250b776386006c440668bcfbb]
class Agent--><rect codeLine="10" fill="#FFFFFF" filter="url(#f5v6qmo8xfrqv)" height="78.4141" id="Agent" style="stroke:#A80036;stroke-width:1.5;" width="224" x="653" y="584"/><ellipse cx="742.25" cy="600" fill="#ADD1B2" rx="11" ry="11" style="stroke:#A80036;stroke-width:1.0;"/><path d="M745.2188,605.6406 Q744.6406,605.9375 744,606.0781 Q743.3594,606.2344 742.6563,606.2344 Q740.1563,606.2344 738.8281,604.5938 Q737.5156,602.9375 737.5156,599.8125 Q737.5156,596.6875 738.8281,595.0313 Q740.1563,593.375 742.6563,593.375 Q743.3594,593.375 744,593.5313 Q744.6563,593.6875 745.2188,593.9844 L745.2188,596.7031 Q744.5938,596.125 744,595.8594 Q743.4063,595.5781 742.7813,595.5781 Q741.4375,595.5781 740.75,596.6563 Q740.0625,597.7188 740.0625,599.8125 Q740.0625,601.9063 740.75,602.9844 Q741.4375,604.0469 742.7813,604.0469 Q743.4063,604.0469 744,603.7813 Q744.5938,603.5 745.2188,602.9219 L745.2188,605.6406 Z " fill="#000000"/><text fill="#000000" font-family="sans-serif" font-size="12" lengthAdjust="spacing" textLength="37" x="762.75" y="604.1543">Agent</text><line style="stroke:#A80036;stroke-width:1.5;" x1="654" x2="876" y1="616" y2="616"/><text fill="#000000" font-family="sans-serif" font-size="11" lengthAdjust="spacing" textLength="207" x="659" y="630.2104">keywords : List&lt;Multilingual_String&gt;</text><text fill="#000000" font-family="sans-serif" font-size="11" lengthAdjust="spacing" textLength="121" x="659" y="643.0151">lifetime : Date_Range</text><text fill="#000000" font-family="sans-serif" font-size="11" lengthAdjust="spacing" textLength="212" x="659" y="655.8198">contacts : List&lt;Contact_Information&gt;</text><!--MD5=[0330879a1a385efee19ba3488ed490fa]
class Contribution--><rect codeLine="184" fill="#FFFFFF" filter="url(#f5v6qmo8xfrqv)" height="32" id="Contribution" style="stroke:#A80036;stroke-width:1.5;" width="109" x="437.5" y="607"/><ellipse cx="452.5" cy="623" fill="#ADD1B2" rx="11" ry="11" style="stroke:#A80036;stroke-width:1.0;"/><path d="M455.4688,628.6406 Q454.8906,628.9375 454.25,629.0781 Q453.6094,629.2344 452.9063,629.2344 Q450.4063,629.2344 449.0781,627.5938 Q447.7656,625.9375 447.7656,622.8125 Q447.7656,619.6875 449.0781,618.0313 Q450.4063,616.375 452.9063,616.375 Q453.6094,616.375 454.25,616.5313 Q454.9063,616.6875 455.4688,616.9844 L455.4688,619.7031 Q454.8438,619.125 454.25,618.8594 Q453.6563,618.5781 453.0313,618.5781 Q451.6875,618.5781 451,619.6563 Q450.3125,620.7188 450.3125,622.8125 Q450.3125,624.9063 451,625.9844 Q451.6875,627.0469 453.0313,627.0469 Q453.6563,627.0469 454.25,626.7813 Q454.8438,626.5 455.4688,625.9219 L455.4688,628.6406 Z " fill="#000000"/><text fill="#000000" font-family="sans-serif" font-size="12" lengthAdjust="spacing" textLength="77" x="466.5" y="627.1543">Contribution</text><!--MD5=[532fe005ca0bef0ad6b309c9c6480e22]
class Contribution_Statement--><rect codeLine="339" fill="#FFFFFF" filter="url(#f5v6qmo8xfrqv)" height="52.8047" id="Contribution_Statement" style="stroke:#A80036;stroke-width:1.5;" width="185" x="240.5" y="751.5"/><ellipse cx="257.3" cy="767.5" fill="#ADD1B2" rx="11" ry="11" style="stroke:#A80036;stroke-width:1.0;"/><path d="M260.2688,773.1406 Q259.6906,773.4375 259.05,773.5781 Q258.4094,773.7344 257.7063,773.7344 Q255.2063,773.7344 253.8781,772.0938 Q252.5656,770.4375 252.5656,767.3125 Q252.5656,764.1875 253.8781,762.5313 Q255.2063,760.875 257.7063,760.875 Q258.4094,760.875 259.05,761.0313 Q259.7063,761.1875 260.2688,761.4844 L260.2688,764.2031 Q259.6438,763.625 259.05,763.3594 Q258.4563,763.0781 257.8313,763.0781 Q256.4875,763.0781 255.8,764.1563 Q255.1125,765.2188 255.1125,767.3125 Q255.1125,769.4063 255.8,770.4844 Q256.4875,771.5469 257.8313,771.5469 Q258.4563,771.5469 259.05,771.2813 Q259.6438,771 260.2688,770.4219 L260.2688,773.1406 Z " fill="#000000"/><text fill="#000000" font-family="sans-serif" font-size="12" lengthAdjust="spacing" textLength="149" x="271.7" y="771.6543">Contribution_Statement</text><line style="stroke:#A80036;stroke-width:1.5;" x1="241.5" x2="424.5" y1="783.5" y2="783.5"/><text fill="#000000" font-family="sans-serif" font-size="11" lengthAdjust="spacing" textLength="173" x="246.5" y="797.7104">statement : Multilingual_String</text><!--MD5=[6b13f1b330d33795af281e5c1dfe1e98]
class Resource--><rect codeLine="236" fill="#FFFFFF" filter="url(#f5v6qmo8xfrqv)" height="32" id="Resource" style="stroke:#A80036;stroke-width:1.5;" width="91" x="287.5" y="894"/><ellipse cx="302.5" cy="910" fill="#ADD1B2" rx="11" ry="11" style="stroke:#A80036;stroke-width:1.0;"/><path d="M305.4688,915.6406 Q304.8906,915.9375 304.25,916.0781 Q303.6094,916.2344 302.9063,916.2344 Q300.4063,916.2344 299.0781,914.5938 Q297.7656,912.9375 297.7656,909.8125 Q297.7656,906.6875 299.0781,905.0313 Q300.4063,903.375 302.9063,903.375 Q303.6094,903.375 304.25,903.5313 Q304.9063,903.6875 305.4688,903.9844 L305.4688,906.7031 Q304.8438,906.125 304.25,905.8594 Q303.6563,905.5781 303.0313,905.5781 Q301.6875,905.5781 301,906.6563 Q300.3125,907.7188 300.3125,909.8125 Q300.3125,911.9063 301,912.9844 Q301.6875,914.0469 303.0313,914.0469 Q303.6563,914.0469 304.25,913.7813 Q304.8438,913.5 305.4688,912.9219 L305.4688,915.6406 Z " fill="#000000"/><text fill="#000000" font-family="sans-serif" font-size="12" lengthAdjust="spacing" textLength="59" x="316.5" y="914.1543">Resource</text><!--MD5=[05151c161079be2c12996cf31a3c6866]
class Contribution_to_Document--><rect codeLine="202" fill="#FFFFFF" filter="url(#f5v6qmo8xfrqv)" height="32" id="Contribution_to_Document" style="stroke:#A80036;stroke-width:1.5;" width="198" x="7" y="762"/><ellipse cx="22" cy="778" fill="#ADD1B2" rx="11" ry="11" style="stroke:#A80036;stroke-width:1.0;"/><path d="M24.9688,783.6406 Q24.3906,783.9375 23.75,784.0781 Q23.1094,784.2344 22.4063,784.2344 Q19.9063,784.2344 18.5781,782.5938 Q17.2656,780.9375 17.2656,777.8125 Q17.2656,774.6875 18.5781,773.0313 Q19.9063,771.375 22.4063,771.375 Q23.1094,771.375 23.75,771.5313 Q24.4063,771.6875 24.9688,771.9844 L24.9688,774.7031 Q24.3438,774.125 23.75,773.8594 Q23.1563,773.5781 22.5313,773.5781 Q21.1875,773.5781 20.5,774.6563 Q19.8125,775.7188 19.8125,777.8125 Q19.8125,779.9063 20.5,780.9844 Q21.1875,782.0469 22.5313,782.0469 Q23.1563,782.0469 23.75,781.7813 Q24.3438,781.5 24.9688,780.9219 L24.9688,783.6406 Z " fill="#000000"/><text fill="#000000" font-family="sans-serif" font-size="12" lengthAdjust="spacing" textLength="166" x="36" y="782.1543">Contribution_to_Document</text><!--MD5=[d8ce9658d3ea3b764ca76e27f1ae6382]
class Contribution_to_Project--><rect codeLine="193" fill="#FFFFFF" filter="url(#f5v6qmo8xfrqv)" height="32" id="Contribution_to_Project" style="stroke:#A80036;stroke-width:1.5;" width="178" x="460" y="762"/><ellipse cx="475" cy="778" fill="#ADD1B2" rx="11" ry="11" style="stroke:#A80036;stroke-width:1.0;"/><path d="M477.9688,783.6406 Q477.3906,783.9375 476.75,784.0781 Q476.1094,784.2344 475.4063,784.2344 Q472.9063,784.2344 471.5781,782.5938 Q470.2656,780.9375 470.2656,777.8125 Q470.2656,774.6875 471.5781,773.0313 Q472.9063,771.375 475.4063,771.375 Q476.1094,771.375 476.75,771.5313 Q477.4063,771.6875 477.9688,771.9844 L477.9688,774.7031 Q477.3438,774.125 476.75,773.8594 Q476.1563,773.5781 475.5313,773.5781 Q474.1875,773.5781 473.5,774.6563 Q472.8125,775.7188 472.8125,777.8125 Q472.8125,779.9063 473.5,780.9844 Q474.1875,782.0469 475.5313,782.0469 Q476.1563,782.0469 476.75,781.7813 Q477.3438,781.5 477.9688,780.9219 L477.9688,783.6406 Z " fill="#000000"/><text fill="#000000" font-family="sans-serif" font-size="12" lengthAdjust="spacing" textLength="146" x="489" y="782.1543">Contribution_to_Project</text><!--MD5=[79d378210367c0c6ec62ef762ddfbd1b]
class Project--><rect codeLine="321" fill="#FFFFFF" filter="url(#f5v6qmo8xfrqv)" height="32" id="Project" style="stroke:#A80036;stroke-width:1.5;" width="76" x="511" y="894"/><ellipse cx="526" cy="910" fill="#ADD1B2" rx="11" ry="11" style="stroke:#A80036;stroke-width:1.0;"/><path d="M528.9688,915.6406 Q528.3906,915.9375 527.75,916.0781 Q527.1094,916.2344 526.4063,916.2344 Q523.9063,916.2344 522.5781,914.5938 Q521.2656,912.9375 521.2656,909.8125 Q521.2656,906.6875 522.5781,905.0313 Q523.9063,903.375 526.4063,903.375 Q527.1094,903.375 527.75,903.5313 Q528.4063,903.6875 528.9688,903.9844 L528.9688,906.7031 Q528.3438,906.125 527.75,905.8594 Q527.1563,905.5781 526.5313,905.5781 Q525.1875,905.5781 524.5,906.6563 Q523.8125,907.7188 523.8125,909.8125 Q523.8125,911.9063 524.5,912.9844 Q525.1875,914.0469 526.5313,914.0469 Q527.1563,914.0469 527.75,913.7813 Q528.3438,913.5 528.9688,912.9219 L528.9688,915.6406 Z " fill="#000000"/><text fill="#000000" font-family="sans-serif" font-size="12" lengthAdjust="spacing" textLength="44" x="540" y="914.1543">Project</text><!--MD5=[e02578a13076095640a9a08de0c36172]
class Contribution_to_Event--><rect codeLine="211" fill="#FFFFFF" filter="url(#f5v6qmo8xfrqv)" height="32" id="Contribution_to_Event" style="stroke:#A80036;stroke-width:1.5;" width="169" x="672.5" y="762"/><ellipse cx="687.5" cy="778" fill="#ADD1B2" rx="11" ry="11" style="stroke:#A80036;stroke-width:1.0;"/><path d="M690.4688,783.6406 Q689.8906,783.9375 689.25,784.0781 Q688.6094,784.2344 687.9063,784.2344 Q685.4063,784.2344 684.0781,782.5938 Q682.7656,780.9375 682.7656,777.8125 Q682.7656,774.6875 684.0781,773.0313 Q685.4063,771.375 687.9063,771.375 Q688.6094,771.375 689.25,771.5313 Q689.9063,771.6875 690.4688,771.9844 L690.4688,774.7031 Q689.8438,774.125 689.25,773.8594 Q688.6563,773.5781 688.0313,773.5781 Q686.6875,773.5781 686,774.6563 Q685.3125,775.7188 685.3125,777.8125 Q685.3125,779.9063 686,780.9844 Q686.6875,782.0469 688.0313,782.0469 Q688.6563,782.0469 689.25,781.7813 Q689.8438,781.5 690.4688,780.9219 L690.4688,783.6406 Z " fill="#000000"/><text fill="#000000" font-family="sans-serif" font-size="12" lengthAdjust="spacing" textLength="137" x="701.5" y="782.1543">Contribution_to_Event</text><!--MD5=[ac13618b1a974308c1f12eb6c57723dc]
class Event--><rect codeLine="326" fill="#FFFFFF" filter="url(#f5v6qmo8xfrqv)" height="32" id="Event" style="stroke:#A80036;stroke-width:1.5;" width="67" x="723.5" y="894"/><ellipse cx="738.5" cy="910" fill="#ADD1B2" rx="11" ry="11" style="stroke:#A80036;stroke-width:1.0;"/><path d="M741.4688,915.6406 Q740.8906,915.9375 740.25,916.0781 Q739.6094,916.2344 738.9063,916.2344 Q736.4063,916.2344 735.0781,914.5938 Q733.7656,912.9375 733.7656,909.8125 Q733.7656,906.6875 735.0781,905.0313 Q736.4063,903.375 738.9063,903.375 Q739.6094,903.375 740.25,903.5313 Q740.9063,903.6875 741.4688,903.9844 L741.4688,906.7031 Q740.8438,906.125 740.25,905.8594 Q739.6563,905.5781 739.0313,905.5781 Q737.6875,905.5781 737,906.6563 Q736.3125,907.7188 736.3125,909.8125 Q736.3125,911.9063 737,912.9844 Q737.6875,914.0469 739.0313,914.0469 Q739.6563,914.0469 740.25,913.7813 Q740.8438,913.5 741.4688,912.9219 L741.4688,915.6406 Z " fill="#000000"/><text fill="#000000" font-family="sans-serif" font-size="12" lengthAdjust="spacing" textLength="35" x="752.5" y="914.1543">Event</text><!--MD5=[6a029e66987f6edc98a50822cc78695f]
class Involvement--><rect codeLine="147" fill="#FFFFFF" filter="url(#f5v6qmo8xfrqv)" height="32" id="Involvement" style="stroke:#A80036;stroke-width:1.5;" width="106" x="565" y="30"/><ellipse cx="580" cy="46" fill="#ADD1B2" rx="11" ry="11" style="stroke:#A80036;stroke-width:1.0;"/><path d="M582.9688,51.6406 Q582.3906,51.9375 581.75,52.0781 Q581.1094,52.2344 580.4063,52.2344 Q577.9063,52.2344 576.5781,50.5938 Q575.2656,48.9375 575.2656,45.8125 Q575.2656,42.6875 576.5781,41.0313 Q577.9063,39.375 580.4063,39.375 Q581.1094,39.375 581.75,39.5313 Q582.4063,39.6875 582.9688,39.9844 L582.9688,42.7031 Q582.3438,42.125 581.75,41.8594 Q581.1563,41.5781 580.5313,41.5781 Q579.1875,41.5781 578.5,42.6563 Q577.8125,43.7188 577.8125,45.8125 Q577.8125,47.9063 578.5,48.9844 Q579.1875,50.0469 580.5313,50.0469 Q581.1563,50.0469 581.75,49.7813 Q582.3438,49.5 582.9688,48.9219 L582.9688,51.6406 Z " fill="#000000"/><text fill="#000000" font-family="sans-serif" font-size="12" lengthAdjust="spacing" textLength="74" x="594" y="50.1543">Involvement</text><!--MD5=[affb11a45f8309443fb20b6133e8d181]
class Group_or_Organisation_Unit--><rect codeLine="92" fill="#FFFFFF" filter="url(#f5v6qmo8xfrqv)" height="78.4141" id="Group_or_Organisation_Unit" style="stroke:#A80036;stroke-width:1.5;" width="206" x="877" y="739"/><ellipse cx="892" cy="755" fill="#ADD1B2" rx="11" ry="11" style="stroke:#A80036;stroke-width:1.0;"/><path d="M894.9688,760.6406 Q894.3906,760.9375 893.75,761.0781 Q893.1094,761.2344 892.4063,761.2344 Q889.9063,761.2344 888.5781,759.5938 Q887.2656,757.9375 887.2656,754.8125 Q887.2656,751.6875 888.5781,750.0313 Q889.9063,748.375 892.4063,748.375 Q893.1094,748.375 893.75,748.5313 Q894.4063,748.6875 894.9688,748.9844 L894.9688,751.7031 Q894.3438,751.125 893.75,750.8594 Q893.1563,750.5781 892.5313,750.5781 Q891.1875,750.5781 890.5,751.6563 Q889.8125,752.7188 889.8125,754.8125 Q889.8125,756.9063 890.5,757.9844 Q891.1875,759.0469 892.5313,759.0469 Q893.1563,759.0469 893.75,758.7813 Q894.3438,758.5 894.9688,757.9219 L894.9688,760.6406 Z " fill="#000000"/><text fill="#000000" font-family="sans-serif" font-size="12" lengthAdjust="spacing" textLength="174" x="906" y="759.1543">Group_or_Organisation_Unit</text><line style="stroke:#A80036;stroke-width:1.5;" x1="878" x2="1082" y1="771" y2="771"/><text fill="#000000" font-family="sans-serif" font-size="11" lengthAdjust="spacing" textLength="147" x="883" y="785.2104">name : Multilingual_String</text><text fill="#000000" font-family="sans-serif" font-size="11" lengthAdjust="spacing" textLength="95" x="883" y="798.0151">acronym : String</text><text fill="#000000" font-family="sans-serif" font-size="11" lengthAdjust="spacing" textLength="178" x="883" y="810.8198">description : Multilingual_String</text><!--MD5=[ddbff00b4911ad4b77d6aa32dd14d1d7]
class Affiliation_Statement--><rect codeLine="433" fill="#FFFFFF" filter="url(#f5v6qmo8xfrqv)" height="78.4141" id="Affiliation_Statement" style="stroke:#A80036;stroke-width:1.5;" width="224" x="163" y="7"/><ellipse cx="206.35" cy="23" fill="#ADD1B2" rx="11" ry="11" style="stroke:#A80036;stroke-width:1.0;"/><path d="M209.3188,28.6406 Q208.7406,28.9375 208.1,29.0781 Q207.4594,29.2344 206.7563,29.2344 Q204.2563,29.2344 202.9281,27.5938 Q201.6156,25.9375 201.6156,22.8125 Q201.6156,19.6875 202.9281,18.0313 Q204.2563,16.375 206.7563,16.375 Q207.4594,16.375 208.1,16.5313 Q208.7563,16.6875 209.3188,16.9844 L209.3188,19.7031 Q208.6938,19.125 208.1,18.8594 Q207.5063,18.5781 206.8813,18.5781 Q205.5375,18.5781 204.85,19.6563 Q204.1625,20.7188 204.1625,22.8125 Q204.1625,24.9063 204.85,25.9844 Q205.5375,27.0469 206.8813,27.0469 Q207.5063,27.0469 208.1,26.7813 Q208.6938,26.5 209.3188,25.9219 L209.3188,28.6406 Z " fill="#000000"/><text fill="#000000" font-family="sans-serif" font-size="12" lengthAdjust="spacing" textLength="129" x="226.65" y="27.1543">Affiliation_Statement</text><line style="stroke:#A80036;stroke-width:1.5;" x1="164" x2="386" y1="39" y2="39"/><text fill="#000000" font-family="sans-serif" font-size="11" lengthAdjust="spacing" textLength="203" x="169" y="53.2104">displayAffiliation_Statement : String</text><text fill="#000000" font-family="sans-serif" font-size="11" lengthAdjust="spacing" textLength="159" x="169" y="66.0151">displayPersonName : String</text><text fill="#000000" font-family="sans-serif" font-size="11" lengthAdjust="spacing" textLength="212" x="169" y="78.8198">contacts : List&lt;Contact_Information&gt;</text><!--MD5=[77463bb17ddcfe3891c27a1f4a877731]
class Membership--><rect codeLine="175" fill="#FFFFFF" filter="url(#f5v6qmo8xfrqv)" height="32" id="Membership" style="stroke:#A80036;stroke-width:1.5;" width="108" x="638" y="182"/><ellipse cx="653" cy="198" fill="#ADD1B2" rx="11" ry="11" style="stroke:#A80036;stroke-width:1.0;"/><path d="M655.9688,203.6406 Q655.3906,203.9375 654.75,204.0781 Q654.1094,204.2344 653.4063,204.2344 Q650.9063,204.2344 649.5781,202.5938 Q648.2656,200.9375 648.2656,197.8125 Q648.2656,194.6875 649.5781,193.0313 Q650.9063,191.375 653.4063,191.375 Q654.1094,191.375 654.75,191.5313 Q655.4063,191.6875 655.9688,191.9844 L655.9688,194.7031 Q655.3438,194.125 654.75,193.8594 Q654.1563,193.5781 653.5313,193.5781 Q652.1875,193.5781 651.5,194.6563 Q650.8125,195.7188 650.8125,197.8125 Q650.8125,199.9063 651.5,200.9844 Q652.1875,202.0469 653.5313,202.0469 Q654.1563,202.0469 654.75,201.7813 Q655.3438,201.5 655.9688,200.9219 L655.9688,203.6406 Z " fill="#000000"/><text fill="#000000" font-family="sans-serif" font-size="12" lengthAdjust="spacing" textLength="76" x="667" y="202.1543">Membership</text><!--MD5=[3e7c08c6da448472712568ab49cd8e32]
class Education--><rect codeLine="165" fill="#FFFFFF" filter="url(#f5v6qmo8xfrqv)" height="52.8047" id="Education" style="stroke:#A80036;stroke-width:1.5;" width="145" x="781.5" y="171.5"/><ellipse cx="819" cy="187.5" fill="#ADD1B2" rx="11" ry="11" style="stroke:#A80036;stroke-width:1.0;"/><path d="M821.9688,193.1406 Q821.3906,193.4375 820.75,193.5781 Q820.1094,193.7344 819.4063,193.7344 Q816.9063,193.7344 815.5781,192.0938 Q814.2656,190.4375 814.2656,187.3125 Q814.2656,184.1875 815.5781,182.5313 Q816.9063,180.875 819.4063,180.875 Q820.1094,180.875 820.75,181.0313 Q821.4063,181.1875 821.9688,181.4844 L821.9688,184.2031 Q821.3438,183.625 820.75,183.3594 Q820.1563,183.0781 819.5313,183.0781 Q818.1875,183.0781 817.5,184.1563 Q816.8125,185.2188 816.8125,187.3125 Q816.8125,189.4063 817.5,190.4844 Q818.1875,191.5469 819.5313,191.5469 Q820.1563,191.5469 820.75,191.2813 Q821.3438,191 821.9688,190.4219 L821.9688,193.1406 Z " fill="#000000"/><text fill="#000000" font-family="sans-serif" font-size="12" lengthAdjust="spacing" textLength="63" x="838" y="191.6543">Education</text><line style="stroke:#A80036;stroke-width:1.5;" x1="782.5" x2="925.5" y1="203.5" y2="203.5"/><text fill="#000000" font-family="sans-serif" font-size="11" lengthAdjust="spacing" textLength="133" x="787.5" y="217.7104">completed   :   Boolean</text><!--MD5=[1c0f67851325b0845e0b86703ac36f9d]
class Employment--><rect codeLine="156" fill="#FFFFFF" filter="url(#f5v6qmo8xfrqv)" height="32" id="Employment" style="stroke:#A80036;stroke-width:1.5;" width="108" x="424" y="182"/><ellipse cx="439" cy="198" fill="#ADD1B2" rx="11" ry="11" style="stroke:#A80036;stroke-width:1.0;"/><path d="M441.9688,203.6406 Q441.3906,203.9375 440.75,204.0781 Q440.1094,204.2344 439.4063,204.2344 Q436.9063,204.2344 435.5781,202.5938 Q434.2656,200.9375 434.2656,197.8125 Q434.2656,194.6875 435.5781,193.0313 Q436.9063,191.375 439.4063,191.375 Q440.1094,191.375 440.75,191.5313 Q441.4063,191.6875 441.9688,191.9844 L441.9688,194.7031 Q441.3438,194.125 440.75,193.8594 Q440.1563,193.5781 439.5313,193.5781 Q438.1875,193.5781 437.5,194.6563 Q436.8125,195.7188 436.8125,197.8125 Q436.8125,199.9063 437.5,200.9844 Q438.1875,202.0469 439.5313,202.0469 Q440.1563,202.0469 440.75,201.7813 Q441.3438,201.5 441.9688,200.9219 L441.9688,203.6406 Z " fill="#000000"/><text fill="#000000" font-family="sans-serif" font-size="12" lengthAdjust="spacing" textLength="76" x="453" y="202.1543">Employment</text><!--MD5=[b367fec412bcea3193aaf8f93b4850b4]
class Event_Series--><rect codeLine="329" fill="#FFFFFF" filter="url(#f5v6qmo8xfrqv)" height="32" id="Event_Series" style="stroke:#A80036;stroke-width:1.5;" width="112" x="701" y="987"/><ellipse cx="716" cy="1003" fill="#ADD1B2" rx="11" ry="11" style="stroke:#A80036;stroke-width:1.0;"/><path d="M718.9688,1008.6406 Q718.3906,1008.9375 717.75,1009.0781 Q717.1094,1009.2344 716.4063,1009.2344 Q713.9063,1009.2344 712.5781,1007.5938 Q711.2656,1005.9375 711.2656,1002.8125 Q711.2656,999.6875 712.5781,998.0313 Q713.9063,996.375 716.4063,996.375 Q717.1094,996.375 717.75,996.5313 Q718.4063,996.6875 718.9688,996.9844 L718.9688,999.7031 Q718.3438,999.125 717.75,998.8594 Q717.1563,998.5781 716.5313,998.5781 Q715.1875,998.5781 714.5,999.6563 Q713.8125,1000.7188 713.8125,1002.8125 Q713.8125,1004.9063 714.5,1005.9844 Q715.1875,1007.0469 716.5313,1007.0469 Q717.1563,1007.0469 717.75,1006.7813 Q718.3438,1006.5 718.9688,1005.9219 L718.9688,1008.6406 Z " fill="#000000"/><text fill="#000000" font-family="sans-serif" font-size="12" lengthAdjust="spacing" textLength="80" x="730" y="1007.1543">Event_Series</text><!--MD5=[a64a835c3d62471a77f615251fdde58a]
class Position--><rect codeLine="721" fill="#FFFFFF" filter="url(#f5v6qmo8xfrqv)" height="71.5469" id="Position" style="stroke:#A80036;stroke-width:1.5;" width="164" x="225" y="162"/><ellipse cx="267.9" cy="180.9688" fill="#ADD0B2" rx="11" ry="11" style="stroke:#A80036;stroke-width:1.0;"/><path d="M267.4938,176.7813 L267.4938,184.7656 L268.15,184.7656 Q269.5875,184.7656 270.1969,183.8594 Q270.8219,182.9375 270.8219,180.7656 Q270.8219,178.5938 270.1969,177.6875 Q269.5875,176.7813 268.15,176.7813 L267.4938,176.7813 Z M265.0406,174.5781 L267.6656,174.5781 Q270.6969,174.5781 272.025,176.0313 Q273.3688,177.4688 273.3688,180.7656 Q273.3688,184.0625 272.025,185.5156 Q270.6969,186.9688 267.6656,186.9688 L265.0406,186.9688 L265.0406,174.5781 Z " fill="#000000"/><text fill="#000000" font-family="sans-serif" font-size="12" font-style="italic" lengthAdjust="spacing" textLength="74" x="286.1" y="178.1387">«DataType»</text><text fill="#000000" font-family="sans-serif" font-size="12" lengthAdjust="spacing" textLength="50" x="298.1" y="192.1074">Position</text><line style="stroke:#A80036;stroke-width:1.5;" x1="226" x2="388" y1="199.9375" y2="199.9375"/><text fill="#000000" font-family="sans-serif" font-size="11" lengthAdjust="spacing" textLength="152" x="231" y="214.1479">title   :   Multilingual_String</text><text fill="#000000" font-family="sans-serif" font-size="11" lengthAdjust="spacing" textLength="93" x="231" y="226.9526">code    :   String</text><!--MD5=[ff9dfe2dddb5fe4a69020d7834f0d207]
link Document to Activity--><path codeLine="220" d="M466.14,377.22 C472.08,400.69 480.01,432.06 485.51,453.84 " fill="none" id="Document-Activity" style="stroke:#A80036;stroke-width:1.0;"/><polygon fill="#000000" points="484.2255,420.4139,484.8579,410.9244,479.1593,412.365,484.2255,420.4139" style="stroke:#000000;stroke-width:1.0;"/><text fill="#000000" font-family="sans-serif" font-size="13" lengthAdjust="spacing" textLength="36" x="492" y="420.0669">prove</text><text fill="#000000" font-family="sans-serif" font-size="13" lengthAdjust="spacing" textLength="23" x="442.5415" y="396.5868">0..*</text><text fill="#000000" font-family="sans-serif" font-size="13" lengthAdjust="spacing" textLength="23" x="458.3498" y="443.0453">0..*</text><!--MD5=[cd935cc757d29bd6a59b1252b30899e0]
link Activity to Agent--><path codeLine="226" d="M541.75,507.11 C582.21,527.92 640.01,557.67 686.66,581.68 " fill="none" id="Activity-to-Agent" style="stroke:#A80036;stroke-width:1.0;"/><polygon fill="#A80036" points="691.14,583.99,684.9764,576.3082,686.6967,581.6971,681.3078,583.4175,691.14,583.99" style="stroke:#A80036;stroke-width:1.0;"/><polygon fill="#000000" points="638.4459,547.8542,631.748,541.1023,629.0585,546.3287,638.4459,547.8542" style="stroke:#000000;stroke-width:1.0;"/><text fill="#000000" font-family="sans-serif" font-size="13" lengthAdjust="spacing" textLength="33" x="643" y="550.0669">actor</text><text fill="#000000" font-family="sans-serif" font-size="13" lengthAdjust="spacing" textLength="23" x="527.1172" y="526.6743">0..*</text><text fill="#000000" font-family="sans-serif" font-size="13" lengthAdjust="spacing" textLength="24" x="652.3828" y="573.0388">0..1</text><!--MD5=[55f20054f286b2e7074e8d22fab1f608]
reverse link Activity to Contribution--><path codeLine="189" d="M492,527.66 C492,555.04 492,587.97 492,606.8 " fill="none" id="Activity-backto-Contribution" style="stroke:#A80036;stroke-width:1.0;"/><polygon fill="none" points="485,527.27,492,507.27,499,527.27,485,527.27" style="stroke:#A80036;stroke-width:1.0;"/><!--MD5=[b01ee177fc17bf8bb95324fc01c31b3b]
link Contribution_Statement to Resource--><path codeLine="577" d="M333,804.68 C333,829.35 333,866.1 333,888.76 " fill="none" id="Contribution_Statement-to-Resource" style="stroke:#A80036;stroke-width:1.0;"/><polygon fill="#A80036" points="333,893.92,337,884.92,333,888.92,329,884.92,333,893.92" style="stroke:#A80036;stroke-width:1.0;"/><polygon fill="#000000" points="338,860.5664,340.9389,851.5213,335.0611,851.5213,338,860.5664" style="stroke:#000000;stroke-width:1.0;"/><text fill="#000000" font-family="sans-serif" font-size="13" lengthAdjust="spacing" textLength="54" x="347" y="860.0669">provides</text><text fill="#000000" font-family="sans-serif" font-size="13" lengthAdjust="spacing" textLength="24" x="304.875" y="882.9041">0..1</text><!--MD5=[8d7c614e8203540f95956299e63d224a]
reverse link Contribution to Contribution_to_Document--><path codeLine="207" d="M435.34,646.46 C355.56,678.08 212.26,734.88 144.07,761.91 " fill="none" id="Contribution-backto-Contribution_to_Document" style="stroke:#A80036;stroke-width:1.0;"/><polygon fill="none" points="432.76,639.95,453.93,639.09,437.92,652.97,432.76,639.95" style="stroke:#A80036;stroke-width:1.0;"/><!--MD5=[117c8d017b65f89954aa553a8ad2cfe8]
link Contribution_to_Document to Document--><path codeLine="561" d="M118.31,761.89 C168.14,700.74 355.64,470.62 428.65,381.02 " fill="none" id="Contribution_to_Document-to-Document" style="stroke:#A80036;stroke-width:1.0;"/><polygon fill="#A80036" points="431.83,377.12,423.0422,381.5668,428.67,380.9949,429.242,386.6227,431.83,377.12" style="stroke:#A80036;stroke-width:1.0;"/><polygon fill="#000000" points="307.1584,541.6902,299.1665,546.8458,303.7232,550.5587,307.1584,541.6902" style="stroke:#000000;stroke-width:1.0;"/><text fill="#000000" font-family="sans-serif" font-size="13" lengthAdjust="spacing" textLength="135" x="313" y="550.0669">document «ordered»</text><!--MD5=[e36b49b71580bc35ebd964809c09ea7d]
reverse link Contribution to Contribution_to_Project--><path codeLine="198" d="M504.66,657.99 C516.75,690.43 534.4,737.81 543.35,761.83 " fill="none" id="Contribution-backto-Contribution_to_Project" style="stroke:#A80036;stroke-width:1.0;"/><polygon fill="none" points="498.1,660.42,497.67,639.23,511.22,655.53,498.1,660.42" style="stroke:#A80036;stroke-width:1.0;"/><!--MD5=[57fd60736781c4a6a1ada02cfd005744]
link Contribution_to_Project to Project--><path codeLine="317" d="M549,794.17 C549,817.55 549,862.45 549,888.64 " fill="none" id="Contribution_to_Project-to-Project" style="stroke:#A80036;stroke-width:1.0;"/><polygon fill="#A80036" points="549,893.93,553,884.93,549,888.93,545,884.93,549,893.93" style="stroke:#A80036;stroke-width:1.0;"/><polygon fill="#000000" points="554,860.5664,556.9389,851.5213,551.0611,851.5213,554,860.5664" style="stroke:#000000;stroke-width:1.0;"/><text fill="#000000" font-family="sans-serif" font-size="13" lengthAdjust="spacing" textLength="44" x="563" y="860.0669">project</text><!--MD5=[ff4a6d145294525e05493403423321eb]
reverse link Contribution to Contribution_to_Event--><path codeLine="216" d="M535.95,649.37 C591.48,681.43 685.27,735.58 730.73,761.83 " fill="none" id="Contribution-backto-Contribution_to_Event" style="stroke:#A80036;stroke-width:1.0;"/><polygon fill="none" points="532.2,655.29,518.38,639.23,539.2,643.17,532.2,655.29" style="stroke:#A80036;stroke-width:1.0;"/><!--MD5=[467ded19ca6884babd44a8b5c496328d]
link Contribution_to_Event to Event--><path codeLine="573" d="M757,794.17 C757,817.55 757,862.45 757,888.64 " fill="none" id="Contribution_to_Event-to-Event" style="stroke:#A80036;stroke-width:1.0;"/><polygon fill="#A80036" points="757,893.93,761,884.93,757,888.93,753,884.93,757,893.93" style="stroke:#A80036;stroke-width:1.0;"/><polygon fill="#000000" points="762,860.5664,764.9389,851.5213,759.0611,851.5213,762,860.5664" style="stroke:#000000;stroke-width:1.0;"/><text fill="#000000" font-family="sans-serif" font-size="13" lengthAdjust="spacing" textLength="36" x="771" y="860.0669">event</text><!--MD5=[5310b7429ef001befd0a176a00932538]
reverse link Activity to Involvement--><path codeLine="152" d="M528.95,437.61 C531.94,433.18 534.69,428.61 537,424 C546.68,404.74 544.13,398 549,377 C577.05,256.13 605.96,109.14 615.07,62.18 " fill="none" id="Activity-backto-Involvement" style="stroke:#A80036;stroke-width:1.0;"/><polygon fill="none" points="534.39,442.03,516.73,453.75,523.23,433.58,534.39,442.03" style="stroke:#A80036;stroke-width:1.0;"/><!--MD5=[3e6df519c6409dff9ecce5f5942987dd]
link Involvement to Group_or_Organisation_Unit--><path codeLine="230" d="M671.03,57.44 C771.57,78.76 980,130.93 980,197 C980,197 980,197 980,624 C980,661.04 980,703.12 980,733.76 " fill="none" id="Involvement-to-Group_or_Organisation_Unit" style="stroke:#A80036;stroke-width:1.0;"/><polygon fill="#A80036" points="980,738.96,984,729.96,980,733.96,976,729.96,980,738.96" style="stroke:#A80036;stroke-width:1.0;"/><polygon fill="#000000" points="987.0777,420.1143,985.9923,410.6659,980.646,413.1083,987.0777,420.1143" style="stroke:#000000;stroke-width:1.0;"/><text fill="#000000" font-family="sans-serif" font-size="13" lengthAdjust="spacing" textLength="67" x="994" y="420.0669">involved in</text><text fill="#000000" font-family="sans-serif" font-size="13" lengthAdjust="spacing" textLength="23" x="678.8946" y="71.8233">0..*</text><!--MD5=[ec091f800280b56df8e15aaaa2e5104f]
reverse link Affiliation_Statement to Involvement--><path codeLine="740" d="M392.58,46 C451.01,46 518.74,46 564.59,46 " fill="none" id="Affiliation_Statement-backto-Involvement" style="stroke:#A80036;stroke-width:1.0;"/><polygon fill="#A80036" points="387.31,46,396.31,50,392.31,46,396.31,42,387.31,46" style="stroke:#A80036;stroke-width:1.0;"/><polygon fill="#000000" points="404.5,34.5664,413.5451,37.5053,413.5451,31.6275,404.5,34.5664" style="stroke:#000000;stroke-width:1.0;"/><text fill="#000000" font-family="sans-serif" font-size="13" lengthAdjust="spacing" textLength="128" x="418.5" y="39.0669">is the foundation for</text><text fill="#000000" font-family="sans-serif" font-size="13" lengthAdjust="spacing" textLength="23" x="394.8547" y="58.5154">0..*</text><text fill="#000000" font-family="sans-serif" font-size="13" lengthAdjust="spacing" textLength="23" x="534.0848" y="58.9418">0..*</text><!--MD5=[eeb1986463f873db234da87eccdc590b]
link Involvement to Involvement--><path codeLine="744" d="M671.27,38.88 C690.4,38.73 706,41.1 706,46 C706,50.44 693.19,52.8 676.55,53.09 " fill="none" id="Involvement-to-Involvement" style="stroke:#A80036;stroke-width:1.0;"/><polygon fill="#A80036" points="671.27,53.12,680.2927,57.0685,676.2699,53.0914,680.247,49.0686,671.27,53.12" style="stroke:#A80036;stroke-width:1.0;"/><polygon fill="#000000" points="710.9608,51.0663,713.9706,42.0445,708.0929,41.9984,710.9608,51.0663" style="stroke:#000000;stroke-width:1.0;"/><text fill="#000000" font-family="sans-serif" font-size="13" lengthAdjust="spacing" textLength="26" x="725" y="50.5669">part</text><text fill="#000000" font-family="sans-serif" font-size="13" lengthAdjust="spacing" textLength="23" x="679.1638" y="51.0013">0..*</text><text fill="#000000" font-family="sans-serif" font-size="13" lengthAdjust="spacing" textLength="24" x="678.8168" y="66.885">0..1</text><!--MD5=[eeb1986463f873db234da87eccdc590b]
link Involvement to Involvement--><path codeLine="748" d="M671.29,33.43 C712.76,29.05 757,33.23 757,46 C757,58.22 716.48,62.58 676.65,59.08 " fill="none" id="Involvement-to-Involvement-1" style="stroke:#A80036;stroke-width:1.0;"/><polygon fill="#A80036" points="671.29,58.57,679.8584,63.4262,676.2663,59.0562,680.6363,55.4641,671.29,58.57" style="stroke:#A80036;stroke-width:1.0;"/><polygon fill="#000000" points="761.4748,51.0387,765.3475,42.3524,759.5022,41.735,761.4748,51.0387" style="stroke:#000000;stroke-width:1.0;"/><text fill="#000000" font-family="sans-serif" font-size="13" lengthAdjust="spacing" textLength="89" x="776" y="50.5669">part transitive</text><text fill="#000000" font-family="sans-serif" font-size="13" lengthAdjust="spacing" textLength="23" x="679.1863" y="28.059">0..*</text><text fill="#000000" font-family="sans-serif" font-size="13" lengthAdjust="spacing" textLength="23" x="671.7969" y="81.9636">0..*</text><!--MD5=[774ab914c44fde287bade86ae1a1d531]
reverse link Involvement to Membership--><path codeLine="180" d="M634.55,80.54 C650.15,112.17 672.83,158.14 684.48,181.75 " fill="none" id="Involvement-backto-Membership" style="stroke:#A80036;stroke-width:1.0;"/><polygon fill="none" points="628.07,83.24,625.5,62.21,640.63,77.05,628.07,83.24" style="stroke:#A80036;stroke-width:1.0;"/><!--MD5=[e6302ca8d503674dcb8235c7c53cdc01]
reverse link Involvement to Education--><path codeLine="171" d="M658.85,72.96 C702.2,100.52 770.29,143.79 813.51,171.26 " fill="none" id="Involvement-backto-Education" style="stroke:#A80036;stroke-width:1.0;"/><polygon fill="none" points="655.05,78.84,641.93,62.21,662.56,67.03,655.05,78.84" style="stroke:#A80036;stroke-width:1.0;"/><!--MD5=[5dcf1ca4d8097aa908f88de41c3d702a]
reverse link Involvement to Employment--><path codeLine="161" d="M590.01,76.99 C560.47,108.64 515.11,157.24 492.23,181.75 " fill="none" id="Involvement-backto-Employment" style="stroke:#A80036;stroke-width:1.0;"/><polygon fill="none" points="585.04,72.05,603.81,62.21,595.28,81.61,585.04,72.05" style="stroke:#A80036;stroke-width:1.0;"/><!--MD5=[335bc652314d68e20c6b9db39c8a9e92]
reverse link Activity to Affiliation_Statement--><path codeLine="553" d="M429.11,447.46 C359.56,408.02 251.47,333.81 207,234 C184.57,183.67 216.49,123.47 243.74,85.23 " fill="none" id="Activity-backto-Affiliation_Statement" style="stroke:#A80036;stroke-width:1.0;"/><polygon fill="#FFFFFF" points="440.77,453.96,437.4697,447.5485,430.282,448.1289,433.5823,454.5405,440.77,453.96" style="stroke:#A80036;stroke-width:1.0;"/><polygon fill="#000000" points="234.7222,268.1154,236.2265,277.5062,241.459,274.8285,234.7222,268.1154" style="stroke:#000000;stroke-width:1.0;"/><text fill="#000000" font-family="sans-serif" font-size="13" lengthAdjust="spacing" textLength="61" x="246" y="277.0669">affilations</text><text fill="#000000" font-family="sans-serif" font-size="13" lengthAdjust="spacing" textLength="23" x="402.4796" y="442.7696">0..*</text><text fill="#000000" font-family="sans-serif" font-size="13" lengthAdjust="spacing" textLength="23" x="213.1234" y="105.5956">0..*</text><!--MD5=[985660d160cc1234ef784a412fcab047]
reverse link Contribution to Contribution_Statement--><path codeLine="557" d="M464.55,647.76 C449.92,660.62 431.75,676.93 416,692 C395.74,711.4 373.58,734.17 357.26,751.27 " fill="none" id="Contribution-backto-Contribution_Statement" style="stroke:#A80036;stroke-width:1.0;"/><polygon fill="#A80036" points="474.49,639.07,467.3402,640.0085,465.4566,646.9693,472.6064,646.0308,474.49,639.07" style="stroke:#A80036;stroke-width:1.0;"/><polygon fill="#000000" points="417.4016,704.038,425.9517,699.8729,421.8706,695.6428,417.4016,704.038" style="stroke:#000000;stroke-width:1.0;"/><text fill="#000000" font-family="sans-serif" font-size="13" lengthAdjust="spacing" textLength="80" x="430" y="705.0669">is detailed in</text><text fill="#000000" font-family="sans-serif" font-size="13" lengthAdjust="spacing" textLength="23" x="337.2107" y="740.4591">0..*</text><!--MD5=[6437225fd460aa35e410270079d63bb8]
link Event to Event_Series--><path codeLine="332" d="M757,926.03 C757,941.18 757,964.66 757,981.51 " fill="none" id="Event-to-Event_Series" style="stroke:#A80036;stroke-width:1.0;"/><polygon fill="#A80036" points="757,986.95,761,977.95,757,981.95,753,977.95,757,986.95" style="stroke:#A80036;stroke-width:1.0;"/><text fill="#000000" font-family="sans-serif" font-size="13" lengthAdjust="spacing" textLength="24" x="728.875" y="975.9444">0..1</text><!--MD5=[1cd9a91bcab640e28c1da9a925056398]
link Event to Event--><path codeLine="334" d="M790.83,901.73 C808.97,900.33 825.5,903.08 825.5,910 C825.5,916.27 811.93,919.12 795.88,918.55 " fill="none" id="Event-to-Event" style="stroke:#A80036;stroke-width:1.0;"/><polygon fill="#A80036" points="790.83,918.27,799.5871,922.7769,795.8219,918.5552,800.0435,914.79,790.83,918.27" style="stroke:#A80036;stroke-width:1.0;"/><polygon fill="#000000" points="830.1153,915.0516,833.7415,906.2595,827.8811,905.8072,830.1153,915.0516" style="stroke:#000000;stroke-width:1.0;"/><text fill="#000000" font-family="sans-serif" font-size="13" lengthAdjust="spacing" textLength="94" x="844.5" y="914.5669">collocated with</text><text fill="#000000" font-family="sans-serif" font-size="13" lengthAdjust="spacing" textLength="23" x="798.6211" y="915.4807">0..*</text><!--MD5=[8baa0633a34be8ca6adcc4fd46743d97]
reverse link Agent to Group_or_Organisation_Unit--><path codeLine="100" d="M834.89,673.73 C864.64,694.91 898.79,719.21 926.48,738.91 " fill="none" id="Agent-backto-Group_or_Organisation_Unit" style="stroke:#A80036;stroke-width:1.0;"/><polygon fill="none" points="830.66,679.32,818.42,662.02,838.78,667.91,830.66,679.32" style="stroke:#A80036;stroke-width:1.0;"/><!--MD5=[eebede85e8e6ba3335a352732690084a]
link Group_or_Organisation_Unit to Group_or_Organisation_Unit--><path codeLine="122" d="M1088.32,764.83 C1105.92,766.72 1118,771.11 1118,778 C1118,784.89 1105.92,789.28 1088.32,791.17 " fill="none" id="Group_or_Organisation_Unit-Group_or_Organisation_Unit" style="stroke:#A80036;stroke-width:1.0;stroke-dasharray:7.0,7.0;"/><polygon fill="#A80036" points="1083.21,791.64,1092.5376,794.8015,1088.1891,791.1835,1091.8072,786.8349,1083.21,791.64" style="stroke:#A80036;stroke-width:1.0;"/><polygon fill="#A80036" points="1083.21,764.36,1091.8072,769.1651,1088.1891,764.8165,1092.5376,761.1985,1083.21,764.36" style="stroke:#A80036;stroke-width:1.0;"/><text fill="#000000" font-family="sans-serif" font-size="13" lengthAdjust="spacing" textLength="69" x="1091.1714" y="760.1966">0..* part of</text><text fill="#000000" font-family="sans-serif" font-size="13" lengthAdjust="spacing" textLength="60" x="1090.9112" y="789.0537">0..* parts</text><!--MD5=[3de6c2a89a8a49a9b82ca15cd383fd75]
link Affiliation_Statement to Position--><path codeLine="728" d="M283.16,85.24 C287.84,107.19 293.71,134.72 298.46,156.96 " fill="none" id="Affiliation_Statement-to-Position" style="stroke:#A80036;stroke-width:1.0;"/><polygon fill="#A80036" points="299.52,161.91,301.5531,152.2733,298.4763,157.0202,293.7294,153.9433,299.52,161.91" style="stroke:#A80036;stroke-width:1.0;"/><polygon fill="#000000" points="299.0432,128.4564,300.0303,118.9972,294.2818,120.2235,299.0432,128.4564" style="stroke:#000000;stroke-width:1.0;"/><text fill="#000000" font-family="sans-serif" font-size="13" lengthAdjust="spacing" textLength="50" x="307" y="128.0669">position</text><text fill="#000000" font-family="sans-serif" font-size="13" lengthAdjust="spacing" textLength="23" x="259.5651" y="105.6074">0..*</text><text fill="#000000" font-family="sans-serif" font-size="13" lengthAdjust="spacing" textLength="24" x="271.9284" y="150.994">0..1</text><!--MD5=[d6510b82a04cb388394283fdb06ac616]
link Employment to Document--><path codeLine="732" d="M475.9,214.14 C472.9,235.71 467.31,275.97 463.17,305.78 " fill="none" id="Employment-to-Document" style="stroke:#A80036;stroke-width:1.0;"/><polygon fill="#A80036" points="462.47,310.84,467.6891,302.4877,463.1691,305.8891,459.7677,301.3691,462.47,310.84" style="stroke:#A80036;stroke-width:1.0;"/><polygon fill="#000000" points="473.312,277.5189,477.4675,268.9642,471.6456,268.1554,473.312,277.5189" style="stroke:#000000;stroke-width:1.0;"/><text fill="#000000" font-family="sans-serif" font-size="13" lengthAdjust="spacing" textLength="53" x="483" y="277.0669">contract</text><text fill="#000000" font-family="sans-serif" font-size="13" lengthAdjust="spacing" textLength="24" x="447.2294" y="234.0596">0..1</text><text fill="#000000" font-family="sans-serif" font-size="13" lengthAdjust="spacing" textLength="23" x="438.086" y="299.9535">0..*</text><!--MD5=[714662591c02188f1682f6888921effc]
link Involvement to Position--><path codeLine="736" d="M583.29,62.04 C552.53,75.5 506.51,95.99 467,115 C437.75,129.07 405.87,145.24 378.31,159.48 " fill="none" id="Involvement-to-Position" style="stroke:#A80036;stroke-width:1.0;"/><polygon fill="#A80036" points="373.57,161.93,383.4014,161.3446,378.0103,159.6313,379.7236,154.2402,373.57,161.93" style="stroke:#A80036;stroke-width:1.0;"/><polygon fill="#000000" points="467.4842,125.713,476.9151,124.484,474.3916,119.1755,467.4842,125.713" style="stroke:#000000;stroke-width:1.0;"/><text fill="#000000" font-family="sans-serif" font-size="13" lengthAdjust="spacing" textLength="50" x="481" y="128.0669">position</text><text fill="#000000" font-family="sans-serif" font-size="13" lengthAdjust="spacing" textLength="23" x="544.9829" y="81.9265">0..*</text><text fill="#000000" font-family="sans-serif" font-size="13" lengthAdjust="spacing" textLength="24" x="359.6313" y="151.0177">0..1</text><!--MD5=[3dc8a2f2716f97b9223fa41813748138]
@startuml

    !includesub core.puml!common
    !includesub core.puml!Activity
    !includesub core.puml!Contribution
    !includesub core.puml!Contribution_to_Document
    !includesub core.puml!Contribution_to_Project
    !includesub core.puml!Contribution_to_Event
    !includesub core.puml!Involvement
    !includesub core.puml!Membership
    !includesub core.puml!Education
    !includesub core.puml!Employment
    !includesub core.puml!Affiliation_Statement
    !includesub core.puml!Contribution_Statement
    !includesub core.puml!Resource
    !includesub core.puml!Document
    !includesub core.puml!Project
    !includesub core.puml!Event
    !includesub core.puml!Agent
    !includesub core.puml!Group_or_Organisation_Unit
    !includesub core.puml!Position

@enduml

@startuml

    hide empty members
    skinparam BoxPadding 120
    class "Activity" #ffffff {
  		dateRange : Date_Range
    }
	"Document" "0..*" - - "0..*" "Activity" : prove >
    "Activity" "0..*" - -> "0..1" "Agent" : actor >
    class "Contribution" #ffffff {
    }
    "Activity" <|-d- "Contribution"
     "Contribution_Statement" - -> "0..1" "Resource" : provides >
    class "Contribution_to_Document" #ffffff {
    }
    "Contribution" <|-d- "Contribution_to_Document"
    "Contribution_to_Document" - -> "Document" : document <<ordered>> >
    class "Contribution_to_Project" #ffffff {
    }
    "Contribution" <|-d- "Contribution_to_Project"
    "Contribution_to_Project" - -> "Project" : project >
    class "Contribution_to_Event" #ffffff {
    }
    "Contribution" <|-d- "Contribution_to_Event"
    "Contribution_to_Event" - -> "Event" : event >
    class "Involvement" #ffffff {
    }
   "Activity" <|-d- "Involvement"
	"Involvement" "0..*" - -> "Group_or_Organisation_Unit" : involved in >
	"Involvement" "0..*" -l-> "0..*" "Affiliation_Statement" : is the foundation for >
	"Involvement" "0..*" - -> "0..1" "Involvement" : part >
	"Involvement" "0..*" - -> "0..*" "Involvement" : part transitive >
    class "Membership" #ffffff {
    }
    "Involvement" <|-d- "Membership"
    class "Education" #ffffff {
        completed   :   Boolean
    }
    "Involvement" <|-d- "Education"
    class "Employment" #ffffff {
    }
    "Involvement" <|-d- "Employment"
    class "Affiliation_Statement" #ffffff {
        displayAffiliation_Statement : String
        displayPersonName : String
        contacts : List<Contact_Information>
    }
    "Activity" "0..*" o- - "0..*" "Affiliation_Statement" : affilations >
    class "Contribution_Statement" #ffffff {
        statement : Multilingual_String
    }
    "Contribution" *- - "0..*" "Contribution_Statement" : is detailed in >
    class "Resource" #ffffff {
    }
    class "Document" #ffffff {
        title : Multilingual_String
        publicationDate : Date
    }
    class "Project" #ffffff {
    }
    class "Event" #ffffff {
    }

    class "Event_Series" #ffffff {
    }

    Event - -> "0..1" "Event_Series"

    Event - -> "0..*" "Event" : collocated with >

    class "Agent" #ffffff {
        keywords : List<Multilingual_String>
    	lifetime : Date_Range
    	contacts : List<Contact_Information>
    }
    class "Group_or_Organisation_Unit" #ffffff {
        name : Multilingual_String
        acronym : String
        description : Multilingual_String
    }
	"Agent" <|- - "Group_or_Organisation_Unit"
	"Group_or_Organisation_Unit" "0..* part of" <..> "0..* parts" "Group_or_Organisation_Unit"
    class Position << (D,#add0b2) DataType>> #ffffff {
        title   :   Multilingual_String
        code    :   String
	}
	"Affiliation_Statement" "0..*" - -> "0..1" "Position" : position >
	"Employment" "0..1" - -> "0..*" "Document" : contract >
	"Involvement" "0..*" - -> "0..1" "Position" : position >

@enduml

PlantUML version 1.2021.8(Sat Jun 26 08:20:59 UTC 2021)
(GPL source distribution)
Java Runtime: OpenJDK Runtime Environment
JVM: OpenJDK 64-Bit Server VM
Default Encoding: UTF-8
Language: en
Country: null
--></g></svg>