<?xml version="1.0" encoding="UTF-8" standalone="no"?><svg xmlns="http://www.w3.org/2000/svg" xmlns:xlink="http://www.w3.org/1999/xlink" contentScriptType="application/ecmascript" contentStyleType="text/css" height="526px" preserveAspectRatio="none" style="width:1716px;height:526px;background:#FFFFFF;" version="1.1" viewBox="0 0 1716 526" width="1716px" zoomAndPan="magnify"><defs><filter height="300%" id="ftn93bav3jn2k" width="300%" x="-1" y="-1"><feGaussianBlur result="blurOut" stdDeviation="2.0"/><feColorMatrix in="blurOut" result="blurOut2" type="matrix" values="0 0 0 0 0 0 0 0 0 0 0 0 0 0 0 0 0 0 .4 0"/><feOffset dx="4.0" dy="4.0" in="blurOut2" result="blurOut3"/><feBlend in="SourceGraphic" in2="blurOut3" mode="normal"/></filter></defs><g><!--MD5=[c881b25adf3665c6568c9693d41a70f3]
class Activity--><rect codeLine="135" fill="#FFFFFF" filter="url(#ftn93bav3jn2k)" height="52.8047" id="Activity" style="stroke:#A80036;stroke-width:1.5;" width="151" x="787.5" y="7"/><ellipse cx="837.25" cy="23" fill="#ADD1B2" rx="11" ry="11" style="stroke:#A80036;stroke-width:1.0;"/><path d="M840.2188,28.6406 Q839.6406,28.9375 839,29.0781 Q838.3594,29.2344 837.6563,29.2344 Q835.1563,29.2344 833.8281,27.5938 Q832.5156,25.9375 832.5156,22.8125 Q832.5156,19.6875 833.8281,18.0313 Q835.1563,16.375 837.6563,16.375 Q838.3594,16.375 839,16.5313 Q839.6563,16.6875 840.2188,16.9844 L840.2188,19.7031 Q839.5938,19.125 839,18.8594 Q838.4063,18.5781 837.7813,18.5781 Q836.4375,18.5781 835.75,19.6563 Q835.0625,20.7188 835.0625,22.8125 Q835.0625,24.9063 835.75,25.9844 Q836.4375,27.0469 837.7813,27.0469 Q838.4063,27.0469 839,26.7813 Q839.5938,26.5 840.2188,25.9219 L840.2188,28.6406 Z " fill="#000000"/><text fill="#000000" font-family="sans-serif" font-size="12" lengthAdjust="spacing" textLength="43" x="857.75" y="27.1543">Activity</text><line style="stroke:#A80036;stroke-width:1.5;" x1="788.5" x2="937.5" y1="39" y2="39"/><text fill="#000000" font-family="sans-serif" font-size="11" lengthAdjust="spacing" textLength="139" x="793.5" y="53.2104">dateRange : Date_Range</text><!--MD5=[59b530d44ae785dc18db921986a9c15c]
class Document--><rect codeLine="247" fill="#FFFFFF" filter="url(#ftn93bav3jn2k)" height="65.6094" id="Document" style="stroke:#A80036;stroke-width:1.5;" width="148" x="1554" y="447"/><ellipse cx="1592.4" cy="463" fill="#ADD1B2" rx="11" ry="11" style="stroke:#A80036;stroke-width:1.0;"/><path d="M1595.3688,468.6406 Q1594.7906,468.9375 1594.15,469.0781 Q1593.5094,469.2344 1592.8063,469.2344 Q1590.3063,469.2344 1588.9781,467.5938 Q1587.6656,465.9375 1587.6656,462.8125 Q1587.6656,459.6875 1588.9781,458.0313 Q1590.3063,456.375 1592.8063,456.375 Q1593.5094,456.375 1594.15,456.5313 Q1594.8063,456.6875 1595.3688,456.9844 L1595.3688,459.7031 Q1594.7438,459.125 1594.15,458.8594 Q1593.5563,458.5781 1592.9313,458.5781 Q1591.5875,458.5781 1590.9,459.6563 Q1590.2125,460.7188 1590.2125,462.8125 Q1590.2125,464.9063 1590.9,465.9844 Q1591.5875,467.0469 1592.9313,467.0469 Q1593.5563,467.0469 1594.15,466.7813 Q1594.7438,466.5 1595.3688,465.9219 L1595.3688,468.6406 Z " fill="#000000"/><text fill="#000000" font-family="sans-serif" font-size="12" lengthAdjust="spacing" textLength="64" x="1611.6" y="467.1543">Document</text><line style="stroke:#A80036;stroke-width:1.5;" x1="1555" x2="1701" y1="479" y2="479"/><text fill="#000000" font-family="sans-serif" font-size="11" lengthAdjust="spacing" textLength="136" x="1560" y="493.2104">title : Multilingual_String</text><text fill="#000000" font-family="sans-serif" font-size="11" lengthAdjust="spacing" textLength="125" x="1560" y="506.0151">publicationDate : Date</text><!--MD5=[9d44916250b776386006c440668bcfbb]
class Agent--><rect codeLine="10" fill="#FFFFFF" filter="url(#ftn93bav3jn2k)" height="78.4141" id="Agent" style="stroke:#A80036;stroke-width:1.5;" width="224" x="751" y="137"/><ellipse cx="840.25" cy="153" fill="#ADD1B2" rx="11" ry="11" style="stroke:#A80036;stroke-width:1.0;"/><path d="M843.2188,158.6406 Q842.6406,158.9375 842,159.0781 Q841.3594,159.2344 840.6563,159.2344 Q838.1563,159.2344 836.8281,157.5938 Q835.5156,155.9375 835.5156,152.8125 Q835.5156,149.6875 836.8281,148.0313 Q838.1563,146.375 840.6563,146.375 Q841.3594,146.375 842,146.5313 Q842.6563,146.6875 843.2188,146.9844 L843.2188,149.7031 Q842.5938,149.125 842,148.8594 Q841.4063,148.5781 840.7813,148.5781 Q839.4375,148.5781 838.75,149.6563 Q838.0625,150.7188 838.0625,152.8125 Q838.0625,154.9063 838.75,155.9844 Q839.4375,157.0469 840.7813,157.0469 Q841.4063,157.0469 842,156.7813 Q842.5938,156.5 843.2188,155.9219 L843.2188,158.6406 Z " fill="#000000"/><text fill="#000000" font-family="sans-serif" font-size="12" lengthAdjust="spacing" textLength="37" x="860.75" y="157.1543">Agent</text><line style="stroke:#A80036;stroke-width:1.5;" x1="752" x2="974" y1="169" y2="169"/><text fill="#000000" font-family="sans-serif" font-size="11" lengthAdjust="spacing" textLength="207" x="757" y="183.2104">keywords : List&lt;Multilingual_String&gt;</text><text fill="#000000" font-family="sans-serif" font-size="11" lengthAdjust="spacing" textLength="121" x="757" y="196.0151">lifetime : Date_Range</text><text fill="#000000" font-family="sans-serif" font-size="11" lengthAdjust="spacing" textLength="212" x="757" y="208.8198">contacts : List&lt;Contact_Information&gt;</text><!--MD5=[0330879a1a385efee19ba3488ed490fa]
class Contribution--><rect codeLine="177" fill="#FFFFFF" filter="url(#ftn93bav3jn2k)" height="32" id="Contribution" style="stroke:#A80036;stroke-width:1.5;" width="109" x="1034.5" y="160"/><ellipse cx="1049.5" cy="176" fill="#ADD1B2" rx="11" ry="11" style="stroke:#A80036;stroke-width:1.0;"/><path d="M1052.4688,181.6406 Q1051.8906,181.9375 1051.25,182.0781 Q1050.6094,182.2344 1049.9063,182.2344 Q1047.4063,182.2344 1046.0781,180.5938 Q1044.7656,178.9375 1044.7656,175.8125 Q1044.7656,172.6875 1046.0781,171.0313 Q1047.4063,169.375 1049.9063,169.375 Q1050.6094,169.375 1051.25,169.5313 Q1051.9063,169.6875 1052.4688,169.9844 L1052.4688,172.7031 Q1051.8438,172.125 1051.25,171.8594 Q1050.6563,171.5781 1050.0313,171.5781 Q1048.6875,171.5781 1048,172.6563 Q1047.3125,173.7188 1047.3125,175.8125 Q1047.3125,177.9063 1048,178.9844 Q1048.6875,180.0469 1050.0313,180.0469 Q1050.6563,180.0469 1051.25,179.7813 Q1051.8438,179.5 1052.4688,178.9219 L1052.4688,181.6406 Z " fill="#000000"/><text fill="#000000" font-family="sans-serif" font-size="12" lengthAdjust="spacing" textLength="77" x="1063.5" y="180.1543">Contribution</text><!--MD5=[532fe005ca0bef0ad6b309c9c6480e22]
class Contribution_Statement--><rect codeLine="295" fill="#FFFFFF" filter="url(#ftn93bav3jn2k)" height="52.8047" id="Contribution_Statement" style="stroke:#A80036;stroke-width:1.5;" width="185" x="1208.5" y="304.5"/><ellipse cx="1225.3" cy="320.5" fill="#ADD1B2" rx="11" ry="11" style="stroke:#A80036;stroke-width:1.0;"/><path d="M1228.2688,326.1406 Q1227.6906,326.4375 1227.05,326.5781 Q1226.4094,326.7344 1225.7063,326.7344 Q1223.2063,326.7344 1221.8781,325.0938 Q1220.5656,323.4375 1220.5656,320.3125 Q1220.5656,317.1875 1221.8781,315.5313 Q1223.2063,313.875 1225.7063,313.875 Q1226.4094,313.875 1227.05,314.0313 Q1227.7063,314.1875 1228.2688,314.4844 L1228.2688,317.2031 Q1227.6438,316.625 1227.05,316.3594 Q1226.4563,316.0781 1225.8313,316.0781 Q1224.4875,316.0781 1223.8,317.1563 Q1223.1125,318.2188 1223.1125,320.3125 Q1223.1125,322.4063 1223.8,323.4844 Q1224.4875,324.5469 1225.8313,324.5469 Q1226.4563,324.5469 1227.05,324.2813 Q1227.6438,324 1228.2688,323.4219 L1228.2688,326.1406 Z " fill="#000000"/><text fill="#000000" font-family="sans-serif" font-size="12" lengthAdjust="spacing" textLength="149" x="1239.7" y="324.6543">Contribution_Statement</text><line style="stroke:#A80036;stroke-width:1.5;" x1="1209.5" x2="1392.5" y1="336.5" y2="336.5"/><text fill="#000000" font-family="sans-serif" font-size="11" lengthAdjust="spacing" textLength="173" x="1214.5" y="350.7104">statement : Multilingual_String</text><!--MD5=[6b13f1b330d33795af281e5c1dfe1e98]
class Resource--><rect codeLine="229" fill="#FFFFFF" filter="url(#ftn93bav3jn2k)" height="32" id="Resource" style="stroke:#A80036;stroke-width:1.5;" width="91" x="1255.5" y="464"/><ellipse cx="1270.5" cy="480" fill="#ADD1B2" rx="11" ry="11" style="stroke:#A80036;stroke-width:1.0;"/><path d="M1273.4688,485.6406 Q1272.8906,485.9375 1272.25,486.0781 Q1271.6094,486.2344 1270.9063,486.2344 Q1268.4063,486.2344 1267.0781,484.5938 Q1265.7656,482.9375 1265.7656,479.8125 Q1265.7656,476.6875 1267.0781,475.0313 Q1268.4063,473.375 1270.9063,473.375 Q1271.6094,473.375 1272.25,473.5313 Q1272.9063,473.6875 1273.4688,473.9844 L1273.4688,476.7031 Q1272.8438,476.125 1272.25,475.8594 Q1271.6563,475.5781 1271.0313,475.5781 Q1269.6875,475.5781 1269,476.6563 Q1268.3125,477.7188 1268.3125,479.8125 Q1268.3125,481.9063 1269,482.9844 Q1269.6875,484.0469 1271.0313,484.0469 Q1271.6563,484.0469 1272.25,483.7813 Q1272.8438,483.5 1273.4688,482.9219 L1273.4688,485.6406 Z " fill="#000000"/><text fill="#000000" font-family="sans-serif" font-size="12" lengthAdjust="spacing" textLength="59" x="1284.5" y="484.1543">Resource</text><!--MD5=[05151c161079be2c12996cf31a3c6866]
class Contribution_to_Document--><rect codeLine="195" fill="#FFFFFF" filter="url(#ftn93bav3jn2k)" height="32" id="Contribution_to_Document" style="stroke:#A80036;stroke-width:1.5;" width="198" x="1429" y="315"/><ellipse cx="1444" cy="331" fill="#ADD1B2" rx="11" ry="11" style="stroke:#A80036;stroke-width:1.0;"/><path d="M1446.9688,336.6406 Q1446.3906,336.9375 1445.75,337.0781 Q1445.1094,337.2344 1444.4063,337.2344 Q1441.9063,337.2344 1440.5781,335.5938 Q1439.2656,333.9375 1439.2656,330.8125 Q1439.2656,327.6875 1440.5781,326.0313 Q1441.9063,324.375 1444.4063,324.375 Q1445.1094,324.375 1445.75,324.5313 Q1446.4063,324.6875 1446.9688,324.9844 L1446.9688,327.7031 Q1446.3438,327.125 1445.75,326.8594 Q1445.1563,326.5781 1444.5313,326.5781 Q1443.1875,326.5781 1442.5,327.6563 Q1441.8125,328.7188 1441.8125,330.8125 Q1441.8125,332.9063 1442.5,333.9844 Q1443.1875,335.0469 1444.5313,335.0469 Q1445.1563,335.0469 1445.75,334.7813 Q1446.3438,334.5 1446.9688,333.9219 L1446.9688,336.6406 Z " fill="#000000"/><text fill="#000000" font-family="sans-serif" font-size="12" lengthAdjust="spacing" textLength="166" x="1458" y="335.1543">Contribution_to_Document</text><!--MD5=[d8ce9658d3ea3b764ca76e27f1ae6382]
class Contribution_to_Project--><rect codeLine="186" fill="#FFFFFF" filter="url(#ftn93bav3jn2k)" height="32" id="Contribution_to_Project" style="stroke:#A80036;stroke-width:1.5;" width="178" x="792" y="315"/><ellipse cx="807" cy="331" fill="#ADD1B2" rx="11" ry="11" style="stroke:#A80036;stroke-width:1.0;"/><path d="M809.9688,336.6406 Q809.3906,336.9375 808.75,337.0781 Q808.1094,337.2344 807.4063,337.2344 Q804.9063,337.2344 803.5781,335.5938 Q802.2656,333.9375 802.2656,330.8125 Q802.2656,327.6875 803.5781,326.0313 Q804.9063,324.375 807.4063,324.375 Q808.1094,324.375 808.75,324.5313 Q809.4063,324.6875 809.9688,324.9844 L809.9688,327.7031 Q809.3438,327.125 808.75,326.8594 Q808.1563,326.5781 807.5313,326.5781 Q806.1875,326.5781 805.5,327.6563 Q804.8125,328.7188 804.8125,330.8125 Q804.8125,332.9063 805.5,333.9844 Q806.1875,335.0469 807.5313,335.0469 Q808.1563,335.0469 808.75,334.7813 Q809.3438,334.5 809.9688,333.9219 L809.9688,336.6406 Z " fill="#000000"/><text fill="#000000" font-family="sans-serif" font-size="12" lengthAdjust="spacing" textLength="146" x="821" y="335.1543">Contribution_to_Project</text><!--MD5=[79d378210367c0c6ec62ef762ddfbd1b]
class Project--><rect codeLine="285" fill="#FFFFFF" filter="url(#ftn93bav3jn2k)" height="32" id="Project" style="stroke:#A80036;stroke-width:1.5;" width="76" x="843" y="464"/><ellipse cx="858" cy="480" fill="#ADD1B2" rx="11" ry="11" style="stroke:#A80036;stroke-width:1.0;"/><path d="M860.9688,485.6406 Q860.3906,485.9375 859.75,486.0781 Q859.1094,486.2344 858.4063,486.2344 Q855.9063,486.2344 854.5781,484.5938 Q853.2656,482.9375 853.2656,479.8125 Q853.2656,476.6875 854.5781,475.0313 Q855.9063,473.375 858.4063,473.375 Q859.1094,473.375 859.75,473.5313 Q860.4063,473.6875 860.9688,473.9844 L860.9688,476.7031 Q860.3438,476.125 859.75,475.8594 Q859.1563,475.5781 858.5313,475.5781 Q857.1875,475.5781 856.5,476.6563 Q855.8125,477.7188 855.8125,479.8125 Q855.8125,481.9063 856.5,482.9844 Q857.1875,484.0469 858.5313,484.0469 Q859.1563,484.0469 859.75,483.7813 Q860.3438,483.5 860.9688,482.9219 L860.9688,485.6406 Z " fill="#000000"/><text fill="#000000" font-family="sans-serif" font-size="12" lengthAdjust="spacing" textLength="44" x="872" y="484.1543">Project</text><!--MD5=[e02578a13076095640a9a08de0c36172]
class Contribution_to_Event--><rect codeLine="204" fill="#FFFFFF" filter="url(#ftn93bav3jn2k)" height="32" id="Contribution_to_Event" style="stroke:#A80036;stroke-width:1.5;" width="169" x="1004.5" y="315"/><ellipse cx="1019.5" cy="331" fill="#ADD1B2" rx="11" ry="11" style="stroke:#A80036;stroke-width:1.0;"/><path d="M1022.4688,336.6406 Q1021.8906,336.9375 1021.25,337.0781 Q1020.6094,337.2344 1019.9063,337.2344 Q1017.4063,337.2344 1016.0781,335.5938 Q1014.7656,333.9375 1014.7656,330.8125 Q1014.7656,327.6875 1016.0781,326.0313 Q1017.4063,324.375 1019.9063,324.375 Q1020.6094,324.375 1021.25,324.5313 Q1021.9063,324.6875 1022.4688,324.9844 L1022.4688,327.7031 Q1021.8438,327.125 1021.25,326.8594 Q1020.6563,326.5781 1020.0313,326.5781 Q1018.6875,326.5781 1018,327.6563 Q1017.3125,328.7188 1017.3125,330.8125 Q1017.3125,332.9063 1018,333.9844 Q1018.6875,335.0469 1020.0313,335.0469 Q1020.6563,335.0469 1021.25,334.7813 Q1021.8438,334.5 1022.4688,333.9219 L1022.4688,336.6406 Z " fill="#000000"/><text fill="#000000" font-family="sans-serif" font-size="12" lengthAdjust="spacing" textLength="137" x="1033.5" y="335.1543">Contribution_to_Event</text><!--MD5=[ac13618b1a974308c1f12eb6c57723dc]
class Event--><rect codeLine="290" fill="#FFFFFF" filter="url(#ftn93bav3jn2k)" height="32" id="Event" style="stroke:#A80036;stroke-width:1.5;" width="67" x="1055.5" y="464"/><ellipse cx="1070.5" cy="480" fill="#ADD1B2" rx="11" ry="11" style="stroke:#A80036;stroke-width:1.0;"/><path d="M1073.4688,485.6406 Q1072.8906,485.9375 1072.25,486.0781 Q1071.6094,486.2344 1070.9063,486.2344 Q1068.4063,486.2344 1067.0781,484.5938 Q1065.7656,482.9375 1065.7656,479.8125 Q1065.7656,476.6875 1067.0781,475.0313 Q1068.4063,473.375 1070.9063,473.375 Q1071.6094,473.375 1072.25,473.5313 Q1072.9063,473.6875 1073.4688,473.9844 L1073.4688,476.7031 Q1072.8438,476.125 1072.25,475.8594 Q1071.6563,475.5781 1071.0313,475.5781 Q1069.6875,475.5781 1069,476.6563 Q1068.3125,477.7188 1068.3125,479.8125 Q1068.3125,481.9063 1069,482.9844 Q1069.6875,484.0469 1071.0313,484.0469 Q1071.6563,484.0469 1072.25,483.7813 Q1072.8438,483.5 1073.4688,482.9219 L1073.4688,485.6406 Z " fill="#000000"/><text fill="#000000" font-family="sans-serif" font-size="12" lengthAdjust="spacing" textLength="35" x="1084.5" y="484.1543">Event</text><!--MD5=[6a029e66987f6edc98a50822cc78695f]
class Involvement--><rect codeLine="141" fill="#FFFFFF" filter="url(#ftn93bav3jn2k)" height="32" id="Involvement" style="stroke:#A80036;stroke-width:1.5;" width="106" x="409" y="160"/><ellipse cx="424" cy="176" fill="#ADD1B2" rx="11" ry="11" style="stroke:#A80036;stroke-width:1.0;"/><path d="M426.9688,181.6406 Q426.3906,181.9375 425.75,182.0781 Q425.1094,182.2344 424.4063,182.2344 Q421.9063,182.2344 420.5781,180.5938 Q419.2656,178.9375 419.2656,175.8125 Q419.2656,172.6875 420.5781,171.0313 Q421.9063,169.375 424.4063,169.375 Q425.1094,169.375 425.75,169.5313 Q426.4063,169.6875 426.9688,169.9844 L426.9688,172.7031 Q426.3438,172.125 425.75,171.8594 Q425.1563,171.5781 424.5313,171.5781 Q423.1875,171.5781 422.5,172.6563 Q421.8125,173.7188 421.8125,175.8125 Q421.8125,177.9063 422.5,178.9844 Q423.1875,180.0469 424.5313,180.0469 Q425.1563,180.0469 425.75,179.7813 Q426.3438,179.5 426.9688,178.9219 L426.9688,181.6406 Z " fill="#000000"/><text fill="#000000" font-family="sans-serif" font-size="12" lengthAdjust="spacing" textLength="74" x="438" y="180.1543">Involvement</text><!--MD5=[affb11a45f8309443fb20b6133e8d181]
class Group_or_Organisation_Unit--><rect codeLine="90" fill="#FFFFFF" filter="url(#ftn93bav3jn2k)" height="78.4141" id="Group_or_Organisation_Unit" style="stroke:#A80036;stroke-width:1.5;" width="206" x="551" y="292"/><ellipse cx="566" cy="308" fill="#ADD1B2" rx="11" ry="11" style="stroke:#A80036;stroke-width:1.0;"/><path d="M568.9688,313.6406 Q568.3906,313.9375 567.75,314.0781 Q567.1094,314.2344 566.4063,314.2344 Q563.9063,314.2344 562.5781,312.5938 Q561.2656,310.9375 561.2656,307.8125 Q561.2656,304.6875 562.5781,303.0313 Q563.9063,301.375 566.4063,301.375 Q567.1094,301.375 567.75,301.5313 Q568.4063,301.6875 568.9688,301.9844 L568.9688,304.7031 Q568.3438,304.125 567.75,303.8594 Q567.1563,303.5781 566.5313,303.5781 Q565.1875,303.5781 564.5,304.6563 Q563.8125,305.7188 563.8125,307.8125 Q563.8125,309.9063 564.5,310.9844 Q565.1875,312.0469 566.5313,312.0469 Q567.1563,312.0469 567.75,311.7813 Q568.3438,311.5 568.9688,310.9219 L568.9688,313.6406 Z " fill="#000000"/><text fill="#000000" font-family="sans-serif" font-size="12" lengthAdjust="spacing" textLength="174" x="580" y="312.1543">Group_or_Organisation_Unit</text><line style="stroke:#A80036;stroke-width:1.5;" x1="552" x2="756" y1="324" y2="324"/><text fill="#000000" font-family="sans-serif" font-size="11" lengthAdjust="spacing" textLength="147" x="557" y="338.2104">name : Multilingual_String</text><text fill="#000000" font-family="sans-serif" font-size="11" lengthAdjust="spacing" textLength="95" x="557" y="351.0151">acronym : String</text><text fill="#000000" font-family="sans-serif" font-size="11" lengthAdjust="spacing" textLength="178" x="557" y="363.8198">description : Multilingual_String</text><!--MD5=[ddbff00b4911ad4b77d6aa32dd14d1d7]
class Affiliation_Statement--><rect codeLine="356" fill="#FFFFFF" filter="url(#ftn93bav3jn2k)" height="78.4141" id="Affiliation_Statement" style="stroke:#A80036;stroke-width:1.5;" width="224" x="7" y="137"/><ellipse cx="50.35" cy="153" fill="#ADD1B2" rx="11" ry="11" style="stroke:#A80036;stroke-width:1.0;"/><path d="M53.3188,158.6406 Q52.7406,158.9375 52.1,159.0781 Q51.4594,159.2344 50.7563,159.2344 Q48.2563,159.2344 46.9281,157.5938 Q45.6156,155.9375 45.6156,152.8125 Q45.6156,149.6875 46.9281,148.0313 Q48.2563,146.375 50.7563,146.375 Q51.4594,146.375 52.1,146.5313 Q52.7563,146.6875 53.3188,146.9844 L53.3188,149.7031 Q52.6938,149.125 52.1,148.8594 Q51.5063,148.5781 50.8813,148.5781 Q49.5375,148.5781 48.85,149.6563 Q48.1625,150.7188 48.1625,152.8125 Q48.1625,154.9063 48.85,155.9844 Q49.5375,157.0469 50.8813,157.0469 Q51.5063,157.0469 52.1,156.7813 Q52.6938,156.5 53.3188,155.9219 L53.3188,158.6406 Z " fill="#000000"/><text fill="#000000" font-family="sans-serif" font-size="12" lengthAdjust="spacing" textLength="129" x="70.65" y="157.1543">Affiliation_Statement</text><line style="stroke:#A80036;stroke-width:1.5;" x1="8" x2="230" y1="169" y2="169"/><text fill="#000000" font-family="sans-serif" font-size="11" lengthAdjust="spacing" textLength="203" x="13" y="183.2104">displayAffiliation_Statement : String</text><text fill="#000000" font-family="sans-serif" font-size="11" lengthAdjust="spacing" textLength="159" x="13" y="196.0151">displayPersonName : String</text><text fill="#000000" font-family="sans-serif" font-size="11" lengthAdjust="spacing" textLength="212" x="13" y="208.8198">contacts : List&lt;Contact_Information&gt;</text><!--MD5=[77463bb17ddcfe3891c27a1f4a877731]
class Membership--><rect codeLine="168" fill="#FFFFFF" filter="url(#ftn93bav3jn2k)" height="32" id="Membership" style="stroke:#A80036;stroke-width:1.5;" width="108" x="408" y="315"/><ellipse cx="423" cy="331" fill="#ADD1B2" rx="11" ry="11" style="stroke:#A80036;stroke-width:1.0;"/><path d="M425.9688,336.6406 Q425.3906,336.9375 424.75,337.0781 Q424.1094,337.2344 423.4063,337.2344 Q420.9063,337.2344 419.5781,335.5938 Q418.2656,333.9375 418.2656,330.8125 Q418.2656,327.6875 419.5781,326.0313 Q420.9063,324.375 423.4063,324.375 Q424.1094,324.375 424.75,324.5313 Q425.4063,324.6875 425.9688,324.9844 L425.9688,327.7031 Q425.3438,327.125 424.75,326.8594 Q424.1563,326.5781 423.5313,326.5781 Q422.1875,326.5781 421.5,327.6563 Q420.8125,328.7188 420.8125,330.8125 Q420.8125,332.9063 421.5,333.9844 Q422.1875,335.0469 423.5313,335.0469 Q424.1563,335.0469 424.75,334.7813 Q425.3438,334.5 425.9688,333.9219 L425.9688,336.6406 Z " fill="#000000"/><text fill="#000000" font-family="sans-serif" font-size="12" lengthAdjust="spacing" textLength="76" x="437" y="335.1543">Membership</text><!--MD5=[3e7c08c6da448472712568ab49cd8e32]
class Education--><rect codeLine="159" fill="#FFFFFF" filter="url(#ftn93bav3jn2k)" height="32" id="Education" style="stroke:#A80036;stroke-width:1.5;" width="95" x="134.5" y="315"/><ellipse cx="149.5" cy="331" fill="#ADD1B2" rx="11" ry="11" style="stroke:#A80036;stroke-width:1.0;"/><path d="M152.4688,336.6406 Q151.8906,336.9375 151.25,337.0781 Q150.6094,337.2344 149.9063,337.2344 Q147.4063,337.2344 146.0781,335.5938 Q144.7656,333.9375 144.7656,330.8125 Q144.7656,327.6875 146.0781,326.0313 Q147.4063,324.375 149.9063,324.375 Q150.6094,324.375 151.25,324.5313 Q151.9063,324.6875 152.4688,324.9844 L152.4688,327.7031 Q151.8438,327.125 151.25,326.8594 Q150.6563,326.5781 150.0313,326.5781 Q148.6875,326.5781 148,327.6563 Q147.3125,328.7188 147.3125,330.8125 Q147.3125,332.9063 148,333.9844 Q148.6875,335.0469 150.0313,335.0469 Q150.6563,335.0469 151.25,334.7813 Q151.8438,334.5 152.4688,333.9219 L152.4688,336.6406 Z " fill="#000000"/><text fill="#000000" font-family="sans-serif" font-size="12" lengthAdjust="spacing" textLength="63" x="163.5" y="335.1543">Education</text><!--MD5=[1c0f67851325b0845e0b86703ac36f9d]
class Employment--><rect codeLine="150" fill="#FFFFFF" filter="url(#ftn93bav3jn2k)" height="32" id="Employment" style="stroke:#A80036;stroke-width:1.5;" width="108" x="265" y="315"/><ellipse cx="280" cy="331" fill="#ADD1B2" rx="11" ry="11" style="stroke:#A80036;stroke-width:1.0;"/><path d="M282.9688,336.6406 Q282.3906,336.9375 281.75,337.0781 Q281.1094,337.2344 280.4063,337.2344 Q277.9063,337.2344 276.5781,335.5938 Q275.2656,333.9375 275.2656,330.8125 Q275.2656,327.6875 276.5781,326.0313 Q277.9063,324.375 280.4063,324.375 Q281.1094,324.375 281.75,324.5313 Q282.4063,324.6875 282.9688,324.9844 L282.9688,327.7031 Q282.3438,327.125 281.75,326.8594 Q281.1563,326.5781 280.5313,326.5781 Q279.1875,326.5781 278.5,327.6563 Q277.8125,328.7188 277.8125,330.8125 Q277.8125,332.9063 278.5,333.9844 Q279.1875,335.0469 280.5313,335.0469 Q281.1563,335.0469 281.75,334.7813 Q282.3438,334.5 282.9688,333.9219 L282.9688,336.6406 Z " fill="#000000"/><text fill="#000000" font-family="sans-serif" font-size="12" lengthAdjust="spacing" textLength="76" x="294" y="335.1543">Employment</text><!--MD5=[ff9dfe2dddb5fe4a69020d7834f0d207]
link Document to Activity--><path codeLine="213" d="M1646.92,446.87 C1651.47,437.55 1655.68,427.14 1658,417 C1670.48,362.56 1680.39,335.21 1645,292 C1466.01,73.47 1097.35,38.88 938.52,34.47 " fill="none" id="Document-Activity" style="stroke:#A80036;stroke-width:1.0;"/><polygon fill="#000000" points="1616.6789,251.0508,1623.0172,258.1414,1625.9745,253.0617,1616.6789,251.0508" style="stroke:#000000;stroke-width:1.0;"/><text fill="#000000" font-family="sans-serif" font-size="13" lengthAdjust="spacing" textLength="36" x="1630" y="258.0669">prove</text><text fill="#000000" font-family="sans-serif" font-size="13" lengthAdjust="spacing" textLength="23" x="1625.3808" y="435.9894">0..*</text><text fill="#000000" font-family="sans-serif" font-size="13" lengthAdjust="spacing" textLength="23" x="946.5422" y="30.95">0..*</text><!--MD5=[cd935cc757d29bd6a59b1252b30899e0]
link Activity to Agent--><path codeLine="219" d="M863,60.27 C863,80.23 863,108.33 863,131.72 " fill="none" id="Activity-to-Agent" style="stroke:#A80036;stroke-width:1.0;"/><polygon fill="#A80036" points="863,136.94,867,127.94,863,131.94,859,127.94,863,136.94" style="stroke:#A80036;stroke-width:1.0;"/><polygon fill="#000000" points="868,103.5664,870.9389,94.5213,865.0611,94.5213,868,103.5664" style="stroke:#000000;stroke-width:1.0;"/><text fill="#000000" font-family="sans-serif" font-size="13" lengthAdjust="spacing" textLength="33" x="877" y="103.0669">actor</text><text fill="#000000" font-family="sans-serif" font-size="13" lengthAdjust="spacing" textLength="23" x="837.4844" y="79.8693">0..*</text><text fill="#000000" font-family="sans-serif" font-size="13" lengthAdjust="spacing" textLength="24" x="836.9375" y="125.9802">0..1</text><!--MD5=[55f20054f286b2e7074e8d22fab1f608]
reverse link Activity to Contribution--><path codeLine="182" d="M921.46,70.84 C968.02,99.79 1030.85,138.85 1064.8,159.95 " fill="none" id="Activity-backto-Contribution" style="stroke:#A80036;stroke-width:1.0;"/><polygon fill="none" points="917.48,76.61,904.19,60.11,924.87,64.72,917.48,76.61" style="stroke:#A80036;stroke-width:1.0;"/><!--MD5=[b01ee177fc17bf8bb95324fc01c31b3b]
link Contribution_Statement to Resource--><path codeLine="500" d="M1301,357.61 C1301,386.29 1301,432.22 1301,458.6 " fill="none" id="Contribution_Statement-to-Resource" style="stroke:#A80036;stroke-width:1.0;"/><polygon fill="#A80036" points="1301,463.6,1305,454.6,1301,458.6,1297,454.6,1301,463.6" style="stroke:#A80036;stroke-width:1.0;"/><polygon fill="#000000" points="1306,413.5664,1308.9389,404.5213,1303.0611,404.5213,1306,413.5664" style="stroke:#000000;stroke-width:1.0;"/><text fill="#000000" font-family="sans-serif" font-size="13" lengthAdjust="spacing" textLength="54" x="1315" y="413.0669">provides</text><text fill="#000000" font-family="sans-serif" font-size="13" lengthAdjust="spacing" textLength="24" x="1273.175" y="453.0699">0..1</text><!--MD5=[8d7c614e8203540f95956299e63d224a]
reverse link Contribution to Contribution_to_Document--><path codeLine="200" d="M1158.57,197.91 C1200.82,210.89 1255.75,228.23 1304,245 C1370.01,267.94 1445.85,297.38 1490.19,314.91 " fill="none" id="Contribution-backto-Contribution_to_Document" style="stroke:#A80036;stroke-width:1.0;"/><polygon fill="none" points="1156.31,204.54,1139.22,192.01,1160.4,191.15,1156.31,204.54" style="stroke:#A80036;stroke-width:1.0;"/><!--MD5=[117c8d017b65f89954aa553a8ad2cfe8]
link Contribution_to_Document to Document--><path codeLine="484" d="M1534.88,347.01 C1543.15,364.47 1557.94,393.84 1574,417 C1580.08,425.77 1587.22,434.71 1594.27,442.96 " fill="none" id="Contribution_to_Document-to-Document" style="stroke:#A80036;stroke-width:1.0;"/><polygon fill="#A80036" points="1597.72,446.96,1594.8619,437.535,1594.4508,443.1768,1588.8089,442.7657,1597.72,446.96" style="stroke:#A80036;stroke-width:1.0;"/><polygon fill="#000000" points="1581.6315,412.8179,1579.37,403.5801,1574.3721,406.6737,1581.6315,412.8179" style="stroke:#000000;stroke-width:1.0;"/><text fill="#000000" font-family="sans-serif" font-size="13" lengthAdjust="spacing" textLength="65" x="1588" y="413.0669">document</text><!--MD5=[e36b49b71580bc35ebd964809c09ea7d]
reverse link Contribution to Contribution_to_Project--><path codeLine="191" d="M1051.91,204.29 C1008.05,236.55 936.6,289.1 901.62,314.83 " fill="none" id="Contribution-backto-Contribution_to_Project" style="stroke:#A80036;stroke-width:1.0;"/><polygon fill="none" points="1048.04,198.44,1068.3,192.23,1056.33,209.72,1048.04,198.44" style="stroke:#A80036;stroke-width:1.0;"/><!--MD5=[57fd60736781c4a6a1ada02cfd005744]
link Contribution_to_Project to Project--><path codeLine="281" d="M881,347.18 C881,373.7 881,428.48 881,458.4 " fill="none" id="Contribution_to_Project-to-Project" style="stroke:#A80036;stroke-width:1.0;"/><polygon fill="#A80036" points="881,463.68,885,454.68,881,458.68,877,454.68,881,463.68" style="stroke:#A80036;stroke-width:1.0;"/><polygon fill="#000000" points="886,413.5664,888.9389,404.5213,883.0611,404.5213,886,413.5664" style="stroke:#000000;stroke-width:1.0;"/><text fill="#000000" font-family="sans-serif" font-size="13" lengthAdjust="spacing" textLength="44" x="895" y="413.0669">project</text><!--MD5=[ff4a6d145294525e05493403423321eb]
reverse link Contribution to Contribution_to_Event--><path codeLine="209" d="M1089,212.39 C1089,244.78 1089,291.16 1089,314.83 " fill="none" id="Contribution-backto-Contribution_to_Event" style="stroke:#A80036;stroke-width:1.0;"/><polygon fill="none" points="1082,212.23,1089,192.23,1096,212.23,1082,212.23" style="stroke:#A80036;stroke-width:1.0;"/><!--MD5=[467ded19ca6884babd44a8b5c496328d]
link Contribution_to_Event to Event--><path codeLine="496" d="M1089,347.18 C1089,373.7 1089,428.48 1089,458.4 " fill="none" id="Contribution_to_Event-to-Event" style="stroke:#A80036;stroke-width:1.0;"/><polygon fill="#A80036" points="1089,463.68,1093,454.68,1089,458.68,1085,454.68,1089,463.68" style="stroke:#A80036;stroke-width:1.0;"/><polygon fill="#000000" points="1094,413.5664,1096.9389,404.5213,1091.0611,404.5213,1094,413.5664" style="stroke:#000000;stroke-width:1.0;"/><text fill="#000000" font-family="sans-serif" font-size="13" lengthAdjust="spacing" textLength="36" x="1103" y="413.0669">event</text><!--MD5=[5310b7429ef001befd0a176a00932538]
reverse link Activity to Involvement--><path codeLine="146" d="M770.84,66.79 C687.35,96.04 568.04,137.85 504.94,159.95 " fill="none" id="Activity-backto-Involvement" style="stroke:#A80036;stroke-width:1.0;"/><polygon fill="none" points="768.73,60.11,789.92,60.11,773.36,73.33,768.73,60.11" style="stroke:#A80036;stroke-width:1.0;"/><!--MD5=[3e6df519c6409dff9ecce5f5942987dd]
link Involvement to Group_or_Organisation_Unit--><path codeLine="223" d="M481.11,192.23 C509.02,214.47 561.96,256.66 601.94,288.52 " fill="none" id="Involvement-to-Group_or_Organisation_Unit" style="stroke:#A80036;stroke-width:1.0;"/><polygon fill="#A80036" points="606.26,291.96,601.7076,283.2264,602.3473,288.847,596.7267,289.4867,606.26,291.96" style="stroke:#A80036;stroke-width:1.0;"/><polygon fill="#000000" points="572.9102,256.6825,567.6681,248.7471,564.005,253.3438,572.9102,256.6825" style="stroke:#000000;stroke-width:1.0;"/><text fill="#000000" font-family="sans-serif" font-size="13" lengthAdjust="spacing" textLength="67" x="578" y="258.0669">involved in</text><text fill="#000000" font-family="sans-serif" font-size="13" lengthAdjust="spacing" textLength="23" x="460.6308" y="212.1795">0..*</text><!--MD5=[ec091f800280b56df8e15aaaa2e5104f]
reverse link Affiliation_Statement to Involvement--><path codeLine="661" d="M236.58,176 C295.01,176 362.74,176 408.59,176 " fill="none" id="Affiliation_Statement-backto-Involvement" style="stroke:#A80036;stroke-width:1.0;"/><polygon fill="#A80036" points="231.31,176,240.31,180,236.31,176,240.31,172,231.31,176" style="stroke:#A80036;stroke-width:1.0;"/><polygon fill="#000000" points="248.5,164.5664,257.5451,167.5053,257.5451,161.6275,248.5,164.5664" style="stroke:#000000;stroke-width:1.0;"/><text fill="#000000" font-family="sans-serif" font-size="13" lengthAdjust="spacing" textLength="128" x="262.5" y="169.0669">is the foundation for</text><text fill="#000000" font-family="sans-serif" font-size="13" lengthAdjust="spacing" textLength="23" x="238.8547" y="188.5154">0..*</text><text fill="#000000" font-family="sans-serif" font-size="13" lengthAdjust="spacing" textLength="23" x="378.0848" y="188.9418">0..*</text><!--MD5=[eeb1986463f873db234da87eccdc590b]
link Involvement to Involvement--><path codeLine="665" d="M515.27,168.88 C534.4,168.73 550,171.1 550,176 C550,180.44 537.19,182.8 520.55,183.09 " fill="none" id="Involvement-to-Involvement" style="stroke:#A80036;stroke-width:1.0;"/><polygon fill="#A80036" points="515.27,183.12,524.2927,187.0685,520.2699,183.0914,524.247,179.0686,515.27,183.12" style="stroke:#A80036;stroke-width:1.0;"/><polygon fill="#000000" points="554.9608,181.0663,557.9706,172.0445,552.0929,171.9984,554.9608,181.0663" style="stroke:#000000;stroke-width:1.0;"/><text fill="#000000" font-family="sans-serif" font-size="13" lengthAdjust="spacing" textLength="26" x="569" y="180.5669">part</text><text fill="#000000" font-family="sans-serif" font-size="13" lengthAdjust="spacing" textLength="23" x="523.1638" y="181.0013">0..*</text><text fill="#000000" font-family="sans-serif" font-size="13" lengthAdjust="spacing" textLength="24" x="522.8168" y="196.885">0..1</text><!--MD5=[eeb1986463f873db234da87eccdc590b]
link Involvement to Involvement--><path codeLine="669" d="M515.29,163.43 C556.76,159.05 601,163.23 601,176 C601,188.22 560.48,192.58 520.65,189.08 " fill="none" id="Involvement-to-Involvement-1" style="stroke:#A80036;stroke-width:1.0;"/><polygon fill="#A80036" points="515.29,188.57,523.8584,193.4262,520.2663,189.0562,524.6363,185.4641,515.29,188.57" style="stroke:#A80036;stroke-width:1.0;"/><polygon fill="#000000" points="605.4748,181.0387,609.3475,172.3524,603.5022,171.735,605.4748,181.0387" style="stroke:#000000;stroke-width:1.0;"/><text fill="#000000" font-family="sans-serif" font-size="13" lengthAdjust="spacing" textLength="89" x="620" y="180.5669">part transitive</text><text fill="#000000" font-family="sans-serif" font-size="13" lengthAdjust="spacing" textLength="23" x="523.1863" y="158.059">0..*</text><text fill="#000000" font-family="sans-serif" font-size="13" lengthAdjust="spacing" textLength="23" x="515.7969" y="211.9636">0..*</text><!--MD5=[774ab914c44fde287bade86ae1a1d531]
reverse link Involvement to Membership--><path codeLine="173" d="M462,212.39 C462,244.78 462,291.16 462,314.83 " fill="none" id="Involvement-backto-Membership" style="stroke:#A80036;stroke-width:1.0;"/><polygon fill="none" points="455,212.23,462,192.23,469,212.23,455,212.23" style="stroke:#A80036;stroke-width:1.0;"/><!--MD5=[e6302ca8d503674dcb8235c7c53cdc01]
reverse link Involvement to Education--><path codeLine="164" d="M415.16,201.4 C371.42,224.34 304.44,259.86 247,292 C233.77,299.4 219.18,307.9 207.18,314.98 " fill="none" id="Involvement-backto-Education" style="stroke:#A80036;stroke-width:1.0;"/><polygon fill="none" points="411.98,195.16,432.95,192.09,418.47,207.57,411.98,195.16" style="stroke:#A80036;stroke-width:1.0;"/><!--MD5=[5dcf1ca4d8097aa908f88de41c3d702a]
reverse link Involvement to Employment--><path codeLine="155" d="M434.05,206.91 C403.74,239.33 356.59,289.79 333.18,314.83 " fill="none" id="Involvement-backto-Employment" style="stroke:#A80036;stroke-width:1.0;"/><polygon fill="none" points="429,202.06,447.77,192.23,439.22,211.62,429,202.06" style="stroke:#A80036;stroke-width:1.0;"/><!--MD5=[335bc652314d68e20c6b9db39c8a9e92]
reverse link Activity to Affiliation_Statement--><path codeLine="476" d="M774.08,51.29 C638.38,76.92 379.74,125.76 231.27,153.8 " fill="none" id="Activity-backto-Affiliation_Statement" style="stroke:#A80036;stroke-width:1.0;"/><polygon fill="#FFFFFF" points="787.22,48.81,780.5814,45.9941,775.4288,51.039,782.0674,53.8549,787.22,48.81" style="stroke:#A80036;stroke-width:1.0;"/><polygon fill="#000000" points="558.0868,99.4943,567.5202,100.7036,566.4294,94.9279,558.0868,99.4943" style="stroke:#000000;stroke-width:1.0;"/><text fill="#000000" font-family="sans-serif" font-size="13" lengthAdjust="spacing" textLength="61" x="572" y="103.0669">affilations</text><text fill="#000000" font-family="sans-serif" font-size="13" lengthAdjust="spacing" textLength="23" x="756.4466" y="46.5871">0..*</text><text fill="#000000" font-family="sans-serif" font-size="13" lengthAdjust="spacing" textLength="23" x="238.8122" y="149.0485">0..*</text><!--MD5=[985660d160cc1234ef784a412fcab047]
reverse link Contribution to Contribution_Statement--><path codeLine="480" d="M1120.78,199.93 C1159.63,227.98 1225.2,275.3 1265.62,304.47 " fill="none" id="Contribution-backto-Contribution_Statement" style="stroke:#A80036;stroke-width:1.0;"/><polygon fill="#A80036" points="1110.1,192.23,1112.6221,198.9857,1119.8282,199.2559,1117.306,192.5002,1110.1,192.23" style="stroke:#A80036;stroke-width:1.0;"/><polygon fill="#000000" points="1210.0543,256.4926,1204.44,248.816,1201,253.5821,1210.0543,256.4926" style="stroke:#000000;stroke-width:1.0;"/><text fill="#000000" font-family="sans-serif" font-size="13" lengthAdjust="spacing" textLength="80" x="1215" y="258.0669">is detailed in</text><text fill="#000000" font-family="sans-serif" font-size="13" lengthAdjust="spacing" textLength="23" x="1231.193" y="293.2821">0..*</text><!--MD5=[8baa0633a34be8ca6adcc4fd46743d97]
reverse link Agent to Group_or_Organisation_Unit--><path codeLine="98" d="M794.66,227.03 C765.83,248.13 732.82,272.3 706.03,291.91 " fill="none" id="Agent-backto-Group_or_Organisation_Unit" style="stroke:#A80036;stroke-width:1.0;"/><polygon fill="none" points="790.8,221.18,811.07,215.02,799.07,232.48,790.8,221.18" style="stroke:#A80036;stroke-width:1.0;"/><!--MD5=[1af651989cfd19ef4b8a4239fadac83d]
@startuml

    !includesub core.puml!common
    !includesub core.puml!Activity
    !includesub core.puml!Contribution
    !includesub core.puml!Contribution_to_Document
    !includesub core.puml!Contribution_to_Project
    !includesub core.puml!Contribution_to_Event
    !includesub core.puml!Involvement
    !includesub core.puml!Membership
    !includesub core.puml!Education
    !includesub core.puml!Employment
    !includesub core.puml!Affiliation_Statement
    !includesub core.puml!Contribution_Statement
    !includesub core.puml!Resource
    !includesub core.puml!Document
    !includesub core.puml!Project
    !includesub core.puml!Event
    !includesub core.puml!Agent
    !includesub core.puml!Group_or_Organisation_Unit

@enduml

@startuml

    hide empty members
    skinparam BoxPadding 120
    class "Activity" #ffffff {
  		dateRange : Date_Range
    }
	"Document" "0..*" - - "0..*" "Activity" : prove >
    "Activity" "0..*" - -> "0..1" "Agent" : actor >
    class "Contribution" #ffffff {
    }
    "Activity" <|-d- "Contribution"
     "Contribution_Statement" - -> "0..1" "Resource" : provides >
    class "Contribution_to_Document" #ffffff {
    }
    "Contribution" <|-d- "Contribution_to_Document"
    "Contribution_to_Document" - -> "Document" : document >
    class "Contribution_to_Project" #ffffff {
    }
    "Contribution" <|-d- "Contribution_to_Project"
    "Contribution_to_Project" - -> "Project" : project >
    class "Contribution_to_Event" #ffffff {
    }
    "Contribution" <|-d- "Contribution_to_Event"
    "Contribution_to_Event" - -> "Event" : event >
    class "Involvement" #ffffff {
    }
   "Activity" <|-d- "Involvement"
	"Involvement" "0..*" - -> "Group_or_Organisation_Unit" : involved in >
	"Involvement" "0..*" -l-> "0..*" "Affiliation_Statement" : is the foundation for >
	"Involvement" "0..*" - -> "0..1" "Involvement" : part >
	"Involvement" "0..*" - -> "0..*" "Involvement" : part transitive >
    class "Membership" #ffffff {
    }
    "Involvement" <|-d- "Membership"
    class "Education" #ffffff {
    }
    "Involvement" <|-d- "Education"
    class "Employment" #ffffff {
    }
    "Involvement" <|-d- "Employment"
    class "Affiliation_Statement" #ffffff {
        displayAffiliation_Statement : String
        displayPersonName : String
        contacts : List<Contact_Information>
    }
    "Activity" "0..*" o- - "0..*" "Affiliation_Statement" : affilations >
    class "Contribution_Statement" #ffffff {
        statement : Multilingual_String
    }
    "Contribution" *- - "0..*" "Contribution_Statement" : is detailed in >
    class "Resource" #ffffff {
    }
    class "Document" #ffffff {
        title : Multilingual_String
        publicationDate : Date
    }
    class "Project" #ffffff {
    }
    class "Event" #ffffff {
    }
    class "Agent" #ffffff {
        keywords : List<Multilingual_String>
    	lifetime : Date_Range
    	contacts : List<Contact_Information>
    }
    class "Group_or_Organisation_Unit" #ffffff {
        name : Multilingual_String
        acronym : String
        description : Multilingual_String
    }
	"Agent" <|- - "Group_or_Organisation_Unit"

@enduml

PlantUML version 1.2021.8(Sat Jun 26 08:20:59 UTC 2021)
(GPL source distribution)
Java Runtime: OpenJDK Runtime Environment
JVM: OpenJDK 64-Bit Server VM
Default Encoding: UTF-8
Language: en
Country: null
--></g></svg>