<?xml version="1.0" encoding="UTF-8" standalone="no"?><svg xmlns="http://www.w3.org/2000/svg" xmlns:xlink="http://www.w3.org/1999/xlink" contentScriptType="application/ecmascript" contentStyleType="text/css" height="597px" preserveAspectRatio="none" style="width:1434px;height:597px;background:#FFFFFF;" version="1.1" viewBox="0 0 1434 597" width="1434px" zoomAndPan="magnify"><defs><filter height="300%" id="f1o3dup33gl4vh" width="300%" x="-1" y="-1"><feGaussianBlur result="blurOut" stdDeviation="2.0"/><feColorMatrix in="blurOut" result="blurOut2" type="matrix" values="0 0 0 0 0 0 0 0 0 0 0 0 0 0 0 0 0 0 .4 0"/><feOffset dx="4.0" dy="4.0" in="blurOut2" result="blurOut3"/><feBlend in="SourceGraphic" in2="blurOut3" mode="normal"/></filter></defs><g><!--MD5=[edcf71e28750a8856eb4372d573715ca]
class Call_for_Applications--><rect codeLine="526" fill="#FFFFFF" filter="url(#f1o3dup33gl4vh)" height="32" id="Call_for_Applications" style="stroke:#A80036;stroke-width:1.5;" width="159" x="35" y="288"/><ellipse cx="50" cy="304" fill="#ADD1B2" rx="11" ry="11" style="stroke:#A80036;stroke-width:1.0;"/><path d="M52.9688,309.6406 Q52.3906,309.9375 51.75,310.0781 Q51.1094,310.2344 50.4063,310.2344 Q47.9063,310.2344 46.5781,308.5938 Q45.2656,306.9375 45.2656,303.8125 Q45.2656,300.6875 46.5781,299.0313 Q47.9063,297.375 50.4063,297.375 Q51.1094,297.375 51.75,297.5313 Q52.4063,297.6875 52.9688,297.9844 L52.9688,300.7031 Q52.3438,300.125 51.75,299.8594 Q51.1563,299.5781 50.5313,299.5781 Q49.1875,299.5781 48.5,300.6563 Q47.8125,301.7188 47.8125,303.8125 Q47.8125,305.9063 48.5,306.9844 Q49.1875,308.0469 50.5313,308.0469 Q51.1563,308.0469 51.75,307.7813 Q52.3438,307.5 52.9688,306.9219 L52.9688,309.6406 Z " fill="#000000"/><text fill="#000000" font-family="sans-serif" font-size="12" lengthAdjust="spacing" textLength="127" x="64" y="308.1543">Call_for_Applications</text><!--MD5=[0b4e4b4980470ea387cc45de9bd14b5b]
class Application--><rect codeLine="505" fill="#FFFFFF" filter="url(#f1o3dup33gl4vh)" height="52.8047" id="Application" style="stroke:#A80036;stroke-width:1.5;" width="101" x="539" y="277.5"/><ellipse cx="554" cy="293.5" fill="#ADD1B2" rx="11" ry="11" style="stroke:#A80036;stroke-width:1.0;"/><path d="M556.9688,299.1406 Q556.3906,299.4375 555.75,299.5781 Q555.1094,299.7344 554.4063,299.7344 Q551.9063,299.7344 550.5781,298.0938 Q549.2656,296.4375 549.2656,293.3125 Q549.2656,290.1875 550.5781,288.5313 Q551.9063,286.875 554.4063,286.875 Q555.1094,286.875 555.75,287.0313 Q556.4063,287.1875 556.9688,287.4844 L556.9688,290.2031 Q556.3438,289.625 555.75,289.3594 Q555.1563,289.0781 554.5313,289.0781 Q553.1875,289.0781 552.5,290.1563 Q551.8125,291.2188 551.8125,293.3125 Q551.8125,295.4063 552.5,296.4844 Q553.1875,297.5469 554.5313,297.5469 Q555.1563,297.5469 555.75,297.2813 Q556.3438,297 556.9688,296.4219 L556.9688,299.1406 Z " fill="#000000"/><text fill="#000000" font-family="sans-serif" font-size="12" lengthAdjust="spacing" textLength="69" x="568" y="297.6543">Application</text><line style="stroke:#A80036;stroke-width:1.5;" x1="540" x2="639" y1="309.5" y2="309.5"/><text fill="#000000" font-family="sans-serif" font-size="11" lengthAdjust="spacing" textLength="63" x="545" y="323.7104">date : Date</text><!--MD5=[8a67874827a9dbf014cc34517ffca193]
class Resource_Offer--><rect codeLine="680" fill="#FFFFFF" filter="url(#f1o3dup33gl4vh)" height="32" id="Resource_Offer" style="stroke:#A80036;stroke-width:1.5;" width="127" x="332" y="162"/><ellipse cx="347" cy="178" fill="#ADD1B2" rx="11" ry="11" style="stroke:#A80036;stroke-width:1.0;"/><path d="M349.9688,183.6406 Q349.3906,183.9375 348.75,184.0781 Q348.1094,184.2344 347.4063,184.2344 Q344.9063,184.2344 343.5781,182.5938 Q342.2656,180.9375 342.2656,177.8125 Q342.2656,174.6875 343.5781,173.0313 Q344.9063,171.375 347.4063,171.375 Q348.1094,171.375 348.75,171.5313 Q349.4063,171.6875 349.9688,171.9844 L349.9688,174.7031 Q349.3438,174.125 348.75,173.8594 Q348.1563,173.5781 347.5313,173.5781 Q346.1875,173.5781 345.5,174.6563 Q344.8125,175.7188 344.8125,177.8125 Q344.8125,179.9063 345.5,180.9844 Q346.1875,182.0469 347.5313,182.0469 Q348.1563,182.0469 348.75,181.7813 Q349.3438,181.5 349.9688,180.9219 L349.9688,183.6406 Z " fill="#000000"/><text fill="#000000" font-family="sans-serif" font-size="12" lengthAdjust="spacing" textLength="95" x="361" y="182.1543">Resource_Offer</text><!--MD5=[68c3952ebfab03c1a0449046a32d2ee2]
class Resource_Request--><rect codeLine="702" fill="#FFFFFF" filter="url(#f1o3dup33gl4vh)" height="32" id="Resource_Request" style="stroke:#A80036;stroke-width:1.5;" width="149" x="625" y="162"/><ellipse cx="640" cy="178" fill="#ADD1B2" rx="11" ry="11" style="stroke:#A80036;stroke-width:1.0;"/><path d="M642.9688,183.6406 Q642.3906,183.9375 641.75,184.0781 Q641.1094,184.2344 640.4063,184.2344 Q637.9063,184.2344 636.5781,182.5938 Q635.2656,180.9375 635.2656,177.8125 Q635.2656,174.6875 636.5781,173.0313 Q637.9063,171.375 640.4063,171.375 Q641.1094,171.375 641.75,171.5313 Q642.4063,171.6875 642.9688,171.9844 L642.9688,174.7031 Q642.3438,174.125 641.75,173.8594 Q641.1563,173.5781 640.5313,173.5781 Q639.1875,173.5781 638.5,174.6563 Q637.8125,175.7188 637.8125,177.8125 Q637.8125,179.9063 638.5,180.9844 Q639.1875,182.0469 640.5313,182.0469 Q641.1563,182.0469 641.75,181.7813 Q642.3438,181.5 642.9688,180.9219 L642.9688,183.6406 Z " fill="#000000"/><text fill="#000000" font-family="sans-serif" font-size="12" lengthAdjust="spacing" textLength="117" x="654" y="182.1543">Resource_Request</text><!--MD5=[6b13f1b330d33795af281e5c1dfe1e98]
class Resource--><rect codeLine="267" fill="#FFFFFF" filter="url(#f1o3dup33gl4vh)" height="32" id="Resource" style="stroke:#A80036;stroke-width:1.5;" width="91" x="692" y="288"/><ellipse cx="707" cy="304" fill="#ADD1B2" rx="11" ry="11" style="stroke:#A80036;stroke-width:1.0;"/><path d="M709.9688,309.6406 Q709.3906,309.9375 708.75,310.0781 Q708.1094,310.2344 707.4063,310.2344 Q704.9063,310.2344 703.5781,308.5938 Q702.2656,306.9375 702.2656,303.8125 Q702.2656,300.6875 703.5781,299.0313 Q704.9063,297.375 707.4063,297.375 Q708.1094,297.375 708.75,297.5313 Q709.4063,297.6875 709.9688,297.9844 L709.9688,300.7031 Q709.3438,300.125 708.75,299.8594 Q708.1563,299.5781 707.5313,299.5781 Q706.1875,299.5781 705.5,300.6563 Q704.8125,301.7188 704.8125,303.8125 Q704.8125,305.9063 705.5,306.9844 Q706.1875,308.0469 707.5313,308.0469 Q708.1563,308.0469 708.75,307.7813 Q709.3438,307.5 709.9688,306.9219 L709.9688,309.6406 Z " fill="#000000"/><text fill="#000000" font-family="sans-serif" font-size="12" lengthAdjust="spacing" textLength="59" x="721" y="308.1543">Resource</text><!--MD5=[59b530d44ae785dc18db921986a9c15c]
class Document--><rect codeLine="312" fill="#FFFFFF" filter="url(#f1o3dup33gl4vh)" height="65.6094" id="Document" style="stroke:#A80036;stroke-width:1.5;" width="148" x="355.5" y="271"/><ellipse cx="393.9" cy="287" fill="#ADD1B2" rx="11" ry="11" style="stroke:#A80036;stroke-width:1.0;"/><path d="M396.8688,292.6406 Q396.2906,292.9375 395.65,293.0781 Q395.0094,293.2344 394.3063,293.2344 Q391.8063,293.2344 390.4781,291.5938 Q389.1656,289.9375 389.1656,286.8125 Q389.1656,283.6875 390.4781,282.0313 Q391.8063,280.375 394.3063,280.375 Q395.0094,280.375 395.65,280.5313 Q396.3063,280.6875 396.8688,280.9844 L396.8688,283.7031 Q396.2438,283.125 395.65,282.8594 Q395.0563,282.5781 394.4313,282.5781 Q393.0875,282.5781 392.4,283.6563 Q391.7125,284.7188 391.7125,286.8125 Q391.7125,288.9063 392.4,289.9844 Q393.0875,291.0469 394.4313,291.0469 Q395.0563,291.0469 395.65,290.7813 Q396.2438,290.5 396.8688,289.9219 L396.8688,292.6406 Z " fill="#000000"/><text fill="#000000" font-family="sans-serif" font-size="12" lengthAdjust="spacing" textLength="64" x="413.1" y="291.1543">Document</text><line style="stroke:#A80036;stroke-width:1.5;" x1="356.5" x2="502.5" y1="303" y2="303"/><text fill="#000000" font-family="sans-serif" font-size="11" lengthAdjust="spacing" textLength="136" x="361.5" y="317.2104">title : Multilingual_String</text><text fill="#000000" font-family="sans-serif" font-size="11" lengthAdjust="spacing" textLength="125" x="361.5" y="330.0151">publicationDate : Date</text><!--MD5=[9d44916250b776386006c440668bcfbb]
class Agent--><rect codeLine="10" fill="#FFFFFF" filter="url(#f1o3dup33gl4vh)" height="78.4141" id="Agent" style="stroke:#A80036;stroke-width:1.5;" width="224" x="709.5" y="7"/><ellipse cx="798.75" cy="23" fill="#ADD1B2" rx="11" ry="11" style="stroke:#A80036;stroke-width:1.0;"/><path d="M801.7188,28.6406 Q801.1406,28.9375 800.5,29.0781 Q799.8594,29.2344 799.1563,29.2344 Q796.6563,29.2344 795.3281,27.5938 Q794.0156,25.9375 794.0156,22.8125 Q794.0156,19.6875 795.3281,18.0313 Q796.6563,16.375 799.1563,16.375 Q799.8594,16.375 800.5,16.5313 Q801.1563,16.6875 801.7188,16.9844 L801.7188,19.7031 Q801.0938,19.125 800.5,18.8594 Q799.9063,18.5781 799.2813,18.5781 Q797.9375,18.5781 797.25,19.6563 Q796.5625,20.7188 796.5625,22.8125 Q796.5625,24.9063 797.25,25.9844 Q797.9375,27.0469 799.2813,27.0469 Q799.9063,27.0469 800.5,26.7813 Q801.0938,26.5 801.7188,25.9219 L801.7188,28.6406 Z " fill="#000000"/><text fill="#000000" font-family="sans-serif" font-size="12" lengthAdjust="spacing" textLength="37" x="819.25" y="27.1543">Agent</text><line style="stroke:#A80036;stroke-width:1.5;" x1="710.5" x2="932.5" y1="39" y2="39"/><text fill="#000000" font-family="sans-serif" font-size="11" lengthAdjust="spacing" textLength="207" x="715.5" y="53.2104">keywords : List&lt;Multilingual_String&gt;</text><text fill="#000000" font-family="sans-serif" font-size="11" lengthAdjust="spacing" textLength="121" x="715.5" y="66.0151">lifetime : Date_Range</text><text fill="#000000" font-family="sans-serif" font-size="11" lengthAdjust="spacing" textLength="212" x="715.5" y="78.8198">contacts : List&lt;Contact_Information&gt;</text><!--MD5=[176bc0a65f2558a2e68a39a8b34c74bb]
class Date_Range--><rect fill="#FEFECE" filter="url(#f1o3dup33gl4vh)" height="32" id="Date_Range" style="stroke:#A80036;stroke-width:1.5;" width="108" x="1119.5" y="162"/><ellipse cx="1134.5" cy="178" fill="#ADD1B2" rx="11" ry="11" style="stroke:#A80036;stroke-width:1.0;"/><path d="M1137.4688,183.6406 Q1136.8906,183.9375 1136.25,184.0781 Q1135.6094,184.2344 1134.9063,184.2344 Q1132.4063,184.2344 1131.0781,182.5938 Q1129.7656,180.9375 1129.7656,177.8125 Q1129.7656,174.6875 1131.0781,173.0313 Q1132.4063,171.375 1134.9063,171.375 Q1135.6094,171.375 1136.25,171.5313 Q1136.9063,171.6875 1137.4688,171.9844 L1137.4688,174.7031 Q1136.8438,174.125 1136.25,173.8594 Q1135.6563,173.5781 1135.0313,173.5781 Q1133.6875,173.5781 1133,174.6563 Q1132.3125,175.7188 1132.3125,177.8125 Q1132.3125,179.9063 1133,180.9844 Q1133.6875,182.0469 1135.0313,182.0469 Q1135.6563,182.0469 1136.25,181.7813 Q1136.8438,181.5 1137.4688,180.9219 L1137.4688,183.6406 Z " fill="#000000"/><text fill="#000000" font-family="sans-serif" font-size="12" lengthAdjust="spacing" textLength="76" x="1148.5" y="182.1543">Date_Range</text><!--MD5=[a0318ef586937002b2555963e2a1f4ad]
class Contact_Information--><rect fill="#FEFECE" filter="url(#f1o3dup33gl4vh)" height="32" id="Contact_Information" style="stroke:#A80036;stroke-width:1.5;" width="158" x="1262.5" y="162"/><ellipse cx="1277.5" cy="178" fill="#ADD1B2" rx="11" ry="11" style="stroke:#A80036;stroke-width:1.0;"/><path d="M1280.4688,183.6406 Q1279.8906,183.9375 1279.25,184.0781 Q1278.6094,184.2344 1277.9063,184.2344 Q1275.4063,184.2344 1274.0781,182.5938 Q1272.7656,180.9375 1272.7656,177.8125 Q1272.7656,174.6875 1274.0781,173.0313 Q1275.4063,171.375 1277.9063,171.375 Q1278.6094,171.375 1279.25,171.5313 Q1279.9063,171.6875 1280.4688,171.9844 L1280.4688,174.7031 Q1279.8438,174.125 1279.25,173.8594 Q1278.6563,173.5781 1278.0313,173.5781 Q1276.6875,173.5781 1276,174.6563 Q1275.3125,175.7188 1275.3125,177.8125 Q1275.3125,179.9063 1276,180.9844 Q1276.6875,182.0469 1278.0313,182.0469 Q1278.6563,182.0469 1279.25,181.7813 Q1279.8438,181.5 1280.4688,180.9219 L1280.4688,183.6406 Z " fill="#000000"/><text fill="#000000" font-family="sans-serif" font-size="12" lengthAdjust="spacing" textLength="126" x="1291.5" y="182.1543">Contact_Information</text><!--MD5=[a030fa97ffb865708cae79f6847e8968]
class Condition--><rect codeLine="693" fill="#FFFFFF" filter="url(#f1o3dup33gl4vh)" height="32" id="Condition" style="stroke:#A80036;stroke-width:1.5;" width="91" x="229" y="288"/><ellipse cx="244" cy="304" fill="#ADD1B2" rx="11" ry="11" style="stroke:#A80036;stroke-width:1.0;"/><path d="M246.9688,309.6406 Q246.3906,309.9375 245.75,310.0781 Q245.1094,310.2344 244.4063,310.2344 Q241.9063,310.2344 240.5781,308.5938 Q239.2656,306.9375 239.2656,303.8125 Q239.2656,300.6875 240.5781,299.0313 Q241.9063,297.375 244.4063,297.375 Q245.1094,297.375 245.75,297.5313 Q246.4063,297.6875 246.9688,297.9844 L246.9688,300.7031 Q246.3438,300.125 245.75,299.8594 Q245.1563,299.5781 244.5313,299.5781 Q243.1875,299.5781 242.5,300.6563 Q241.8125,301.7188 241.8125,303.8125 Q241.8125,305.9063 242.5,306.9844 Q243.1875,308.0469 244.5313,308.0469 Q245.1563,308.0469 245.75,307.7813 Q246.3438,307.5 246.9688,306.9219 L246.9688,309.6406 Z " fill="#000000"/><text fill="#000000" font-family="sans-serif" font-size="12" lengthAdjust="spacing" textLength="59" x="258" y="308.1543">Condition</text><!--MD5=[92dc6ef2f70a23983af4e570fc6275cd]
class Funding--><rect codeLine="272" fill="#FFFFFF" filter="url(#f1o3dup33gl4vh)" height="52.8047" id="Funding" style="stroke:#A80036;stroke-width:1.5;" width="180" x="845.5" y="398"/><ellipse cx="906.25" cy="414" fill="#ADD1B2" rx="11" ry="11" style="stroke:#A80036;stroke-width:1.0;"/><path d="M909.2188,419.6406 Q908.6406,419.9375 908,420.0781 Q907.3594,420.2344 906.6563,420.2344 Q904.1563,420.2344 902.8281,418.5938 Q901.5156,416.9375 901.5156,413.8125 Q901.5156,410.6875 902.8281,409.0313 Q904.1563,407.375 906.6563,407.375 Q907.3594,407.375 908,407.5313 Q908.6563,407.6875 909.2188,407.9844 L909.2188,410.7031 Q908.5938,410.125 908,409.8594 Q907.4063,409.5781 906.7813,409.5781 Q905.4375,409.5781 904.75,410.6563 Q904.0625,411.7188 904.0625,413.8125 Q904.0625,415.9063 904.75,416.9844 Q905.4375,418.0469 906.7813,418.0469 Q907.4063,418.0469 908,417.7813 Q908.5938,417.5 909.2188,416.9219 L909.2188,419.6406 Z " fill="#000000"/><text fill="#000000" font-family="sans-serif" font-size="12" lengthAdjust="spacing" textLength="50" x="926.75" y="418.1543">Funding</text><line style="stroke:#A80036;stroke-width:1.5;" x1="846.5" x2="1024.5" y1="430" y2="430"/><text fill="#000000" font-family="sans-serif" font-size="11" lengthAdjust="spacing" textLength="168" x="851.5" y="444.2104">amount  :   Monetary_Amount</text><!--MD5=[9db362234582fbb89ee6f48a28063aa6]
class Monetary_Amount--><rect codeLine="278" fill="#FFFFFF" filter="url(#f1o3dup33gl4vh)" height="71.5469" id="Monetary_Amount" style="stroke:#A80036;stroke-width:1.5;" width="232" x="819.5" y="512"/><ellipse cx="875.25" cy="530.9688" fill="#ADD0B2" rx="11" ry="11" style="stroke:#A80036;stroke-width:1.0;"/><path d="M874.8438,526.7813 L874.8438,534.7656 L875.5,534.7656 Q876.9375,534.7656 877.5469,533.8594 Q878.1719,532.9375 878.1719,530.7656 Q878.1719,528.5938 877.5469,527.6875 Q876.9375,526.7813 875.5,526.7813 L874.8438,526.7813 Z M872.3906,524.5781 L875.0156,524.5781 Q878.0469,524.5781 879.375,526.0313 Q880.7188,527.4688 880.7188,530.7656 Q880.7188,534.0625 879.375,535.5156 Q878.0469,536.9688 875.0156,536.9688 L872.3906,536.9688 L872.3906,524.5781 Z " fill="#000000"/><text fill="#000000" font-family="sans-serif" font-size="12" font-style="italic" lengthAdjust="spacing" textLength="74" x="914.75" y="528.1387">«DataType»</text><text fill="#000000" font-family="sans-serif" font-size="12" lengthAdjust="spacing" textLength="112" x="895.75" y="542.1074">Monetary_Amount</text><line style="stroke:#A80036;stroke-width:1.5;" x1="820.5" x2="1050.5" y1="549.9375" y2="549.9375"/><text fill="#000000" font-family="sans-serif" font-size="11" lengthAdjust="spacing" textLength="100" x="825.5" y="564.1479">amount : Decimal</text><text fill="#000000" font-family="sans-serif" font-size="11" lengthAdjust="spacing" textLength="220" x="825.5" y="576.9526">currencyCode  : ISO_4217_Alpha_Code</text><!--MD5=[c881b25adf3665c6568c9693d41a70f3]
class Activity--><rect fill="#FEFECE" filter="url(#f1o3dup33gl4vh)" height="32" id="Activity" style="stroke:#A80036;stroke-width:1.5;" width="75" x="1009" y="162"/><ellipse cx="1024" cy="178" fill="#ADD1B2" rx="11" ry="11" style="stroke:#A80036;stroke-width:1.0;"/><path d="M1026.9688,183.6406 Q1026.3906,183.9375 1025.75,184.0781 Q1025.1094,184.2344 1024.4063,184.2344 Q1021.9063,184.2344 1020.5781,182.5938 Q1019.2656,180.9375 1019.2656,177.8125 Q1019.2656,174.6875 1020.5781,173.0313 Q1021.9063,171.375 1024.4063,171.375 Q1025.1094,171.375 1025.75,171.5313 Q1026.4063,171.6875 1026.9688,171.9844 L1026.9688,174.7031 Q1026.3438,174.125 1025.75,173.8594 Q1025.1563,173.5781 1024.5313,173.5781 Q1023.1875,173.5781 1022.5,174.6563 Q1021.8125,175.7188 1021.8125,177.8125 Q1021.8125,179.9063 1022.5,180.9844 Q1023.1875,182.0469 1024.5313,182.0469 Q1025.1563,182.0469 1025.75,181.7813 Q1026.3438,181.5 1026.9688,180.9219 L1026.9688,183.6406 Z " fill="#000000"/><text fill="#000000" font-family="sans-serif" font-size="12" lengthAdjust="spacing" textLength="43" x="1038" y="182.1543">Activity</text><!--MD5=[79d378210367c0c6ec62ef762ddfbd1b]
class Project--><rect fill="#FEFECE" filter="url(#f1o3dup33gl4vh)" height="32" id="Project" style="stroke:#A80036;stroke-width:1.5;" width="76" x="897.5" y="162"/><ellipse cx="912.5" cy="178" fill="#ADD1B2" rx="11" ry="11" style="stroke:#A80036;stroke-width:1.0;"/><path d="M915.4688,183.6406 Q914.8906,183.9375 914.25,184.0781 Q913.6094,184.2344 912.9063,184.2344 Q910.4063,184.2344 909.0781,182.5938 Q907.7656,180.9375 907.7656,177.8125 Q907.7656,174.6875 909.0781,173.0313 Q910.4063,171.375 912.9063,171.375 Q913.6094,171.375 914.25,171.5313 Q914.9063,171.6875 915.4688,171.9844 L915.4688,174.7031 Q914.8438,174.125 914.25,173.8594 Q913.6563,173.5781 913.0313,173.5781 Q911.6875,173.5781 911,174.6563 Q910.3125,175.7188 910.3125,177.8125 Q910.3125,179.9063 911,180.9844 Q911.6875,182.0469 913.0313,182.0469 Q913.6563,182.0469 914.25,181.7813 Q914.8438,181.5 915.4688,180.9219 L915.4688,183.6406 Z " fill="#000000"/><text fill="#000000" font-family="sans-serif" font-size="12" lengthAdjust="spacing" textLength="44" x="926.5" y="182.1543">Project</text><!--MD5=[6ff7a5782d5ed311fa9cacd2967fdc4e]
class Funding_Application--><rect codeLine="517" fill="#FFFFFF" filter="url(#f1o3dup33gl4vh)" height="32" id="Funding_Application" style="stroke:#A80036;stroke-width:1.5;" width="157" x="511" y="408.5"/><ellipse cx="526" cy="424.5" fill="#ADD1B2" rx="11" ry="11" style="stroke:#A80036;stroke-width:1.0;"/><path d="M528.9688,430.1406 Q528.3906,430.4375 527.75,430.5781 Q527.1094,430.7344 526.4063,430.7344 Q523.9063,430.7344 522.5781,429.0938 Q521.2656,427.4375 521.2656,424.3125 Q521.2656,421.1875 522.5781,419.5313 Q523.9063,417.875 526.4063,417.875 Q527.1094,417.875 527.75,418.0313 Q528.4063,418.1875 528.9688,418.4844 L528.9688,421.2031 Q528.3438,420.625 527.75,420.3594 Q527.1563,420.0781 526.5313,420.0781 Q525.1875,420.0781 524.5,421.1563 Q523.8125,422.2188 523.8125,424.3125 Q523.8125,426.4063 524.5,427.4844 Q525.1875,428.5469 526.5313,428.5469 Q527.1563,428.5469 527.75,428.2813 Q528.3438,428 528.9688,427.4219 L528.9688,430.1406 Z " fill="#000000"/><text fill="#000000" font-family="sans-serif" font-size="12" lengthAdjust="spacing" textLength="125" x="540" y="428.6543">Funding_Application</text><!--MD5=[0db85a2d6db180b105db5ebe9e86b106]
class Call_for_Funding_Applications--><rect codeLine="531" fill="#FFFFFF" filter="url(#f1o3dup33gl4vh)" height="32" id="Call_for_Funding_Applications" style="stroke:#A80036;stroke-width:1.5;" width="215" x="7" y="408.5"/><ellipse cx="22" cy="424.5" fill="#ADD1B2" rx="11" ry="11" style="stroke:#A80036;stroke-width:1.0;"/><path d="M24.9688,430.1406 Q24.3906,430.4375 23.75,430.5781 Q23.1094,430.7344 22.4063,430.7344 Q19.9063,430.7344 18.5781,429.0938 Q17.2656,427.4375 17.2656,424.3125 Q17.2656,421.1875 18.5781,419.5313 Q19.9063,417.875 22.4063,417.875 Q23.1094,417.875 23.75,418.0313 Q24.4063,418.1875 24.9688,418.4844 L24.9688,421.2031 Q24.3438,420.625 23.75,420.3594 Q23.1563,420.0781 22.5313,420.0781 Q21.1875,420.0781 20.5,421.1563 Q19.8125,422.2188 19.8125,424.3125 Q19.8125,426.4063 20.5,427.4844 Q21.1875,428.5469 22.5313,428.5469 Q23.1563,428.5469 23.75,428.2813 Q24.3438,428 24.9688,427.4219 L24.9688,430.1406 Z " fill="#000000"/><text fill="#000000" font-family="sans-serif" font-size="12" lengthAdjust="spacing" textLength="183" x="36" y="428.6543">Call_for_Funding_Applications</text><!--MD5=[a59b92cc30ee8d24d8d720fed1533057]
link Call_for_Applications to Application--><path codeLine="577" d="M137.54,287.9 C163.4,270.89 207.28,245.17 249.5,235 C295.3,223.97 308.66,229.95 355.5,235 C430.13,243.05 449.5,246.65 520.5,271 C526.53,273.07 532.72,275.52 538.81,278.14 " fill="none" id="Call_for_Applications-Application" style="stroke:#A80036;stroke-width:1.0;"/><polygon fill="#000000" points="249.5015,232.688,258.6154,235.4061,258.4724,229.53,249.5015,232.688" style="stroke:#000000;stroke-width:1.0;"/><text fill="#000000" font-family="sans-serif" font-size="13" lengthAdjust="spacing" textLength="91" x="263.5" y="237.0669">in response to</text><text fill="#000000" font-family="sans-serif" font-size="13" lengthAdjust="spacing" textLength="24" x="117.335" y="276.8772">0..1</text><text fill="#000000" font-family="sans-serif" font-size="13" lengthAdjust="spacing" textLength="23" x="511.6321" y="269.3779">0..*</text><!--MD5=[555d991a4645b83cbfa238b562f91a92]
reverse link Resource_Offer to Call_for_Applications--><path codeLine="689" d="M311.69,186.13 C272.91,192.18 227.37,203.36 190.5,224 C162.1,239.9 137.73,269.81 124.68,287.91 " fill="none" id="Resource_Offer-backto-Call_for_Applications" style="stroke:#A80036;stroke-width:1.0;"/><polygon fill="none" points="310.79,179.19,331.56,183.38,312.71,193.06,310.79,179.19" style="stroke:#A80036;stroke-width:1.0;"/><!--MD5=[34d3520aa241427fbea18906841a2be6]
reverse link Resource_Request to Application--><path codeLine="707" d="M703,214.25 C702.43,223.51 700.38,233.1 695.5,241 C682.9,261.41 660.91,275.85 640.21,285.64 " fill="none" id="Resource_Request-backto-Application" style="stroke:#A80036;stroke-width:1.0;"/><polygon fill="none" points="696,214.45,702.29,194.21,709.99,213.95,696,214.45" style="stroke:#A80036;stroke-width:1.0;"/><!--MD5=[61da7fda2e2744fa0481a20df550fe38]
link Resource to Resource--><path codeLine="329" d="M783.02,292.48 C801.95,291.68 818,295.52 818,304 C818,312.48 801.95,316.32 783.02,315.52 " fill="none" id="Resource-Resource" style="stroke:#A80036;stroke-width:1.0;"/><polygon fill="#000000" points="822.7889,309.0619,826.1071,300.149,820.2345,299.9008,822.7889,309.0619" style="stroke:#000000;stroke-width:1.0;"/><text fill="#000000" font-family="sans-serif" font-size="13" lengthAdjust="spacing" textLength="56" x="837" y="308.5669">is part of</text><text fill="#000000" font-family="sans-serif" font-size="13" lengthAdjust="spacing" textLength="23" x="791.0384" y="286.8815">0..*</text><text fill="#000000" font-family="sans-serif" font-size="13" lengthAdjust="spacing" textLength="23" x="791.0384" y="313.1615">0..*</text><!--MD5=[392b5d5331db5043115a06bd654f787a]
link Agent to Date_Range--><path codeLine="15" d="M924.73,85.13 C992.14,110.02 1076.83,141.3 1127.98,160.19 " fill="none" id="Agent-to-Date_Range" style="stroke:#A80036;stroke-width:1.0;stroke-dasharray:7.0,7.0;"/><polygon fill="#A80036" points="1132.83,161.98,1125.7639,155.1193,1128.1373,160.2541,1123.0025,162.6276,1132.83,161.98" style="stroke:#A80036;stroke-width:1.0;"/><!--MD5=[d43df4fbdad36fd00892352d175d5460]
link Agent to Contact_Information--><path codeLine="16" d="M933.69,75.05 C1038.2,101.17 1190.41,139.23 1276.26,160.69 " fill="none" id="Agent-to-Contact_Information" style="stroke:#A80036;stroke-width:1.0;stroke-dasharray:7.0,7.0;"/><polygon fill="#A80036" points="1281.31,161.95,1273.5321,155.9081,1276.4559,160.7508,1271.6133,163.6746,1281.31,161.95" style="stroke:#A80036;stroke-width:1.0;"/><text fill="#000000" font-family="sans-serif" font-size="13" lengthAdjust="spacing" textLength="23" x="1233.6666" y="150.9444">0..*</text><!--MD5=[99eb79a5f2da6a3539a2315dc6fc09c9]
reverse link Agent to Resource_Offer--><path codeLine="569" d="M704.48,82.71 C619.16,108.75 507.85,142.71 444.78,161.96 " fill="none" id="Agent-backto-Resource_Offer" style="stroke:#A80036;stroke-width:1.0;"/><polygon fill="#A80036" points="709.29,81.24,699.5141,80.0431,704.508,82.7004,701.8507,87.6942,709.29,81.24" style="stroke:#A80036;stroke-width:1.0;"/><text fill="#000000" font-family="sans-serif" font-size="13" lengthAdjust="spacing" textLength="71" x="630.6737" y="79.73">solicited by</text><!--MD5=[d43c569b2c93336ab3caeea3dfd29687]
link Resource_Offer to Resource--><path codeLine="685" d="M459.01,183.76 C507.15,189.12 574.07,200.41 628.5,224 C662.88,238.9 696.94,266.12 717.61,284.38 " fill="none" id="Resource_Offer-to-Resource" style="stroke:#A80036;stroke-width:1.0;"/><polygon fill="#A80036" points="721.56,287.91,717.5099,278.9324,717.8301,284.5802,712.1823,284.9003,721.56,287.91" style="stroke:#A80036;stroke-width:1.0;"/><polygon fill="#000000" points="668.1597,234.3795,660.7959,228.3607,658.6645,233.8385,668.1597,234.3795" style="stroke:#000000;stroke-width:1.0;"/><text fill="#000000" font-family="sans-serif" font-size="13" lengthAdjust="spacing" textLength="12" x="672.5" y="237.0669">of</text><text fill="#000000" font-family="sans-serif" font-size="13" lengthAdjust="spacing" textLength="23" x="467.2142" y="180.6438">0..*</text><text fill="#000000" font-family="sans-serif" font-size="13" lengthAdjust="spacing" textLength="23" x="689.1275" y="276.8907">1..*</text><!--MD5=[70b48935e489e5910f3d4342ebe97e3f]
reverse link Resource_Offer to Condition--><path codeLine="698" d="M318.69,187.27 C271.76,194.09 218.03,205.67 203.5,224 C185.11,247.19 217.69,272.36 244.55,287.9 " fill="none" id="Resource_Offer-backto-Condition" style="stroke:#A80036;stroke-width:1.0;"/><polygon fill="#FFFFFF" points="331.71,185.47,325.2177,182.3315,319.8236,187.1172,326.3159,190.2557,331.71,185.47" style="stroke:#A80036;stroke-width:1.0;"/><polygon fill="#000000" points="205.5342,236.5918,213.2655,231.053,208.5333,227.5665,205.5342,236.5918" style="stroke:#000000;stroke-width:1.0;"/><text fill="#000000" font-family="sans-serif" font-size="13" lengthAdjust="spacing" textLength="23" x="217.5" y="237.0669">has</text><text fill="#000000" font-family="sans-serif" font-size="13" lengthAdjust="spacing" textLength="23" x="207.3016" y="276.8772">0..*</text><!--MD5=[de101208c945d7bf9a03e03cc38155cf]
reverse link Resource_Offer to Document--><path codeLine="711" d="M390.44,207.1 C389.46,217.87 389.51,230.16 392.5,241 C395.33,251.27 400.36,261.56 405.82,270.72 " fill="none" id="Resource_Offer-backto-Document" style="stroke:#A80036;stroke-width:1.0;"/><polygon fill="#FFFFFF" points="392.17,194.07,387.4137,199.4901,390.5875,205.9652,395.3438,200.5451,392.17,194.07" style="stroke:#A80036;stroke-width:1.0;"/><polygon fill="#000000" points="398.6749,237.4264,399.4061,227.944,393.6929,229.3252,398.6749,237.4264" style="stroke:#000000;stroke-width:1.0;"/><text fill="#000000" font-family="sans-serif" font-size="13" lengthAdjust="spacing" textLength="81" x="406.5" y="237.0669">described by</text><text fill="#000000" font-family="sans-serif" font-size="13" lengthAdjust="spacing" textLength="24" x="363.0919" y="213.9665">0..1</text><text fill="#000000" font-family="sans-serif" font-size="13" lengthAdjust="spacing" textLength="23" x="375.8939" y="259.8099">0..*</text><!--MD5=[d0526ffc0b9c4a240d429dc17209f708]
reverse link Agent to Resource_Request--><path codeLine="561" d="M808.01,90.13 C801.92,104.66 793.56,120.18 782.5,132 C770.63,144.69 754.36,154.58 739.37,161.82 " fill="none" id="Agent-backto-Resource_Request" style="stroke:#A80036;stroke-width:1.0;"/><polygon fill="#A80036" points="809.99,85.25,802.9081,92.0944,808.1158,89.8854,810.3248,95.0932,809.99,85.25" style="stroke:#A80036;stroke-width:1.0;"/><polygon fill="#000000" points="803.9579,119.9549,795.5797,124.4557,799.8253,128.5207,803.9579,119.9549" style="stroke:#000000;stroke-width:1.0;"/><text fill="#000000" font-family="sans-serif" font-size="13" lengthAdjust="spacing" textLength="62" x="809.5" y="128.0669">requester</text><text fill="#000000" font-family="sans-serif" font-size="13" lengthAdjust="spacing" textLength="24" x="781.8023" y="105.6192">0..1</text><!--MD5=[d0526ffc0b9c4a240d429dc17209f708]
reverse link Agent to Resource_Request--><path codeLine="565" d="M716.65,88.27 C707.13,95.82 698.74,104.66 692.5,115 C683.94,129.19 688.11,148.57 692.85,161.86 " fill="none" id="Agent-backto-Resource_Request-1" style="stroke:#A80036;stroke-width:1.0;"/><polygon fill="#A80036" points="720.8,85.11,711.214,87.3702,716.8189,88.1351,716.0541,93.74,720.8,85.11" style="stroke:#A80036;stroke-width:1.0;"/><polygon fill="#000000" points="699.0386,118.809,693.4589,126.5108,699.0516,128.3196,699.0386,118.809" style="stroke:#000000;stroke-width:1.0;"/><text fill="#000000" font-family="sans-serif" font-size="13" lengthAdjust="spacing" textLength="67" x="706.5" y="128.0669">addressee</text><text fill="#000000" font-family="sans-serif" font-size="13" lengthAdjust="spacing" textLength="24" x="677.4297" y="105.1638">0..1</text><!--MD5=[fc92b3bd86963d223135ad44997ca08d]
reverse link Resource_Request to Document--><path codeLine="581" d="M611.8,194.67 C584.25,201.52 554.31,211.04 528.5,224 C504.53,236.04 480.92,254.55 462.77,270.62 " fill="none" id="Resource_Request-backto-Document" style="stroke:#A80036;stroke-width:1.0;"/><polygon fill="#FFFFFF" points="624.68,191.62,617.9192,189.1116,613.0035,194.3876,619.7643,196.8959,624.68,191.62" style="stroke:#A80036;stroke-width:1.0;"/><polygon fill="#000000" points="529.0452,234.8367,538.4385,233.3482,535.7696,228.1112,529.0452,234.8367" style="stroke:#000000;stroke-width:1.0;"/><text fill="#000000" font-family="sans-serif" font-size="13" lengthAdjust="spacing" textLength="81" x="542.5" y="237.0669">described by</text><text fill="#000000" font-family="sans-serif" font-size="13" lengthAdjust="spacing" textLength="24" x="442.8246" y="259.944">0..1</text><!--MD5=[633efb3059d8abd5e23b324815a30d32]
link Resource_Request to Resource_Request--><path codeLine="715" d="M774.22,167.96 C794.01,168.54 809,171.88 809,178 C809,183.54 796.69,186.81 779.65,187.8 " fill="none" id="Resource_Request-to-Resource_Request" style="stroke:#A80036;stroke-width:1.0;"/><polygon fill="#A80036" points="774.22,188.04,783.383,191.651,779.2154,187.8259,783.0405,183.6583,774.22,188.04" style="stroke:#A80036;stroke-width:1.0;"/><polygon fill="#000000" points="814.1465,183.0643,816.8192,173.937,810.9438,174.1092,814.1465,183.0643" style="stroke:#000000;stroke-width:1.0;"/><text fill="#000000" font-family="sans-serif" font-size="13" lengthAdjust="spacing" textLength="45" x="828" y="182.5669">revises</text><text fill="#000000" font-family="sans-serif" font-size="13" lengthAdjust="spacing" textLength="23" x="781.899" y="163.4707">0..*</text><text fill="#000000" font-family="sans-serif" font-size="13" lengthAdjust="spacing" textLength="24" x="781.9435" y="185.339">0..1</text><!--MD5=[0db8103b3d861b3f1c0ae604b4b70acc]
link Resource_Request to Resource--><path codeLine="719" d="M716.59,194.36 C724.22,202.35 732.4,212.79 736.5,224 C743.44,242.98 742.72,266.28 740.86,282.64 " fill="none" id="Resource_Request-to-Resource" style="stroke:#A80036;stroke-width:1.0;"/><polygon fill="#A80036" points="740.2,287.91,745.3004,279.4847,740.829,282.9497,737.3639,278.4783,740.2,287.91" style="stroke:#A80036;stroke-width:1.0;"/><polygon fill="#000000" points="747.8254,237.3875,748.2615,227.887,742.5939,229.4451,747.8254,237.3875" style="stroke:#000000;stroke-width:1.0;"/><text fill="#000000" font-family="sans-serif" font-size="13" lengthAdjust="spacing" textLength="12" x="755.5" y="237.0669">of</text><text fill="#000000" font-family="sans-serif" font-size="13" lengthAdjust="spacing" textLength="23" x="695.3718" y="214.0534">0..*</text><text fill="#000000" font-family="sans-serif" font-size="13" lengthAdjust="spacing" textLength="23" x="745.0813" y="276.8907">1..*</text><!--MD5=[fe5a6d20c914780ef904d1216500e5bb]
link Funding to Monetary_Amount--><path codeLine="285" d="M935.5,451.27 C935.5,467.31 935.5,488.3 935.5,506.53 " fill="none" id="Funding-to-Monetary_Amount" style="stroke:#A80036;stroke-width:1.0;stroke-dasharray:7.0,7.0;"/><polygon fill="#A80036" points="935.5,511.59,939.5,502.59,935.5,506.59,931.5,502.59,935.5,511.59" style="stroke:#A80036;stroke-width:1.0;"/><!--MD5=[a21829bf9e22d7ad2257d12c520c50b2]
reverse link Resource to Funding--><path codeLine="289" d="M780.02,330.45 C813.25,350.34 859.24,377.86 892.58,397.81 " fill="none" id="Resource-backto-Funding" style="stroke:#A80036;stroke-width:1.0;"/><polygon fill="none" points="776.14,336.29,762.58,320.01,783.33,324.27,776.14,336.29" style="stroke:#A80036;stroke-width:1.0;"/><!--MD5=[ff11c2ae19cf8b0222e8ec830cb319de]
link Activity to Funding--><path codeLine="820" d="M1037.61,199.04 C1022.25,233.6 989.68,306.61 961.5,368 C957.79,376.09 953.72,384.82 949.94,392.9 " fill="none" id="Activity-Funding" style="stroke:#A80036;stroke-width:1.0;"/><polygon fill="#A80036" points="947.62,397.84,955.0685,391.3964,949.7469,393.3149,947.8284,387.9933,947.62,397.84" style="stroke:#A80036;stroke-width:1.0;"/><polygon fill="#A80036" points="1039.75,194.23,1032.4261,200.8149,1037.71,198.7949,1039.73,204.0788,1039.75,194.23" style="stroke:#A80036;stroke-width:1.0;"/><text fill="#000000" font-family="sans-serif" font-size="13" lengthAdjust="spacing" textLength="69" x="957.0859" y="214.1795">0..* covers</text><text fill="#000000" font-family="sans-serif" font-size="13" lengthAdjust="spacing" textLength="90" x="850.0165" y="387.0453">0..* funded by</text><!--MD5=[b2c19dd082d0b6980457b5ba90e9353b]
link Project to Funding--><path codeLine="821" d="M935.5,199.4 C935.5,242.36 935.5,342.33 935.5,392.96 " fill="none" id="Project-Funding" style="stroke:#A80036;stroke-width:1.0;"/><polygon fill="#A80036" points="935.5,398,939.5,389,935.5,393,931.5,389,935.5,398" style="stroke:#A80036;stroke-width:1.0;"/><polygon fill="#A80036" points="935.5,194.29,931.5,203.29,935.5,199.29,939.5,203.29,935.5,194.29" style="stroke:#A80036;stroke-width:1.0;"/><text fill="#000000" font-family="sans-serif" font-size="13" lengthAdjust="spacing" textLength="69" x="855.5031" y="213.9611">0..* covers</text><text fill="#000000" font-family="sans-serif" font-size="13" lengthAdjust="spacing" textLength="90" x="946.4688" y="386.8194">0..* funded by</text><!--MD5=[dc4598ce2d2e32aede71f5bf98c1fc33]
reverse link Application to Funding_Application--><path codeLine="522" d="M589.5,350.72 C589.5,371.13 589.5,393.8 589.5,408.33 " fill="none" id="Application-backto-Funding_Application" style="stroke:#A80036;stroke-width:1.0;"/><polygon fill="none" points="582.5,350.71,589.5,330.71,596.5,350.71,582.5,350.71" style="stroke:#A80036;stroke-width:1.0;"/><!--MD5=[ce01e496d5f2dcc88ba1226d075cb019]
reverse link Call_for_Applications to Call_for_Funding_Applications--><path codeLine="593" d="M114.5,340.15 C114.5,362.8 114.5,391.13 114.5,408.24 " fill="none" id="Call_for_Applications-backto-Call_for_Funding_Applications" style="stroke:#A80036;stroke-width:1.0;"/><polygon fill="none" points="107.5,340.01,114.5,320.01,121.5,340.01,107.5,340.01" style="stroke:#A80036;stroke-width:1.0;"/><!--MD5=[440b5ecd4901a50ade1bccc04843de5a]
@startuml

    !includesub core.puml!common
    !includesub core.puml!Call_for_Applications
    !includesub core.puml!Application
    !includesub core.puml!Resource
    !includesub core.puml!Document
    !includesub core.puml!Agent
    !includesub core.puml!Resource_Offer
    !includesub core.puml!Resource_Request
    !includesub core.puml!Condition
    !includesub core.puml!Funding
    !includesub core.puml!Funding_Application
    !includesub core.puml!Call_for_Funding_Applications

@enduml

@startuml

    hide empty members
    skinparam BoxPadding 120
    class "Call_for_Applications" #ffffff {
    }
    "Application" "0..*" -l- "0..1" "Call_for_Applications" : in response to >
	"Resource_Offer" <|- - "Call_for_Applications"
    class "Application" #ffffff {
        date : Date
    }
	"Resource_Request" <|- - "Application"
    class "Resource" #ffffff {
    }
     "Resource" "0..*" - - "0..*" "Resource" : is part of >
    class "Document" #ffffff {
        title : Multilingual_String
        publicationDate : Date
    }
    class "Agent" #ffffff {
        keywords : List<Multilingual_String>
    	lifetime : Date_Range
    	contacts : List<Contact_Information>
    }
    "Agent" ..> "Date_Range"
    "Agent" ..> "0..*" "Contact_Information"
	"Resource_Offer" -u-> "solicited by" "Agent"
	class "Resource_Offer" #ffffff {
	}
	"Resource_Offer" "0..*" - -> "1..*" "Resource" : of >
	"Resource_Offer" o- - "0..*" "Condition" : has >
	"Resource_Offer" "0..1" o- - "0..*" "Document" : described by >
    "Resource_Request" -u-> "0..1" "Agent" : requester >
    "Resource_Request" -u-> "0..1" "Agent" : addressee >
    "Resource_Request" o- - "0..1" "Document" : described by >
	class "Resource_Request" #ffffff {
	}
	"Resource_Request" "0..*" - -> "0..1" "Resource_Request" : revises >
	"Resource_Request" "0..*" - -> "1..*" "Resource" : of >
	class "Condition" #ffffff {
	}
    class "Funding" #ffffff {
        amount  :   Monetary_Amount
    }
    class Monetary_Amount << (D,#add0b2) DataType>> #ffffff {
        amount : Decimal
        currencyCode  : ISO_4217_Alpha_Code
    }
    "Funding" ..> "Monetary_Amount"
     "Resource" <|- - "Funding"
    "Activity" "0..* covers" <- - -> "0..* funded by" "Funding"
    "Project" "0..* covers" <- - -> "0..* funded by" "Funding"
    class "Funding_Application" #ffffff {
    }
    "Application" <|- - "Funding_Application"
    class "Call_for_Funding_Applications" #ffffff {
    }
    "Call_for_Applications" <|- - "Call_for_Funding_Applications"

@enduml

PlantUML version 1.2021.8(Sat Jun 26 08:20:59 UTC 2021)
(GPL source distribution)
Java Runtime: OpenJDK Runtime Environment
JVM: OpenJDK 64-Bit Server VM
Default Encoding: UTF-8
Language: en
Country: null
--></g></svg>