<?xml version="1.0" encoding="UTF-8" standalone="no"?><svg xmlns="http://www.w3.org/2000/svg" xmlns:xlink="http://www.w3.org/1999/xlink" contentScriptType="application/ecmascript" contentStyleType="text/css" height="597px" preserveAspectRatio="none" style="width:1624px;height:597px;background:#FFFFFF;" version="1.1" viewBox="0 0 1624 597" width="1624px" zoomAndPan="magnify"><defs><filter height="300%" id="f1cv9gzub68h11" width="300%" x="-1" y="-1"><feGaussianBlur result="blurOut" stdDeviation="2.0"/><feColorMatrix in="blurOut" result="blurOut2" type="matrix" values="0 0 0 0 0 0 0 0 0 0 0 0 0 0 0 0 0 0 .4 0"/><feOffset dx="4.0" dy="4.0" in="blurOut2" result="blurOut3"/><feBlend in="SourceGraphic" in2="blurOut3" mode="normal"/></filter></defs><g><!--MD5=[edcf71e28750a8856eb4372d573715ca]
class Call_for_Applications--><rect codeLine="550" fill="#FFFFFF" filter="url(#f1cv9gzub68h11)" height="32" id="Call_for_Applications" style="stroke:#A80036;stroke-width:1.5;" width="159" x="35" y="288"/><ellipse cx="50" cy="304" fill="#ADD1B2" rx="11" ry="11" style="stroke:#A80036;stroke-width:1.0;"/><path d="M52.9688,309.6406 Q52.3906,309.9375 51.75,310.0781 Q51.1094,310.2344 50.4063,310.2344 Q47.9063,310.2344 46.5781,308.5938 Q45.2656,306.9375 45.2656,303.8125 Q45.2656,300.6875 46.5781,299.0313 Q47.9063,297.375 50.4063,297.375 Q51.1094,297.375 51.75,297.5313 Q52.4063,297.6875 52.9688,297.9844 L52.9688,300.7031 Q52.3438,300.125 51.75,299.8594 Q51.1563,299.5781 50.5313,299.5781 Q49.1875,299.5781 48.5,300.6563 Q47.8125,301.7188 47.8125,303.8125 Q47.8125,305.9063 48.5,306.9844 Q49.1875,308.0469 50.5313,308.0469 Q51.1563,308.0469 51.75,307.7813 Q52.3438,307.5 52.9688,306.9219 L52.9688,309.6406 Z " fill="#000000"/><text fill="#000000" font-family="sans-serif" font-size="12" lengthAdjust="spacing" textLength="127" x="64" y="308.1543">Call_for_Applications</text><!--MD5=[0b4e4b4980470ea387cc45de9bd14b5b]
class Application--><rect codeLine="529" fill="#FFFFFF" filter="url(#f1cv9gzub68h11)" height="52.8047" id="Application" style="stroke:#A80036;stroke-width:1.5;" width="101" x="845" y="277.5"/><ellipse cx="860" cy="293.5" fill="#ADD1B2" rx="11" ry="11" style="stroke:#A80036;stroke-width:1.0;"/><path d="M862.9688,299.1406 Q862.3906,299.4375 861.75,299.5781 Q861.1094,299.7344 860.4063,299.7344 Q857.9063,299.7344 856.5781,298.0938 Q855.2656,296.4375 855.2656,293.3125 Q855.2656,290.1875 856.5781,288.5313 Q857.9063,286.875 860.4063,286.875 Q861.1094,286.875 861.75,287.0313 Q862.4063,287.1875 862.9688,287.4844 L862.9688,290.2031 Q862.3438,289.625 861.75,289.3594 Q861.1563,289.0781 860.5313,289.0781 Q859.1875,289.0781 858.5,290.1563 Q857.8125,291.2188 857.8125,293.3125 Q857.8125,295.4063 858.5,296.4844 Q859.1875,297.5469 860.5313,297.5469 Q861.1563,297.5469 861.75,297.2813 Q862.3438,297 862.9688,296.4219 L862.9688,299.1406 Z " fill="#000000"/><text fill="#000000" font-family="sans-serif" font-size="12" lengthAdjust="spacing" textLength="69" x="874" y="297.6543">Application</text><line style="stroke:#A80036;stroke-width:1.5;" x1="846" x2="945" y1="309.5" y2="309.5"/><text fill="#000000" font-family="sans-serif" font-size="11" lengthAdjust="spacing" textLength="63" x="851" y="323.7104">date : Date</text><!--MD5=[8a67874827a9dbf014cc34517ffca193]
class Resource_Offer--><rect codeLine="704" fill="#FFFFFF" filter="url(#f1cv9gzub68h11)" height="32" id="Resource_Offer" style="stroke:#A80036;stroke-width:1.5;" width="127" x="400" y="162"/><ellipse cx="415" cy="178" fill="#ADD1B2" rx="11" ry="11" style="stroke:#A80036;stroke-width:1.0;"/><path d="M417.9688,183.6406 Q417.3906,183.9375 416.75,184.0781 Q416.1094,184.2344 415.4063,184.2344 Q412.9063,184.2344 411.5781,182.5938 Q410.2656,180.9375 410.2656,177.8125 Q410.2656,174.6875 411.5781,173.0313 Q412.9063,171.375 415.4063,171.375 Q416.1094,171.375 416.75,171.5313 Q417.4063,171.6875 417.9688,171.9844 L417.9688,174.7031 Q417.3438,174.125 416.75,173.8594 Q416.1563,173.5781 415.5313,173.5781 Q414.1875,173.5781 413.5,174.6563 Q412.8125,175.7188 412.8125,177.8125 Q412.8125,179.9063 413.5,180.9844 Q414.1875,182.0469 415.5313,182.0469 Q416.1563,182.0469 416.75,181.7813 Q417.3438,181.5 417.9688,180.9219 L417.9688,183.6406 Z " fill="#000000"/><text fill="#000000" font-family="sans-serif" font-size="12" lengthAdjust="spacing" textLength="95" x="429" y="182.1543">Resource_Offer</text><!--MD5=[68c3952ebfab03c1a0449046a32d2ee2]
class Resource_Request--><rect codeLine="726" fill="#FFFFFF" filter="url(#f1cv9gzub68h11)" height="32" id="Resource_Request" style="stroke:#A80036;stroke-width:1.5;" width="149" x="815" y="162"/><ellipse cx="830" cy="178" fill="#ADD1B2" rx="11" ry="11" style="stroke:#A80036;stroke-width:1.0;"/><path d="M832.9688,183.6406 Q832.3906,183.9375 831.75,184.0781 Q831.1094,184.2344 830.4063,184.2344 Q827.9063,184.2344 826.5781,182.5938 Q825.2656,180.9375 825.2656,177.8125 Q825.2656,174.6875 826.5781,173.0313 Q827.9063,171.375 830.4063,171.375 Q831.1094,171.375 831.75,171.5313 Q832.4063,171.6875 832.9688,171.9844 L832.9688,174.7031 Q832.3438,174.125 831.75,173.8594 Q831.1563,173.5781 830.5313,173.5781 Q829.1875,173.5781 828.5,174.6563 Q827.8125,175.7188 827.8125,177.8125 Q827.8125,179.9063 828.5,180.9844 Q829.1875,182.0469 830.5313,182.0469 Q831.1563,182.0469 831.75,181.7813 Q832.3438,181.5 832.9688,180.9219 L832.9688,183.6406 Z " fill="#000000"/><text fill="#000000" font-family="sans-serif" font-size="12" lengthAdjust="spacing" textLength="117" x="844" y="182.1543">Resource_Request</text><!--MD5=[6b13f1b330d33795af281e5c1dfe1e98]
class Resource--><rect codeLine="267" fill="#FFFFFF" filter="url(#f1cv9gzub68h11)" height="32" id="Resource" style="stroke:#A80036;stroke-width:1.5;" width="91" x="981" y="288"/><ellipse cx="996" cy="304" fill="#ADD1B2" rx="11" ry="11" style="stroke:#A80036;stroke-width:1.0;"/><path d="M998.9688,309.6406 Q998.3906,309.9375 997.75,310.0781 Q997.1094,310.2344 996.4063,310.2344 Q993.9063,310.2344 992.5781,308.5938 Q991.2656,306.9375 991.2656,303.8125 Q991.2656,300.6875 992.5781,299.0313 Q993.9063,297.375 996.4063,297.375 Q997.1094,297.375 997.75,297.5313 Q998.4063,297.6875 998.9688,297.9844 L998.9688,300.7031 Q998.3438,300.125 997.75,299.8594 Q997.1563,299.5781 996.5313,299.5781 Q995.1875,299.5781 994.5,300.6563 Q993.8125,301.7188 993.8125,303.8125 Q993.8125,305.9063 994.5,306.9844 Q995.1875,308.0469 996.5313,308.0469 Q997.1563,308.0469 997.75,307.7813 Q998.3438,307.5 998.9688,306.9219 L998.9688,309.6406 Z " fill="#000000"/><text fill="#000000" font-family="sans-serif" font-size="12" lengthAdjust="spacing" textLength="59" x="1010" y="308.1543">Resource</text><!--MD5=[59b530d44ae785dc18db921986a9c15c]
class Document--><rect codeLine="312" fill="#FFFFFF" filter="url(#f1cv9gzub68h11)" height="65.6094" id="Document" style="stroke:#A80036;stroke-width:1.5;" width="148" x="355.5" y="271"/><ellipse cx="393.9" cy="287" fill="#ADD1B2" rx="11" ry="11" style="stroke:#A80036;stroke-width:1.0;"/><path d="M396.8688,292.6406 Q396.2906,292.9375 395.65,293.0781 Q395.0094,293.2344 394.3063,293.2344 Q391.8063,293.2344 390.4781,291.5938 Q389.1656,289.9375 389.1656,286.8125 Q389.1656,283.6875 390.4781,282.0313 Q391.8063,280.375 394.3063,280.375 Q395.0094,280.375 395.65,280.5313 Q396.3063,280.6875 396.8688,280.9844 L396.8688,283.7031 Q396.2438,283.125 395.65,282.8594 Q395.0563,282.5781 394.4313,282.5781 Q393.0875,282.5781 392.4,283.6563 Q391.7125,284.7188 391.7125,286.8125 Q391.7125,288.9063 392.4,289.9844 Q393.0875,291.0469 394.4313,291.0469 Q395.0563,291.0469 395.65,290.7813 Q396.2438,290.5 396.8688,289.9219 L396.8688,292.6406 Z " fill="#000000"/><text fill="#000000" font-family="sans-serif" font-size="12" lengthAdjust="spacing" textLength="64" x="413.1" y="291.1543">Document</text><line style="stroke:#A80036;stroke-width:1.5;" x1="356.5" x2="502.5" y1="303" y2="303"/><text fill="#000000" font-family="sans-serif" font-size="11" lengthAdjust="spacing" textLength="136" x="361.5" y="317.2104">title : Multilingual_String</text><text fill="#000000" font-family="sans-serif" font-size="11" lengthAdjust="spacing" textLength="125" x="361.5" y="330.0151">publicationDate : Date</text><!--MD5=[9d44916250b776386006c440668bcfbb]
class Agent--><rect codeLine="10" fill="#FFFFFF" filter="url(#f1cv9gzub68h11)" height="78.4141" id="Agent" style="stroke:#A80036;stroke-width:1.5;" width="224" x="899.5" y="7"/><ellipse cx="988.75" cy="23" fill="#ADD1B2" rx="11" ry="11" style="stroke:#A80036;stroke-width:1.0;"/><path d="M991.7188,28.6406 Q991.1406,28.9375 990.5,29.0781 Q989.8594,29.2344 989.1563,29.2344 Q986.6563,29.2344 985.3281,27.5938 Q984.0156,25.9375 984.0156,22.8125 Q984.0156,19.6875 985.3281,18.0313 Q986.6563,16.375 989.1563,16.375 Q989.8594,16.375 990.5,16.5313 Q991.1563,16.6875 991.7188,16.9844 L991.7188,19.7031 Q991.0938,19.125 990.5,18.8594 Q989.9063,18.5781 989.2813,18.5781 Q987.9375,18.5781 987.25,19.6563 Q986.5625,20.7188 986.5625,22.8125 Q986.5625,24.9063 987.25,25.9844 Q987.9375,27.0469 989.2813,27.0469 Q989.9063,27.0469 990.5,26.7813 Q991.0938,26.5 991.7188,25.9219 L991.7188,28.6406 Z " fill="#000000"/><text fill="#000000" font-family="sans-serif" font-size="12" lengthAdjust="spacing" textLength="37" x="1009.25" y="27.1543">Agent</text><line style="stroke:#A80036;stroke-width:1.5;" x1="900.5" x2="1122.5" y1="39" y2="39"/><text fill="#000000" font-family="sans-serif" font-size="11" lengthAdjust="spacing" textLength="207" x="905.5" y="53.2104">keywords : List&lt;Multilingual_String&gt;</text><text fill="#000000" font-family="sans-serif" font-size="11" lengthAdjust="spacing" textLength="121" x="905.5" y="66.0151">lifetime : Date_Range</text><text fill="#000000" font-family="sans-serif" font-size="11" lengthAdjust="spacing" textLength="212" x="905.5" y="78.8198">contacts : List&lt;Contact_Information&gt;</text><!--MD5=[176bc0a65f2558a2e68a39a8b34c74bb]
class Date_Range--><rect fill="#FEFECE" filter="url(#f1cv9gzub68h11)" height="32" id="Date_Range" style="stroke:#A80036;stroke-width:1.5;" width="108" x="1309.5" y="162"/><ellipse cx="1324.5" cy="178" fill="#ADD1B2" rx="11" ry="11" style="stroke:#A80036;stroke-width:1.0;"/><path d="M1327.4688,183.6406 Q1326.8906,183.9375 1326.25,184.0781 Q1325.6094,184.2344 1324.9063,184.2344 Q1322.4063,184.2344 1321.0781,182.5938 Q1319.7656,180.9375 1319.7656,177.8125 Q1319.7656,174.6875 1321.0781,173.0313 Q1322.4063,171.375 1324.9063,171.375 Q1325.6094,171.375 1326.25,171.5313 Q1326.9063,171.6875 1327.4688,171.9844 L1327.4688,174.7031 Q1326.8438,174.125 1326.25,173.8594 Q1325.6563,173.5781 1325.0313,173.5781 Q1323.6875,173.5781 1323,174.6563 Q1322.3125,175.7188 1322.3125,177.8125 Q1322.3125,179.9063 1323,180.9844 Q1323.6875,182.0469 1325.0313,182.0469 Q1325.6563,182.0469 1326.25,181.7813 Q1326.8438,181.5 1327.4688,180.9219 L1327.4688,183.6406 Z " fill="#000000"/><text fill="#000000" font-family="sans-serif" font-size="12" lengthAdjust="spacing" textLength="76" x="1338.5" y="182.1543">Date_Range</text><!--MD5=[a0318ef586937002b2555963e2a1f4ad]
class Contact_Information--><rect fill="#FEFECE" filter="url(#f1cv9gzub68h11)" height="32" id="Contact_Information" style="stroke:#A80036;stroke-width:1.5;" width="158" x="1452.5" y="162"/><ellipse cx="1467.5" cy="178" fill="#ADD1B2" rx="11" ry="11" style="stroke:#A80036;stroke-width:1.0;"/><path d="M1470.4688,183.6406 Q1469.8906,183.9375 1469.25,184.0781 Q1468.6094,184.2344 1467.9063,184.2344 Q1465.4063,184.2344 1464.0781,182.5938 Q1462.7656,180.9375 1462.7656,177.8125 Q1462.7656,174.6875 1464.0781,173.0313 Q1465.4063,171.375 1467.9063,171.375 Q1468.6094,171.375 1469.25,171.5313 Q1469.9063,171.6875 1470.4688,171.9844 L1470.4688,174.7031 Q1469.8438,174.125 1469.25,173.8594 Q1468.6563,173.5781 1468.0313,173.5781 Q1466.6875,173.5781 1466,174.6563 Q1465.3125,175.7188 1465.3125,177.8125 Q1465.3125,179.9063 1466,180.9844 Q1466.6875,182.0469 1468.0313,182.0469 Q1468.6563,182.0469 1469.25,181.7813 Q1469.8438,181.5 1470.4688,180.9219 L1470.4688,183.6406 Z " fill="#000000"/><text fill="#000000" font-family="sans-serif" font-size="12" lengthAdjust="spacing" textLength="126" x="1481.5" y="182.1543">Contact_Information</text><!--MD5=[a030fa97ffb865708cae79f6847e8968]
class Condition--><rect codeLine="717" fill="#FFFFFF" filter="url(#f1cv9gzub68h11)" height="32" id="Condition" style="stroke:#A80036;stroke-width:1.5;" width="91" x="229" y="288"/><ellipse cx="244" cy="304" fill="#ADD1B2" rx="11" ry="11" style="stroke:#A80036;stroke-width:1.0;"/><path d="M246.9688,309.6406 Q246.3906,309.9375 245.75,310.0781 Q245.1094,310.2344 244.4063,310.2344 Q241.9063,310.2344 240.5781,308.5938 Q239.2656,306.9375 239.2656,303.8125 Q239.2656,300.6875 240.5781,299.0313 Q241.9063,297.375 244.4063,297.375 Q245.1094,297.375 245.75,297.5313 Q246.4063,297.6875 246.9688,297.9844 L246.9688,300.7031 Q246.3438,300.125 245.75,299.8594 Q245.1563,299.5781 244.5313,299.5781 Q243.1875,299.5781 242.5,300.6563 Q241.8125,301.7188 241.8125,303.8125 Q241.8125,305.9063 242.5,306.9844 Q243.1875,308.0469 244.5313,308.0469 Q245.1563,308.0469 245.75,307.7813 Q246.3438,307.5 246.9688,306.9219 L246.9688,309.6406 Z " fill="#000000"/><text fill="#000000" font-family="sans-serif" font-size="12" lengthAdjust="spacing" textLength="59" x="258" y="308.1543">Condition</text><!--MD5=[92dc6ef2f70a23983af4e570fc6275cd]
class Funding--><rect codeLine="272" fill="#FFFFFF" filter="url(#f1cv9gzub68h11)" height="52.8047" id="Funding" style="stroke:#A80036;stroke-width:1.5;" width="180" x="1035.5" y="398"/><ellipse cx="1096.25" cy="414" fill="#ADD1B2" rx="11" ry="11" style="stroke:#A80036;stroke-width:1.0;"/><path d="M1099.2188,419.6406 Q1098.6406,419.9375 1098,420.0781 Q1097.3594,420.2344 1096.6563,420.2344 Q1094.1563,420.2344 1092.8281,418.5938 Q1091.5156,416.9375 1091.5156,413.8125 Q1091.5156,410.6875 1092.8281,409.0313 Q1094.1563,407.375 1096.6563,407.375 Q1097.3594,407.375 1098,407.5313 Q1098.6563,407.6875 1099.2188,407.9844 L1099.2188,410.7031 Q1098.5938,410.125 1098,409.8594 Q1097.4063,409.5781 1096.7813,409.5781 Q1095.4375,409.5781 1094.75,410.6563 Q1094.0625,411.7188 1094.0625,413.8125 Q1094.0625,415.9063 1094.75,416.9844 Q1095.4375,418.0469 1096.7813,418.0469 Q1097.4063,418.0469 1098,417.7813 Q1098.5938,417.5 1099.2188,416.9219 L1099.2188,419.6406 Z " fill="#000000"/><text fill="#000000" font-family="sans-serif" font-size="12" lengthAdjust="spacing" textLength="50" x="1116.75" y="418.1543">Funding</text><line style="stroke:#A80036;stroke-width:1.5;" x1="1036.5" x2="1214.5" y1="430" y2="430"/><text fill="#000000" font-family="sans-serif" font-size="11" lengthAdjust="spacing" textLength="168" x="1041.5" y="444.2104">amount  :   Monetary_Amount</text><!--MD5=[9db362234582fbb89ee6f48a28063aa6]
class Monetary_Amount--><rect codeLine="278" fill="#FFFFFF" filter="url(#f1cv9gzub68h11)" height="71.5469" id="Monetary_Amount" style="stroke:#A80036;stroke-width:1.5;" width="232" x="1009.5" y="512"/><ellipse cx="1065.25" cy="530.9688" fill="#ADD0B2" rx="11" ry="11" style="stroke:#A80036;stroke-width:1.0;"/><path d="M1064.8438,526.7813 L1064.8438,534.7656 L1065.5,534.7656 Q1066.9375,534.7656 1067.5469,533.8594 Q1068.1719,532.9375 1068.1719,530.7656 Q1068.1719,528.5938 1067.5469,527.6875 Q1066.9375,526.7813 1065.5,526.7813 L1064.8438,526.7813 Z M1062.3906,524.5781 L1065.0156,524.5781 Q1068.0469,524.5781 1069.375,526.0313 Q1070.7188,527.4688 1070.7188,530.7656 Q1070.7188,534.0625 1069.375,535.5156 Q1068.0469,536.9688 1065.0156,536.9688 L1062.3906,536.9688 L1062.3906,524.5781 Z " fill="#000000"/><text fill="#000000" font-family="sans-serif" font-size="12" font-style="italic" lengthAdjust="spacing" textLength="74" x="1104.75" y="528.1387">«DataType»</text><text fill="#000000" font-family="sans-serif" font-size="12" lengthAdjust="spacing" textLength="112" x="1085.75" y="542.1074">Monetary_Amount</text><line style="stroke:#A80036;stroke-width:1.5;" x1="1010.5" x2="1240.5" y1="549.9375" y2="549.9375"/><text fill="#000000" font-family="sans-serif" font-size="11" lengthAdjust="spacing" textLength="100" x="1015.5" y="564.1479">amount : Decimal</text><text fill="#000000" font-family="sans-serif" font-size="11" lengthAdjust="spacing" textLength="220" x="1015.5" y="576.9526">currencyCode  : ISO_4217_Alpha_Code</text><!--MD5=[c881b25adf3665c6568c9693d41a70f3]
class Activity--><rect fill="#FEFECE" filter="url(#f1cv9gzub68h11)" height="32" id="Activity" style="stroke:#A80036;stroke-width:1.5;" width="75" x="1199" y="162"/><ellipse cx="1214" cy="178" fill="#ADD1B2" rx="11" ry="11" style="stroke:#A80036;stroke-width:1.0;"/><path d="M1216.9688,183.6406 Q1216.3906,183.9375 1215.75,184.0781 Q1215.1094,184.2344 1214.4063,184.2344 Q1211.9063,184.2344 1210.5781,182.5938 Q1209.2656,180.9375 1209.2656,177.8125 Q1209.2656,174.6875 1210.5781,173.0313 Q1211.9063,171.375 1214.4063,171.375 Q1215.1094,171.375 1215.75,171.5313 Q1216.4063,171.6875 1216.9688,171.9844 L1216.9688,174.7031 Q1216.3438,174.125 1215.75,173.8594 Q1215.1563,173.5781 1214.5313,173.5781 Q1213.1875,173.5781 1212.5,174.6563 Q1211.8125,175.7188 1211.8125,177.8125 Q1211.8125,179.9063 1212.5,180.9844 Q1213.1875,182.0469 1214.5313,182.0469 Q1215.1563,182.0469 1215.75,181.7813 Q1216.3438,181.5 1216.9688,180.9219 L1216.9688,183.6406 Z " fill="#000000"/><text fill="#000000" font-family="sans-serif" font-size="12" lengthAdjust="spacing" textLength="43" x="1228" y="182.1543">Activity</text><!--MD5=[79d378210367c0c6ec62ef762ddfbd1b]
class Project--><rect fill="#FEFECE" filter="url(#f1cv9gzub68h11)" height="32" id="Project" style="stroke:#A80036;stroke-width:1.5;" width="76" x="1087.5" y="162"/><ellipse cx="1102.5" cy="178" fill="#ADD1B2" rx="11" ry="11" style="stroke:#A80036;stroke-width:1.0;"/><path d="M1105.4688,183.6406 Q1104.8906,183.9375 1104.25,184.0781 Q1103.6094,184.2344 1102.9063,184.2344 Q1100.4063,184.2344 1099.0781,182.5938 Q1097.7656,180.9375 1097.7656,177.8125 Q1097.7656,174.6875 1099.0781,173.0313 Q1100.4063,171.375 1102.9063,171.375 Q1103.6094,171.375 1104.25,171.5313 Q1104.9063,171.6875 1105.4688,171.9844 L1105.4688,174.7031 Q1104.8438,174.125 1104.25,173.8594 Q1103.6563,173.5781 1103.0313,173.5781 Q1101.6875,173.5781 1101,174.6563 Q1100.3125,175.7188 1100.3125,177.8125 Q1100.3125,179.9063 1101,180.9844 Q1101.6875,182.0469 1103.0313,182.0469 Q1103.6563,182.0469 1104.25,181.7813 Q1104.8438,181.5 1105.4688,180.9219 L1105.4688,183.6406 Z " fill="#000000"/><text fill="#000000" font-family="sans-serif" font-size="12" lengthAdjust="spacing" textLength="44" x="1116.5" y="182.1543">Project</text><!--MD5=[6ff7a5782d5ed311fa9cacd2967fdc4e]
class Funding_Application--><rect codeLine="541" fill="#FFFFFF" filter="url(#f1cv9gzub68h11)" height="32" id="Funding_Application" style="stroke:#A80036;stroke-width:1.5;" width="157" x="817" y="408.5"/><ellipse cx="832" cy="424.5" fill="#ADD1B2" rx="11" ry="11" style="stroke:#A80036;stroke-width:1.0;"/><path d="M834.9688,430.1406 Q834.3906,430.4375 833.75,430.5781 Q833.1094,430.7344 832.4063,430.7344 Q829.9063,430.7344 828.5781,429.0938 Q827.2656,427.4375 827.2656,424.3125 Q827.2656,421.1875 828.5781,419.5313 Q829.9063,417.875 832.4063,417.875 Q833.1094,417.875 833.75,418.0313 Q834.4063,418.1875 834.9688,418.4844 L834.9688,421.2031 Q834.3438,420.625 833.75,420.3594 Q833.1563,420.0781 832.5313,420.0781 Q831.1875,420.0781 830.5,421.1563 Q829.8125,422.2188 829.8125,424.3125 Q829.8125,426.4063 830.5,427.4844 Q831.1875,428.5469 832.5313,428.5469 Q833.1563,428.5469 833.75,428.2813 Q834.3438,428 834.9688,427.4219 L834.9688,430.1406 Z " fill="#000000"/><text fill="#000000" font-family="sans-serif" font-size="12" lengthAdjust="spacing" textLength="125" x="846" y="428.6543">Funding_Application</text><!--MD5=[0db85a2d6db180b105db5ebe9e86b106]
class Call_for_Funding_Applications--><rect codeLine="555" fill="#FFFFFF" filter="url(#f1cv9gzub68h11)" height="32" id="Call_for_Funding_Applications" style="stroke:#A80036;stroke-width:1.5;" width="215" x="7" y="408.5"/><ellipse cx="22" cy="424.5" fill="#ADD1B2" rx="11" ry="11" style="stroke:#A80036;stroke-width:1.0;"/><path d="M24.9688,430.1406 Q24.3906,430.4375 23.75,430.5781 Q23.1094,430.7344 22.4063,430.7344 Q19.9063,430.7344 18.5781,429.0938 Q17.2656,427.4375 17.2656,424.3125 Q17.2656,421.1875 18.5781,419.5313 Q19.9063,417.875 22.4063,417.875 Q23.1094,417.875 23.75,418.0313 Q24.4063,418.1875 24.9688,418.4844 L24.9688,421.2031 Q24.3438,420.625 23.75,420.3594 Q23.1563,420.0781 22.5313,420.0781 Q21.1875,420.0781 20.5,421.1563 Q19.8125,422.2188 19.8125,424.3125 Q19.8125,426.4063 20.5,427.4844 Q21.1875,428.5469 22.5313,428.5469 Q23.1563,428.5469 23.75,428.2813 Q24.3438,428 24.9688,427.4219 L24.9688,430.1406 Z " fill="#000000"/><text fill="#000000" font-family="sans-serif" font-size="12" lengthAdjust="spacing" textLength="183" x="36" y="428.6543">Call_for_Funding_Applications</text><!--MD5=[a59b92cc30ee8d24d8d720fed1533057]
link Call_for_Applications to Application--><path codeLine="601" d="M149.88,287.99 C189.68,270.94 256.72,245.04 317.5,235 C453.52,212.53 704.07,237.43 826.5,271 C832.65,272.69 838.91,274.9 845.04,277.38 " fill="none" id="Call_for_Applications-Application" style="stroke:#A80036;stroke-width:1.0;"/><polygon fill="#000000" points="317.5006,232.6427,326.5895,235.4433,326.4998,229.5661,317.5006,232.6427" style="stroke:#000000;stroke-width:1.0;"/><text fill="#000000" font-family="sans-serif" font-size="13" lengthAdjust="spacing" textLength="91" x="331.5" y="237.0669">in response to</text><text fill="#000000" font-family="sans-serif" font-size="13" lengthAdjust="spacing" textLength="24" x="133.9169" y="276.9982">0..1</text><text fill="#000000" font-family="sans-serif" font-size="13" lengthAdjust="spacing" textLength="23" x="814.1014" y="270.0963">0..*</text><!--MD5=[555d991a4645b83cbfa238b562f91a92]
reverse link Resource_Offer to Call_for_Applications--><path codeLine="713" d="M379.73,191.43 C341.41,198.57 295.87,209.14 256.5,224 C211.63,240.93 163.73,270.21 136.62,287.98 " fill="none" id="Resource_Offer-backto-Call_for_Applications" style="stroke:#A80036;stroke-width:1.0;"/><polygon fill="none" points="378.7,184.5,399.61,187.91,381.14,198.29,378.7,184.5" style="stroke:#A80036;stroke-width:1.0;"/><!--MD5=[34d3520aa241427fbea18906841a2be6]
reverse link Resource_Request to Application--><path codeLine="731" d="M891.21,214.32 C892.18,234.4 893.37,259.08 894.26,277.31 " fill="none" id="Resource_Request-backto-Application" style="stroke:#A80036;stroke-width:1.0;"/><polygon fill="none" points="884.21,214.52,890.24,194.2,898.19,213.84,884.21,214.52" style="stroke:#A80036;stroke-width:1.0;"/><!--MD5=[9373bd5d5c413819ce8399fe055a7522]
link Document to Document--><path codeLine="317" d="M503.63,298.23 C523.45,298.55 538.5,300.47 538.5,304 C538.5,307.53 523.45,309.45 503.63,309.77 " fill="none" id="Document-Document" style="stroke:#A80036;stroke-width:1.0;"/><polygon fill="#000000" points="543.5807,309.0658,546.3732,299.9744,540.4962,300.0693,543.5807,309.0658" style="stroke:#000000;stroke-width:1.0;"/><text fill="#000000" font-family="sans-serif" font-size="13" lengthAdjust="spacing" textLength="56" x="557.5" y="308.5669">is part of</text><text fill="#000000" font-family="sans-serif" font-size="13" lengthAdjust="spacing" textLength="23" x="511.524" y="310.4805">0..*</text><text fill="#000000" font-family="sans-serif" font-size="13" lengthAdjust="spacing" textLength="23" x="511.524" y="323.0843">0..*</text><!--MD5=[9373bd5d5c413819ce8399fe055a7522]
link Document to Document--><path codeLine="319" d="M503.73,293.45 C559.07,290.37 619.5,293.89 619.5,304 C619.5,314.11 559.07,317.63 503.73,314.55 " fill="none" id="Document-Document-1" style="stroke:#A80036;stroke-width:1.0;"/><polygon fill="#000000" points="624.2222,309.0587,627.6592,300.1909,621.7904,299.8643,624.2222,309.0587" style="stroke:#000000;stroke-width:1.0;"/><text fill="#000000" font-family="sans-serif" font-size="13" lengthAdjust="spacing" textLength="164" x="638.5" y="308.5669">another representation of</text><text fill="#000000" font-family="sans-serif" font-size="13" lengthAdjust="spacing" textLength="23" x="511.6332" y="288.877">0..*</text><text fill="#000000" font-family="sans-serif" font-size="13" lengthAdjust="spacing" textLength="23" x="511.6332" y="328.305">0..*</text><!--MD5=[392b5d5331db5043115a06bd654f787a]
link Agent to Date_Range--><path codeLine="15" d="M1114.73,85.13 C1182.14,110.02 1266.83,141.3 1317.98,160.19 " fill="none" id="Agent-to-Date_Range" style="stroke:#A80036;stroke-width:1.0;stroke-dasharray:7.0,7.0;"/><polygon fill="#A80036" points="1322.83,161.98,1315.7639,155.1193,1318.1373,160.2541,1313.0025,162.6276,1322.83,161.98" style="stroke:#A80036;stroke-width:1.0;"/><!--MD5=[d43df4fbdad36fd00892352d175d5460]
link Agent to Contact_Information--><path codeLine="16" d="M1123.69,75.05 C1228.2,101.17 1380.41,139.23 1466.26,160.69 " fill="none" id="Agent-to-Contact_Information" style="stroke:#A80036;stroke-width:1.0;stroke-dasharray:7.0,7.0;"/><polygon fill="#A80036" points="1471.31,161.95,1463.5321,155.9081,1466.4559,160.7508,1461.6133,163.6746,1471.31,161.95" style="stroke:#A80036;stroke-width:1.0;"/><text fill="#000000" font-family="sans-serif" font-size="13" lengthAdjust="spacing" textLength="23" x="1423.6666" y="150.9444">0..*</text><!--MD5=[99eb79a5f2da6a3539a2315dc6fc09c9]
reverse link Agent to Resource_Offer--><path codeLine="593" d="M894.31,74.8 C781.93,101.46 616.51,140.7 526.87,161.97 " fill="none" id="Agent-backto-Resource_Offer" style="stroke:#A80036;stroke-width:1.0;"/><polygon fill="#A80036" points="899.28,73.62,889.5992,71.8082,894.4154,74.7755,891.4481,79.5917,899.28,73.62" style="stroke:#A80036;stroke-width:1.0;"/><text fill="#000000" font-family="sans-serif" font-size="13" lengthAdjust="spacing" textLength="71" x="820.6632" y="71.7171">solicited by</text><!--MD5=[d43c569b2c93336ab3caeea3dfd29687]
link Resource_Offer to Resource--><path codeLine="709" d="M527.17,184.09 C623.86,193.28 812.46,216.96 963.5,271 C974.42,274.91 985.86,280.29 995.96,285.53 " fill="none" id="Resource_Offer-to-Resource" style="stroke:#A80036;stroke-width:1.0;"/><polygon fill="#A80036" points="1000.49,287.92,994.3856,280.191,996.0645,285.593,990.6625,287.2719,1000.49,287.92" style="stroke:#A80036;stroke-width:1.0;"/><polygon fill="#000000" points="867.3869,233.6239,859.168,228.8385,857.9249,234.5833,867.3869,233.6239" style="stroke:#000000;stroke-width:1.0;"/><text fill="#000000" font-family="sans-serif" font-size="13" lengthAdjust="spacing" textLength="12" x="871.5" y="237.0669">of</text><text fill="#000000" font-family="sans-serif" font-size="13" lengthAdjust="spacing" textLength="23" x="534.9219" y="181.0183">0..*</text><text fill="#000000" font-family="sans-serif" font-size="13" lengthAdjust="spacing" textLength="23" x="964.5959" y="276.9041">1..*</text><!--MD5=[70b48935e489e5910f3d4342ebe97e3f]
reverse link Resource_Offer to Condition--><path codeLine="722" d="M386.69,187.27 C339.76,194.09 286.03,205.67 271.5,224 C257.18,242.07 262.94,270.45 268.6,287.82 " fill="none" id="Resource_Offer-backto-Condition" style="stroke:#A80036;stroke-width:1.0;"/><polygon fill="#FFFFFF" points="399.71,185.47,393.2177,182.3315,387.8236,187.1172,394.3159,190.2557,399.71,185.47" style="stroke:#A80036;stroke-width:1.0;"/><polygon fill="#000000" points="272.6931,235.8079,281.4852,232.1816,277.6746,227.7063,272.6931,235.8079" style="stroke:#000000;stroke-width:1.0;"/><text fill="#000000" font-family="sans-serif" font-size="13" lengthAdjust="spacing" textLength="23" x="285.5" y="237.0669">has</text><text fill="#000000" font-family="sans-serif" font-size="13" lengthAdjust="spacing" textLength="23" x="239.8362" y="277.0649">0..*</text><!--MD5=[de101208c945d7bf9a03e03cc38155cf]
reverse link Resource_Offer to Document--><path codeLine="735" d="M455.88,206.79 C450.67,225.81 443.73,251.09 438.28,270.97 " fill="none" id="Resource_Offer-backto-Document" style="stroke:#A80036;stroke-width:1.0;"/><polygon fill="#FFFFFF" points="459.33,194.2,453.8831,198.9256,456.1503,205.7711,461.5972,201.0454,459.33,194.2" style="stroke:#A80036;stroke-width:1.0;"/><polygon fill="#000000" points="455.1777,237.3884,460.4041,229.4426,454.7355,227.8881,455.1777,237.3884" style="stroke:#000000;stroke-width:1.0;"/><text fill="#000000" font-family="sans-serif" font-size="13" lengthAdjust="spacing" textLength="81" x="465.5" y="237.0669">described by</text><text fill="#000000" font-family="sans-serif" font-size="13" lengthAdjust="spacing" textLength="24" x="429.9737" y="214.1395">0..1</text><text fill="#000000" font-family="sans-serif" font-size="13" lengthAdjust="spacing" textLength="23" x="414.719" y="259.7316">0..*</text><!--MD5=[d0526ffc0b9c4a240d429dc17209f708]
reverse link Agent to Resource_Request--><path codeLine="585" d="M998.01,90.13 C991.92,104.66 983.56,120.18 972.5,132 C960.63,144.69 944.36,154.58 929.37,161.82 " fill="none" id="Agent-backto-Resource_Request" style="stroke:#A80036;stroke-width:1.0;"/><polygon fill="#A80036" points="999.99,85.25,992.9081,92.0944,998.1158,89.8854,1000.3248,95.0932,999.99,85.25" style="stroke:#A80036;stroke-width:1.0;"/><polygon fill="#000000" points="993.9579,119.9549,985.5797,124.4557,989.8253,128.5207,993.9579,119.9549" style="stroke:#000000;stroke-width:1.0;"/><text fill="#000000" font-family="sans-serif" font-size="13" lengthAdjust="spacing" textLength="62" x="999.5" y="128.0669">requester</text><text fill="#000000" font-family="sans-serif" font-size="13" lengthAdjust="spacing" textLength="24" x="971.8023" y="105.6192">0..1</text><!--MD5=[d0526ffc0b9c4a240d429dc17209f708]
reverse link Agent to Resource_Request--><path codeLine="589" d="M906.65,88.27 C897.13,95.82 888.74,104.66 882.5,115 C873.94,129.19 878.11,148.57 882.85,161.86 " fill="none" id="Agent-backto-Resource_Request-1" style="stroke:#A80036;stroke-width:1.0;"/><polygon fill="#A80036" points="910.8,85.11,901.214,87.3702,906.8189,88.1351,906.0541,93.74,910.8,85.11" style="stroke:#A80036;stroke-width:1.0;"/><polygon fill="#000000" points="889.0386,118.809,883.4589,126.5108,889.0516,128.3196,889.0386,118.809" style="stroke:#000000;stroke-width:1.0;"/><text fill="#000000" font-family="sans-serif" font-size="13" lengthAdjust="spacing" textLength="67" x="896.5" y="128.0669">addressee</text><text fill="#000000" font-family="sans-serif" font-size="13" lengthAdjust="spacing" textLength="24" x="867.4297" y="105.1638">0..1</text><!--MD5=[fc92b3bd86963d223135ad44997ca08d]
reverse link Resource_Request to Document--><path codeLine="605" d="M801.95,192.09 C756.4,199.75 700.03,210.57 650.5,224 C600.65,237.51 545.99,257.01 503.5,273.25 " fill="none" id="Resource_Request-backto-Document" style="stroke:#A80036;stroke-width:1.0;"/><polygon fill="#FFFFFF" points="814.8,189.96,808.2262,186.9961,802.9619,191.9242,809.5357,194.8882,814.8,189.96" style="stroke:#A80036;stroke-width:1.0;"/><polygon fill="#000000" points="650.6752,233.8785,660.1745,234.3409,658.6321,228.669,650.6752,233.8785" style="stroke:#000000;stroke-width:1.0;"/><text fill="#000000" font-family="sans-serif" font-size="13" lengthAdjust="spacing" textLength="81" x="664.5" y="237.0669">described by</text><text fill="#000000" font-family="sans-serif" font-size="13" lengthAdjust="spacing" textLength="24" x="511.4281" y="266.8148">0..1</text><!--MD5=[633efb3059d8abd5e23b324815a30d32]
link Resource_Request to Resource_Request--><path codeLine="739" d="M964.22,167.96 C984.01,168.54 999,171.88 999,178 C999,183.54 986.69,186.81 969.65,187.8 " fill="none" id="Resource_Request-to-Resource_Request" style="stroke:#A80036;stroke-width:1.0;"/><polygon fill="#A80036" points="964.22,188.04,973.383,191.651,969.2154,187.8259,973.0405,183.6583,964.22,188.04" style="stroke:#A80036;stroke-width:1.0;"/><polygon fill="#000000" points="1004.1465,183.0643,1006.8192,173.937,1000.9438,174.1092,1004.1465,183.0643" style="stroke:#000000;stroke-width:1.0;"/><text fill="#000000" font-family="sans-serif" font-size="13" lengthAdjust="spacing" textLength="45" x="1018" y="182.5669">revises</text><text fill="#000000" font-family="sans-serif" font-size="13" lengthAdjust="spacing" textLength="23" x="971.899" y="163.4707">0..*</text><text fill="#000000" font-family="sans-serif" font-size="13" lengthAdjust="spacing" textLength="24" x="971.9435" y="185.339">0..1</text><!--MD5=[0db8103b3d861b3f1c0ae604b4b70acc]
link Resource_Request to Resource--><path codeLine="743" d="M906.3,194.2 C931.36,216.89 978.5,259.55 1005.7,284.17 " fill="none" id="Resource_Request-to-Resource" style="stroke:#A80036;stroke-width:1.0;"/><polygon fill="#A80036" points="1009.56,287.67,1005.5826,278.66,1005.8571,284.3102,1000.2069,284.5847,1009.56,287.67" style="stroke:#A80036;stroke-width:1.0;"/><polygon fill="#000000" points="967.207,235.9217,962.4732,227.673,958.5288,232.0308,967.207,235.9217" style="stroke:#000000;stroke-width:1.0;"/><text fill="#000000" font-family="sans-serif" font-size="13" lengthAdjust="spacing" textLength="12" x="972.5" y="237.0669">of</text><text fill="#000000" font-family="sans-serif" font-size="13" lengthAdjust="spacing" textLength="23" x="885.0556" y="214.1395">0..*</text><text fill="#000000" font-family="sans-serif" font-size="13" lengthAdjust="spacing" textLength="23" x="1007.758" y="276.8652">1..*</text><!--MD5=[fe5a6d20c914780ef904d1216500e5bb]
link Funding to Monetary_Amount--><path codeLine="285" d="M1125.5,451.27 C1125.5,467.31 1125.5,488.3 1125.5,506.53 " fill="none" id="Funding-to-Monetary_Amount" style="stroke:#A80036;stroke-width:1.0;stroke-dasharray:7.0,7.0;"/><polygon fill="#A80036" points="1125.5,511.59,1129.5,502.59,1125.5,506.59,1121.5,502.59,1125.5,511.59" style="stroke:#A80036;stroke-width:1.0;"/><!--MD5=[a21829bf9e22d7ad2257d12c520c50b2]
reverse link Resource to Funding--><path codeLine="289" d="M1052.06,335.6 C1068.18,354.89 1088.77,379.53 1104.04,397.81 " fill="none" id="Resource-backto-Funding" style="stroke:#A80036;stroke-width:1.0;"/><polygon fill="none" points="1046.49,339.84,1039.04,320.01,1057.23,330.87,1046.49,339.84" style="stroke:#A80036;stroke-width:1.0;"/><!--MD5=[7072accdc040e53c8442e4ca7ea58660]
link Funding to Funding--><path codeLine="353" d="M1215.67,414.27 C1235.81,415.21 1250.5,418.62 1250.5,424.5 C1250.5,430.38 1235.81,433.79 1215.67,434.73 " fill="none" id="Funding-Funding" style="stroke:#A80036;stroke-width:1.0;"/><polygon fill="#000000" points="1255.7331,429.561,1258.2471,420.3887,1252.3757,420.6627,1255.7331,429.561" style="stroke:#000000;stroke-width:1.0;"/><text fill="#000000" font-family="sans-serif" font-size="13" lengthAdjust="spacing" textLength="56" x="1269.5" y="429.0669">is part of</text><text fill="#000000" font-family="sans-serif" font-size="13" lengthAdjust="spacing" textLength="23" x="1223.4541" y="409.992">0..*</text><text fill="#000000" font-family="sans-serif" font-size="13" lengthAdjust="spacing" textLength="23" x="1223.4541" y="432.0185">0..*</text><!--MD5=[ff11c2ae19cf8b0222e8ec830cb319de]
link Activity to Funding--><path codeLine="844" d="M1227.61,199.04 C1212.25,233.6 1179.68,306.61 1151.5,368 C1147.79,376.09 1143.72,384.82 1139.94,392.9 " fill="none" id="Activity-Funding" style="stroke:#A80036;stroke-width:1.0;"/><polygon fill="#A80036" points="1137.62,397.84,1145.0685,391.3964,1139.7469,393.3149,1137.8284,387.9933,1137.62,397.84" style="stroke:#A80036;stroke-width:1.0;"/><polygon fill="#A80036" points="1229.75,194.23,1222.4261,200.8149,1227.71,198.7949,1229.73,204.0788,1229.75,194.23" style="stroke:#A80036;stroke-width:1.0;"/><text fill="#000000" font-family="sans-serif" font-size="13" lengthAdjust="spacing" textLength="69" x="1147.0859" y="214.1795">0..* covers</text><text fill="#000000" font-family="sans-serif" font-size="13" lengthAdjust="spacing" textLength="90" x="1040.0165" y="387.0453">0..* funded by</text><!--MD5=[b2c19dd082d0b6980457b5ba90e9353b]
link Project to Funding--><path codeLine="845" d="M1125.5,199.4 C1125.5,242.36 1125.5,342.33 1125.5,392.96 " fill="none" id="Project-Funding" style="stroke:#A80036;stroke-width:1.0;"/><polygon fill="#A80036" points="1125.5,398,1129.5,389,1125.5,393,1121.5,389,1125.5,398" style="stroke:#A80036;stroke-width:1.0;"/><polygon fill="#A80036" points="1125.5,194.29,1121.5,203.29,1125.5,199.29,1129.5,203.29,1125.5,194.29" style="stroke:#A80036;stroke-width:1.0;"/><text fill="#000000" font-family="sans-serif" font-size="13" lengthAdjust="spacing" textLength="69" x="1045.5031" y="213.9611">0..* covers</text><text fill="#000000" font-family="sans-serif" font-size="13" lengthAdjust="spacing" textLength="90" x="1136.4688" y="386.8194">0..* funded by</text><!--MD5=[dc4598ce2d2e32aede71f5bf98c1fc33]
reverse link Application to Funding_Application--><path codeLine="546" d="M895.5,350.72 C895.5,371.13 895.5,393.8 895.5,408.33 " fill="none" id="Application-backto-Funding_Application" style="stroke:#A80036;stroke-width:1.0;"/><polygon fill="none" points="888.5,350.71,895.5,330.71,902.5,350.71,888.5,350.71" style="stroke:#A80036;stroke-width:1.0;"/><!--MD5=[ce01e496d5f2dcc88ba1226d075cb019]
reverse link Call_for_Applications to Call_for_Funding_Applications--><path codeLine="617" d="M114.5,340.15 C114.5,362.8 114.5,391.13 114.5,408.24 " fill="none" id="Call_for_Applications-backto-Call_for_Funding_Applications" style="stroke:#A80036;stroke-width:1.0;"/><polygon fill="none" points="107.5,340.01,114.5,320.01,121.5,340.01,107.5,340.01" style="stroke:#A80036;stroke-width:1.0;"/><!--MD5=[386e8d1e4ef5d63016eb7c28e8ebc82e]
@startuml

    !includesub core.puml!common
    !includesub core.puml!Call_for_Applications
    !includesub core.puml!Application
    !includesub core.puml!Resource
    !includesub core.puml!Document
    !includesub core.puml!Agent
    !includesub core.puml!Resource_Offer
    !includesub core.puml!Resource_Request
    !includesub core.puml!Condition
    !includesub core.puml!Funding
    !includesub core.puml!Funding_Application
    !includesub core.puml!Call_for_Funding_Applications

@enduml

@startuml

    hide empty members
    skinparam BoxPadding 120
    class "Call_for_Applications" #ffffff {
    }
    "Application" "0..*" -l- "0..1" "Call_for_Applications" : in response to >
	"Resource_Offer" <|- - "Call_for_Applications"
    class "Application" #ffffff {
        date : Date
    }
	"Resource_Request" <|- - "Application"
    class "Resource" #ffffff {
    }
    class "Document" #ffffff {
        title : Multilingual_String
        publicationDate : Date
    }

    "Document" "0..*" - - "0..*" "Document" : is part of >

    "Document" "0..*" - - "0..*" "Document" : another representation of >

    class "Agent" #ffffff {
        keywords : List<Multilingual_String>
    	lifetime : Date_Range
    	contacts : List<Contact_Information>
    }
    "Agent" ..> "Date_Range"
    "Agent" ..> "0..*" "Contact_Information"
	"Resource_Offer" -u-> "solicited by" "Agent"
	class "Resource_Offer" #ffffff {
	}
	"Resource_Offer" "0..*" - -> "1..*" "Resource" : of >
	"Resource_Offer" o- - "0..*" "Condition" : has >
	"Resource_Offer" "0..1" o- - "0..*" "Document" : described by >
    "Resource_Request" -u-> "0..1" "Agent" : requester >
    "Resource_Request" -u-> "0..1" "Agent" : addressee >
    "Resource_Request" o- - "0..1" "Document" : described by >
	class "Resource_Request" #ffffff {
	}
	"Resource_Request" "0..*" - -> "0..1" "Resource_Request" : revises >
	"Resource_Request" "0..*" - -> "1..*" "Resource" : of >
	class "Condition" #ffffff {
	}
    class "Funding" #ffffff {
        amount  :   Monetary_Amount
    }
    class Monetary_Amount << (D,#add0b2) DataType>> #ffffff {
        amount : Decimal
        currencyCode  : ISO_4217_Alpha_Code
    }
    "Funding" ..> "Monetary_Amount"
     "Resource" <|- - "Funding"
     "Funding" "0..*" - - "0..*" "Funding" : is part of >
    "Activity" "0..* covers" <- - -> "0..* funded by" "Funding"
    "Project" "0..* covers" <- - -> "0..* funded by" "Funding"
    class "Funding_Application" #ffffff {
    }
    "Application" <|- - "Funding_Application"
    class "Call_for_Funding_Applications" #ffffff {
    }
    "Call_for_Applications" <|- - "Call_for_Funding_Applications"

@enduml

PlantUML version 1.2021.8(Sat Jun 26 08:20:59 UTC 2021)
(GPL source distribution)
Java Runtime: OpenJDK Runtime Environment
JVM: OpenJDK 64-Bit Server VM
Default Encoding: UTF-8
Language: en
Country: null
--></g></svg>