<?xml version="1.0" encoding="UTF-8" standalone="no"?><svg xmlns="http://www.w3.org/2000/svg" xmlns:xlink="http://www.w3.org/1999/xlink" contentScriptType="application/ecmascript" contentStyleType="text/css" height="733px" preserveAspectRatio="none" style="width:1525px;height:733px;background:#FFFFFF;" version="1.1" viewBox="0 0 1525 733" width="1525px" zoomAndPan="magnify"><defs><filter height="300%" id="f1mexkecybkoos" width="300%" x="-1" y="-1"><feGaussianBlur result="blurOut" stdDeviation="2.0"/><feColorMatrix in="blurOut" result="blurOut2" type="matrix" values="0 0 0 0 0 0 0 0 0 0 0 0 0 0 0 0 0 0 .4 0"/><feOffset dx="4.0" dy="4.0" in="blurOut2" result="blurOut3"/><feBlend in="SourceGraphic" in2="blurOut3" mode="normal"/></filter></defs><g><!--MD5=[edcf71e28750a8856eb4372d573715ca]
class Call_for_Applications--><rect codeLine="566" fill="#FFFFFF" filter="url(#f1mexkecybkoos)" height="32" id="Call_for_Applications" style="stroke:#A80036;stroke-width:1.5;" width="159" x="35" y="281.5"/><ellipse cx="50" cy="297.5" fill="#ADD1B2" rx="11" ry="11" style="stroke:#A80036;stroke-width:1.0;"/><path d="M52.9688,303.1406 Q52.3906,303.4375 51.75,303.5781 Q51.1094,303.7344 50.4063,303.7344 Q47.9063,303.7344 46.5781,302.0938 Q45.2656,300.4375 45.2656,297.3125 Q45.2656,294.1875 46.5781,292.5313 Q47.9063,290.875 50.4063,290.875 Q51.1094,290.875 51.75,291.0313 Q52.4063,291.1875 52.9688,291.4844 L52.9688,294.2031 Q52.3438,293.625 51.75,293.3594 Q51.1563,293.0781 50.5313,293.0781 Q49.1875,293.0781 48.5,294.1563 Q47.8125,295.2188 47.8125,297.3125 Q47.8125,299.4063 48.5,300.4844 Q49.1875,301.5469 50.5313,301.5469 Q51.1563,301.5469 51.75,301.2813 Q52.3438,301 52.9688,300.4219 L52.9688,303.1406 Z " fill="#000000"/><text fill="#000000" font-family="sans-serif" font-size="12" lengthAdjust="spacing" textLength="127" x="64" y="301.6543">Call_for_Applications</text><!--MD5=[0b4e4b4980470ea387cc45de9bd14b5b]
class Application--><rect codeLine="545" fill="#FFFFFF" filter="url(#f1mexkecybkoos)" height="52.8047" id="Application" style="stroke:#A80036;stroke-width:1.5;" width="101" x="746" y="271"/><ellipse cx="761" cy="287" fill="#ADD1B2" rx="11" ry="11" style="stroke:#A80036;stroke-width:1.0;"/><path d="M763.9688,292.6406 Q763.3906,292.9375 762.75,293.0781 Q762.1094,293.2344 761.4063,293.2344 Q758.9063,293.2344 757.5781,291.5938 Q756.2656,289.9375 756.2656,286.8125 Q756.2656,283.6875 757.5781,282.0313 Q758.9063,280.375 761.4063,280.375 Q762.1094,280.375 762.75,280.5313 Q763.4063,280.6875 763.9688,280.9844 L763.9688,283.7031 Q763.3438,283.125 762.75,282.8594 Q762.1563,282.5781 761.5313,282.5781 Q760.1875,282.5781 759.5,283.6563 Q758.8125,284.7188 758.8125,286.8125 Q758.8125,288.9063 759.5,289.9844 Q760.1875,291.0469 761.5313,291.0469 Q762.1563,291.0469 762.75,290.7813 Q763.3438,290.5 763.9688,289.9219 L763.9688,292.6406 Z " fill="#000000"/><text fill="#000000" font-family="sans-serif" font-size="12" lengthAdjust="spacing" textLength="69" x="775" y="291.1543">Application</text><line style="stroke:#A80036;stroke-width:1.5;" x1="747" x2="846" y1="303" y2="303"/><text fill="#000000" font-family="sans-serif" font-size="11" lengthAdjust="spacing" textLength="63" x="752" y="317.2104">date : Date</text><!--MD5=[8a67874827a9dbf014cc34517ffca193]
class Resource_Offer--><rect codeLine="720" fill="#FFFFFF" filter="url(#f1mexkecybkoos)" height="32" id="Resource_Offer" style="stroke:#A80036;stroke-width:1.5;" width="127" x="400" y="162"/><ellipse cx="415" cy="178" fill="#ADD1B2" rx="11" ry="11" style="stroke:#A80036;stroke-width:1.0;"/><path d="M417.9688,183.6406 Q417.3906,183.9375 416.75,184.0781 Q416.1094,184.2344 415.4063,184.2344 Q412.9063,184.2344 411.5781,182.5938 Q410.2656,180.9375 410.2656,177.8125 Q410.2656,174.6875 411.5781,173.0313 Q412.9063,171.375 415.4063,171.375 Q416.1094,171.375 416.75,171.5313 Q417.4063,171.6875 417.9688,171.9844 L417.9688,174.7031 Q417.3438,174.125 416.75,173.8594 Q416.1563,173.5781 415.5313,173.5781 Q414.1875,173.5781 413.5,174.6563 Q412.8125,175.7188 412.8125,177.8125 Q412.8125,179.9063 413.5,180.9844 Q414.1875,182.0469 415.5313,182.0469 Q416.1563,182.0469 416.75,181.7813 Q417.3438,181.5 417.9688,180.9219 L417.9688,183.6406 Z " fill="#000000"/><text fill="#000000" font-family="sans-serif" font-size="12" lengthAdjust="spacing" textLength="95" x="429" y="182.1543">Resource_Offer</text><!--MD5=[68c3952ebfab03c1a0449046a32d2ee2]
class Resource_Request--><rect codeLine="742" fill="#FFFFFF" filter="url(#f1mexkecybkoos)" height="32" id="Resource_Request" style="stroke:#A80036;stroke-width:1.5;" width="149" x="717" y="162"/><ellipse cx="732" cy="178" fill="#ADD1B2" rx="11" ry="11" style="stroke:#A80036;stroke-width:1.0;"/><path d="M734.9688,183.6406 Q734.3906,183.9375 733.75,184.0781 Q733.1094,184.2344 732.4063,184.2344 Q729.9063,184.2344 728.5781,182.5938 Q727.2656,180.9375 727.2656,177.8125 Q727.2656,174.6875 728.5781,173.0313 Q729.9063,171.375 732.4063,171.375 Q733.1094,171.375 733.75,171.5313 Q734.4063,171.6875 734.9688,171.9844 L734.9688,174.7031 Q734.3438,174.125 733.75,173.8594 Q733.1563,173.5781 732.5313,173.5781 Q731.1875,173.5781 730.5,174.6563 Q729.8125,175.7188 729.8125,177.8125 Q729.8125,179.9063 730.5,180.9844 Q731.1875,182.0469 732.5313,182.0469 Q733.1563,182.0469 733.75,181.7813 Q734.3438,181.5 734.9688,180.9219 L734.9688,183.6406 Z " fill="#000000"/><text fill="#000000" font-family="sans-serif" font-size="12" lengthAdjust="spacing" textLength="117" x="746" y="182.1543">Resource_Request</text><!--MD5=[6b13f1b330d33795af281e5c1dfe1e98]
class Resource--><rect codeLine="267" fill="#FFFFFF" filter="url(#f1mexkecybkoos)" height="32" id="Resource" style="stroke:#A80036;stroke-width:1.5;" width="91" x="882" y="281.5"/><ellipse cx="897" cy="297.5" fill="#ADD1B2" rx="11" ry="11" style="stroke:#A80036;stroke-width:1.0;"/><path d="M899.9688,303.1406 Q899.3906,303.4375 898.75,303.5781 Q898.1094,303.7344 897.4063,303.7344 Q894.9063,303.7344 893.5781,302.0938 Q892.2656,300.4375 892.2656,297.3125 Q892.2656,294.1875 893.5781,292.5313 Q894.9063,290.875 897.4063,290.875 Q898.1094,290.875 898.75,291.0313 Q899.4063,291.1875 899.9688,291.4844 L899.9688,294.2031 Q899.3438,293.625 898.75,293.3594 Q898.1563,293.0781 897.5313,293.0781 Q896.1875,293.0781 895.5,294.1563 Q894.8125,295.2188 894.8125,297.3125 Q894.8125,299.4063 895.5,300.4844 Q896.1875,301.5469 897.5313,301.5469 Q898.1563,301.5469 898.75,301.2813 Q899.3438,301 899.9688,300.4219 L899.9688,303.1406 Z " fill="#000000"/><text fill="#000000" font-family="sans-serif" font-size="12" lengthAdjust="spacing" textLength="59" x="911" y="301.6543">Resource</text><!--MD5=[59b530d44ae785dc18db921986a9c15c]
class Document--><rect codeLine="312" fill="#FFFFFF" filter="url(#f1mexkecybkoos)" height="52.8047" id="Document" style="stroke:#A80036;stroke-width:1.5;" width="148" x="355.5" y="271"/><ellipse cx="393.9" cy="287" fill="#ADD1B2" rx="11" ry="11" style="stroke:#A80036;stroke-width:1.0;"/><path d="M396.8688,292.6406 Q396.2906,292.9375 395.65,293.0781 Q395.0094,293.2344 394.3063,293.2344 Q391.8063,293.2344 390.4781,291.5938 Q389.1656,289.9375 389.1656,286.8125 Q389.1656,283.6875 390.4781,282.0313 Q391.8063,280.375 394.3063,280.375 Q395.0094,280.375 395.65,280.5313 Q396.3063,280.6875 396.8688,280.9844 L396.8688,283.7031 Q396.2438,283.125 395.65,282.8594 Q395.0563,282.5781 394.4313,282.5781 Q393.0875,282.5781 392.4,283.6563 Q391.7125,284.7188 391.7125,286.8125 Q391.7125,288.9063 392.4,289.9844 Q393.0875,291.0469 394.4313,291.0469 Q395.0563,291.0469 395.65,290.7813 Q396.2438,290.5 396.8688,289.9219 L396.8688,292.6406 Z " fill="#000000"/><text fill="#000000" font-family="sans-serif" font-size="12" lengthAdjust="spacing" textLength="64" x="413.1" y="291.1543">Document</text><line style="stroke:#A80036;stroke-width:1.5;" x1="356.5" x2="502.5" y1="303" y2="303"/><text fill="#000000" font-family="sans-serif" font-size="11" lengthAdjust="spacing" textLength="136" x="361.5" y="317.2104">title : Multilingual_String</text><!--MD5=[fee4422b749b40b2845a4aeaf8162e8b]
class Contents_Location--><rect codeLine="324" fill="#FFFFFF" filter="url(#f1mexkecybkoos)" height="58.7422" id="Contents_Location" style="stroke:#A80036;stroke-width:1.5;" width="148" x="355.5" y="521.5"/><ellipse cx="370.5" cy="540.4688" fill="#ADD0B2" rx="11" ry="11" style="stroke:#A80036;stroke-width:1.0;"/><path d="M370.0938,536.2813 L370.0938,544.2656 L370.75,544.2656 Q372.1875,544.2656 372.7969,543.3594 Q373.4219,542.4375 373.4219,540.2656 Q373.4219,538.0938 372.7969,537.1875 Q372.1875,536.2813 370.75,536.2813 L370.0938,536.2813 Z M367.6406,534.0781 L370.2656,534.0781 Q373.2969,534.0781 374.625,535.5313 Q375.9688,536.9688 375.9688,540.2656 Q375.9688,543.5625 374.625,545.0156 Q373.2969,546.4688 370.2656,546.4688 L367.6406,546.4688 L367.6406,534.0781 Z " fill="#000000"/><text fill="#000000" font-family="sans-serif" font-size="12" font-style="italic" lengthAdjust="spacing" textLength="74" x="405.5" y="537.6387">«DataType»</text><text fill="#000000" font-family="sans-serif" font-size="12" lengthAdjust="spacing" textLength="116" x="384.5" y="551.6074">Contents_Location</text><line style="stroke:#A80036;stroke-width:1.5;" x1="356.5" x2="502.5" y1="559.4375" y2="559.4375"/><text fill="#000000" font-family="sans-serif" font-size="11" lengthAdjust="spacing" textLength="90" x="361.5" y="573.6479">number : String</text><ellipse cx="429.5" cy="427.5" fill="#000000" rx="2" ry="2" style="stroke:none;stroke-width:1.0;"/><!--MD5=[6277aac6079fb0d02802211f91f514a4]
class Page_Based_Contents_Location--><rect codeLine="328" fill="#FFFFFF" filter="url(#f1mexkecybkoos)" height="71.5469" id="Page_Based_Contents_Location" style="stroke:#A80036;stroke-width:1.5;" width="231" x="182" y="648"/><ellipse cx="197" cy="666.9688" fill="#ADD0B2" rx="11" ry="11" style="stroke:#A80036;stroke-width:1.0;"/><path d="M196.5938,662.7813 L196.5938,670.7656 L197.25,670.7656 Q198.6875,670.7656 199.2969,669.8594 Q199.9219,668.9375 199.9219,666.7656 Q199.9219,664.5938 199.2969,663.6875 Q198.6875,662.7813 197.25,662.7813 L196.5938,662.7813 Z M194.1406,660.5781 L196.7656,660.5781 Q199.7969,660.5781 201.125,662.0313 Q202.4688,663.4688 202.4688,666.7656 Q202.4688,670.0625 201.125,671.5156 Q199.7969,672.9688 196.7656,672.9688 L194.1406,672.9688 L194.1406,660.5781 Z " fill="#000000"/><text fill="#000000" font-family="sans-serif" font-size="12" font-style="italic" lengthAdjust="spacing" textLength="74" x="273.5" y="664.1387">«DataType»</text><text fill="#000000" font-family="sans-serif" font-size="12" lengthAdjust="spacing" textLength="199" x="211" y="678.1074">Page_Based_Contents_Location</text><line style="stroke:#A80036;stroke-width:1.5;" x1="183" x2="412" y1="685.9375" y2="685.9375"/><text fill="#000000" font-family="sans-serif" font-size="11" lengthAdjust="spacing" textLength="101" x="188" y="700.1479">startPage : String</text><text fill="#000000" font-family="sans-serif" font-size="11" lengthAdjust="spacing" textLength="95" x="188" y="712.9526">endPage : String</text><!--MD5=[17e2db07f912b8f86498ff5f33d59dff]
class Time_Based_Contents_Location--><rect codeLine="335" fill="#FFFFFF" filter="url(#f1mexkecybkoos)" height="71.5469" id="Time_Based_Contents_Location" style="stroke:#A80036;stroke-width:1.5;" width="228" x="448.5" y="648"/><ellipse cx="463.5" cy="666.9688" fill="#ADD0B2" rx="11" ry="11" style="stroke:#A80036;stroke-width:1.0;"/><path d="M463.0938,662.7813 L463.0938,670.7656 L463.75,670.7656 Q465.1875,670.7656 465.7969,669.8594 Q466.4219,668.9375 466.4219,666.7656 Q466.4219,664.5938 465.7969,663.6875 Q465.1875,662.7813 463.75,662.7813 L463.0938,662.7813 Z M460.6406,660.5781 L463.2656,660.5781 Q466.2969,660.5781 467.625,662.0313 Q468.9688,663.4688 468.9688,666.7656 Q468.9688,670.0625 467.625,671.5156 Q466.2969,672.9688 463.2656,672.9688 L460.6406,672.9688 L460.6406,660.5781 Z " fill="#000000"/><text fill="#000000" font-family="sans-serif" font-size="12" font-style="italic" lengthAdjust="spacing" textLength="74" x="538.5" y="664.1387">«DataType»</text><text fill="#000000" font-family="sans-serif" font-size="12" lengthAdjust="spacing" textLength="196" x="477.5" y="678.1074">Time_Based_Contents_Location</text><line style="stroke:#A80036;stroke-width:1.5;" x1="449.5" x2="675.5" y1="685.9375" y2="685.9375"/><text fill="#000000" font-family="sans-serif" font-size="11" lengthAdjust="spacing" textLength="95" x="454.5" y="700.1479">startTime : Time</text><text fill="#000000" font-family="sans-serif" font-size="11" lengthAdjust="spacing" textLength="89" x="454.5" y="712.9526">endTime : Time</text><!--MD5=[9d44916250b776386006c440668bcfbb]
class Agent--><rect codeLine="10" fill="#FFFFFF" filter="url(#f1mexkecybkoos)" height="78.4141" id="Agent" style="stroke:#A80036;stroke-width:1.5;" width="224" x="801.5" y="7"/><ellipse cx="890.75" cy="23" fill="#ADD1B2" rx="11" ry="11" style="stroke:#A80036;stroke-width:1.0;"/><path d="M893.7188,28.6406 Q893.1406,28.9375 892.5,29.0781 Q891.8594,29.2344 891.1563,29.2344 Q888.6563,29.2344 887.3281,27.5938 Q886.0156,25.9375 886.0156,22.8125 Q886.0156,19.6875 887.3281,18.0313 Q888.6563,16.375 891.1563,16.375 Q891.8594,16.375 892.5,16.5313 Q893.1563,16.6875 893.7188,16.9844 L893.7188,19.7031 Q893.0938,19.125 892.5,18.8594 Q891.9063,18.5781 891.2813,18.5781 Q889.9375,18.5781 889.25,19.6563 Q888.5625,20.7188 888.5625,22.8125 Q888.5625,24.9063 889.25,25.9844 Q889.9375,27.0469 891.2813,27.0469 Q891.9063,27.0469 892.5,26.7813 Q893.0938,26.5 893.7188,25.9219 L893.7188,28.6406 Z " fill="#000000"/><text fill="#000000" font-family="sans-serif" font-size="12" lengthAdjust="spacing" textLength="37" x="911.25" y="27.1543">Agent</text><line style="stroke:#A80036;stroke-width:1.5;" x1="802.5" x2="1024.5" y1="39" y2="39"/><text fill="#000000" font-family="sans-serif" font-size="11" lengthAdjust="spacing" textLength="207" x="807.5" y="53.2104">keywords : List&lt;Multilingual_String&gt;</text><text fill="#000000" font-family="sans-serif" font-size="11" lengthAdjust="spacing" textLength="121" x="807.5" y="66.0151">lifetime : Date_Range</text><text fill="#000000" font-family="sans-serif" font-size="11" lengthAdjust="spacing" textLength="212" x="807.5" y="78.8198">contacts : List&lt;Contact_Information&gt;</text><!--MD5=[176bc0a65f2558a2e68a39a8b34c74bb]
class Date_Range--><rect fill="#FEFECE" filter="url(#f1mexkecybkoos)" height="32" id="Date_Range" style="stroke:#A80036;stroke-width:1.5;" width="108" x="1210.5" y="162"/><ellipse cx="1225.5" cy="178" fill="#ADD1B2" rx="11" ry="11" style="stroke:#A80036;stroke-width:1.0;"/><path d="M1228.4688,183.6406 Q1227.8906,183.9375 1227.25,184.0781 Q1226.6094,184.2344 1225.9063,184.2344 Q1223.4063,184.2344 1222.0781,182.5938 Q1220.7656,180.9375 1220.7656,177.8125 Q1220.7656,174.6875 1222.0781,173.0313 Q1223.4063,171.375 1225.9063,171.375 Q1226.6094,171.375 1227.25,171.5313 Q1227.9063,171.6875 1228.4688,171.9844 L1228.4688,174.7031 Q1227.8438,174.125 1227.25,173.8594 Q1226.6563,173.5781 1226.0313,173.5781 Q1224.6875,173.5781 1224,174.6563 Q1223.3125,175.7188 1223.3125,177.8125 Q1223.3125,179.9063 1224,180.9844 Q1224.6875,182.0469 1226.0313,182.0469 Q1226.6563,182.0469 1227.25,181.7813 Q1227.8438,181.5 1228.4688,180.9219 L1228.4688,183.6406 Z " fill="#000000"/><text fill="#000000" font-family="sans-serif" font-size="12" lengthAdjust="spacing" textLength="76" x="1239.5" y="182.1543">Date_Range</text><!--MD5=[a0318ef586937002b2555963e2a1f4ad]
class Contact_Information--><rect fill="#FEFECE" filter="url(#f1mexkecybkoos)" height="32" id="Contact_Information" style="stroke:#A80036;stroke-width:1.5;" width="158" x="1353.5" y="162"/><ellipse cx="1368.5" cy="178" fill="#ADD1B2" rx="11" ry="11" style="stroke:#A80036;stroke-width:1.0;"/><path d="M1371.4688,183.6406 Q1370.8906,183.9375 1370.25,184.0781 Q1369.6094,184.2344 1368.9063,184.2344 Q1366.4063,184.2344 1365.0781,182.5938 Q1363.7656,180.9375 1363.7656,177.8125 Q1363.7656,174.6875 1365.0781,173.0313 Q1366.4063,171.375 1368.9063,171.375 Q1369.6094,171.375 1370.25,171.5313 Q1370.9063,171.6875 1371.4688,171.9844 L1371.4688,174.7031 Q1370.8438,174.125 1370.25,173.8594 Q1369.6563,173.5781 1369.0313,173.5781 Q1367.6875,173.5781 1367,174.6563 Q1366.3125,175.7188 1366.3125,177.8125 Q1366.3125,179.9063 1367,180.9844 Q1367.6875,182.0469 1369.0313,182.0469 Q1369.6563,182.0469 1370.25,181.7813 Q1370.8438,181.5 1371.4688,180.9219 L1371.4688,183.6406 Z " fill="#000000"/><text fill="#000000" font-family="sans-serif" font-size="12" lengthAdjust="spacing" textLength="126" x="1382.5" y="182.1543">Contact_Information</text><!--MD5=[a030fa97ffb865708cae79f6847e8968]
class Condition--><rect codeLine="733" fill="#FFFFFF" filter="url(#f1mexkecybkoos)" height="32" id="Condition" style="stroke:#A80036;stroke-width:1.5;" width="91" x="229" y="281.5"/><ellipse cx="244" cy="297.5" fill="#ADD1B2" rx="11" ry="11" style="stroke:#A80036;stroke-width:1.0;"/><path d="M246.9688,303.1406 Q246.3906,303.4375 245.75,303.5781 Q245.1094,303.7344 244.4063,303.7344 Q241.9063,303.7344 240.5781,302.0938 Q239.2656,300.4375 239.2656,297.3125 Q239.2656,294.1875 240.5781,292.5313 Q241.9063,290.875 244.4063,290.875 Q245.1094,290.875 245.75,291.0313 Q246.4063,291.1875 246.9688,291.4844 L246.9688,294.2031 Q246.3438,293.625 245.75,293.3594 Q245.1563,293.0781 244.5313,293.0781 Q243.1875,293.0781 242.5,294.1563 Q241.8125,295.2188 241.8125,297.3125 Q241.8125,299.4063 242.5,300.4844 Q243.1875,301.5469 244.5313,301.5469 Q245.1563,301.5469 245.75,301.2813 Q246.3438,301 246.9688,300.4219 L246.9688,303.1406 Z " fill="#000000"/><text fill="#000000" font-family="sans-serif" font-size="12" lengthAdjust="spacing" textLength="59" x="258" y="301.6543">Condition</text><!--MD5=[92dc6ef2f70a23983af4e570fc6275cd]
class Funding--><rect codeLine="272" fill="#FFFFFF" filter="url(#f1mexkecybkoos)" height="52.8047" id="Funding" style="stroke:#A80036;stroke-width:1.5;" width="180" x="936.5" y="401"/><ellipse cx="997.25" cy="417" fill="#ADD1B2" rx="11" ry="11" style="stroke:#A80036;stroke-width:1.0;"/><path d="M1000.2188,422.6406 Q999.6406,422.9375 999,423.0781 Q998.3594,423.2344 997.6563,423.2344 Q995.1563,423.2344 993.8281,421.5938 Q992.5156,419.9375 992.5156,416.8125 Q992.5156,413.6875 993.8281,412.0313 Q995.1563,410.375 997.6563,410.375 Q998.3594,410.375 999,410.5313 Q999.6563,410.6875 1000.2188,410.9844 L1000.2188,413.7031 Q999.5938,413.125 999,412.8594 Q998.4063,412.5781 997.7813,412.5781 Q996.4375,412.5781 995.75,413.6563 Q995.0625,414.7188 995.0625,416.8125 Q995.0625,418.9063 995.75,419.9844 Q996.4375,421.0469 997.7813,421.0469 Q998.4063,421.0469 999,420.7813 Q999.5938,420.5 1000.2188,419.9219 L1000.2188,422.6406 Z " fill="#000000"/><text fill="#000000" font-family="sans-serif" font-size="12" lengthAdjust="spacing" textLength="50" x="1017.75" y="421.1543">Funding</text><line style="stroke:#A80036;stroke-width:1.5;" x1="937.5" x2="1115.5" y1="433" y2="433"/><text fill="#000000" font-family="sans-serif" font-size="11" lengthAdjust="spacing" textLength="168" x="942.5" y="447.2104">amount  :   Monetary_Amount</text><!--MD5=[9db362234582fbb89ee6f48a28063aa6]
class Monetary_Amount--><rect codeLine="278" fill="#FFFFFF" filter="url(#f1mexkecybkoos)" height="71.5469" id="Monetary_Amount" style="stroke:#A80036;stroke-width:1.5;" width="232" x="910.5" y="515"/><ellipse cx="966.25" cy="533.9688" fill="#ADD0B2" rx="11" ry="11" style="stroke:#A80036;stroke-width:1.0;"/><path d="M965.8438,529.7813 L965.8438,537.7656 L966.5,537.7656 Q967.9375,537.7656 968.5469,536.8594 Q969.1719,535.9375 969.1719,533.7656 Q969.1719,531.5938 968.5469,530.6875 Q967.9375,529.7813 966.5,529.7813 L965.8438,529.7813 Z M963.3906,527.5781 L966.0156,527.5781 Q969.0469,527.5781 970.375,529.0313 Q971.7188,530.4688 971.7188,533.7656 Q971.7188,537.0625 970.375,538.5156 Q969.0469,539.9688 966.0156,539.9688 L963.3906,539.9688 L963.3906,527.5781 Z " fill="#000000"/><text fill="#000000" font-family="sans-serif" font-size="12" font-style="italic" lengthAdjust="spacing" textLength="74" x="1005.75" y="531.1387">«DataType»</text><text fill="#000000" font-family="sans-serif" font-size="12" lengthAdjust="spacing" textLength="112" x="986.75" y="545.1074">Monetary_Amount</text><line style="stroke:#A80036;stroke-width:1.5;" x1="911.5" x2="1141.5" y1="552.9375" y2="552.9375"/><text fill="#000000" font-family="sans-serif" font-size="11" lengthAdjust="spacing" textLength="100" x="916.5" y="567.1479">amount : Decimal</text><text fill="#000000" font-family="sans-serif" font-size="11" lengthAdjust="spacing" textLength="220" x="916.5" y="579.9526">currencyCode  : ISO_4217_Alpha_Code</text><!--MD5=[c881b25adf3665c6568c9693d41a70f3]
class Activity--><rect fill="#FEFECE" filter="url(#f1mexkecybkoos)" height="32" id="Activity" style="stroke:#A80036;stroke-width:1.5;" width="75" x="989" y="162"/><ellipse cx="1004" cy="178" fill="#ADD1B2" rx="11" ry="11" style="stroke:#A80036;stroke-width:1.0;"/><path d="M1006.9688,183.6406 Q1006.3906,183.9375 1005.75,184.0781 Q1005.1094,184.2344 1004.4063,184.2344 Q1001.9063,184.2344 1000.5781,182.5938 Q999.2656,180.9375 999.2656,177.8125 Q999.2656,174.6875 1000.5781,173.0313 Q1001.9063,171.375 1004.4063,171.375 Q1005.1094,171.375 1005.75,171.5313 Q1006.4063,171.6875 1006.9688,171.9844 L1006.9688,174.7031 Q1006.3438,174.125 1005.75,173.8594 Q1005.1563,173.5781 1004.5313,173.5781 Q1003.1875,173.5781 1002.5,174.6563 Q1001.8125,175.7188 1001.8125,177.8125 Q1001.8125,179.9063 1002.5,180.9844 Q1003.1875,182.0469 1004.5313,182.0469 Q1005.1563,182.0469 1005.75,181.7813 Q1006.3438,181.5 1006.9688,180.9219 L1006.9688,183.6406 Z " fill="#000000"/><text fill="#000000" font-family="sans-serif" font-size="12" lengthAdjust="spacing" textLength="43" x="1018" y="182.1543">Activity</text><!--MD5=[79d378210367c0c6ec62ef762ddfbd1b]
class Project--><rect fill="#FEFECE" filter="url(#f1mexkecybkoos)" height="32" id="Project" style="stroke:#A80036;stroke-width:1.5;" width="76" x="1099.5" y="162"/><ellipse cx="1114.5" cy="178" fill="#ADD1B2" rx="11" ry="11" style="stroke:#A80036;stroke-width:1.0;"/><path d="M1117.4688,183.6406 Q1116.8906,183.9375 1116.25,184.0781 Q1115.6094,184.2344 1114.9063,184.2344 Q1112.4063,184.2344 1111.0781,182.5938 Q1109.7656,180.9375 1109.7656,177.8125 Q1109.7656,174.6875 1111.0781,173.0313 Q1112.4063,171.375 1114.9063,171.375 Q1115.6094,171.375 1116.25,171.5313 Q1116.9063,171.6875 1117.4688,171.9844 L1117.4688,174.7031 Q1116.8438,174.125 1116.25,173.8594 Q1115.6563,173.5781 1115.0313,173.5781 Q1113.6875,173.5781 1113,174.6563 Q1112.3125,175.7188 1112.3125,177.8125 Q1112.3125,179.9063 1113,180.9844 Q1113.6875,182.0469 1115.0313,182.0469 Q1115.6563,182.0469 1116.25,181.7813 Q1116.8438,181.5 1117.4688,180.9219 L1117.4688,183.6406 Z " fill="#000000"/><text fill="#000000" font-family="sans-serif" font-size="12" lengthAdjust="spacing" textLength="44" x="1128.5" y="182.1543">Project</text><!--MD5=[6ff7a5782d5ed311fa9cacd2967fdc4e]
class Funding_Application--><rect codeLine="557" fill="#FFFFFF" filter="url(#f1mexkecybkoos)" height="32" id="Funding_Application" style="stroke:#A80036;stroke-width:1.5;" width="157" x="718" y="411.5"/><ellipse cx="733" cy="427.5" fill="#ADD1B2" rx="11" ry="11" style="stroke:#A80036;stroke-width:1.0;"/><path d="M735.9688,433.1406 Q735.3906,433.4375 734.75,433.5781 Q734.1094,433.7344 733.4063,433.7344 Q730.9063,433.7344 729.5781,432.0938 Q728.2656,430.4375 728.2656,427.3125 Q728.2656,424.1875 729.5781,422.5313 Q730.9063,420.875 733.4063,420.875 Q734.1094,420.875 734.75,421.0313 Q735.4063,421.1875 735.9688,421.4844 L735.9688,424.2031 Q735.3438,423.625 734.75,423.3594 Q734.1563,423.0781 733.5313,423.0781 Q732.1875,423.0781 731.5,424.1563 Q730.8125,425.2188 730.8125,427.3125 Q730.8125,429.4063 731.5,430.4844 Q732.1875,431.5469 733.5313,431.5469 Q734.1563,431.5469 734.75,431.2813 Q735.3438,431 735.9688,430.4219 L735.9688,433.1406 Z " fill="#000000"/><text fill="#000000" font-family="sans-serif" font-size="12" lengthAdjust="spacing" textLength="125" x="747" y="431.6543">Funding_Application</text><!--MD5=[0db85a2d6db180b105db5ebe9e86b106]
class Call_for_Funding_Applications--><rect codeLine="571" fill="#FFFFFF" filter="url(#f1mexkecybkoos)" height="32" id="Call_for_Funding_Applications" style="stroke:#A80036;stroke-width:1.5;" width="215" x="7" y="411.5"/><ellipse cx="22" cy="427.5" fill="#ADD1B2" rx="11" ry="11" style="stroke:#A80036;stroke-width:1.0;"/><path d="M24.9688,433.1406 Q24.3906,433.4375 23.75,433.5781 Q23.1094,433.7344 22.4063,433.7344 Q19.9063,433.7344 18.5781,432.0938 Q17.2656,430.4375 17.2656,427.3125 Q17.2656,424.1875 18.5781,422.5313 Q19.9063,420.875 22.4063,420.875 Q23.1094,420.875 23.75,421.0313 Q24.4063,421.1875 24.9688,421.4844 L24.9688,424.2031 Q24.3438,423.625 23.75,423.3594 Q23.1563,423.0781 22.5313,423.0781 Q21.1875,423.0781 20.5,424.1563 Q19.8125,425.2188 19.8125,427.3125 Q19.8125,429.4063 20.5,430.4844 Q21.1875,431.5469 22.5313,431.5469 Q23.1563,431.5469 23.75,431.2813 Q24.3438,431 24.9688,430.4219 L24.9688,433.1406 Z " fill="#000000"/><text fill="#000000" font-family="sans-serif" font-size="12" lengthAdjust="spacing" textLength="183" x="36" y="431.6543">Call_for_Funding_Applications</text><!--MD5=[a59b92cc30ee8d24d8d720fed1533057]
link Call_for_Applications to Application--><path codeLine="617" d="M153.34,281.47 C193.59,265.78 258.73,242.98 317.5,234 C407.93,220.19 638.73,248.91 727.5,271 C733.48,272.49 739.64,274.35 745.71,276.39 " fill="none" id="Call_for_Applications-Application" style="stroke:#A80036;stroke-width:1.0;"/><polygon fill="#000000" points="317.5002,232.6093,326.5701,235.4705,326.5197,229.5929,317.5002,232.6093" style="stroke:#000000;stroke-width:1.0;"/><text fill="#000000" font-family="sans-serif" font-size="13" lengthAdjust="spacing" textLength="91" x="331.5" y="237.0669">in response to</text><text fill="#000000" font-family="sans-serif" font-size="13" lengthAdjust="spacing" textLength="24" x="138.5663" y="270.4713">0..1</text><text fill="#000000" font-family="sans-serif" font-size="13" lengthAdjust="spacing" textLength="23" x="715.1184" y="269.99">0..*</text><!--MD5=[555d991a4645b83cbfa238b562f91a92]
reverse link Resource_Offer to Call_for_Applications--><path codeLine="729" d="M379.97,192.08 C341.69,199.35 296.13,209.84 256.5,224 C213.49,239.36 166.93,265.04 139.27,281.35 " fill="none" id="Resource_Offer-backto-Call_for_Applications" style="stroke:#A80036;stroke-width:1.0;"/><polygon fill="none" points="378.89,185.16,399.82,188.46,381.39,198.93,378.89,185.16" style="stroke:#A80036;stroke-width:1.0;"/><!--MD5=[34d3520aa241427fbea18906841a2be6]
reverse link Resource_Request to Application--><path codeLine="747" d="M793.01,214.48 C793.78,232.62 794.7,254.29 795.41,270.8 " fill="none" id="Resource_Request-backto-Application" style="stroke:#A80036;stroke-width:1.0;"/><polygon fill="none" points="786.01,214.64,792.15,194.36,800,214.05,786.01,214.64" style="stroke:#A80036;stroke-width:1.0;"/><!--MD5=[12b41f34937b048aa5a7be8b3726d56c]
link Document to apoint286--><path d="M399.23,324.22 C391.27,332.79 383.73,342.98 379.5,354 C366.78,387.11 418.18,419.75 427.93,425.58 " fill="none" id="Document-apoint286" style="stroke:#A80036;stroke-width:1.0;"/><polygon fill="#000000" points="385.8622,367.3773,386.2257,357.8737,380.5702,359.475,385.8622,367.3773" style="stroke:#000000;stroke-width:1.0;"/><text fill="#000000" font-family="sans-serif" font-size="13" lengthAdjust="spacing" textLength="56" x="393.5" y="367.0669">is part of</text><text fill="#000000" font-family="sans-serif" font-size="13" lengthAdjust="spacing" textLength="23" x="367.0928" y="343.8084">0..*</text><!--MD5=[9db9fe6da85b643ae1df6675c4a19db7]
link apoint286 to Document--><path d="M430.34,425.2 C434.12,419.28 449.53,394.14 454.5,371 C457.91,355.12 452.39,337.91 445.68,324.24 " fill="none" id="apoint286-Document" style="stroke:#A80036;stroke-width:1.0;"/><text fill="#000000" font-family="sans-serif" font-size="13" lengthAdjust="spacing" textLength="23" x="423.7038" y="343.8328">0..*</text><!--MD5=[d6293f461fe7e5a1dcee3daceadb6cbb]
link apoint286 to Contents_Location--><path d="M429.5,429.86 C429.5,438.73 429.5,488.8 429.5,521.44 " fill="none" id="apoint286-Contents_Location" style="stroke:#A80036;stroke-width:1.0;stroke-dasharray:7.0,7.0;"/><!--MD5=[9373bd5d5c413819ce8399fe055a7522]
link Document to Document--><path codeLine="319" d="M503.63,285.6 C523.45,286.25 538.5,290.22 538.5,297.5 C538.5,304.78 523.45,308.75 503.63,309.4 " fill="none" id="Document-Document" style="stroke:#A80036;stroke-width:1.0;"/><polygon fill="#000000" points="543.6639,302.5637,546.3048,293.4272,540.4301,293.6198,543.6639,302.5637" style="stroke:#000000;stroke-width:1.0;"/><text fill="#000000" font-family="sans-serif" font-size="13" lengthAdjust="spacing" textLength="164" x="557.5" y="302.0669">another representation of</text><text fill="#000000" font-family="sans-serif" font-size="13" lengthAdjust="spacing" textLength="23" x="511.524" y="280.8936">0..*</text><text fill="#000000" font-family="sans-serif" font-size="13" lengthAdjust="spacing" textLength="23" x="511.524" y="306.8876">0..*</text><!--MD5=[c828f01c119fce53bdaf0c2d95c260b5]
reverse link Contents_Location to Page_Based_Contents_Location--><path codeLine="333" d="M386.14,595.04 C368.91,612.13 349.34,631.55 332.98,647.79 " fill="none" id="Contents_Location-backto-Page_Based_Contents_Location" style="stroke:#A80036;stroke-width:1.0;"/><polygon fill="none" points="381.41,589.87,400.53,580.75,391.27,599.81,381.41,589.87" style="stroke:#A80036;stroke-width:1.0;"/><!--MD5=[8ae8bb526dca233b02b003665b13d64e]
reverse link Contents_Location to Time_Based_Contents_Location--><path codeLine="340" d="M473.19,595.04 C490.55,612.13 510.26,631.55 526.75,647.79 " fill="none" id="Contents_Location-backto-Time_Based_Contents_Location" style="stroke:#A80036;stroke-width:1.0;"/><polygon fill="none" points="468.02,599.77,458.69,580.75,477.85,589.8,468.02,599.77" style="stroke:#A80036;stroke-width:1.0;"/><!--MD5=[392b5d5331db5043115a06bd654f787a]
link Agent to Date_Range--><path codeLine="15" d="M1016.44,85.13 C1083.66,110.02 1168.11,141.3 1219.11,160.19 " fill="none" id="Agent-to-Date_Range" style="stroke:#A80036;stroke-width:1.0;stroke-dasharray:7.0,7.0;"/><polygon fill="#A80036" points="1223.94,161.98,1216.8991,155.0934,1219.2537,160.2369,1214.1101,162.5915,1223.94,161.98" style="stroke:#A80036;stroke-width:1.0;"/><!--MD5=[d43df4fbdad36fd00892352d175d5460]
link Agent to Contact_Information--><path codeLine="16" d="M1025.8,75.13 C1130.13,101.26 1281.89,139.27 1367.47,160.71 " fill="none" id="Agent-to-Contact_Information" style="stroke:#A80036;stroke-width:1.0;stroke-dasharray:7.0,7.0;"/><polygon fill="#A80036" points="1372.5,161.97,1364.7431,155.9012,1367.6501,160.754,1362.7974,163.661,1372.5,161.97" style="stroke:#A80036;stroke-width:1.0;"/><text fill="#000000" font-family="sans-serif" font-size="13" lengthAdjust="spacing" textLength="23" x="1324.9219" y="150.9713">0..*</text><!--MD5=[99eb79a5f2da6a3539a2315dc6fc09c9]
reverse link Agent to Resource_Offer--><path codeLine="609" d="M796.55,80.79 C705.65,107.04 583.91,142.22 515.62,161.94 " fill="none" id="Agent-backto-Resource_Offer" style="stroke:#A80036;stroke-width:1.0;"/><polygon fill="#A80036" points="801.4,79.39,791.6437,78.0432,796.5962,80.7768,793.8626,85.7293,801.4,79.39" style="stroke:#A80036;stroke-width:1.0;"/><text fill="#000000" font-family="sans-serif" font-size="13" lengthAdjust="spacing" textLength="71" x="722.3281" y="77.8651">solicited by</text><!--MD5=[d43c569b2c93336ab3caeea3dfd29687]
link Resource_Offer to Resource--><path codeLine="725" d="M527.02,189.15 C575.61,197.34 644.13,209.8 703.5,224 C776,241.33 794.08,246.54 864.5,271 C871.98,273.6 879.86,276.58 887.42,279.58 " fill="none" id="Resource_Offer-to-Resource" style="stroke:#A80036;stroke-width:1.0;"/><polygon fill="#A80036" points="892.09,281.44,885.2193,274.3836,887.4476,279.583,882.2481,281.8114,892.09,281.44" style="stroke:#A80036;stroke-width:1.0;"/><polygon fill="#000000" points="781.3497,233.7833,773.2918,228.7314,771.8613,234.4325,781.3497,233.7833" style="stroke:#000000;stroke-width:1.0;"/><text fill="#000000" font-family="sans-serif" font-size="13" lengthAdjust="spacing" textLength="12" x="785.5" y="237.0669">of</text><text fill="#000000" font-family="sans-serif" font-size="13" lengthAdjust="spacing" textLength="23" x="535.2253" y="186.6234">0..*</text><text fill="#000000" font-family="sans-serif" font-size="13" lengthAdjust="spacing" textLength="23" x="852.9647" y="270.431">1..*</text><!--MD5=[70b48935e489e5910f3d4342ebe97e3f]
reverse link Resource_Offer to Condition--><path codeLine="738" d="M386.69,187.27 C339.76,194.09 286.03,205.67 271.5,224 C258.67,240.19 263.51,265.39 268.64,281.41 " fill="none" id="Resource_Offer-backto-Condition" style="stroke:#A80036;stroke-width:1.0;"/><polygon fill="#FFFFFF" points="399.71,185.47,393.2177,182.3315,387.8236,187.1172,394.3159,190.2557,399.71,185.47" style="stroke:#A80036;stroke-width:1.0;"/><polygon fill="#000000" points="272.5908,235.6838,281.495,232.3421,277.8302,227.7466,272.5908,235.6838" style="stroke:#000000;stroke-width:1.0;"/><text fill="#000000" font-family="sans-serif" font-size="13" lengthAdjust="spacing" textLength="23" x="285.5" y="237.0669">has</text><text fill="#000000" font-family="sans-serif" font-size="13" lengthAdjust="spacing" textLength="23" x="239.6725" y="270.3907">0..*</text><!--MD5=[de101208c945d7bf9a03e03cc38155cf]
reverse link Resource_Offer to Document--><path codeLine="751" d="M455.43,206.9 C449.82,226.29 442.4,251.92 436.94,270.8 " fill="none" id="Resource_Offer-backto-Document" style="stroke:#A80036;stroke-width:1.0;"/><polygon fill="#FFFFFF" points="459.06,194.36,453.5494,199.0112,455.7233,205.8868,461.2339,201.2356,459.06,194.36" style="stroke:#A80036;stroke-width:1.0;"/><polygon fill="#000000" points="454.1102,237.3694,459.4475,229.4976,453.8012,227.8638,454.1102,237.3694" style="stroke:#000000;stroke-width:1.0;"/><text fill="#000000" font-family="sans-serif" font-size="13" lengthAdjust="spacing" textLength="81" x="464.5" y="237.0669">described by</text><text fill="#000000" font-family="sans-serif" font-size="13" lengthAdjust="spacing" textLength="24" x="429.8198" y="214.0534">0..1</text><text fill="#000000" font-family="sans-serif" font-size="13" lengthAdjust="spacing" textLength="23" x="413.0011" y="259.9961">0..*</text><!--MD5=[d0526ffc0b9c4a240d429dc17209f708]
reverse link Agent to Resource_Request--><path codeLine="601" d="M900.01,90.13 C893.92,104.66 885.56,120.18 874.5,132 C862.63,144.69 846.36,154.58 831.37,161.82 " fill="none" id="Agent-backto-Resource_Request" style="stroke:#A80036;stroke-width:1.0;"/><polygon fill="#A80036" points="901.99,85.25,894.9081,92.0944,900.1158,89.8854,902.3248,95.0932,901.99,85.25" style="stroke:#A80036;stroke-width:1.0;"/><polygon fill="#000000" points="895.9579,119.9549,887.5797,124.4557,891.8253,128.5207,895.9579,119.9549" style="stroke:#000000;stroke-width:1.0;"/><text fill="#000000" font-family="sans-serif" font-size="13" lengthAdjust="spacing" textLength="62" x="901.5" y="128.0669">requester</text><text fill="#000000" font-family="sans-serif" font-size="13" lengthAdjust="spacing" textLength="24" x="873.8023" y="105.6192">0..1</text><!--MD5=[d0526ffc0b9c4a240d429dc17209f708]
reverse link Agent to Resource_Request--><path codeLine="605" d="M808.65,88.27 C799.13,95.82 790.74,104.66 784.5,115 C775.94,129.19 780.11,148.57 784.85,161.86 " fill="none" id="Agent-backto-Resource_Request-1" style="stroke:#A80036;stroke-width:1.0;"/><polygon fill="#A80036" points="812.8,85.11,803.214,87.3702,808.8189,88.1351,808.0541,93.74,812.8,85.11" style="stroke:#A80036;stroke-width:1.0;"/><polygon fill="#000000" points="791.0386,118.809,785.4589,126.5108,791.0516,128.3196,791.0386,118.809" style="stroke:#000000;stroke-width:1.0;"/><text fill="#000000" font-family="sans-serif" font-size="13" lengthAdjust="spacing" textLength="67" x="798.5" y="128.0669">addressee</text><text fill="#000000" font-family="sans-serif" font-size="13" lengthAdjust="spacing" textLength="24" x="769.4297" y="105.1638">0..1</text><!--MD5=[fc92b3bd86963d223135ad44997ca08d]
reverse link Resource_Request to Document--><path codeLine="621" d="M703.72,196.95 C671.84,204.27 635.75,213.49 603.5,224 C562.89,237.23 518.47,255.81 484.67,270.85 " fill="none" id="Resource_Request-backto-Document" style="stroke:#A80036;stroke-width:1.0;"/><polygon fill="#FFFFFF" points="716.63,194.04,709.895,191.4633,704.9261,196.6892,711.6611,199.2659,716.63,194.04" style="stroke:#A80036;stroke-width:1.0;"/><polygon fill="#000000" points="603.7623,234.1647,613.2723,234.0581,611.3934,228.4886,603.7623,234.1647" style="stroke:#000000;stroke-width:1.0;"/><text fill="#000000" font-family="sans-serif" font-size="13" lengthAdjust="spacing" textLength="81" x="617.5" y="237.0669">described by</text><text fill="#000000" font-family="sans-serif" font-size="13" lengthAdjust="spacing" textLength="24" x="470.6531" y="260.0576">0..1</text><!--MD5=[633efb3059d8abd5e23b324815a30d32]
link Resource_Request to Resource_Request--><path codeLine="755" d="M866.22,167.96 C886.01,168.54 901,171.88 901,178 C901,183.54 888.69,186.81 871.65,187.8 " fill="none" id="Resource_Request-to-Resource_Request" style="stroke:#A80036;stroke-width:1.0;"/><polygon fill="#A80036" points="866.22,188.04,875.383,191.651,871.2154,187.8259,875.0405,183.6583,866.22,188.04" style="stroke:#A80036;stroke-width:1.0;"/><polygon fill="#000000" points="906.1465,183.0643,908.8192,173.937,902.9438,174.1092,906.1465,183.0643" style="stroke:#000000;stroke-width:1.0;"/><text fill="#000000" font-family="sans-serif" font-size="13" lengthAdjust="spacing" textLength="45" x="920" y="182.5669">revises</text><text fill="#000000" font-family="sans-serif" font-size="13" lengthAdjust="spacing" textLength="23" x="873.899" y="163.4707">0..*</text><text fill="#000000" font-family="sans-serif" font-size="13" lengthAdjust="spacing" textLength="24" x="873.9435" y="185.339">0..1</text><!--MD5=[0db8103b3d861b3f1c0ae604b4b70acc]
link Resource_Request to Resource--><path codeLine="759" d="M809,194.12 C833.89,215.62 879.46,254.99 906.25,278.14 " fill="none" id="Resource_Request-to-Resource" style="stroke:#A80036;stroke-width:1.0;"/><polygon fill="#A80036" points="910.07,281.44,905.8757,272.5289,906.2868,278.1708,900.645,278.5819,910.07,281.44" style="stroke:#A80036;stroke-width:1.0;"/><polygon fill="#000000" points="868.2835,235.8352,863.3604,227.698,859.5177,232.1458,868.2835,235.8352" style="stroke:#000000;stroke-width:1.0;"/><text fill="#000000" font-family="sans-serif" font-size="13" lengthAdjust="spacing" textLength="12" x="873.5" y="237.0669">of</text><text fill="#000000" font-family="sans-serif" font-size="13" lengthAdjust="spacing" textLength="23" x="787.9875" y="214.033">0..*</text><text fill="#000000" font-family="sans-serif" font-size="13" lengthAdjust="spacing" textLength="23" x="908.0316" y="270.431">1..*</text><!--MD5=[fe5a6d20c914780ef904d1216500e5bb]
link Funding to Monetary_Amount--><path codeLine="285" d="M1026.5,454.27 C1026.5,470.31 1026.5,491.3 1026.5,509.53 " fill="none" id="Funding-to-Monetary_Amount" style="stroke:#A80036;stroke-width:1.0;stroke-dasharray:7.0,7.0;"/><polygon fill="#A80036" points="1026.5,514.59,1030.5,505.59,1026.5,509.59,1022.5,505.59,1026.5,514.59" style="stroke:#A80036;stroke-width:1.0;"/><!--MD5=[a21829bf9e22d7ad2257d12c520c50b2]
reverse link Resource to Funding--><path codeLine="289" d="M951.63,329.7 C968.48,351.49 990.71,380.23 1006.56,400.72 " fill="none" id="Resource-backto-Funding" style="stroke:#A80036;stroke-width:1.0;"/><polygon fill="none" points="945.94,333.79,939.25,313.69,957.02,325.22,945.94,333.79" style="stroke:#A80036;stroke-width:1.0;"/><!--MD5=[7072accdc040e53c8442e4ca7ea58660]
link Funding to Funding--><path codeLine="369" d="M1116.67,417.27 C1136.81,418.21 1151.5,421.62 1151.5,427.5 C1151.5,433.38 1136.81,436.79 1116.67,437.73 " fill="none" id="Funding-Funding" style="stroke:#A80036;stroke-width:1.0;"/><polygon fill="#000000" points="1156.7331,432.561,1159.2471,423.3887,1153.3757,423.6627,1156.7331,432.561" style="stroke:#000000;stroke-width:1.0;"/><text fill="#000000" font-family="sans-serif" font-size="13" lengthAdjust="spacing" textLength="56" x="1170.5" y="432.0669">is part of</text><text fill="#000000" font-family="sans-serif" font-size="13" lengthAdjust="spacing" textLength="23" x="1124.4541" y="412.992">0..*</text><text fill="#000000" font-family="sans-serif" font-size="13" lengthAdjust="spacing" textLength="23" x="1124.4541" y="435.0185">0..*</text><!--MD5=[ff11c2ae19cf8b0222e8ec830cb319de]
link Activity to Funding--><path codeLine="860" d="M1026.5,199.26 C1026.5,242.6 1026.5,344.55 1026.5,395.86 " fill="none" id="Activity-Funding" style="stroke:#A80036;stroke-width:1.0;"/><polygon fill="#A80036" points="1026.5,400.97,1030.5,391.97,1026.5,395.97,1022.5,391.97,1026.5,400.97" style="stroke:#A80036;stroke-width:1.0;"/><polygon fill="#A80036" points="1026.5,194.11,1022.5,203.11,1026.5,199.11,1030.5,203.11,1026.5,194.11" style="stroke:#A80036;stroke-width:1.0;"/><text fill="#000000" font-family="sans-serif" font-size="13" lengthAdjust="spacing" textLength="69" x="946.0719" y="214.0197">0..* covers</text><text fill="#000000" font-family="sans-serif" font-size="13" lengthAdjust="spacing" textLength="90" x="925.5313" y="389.7821">0..* funded by</text><!--MD5=[b2c19dd082d0b6980457b5ba90e9353b]
link Project to Funding--><path codeLine="861" d="M1128.65,199.37 C1113.35,234.51 1080.87,308.71 1052.5,371 C1048.81,379.1 1044.76,387.83 1040.97,395.92 " fill="none" id="Project-Funding" style="stroke:#A80036;stroke-width:1.0;"/><polygon fill="#A80036" points="1038.65,400.86,1046.0818,394.3972,1040.7652,396.3294,1038.8329,391.0128,1038.65,400.86" style="stroke:#A80036;stroke-width:1.0;"/><polygon fill="#A80036" points="1130.78,194.48,1123.5331,201.1495,1128.7932,199.0683,1130.8743,204.3284,1130.78,194.48" style="stroke:#A80036;stroke-width:1.0;"/><text fill="#000000" font-family="sans-serif" font-size="13" lengthAdjust="spacing" textLength="69" x="1067.4801" y="214.1293">0..* covers</text><text fill="#000000" font-family="sans-serif" font-size="13" lengthAdjust="spacing" textLength="90" x="1051.8659" y="390.07">0..* funded by</text><!--MD5=[dc4598ce2d2e32aede71f5bf98c1fc33]
reverse link Application to Funding_Application--><path codeLine="562" d="M796.5,344.28 C796.5,367.81 796.5,394.91 796.5,411.37 " fill="none" id="Application-backto-Funding_Application" style="stroke:#A80036;stroke-width:1.0;"/><polygon fill="none" points="789.5,344.1,796.5,324.1,803.5,344.1,789.5,344.1" style="stroke:#A80036;stroke-width:1.0;"/><!--MD5=[ce01e496d5f2dcc88ba1226d075cb019]
reverse link Call_for_Applications to Call_for_Funding_Applications--><path codeLine="633" d="M114.5,333.92 C114.5,359.36 114.5,392.39 114.5,411.33 " fill="none" id="Call_for_Applications-backto-Call_for_Funding_Applications" style="stroke:#A80036;stroke-width:1.0;"/><polygon fill="none" points="107.5,333.69,114.5,313.69,121.5,333.69,107.5,333.69" style="stroke:#A80036;stroke-width:1.0;"/><!--MD5=[f0a2d058aea2abec002687aab9c38f61]
@startuml

    !includesub core.puml!common
    !includesub core.puml!Call_for_Applications
    !includesub core.puml!Application
    !includesub core.puml!Resource
    !includesub core.puml!Document
    !includesub core.puml!Agent
    !includesub core.puml!Resource_Offer
    !includesub core.puml!Resource_Request
    !includesub core.puml!Condition
    !includesub core.puml!Funding
    !includesub core.puml!Funding_Application
    !includesub core.puml!Call_for_Funding_Applications

@enduml

@startuml

    hide empty members
    skinparam BoxPadding 120
    class "Call_for_Applications" #ffffff {
    }
    "Application" "0..*" -l- "0..1" "Call_for_Applications" : in response to >
	"Resource_Offer" <|- - "Call_for_Applications"
    class "Application" #ffffff {
        date : Date
    }
	"Resource_Request" <|- - "Application"
    class "Resource" #ffffff {
    }
    class "Document" #ffffff {
        title : Multilingual_String
    }

    "Document" "0..*" - - "0..*" "Document" : is part of >
    ("Document", "Document") .. "Contents_Location"

    "Document" "0..*" - - "0..*" "Document" : another representation of >

    class Contents_Location << (D,#add0b2) DataType>> #ffffff {
        number : String
    }

    class Page_Based_Contents_Location << (D,#add0b2) DataType>> #ffffff {
        startPage : String
        endPage : String
    }

    "Contents_Location" <|- - "Page_Based_Contents_Location"

    class Time_Based_Contents_Location << (D,#add0b2) DataType>> #ffffff {
        startTime : Time
        endTime : Time
    }

    "Contents_Location" <|- - "Time_Based_Contents_Location"

    class "Agent" #ffffff {
        keywords : List<Multilingual_String>
    	lifetime : Date_Range
    	contacts : List<Contact_Information>
    }
    "Agent" ..> "Date_Range"
    "Agent" ..> "0..*" "Contact_Information"
	"Resource_Offer" -u-> "solicited by" "Agent"
	class "Resource_Offer" #ffffff {
	}
	"Resource_Offer" "0..*" - -> "1..*" "Resource" : of >
	"Resource_Offer" o- - "0..*" "Condition" : has >
	"Resource_Offer" "0..1" o- - "0..*" "Document" : described by >
    "Resource_Request" -u-> "0..1" "Agent" : requester >
    "Resource_Request" -u-> "0..1" "Agent" : addressee >
    "Resource_Request" o- - "0..1" "Document" : described by >
	class "Resource_Request" #ffffff {
	}
	"Resource_Request" "0..*" - -> "0..1" "Resource_Request" : revises >
	"Resource_Request" "0..*" - -> "1..*" "Resource" : of >
	class "Condition" #ffffff {
	}
    class "Funding" #ffffff {
        amount  :   Monetary_Amount
    }
    class Monetary_Amount << (D,#add0b2) DataType>> #ffffff {
        amount : Decimal
        currencyCode  : ISO_4217_Alpha_Code
    }
    "Funding" ..> "Monetary_Amount"
     "Resource" <|- - "Funding"
     "Funding" "0..*" - - "0..*" "Funding" : is part of >
    "Activity" "0..* covers" <- - -> "0..* funded by" "Funding"
    "Project" "0..* covers" <- - -> "0..* funded by" "Funding"
    class "Funding_Application" #ffffff {
    }
    "Application" <|- - "Funding_Application"
    class "Call_for_Funding_Applications" #ffffff {
    }
    "Call_for_Applications" <|- - "Call_for_Funding_Applications"

@enduml

PlantUML version 1.2021.8(Sat Jun 26 08:20:59 UTC 2021)
(GPL source distribution)
Java Runtime: OpenJDK Runtime Environment
JVM: OpenJDK 64-Bit Server VM
Default Encoding: UTF-8
Language: en
Country: null
--></g></svg>