<svg xmlns="http://www.w3.org/2000/svg" xmlns:xlink="http://www.w3.org/1999/xlink" contentStyleType="text/css" data-diagram-type="CLASS" height="761px" preserveAspectRatio="none" style="width:1636px;height:761px;background:#FFFFFF;" version="1.1" viewBox="0 0 1636 761" width="1636px" zoomAndPan="magnify"><defs/><g><!--class Call_for_Applications--><g class="entity" data-entity="Call_for_Applications" data-source-line="566" data-uid="ent0002" id="entity_Call_for_Applications"><rect fill="#FFFFFF" height="32" rx="2.5" ry="2.5" style="stroke:#181818;stroke-width:0.5;" width="176.9014" x="38.5" y="294"/><ellipse cx="53.5" cy="310" fill="#ADD1B2" rx="11" ry="11" style="stroke:#181818;stroke-width:1;"/><path d="M56.4688,315.6406 Q55.8906,315.9375 55.25,316.0781 Q54.6094,316.2344 53.9063,316.2344 Q51.4063,316.2344 50.0781,314.5938 Q48.7656,312.9375 48.7656,309.8125 Q48.7656,306.6875 50.0781,305.0313 Q51.4063,303.375 53.9063,303.375 Q54.6094,303.375 55.25,303.5313 Q55.9063,303.6875 56.4688,303.9844 L56.4688,306.7031 Q55.8438,306.125 55.25,305.8594 Q54.6563,305.5781 54.0313,305.5781 Q52.6875,305.5781 52,306.6563 Q51.3125,307.7188 51.3125,309.8125 Q51.3125,311.9063 52,312.9844 Q52.6875,314.0469 54.0313,314.0469 Q54.6563,314.0469 55.25,313.7813 Q55.8438,313.5 56.4688,312.9219 L56.4688,315.6406 Z " fill="#000000"/><text fill="#000000" font-family="sans-serif" font-size="14" lengthAdjust="spacing" textLength="144.9014" x="67.5" y="314.8467">Call_for_Applications</text></g><!--class Application--><g class="entity" data-entity="Application" data-source-line="617" data-uid="ent0003" id="entity_Application"><rect fill="#FFFFFF" height="56.2969" rx="2.5" ry="2.5" style="stroke:#181818;stroke-width:0.5;" width="110.2236" x="813" y="282"/><ellipse cx="828" cy="298" fill="#ADD1B2" rx="11" ry="11" style="stroke:#181818;stroke-width:1;"/><path d="M830.9688,303.6406 Q830.3906,303.9375 829.75,304.0781 Q829.1094,304.2344 828.4063,304.2344 Q825.9063,304.2344 824.5781,302.5938 Q823.2656,300.9375 823.2656,297.8125 Q823.2656,294.6875 824.5781,293.0313 Q825.9063,291.375 828.4063,291.375 Q829.1094,291.375 829.75,291.5313 Q830.4063,291.6875 830.9688,291.9844 L830.9688,294.7031 Q830.3438,294.125 829.75,293.8594 Q829.1563,293.5781 828.5313,293.5781 Q827.1875,293.5781 826.5,294.6563 Q825.8125,295.7188 825.8125,297.8125 Q825.8125,299.9063 826.5,300.9844 Q827.1875,302.0469 828.5313,302.0469 Q829.1563,302.0469 829.75,301.7813 Q830.3438,301.5 830.9688,300.9219 L830.9688,303.6406 Z " fill="#000000"/><text fill="#000000" font-family="sans-serif" font-size="14" lengthAdjust="spacing" textLength="78.2236" x="842" y="302.8467">Application</text><line style="stroke:#181818;stroke-width:0.5;" x1="814" x2="922.2236" y1="314" y2="314"/><text fill="#000000" font-family="sans-serif" font-size="14" lengthAdjust="spacing" textLength="78.6475" x="819" y="330.9951">date : Date</text></g><!--class Resource_Offer--><g class="entity" data-entity="Resource_Offer" data-source-line="729" data-uid="ent0006" id="entity_Resource_Offer"><rect fill="#FFFFFF" height="32" rx="2.5" ry="2.5" style="stroke:#181818;stroke-width:0.5;" width="139.3857" x="420.5" y="173"/><ellipse cx="435.5" cy="189" fill="#ADD1B2" rx="11" ry="11" style="stroke:#181818;stroke-width:1;"/><path d="M438.4688,194.6406 Q437.8906,194.9375 437.25,195.0781 Q436.6094,195.2344 435.9063,195.2344 Q433.4063,195.2344 432.0781,193.5938 Q430.7656,191.9375 430.7656,188.8125 Q430.7656,185.6875 432.0781,184.0313 Q433.4063,182.375 435.9063,182.375 Q436.6094,182.375 437.25,182.5313 Q437.9063,182.6875 438.4688,182.9844 L438.4688,185.7031 Q437.8438,185.125 437.25,184.8594 Q436.6563,184.5781 436.0313,184.5781 Q434.6875,184.5781 434,185.6563 Q433.3125,186.7188 433.3125,188.8125 Q433.3125,190.9063 434,191.9844 Q434.6875,193.0469 436.0313,193.0469 Q436.6563,193.0469 437.25,192.7813 Q437.8438,192.5 438.4688,191.9219 L438.4688,194.6406 Z " fill="#000000"/><text fill="#000000" font-family="sans-serif" font-size="14" lengthAdjust="spacing" textLength="107.3857" x="449.5" y="193.8467">Resource_Offer</text></g><!--class Resource_Request--><g class="entity" data-entity="Resource_Request" data-source-line="747" data-uid="ent0008" id="entity_Resource_Request"><rect fill="#FFFFFF" height="32" rx="2.5" ry="2.5" style="stroke:#181818;stroke-width:0.5;" width="161.6367" x="780" y="173"/><ellipse cx="795" cy="189" fill="#ADD1B2" rx="11" ry="11" style="stroke:#181818;stroke-width:1;"/><path d="M797.9688,194.6406 Q797.3906,194.9375 796.75,195.0781 Q796.1094,195.2344 795.4063,195.2344 Q792.9063,195.2344 791.5781,193.5938 Q790.2656,191.9375 790.2656,188.8125 Q790.2656,185.6875 791.5781,184.0313 Q792.9063,182.375 795.4063,182.375 Q796.1094,182.375 796.75,182.5313 Q797.4063,182.6875 797.9688,182.9844 L797.9688,185.7031 Q797.3438,185.125 796.75,184.8594 Q796.1563,184.5781 795.5313,184.5781 Q794.1875,184.5781 793.5,185.6563 Q792.8125,186.7188 792.8125,188.8125 Q792.8125,190.9063 793.5,191.9844 Q794.1875,193.0469 795.5313,193.0469 Q796.1563,193.0469 796.75,192.7813 Q797.3438,192.5 797.9688,191.9219 L797.9688,194.6406 Z " fill="#000000"/><text fill="#000000" font-family="sans-serif" font-size="14" lengthAdjust="spacing" textLength="129.6367" x="809" y="193.8467">Resource_Request</text></g><!--class Resource--><g class="entity" data-entity="Resource" data-source-line="267" data-uid="ent0010" id="entity_Resource"><rect fill="#FFFFFF" height="32" rx="2.5" ry="2.5" style="stroke:#181818;stroke-width:0.5;" width="97.1396" x="958.5" y="294"/><ellipse cx="973.5" cy="310" fill="#ADD1B2" rx="11" ry="11" style="stroke:#181818;stroke-width:1;"/><path d="M976.4688,315.6406 Q975.8906,315.9375 975.25,316.0781 Q974.6094,316.2344 973.9063,316.2344 Q971.4063,316.2344 970.0781,314.5938 Q968.7656,312.9375 968.7656,309.8125 Q968.7656,306.6875 970.0781,305.0313 Q971.4063,303.375 973.9063,303.375 Q974.6094,303.375 975.25,303.5313 Q975.9063,303.6875 976.4688,303.9844 L976.4688,306.7031 Q975.8438,306.125 975.25,305.8594 Q974.6563,305.5781 974.0313,305.5781 Q972.6875,305.5781 972,306.6563 Q971.3125,307.7188 971.3125,309.8125 Q971.3125,311.9063 972,312.9844 Q972.6875,314.0469 974.0313,314.0469 Q974.6563,314.0469 975.25,313.7813 Q975.8438,313.5 976.4688,312.9219 L976.4688,315.6406 Z " fill="#000000"/><text fill="#000000" font-family="sans-serif" font-size="14" lengthAdjust="spacing" textLength="65.1396" x="987.5" y="314.8467">Resource</text></g><!--class Document--><g class="entity" data-entity="Document" data-source-line="312" data-uid="ent0011" id="entity_Document"><rect fill="#FFFFFF" height="56.2969" rx="2.5" ry="2.5" style="stroke:#181818;stroke-width:0.5;" width="182.8711" x="384.5" y="282"/><ellipse cx="435.4209" cy="298" fill="#ADD1B2" rx="11" ry="11" style="stroke:#181818;stroke-width:1;"/><path d="M438.3896,303.6406 Q437.8115,303.9375 437.1709,304.0781 Q436.5303,304.2344 435.8271,304.2344 Q433.3271,304.2344 431.999,302.5938 Q430.6865,300.9375 430.6865,297.8125 Q430.6865,294.6875 431.999,293.0313 Q433.3271,291.375 435.8271,291.375 Q436.5303,291.375 437.1709,291.5313 Q437.8271,291.6875 438.3896,291.9844 L438.3896,294.7031 Q437.7646,294.125 437.1709,293.8594 Q436.5771,293.5781 435.9521,293.5781 Q434.6084,293.5781 433.9209,294.6563 Q433.2334,295.7188 433.2334,297.8125 Q433.2334,299.9063 433.9209,300.9844 Q434.6084,302.0469 435.9521,302.0469 Q436.5771,302.0469 437.1709,301.7813 Q437.7646,301.5 438.3896,300.9219 L438.3896,303.6406 Z " fill="#000000"/><text fill="#000000" font-family="sans-serif" font-size="14" lengthAdjust="spacing" textLength="72.5293" x="455.9209" y="302.8467">Document</text><line style="stroke:#181818;stroke-width:0.5;" x1="385.5" x2="566.3711" y1="314" y2="314"/><text fill="#000000" font-family="sans-serif" font-size="14" lengthAdjust="spacing" textLength="170.8711" x="390.5" y="330.9951">title : Multilingual_String</text></g><!--class Contents_Location--><g class="entity" data-entity="Contents_Location" data-source-line="317" data-uid="ent0013" id="entity_Contents_Location"><rect fill="#FFFFFF" height="64.5625" rx="2.5" ry="2.5" style="stroke:#181818;stroke-width:0.5;" width="161.4316" x="396.5" y="540"/><ellipse cx="411.5" cy="560.1328" fill="#ADD0B2" rx="11" ry="11" style="stroke:#181818;stroke-width:1;"/><path d="M411.0938,555.9453 L411.0938,563.9297 L411.75,563.9297 Q413.1875,563.9297 413.7969,563.0234 Q414.4219,562.1016 414.4219,559.9297 Q414.4219,557.7578 413.7969,556.8516 Q413.1875,555.9453 411.75,555.9453 L411.0938,555.9453 Z M408.6406,553.7422 L411.2656,553.7422 Q414.2969,553.7422 415.625,555.1953 Q416.9688,556.6328 416.9688,559.9297 Q416.9688,563.2266 415.625,564.6797 Q414.2969,566.1328 411.2656,566.1328 L408.6406,566.1328 L408.6406,553.7422 Z " fill="#000000"/><text fill="#000000" font-family="sans-serif" font-size="12" font-style="italic" lengthAdjust="spacing" textLength="72.8965" x="453.7676" y="556.1387">&#171;DataType&#187;</text><text fill="#000000" font-family="sans-serif" font-size="14" lengthAdjust="spacing" textLength="129.4316" x="425.5" y="571.9639">Contents_Location</text><line style="stroke:#181818;stroke-width:0.5;" x1="397.5" x2="556.9316" y1="580.2656" y2="580.2656"/><text fill="#000000" font-family="sans-serif" font-size="14" lengthAdjust="spacing" textLength="110.0381" x="402.5" y="597.2607">number : String</text></g><ellipse cx="477" cy="443" fill="#181818" rx="2" ry="2" style="stroke:#181818;stroke-width:1;"/><!--class Page_Based_Contents_Location--><g class="entity" data-entity="Page_Based_Contents_Location" data-source-line="328" data-uid="ent0020" id="entity_Page_Based_Contents_Location"><rect fill="#FFFFFF" height="80.8594" rx="2.5" ry="2.5" style="stroke:#181818;stroke-width:0.5;" width="252.9307" x="206.5" y="674"/><ellipse cx="221.5" cy="694.1328" fill="#ADD0B2" rx="11" ry="11" style="stroke:#181818;stroke-width:1;"/><path d="M221.0938,689.9453 L221.0938,697.9297 L221.75,697.9297 Q223.1875,697.9297 223.7969,697.0234 Q224.4219,696.1016 224.4219,693.9297 Q224.4219,691.7578 223.7969,690.8516 Q223.1875,689.9453 221.75,689.9453 L221.0938,689.9453 Z M218.6406,687.7422 L221.2656,687.7422 Q224.2969,687.7422 225.625,689.1953 Q226.9688,690.6328 226.9688,693.9297 Q226.9688,697.2266 225.625,698.6797 Q224.2969,700.1328 221.2656,700.1328 L218.6406,700.1328 L218.6406,687.7422 Z " fill="#000000"/><text fill="#000000" font-family="sans-serif" font-size="12" font-style="italic" lengthAdjust="spacing" textLength="72.8965" x="309.5171" y="690.1387">&#171;DataType&#187;</text><text fill="#000000" font-family="sans-serif" font-size="14" lengthAdjust="spacing" textLength="220.9307" x="235.5" y="705.9639">Page_Based_Contents_Location</text><line style="stroke:#181818;stroke-width:0.5;" x1="207.5" x2="458.4307" y1="714.2656" y2="714.2656"/><text fill="#000000" font-family="sans-serif" font-size="14" lengthAdjust="spacing" textLength="122.5273" x="212.5" y="731.2607">startPage : String</text><text fill="#000000" font-family="sans-serif" font-size="14" lengthAdjust="spacing" textLength="116.293" x="212.5" y="747.5576">endPage : String</text></g><!--class Time_Based_Contents_Location--><g class="entity" data-entity="Time_Based_Contents_Location" data-source-line="335" data-uid="ent0022" id="entity_Time_Based_Contents_Location"><rect fill="#FFFFFF" height="80.8594" rx="2.5" ry="2.5" style="stroke:#181818;stroke-width:0.5;" width="253.1016" x="494.5" y="674"/><ellipse cx="509.5" cy="694.1328" fill="#ADD0B2" rx="11" ry="11" style="stroke:#181818;stroke-width:1;"/><path d="M509.0938,689.9453 L509.0938,697.9297 L509.75,697.9297 Q511.1875,697.9297 511.7969,697.0234 Q512.4219,696.1016 512.4219,693.9297 Q512.4219,691.7578 511.7969,690.8516 Q511.1875,689.9453 509.75,689.9453 L509.0938,689.9453 Z M506.6406,687.7422 L509.2656,687.7422 Q512.2969,687.7422 513.625,689.1953 Q514.9688,690.6328 514.9688,693.9297 Q514.9688,697.2266 513.625,698.6797 Q512.2969,700.1328 509.2656,700.1328 L506.6406,700.1328 L506.6406,687.7422 Z " fill="#000000"/><text fill="#000000" font-family="sans-serif" font-size="12" font-style="italic" lengthAdjust="spacing" textLength="72.8965" x="597.6025" y="690.1387">&#171;DataType&#187;</text><text fill="#000000" font-family="sans-serif" font-size="14" lengthAdjust="spacing" textLength="221.1016" x="523.5" y="705.9639">Time_Based_Contents_Location</text><line style="stroke:#181818;stroke-width:0.5;" x1="495.5" x2="746.6016" y1="714.2656" y2="714.2656"/><text fill="#000000" font-family="sans-serif" font-size="14" lengthAdjust="spacing" textLength="115.6094" x="500.5" y="731.2607">startTime : Time</text><text fill="#000000" font-family="sans-serif" font-size="14" lengthAdjust="spacing" textLength="109.375" x="500.5" y="747.5576">endTime : Time</text></g><!--class Agent--><g class="entity" data-entity="Agent" data-source-line="10" data-uid="ent0024" id="entity_Agent"><rect fill="#FFFFFF" height="88.8906" rx="2.5" ry="2.5" style="stroke:#181818;stroke-width:0.5;" width="275.9902" x="845" y="7"/><ellipse cx="958.0254" cy="23" fill="#ADD1B2" rx="11" ry="11" style="stroke:#181818;stroke-width:1;"/><path d="M960.9941,28.6406 Q960.416,28.9375 959.7754,29.0781 Q959.1348,29.2344 958.4316,29.2344 Q955.9316,29.2344 954.6035,27.5938 Q953.291,25.9375 953.291,22.8125 Q953.291,19.6875 954.6035,18.0313 Q955.9316,16.375 958.4316,16.375 Q959.1348,16.375 959.7754,16.5313 Q960.4316,16.6875 960.9941,16.9844 L960.9941,19.7031 Q960.3691,19.125 959.7754,18.8594 Q959.1816,18.5781 958.5566,18.5781 Q957.2129,18.5781 956.5254,19.6563 Q955.8379,20.7188 955.8379,22.8125 Q955.8379,24.9063 956.5254,25.9844 Q957.2129,27.0469 958.5566,27.0469 Q959.1816,27.0469 959.7754,26.7813 Q960.3691,26.5 960.9941,25.9219 L960.9941,28.6406 Z " fill="#000000"/><text fill="#000000" font-family="sans-serif" font-size="14" lengthAdjust="spacing" textLength="41.4395" x="978.5254" y="27.8467">Agent</text><line style="stroke:#181818;stroke-width:0.5;" x1="846" x2="1119.9902" y1="39" y2="39"/><text fill="#000000" font-family="sans-serif" font-size="14" lengthAdjust="spacing" textLength="258.3916" x="851" y="55.9951">keywords : List&lt;Multilingual_String&gt;</text><text fill="#000000" font-family="sans-serif" font-size="14" lengthAdjust="spacing" textLength="151.71" x="851" y="72.292">lifetime : Date_Range</text><text fill="#000000" font-family="sans-serif" font-size="14" lengthAdjust="spacing" textLength="263.9902" x="851" y="88.5889">contacts : List&lt;Contact_Information&gt;</text></g><!--class Date_Range--><g class="entity" data-entity="Date_Range" data-source-line="15" data-uid="ent0025" id="entity_Date_Range"><rect fill="#F1F1F1" height="32" rx="2.5" ry="2.5" style="stroke:#181818;stroke-width:0.5;" width="117.1416" x="1302.5" y="173"/><ellipse cx="1317.5" cy="189" fill="#ADD1B2" rx="11" ry="11" style="stroke:#181818;stroke-width:1;"/><path d="M1320.4688,194.6406 Q1319.8906,194.9375 1319.25,195.0781 Q1318.6094,195.2344 1317.9063,195.2344 Q1315.4063,195.2344 1314.0781,193.5938 Q1312.7656,191.9375 1312.7656,188.8125 Q1312.7656,185.6875 1314.0781,184.0313 Q1315.4063,182.375 1317.9063,182.375 Q1318.6094,182.375 1319.25,182.5313 Q1319.9063,182.6875 1320.4688,182.9844 L1320.4688,185.7031 Q1319.8438,185.125 1319.25,184.8594 Q1318.6563,184.5781 1318.0313,184.5781 Q1316.6875,184.5781 1316,185.6563 Q1315.3125,186.7188 1315.3125,188.8125 Q1315.3125,190.9063 1316,191.9844 Q1316.6875,193.0469 1318.0313,193.0469 Q1318.6563,193.0469 1319.25,192.7813 Q1319.8438,192.5 1320.4688,191.9219 L1320.4688,194.6406 Z " fill="#000000"/><text fill="#000000" font-family="sans-serif" font-size="14" lengthAdjust="spacing" textLength="85.1416" x="1331.5" y="193.8467">Date_Range</text></g><!--class Contact_Information--><g class="entity" data-entity="Contact_Information" data-source-line="16" data-uid="ent0027" id="entity_Contact_Information"><rect fill="#F1F1F1" height="32" rx="2.5" ry="2.5" style="stroke:#181818;stroke-width:0.5;" width="174.7549" x="1454.5" y="173"/><ellipse cx="1469.5" cy="189" fill="#ADD1B2" rx="11" ry="11" style="stroke:#181818;stroke-width:1;"/><path d="M1472.4688,194.6406 Q1471.8906,194.9375 1471.25,195.0781 Q1470.6094,195.2344 1469.9063,195.2344 Q1467.4063,195.2344 1466.0781,193.5938 Q1464.7656,191.9375 1464.7656,188.8125 Q1464.7656,185.6875 1466.0781,184.0313 Q1467.4063,182.375 1469.9063,182.375 Q1470.6094,182.375 1471.25,182.5313 Q1471.9063,182.6875 1472.4688,182.9844 L1472.4688,185.7031 Q1471.8438,185.125 1471.25,184.8594 Q1470.6563,184.5781 1470.0313,184.5781 Q1468.6875,184.5781 1468,185.6563 Q1467.3125,186.7188 1467.3125,188.8125 Q1467.3125,190.9063 1468,191.9844 Q1468.6875,193.0469 1470.0313,193.0469 Q1470.6563,193.0469 1471.25,192.7813 Q1471.8438,192.5 1472.4688,191.9219 L1472.4688,194.6406 Z " fill="#000000"/><text fill="#000000" font-family="sans-serif" font-size="14" lengthAdjust="spacing" textLength="142.7549" x="1483.5" y="193.8467">Contact_Information</text></g><!--class Condition--><g class="entity" data-entity="Condition" data-source-line="738" data-uid="ent0032" id="entity_Condition"><rect fill="#FFFFFF" height="32" rx="2.5" ry="2.5" style="stroke:#181818;stroke-width:0.5;" width="98.8076" x="250.5" y="294"/><ellipse cx="265.5" cy="310" fill="#ADD1B2" rx="11" ry="11" style="stroke:#181818;stroke-width:1;"/><path d="M268.4688,315.6406 Q267.8906,315.9375 267.25,316.0781 Q266.6094,316.2344 265.9063,316.2344 Q263.4063,316.2344 262.0781,314.5938 Q260.7656,312.9375 260.7656,309.8125 Q260.7656,306.6875 262.0781,305.0313 Q263.4063,303.375 265.9063,303.375 Q266.6094,303.375 267.25,303.5313 Q267.9063,303.6875 268.4688,303.9844 L268.4688,306.7031 Q267.8438,306.125 267.25,305.8594 Q266.6563,305.5781 266.0313,305.5781 Q264.6875,305.5781 264,306.6563 Q263.3125,307.7188 263.3125,309.8125 Q263.3125,311.9063 264,312.9844 Q264.6875,314.0469 266.0313,314.0469 Q266.6563,314.0469 267.25,313.7813 Q267.8438,313.5 268.4688,312.9219 L268.4688,315.6406 Z " fill="#000000"/><text fill="#000000" font-family="sans-serif" font-size="14" lengthAdjust="spacing" textLength="66.8076" x="279.5" y="314.8467">Condition</text></g><!--class Funding--><g class="entity" data-entity="Funding" data-source-line="272" data-uid="ent0042" id="entity_Funding"><rect fill="#FFFFFF" height="56.2969" rx="2.5" ry="2.5" style="stroke:#181818;stroke-width:0.5;" width="221.2412" x="998.5" y="415"/><ellipse cx="1076.7031" cy="431" fill="#ADD1B2" rx="11" ry="11" style="stroke:#181818;stroke-width:1;"/><path d="M1079.6719,436.6406 Q1079.0938,436.9375 1078.4531,437.0781 Q1077.8125,437.2344 1077.1094,437.2344 Q1074.6094,437.2344 1073.2813,435.5938 Q1071.9688,433.9375 1071.9688,430.8125 Q1071.9688,427.6875 1073.2813,426.0313 Q1074.6094,424.375 1077.1094,424.375 Q1077.8125,424.375 1078.4531,424.5313 Q1079.1094,424.6875 1079.6719,424.9844 L1079.6719,427.7031 Q1079.0469,427.125 1078.4531,426.8594 Q1077.8594,426.5781 1077.2344,426.5781 Q1075.8906,426.5781 1075.2031,427.6563 Q1074.5156,428.7188 1074.5156,430.8125 Q1074.5156,432.9063 1075.2031,433.9844 Q1075.8906,435.0469 1077.2344,435.0469 Q1077.8594,435.0469 1078.4531,434.7813 Q1079.0469,434.5 1079.6719,433.9219 L1079.6719,436.6406 Z " fill="#000000"/><text fill="#000000" font-family="sans-serif" font-size="14" lengthAdjust="spacing" textLength="56.335" x="1097.2031" y="435.8467">Funding</text><line style="stroke:#181818;stroke-width:0.5;" x1="999.5" x2="1218.7412" y1="447" y2="447"/><text fill="#000000" font-family="sans-serif" font-size="14" lengthAdjust="spacing" textLength="209.2412" x="1004.5" y="463.9951">amount  :   Monetary_Amount</text></g><!--class Monetary_Amount--><g class="entity" data-entity="Monetary_Amount" data-source-line="278" data-uid="ent0043" id="entity_Monetary_Amount"><rect fill="#FFFFFF" height="80.8594" rx="2.5" ry="2.5" style="stroke:#181818;stroke-width:0.5;" width="283.7695" x="967" y="532"/><ellipse cx="1040.5068" cy="552.1328" fill="#ADD0B2" rx="11" ry="11" style="stroke:#181818;stroke-width:1;"/><path d="M1040.1006,547.9453 L1040.1006,555.9297 L1040.7568,555.9297 Q1042.1943,555.9297 1042.8037,555.0234 Q1043.4287,554.1016 1043.4287,551.9297 Q1043.4287,549.7578 1042.8037,548.8516 Q1042.1943,547.9453 1040.7568,547.9453 L1040.1006,547.9453 Z M1037.6475,545.7422 L1040.2725,545.7422 Q1043.3037,545.7422 1044.6318,547.1953 Q1045.9756,548.6328 1045.9756,551.9297 Q1045.9756,555.2266 1044.6318,556.6797 Q1043.3037,558.1328 1040.2725,558.1328 L1037.6475,558.1328 L1037.6475,545.7422 Z " fill="#000000"/><text fill="#000000" font-family="sans-serif" font-size="12" font-style="italic" lengthAdjust="spacing" textLength="72.8965" x="1088.6865" y="548.1387">&#171;DataType&#187;</text><text fill="#000000" font-family="sans-serif" font-size="14" lengthAdjust="spacing" textLength="128.2559" x="1061.0068" y="563.9639">Monetary_Amount</text><line style="stroke:#181818;stroke-width:0.5;" x1="968" x2="1249.7695" y1="572.2656" y2="572.2656"/><text fill="#000000" font-family="sans-serif" font-size="14" lengthAdjust="spacing" textLength="124.7217" x="973" y="589.2607">amount : Decimal</text><text fill="#000000" font-family="sans-serif" font-size="14" lengthAdjust="spacing" textLength="271.7695" x="973" y="605.5576">currencyCode  : ISO_4217_Alpha_Code</text></g><!--class Activity--><g class="entity" data-entity="Activity" data-source-line="860" data-uid="ent0047" id="entity_Activity"><rect fill="#F1F1F1" height="32" rx="2.5" ry="2.5" style="stroke:#181818;stroke-width:0.5;" width="84.6025" x="1066.5" y="173"/><ellipse cx="1081.5" cy="189" fill="#ADD1B2" rx="11" ry="11" style="stroke:#181818;stroke-width:1;"/><path d="M1084.4688,194.6406 Q1083.8906,194.9375 1083.25,195.0781 Q1082.6094,195.2344 1081.9063,195.2344 Q1079.4063,195.2344 1078.0781,193.5938 Q1076.7656,191.9375 1076.7656,188.8125 Q1076.7656,185.6875 1078.0781,184.0313 Q1079.4063,182.375 1081.9063,182.375 Q1082.6094,182.375 1083.25,182.5313 Q1083.9063,182.6875 1084.4688,182.9844 L1084.4688,185.7031 Q1083.8438,185.125 1083.25,184.8594 Q1082.6563,184.5781 1082.0313,184.5781 Q1080.6875,184.5781 1080,185.6563 Q1079.3125,186.7188 1079.3125,188.8125 Q1079.3125,190.9063 1080,191.9844 Q1080.6875,193.0469 1082.0313,193.0469 Q1082.6563,193.0469 1083.25,192.7813 Q1083.8438,192.5 1084.4688,191.9219 L1084.4688,194.6406 Z " fill="#000000"/><text fill="#000000" font-family="sans-serif" font-size="14" lengthAdjust="spacing" textLength="52.6025" x="1095.5" y="193.8467">Activity</text></g><!--class Project--><g class="entity" data-entity="Project" data-source-line="861" data-uid="ent0049" id="entity_Project"><rect fill="#F1F1F1" height="32" rx="2.5" ry="2.5" style="stroke:#181818;stroke-width:0.5;" width="80.4531" x="1187" y="173"/><ellipse cx="1202" cy="189" fill="#ADD1B2" rx="11" ry="11" style="stroke:#181818;stroke-width:1;"/><path d="M1204.9688,194.6406 Q1204.3906,194.9375 1203.75,195.0781 Q1203.1094,195.2344 1202.4063,195.2344 Q1199.9063,195.2344 1198.5781,193.5938 Q1197.2656,191.9375 1197.2656,188.8125 Q1197.2656,185.6875 1198.5781,184.0313 Q1199.9063,182.375 1202.4063,182.375 Q1203.1094,182.375 1203.75,182.5313 Q1204.4063,182.6875 1204.9688,182.9844 L1204.9688,185.7031 Q1204.3438,185.125 1203.75,184.8594 Q1203.1563,184.5781 1202.5313,184.5781 Q1201.1875,184.5781 1200.5,185.6563 Q1199.8125,186.7188 1199.8125,188.8125 Q1199.8125,190.9063 1200.5,191.9844 Q1201.1875,193.0469 1202.5313,193.0469 Q1203.1563,193.0469 1203.75,192.7813 Q1204.3438,192.5 1204.9688,191.9219 L1204.9688,194.6406 Z " fill="#000000"/><text fill="#000000" font-family="sans-serif" font-size="14" lengthAdjust="spacing" textLength="48.4531" x="1216" y="193.8467">Project</text></g><!--class Funding_Application--><g class="entity" data-entity="Funding_Application" data-source-line="557" data-uid="ent0051" id="entity_Funding_Application"><rect fill="#FFFFFF" height="32" rx="2.5" ry="2.5" style="stroke:#181818;stroke-width:0.5;" width="173.5586" x="781" y="427"/><ellipse cx="796" cy="443" fill="#ADD1B2" rx="11" ry="11" style="stroke:#181818;stroke-width:1;"/><path d="M798.9688,448.6406 Q798.3906,448.9375 797.75,449.0781 Q797.1094,449.2344 796.4063,449.2344 Q793.9063,449.2344 792.5781,447.5938 Q791.2656,445.9375 791.2656,442.8125 Q791.2656,439.6875 792.5781,438.0313 Q793.9063,436.375 796.4063,436.375 Q797.1094,436.375 797.75,436.5313 Q798.4063,436.6875 798.9688,436.9844 L798.9688,439.7031 Q798.3438,439.125 797.75,438.8594 Q797.1563,438.5781 796.5313,438.5781 Q795.1875,438.5781 794.5,439.6563 Q793.8125,440.7188 793.8125,442.8125 Q793.8125,444.9063 794.5,445.9844 Q795.1875,447.0469 796.5313,447.0469 Q797.1563,447.0469 797.75,446.7813 Q798.3438,446.5 798.9688,445.9219 L798.9688,448.6406 Z " fill="#000000"/><text fill="#000000" font-family="sans-serif" font-size="14" lengthAdjust="spacing" textLength="141.5586" x="810" y="447.8467">Funding_Application</text></g><!--class Call_for_Funding_Applications--><g class="entity" data-entity="Call_for_Funding_Applications" data-source-line="571" data-uid="ent0053" id="entity_Call_for_Funding_Applications"><rect fill="#FFFFFF" height="32" rx="2.5" ry="2.5" style="stroke:#181818;stroke-width:0.5;" width="240.2363" x="7" y="427"/><ellipse cx="22" cy="443" fill="#ADD1B2" rx="11" ry="11" style="stroke:#181818;stroke-width:1;"/><path d="M24.9688,448.6406 Q24.3906,448.9375 23.75,449.0781 Q23.1094,449.2344 22.4063,449.2344 Q19.9063,449.2344 18.5781,447.5938 Q17.2656,445.9375 17.2656,442.8125 Q17.2656,439.6875 18.5781,438.0313 Q19.9063,436.375 22.4063,436.375 Q23.1094,436.375 23.75,436.5313 Q24.4063,436.6875 24.9688,436.9844 L24.9688,439.7031 Q24.3438,439.125 23.75,438.8594 Q23.1563,438.5781 22.5313,438.5781 Q21.1875,438.5781 20.5,439.6563 Q19.8125,440.7188 19.8125,442.8125 Q19.8125,444.9063 20.5,445.9844 Q21.1875,447.0469 22.5313,447.0469 Q23.1563,447.0469 23.75,446.7813 Q24.3438,446.5 24.9688,445.9219 L24.9688,448.6406 Z " fill="#000000"/><text fill="#000000" font-family="sans-serif" font-size="14" lengthAdjust="spacing" textLength="208.2363" x="36" y="447.8467">Call_for_Funding_Applications</text></g><!--link Call_for_Applications to Application--><g class="link" data-entity-1="Call_for_Applications" data-entity-2="Application" data-source-line="617" data-uid="lnk5" id="link_Call_for_Applications_Application"><path codeLine="617" d="M167.92,293.98 C210.68,278.16 280.12,255.07 342.5,246 C472.35,227.13 760.15,273.65 795,282 C800.81,283.39 806.78,285.13 812.68,287.06" fill="none" id="Call_for_Applications-Application" style="stroke:#181818;stroke-width:1;"/><polygon fill="#000000" points="342.5003,243.6201,351.5764,246.4618,351.5133,240.5842,342.5003,243.6201" style="stroke:#000000;stroke-width:1;"/><text fill="#000000" font-family="sans-serif" font-size="13" lengthAdjust="spacing" textLength="92.498" x="356.5" y="248.0669">in response to</text><text fill="#000000" font-family="sans-serif" font-size="13" lengthAdjust="spacing" textLength="24.8066" x="154.0168" y="282.9847">0..1</text><text fill="#000000" font-family="sans-serif" font-size="13" lengthAdjust="spacing" textLength="23.0356" x="781.9431" y="280.5978">0..*</text></g><!--reverse link Resource_Offer to Call_for_Applications--><g class="link" data-entity-1="Resource_Offer" data-entity-2="Call_for_Applications" data-source-line="729" data-uid="lnk7" id="link_Resource_Offer_Call_for_Applications"><path codeLine="729" d="M402.3294,204.1646 C361.4494,211.5846 326.93,219.65 282,235 C235.16,251 183.89,277.37 153.63,293.93" fill="none" id="Resource_Offer-backto-Call_for_Applications" style="stroke:#181818;stroke-width:1;"/><polygon fill="none" points="420.04,200.95,401.2578,198.2611,403.4009,210.0681,420.04,200.95" style="stroke:#181818;stroke-width:1;"/></g><!--reverse link Resource_Request to Application--><g class="link" data-entity-1="Resource_Request" data-entity-2="Application" data-source-line="747" data-uid="lnk9" id="link_Resource_Request_Application"><path codeLine="747" d="M862.9443,223.0391 C864.0743,242.2991 865,258.03 866.4,281.82" fill="none" id="Resource_Request-backto-Application" style="stroke:#181818;stroke-width:1;"/><polygon fill="none" points="861.89,205.07,856.9546,223.3905,868.934,222.6877,861.89,205.07" style="stroke:#181818;stroke-width:1;"/></g><!--link Document to apoint14--><g class="link" data-entity-1="Document" data-entity-2="apoint14" data-source-line="317" data-uid="lnk16" id="link_Document_apoint14"><path d="M441.74,338.11 C429.25,351.43 419.58,368.2 426,385 C436.81,413.28 468.82,436.4 475.69,441.12" fill="none" id="Document-apoint14" style="stroke:#181818;stroke-width:1;"/><polygon fill="#000000" points="432.5651,381.3151,432.5251,371.8047,426.9426,373.6445,432.5651,381.3151" style="stroke:#000000;stroke-width:1;"/><text fill="#000000" font-family="sans-serif" font-size="13" lengthAdjust="spacing" textLength="57.8398" x="440" y="381.0669">is part of</text><text fill="#000000" font-family="sans-serif" font-size="13" lengthAdjust="spacing" textLength="23.0356" x="408.177" y="358.3927">0..*</text></g><!--link apoint14 to Document--><g class="link" data-entity-1="apoint14" data-entity-2="Document" data-source-line="317" data-uid="lnk17" id="link_apoint14_Document"><path d="M477.79,440.98 C482.72,434.54 508.68,398.74 502,368 C499.78,357.8 495.57,347.23 491.18,338.01" fill="none" id="apoint14-Document" style="stroke:#181818;stroke-width:1;"/><text fill="#000000" font-family="sans-serif" font-size="13" lengthAdjust="spacing" textLength="23.0356" x="469.05" y="358.2696">0..*</text></g><!--link apoint14 to Contents_Location--><g class="link" data-entity-1="apoint14" data-entity-2="Contents_Location" data-source-line="317" data-uid="lnk18" id="link_apoint14_Contents_Location"><path d="M477,445.43 C477,454.57 477,505.43 477,539.7" fill="none" id="apoint14-Contents_Location" style="stroke:#181818;stroke-width:1;stroke-dasharray:7,7;"/></g><!--link Document to Document--><g class="link" data-entity-1="Document" data-entity-2="Document" data-source-line="319" data-uid="lnk19" id="link_Document_Document"><path codeLine="319" d="M567.54,297.96 C587.77,299.09 602.5,303.1 602.5,310 C602.5,316.9 587.77,320.91 567.54,322.04" fill="none" id="Document-Document" style="stroke:#181818;stroke-width:1;"/><polygon fill="#000000" points="607.7789,315.0586,610.2088,305.8637,604.3401,306.1915,607.7789,315.0586" style="stroke:#000000;stroke-width:1;"/><text fill="#000000" font-family="sans-serif" font-size="13" lengthAdjust="spacing" textLength="167.5464" x="621.5" y="314.5669">another representation of</text><text fill="#000000" font-family="sans-serif" font-size="13" lengthAdjust="spacing" textLength="23.0356" x="575.4353" y="293.5246">0..*</text><text fill="#000000" font-family="sans-serif" font-size="13" lengthAdjust="spacing" textLength="23.0356" x="575.4353" y="319.4482">0..*</text></g><!--reverse link Contents_Location to Page_Based_Contents_Location--><g class="link" data-entity-1="Contents_Location" data-entity-2="Page_Based_Contents_Location" data-source-line="333" data-uid="lnk21" id="link_Contents_Location_Page_Based_Contents_Location"><path codeLine="333" d="M431.4143,617.8177 C410.5043,638.1477 396.12,652.14 373.79,673.84" fill="none" id="Contents_Location-backto-Page_Based_Contents_Location" style="stroke:#181818;stroke-width:1;"/><polygon fill="none" points="444.32,605.27,427.2318,613.5158,435.5969,622.1196,444.32,605.27" style="stroke:#181818;stroke-width:1;"/></g><!--reverse link Contents_Location to Time_Based_Contents_Location--><g class="link" data-entity-1="Contents_Location" data-entity-2="Time_Based_Contents_Location" data-source-line="340" data-uid="lnk23" id="link_Contents_Location_Time_Based_Contents_Location"><path codeLine="340" d="M522.5857,617.8177 C543.4957,638.1477 557.88,652.14 580.21,673.84" fill="none" id="Contents_Location-backto-Time_Based_Contents_Location" style="stroke:#181818;stroke-width:1;"/><polygon fill="none" points="509.68,605.27,518.4031,622.1196,526.7682,613.5158,509.68,605.27" style="stroke:#181818;stroke-width:1;"/></g><!--link Agent to Date_Range--><g class="link" data-entity-1="Agent" data-entity-2="Date_Range" data-source-line="15" data-uid="lnk26" id="link_Agent_Date_Range"><path codeLine="15" d="M1104.42,96.03 C1178.04,122.41 1261.7621,152.4248 1313.2421,170.8848" fill="none" id="Agent-to-Date_Range" style="stroke:#181818;stroke-width:1;stroke-dasharray:7,7;"/><polygon fill="#181818" points="1318.89,172.91,1311.7684,166.1069,1314.1834,171.2223,1309.068,173.6374,1318.89,172.91" style="stroke:#181818;stroke-width:1;"/></g><!--link Agent to Contact_Information--><g class="link" data-entity-1="Agent" data-entity-2="Contact_Information" data-source-line="16" data-uid="lnk28" id="link_Agent_Contact_Information"><path codeLine="16" d="M1121.18,85.99 C1235.96,113.82 1388.0489,150.6866 1474.1089,171.5466" fill="none" id="Agent-to-Contact_Information" style="stroke:#181818;stroke-width:1;stroke-dasharray:7,7;"/><polygon fill="#181818" points="1479.94,172.96,1472.1355,166.9525,1475.0807,171.7822,1470.251,174.7273,1479.94,172.96" style="stroke:#181818;stroke-width:1;"/><text fill="#000000" font-family="sans-serif" font-size="13" lengthAdjust="spacing" textLength="23.0356" x="1431.702" y="161.9578">0..*</text></g><!--reverse link Agent to Resource_Offer--><g class="link" data-entity-1="Agent" data-entity-2="Resource_Offer" data-source-line="609" data-uid="lnk30" id="link_Agent_Resource_Offer"><path codeLine="609" d="M838.9047,92.1005 C739.4947,119.4305 616.59,153.21 544.73,172.96" fill="none" id="Agent-backto-Resource_Offer" style="stroke:#181818;stroke-width:1;"/><polygon fill="#181818" points="844.69,90.51,834.9516,89.0389,839.8689,91.8354,837.0723,96.7527,844.69,90.51" style="stroke:#181818;stroke-width:1;"/><text fill="#000000" font-family="sans-serif" font-size="13" lengthAdjust="spacing" textLength="74.1343" x="762.7495" y="89.0102">solicited by</text></g><!--link Resource_Offer to Resource--><g class="link" data-entity-1="Resource_Offer" data-entity-2="Resource" data-source-line="725" data-uid="lnk31" id="link_Resource_Offer_Resource"><path codeLine="725" d="M559.59,199.42 C615.4,207.45 695.6,220.04 765,235 C843.73,251.97 863.62,256.46 940,282 C950.47,285.5 956.0882,287.5291 966.2682,291.6491" fill="none" id="Resource_Offer-to-Resource" style="stroke:#181818;stroke-width:1;"/><polygon fill="#181818" points="971.83,293.9,964.988,286.8158,967.1952,292.0242,961.9867,294.2314,971.83,293.9" style="stroke:#181818;stroke-width:1;"/><polygon fill="#000000" points="848.8762,244.6723,840.7051,239.8056,839.4051,245.5379,848.8762,244.6723" style="stroke:#000000;stroke-width:1;"/><text fill="#000000" font-family="sans-serif" font-size="13" lengthAdjust="spacing" textLength="12.5303" x="853" y="248.0669">of</text><text fill="#000000" font-family="sans-serif" font-size="13" lengthAdjust="spacing" textLength="23.0356" x="567.9344" y="196.7949">0..*</text><text fill="#000000" font-family="sans-serif" font-size="13" lengthAdjust="spacing" textLength="23.0356" x="932.7693" y="282.8772">1..*</text></g><!--reverse link Resource_Offer to Condition--><g class="link" data-entity-1="Resource_Offer" data-entity-2="Condition" data-source-line="738" data-uid="lnk33" id="link_Resource_Offer_Condition"><path codeLine="738" d="M408.4489,198.7731 C359.6489,205.3931 312.4,215.6 297,235 C283.81,251.62 288.87,277.56 294.13,293.9" fill="none" id="Resource_Offer-backto-Condition" style="stroke:#181818;stroke-width:1;"/><polygon fill="none" points="420.34,197.16,413.8568,194.0029,408.4489,198.7731,414.9322,201.9302,420.34,197.16" style="stroke:#181818;stroke-width:1;"/><polygon fill="#000000" points="298.1566,246.7646,306.9892,243.2381,303.2295,238.7199,298.1566,246.7646" style="stroke:#000000;stroke-width:1;"/><text fill="#000000" font-family="sans-serif" font-size="13" lengthAdjust="spacing" textLength="22.9785" x="311" y="248.0669">has</text><text fill="#000000" font-family="sans-serif" font-size="13" lengthAdjust="spacing" textLength="23.0356" x="265.1983" y="282.8772">0..*</text></g><!--reverse link Resource_Offer to Document--><g class="link" data-entity-1="Resource_Offer" data-entity-2="Document" data-source-line="751" data-uid="lnk34" id="link_Resource_Offer_Document"><path codeLine="751" d="M486.8254,216.9875 C484.5554,236.2475 482,258.03 479.2,281.82" fill="none" id="Resource_Offer-backto-Document" style="stroke:#181818;stroke-width:1;"/><polygon fill="none" points="488.23,205.07,483.5552,210.5606,486.8254,216.9875,491.5002,211.497,488.23,205.07" style="stroke:#181818;stroke-width:1;"/><polygon fill="#000000" points="489.4159,248.5322,493.3913,239.8923,487.5537,239.2057,489.4159,248.5322" style="stroke:#000000;stroke-width:1;"/><text fill="#000000" font-family="sans-serif" font-size="13" lengthAdjust="spacing" textLength="83.7065" x="499" y="248.0669">described by</text><text fill="#000000" font-family="sans-serif" font-size="13" lengthAdjust="spacing" textLength="24.8066" x="459.7384" y="224.9665">0..1</text><text fill="#000000" font-family="sans-serif" font-size="13" lengthAdjust="spacing" textLength="23.0356" x="454.4024" y="271.064">0..*</text></g><!--reverse link Agent to Resource_Request--><g class="link" data-entity-1="Agent" data-entity-2="Resource_Request" data-source-line="601" data-uid="lnk36" id="link_Agent_Resource_Request"><path codeLine="601" d="M968.6422,102.05 C962.5622,118.08 956,129.87 944,143 C932.28,155.83 916.03,165.75 901.02,172.97" fill="none" id="Agent-backto-Resource_Request" style="stroke:#181818;stroke-width:1;"/><polygon fill="#181818" points="970.77,96.44,963.8383,103.4365,968.9968,101.115,971.3183,106.2736,970.77,96.44" style="stroke:#181818;stroke-width:1;"/><polygon fill="#000000" points="964.4504,130.9477,956.0816,135.4659,960.3356,139.5221,964.4504,130.9477" style="stroke:#000000;stroke-width:1;"/><text fill="#000000" font-family="sans-serif" font-size="13" lengthAdjust="spacing" textLength="63.0449" x="970" y="139.0669">requester</text><text fill="#000000" font-family="sans-serif" font-size="13" lengthAdjust="spacing" textLength="24.8066" x="943.4201" y="115.8983">0..1</text></g><!--reverse link Agent to Resource_Request--><g class="link" data-entity-1="Agent" data-entity-2="Resource_Request" data-source-line="605" data-uid="lnk38" id="link_Agent_Resource_Request"><path codeLine="605" d="M875.9496,99.8017 C865.3696,108.2417 860.73,114.41 854,126 C845.67,140.33 849.8,159.68 854.47,172.93" fill="none" id="Agent-backto-Resource_Request-1" style="stroke:#181818;stroke-width:1;"/><polygon fill="#181818" points="880.64,96.06,871.1099,98.5456,876.7313,99.1781,876.0989,104.7995,880.64,96.06" style="stroke:#181818;stroke-width:1;"/><polygon fill="#000000" points="860.4091,129.7691,855.0402,137.6193,860.6798,139.2758,860.4091,129.7691" style="stroke:#000000;stroke-width:1;"/><text fill="#000000" font-family="sans-serif" font-size="13" lengthAdjust="spacing" textLength="67.355" x="868" y="139.0669">addressee</text><text fill="#000000" font-family="sans-serif" font-size="13" lengthAdjust="spacing" textLength="24.8066" x="839.1911" y="116.1171">0..1</text></g><!--reverse link Resource_Request to Document--><g class="link" data-entity-1="Resource_Request" data-entity-2="Document" data-source-line="621" data-uid="lnk39" id="link_Resource_Request_Document"><path codeLine="621" d="M770.4678,207.4842 C733.8778,215.1942 701.73,223.01 663,235 C620.31,248.21 573.56,266.71 537.48,281.91" fill="none" id="Resource_Request-backto-Document" style="stroke:#181818;stroke-width:1;"/><polygon fill="none" points="782.21,205.01,775.5142,202.3331,770.4678,207.4842,777.1637,210.1612,782.21,205.01" style="stroke:#181818;stroke-width:1;"/><polygon fill="#000000" points="663.2371,245.0879,672.7476,245.1351,670.959,239.536,663.2371,245.0879" style="stroke:#000000;stroke-width:1;"/><text fill="#000000" font-family="sans-serif" font-size="13" lengthAdjust="spacing" textLength="83.7065" x="677" y="248.0669">described by</text><text fill="#000000" font-family="sans-serif" font-size="13" lengthAdjust="spacing" textLength="24.8066" x="525.0304" y="270.7277">0..1</text></g><!--link Resource_Request to Resource_Request--><g class="link" data-entity-1="Resource_Request" data-entity-2="Resource_Request" data-source-line="755" data-uid="lnk40" id="link_Resource_Request_Resource_Request"><path codeLine="755" d="M942.04,179.02 C962.07,179.74 977,183.07 977,189 C977,194.93 968.0661,198.0445 948.0361,198.7645" fill="none" id="Resource_Request-to-Resource_Request" style="stroke:#181818;stroke-width:1;"/><polygon fill="#181818" points="942.04,198.98,951.1779,202.6541,947.0368,198.8004,950.8905,194.6593,942.04,198.98" style="stroke:#181818;stroke-width:1;"/><polygon fill="#000000" points="982.1796,194.0632,984.7917,184.9184,978.9177,185.1295,982.1796,194.0632" style="stroke:#000000;stroke-width:1;"/><text fill="#000000" font-family="sans-serif" font-size="13" lengthAdjust="spacing" textLength="46.1919" x="996" y="193.5669">revises</text><text fill="#000000" font-family="sans-serif" font-size="13" lengthAdjust="spacing" textLength="23.0356" x="949.72" y="174.6448">0..*</text><text fill="#000000" font-family="sans-serif" font-size="13" lengthAdjust="spacing" textLength="24.8066" x="949.5007" y="196.2498">0..1</text></g><!--link Resource_Request to Resource--><g class="link" data-entity-1="Resource_Request" data-entity-2="Resource" data-source-line="759" data-uid="lnk41" id="link_Resource_Request_Resource"><path codeLine="759" d="M879.49,205.07 C907.42,227.84 955.4399,266.9684 983.5499,289.8884" fill="none" id="Resource_Request-to-Resource" style="stroke:#181818;stroke-width:1;"/><polygon fill="#181818" points="988.2,293.68,983.7525,284.8925,984.3249,290.5203,978.6971,291.0927,988.2,293.68" style="stroke:#181818;stroke-width:1;"/><polygon fill="#000000" points="942.8756,246.7254,937.7214,238.7327,934.0077,243.2888,942.8756,246.7254" style="stroke:#000000;stroke-width:1;"/><text fill="#000000" font-family="sans-serif" font-size="13" lengthAdjust="spacing" textLength="12.5303" x="948" y="248.0669">of</text><text fill="#000000" font-family="sans-serif" font-size="13" lengthAdjust="spacing" textLength="23.0356" x="858.8715" y="224.9665">0..*</text><text fill="#000000" font-family="sans-serif" font-size="13" lengthAdjust="spacing" textLength="23.0356" x="985.7646" y="282.8785">1..*</text></g><!--link Funding to Monetary_Amount--><g class="link" data-entity-1="Funding" data-entity-2="Monetary_Amount" data-source-line="285" data-uid="lnk44" id="link_Funding_Monetary_Amount"><path codeLine="285" d="M1109,471.04 C1109,488.73 1109,506.14 1109,525.91" fill="none" id="Funding-to-Monetary_Amount" style="stroke:#181818;stroke-width:1;stroke-dasharray:7,7;"/><polygon fill="#181818" points="1109,531.91,1113,522.91,1109,526.91,1105,522.91,1109,531.91" style="stroke:#181818;stroke-width:1;"/></g><!--reverse link Resource to Funding--><g class="link" data-entity-1="Resource" data-entity-2="Funding" data-source-line="289" data-uid="lnk45" id="link_Resource_Funding"><path codeLine="289" d="M1029.7587,340.2323 C1046.6087,361.8723 1066.92,387.96 1087.88,414.88" fill="none" id="Resource-backto-Funding" style="stroke:#181818;stroke-width:1;"/><polygon fill="none" points="1018.7,326.03,1025.0245,343.9185,1034.4928,336.5461,1018.7,326.03" style="stroke:#181818;stroke-width:1;"/></g><!--link Funding to Funding--><g class="link" data-entity-1="Funding" data-entity-2="Funding" data-source-line="369" data-uid="lnk46" id="link_Funding_Funding"><path codeLine="369" d="M1219.71,432.7 C1240.14,433.99 1254.5,437.42 1254.5,443 C1254.5,448.58 1240.14,452.01 1219.71,453.3" fill="none" id="Funding-Funding" style="stroke:#181818;stroke-width:1;"/><polygon fill="#000000" points="1259.8151,448.0565,1262.1782,438.8442,1256.312,439.2146,1259.8151,448.0565" style="stroke:#000000;stroke-width:1;"/><text fill="#000000" font-family="sans-serif" font-size="13" lengthAdjust="spacing" textLength="57.8398" x="1273.5" y="447.5669">is part of</text><text fill="#000000" font-family="sans-serif" font-size="13" lengthAdjust="spacing" textLength="23.0356" x="1227.9141" y="428.5654">0..*</text><text fill="#000000" font-family="sans-serif" font-size="13" lengthAdjust="spacing" textLength="23.0356" x="1227.9141" y="450.5495">0..*</text></g><!--link Activity to Funding--><g class="link" data-entity-1="Activity" data-entity-2="Funding" data-source-line="860" data-uid="lnk48" id="link_Activity_Funding"><path codeLine="860" d="M1109,211.01 C1109,252.23 1109,355.61 1109,408.68" fill="none" id="Activity-Funding" style="stroke:#181818;stroke-width:1;"/><polygon fill="#181818" points="1109,205.01,1105,214.01,1109,210.01,1113,214.01,1109,205.01" style="stroke:#181818;stroke-width:1;"/><polygon fill="#181818" points="1109,414.68,1113,405.68,1109,409.68,1105,405.68,1109,414.68" style="stroke:#181818;stroke-width:1;"/><text fill="#000000" font-family="sans-serif" font-size="13" lengthAdjust="spacing" textLength="70.0781" x="1027.0505" y="225.1813">0..* covers</text><text fill="#000000" font-family="sans-serif" font-size="13" lengthAdjust="spacing" textLength="92.8027" x="1006.9989" y="403.8933">0..* funded by</text></g><!--link Project to Funding--><g class="link" data-entity-1="Project" data-entity-2="Funding" data-source-line="861" data-uid="lnk50" id="link_Project_Funding"><path codeLine="861" d="M1217.4258,210.4439 C1198.1258,251.6639 1149.1844,356.1762 1124.3344,409.2462" fill="none" id="Project-Funding" style="stroke:#181818;stroke-width:1;"/><polygon fill="#181818" points="1219.97,205.01,1212.5311,211.4646,1217.8498,209.5382,1219.7762,214.857,1219.97,205.01" style="stroke:#181818;stroke-width:1;"/><polygon fill="#181818" points="1121.79,414.68,1129.2291,408.2256,1123.9103,410.1518,1121.984,404.8331,1121.79,414.68" style="stroke:#181818;stroke-width:1;"/><text fill="#000000" font-family="sans-serif" font-size="13" lengthAdjust="spacing" textLength="70.0781" x="1152.9806" y="224.9923">0..* covers</text><text fill="#000000" font-family="sans-serif" font-size="13" lengthAdjust="spacing" textLength="92.8027" x="1134.7117" y="403.8933">0..* funded by</text></g><!--reverse link Application to Funding_Application--><g class="link" data-entity-1="Application" data-entity-2="Funding_Application" data-source-line="562" data-uid="lnk52" id="link_Application_Funding_Application"><path codeLine="562" d="M868,356.14 C868,382.97 868,405.06 868,426.75" fill="none" id="Application-backto-Funding_Application" style="stroke:#181818;stroke-width:1;"/><polygon fill="none" points="868,338.14,862,356.14,874,356.14,868,338.14" style="stroke:#181818;stroke-width:1;"/></g><!--reverse link Call_for_Applications to Call_for_Funding_Applications--><g class="link" data-entity-1="Call_for_Applications" data-entity-2="Call_for_Funding_Applications" data-source-line="633" data-uid="lnk54" id="link_Call_for_Applications_Call_for_Funding_Applications"><path codeLine="633" d="M127,344.03 C127,369.16 127,401.46 127,426.74" fill="none" id="Call_for_Applications-backto-Call_for_Funding_Applications" style="stroke:#181818;stroke-width:1;"/><polygon fill="none" points="127,326.03,121,344.03,133,344.03,127,326.03" style="stroke:#181818;stroke-width:1;"/></g><!--SRC=[ZT4n3iCm20NGFQSW5-WTgbHPA-K2LafmPCa6ruJxjqkh3Wt9p8Cl002WJupP5b9x04gZIxMIUvHIX3lO1SESSuZImhNMd73Uah0w_eSvQY8LQqWEkGbQ8TwyhDMlVrB2FKPgP-14JoFrPWx2IphORhItuVLOX7FN-lxWJvjsBm00]--></g></svg>