<?xml version="1.0" encoding="UTF-8" standalone="no"?><svg xmlns="http://www.w3.org/2000/svg" xmlns:xlink="http://www.w3.org/1999/xlink" contentScriptType="application/ecmascript" contentStyleType="text/css" height="431px" preserveAspectRatio="none" style="width:1089px;height:431px;background:#FFFFFF;" version="1.1" viewBox="0 0 1089 431" width="1089px" zoomAndPan="magnify"><defs><filter height="300%" id="f17ftl0bkxg675" width="300%" x="-1" y="-1"><feGaussianBlur result="blurOut" stdDeviation="2.0"/><feColorMatrix in="blurOut" result="blurOut2" type="matrix" values="0 0 0 0 0 0 0 0 0 0 0 0 0 0 0 0 0 0 .4 0"/><feOffset dx="4.0" dy="4.0" in="blurOut2" result="blurOut3"/><feBlend in="SourceGraphic" in2="blurOut3" mode="normal"/></filter></defs><g><!--MD5=[0b4e4b4980470ea387cc45de9bd14b5b]
class Application--><rect codeLine="137" fill="#FFFFFF" filter="url(#f17ftl0bkxg675)" height="52.8047" id="Application" style="stroke:#A80036;stroke-width:1.5;" width="101" x="424" y="116"/><ellipse cx="439" cy="132" fill="#ADD1B2" rx="11" ry="11" style="stroke:#A80036;stroke-width:1.0;"/><path d="M441.9688,137.6406 Q441.3906,137.9375 440.75,138.0781 Q440.1094,138.2344 439.4063,138.2344 Q436.9063,138.2344 435.5781,136.5938 Q434.2656,134.9375 434.2656,131.8125 Q434.2656,128.6875 435.5781,127.0313 Q436.9063,125.375 439.4063,125.375 Q440.1094,125.375 440.75,125.5313 Q441.4063,125.6875 441.9688,125.9844 L441.9688,128.7031 Q441.3438,128.125 440.75,127.8594 Q440.1563,127.5781 439.5313,127.5781 Q438.1875,127.5781 437.5,128.6563 Q436.8125,129.7188 436.8125,131.8125 Q436.8125,133.9063 437.5,134.9844 Q438.1875,136.0469 439.5313,136.0469 Q440.1563,136.0469 440.75,135.7813 Q441.3438,135.5 441.9688,134.9219 L441.9688,137.6406 Z " fill="#000000"/><text fill="#000000" font-family="sans-serif" font-size="12" lengthAdjust="spacing" textLength="69" x="453" y="136.1543">Application</text><line style="stroke:#A80036;stroke-width:1.5;" x1="425" x2="524" y1="148" y2="148"/><text fill="#000000" font-family="sans-serif" font-size="11" lengthAdjust="spacing" textLength="63" x="430" y="162.2104">date : Date</text><!--MD5=[3db53164d4ddbdea4156eda8a776d7e7]
class Decision--><rect codeLine="141" fill="#FFFFFF" filter="url(#f17ftl0bkxg675)" height="52.8047" id="Decision" style="stroke:#A80036;stroke-width:1.5;" width="85" x="672" y="116"/><ellipse cx="687" cy="132" fill="#ADD1B2" rx="11" ry="11" style="stroke:#A80036;stroke-width:1.0;"/><path d="M689.9688,137.6406 Q689.3906,137.9375 688.75,138.0781 Q688.1094,138.2344 687.4063,138.2344 Q684.9063,138.2344 683.5781,136.5938 Q682.2656,134.9375 682.2656,131.8125 Q682.2656,128.6875 683.5781,127.0313 Q684.9063,125.375 687.4063,125.375 Q688.1094,125.375 688.75,125.5313 Q689.4063,125.6875 689.9688,125.9844 L689.9688,128.7031 Q689.3438,128.125 688.75,127.8594 Q688.1563,127.5781 687.5313,127.5781 Q686.1875,127.5781 685.5,128.6563 Q684.8125,129.7188 684.8125,131.8125 Q684.8125,133.9063 685.5,134.9844 Q686.1875,136.0469 687.5313,136.0469 Q688.1563,136.0469 688.75,135.7813 Q689.3438,135.5 689.9688,134.9219 L689.9688,137.6406 Z " fill="#000000"/><text fill="#000000" font-family="sans-serif" font-size="12" lengthAdjust="spacing" textLength="53" x="701" y="136.1543">Decision</text><line style="stroke:#A80036;stroke-width:1.5;" x1="673" x2="756" y1="148" y2="148"/><text fill="#000000" font-family="sans-serif" font-size="11" lengthAdjust="spacing" textLength="63" x="678" y="162.2104">date : Date</text><!--MD5=[6ff7a5782d5ed311fa9cacd2967fdc4e]
class Funding_Application--><rect codeLine="145" fill="#FFFFFF" filter="url(#f17ftl0bkxg675)" height="32" id="Funding_Application" style="stroke:#A80036;stroke-width:1.5;" width="157" x="365" y="269"/><ellipse cx="380" cy="285" fill="#ADD1B2" rx="11" ry="11" style="stroke:#A80036;stroke-width:1.0;"/><path d="M382.9688,290.6406 Q382.3906,290.9375 381.75,291.0781 Q381.1094,291.2344 380.4063,291.2344 Q377.9063,291.2344 376.5781,289.5938 Q375.2656,287.9375 375.2656,284.8125 Q375.2656,281.6875 376.5781,280.0313 Q377.9063,278.375 380.4063,278.375 Q381.1094,278.375 381.75,278.5313 Q382.4063,278.6875 382.9688,278.9844 L382.9688,281.7031 Q382.3438,281.125 381.75,280.8594 Q381.1563,280.5781 380.5313,280.5781 Q379.1875,280.5781 378.5,281.6563 Q377.8125,282.7188 377.8125,284.8125 Q377.8125,286.9063 378.5,287.9844 Q379.1875,289.0469 380.5313,289.0469 Q381.1563,289.0469 381.75,288.7813 Q382.3438,288.5 382.9688,287.9219 L382.9688,290.6406 Z " fill="#000000"/><text fill="#000000" font-family="sans-serif" font-size="12" lengthAdjust="spacing" textLength="125" x="394" y="289.1543">Funding_Application</text><!--MD5=[edcf71e28750a8856eb4372d573715ca]
class Call_for_Applications--><rect codeLine="148" fill="#FFFFFF" filter="url(#f17ftl0bkxg675)" height="32" id="Call_for_Applications" style="stroke:#A80036;stroke-width:1.5;" width="159" x="122" y="126.5"/><ellipse cx="137" cy="142.5" fill="#ADD1B2" rx="11" ry="11" style="stroke:#A80036;stroke-width:1.0;"/><path d="M139.9688,148.1406 Q139.3906,148.4375 138.75,148.5781 Q138.1094,148.7344 137.4063,148.7344 Q134.9063,148.7344 133.5781,147.0938 Q132.2656,145.4375 132.2656,142.3125 Q132.2656,139.1875 133.5781,137.5313 Q134.9063,135.875 137.4063,135.875 Q138.1094,135.875 138.75,136.0313 Q139.4063,136.1875 139.9688,136.4844 L139.9688,139.2031 Q139.3438,138.625 138.75,138.3594 Q138.1563,138.0781 137.5313,138.0781 Q136.1875,138.0781 135.5,139.1563 Q134.8125,140.2188 134.8125,142.3125 Q134.8125,144.4063 135.5,145.4844 Q136.1875,146.5469 137.5313,146.5469 Q138.1563,146.5469 138.75,146.2813 Q139.3438,146 139.9688,145.4219 L139.9688,148.1406 Z " fill="#000000"/><text fill="#000000" font-family="sans-serif" font-size="12" lengthAdjust="spacing" textLength="127" x="151" y="146.6543">Call_for_Applications</text><!--MD5=[0db85a2d6db180b105db5ebe9e86b106]
class Call_for_Funding_Applications--><rect codeLine="152" fill="#FFFFFF" filter="url(#f17ftl0bkxg675)" height="32" id="Call_for_Funding_Applications" style="stroke:#A80036;stroke-width:1.5;" width="215" x="7" y="269"/><ellipse cx="22" cy="285" fill="#ADD1B2" rx="11" ry="11" style="stroke:#A80036;stroke-width:1.0;"/><path d="M24.9688,290.6406 Q24.3906,290.9375 23.75,291.0781 Q23.1094,291.2344 22.4063,291.2344 Q19.9063,291.2344 18.5781,289.5938 Q17.2656,287.9375 17.2656,284.8125 Q17.2656,281.6875 18.5781,280.0313 Q19.9063,278.375 22.4063,278.375 Q23.1094,278.375 23.75,278.5313 Q24.4063,278.6875 24.9688,278.9844 L24.9688,281.7031 Q24.3438,281.125 23.75,280.8594 Q23.1563,280.5781 22.5313,280.5781 Q21.1875,280.5781 20.5,281.6563 Q19.8125,282.7188 19.8125,284.8125 Q19.8125,286.9063 20.5,287.9844 Q21.1875,289.0469 22.5313,289.0469 Q23.1563,289.0469 23.75,288.7813 Q24.3438,288.5 24.9688,287.9219 L24.9688,290.6406 Z " fill="#000000"/><text fill="#000000" font-family="sans-serif" font-size="12" lengthAdjust="spacing" textLength="183" x="36" y="289.1543">Call_for_Funding_Applications</text><!--MD5=[bb370c11d182b7ebaea7e6fa83404e81]
class Process--><rect codeLine="155" fill="#FFFFFF" filter="url(#f17ftl0bkxg675)" height="32" id="Process" style="stroke:#A80036;stroke-width:1.5;" width="82" x="940.5" y="126.5"/><ellipse cx="955.5" cy="142.5" fill="#ADD1B2" rx="11" ry="11" style="stroke:#A80036;stroke-width:1.0;"/><path d="M958.4688,148.1406 Q957.8906,148.4375 957.25,148.5781 Q956.6094,148.7344 955.9063,148.7344 Q953.4063,148.7344 952.0781,147.0938 Q950.7656,145.4375 950.7656,142.3125 Q950.7656,139.1875 952.0781,137.5313 Q953.4063,135.875 955.9063,135.875 Q956.6094,135.875 957.25,136.0313 Q957.9063,136.1875 958.4688,136.4844 L958.4688,139.2031 Q957.8438,138.625 957.25,138.3594 Q956.6563,138.0781 956.0313,138.0781 Q954.6875,138.0781 954,139.1563 Q953.3125,140.2188 953.3125,142.3125 Q953.3125,144.4063 954,145.4844 Q954.6875,146.5469 956.0313,146.5469 Q956.6563,146.5469 957.25,146.2813 Q957.8438,146 958.4688,145.4219 L958.4688,148.1406 Z " fill="#000000"/><text fill="#000000" font-family="sans-serif" font-size="12" lengthAdjust="spacing" textLength="50" x="969.5" y="146.6543">Process</text><!--MD5=[bfa9fc2bd29dedac75ce8a7e54eaaf24]
class Evaluation_Process--><rect codeLine="159" fill="#FFFFFF" filter="url(#f17ftl0bkxg675)" height="32" id="Evaluation_Process" style="stroke:#A80036;stroke-width:1.5;" width="153" x="865" y="269"/><ellipse cx="880" cy="285" fill="#ADD1B2" rx="11" ry="11" style="stroke:#A80036;stroke-width:1.0;"/><path d="M882.9688,290.6406 Q882.3906,290.9375 881.75,291.0781 Q881.1094,291.2344 880.4063,291.2344 Q877.9063,291.2344 876.5781,289.5938 Q875.2656,287.9375 875.2656,284.8125 Q875.2656,281.6875 876.5781,280.0313 Q877.9063,278.375 880.4063,278.375 Q881.1094,278.375 881.75,278.5313 Q882.4063,278.6875 882.9688,278.9844 L882.9688,281.7031 Q882.3438,281.125 881.75,280.8594 Q881.1563,280.5781 880.5313,280.5781 Q879.1875,280.5781 878.5,281.6563 Q877.8125,282.7188 877.8125,284.8125 Q877.8125,286.9063 878.5,287.9844 Q879.1875,289.0469 880.5313,289.0469 Q881.1563,289.0469 881.75,288.7813 Q882.3438,288.5 882.9688,287.9219 L882.9688,290.6406 Z " fill="#000000"/><text fill="#000000" font-family="sans-serif" font-size="12" lengthAdjust="spacing" textLength="121" x="894" y="289.1543">Evaluation_Process</text><!--MD5=[9d44916250b776386006c440668bcfbb]
class Agent--><rect codeLine="23" fill="#FFFFFF" filter="url(#f17ftl0bkxg675)" height="32" id="Agent" style="stroke:#A80036;stroke-width:1.5;" width="69" x="562" y="7"/><ellipse cx="577" cy="23" fill="#ADD1B2" rx="11" ry="11" style="stroke:#A80036;stroke-width:1.0;"/><path d="M579.9688,28.6406 Q579.3906,28.9375 578.75,29.0781 Q578.1094,29.2344 577.4063,29.2344 Q574.9063,29.2344 573.5781,27.5938 Q572.2656,25.9375 572.2656,22.8125 Q572.2656,19.6875 573.5781,18.0313 Q574.9063,16.375 577.4063,16.375 Q578.1094,16.375 578.75,16.5313 Q579.4063,16.6875 579.9688,16.9844 L579.9688,19.7031 Q579.3438,19.125 578.75,18.8594 Q578.1563,18.5781 577.5313,18.5781 Q576.1875,18.5781 575.5,19.6563 Q574.8125,20.7188 574.8125,22.8125 Q574.8125,24.9063 575.5,25.9844 Q576.1875,27.0469 577.5313,27.0469 Q578.1563,27.0469 578.75,26.7813 Q579.3438,26.5 579.9688,25.9219 L579.9688,28.6406 Z " fill="#000000"/><text fill="#000000" font-family="sans-serif" font-size="12" lengthAdjust="spacing" textLength="37" x="591" y="27.1543">Agent</text><!--MD5=[59b530d44ae785dc18db921986a9c15c]
class Document--><rect codeLine="8" fill="#FFFFFF" filter="url(#f17ftl0bkxg675)" height="78.4141" id="Document" style="stroke:#A80036;stroke-width:1.5;" width="148" x="612.5" y="246"/><ellipse cx="650.9" cy="262" fill="#ADD1B2" rx="11" ry="11" style="stroke:#A80036;stroke-width:1.0;"/><path d="M653.8688,267.6406 Q653.2906,267.9375 652.65,268.0781 Q652.0094,268.2344 651.3063,268.2344 Q648.8063,268.2344 647.4781,266.5938 Q646.1656,264.9375 646.1656,261.8125 Q646.1656,258.6875 647.4781,257.0313 Q648.8063,255.375 651.3063,255.375 Q652.0094,255.375 652.65,255.5313 Q653.3063,255.6875 653.8688,255.9844 L653.8688,258.7031 Q653.2438,258.125 652.65,257.8594 Q652.0563,257.5781 651.4313,257.5781 Q650.0875,257.5781 649.4,258.6563 Q648.7125,259.7188 648.7125,261.8125 Q648.7125,263.9063 649.4,264.9844 Q650.0875,266.0469 651.4313,266.0469 Q652.0563,266.0469 652.65,265.7813 Q653.2438,265.5 653.8688,264.9219 L653.8688,267.6406 Z " fill="#000000"/><text fill="#000000" font-family="sans-serif" font-size="12" lengthAdjust="spacing" textLength="64" x="670.1" y="266.1543">Document</text><line style="stroke:#A80036;stroke-width:1.5;" x1="613.5" x2="759.5" y1="278" y2="278"/><text fill="#000000" font-family="sans-serif" font-size="11" lengthAdjust="spacing" textLength="85" x="618.5" y="292.2104">DOI : DOI_Type</text><text fill="#000000" font-family="sans-serif" font-size="11" lengthAdjust="spacing" textLength="136" x="618.5" y="305.0151">title : Multilingual_String</text><text fill="#000000" font-family="sans-serif" font-size="11" lengthAdjust="spacing" textLength="125" x="618.5" y="317.8198">publicationDate : Date</text><!--MD5=[fe105c2ee1fabf2400c31a97ce9128bc]
class Textual_Document--><rect codeLine="13" fill="#FFFFFF" filter="url(#f17ftl0bkxg675)" height="32" id="Textual_Document" style="stroke:#A80036;stroke-width:1.5;" width="147" x="613" y="385"/><ellipse cx="628" cy="401" fill="#ADD1B2" rx="11" ry="11" style="stroke:#A80036;stroke-width:1.0;"/><path d="M630.9688,406.6406 Q630.3906,406.9375 629.75,407.0781 Q629.1094,407.2344 628.4063,407.2344 Q625.9063,407.2344 624.5781,405.5938 Q623.2656,403.9375 623.2656,400.8125 Q623.2656,397.6875 624.5781,396.0313 Q625.9063,394.375 628.4063,394.375 Q629.1094,394.375 629.75,394.5313 Q630.4063,394.6875 630.9688,394.9844 L630.9688,397.7031 Q630.3438,397.125 629.75,396.8594 Q629.1563,396.5781 628.5313,396.5781 Q627.1875,396.5781 626.5,397.6563 Q625.8125,398.7188 625.8125,400.8125 Q625.8125,402.9063 626.5,403.9844 Q627.1875,405.0469 628.5313,405.0469 Q629.1563,405.0469 629.75,404.7813 Q630.3438,404.5 630.9688,403.9219 L630.9688,406.6406 Z " fill="#000000"/><text fill="#000000" font-family="sans-serif" font-size="12" lengthAdjust="spacing" textLength="115" x="642" y="405.1543">Textual_Document</text><!--MD5=[0c5226e8f688e58cc6150c041928918d]
reverse link Agent to Application--><path codeLine="164" d="M586.81,43.85 C579.85,56.81 569.58,73.58 557.5,86 C546.62,97.18 533.14,107.36 520.22,115.86 " fill="none" id="Agent-backto-Application" style="stroke:#A80036;stroke-width:1.0;"/><polygon fill="#A80036" points="589.23,39.26,581.501,45.3644,586.903,43.6855,588.5819,49.0875,589.23,39.26" style="stroke:#A80036;stroke-width:1.0;"/><polygon fill="#000000" points="578.8947,73.8954,570.5959,78.541,574.9114,82.5316,578.8947,73.8954" style="stroke:#000000;stroke-width:1.0;"/><text fill="#000000" font-family="sans-serif" font-size="13" lengthAdjust="spacing" textLength="58" x="584.5" y="82.0669">applicant</text><text fill="#000000" font-family="sans-serif" font-size="13" lengthAdjust="spacing" textLength="24" x="559.0877" y="58.9216">0..1</text><!--MD5=[0c5226e8f688e58cc6150c041928918d]
reverse link Agent to Application--><path codeLine="168" d="M556.65,26.14 C526.72,30.09 487.56,40.76 467.5,69 C457.98,82.4 459.93,100.89 464.16,115.84 " fill="none" id="Agent-backto-Application-1" style="stroke:#A80036;stroke-width:1.0;"/><polygon fill="#A80036" points="561.75,25.52,552.3346,22.6304,556.7862,26.1208,553.2959,30.5725,561.75,25.52" style="stroke:#A80036;stroke-width:1.0;"/><polygon fill="#000000" points="476.0893,74.0854,467.5502,78.2729,471.6423,82.4923,476.0893,74.0854" style="stroke:#000000;stroke-width:1.0;"/><text fill="#000000" font-family="sans-serif" font-size="13" lengthAdjust="spacing" textLength="67" x="481.5" y="82.0669">addressee</text><text fill="#000000" font-family="sans-serif" font-size="13" lengthAdjust="spacing" textLength="24" x="530.007" y="21.7731">0..1</text><!--MD5=[08c6a5fbc728deaee606fab1d8cae3e6]
reverse link Agent to Call_for_Applications--><path codeLine="172" d="M556.73,35.83 C484.48,57.32 331.81,102.74 252.2,126.42 " fill="none" id="Agent-backto-Call_for_Applications" style="stroke:#A80036;stroke-width:1.0;"/><polygon fill="#A80036" points="561.79,34.32,552.0229,33.0535,556.9977,35.7463,554.3049,40.7211,561.79,34.32" style="stroke:#A80036;stroke-width:1.0;"/><text fill="#000000" font-family="sans-serif" font-size="13" lengthAdjust="spacing" textLength="38" x="515.9013" y="49.1608">issuer</text><!--MD5=[63e19720e237d2f75011a962b2d04785]
link Application to Application--><path codeLine="176" d="M525.41,130.53 C544.38,130.13 560,134.12 560,142.5 C560,150.09 547.17,154.08 530.65,154.47 " fill="none" id="Application-to-Application" style="stroke:#A80036;stroke-width:1.0;"/><polygon fill="#A80036" points="525.41,154.47,534.41,158.47,530.41,154.47,534.41,150.47,525.41,154.47" style="stroke:#A80036;stroke-width:1.0;"/><polygon fill="#000000" points="564.8946,147.5653,568.0235,138.5842,562.147,138.4603,564.8946,147.5653" style="stroke:#000000;stroke-width:1.0;"/><text fill="#000000" font-family="sans-serif" font-size="13" lengthAdjust="spacing" textLength="38" x="579" y="147.0669">revise</text><!--MD5=[3b1d0eeb0b3d7e59f7719a8193058899]
link Application to Evaluation_Process--><path codeLine="180" d="M511.49,169.03 C536.2,184.9 570.02,204.43 602.5,216 C677.25,242.62 700.71,230.32 778.5,246 C812.54,252.86 850.32,261.6 880.93,268.96 " fill="none" id="Application-Evaluation_Process" style="stroke:#A80036;stroke-width:1.0;"/><polygon fill="#000000" points="612.3265,208.8719,604.3626,203.6732,602.8279,209.3472,612.3265,208.8719" style="stroke:#000000;stroke-width:1.0;"/><text fill="#000000" font-family="sans-serif" font-size="13" lengthAdjust="spacing" textLength="75" x="616.5" y="212.0669">assessed in</text><text fill="#000000" font-family="sans-serif" font-size="13" lengthAdjust="spacing" textLength="24" x="832.8912" y="258.2513">0..1</text><!--MD5=[a59b92cc30ee8d24d8d720fed1533057]
link Call_for_Applications to Application--><path codeLine="184" d="M281.2,142.5 C327.31,142.5 383.95,142.5 423.97,142.5 " fill="none" id="Call_for_Applications-Application" style="stroke:#A80036;stroke-width:1.0;"/><polygon fill="#000000" points="298.5,131.0664,307.5451,134.0053,307.5451,128.1275,298.5,131.0664" style="stroke:#000000;stroke-width:1.0;"/><text fill="#000000" font-family="sans-serif" font-size="13" lengthAdjust="spacing" textLength="93" x="312.5" y="135.5669">in-response-to</text><text fill="#000000" font-family="sans-serif" font-size="13" lengthAdjust="spacing" textLength="24" x="289.0805" y="155.2171">0..1</text><text fill="#000000" font-family="sans-serif" font-size="13" lengthAdjust="spacing" textLength="23" x="393.0224" y="155.5489">0..*</text><!--MD5=[33d78e85ad541f0b21b2e8ffaf1167a1]
reverse link Application to Document--><path codeLine="188" d="M463.32,182.21 C462.16,194.01 463.46,206.4 470.5,216 C479.31,228.01 553.34,249.62 612.31,265.26 " fill="none" id="Application-backto-Document" style="stroke:#A80036;stroke-width:1.0;"/><polygon fill="#FFFFFF" points="465.5,169.3,460.5595,174.5527,463.508,181.1335,468.4485,175.8808,465.5,169.3" style="stroke:#A80036;stroke-width:1.0;"/><polygon fill="#000000" points="479.8673,210.0008,473.3977,203.0299,470.5358,208.164,479.8673,210.0008" style="stroke:#000000;stroke-width:1.0;"/><text fill="#000000" font-family="sans-serif" font-size="13" lengthAdjust="spacing" textLength="56" x="484.5" y="212.0669">contents</text><text fill="#000000" font-family="sans-serif" font-size="13" lengthAdjust="spacing" textLength="24" x="580.6337" y="259.8883">0..1</text><!--MD5=[84ee679edf117580f7008abf010245be]
link Application to Decision--><path codeLine="192" d="M525.1,142.5 C568.7,142.5 630.91,142.5 671.98,142.5 " fill="none" id="Application-Decision" style="stroke:#A80036;stroke-width:1.0;"/><polygon fill="#000000" points="583,131.0664,592.0451,134.0053,592.0451,128.1275,583,131.0664" style="stroke:#000000;stroke-width:1.0;"/><text fill="#000000" font-family="sans-serif" font-size="13" lengthAdjust="spacing" textLength="16" x="597" y="135.5669">on</text><text fill="#000000" font-family="sans-serif" font-size="13" lengthAdjust="spacing" textLength="24" x="639.9724" y="138.4894">0..1</text><!--MD5=[59b5fb7ed218924b31886ecd43e557af]
reverse link Decision to Document--><path codeLine="196" d="M706.78,182.23 C702.82,202.09 698.02,226.18 694.08,245.94 " fill="none" id="Decision-backto-Document" style="stroke:#A80036;stroke-width:1.0;"/><polygon fill="#FFFFFF" points="709.36,169.27,704.2643,174.3723,707.0142,181.0385,712.1099,175.9362,709.36,169.27" style="stroke:#A80036;stroke-width:1.0;"/><polygon fill="#000000" points="706.5225,212.4699,711.173,204.1739,705.4086,203.0248,706.5225,212.4699" style="stroke:#000000;stroke-width:1.0;"/><text fill="#000000" font-family="sans-serif" font-size="13" lengthAdjust="spacing" textLength="81" x="716.5" y="212.0669">expressed in</text><text fill="#000000" font-family="sans-serif" font-size="13" lengthAdjust="spacing" textLength="24" x="669.3203" y="234.9802">0..1</text><!--MD5=[dc4598ce2d2e32aede71f5bf98c1fc33]
reverse link Application to Funding_Application--><path codeLine="200" d="M442.34,186.82 C440.41,190.8 438.75,194.89 437.5,199 C430.34,222.65 435.08,251.61 439.23,268.9 " fill="none" id="Application-backto-Funding_Application" style="stroke:#A80036;stroke-width:1.0;"/><polygon fill="none" points="436.55,182.86,452.79,169.25,448.58,190.02,436.55,182.86" style="stroke:#A80036;stroke-width:1.0;"/><!--MD5=[b1eb0b711d801decc36dfa97abc1eb1f]
link Call_for_Funding_Applications to Funding_Application--><path codeLine="204" d="M222.23,285 C268.7,285 322.07,285 364.75,285 " fill="none" id="Call_for_Funding_Applications-Funding_Application" style="stroke:#A80036;stroke-width:1.0;"/><polygon fill="#000000" points="239.5,273.5664,248.5451,276.5053,248.5451,270.6275,239.5,273.5664" style="stroke:#000000;stroke-width:1.0;"/><text fill="#000000" font-family="sans-serif" font-size="13" lengthAdjust="spacing" textLength="93" x="253.5" y="278.0669">in-response-to</text><text fill="#000000" font-family="sans-serif" font-size="13" lengthAdjust="spacing" textLength="24" x="229.9002" y="297.5516">0..1</text><text fill="#000000" font-family="sans-serif" font-size="13" lengthAdjust="spacing" textLength="23" x="333.9941" y="297.7171">0..*</text><!--MD5=[ce01e496d5f2dcc88ba1226d075cb019]
reverse link Call_for_Applications to Call_for_Funding_Applications--><path codeLine="208" d="M181.41,175.94 C163.39,205.05 137.72,246.5 124.01,268.65 " fill="none" id="Call_for_Applications-backto-Call_for_Funding_Applications" style="stroke:#A80036;stroke-width:1.0;"/><polygon fill="none" points="175.71,171.85,192.19,158.54,187.61,179.23,175.71,171.85" style="stroke:#A80036;stroke-width:1.0;"/><!--MD5=[41c9ac674b5f25103c5b00866d730ba3]
reverse link Agent to Evaluation_Process--><path codeLine="212" d="M636.05,40.16 C673.52,56.44 730.47,83.71 774.5,116 C839.83,163.91 903.51,237.57 929.39,268.98 " fill="none" id="Agent-backto-Evaluation_Process" style="stroke:#A80036;stroke-width:1.0;"/><polygon fill="#A80036" points="631.12,38.03,637.8085,45.2594,635.7135,40.0048,640.9681,37.9098,631.12,38.03" style="stroke:#A80036;stroke-width:1.0;"/><polygon fill="#000000" points="835.5576,139.4911,840.8819,147.3717,844.4971,142.7371,835.5576,139.4911" style="stroke:#000000;stroke-width:1.0;"/><text fill="#000000" font-family="sans-serif" font-size="13" lengthAdjust="spacing" textLength="60" x="848.5" y="147.0669">organizer</text><text fill="#000000" font-family="sans-serif" font-size="13" lengthAdjust="spacing" textLength="23" x="617.2235" y="58.9942">0..*</text><!--MD5=[0b5e0cc6858c1049a2e1f4260a312e0d]
link Evaluation_Process to Agent--><path codeLine="228" d="M962.48,268.89 C1002.51,238.24 1082.28,167.33 1040.5,116 C989.6,53.47 735.9,32.11 636.52,26.06 " fill="none" id="Evaluation_Process-to-Agent" style="stroke:#A80036;stroke-width:1.0;"/><polygon fill="#A80036" points="631.33,25.75,640.0743,30.2818,636.321,26.0495,640.5534,22.2962,631.33,25.75" style="stroke:#A80036;stroke-width:1.0;"/><text fill="#000000" font-family="sans-serif" font-size="13" lengthAdjust="spacing" textLength="81" x="639.0984" y="22.3339">0..1 reviewer</text><!--MD5=[38d0ada77e49484a2b40cf506b09997b]
reverse link Process to Evaluation_Process--><path codeLine="224" d="M971.66,178.05 C963.41,207.02 952.03,247.03 945.87,268.65 " fill="none" id="Process-backto-Evaluation_Process" style="stroke:#A80036;stroke-width:1.0;"/><polygon fill="none" points="965.01,175.85,977.22,158.54,978.48,179.69,965.01,175.85" style="stroke:#A80036;stroke-width:1.0;"/><!--MD5=[67ceb885199ca7e1fa058287d8756a2e]
reverse link Document to Textual_Document--><path codeLine="355" d="M686.5,344.38 C686.5,359.35 686.5,374.19 686.5,384.77 " fill="none" id="Document-backto-Textual_Document" style="stroke:#A80036;stroke-width:1.0;"/><polygon fill="none" points="679.5,344.28,686.5,324.28,693.5,344.28,679.5,344.28" style="stroke:#A80036;stroke-width:1.0;"/><!--MD5=[5ff7cfd5fc76e774d9157c3c2b9e6108]
@startuml
    !includesub core.puml!common
    !includesub core.puml!Application
    !includesub core.puml!Document
    !includesub core.puml!Agent
@enduml

@startuml
        hide empty members
        skinparam BoxPadding 120
        class "Application" #ffffff {
            date : Date
        }

        class "Decision" #ffffff {
            date : Date
        }

        class "Funding_Application" #ffffff {
        }

        class "Call_for_Applications" #ffffff {

        }

        class "Call_for_Funding_Applications" #ffffff {
        }

        class "Process" #ffffff {

        }

        class "Evaluation_Process" #ffffff {
        }
        "Application" -u-> "0..1" "Agent" : applicant >
        "Application" -u-> "0..1" "Agent" : addressee >
		"Call_for_Applications" -u-> "issuer" "Agent"
        "Application" - -> "Application" : revise >
        "Application" - - "0..1" "Evaluation_Process" : assessed in >
        "Application" "0..*" -l- "0..1" "Call_for_Applications" : in-response-to >
        "Application" o- - "0..1" "Document" : contents >
        "Application" -r- "0..1" "Decision" : on <
        "Decision" o- - "0..1" "Document" : expressed in >
        "Application" <|-d- "Funding_Application"
        "Funding_Application" "0..*" -l- "0..1" "Call_for_Funding_Applications" : in-response-to >
        "Call_for_Applications" <|-d- "Call_for_Funding_Applications"
        "Evaluation_Process" -u-> "0..*" "Agent" : organizer >
        "Process" <|- - "Evaluation_Process"
        "Evaluation_Process" - -> "0..1 reviewer" "Agent"
        class "Document" #ffffff {
            DOI : DOI_Type
            title : Multilingual_String
            publicationDate : Date
        }
        class "Textual_Document" #ffffff {
        }
        "Document" <|- - "Textual_Document"
        class "Agent" #ffffff {
        }
@enduml

PlantUML version 1.2021.8(Sat Jun 26 08:20:59 UTC 2021)
(GPL source distribution)
Java Runtime: OpenJDK Runtime Environment
JVM: OpenJDK 64-Bit Server VM
Default Encoding: UTF-8
Language: en
Country: null
--></g></svg>