<?xml version="1.0" encoding="UTF-8" standalone="no"?><svg xmlns="http://www.w3.org/2000/svg" xmlns:xlink="http://www.w3.org/1999/xlink" contentScriptType="application/ecmascript" contentStyleType="text/css" height="349px" preserveAspectRatio="none" style="width:976px;height:349px;background:#FFFFFF;" version="1.1" viewBox="0 0 976 349" width="976px" zoomAndPan="magnify"><defs><filter height="300%" id="f1i7rfbw3wrvkm" width="300%" x="-1" y="-1"><feGaussianBlur result="blurOut" stdDeviation="2.0"/><feColorMatrix in="blurOut" result="blurOut2" type="matrix" values="0 0 0 0 0 0 0 0 0 0 0 0 0 0 0 0 0 0 .4 0"/><feOffset dx="4.0" dy="4.0" in="blurOut2" result="blurOut3"/><feBlend in="SourceGraphic" in2="blurOut3" mode="normal"/></filter></defs><g><!--MD5=[edcf71e28750a8856eb4372d573715ca]
class Call_for_Applications--><rect codeLine="364" fill="#FFFFFF" filter="url(#f1i7rfbw3wrvkm)" height="32" id="Call_for_Applications" style="stroke:#A80036;stroke-width:1.5;" width="159" x="35" y="150.1769"/><ellipse cx="50" cy="166.1769" fill="#ADD1B2" rx="11" ry="11" style="stroke:#A80036;stroke-width:1.0;"/><path d="M52.9688,171.8176 Q52.3906,172.1144 51.75,172.2551 Q51.1094,172.4113 50.4063,172.4113 Q47.9063,172.4113 46.5781,170.7707 Q45.2656,169.1144 45.2656,165.9894 Q45.2656,162.8644 46.5781,161.2082 Q47.9063,159.5519 50.4063,159.5519 Q51.1094,159.5519 51.75,159.7082 Q52.4063,159.8644 52.9688,160.1613 L52.9688,162.8801 Q52.3438,162.3019 51.75,162.0363 Q51.1563,161.7551 50.5313,161.7551 Q49.1875,161.7551 48.5,162.8332 Q47.8125,163.8957 47.8125,165.9894 Q47.8125,168.0832 48.5,169.1613 Q49.1875,170.2238 50.5313,170.2238 Q51.1563,170.2238 51.75,169.9582 Q52.3438,169.6769 52.9688,169.0988 L52.9688,171.8176 Z " fill="#000000"/><text fill="#000000" font-family="sans-serif" font-size="12" lengthAdjust="spacing" textLength="127" x="64" y="170.3312">Call_for_Applications</text><!--MD5=[9d44916250b776386006c440668bcfbb]
class Agent--><rect codeLine="10" fill="#FFFFFF" filter="url(#f1i7rfbw3wrvkm)" height="52.8047" id="Agent" style="stroke:#A80036;stroke-width:1.5;" width="133" x="140" y="9.6769"/><ellipse cx="183.8" cy="25.6769" fill="#ADD1B2" rx="11" ry="11" style="stroke:#A80036;stroke-width:1.0;"/><path d="M186.7688,31.3176 Q186.1906,31.6144 185.55,31.7551 Q184.9094,31.9113 184.2063,31.9113 Q181.7063,31.9113 180.3781,30.2707 Q179.0656,28.6144 179.0656,25.4894 Q179.0656,22.3644 180.3781,20.7082 Q181.7063,19.0519 184.2063,19.0519 Q184.9094,19.0519 185.55,19.2082 Q186.2063,19.3644 186.7688,19.6613 L186.7688,22.3801 Q186.1438,21.8019 185.55,21.5363 Q184.9563,21.2551 184.3313,21.2551 Q182.9875,21.2551 182.3,22.3332 Q181.6125,23.3957 181.6125,25.4894 Q181.6125,27.5832 182.3,28.6613 Q182.9875,29.7238 184.3313,29.7238 Q184.9563,29.7238 185.55,29.4582 Q186.1438,29.1769 186.7688,28.5988 L186.7688,31.3176 Z " fill="#000000"/><text fill="#000000" font-family="sans-serif" font-size="12" lengthAdjust="spacing" textLength="37" x="204.2" y="29.8312">Agent</text><line style="stroke:#A80036;stroke-width:1.5;" x1="141" x2="272" y1="41.6769" y2="41.6769"/><text fill="#000000" font-family="sans-serif" font-size="11" lengthAdjust="spacing" textLength="121" x="146" y="55.8874">lifetime : Date_Range</text><!--MD5=[0b4e4b4980470ea387cc45de9bd14b5b]
class Application--><rect codeLine="343" fill="#FFFFFF" filter="url(#f1i7rfbw3wrvkm)" height="52.8047" id="Application" style="stroke:#A80036;stroke-width:1.5;" width="101" x="335" y="139.6769"/><ellipse cx="350" cy="155.6769" fill="#ADD1B2" rx="11" ry="11" style="stroke:#A80036;stroke-width:1.0;"/><path d="M352.9688,161.3176 Q352.3906,161.6144 351.75,161.7551 Q351.1094,161.9113 350.4063,161.9113 Q347.9063,161.9113 346.5781,160.2707 Q345.2656,158.6144 345.2656,155.4894 Q345.2656,152.3644 346.5781,150.7082 Q347.9063,149.0519 350.4063,149.0519 Q351.1094,149.0519 351.75,149.2082 Q352.4063,149.3644 352.9688,149.6613 L352.9688,152.3801 Q352.3438,151.8019 351.75,151.5363 Q351.1563,151.2551 350.5313,151.2551 Q349.1875,151.2551 348.5,152.3332 Q347.8125,153.3957 347.8125,155.4894 Q347.8125,157.5832 348.5,158.6613 Q349.1875,159.7238 350.5313,159.7238 Q351.1563,159.7238 351.75,159.4582 Q352.3438,159.1769 352.9688,158.5988 L352.9688,161.3176 Z " fill="#000000"/><text fill="#000000" font-family="sans-serif" font-size="12" lengthAdjust="spacing" textLength="69" x="364" y="159.8312">Application</text><line style="stroke:#A80036;stroke-width:1.5;" x1="336" x2="435" y1="171.6769" y2="171.6769"/><text fill="#000000" font-family="sans-serif" font-size="11" lengthAdjust="spacing" textLength="63" x="341" y="185.8874">date : Date</text><!--MD5=[8a67874827a9dbf014cc34517ffca193]
class Resource_Offer--><rect codeLine="531" fill="#FFFFFF" filter="url(#f1i7rfbw3wrvkm)" height="32" id="Resource_Offer" style="stroke:#A80036;stroke-width:1.5;" width="127" x="719" y="20.1769"/><ellipse cx="734" cy="36.1769" fill="#ADD1B2" rx="11" ry="11" style="stroke:#A80036;stroke-width:1.0;"/><path d="M736.9688,41.8176 Q736.3906,42.1144 735.75,42.2551 Q735.1094,42.4113 734.4063,42.4113 Q731.9063,42.4113 730.5781,40.7707 Q729.2656,39.1144 729.2656,35.9894 Q729.2656,32.8644 730.5781,31.2082 Q731.9063,29.5519 734.4063,29.5519 Q735.1094,29.5519 735.75,29.7082 Q736.4063,29.8644 736.9688,30.1613 L736.9688,32.8801 Q736.3438,32.3019 735.75,32.0363 Q735.1563,31.7551 734.5313,31.7551 Q733.1875,31.7551 732.5,32.8332 Q731.8125,33.8957 731.8125,35.9894 Q731.8125,38.0832 732.5,39.1613 Q733.1875,40.2238 734.5313,40.2238 Q735.1563,40.2238 735.75,39.9582 Q736.3438,39.6769 736.9688,39.0988 L736.9688,41.8176 Z " fill="#000000"/><text fill="#000000" font-family="sans-serif" font-size="12" lengthAdjust="spacing" textLength="95" x="748" y="40.3312">Resource_Offer</text><!--MD5=[59b530d44ae785dc18db921986a9c15c]
class Document--><rect codeLine="244" fill="#FFFFFF" filter="url(#f1i7rfbw3wrvkm)" height="65.6094" id="Document" style="stroke:#A80036;stroke-width:1.5;" width="148" x="452.5" y="269.6769"/><ellipse cx="490.9" cy="285.6769" fill="#ADD1B2" rx="11" ry="11" style="stroke:#A80036;stroke-width:1.0;"/><path d="M493.8688,291.3176 Q493.2906,291.6144 492.65,291.7551 Q492.0094,291.9113 491.3063,291.9113 Q488.8063,291.9113 487.4781,290.2707 Q486.1656,288.6144 486.1656,285.4894 Q486.1656,282.3644 487.4781,280.7082 Q488.8063,279.0519 491.3063,279.0519 Q492.0094,279.0519 492.65,279.2082 Q493.3063,279.3644 493.8688,279.6613 L493.8688,282.3801 Q493.2438,281.8019 492.65,281.5363 Q492.0563,281.2551 491.4313,281.2551 Q490.0875,281.2551 489.4,282.3332 Q488.7125,283.3957 488.7125,285.4894 Q488.7125,287.5832 489.4,288.6613 Q490.0875,289.7238 491.4313,289.7238 Q492.0563,289.7238 492.65,289.4582 Q493.2438,289.1769 493.8688,288.5988 L493.8688,291.3176 Z " fill="#000000"/><text fill="#000000" font-family="sans-serif" font-size="12" lengthAdjust="spacing" textLength="64" x="510.1" y="289.8312">Document</text><line style="stroke:#A80036;stroke-width:1.5;" x1="453.5" x2="599.5" y1="301.6769" y2="301.6769"/><text fill="#000000" font-family="sans-serif" font-size="11" lengthAdjust="spacing" textLength="136" x="458.5" y="315.8874">title : Multilingual_String</text><text fill="#000000" font-family="sans-serif" font-size="11" lengthAdjust="spacing" textLength="125" x="458.5" y="328.6921">publicationDate : Date</text><!--MD5=[68c3952ebfab03c1a0449046a32d2ee2]
class Resource_Request--><rect codeLine="553" fill="#FFFFFF" filter="url(#f1i7rfbw3wrvkm)" height="32" id="Resource_Request" style="stroke:#A80036;stroke-width:1.5;" width="149" x="432" y="20.1769"/><ellipse cx="447" cy="36.1769" fill="#ADD1B2" rx="11" ry="11" style="stroke:#A80036;stroke-width:1.0;"/><path d="M449.9688,41.8176 Q449.3906,42.1144 448.75,42.2551 Q448.1094,42.4113 447.4063,42.4113 Q444.9063,42.4113 443.5781,40.7707 Q442.2656,39.1144 442.2656,35.9894 Q442.2656,32.8644 443.5781,31.2082 Q444.9063,29.5519 447.4063,29.5519 Q448.1094,29.5519 448.75,29.7082 Q449.4063,29.8644 449.9688,30.1613 L449.9688,32.8801 Q449.3438,32.3019 448.75,32.0363 Q448.1563,31.7551 447.5313,31.7551 Q446.1875,31.7551 445.5,32.8332 Q444.8125,33.8957 444.8125,35.9894 Q444.8125,38.0832 445.5,39.1613 Q446.1875,40.2238 447.5313,40.2238 Q448.1563,40.2238 448.75,39.9582 Q449.3438,39.6769 449.9688,39.0988 L449.9688,41.8176 Z " fill="#000000"/><text fill="#000000" font-family="sans-serif" font-size="12" lengthAdjust="spacing" textLength="117" x="461" y="40.3312">Resource_Request</text><!--MD5=[6b13f1b330d33795af281e5c1dfe1e98]
class Resource--><rect codeLine="226" fill="#FFFFFF" filter="url(#f1i7rfbw3wrvkm)" height="32" id="Resource" style="stroke:#A80036;stroke-width:1.5;" width="91" x="634" y="150.1769"/><ellipse cx="649" cy="166.1769" fill="#ADD1B2" rx="11" ry="11" style="stroke:#A80036;stroke-width:1.0;"/><path d="M651.9688,171.8176 Q651.3906,172.1144 650.75,172.2551 Q650.1094,172.4113 649.4063,172.4113 Q646.9063,172.4113 645.5781,170.7707 Q644.2656,169.1144 644.2656,165.9894 Q644.2656,162.8644 645.5781,161.2082 Q646.9063,159.5519 649.4063,159.5519 Q650.1094,159.5519 650.75,159.7082 Q651.4063,159.8644 651.9688,160.1613 L651.9688,162.8801 Q651.3438,162.3019 650.75,162.0363 Q650.1563,161.7551 649.5313,161.7551 Q648.1875,161.7551 647.5,162.8332 Q646.8125,163.8957 646.8125,165.9894 Q646.8125,168.0832 647.5,169.1613 Q648.1875,170.2238 649.5313,170.2238 Q650.1563,170.2238 650.75,169.9582 Q651.3438,169.6769 651.9688,169.0988 L651.9688,171.8176 Z " fill="#000000"/><text fill="#000000" font-family="sans-serif" font-size="12" lengthAdjust="spacing" textLength="59" x="663" y="170.3312">Resource</text><!--MD5=[a030fa97ffb865708cae79f6847e8968]
class Condition--><rect codeLine="544" fill="#FFFFFF" filter="url(#f1i7rfbw3wrvkm)" height="32" id="Condition" style="stroke:#A80036;stroke-width:1.5;" width="91" x="760" y="150.1769"/><ellipse cx="775" cy="166.1769" fill="#ADD1B2" rx="11" ry="11" style="stroke:#A80036;stroke-width:1.0;"/><path d="M777.9688,171.8176 Q777.3906,172.1144 776.75,172.2551 Q776.1094,172.4113 775.4063,172.4113 Q772.9063,172.4113 771.5781,170.7707 Q770.2656,169.1144 770.2656,165.9894 Q770.2656,162.8644 771.5781,161.2082 Q772.9063,159.5519 775.4063,159.5519 Q776.1094,159.5519 776.75,159.7082 Q777.4063,159.8644 777.9688,160.1613 L777.9688,162.8801 Q777.3438,162.3019 776.75,162.0363 Q776.1563,161.7551 775.5313,161.7551 Q774.1875,161.7551 773.5,162.8332 Q772.8125,163.8957 772.8125,165.9894 Q772.8125,168.0832 773.5,169.1613 Q774.1875,170.2238 775.5313,170.2238 Q776.1563,170.2238 776.75,169.9582 Q777.3438,169.6769 777.9688,169.0988 L777.9688,171.8176 Z " fill="#000000"/><text fill="#000000" font-family="sans-serif" font-size="12" lengthAdjust="spacing" textLength="59" x="789" y="170.3312">Condition</text><!--MD5=[92dc6ef2f70a23983af4e570fc6275cd]
class Funding--><rect codeLine="231" fill="#FFFFFF" filter="url(#f1i7rfbw3wrvkm)" height="32" id="Funding" style="stroke:#A80036;stroke-width:1.5;" width="82" x="638.5" y="286.6769"/><ellipse cx="653.5" cy="302.6769" fill="#ADD1B2" rx="11" ry="11" style="stroke:#A80036;stroke-width:1.0;"/><path d="M656.4688,308.3176 Q655.8906,308.6144 655.25,308.7551 Q654.6094,308.9113 653.9063,308.9113 Q651.4063,308.9113 650.0781,307.2707 Q648.7656,305.6144 648.7656,302.4894 Q648.7656,299.3644 650.0781,297.7082 Q651.4063,296.0519 653.9063,296.0519 Q654.6094,296.0519 655.25,296.2082 Q655.9063,296.3644 656.4688,296.6613 L656.4688,299.3801 Q655.8438,298.8019 655.25,298.5363 Q654.6563,298.2551 654.0313,298.2551 Q652.6875,298.2551 652,299.3332 Q651.3125,300.3957 651.3125,302.4894 Q651.3125,304.5832 652,305.6613 Q652.6875,306.7238 654.0313,306.7238 Q654.6563,306.7238 655.25,306.4582 Q655.8438,306.1769 656.4688,305.5988 L656.4688,308.3176 Z " fill="#000000"/><text fill="#000000" font-family="sans-serif" font-size="12" lengthAdjust="spacing" textLength="50" x="667.5" y="306.8312">Funding</text><!--MD5=[6ff7a5782d5ed311fa9cacd2967fdc4e]
class Funding_Application--><rect codeLine="355" fill="#FFFFFF" filter="url(#f1i7rfbw3wrvkm)" height="32" id="Funding_Application" style="stroke:#A80036;stroke-width:1.5;" width="157" x="260" y="286.6769"/><ellipse cx="275" cy="302.6769" fill="#ADD1B2" rx="11" ry="11" style="stroke:#A80036;stroke-width:1.0;"/><path d="M277.9688,308.3176 Q277.3906,308.6144 276.75,308.7551 Q276.1094,308.9113 275.4063,308.9113 Q272.9063,308.9113 271.5781,307.2707 Q270.2656,305.6144 270.2656,302.4894 Q270.2656,299.3644 271.5781,297.7082 Q272.9063,296.0519 275.4063,296.0519 Q276.1094,296.0519 276.75,296.2082 Q277.4063,296.3644 277.9688,296.6613 L277.9688,299.3801 Q277.3438,298.8019 276.75,298.5363 Q276.1563,298.2551 275.5313,298.2551 Q274.1875,298.2551 273.5,299.3332 Q272.8125,300.3957 272.8125,302.4894 Q272.8125,304.5832 273.5,305.6613 Q274.1875,306.7238 275.5313,306.7238 Q276.1563,306.7238 276.75,306.4582 Q277.3438,306.1769 277.9688,305.5988 L277.9688,308.3176 Z " fill="#000000"/><text fill="#000000" font-family="sans-serif" font-size="12" lengthAdjust="spacing" textLength="125" x="289" y="306.8312">Funding_Application</text><!--MD5=[0db85a2d6db180b105db5ebe9e86b106]
class Call_for_Funding_Applications--><rect codeLine="369" fill="#FFFFFF" filter="url(#f1i7rfbw3wrvkm)" height="32" id="Call_for_Funding_Applications" style="stroke:#A80036;stroke-width:1.5;" width="215" x="7" y="286.6769"/><ellipse cx="22" cy="302.6769" fill="#ADD1B2" rx="11" ry="11" style="stroke:#A80036;stroke-width:1.0;"/><path d="M24.9688,308.3176 Q24.3906,308.6144 23.75,308.7551 Q23.1094,308.9113 22.4063,308.9113 Q19.9063,308.9113 18.5781,307.2707 Q17.2656,305.6144 17.2656,302.4894 Q17.2656,299.3644 18.5781,297.7082 Q19.9063,296.0519 22.4063,296.0519 Q23.1094,296.0519 23.75,296.2082 Q24.4063,296.3644 24.9688,296.6613 L24.9688,299.3801 Q24.3438,298.8019 23.75,298.5363 Q23.1563,298.2551 22.5313,298.2551 Q21.1875,298.2551 20.5,299.3332 Q19.8125,300.3957 19.8125,302.4894 Q19.8125,304.5832 20.5,305.6613 Q21.1875,306.7238 22.5313,306.7238 Q23.1563,306.7238 23.75,306.4582 Q24.3438,306.1769 24.9688,305.5988 L24.9688,308.3176 Z " fill="#000000"/><text fill="#000000" font-family="sans-serif" font-size="12" lengthAdjust="spacing" textLength="183" x="36" y="306.8312">Call_for_Funding_Applications</text><!--MD5=[08c6a5fbc728deaee606fab1d8cae3e6]
reverse link Agent to Call_for_Applications--><path codeLine="407" d="M182.92,66.8769 C176.51,75.1469 169.64,84.1969 163.5,92.6769 C149.42,112.1169 134.06,135.1769 124.36,149.9869 " fill="none" id="Agent-backto-Call_for_Applications" style="stroke:#A80036;stroke-width:1.0;"/><polygon fill="#A80036" points="186.02,62.8869,177.3336,67.5288,182.9473,66.8314,183.6448,72.4451,186.02,62.8869" style="stroke:#A80036;stroke-width:1.0;"/><text fill="#000000" font-family="sans-serif" font-size="13" lengthAdjust="spacing" textLength="38" x="139.3838" y="82.4731">issuer</text><!--MD5=[a59b92cc30ee8d24d8d720fed1533057]
link Call_for_Applications to Application--><path codeLine="415" d="M194.34,166.1769 C239.78,166.1769 295.32,166.1769 334.8,166.1769 " fill="none" id="Call_for_Applications-Application" style="stroke:#A80036;stroke-width:1.0;"/><polygon fill="#000000" points="211.5,154.7433,220.5451,157.6823,220.5451,151.8044,211.5,154.7433" style="stroke:#000000;stroke-width:1.0;"/><text fill="#000000" font-family="sans-serif" font-size="13" lengthAdjust="spacing" textLength="91" x="225.5" y="159.2438">in response to</text><text fill="#000000" font-family="sans-serif" font-size="13" lengthAdjust="spacing" textLength="24" x="201.9455" y="178.8704">0..1</text><text fill="#000000" font-family="sans-serif" font-size="13" lengthAdjust="spacing" textLength="23" x="303.8306" y="179.2258">0..*</text><!--MD5=[555d991a4645b83cbfa238b562f91a92]
reverse link Resource_Offer to Call_for_Applications--><path codeLine="540" d="M704.92,56.9369 C696.36,58.9569 687.76,60.9069 679.5,62.6769 C507.45,99.5469 304.07,134.2969 194.35,152.3269 " fill="none" id="Resource_Offer-backto-Call_for_Applications" style="stroke:#A80036;stroke-width:1.0;"/><polygon fill="none" points="703.55,50.0669,724.63,52.1869,706.83,63.6769,703.55,50.0669" style="stroke:#A80036;stroke-width:1.0;"/><!--MD5=[0c5226e8f688e58cc6150c041928918d]
reverse link Agent to Application--><path codeLine="399" d="M249.97,65.5669 C262.8,74.1269 276.81,83.6569 289.5,92.6769 C310.78,107.8069 334.16,125.4469 352.53,139.5369 " fill="none" id="Agent-backto-Application" style="stroke:#A80036;stroke-width:1.0;"/><polygon fill="#A80036" points="245.66,62.6969,250.9428,71.0091,249.8246,65.4638,255.3699,64.3457,245.66,62.6969" style="stroke:#A80036;stroke-width:1.0;"/><polygon fill="#000000" points="312.4447,98.3185,318.0616,105.9932,321.5,101.2259,312.4447,98.3185" style="stroke:#000000;stroke-width:1.0;"/><text fill="#000000" font-family="sans-serif" font-size="13" lengthAdjust="spacing" textLength="58" x="325.5" y="105.7438">applicant</text><text fill="#000000" font-family="sans-serif" font-size="13" lengthAdjust="spacing" textLength="24" x="227.9408" y="82.6689">0..1</text><!--MD5=[0c5226e8f688e58cc6150c041928918d]
reverse link Agent to Application--><path codeLine="403" d="M194.63,68.0369 C191.35,81.9869 190.75,97.9369 199.5,109.6769 C215.76,131.4969 285.53,147.8769 334.82,156.9969 " fill="none" id="Agent-backto-Application-1" style="stroke:#A80036;stroke-width:1.0;"/><polygon fill="#A80036" points="195.94,62.9969,189.8014,70.6988,194.6802,67.8356,197.5434,72.7144,195.94,62.9969" style="stroke:#A80036;stroke-width:1.0;"/><polygon fill="#000000" points="200.2783,98.5644,206.3408,105.8921,209.4901,100.9292,200.2783,98.5644" style="stroke:#000000;stroke-width:1.0;"/><text fill="#000000" font-family="sans-serif" font-size="13" lengthAdjust="spacing" textLength="67" x="213.5" y="105.7438">addressee</text><text fill="#000000" font-family="sans-serif" font-size="13" lengthAdjust="spacing" textLength="24" x="196.255" y="82.6072">0..1</text><!--MD5=[33d78e85ad541f0b21b2e8ffaf1167a1]
reverse link Application to Document--><path codeLine="419" d="M392.45,205.9269 C396.03,217.7369 401.42,230.1069 409.5,239.6769 C421.07,253.3769 436.46,264.4769 452.25,273.2969 " fill="none" id="Application-backto-Document" style="stroke:#A80036;stroke-width:1.0;"/><polygon fill="#FFFFFF" points="389.13,193.0069,386.7517,199.8146,392.121,204.6282,394.4992,197.8206,389.13,193.0069" style="stroke:#A80036;stroke-width:1.0;"/><polygon fill="#000000" points="417.8192,234.9827,414.0127,226.2671,409.6168,230.1691,417.8192,234.9827" style="stroke:#000000;stroke-width:1.0;"/><text fill="#000000" font-family="sans-serif" font-size="13" lengthAdjust="spacing" textLength="56" x="423.5" y="235.7438">contents</text><text fill="#000000" font-family="sans-serif" font-size="13" lengthAdjust="spacing" textLength="24" x="420.5684" y="267.1025">0..1</text><!--MD5=[34d3520aa241427fbea18906841a2be6]
reverse link Resource_Request to Application--><path codeLine="558" d="M478.23,67.0869 C457.49,89.0169 429.63,118.4969 409.87,139.3969 " fill="none" id="Resource_Request-backto-Application" style="stroke:#A80036;stroke-width:1.0;"/><polygon fill="none" points="473.32,62.0869,492.14,52.3669,483.49,71.7069,473.32,62.0869" style="stroke:#A80036;stroke-width:1.0;"/><!--MD5=[d43c569b2c93336ab3caeea3dfd29687]
link Resource_Offer to Resource--><path codeLine="536" d="M770.28,52.3669 C751.46,75.7469 715.42,120.5369 694.87,146.0869 " fill="none" id="Resource_Offer-to-Resource" style="stroke:#A80036;stroke-width:1.0;"/><polygon fill="#A80036" points="691.7,150.0069,700.4699,145.5248,694.8443,146.1194,694.2498,140.4938,691.7,150.0069" style="stroke:#A80036;stroke-width:1.0;"/><polygon fill="#000000" points="739.3655,105.1389,747.3256,99.9342,742.7461,96.2494,739.3655,105.1389" style="stroke:#000000;stroke-width:1.0;"/><text fill="#000000" font-family="sans-serif" font-size="13" lengthAdjust="spacing" textLength="12" x="751.5" y="105.7438">of</text><text fill="#000000" font-family="sans-serif" font-size="13" lengthAdjust="spacing" textLength="23" x="739.4228" y="72.3031">0..*</text><text fill="#000000" font-family="sans-serif" font-size="13" lengthAdjust="spacing" textLength="23" x="668.9319" y="139.2551">1..*</text><!--MD5=[70b48935e489e5910f3d4342ebe97e3f]
reverse link Resource_Offer to Condition--><path codeLine="549" d="M787.58,65.4669 C792.27,91.5369 799.04,129.2369 802.77,150.0069 " fill="none" id="Resource_Offer-backto-Condition" style="stroke:#A80036;stroke-width:1.0;"/><polygon fill="#FFFFFF" points="785.23,52.3669,782.3542,58.9798,787.3523,64.1778,790.2281,57.5649,785.23,52.3669" style="stroke:#A80036;stroke-width:1.0;"/><polygon fill="#000000" points="800.3842,106.1645,801.6772,96.7423,795.892,97.7817,800.3842,106.1645" style="stroke:#000000;stroke-width:1.0;"/><text fill="#000000" font-family="sans-serif" font-size="13" lengthAdjust="spacing" textLength="23" x="808.5" y="105.7438">has</text><text fill="#000000" font-family="sans-serif" font-size="13" lengthAdjust="spacing" textLength="23" x="775.0563" y="139.2551">0..*</text><!--MD5=[de101208c945d7bf9a03e03cc38155cf]
reverse link Resource_Offer to Document--><path codeLine="566" d="M812.37,60.8669 C848.45,92.3669 900.56,149.1569 868.5,192.6769 C800.05,285.5969 730.25,233.9669 620.5,269.6769 C614.02,271.7869 607.31,274.0069 600.58,276.2469 " fill="none" id="Resource_Offer-backto-Document" style="stroke:#A80036;stroke-width:1.0;"/><polygon fill="#FFFFFF" points="802.25,52.3069,804.247,59.236,811.4111,60.0576,809.4141,53.1286,802.25,52.3069" style="stroke:#A80036;stroke-width:1.0;"/><polygon fill="#000000" points="878.9943,169.8085,887.4317,165.4197,883.2406,161.2985,878.9943,169.8085" style="stroke:#000000;stroke-width:1.0;"/><text fill="#000000" font-family="sans-serif" font-size="13" lengthAdjust="spacing" textLength="77" x="891.5" y="170.7438">described in</text><text fill="#000000" font-family="sans-serif" font-size="13" lengthAdjust="spacing" textLength="24" x="780.8172" y="72.2233">0..1</text><text fill="#000000" font-family="sans-serif" font-size="13" lengthAdjust="spacing" textLength="23" x="608.4694" y="270.21">0..*</text><!--MD5=[fc92b3bd86963d223135ad44997ca08d]
reverse link Resource_Request to Document--><path codeLine="562" d="M508.65,65.5869 C512.4,115.1669 520.11,217.1469 524.06,269.3469 " fill="none" id="Resource_Request-backto-Document" style="stroke:#A80036;stroke-width:1.0;"/><polygon fill="#FFFFFF" points="507.66,52.5369,504.1261,58.8228,508.5693,64.5024,512.1031,58.2166,507.66,52.5369" style="stroke:#A80036;stroke-width:1.0;"/><polygon fill="#000000" points="523.8771,171.2291,526.1255,161.9881,520.2644,162.4314,523.8771,171.2291" style="stroke:#000000;stroke-width:1.0;"/><text fill="#000000" font-family="sans-serif" font-size="13" lengthAdjust="spacing" textLength="77" x="532.5" y="170.7438">described in</text><text fill="#000000" font-family="sans-serif" font-size="13" lengthAdjust="spacing" textLength="24" x="480.2048" y="72.2304">0..1</text><text fill="#000000" font-family="sans-serif" font-size="13" lengthAdjust="spacing" textLength="23" x="498.4027" y="258.6805">0..*</text><!--MD5=[633efb3059d8abd5e23b324815a30d32]
link Resource_Request to Resource_Request--><path codeLine="570" d="M581.22,24.2869 C601.01,24.9669 616,28.9269 616,36.1769 C616,42.7469 603.69,46.6169 586.65,47.7969 " fill="none" id="Resource_Request-to-Resource_Request" style="stroke:#A80036;stroke-width:1.0;"/><polygon fill="#A80036" points="581.22,48.0669,590.4035,51.6256,586.2141,47.8244,590.0153,43.635,581.22,48.0669" style="stroke:#A80036;stroke-width:1.0;"/><polygon fill="#000000" points="621.1717,41.2404,623.7983,32.0997,617.9239,32.3016,621.1717,41.2404" style="stroke:#000000;stroke-width:1.0;"/><text fill="#000000" font-family="sans-serif" font-size="13" lengthAdjust="spacing" textLength="38" x="635" y="40.7438">revise</text><text fill="#000000" font-family="sans-serif" font-size="13" lengthAdjust="spacing" textLength="23" x="588.899" y="19.6328">0..*</text><text fill="#000000" font-family="sans-serif" font-size="13" lengthAdjust="spacing" textLength="24" x="588.9435" y="45.5307">0..1</text><!--MD5=[0db8103b3d861b3f1c0ae604b4b70acc]
link Resource_Request to Resource--><path codeLine="574" d="M527.02,52.3669 C559.02,76.0369 620.66,121.6469 654.96,147.0169 " fill="none" id="Resource_Request-to-Resource" style="stroke:#A80036;stroke-width:1.0;"/><polygon fill="#A80036" points="659,150.0069,654.1314,141.4456,654.9762,147.039,649.3827,147.8837,659,150.0069" style="stroke:#A80036;stroke-width:1.0;"/><polygon fill="#000000" points="612.5196,104.217,606.996,96.4749,603.5002,101.2002,612.5196,104.217" style="stroke:#000000;stroke-width:1.0;"/><text fill="#000000" font-family="sans-serif" font-size="13" lengthAdjust="spacing" textLength="12" x="617.5" y="105.7438">of</text><text fill="#000000" font-family="sans-serif" font-size="13" lengthAdjust="spacing" textLength="23" x="537.6266" y="72.3031">0..*</text><text fill="#000000" font-family="sans-serif" font-size="13" lengthAdjust="spacing" textLength="23" x="625.4" y="139.2551">1..*</text><!--MD5=[a21829bf9e22d7ad2257d12c520c50b2]
reverse link Resource to Funding--><path codeLine="236" d="M679.5,202.5369 C679.5,229.7769 679.5,266.0969 679.5,286.3569 " fill="none" id="Resource-backto-Funding" style="stroke:#A80036;stroke-width:1.0;"/><polygon fill="none" points="672.5,202.3469,679.5,182.3469,686.5,202.3469,672.5,202.3469" style="stroke:#A80036;stroke-width:1.0;"/><!--MD5=[7072accdc040e53c8442e4ca7ea58660]
link Funding to Funding--><path codeLine="260" d="M720.55,289.7869 C739.25,288.4669 755.5,292.7669 755.5,302.6769 C755.5,312.5869 739.25,316.8869 720.55,315.5669 " fill="none" id="Funding-Funding" style="stroke:#A80036;stroke-width:1.0;"/><polygon fill="#000000" points="760.1479,307.7309,763.7165,298.9152,757.8532,298.5013,760.1479,307.7309" style="stroke:#000000;stroke-width:1.0;"/><text fill="#000000" font-family="sans-serif" font-size="13" lengthAdjust="spacing" textLength="56" x="774.5" y="307.2438">is part of</text><text fill="#000000" font-family="sans-serif" font-size="13" lengthAdjust="spacing" textLength="23" x="728.5967" y="283.7418">0..*</text><text fill="#000000" font-family="sans-serif" font-size="13" lengthAdjust="spacing" textLength="23" x="728.5967" y="313.4693">0..*</text><!--MD5=[dc4598ce2d2e32aede71f5bf98c1fc33]
reverse link Application to Funding_Application--><path codeLine="360" d="M365.81,211.3569 C364.29,215.1669 362.83,218.9769 361.5,222.6769 C353.61,244.5869 346.44,270.6169 342.28,286.6469 " fill="none" id="Application-backto-Funding_Application" style="stroke:#A80036;stroke-width:1.0;"/><polygon fill="none" points="359.38,208.5969,373.59,192.8869,372.28,214.0369,359.38,208.5969" style="stroke:#A80036;stroke-width:1.0;"/><!--MD5=[ce01e496d5f2dcc88ba1226d075cb019]
reverse link Call_for_Applications to Call_for_Funding_Applications--><path codeLine="431" d="M114.5,202.5369 C114.5,229.7769 114.5,266.0969 114.5,286.3569 " fill="none" id="Call_for_Applications-backto-Call_for_Funding_Applications" style="stroke:#A80036;stroke-width:1.0;"/><polygon fill="none" points="107.5,202.3469,114.5,182.3469,121.5,202.3469,107.5,202.3469" style="stroke:#A80036;stroke-width:1.0;"/><!--MD5=[4268215efe65187aa7a96745853e6dd4]
@startuml

    !includesub core.puml!common
    !includesub core.puml!Call_for_Applications
    !includesub core.puml!Application
    !includesub core.puml!Resource
    !includesub core.puml!Document
    !includesub core.puml!Agent
    !includesub core.puml!Resource_Offer
    !includesub core.puml!Resource_Request
    !includesub core.puml!Condition
    !includesub core.puml!Funding
    !includesub core.puml!Funding_Application
    !includesub core.puml!Call_for_Funding_Applications

@enduml

@startuml

    hide empty members
    skinparam BoxPadding 120
    class "Call_for_Applications" #ffffff {
    }
	"Call_for_Applications" -u-> "issuer" "Agent"
    "Application" "0..*" -l- "0..1" "Call_for_Applications" : in response to >
	"Resource_Offer" <|- - "Call_for_Applications"
    class "Application" #ffffff {
        date : Date
    }
    "Application" -u-> "0..1" "Agent" : applicant >
    "Application" -u-> "0..1" "Agent" : addressee >
    "Application" o- - "0..1" "Document" : contents >
	"Resource_Request" <|- - "Application"
    class "Resource" #ffffff {
    }
    class "Document" #ffffff {
        title : Multilingual_String
        publicationDate : Date
    }
    class "Agent" #ffffff {
    	lifetime : Date_Range
    }
	class "Resource_Offer" #ffffff {
	}
	"Resource_Offer" "0..*" - -> "1..*" "Resource" : of >
	"Resource_Offer" o- - "0..*" "Condition" : has >
	"Resource_Offer" "0..1" o- - "0..*" "Document" : described in >
	class "Resource_Request" #ffffff {
	}
	"Resource_Request" "0..1" o- - "0..*" "Document" : described in >
	"Resource_Request" "0..*" - -> "0..1" "Resource_Request" : revise >
	"Resource_Request" "0..*" - -> "1..*" "Resource" : of >
	class "Condition" #ffffff {
	}
    class "Funding" #ffffff {
    }
     "Resource" <|- - "Funding"
     "Funding" "0..*" - - "0..*" "Funding" : is part of >
    class "Funding_Application" #ffffff {
    }
    "Application" <|- - "Funding_Application"
    class "Call_for_Funding_Applications" #ffffff {
    }
    "Call_for_Applications" <|- - "Call_for_Funding_Applications"

@enduml

PlantUML version 1.2021.8(Sat Jun 26 08:20:59 UTC 2021)
(GPL source distribution)
Java Runtime: OpenJDK Runtime Environment
JVM: OpenJDK 64-Bit Server VM
Default Encoding: UTF-8
Language: en
Country: null
--></g></svg>