<?xml version="1.0" encoding="UTF-8" standalone="no"?><svg xmlns="http://www.w3.org/2000/svg" xmlns:xlink="http://www.w3.org/1999/xlink" contentScriptType="application/ecmascript" contentStyleType="text/css" height="491px" preserveAspectRatio="none" style="width:555px;height:491px;background:#FFFFFF;" version="1.1" viewBox="0 0 555 491" width="555px" zoomAndPan="magnify"><defs><filter height="300%" id="fp8n080reft9z" width="300%" x="-1" y="-1"><feGaussianBlur result="blurOut" stdDeviation="2.0"/><feColorMatrix in="blurOut" result="blurOut2" type="matrix" values="0 0 0 0 0 0 0 0 0 0 0 0 0 0 0 0 0 0 .4 0"/><feOffset dx="4.0" dy="4.0" in="blurOut2" result="blurOut3"/><feBlend in="SourceGraphic" in2="blurOut3" mode="normal"/></filter></defs><g><!--MD5=[0b4e4b4980470ea387cc45de9bd14b5b]
class Application--><rect codeLine="137" fill="#FFFFFF" filter="url(#fp8n080reft9z)" height="52.8047" id="Application" style="stroke:#A80036;stroke-width:1.5;" width="101" x="270" y="194.5607"/><ellipse cx="285" cy="210.5607" fill="#ADD1B2" rx="11" ry="11" style="stroke:#A80036;stroke-width:1.0;"/><path d="M287.9688,216.2013 Q287.3906,216.4982 286.75,216.6388 Q286.1094,216.7951 285.4063,216.7951 Q282.9063,216.7951 281.5781,215.1544 Q280.2656,213.4982 280.2656,210.3732 Q280.2656,207.2482 281.5781,205.5919 Q282.9063,203.9357 285.4063,203.9357 Q286.1094,203.9357 286.75,204.0919 Q287.4063,204.2482 287.9688,204.5451 L287.9688,207.2638 Q287.3438,206.6857 286.75,206.4201 Q286.1563,206.1388 285.5313,206.1388 Q284.1875,206.1388 283.5,207.2169 Q282.8125,208.2794 282.8125,210.3732 Q282.8125,212.4669 283.5,213.5451 Q284.1875,214.6076 285.5313,214.6076 Q286.1563,214.6076 286.75,214.3419 Q287.3438,214.0607 287.9688,213.4826 L287.9688,216.2013 Z " fill="#000000"/><text fill="#000000" font-family="sans-serif" font-size="12" lengthAdjust="spacing" textLength="69" x="299" y="214.715">Application</text><line style="stroke:#A80036;stroke-width:1.5;" x1="271" x2="370" y1="226.5607" y2="226.5607"/><text fill="#000000" font-family="sans-serif" font-size="11" lengthAdjust="spacing" textLength="63" x="276" y="240.7711">date : Date</text><!--MD5=[6ff7a5782d5ed311fa9cacd2967fdc4e]
class Funding_Application--><rect codeLine="141" fill="#FFFFFF" filter="url(#fp8n080reft9z)" height="32" id="Funding_Application" style="stroke:#A80036;stroke-width:1.5;" width="157" x="7" y="330.5607"/><ellipse cx="22" cy="346.5607" fill="#ADD1B2" rx="11" ry="11" style="stroke:#A80036;stroke-width:1.0;"/><path d="M24.9688,352.2013 Q24.3906,352.4982 23.75,352.6388 Q23.1094,352.7951 22.4063,352.7951 Q19.9063,352.7951 18.5781,351.1544 Q17.2656,349.4982 17.2656,346.3732 Q17.2656,343.2482 18.5781,341.5919 Q19.9063,339.9357 22.4063,339.9357 Q23.1094,339.9357 23.75,340.0919 Q24.4063,340.2482 24.9688,340.5451 L24.9688,343.2638 Q24.3438,342.6857 23.75,342.4201 Q23.1563,342.1388 22.5313,342.1388 Q21.1875,342.1388 20.5,343.2169 Q19.8125,344.2794 19.8125,346.3732 Q19.8125,348.4669 20.5,349.5451 Q21.1875,350.6076 22.5313,350.6076 Q23.1563,350.6076 23.75,350.3419 Q24.3438,350.0607 24.9688,349.4826 L24.9688,352.2013 Z " fill="#000000"/><text fill="#000000" font-family="sans-serif" font-size="12" lengthAdjust="spacing" textLength="125" x="36" y="350.715">Funding_Application</text><!--MD5=[edcf71e28750a8856eb4372d573715ca]
class Call_for_Applications--><rect codeLine="144" fill="#FFFFFF" filter="url(#fp8n080reft9z)" height="32" id="Call_for_Applications" style="stroke:#A80036;stroke-width:1.5;" width="159" x="199" y="330.5607"/><ellipse cx="214" cy="346.5607" fill="#ADD1B2" rx="11" ry="11" style="stroke:#A80036;stroke-width:1.0;"/><path d="M216.9688,352.2013 Q216.3906,352.4982 215.75,352.6388 Q215.1094,352.7951 214.4063,352.7951 Q211.9063,352.7951 210.5781,351.1544 Q209.2656,349.4982 209.2656,346.3732 Q209.2656,343.2482 210.5781,341.5919 Q211.9063,339.9357 214.4063,339.9357 Q215.1094,339.9357 215.75,340.0919 Q216.4063,340.2482 216.9688,340.5451 L216.9688,343.2638 Q216.3438,342.6857 215.75,342.4201 Q215.1563,342.1388 214.5313,342.1388 Q213.1875,342.1388 212.5,343.2169 Q211.8125,344.2794 211.8125,346.3732 Q211.8125,348.4669 212.5,349.5451 Q213.1875,350.6076 214.5313,350.6076 Q215.1563,350.6076 215.75,350.3419 Q216.3438,350.0607 216.9688,349.4826 L216.9688,352.2013 Z " fill="#000000"/><text fill="#000000" font-family="sans-serif" font-size="12" lengthAdjust="spacing" textLength="127" x="228" y="350.715">Call_for_Applications</text><!--MD5=[f2623d7dc29c84243dfa38e1d074be33]
class Funding_Call--><rect codeLine="148" fill="#FFFFFF" filter="url(#fp8n080reft9z)" height="32" id="Funding_Call" style="stroke:#A80036;stroke-width:1.5;" width="110" x="127.5" y="445.5607"/><ellipse cx="142.5" cy="461.5607" fill="#ADD1B2" rx="11" ry="11" style="stroke:#A80036;stroke-width:1.0;"/><path d="M145.4688,467.2013 Q144.8906,467.4982 144.25,467.6388 Q143.6094,467.7951 142.9063,467.7951 Q140.4063,467.7951 139.0781,466.1544 Q137.7656,464.4982 137.7656,461.3732 Q137.7656,458.2482 139.0781,456.5919 Q140.4063,454.9357 142.9063,454.9357 Q143.6094,454.9357 144.25,455.0919 Q144.9063,455.2482 145.4688,455.5451 L145.4688,458.2638 Q144.8438,457.6857 144.25,457.4201 Q143.6563,457.1388 143.0313,457.1388 Q141.6875,457.1388 141,458.2169 Q140.3125,459.2794 140.3125,461.3732 Q140.3125,463.4669 141,464.5451 Q141.6875,465.6076 143.0313,465.6076 Q143.6563,465.6076 144.25,465.3419 Q144.8438,465.0607 145.4688,464.4826 L145.4688,467.2013 Z " fill="#000000"/><text fill="#000000" font-family="sans-serif" font-size="12" lengthAdjust="spacing" textLength="78" x="156.5" y="465.715">Funding_Call</text><!--MD5=[bb370c11d182b7ebaea7e6fa83404e81]
class Process--><rect codeLine="151" fill="#FFFFFF" filter="url(#fp8n080reft9z)" height="32" id="Process" style="stroke:#A80036;stroke-width:1.5;" width="82" x="384.5" y="10.5607"/><ellipse cx="399.5" cy="26.5607" fill="#ADD1B2" rx="11" ry="11" style="stroke:#A80036;stroke-width:1.0;"/><path d="M402.4688,32.2013 Q401.8906,32.4982 401.25,32.6388 Q400.6094,32.7951 399.9063,32.7951 Q397.4063,32.7951 396.0781,31.1544 Q394.7656,29.4982 394.7656,26.3732 Q394.7656,23.2482 396.0781,21.5919 Q397.4063,19.9357 399.9063,19.9357 Q400.6094,19.9357 401.25,20.0919 Q401.9063,20.2482 402.4688,20.5451 L402.4688,23.2638 Q401.8438,22.6857 401.25,22.4201 Q400.6563,22.1388 400.0313,22.1388 Q398.6875,22.1388 398,23.2169 Q397.3125,24.2794 397.3125,26.3732 Q397.3125,28.4669 398,29.5451 Q398.6875,30.6076 400.0313,30.6076 Q400.6563,30.6076 401.25,30.3419 Q401.8438,30.0607 402.4688,29.4826 L402.4688,32.2013 Z " fill="#000000"/><text fill="#000000" font-family="sans-serif" font-size="12" lengthAdjust="spacing" textLength="50" x="413.5" y="30.715">Process</text><!--MD5=[bfa9fc2bd29dedac75ce8a7e54eaaf24]
class Evaluation_Process--><rect codeLine="155" fill="#FFFFFF" filter="url(#fp8n080reft9z)" height="32" id="Evaluation_Process" style="stroke:#A80036;stroke-width:1.5;" width="153" x="196" y="10.5607"/><ellipse cx="211" cy="26.5607" fill="#ADD1B2" rx="11" ry="11" style="stroke:#A80036;stroke-width:1.0;"/><path d="M213.9688,32.2013 Q213.3906,32.4982 212.75,32.6388 Q212.1094,32.7951 211.4063,32.7951 Q208.9063,32.7951 207.5781,31.1544 Q206.2656,29.4982 206.2656,26.3732 Q206.2656,23.2482 207.5781,21.5919 Q208.9063,19.9357 211.4063,19.9357 Q212.1094,19.9357 212.75,20.0919 Q213.4063,20.2482 213.9688,20.5451 L213.9688,23.2638 Q213.3438,22.6857 212.75,22.4201 Q212.1563,22.1388 211.5313,22.1388 Q210.1875,22.1388 209.5,23.2169 Q208.8125,24.2794 208.8125,26.3732 Q208.8125,28.4669 209.5,29.5451 Q210.1875,30.6076 211.5313,30.6076 Q212.1563,30.6076 212.75,30.3419 Q213.3438,30.0607 213.9688,29.4826 L213.9688,32.2013 Z " fill="#000000"/><text fill="#000000" font-family="sans-serif" font-size="12" lengthAdjust="spacing" textLength="121" x="225" y="30.715">Evaluation_Process</text><!--MD5=[9d44916250b776386006c440668bcfbb]
class Agent--><rect codeLine="23" fill="#FFFFFF" filter="url(#fp8n080reft9z)" height="32" id="Agent" style="stroke:#A80036;stroke-width:1.5;" width="69" x="315" y="102.5607"/><ellipse cx="330" cy="118.5607" fill="#ADD1B2" rx="11" ry="11" style="stroke:#A80036;stroke-width:1.0;"/><path d="M332.9688,124.2013 Q332.3906,124.4982 331.75,124.6388 Q331.1094,124.7951 330.4063,124.7951 Q327.9063,124.7951 326.5781,123.1544 Q325.2656,121.4982 325.2656,118.3732 Q325.2656,115.2482 326.5781,113.5919 Q327.9063,111.9357 330.4063,111.9357 Q331.1094,111.9357 331.75,112.0919 Q332.4063,112.2482 332.9688,112.5451 L332.9688,115.2638 Q332.3438,114.6857 331.75,114.4201 Q331.1563,114.1388 330.5313,114.1388 Q329.1875,114.1388 328.5,115.2169 Q327.8125,116.2794 327.8125,118.3732 Q327.8125,120.4669 328.5,121.5451 Q329.1875,122.6076 330.5313,122.6076 Q331.1563,122.6076 331.75,122.3419 Q332.3438,122.0607 332.9688,121.4826 L332.9688,124.2013 Z " fill="#000000"/><text fill="#000000" font-family="sans-serif" font-size="12" lengthAdjust="spacing" textLength="37" x="344" y="122.715">Agent</text><!--MD5=[59b530d44ae785dc18db921986a9c15c]
class Document--><rect codeLine="8" fill="#FFFFFF" filter="url(#fp8n080reft9z)" height="78.4141" id="Document" style="stroke:#A80036;stroke-width:1.5;" width="148" x="393.5" y="307.5607"/><ellipse cx="431.9" cy="323.5607" fill="#ADD1B2" rx="11" ry="11" style="stroke:#A80036;stroke-width:1.0;"/><path d="M434.8688,329.2013 Q434.2906,329.4982 433.65,329.6388 Q433.0094,329.7951 432.3063,329.7951 Q429.8063,329.7951 428.4781,328.1544 Q427.1656,326.4982 427.1656,323.3732 Q427.1656,320.2482 428.4781,318.5919 Q429.8063,316.9357 432.3063,316.9357 Q433.0094,316.9357 433.65,317.0919 Q434.3063,317.2482 434.8688,317.5451 L434.8688,320.2638 Q434.2438,319.6857 433.65,319.4201 Q433.0563,319.1388 432.4313,319.1388 Q431.0875,319.1388 430.4,320.2169 Q429.7125,321.2794 429.7125,323.3732 Q429.7125,325.4669 430.4,326.5451 Q431.0875,327.6076 432.4313,327.6076 Q433.0563,327.6076 433.65,327.3419 Q434.2438,327.0607 434.8688,326.4826 L434.8688,329.2013 Z " fill="#000000"/><text fill="#000000" font-family="sans-serif" font-size="12" lengthAdjust="spacing" textLength="64" x="451.1" y="327.715">Document</text><line style="stroke:#A80036;stroke-width:1.5;" x1="394.5" x2="540.5" y1="339.5607" y2="339.5607"/><text fill="#000000" font-family="sans-serif" font-size="11" lengthAdjust="spacing" textLength="85" x="399.5" y="353.7711">DOI : DOI_Type</text><text fill="#000000" font-family="sans-serif" font-size="11" lengthAdjust="spacing" textLength="136" x="399.5" y="366.5758">title : Multilingual_String</text><text fill="#000000" font-family="sans-serif" font-size="11" lengthAdjust="spacing" textLength="125" x="399.5" y="379.3805">publicationDate : Date</text><!--MD5=[fe105c2ee1fabf2400c31a97ce9128bc]
class Textual_Document--><rect codeLine="13" fill="#FFFFFF" filter="url(#fp8n080reft9z)" height="32" id="Textual_Document" style="stroke:#A80036;stroke-width:1.5;" width="147" x="394" y="445.5607"/><ellipse cx="409" cy="461.5607" fill="#ADD1B2" rx="11" ry="11" style="stroke:#A80036;stroke-width:1.0;"/><path d="M411.9688,467.2013 Q411.3906,467.4982 410.75,467.6388 Q410.1094,467.7951 409.4063,467.7951 Q406.9063,467.7951 405.5781,466.1544 Q404.2656,464.4982 404.2656,461.3732 Q404.2656,458.2482 405.5781,456.5919 Q406.9063,454.9357 409.4063,454.9357 Q410.1094,454.9357 410.75,455.0919 Q411.4063,455.2482 411.9688,455.5451 L411.9688,458.2638 Q411.3438,457.6857 410.75,457.4201 Q410.1563,457.1388 409.5313,457.1388 Q408.1875,457.1388 407.5,458.2169 Q406.8125,459.2794 406.8125,461.3732 Q406.8125,463.4669 407.5,464.5451 Q408.1875,465.6076 409.5313,465.6076 Q410.1563,465.6076 410.75,465.3419 Q411.3438,465.0607 411.9688,464.4826 L411.9688,467.2013 Z " fill="#000000"/><text fill="#000000" font-family="sans-serif" font-size="12" lengthAdjust="spacing" textLength="115" x="423" y="465.715">Textual_Document</text><!--MD5=[0c5226e8f688e58cc6150c041928918d]
reverse link Agent to Application--><path codeLine="160" d="M333.33,139.5007 C325.99,155.2707 319.31,177.4007 316.61,194.4707 " fill="none" id="Agent-backto-Application" style="stroke:#A80036;stroke-width:1.0;"/><polygon fill="#A80036" points="335.63,134.8207,328.0756,141.1398,333.4283,139.3099,335.2583,144.6625,335.63,134.8207" style="stroke:#A80036;stroke-width:1.0;"/><text fill="#000000" font-family="sans-serif" font-size="13" lengthAdjust="spacing" textLength="58" x="263.9652" y="154.4823">applicant</text><!--MD5=[0c5226e8f688e58cc6150c041928918d]
reverse link Agent to Application--><path codeLine="164" d="M354.73,139.9107 C353.08,155.6507 347.04,177.5407 339.82,194.4707 " fill="none" id="Agent-backto-Application-1" style="stroke:#A80036;stroke-width:1.0;"/><polygon fill="#A80036" points="355.11,134.8207,350.4524,143.4987,354.7385,139.8069,358.4303,144.093,355.11,134.8207" style="stroke:#A80036;stroke-width:1.0;"/><text fill="#000000" font-family="sans-serif" font-size="13" lengthAdjust="spacing" textLength="67" x="367.5763" y="154.4823">addressee</text><!--MD5=[3b1d0eeb0b3d7e59f7719a8193058899]
link Application to Evaluation_Process--><path codeLine="168" d="M310.1659,182.7254 C310.1659,182.7254 301.37,149.9707 297.5,134.5607 C290.79,107.8507 283.7,77.2307 278.79,55.6107 " fill="none" id="Application-Evaluation_Process" style="stroke:#A80036;stroke-width:1.0;"/><polygon fill="#A80036" points="275.9,42.8407,273.9776,52.5001,276.9998,47.7182,281.7817,50.7405,275.9,42.8407" style="stroke:#A80036;stroke-width:1.0;"/><line style="stroke:#A80036;stroke-width:1.0;" x1="276.9998" x2="278.765" y1="47.7182" y2="55.5207"/><polygon fill="#A80036" points="313.33,194.3007,315.6064,187.4583,310.1659,182.7254,307.8895,189.5677,313.33,194.3007" style="stroke:#A80036;stroke-width:1.0;"/><text fill="#000000" font-family="sans-serif" font-size="13" lengthAdjust="spacing" textLength="66" x="200.465" y="62.5086">evaluation</text><!--MD5=[5fbab5a26fc8e1b8bf2efbf9d6feca6f]
link Application to Call_for_Applications--><path codeLine="172" d="M311.8,247.6507 C303.92,270.8007 292.49,304.4307 285.27,325.6407 " fill="none" id="Application-to-Call_for_Applications" style="stroke:#A80036;stroke-width:1.0;"/><polygon fill="#A80036" points="283.63,330.4907,290.3232,323.2657,285.2454,325.7588,282.7522,320.681,283.63,330.4907" style="stroke:#A80036;stroke-width:1.0;"/><text fill="#000000" font-family="sans-serif" font-size="13" lengthAdjust="spacing" textLength="121" x="160.058" y="319.551">0..1 in-response-to</text><!--MD5=[a854b1dfb5507473349d48b63bbd2949]
link Application to Document--><path codeLine="176" d="M360.1516,255.3653 C360.1516,255.3653 394.87,284.5407 411.71,298.6907 " fill="none" id="Application-Document" style="stroke:#A80036;stroke-width:1.0;"/><polygon fill="#A80036" points="422,307.3307,417.6778,298.4809,418.1702,304.1163,412.5348,304.6086,422,307.3307" style="stroke:#A80036;stroke-width:1.0;"/><line style="stroke:#A80036;stroke-width:1.0;" x1="418.1702" x2="412.045" y1="304.1163" y2="298.9757"/><polygon fill="#A80036" points="350.96,247.6507,352.9843,254.5719,360.1516,255.3653,358.1273,248.4441,350.96,247.6507" style="stroke:#A80036;stroke-width:1.0;"/><text fill="#000000" font-family="sans-serif" font-size="13" lengthAdjust="spacing" textLength="84" x="323.5078" y="296.6346">0..1 contents</text><!--MD5=[dc4598ce2d2e32aede71f5bf98c1fc33]
reverse link Application to Funding_Application--><path codeLine="180" d="M253.9,257.0607 C207.78,281.3007 148.7,312.3507 114.18,330.4907 " fill="none" id="Application-backto-Funding_Application" style="stroke:#A80036;stroke-width:1.0;"/><polygon fill="none" points="250.85,250.7607,271.81,247.6507,257.36,263.1507,250.85,250.7607" style="stroke:#A80036;stroke-width:1.0;"/><!--MD5=[ce9c3a1a98648eaeee1b8892508bbb8f]
link Funding_Application to Funding_Call--><path codeLine="184" d="M98.58,362.8007 C116.01,383.1007 146.86,419.0407 165.9,441.2207 " fill="none" id="Funding_Application-to-Funding_Call" style="stroke:#A80036;stroke-width:1.0;"/><polygon fill="#A80036" points="169.32,445.2007,166.4999,435.7642,166.066,441.4044,160.4259,440.9706,169.32,445.2007" style="stroke:#A80036;stroke-width:1.0;"/><text fill="#000000" font-family="sans-serif" font-size="13" lengthAdjust="spacing" textLength="93" x="56.551" y="434.386">in-response-to</text><!--MD5=[fe1a69149d9abae65c408eaa8dcf3447]
reverse link Call_for_Applications to Funding_Call--><path codeLine="188" d="M252.51,378.1507 C234.08,399.8507 210.12,428.0507 195.55,445.2007 " fill="none" id="Call_for_Applications-backto-Funding_Call" style="stroke:#A80036;stroke-width:1.0;"/><polygon fill="none" points="247.27,373.5107,265.55,362.8007,257.94,382.5707,247.27,373.5107" style="stroke:#A80036;stroke-width:1.0;"/><!--MD5=[8743930385bb1af59b1fce24bc9f65d4]
link Process to Agent--><path codeLine="192" d="M412.61,42.8307 C399.65,58.1807 379.63,81.8807 365.63,98.4607 " fill="none" id="Process-to-Agent" style="stroke:#A80036;stroke-width:1.0;"/><polygon fill="#A80036" points="362.2,102.5207,371.0677,98.2355,365.4304,98.7043,364.9615,93.0669,362.2,102.5207" style="stroke:#A80036;stroke-width:1.0;"/><text fill="#000000" font-family="sans-serif" font-size="13" lengthAdjust="spacing" textLength="109" x="385.3" y="91.5185">0..* organized by</text><!--MD5=[9367bfd3b5c96309bd837af5a5c97e34]
link Process to Document--><path codeLine="196" d="M429.0995,54.7976 C429.0995,54.7976 451.76,226.4007 460.72,294.2007 " fill="none" id="Process-Document" style="stroke:#A80036;stroke-width:1.0;"/><polygon fill="#A80036" points="462.47,307.4807,465.2585,298.0348,461.816,302.5236,457.3272,299.0812,462.47,307.4807" style="stroke:#A80036;stroke-width:1.0;"/><line style="stroke:#A80036;stroke-width:1.0;" x1="461.816" x2="460.77" y1="302.5236" y2="294.5857"/><polygon fill="#A80036" points="427.53,42.9007,424.3491,49.3723,429.0995,54.7976,432.2804,48.326,427.53,42.9007" style="stroke:#A80036;stroke-width:1.0;"/><text fill="#000000" font-family="sans-serif" font-size="13" lengthAdjust="spacing" textLength="80" x="468.4805" y="296.5175">0..1 decision</text><!--MD5=[8156e968208737e8c454aecc4c900edc]
link Process to Process--><path codeLine="200" d="M471.84,9.4359 C471.84,9.4359 501.5,15.0807 501.5,26.5607 C501.5,38.0407 488.87,43.7907 473.06,43.8107 " fill="none" id="Process-Process" style="stroke:#A80036;stroke-width:1.0;"/><polygon fill="#A80036" points="459.89,42.5907,468.4876,47.3951,464.8691,43.0468,469.2174,39.4284,459.89,42.5907" style="stroke:#A80036;stroke-width:1.0;"/><line style="stroke:#A80036;stroke-width:1.0;" x1="464.8691" x2="472.835" y1="43.0468" y2="43.7907"/><polygon fill="#A80036" points="459.89,10.5307,466.2299,13.9666,471.84,9.4359,465.5001,6,459.89,10.5307" style="stroke:#A80036;stroke-width:1.0;"/><text fill="#000000" font-family="sans-serif" font-size="13" lengthAdjust="spacing" textLength="87" x="369.7584" y="62.7689">0..* iterations</text><!--MD5=[f2b1dc15e2481602a264b33d2a0e77a0]
link Evaluation_Process to Process--><path codeLine="204" d="M349.3,26.5607 C354.33,26.5607 359.36,26.5607 364.39,26.5607 " fill="none" id="Evaluation_Process-to-Process" style="stroke:#A80036;stroke-width:1.0;"/><polygon fill="none" points="364.42,19.5607,384.42,26.5607,364.42,33.5607,364.42,19.5607" style="stroke:#A80036;stroke-width:1.0;"/><!--MD5=[0b5e0cc6858c1049a2e1f4260a312e0d]
link Evaluation_Process to Agent--><path codeLine="208" d="M285.56,42.8307 C298.69,58.1807 318.97,81.8807 333.16,98.4607 " fill="none" id="Evaluation_Process-to-Agent" style="stroke:#A80036;stroke-width:1.0;"/><polygon fill="#A80036" points="336.63,102.5207,333.8099,93.0842,333.376,98.7244,327.7359,98.2906,336.63,102.5207" style="stroke:#A80036;stroke-width:1.0;"/><text fill="#000000" font-family="sans-serif" font-size="13" lengthAdjust="spacing" textLength="87" x="230.2528" y="91.5185">0..* reviewers</text><!--MD5=[67ceb885199ca7e1fa058287d8756a2e]
reverse link Document to Textual_Document--><path codeLine="335" d="M467.5,405.9507 C467.5,420.6507 467.5,435.1807 467.5,445.5507 " fill="none" id="Document-backto-Textual_Document" style="stroke:#A80036;stroke-width:1.0;"/><polygon fill="none" points="460.5,405.8207,467.5,385.8207,474.5,405.8207,460.5,405.8207" style="stroke:#A80036;stroke-width:1.0;"/><!--MD5=[9a805b09d734197b3c239b82ece8be82]
@startuml
    !includesub core.puml!common
    !includesub core.puml!Application
    !includesub core.puml!Document
    !includesub core.puml!Agent
@enduml

@startuml
        hide empty members
        skinparam BoxPadding 120
        class "Application" #ffffff {
            date : Date
        }

        class "Funding_Application" #ffffff {
        }

        class "Call_for_Applications" #ffffff {

        }

        class "Funding_Call" #ffffff {
        }

        class "Process" #ffffff {

        }

        class "Evaluation_Process" #ffffff {
        }
        "Application" -u-> "applicant" "Agent"
        "Application" -u-> "addressee" "Agent"
        "Application" *- -> "evaluation" "Evaluation_Process"
        "Application" - -> "0..1 in-response-to" "Call_for_Applications"
        "Application" *- -> "0..1 contents" "Document"
        "Application" <|- - "Funding_Application"
        "Funding_Application" - -> "in-response-to" "Funding_Call"
        "Call_for_Applications" <|- - "Funding_Call"
        "Process" - -> "0..* organized by" "Agent"
        "Process" *- -> "0..1 decision" "Document"
        "Process" *- -> "0..* iterations" "Process"
        "Process" <|-l- "Evaluation_Process"
        "Evaluation_Process" - -> "0..* reviewers" "Agent"
        class "Document" #ffffff {
            DOI : DOI_Type
            title : Multilingual_String
            publicationDate : Date
        }
        class "Textual_Document" #ffffff {
        }
        "Document" <|- - "Textual_Document"
        class "Agent" #ffffff {
        }
@enduml

PlantUML version 1.2021.8(Sat Jun 26 08:20:59 UTC 2021)
(GPL source distribution)
Java Runtime: OpenJDK Runtime Environment
JVM: OpenJDK 64-Bit Server VM
Default Encoding: UTF-8
Language: en
Country: null
--></g></svg>