<?xml version="1.0" encoding="UTF-8" standalone="no"?><svg xmlns="http://www.w3.org/2000/svg" xmlns:xlink="http://www.w3.org/1999/xlink" contentScriptType="application/ecmascript" contentStyleType="text/css" height="371px" preserveAspectRatio="none" style="width:1440px;height:371px;background:#FFFFFF;" version="1.1" viewBox="0 0 1440 371" width="1440px" zoomAndPan="magnify"><defs><filter height="300%" id="f13e6o2zikihlt" width="300%" x="-1" y="-1"><feGaussianBlur result="blurOut" stdDeviation="2.0"/><feColorMatrix in="blurOut" result="blurOut2" type="matrix" values="0 0 0 0 0 0 0 0 0 0 0 0 0 0 0 0 0 0 .4 0"/><feOffset dx="4.0" dy="4.0" in="blurOut2" result="blurOut3"/><feBlend in="SourceGraphic" in2="blurOut3" mode="normal"/></filter></defs><g><!--MD5=[edcf71e28750a8856eb4372d573715ca]
class Call_for_Applications--><rect codeLine="476" fill="#FFFFFF" filter="url(#f13e6o2zikihlt)" height="32" id="Call_for_Applications" style="stroke:#A80036;stroke-width:1.5;" width="159" x="342.5" y="172.5"/><ellipse cx="357.5" cy="188.5" fill="#ADD1B2" rx="11" ry="11" style="stroke:#A80036;stroke-width:1.0;"/><path d="M360.4688,194.1406 Q359.8906,194.4375 359.25,194.5781 Q358.6094,194.7344 357.9063,194.7344 Q355.4063,194.7344 354.0781,193.0938 Q352.7656,191.4375 352.7656,188.3125 Q352.7656,185.1875 354.0781,183.5313 Q355.4063,181.875 357.9063,181.875 Q358.6094,181.875 359.25,182.0313 Q359.9063,182.1875 360.4688,182.4844 L360.4688,185.2031 Q359.8438,184.625 359.25,184.3594 Q358.6563,184.0781 358.0313,184.0781 Q356.6875,184.0781 356,185.1563 Q355.3125,186.2188 355.3125,188.3125 Q355.3125,190.4063 356,191.4844 Q356.6875,192.5469 358.0313,192.5469 Q358.6563,192.5469 359.25,192.2813 Q359.8438,192 360.4688,191.4219 L360.4688,194.1406 Z " fill="#000000"/><text fill="#000000" font-family="sans-serif" font-size="12" lengthAdjust="spacing" textLength="127" x="371.5" y="192.6543">Call_for_Applications</text><!--MD5=[9d44916250b776386006c440668bcfbb]
class Agent--><rect codeLine="10" fill="#FFFFFF" filter="url(#f13e6o2zikihlt)" height="78.4141" id="Agent" style="stroke:#A80036;stroke-width:1.5;" width="224" x="310" y="7"/><ellipse cx="399.25" cy="23" fill="#ADD1B2" rx="11" ry="11" style="stroke:#A80036;stroke-width:1.0;"/><path d="M402.2188,28.6406 Q401.6406,28.9375 401,29.0781 Q400.3594,29.2344 399.6563,29.2344 Q397.1563,29.2344 395.8281,27.5938 Q394.5156,25.9375 394.5156,22.8125 Q394.5156,19.6875 395.8281,18.0313 Q397.1563,16.375 399.6563,16.375 Q400.3594,16.375 401,16.5313 Q401.6563,16.6875 402.2188,16.9844 L402.2188,19.7031 Q401.5938,19.125 401,18.8594 Q400.4063,18.5781 399.7813,18.5781 Q398.4375,18.5781 397.75,19.6563 Q397.0625,20.7188 397.0625,22.8125 Q397.0625,24.9063 397.75,25.9844 Q398.4375,27.0469 399.7813,27.0469 Q400.4063,27.0469 401,26.7813 Q401.5938,26.5 402.2188,25.9219 L402.2188,28.6406 Z " fill="#000000"/><text fill="#000000" font-family="sans-serif" font-size="12" lengthAdjust="spacing" textLength="37" x="419.75" y="27.1543">Agent</text><line style="stroke:#A80036;stroke-width:1.5;" x1="311" x2="533" y1="39" y2="39"/><text fill="#000000" font-family="sans-serif" font-size="11" lengthAdjust="spacing" textLength="207" x="316" y="53.2104">keywords : List&lt;Multilingual_String&gt;</text><text fill="#000000" font-family="sans-serif" font-size="11" lengthAdjust="spacing" textLength="121" x="316" y="66.0151">lifetime : Date_Range</text><text fill="#000000" font-family="sans-serif" font-size="11" lengthAdjust="spacing" textLength="212" x="316" y="78.8198">contacts : List&lt;Contact_Information&gt;</text><!--MD5=[0b4e4b4980470ea387cc45de9bd14b5b]
class Application--><rect codeLine="455" fill="#FFFFFF" filter="url(#f13e6o2zikihlt)" height="52.8047" id="Application" style="stroke:#A80036;stroke-width:1.5;" width="101" x="642.5" y="162"/><ellipse cx="657.5" cy="178" fill="#ADD1B2" rx="11" ry="11" style="stroke:#A80036;stroke-width:1.0;"/><path d="M660.4688,183.6406 Q659.8906,183.9375 659.25,184.0781 Q658.6094,184.2344 657.9063,184.2344 Q655.4063,184.2344 654.0781,182.5938 Q652.7656,180.9375 652.7656,177.8125 Q652.7656,174.6875 654.0781,173.0313 Q655.4063,171.375 657.9063,171.375 Q658.6094,171.375 659.25,171.5313 Q659.9063,171.6875 660.4688,171.9844 L660.4688,174.7031 Q659.8438,174.125 659.25,173.8594 Q658.6563,173.5781 658.0313,173.5781 Q656.6875,173.5781 656,174.6563 Q655.3125,175.7188 655.3125,177.8125 Q655.3125,179.9063 656,180.9844 Q656.6875,182.0469 658.0313,182.0469 Q658.6563,182.0469 659.25,181.7813 Q659.8438,181.5 660.4688,180.9219 L660.4688,183.6406 Z " fill="#000000"/><text fill="#000000" font-family="sans-serif" font-size="12" lengthAdjust="spacing" textLength="69" x="671.5" y="182.1543">Application</text><line style="stroke:#A80036;stroke-width:1.5;" x1="643.5" x2="742.5" y1="194" y2="194"/><text fill="#000000" font-family="sans-serif" font-size="11" lengthAdjust="spacing" textLength="63" x="648.5" y="208.2104">date : Date</text><!--MD5=[8a67874827a9dbf014cc34517ffca193]
class Resource_Offer--><rect codeLine="642" fill="#FFFFFF" filter="url(#f13e6o2zikihlt)" height="32" id="Resource_Offer" style="stroke:#A80036;stroke-width:1.5;" width="127" x="808.5" y="30"/><ellipse cx="823.5" cy="46" fill="#ADD1B2" rx="11" ry="11" style="stroke:#A80036;stroke-width:1.0;"/><path d="M826.4688,51.6406 Q825.8906,51.9375 825.25,52.0781 Q824.6094,52.2344 823.9063,52.2344 Q821.4063,52.2344 820.0781,50.5938 Q818.7656,48.9375 818.7656,45.8125 Q818.7656,42.6875 820.0781,41.0313 Q821.4063,39.375 823.9063,39.375 Q824.6094,39.375 825.25,39.5313 Q825.9063,39.6875 826.4688,39.9844 L826.4688,42.7031 Q825.8438,42.125 825.25,41.8594 Q824.6563,41.5781 824.0313,41.5781 Q822.6875,41.5781 822,42.6563 Q821.3125,43.7188 821.3125,45.8125 Q821.3125,47.9063 822,48.9844 Q822.6875,50.0469 824.0313,50.0469 Q824.6563,50.0469 825.25,49.7813 Q825.8438,49.5 826.4688,48.9219 L826.4688,51.6406 Z " fill="#000000"/><text fill="#000000" font-family="sans-serif" font-size="12" lengthAdjust="spacing" textLength="95" x="837.5" y="50.1543">Resource_Offer</text><!--MD5=[59b530d44ae785dc18db921986a9c15c]
class Document--><rect codeLine="267" fill="#FFFFFF" filter="url(#f13e6o2zikihlt)" height="65.6094" id="Document" style="stroke:#A80036;stroke-width:1.5;" width="148" x="762" y="292"/><ellipse cx="800.4" cy="308" fill="#ADD1B2" rx="11" ry="11" style="stroke:#A80036;stroke-width:1.0;"/><path d="M803.3688,313.6406 Q802.7906,313.9375 802.15,314.0781 Q801.5094,314.2344 800.8063,314.2344 Q798.3063,314.2344 796.9781,312.5938 Q795.6656,310.9375 795.6656,307.8125 Q795.6656,304.6875 796.9781,303.0313 Q798.3063,301.375 800.8063,301.375 Q801.5094,301.375 802.15,301.5313 Q802.8063,301.6875 803.3688,301.9844 L803.3688,304.7031 Q802.7438,304.125 802.15,303.8594 Q801.5563,303.5781 800.9313,303.5781 Q799.5875,303.5781 798.9,304.6563 Q798.2125,305.7188 798.2125,307.8125 Q798.2125,309.9063 798.9,310.9844 Q799.5875,312.0469 800.9313,312.0469 Q801.5563,312.0469 802.15,311.7813 Q802.7438,311.5 803.3688,310.9219 L803.3688,313.6406 Z " fill="#000000"/><text fill="#000000" font-family="sans-serif" font-size="12" lengthAdjust="spacing" textLength="64" x="819.6" y="312.1543">Document</text><line style="stroke:#A80036;stroke-width:1.5;" x1="763" x2="909" y1="324" y2="324"/><text fill="#000000" font-family="sans-serif" font-size="11" lengthAdjust="spacing" textLength="136" x="768" y="338.2104">title : Multilingual_String</text><text fill="#000000" font-family="sans-serif" font-size="11" lengthAdjust="spacing" textLength="125" x="768" y="351.0151">publicationDate : Date</text><!--MD5=[68c3952ebfab03c1a0449046a32d2ee2]
class Resource_Request--><rect codeLine="664" fill="#FFFFFF" filter="url(#f13e6o2zikihlt)" height="32" id="Resource_Request" style="stroke:#A80036;stroke-width:1.5;" width="149" x="1028.5" y="30"/><ellipse cx="1043.5" cy="46" fill="#ADD1B2" rx="11" ry="11" style="stroke:#A80036;stroke-width:1.0;"/><path d="M1046.4688,51.6406 Q1045.8906,51.9375 1045.25,52.0781 Q1044.6094,52.2344 1043.9063,52.2344 Q1041.4063,52.2344 1040.0781,50.5938 Q1038.7656,48.9375 1038.7656,45.8125 Q1038.7656,42.6875 1040.0781,41.0313 Q1041.4063,39.375 1043.9063,39.375 Q1044.6094,39.375 1045.25,39.5313 Q1045.9063,39.6875 1046.4688,39.9844 L1046.4688,42.7031 Q1045.8438,42.125 1045.25,41.8594 Q1044.6563,41.5781 1044.0313,41.5781 Q1042.6875,41.5781 1042,42.6563 Q1041.3125,43.7188 1041.3125,45.8125 Q1041.3125,47.9063 1042,48.9844 Q1042.6875,50.0469 1044.0313,50.0469 Q1044.6563,50.0469 1045.25,49.7813 Q1045.8438,49.5 1046.4688,48.9219 L1046.4688,51.6406 Z " fill="#000000"/><text fill="#000000" font-family="sans-serif" font-size="12" lengthAdjust="spacing" textLength="117" x="1057.5" y="50.1543">Resource_Request</text><!--MD5=[6b13f1b330d33795af281e5c1dfe1e98]
class Resource--><rect codeLine="238" fill="#FFFFFF" filter="url(#f13e6o2zikihlt)" height="32" id="Resource" style="stroke:#A80036;stroke-width:1.5;" width="91" x="1230.5" y="172.5"/><ellipse cx="1245.5" cy="188.5" fill="#ADD1B2" rx="11" ry="11" style="stroke:#A80036;stroke-width:1.0;"/><path d="M1248.4688,194.1406 Q1247.8906,194.4375 1247.25,194.5781 Q1246.6094,194.7344 1245.9063,194.7344 Q1243.4063,194.7344 1242.0781,193.0938 Q1240.7656,191.4375 1240.7656,188.3125 Q1240.7656,185.1875 1242.0781,183.5313 Q1243.4063,181.875 1245.9063,181.875 Q1246.6094,181.875 1247.25,182.0313 Q1247.9063,182.1875 1248.4688,182.4844 L1248.4688,185.2031 Q1247.8438,184.625 1247.25,184.3594 Q1246.6563,184.0781 1246.0313,184.0781 Q1244.6875,184.0781 1244,185.1563 Q1243.3125,186.2188 1243.3125,188.3125 Q1243.3125,190.4063 1244,191.4844 Q1244.6875,192.5469 1246.0313,192.5469 Q1246.6563,192.5469 1247.25,192.2813 Q1247.8438,192 1248.4688,191.4219 L1248.4688,194.1406 Z " fill="#000000"/><text fill="#000000" font-family="sans-serif" font-size="12" lengthAdjust="spacing" textLength="59" x="1259.5" y="192.6543">Resource</text><!--MD5=[176bc0a65f2558a2e68a39a8b34c74bb]
class Date_Range--><rect fill="#FEFECE" filter="url(#f13e6o2zikihlt)" height="32" id="Date_Range" style="stroke:#A80036;stroke-width:1.5;" width="108" x="7" y="172.5"/><ellipse cx="22" cy="188.5" fill="#ADD1B2" rx="11" ry="11" style="stroke:#A80036;stroke-width:1.0;"/><path d="M24.9688,194.1406 Q24.3906,194.4375 23.75,194.5781 Q23.1094,194.7344 22.4063,194.7344 Q19.9063,194.7344 18.5781,193.0938 Q17.2656,191.4375 17.2656,188.3125 Q17.2656,185.1875 18.5781,183.5313 Q19.9063,181.875 22.4063,181.875 Q23.1094,181.875 23.75,182.0313 Q24.4063,182.1875 24.9688,182.4844 L24.9688,185.2031 Q24.3438,184.625 23.75,184.3594 Q23.1563,184.0781 22.5313,184.0781 Q21.1875,184.0781 20.5,185.1563 Q19.8125,186.2188 19.8125,188.3125 Q19.8125,190.4063 20.5,191.4844 Q21.1875,192.5469 22.5313,192.5469 Q23.1563,192.5469 23.75,192.2813 Q24.3438,192 24.9688,191.4219 L24.9688,194.1406 Z " fill="#000000"/><text fill="#000000" font-family="sans-serif" font-size="12" lengthAdjust="spacing" textLength="76" x="36" y="192.6543">Date_Range</text><!--MD5=[a0318ef586937002b2555963e2a1f4ad]
class Contact_Information--><rect fill="#FEFECE" filter="url(#f13e6o2zikihlt)" height="32" id="Contact_Information" style="stroke:#A80036;stroke-width:1.5;" width="158" x="150" y="172.5"/><ellipse cx="165" cy="188.5" fill="#ADD1B2" rx="11" ry="11" style="stroke:#A80036;stroke-width:1.0;"/><path d="M167.9688,194.1406 Q167.3906,194.4375 166.75,194.5781 Q166.1094,194.7344 165.4063,194.7344 Q162.9063,194.7344 161.5781,193.0938 Q160.2656,191.4375 160.2656,188.3125 Q160.2656,185.1875 161.5781,183.5313 Q162.9063,181.875 165.4063,181.875 Q166.1094,181.875 166.75,182.0313 Q167.4063,182.1875 167.9688,182.4844 L167.9688,185.2031 Q167.3438,184.625 166.75,184.3594 Q166.1563,184.0781 165.5313,184.0781 Q164.1875,184.0781 163.5,185.1563 Q162.8125,186.2188 162.8125,188.3125 Q162.8125,190.4063 163.5,191.4844 Q164.1875,192.5469 165.5313,192.5469 Q166.1563,192.5469 166.75,192.2813 Q167.3438,192 167.9688,191.4219 L167.9688,194.1406 Z " fill="#000000"/><text fill="#000000" font-family="sans-serif" font-size="12" lengthAdjust="spacing" textLength="126" x="179" y="192.6543">Contact_Information</text><!--MD5=[a030fa97ffb865708cae79f6847e8968]
class Condition--><rect codeLine="655" fill="#FFFFFF" filter="url(#f13e6o2zikihlt)" height="32" id="Condition" style="stroke:#A80036;stroke-width:1.5;" width="91" x="941.5" y="172.5"/><ellipse cx="956.5" cy="188.5" fill="#ADD1B2" rx="11" ry="11" style="stroke:#A80036;stroke-width:1.0;"/><path d="M959.4688,194.1406 Q958.8906,194.4375 958.25,194.5781 Q957.6094,194.7344 956.9063,194.7344 Q954.4063,194.7344 953.0781,193.0938 Q951.7656,191.4375 951.7656,188.3125 Q951.7656,185.1875 953.0781,183.5313 Q954.4063,181.875 956.9063,181.875 Q957.6094,181.875 958.25,182.0313 Q958.9063,182.1875 959.4688,182.4844 L959.4688,185.2031 Q958.8438,184.625 958.25,184.3594 Q957.6563,184.0781 957.0313,184.0781 Q955.6875,184.0781 955,185.1563 Q954.3125,186.2188 954.3125,188.3125 Q954.3125,190.4063 955,191.4844 Q955.6875,192.5469 957.0313,192.5469 Q957.6563,192.5469 958.25,192.2813 Q958.8438,192 959.4688,191.4219 L959.4688,194.1406 Z " fill="#000000"/><text fill="#000000" font-family="sans-serif" font-size="12" lengthAdjust="spacing" textLength="59" x="970.5" y="192.6543">Condition</text><!--MD5=[92dc6ef2f70a23983af4e570fc6275cd]
class Funding--><rect codeLine="243" fill="#FFFFFF" filter="url(#f13e6o2zikihlt)" height="32" id="Funding" style="stroke:#A80036;stroke-width:1.5;" width="82" x="1235" y="309"/><ellipse cx="1250" cy="325" fill="#ADD1B2" rx="11" ry="11" style="stroke:#A80036;stroke-width:1.0;"/><path d="M1252.9688,330.6406 Q1252.3906,330.9375 1251.75,331.0781 Q1251.1094,331.2344 1250.4063,331.2344 Q1247.9063,331.2344 1246.5781,329.5938 Q1245.2656,327.9375 1245.2656,324.8125 Q1245.2656,321.6875 1246.5781,320.0313 Q1247.9063,318.375 1250.4063,318.375 Q1251.1094,318.375 1251.75,318.5313 Q1252.4063,318.6875 1252.9688,318.9844 L1252.9688,321.7031 Q1252.3438,321.125 1251.75,320.8594 Q1251.1563,320.5781 1250.5313,320.5781 Q1249.1875,320.5781 1248.5,321.6563 Q1247.8125,322.7188 1247.8125,324.8125 Q1247.8125,326.9063 1248.5,327.9844 Q1249.1875,329.0469 1250.5313,329.0469 Q1251.1563,329.0469 1251.75,328.7813 Q1252.3438,328.5 1252.9688,327.9219 L1252.9688,330.6406 Z " fill="#000000"/><text fill="#000000" font-family="sans-serif" font-size="12" lengthAdjust="spacing" textLength="50" x="1264" y="329.1543">Funding</text><!--MD5=[6ff7a5782d5ed311fa9cacd2967fdc4e]
class Funding_Application--><rect codeLine="467" fill="#FFFFFF" filter="url(#f13e6o2zikihlt)" height="32" id="Funding_Application" style="stroke:#A80036;stroke-width:1.5;" width="157" x="569.5" y="309"/><ellipse cx="584.5" cy="325" fill="#ADD1B2" rx="11" ry="11" style="stroke:#A80036;stroke-width:1.0;"/><path d="M587.4688,330.6406 Q586.8906,330.9375 586.25,331.0781 Q585.6094,331.2344 584.9063,331.2344 Q582.4063,331.2344 581.0781,329.5938 Q579.7656,327.9375 579.7656,324.8125 Q579.7656,321.6875 581.0781,320.0313 Q582.4063,318.375 584.9063,318.375 Q585.6094,318.375 586.25,318.5313 Q586.9063,318.6875 587.4688,318.9844 L587.4688,321.7031 Q586.8438,321.125 586.25,320.8594 Q585.6563,320.5781 585.0313,320.5781 Q583.6875,320.5781 583,321.6563 Q582.3125,322.7188 582.3125,324.8125 Q582.3125,326.9063 583,327.9844 Q583.6875,329.0469 585.0313,329.0469 Q585.6563,329.0469 586.25,328.7813 Q586.8438,328.5 587.4688,327.9219 L587.4688,330.6406 Z " fill="#000000"/><text fill="#000000" font-family="sans-serif" font-size="12" lengthAdjust="spacing" textLength="125" x="598.5" y="329.1543">Funding_Application</text><!--MD5=[0db85a2d6db180b105db5ebe9e86b106]
class Call_for_Funding_Applications--><rect codeLine="481" fill="#FFFFFF" filter="url(#f13e6o2zikihlt)" height="32" id="Call_for_Funding_Applications" style="stroke:#A80036;stroke-width:1.5;" width="215" x="314.5" y="309"/><ellipse cx="329.5" cy="325" fill="#ADD1B2" rx="11" ry="11" style="stroke:#A80036;stroke-width:1.0;"/><path d="M332.4688,330.6406 Q331.8906,330.9375 331.25,331.0781 Q330.6094,331.2344 329.9063,331.2344 Q327.4063,331.2344 326.0781,329.5938 Q324.7656,327.9375 324.7656,324.8125 Q324.7656,321.6875 326.0781,320.0313 Q327.4063,318.375 329.9063,318.375 Q330.6094,318.375 331.25,318.5313 Q331.9063,318.6875 332.4688,318.9844 L332.4688,321.7031 Q331.8438,321.125 331.25,320.8594 Q330.6563,320.5781 330.0313,320.5781 Q328.6875,320.5781 328,321.6563 Q327.3125,322.7188 327.3125,324.8125 Q327.3125,326.9063 328,327.9844 Q328.6875,329.0469 330.0313,329.0469 Q330.6563,329.0469 331.25,328.7813 Q331.8438,328.5 332.4688,327.9219 L332.4688,330.6406 Z " fill="#000000"/><text fill="#000000" font-family="sans-serif" font-size="12" lengthAdjust="spacing" textLength="183" x="343.5" y="329.1543">Call_for_Funding_Applications</text><!--MD5=[08c6a5fbc728deaee606fab1d8cae3e6]
reverse link Agent to Call_for_Applications--><path codeLine="519" d="M422,90.17 C422,118.18 422,152.98 422,172.47 " fill="none" id="Agent-backto-Call_for_Applications" style="stroke:#A80036;stroke-width:1.0;"/><polygon fill="#A80036" points="422,85.02,418,94.02,422,90.02,426,94.02,422,85.02" style="stroke:#A80036;stroke-width:1.0;"/><text fill="#000000" font-family="sans-serif" font-size="13" lengthAdjust="spacing" textLength="38" x="380.6156" y="105.3482">issuer</text><!--MD5=[a59b92cc30ee8d24d8d720fed1533057]
link Call_for_Applications to Application--><path codeLine="527" d="M501.84,188.5 C547.28,188.5 602.82,188.5 642.3,188.5 " fill="none" id="Call_for_Applications-Application" style="stroke:#A80036;stroke-width:1.0;"/><polygon fill="#000000" points="519,177.0664,528.0451,180.0053,528.0451,174.1275,519,177.0664" style="stroke:#000000;stroke-width:1.0;"/><text fill="#000000" font-family="sans-serif" font-size="13" lengthAdjust="spacing" textLength="91" x="533" y="181.5669">in response to</text><text fill="#000000" font-family="sans-serif" font-size="13" lengthAdjust="spacing" textLength="24" x="509.4455" y="201.1935">0..1</text><text fill="#000000" font-family="sans-serif" font-size="13" lengthAdjust="spacing" textLength="23" x="611.3306" y="201.5489">0..*</text><!--MD5=[555d991a4645b83cbfa238b562f91a92]
reverse link Resource_Offer to Call_for_Applications--><path codeLine="651" d="M832.35,72.95 C801.53,91.99 757.08,117.03 715,132 C645.12,156.85 561.7,171.27 501.78,179.15 " fill="none" id="Resource_Offer-backto-Call_for_Applications" style="stroke:#A80036;stroke-width:1.0;"/><polygon fill="none" points="828.99,66.79,849.64,62.01,836.47,78.62,828.99,66.79" style="stroke:#A80036;stroke-width:1.0;"/><!--MD5=[0c5226e8f688e58cc6150c041928918d]
reverse link Agent to Application--><path codeLine="511" d="M464.47,88.56 C481.84,103.84 502.82,120.26 524,132 C561.28,152.66 607.47,167.17 642.14,176.16 " fill="none" id="Agent-backto-Application" style="stroke:#A80036;stroke-width:1.0;"/><polygon fill="#A80036" points="460.6,85.12,464.6671,94.0899,464.3363,88.4427,469.9834,88.1119,460.6,85.12" style="stroke:#A80036;stroke-width:1.0;"/><polygon fill="#000000" points="524.5155,121.3553,531.3284,127.9912,533.9277,122.7193,524.5155,121.3553" style="stroke:#000000;stroke-width:1.0;"/><text fill="#000000" font-family="sans-serif" font-size="13" lengthAdjust="spacing" textLength="58" x="538" y="128.0669">applicant</text><text fill="#000000" font-family="sans-serif" font-size="13" lengthAdjust="spacing" textLength="24" x="441.3381" y="105.466">0..1</text><!--MD5=[0c5226e8f688e58cc6150c041928918d]
reverse link Agent to Application--><path codeLine="515" d="M539,85.54 C560.16,94.16 581.64,104.04 601,115 C624.18,128.13 647.73,146.8 665.2,161.91 " fill="none" id="Agent-backto-Application-1" style="stroke:#A80036;stroke-width:1.0;"/><polygon fill="#A80036" points="534.21,83.61,541.0544,90.6919,538.8454,85.4842,544.0532,83.2752,534.21,83.61" style="stroke:#A80036;stroke-width:1.0;"/><polygon fill="#000000" points="625.7223,120.9777,631.9392,128.1751,634.9823,123.1463,625.7223,120.9777" style="stroke:#000000;stroke-width:1.0;"/><text fill="#000000" font-family="sans-serif" font-size="13" lengthAdjust="spacing" textLength="67" x="639" y="128.0669">addressee</text><text fill="#000000" font-family="sans-serif" font-size="13" lengthAdjust="spacing" textLength="24" x="542.1672" y="82.5968">0..1</text><!--MD5=[33d78e85ad541f0b21b2e8ffaf1167a1]
reverse link Application to Document--><path codeLine="531" d="M699.72,227.63 C703.29,239.63 708.73,252.29 717,262 C729.08,276.19 745.23,287.57 761.73,296.5 " fill="none" id="Application-backto-Document" style="stroke:#A80036;stroke-width:1.0;"/><polygon fill="#FFFFFF" points="696.53,215.01,694.1209,221.8068,699.4683,226.6447,701.8774,219.8479,696.53,215.01" style="stroke:#A80036;stroke-width:1.0;"/><polygon fill="#000000" points="725.3456,257.2822,721.4774,248.5938,717.1093,252.5268,725.3456,257.2822" style="stroke:#000000;stroke-width:1.0;"/><text fill="#000000" font-family="sans-serif" font-size="13" lengthAdjust="spacing" textLength="56" x="731" y="258.0669">contents</text><text fill="#000000" font-family="sans-serif" font-size="13" lengthAdjust="spacing" textLength="24" x="730.0466" y="290.384">0..1</text><!--MD5=[34d3520aa241427fbea18906841a2be6]
reverse link Resource_Request to Application--><path codeLine="669" d="M1069.65,74.66 C1044.62,93.9 1008.67,118.44 973,132 C888.16,164.25 859.34,141.16 771,162 C762.13,164.09 752.81,166.73 743.84,169.52 " fill="none" id="Resource_Request-backto-Application" style="stroke:#A80036;stroke-width:1.0;"/><polygon fill="none" points="1065.43,69.08,1085.44,62.11,1074.14,80.04,1065.43,69.08" style="stroke:#A80036;stroke-width:1.0;"/><!--MD5=[392b5d5331db5043115a06bd654f787a]
link Agent to Date_Range--><path codeLine="15" d="M324.31,85.02 C252.55,112.95 158.51,149.55 104.42,170.6 " fill="none" id="Agent-to-Date_Range" style="stroke:#A80036;stroke-width:1.0;stroke-dasharray:7.0,7.0;"/><polygon fill="#A80036" points="99.63,172.47,109.4668,172.9564,104.2938,170.6674,106.5827,165.4944,99.63,172.47" style="stroke:#A80036;stroke-width:1.0;"/><!--MD5=[d43df4fbdad36fd00892352d175d5460]
link Agent to Contact_Information--><path codeLine="16" d="M369.77,85.02 C332.1,112.44 282.95,148.23 253.8,169.44 " fill="none" id="Agent-to-Contact_Information" style="stroke:#A80036;stroke-width:1.0;stroke-dasharray:7.0,7.0;"/><polygon fill="#A80036" points="249.65,172.47,259.2804,170.4074,253.6924,169.5274,254.5724,163.9394,249.65,172.47" style="stroke:#A80036;stroke-width:1.0;"/><text fill="#000000" font-family="sans-serif" font-size="13" lengthAdjust="spacing" textLength="23" x="229.7953" y="161.4713">0..*</text><!--MD5=[d43c569b2c93336ab3caeea3dfd29687]
link Resource_Offer to Resource--><path codeLine="647" d="M915.38,62.05 C978.64,83.99 1099.88,126.08 1203,162 C1210.98,164.78 1219.45,167.73 1227.68,170.61 " fill="none" id="Resource_Offer-to-Resource" style="stroke:#A80036;stroke-width:1.0;"/><polygon fill="#A80036" points="1232.77,172.39,1225.6058,165.6317,1228.0529,170.7319,1222.9528,173.179,1232.77,172.39" style="stroke:#A80036;stroke-width:1.0;"/><polygon fill="#000000" points="1121.7228,125.2081,1114.1442,119.4622,1112.2142,125.0142,1121.7228,125.2081" style="stroke:#000000;stroke-width:1.0;"/><text fill="#000000" font-family="sans-serif" font-size="13" lengthAdjust="spacing" textLength="12" x="1126" y="128.0669">of</text><text fill="#000000" font-family="sans-serif" font-size="13" lengthAdjust="spacing" textLength="23" x="902.9403" y="81.9398">0..*</text><text fill="#000000" font-family="sans-serif" font-size="13" lengthAdjust="spacing" textLength="23" x="1199.3371" y="164.9689">1..*</text><!--MD5=[70b48935e489e5910f3d4342ebe97e3f]
reverse link Resource_Offer to Condition--><path codeLine="660" d="M892.64,72.22 C916.42,101.27 954.74,148.09 974.43,172.15 " fill="none" id="Resource_Offer-backto-Condition" style="stroke:#A80036;stroke-width:1.0;"/><polygon fill="#FFFFFF" points="884.31,62.04,885.0197,69.2161,891.9167,71.321,891.207,64.1449,884.31,62.04" style="stroke:#A80036;stroke-width:1.0;"/><polygon fill="#000000" points="947.1669,127.4356,943.7122,118.5747,939.1637,122.2976,947.1669,127.4356" style="stroke:#000000;stroke-width:1.0;"/><text fill="#000000" font-family="sans-serif" font-size="13" lengthAdjust="spacing" textLength="23" x="953" y="128.0669">has</text><text fill="#000000" font-family="sans-serif" font-size="13" lengthAdjust="spacing" textLength="23" x="943.4568" y="161.3386">0..*</text><!--MD5=[de101208c945d7bf9a03e03cc38155cf]
reverse link Resource_Offer to Document--><path codeLine="677" d="M859.59,74.29 C849.9,97.17 837.24,130.99 832,162 C824.48,206.52 827.96,258.9 831.6,291.77 " fill="none" id="Resource_Offer-backto-Document" style="stroke:#A80036;stroke-width:1.0;"/><polygon fill="#FFFFFF" points="864.87,62.19,858.8078,66.0951,860.0809,73.193,866.1431,69.2878,864.87,62.19" style="stroke:#A80036;stroke-width:1.0;"/><polygon fill="#000000" points="836.3618,193.5255,840.4312,184.9296,834.6015,184.1793,836.3618,193.5255" style="stroke:#000000;stroke-width:1.0;"/><text fill="#000000" font-family="sans-serif" font-size="13" lengthAdjust="spacing" textLength="77" x="846" y="193.0669">described in</text><text fill="#000000" font-family="sans-serif" font-size="13" lengthAdjust="spacing" textLength="24" x="834.5332" y="82.1262">0..1</text><text fill="#000000" font-family="sans-serif" font-size="13" lengthAdjust="spacing" textLength="23" x="805.4697" y="280.8697">0..*</text><!--MD5=[fc92b3bd86963d223135ad44997ca08d]
reverse link Resource_Request to Document--><path codeLine="673" d="M1101.08,75.43 C1097.19,111.93 1085.44,175.29 1050,215 C1012.8,256.69 955.91,284.6 910.14,301.73 " fill="none" id="Resource_Request-backto-Document" style="stroke:#A80036;stroke-width:1.0;"/><polygon fill="#FFFFFF" points="1102.28,62.01,1097.7616,67.63,1101.2114,73.9623,1105.7298,68.3424,1102.28,62.01" style="stroke:#A80036;stroke-width:1.0;"/><polygon fill="#000000" points="1081.7757,192.3879,1089.8548,187.37,1085.3624,183.5796,1081.7757,192.3879" style="stroke:#000000;stroke-width:1.0;"/><text fill="#000000" font-family="sans-serif" font-size="13" lengthAdjust="spacing" textLength="77" x="1094" y="193.0669">described in</text><text fill="#000000" font-family="sans-serif" font-size="13" lengthAdjust="spacing" textLength="24" x="1073.9075" y="82.1813">0..1</text><text fill="#000000" font-family="sans-serif" font-size="13" lengthAdjust="spacing" textLength="23" x="918.0349" y="295.9844">0..*</text><!--MD5=[633efb3059d8abd5e23b324815a30d32]
link Resource_Request to Resource_Request--><path codeLine="681" d="M1177.72,31.88 C1197.51,32.68 1212.5,37.39 1212.5,46 C1212.5,53.8 1200.19,58.4 1183.15,59.79 " fill="none" id="Resource_Request-to-Resource_Request" style="stroke:#A80036;stroke-width:1.0;"/><polygon fill="#A80036" points="1177.72,60.12,1186.9434,63.5738,1182.711,59.8205,1186.4643,55.5882,1177.72,60.12" style="stroke:#A80036;stroke-width:1.0;"/><polygon fill="#000000" points="1217.702,51.0623,1220.2731,41.9059,1214.4001,42.1433,1217.702,51.0623" style="stroke:#000000;stroke-width:1.0;"/><text fill="#000000" font-family="sans-serif" font-size="13" lengthAdjust="spacing" textLength="38" x="1231.5" y="50.5669">revise</text><text fill="#000000" font-family="sans-serif" font-size="13" lengthAdjust="spacing" textLength="23" x="1185.399" y="27.0273">0..*</text><text fill="#000000" font-family="sans-serif" font-size="13" lengthAdjust="spacing" textLength="24" x="1185.4435" y="57.7824">0..1</text><!--MD5=[0db8103b3d861b3f1c0ae604b4b70acc]
link Resource_Request to Resource--><path codeLine="685" d="M1121.51,62.04 C1153.43,87.95 1218.69,140.96 1253.29,169.06 " fill="none" id="Resource_Request-to-Resource" style="stroke:#A80036;stroke-width:1.0;"/><polygon fill="#A80036" points="1257.36,172.36,1252.8973,163.5802,1253.4794,169.207,1247.8526,169.7891,1257.36,172.36" style="stroke:#A80036;stroke-width:1.0;"/><polygon fill="#000000" points="1212.8813,126.7185,1207.7127,118.735,1204.0072,123.2977,1212.8813,126.7185" style="stroke:#000000;stroke-width:1.0;"/><text fill="#000000" font-family="sans-serif" font-size="13" lengthAdjust="spacing" textLength="12" x="1218" y="128.0669">of</text><text fill="#000000" font-family="sans-serif" font-size="13" lengthAdjust="spacing" textLength="23" x="1131.4508" y="81.9265">0..*</text><text fill="#000000" font-family="sans-serif" font-size="13" lengthAdjust="spacing" textLength="23" x="1223.9994" y="161.3235">1..*</text><!--MD5=[a21829bf9e22d7ad2257d12c520c50b2]
reverse link Resource to Funding--><path codeLine="248" d="M1276,224.86 C1276,252.1 1276,288.42 1276,308.68 " fill="none" id="Resource-backto-Funding" style="stroke:#A80036;stroke-width:1.0;"/><polygon fill="none" points="1269,224.67,1276,204.67,1283,224.67,1269,224.67" style="stroke:#A80036;stroke-width:1.0;"/><!--MD5=[7072accdc040e53c8442e4ca7ea58660]
link Funding to Funding--><path codeLine="307" d="M1317.05,312.11 C1335.75,310.79 1352,315.09 1352,325 C1352,334.91 1335.75,339.21 1317.05,337.89 " fill="none" id="Funding-Funding" style="stroke:#A80036;stroke-width:1.0;"/><polygon fill="#000000" points="1356.6479,330.054,1360.2165,321.2383,1354.3532,320.8244,1356.6479,330.054" style="stroke:#000000;stroke-width:1.0;"/><text fill="#000000" font-family="sans-serif" font-size="13" lengthAdjust="spacing" textLength="56" x="1371" y="329.5669">is part of</text><text fill="#000000" font-family="sans-serif" font-size="13" lengthAdjust="spacing" textLength="23" x="1325.0967" y="306.0648">0..*</text><text fill="#000000" font-family="sans-serif" font-size="13" lengthAdjust="spacing" textLength="23" x="1325.0967" y="335.7924">0..*</text><!--MD5=[dc4598ce2d2e32aede71f5bf98c1fc33]
reverse link Application to Funding_Application--><path codeLine="472" d="M673.94,234.17 C672.56,237.81 671.22,241.46 670,245 C662.43,266.94 655.58,292.97 651.6,308.98 " fill="none" id="Application-backto-Funding_Application" style="stroke:#A80036;stroke-width:1.0;"/><polygon fill="none" points="667.61,231.16,681.58,215.23,680.59,236.39,667.61,231.16" style="stroke:#A80036;stroke-width:1.0;"/><!--MD5=[ce01e496d5f2dcc88ba1226d075cb019]
reverse link Call_for_Applications to Call_for_Funding_Applications--><path codeLine="543" d="M422,224.86 C422,252.1 422,288.42 422,308.68 " fill="none" id="Call_for_Applications-backto-Call_for_Funding_Applications" style="stroke:#A80036;stroke-width:1.0;"/><polygon fill="none" points="415,224.67,422,204.67,429,224.67,415,224.67" style="stroke:#A80036;stroke-width:1.0;"/><!--MD5=[948fd93aef6d2916551d686e58a4c0f7]
@startuml

    !includesub core.puml!common
    !includesub core.puml!Call_for_Applications
    !includesub core.puml!Application
    !includesub core.puml!Resource
    !includesub core.puml!Document
    !includesub core.puml!Agent
    !includesub core.puml!Resource_Offer
    !includesub core.puml!Resource_Request
    !includesub core.puml!Condition
    !includesub core.puml!Funding
    !includesub core.puml!Funding_Application
    !includesub core.puml!Call_for_Funding_Applications

@enduml

@startuml

    hide empty members
    skinparam BoxPadding 120
    class "Call_for_Applications" #ffffff {
    }
	"Call_for_Applications" -u-> "issuer" "Agent"
    "Application" "0..*" -l- "0..1" "Call_for_Applications" : in response to >
	"Resource_Offer" <|- - "Call_for_Applications"
    class "Application" #ffffff {
        date : Date
    }
    "Application" -u-> "0..1" "Agent" : applicant >
    "Application" -u-> "0..1" "Agent" : addressee >
    "Application" o- - "0..1" "Document" : contents >
	"Resource_Request" <|- - "Application"
    class "Resource" #ffffff {
    }
    class "Document" #ffffff {
        title : Multilingual_String
        publicationDate : Date
    }
    class "Agent" #ffffff {
        keywords : List<Multilingual_String>
    	lifetime : Date_Range
    	contacts : List<Contact_Information>
    }
    "Agent" ..> "Date_Range"
    "Agent" ..> "0..*" "Contact_Information"
	class "Resource_Offer" #ffffff {
	}
	"Resource_Offer" "0..*" - -> "1..*" "Resource" : of >
	"Resource_Offer" o- - "0..*" "Condition" : has >
	"Resource_Offer" "0..1" o- - "0..*" "Document" : described in >
	class "Resource_Request" #ffffff {
	}
	"Resource_Request" "0..1" o- - "0..*" "Document" : described in >
	"Resource_Request" "0..*" - -> "0..1" "Resource_Request" : revise >
	"Resource_Request" "0..*" - -> "1..*" "Resource" : of >
	class "Condition" #ffffff {
	}
    class "Funding" #ffffff {
    }
     "Resource" <|- - "Funding"
     "Funding" "0..*" - - "0..*" "Funding" : is part of >
    class "Funding_Application" #ffffff {
    }
    "Application" <|- - "Funding_Application"
    class "Call_for_Funding_Applications" #ffffff {
    }
    "Call_for_Applications" <|- - "Call_for_Funding_Applications"

@enduml

PlantUML version 1.2021.8(Sat Jun 26 08:20:59 UTC 2021)
(GPL source distribution)
Java Runtime: OpenJDK Runtime Environment
JVM: OpenJDK 64-Bit Server VM
Default Encoding: UTF-8
Language: en
Country: null
--></g></svg>