<?xml version="1.0" encoding="UTF-8" standalone="no"?><svg xmlns="http://www.w3.org/2000/svg" xmlns:xlink="http://www.w3.org/1999/xlink" contentScriptType="application/ecmascript" contentStyleType="text/css" height="604px" preserveAspectRatio="none" style="width:599px;height:604px;background:#FFFFFF;" version="1.1" viewBox="0 0 599 604" width="599px" zoomAndPan="magnify"><defs><filter height="300%" id="fix6pnai2dtch" width="300%" x="-1" y="-1"><feGaussianBlur result="blurOut" stdDeviation="2.0"/><feColorMatrix in="blurOut" result="blurOut2" type="matrix" values="0 0 0 0 0 0 0 0 0 0 0 0 0 0 0 0 0 0 .4 0"/><feOffset dx="4.0" dy="4.0" in="blurOut2" result="blurOut3"/><feBlend in="SourceGraphic" in2="blurOut3" mode="normal"/></filter></defs><g><!--MD5=[0b4e4b4980470ea387cc45de9bd14b5b]
class Application--><rect codeLine="137" fill="#FFFFFF" filter="url(#fix6pnai2dtch)" height="52.8047" id="Application" style="stroke:#A80036;stroke-width:1.5;" width="101" x="193.8754" y="194.5668"/><ellipse cx="208.8754" cy="210.5668" fill="#ADD1B2" rx="11" ry="11" style="stroke:#A80036;stroke-width:1.0;"/><path d="M211.8441,216.2075 Q211.266,216.5043 210.6254,216.645 Q209.9848,216.8012 209.2816,216.8012 Q206.7816,216.8012 205.4535,215.1606 Q204.141,213.5043 204.141,210.3793 Q204.141,207.2543 205.4535,205.5981 Q206.7816,203.9418 209.2816,203.9418 Q209.9848,203.9418 210.6254,204.0981 Q211.2816,204.2543 211.8441,204.5512 L211.8441,207.27 Q211.2191,206.6918 210.6254,206.4262 Q210.0316,206.145 209.4066,206.145 Q208.0629,206.145 207.3754,207.2231 Q206.6879,208.2856 206.6879,210.3793 Q206.6879,212.4731 207.3754,213.5512 Q208.0629,214.6137 209.4066,214.6137 Q210.0316,214.6137 210.6254,214.3481 Q211.2191,214.0668 211.8441,213.4887 L211.8441,216.2075 Z " fill="#000000"/><text fill="#000000" font-family="sans-serif" font-size="12" lengthAdjust="spacing" textLength="69" x="222.8754" y="214.7211">Application</text><line style="stroke:#A80036;stroke-width:1.5;" x1="194.8754" x2="293.8754" y1="226.5668" y2="226.5668"/><text fill="#000000" font-family="sans-serif" font-size="11" lengthAdjust="spacing" textLength="63" x="199.8754" y="240.7773">date : Date</text><!--MD5=[3db53164d4ddbdea4156eda8a776d7e7]
class Decision--><rect codeLine="141" fill="#FFFFFF" filter="url(#fix6pnai2dtch)" height="52.8047" id="Decision" style="stroke:#A80036;stroke-width:1.5;" width="85" x="42.8754" y="307.5668"/><ellipse cx="57.8754" cy="323.5668" fill="#ADD1B2" rx="11" ry="11" style="stroke:#A80036;stroke-width:1.0;"/><path d="M60.8441,329.2075 Q60.266,329.5043 59.6254,329.645 Q58.9848,329.8012 58.2816,329.8012 Q55.7816,329.8012 54.4535,328.1606 Q53.141,326.5043 53.141,323.3793 Q53.141,320.2543 54.4535,318.5981 Q55.7816,316.9418 58.2816,316.9418 Q58.9848,316.9418 59.6254,317.0981 Q60.2816,317.2543 60.8441,317.5512 L60.8441,320.27 Q60.2191,319.6918 59.6254,319.4262 Q59.0316,319.145 58.4066,319.145 Q57.0629,319.145 56.3754,320.2231 Q55.6879,321.2856 55.6879,323.3793 Q55.6879,325.4731 56.3754,326.5512 Q57.0629,327.6137 58.4066,327.6137 Q59.0316,327.6137 59.6254,327.3481 Q60.2191,327.0668 60.8441,326.4887 L60.8441,329.2075 Z " fill="#000000"/><text fill="#000000" font-family="sans-serif" font-size="12" lengthAdjust="spacing" textLength="53" x="71.8754" y="327.7211">Decision</text><line style="stroke:#A80036;stroke-width:1.5;" x1="43.8754" x2="126.8754" y1="339.5668" y2="339.5668"/><text fill="#000000" font-family="sans-serif" font-size="11" lengthAdjust="spacing" textLength="63" x="48.8754" y="353.7773">date : Date</text><!--MD5=[6ff7a5782d5ed311fa9cacd2967fdc4e]
class Funding_Application--><rect codeLine="145" fill="#FFFFFF" filter="url(#fix6pnai2dtch)" height="32" id="Funding_Application" style="stroke:#A80036;stroke-width:1.5;" width="157" x="234.8754" y="318.0668"/><ellipse cx="249.8754" cy="334.0668" fill="#ADD1B2" rx="11" ry="11" style="stroke:#A80036;stroke-width:1.0;"/><path d="M252.8441,339.7075 Q252.266,340.0043 251.6254,340.145 Q250.9848,340.3012 250.2816,340.3012 Q247.7816,340.3012 246.4535,338.6606 Q245.141,337.0043 245.141,333.8793 Q245.141,330.7543 246.4535,329.0981 Q247.7816,327.4418 250.2816,327.4418 Q250.9848,327.4418 251.6254,327.5981 Q252.2816,327.7543 252.8441,328.0512 L252.8441,330.77 Q252.2191,330.1918 251.6254,329.9262 Q251.0316,329.645 250.4066,329.645 Q249.0629,329.645 248.3754,330.7231 Q247.6879,331.7856 247.6879,333.8793 Q247.6879,335.9731 248.3754,337.0512 Q249.0629,338.1137 250.4066,338.1137 Q251.0316,338.1137 251.6254,337.8481 Q252.2191,337.5668 252.8441,336.9887 L252.8441,339.7075 Z " fill="#000000"/><text fill="#000000" font-family="sans-serif" font-size="12" lengthAdjust="spacing" textLength="125" x="263.8754" y="338.2211">Funding_Application</text><!--MD5=[edcf71e28750a8856eb4372d573715ca]
class Call_for_Applications--><rect codeLine="148" fill="#FFFFFF" filter="url(#fix6pnai2dtch)" height="32" id="Call_for_Applications" style="stroke:#A80036;stroke-width:1.5;" width="159" x="426.8754" y="318.0668"/><ellipse cx="441.8754" cy="334.0668" fill="#ADD1B2" rx="11" ry="11" style="stroke:#A80036;stroke-width:1.0;"/><path d="M444.8441,339.7075 Q444.266,340.0043 443.6254,340.145 Q442.9848,340.3012 442.2816,340.3012 Q439.7816,340.3012 438.4535,338.6606 Q437.141,337.0043 437.141,333.8793 Q437.141,330.7543 438.4535,329.0981 Q439.7816,327.4418 442.2816,327.4418 Q442.9848,327.4418 443.6254,327.5981 Q444.2816,327.7543 444.8441,328.0512 L444.8441,330.77 Q444.2191,330.1918 443.6254,329.9262 Q443.0316,329.645 442.4066,329.645 Q441.0629,329.645 440.3754,330.7231 Q439.6879,331.7856 439.6879,333.8793 Q439.6879,335.9731 440.3754,337.0512 Q441.0629,338.1137 442.4066,338.1137 Q443.0316,338.1137 443.6254,337.8481 Q444.2191,337.5668 444.8441,336.9887 L444.8441,339.7075 Z " fill="#000000"/><text fill="#000000" font-family="sans-serif" font-size="12" lengthAdjust="spacing" textLength="127" x="455.8754" y="338.2211">Call_for_Applications</text><!--MD5=[0db85a2d6db180b105db5ebe9e86b106]
class Call_for_Funding_Applications--><rect codeLine="152" fill="#FFFFFF" filter="url(#fix6pnai2dtch)" height="32" id="Call_for_Funding_Applications" style="stroke:#A80036;stroke-width:1.5;" width="215" x="250.8754" y="443.5668"/><ellipse cx="265.8754" cy="459.5668" fill="#ADD1B2" rx="11" ry="11" style="stroke:#A80036;stroke-width:1.0;"/><path d="M268.8441,465.2075 Q268.266,465.5043 267.6254,465.645 Q266.9847,465.8012 266.2816,465.8012 Q263.7816,465.8012 262.4535,464.1606 Q261.141,462.5043 261.141,459.3793 Q261.141,456.2543 262.4535,454.5981 Q263.7816,452.9418 266.2816,452.9418 Q266.9847,452.9418 267.6254,453.0981 Q268.2816,453.2543 268.8441,453.5512 L268.8441,456.27 Q268.2191,455.6918 267.6254,455.4262 Q267.0316,455.145 266.4066,455.145 Q265.0629,455.145 264.3754,456.2231 Q263.6879,457.2856 263.6879,459.3793 Q263.6879,461.4731 264.3754,462.5512 Q265.0629,463.6137 266.4066,463.6137 Q267.0316,463.6137 267.6254,463.3481 Q268.2191,463.0668 268.8441,462.4887 L268.8441,465.2075 Z " fill="#000000"/><text fill="#000000" font-family="sans-serif" font-size="12" lengthAdjust="spacing" textLength="183" x="279.8754" y="463.7211">Call_for_Funding_Applications</text><!--MD5=[bb370c11d182b7ebaea7e6fa83404e81]
class Process--><rect codeLine="155" fill="#FFFFFF" filter="url(#fix6pnai2dtch)" height="32" id="Process" style="stroke:#A80036;stroke-width:1.5;" width="82" x="236.3754" y="10.5668"/><ellipse cx="251.3754" cy="26.5668" fill="#ADD1B2" rx="11" ry="11" style="stroke:#A80036;stroke-width:1.0;"/><path d="M254.3441,32.2075 Q253.766,32.5043 253.1254,32.645 Q252.4848,32.8012 251.7816,32.8012 Q249.2816,32.8012 247.9535,31.1606 Q246.641,29.5043 246.641,26.3793 Q246.641,23.2543 247.9535,21.5981 Q249.2816,19.9418 251.7816,19.9418 Q252.4848,19.9418 253.1254,20.0981 Q253.7816,20.2543 254.3441,20.5512 L254.3441,23.27 Q253.7191,22.6918 253.1254,22.4262 Q252.5316,22.145 251.9066,22.145 Q250.5629,22.145 249.8754,23.2231 Q249.1879,24.2856 249.1879,26.3793 Q249.1879,28.4731 249.8754,29.5512 Q250.5629,30.6137 251.9066,30.6137 Q252.5316,30.6137 253.1254,30.3481 Q253.7191,30.0668 254.3441,29.4887 L254.3441,32.2075 Z " fill="#000000"/><text fill="#000000" font-family="sans-serif" font-size="12" lengthAdjust="spacing" textLength="50" x="265.3754" y="30.7211">Process</text><!--MD5=[bfa9fc2bd29dedac75ce8a7e54eaaf24]
class Evaluation_Process--><rect codeLine="159" fill="#FFFFFF" filter="url(#fix6pnai2dtch)" height="32" id="Evaluation_Process" style="stroke:#A80036;stroke-width:1.5;" width="153" x="47.8754" y="10.5668"/><ellipse cx="62.8754" cy="26.5668" fill="#ADD1B2" rx="11" ry="11" style="stroke:#A80036;stroke-width:1.0;"/><path d="M65.8441,32.2075 Q65.266,32.5043 64.6254,32.645 Q63.9848,32.8012 63.2816,32.8012 Q60.7816,32.8012 59.4535,31.1606 Q58.141,29.5043 58.141,26.3793 Q58.141,23.2543 59.4535,21.5981 Q60.7816,19.9418 63.2816,19.9418 Q63.9848,19.9418 64.6254,20.0981 Q65.2816,20.2543 65.8441,20.5512 L65.8441,23.27 Q65.2191,22.6918 64.6254,22.4262 Q64.0316,22.145 63.4066,22.145 Q62.0629,22.145 61.3754,23.2231 Q60.6879,24.2856 60.6879,26.3793 Q60.6879,28.4731 61.3754,29.5512 Q62.0629,30.6137 63.4066,30.6137 Q64.0316,30.6137 64.6254,30.3481 Q65.2191,30.0668 65.8441,29.4887 L65.8441,32.2075 Z " fill="#000000"/><text fill="#000000" font-family="sans-serif" font-size="12" lengthAdjust="spacing" textLength="121" x="76.8754" y="30.7211">Evaluation_Process</text><!--MD5=[9d44916250b776386006c440668bcfbb]
class Agent--><rect codeLine="23" fill="#FFFFFF" filter="url(#fix6pnai2dtch)" height="32" id="Agent" style="stroke:#A80036;stroke-width:1.5;" width="69" x="209.8754" y="102.5668"/><ellipse cx="224.8754" cy="118.5668" fill="#ADD1B2" rx="11" ry="11" style="stroke:#A80036;stroke-width:1.0;"/><path d="M227.8441,124.2075 Q227.266,124.5043 226.6254,124.645 Q225.9848,124.8012 225.2816,124.8012 Q222.7816,124.8012 221.4535,123.1606 Q220.141,121.5043 220.141,118.3793 Q220.141,115.2543 221.4535,113.5981 Q222.7816,111.9418 225.2816,111.9418 Q225.9848,111.9418 226.6254,112.0981 Q227.2816,112.2543 227.8441,112.5512 L227.8441,115.27 Q227.2191,114.6918 226.6254,114.4262 Q226.0316,114.145 225.4066,114.145 Q224.0629,114.145 223.3754,115.2231 Q222.6879,116.2856 222.6879,118.3793 Q222.6879,120.4731 223.3754,121.5512 Q224.0629,122.6137 225.4066,122.6137 Q226.0316,122.6137 226.6254,122.3481 Q227.2191,122.0668 227.8441,121.4887 L227.8441,124.2075 Z " fill="#000000"/><text fill="#000000" font-family="sans-serif" font-size="12" lengthAdjust="spacing" textLength="37" x="238.8754" y="122.7211">Agent</text><!--MD5=[59b530d44ae785dc18db921986a9c15c]
class Document--><rect codeLine="8" fill="#FFFFFF" filter="url(#fix6pnai2dtch)" height="78.4141" id="Document" style="stroke:#A80036;stroke-width:1.5;" width="148" x="62.3754" y="420.5668"/><ellipse cx="100.7754" cy="436.5668" fill="#ADD1B2" rx="11" ry="11" style="stroke:#A80036;stroke-width:1.0;"/><path d="M103.7441,442.2075 Q103.166,442.5043 102.5254,442.645 Q101.8848,442.8012 101.1816,442.8012 Q98.6816,442.8012 97.3535,441.1606 Q96.041,439.5043 96.041,436.3793 Q96.041,433.2543 97.3535,431.5981 Q98.6816,429.9418 101.1816,429.9418 Q101.8848,429.9418 102.5254,430.0981 Q103.1816,430.2543 103.7441,430.5512 L103.7441,433.27 Q103.1191,432.6918 102.5254,432.4262 Q101.9316,432.145 101.3066,432.145 Q99.9629,432.145 99.2754,433.2231 Q98.5879,434.2856 98.5879,436.3793 Q98.5879,438.4731 99.2754,439.5512 Q99.9629,440.6137 101.3066,440.6137 Q101.9316,440.6137 102.5254,440.3481 Q103.1191,440.0668 103.7441,439.4887 L103.7441,442.2075 Z " fill="#000000"/><text fill="#000000" font-family="sans-serif" font-size="12" lengthAdjust="spacing" textLength="64" x="119.9754" y="440.7211">Document</text><line style="stroke:#A80036;stroke-width:1.5;" x1="63.3754" x2="209.3754" y1="452.5668" y2="452.5668"/><text fill="#000000" font-family="sans-serif" font-size="11" lengthAdjust="spacing" textLength="85" x="68.3754" y="466.7773">DOI : DOI_Type</text><text fill="#000000" font-family="sans-serif" font-size="11" lengthAdjust="spacing" textLength="136" x="68.3754" y="479.582">title : Multilingual_String</text><text fill="#000000" font-family="sans-serif" font-size="11" lengthAdjust="spacing" textLength="125" x="68.3754" y="492.3867">publicationDate : Date</text><!--MD5=[fe105c2ee1fabf2400c31a97ce9128bc]
class Textual_Document--><rect codeLine="13" fill="#FFFFFF" filter="url(#fix6pnai2dtch)" height="32" id="Textual_Document" style="stroke:#A80036;stroke-width:1.5;" width="147" x="62.8754" y="558.5668"/><ellipse cx="77.8754" cy="574.5668" fill="#ADD1B2" rx="11" ry="11" style="stroke:#A80036;stroke-width:1.0;"/><path d="M80.8441,580.2075 Q80.266,580.5043 79.6254,580.645 Q78.9847,580.8012 78.2816,580.8012 Q75.7816,580.8012 74.4535,579.1606 Q73.141,577.5043 73.141,574.3793 Q73.141,571.2543 74.4535,569.5981 Q75.7816,567.9418 78.2816,567.9418 Q78.9847,567.9418 79.6254,568.0981 Q80.2816,568.2543 80.8441,568.5512 L80.8441,571.27 Q80.2191,570.6918 79.6254,570.4262 Q79.0316,570.145 78.4066,570.145 Q77.0629,570.145 76.3754,571.2231 Q75.6879,572.2856 75.6879,574.3793 Q75.6879,576.4731 76.3754,577.5512 Q77.0629,578.6137 78.4066,578.6137 Q79.0316,578.6137 79.6254,578.3481 Q80.2191,578.0668 80.8441,577.4887 L80.8441,580.2075 Z " fill="#000000"/><text fill="#000000" font-family="sans-serif" font-size="12" lengthAdjust="spacing" textLength="115" x="91.8754" y="578.7211">Textual_Document</text><!--MD5=[0c5226e8f688e58cc6150c041928918d]
reverse link Agent to Application--><path codeLine="164" d="M233.8954,139.9168 C231.1654,155.6568 230.8954,177.5468 233.1054,194.4768 " fill="none" id="Agent-backto-Application" style="stroke:#A80036;stroke-width:1.0;"/><polygon fill="#A80036" points="234.9154,134.8268,229.219,142.8612,233.9293,139.7286,237.0619,144.4389,234.9154,134.8268" style="stroke:#A80036;stroke-width:1.0;"/><text fill="#000000" font-family="sans-serif" font-size="13" lengthAdjust="spacing" textLength="58" x="164.6563" y="154.4884">applicant</text><!--MD5=[0c5226e8f688e58cc6150c041928918d]
reverse link Agent to Application--><path codeLine="168" d="M255.4754,139.9168 C258.3654,155.6568 258.6454,177.5468 256.3154,194.4768 " fill="none" id="Agent-backto-Application-1" style="stroke:#A80036;stroke-width:1.0;"/><polygon fill="#A80036" points="254.3954,134.8268,252.3622,144.4636,255.4391,139.7167,260.186,142.7936,254.3954,134.8268" style="stroke:#A80036;stroke-width:1.0;"/><text fill="#000000" font-family="sans-serif" font-size="13" lengthAdjust="spacing" textLength="67" x="268.2674" y="154.4884">addressee</text><!--MD5=[63e19720e237d2f75011a962b2d04785]
link Application to Application--><path codeLine="172" d="M295.2854,201.9868 C314.2554,201.3568 329.8754,207.7168 329.8754,221.0668 C329.8754,233.1668 317.0554,239.5168 300.5254,240.1368 " fill="none" id="Application-to-Application" style="stroke:#A80036;stroke-width:1.0;"/><polygon fill="#A80036" points="295.2854,240.1468,304.2854,244.1468,300.2854,240.1468,304.2854,236.1468,295.2854,240.1468" style="stroke:#A80036;stroke-width:1.0;"/><text fill="#000000" font-family="sans-serif" font-size="13" lengthAdjust="spacing" textLength="45" x="302.8558" y="238.4248">revises</text><!--MD5=[3b1d0eeb0b3d7e59f7719a8193058899]
link Application to Evaluation_Process--><path codeLine="176" d="M221.9401,184.0879 C221.9401,184.0879 161.7154,87.4668 140.8454,53.9768 " fill="none" id="Application-Evaluation_Process" style="stroke:#A80036;stroke-width:1.0;"/><polygon fill="#A80036" points="133.7954,42.6768,135.1541,52.4315,136.437,46.9221,141.9464,48.205,133.7954,42.6768" style="stroke:#A80036;stroke-width:1.0;"/><line style="stroke:#A80036;stroke-width:1.0;" x1="136.437" x2="140.6704" y1="46.9221" y2="53.7018"/><polygon fill="#FFFFFF" points="228.2954,194.2668,228.5107,187.0589,221.9401,184.0879,221.7248,191.2958,228.2954,194.2668" style="stroke:#A80036;stroke-width:1.0;"/><text fill="#000000" font-family="sans-serif" font-size="13" lengthAdjust="spacing" textLength="66" x="59.9845" y="62.5865">evaluation</text><!--MD5=[5fbab5a26fc8e1b8bf2efbf9d6feca6f]
link Application to Call_for_Applications--><path codeLine="180" d="M294.8954,243.4668 C344.7754,264.6068 420.0854,296.5068 466.0854,315.9968 " fill="none" id="Application-to-Call_for_Applications" style="stroke:#A80036;stroke-width:1.0;"/><polygon fill="#A80036" points="470.7154,317.9568,463.9809,310.7703,466.1094,316.0114,460.8682,318.1399,470.7154,317.9568" style="stroke:#A80036;stroke-width:1.0;"/><text fill="#000000" font-family="sans-serif" font-size="13" lengthAdjust="spacing" textLength="121" x="383.0041" y="306.9306">0..1 in-response-to</text><!--MD5=[a854b1dfb5507473349d48b63bbd2949]
link Application to Document--><path codeLine="184" d="M227.6319,258.7431 C227.6319,258.7431 179.6054,363.8968 159.2954,408.3768 " fill="none" id="Application-Document" style="stroke:#A80036;stroke-width:1.0;"/><polygon fill="#A80036" points="153.8154,420.3768,161.1918,413.8508,155.8918,415.8284,153.9143,410.5285,153.8154,420.3768" style="stroke:#A80036;stroke-width:1.0;"/><line style="stroke:#A80036;stroke-width:1.0;" x1="155.8918" x2="159.2154" y1="415.8284" y2="408.5468"/><polygon fill="#FFFFFF" points="232.6154,247.8268,226.4849,251.6238,227.6319,258.7431,233.7624,254.9461,232.6154,247.8268" style="stroke:#A80036;stroke-width:1.0;"/><text fill="#000000" font-family="sans-serif" font-size="13" lengthAdjust="spacing" textLength="84" x="164.0316" y="409.3947">0..1 contents</text><!--MD5=[84ee679edf117580f7008abf010245be]
link Application to Decision--><path codeLine="188" d="M197.6572,254.6778 C197.6572,254.6778 152.9754,285.8768 132.8554,299.9268 " fill="none" id="Application-Decision" style="stroke:#A80036;stroke-width:1.0;"/><polygon fill="#A80036" points="122.0554,307.4568,131.7243,305.583,126.1546,304.5939,127.1437,299.0242,122.0554,307.4568" style="stroke:#A80036;stroke-width:1.0;"/><line style="stroke:#A80036;stroke-width:1.0;" x1="126.1546" x2="132.7104" y1="304.5939" y2="300.0168"/><polygon fill="#FFFFFF" points="207.4954,247.8068,200.286,247.9629,197.6572,254.6778,204.8666,254.5217,207.4954,247.8068" style="stroke:#A80036;stroke-width:1.0;"/><text fill="#000000" font-family="sans-serif" font-size="13" lengthAdjust="spacing" textLength="80" x="135.714" y="298.4771">0..1 decision</text><!--MD5=[188d6fac0308c860663900bdb1e97869]
link Decision to Document--><path codeLine="192" d="M100.5223,371.7497 C100.5223,371.7497 110.6954,396.3768 115.5954,408.2568 " fill="none" id="Decision-Document" style="stroke:#A80036;stroke-width:1.0;"/><polygon fill="#A80036" points="120.5954,420.3368,120.8503,410.4913,118.6836,415.7167,113.4581,413.5501,120.5954,420.3368" style="stroke:#A80036;stroke-width:1.0;"/><line style="stroke:#A80036;stroke-width:1.0;" x1="118.6836" x2="115.6304" y1="415.7167" y2="408.3268"/><polygon fill="#FFFFFF" points="95.9454,360.6568,94.5362,367.7289,100.5223,371.7497,101.9315,364.6776,95.9454,360.6568" style="stroke:#A80036;stroke-width:1.0;"/><text fill="#000000" font-family="sans-serif" font-size="13" lengthAdjust="spacing" textLength="67" x="45.4334" y="409.6408">0..1 report</text><!--MD5=[dc4598ce2d2e32aede71f5bf98c1fc33]
reverse link Application to Funding_Application--><path codeLine="196" d="M270.9754,264.8568 C282.6354,283.6068 295.5554,304.3968 304.0354,318.0368 " fill="none" id="Application-backto-Funding_Application" style="stroke:#A80036;stroke-width:1.0;"/><polygon fill="none" points="264.9954,268.4968,260.3754,247.8068,276.8854,261.0968,264.9954,268.4968" style="stroke:#A80036;stroke-width:1.0;"/><!--MD5=[9c39ba57d448ad763645d18bff177b81]
link Funding_Application to Call_for_Funding_Applications--><path codeLine="200" d="M318.8954,350.2068 C326.9954,372.4368 342.1054,413.9068 351.0954,438.5968 " fill="none" id="Funding_Application-to-Call_for_Funding_Applications" style="stroke:#A80036;stroke-width:1.0;"/><polygon fill="#A80036" points="352.8154,443.2968,353.5157,433.4729,351.1147,438.595,345.9926,436.194,352.8154,443.2968" style="stroke:#A80036;stroke-width:1.0;"/><text fill="#000000" font-family="sans-serif" font-size="13" lengthAdjust="spacing" textLength="93" x="242.5705" y="432.5119">in-response-to</text><!--MD5=[ce01e496d5f2dcc88ba1226d075cb019]
reverse link Call_for_Applications to Call_for_Funding_Applications--><path codeLine="204" d="M472.7754,363.1068 C442.9854,387.9668 400.6054,423.3268 376.6754,443.2968 " fill="none" id="Call_for_Applications-backto-Call_for_Funding_Applications" style="stroke:#A80036;stroke-width:1.0;"/><polygon fill="none" points="468.3854,357.6468,488.2254,350.2068,477.3554,368.3968,468.3854,357.6468" style="stroke:#A80036;stroke-width:1.0;"/><!--MD5=[8743930385bb1af59b1fce24bc9f65d4]
link Process to Agent--><path codeLine="208" d="M271.7754,42.8368 C266.2454,57.9268 257.7554,81.0868 251.6854,97.6268 " fill="none" id="Process-to-Agent" style="stroke:#A80036;stroke-width:1.0;"/><polygon fill="#A80036" points="249.8954,102.5268,256.7631,95.4675,251.6259,97.8359,249.2575,92.6987,249.8954,102.5268" style="stroke:#A80036;stroke-width:1.0;"/><text fill="#000000" font-family="sans-serif" font-size="13" lengthAdjust="spacing" textLength="109" x="270.5273" y="91.5247">0..* organized by</text><!--MD5=[8a4670db899496080a035ff3abafd115]
link Process to Decision--><path codeLine="212" d="M246.0138,50.0672 C246.0138,50.0672 207.0554,82.9068 192.3754,102.5668 C146.9054,163.4868 114.1754,246.8168 97.6254,294.7968 " fill="none" id="Process-Decision" style="stroke:#A80036;stroke-width:1.0;"/><polygon fill="#A80036" points="93.3954,307.3468,100.0639,300.099,94.9946,302.6095,92.4842,297.5402,93.3954,307.3468" style="stroke:#A80036;stroke-width:1.0;"/><line style="stroke:#A80036;stroke-width:1.0;" x1="94.9946" x2="97.5554" y1="302.6095" y2="295.0218"/><polygon fill="#FFFFFF" points="255.5454,42.7768,248.3495,43.2448,246.0138,50.0672,253.2097,49.5992,255.5454,42.7768" style="stroke:#A80036;stroke-width:1.0;"/><text fill="#000000" font-family="sans-serif" font-size="13" lengthAdjust="spacing" textLength="80" x="6" y="296.5383">0..1 decision</text><!--MD5=[8156e968208737e8c454aecc4c900edc]
link Process to Process--><path codeLine="216" d="M323.7141,9.429 C323.7141,9.429 353.3754,15.0868 353.3754,26.5668 C353.3754,38.0468 340.7454,43.7968 324.9454,43.8168 " fill="none" id="Process-Process" style="stroke:#A80036;stroke-width:1.0;"/><polygon fill="#A80036" points="311.7654,42.5968,320.3577,47.4106,316.744,43.0584,321.0962,39.4448,311.7654,42.5968" style="stroke:#A80036;stroke-width:1.0;"/><line style="stroke:#A80036;stroke-width:1.0;" x1="316.744" x2="324.7154" y1="43.0584" y2="43.7968"/><polygon fill="#FFFFFF" points="311.7654,10.5368,318.109,13.9658,323.7141,9.429,317.3705,6,311.7654,10.5368" style="stroke:#A80036;stroke-width:1.0;"/><text fill="#000000" font-family="sans-serif" font-size="13" lengthAdjust="spacing" textLength="85" x="223.9776" y="62.775">0..* substeps</text><!--MD5=[f2b1dc15e2481602a264b33d2a0e77a0]
link Evaluation_Process to Process--><path codeLine="220" d="M201.1754,26.5668 C206.2054,26.5668 211.2354,26.5668 216.2654,26.5668 " fill="none" id="Evaluation_Process-to-Process" style="stroke:#A80036;stroke-width:1.0;"/><polygon fill="none" points="216.2954,19.5668,236.2954,26.5668,216.2954,33.5668,216.2954,19.5668" style="stroke:#A80036;stroke-width:1.0;"/><!--MD5=[0b5e0cc6858c1049a2e1f4260a312e0d]
link Evaluation_Process to Agent--><path codeLine="224" d="M144.4654,42.6268 C165.3154,58.2668 197.9454,82.7368 220.1954,99.4268 " fill="none" id="Evaluation_Process-to-Agent" style="stroke:#A80036;stroke-width:1.0;"/><polygon fill="#A80036" points="224.2254,102.4568,219.4254,93.8568,220.2254,99.4568,214.6254,100.2568,224.2254,102.4568" style="stroke:#A80036;stroke-width:1.0;"/><text fill="#000000" font-family="sans-serif" font-size="13" lengthAdjust="spacing" textLength="81" x="122.3769" y="91.4306">0..1 reviewer</text><!--MD5=[67ceb885199ca7e1fa058287d8756a2e]
reverse link Document to Textual_Document--><path codeLine="351" d="M136.3754,518.9568 C136.3754,533.6568 136.3754,548.1868 136.3754,558.5568 " fill="none" id="Document-backto-Textual_Document" style="stroke:#A80036;stroke-width:1.0;"/><polygon fill="none" points="129.3754,518.8268,136.3754,498.8268,143.3754,518.8268,129.3754,518.8268" style="stroke:#A80036;stroke-width:1.0;"/><!--MD5=[73d77f37e062ab4c4b3da817d24e8327]
@startuml
    !includesub core.puml!common
    !includesub core.puml!Application
    !includesub core.puml!Document
    !includesub core.puml!Agent
@enduml

@startuml
        hide empty members
        skinparam BoxPadding 120
        class "Application" #ffffff {
            date : Date
        }

        class "Decision" #ffffff {
            date : Date
        }

        class "Funding_Application" #ffffff {
        }

        class "Call_for_Applications" #ffffff {

        }

        class "Call_for_Funding_Applications" #ffffff {
        }

        class "Process" #ffffff {

        }

        class "Evaluation_Process" #ffffff {
        }
        "Application" -u-> "applicant" "Agent"
        "Application" -u-> "addressee" "Agent"
        "Application" - -> "revises" "Application"
        "Application" o- -> "evaluation" "Evaluation_Process"
        "Application" - -> "0..1 in-response-to" "Call_for_Applications"
        "Application" o- -> "0..1 contents" "Document"
        "Application" o- -> "0..1 decision" "Decision"
        "Decision" o- -> "0..1 report" "Document"
        "Application" <|- - "Funding_Application"
        "Funding_Application" - -> "in-response-to" "Call_for_Funding_Applications"
        "Call_for_Applications" <|- - "Call_for_Funding_Applications"
        "Process" - -> "0..* organized by" "Agent"
        "Process" o- -> "0..1 decision" "Decision"
        "Process" o- -> "0..* substeps" "Process"
        "Process" <|-l- "Evaluation_Process"
        "Evaluation_Process" - -> "0..1 reviewer" "Agent"
        class "Document" #ffffff {
            DOI : DOI_Type
            title : Multilingual_String
            publicationDate : Date
        }
        class "Textual_Document" #ffffff {
        }
        "Document" <|- - "Textual_Document"
        class "Agent" #ffffff {
        }
@enduml

PlantUML version 1.2021.8(Sat Jun 26 08:20:59 UTC 2021)
(GPL source distribution)
Java Runtime: OpenJDK Runtime Environment
JVM: OpenJDK 64-Bit Server VM
Default Encoding: UTF-8
Language: en
Country: null
--></g></svg>