<?xml version="1.0" encoding="UTF-8" standalone="no"?><svg xmlns="http://www.w3.org/2000/svg" xmlns:xlink="http://www.w3.org/1999/xlink" contentScriptType="application/ecmascript" contentStyleType="text/css" height="597px" preserveAspectRatio="none" style="width:1341px;height:597px;background:#FFFFFF;" version="1.1" viewBox="0 0 1341 597" width="1341px" zoomAndPan="magnify"><defs><filter height="300%" id="f5piggrhrsryx" width="300%" x="-1" y="-1"><feGaussianBlur result="blurOut" stdDeviation="2.0"/><feColorMatrix in="blurOut" result="blurOut2" type="matrix" values="0 0 0 0 0 0 0 0 0 0 0 0 0 0 0 0 0 0 .4 0"/><feOffset dx="4.0" dy="4.0" in="blurOut2" result="blurOut3"/><feBlend in="SourceGraphic" in2="blurOut3" mode="normal"/></filter></defs><g><!--MD5=[edcf71e28750a8856eb4372d573715ca]
class Call_for_Applications--><rect codeLine="541" fill="#FFFFFF" filter="url(#f5piggrhrsryx)" height="32" id="Call_for_Applications" style="stroke:#A80036;stroke-width:1.5;" width="159" x="35" y="288"/><ellipse cx="50" cy="304" fill="#ADD1B2" rx="11" ry="11" style="stroke:#A80036;stroke-width:1.0;"/><path d="M52.9688,309.6406 Q52.3906,309.9375 51.75,310.0781 Q51.1094,310.2344 50.4063,310.2344 Q47.9063,310.2344 46.5781,308.5938 Q45.2656,306.9375 45.2656,303.8125 Q45.2656,300.6875 46.5781,299.0313 Q47.9063,297.375 50.4063,297.375 Q51.1094,297.375 51.75,297.5313 Q52.4063,297.6875 52.9688,297.9844 L52.9688,300.7031 Q52.3438,300.125 51.75,299.8594 Q51.1563,299.5781 50.5313,299.5781 Q49.1875,299.5781 48.5,300.6563 Q47.8125,301.7188 47.8125,303.8125 Q47.8125,305.9063 48.5,306.9844 Q49.1875,308.0469 50.5313,308.0469 Q51.1563,308.0469 51.75,307.7813 Q52.3438,307.5 52.9688,306.9219 L52.9688,309.6406 Z " fill="#000000"/><text fill="#000000" font-family="sans-serif" font-size="12" lengthAdjust="spacing" textLength="127" x="64" y="308.1543">Call_for_Applications</text><!--MD5=[0b4e4b4980470ea387cc45de9bd14b5b]
class Application--><rect codeLine="520" fill="#FFFFFF" filter="url(#f5piggrhrsryx)" height="52.8047" id="Application" style="stroke:#A80036;stroke-width:1.5;" width="101" x="539" y="277.5"/><ellipse cx="554" cy="293.5" fill="#ADD1B2" rx="11" ry="11" style="stroke:#A80036;stroke-width:1.0;"/><path d="M556.9688,299.1406 Q556.3906,299.4375 555.75,299.5781 Q555.1094,299.7344 554.4063,299.7344 Q551.9063,299.7344 550.5781,298.0938 Q549.2656,296.4375 549.2656,293.3125 Q549.2656,290.1875 550.5781,288.5313 Q551.9063,286.875 554.4063,286.875 Q555.1094,286.875 555.75,287.0313 Q556.4063,287.1875 556.9688,287.4844 L556.9688,290.2031 Q556.3438,289.625 555.75,289.3594 Q555.1563,289.0781 554.5313,289.0781 Q553.1875,289.0781 552.5,290.1563 Q551.8125,291.2188 551.8125,293.3125 Q551.8125,295.4063 552.5,296.4844 Q553.1875,297.5469 554.5313,297.5469 Q555.1563,297.5469 555.75,297.2813 Q556.3438,297 556.9688,296.4219 L556.9688,299.1406 Z " fill="#000000"/><text fill="#000000" font-family="sans-serif" font-size="12" lengthAdjust="spacing" textLength="69" x="568" y="297.6543">Application</text><line style="stroke:#A80036;stroke-width:1.5;" x1="540" x2="639" y1="309.5" y2="309.5"/><text fill="#000000" font-family="sans-serif" font-size="11" lengthAdjust="spacing" textLength="63" x="545" y="323.7104">date : Date</text><!--MD5=[8a67874827a9dbf014cc34517ffca193]
class Resource_Offer--><rect codeLine="715" fill="#FFFFFF" filter="url(#f5piggrhrsryx)" height="32" id="Resource_Offer" style="stroke:#A80036;stroke-width:1.5;" width="127" x="342" y="162"/><ellipse cx="357" cy="178" fill="#ADD1B2" rx="11" ry="11" style="stroke:#A80036;stroke-width:1.0;"/><path d="M359.9688,183.6406 Q359.3906,183.9375 358.75,184.0781 Q358.1094,184.2344 357.4063,184.2344 Q354.9063,184.2344 353.5781,182.5938 Q352.2656,180.9375 352.2656,177.8125 Q352.2656,174.6875 353.5781,173.0313 Q354.9063,171.375 357.4063,171.375 Q358.1094,171.375 358.75,171.5313 Q359.4063,171.6875 359.9688,171.9844 L359.9688,174.7031 Q359.3438,174.125 358.75,173.8594 Q358.1563,173.5781 357.5313,173.5781 Q356.1875,173.5781 355.5,174.6563 Q354.8125,175.7188 354.8125,177.8125 Q354.8125,179.9063 355.5,180.9844 Q356.1875,182.0469 357.5313,182.0469 Q358.1563,182.0469 358.75,181.7813 Q359.3438,181.5 359.9688,180.9219 L359.9688,183.6406 Z " fill="#000000"/><text fill="#000000" font-family="sans-serif" font-size="12" lengthAdjust="spacing" textLength="95" x="371" y="182.1543">Resource_Offer</text><!--MD5=[68c3952ebfab03c1a0449046a32d2ee2]
class Resource_Request--><rect codeLine="737" fill="#FFFFFF" filter="url(#f5piggrhrsryx)" height="32" id="Resource_Request" style="stroke:#A80036;stroke-width:1.5;" width="149" x="532" y="162"/><ellipse cx="547" cy="178" fill="#ADD1B2" rx="11" ry="11" style="stroke:#A80036;stroke-width:1.0;"/><path d="M549.9688,183.6406 Q549.3906,183.9375 548.75,184.0781 Q548.1094,184.2344 547.4063,184.2344 Q544.9063,184.2344 543.5781,182.5938 Q542.2656,180.9375 542.2656,177.8125 Q542.2656,174.6875 543.5781,173.0313 Q544.9063,171.375 547.4063,171.375 Q548.1094,171.375 548.75,171.5313 Q549.4063,171.6875 549.9688,171.9844 L549.9688,174.7031 Q549.3438,174.125 548.75,173.8594 Q548.1563,173.5781 547.5313,173.5781 Q546.1875,173.5781 545.5,174.6563 Q544.8125,175.7188 544.8125,177.8125 Q544.8125,179.9063 545.5,180.9844 Q546.1875,182.0469 547.5313,182.0469 Q548.1563,182.0469 548.75,181.7813 Q549.3438,181.5 549.9688,180.9219 L549.9688,183.6406 Z " fill="#000000"/><text fill="#000000" font-family="sans-serif" font-size="12" lengthAdjust="spacing" textLength="117" x="561" y="182.1543">Resource_Request</text><!--MD5=[6b13f1b330d33795af281e5c1dfe1e98]
class Resource--><rect codeLine="272" fill="#FFFFFF" filter="url(#f5piggrhrsryx)" height="32" id="Resource" style="stroke:#A80036;stroke-width:1.5;" width="91" x="698" y="288"/><ellipse cx="713" cy="304" fill="#ADD1B2" rx="11" ry="11" style="stroke:#A80036;stroke-width:1.0;"/><path d="M715.9688,309.6406 Q715.3906,309.9375 714.75,310.0781 Q714.1094,310.2344 713.4063,310.2344 Q710.9063,310.2344 709.5781,308.5938 Q708.2656,306.9375 708.2656,303.8125 Q708.2656,300.6875 709.5781,299.0313 Q710.9063,297.375 713.4063,297.375 Q714.1094,297.375 714.75,297.5313 Q715.4063,297.6875 715.9688,297.9844 L715.9688,300.7031 Q715.3438,300.125 714.75,299.8594 Q714.1563,299.5781 713.5313,299.5781 Q712.1875,299.5781 711.5,300.6563 Q710.8125,301.7188 710.8125,303.8125 Q710.8125,305.9063 711.5,306.9844 Q712.1875,308.0469 713.5313,308.0469 Q714.1563,308.0469 714.75,307.7813 Q715.3438,307.5 715.9688,306.9219 L715.9688,309.6406 Z " fill="#000000"/><text fill="#000000" font-family="sans-serif" font-size="12" lengthAdjust="spacing" textLength="59" x="727" y="308.1543">Resource</text><!--MD5=[59b530d44ae785dc18db921986a9c15c]
class Document--><rect codeLine="317" fill="#FFFFFF" filter="url(#f5piggrhrsryx)" height="65.6094" id="Document" style="stroke:#A80036;stroke-width:1.5;" width="148" x="355.5" y="271"/><ellipse cx="393.9" cy="287" fill="#ADD1B2" rx="11" ry="11" style="stroke:#A80036;stroke-width:1.0;"/><path d="M396.8688,292.6406 Q396.2906,292.9375 395.65,293.0781 Q395.0094,293.2344 394.3063,293.2344 Q391.8063,293.2344 390.4781,291.5938 Q389.1656,289.9375 389.1656,286.8125 Q389.1656,283.6875 390.4781,282.0313 Q391.8063,280.375 394.3063,280.375 Q395.0094,280.375 395.65,280.5313 Q396.3063,280.6875 396.8688,280.9844 L396.8688,283.7031 Q396.2438,283.125 395.65,282.8594 Q395.0563,282.5781 394.4313,282.5781 Q393.0875,282.5781 392.4,283.6563 Q391.7125,284.7188 391.7125,286.8125 Q391.7125,288.9063 392.4,289.9844 Q393.0875,291.0469 394.4313,291.0469 Q395.0563,291.0469 395.65,290.7813 Q396.2438,290.5 396.8688,289.9219 L396.8688,292.6406 Z " fill="#000000"/><text fill="#000000" font-family="sans-serif" font-size="12" lengthAdjust="spacing" textLength="64" x="413.1" y="291.1543">Document</text><line style="stroke:#A80036;stroke-width:1.5;" x1="356.5" x2="502.5" y1="303" y2="303"/><text fill="#000000" font-family="sans-serif" font-size="11" lengthAdjust="spacing" textLength="136" x="361.5" y="317.2104">title : Multilingual_String</text><text fill="#000000" font-family="sans-serif" font-size="11" lengthAdjust="spacing" textLength="125" x="361.5" y="330.0151">publicationDate : Date</text><!--MD5=[9d44916250b776386006c440668bcfbb]
class Agent--><rect codeLine="10" fill="#FFFFFF" filter="url(#f5piggrhrsryx)" height="78.4141" id="Agent" style="stroke:#A80036;stroke-width:1.5;" width="224" x="616.5" y="7"/><ellipse cx="705.75" cy="23" fill="#ADD1B2" rx="11" ry="11" style="stroke:#A80036;stroke-width:1.0;"/><path d="M708.7188,28.6406 Q708.1406,28.9375 707.5,29.0781 Q706.8594,29.2344 706.1563,29.2344 Q703.6563,29.2344 702.3281,27.5938 Q701.0156,25.9375 701.0156,22.8125 Q701.0156,19.6875 702.3281,18.0313 Q703.6563,16.375 706.1563,16.375 Q706.8594,16.375 707.5,16.5313 Q708.1563,16.6875 708.7188,16.9844 L708.7188,19.7031 Q708.0938,19.125 707.5,18.8594 Q706.9063,18.5781 706.2813,18.5781 Q704.9375,18.5781 704.25,19.6563 Q703.5625,20.7188 703.5625,22.8125 Q703.5625,24.9063 704.25,25.9844 Q704.9375,27.0469 706.2813,27.0469 Q706.9063,27.0469 707.5,26.7813 Q708.0938,26.5 708.7188,25.9219 L708.7188,28.6406 Z " fill="#000000"/><text fill="#000000" font-family="sans-serif" font-size="12" lengthAdjust="spacing" textLength="37" x="726.25" y="27.1543">Agent</text><line style="stroke:#A80036;stroke-width:1.5;" x1="617.5" x2="839.5" y1="39" y2="39"/><text fill="#000000" font-family="sans-serif" font-size="11" lengthAdjust="spacing" textLength="207" x="622.5" y="53.2104">keywords : List&lt;Multilingual_String&gt;</text><text fill="#000000" font-family="sans-serif" font-size="11" lengthAdjust="spacing" textLength="121" x="622.5" y="66.0151">lifetime : Date_Range</text><text fill="#000000" font-family="sans-serif" font-size="11" lengthAdjust="spacing" textLength="212" x="622.5" y="78.8198">contacts : List&lt;Contact_Information&gt;</text><!--MD5=[176bc0a65f2558a2e68a39a8b34c74bb]
class Date_Range--><rect fill="#FEFECE" filter="url(#f5piggrhrsryx)" height="32" id="Date_Range" style="stroke:#A80036;stroke-width:1.5;" width="108" x="1026.5" y="162"/><ellipse cx="1041.5" cy="178" fill="#ADD1B2" rx="11" ry="11" style="stroke:#A80036;stroke-width:1.0;"/><path d="M1044.4688,183.6406 Q1043.8906,183.9375 1043.25,184.0781 Q1042.6094,184.2344 1041.9063,184.2344 Q1039.4063,184.2344 1038.0781,182.5938 Q1036.7656,180.9375 1036.7656,177.8125 Q1036.7656,174.6875 1038.0781,173.0313 Q1039.4063,171.375 1041.9063,171.375 Q1042.6094,171.375 1043.25,171.5313 Q1043.9063,171.6875 1044.4688,171.9844 L1044.4688,174.7031 Q1043.8438,174.125 1043.25,173.8594 Q1042.6563,173.5781 1042.0313,173.5781 Q1040.6875,173.5781 1040,174.6563 Q1039.3125,175.7188 1039.3125,177.8125 Q1039.3125,179.9063 1040,180.9844 Q1040.6875,182.0469 1042.0313,182.0469 Q1042.6563,182.0469 1043.25,181.7813 Q1043.8438,181.5 1044.4688,180.9219 L1044.4688,183.6406 Z " fill="#000000"/><text fill="#000000" font-family="sans-serif" font-size="12" lengthAdjust="spacing" textLength="76" x="1055.5" y="182.1543">Date_Range</text><!--MD5=[a0318ef586937002b2555963e2a1f4ad]
class Contact_Information--><rect fill="#FEFECE" filter="url(#f5piggrhrsryx)" height="32" id="Contact_Information" style="stroke:#A80036;stroke-width:1.5;" width="158" x="1169.5" y="162"/><ellipse cx="1184.5" cy="178" fill="#ADD1B2" rx="11" ry="11" style="stroke:#A80036;stroke-width:1.0;"/><path d="M1187.4688,183.6406 Q1186.8906,183.9375 1186.25,184.0781 Q1185.6094,184.2344 1184.9063,184.2344 Q1182.4063,184.2344 1181.0781,182.5938 Q1179.7656,180.9375 1179.7656,177.8125 Q1179.7656,174.6875 1181.0781,173.0313 Q1182.4063,171.375 1184.9063,171.375 Q1185.6094,171.375 1186.25,171.5313 Q1186.9063,171.6875 1187.4688,171.9844 L1187.4688,174.7031 Q1186.8438,174.125 1186.25,173.8594 Q1185.6563,173.5781 1185.0313,173.5781 Q1183.6875,173.5781 1183,174.6563 Q1182.3125,175.7188 1182.3125,177.8125 Q1182.3125,179.9063 1183,180.9844 Q1183.6875,182.0469 1185.0313,182.0469 Q1185.6563,182.0469 1186.25,181.7813 Q1186.8438,181.5 1187.4688,180.9219 L1187.4688,183.6406 Z " fill="#000000"/><text fill="#000000" font-family="sans-serif" font-size="12" lengthAdjust="spacing" textLength="126" x="1198.5" y="182.1543">Contact_Information</text><!--MD5=[a030fa97ffb865708cae79f6847e8968]
class Condition--><rect codeLine="728" fill="#FFFFFF" filter="url(#f5piggrhrsryx)" height="32" id="Condition" style="stroke:#A80036;stroke-width:1.5;" width="91" x="229" y="288"/><ellipse cx="244" cy="304" fill="#ADD1B2" rx="11" ry="11" style="stroke:#A80036;stroke-width:1.0;"/><path d="M246.9688,309.6406 Q246.3906,309.9375 245.75,310.0781 Q245.1094,310.2344 244.4063,310.2344 Q241.9063,310.2344 240.5781,308.5938 Q239.2656,306.9375 239.2656,303.8125 Q239.2656,300.6875 240.5781,299.0313 Q241.9063,297.375 244.4063,297.375 Q245.1094,297.375 245.75,297.5313 Q246.4063,297.6875 246.9688,297.9844 L246.9688,300.7031 Q246.3438,300.125 245.75,299.8594 Q245.1563,299.5781 244.5313,299.5781 Q243.1875,299.5781 242.5,300.6563 Q241.8125,301.7188 241.8125,303.8125 Q241.8125,305.9063 242.5,306.9844 Q243.1875,308.0469 244.5313,308.0469 Q245.1563,308.0469 245.75,307.7813 Q246.3438,307.5 246.9688,306.9219 L246.9688,309.6406 Z " fill="#000000"/><text fill="#000000" font-family="sans-serif" font-size="12" lengthAdjust="spacing" textLength="59" x="258" y="308.1543">Condition</text><!--MD5=[92dc6ef2f70a23983af4e570fc6275cd]
class Funding--><rect codeLine="277" fill="#FFFFFF" filter="url(#f5piggrhrsryx)" height="52.8047" id="Funding" style="stroke:#A80036;stroke-width:1.5;" width="180" x="752.5" y="398"/><ellipse cx="813.25" cy="414" fill="#ADD1B2" rx="11" ry="11" style="stroke:#A80036;stroke-width:1.0;"/><path d="M816.2188,419.6406 Q815.6406,419.9375 815,420.0781 Q814.3594,420.2344 813.6563,420.2344 Q811.1563,420.2344 809.8281,418.5938 Q808.5156,416.9375 808.5156,413.8125 Q808.5156,410.6875 809.8281,409.0313 Q811.1563,407.375 813.6563,407.375 Q814.3594,407.375 815,407.5313 Q815.6563,407.6875 816.2188,407.9844 L816.2188,410.7031 Q815.5938,410.125 815,409.8594 Q814.4063,409.5781 813.7813,409.5781 Q812.4375,409.5781 811.75,410.6563 Q811.0625,411.7188 811.0625,413.8125 Q811.0625,415.9063 811.75,416.9844 Q812.4375,418.0469 813.7813,418.0469 Q814.4063,418.0469 815,417.7813 Q815.5938,417.5 816.2188,416.9219 L816.2188,419.6406 Z " fill="#000000"/><text fill="#000000" font-family="sans-serif" font-size="12" lengthAdjust="spacing" textLength="50" x="833.75" y="418.1543">Funding</text><line style="stroke:#A80036;stroke-width:1.5;" x1="753.5" x2="931.5" y1="430" y2="430"/><text fill="#000000" font-family="sans-serif" font-size="11" lengthAdjust="spacing" textLength="168" x="758.5" y="444.2104">amount  :   Monetary_Amount</text><!--MD5=[9db362234582fbb89ee6f48a28063aa6]
class Monetary_Amount--><rect codeLine="283" fill="#FFFFFF" filter="url(#f5piggrhrsryx)" height="71.5469" id="Monetary_Amount" style="stroke:#A80036;stroke-width:1.5;" width="232" x="726.5" y="512"/><ellipse cx="782.25" cy="530.9688" fill="#ADD0B2" rx="11" ry="11" style="stroke:#A80036;stroke-width:1.0;"/><path d="M781.8438,526.7813 L781.8438,534.7656 L782.5,534.7656 Q783.9375,534.7656 784.5469,533.8594 Q785.1719,532.9375 785.1719,530.7656 Q785.1719,528.5938 784.5469,527.6875 Q783.9375,526.7813 782.5,526.7813 L781.8438,526.7813 Z M779.3906,524.5781 L782.0156,524.5781 Q785.0469,524.5781 786.375,526.0313 Q787.7188,527.4688 787.7188,530.7656 Q787.7188,534.0625 786.375,535.5156 Q785.0469,536.9688 782.0156,536.9688 L779.3906,536.9688 L779.3906,524.5781 Z " fill="#000000"/><text fill="#000000" font-family="sans-serif" font-size="12" font-style="italic" lengthAdjust="spacing" textLength="74" x="821.75" y="528.1387">«DataType»</text><text fill="#000000" font-family="sans-serif" font-size="12" lengthAdjust="spacing" textLength="112" x="802.75" y="542.1074">Monetary_Amount</text><line style="stroke:#A80036;stroke-width:1.5;" x1="727.5" x2="957.5" y1="549.9375" y2="549.9375"/><text fill="#000000" font-family="sans-serif" font-size="11" lengthAdjust="spacing" textLength="100" x="732.5" y="564.1479">amount : Decimal</text><text fill="#000000" font-family="sans-serif" font-size="11" lengthAdjust="spacing" textLength="220" x="732.5" y="576.9526">currencyCode  : ISO_4217_Alpha_Code</text><!--MD5=[c881b25adf3665c6568c9693d41a70f3]
class Activity--><rect fill="#FEFECE" filter="url(#f5piggrhrsryx)" height="32" id="Activity" style="stroke:#A80036;stroke-width:1.5;" width="75" x="916" y="162"/><ellipse cx="931" cy="178" fill="#ADD1B2" rx="11" ry="11" style="stroke:#A80036;stroke-width:1.0;"/><path d="M933.9688,183.6406 Q933.3906,183.9375 932.75,184.0781 Q932.1094,184.2344 931.4063,184.2344 Q928.9063,184.2344 927.5781,182.5938 Q926.2656,180.9375 926.2656,177.8125 Q926.2656,174.6875 927.5781,173.0313 Q928.9063,171.375 931.4063,171.375 Q932.1094,171.375 932.75,171.5313 Q933.4063,171.6875 933.9688,171.9844 L933.9688,174.7031 Q933.3438,174.125 932.75,173.8594 Q932.1563,173.5781 931.5313,173.5781 Q930.1875,173.5781 929.5,174.6563 Q928.8125,175.7188 928.8125,177.8125 Q928.8125,179.9063 929.5,180.9844 Q930.1875,182.0469 931.5313,182.0469 Q932.1563,182.0469 932.75,181.7813 Q933.3438,181.5 933.9688,180.9219 L933.9688,183.6406 Z " fill="#000000"/><text fill="#000000" font-family="sans-serif" font-size="12" lengthAdjust="spacing" textLength="43" x="945" y="182.1543">Activity</text><!--MD5=[79d378210367c0c6ec62ef762ddfbd1b]
class Project--><rect fill="#FEFECE" filter="url(#f5piggrhrsryx)" height="32" id="Project" style="stroke:#A80036;stroke-width:1.5;" width="76" x="804.5" y="162"/><ellipse cx="819.5" cy="178" fill="#ADD1B2" rx="11" ry="11" style="stroke:#A80036;stroke-width:1.0;"/><path d="M822.4688,183.6406 Q821.8906,183.9375 821.25,184.0781 Q820.6094,184.2344 819.9063,184.2344 Q817.4063,184.2344 816.0781,182.5938 Q814.7656,180.9375 814.7656,177.8125 Q814.7656,174.6875 816.0781,173.0313 Q817.4063,171.375 819.9063,171.375 Q820.6094,171.375 821.25,171.5313 Q821.9063,171.6875 822.4688,171.9844 L822.4688,174.7031 Q821.8438,174.125 821.25,173.8594 Q820.6563,173.5781 820.0313,173.5781 Q818.6875,173.5781 818,174.6563 Q817.3125,175.7188 817.3125,177.8125 Q817.3125,179.9063 818,180.9844 Q818.6875,182.0469 820.0313,182.0469 Q820.6563,182.0469 821.25,181.7813 Q821.8438,181.5 822.4688,180.9219 L822.4688,183.6406 Z " fill="#000000"/><text fill="#000000" font-family="sans-serif" font-size="12" lengthAdjust="spacing" textLength="44" x="833.5" y="182.1543">Project</text><!--MD5=[6ff7a5782d5ed311fa9cacd2967fdc4e]
class Funding_Application--><rect codeLine="532" fill="#FFFFFF" filter="url(#f5piggrhrsryx)" height="32" id="Funding_Application" style="stroke:#A80036;stroke-width:1.5;" width="157" x="511" y="408.5"/><ellipse cx="526" cy="424.5" fill="#ADD1B2" rx="11" ry="11" style="stroke:#A80036;stroke-width:1.0;"/><path d="M528.9688,430.1406 Q528.3906,430.4375 527.75,430.5781 Q527.1094,430.7344 526.4063,430.7344 Q523.9063,430.7344 522.5781,429.0938 Q521.2656,427.4375 521.2656,424.3125 Q521.2656,421.1875 522.5781,419.5313 Q523.9063,417.875 526.4063,417.875 Q527.1094,417.875 527.75,418.0313 Q528.4063,418.1875 528.9688,418.4844 L528.9688,421.2031 Q528.3438,420.625 527.75,420.3594 Q527.1563,420.0781 526.5313,420.0781 Q525.1875,420.0781 524.5,421.1563 Q523.8125,422.2188 523.8125,424.3125 Q523.8125,426.4063 524.5,427.4844 Q525.1875,428.5469 526.5313,428.5469 Q527.1563,428.5469 527.75,428.2813 Q528.3438,428 528.9688,427.4219 L528.9688,430.1406 Z " fill="#000000"/><text fill="#000000" font-family="sans-serif" font-size="12" lengthAdjust="spacing" textLength="125" x="540" y="428.6543">Funding_Application</text><!--MD5=[0db85a2d6db180b105db5ebe9e86b106]
class Call_for_Funding_Applications--><rect codeLine="546" fill="#FFFFFF" filter="url(#f5piggrhrsryx)" height="32" id="Call_for_Funding_Applications" style="stroke:#A80036;stroke-width:1.5;" width="215" x="7" y="408.5"/><ellipse cx="22" cy="424.5" fill="#ADD1B2" rx="11" ry="11" style="stroke:#A80036;stroke-width:1.0;"/><path d="M24.9688,430.1406 Q24.3906,430.4375 23.75,430.5781 Q23.1094,430.7344 22.4063,430.7344 Q19.9063,430.7344 18.5781,429.0938 Q17.2656,427.4375 17.2656,424.3125 Q17.2656,421.1875 18.5781,419.5313 Q19.9063,417.875 22.4063,417.875 Q23.1094,417.875 23.75,418.0313 Q24.4063,418.1875 24.9688,418.4844 L24.9688,421.2031 Q24.3438,420.625 23.75,420.3594 Q23.1563,420.0781 22.5313,420.0781 Q21.1875,420.0781 20.5,421.1563 Q19.8125,422.2188 19.8125,424.3125 Q19.8125,426.4063 20.5,427.4844 Q21.1875,428.5469 22.5313,428.5469 Q23.1563,428.5469 23.75,428.2813 Q24.3438,428 24.9688,427.4219 L24.9688,430.1406 Z " fill="#000000"/><text fill="#000000" font-family="sans-serif" font-size="12" lengthAdjust="spacing" textLength="183" x="36" y="428.6543">Call_for_Funding_Applications</text><!--MD5=[a59b92cc30ee8d24d8d720fed1533057]
link Call_for_Applications to Application--><path codeLine="592" d="M139.43,287.88 C167.36,270.87 214.63,245.13 259.5,235 C373.72,209.21 409.99,232.26 520.5,271 C526.51,273.11 532.7,275.59 538.78,278.22 " fill="none" id="Call_for_Applications-Application" style="stroke:#A80036;stroke-width:1.0;"/><polygon fill="#000000" points="259.5015,232.6873,268.615,235.4067,268.4728,229.5305,259.5015,232.6873" style="stroke:#000000;stroke-width:1.0;"/><text fill="#000000" font-family="sans-serif" font-size="13" lengthAdjust="spacing" textLength="91" x="273.5" y="237.0669">in response to</text><text fill="#000000" font-family="sans-serif" font-size="13" lengthAdjust="spacing" textLength="24" x="119.8747" y="276.8503">0..1</text><text fill="#000000" font-family="sans-serif" font-size="13" lengthAdjust="spacing" textLength="23" x="511.5968" y="269.472">0..*</text><!--MD5=[555d991a4645b83cbfa238b562f91a92]
reverse link Resource_Offer to Call_for_Applications--><path codeLine="724" d="M321.55,187.28 C283.04,193.57 237.77,204.62 200.5,224 C169.74,240 141.7,269.87 126.47,287.95 " fill="none" id="Resource_Offer-backto-Call_for_Applications" style="stroke:#A80036;stroke-width:1.0;"/><polygon fill="none" points="320.77,180.32,341.58,184.32,322.81,194.17,320.77,180.32" style="stroke:#A80036;stroke-width:1.0;"/><!--MD5=[34d3520aa241427fbea18906841a2be6]
reverse link Resource_Request to Application--><path codeLine="742" d="M686.35,202.05 C704.27,211.62 715.43,224.44 705.5,241 C691.24,264.8 664.38,279.97 640.1,289.35 " fill="none" id="Resource_Request-backto-Application" style="stroke:#A80036;stroke-width:1.0;"/><polygon fill="none" points="683.49,208.44,667.98,194.01,689.11,195.62,683.49,208.44" style="stroke:#A80036;stroke-width:1.0;"/><!--MD5=[392b5d5331db5043115a06bd654f787a]
link Agent to Date_Range--><path codeLine="15" d="M831.73,85.13 C899.14,110.02 983.83,141.3 1034.98,160.19 " fill="none" id="Agent-to-Date_Range" style="stroke:#A80036;stroke-width:1.0;stroke-dasharray:7.0,7.0;"/><polygon fill="#A80036" points="1039.83,161.98,1032.7639,155.1193,1035.1373,160.2541,1030.0025,162.6276,1039.83,161.98" style="stroke:#A80036;stroke-width:1.0;"/><!--MD5=[d43df4fbdad36fd00892352d175d5460]
link Agent to Contact_Information--><path codeLine="16" d="M840.69,75.05 C945.2,101.17 1097.41,139.23 1183.26,160.69 " fill="none" id="Agent-to-Contact_Information" style="stroke:#A80036;stroke-width:1.0;stroke-dasharray:7.0,7.0;"/><polygon fill="#A80036" points="1188.31,161.95,1180.5321,155.9081,1183.4559,160.7508,1178.6133,163.6746,1188.31,161.95" style="stroke:#A80036;stroke-width:1.0;"/><text fill="#000000" font-family="sans-serif" font-size="13" lengthAdjust="spacing" textLength="23" x="1140.6666" y="150.9444">0..*</text><!--MD5=[99eb79a5f2da6a3539a2315dc6fc09c9]
reverse link Agent to Resource_Offer--><path codeLine="584" d="M628.88,87.1 C565.84,112.47 488,143.8 442.82,161.98 " fill="none" id="Agent-backto-Resource_Offer" style="stroke:#A80036;stroke-width:1.0;"/><polygon fill="#A80036" points="633.77,85.13,623.9272,84.7847,629.1326,86.9992,626.918,92.2046,633.77,85.13" style="stroke:#A80036;stroke-width:1.0;"/><text fill="#000000" font-family="sans-serif" font-size="13" lengthAdjust="spacing" textLength="71" x="539.5728" y="105.4778">solicited by</text><!--MD5=[d43c569b2c93336ab3caeea3dfd29687]
link Resource_Offer to Resource--><path codeLine="720" d="M469.27,188.01 C527.49,196.83 608.85,210.83 638.5,224 C671.92,238.84 704.66,266.08 724.47,284.36 " fill="none" id="Resource_Offer-to-Resource" style="stroke:#A80036;stroke-width:1.0;"/><polygon fill="#A80036" points="728.25,287.89,724.401,278.8244,724.5952,284.4779,718.9417,284.6721,728.25,287.89" style="stroke:#A80036;stroke-width:1.0;"/><polygon fill="#000000" points="677.1777,234.3325,669.7537,228.3881,667.6776,233.8871,677.1777,234.3325" style="stroke:#000000;stroke-width:1.0;"/><text fill="#000000" font-family="sans-serif" font-size="13" lengthAdjust="spacing" textLength="12" x="681.5" y="237.0669">of</text><text fill="#000000" font-family="sans-serif" font-size="13" lengthAdjust="spacing" textLength="23" x="477.0322" y="185.3426">0..*</text><text fill="#000000" font-family="sans-serif" font-size="13" lengthAdjust="spacing" textLength="23" x="696.0547" y="276.8638">1..*</text><!--MD5=[70b48935e489e5910f3d4342ebe97e3f]
reverse link Resource_Offer to Condition--><path codeLine="733" d="M328.69,187.27 C281.76,194.09 228.03,205.67 213.5,224 C196.06,246 225.12,271.79 248.81,287.77 " fill="none" id="Resource_Offer-backto-Condition" style="stroke:#A80036;stroke-width:1.0;"/><polygon fill="#FFFFFF" points="341.71,185.47,335.2177,182.3315,329.8236,187.1172,336.3159,190.2557,341.71,185.47" style="stroke:#A80036;stroke-width:1.0;"/><polygon fill="#000000" points="215.3889,236.4806,223.3177,231.2284,218.7162,227.5711,215.3889,236.4806" style="stroke:#000000;stroke-width:1.0;"/><text fill="#000000" font-family="sans-serif" font-size="13" lengthAdjust="spacing" textLength="23" x="227.5" y="237.0669">has</text><text fill="#000000" font-family="sans-serif" font-size="13" lengthAdjust="spacing" textLength="23" x="213.4908" y="276.9983">0..*</text><!--MD5=[de101208c945d7bf9a03e03cc38155cf]
reverse link Resource_Offer to Document--><path codeLine="746" d="M401.16,207.14 C400.28,217.83 400.22,230.07 402.5,241 C404.58,251 408.37,261.36 412.46,270.69 " fill="none" id="Resource_Offer-backto-Document" style="stroke:#A80036;stroke-width:1.0;"/><polygon fill="#FFFFFF" points="402.65,194.2,397.9845,199.6984,401.2655,206.1199,405.931,200.6214,402.65,194.2" style="stroke:#A80036;stroke-width:1.0;"/><polygon fill="#000000" points="408.3753,237.4892,409.6854,228.0693,403.8983,229.0983,408.3753,237.4892" style="stroke:#000000;stroke-width:1.0;"/><text fill="#000000" font-family="sans-serif" font-size="13" lengthAdjust="spacing" textLength="81" x="416.5" y="237.0669">described by</text><text fill="#000000" font-family="sans-serif" font-size="13" lengthAdjust="spacing" textLength="24" x="373.7309" y="214.1395">0..1</text><text fill="#000000" font-family="sans-serif" font-size="13" lengthAdjust="spacing" textLength="23" x="384.0196" y="260.0274">0..*</text><!--MD5=[d0526ffc0b9c4a240d429dc17209f708]
reverse link Agent to Resource_Request--><path codeLine="576" d="M715.01,90.13 C708.92,104.66 700.56,120.18 689.5,132 C677.63,144.69 661.36,154.58 646.37,161.82 " fill="none" id="Agent-backto-Resource_Request" style="stroke:#A80036;stroke-width:1.0;"/><polygon fill="#A80036" points="716.99,85.25,709.9081,92.0944,715.1158,89.8854,717.3248,95.0932,716.99,85.25" style="stroke:#A80036;stroke-width:1.0;"/><polygon fill="#000000" points="710.9579,119.9549,702.5797,124.4557,706.8253,128.5207,710.9579,119.9549" style="stroke:#000000;stroke-width:1.0;"/><text fill="#000000" font-family="sans-serif" font-size="13" lengthAdjust="spacing" textLength="62" x="716.5" y="128.0669">requester</text><text fill="#000000" font-family="sans-serif" font-size="13" lengthAdjust="spacing" textLength="24" x="688.8023" y="105.6192">0..1</text><!--MD5=[d0526ffc0b9c4a240d429dc17209f708]
reverse link Agent to Resource_Request--><path codeLine="580" d="M623.65,88.27 C614.13,95.82 605.74,104.66 599.5,115 C590.94,129.19 595.11,148.57 599.85,161.86 " fill="none" id="Agent-backto-Resource_Request-1" style="stroke:#A80036;stroke-width:1.0;"/><polygon fill="#A80036" points="627.8,85.11,618.214,87.3702,623.8189,88.1351,623.0541,93.74,627.8,85.11" style="stroke:#A80036;stroke-width:1.0;"/><polygon fill="#000000" points="606.0386,118.809,600.4589,126.5108,606.0516,128.3196,606.0386,118.809" style="stroke:#000000;stroke-width:1.0;"/><text fill="#000000" font-family="sans-serif" font-size="13" lengthAdjust="spacing" textLength="67" x="613.5" y="128.0669">addressee</text><text fill="#000000" font-family="sans-serif" font-size="13" lengthAdjust="spacing" textLength="24" x="612.0003" y="105.4543">0..1</text><!--MD5=[fc92b3bd86963d223135ad44997ca08d]
reverse link Resource_Request to Document--><path codeLine="596" d="M571.9,201.49 C561.14,208.59 549.27,216.54 538.5,224 C516.7,239.11 492.8,256.35 472.95,270.86 " fill="none" id="Resource_Request-backto-Document" style="stroke:#A80036;stroke-width:1.0;"/><polygon fill="#FFFFFF" points="583.05,194.17,575.8391,194.1217,573.021,200.7593,580.232,200.8077,583.05,194.17" style="stroke:#A80036;stroke-width:1.0;"/><polygon fill="#000000" points="539.4059,235.4366,548.4993,232.6508,545.1251,227.8379,539.4059,235.4366" style="stroke:#000000;stroke-width:1.0;"/><text fill="#000000" font-family="sans-serif" font-size="13" lengthAdjust="spacing" textLength="81" x="552.5" y="237.0669">described by</text><text fill="#000000" font-family="sans-serif" font-size="13" lengthAdjust="spacing" textLength="24" x="455.1417" y="259.9774">0..1</text><!--MD5=[633efb3059d8abd5e23b324815a30d32]
link Resource_Request to Resource_Request--><path codeLine="750" d="M681.22,167.96 C701.01,168.54 716,171.88 716,178 C716,183.54 703.69,186.81 686.65,187.8 " fill="none" id="Resource_Request-to-Resource_Request" style="stroke:#A80036;stroke-width:1.0;"/><polygon fill="#A80036" points="681.22,188.04,690.383,191.651,686.2154,187.8259,690.0405,183.6583,681.22,188.04" style="stroke:#A80036;stroke-width:1.0;"/><polygon fill="#000000" points="721.1465,183.0643,723.8192,173.937,717.9438,174.1092,721.1465,183.0643" style="stroke:#000000;stroke-width:1.0;"/><text fill="#000000" font-family="sans-serif" font-size="13" lengthAdjust="spacing" textLength="45" x="735" y="182.5669">revises</text><text fill="#000000" font-family="sans-serif" font-size="13" lengthAdjust="spacing" textLength="23" x="688.899" y="163.4707">0..*</text><text fill="#000000" font-family="sans-serif" font-size="13" lengthAdjust="spacing" textLength="24" x="688.9435" y="185.339">0..1</text><!--MD5=[0db8103b3d861b3f1c0ae604b4b70acc]
link Resource_Request to Resource--><path codeLine="754" d="M681.12,190.65 C700.89,197.29 720.37,207.7 733.5,224 C746.7,240.39 747.74,265.23 746.41,282.67 " fill="none" id="Resource_Request-to-Resource" style="stroke:#A80036;stroke-width:1.0;"/><polygon fill="#A80036" points="745.93,287.82,750.7595,279.2365,746.4007,282.8422,742.795,278.4834,745.93,287.82" style="stroke:#A80036;stroke-width:1.0;"/><polygon fill="#000000" points="750.3933,236.6442,747.5562,227.5667,742.7624,230.968,750.3933,236.6442" style="stroke:#000000;stroke-width:1.0;"/><text fill="#000000" font-family="sans-serif" font-size="13" lengthAdjust="spacing" textLength="12" x="756.5" y="237.0669">of</text><text fill="#000000" font-family="sans-serif" font-size="13" lengthAdjust="spacing" textLength="23" x="689.0592" y="204.5806">0..*</text><text fill="#000000" font-family="sans-serif" font-size="13" lengthAdjust="spacing" textLength="23" x="750.5443" y="277.0649">1..*</text><!--MD5=[fe5a6d20c914780ef904d1216500e5bb]
link Funding to Monetary_Amount--><path codeLine="290" d="M842.5,451.27 C842.5,467.31 842.5,488.3 842.5,506.53 " fill="none" id="Funding-to-Monetary_Amount" style="stroke:#A80036;stroke-width:1.0;stroke-dasharray:7.0,7.0;"/><polygon fill="#A80036" points="842.5,511.59,846.5,502.59,842.5,506.59,838.5,502.59,842.5,511.59" style="stroke:#A80036;stroke-width:1.0;"/><!--MD5=[a21829bf9e22d7ad2257d12c520c50b2]
reverse link Resource to Funding--><path codeLine="294" d="M769.06,335.6 C785.18,354.89 805.77,379.53 821.04,397.81 " fill="none" id="Resource-backto-Funding" style="stroke:#A80036;stroke-width:1.0;"/><polygon fill="none" points="763.49,339.84,756.04,320.01,774.23,330.87,763.49,339.84" style="stroke:#A80036;stroke-width:1.0;"/><!--MD5=[7072accdc040e53c8442e4ca7ea58660]
link Funding to Funding--><path codeLine="343" d="M932.67,414.27 C952.81,415.21 967.5,418.62 967.5,424.5 C967.5,430.38 952.81,433.79 932.67,434.73 " fill="none" id="Funding-Funding" style="stroke:#A80036;stroke-width:1.0;"/><polygon fill="#000000" points="972.7331,429.561,975.2471,420.3887,969.3757,420.6627,972.7331,429.561" style="stroke:#000000;stroke-width:1.0;"/><text fill="#000000" font-family="sans-serif" font-size="13" lengthAdjust="spacing" textLength="56" x="986.5" y="429.0669">is part of</text><text fill="#000000" font-family="sans-serif" font-size="13" lengthAdjust="spacing" textLength="23" x="940.4541" y="409.992">0..*</text><text fill="#000000" font-family="sans-serif" font-size="13" lengthAdjust="spacing" textLength="23" x="940.4541" y="432.0185">0..*</text><!--MD5=[ff11c2ae19cf8b0222e8ec830cb319de]
link Activity to Funding--><path codeLine="855" d="M944.61,199.04 C929.25,233.6 896.68,306.61 868.5,368 C864.79,376.09 860.72,384.82 856.94,392.9 " fill="none" id="Activity-Funding" style="stroke:#A80036;stroke-width:1.0;"/><polygon fill="#A80036" points="854.62,397.84,862.0685,391.3964,856.7469,393.3149,854.8284,387.9933,854.62,397.84" style="stroke:#A80036;stroke-width:1.0;"/><polygon fill="#A80036" points="946.75,194.23,939.4261,200.8149,944.71,198.7949,946.73,204.0788,946.75,194.23" style="stroke:#A80036;stroke-width:1.0;"/><text fill="#000000" font-family="sans-serif" font-size="13" lengthAdjust="spacing" textLength="69" x="864.0859" y="214.1795">0..* covers</text><text fill="#000000" font-family="sans-serif" font-size="13" lengthAdjust="spacing" textLength="90" x="757.0165" y="387.0453">0..* funded by</text><!--MD5=[b2c19dd082d0b6980457b5ba90e9353b]
link Project to Funding--><path codeLine="856" d="M842.5,199.4 C842.5,242.36 842.5,342.33 842.5,392.96 " fill="none" id="Project-Funding" style="stroke:#A80036;stroke-width:1.0;"/><polygon fill="#A80036" points="842.5,398,846.5,389,842.5,393,838.5,389,842.5,398" style="stroke:#A80036;stroke-width:1.0;"/><polygon fill="#A80036" points="842.5,194.29,838.5,203.29,842.5,199.29,846.5,203.29,842.5,194.29" style="stroke:#A80036;stroke-width:1.0;"/><text fill="#000000" font-family="sans-serif" font-size="13" lengthAdjust="spacing" textLength="69" x="762.5031" y="213.9611">0..* covers</text><text fill="#000000" font-family="sans-serif" font-size="13" lengthAdjust="spacing" textLength="90" x="853.4688" y="386.8194">0..* funded by</text><!--MD5=[dc4598ce2d2e32aede71f5bf98c1fc33]
reverse link Application to Funding_Application--><path codeLine="537" d="M589.5,350.72 C589.5,371.13 589.5,393.8 589.5,408.33 " fill="none" id="Application-backto-Funding_Application" style="stroke:#A80036;stroke-width:1.0;"/><polygon fill="none" points="582.5,350.71,589.5,330.71,596.5,350.71,582.5,350.71" style="stroke:#A80036;stroke-width:1.0;"/><!--MD5=[ce01e496d5f2dcc88ba1226d075cb019]
reverse link Call_for_Applications to Call_for_Funding_Applications--><path codeLine="608" d="M114.5,340.15 C114.5,362.8 114.5,391.13 114.5,408.24 " fill="none" id="Call_for_Applications-backto-Call_for_Funding_Applications" style="stroke:#A80036;stroke-width:1.0;"/><polygon fill="none" points="107.5,340.01,114.5,320.01,121.5,340.01,107.5,340.01" style="stroke:#A80036;stroke-width:1.0;"/><!--MD5=[37f692f15aa3154a7869ce44388c664d]
@startuml

    !includesub core.puml!common
    !includesub core.puml!Call_for_Applications
    !includesub core.puml!Application
    !includesub core.puml!Resource
    !includesub core.puml!Document
    !includesub core.puml!Agent
    !includesub core.puml!Resource_Offer
    !includesub core.puml!Resource_Request
    !includesub core.puml!Condition
    !includesub core.puml!Funding
    !includesub core.puml!Funding_Application
    !includesub core.puml!Call_for_Funding_Applications

@enduml

@startuml

    hide empty members
    skinparam BoxPadding 120
    class "Call_for_Applications" #ffffff {
    }
    "Application" "0..*" -l- "0..1" "Call_for_Applications" : in response to >
	"Resource_Offer" <|- - "Call_for_Applications"
    class "Application" #ffffff {
        date : Date
    }
	"Resource_Request" <|- - "Application"
    class "Resource" #ffffff {
    }
    class "Document" #ffffff {
        title : Multilingual_String
        publicationDate : Date
    }
    class "Agent" #ffffff {
        keywords : List<Multilingual_String>
    	lifetime : Date_Range
    	contacts : List<Contact_Information>
    }
    "Agent" ..> "Date_Range"
    "Agent" ..> "0..*" "Contact_Information"
	"Resource_Offer" -u-> "solicited by" "Agent"
	class "Resource_Offer" #ffffff {
	}
	"Resource_Offer" "0..*" - -> "1..*" "Resource" : of >
	"Resource_Offer" o- - "0..*" "Condition" : has >
	"Resource_Offer" "0..1" o- - "0..*" "Document" : described by >
    "Resource_Request" -u-> "0..1" "Agent" : requester >
    "Resource_Request" -u-> "0..1" "Agent" : addressee >
    "Resource_Request" o- - "0..1" "Document" : described by >
	class "Resource_Request" #ffffff {
	}
	"Resource_Request" "0..*" - -> "0..1" "Resource_Request" : revises >
	"Resource_Request" "0..*" - -> "1..*" "Resource" : of >
	class "Condition" #ffffff {
	}
    class "Funding" #ffffff {
        amount  :   Monetary_Amount
    }
    class Monetary_Amount << (D,#add0b2) DataType>> #ffffff {
        amount : Decimal
        currencyCode  : ISO_4217_Alpha_Code
    }
    "Funding" ..> "Monetary_Amount"
     "Resource" <|- - "Funding"
     "Funding" "0..*" - - "0..*" "Funding" : is part of >
    "Activity" "0..* covers" <- - -> "0..* funded by" "Funding"
    "Project" "0..* covers" <- - -> "0..* funded by" "Funding"
    class "Funding_Application" #ffffff {
    }
    "Application" <|- - "Funding_Application"
    class "Call_for_Funding_Applications" #ffffff {
    }
    "Call_for_Applications" <|- - "Call_for_Funding_Applications"

@enduml

PlantUML version 1.2021.8(Sat Jun 26 08:20:59 UTC 2021)
(GPL source distribution)
Java Runtime: OpenJDK Runtime Environment
JVM: OpenJDK 64-Bit Server VM
Default Encoding: UTF-8
Language: en
Country: null
--></g></svg>