<?xml version="1.0" encoding="UTF-8" standalone="no"?><svg xmlns="http://www.w3.org/2000/svg" xmlns:xlink="http://www.w3.org/1999/xlink" contentScriptType="application/ecmascript" contentStyleType="text/css" height="670px" preserveAspectRatio="none" style="width:1163px;height:670px;background:#FFFFFF;" version="1.1" viewBox="0 0 1163 670" width="1163px" zoomAndPan="magnify"><defs><filter height="300%" id="frucdxs5fiid7" width="300%" x="-1" y="-1"><feGaussianBlur result="blurOut" stdDeviation="2.0"/><feColorMatrix in="blurOut" result="blurOut2" type="matrix" values="0 0 0 0 0 0 0 0 0 0 0 0 0 0 0 0 0 0 .4 0"/><feOffset dx="4.0" dy="4.0" in="blurOut2" result="blurOut3"/><feBlend in="SourceGraphic" in2="blurOut3" mode="normal"/></filter></defs><g><!--MD5=[0b4e4b4980470ea387cc45de9bd14b5b]
class Application--><rect codeLine="144" fill="#FFFFFF" filter="url(#frucdxs5fiid7)" height="52.8047" id="Application" style="stroke:#A80036;stroke-width:1.5;" width="101" x="463" y="116"/><ellipse cx="478" cy="132" fill="#ADD1B2" rx="11" ry="11" style="stroke:#A80036;stroke-width:1.0;"/><path d="M480.9688,137.6406 Q480.3906,137.9375 479.75,138.0781 Q479.1094,138.2344 478.4063,138.2344 Q475.9063,138.2344 474.5781,136.5938 Q473.2656,134.9375 473.2656,131.8125 Q473.2656,128.6875 474.5781,127.0313 Q475.9063,125.375 478.4063,125.375 Q479.1094,125.375 479.75,125.5313 Q480.4063,125.6875 480.9688,125.9844 L480.9688,128.7031 Q480.3438,128.125 479.75,127.8594 Q479.1563,127.5781 478.5313,127.5781 Q477.1875,127.5781 476.5,128.6563 Q475.8125,129.7188 475.8125,131.8125 Q475.8125,133.9063 476.5,134.9844 Q477.1875,136.0469 478.5313,136.0469 Q479.1563,136.0469 479.75,135.7813 Q480.3438,135.5 480.9688,134.9219 L480.9688,137.6406 Z " fill="#000000"/><text fill="#000000" font-family="sans-serif" font-size="12" lengthAdjust="spacing" textLength="69" x="492" y="136.1543">Application</text><line style="stroke:#A80036;stroke-width:1.5;" x1="464" x2="563" y1="148" y2="148"/><text fill="#000000" font-family="sans-serif" font-size="11" lengthAdjust="spacing" textLength="63" x="469" y="162.2104">date : Date</text><!--MD5=[3db53164d4ddbdea4156eda8a776d7e7]
class Decision--><rect codeLine="148" fill="#FFFFFF" filter="url(#frucdxs5fiid7)" height="52.8047" id="Decision" style="stroke:#A80036;stroke-width:1.5;" width="85" x="565" y="355"/><ellipse cx="580" cy="371" fill="#ADD1B2" rx="11" ry="11" style="stroke:#A80036;stroke-width:1.0;"/><path d="M582.9688,376.6406 Q582.3906,376.9375 581.75,377.0781 Q581.1094,377.2344 580.4063,377.2344 Q577.9063,377.2344 576.5781,375.5938 Q575.2656,373.9375 575.2656,370.8125 Q575.2656,367.6875 576.5781,366.0313 Q577.9063,364.375 580.4063,364.375 Q581.1094,364.375 581.75,364.5313 Q582.4063,364.6875 582.9688,364.9844 L582.9688,367.7031 Q582.3438,367.125 581.75,366.8594 Q581.1563,366.5781 580.5313,366.5781 Q579.1875,366.5781 578.5,367.6563 Q577.8125,368.7188 577.8125,370.8125 Q577.8125,372.9063 578.5,373.9844 Q579.1875,375.0469 580.5313,375.0469 Q581.1563,375.0469 581.75,374.7813 Q582.3438,374.5 582.9688,373.9219 L582.9688,376.6406 Z " fill="#000000"/><text fill="#000000" font-family="sans-serif" font-size="12" lengthAdjust="spacing" textLength="53" x="594" y="375.1543">Decision</text><line style="stroke:#A80036;stroke-width:1.5;" x1="566" x2="649" y1="387" y2="387"/><text fill="#000000" font-family="sans-serif" font-size="11" lengthAdjust="spacing" textLength="63" x="571" y="401.2104">date : Date</text><!--MD5=[6ff7a5782d5ed311fa9cacd2967fdc4e]
class Funding_Application--><rect codeLine="152" fill="#FFFFFF" filter="url(#frucdxs5fiid7)" height="32" id="Funding_Application" style="stroke:#A80036;stroke-width:1.5;" width="157" x="257" y="246"/><ellipse cx="272" cy="262" fill="#ADD1B2" rx="11" ry="11" style="stroke:#A80036;stroke-width:1.0;"/><path d="M274.9688,267.6406 Q274.3906,267.9375 273.75,268.0781 Q273.1094,268.2344 272.4063,268.2344 Q269.9063,268.2344 268.5781,266.5938 Q267.2656,264.9375 267.2656,261.8125 Q267.2656,258.6875 268.5781,257.0313 Q269.9063,255.375 272.4063,255.375 Q273.1094,255.375 273.75,255.5313 Q274.4063,255.6875 274.9688,255.9844 L274.9688,258.7031 Q274.3438,258.125 273.75,257.8594 Q273.1563,257.5781 272.5313,257.5781 Q271.1875,257.5781 270.5,258.6563 Q269.8125,259.7188 269.8125,261.8125 Q269.8125,263.9063 270.5,264.9844 Q271.1875,266.0469 272.5313,266.0469 Q273.1563,266.0469 273.75,265.7813 Q274.3438,265.5 274.9688,264.9219 L274.9688,267.6406 Z " fill="#000000"/><text fill="#000000" font-family="sans-serif" font-size="12" lengthAdjust="spacing" textLength="125" x="286" y="266.1543">Funding_Application</text><!--MD5=[edcf71e28750a8856eb4372d573715ca]
class Call_for_Applications--><rect codeLine="155" fill="#FFFFFF" filter="url(#frucdxs5fiid7)" height="32" id="Call_for_Applications" style="stroke:#A80036;stroke-width:1.5;" width="159" x="163" y="126.5"/><ellipse cx="178" cy="142.5" fill="#ADD1B2" rx="11" ry="11" style="stroke:#A80036;stroke-width:1.0;"/><path d="M180.9688,148.1406 Q180.3906,148.4375 179.75,148.5781 Q179.1094,148.7344 178.4063,148.7344 Q175.9063,148.7344 174.5781,147.0938 Q173.2656,145.4375 173.2656,142.3125 Q173.2656,139.1875 174.5781,137.5313 Q175.9063,135.875 178.4063,135.875 Q179.1094,135.875 179.75,136.0313 Q180.4063,136.1875 180.9688,136.4844 L180.9688,139.2031 Q180.3438,138.625 179.75,138.3594 Q179.1563,138.0781 178.5313,138.0781 Q177.1875,138.0781 176.5,139.1563 Q175.8125,140.2188 175.8125,142.3125 Q175.8125,144.4063 176.5,145.4844 Q177.1875,146.5469 178.5313,146.5469 Q179.1563,146.5469 179.75,146.2813 Q180.3438,146 180.9688,145.4219 L180.9688,148.1406 Z " fill="#000000"/><text fill="#000000" font-family="sans-serif" font-size="12" lengthAdjust="spacing" textLength="127" x="192" y="146.6543">Call_for_Applications</text><!--MD5=[0db85a2d6db180b105db5ebe9e86b106]
class Call_for_Funding_Applications--><rect codeLine="159" fill="#FFFFFF" filter="url(#frucdxs5fiid7)" height="32" id="Call_for_Funding_Applications" style="stroke:#A80036;stroke-width:1.5;" width="215" x="7" y="246"/><ellipse cx="22" cy="262" fill="#ADD1B2" rx="11" ry="11" style="stroke:#A80036;stroke-width:1.0;"/><path d="M24.9688,267.6406 Q24.3906,267.9375 23.75,268.0781 Q23.1094,268.2344 22.4063,268.2344 Q19.9063,268.2344 18.5781,266.5938 Q17.2656,264.9375 17.2656,261.8125 Q17.2656,258.6875 18.5781,257.0313 Q19.9063,255.375 22.4063,255.375 Q23.1094,255.375 23.75,255.5313 Q24.4063,255.6875 24.9688,255.9844 L24.9688,258.7031 Q24.3438,258.125 23.75,257.8594 Q23.1563,257.5781 22.5313,257.5781 Q21.1875,257.5781 20.5,258.6563 Q19.8125,259.7188 19.8125,261.8125 Q19.8125,263.9063 20.5,264.9844 Q21.1875,266.0469 22.5313,266.0469 Q23.1563,266.0469 23.75,265.7813 Q24.3438,265.5 24.9688,264.9219 L24.9688,267.6406 Z " fill="#000000"/><text fill="#000000" font-family="sans-serif" font-size="12" lengthAdjust="spacing" textLength="183" x="36" y="266.1543">Call_for_Funding_Applications</text><!--MD5=[9594a964e81a3afac8558803807187f8]
class Evaluation_Outcome--><rect codeLine="162" fill="#FFFFFF" filter="url(#frucdxs5fiid7)" height="32" id="Evaluation_Outcome" style="stroke:#A80036;stroke-width:1.5;" width="159" x="622" y="246"/><ellipse cx="637" cy="262" fill="#ADD1B2" rx="11" ry="11" style="stroke:#A80036;stroke-width:1.0;"/><path d="M639.9688,267.6406 Q639.3906,267.9375 638.75,268.0781 Q638.1094,268.2344 637.4063,268.2344 Q634.9063,268.2344 633.5781,266.5938 Q632.2656,264.9375 632.2656,261.8125 Q632.2656,258.6875 633.5781,257.0313 Q634.9063,255.375 637.4063,255.375 Q638.1094,255.375 638.75,255.5313 Q639.4063,255.6875 639.9688,255.9844 L639.9688,258.7031 Q639.3438,258.125 638.75,257.8594 Q638.1563,257.5781 637.5313,257.5781 Q636.1875,257.5781 635.5,258.6563 Q634.8125,259.7188 634.8125,261.8125 Q634.8125,263.9063 635.5,264.9844 Q636.1875,266.0469 637.5313,266.0469 Q638.1563,266.0469 638.75,265.7813 Q639.3438,265.5 639.9688,264.9219 L639.9688,267.6406 Z " fill="#000000"/><text fill="#000000" font-family="sans-serif" font-size="12" lengthAdjust="spacing" textLength="127" x="651" y="266.1543">Evaluation_Outcome</text><!--MD5=[606c1cb7e986978674cb5de413d16996]
class Contribution_to_Evaluation_Outcome--><rect codeLine="165" fill="#FFFFFF" filter="url(#frucdxs5fiid7)" height="32" id="Contribution_to_Evaluation_Outcome" style="stroke:#A80036;stroke-width:1.5;" width="261" x="888" y="126.5"/><ellipse cx="903" cy="142.5" fill="#ADD1B2" rx="11" ry="11" style="stroke:#A80036;stroke-width:1.0;"/><path d="M905.9688,148.1406 Q905.3906,148.4375 904.75,148.5781 Q904.1094,148.7344 903.4063,148.7344 Q900.9063,148.7344 899.5781,147.0938 Q898.2656,145.4375 898.2656,142.3125 Q898.2656,139.1875 899.5781,137.5313 Q900.9063,135.875 903.4063,135.875 Q904.1094,135.875 904.75,136.0313 Q905.4063,136.1875 905.9688,136.4844 L905.9688,139.2031 Q905.3438,138.625 904.75,138.3594 Q904.1563,138.0781 903.5313,138.0781 Q902.1875,138.0781 901.5,139.1563 Q900.8125,140.2188 900.8125,142.3125 Q900.8125,144.4063 901.5,145.4844 Q902.1875,146.5469 903.5313,146.5469 Q904.1563,146.5469 904.75,146.2813 Q905.3438,146 905.9688,145.4219 L905.9688,148.1406 Z " fill="#000000"/><text fill="#000000" font-family="sans-serif" font-size="12" lengthAdjust="spacing" textLength="229" x="917" y="146.6543">Contribution_to_Evaluation_Outcome</text><!--MD5=[cc29680ec5374df398fbf6ef035a8911]
class Application_Review--><rect codeLine="168" fill="#FFFFFF" filter="url(#frucdxs5fiid7)" height="32" id="Application_Review" style="stroke:#A80036;stroke-width:1.5;" width="149" x="944" y="246"/><ellipse cx="959" cy="262" fill="#ADD1B2" rx="11" ry="11" style="stroke:#A80036;stroke-width:1.0;"/><path d="M961.9688,267.6406 Q961.3906,267.9375 960.75,268.0781 Q960.1094,268.2344 959.4063,268.2344 Q956.9063,268.2344 955.5781,266.5938 Q954.2656,264.9375 954.2656,261.8125 Q954.2656,258.6875 955.5781,257.0313 Q956.9063,255.375 959.4063,255.375 Q960.1094,255.375 960.75,255.5313 Q961.4063,255.6875 961.9688,255.9844 L961.9688,258.7031 Q961.3438,258.125 960.75,257.8594 Q960.1563,257.5781 959.5313,257.5781 Q958.1875,257.5781 957.5,258.6563 Q956.8125,259.7188 956.8125,261.8125 Q956.8125,263.9063 957.5,264.9844 Q958.1875,266.0469 959.5313,266.0469 Q960.1563,266.0469 960.75,265.7813 Q961.3438,265.5 961.9688,264.9219 L961.9688,267.6406 Z " fill="#000000"/><text fill="#000000" font-family="sans-serif" font-size="12" lengthAdjust="spacing" textLength="117" x="973" y="266.1543">Application_Review</text><!--MD5=[9d44916250b776386006c440668bcfbb]
class Agent--><rect codeLine="23" fill="#FFFFFF" filter="url(#frucdxs5fiid7)" height="32" id="Agent" style="stroke:#A80036;stroke-width:1.5;" width="69" x="483" y="7"/><ellipse cx="498" cy="23" fill="#ADD1B2" rx="11" ry="11" style="stroke:#A80036;stroke-width:1.0;"/><path d="M500.9688,28.6406 Q500.3906,28.9375 499.75,29.0781 Q499.1094,29.2344 498.4063,29.2344 Q495.9063,29.2344 494.5781,27.5938 Q493.2656,25.9375 493.2656,22.8125 Q493.2656,19.6875 494.5781,18.0313 Q495.9063,16.375 498.4063,16.375 Q499.1094,16.375 499.75,16.5313 Q500.4063,16.6875 500.9688,16.9844 L500.9688,19.7031 Q500.3438,19.125 499.75,18.8594 Q499.1563,18.5781 498.5313,18.5781 Q497.1875,18.5781 496.5,19.6563 Q495.8125,20.7188 495.8125,22.8125 Q495.8125,24.9063 496.5,25.9844 Q497.1875,27.0469 498.5313,27.0469 Q499.1563,27.0469 499.75,26.7813 Q500.3438,26.5 500.9688,25.9219 L500.9688,28.6406 Z " fill="#000000"/><text fill="#000000" font-family="sans-serif" font-size="12" lengthAdjust="spacing" textLength="37" x="512" y="27.1543">Agent</text><!--MD5=[59b530d44ae785dc18db921986a9c15c]
class Document--><rect codeLine="8" fill="#FFFFFF" filter="url(#frucdxs5fiid7)" height="78.4141" id="Document" style="stroke:#A80036;stroke-width:1.5;" width="148" x="533.5" y="485"/><ellipse cx="571.9" cy="501" fill="#ADD1B2" rx="11" ry="11" style="stroke:#A80036;stroke-width:1.0;"/><path d="M574.8688,506.6406 Q574.2906,506.9375 573.65,507.0781 Q573.0094,507.2344 572.3063,507.2344 Q569.8063,507.2344 568.4781,505.5938 Q567.1656,503.9375 567.1656,500.8125 Q567.1656,497.6875 568.4781,496.0313 Q569.8063,494.375 572.3063,494.375 Q573.0094,494.375 573.65,494.5313 Q574.3063,494.6875 574.8688,494.9844 L574.8688,497.7031 Q574.2438,497.125 573.65,496.8594 Q573.0563,496.5781 572.4313,496.5781 Q571.0875,496.5781 570.4,497.6563 Q569.7125,498.7188 569.7125,500.8125 Q569.7125,502.9063 570.4,503.9844 Q571.0875,505.0469 572.4313,505.0469 Q573.0563,505.0469 573.65,504.7813 Q574.2438,504.5 574.8688,503.9219 L574.8688,506.6406 Z " fill="#000000"/><text fill="#000000" font-family="sans-serif" font-size="12" lengthAdjust="spacing" textLength="64" x="591.1" y="505.1543">Document</text><line style="stroke:#A80036;stroke-width:1.5;" x1="534.5" x2="680.5" y1="517" y2="517"/><text fill="#000000" font-family="sans-serif" font-size="11" lengthAdjust="spacing" textLength="85" x="539.5" y="531.2104">DOI : DOI_Type</text><text fill="#000000" font-family="sans-serif" font-size="11" lengthAdjust="spacing" textLength="136" x="539.5" y="544.0151">title : Multilingual_String</text><text fill="#000000" font-family="sans-serif" font-size="11" lengthAdjust="spacing" textLength="125" x="539.5" y="556.8198">publicationDate : Date</text><!--MD5=[92dc6ef2f70a23983af4e570fc6275cd]
class Funding--><rect fill="#FEFECE" filter="url(#frucdxs5fiid7)" height="32" id="Funding" style="stroke:#A80036;stroke-width:1.5;" width="82" x="161.5" y="365.5"/><ellipse cx="176.5" cy="381.5" fill="#ADD1B2" rx="11" ry="11" style="stroke:#A80036;stroke-width:1.0;"/><path d="M179.4688,387.1406 Q178.8906,387.4375 178.25,387.5781 Q177.6094,387.7344 176.9063,387.7344 Q174.4063,387.7344 173.0781,386.0938 Q171.7656,384.4375 171.7656,381.3125 Q171.7656,378.1875 173.0781,376.5313 Q174.4063,374.875 176.9063,374.875 Q177.6094,374.875 178.25,375.0313 Q178.9063,375.1875 179.4688,375.4844 L179.4688,378.2031 Q178.8438,377.625 178.25,377.3594 Q177.6563,377.0781 177.0313,377.0781 Q175.6875,377.0781 175,378.1563 Q174.3125,379.2188 174.3125,381.3125 Q174.3125,383.4063 175,384.4844 Q175.6875,385.5469 177.0313,385.5469 Q177.6563,385.5469 178.25,385.2813 Q178.8438,385 179.4688,384.4219 L179.4688,387.1406 Z " fill="#000000"/><text fill="#000000" font-family="sans-serif" font-size="12" lengthAdjust="spacing" textLength="50" x="190.5" y="385.6543">Funding</text><!--MD5=[0330879a1a385efee19ba3488ed490fa]
class Contribution--><rect fill="#FEFECE" filter="url(#frucdxs5fiid7)" height="32" id="Contribution" style="stroke:#A80036;stroke-width:1.5;" width="109" x="964" y="7"/><ellipse cx="979" cy="23" fill="#ADD1B2" rx="11" ry="11" style="stroke:#A80036;stroke-width:1.0;"/><path d="M981.9688,28.6406 Q981.3906,28.9375 980.75,29.0781 Q980.1094,29.2344 979.4063,29.2344 Q976.9063,29.2344 975.5781,27.5938 Q974.2656,25.9375 974.2656,22.8125 Q974.2656,19.6875 975.5781,18.0313 Q976.9063,16.375 979.4063,16.375 Q980.1094,16.375 980.75,16.5313 Q981.4063,16.6875 981.9688,16.9844 L981.9688,19.7031 Q981.3438,19.125 980.75,18.8594 Q980.1563,18.5781 979.5313,18.5781 Q978.1875,18.5781 977.5,19.6563 Q976.8125,20.7188 976.8125,22.8125 Q976.8125,24.9063 977.5,25.9844 Q978.1875,27.0469 979.5313,27.0469 Q980.1563,27.0469 980.75,26.7813 Q981.3438,26.5 981.9688,25.9219 L981.9688,28.6406 Z " fill="#000000"/><text fill="#000000" font-family="sans-serif" font-size="12" lengthAdjust="spacing" textLength="77" x="993" y="27.1543">Contribution</text><!--MD5=[fe105c2ee1fabf2400c31a97ce9128bc]
class Textual_Document--><rect codeLine="13" fill="#FFFFFF" filter="url(#frucdxs5fiid7)" height="32" id="Textual_Document" style="stroke:#A80036;stroke-width:1.5;" width="147" x="534" y="624"/><ellipse cx="549" cy="640" fill="#ADD1B2" rx="11" ry="11" style="stroke:#A80036;stroke-width:1.0;"/><path d="M551.9688,645.6406 Q551.3906,645.9375 550.75,646.0781 Q550.1094,646.2344 549.4063,646.2344 Q546.9063,646.2344 545.5781,644.5938 Q544.2656,642.9375 544.2656,639.8125 Q544.2656,636.6875 545.5781,635.0313 Q546.9063,633.375 549.4063,633.375 Q550.1094,633.375 550.75,633.5313 Q551.4063,633.6875 551.9688,633.9844 L551.9688,636.7031 Q551.3438,636.125 550.75,635.8594 Q550.1563,635.5781 549.5313,635.5781 Q548.1875,635.5781 547.5,636.6563 Q546.8125,637.7188 546.8125,639.8125 Q546.8125,641.9063 547.5,642.9844 Q548.1875,644.0469 549.5313,644.0469 Q550.1563,644.0469 550.75,643.7813 Q551.3438,643.5 551.9688,642.9219 L551.9688,645.6406 Z " fill="#000000"/><text fill="#000000" font-family="sans-serif" font-size="12" lengthAdjust="spacing" textLength="115" x="563" y="644.1543">Textual_Document</text><!--MD5=[6b13f1b330d33795af281e5c1dfe1e98]
class Resource--><rect fill="#FEFECE" filter="url(#frucdxs5fiid7)" height="32" id="Resource" style="stroke:#A80036;stroke-width:1.5;" width="91" x="685" y="365.5"/><ellipse cx="700" cy="381.5" fill="#ADD1B2" rx="11" ry="11" style="stroke:#A80036;stroke-width:1.0;"/><path d="M702.9688,387.1406 Q702.3906,387.4375 701.75,387.5781 Q701.1094,387.7344 700.4063,387.7344 Q697.9063,387.7344 696.5781,386.0938 Q695.2656,384.4375 695.2656,381.3125 Q695.2656,378.1875 696.5781,376.5313 Q697.9063,374.875 700.4063,374.875 Q701.1094,374.875 701.75,375.0313 Q702.4063,375.1875 702.9688,375.4844 L702.9688,378.2031 Q702.3438,377.625 701.75,377.3594 Q701.1563,377.0781 700.5313,377.0781 Q699.1875,377.0781 698.5,378.1563 Q697.8125,379.2188 697.8125,381.3125 Q697.8125,383.4063 698.5,384.4844 Q699.1875,385.5469 700.5313,385.5469 Q701.1563,385.5469 701.75,385.2813 Q702.3438,385 702.9688,384.4219 L702.9688,387.1406 Z " fill="#000000"/><text fill="#000000" font-family="sans-serif" font-size="12" lengthAdjust="spacing" textLength="59" x="714" y="385.6543">Resource</text><!--MD5=[0c5226e8f688e58cc6150c041928918d]
reverse link Agent to Application--><path codeLine="181" d="M482.56,41.99 C472.62,48.98 463,57.99 457.5,69 C449.04,85.93 460.54,102.78 475.28,115.98 " fill="none" id="Agent-backto-Application" style="stroke:#A80036;stroke-width:1.0;"/><polygon fill="#A80036" points="486.83,39.12,477.1294,40.8226,482.6808,41.91,481.5934,47.4613,486.83,39.12" style="stroke:#A80036;stroke-width:1.0;"/><polygon fill="#000000" points="462.9896,72.5904,459.1791,81.3043,465.0287,81.8798,462.9896,72.5904" style="stroke:#000000;stroke-width:1.0;"/><text fill="#000000" font-family="sans-serif" font-size="13" lengthAdjust="spacing" textLength="58" x="471.5" y="82.0669">applicant</text><text fill="#000000" font-family="sans-serif" font-size="13" lengthAdjust="spacing" textLength="24" x="450.8291" y="57.8487">0..1</text><!--MD5=[0c5226e8f688e58cc6150c041928918d]
reverse link Agent to Application--><path codeLine="185" d="M526.68,43.64 C529.82,51.37 532.93,60.43 534.5,69 C537.4,84.86 532.66,102.21 526.96,115.97 " fill="none" id="Agent-backto-Application-1" style="stroke:#A80036;stroke-width:1.0;"/><polygon fill="#A80036" points="524.74,39.02,524.546,48.8669,526.6803,43.6282,531.9191,45.7625,524.74,39.02" style="stroke:#A80036;stroke-width:1.0;"/><polygon fill="#000000" points="539.4806,72.5664,536.5768,81.6228,542.4546,81.6001,539.4806,72.5664" style="stroke:#000000;stroke-width:1.0;"/><text fill="#000000" font-family="sans-serif" font-size="13" lengthAdjust="spacing" textLength="67" x="548.5" y="82.0669">addressee</text><text fill="#000000" font-family="sans-serif" font-size="13" lengthAdjust="spacing" textLength="24" x="499.1038" y="59.1947">0..1</text><!--MD5=[08c6a5fbc728deaee606fab1d8cae3e6]
reverse link Agent to Call_for_Applications--><path codeLine="189" d="M478.22,40.78 C424.66,63.67 329.51,104.32 278,126.33 " fill="none" id="Agent-backto-Call_for_Applications" style="stroke:#A80036;stroke-width:1.0;"/><polygon fill="#A80036" points="482.95,38.76,473.102,38.6287,478.3543,40.7296,476.2534,45.9819,482.95,38.76" style="stroke:#A80036;stroke-width:1.0;"/><text fill="#000000" font-family="sans-serif" font-size="13" lengthAdjust="spacing" textLength="38" x="437.0848" y="37.0498">issuer</text><!--MD5=[668d216b461f29f58c6ae81bee2a5a15]
link Application to Evaluation_Outcome--><path codeLine="193" d="M554.76,169.29 C592.26,192.73 646.33,226.52 677.29,245.87 " fill="none" id="Application-Evaluation_Outcome" style="stroke:#A80036;stroke-width:1.0;"/><polygon fill="#000000" points="624.26,204.9164,630.3726,212.2025,633.4879,207.2181,624.26,204.9164" style="stroke:#000000;stroke-width:1.0;"/><text fill="#000000" font-family="sans-serif" font-size="13" lengthAdjust="spacing" textLength="12" x="637.5" y="212.0669">of</text><text fill="#000000" font-family="sans-serif" font-size="13" lengthAdjust="spacing" textLength="24" x="537.1606" y="188.8937">0..1</text><text fill="#000000" font-family="sans-serif" font-size="13" lengthAdjust="spacing" textLength="23" x="642.0147" y="234.8369">0..*</text><!--MD5=[a59b92cc30ee8d24d8d720fed1533057]
link Call_for_Applications to Application--><path codeLine="197" d="M322.34,142.5 C367.78,142.5 423.32,142.5 462.8,142.5 " fill="none" id="Call_for_Applications-Application" style="stroke:#A80036;stroke-width:1.0;"/><polygon fill="#000000" points="339.5,131.0664,348.5451,134.0053,348.5451,128.1275,339.5,131.0664" style="stroke:#000000;stroke-width:1.0;"/><text fill="#000000" font-family="sans-serif" font-size="13" lengthAdjust="spacing" textLength="91" x="353.5" y="135.5669">in response to</text><text fill="#000000" font-family="sans-serif" font-size="13" lengthAdjust="spacing" textLength="24" x="329.9455" y="155.1935">0..1</text><text fill="#000000" font-family="sans-serif" font-size="13" lengthAdjust="spacing" textLength="23" x="431.8306" y="155.5489">0..*</text><!--MD5=[33d78e85ad541f0b21b2e8ffaf1167a1]
reverse link Application to Document--><path codeLine="201" d="M503.44,181.91 C495.35,219.08 487.19,276.72 499.5,325 C514.83,385.14 552.58,446.71 579.11,484.88 " fill="none" id="Application-backto-Document" style="stroke:#A80036;stroke-width:1.0;"/><polygon fill="#FFFFFF" points="506.37,169.2,501.1216,174.1452,503.6678,180.8918,508.9162,175.9466,506.37,169.2" style="stroke:#A80036;stroke-width:1.0;"/><polygon fill="#000000" points="505.7116,321.4174,506.3711,311.9297,500.6685,313.354,505.7116,321.4174" style="stroke:#000000;stroke-width:1.0;"/><text fill="#000000" font-family="sans-serif" font-size="13" lengthAdjust="spacing" textLength="56" x="513.5" y="321.0669">contents</text><text fill="#000000" font-family="sans-serif" font-size="13" lengthAdjust="spacing" textLength="24" x="548.168" y="473.9099">0..1</text><!--MD5=[84ee679edf117580f7008abf010245be]
link Application to Decision--><path codeLine="205" d="M523.74,169.31 C541.82,214.9 579.2,309.15 597.27,354.72 " fill="none" id="Application-Decision" style="stroke:#A80036;stroke-width:1.0;"/><polygon fill="#000000" points="569.6568,257.4186,570.2593,266.91,575.7231,264.7432,569.6568,257.4186" style="stroke:#000000;stroke-width:1.0;"/><text fill="#000000" font-family="sans-serif" font-size="13" lengthAdjust="spacing" textLength="16" x="580.5" y="266.5669">on</text><text fill="#000000" font-family="sans-serif" font-size="13" lengthAdjust="spacing" textLength="24" x="568.1293" y="343.8976">0..1</text><!--MD5=[59b5fb7ed218924b31886ecd43e557af]
reverse link Decision to Document--><path codeLine="209" d="M607.5,421.52 C607.5,441.32 607.5,465.28 607.5,484.94 " fill="none" id="Decision-backto-Document" style="stroke:#A80036;stroke-width:1.0;"/><polygon fill="#FFFFFF" points="607.5,408.27,603.5,414.27,607.5,420.27,611.5,414.27,607.5,408.27" style="stroke:#A80036;stroke-width:1.0;"/><polygon fill="#000000" points="612.5,451.5664,615.4389,442.5213,609.5611,442.5213,612.5,451.5664" style="stroke:#000000;stroke-width:1.0;"/><text fill="#000000" font-family="sans-serif" font-size="13" lengthAdjust="spacing" textLength="81" x="621.5" y="451.0669">expressed in</text><text fill="#000000" font-family="sans-serif" font-size="13" lengthAdjust="spacing" textLength="24" x="581.4375" y="473.9802">0..1</text><!--MD5=[dc4598ce2d2e32aede71f5bf98c1fc33]
reverse link Application to Funding_Application--><path codeLine="213" d="M457.71,180.33 C424.21,202.44 383.38,229.39 358.42,245.87 " fill="none" id="Application-backto-Funding_Application" style="stroke:#A80036;stroke-width:1.0;"/><polygon fill="none" points="453.89,174.46,474.44,169.29,461.6,186.15,453.89,174.46" style="stroke:#A80036;stroke-width:1.0;"/><!--MD5=[ce01e496d5f2dcc88ba1226d075cb019]
reverse link Call_for_Applications to Call_for_Funding_Applications--><path codeLine="217" d="M210.95,172.46 C185.61,195.72 151.04,227.46 130.91,245.94 " fill="none" id="Call_for_Applications-backto-Call_for_Funding_Applications" style="stroke:#A80036;stroke-width:1.0;"/><polygon fill="none" points="206.56,166.99,226.03,158.62,216.03,177.3,206.56,166.99" style="stroke:#A80036;stroke-width:1.0;"/><!--MD5=[d5b9c4df216c342f96b9d5401369a042]
reverse link Call_for_Funding_Applications to Funding--><path codeLine="218" d="M133.89,288.89 C151.38,312.24 176.5,345.78 190.99,365.14 " fill="none" id="Call_for_Funding_Applications-backto-Funding" style="stroke:#A80036;stroke-width:1.0;"/><polygon fill="#FFFFFF" points="126,278.36,126.3937,285.5603,133.1916,287.9663,132.7979,280.766,126,278.36" style="stroke:#A80036;stroke-width:1.0;"/><!--MD5=[fe30ea5ff89947ea913a9223c0df3083]
reverse link Funding_Application to Funding--><path codeLine="219" d="M308.56,286.8 C281.95,310.31 242.06,345.55 219.55,365.44 " fill="none" id="Funding_Application-backto-Funding" style="stroke:#A80036;stroke-width:1.0;"/><polygon fill="#FFFFFF" points="318.38,278.12,311.2347,279.0918,309.3835,286.0612,316.5288,285.0894,318.38,278.12" style="stroke:#A80036;stroke-width:1.0;"/><!--MD5=[ee6a2a45c9ecd5d20a7362d39a9c567f]
reverse link Agent to Decision--><path codeLine="223" d="M556.98,36.36 C578.05,43.97 603.81,54.97 624.5,69 C715.79,130.92 756.72,143.9 798.5,246 C811.8,278.5 820.38,297.54 798.5,325 C761.28,371.71 724.32,336.58 667.5,355 C661.79,356.85 655.88,359.03 650.09,361.32 " fill="none" id="Agent-backto-Decision" style="stroke:#A80036;stroke-width:1.0;"/><polygon fill="#A80036" points="552.01,34.59,559.156,41.3675,556.7226,36.2608,561.8293,33.8274,552.01,34.59" style="stroke:#A80036;stroke-width:1.0;"/><polygon fill="#000000" points="790.8772,212.373,791.211,202.8683,785.5606,204.4873,790.8772,212.373" style="stroke:#000000;stroke-width:1.0;"/><text fill="#000000" font-family="sans-serif" font-size="13" lengthAdjust="spacing" textLength="36" x="798.5" y="212.0669">make</text><text fill="#000000" font-family="sans-serif" font-size="13" lengthAdjust="spacing" textLength="23" x="559.918" y="32.3713">0..*</text><!--MD5=[132eaccbfaea638e3926e226658652ad]
link Evaluation_Outcome to Decision--><path codeLine="227" d="M689.21,278.36 C674.53,296.71 649.65,327.81 631.19,350.88 " fill="none" id="Evaluation_Outcome-to-Decision" style="stroke:#A80036;stroke-width:1.0;"/><polygon fill="#A80036" points="628.06,354.8,636.7936,350.2476,631.173,350.8873,630.5333,345.2667,628.06,354.8" style="stroke:#A80036;stroke-width:1.0;"/><polygon fill="#000000" points="664.3764,320.4706,672.3219,315.2438,667.7322,311.5718,664.3764,320.4706" style="stroke:#000000;stroke-width:1.0;"/><text fill="#000000" font-family="sans-serif" font-size="13" lengthAdjust="spacing" textLength="113" x="676.5" y="321.0669">form the basis for</text><text fill="#000000" font-family="sans-serif" font-size="13" lengthAdjust="spacing" textLength="24" x="606.0395" y="343.9961">0..1</text><!--MD5=[52a6b51fc648ce0be0808bfcda0e3849]
reverse link Contribution to Contribution_to_Evaluation_Outcome--><path codeLine="231" d="M1018.5,59.6 C1018.5,81.83 1018.5,109.33 1018.5,126.14 " fill="none" id="Contribution-backto-Contribution_to_Evaluation_Outcome" style="stroke:#A80036;stroke-width:1.0;"/><polygon fill="none" points="1011.5,59.36,1018.5,39.36,1025.5,59.36,1011.5,59.36" style="stroke:#A80036;stroke-width:1.0;"/><!--MD5=[3ebf6a7eeaa5c40096535d633d0a0f7f]
reverse link Contribution_to_Evaluation_Outcome to Application_Review--><path codeLine="232" d="M1018.5,179.1 C1018.5,201.33 1018.5,228.83 1018.5,245.64 " fill="none" id="Contribution_to_Evaluation_Outcome-backto-Application_Review" style="stroke:#A80036;stroke-width:1.0;"/><polygon fill="none" points="1011.5,178.86,1018.5,158.86,1025.5,178.86,1011.5,178.86" style="stroke:#A80036;stroke-width:1.0;"/><!--MD5=[e2943e5fe819077387d25a77d2cd82c9]
link Contribution_to_Evaluation_Outcome to Evaluation_Outcome--><path codeLine="236" d="M996.93,158.68 C972.78,175.02 931.97,200.73 893.5,216 C859.38,229.55 820.16,239.64 786.09,246.79 " fill="none" id="Contribution_to_Evaluation_Outcome-to-Evaluation_Outcome" style="stroke:#A80036;stroke-width:1.0;"/><polygon fill="#A80036" points="781.11,247.83,790.734,249.9227,786.0062,246.8165,789.1124,242.0887,781.11,247.83" style="stroke:#A80036;stroke-width:1.0;"/><!--MD5=[945a4f0eaeab9fbe466b0309c366801e]
reverse link Resource to Document--><path codeLine="362" d="M724.9,417.74 C721.64,430.37 716.51,444.16 708.5,455 C700.15,466.31 689.32,476.33 677.86,484.97 " fill="none" id="Resource-backto-Document" style="stroke:#A80036;stroke-width:1.0;"/><polygon fill="none" points="718.12,415.96,728.9,397.71,731.85,418.7,718.12,415.96" style="stroke:#A80036;stroke-width:1.0;"/><!--MD5=[67ceb885199ca7e1fa058287d8756a2e]
reverse link Document to Textual_Document--><path codeLine="363" d="M607.5,583.38 C607.5,598.35 607.5,613.19 607.5,623.77 " fill="none" id="Document-backto-Textual_Document" style="stroke:#A80036;stroke-width:1.0;"/><polygon fill="none" points="600.5,583.28,607.5,563.28,614.5,583.28,600.5,583.28" style="stroke:#A80036;stroke-width:1.0;"/><!--MD5=[82af4cf6c98f8c2fa486cfa33877d7d5]
@startuml
    !includesub core.puml!common
    !includesub core.puml!Application
    !includesub core.puml!Document
    !includesub core.puml!Agent
@enduml

@startuml
        hide empty members
        skinparam BoxPadding 120
        class "Application" #ffffff {
            date : Date
        }

        class "Decision" #ffffff {
            date : Date
        }

        class "Funding_Application" #ffffff {
        }

        class "Call_for_Applications" #ffffff {

        }

        class "Call_for_Funding_Applications" #ffffff {
        }

		class "Evaluation_Outcome" #ffffff {
    	}

		class "Contribution_to_Evaluation_Outcome" #ffffff {
    	}

		class "Application_Review" #ffffff {
    	}

        "Application" -u-> "0..1" "Agent" : applicant >
        "Application" -u-> "0..1" "Agent" : addressee >
		"Call_for_Applications" -u-> "issuer" "Agent"
        "Application" "0..1" - - "0..*" "Evaluation_Outcome" : of <
        "Application" "0..*" -l- "0..1" "Call_for_Applications" : in response to >
        "Application" o- - "0..1" "Document" : contents >
        "Application" -r- "0..1" "Decision" : on <
        "Decision" o- - "0..1" "Document" : expressed in >
        "Application" <|-d- "Funding_Application"
        "Call_for_Applications" <|-d- "Call_for_Funding_Applications"
		"Call_for_Funding_Applications" o- - "Funding"
		"Funding_Application" o- - "Funding"
        "Decision" -u-> "0..*" "Agent" : make <
        "Evaluation_Outcome" -d-> "0..1" "Decision" : form the basis for >
        "Contribution" <|- - "Contribution_to_Evaluation_Outcome"
        "Contribution_to_Evaluation_Outcome" <|-d- "Application_Review"
        "Contribution_to_Evaluation_Outcome" - -> "Evaluation_Outcome"
        class "Document" #ffffff {
            DOI : DOI_Type
            title : Multilingual_String
            publicationDate : Date
        }
        class "Textual_Document" #ffffff {
        }
    	"Resource" <|- - "Document"
        "Document" <|- - "Textual_Document"
        class "Agent" #ffffff {
        }
@enduml

PlantUML version 1.2021.8(Sat Jun 26 08:20:59 UTC 2021)
(GPL source distribution)
Java Runtime: OpenJDK Runtime Environment
JVM: OpenJDK 64-Bit Server VM
Default Encoding: UTF-8
Language: en
Country: null
--></g></svg>