<?xml version="1.0" encoding="UTF-8" standalone="no"?><svg xmlns="http://www.w3.org/2000/svg" xmlns:xlink="http://www.w3.org/1999/xlink" contentScriptType="application/ecmascript" contentStyleType="text/css" height="469px" preserveAspectRatio="none" style="width:916px;height:469px;background:#FFFFFF;" version="1.1" viewBox="0 0 916 469" width="916px" zoomAndPan="magnify"><defs><filter height="300%" id="f1db0bf0p5fhx" width="300%" x="-1" y="-1"><feGaussianBlur result="blurOut" stdDeviation="2.0"/><feColorMatrix in="blurOut" result="blurOut2" type="matrix" values="0 0 0 0 0 0 0 0 0 0 0 0 0 0 0 0 0 0 .4 0"/><feOffset dx="4.0" dy="4.0" in="blurOut2" result="blurOut3"/><feBlend in="SourceGraphic" in2="blurOut3" mode="normal"/></filter></defs><g><!--MD5=[edcf71e28750a8856eb4372d573715ca]
class Call_for_Applications--><rect codeLine="314" fill="#FFFFFF" filter="url(#f1db0bf0p5fhx)" height="32" id="Call_for_Applications" style="stroke:#A80036;stroke-width:1.5;" width="159" x="29" y="150.1769"/><ellipse cx="44" cy="166.1769" fill="#ADD1B2" rx="11" ry="11" style="stroke:#A80036;stroke-width:1.0;"/><path d="M46.9688,171.8176 Q46.3906,172.1144 45.75,172.2551 Q45.1094,172.4113 44.4063,172.4113 Q41.9063,172.4113 40.5781,170.7707 Q39.2656,169.1144 39.2656,165.9894 Q39.2656,162.8644 40.5781,161.2082 Q41.9063,159.5519 44.4063,159.5519 Q45.1094,159.5519 45.75,159.7082 Q46.4063,159.8644 46.9688,160.1613 L46.9688,162.8801 Q46.3438,162.3019 45.75,162.0363 Q45.1563,161.7551 44.5313,161.7551 Q43.1875,161.7551 42.5,162.8332 Q41.8125,163.8957 41.8125,165.9894 Q41.8125,168.0832 42.5,169.1613 Q43.1875,170.2238 44.5313,170.2238 Q45.1563,170.2238 45.75,169.9582 Q46.3438,169.6769 46.9688,169.0988 L46.9688,171.8176 Z " fill="#000000"/><text fill="#000000" font-family="sans-serif" font-size="12" lengthAdjust="spacing" textLength="127" x="58" y="170.3312">Call_for_Applications</text><!--MD5=[9d44916250b776386006c440668bcfbb]
class Agent--><rect codeLine="10" fill="#FFFFFF" filter="url(#f1db0bf0p5fhx)" height="52.8047" id="Agent" style="stroke:#A80036;stroke-width:1.5;" width="133" x="175" y="9.6769"/><ellipse cx="218.8" cy="25.6769" fill="#ADD1B2" rx="11" ry="11" style="stroke:#A80036;stroke-width:1.0;"/><path d="M221.7688,31.3176 Q221.1906,31.6144 220.55,31.7551 Q219.9094,31.9113 219.2063,31.9113 Q216.7063,31.9113 215.3781,30.2707 Q214.0656,28.6144 214.0656,25.4894 Q214.0656,22.3644 215.3781,20.7082 Q216.7063,19.0519 219.2063,19.0519 Q219.9094,19.0519 220.55,19.2082 Q221.2063,19.3644 221.7688,19.6613 L221.7688,22.3801 Q221.1438,21.8019 220.55,21.5363 Q219.9563,21.2551 219.3313,21.2551 Q217.9875,21.2551 217.3,22.3332 Q216.6125,23.3957 216.6125,25.4894 Q216.6125,27.5832 217.3,28.6613 Q217.9875,29.7238 219.3313,29.7238 Q219.9563,29.7238 220.55,29.4582 Q221.1438,29.1769 221.7688,28.5988 L221.7688,31.3176 Z " fill="#000000"/><text fill="#000000" font-family="sans-serif" font-size="12" lengthAdjust="spacing" textLength="37" x="239.2" y="29.8312">Agent</text><line style="stroke:#A80036;stroke-width:1.5;" x1="176" x2="307" y1="41.6769" y2="41.6769"/><text fill="#000000" font-family="sans-serif" font-size="11" lengthAdjust="spacing" textLength="121" x="181" y="55.8874">lifetime : Date_Range</text><!--MD5=[0b4e4b4980470ea387cc45de9bd14b5b]
class Application--><rect codeLine="293" fill="#FFFFFF" filter="url(#f1db0bf0p5fhx)" height="52.8047" id="Application" style="stroke:#A80036;stroke-width:1.5;" width="101" x="329" y="139.6769"/><ellipse cx="344" cy="155.6769" fill="#ADD1B2" rx="11" ry="11" style="stroke:#A80036;stroke-width:1.0;"/><path d="M346.9688,161.3176 Q346.3906,161.6144 345.75,161.7551 Q345.1094,161.9113 344.4063,161.9113 Q341.9063,161.9113 340.5781,160.2707 Q339.2656,158.6144 339.2656,155.4894 Q339.2656,152.3644 340.5781,150.7082 Q341.9063,149.0519 344.4063,149.0519 Q345.1094,149.0519 345.75,149.2082 Q346.4063,149.3644 346.9688,149.6613 L346.9688,152.3801 Q346.3438,151.8019 345.75,151.5363 Q345.1563,151.2551 344.5313,151.2551 Q343.1875,151.2551 342.5,152.3332 Q341.8125,153.3957 341.8125,155.4894 Q341.8125,157.5832 342.5,158.6613 Q343.1875,159.7238 344.5313,159.7238 Q345.1563,159.7238 345.75,159.4582 Q346.3438,159.1769 346.9688,158.5988 L346.9688,161.3176 Z " fill="#000000"/><text fill="#000000" font-family="sans-serif" font-size="12" lengthAdjust="spacing" textLength="69" x="358" y="159.8312">Application</text><line style="stroke:#A80036;stroke-width:1.5;" x1="330" x2="429" y1="171.6769" y2="171.6769"/><text fill="#000000" font-family="sans-serif" font-size="11" lengthAdjust="spacing" textLength="63" x="335" y="185.8874">date : Date</text><!--MD5=[8a67874827a9dbf014cc34517ffca193]
class Resource_Offer--><rect codeLine="489" fill="#FFFFFF" filter="url(#f1db0bf0p5fhx)" height="32" id="Resource_Offer" style="stroke:#A80036;stroke-width:1.5;" width="127" x="731" y="20.1769"/><ellipse cx="746" cy="36.1769" fill="#ADD1B2" rx="11" ry="11" style="stroke:#A80036;stroke-width:1.0;"/><path d="M748.9688,41.8176 Q748.3906,42.1144 747.75,42.2551 Q747.1094,42.4113 746.4063,42.4113 Q743.9063,42.4113 742.5781,40.7707 Q741.2656,39.1144 741.2656,35.9894 Q741.2656,32.8644 742.5781,31.2082 Q743.9063,29.5519 746.4063,29.5519 Q747.1094,29.5519 747.75,29.7082 Q748.4063,29.8644 748.9688,30.1613 L748.9688,32.8801 Q748.3438,32.3019 747.75,32.0363 Q747.1563,31.7551 746.5313,31.7551 Q745.1875,31.7551 744.5,32.8332 Q743.8125,33.8957 743.8125,35.9894 Q743.8125,38.0832 744.5,39.1613 Q745.1875,40.2238 746.5313,40.2238 Q747.1563,40.2238 747.75,39.9582 Q748.3438,39.6769 748.9688,39.0988 L748.9688,41.8176 Z " fill="#000000"/><text fill="#000000" font-family="sans-serif" font-size="12" lengthAdjust="spacing" textLength="95" x="760" y="40.3312">Resource_Offer</text><!--MD5=[59b530d44ae785dc18db921986a9c15c]
class Document--><rect codeLine="203" fill="#FFFFFF" filter="url(#f1db0bf0p5fhx)" height="78.4141" id="Document" style="stroke:#A80036;stroke-width:1.5;" width="148" x="450.5" y="284.6769"/><ellipse cx="488.9" cy="300.6769" fill="#ADD1B2" rx="11" ry="11" style="stroke:#A80036;stroke-width:1.0;"/><path d="M491.8688,306.3176 Q491.2906,306.6144 490.65,306.7551 Q490.0094,306.9113 489.3063,306.9113 Q486.8063,306.9113 485.4781,305.2707 Q484.1656,303.6144 484.1656,300.4894 Q484.1656,297.3644 485.4781,295.7082 Q486.8063,294.0519 489.3063,294.0519 Q490.0094,294.0519 490.65,294.2082 Q491.3063,294.3644 491.8688,294.6613 L491.8688,297.3801 Q491.2438,296.8019 490.65,296.5363 Q490.0563,296.2551 489.4313,296.2551 Q488.0875,296.2551 487.4,297.3332 Q486.7125,298.3957 486.7125,300.4894 Q486.7125,302.5832 487.4,303.6613 Q488.0875,304.7238 489.4313,304.7238 Q490.0563,304.7238 490.65,304.4582 Q491.2438,304.1769 491.8688,303.5988 L491.8688,306.3176 Z " fill="#000000"/><text fill="#000000" font-family="sans-serif" font-size="12" lengthAdjust="spacing" textLength="64" x="508.1" y="304.8312">Document</text><line style="stroke:#A80036;stroke-width:1.5;" x1="451.5" x2="597.5" y1="316.6769" y2="316.6769"/><text fill="#000000" font-family="sans-serif" font-size="11" lengthAdjust="spacing" textLength="52" x="456.5" y="330.8874">DOI : DOI</text><text fill="#000000" font-family="sans-serif" font-size="11" lengthAdjust="spacing" textLength="136" x="456.5" y="343.6921">title : Multilingual_String</text><text fill="#000000" font-family="sans-serif" font-size="11" lengthAdjust="spacing" textLength="125" x="456.5" y="356.4967">publicationDate : Date</text><!--MD5=[68c3952ebfab03c1a0449046a32d2ee2]
class Resource_Request--><rect codeLine="511" fill="#FFFFFF" filter="url(#f1db0bf0p5fhx)" height="32" id="Resource_Request" style="stroke:#A80036;stroke-width:1.5;" width="149" x="405" y="20.1769"/><ellipse cx="420" cy="36.1769" fill="#ADD1B2" rx="11" ry="11" style="stroke:#A80036;stroke-width:1.0;"/><path d="M422.9688,41.8176 Q422.3906,42.1144 421.75,42.2551 Q421.1094,42.4113 420.4063,42.4113 Q417.9063,42.4113 416.5781,40.7707 Q415.2656,39.1144 415.2656,35.9894 Q415.2656,32.8644 416.5781,31.2082 Q417.9063,29.5519 420.4063,29.5519 Q421.1094,29.5519 421.75,29.7082 Q422.4063,29.8644 422.9688,30.1613 L422.9688,32.8801 Q422.3438,32.3019 421.75,32.0363 Q421.1563,31.7551 420.5313,31.7551 Q419.1875,31.7551 418.5,32.8332 Q417.8125,33.8957 417.8125,35.9894 Q417.8125,38.0832 418.5,39.1613 Q419.1875,40.2238 420.5313,40.2238 Q421.1563,40.2238 421.75,39.9582 Q422.3438,39.6769 422.9688,39.0988 L422.9688,41.8176 Z " fill="#000000"/><text fill="#000000" font-family="sans-serif" font-size="12" lengthAdjust="spacing" textLength="117" x="434" y="40.3312">Resource_Request</text><!--MD5=[6b13f1b330d33795af281e5c1dfe1e98]
class Resource--><rect codeLine="185" fill="#FFFFFF" filter="url(#f1db0bf0p5fhx)" height="32" id="Resource" style="stroke:#A80036;stroke-width:1.5;" width="91" x="787" y="222.6769"/><ellipse cx="802" cy="238.6769" fill="#ADD1B2" rx="11" ry="11" style="stroke:#A80036;stroke-width:1.0;"/><path d="M804.9688,244.3176 Q804.3906,244.6144 803.75,244.7551 Q803.1094,244.9113 802.4063,244.9113 Q799.9063,244.9113 798.5781,243.2707 Q797.2656,241.6144 797.2656,238.4894 Q797.2656,235.3644 798.5781,233.7082 Q799.9063,232.0519 802.4063,232.0519 Q803.1094,232.0519 803.75,232.2082 Q804.4063,232.3644 804.9688,232.6613 L804.9688,235.3801 Q804.3438,234.8019 803.75,234.5363 Q803.1563,234.2551 802.5313,234.2551 Q801.1875,234.2551 800.5,235.3332 Q799.8125,236.3957 799.8125,238.4894 Q799.8125,240.5832 800.5,241.6613 Q801.1875,242.7238 802.5313,242.7238 Q803.1563,242.7238 803.75,242.4582 Q804.3438,242.1769 804.9688,241.5988 L804.9688,244.3176 Z " fill="#000000"/><text fill="#000000" font-family="sans-serif" font-size="12" lengthAdjust="spacing" textLength="59" x="816" y="242.8312">Resource</text><!--MD5=[a030fa97ffb865708cae79f6847e8968]
class Condition--><rect codeLine="502" fill="#FFFFFF" filter="url(#f1db0bf0p5fhx)" height="32" id="Condition" style="stroke:#A80036;stroke-width:1.5;" width="91" x="790" y="150.1769"/><ellipse cx="805" cy="166.1769" fill="#ADD1B2" rx="11" ry="11" style="stroke:#A80036;stroke-width:1.0;"/><path d="M807.9688,171.8176 Q807.3906,172.1144 806.75,172.2551 Q806.1094,172.4113 805.4063,172.4113 Q802.9063,172.4113 801.5781,170.7707 Q800.2656,169.1144 800.2656,165.9894 Q800.2656,162.8644 801.5781,161.2082 Q802.9063,159.5519 805.4063,159.5519 Q806.1094,159.5519 806.75,159.7082 Q807.4063,159.8644 807.9688,160.1613 L807.9688,162.8801 Q807.3438,162.3019 806.75,162.0363 Q806.1563,161.7551 805.5313,161.7551 Q804.1875,161.7551 803.5,162.8332 Q802.8125,163.8957 802.8125,165.9894 Q802.8125,168.0832 803.5,169.1613 Q804.1875,170.2238 805.5313,170.2238 Q806.1563,170.2238 806.75,169.9582 Q807.3438,169.6769 807.9688,169.0988 L807.9688,171.8176 Z " fill="#000000"/><text fill="#000000" font-family="sans-serif" font-size="12" lengthAdjust="spacing" textLength="59" x="819" y="170.3312">Condition</text><!--MD5=[92dc6ef2f70a23983af4e570fc6275cd]
class Funding--><rect codeLine="190" fill="#FFFFFF" filter="url(#f1db0bf0p5fhx)" height="32" id="Funding" style="stroke:#A80036;stroke-width:1.5;" width="82" x="295.5" y="423.6769"/><ellipse cx="310.5" cy="439.6769" fill="#ADD1B2" rx="11" ry="11" style="stroke:#A80036;stroke-width:1.0;"/><path d="M313.4688,445.3176 Q312.8906,445.6144 312.25,445.7551 Q311.6094,445.9113 310.9063,445.9113 Q308.4063,445.9113 307.0781,444.2707 Q305.7656,442.6144 305.7656,439.4894 Q305.7656,436.3644 307.0781,434.7082 Q308.4063,433.0519 310.9063,433.0519 Q311.6094,433.0519 312.25,433.2082 Q312.9063,433.3644 313.4688,433.6613 L313.4688,436.3801 Q312.8438,435.8019 312.25,435.5363 Q311.6563,435.2551 311.0313,435.2551 Q309.6875,435.2551 309,436.3332 Q308.3125,437.3957 308.3125,439.4894 Q308.3125,441.5832 309,442.6613 Q309.6875,443.7238 311.0313,443.7238 Q311.6563,443.7238 312.25,443.4582 Q312.8438,443.1769 313.4688,442.5988 L313.4688,445.3176 Z " fill="#000000"/><text fill="#000000" font-family="sans-serif" font-size="12" lengthAdjust="spacing" textLength="50" x="324.5" y="443.8312">Funding</text><!--MD5=[6ff7a5782d5ed311fa9cacd2967fdc4e]
class Funding_Application--><rect codeLine="305" fill="#FFFFFF" filter="url(#f1db0bf0p5fhx)" height="32" id="Funding_Application" style="stroke:#A80036;stroke-width:1.5;" width="157" x="258" y="307.6769"/><ellipse cx="273" cy="323.6769" fill="#ADD1B2" rx="11" ry="11" style="stroke:#A80036;stroke-width:1.0;"/><path d="M275.9688,329.3176 Q275.3906,329.6144 274.75,329.7551 Q274.1094,329.9113 273.4063,329.9113 Q270.9063,329.9113 269.5781,328.2707 Q268.2656,326.6144 268.2656,323.4894 Q268.2656,320.3644 269.5781,318.7082 Q270.9063,317.0519 273.4063,317.0519 Q274.1094,317.0519 274.75,317.2082 Q275.4063,317.3644 275.9688,317.6613 L275.9688,320.3801 Q275.3438,319.8019 274.75,319.5363 Q274.1563,319.2551 273.5313,319.2551 Q272.1875,319.2551 271.5,320.3332 Q270.8125,321.3957 270.8125,323.4894 Q270.8125,325.5832 271.5,326.6613 Q272.1875,327.7238 273.5313,327.7238 Q274.1563,327.7238 274.75,327.4582 Q275.3438,327.1769 275.9688,326.5988 L275.9688,329.3176 Z " fill="#000000"/><text fill="#000000" font-family="sans-serif" font-size="12" lengthAdjust="spacing" textLength="125" x="287" y="327.8312">Funding_Application</text><!--MD5=[0db85a2d6db180b105db5ebe9e86b106]
class Call_for_Funding_Applications--><rect codeLine="319" fill="#FFFFFF" filter="url(#f1db0bf0p5fhx)" height="32" id="Call_for_Funding_Applications" style="stroke:#A80036;stroke-width:1.5;" width="215" x="7" y="307.6769"/><ellipse cx="22" cy="323.6769" fill="#ADD1B2" rx="11" ry="11" style="stroke:#A80036;stroke-width:1.0;"/><path d="M24.9688,329.3176 Q24.3906,329.6144 23.75,329.7551 Q23.1094,329.9113 22.4063,329.9113 Q19.9063,329.9113 18.5781,328.2707 Q17.2656,326.6144 17.2656,323.4894 Q17.2656,320.3644 18.5781,318.7082 Q19.9063,317.0519 22.4063,317.0519 Q23.1094,317.0519 23.75,317.2082 Q24.4063,317.3644 24.9688,317.6613 L24.9688,320.3801 Q24.3438,319.8019 23.75,319.5363 Q23.1563,319.2551 22.5313,319.2551 Q21.1875,319.2551 20.5,320.3332 Q19.8125,321.3957 19.8125,323.4894 Q19.8125,325.5832 20.5,326.6613 Q21.1875,327.7238 22.5313,327.7238 Q23.1563,327.7238 23.75,327.4582 Q24.3438,327.1769 24.9688,326.5988 L24.9688,329.3176 Z " fill="#000000"/><text fill="#000000" font-family="sans-serif" font-size="12" lengthAdjust="spacing" textLength="183" x="36" y="327.8312">Call_for_Funding_Applications</text><!--MD5=[08c6a5fbc728deaee606fab1d8cae3e6]
reverse link Agent to Call_for_Applications--><path codeLine="357" d="M211,66.5269 C183.94,92.5669 145.51,129.5569 124.22,150.0469 " fill="none" id="Agent-backto-Call_for_Applications" style="stroke:#A80036;stroke-width:1.0;"/><polygon fill="#A80036" points="214.91,62.7769,205.6549,66.1448,211.3108,66.2476,211.2079,71.9035,214.91,62.7769" style="stroke:#A80036;stroke-width:1.0;"/><text fill="#000000" font-family="sans-serif" font-size="13" lengthAdjust="spacing" textLength="38" x="166.9372" y="82.3391">issuer</text><!--MD5=[a59b92cc30ee8d24d8d720fed1533057]
link Call_for_Applications to Application--><path codeLine="365" d="M188.34,166.1769 C233.78,166.1769 289.32,166.1769 328.8,166.1769 " fill="none" id="Call_for_Applications-Application" style="stroke:#A80036;stroke-width:1.0;"/><polygon fill="#000000" points="205.5,154.7433,214.5451,157.6823,214.5451,151.8044,205.5,154.7433" style="stroke:#000000;stroke-width:1.0;"/><text fill="#000000" font-family="sans-serif" font-size="13" lengthAdjust="spacing" textLength="91" x="219.5" y="159.2438">in response to</text><text fill="#000000" font-family="sans-serif" font-size="13" lengthAdjust="spacing" textLength="24" x="195.9455" y="178.8704">0..1</text><text fill="#000000" font-family="sans-serif" font-size="13" lengthAdjust="spacing" textLength="23" x="297.8306" y="179.2258">0..*</text><!--MD5=[555d991a4645b83cbfa238b562f91a92]
reverse link Resource_Offer to Call_for_Applications--><path codeLine="498" d="M711.11,53.7969 C635.57,68.7469 521.16,91.1569 421.5,109.6769 C342.15,124.4269 251.31,140.4369 188,151.4569 " fill="none" id="Resource_Offer-backto-Call_for_Applications" style="stroke:#A80036;stroke-width:1.0;"/><polygon fill="none" points="709.89,46.8969,730.87,49.8769,712.61,60.6269,709.89,46.8969" style="stroke:#A80036;stroke-width:1.0;"/><!--MD5=[0c5226e8f688e58cc6150c041928918d]
reverse link Agent to Application--><path codeLine="349" d="M290.1,65.7469 C301.94,73.7469 314.16,82.9369 324.5,92.6769 C339.33,106.6569 353.18,124.9569 363.27,139.6669 " fill="none" id="Agent-backto-Application" style="stroke:#A80036;stroke-width:1.0;"/><polygon fill="#A80036" points="285.75,62.8569,291.0197,71.1774,289.9103,65.6304,295.4573,64.521,285.75,62.8569" style="stroke:#A80036;stroke-width:1.0;"/><polygon fill="#000000" points="341.9825,97.6898,346.257,106.1857,350.4344,102.0507,341.9825,97.6898" style="stroke:#000000;stroke-width:1.0;"/><text fill="#000000" font-family="sans-serif" font-size="13" lengthAdjust="spacing" textLength="58" x="354.5" y="105.7438">applicant</text><text fill="#000000" font-family="sans-serif" font-size="13" lengthAdjust="spacing" textLength="24" x="268.8047" y="82.4366">0..1</text><!--MD5=[0c5226e8f688e58cc6150c041928918d]
reverse link Agent to Application--><path codeLine="353" d="M230.03,67.7469 C226.84,81.6369 226.2,97.6169 234.5,109.6769 C255.58,140.3269 296.07,154.0569 328.92,160.2069 " fill="none" id="Agent-backto-Application-1" style="stroke:#A80036;stroke-width:1.0;"/><polygon fill="#A80036" points="231.31,62.7369,225.1983,70.4601,230.0671,67.58,232.9472,72.4488,231.31,62.7369" style="stroke:#A80036;stroke-width:1.0;"/><polygon fill="#000000" points="235.8477,97.8285,240.4476,106.1527,244.4619,101.8592,235.8477,97.8285" style="stroke:#000000;stroke-width:1.0;"/><text fill="#000000" font-family="sans-serif" font-size="13" lengthAdjust="spacing" textLength="67" x="248.5" y="105.7438">addressee</text><text fill="#000000" font-family="sans-serif" font-size="13" lengthAdjust="spacing" textLength="24" x="231.7286" y="82.7181">0..1</text><!--MD5=[33d78e85ad541f0b21b2e8ffaf1167a1]
reverse link Application to Document--><path codeLine="369" d="M383.45,206.0169 C386.72,222.3769 392.67,240.8069 403.5,254.6769 C415.81,270.4369 432.86,283.1269 450.28,293.0769 " fill="none" id="Application-backto-Document" style="stroke:#A80036;stroke-width:1.0;"/><polygon fill="#FFFFFF" points="381.29,192.8969,378.3201,199.4681,383.2435,204.7368,386.2134,198.1657,381.29,192.8969" style="stroke:#A80036;stroke-width:1.0;"/><polygon fill="#000000" points="411.5446,242.7095,408.3682,233.7451,403.7056,237.3242,411.5446,242.7095" style="stroke:#000000;stroke-width:1.0;"/><text fill="#000000" font-family="sans-serif" font-size="13" lengthAdjust="spacing" textLength="56" x="417.5" y="243.2438">contents</text><text fill="#000000" font-family="sans-serif" font-size="13" lengthAdjust="spacing" textLength="24" x="418.601" y="286.738">0..1</text><!--MD5=[34d3520aa241427fbea18906841a2be6]
reverse link Resource_Request to Application--><path codeLine="516" d="M462.75,70.5569 C455.7,83.3169 446.94,97.6669 437.5,109.6769 C429.23,120.1969 419.01,130.6269 409.46,139.5669 " fill="none" id="Resource_Request-backto-Application" style="stroke:#A80036;stroke-width:1.0;"/><polygon fill="none" points="456.79,66.8569,472.28,52.3969,469.19,73.3569,456.79,66.8569" style="stroke:#A80036;stroke-width:1.0;"/><!--MD5=[d43c569b2c93336ab3caeea3dfd29687]
link Resource_Offer to Resource--><path codeLine="494" d="M820.45,52.4369 C846.7,69.6869 885.23,100.5469 898.5,139.6769 C906.06,161.9869 909.51,171.8469 898.5,192.6769 C892.49,204.0469 882.18,213.0769 871.47,219.9769 " fill="none" id="Resource_Offer-to-Resource" style="stroke:#A80036;stroke-width:1.0;"/><polygon fill="#A80036" points="867.2,222.6169,876.9625,221.3158,871.4607,220.0004,872.7761,214.4986,867.2,222.6169" style="stroke:#A80036;stroke-width:1.0;"/><polygon fill="#000000" points="886.9566,106.0265,887.1331,96.5175,881.5101,98.2299,886.9566,106.0265" style="stroke:#000000;stroke-width:1.0;"/><text fill="#000000" font-family="sans-serif" font-size="13" lengthAdjust="spacing" textLength="12" x="894.5" y="105.7438">of</text><text fill="#000000" font-family="sans-serif" font-size="13" lengthAdjust="spacing" textLength="23" x="852.175" y="211.6079">1..*</text><!--MD5=[70b48935e489e5910f3d4342ebe97e3f]
reverse link Resource_Offer to Condition--><path codeLine="507" d="M803.33,64.7469 C811.69,90.8369 823.93,129.0469 830.64,150.0069 " fill="none" id="Resource_Offer-backto-Condition" style="stroke:#A80036;stroke-width:1.0;"/><polygon fill="#FFFFFF" points="799.36,52.3669,797.3781,59.3003,803.0159,63.7965,804.9978,56.8631,799.36,52.3669" style="stroke:#A80036;stroke-width:1.0;"/><polygon fill="#000000" points="823.0252,106.005,823.0649,96.4945,817.4672,98.2876,823.0252,106.005" style="stroke:#000000;stroke-width:1.0;"/><text fill="#000000" font-family="sans-serif" font-size="13" lengthAdjust="spacing" textLength="23" x="830.5" y="105.7438">has</text><text fill="#000000" font-family="sans-serif" font-size="13" lengthAdjust="spacing" textLength="23" x="802.2208" y="139.2551">0..*</text><!--MD5=[de101208c945d7bf9a03e03cc38155cf]
reverse link Resource_Offer to Document--><path codeLine="524" d="M765.98,60.9769 C742.32,81.1469 708.2,111.2369 680.5,139.6769 C634.04,187.3769 584.92,246.6769 554.48,284.6069 " fill="none" id="Resource_Offer-backto-Document" style="stroke:#A80036;stroke-width:1.0;"/><polygon fill="#FFFFFF" points="776.05,52.4469,768.8864,53.2737,766.8944,60.2041,774.0579,59.3774,776.05,52.4469" style="stroke:#A80036;stroke-width:1.0;"/><polygon fill="#000000" points="682.0644,169.876,690.4147,165.3238,686.1443,161.285,682.0644,169.876" style="stroke:#000000;stroke-width:1.0;"/><text fill="#000000" font-family="sans-serif" font-size="13" lengthAdjust="spacing" textLength="77" x="694.5" y="170.7438">described in</text><text fill="#000000" font-family="sans-serif" font-size="13" lengthAdjust="spacing" textLength="24" x="742.3441" y="72.1117">0..1</text><text fill="#000000" font-family="sans-serif" font-size="13" lengthAdjust="spacing" textLength="23" x="534.6563" y="273.6454">0..*</text><!--MD5=[fc92b3bd86963d223135ad44997ca08d]
reverse link Resource_Request to Document--><path codeLine="520" d="M483.96,65.4569 C492.09,117.0469 509.34,226.4869 518.5,284.5869 " fill="none" id="Resource_Request-backto-Document" style="stroke:#A80036;stroke-width:1.0;"/><polygon fill="#FFFFFF" points="481.92,52.5269,478.9051,59.0775,483.7922,64.38,486.8071,57.8294,481.92,52.5269" style="stroke:#A80036;stroke-width:1.0;"/><polygon fill="#000000" points="509.2785,171.1824,510.7733,161.79,504.9671,162.7052,509.2785,171.1824" style="stroke:#000000;stroke-width:1.0;"/><text fill="#000000" font-family="sans-serif" font-size="13" lengthAdjust="spacing" textLength="77" x="517.5" y="170.7438">described in</text><text fill="#000000" font-family="sans-serif" font-size="13" lengthAdjust="spacing" textLength="24" x="454.8664" y="72.2172">0..1</text><text fill="#000000" font-family="sans-serif" font-size="13" lengthAdjust="spacing" textLength="23" x="492.4922" y="273.622">0..*</text><!--MD5=[633efb3059d8abd5e23b324815a30d32]
link Resource_Request to Resource_Request--><path codeLine="528" d="M554.22,24.2869 C574.01,24.9669 589,28.9269 589,36.1769 C589,42.7469 576.69,46.6169 559.65,47.7969 " fill="none" id="Resource_Request-to-Resource_Request" style="stroke:#A80036;stroke-width:1.0;"/><polygon fill="#A80036" points="554.22,48.0669,563.4035,51.6256,559.2141,47.8244,563.0153,43.635,554.22,48.0669" style="stroke:#A80036;stroke-width:1.0;"/><polygon fill="#000000" points="594.1717,41.2404,596.7983,32.0997,590.9239,32.3016,594.1717,41.2404" style="stroke:#000000;stroke-width:1.0;"/><text fill="#000000" font-family="sans-serif" font-size="13" lengthAdjust="spacing" textLength="38" x="608" y="40.7438">revise</text><text fill="#000000" font-family="sans-serif" font-size="13" lengthAdjust="spacing" textLength="23" x="561.899" y="19.6328">0..*</text><text fill="#000000" font-family="sans-serif" font-size="13" lengthAdjust="spacing" textLength="24" x="561.9435" y="45.5307">0..1</text><!--MD5=[a21829bf9e22d7ad2257d12c520c50b2]
reverse link Resource to Funding--><path codeLine="195" d="M793.69,265.7969 C751.59,293.1469 681.65,335.7969 616.5,362.6769 C534.78,396.3969 433.52,419.5969 377.91,430.8569 " fill="none" id="Resource-backto-Funding" style="stroke:#A80036;stroke-width:1.0;"/><polygon fill="none" points="789.89,259.9169,810.45,254.7569,797.6,271.6069,789.89,259.9169" style="stroke:#A80036;stroke-width:1.0;"/><!--MD5=[7072accdc040e53c8442e4ca7ea58660]
link Funding to Funding--><path codeLine="220" d="M377.55,431.2069 C396.25,430.3369 412.5,433.1669 412.5,439.6769 C412.5,446.1869 396.25,449.0169 377.55,448.1469 " fill="none" id="Funding-Funding" style="stroke:#A80036;stroke-width:1.0;"/><polygon fill="#000000" points="417.2676,444.7379,420.6237,435.8392,414.7522,435.566,417.2676,444.7379" style="stroke:#000000;stroke-width:1.0;"/><text fill="#000000" font-family="sans-serif" font-size="13" lengthAdjust="spacing" textLength="56" x="431.5" y="444.2438">is part of</text><text fill="#000000" font-family="sans-serif" font-size="13" lengthAdjust="spacing" textLength="23" x="385.5967" y="425.8386">0..*</text><text fill="#000000" font-family="sans-serif" font-size="13" lengthAdjust="spacing" textLength="23" x="385.5967" y="445.3725">0..*</text><!--MD5=[dc4598ce2d2e32aede71f5bf98c1fc33]
reverse link Application to Funding_Application--><path codeLine="310" d="M364.72,211.8369 C363.6,215.4969 362.51,219.1469 361.5,222.6769 C352.97,252.4369 344.55,287.6469 339.99,307.3469 " fill="none" id="Application-backto-Funding_Application" style="stroke:#A80036;stroke-width:1.0;"/><polygon fill="none" points="358.06,209.6969,370.8,192.7569,371.4,213.9469,358.06,209.6969" style="stroke:#A80036;stroke-width:1.0;"/><!--MD5=[fe30ea5ff89947ea913a9223c0df3083]
reverse link Funding_Application to Funding--><path codeLine="389" d="M336.5,353.0569 C336.5,375.3869 336.5,405.6269 336.5,423.5469 " fill="none" id="Funding_Application-backto-Funding" style="stroke:#A80036;stroke-width:1.0;"/><polygon fill="#FFFFFF" points="336.5,340.0469,332.5,346.0469,336.5,352.0469,340.5,346.0469,336.5,340.0469" style="stroke:#A80036;stroke-width:1.0;"/><!--MD5=[ce01e496d5f2dcc88ba1226d075cb019]
reverse link Call_for_Applications to Call_for_Funding_Applications--><path codeLine="381" d="M109.86,202.4569 C111.14,235.5769 112.99,283.5469 113.92,307.6469 " fill="none" id="Call_for_Applications-backto-Call_for_Funding_Applications" style="stroke:#A80036;stroke-width:1.0;"/><polygon fill="none" points="102.86,202.6269,109.09,182.3669,116.85,202.0869,102.86,202.6269" style="stroke:#A80036;stroke-width:1.0;"/><!--MD5=[d5b9c4df216c342f96b9d5401369a042]
reverse link Call_for_Funding_Applications to Funding--><path codeLine="385" d="M155.7,345.8369 C199.74,368.4469 268.45,403.7369 307.25,423.6569 " fill="none" id="Call_for_Funding_Applications-backto-Funding" style="stroke:#A80036;stroke-width:1.0;"/><polygon fill="#FFFFFF" points="143.98,339.8169,147.4928,346.1145,154.6571,345.2941,151.1443,338.9965,143.98,339.8169" style="stroke:#A80036;stroke-width:1.0;"/><!--MD5=[0e7a3ef436ab0477ecc28ff223f6499a]
@startuml

    !includesub core.puml!common
    !includesub core.puml!Call_for_Applications
    !includesub core.puml!Application
    !includesub core.puml!Resource
    !includesub core.puml!Document
    !includesub core.puml!Agent
    !includesub core.puml!Resource_Offer
    !includesub core.puml!Resource_Request
    !includesub core.puml!Condition
    !includesub core.puml!Funding
    !includesub core.puml!Funding_Application
    !includesub core.puml!Call_for_Funding_Applications

@enduml

@startuml

    hide empty members
    skinparam BoxPadding 120
    class "Call_for_Applications" #ffffff {
    }
	"Call_for_Applications" -u-> "issuer" "Agent"
    "Application" "0..*" -l- "0..1" "Call_for_Applications" : in response to >
	"Resource_Offer" <|- - "Call_for_Applications"
    class "Application" #ffffff {
        date : Date
    }
    "Application" -u-> "0..1" "Agent" : applicant >
    "Application" -u-> "0..1" "Agent" : addressee >
    "Application" o- - "0..1" "Document" : contents >
	"Resource_Request" <|- - "Application"
    class "Resource" #ffffff {
    }
    class "Document" #ffffff {
        DOI : DOI
        title : Multilingual_String
        publicationDate : Date
    }
    class "Agent" #ffffff {
    	lifetime : Date_Range
    }
	class "Resource_Offer" #ffffff {
	}
	"Resource_Offer" - -> "1..*" "Resource" : of >
	"Resource_Offer" o- - "0..*" "Condition" : has >
	"Resource_Offer" "0..1" o- - "0..*" "Document" : described in >
	class "Resource_Request" #ffffff {
	}
	"Resource_Request" "0..1" o- - "0..*" "Document" : described in >
	"Resource_Request" "0..*" - -> "0..1" "Resource_Request" : revise >
	class "Condition" #ffffff {
	}
    class "Funding" #ffffff {
    }
     "Resource" <|- - "Funding"
     "Funding" "0..*" - - "0..*" "Funding" : is part of >
    class "Funding_Application" #ffffff {
    }
    "Application" <|- - "Funding_Application"
	"Funding_Application" o- - "Funding"
    class "Call_for_Funding_Applications" #ffffff {
    }
    "Call_for_Applications" <|- - "Call_for_Funding_Applications"
	"Call_for_Funding_Applications" o- - "Funding"

@enduml

PlantUML version 1.2021.8(Sat Jun 26 08:20:59 UTC 2021)
(GPL source distribution)
Java Runtime: OpenJDK Runtime Environment
JVM: OpenJDK 64-Bit Server VM
Default Encoding: UTF-8
Language: en
Country: null
--></g></svg>