<?xml version="1.0" encoding="UTF-8" standalone="no"?><svg xmlns="http://www.w3.org/2000/svg" xmlns:xlink="http://www.w3.org/1999/xlink" contentScriptType="application/ecmascript" contentStyleType="text/css" height="670px" preserveAspectRatio="none" style="width:1208px;height:670px;background:#FFFFFF;" version="1.1" viewBox="0 0 1208 670" width="1208px" zoomAndPan="magnify"><defs><filter height="300%" id="f4kdof11e1rok" width="300%" x="-1" y="-1"><feGaussianBlur result="blurOut" stdDeviation="2.0"/><feColorMatrix in="blurOut" result="blurOut2" type="matrix" values="0 0 0 0 0 0 0 0 0 0 0 0 0 0 0 0 0 0 .4 0"/><feOffset dx="4.0" dy="4.0" in="blurOut2" result="blurOut3"/><feBlend in="SourceGraphic" in2="blurOut3" mode="normal"/></filter></defs><g><!--MD5=[0b4e4b4980470ea387cc45de9bd14b5b]
class Application--><rect codeLine="137" fill="#FFFFFF" filter="url(#f4kdof11e1rok)" height="52.8047" id="Application" style="stroke:#A80036;stroke-width:1.5;" width="101" x="561" y="116"/><ellipse cx="576" cy="132" fill="#ADD1B2" rx="11" ry="11" style="stroke:#A80036;stroke-width:1.0;"/><path d="M578.9688,137.6406 Q578.3906,137.9375 577.75,138.0781 Q577.1094,138.2344 576.4063,138.2344 Q573.9063,138.2344 572.5781,136.5938 Q571.2656,134.9375 571.2656,131.8125 Q571.2656,128.6875 572.5781,127.0313 Q573.9063,125.375 576.4063,125.375 Q577.1094,125.375 577.75,125.5313 Q578.4063,125.6875 578.9688,125.9844 L578.9688,128.7031 Q578.3438,128.125 577.75,127.8594 Q577.1563,127.5781 576.5313,127.5781 Q575.1875,127.5781 574.5,128.6563 Q573.8125,129.7188 573.8125,131.8125 Q573.8125,133.9063 574.5,134.9844 Q575.1875,136.0469 576.5313,136.0469 Q577.1563,136.0469 577.75,135.7813 Q578.3438,135.5 578.9688,134.9219 L578.9688,137.6406 Z " fill="#000000"/><text fill="#000000" font-family="sans-serif" font-size="12" lengthAdjust="spacing" textLength="69" x="590" y="136.1543">Application</text><line style="stroke:#A80036;stroke-width:1.5;" x1="562" x2="661" y1="148" y2="148"/><text fill="#000000" font-family="sans-serif" font-size="11" lengthAdjust="spacing" textLength="63" x="567" y="162.2104">date : Date</text><!--MD5=[3db53164d4ddbdea4156eda8a776d7e7]
class Decision--><rect codeLine="141" fill="#FFFFFF" filter="url(#f4kdof11e1rok)" height="52.8047" id="Decision" style="stroke:#A80036;stroke-width:1.5;" width="85" x="627" y="355"/><ellipse cx="642" cy="371" fill="#ADD1B2" rx="11" ry="11" style="stroke:#A80036;stroke-width:1.0;"/><path d="M644.9688,376.6406 Q644.3906,376.9375 643.75,377.0781 Q643.1094,377.2344 642.4063,377.2344 Q639.9063,377.2344 638.5781,375.5938 Q637.2656,373.9375 637.2656,370.8125 Q637.2656,367.6875 638.5781,366.0313 Q639.9063,364.375 642.4063,364.375 Q643.1094,364.375 643.75,364.5313 Q644.4063,364.6875 644.9688,364.9844 L644.9688,367.7031 Q644.3438,367.125 643.75,366.8594 Q643.1563,366.5781 642.5313,366.5781 Q641.1875,366.5781 640.5,367.6563 Q639.8125,368.7188 639.8125,370.8125 Q639.8125,372.9063 640.5,373.9844 Q641.1875,375.0469 642.5313,375.0469 Q643.1563,375.0469 643.75,374.7813 Q644.3438,374.5 644.9688,373.9219 L644.9688,376.6406 Z " fill="#000000"/><text fill="#000000" font-family="sans-serif" font-size="12" lengthAdjust="spacing" textLength="53" x="656" y="375.1543">Decision</text><line style="stroke:#A80036;stroke-width:1.5;" x1="628" x2="711" y1="387" y2="387"/><text fill="#000000" font-family="sans-serif" font-size="11" lengthAdjust="spacing" textLength="63" x="633" y="401.2104">date : Date</text><!--MD5=[6ff7a5782d5ed311fa9cacd2967fdc4e]
class Funding_Application--><rect codeLine="145" fill="#FFFFFF" filter="url(#f4kdof11e1rok)" height="32" id="Funding_Application" style="stroke:#A80036;stroke-width:1.5;" width="157" x="363" y="246"/><ellipse cx="378" cy="262" fill="#ADD1B2" rx="11" ry="11" style="stroke:#A80036;stroke-width:1.0;"/><path d="M380.9688,267.6406 Q380.3906,267.9375 379.75,268.0781 Q379.1094,268.2344 378.4063,268.2344 Q375.9063,268.2344 374.5781,266.5938 Q373.2656,264.9375 373.2656,261.8125 Q373.2656,258.6875 374.5781,257.0313 Q375.9063,255.375 378.4063,255.375 Q379.1094,255.375 379.75,255.5313 Q380.4063,255.6875 380.9688,255.9844 L380.9688,258.7031 Q380.3438,258.125 379.75,257.8594 Q379.1563,257.5781 378.5313,257.5781 Q377.1875,257.5781 376.5,258.6563 Q375.8125,259.7188 375.8125,261.8125 Q375.8125,263.9063 376.5,264.9844 Q377.1875,266.0469 378.5313,266.0469 Q379.1563,266.0469 379.75,265.7813 Q380.3438,265.5 380.9688,264.9219 L380.9688,267.6406 Z " fill="#000000"/><text fill="#000000" font-family="sans-serif" font-size="12" lengthAdjust="spacing" textLength="125" x="392" y="266.1543">Funding_Application</text><!--MD5=[edcf71e28750a8856eb4372d573715ca]
class Call_for_Applications--><rect codeLine="148" fill="#FFFFFF" filter="url(#f4kdof11e1rok)" height="32" id="Call_for_Applications" style="stroke:#A80036;stroke-width:1.5;" width="159" x="261" y="126.5"/><ellipse cx="276" cy="142.5" fill="#ADD1B2" rx="11" ry="11" style="stroke:#A80036;stroke-width:1.0;"/><path d="M278.9688,148.1406 Q278.3906,148.4375 277.75,148.5781 Q277.1094,148.7344 276.4063,148.7344 Q273.9063,148.7344 272.5781,147.0938 Q271.2656,145.4375 271.2656,142.3125 Q271.2656,139.1875 272.5781,137.5313 Q273.9063,135.875 276.4063,135.875 Q277.1094,135.875 277.75,136.0313 Q278.4063,136.1875 278.9688,136.4844 L278.9688,139.2031 Q278.3438,138.625 277.75,138.3594 Q277.1563,138.0781 276.5313,138.0781 Q275.1875,138.0781 274.5,139.1563 Q273.8125,140.2188 273.8125,142.3125 Q273.8125,144.4063 274.5,145.4844 Q275.1875,146.5469 276.5313,146.5469 Q277.1563,146.5469 277.75,146.2813 Q278.3438,146 278.9688,145.4219 L278.9688,148.1406 Z " fill="#000000"/><text fill="#000000" font-family="sans-serif" font-size="12" lengthAdjust="spacing" textLength="127" x="290" y="146.6543">Call_for_Applications</text><!--MD5=[0db85a2d6db180b105db5ebe9e86b106]
class Call_for_Funding_Applications--><rect codeLine="152" fill="#FFFFFF" filter="url(#f4kdof11e1rok)" height="32" id="Call_for_Funding_Applications" style="stroke:#A80036;stroke-width:1.5;" width="215" x="7" y="246"/><ellipse cx="22" cy="262" fill="#ADD1B2" rx="11" ry="11" style="stroke:#A80036;stroke-width:1.0;"/><path d="M24.9688,267.6406 Q24.3906,267.9375 23.75,268.0781 Q23.1094,268.2344 22.4063,268.2344 Q19.9063,268.2344 18.5781,266.5938 Q17.2656,264.9375 17.2656,261.8125 Q17.2656,258.6875 18.5781,257.0313 Q19.9063,255.375 22.4063,255.375 Q23.1094,255.375 23.75,255.5313 Q24.4063,255.6875 24.9688,255.9844 L24.9688,258.7031 Q24.3438,258.125 23.75,257.8594 Q23.1563,257.5781 22.5313,257.5781 Q21.1875,257.5781 20.5,258.6563 Q19.8125,259.7188 19.8125,261.8125 Q19.8125,263.9063 20.5,264.9844 Q21.1875,266.0469 22.5313,266.0469 Q23.1563,266.0469 23.75,265.7813 Q24.3438,265.5 24.9688,264.9219 L24.9688,267.6406 Z " fill="#000000"/><text fill="#000000" font-family="sans-serif" font-size="12" lengthAdjust="spacing" textLength="183" x="36" y="266.1543">Call_for_Funding_Applications</text><!--MD5=[bb370c11d182b7ebaea7e6fa83404e81]
class Process--><rect codeLine="155" fill="#FFFFFF" filter="url(#f4kdof11e1rok)" height="32" id="Process" style="stroke:#A80036;stroke-width:1.5;" width="82" x="931.5" y="126.5"/><ellipse cx="946.5" cy="142.5" fill="#ADD1B2" rx="11" ry="11" style="stroke:#A80036;stroke-width:1.0;"/><path d="M949.4688,148.1406 Q948.8906,148.4375 948.25,148.5781 Q947.6094,148.7344 946.9063,148.7344 Q944.4063,148.7344 943.0781,147.0938 Q941.7656,145.4375 941.7656,142.3125 Q941.7656,139.1875 943.0781,137.5313 Q944.4063,135.875 946.9063,135.875 Q947.6094,135.875 948.25,136.0313 Q948.9063,136.1875 949.4688,136.4844 L949.4688,139.2031 Q948.8438,138.625 948.25,138.3594 Q947.6563,138.0781 947.0313,138.0781 Q945.6875,138.0781 945,139.1563 Q944.3125,140.2188 944.3125,142.3125 Q944.3125,144.4063 945,145.4844 Q945.6875,146.5469 947.0313,146.5469 Q947.6563,146.5469 948.25,146.2813 Q948.8438,146 949.4688,145.4219 L949.4688,148.1406 Z " fill="#000000"/><text fill="#000000" font-family="sans-serif" font-size="12" lengthAdjust="spacing" textLength="50" x="960.5" y="146.6543">Process</text><!--MD5=[bfa9fc2bd29dedac75ce8a7e54eaaf24]
class Evaluation_Process--><rect codeLine="159" fill="#FFFFFF" filter="url(#f4kdof11e1rok)" height="32" id="Evaluation_Process" style="stroke:#A80036;stroke-width:1.5;" width="153" x="745" y="246"/><ellipse cx="760" cy="262" fill="#ADD1B2" rx="11" ry="11" style="stroke:#A80036;stroke-width:1.0;"/><path d="M762.9688,267.6406 Q762.3906,267.9375 761.75,268.0781 Q761.1094,268.2344 760.4063,268.2344 Q757.9063,268.2344 756.5781,266.5938 Q755.2656,264.9375 755.2656,261.8125 Q755.2656,258.6875 756.5781,257.0313 Q757.9063,255.375 760.4063,255.375 Q761.1094,255.375 761.75,255.5313 Q762.4063,255.6875 762.9688,255.9844 L762.9688,258.7031 Q762.3438,258.125 761.75,257.8594 Q761.1563,257.5781 760.5313,257.5781 Q759.1875,257.5781 758.5,258.6563 Q757.8125,259.7188 757.8125,261.8125 Q757.8125,263.9063 758.5,264.9844 Q759.1875,266.0469 760.5313,266.0469 Q761.1563,266.0469 761.75,265.7813 Q762.3438,265.5 762.9688,264.9219 L762.9688,267.6406 Z " fill="#000000"/><text fill="#000000" font-family="sans-serif" font-size="12" lengthAdjust="spacing" textLength="121" x="774" y="266.1543">Evaluation_Process</text><!--MD5=[9d44916250b776386006c440668bcfbb]
class Agent--><rect codeLine="23" fill="#FFFFFF" filter="url(#f4kdof11e1rok)" height="32" id="Agent" style="stroke:#A80036;stroke-width:1.5;" width="69" x="682" y="7"/><ellipse cx="697" cy="23" fill="#ADD1B2" rx="11" ry="11" style="stroke:#A80036;stroke-width:1.0;"/><path d="M699.9688,28.6406 Q699.3906,28.9375 698.75,29.0781 Q698.1094,29.2344 697.4063,29.2344 Q694.9063,29.2344 693.5781,27.5938 Q692.2656,25.9375 692.2656,22.8125 Q692.2656,19.6875 693.5781,18.0313 Q694.9063,16.375 697.4063,16.375 Q698.1094,16.375 698.75,16.5313 Q699.4063,16.6875 699.9688,16.9844 L699.9688,19.7031 Q699.3438,19.125 698.75,18.8594 Q698.1563,18.5781 697.5313,18.5781 Q696.1875,18.5781 695.5,19.6563 Q694.8125,20.7188 694.8125,22.8125 Q694.8125,24.9063 695.5,25.9844 Q696.1875,27.0469 697.5313,27.0469 Q698.1563,27.0469 698.75,26.7813 Q699.3438,26.5 699.9688,25.9219 L699.9688,28.6406 Z " fill="#000000"/><text fill="#000000" font-family="sans-serif" font-size="12" lengthAdjust="spacing" textLength="37" x="711" y="27.1543">Agent</text><!--MD5=[59b530d44ae785dc18db921986a9c15c]
class Document--><rect codeLine="8" fill="#FFFFFF" filter="url(#f4kdof11e1rok)" height="78.4141" id="Document" style="stroke:#A80036;stroke-width:1.5;" width="148" x="528.5" y="485"/><ellipse cx="566.9" cy="501" fill="#ADD1B2" rx="11" ry="11" style="stroke:#A80036;stroke-width:1.0;"/><path d="M569.8688,506.6406 Q569.2906,506.9375 568.65,507.0781 Q568.0094,507.2344 567.3063,507.2344 Q564.8063,507.2344 563.4781,505.5938 Q562.1656,503.9375 562.1656,500.8125 Q562.1656,497.6875 563.4781,496.0313 Q564.8063,494.375 567.3063,494.375 Q568.0094,494.375 568.65,494.5313 Q569.3063,494.6875 569.8688,494.9844 L569.8688,497.7031 Q569.2438,497.125 568.65,496.8594 Q568.0563,496.5781 567.4313,496.5781 Q566.0875,496.5781 565.4,497.6563 Q564.7125,498.7188 564.7125,500.8125 Q564.7125,502.9063 565.4,503.9844 Q566.0875,505.0469 567.4313,505.0469 Q568.0563,505.0469 568.65,504.7813 Q569.2438,504.5 569.8688,503.9219 L569.8688,506.6406 Z " fill="#000000"/><text fill="#000000" font-family="sans-serif" font-size="12" lengthAdjust="spacing" textLength="64" x="586.1" y="505.1543">Document</text><line style="stroke:#A80036;stroke-width:1.5;" x1="529.5" x2="675.5" y1="517" y2="517"/><text fill="#000000" font-family="sans-serif" font-size="11" lengthAdjust="spacing" textLength="85" x="534.5" y="531.2104">DOI : DOI_Type</text><text fill="#000000" font-family="sans-serif" font-size="11" lengthAdjust="spacing" textLength="136" x="534.5" y="544.0151">title : Multilingual_String</text><text fill="#000000" font-family="sans-serif" font-size="11" lengthAdjust="spacing" textLength="125" x="534.5" y="556.8198">publicationDate : Date</text><!--MD5=[fe105c2ee1fabf2400c31a97ce9128bc]
class Textual_Document--><rect codeLine="13" fill="#FFFFFF" filter="url(#f4kdof11e1rok)" height="32" id="Textual_Document" style="stroke:#A80036;stroke-width:1.5;" width="147" x="529" y="624"/><ellipse cx="544" cy="640" fill="#ADD1B2" rx="11" ry="11" style="stroke:#A80036;stroke-width:1.0;"/><path d="M546.9688,645.6406 Q546.3906,645.9375 545.75,646.0781 Q545.1094,646.2344 544.4063,646.2344 Q541.9063,646.2344 540.5781,644.5938 Q539.2656,642.9375 539.2656,639.8125 Q539.2656,636.6875 540.5781,635.0313 Q541.9063,633.375 544.4063,633.375 Q545.1094,633.375 545.75,633.5313 Q546.4063,633.6875 546.9688,633.9844 L546.9688,636.7031 Q546.3438,636.125 545.75,635.8594 Q545.1563,635.5781 544.5313,635.5781 Q543.1875,635.5781 542.5,636.6563 Q541.8125,637.7188 541.8125,639.8125 Q541.8125,641.9063 542.5,642.9844 Q543.1875,644.0469 544.5313,644.0469 Q545.1563,644.0469 545.75,643.7813 Q546.3438,643.5 546.9688,642.9219 L546.9688,645.6406 Z " fill="#000000"/><text fill="#000000" font-family="sans-serif" font-size="12" lengthAdjust="spacing" textLength="115" x="558" y="644.1543">Textual_Document</text><!--MD5=[0c5226e8f688e58cc6150c041928918d]
reverse link Agent to Application--><path codeLine="164" d="M676.71,28.06 C650.31,33.05 617.49,44.19 600.5,69 C591.22,82.55 594.09,100.85 599.21,115.68 " fill="none" id="Agent-backto-Application" style="stroke:#A80036;stroke-width:1.0;"/><polygon fill="#A80036" points="681.9,27.14,672.3398,24.7729,676.9768,28.013,673.7367,32.65,681.9,27.14" style="stroke:#A80036;stroke-width:1.0;"/><polygon fill="#000000" points="608.8126,73.8212,600.6187,78.6492,605.0214,82.5434,608.8126,73.8212" style="stroke:#000000;stroke-width:1.0;"/><text fill="#000000" font-family="sans-serif" font-size="13" lengthAdjust="spacing" textLength="58" x="614.5" y="82.0669">applicant</text><text fill="#000000" font-family="sans-serif" font-size="13" lengthAdjust="spacing" textLength="24" x="649.8906" y="41.2189">0..1</text><!--MD5=[0c5226e8f688e58cc6150c041928918d]
reverse link Agent to Application--><path codeLine="168" d="M706.21,43.68 C699.06,56.43 688.81,73.02 677.5,86 C668.16,96.72 656.66,107.13 645.9,115.98 " fill="none" id="Agent-backto-Application-1" style="stroke:#A80036;stroke-width:1.0;"/><polygon fill="#A80036" points="708.71,39.17,700.8574,45.1145,706.2927,43.5468,707.8604,48.9821,708.71,39.17" style="stroke:#A80036;stroke-width:1.0;"/><polygon fill="#000000" points="697.7028,73.7269,689.6521,78.7901,694.1657,82.5552,697.7028,73.7269" style="stroke:#000000;stroke-width:1.0;"/><text fill="#000000" font-family="sans-serif" font-size="13" lengthAdjust="spacing" textLength="67" x="703.5" y="82.0669">addressee</text><text fill="#000000" font-family="sans-serif" font-size="13" lengthAdjust="spacing" textLength="24" x="678.1546" y="59.0996">0..1</text><!--MD5=[08c6a5fbc728deaee606fab1d8cae3e6]
reverse link Agent to Call_for_Applications--><path codeLine="172" d="M676.93,36.37 C607.41,58.09 463.65,103.02 388.55,126.48 " fill="none" id="Agent-backto-Call_for_Applications" style="stroke:#A80036;stroke-width:1.0;"/><polygon fill="#A80036" points="681.8,34.84,672.0187,33.6883,677.0248,36.3224,674.3906,41.3285,681.8,34.84" style="stroke:#A80036;stroke-width:1.0;"/><text fill="#000000" font-family="sans-serif" font-size="13" lengthAdjust="spacing" textLength="38" x="635.9128" y="32.5541">issuer</text><!--MD5=[63e19720e237d2f75011a962b2d04785]
link Application to Application--><path codeLine="176" d="M662.41,130.53 C681.38,130.13 697,134.12 697,142.5 C697,150.09 684.17,154.08 667.65,154.47 " fill="none" id="Application-to-Application" style="stroke:#A80036;stroke-width:1.0;"/><polygon fill="#A80036" points="662.41,154.47,671.41,158.47,667.41,154.47,671.41,150.47,662.41,154.47" style="stroke:#A80036;stroke-width:1.0;"/><polygon fill="#000000" points="701.8946,147.5653,705.0235,138.5842,699.147,138.4603,701.8946,147.5653" style="stroke:#000000;stroke-width:1.0;"/><text fill="#000000" font-family="sans-serif" font-size="13" lengthAdjust="spacing" textLength="38" x="716" y="147.0669">revise</text><!--MD5=[3b1d0eeb0b3d7e59f7719a8193058899]
link Application to Evaluation_Process--><path codeLine="180" d="M640.44,169.34 C658.29,184.35 682.16,202.84 705.5,216 C726.95,228.1 752.3,238.34 773.82,245.99 " fill="none" id="Application-Evaluation_Process" style="stroke:#A80036;stroke-width:1.0;"/><polygon fill="#000000" points="714.8351,210.0577,708.4571,203.0028,705.5285,208.099,714.8351,210.0577" style="stroke:#000000;stroke-width:1.0;"/><text fill="#000000" font-family="sans-serif" font-size="13" lengthAdjust="spacing" textLength="75" x="719.5" y="212.0669">assessed in</text><text fill="#000000" font-family="sans-serif" font-size="13" lengthAdjust="spacing" textLength="24" x="729.305" y="234.9982">0..1</text><!--MD5=[a59b92cc30ee8d24d8d720fed1533057]
link Call_for_Applications to Application--><path codeLine="184" d="M420.34,142.5 C465.78,142.5 521.32,142.5 560.8,142.5 " fill="none" id="Call_for_Applications-Application" style="stroke:#A80036;stroke-width:1.0;"/><polygon fill="#000000" points="437.5,131.0664,446.5451,134.0053,446.5451,128.1275,437.5,131.0664" style="stroke:#000000;stroke-width:1.0;"/><text fill="#000000" font-family="sans-serif" font-size="13" lengthAdjust="spacing" textLength="91" x="451.5" y="135.5669">in response to</text><text fill="#000000" font-family="sans-serif" font-size="13" lengthAdjust="spacing" textLength="24" x="427.9455" y="155.1935">0..1</text><text fill="#000000" font-family="sans-serif" font-size="13" lengthAdjust="spacing" textLength="23" x="529.8306" y="155.5489">0..*</text><!--MD5=[33d78e85ad541f0b21b2e8ffaf1167a1]
reverse link Application to Document--><path codeLine="188" d="M599.75,181.78 C590.25,214.83 577.64,264.06 572.5,308 C565.26,369.95 579.92,441.66 591.19,484.62 " fill="none" id="Application-backto-Document" style="stroke:#A80036;stroke-width:1.0;"/><polygon fill="#FFFFFF" points="603.47,169.09,597.9433,173.722,600.0933,180.6051,605.62,175.9731,603.47,169.09" style="stroke:#A80036;stroke-width:1.0;"/><polygon fill="#000000" points="577.3587,321.5644,580.552,312.606,574.6765,312.4399,577.3587,321.5644" style="stroke:#000000;stroke-width:1.0;"/><text fill="#000000" font-family="sans-serif" font-size="13" lengthAdjust="spacing" textLength="56" x="586.5" y="321.0669">contents</text><text fill="#000000" font-family="sans-serif" font-size="13" lengthAdjust="spacing" textLength="24" x="563.3293" y="473.8991">0..1</text><!--MD5=[84ee679edf117580f7008abf010245be]
link Application to Decision--><path codeLine="192" d="M617.82,169.31 C628.97,214.9 652.04,309.15 663.19,354.72 " fill="none" id="Application-Decision" style="stroke:#A80036;stroke-width:1.0;"/><polygon fill="#000000" points="647.3116,257.2097,646.6068,266.6941,652.3162,265.297,647.3116,257.2097" style="stroke:#000000;stroke-width:1.0;"/><text fill="#000000" font-family="sans-serif" font-size="13" lengthAdjust="spacing" textLength="16" x="657.5" y="266.5669">on</text><text fill="#000000" font-family="sans-serif" font-size="13" lengthAdjust="spacing" textLength="24" x="634.9558" y="343.8976">0..1</text><!--MD5=[59b5fb7ed218924b31886ecd43e557af]
reverse link Decision to Document--><path codeLine="196" d="M651.57,420.09 C642,440.16 630.25,464.8 620.65,484.94 " fill="none" id="Decision-backto-Document" style="stroke:#A80036;stroke-width:1.0;"/><polygon fill="#FFFFFF" points="657.21,408.27,651.0188,411.9671,652.0503,419.1041,658.2415,415.4069,657.21,408.27" style="stroke:#A80036;stroke-width:1.0;"/><polygon fill="#000000" points="644.3481,451.0797,650.8937,444.18,645.5881,441.6503,644.3481,451.0797" style="stroke:#000000;stroke-width:1.0;"/><text fill="#000000" font-family="sans-serif" font-size="13" lengthAdjust="spacing" textLength="81" x="655.5" y="451.0669">expressed in</text><text fill="#000000" font-family="sans-serif" font-size="13" lengthAdjust="spacing" textLength="24" x="597.707" y="473.9802">0..1</text><!--MD5=[dc4598ce2d2e32aede71f5bf98c1fc33]
reverse link Application to Funding_Application--><path codeLine="200" d="M557.39,180.9 C525.66,202.83 487.29,229.35 463.64,245.7 " fill="none" id="Application-backto-Funding_Application" style="stroke:#A80036;stroke-width:1.0;"/><polygon fill="none" points="553.76,174.9,574.19,169.29,561.72,186.42,553.76,174.9" style="stroke:#A80036;stroke-width:1.0;"/><!--MD5=[b1eb0b711d801decc36dfa97abc1eb1f]
link Call_for_Funding_Applications to Funding_Application--><path codeLine="204" d="M222.02,262 C268,262 320.7,262 362.93,262 " fill="none" id="Call_for_Funding_Applications-Funding_Application" style="stroke:#A80036;stroke-width:1.0;"/><polygon fill="#000000" points="239.5,250.5664,248.5451,253.5053,248.5451,247.6275,239.5,250.5664" style="stroke:#000000;stroke-width:1.0;"/><text fill="#000000" font-family="sans-serif" font-size="13" lengthAdjust="spacing" textLength="91" x="253.5" y="255.0669">in response to</text><text fill="#000000" font-family="sans-serif" font-size="13" lengthAdjust="spacing" textLength="24" x="230.0503" y="274.5753">0..1</text><text fill="#000000" font-family="sans-serif" font-size="13" lengthAdjust="spacing" textLength="23" x="331.9081" y="274.7408">0..*</text><!--MD5=[ce01e496d5f2dcc88ba1226d075cb019]
reverse link Call_for_Applications to Call_for_Funding_Applications--><path codeLine="208" d="M293.52,167.93 C248.31,191.43 181.38,226.23 143.47,245.94 " fill="none" id="Call_for_Applications-backto-Call_for_Funding_Applications" style="stroke:#A80036;stroke-width:1.0;"/><polygon fill="none" points="290.44,161.64,311.42,158.62,296.9,174.06,290.44,161.64" style="stroke:#A80036;stroke-width:1.0;"/><!--MD5=[41c9ac674b5f25103c5b00866d730ba3]
reverse link Agent to Evaluation_Process--><path codeLine="212" d="M750.88,41.89 C761.52,49 772.31,58.1 779.5,69 C817.16,126.11 821.59,211.54 821.74,245.89 " fill="none" id="Agent-backto-Evaluation_Process" style="stroke:#A80036;stroke-width:1.0;"/><polygon fill="#A80036" points="746.66,39.17,752.0478,47.4145,750.8594,41.8839,756.39,40.6955,746.66,39.17" style="stroke:#A80036;stroke-width:1.0;"/><polygon fill="#000000" points="817.8594,137.8432,818.0511,147.3519,823.6035,145.4232,817.8594,137.8432" style="stroke:#000000;stroke-width:1.0;"/><text fill="#000000" font-family="sans-serif" font-size="13" lengthAdjust="spacing" textLength="60" x="828.5" y="147.0669">organizer</text><text fill="#000000" font-family="sans-serif" font-size="13" lengthAdjust="spacing" textLength="23" x="729.8411" y="59.0996">0..*</text><!--MD5=[0b5e0cc6858c1049a2e1f4260a312e0d]
link Evaluation_Process to Agent--><path codeLine="228" d="M898.21,253.27 C1010.96,238.88 1201.04,201.35 1132.5,116 C1085.46,57.41 851.09,33.87 756.34,26.65 " fill="none" id="Evaluation_Process-to-Agent" style="stroke:#A80036;stroke-width:1.0;"/><polygon fill="#A80036" points="751.12,26.26,759.7847,30.9423,756.1051,26.6457,760.4017,22.9661,751.12,26.26" style="stroke:#A80036;stroke-width:1.0;"/><text fill="#000000" font-family="sans-serif" font-size="13" lengthAdjust="spacing" textLength="81" x="758.8668" y="22.8965">0..1 reviewer</text><!--MD5=[066001544e8a76011d04797f188c5564]
link Evaluation_Process to Decision--><path codeLine="216" d="M801.94,278.12 C777.92,296.69 736.67,328.57 706.58,351.84 " fill="none" id="Evaluation_Process-to-Decision" style="stroke:#A80036;stroke-width:1.0;"/><polygon fill="#A80036" points="702.6,354.92,712.1676,352.5831,706.5567,351.8632,707.2767,346.2523,702.6,354.92" style="stroke:#A80036;stroke-width:1.0;"/><polygon fill="#000000" points="759.5442,319.6245,768.4978,316.4175,764.9028,311.7672,759.5442,319.6245" style="stroke:#000000;stroke-width:1.0;"/><text fill="#000000" font-family="sans-serif" font-size="13" lengthAdjust="spacing" textLength="36" x="772.5" y="321.0669">make</text><text fill="#000000" font-family="sans-serif" font-size="13" lengthAdjust="spacing" textLength="24" x="683.4794" y="344.1438">0..1</text><!--MD5=[8156e968208737e8c454aecc4c900edc]
link Process to Process--><path codeLine="220" d="M1025.5499,130.7627 C1025.5499,130.7627 1048.5,135.7 1048.5,142.5 C1048.5,149.3 1039.36,153.21 1026.9,154.23 " fill="none" id="Process-Process" style="stroke:#A80036;stroke-width:1.0;"/><polygon fill="#A80036" points="1013.55,154.29,1022.5675,158.2504,1018.55,154.268,1022.5323,150.2505,1013.55,154.29" style="stroke:#A80036;stroke-width:1.0;"/><line style="stroke:#A80036;stroke-width:1.0;" x1="1018.55" x2="1026.55" y1="154.268" y2="154.23"/><polygon fill="#FFFFFF" points="1013.55,130.71,1019.5324,134.7363,1025.5499,130.7627,1019.5675,126.7364,1013.55,130.71" style="stroke:#A80036;stroke-width:1.0;"/><polygon fill="#000000" points="1055.7767,147.018,1054.2747,137.6268,1049.0416,140.3032,1055.7767,147.018" style="stroke:#000000;stroke-width:1.0;"/><text fill="#000000" font-family="sans-serif" font-size="13" lengthAdjust="spacing" textLength="58" x="1067.5" y="147.0669">substeps</text><text fill="#000000" font-family="sans-serif" font-size="13" lengthAdjust="spacing" textLength="23" x="1021.5967" y="152.024">0..*</text><!--MD5=[38d0ada77e49484a2b40cf506b09997b]
reverse link Process to Evaluation_Process--><path codeLine="224" d="M936.98,171.14 C906.95,194.51 865.06,227.11 840.86,245.94 " fill="none" id="Process-backto-Evaluation_Process" style="stroke:#A80036;stroke-width:1.0;"/><polygon fill="none" points="932.99,165.38,953.07,158.62,941.58,176.43,932.99,165.38" style="stroke:#A80036;stroke-width:1.0;"/><!--MD5=[67ceb885199ca7e1fa058287d8756a2e]
reverse link Document to Textual_Document--><path codeLine="355" d="M602.5,583.38 C602.5,598.35 602.5,613.19 602.5,623.77 " fill="none" id="Document-backto-Textual_Document" style="stroke:#A80036;stroke-width:1.0;"/><polygon fill="none" points="595.5,583.28,602.5,563.28,609.5,583.28,595.5,583.28" style="stroke:#A80036;stroke-width:1.0;"/><!--MD5=[663d5efb1115b4052c7c5c5e4fe03254]
@startuml
    !includesub core.puml!common
    !includesub core.puml!Application
    !includesub core.puml!Document
    !includesub core.puml!Agent
@enduml

@startuml
        hide empty members
        skinparam BoxPadding 120
        class "Application" #ffffff {
            date : Date
        }

        class "Decision" #ffffff {
            date : Date
        }

        class "Funding_Application" #ffffff {
        }

        class "Call_for_Applications" #ffffff {

        }

        class "Call_for_Funding_Applications" #ffffff {
        }

        class "Process" #ffffff {

        }

        class "Evaluation_Process" #ffffff {
        }
        "Application" -u-> "0..1" "Agent" : applicant >
        "Application" -u-> "0..1" "Agent" : addressee >
		"Call_for_Applications" -u-> "issuer" "Agent"
        "Application" - -> "Application" : revise >
        "Application" - - "0..1" "Evaluation_Process" : assessed in >
        "Application" "0..*" -l- "0..1" "Call_for_Applications" : in response to >
        "Application" o- - "0..1" "Document" : contents >
        "Application" -r- "0..1" "Decision" : on <
        "Decision" o- - "0..1" "Document" : expressed in >
        "Application" <|-d- "Funding_Application"
        "Funding_Application" "0..*" -l- "0..1" "Call_for_Funding_Applications" : in response to >
        "Call_for_Applications" <|-d- "Call_for_Funding_Applications"
        "Evaluation_Process" -u-> "0..*" "Agent" : organizer >
        "Evaluation_Process" -d-> "0..1" "Decision" : make >
        "Process" o- -> "0..*" "Process" : substeps >
        "Process" <|- - "Evaluation_Process"
        "Evaluation_Process" - -> "0..1 reviewer" "Agent"
        class "Document" #ffffff {
            DOI : DOI_Type
            title : Multilingual_String
            publicationDate : Date
        }
        class "Textual_Document" #ffffff {
        }
        "Document" <|- - "Textual_Document"
        class "Agent" #ffffff {
        }
@enduml

PlantUML version 1.2021.8(Sat Jun 26 08:20:59 UTC 2021)
(GPL source distribution)
Java Runtime: OpenJDK Runtime Environment
JVM: OpenJDK 64-Bit Server VM
Default Encoding: UTF-8
Language: en
Country: null
--></g></svg>