<?xml version="1.0" encoding="UTF-8" standalone="no"?><svg xmlns="http://www.w3.org/2000/svg" xmlns:xlink="http://www.w3.org/1999/xlink" contentScriptType="application/ecmascript" contentStyleType="text/css" height="371px" preserveAspectRatio="none" style="width:977px;height:371px;background:#FFFFFF;" version="1.1" viewBox="0 0 977 371" width="977px" zoomAndPan="magnify"><defs><filter height="300%" id="fekhskgzfy25s" width="300%" x="-1" y="-1"><feGaussianBlur result="blurOut" stdDeviation="2.0"/><feColorMatrix in="blurOut" result="blurOut2" type="matrix" values="0 0 0 0 0 0 0 0 0 0 0 0 0 0 0 0 0 0 .4 0"/><feOffset dx="4.0" dy="4.0" in="blurOut2" result="blurOut3"/><feBlend in="SourceGraphic" in2="blurOut3" mode="normal"/></filter></defs><g><!--MD5=[edcf71e28750a8856eb4372d573715ca]
class Call_for_Applications--><rect codeLine="474" fill="#FFFFFF" filter="url(#fekhskgzfy25s)" height="32" id="Call_for_Applications" style="stroke:#A80036;stroke-width:1.5;" width="159" x="35" y="172.5"/><ellipse cx="50" cy="188.5" fill="#ADD1B2" rx="11" ry="11" style="stroke:#A80036;stroke-width:1.0;"/><path d="M52.9688,194.1406 Q52.3906,194.4375 51.75,194.5781 Q51.1094,194.7344 50.4063,194.7344 Q47.9063,194.7344 46.5781,193.0938 Q45.2656,191.4375 45.2656,188.3125 Q45.2656,185.1875 46.5781,183.5313 Q47.9063,181.875 50.4063,181.875 Q51.1094,181.875 51.75,182.0313 Q52.4063,182.1875 52.9688,182.4844 L52.9688,185.2031 Q52.3438,184.625 51.75,184.3594 Q51.1563,184.0781 50.5313,184.0781 Q49.1875,184.0781 48.5,185.1563 Q47.8125,186.2188 47.8125,188.3125 Q47.8125,190.4063 48.5,191.4844 Q49.1875,192.5469 50.5313,192.5469 Q51.1563,192.5469 51.75,192.2813 Q52.3438,192 52.9688,191.4219 L52.9688,194.1406 Z " fill="#000000"/><text fill="#000000" font-family="sans-serif" font-size="12" lengthAdjust="spacing" textLength="127" x="64" y="192.6543">Call_for_Applications</text><!--MD5=[9d44916250b776386006c440668bcfbb]
class Agent--><rect codeLine="10" fill="#FFFFFF" filter="url(#fekhskgzfy25s)" height="78.4141" id="Agent" style="stroke:#A80036;stroke-width:1.5;" width="224" x="94.5" y="7"/><ellipse cx="183.75" cy="23" fill="#ADD1B2" rx="11" ry="11" style="stroke:#A80036;stroke-width:1.0;"/><path d="M186.7188,28.6406 Q186.1406,28.9375 185.5,29.0781 Q184.8594,29.2344 184.1563,29.2344 Q181.6563,29.2344 180.3281,27.5938 Q179.0156,25.9375 179.0156,22.8125 Q179.0156,19.6875 180.3281,18.0313 Q181.6563,16.375 184.1563,16.375 Q184.8594,16.375 185.5,16.5313 Q186.1563,16.6875 186.7188,16.9844 L186.7188,19.7031 Q186.0938,19.125 185.5,18.8594 Q184.9063,18.5781 184.2813,18.5781 Q182.9375,18.5781 182.25,19.6563 Q181.5625,20.7188 181.5625,22.8125 Q181.5625,24.9063 182.25,25.9844 Q182.9375,27.0469 184.2813,27.0469 Q184.9063,27.0469 185.5,26.7813 Q186.0938,26.5 186.7188,25.9219 L186.7188,28.6406 Z " fill="#000000"/><text fill="#000000" font-family="sans-serif" font-size="12" lengthAdjust="spacing" textLength="37" x="204.25" y="27.1543">Agent</text><line style="stroke:#A80036;stroke-width:1.5;" x1="95.5" x2="317.5" y1="39" y2="39"/><text fill="#000000" font-family="sans-serif" font-size="11" lengthAdjust="spacing" textLength="207" x="100.5" y="53.2104">keywords : List&lt;Multilingual_String&gt;</text><text fill="#000000" font-family="sans-serif" font-size="11" lengthAdjust="spacing" textLength="121" x="100.5" y="66.0151">lifetime : Date_Range</text><text fill="#000000" font-family="sans-serif" font-size="11" lengthAdjust="spacing" textLength="212" x="100.5" y="78.8198">contacts : List&lt;Contact_Information&gt;</text><!--MD5=[0b4e4b4980470ea387cc45de9bd14b5b]
class Application--><rect codeLine="453" fill="#FFFFFF" filter="url(#fekhskgzfy25s)" height="52.8047" id="Application" style="stroke:#A80036;stroke-width:1.5;" width="101" x="335" y="162"/><ellipse cx="350" cy="178" fill="#ADD1B2" rx="11" ry="11" style="stroke:#A80036;stroke-width:1.0;"/><path d="M352.9688,183.6406 Q352.3906,183.9375 351.75,184.0781 Q351.1094,184.2344 350.4063,184.2344 Q347.9063,184.2344 346.5781,182.5938 Q345.2656,180.9375 345.2656,177.8125 Q345.2656,174.6875 346.5781,173.0313 Q347.9063,171.375 350.4063,171.375 Q351.1094,171.375 351.75,171.5313 Q352.4063,171.6875 352.9688,171.9844 L352.9688,174.7031 Q352.3438,174.125 351.75,173.8594 Q351.1563,173.5781 350.5313,173.5781 Q349.1875,173.5781 348.5,174.6563 Q347.8125,175.7188 347.8125,177.8125 Q347.8125,179.9063 348.5,180.9844 Q349.1875,182.0469 350.5313,182.0469 Q351.1563,182.0469 351.75,181.7813 Q352.3438,181.5 352.9688,180.9219 L352.9688,183.6406 Z " fill="#000000"/><text fill="#000000" font-family="sans-serif" font-size="12" lengthAdjust="spacing" textLength="69" x="364" y="182.1543">Application</text><line style="stroke:#A80036;stroke-width:1.5;" x1="336" x2="435" y1="194" y2="194"/><text fill="#000000" font-family="sans-serif" font-size="11" lengthAdjust="spacing" textLength="63" x="341" y="208.2104">date : Date</text><!--MD5=[8a67874827a9dbf014cc34517ffca193]
class Resource_Offer--><rect codeLine="637" fill="#FFFFFF" filter="url(#fekhskgzfy25s)" height="32" id="Resource_Offer" style="stroke:#A80036;stroke-width:1.5;" width="127" x="719" y="30"/><ellipse cx="734" cy="46" fill="#ADD1B2" rx="11" ry="11" style="stroke:#A80036;stroke-width:1.0;"/><path d="M736.9688,51.6406 Q736.3906,51.9375 735.75,52.0781 Q735.1094,52.2344 734.4063,52.2344 Q731.9063,52.2344 730.5781,50.5938 Q729.2656,48.9375 729.2656,45.8125 Q729.2656,42.6875 730.5781,41.0313 Q731.9063,39.375 734.4063,39.375 Q735.1094,39.375 735.75,39.5313 Q736.4063,39.6875 736.9688,39.9844 L736.9688,42.7031 Q736.3438,42.125 735.75,41.8594 Q735.1563,41.5781 734.5313,41.5781 Q733.1875,41.5781 732.5,42.6563 Q731.8125,43.7188 731.8125,45.8125 Q731.8125,47.9063 732.5,48.9844 Q733.1875,50.0469 734.5313,50.0469 Q735.1563,50.0469 735.75,49.7813 Q736.3438,49.5 736.9688,48.9219 L736.9688,51.6406 Z " fill="#000000"/><text fill="#000000" font-family="sans-serif" font-size="12" lengthAdjust="spacing" textLength="95" x="748" y="50.1543">Resource_Offer</text><!--MD5=[59b530d44ae785dc18db921986a9c15c]
class Document--><rect codeLine="265" fill="#FFFFFF" filter="url(#fekhskgzfy25s)" height="65.6094" id="Document" style="stroke:#A80036;stroke-width:1.5;" width="148" x="452.5" y="292"/><ellipse cx="490.9" cy="308" fill="#ADD1B2" rx="11" ry="11" style="stroke:#A80036;stroke-width:1.0;"/><path d="M493.8688,313.6406 Q493.2906,313.9375 492.65,314.0781 Q492.0094,314.2344 491.3063,314.2344 Q488.8063,314.2344 487.4781,312.5938 Q486.1656,310.9375 486.1656,307.8125 Q486.1656,304.6875 487.4781,303.0313 Q488.8063,301.375 491.3063,301.375 Q492.0094,301.375 492.65,301.5313 Q493.3063,301.6875 493.8688,301.9844 L493.8688,304.7031 Q493.2438,304.125 492.65,303.8594 Q492.0563,303.5781 491.4313,303.5781 Q490.0875,303.5781 489.4,304.6563 Q488.7125,305.7188 488.7125,307.8125 Q488.7125,309.9063 489.4,310.9844 Q490.0875,312.0469 491.4313,312.0469 Q492.0563,312.0469 492.65,311.7813 Q493.2438,311.5 493.8688,310.9219 L493.8688,313.6406 Z " fill="#000000"/><text fill="#000000" font-family="sans-serif" font-size="12" lengthAdjust="spacing" textLength="64" x="510.1" y="312.1543">Document</text><line style="stroke:#A80036;stroke-width:1.5;" x1="453.5" x2="599.5" y1="324" y2="324"/><text fill="#000000" font-family="sans-serif" font-size="11" lengthAdjust="spacing" textLength="136" x="458.5" y="338.2104">title : Multilingual_String</text><text fill="#000000" font-family="sans-serif" font-size="11" lengthAdjust="spacing" textLength="125" x="458.5" y="351.0151">publicationDate : Date</text><!--MD5=[68c3952ebfab03c1a0449046a32d2ee2]
class Resource_Request--><rect codeLine="659" fill="#FFFFFF" filter="url(#fekhskgzfy25s)" height="32" id="Resource_Request" style="stroke:#A80036;stroke-width:1.5;" width="149" x="432" y="30"/><ellipse cx="447" cy="46" fill="#ADD1B2" rx="11" ry="11" style="stroke:#A80036;stroke-width:1.0;"/><path d="M449.9688,51.6406 Q449.3906,51.9375 448.75,52.0781 Q448.1094,52.2344 447.4063,52.2344 Q444.9063,52.2344 443.5781,50.5938 Q442.2656,48.9375 442.2656,45.8125 Q442.2656,42.6875 443.5781,41.0313 Q444.9063,39.375 447.4063,39.375 Q448.1094,39.375 448.75,39.5313 Q449.4063,39.6875 449.9688,39.9844 L449.9688,42.7031 Q449.3438,42.125 448.75,41.8594 Q448.1563,41.5781 447.5313,41.5781 Q446.1875,41.5781 445.5,42.6563 Q444.8125,43.7188 444.8125,45.8125 Q444.8125,47.9063 445.5,48.9844 Q446.1875,50.0469 447.5313,50.0469 Q448.1563,50.0469 448.75,49.7813 Q449.3438,49.5 449.9688,48.9219 L449.9688,51.6406 Z " fill="#000000"/><text fill="#000000" font-family="sans-serif" font-size="12" lengthAdjust="spacing" textLength="117" x="461" y="50.1543">Resource_Request</text><!--MD5=[6b13f1b330d33795af281e5c1dfe1e98]
class Resource--><rect codeLine="236" fill="#FFFFFF" filter="url(#fekhskgzfy25s)" height="32" id="Resource" style="stroke:#A80036;stroke-width:1.5;" width="91" x="634" y="172.5"/><ellipse cx="649" cy="188.5" fill="#ADD1B2" rx="11" ry="11" style="stroke:#A80036;stroke-width:1.0;"/><path d="M651.9688,194.1406 Q651.3906,194.4375 650.75,194.5781 Q650.1094,194.7344 649.4063,194.7344 Q646.9063,194.7344 645.5781,193.0938 Q644.2656,191.4375 644.2656,188.3125 Q644.2656,185.1875 645.5781,183.5313 Q646.9063,181.875 649.4063,181.875 Q650.1094,181.875 650.75,182.0313 Q651.4063,182.1875 651.9688,182.4844 L651.9688,185.2031 Q651.3438,184.625 650.75,184.3594 Q650.1563,184.0781 649.5313,184.0781 Q648.1875,184.0781 647.5,185.1563 Q646.8125,186.2188 646.8125,188.3125 Q646.8125,190.4063 647.5,191.4844 Q648.1875,192.5469 649.5313,192.5469 Q650.1563,192.5469 650.75,192.2813 Q651.3438,192 651.9688,191.4219 L651.9688,194.1406 Z " fill="#000000"/><text fill="#000000" font-family="sans-serif" font-size="12" lengthAdjust="spacing" textLength="59" x="663" y="192.6543">Resource</text><!--MD5=[a030fa97ffb865708cae79f6847e8968]
class Condition--><rect codeLine="650" fill="#FFFFFF" filter="url(#fekhskgzfy25s)" height="32" id="Condition" style="stroke:#A80036;stroke-width:1.5;" width="91" x="760" y="172.5"/><ellipse cx="775" cy="188.5" fill="#ADD1B2" rx="11" ry="11" style="stroke:#A80036;stroke-width:1.0;"/><path d="M777.9688,194.1406 Q777.3906,194.4375 776.75,194.5781 Q776.1094,194.7344 775.4063,194.7344 Q772.9063,194.7344 771.5781,193.0938 Q770.2656,191.4375 770.2656,188.3125 Q770.2656,185.1875 771.5781,183.5313 Q772.9063,181.875 775.4063,181.875 Q776.1094,181.875 776.75,182.0313 Q777.4063,182.1875 777.9688,182.4844 L777.9688,185.2031 Q777.3438,184.625 776.75,184.3594 Q776.1563,184.0781 775.5313,184.0781 Q774.1875,184.0781 773.5,185.1563 Q772.8125,186.2188 772.8125,188.3125 Q772.8125,190.4063 773.5,191.4844 Q774.1875,192.5469 775.5313,192.5469 Q776.1563,192.5469 776.75,192.2813 Q777.3438,192 777.9688,191.4219 L777.9688,194.1406 Z " fill="#000000"/><text fill="#000000" font-family="sans-serif" font-size="12" lengthAdjust="spacing" textLength="59" x="789" y="192.6543">Condition</text><!--MD5=[92dc6ef2f70a23983af4e570fc6275cd]
class Funding--><rect codeLine="241" fill="#FFFFFF" filter="url(#fekhskgzfy25s)" height="32" id="Funding" style="stroke:#A80036;stroke-width:1.5;" width="82" x="638.5" y="309"/><ellipse cx="653.5" cy="325" fill="#ADD1B2" rx="11" ry="11" style="stroke:#A80036;stroke-width:1.0;"/><path d="M656.4688,330.6406 Q655.8906,330.9375 655.25,331.0781 Q654.6094,331.2344 653.9063,331.2344 Q651.4063,331.2344 650.0781,329.5938 Q648.7656,327.9375 648.7656,324.8125 Q648.7656,321.6875 650.0781,320.0313 Q651.4063,318.375 653.9063,318.375 Q654.6094,318.375 655.25,318.5313 Q655.9063,318.6875 656.4688,318.9844 L656.4688,321.7031 Q655.8438,321.125 655.25,320.8594 Q654.6563,320.5781 654.0313,320.5781 Q652.6875,320.5781 652,321.6563 Q651.3125,322.7188 651.3125,324.8125 Q651.3125,326.9063 652,327.9844 Q652.6875,329.0469 654.0313,329.0469 Q654.6563,329.0469 655.25,328.7813 Q655.8438,328.5 656.4688,327.9219 L656.4688,330.6406 Z " fill="#000000"/><text fill="#000000" font-family="sans-serif" font-size="12" lengthAdjust="spacing" textLength="50" x="667.5" y="329.1543">Funding</text><!--MD5=[6ff7a5782d5ed311fa9cacd2967fdc4e]
class Funding_Application--><rect codeLine="465" fill="#FFFFFF" filter="url(#fekhskgzfy25s)" height="32" id="Funding_Application" style="stroke:#A80036;stroke-width:1.5;" width="157" x="260" y="309"/><ellipse cx="275" cy="325" fill="#ADD1B2" rx="11" ry="11" style="stroke:#A80036;stroke-width:1.0;"/><path d="M277.9688,330.6406 Q277.3906,330.9375 276.75,331.0781 Q276.1094,331.2344 275.4063,331.2344 Q272.9063,331.2344 271.5781,329.5938 Q270.2656,327.9375 270.2656,324.8125 Q270.2656,321.6875 271.5781,320.0313 Q272.9063,318.375 275.4063,318.375 Q276.1094,318.375 276.75,318.5313 Q277.4063,318.6875 277.9688,318.9844 L277.9688,321.7031 Q277.3438,321.125 276.75,320.8594 Q276.1563,320.5781 275.5313,320.5781 Q274.1875,320.5781 273.5,321.6563 Q272.8125,322.7188 272.8125,324.8125 Q272.8125,326.9063 273.5,327.9844 Q274.1875,329.0469 275.5313,329.0469 Q276.1563,329.0469 276.75,328.7813 Q277.3438,328.5 277.9688,327.9219 L277.9688,330.6406 Z " fill="#000000"/><text fill="#000000" font-family="sans-serif" font-size="12" lengthAdjust="spacing" textLength="125" x="289" y="329.1543">Funding_Application</text><!--MD5=[0db85a2d6db180b105db5ebe9e86b106]
class Call_for_Funding_Applications--><rect codeLine="479" fill="#FFFFFF" filter="url(#fekhskgzfy25s)" height="32" id="Call_for_Funding_Applications" style="stroke:#A80036;stroke-width:1.5;" width="215" x="7" y="309"/><ellipse cx="22" cy="325" fill="#ADD1B2" rx="11" ry="11" style="stroke:#A80036;stroke-width:1.0;"/><path d="M24.9688,330.6406 Q24.3906,330.9375 23.75,331.0781 Q23.1094,331.2344 22.4063,331.2344 Q19.9063,331.2344 18.5781,329.5938 Q17.2656,327.9375 17.2656,324.8125 Q17.2656,321.6875 18.5781,320.0313 Q19.9063,318.375 22.4063,318.375 Q23.1094,318.375 23.75,318.5313 Q24.4063,318.6875 24.9688,318.9844 L24.9688,321.7031 Q24.3438,321.125 23.75,320.8594 Q23.1563,320.5781 22.5313,320.5781 Q21.1875,320.5781 20.5,321.6563 Q19.8125,322.7188 19.8125,324.8125 Q19.8125,326.9063 20.5,327.9844 Q21.1875,329.0469 22.5313,329.0469 Q23.1563,329.0469 23.75,328.7813 Q24.3438,328.5 24.9688,327.9219 L24.9688,330.6406 Z " fill="#000000"/><text fill="#000000" font-family="sans-serif" font-size="12" lengthAdjust="spacing" textLength="183" x="36" y="329.1543">Call_for_Funding_Applications</text><!--MD5=[08c6a5fbc728deaee606fab1d8cae3e6]
reverse link Agent to Call_for_Applications--><path codeLine="517" d="M178.69,89.47 C160.27,117.6 137.21,152.82 124.34,172.47 " fill="none" id="Agent-backto-Call_for_Applications" style="stroke:#A80036;stroke-width:1.0;"/><polygon fill="#A80036" points="181.6,85.02,173.3343,90.3751,178.8695,89.2086,180.0361,94.7439,181.6,85.02" style="stroke:#A80036;stroke-width:1.0;"/><text fill="#000000" font-family="sans-serif" font-size="13" lengthAdjust="spacing" textLength="38" x="135.7803" y="105.3482">issuer</text><!--MD5=[a59b92cc30ee8d24d8d720fed1533057]
link Call_for_Applications to Application--><path codeLine="525" d="M194.34,188.5 C239.78,188.5 295.32,188.5 334.8,188.5 " fill="none" id="Call_for_Applications-Application" style="stroke:#A80036;stroke-width:1.0;"/><polygon fill="#000000" points="211.5,177.0664,220.5451,180.0053,220.5451,174.1275,211.5,177.0664" style="stroke:#000000;stroke-width:1.0;"/><text fill="#000000" font-family="sans-serif" font-size="13" lengthAdjust="spacing" textLength="91" x="225.5" y="181.5669">in response to</text><text fill="#000000" font-family="sans-serif" font-size="13" lengthAdjust="spacing" textLength="24" x="201.9455" y="201.1935">0..1</text><text fill="#000000" font-family="sans-serif" font-size="13" lengthAdjust="spacing" textLength="23" x="303.8306" y="201.5489">0..*</text><!--MD5=[555d991a4645b83cbfa238b562f91a92]
reverse link Resource_Offer to Call_for_Applications--><path codeLine="646" d="M727.48,69.31 C712.13,74.98 695.31,80.68 679.5,85 C509.27,131.46 304.34,162.68 194.08,177.51 " fill="none" id="Resource_Offer-backto-Call_for_Applications" style="stroke:#A80036;stroke-width:1.0;"/><polygon fill="none" points="725.12,62.72,746.3,62.11,730.11,75.79,725.12,62.72" style="stroke:#A80036;stroke-width:1.0;"/><!--MD5=[0c5226e8f688e58cc6150c041928918d]
reverse link Agent to Application--><path codeLine="509" d="M258.99,88.2 C289.37,112.05 326.66,141.32 352.86,161.88 " fill="none" id="Agent-backto-Application" style="stroke:#A80036;stroke-width:1.0;"/><polygon fill="#A80036" points="254.94,85.02,259.5623,93.7168,258.8775,88.1015,264.4928,87.4168,254.94,85.02" style="stroke:#A80036;stroke-width:1.0;"/><polygon fill="#000000" points="313.5669,120.4792,318.8674,128.3758,322.4965,123.7521,313.5669,120.4792" style="stroke:#000000;stroke-width:1.0;"/><text fill="#000000" font-family="sans-serif" font-size="13" lengthAdjust="spacing" textLength="58" x="326.5" y="128.0669">applicant</text><text fill="#000000" font-family="sans-serif" font-size="13" lengthAdjust="spacing" textLength="24" x="237.4309" y="105.3482">0..1</text><!--MD5=[0c5226e8f688e58cc6150c041928918d]
reverse link Agent to Application--><path codeLine="513" d="M196.72,90.49 C195.88,104.91 197.85,120.26 206.5,132 C235.74,171.68 293.06,183.83 334.99,187.14 " fill="none" id="Agent-backto-Application-1" style="stroke:#A80036;stroke-width:1.0;"/><polygon fill="#A80036" points="197.15,85.23,192.4411,93.8802,196.749,90.2139,200.4153,94.5218,197.15,85.23" style="stroke:#A80036;stroke-width:1.0;"/><polygon fill="#000000" points="207.4019,120.7019,213.1317,128.2927,216.4992,123.4751,207.4019,120.7019" style="stroke:#000000;stroke-width:1.0;"/><text fill="#000000" font-family="sans-serif" font-size="13" lengthAdjust="spacing" textLength="67" x="220.5" y="128.0669">addressee</text><text fill="#000000" font-family="sans-serif" font-size="13" lengthAdjust="spacing" textLength="24" x="197.622" y="105.5956">0..1</text><!--MD5=[33d78e85ad541f0b21b2e8ffaf1167a1]
reverse link Application to Document--><path codeLine="529" d="M392.45,228.25 C396.03,240.06 401.42,252.43 409.5,262 C421.07,275.7 436.46,286.8 452.25,295.62 " fill="none" id="Application-backto-Document" style="stroke:#A80036;stroke-width:1.0;"/><polygon fill="#FFFFFF" points="389.13,215.33,386.7517,222.1376,392.121,226.9513,394.4992,220.1437,389.13,215.33" style="stroke:#A80036;stroke-width:1.0;"/><polygon fill="#000000" points="417.8192,257.3058,414.0127,248.5902,409.6168,252.4922,417.8192,257.3058" style="stroke:#000000;stroke-width:1.0;"/><text fill="#000000" font-family="sans-serif" font-size="13" lengthAdjust="spacing" textLength="56" x="423.5" y="258.0669">contents</text><text fill="#000000" font-family="sans-serif" font-size="13" lengthAdjust="spacing" textLength="24" x="420.5684" y="289.4256">0..1</text><!--MD5=[34d3520aa241427fbea18906841a2be6]
reverse link Resource_Request to Application--><path codeLine="664" d="M480.45,77.25 C458.71,102.49 428.08,138.06 407.54,161.91 " fill="none" id="Resource_Request-backto-Application" style="stroke:#A80036;stroke-width:1.0;"/><polygon fill="none" points="475.2,72.62,493.55,62.04,485.8,81.76,475.2,72.62" style="stroke:#A80036;stroke-width:1.0;"/><!--MD5=[d43c569b2c93336ab3caeea3dfd29687]
link Resource_Offer to Resource--><path codeLine="642" d="M771.48,62.04 C752.76,87.57 714.76,139.4 693.94,167.8 " fill="none" id="Resource_Offer-to-Resource" style="stroke:#A80036;stroke-width:1.0;"/><polygon fill="#A80036" points="690.76,172.15,699.3101,167.2618,693.7187,168.1193,692.8611,162.5279,690.76,172.15" style="stroke:#A80036;stroke-width:1.0;"/><polygon fill="#000000" points="733.5436,127.5987,741.2619,122.0419,736.5216,118.5665,733.5436,127.5987" style="stroke:#000000;stroke-width:1.0;"/><text fill="#000000" font-family="sans-serif" font-size="13" lengthAdjust="spacing" textLength="12" x="745.5" y="128.0669">of</text><text fill="#000000" font-family="sans-serif" font-size="13" lengthAdjust="spacing" textLength="23" x="741.0203" y="81.9265">0..*</text><text fill="#000000" font-family="sans-serif" font-size="13" lengthAdjust="spacing" textLength="23" x="667.6805" y="161.3386">1..*</text><!--MD5=[70b48935e489e5910f3d4342ebe97e3f]
reverse link Resource_Offer to Condition--><path codeLine="655" d="M787.08,74.95 C791.85,104.14 799.17,148.83 802.99,172.15 " fill="none" id="Resource_Offer-backto-Condition" style="stroke:#A80036;stroke-width:1.0;"/><polygon fill="#FFFFFF" points="784.96,62.04,781.9818,68.6074,786.8986,73.8824,789.8767,67.315,784.96,62.04" style="stroke:#A80036;stroke-width:1.0;"/><polygon fill="#000000" points="801.3077,128.5007,802.7469,119.0997,796.9463,120.0492,801.3077,128.5007" style="stroke:#000000;stroke-width:1.0;"/><text fill="#000000" font-family="sans-serif" font-size="13" lengthAdjust="spacing" textLength="23" x="809.5" y="128.0669">has</text><text fill="#000000" font-family="sans-serif" font-size="13" lengthAdjust="spacing" textLength="23" x="775.3492" y="161.3386">0..*</text><!--MD5=[de101208c945d7bf9a03e03cc38155cf]
reverse link Resource_Offer to Document--><path codeLine="672" d="M810.79,70.81 C847.57,104.67 903.23,167.86 868.5,215 C800.05,307.92 730.25,256.29 620.5,292 C614.02,294.11 607.31,296.33 600.58,298.57 " fill="none" id="Resource_Offer-backto-Document" style="stroke:#A80036;stroke-width:1.0;"/><polygon fill="#FFFFFF" points="801,62.07,802.8079,69.0508,809.947,70.0669,808.1392,63.0861,801,62.07" style="stroke:#A80036;stroke-width:1.0;"/><polygon fill="#000000" points="880.1089,192.2407,888.4032,187.5871,884.0838,183.6006,880.1089,192.2407" style="stroke:#000000;stroke-width:1.0;"/><text fill="#000000" font-family="sans-serif" font-size="13" lengthAdjust="spacing" textLength="77" x="892.5" y="193.0669">described in</text><text fill="#000000" font-family="sans-serif" font-size="13" lengthAdjust="spacing" textLength="24" x="779.1531" y="81.9665">0..1</text><text fill="#000000" font-family="sans-serif" font-size="13" lengthAdjust="spacing" textLength="23" x="608.4694" y="292.5331">0..*</text><!--MD5=[fc92b3bd86963d223135ad44997ca08d]
reverse link Resource_Request to Document--><path codeLine="668" d="M508.54,75.27 C512.28,127.12 520.22,237.07 524.17,291.74 " fill="none" id="Resource_Request-backto-Document" style="stroke:#A80036;stroke-width:1.0;"/><polygon fill="#FFFFFF" points="507.6,62.29,504.0386,68.5603,508.4568,74.2594,512.0182,67.9891,507.6,62.29" style="stroke:#A80036;stroke-width:1.0;"/><polygon fill="#000000" points="523.8601,193.5534,526.14,184.3202,520.2774,184.7435,523.8601,193.5534" style="stroke:#000000;stroke-width:1.0;"/><text fill="#000000" font-family="sans-serif" font-size="13" lengthAdjust="spacing" textLength="77" x="532.5" y="193.0669">described in</text><text fill="#000000" font-family="sans-serif" font-size="13" lengthAdjust="spacing" textLength="24" x="480.1256" y="81.9611">0..1</text><text fill="#000000" font-family="sans-serif" font-size="13" lengthAdjust="spacing" textLength="23" x="498.4472" y="280.8338">0..*</text><!--MD5=[633efb3059d8abd5e23b324815a30d32]
link Resource_Request to Resource_Request--><path codeLine="676" d="M581.22,31.88 C601.01,32.68 616,37.39 616,46 C616,53.8 603.69,58.4 586.65,59.79 " fill="none" id="Resource_Request-to-Resource_Request" style="stroke:#A80036;stroke-width:1.0;"/><polygon fill="#A80036" points="581.22,60.12,590.4434,63.5738,586.211,59.8205,589.9643,55.5882,581.22,60.12" style="stroke:#A80036;stroke-width:1.0;"/><polygon fill="#000000" points="621.202,51.0623,623.7731,41.9059,617.9001,42.1433,621.202,51.0623" style="stroke:#000000;stroke-width:1.0;"/><text fill="#000000" font-family="sans-serif" font-size="13" lengthAdjust="spacing" textLength="38" x="635" y="50.5669">revise</text><text fill="#000000" font-family="sans-serif" font-size="13" lengthAdjust="spacing" textLength="23" x="588.899" y="27.0273">0..*</text><text fill="#000000" font-family="sans-serif" font-size="13" lengthAdjust="spacing" textLength="24" x="588.9435" y="57.7824">0..1</text><!--MD5=[0db8103b3d861b3f1c0ae604b4b70acc]
link Resource_Request to Resource--><path codeLine="680" d="M525.01,62.04 C556.93,87.95 622.19,140.96 656.79,169.06 " fill="none" id="Resource_Request-to-Resource" style="stroke:#A80036;stroke-width:1.0;"/><polygon fill="#A80036" points="660.86,172.36,656.3973,163.5802,656.9794,169.207,651.3526,169.7891,660.86,172.36" style="stroke:#A80036;stroke-width:1.0;"/><polygon fill="#000000" points="617.3813,126.7185,612.2127,118.735,608.5072,123.2977,617.3813,126.7185" style="stroke:#000000;stroke-width:1.0;"/><text fill="#000000" font-family="sans-serif" font-size="13" lengthAdjust="spacing" textLength="12" x="622.5" y="128.0669">of</text><text fill="#000000" font-family="sans-serif" font-size="13" lengthAdjust="spacing" textLength="23" x="534.9508" y="81.9265">0..*</text><text fill="#000000" font-family="sans-serif" font-size="13" lengthAdjust="spacing" textLength="23" x="627.4994" y="161.3235">1..*</text><!--MD5=[a21829bf9e22d7ad2257d12c520c50b2]
reverse link Resource to Funding--><path codeLine="246" d="M679.5,224.86 C679.5,252.1 679.5,288.42 679.5,308.68 " fill="none" id="Resource-backto-Funding" style="stroke:#A80036;stroke-width:1.0;"/><polygon fill="none" points="672.5,224.67,679.5,204.67,686.5,224.67,672.5,224.67" style="stroke:#A80036;stroke-width:1.0;"/><!--MD5=[7072accdc040e53c8442e4ca7ea58660]
link Funding to Funding--><path codeLine="305" d="M720.55,312.11 C739.25,310.79 755.5,315.09 755.5,325 C755.5,334.91 739.25,339.21 720.55,337.89 " fill="none" id="Funding-Funding" style="stroke:#A80036;stroke-width:1.0;"/><polygon fill="#000000" points="760.1479,330.054,763.7165,321.2383,757.8532,320.8244,760.1479,330.054" style="stroke:#000000;stroke-width:1.0;"/><text fill="#000000" font-family="sans-serif" font-size="13" lengthAdjust="spacing" textLength="56" x="774.5" y="329.5669">is part of</text><text fill="#000000" font-family="sans-serif" font-size="13" lengthAdjust="spacing" textLength="23" x="728.5967" y="306.0648">0..*</text><text fill="#000000" font-family="sans-serif" font-size="13" lengthAdjust="spacing" textLength="23" x="728.5967" y="335.7924">0..*</text><!--MD5=[dc4598ce2d2e32aede71f5bf98c1fc33]
reverse link Application to Funding_Application--><path codeLine="470" d="M365.81,233.68 C364.29,237.49 362.83,241.3 361.5,245 C353.61,266.91 346.44,292.94 342.28,308.97 " fill="none" id="Application-backto-Funding_Application" style="stroke:#A80036;stroke-width:1.0;"/><polygon fill="none" points="359.38,230.92,373.59,215.21,372.28,236.36,359.38,230.92" style="stroke:#A80036;stroke-width:1.0;"/><!--MD5=[ce01e496d5f2dcc88ba1226d075cb019]
reverse link Call_for_Applications to Call_for_Funding_Applications--><path codeLine="541" d="M114.5,224.86 C114.5,252.1 114.5,288.42 114.5,308.68 " fill="none" id="Call_for_Applications-backto-Call_for_Funding_Applications" style="stroke:#A80036;stroke-width:1.0;"/><polygon fill="none" points="107.5,224.67,114.5,204.67,121.5,224.67,107.5,224.67" style="stroke:#A80036;stroke-width:1.0;"/><!--MD5=[aecb77306081103c81f6e1e92d5b65be]
@startuml

    !includesub core.puml!common
    !includesub core.puml!Call_for_Applications
    !includesub core.puml!Application
    !includesub core.puml!Resource
    !includesub core.puml!Document
    !includesub core.puml!Agent
    !includesub core.puml!Resource_Offer
    !includesub core.puml!Resource_Request
    !includesub core.puml!Condition
    !includesub core.puml!Funding
    !includesub core.puml!Funding_Application
    !includesub core.puml!Call_for_Funding_Applications

@enduml

@startuml

    hide empty members
    skinparam BoxPadding 120
    class "Call_for_Applications" #ffffff {
    }
	"Call_for_Applications" -u-> "issuer" "Agent"
    "Application" "0..*" -l- "0..1" "Call_for_Applications" : in response to >
	"Resource_Offer" <|- - "Call_for_Applications"
    class "Application" #ffffff {
        date : Date
    }
    "Application" -u-> "0..1" "Agent" : applicant >
    "Application" -u-> "0..1" "Agent" : addressee >
    "Application" o- - "0..1" "Document" : contents >
	"Resource_Request" <|- - "Application"
    class "Resource" #ffffff {
    }
    class "Document" #ffffff {
        title : Multilingual_String
        publicationDate : Date
    }
    class "Agent" #ffffff {
        keywords : List<Multilingual_String>
    	lifetime : Date_Range
    	contacts : List<Contact_Information>
    }
	class "Resource_Offer" #ffffff {
	}
	"Resource_Offer" "0..*" - -> "1..*" "Resource" : of >
	"Resource_Offer" o- - "0..*" "Condition" : has >
	"Resource_Offer" "0..1" o- - "0..*" "Document" : described in >
	class "Resource_Request" #ffffff {
	}
	"Resource_Request" "0..1" o- - "0..*" "Document" : described in >
	"Resource_Request" "0..*" - -> "0..1" "Resource_Request" : revise >
	"Resource_Request" "0..*" - -> "1..*" "Resource" : of >
	class "Condition" #ffffff {
	}
    class "Funding" #ffffff {
    }
     "Resource" <|- - "Funding"
     "Funding" "0..*" - - "0..*" "Funding" : is part of >
    class "Funding_Application" #ffffff {
    }
    "Application" <|- - "Funding_Application"
    class "Call_for_Funding_Applications" #ffffff {
    }
    "Call_for_Applications" <|- - "Call_for_Funding_Applications"

@enduml

PlantUML version 1.2021.8(Sat Jun 26 08:20:59 UTC 2021)
(GPL source distribution)
Java Runtime: OpenJDK Runtime Environment
JVM: OpenJDK 64-Bit Server VM
Default Encoding: UTF-8
Language: en
Country: null
--></g></svg>