<?xml version="1.0" encoding="UTF-8" standalone="no"?><svg xmlns="http://www.w3.org/2000/svg" xmlns:xlink="http://www.w3.org/1999/xlink" contentScriptType="application/ecmascript" contentStyleType="text/css" height="670px" preserveAspectRatio="none" style="width:1051px;height:670px;background:#FFFFFF;" version="1.1" viewBox="0 0 1051 670" width="1051px" zoomAndPan="magnify"><defs><filter height="300%" id="f1k2th649v9ie2" width="300%" x="-1" y="-1"><feGaussianBlur result="blurOut" stdDeviation="2.0"/><feColorMatrix in="blurOut" result="blurOut2" type="matrix" values="0 0 0 0 0 0 0 0 0 0 0 0 0 0 0 0 0 0 .4 0"/><feOffset dx="4.0" dy="4.0" in="blurOut2" result="blurOut3"/><feBlend in="SourceGraphic" in2="blurOut3" mode="normal"/></filter></defs><g><!--MD5=[0b4e4b4980470ea387cc45de9bd14b5b]
class Application--><rect codeLine="137" fill="#FFFFFF" filter="url(#f1k2th649v9ie2)" height="52.8047" id="Application" style="stroke:#A80036;stroke-width:1.5;" width="101" x="388" y="116"/><ellipse cx="403" cy="132" fill="#ADD1B2" rx="11" ry="11" style="stroke:#A80036;stroke-width:1.0;"/><path d="M405.9688,137.6406 Q405.3906,137.9375 404.75,138.0781 Q404.1094,138.2344 403.4063,138.2344 Q400.9063,138.2344 399.5781,136.5938 Q398.2656,134.9375 398.2656,131.8125 Q398.2656,128.6875 399.5781,127.0313 Q400.9063,125.375 403.4063,125.375 Q404.1094,125.375 404.75,125.5313 Q405.4063,125.6875 405.9688,125.9844 L405.9688,128.7031 Q405.3438,128.125 404.75,127.8594 Q404.1563,127.5781 403.5313,127.5781 Q402.1875,127.5781 401.5,128.6563 Q400.8125,129.7188 400.8125,131.8125 Q400.8125,133.9063 401.5,134.9844 Q402.1875,136.0469 403.5313,136.0469 Q404.1563,136.0469 404.75,135.7813 Q405.3438,135.5 405.9688,134.9219 L405.9688,137.6406 Z " fill="#000000"/><text fill="#000000" font-family="sans-serif" font-size="12" lengthAdjust="spacing" textLength="69" x="417" y="136.1543">Application</text><line style="stroke:#A80036;stroke-width:1.5;" x1="389" x2="488" y1="148" y2="148"/><text fill="#000000" font-family="sans-serif" font-size="11" lengthAdjust="spacing" textLength="63" x="394" y="162.2104">date : Date</text><!--MD5=[3db53164d4ddbdea4156eda8a776d7e7]
class Decision--><rect codeLine="141" fill="#FFFFFF" filter="url(#f1k2th649v9ie2)" height="52.8047" id="Decision" style="stroke:#A80036;stroke-width:1.5;" width="85" x="556" y="355"/><ellipse cx="571" cy="371" fill="#ADD1B2" rx="11" ry="11" style="stroke:#A80036;stroke-width:1.0;"/><path d="M573.9688,376.6406 Q573.3906,376.9375 572.75,377.0781 Q572.1094,377.2344 571.4063,377.2344 Q568.9063,377.2344 567.5781,375.5938 Q566.2656,373.9375 566.2656,370.8125 Q566.2656,367.6875 567.5781,366.0313 Q568.9063,364.375 571.4063,364.375 Q572.1094,364.375 572.75,364.5313 Q573.4063,364.6875 573.9688,364.9844 L573.9688,367.7031 Q573.3438,367.125 572.75,366.8594 Q572.1563,366.5781 571.5313,366.5781 Q570.1875,366.5781 569.5,367.6563 Q568.8125,368.7188 568.8125,370.8125 Q568.8125,372.9063 569.5,373.9844 Q570.1875,375.0469 571.5313,375.0469 Q572.1563,375.0469 572.75,374.7813 Q573.3438,374.5 573.9688,373.9219 L573.9688,376.6406 Z " fill="#000000"/><text fill="#000000" font-family="sans-serif" font-size="12" lengthAdjust="spacing" textLength="53" x="585" y="375.1543">Decision</text><line style="stroke:#A80036;stroke-width:1.5;" x1="557" x2="640" y1="387" y2="387"/><text fill="#000000" font-family="sans-serif" font-size="11" lengthAdjust="spacing" textLength="63" x="562" y="401.2104">date : Date</text><!--MD5=[6ff7a5782d5ed311fa9cacd2967fdc4e]
class Funding_Application--><rect codeLine="145" fill="#FFFFFF" filter="url(#f1k2th649v9ie2)" height="32" id="Funding_Application" style="stroke:#A80036;stroke-width:1.5;" width="157" x="329" y="246"/><ellipse cx="344" cy="262" fill="#ADD1B2" rx="11" ry="11" style="stroke:#A80036;stroke-width:1.0;"/><path d="M346.9688,267.6406 Q346.3906,267.9375 345.75,268.0781 Q345.1094,268.2344 344.4063,268.2344 Q341.9063,268.2344 340.5781,266.5938 Q339.2656,264.9375 339.2656,261.8125 Q339.2656,258.6875 340.5781,257.0313 Q341.9063,255.375 344.4063,255.375 Q345.1094,255.375 345.75,255.5313 Q346.4063,255.6875 346.9688,255.9844 L346.9688,258.7031 Q346.3438,258.125 345.75,257.8594 Q345.1563,257.5781 344.5313,257.5781 Q343.1875,257.5781 342.5,258.6563 Q341.8125,259.7188 341.8125,261.8125 Q341.8125,263.9063 342.5,264.9844 Q343.1875,266.0469 344.5313,266.0469 Q345.1563,266.0469 345.75,265.7813 Q346.3438,265.5 346.9688,264.9219 L346.9688,267.6406 Z " fill="#000000"/><text fill="#000000" font-family="sans-serif" font-size="12" lengthAdjust="spacing" textLength="125" x="358" y="266.1543">Funding_Application</text><!--MD5=[edcf71e28750a8856eb4372d573715ca]
class Call_for_Applications--><rect codeLine="148" fill="#FFFFFF" filter="url(#f1k2th649v9ie2)" height="32" id="Call_for_Applications" style="stroke:#A80036;stroke-width:1.5;" width="159" x="88" y="126.5"/><ellipse cx="103" cy="142.5" fill="#ADD1B2" rx="11" ry="11" style="stroke:#A80036;stroke-width:1.0;"/><path d="M105.9688,148.1406 Q105.3906,148.4375 104.75,148.5781 Q104.1094,148.7344 103.4063,148.7344 Q100.9063,148.7344 99.5781,147.0938 Q98.2656,145.4375 98.2656,142.3125 Q98.2656,139.1875 99.5781,137.5313 Q100.9063,135.875 103.4063,135.875 Q104.1094,135.875 104.75,136.0313 Q105.4063,136.1875 105.9688,136.4844 L105.9688,139.2031 Q105.3438,138.625 104.75,138.3594 Q104.1563,138.0781 103.5313,138.0781 Q102.1875,138.0781 101.5,139.1563 Q100.8125,140.2188 100.8125,142.3125 Q100.8125,144.4063 101.5,145.4844 Q102.1875,146.5469 103.5313,146.5469 Q104.1563,146.5469 104.75,146.2813 Q105.3438,146 105.9688,145.4219 L105.9688,148.1406 Z " fill="#000000"/><text fill="#000000" font-family="sans-serif" font-size="12" lengthAdjust="spacing" textLength="127" x="117" y="146.6543">Call_for_Applications</text><!--MD5=[0db85a2d6db180b105db5ebe9e86b106]
class Call_for_Funding_Applications--><rect codeLine="152" fill="#FFFFFF" filter="url(#f1k2th649v9ie2)" height="32" id="Call_for_Funding_Applications" style="stroke:#A80036;stroke-width:1.5;" width="215" x="7" y="246"/><ellipse cx="22" cy="262" fill="#ADD1B2" rx="11" ry="11" style="stroke:#A80036;stroke-width:1.0;"/><path d="M24.9688,267.6406 Q24.3906,267.9375 23.75,268.0781 Q23.1094,268.2344 22.4063,268.2344 Q19.9063,268.2344 18.5781,266.5938 Q17.2656,264.9375 17.2656,261.8125 Q17.2656,258.6875 18.5781,257.0313 Q19.9063,255.375 22.4063,255.375 Q23.1094,255.375 23.75,255.5313 Q24.4063,255.6875 24.9688,255.9844 L24.9688,258.7031 Q24.3438,258.125 23.75,257.8594 Q23.1563,257.5781 22.5313,257.5781 Q21.1875,257.5781 20.5,258.6563 Q19.8125,259.7188 19.8125,261.8125 Q19.8125,263.9063 20.5,264.9844 Q21.1875,266.0469 22.5313,266.0469 Q23.1563,266.0469 23.75,265.7813 Q24.3438,265.5 24.9688,264.9219 L24.9688,267.6406 Z " fill="#000000"/><text fill="#000000" font-family="sans-serif" font-size="12" lengthAdjust="spacing" textLength="183" x="36" y="266.1543">Call_for_Funding_Applications</text><!--MD5=[9594a964e81a3afac8558803807187f8]
class Evaluation_Outcome--><rect codeLine="155" fill="#FFFFFF" filter="url(#f1k2th649v9ie2)" height="32" id="Evaluation_Outcome" style="stroke:#A80036;stroke-width:1.5;" width="159" x="694" y="246"/><ellipse cx="709" cy="262" fill="#ADD1B2" rx="11" ry="11" style="stroke:#A80036;stroke-width:1.0;"/><path d="M711.9688,267.6406 Q711.3906,267.9375 710.75,268.0781 Q710.1094,268.2344 709.4063,268.2344 Q706.9063,268.2344 705.5781,266.5938 Q704.2656,264.9375 704.2656,261.8125 Q704.2656,258.6875 705.5781,257.0313 Q706.9063,255.375 709.4063,255.375 Q710.1094,255.375 710.75,255.5313 Q711.4063,255.6875 711.9688,255.9844 L711.9688,258.7031 Q711.3438,258.125 710.75,257.8594 Q710.1563,257.5781 709.5313,257.5781 Q708.1875,257.5781 707.5,258.6563 Q706.8125,259.7188 706.8125,261.8125 Q706.8125,263.9063 707.5,264.9844 Q708.1875,266.0469 709.5313,266.0469 Q710.1563,266.0469 710.75,265.7813 Q711.3438,265.5 711.9688,264.9219 L711.9688,267.6406 Z " fill="#000000"/><text fill="#000000" font-family="sans-serif" font-size="12" lengthAdjust="spacing" textLength="127" x="723" y="266.1543">Evaluation_Outcome</text><!--MD5=[606c1cb7e986978674cb5de413d16996]
class Contribution_to_Evaluation_Outcome--><rect codeLine="158" fill="#FFFFFF" filter="url(#f1k2th649v9ie2)" height="32" id="Contribution_to_Evaluation_Outcome" style="stroke:#A80036;stroke-width:1.5;" width="261" x="775" y="126.5"/><ellipse cx="790" cy="142.5" fill="#ADD1B2" rx="11" ry="11" style="stroke:#A80036;stroke-width:1.0;"/><path d="M792.9688,148.1406 Q792.3906,148.4375 791.75,148.5781 Q791.1094,148.7344 790.4063,148.7344 Q787.9063,148.7344 786.5781,147.0938 Q785.2656,145.4375 785.2656,142.3125 Q785.2656,139.1875 786.5781,137.5313 Q787.9063,135.875 790.4063,135.875 Q791.1094,135.875 791.75,136.0313 Q792.4063,136.1875 792.9688,136.4844 L792.9688,139.2031 Q792.3438,138.625 791.75,138.3594 Q791.1563,138.0781 790.5313,138.0781 Q789.1875,138.0781 788.5,139.1563 Q787.8125,140.2188 787.8125,142.3125 Q787.8125,144.4063 788.5,145.4844 Q789.1875,146.5469 790.5313,146.5469 Q791.1563,146.5469 791.75,146.2813 Q792.3438,146 792.9688,145.4219 L792.9688,148.1406 Z " fill="#000000"/><text fill="#000000" font-family="sans-serif" font-size="12" lengthAdjust="spacing" textLength="229" x="804" y="146.6543">Contribution_to_Evaluation_Outcome</text><!--MD5=[cc29680ec5374df398fbf6ef035a8911]
class Application_Review--><rect codeLine="161" fill="#FFFFFF" filter="url(#f1k2th649v9ie2)" height="32" id="Application_Review" style="stroke:#A80036;stroke-width:1.5;" width="149" x="888" y="246"/><ellipse cx="903" cy="262" fill="#ADD1B2" rx="11" ry="11" style="stroke:#A80036;stroke-width:1.0;"/><path d="M905.9688,267.6406 Q905.3906,267.9375 904.75,268.0781 Q904.1094,268.2344 903.4063,268.2344 Q900.9063,268.2344 899.5781,266.5938 Q898.2656,264.9375 898.2656,261.8125 Q898.2656,258.6875 899.5781,257.0313 Q900.9063,255.375 903.4063,255.375 Q904.1094,255.375 904.75,255.5313 Q905.4063,255.6875 905.9688,255.9844 L905.9688,258.7031 Q905.3438,258.125 904.75,257.8594 Q904.1563,257.5781 903.5313,257.5781 Q902.1875,257.5781 901.5,258.6563 Q900.8125,259.7188 900.8125,261.8125 Q900.8125,263.9063 901.5,264.9844 Q902.1875,266.0469 903.5313,266.0469 Q904.1563,266.0469 904.75,265.7813 Q905.3438,265.5 905.9688,264.9219 L905.9688,267.6406 Z " fill="#000000"/><text fill="#000000" font-family="sans-serif" font-size="12" lengthAdjust="spacing" textLength="117" x="917" y="266.1543">Application_Review</text><!--MD5=[9d44916250b776386006c440668bcfbb]
class Agent--><rect codeLine="23" fill="#FFFFFF" filter="url(#f1k2th649v9ie2)" height="32" id="Agent" style="stroke:#A80036;stroke-width:1.5;" width="69" x="405" y="7"/><ellipse cx="420" cy="23" fill="#ADD1B2" rx="11" ry="11" style="stroke:#A80036;stroke-width:1.0;"/><path d="M422.9688,28.6406 Q422.3906,28.9375 421.75,29.0781 Q421.1094,29.2344 420.4063,29.2344 Q417.9063,29.2344 416.5781,27.5938 Q415.2656,25.9375 415.2656,22.8125 Q415.2656,19.6875 416.5781,18.0313 Q417.9063,16.375 420.4063,16.375 Q421.1094,16.375 421.75,16.5313 Q422.4063,16.6875 422.9688,16.9844 L422.9688,19.7031 Q422.3438,19.125 421.75,18.8594 Q421.1563,18.5781 420.5313,18.5781 Q419.1875,18.5781 418.5,19.6563 Q417.8125,20.7188 417.8125,22.8125 Q417.8125,24.9063 418.5,25.9844 Q419.1875,27.0469 420.5313,27.0469 Q421.1563,27.0469 421.75,26.7813 Q422.3438,26.5 422.9688,25.9219 L422.9688,28.6406 Z " fill="#000000"/><text fill="#000000" font-family="sans-serif" font-size="12" lengthAdjust="spacing" textLength="37" x="434" y="27.1543">Agent</text><!--MD5=[59b530d44ae785dc18db921986a9c15c]
class Document--><rect codeLine="8" fill="#FFFFFF" filter="url(#f1k2th649v9ie2)" height="78.4141" id="Document" style="stroke:#A80036;stroke-width:1.5;" width="148" x="230.5" y="485"/><ellipse cx="268.9" cy="501" fill="#ADD1B2" rx="11" ry="11" style="stroke:#A80036;stroke-width:1.0;"/><path d="M271.8688,506.6406 Q271.2906,506.9375 270.65,507.0781 Q270.0094,507.2344 269.3063,507.2344 Q266.8063,507.2344 265.4781,505.5938 Q264.1656,503.9375 264.1656,500.8125 Q264.1656,497.6875 265.4781,496.0313 Q266.8063,494.375 269.3063,494.375 Q270.0094,494.375 270.65,494.5313 Q271.3063,494.6875 271.8688,494.9844 L271.8688,497.7031 Q271.2438,497.125 270.65,496.8594 Q270.0563,496.5781 269.4313,496.5781 Q268.0875,496.5781 267.4,497.6563 Q266.7125,498.7188 266.7125,500.8125 Q266.7125,502.9063 267.4,503.9844 Q268.0875,505.0469 269.4313,505.0469 Q270.0563,505.0469 270.65,504.7813 Q271.2438,504.5 271.8688,503.9219 L271.8688,506.6406 Z " fill="#000000"/><text fill="#000000" font-family="sans-serif" font-size="12" lengthAdjust="spacing" textLength="64" x="288.1" y="505.1543">Document</text><line style="stroke:#A80036;stroke-width:1.5;" x1="231.5" x2="377.5" y1="517" y2="517"/><text fill="#000000" font-family="sans-serif" font-size="11" lengthAdjust="spacing" textLength="85" x="236.5" y="531.2104">DOI : DOI_Type</text><text fill="#000000" font-family="sans-serif" font-size="11" lengthAdjust="spacing" textLength="136" x="236.5" y="544.0151">title : Multilingual_String</text><text fill="#000000" font-family="sans-serif" font-size="11" lengthAdjust="spacing" textLength="125" x="236.5" y="556.8198">publicationDate : Date</text><!--MD5=[0330879a1a385efee19ba3488ed490fa]
class Contribution--><rect fill="#FEFECE" filter="url(#f1k2th649v9ie2)" height="32" id="Contribution" style="stroke:#A80036;stroke-width:1.5;" width="109" x="851" y="7"/><ellipse cx="866" cy="23" fill="#ADD1B2" rx="11" ry="11" style="stroke:#A80036;stroke-width:1.0;"/><path d="M868.9688,28.6406 Q868.3906,28.9375 867.75,29.0781 Q867.1094,29.2344 866.4063,29.2344 Q863.9063,29.2344 862.5781,27.5938 Q861.2656,25.9375 861.2656,22.8125 Q861.2656,19.6875 862.5781,18.0313 Q863.9063,16.375 866.4063,16.375 Q867.1094,16.375 867.75,16.5313 Q868.4063,16.6875 868.9688,16.9844 L868.9688,19.7031 Q868.3438,19.125 867.75,18.8594 Q867.1563,18.5781 866.5313,18.5781 Q865.1875,18.5781 864.5,19.6563 Q863.8125,20.7188 863.8125,22.8125 Q863.8125,24.9063 864.5,25.9844 Q865.1875,27.0469 866.5313,27.0469 Q867.1563,27.0469 867.75,26.7813 Q868.3438,26.5 868.9688,25.9219 L868.9688,28.6406 Z " fill="#000000"/><text fill="#000000" font-family="sans-serif" font-size="12" lengthAdjust="spacing" textLength="77" x="880" y="27.1543">Contribution</text><!--MD5=[fe105c2ee1fabf2400c31a97ce9128bc]
class Textual_Document--><rect codeLine="13" fill="#FFFFFF" filter="url(#f1k2th649v9ie2)" height="32" id="Textual_Document" style="stroke:#A80036;stroke-width:1.5;" width="147" x="231" y="624"/><ellipse cx="246" cy="640" fill="#ADD1B2" rx="11" ry="11" style="stroke:#A80036;stroke-width:1.0;"/><path d="M248.9688,645.6406 Q248.3906,645.9375 247.75,646.0781 Q247.1094,646.2344 246.4063,646.2344 Q243.9063,646.2344 242.5781,644.5938 Q241.2656,642.9375 241.2656,639.8125 Q241.2656,636.6875 242.5781,635.0313 Q243.9063,633.375 246.4063,633.375 Q247.1094,633.375 247.75,633.5313 Q248.4063,633.6875 248.9688,633.9844 L248.9688,636.7031 Q248.3438,636.125 247.75,635.8594 Q247.1563,635.5781 246.5313,635.5781 Q245.1875,635.5781 244.5,636.6563 Q243.8125,637.7188 243.8125,639.8125 Q243.8125,641.9063 244.5,642.9844 Q245.1875,644.0469 246.5313,644.0469 Q247.1563,644.0469 247.75,643.7813 Q248.3438,643.5 248.9688,642.9219 L248.9688,645.6406 Z " fill="#000000"/><text fill="#000000" font-family="sans-serif" font-size="12" lengthAdjust="spacing" textLength="115" x="260" y="644.1543">Textual_Document</text><!--MD5=[0c5226e8f688e58cc6150c041928918d]
reverse link Agent to Application--><path codeLine="167" d="M404.56,41.99 C394.62,48.98 385,57.99 379.5,69 C370.94,86.13 382.8,102.87 398.08,115.94 " fill="none" id="Agent-backto-Application" style="stroke:#A80036;stroke-width:1.0;"/><polygon fill="#A80036" points="408.83,39.12,399.1294,40.8226,404.6808,41.91,403.5934,47.4613,408.83,39.12" style="stroke:#A80036;stroke-width:1.0;"/><polygon fill="#000000" points="384.9365,72.5855,381.2192,81.3395,387.0746,81.8526,384.9365,72.5855" style="stroke:#000000;stroke-width:1.0;"/><text fill="#000000" font-family="sans-serif" font-size="13" lengthAdjust="spacing" textLength="58" x="393.5" y="82.0669">applicant</text><text fill="#000000" font-family="sans-serif" font-size="13" lengthAdjust="spacing" textLength="24" x="372.8291" y="57.8487">0..1</text><!--MD5=[0c5226e8f688e58cc6150c041928918d]
reverse link Agent to Application--><path codeLine="171" d="M448.68,43.64 C451.82,51.37 454.93,60.43 456.5,69 C459.37,84.69 455.32,102.04 450.35,115.83 " fill="none" id="Agent-backto-Application-1" style="stroke:#A80036;stroke-width:1.0;"/><polygon fill="#A80036" points="446.74,39.02,446.546,48.8669,448.6803,43.6282,453.9191,45.7625,446.74,39.02" style="stroke:#A80036;stroke-width:1.0;"/><polygon fill="#000000" points="461.3844,72.5677,458.6554,81.6784,464.5317,81.5424,461.3844,72.5677" style="stroke:#000000;stroke-width:1.0;"/><text fill="#000000" font-family="sans-serif" font-size="13" lengthAdjust="spacing" textLength="67" x="470.5" y="82.0669">addressee</text><text fill="#000000" font-family="sans-serif" font-size="13" lengthAdjust="spacing" textLength="24" x="421.1038" y="59.1947">0..1</text><!--MD5=[08c6a5fbc728deaee606fab1d8cae3e6]
reverse link Agent to Call_for_Applications--><path codeLine="175" d="M400.08,41.03 C346.94,63.98 253.18,104.49 202.45,126.4 " fill="none" id="Agent-backto-Call_for_Applications" style="stroke:#A80036;stroke-width:1.0;"/><polygon fill="#A80036" points="404.77,39,394.9216,38.9057,400.1817,40.9868,398.1005,46.2469,404.77,39" style="stroke:#A80036;stroke-width:1.0;"/><text fill="#000000" font-family="sans-serif" font-size="13" lengthAdjust="spacing" textLength="38" x="358.8784" y="37.3251">issuer</text><!--MD5=[63e19720e237d2f75011a962b2d04785]
link Application to Application--><path codeLine="179" d="M489.41,130.53 C508.38,130.13 524,134.12 524,142.5 C524,150.09 511.17,154.08 494.65,154.47 " fill="none" id="Application-to-Application" style="stroke:#A80036;stroke-width:1.0;"/><polygon fill="#A80036" points="489.41,154.47,498.41,158.47,494.41,154.47,498.41,150.47,489.41,154.47" style="stroke:#A80036;stroke-width:1.0;"/><polygon fill="#000000" points="528.8946,147.5653,532.0235,138.5842,526.147,138.4603,528.8946,147.5653" style="stroke:#000000;stroke-width:1.0;"/><text fill="#000000" font-family="sans-serif" font-size="13" lengthAdjust="spacing" textLength="38" x="543" y="147.0669">revise</text><!--MD5=[668d216b461f29f58c6ae81bee2a5a15]
link Application to Evaluation_Outcome--><path codeLine="183" d="M482.07,169.18 C513.32,187.25 552.88,209.36 570.5,216 C610.02,230.89 655.82,241.57 693.91,248.77 " fill="none" id="Application-Evaluation_Outcome" style="stroke:#A80036;stroke-width:1.0;"/><polygon fill="#000000" points="570.8194,205.8079,578.253,211.7402,580.3203,206.2379,570.8194,205.8079" style="stroke:#000000;stroke-width:1.0;"/><text fill="#000000" font-family="sans-serif" font-size="13" lengthAdjust="spacing" textLength="12" x="584.5" y="212.0669">of</text><text fill="#000000" font-family="sans-serif" font-size="13" lengthAdjust="spacing" textLength="24" x="464.9759" y="188.7597">0..1</text><text fill="#000000" font-family="sans-serif" font-size="13" lengthAdjust="spacing" textLength="23" x="663.082" y="244.0611">0..*</text><!--MD5=[a59b92cc30ee8d24d8d720fed1533057]
link Call_for_Applications to Application--><path codeLine="187" d="M247.34,142.5 C292.78,142.5 348.32,142.5 387.8,142.5 " fill="none" id="Call_for_Applications-Application" style="stroke:#A80036;stroke-width:1.0;"/><polygon fill="#000000" points="264.5,131.0664,273.5451,134.0053,273.5451,128.1275,264.5,131.0664" style="stroke:#000000;stroke-width:1.0;"/><text fill="#000000" font-family="sans-serif" font-size="13" lengthAdjust="spacing" textLength="91" x="278.5" y="135.5669">in response to</text><text fill="#000000" font-family="sans-serif" font-size="13" lengthAdjust="spacing" textLength="24" x="254.9455" y="155.1935">0..1</text><text fill="#000000" font-family="sans-serif" font-size="13" lengthAdjust="spacing" textLength="23" x="356.8306" y="155.5489">0..*</text><!--MD5=[33d78e85ad541f0b21b2e8ffaf1167a1]
reverse link Application to Document--><path codeLine="191" d="M377.9,176.34 C352.6,193.49 325.81,217.01 311.5,246 C273.17,323.65 285.28,429.05 295.85,484.79 " fill="none" id="Application-backto-Document" style="stroke:#A80036;stroke-width:1.0;"/><polygon fill="#FFFFFF" points="388.98,169.14,381.7694,169.0522,378.9151,175.6743,386.1256,175.7621,388.98,169.14" style="stroke:#A80036;stroke-width:1.0;"/><polygon fill="#000000" points="295.2147,321.3984,300.38,313.4128,294.6997,311.9018,295.2147,321.3984" style="stroke:#000000;stroke-width:1.0;"/><text fill="#000000" font-family="sans-serif" font-size="13" lengthAdjust="spacing" textLength="56" x="305.5" y="321.0669">contents</text><text fill="#000000" font-family="sans-serif" font-size="13" lengthAdjust="spacing" textLength="24" x="268.3008" y="473.8044">0..1</text><!--MD5=[84ee679edf117580f7008abf010245be]
link Application to Decision--><path codeLine="195" d="M455.93,169.31 C486.7,214.9 550.33,309.15 581.09,354.72 " fill="none" id="Application-Decision" style="stroke:#A80036;stroke-width:1.0;"/><polygon fill="#000000" points="530.7025,257.9222,533.3273,267.0634,538.1991,263.7748,530.7025,257.9222" style="stroke:#000000;stroke-width:1.0;"/><text fill="#000000" font-family="sans-serif" font-size="13" lengthAdjust="spacing" textLength="16" x="542.5" y="266.5669">on</text><text fill="#000000" font-family="sans-serif" font-size="13" lengthAdjust="spacing" textLength="24" x="550.2889" y="343.8976">0..1</text><!--MD5=[59b5fb7ed218924b31886ecd43e557af]
reverse link Decision to Document--><path codeLine="199" d="M543.8,408.64 C497.26,430.88 429.99,463.03 378.62,487.58 " fill="none" id="Decision-backto-Document" style="stroke:#A80036;stroke-width:1.0;"/><polygon fill="#FFFFFF" points="555.75,402.93,548.612,401.9056,544.921,408.1005,552.059,409.1249,555.75,402.93" style="stroke:#A80036;stroke-width:1.0;"/><polygon fill="#000000" points="477.9887,448.7224,487.417,447.4739,484.8825,442.1705,477.9887,448.7224" style="stroke:#000000;stroke-width:1.0;"/><text fill="#000000" font-family="sans-serif" font-size="13" lengthAdjust="spacing" textLength="81" x="491.5" y="451.0669">expressed in</text><text fill="#000000" font-family="sans-serif" font-size="13" lengthAdjust="spacing" textLength="24" x="386.5592" y="480.5851">0..1</text><!--MD5=[dc4598ce2d2e32aede71f5bf98c1fc33]
reverse link Application to Funding_Application--><path codeLine="203" d="M426.58,188.68 C421.26,208.83 415.35,231.25 411.54,245.7 " fill="none" id="Application-backto-Funding_Application" style="stroke:#A80036;stroke-width:1.0;"/><polygon fill="none" points="419.83,186.84,431.7,169.29,433.36,190.41,419.83,186.84" style="stroke:#A80036;stroke-width:1.0;"/><!--MD5=[b1eb0b711d801decc36dfa97abc1eb1f]
link Call_for_Funding_Applications to Funding_Application--><path codeLine="207" d="M222.35,262 C257.6,262 296.06,262 328.75,262 " fill="none" id="Call_for_Funding_Applications-Funding_Application" style="stroke:#A80036;stroke-width:1.0;"/><polygon fill="#000000" points="222.5,250.5664,231.5451,253.5053,231.5451,247.6275,222.5,250.5664" style="stroke:#000000;stroke-width:1.0;"/><text fill="#000000" font-family="sans-serif" font-size="13" lengthAdjust="spacing" textLength="91" x="236.5" y="255.0669">in response to</text><text fill="#000000" font-family="sans-serif" font-size="13" lengthAdjust="spacing" textLength="24" x="230.0279" y="274.5516">0..1</text><text fill="#000000" font-family="sans-serif" font-size="13" lengthAdjust="spacing" textLength="23" x="297.9941" y="274.7171">0..*</text><!--MD5=[ce01e496d5f2dcc88ba1226d075cb019]
reverse link Call_for_Applications to Call_for_Funding_Applications--><path codeLine="211" d="M152.22,177.37 C142.07,199.89 129.21,228.39 121.43,245.64 " fill="none" id="Call_for_Applications-backto-Call_for_Funding_Applications" style="stroke:#A80036;stroke-width:1.0;"/><polygon fill="none" points="145.97,174.21,160.57,158.86,158.73,179.97,145.97,174.21" style="stroke:#A80036;stroke-width:1.0;"/><!--MD5=[ee6a2a45c9ecd5d20a7362d39a9c567f]
reverse link Agent to Decision--><path codeLine="215" d="M479.06,35.78 C500.27,43.25 526.15,54.29 546.5,69 C568.97,85.24 575.64,90.95 587.5,116 C625.46,196.17 612.44,305.79 603.73,354.89 " fill="none" id="Agent-backto-Decision" style="stroke:#A80036;stroke-width:1.0;"/><polygon fill="#A80036" points="474.33,34.14,481.5188,40.8721,479.0531,35.7809,484.1443,33.3152,474.33,34.14" style="stroke:#A80036;stroke-width:1.0;"/><polygon fill="#000000" points="618.3195,212.2236,617.7654,202.7292,612.2906,204.8681,618.3195,212.2236" style="stroke:#000000;stroke-width:1.0;"/><text fill="#000000" font-family="sans-serif" font-size="13" lengthAdjust="spacing" textLength="36" x="625.5" y="212.0669">make</text><text fill="#000000" font-family="sans-serif" font-size="13" lengthAdjust="spacing" textLength="23" x="482.0034" y="31.8208">0..*</text><!--MD5=[132eaccbfaea638e3926e226658652ad]
link Evaluation_Outcome to Decision--><path codeLine="219" d="M750.98,278.12 C723.21,296.76 675.45,328.83 640.77,352.12 " fill="none" id="Evaluation_Outcome-to-Decision" style="stroke:#A80036;stroke-width:1.0;"/><polygon fill="#A80036" points="636.6,354.92,646.3006,353.2174,640.7492,352.13,641.8366,346.5787,636.6,354.92" style="stroke:#A80036;stroke-width:1.0;"/><polygon fill="#000000" points="702.3489,319.3536,711.4966,316.7514,708.22,311.8716,702.3489,319.3536" style="stroke:#000000;stroke-width:1.0;"/><text fill="#000000" font-family="sans-serif" font-size="13" lengthAdjust="spacing" textLength="113" x="715.5" y="321.0669">form the basis for</text><text fill="#000000" font-family="sans-serif" font-size="13" lengthAdjust="spacing" textLength="24" x="618.6356" y="344.1438">0..1</text><!--MD5=[52a6b51fc648ce0be0808bfcda0e3849]
reverse link Contribution to Contribution_to_Evaluation_Outcome--><path codeLine="223" d="M905.5,59.6 C905.5,81.83 905.5,109.33 905.5,126.14 " fill="none" id="Contribution-backto-Contribution_to_Evaluation_Outcome" style="stroke:#A80036;stroke-width:1.0;"/><polygon fill="none" points="898.5,59.36,905.5,39.36,912.5,59.36,898.5,59.36" style="stroke:#A80036;stroke-width:1.0;"/><!--MD5=[3ebf6a7eeaa5c40096535d633d0a0f7f]
reverse link Contribution_to_Evaluation_Outcome to Application_Review--><path codeLine="224" d="M921.76,177.02 C932.71,199.6 946.64,228.3 955.05,245.64 " fill="none" id="Contribution_to_Evaluation_Outcome-backto-Application_Review" style="stroke:#A80036;stroke-width:1.0;"/><polygon fill="none" points="915.38,179.91,912.95,158.86,927.98,173.8,915.38,179.91" style="stroke:#A80036;stroke-width:1.0;"/><!--MD5=[e2943e5fe819077387d25a77d2cd82c9]
link Contribution_to_Evaluation_Outcome to Evaluation_Outcome--><path codeLine="228" d="M888.51,158.62 C864.45,180.04 820.49,219.17 794.44,242.36 " fill="none" id="Contribution_to_Evaluation_Outcome-to-Evaluation_Outcome" style="stroke:#A80036;stroke-width:1.0;"/><polygon fill="#A80036" points="790.42,245.94,799.7977,242.9303,794.1499,242.6102,794.4701,236.9624,790.42,245.94" style="stroke:#A80036;stroke-width:1.0;"/><!--MD5=[67ceb885199ca7e1fa058287d8756a2e]
reverse link Document to Textual_Document--><path codeLine="355" d="M304.5,583.38 C304.5,598.35 304.5,613.19 304.5,623.77 " fill="none" id="Document-backto-Textual_Document" style="stroke:#A80036;stroke-width:1.0;"/><polygon fill="none" points="297.5,583.28,304.5,563.28,311.5,583.28,297.5,583.28" style="stroke:#A80036;stroke-width:1.0;"/><!--MD5=[8d86fdc35d83a715138993e8ced1fba1]
@startuml
    !includesub core.puml!common
    !includesub core.puml!Application
    !includesub core.puml!Document
    !includesub core.puml!Agent
@enduml

@startuml
        hide empty members
        skinparam BoxPadding 120
        class "Application" #ffffff {
            date : Date
        }

        class "Decision" #ffffff {
            date : Date
        }

        class "Funding_Application" #ffffff {
        }

        class "Call_for_Applications" #ffffff {

        }

        class "Call_for_Funding_Applications" #ffffff {
        }

		class "Evaluation_Outcome" #ffffff {
    	}

		class "Contribution_to_Evaluation_Outcome" #ffffff {
    	}

		class "Application_Review" #ffffff {
    	}

        "Application" -u-> "0..1" "Agent" : applicant >
        "Application" -u-> "0..1" "Agent" : addressee >
		"Call_for_Applications" -u-> "issuer" "Agent"
        "Application" - -> "Application" : revise >
        "Application" "0..1" - - "0..*" "Evaluation_Outcome" : of <
        "Application" "0..*" -l- "0..1" "Call_for_Applications" : in response to >
        "Application" o- - "0..1" "Document" : contents >
        "Application" -r- "0..1" "Decision" : on <
        "Decision" o- - "0..1" "Document" : expressed in >
        "Application" <|-d- "Funding_Application"
        "Funding_Application" "0..*" -l- "0..1" "Call_for_Funding_Applications" : in response to >
        "Call_for_Applications" <|-d- "Call_for_Funding_Applications"
        "Decision" -u-> "0..*" "Agent" : make <
        "Evaluation_Outcome" -d-> "0..1" "Decision" : form the basis for >
        "Contribution" <|- - "Contribution_to_Evaluation_Outcome"
        "Contribution_to_Evaluation_Outcome" <|-d- "Application_Review"
        "Contribution_to_Evaluation_Outcome" - -> "Evaluation_Outcome"
        class "Document" #ffffff {
            DOI : DOI_Type
            title : Multilingual_String
            publicationDate : Date
        }
        class "Textual_Document" #ffffff {
        }
        "Document" <|- - "Textual_Document"
        class "Agent" #ffffff {
        }
@enduml

PlantUML version 1.2021.8(Sat Jun 26 08:20:59 UTC 2021)
(GPL source distribution)
Java Runtime: OpenJDK Runtime Environment
JVM: OpenJDK 64-Bit Server VM
Default Encoding: UTF-8
Language: en
Country: null
--></g></svg>