<?xml version="1.0" encoding="UTF-8" standalone="no"?><svg xmlns="http://www.w3.org/2000/svg" xmlns:xlink="http://www.w3.org/1999/xlink" contentScriptType="application/ecmascript" contentStyleType="text/css" height="597px" preserveAspectRatio="none" style="width:1486px;height:597px;background:#FFFFFF;" version="1.1" viewBox="0 0 1486 597" width="1486px" zoomAndPan="magnify"><defs><filter height="300%" id="f92krfojkjwvr" width="300%" x="-1" y="-1"><feGaussianBlur result="blurOut" stdDeviation="2.0"/><feColorMatrix in="blurOut" result="blurOut2" type="matrix" values="0 0 0 0 0 0 0 0 0 0 0 0 0 0 0 0 0 0 .4 0"/><feOffset dx="4.0" dy="4.0" in="blurOut2" result="blurOut3"/><feBlend in="SourceGraphic" in2="blurOut3" mode="normal"/></filter></defs><g><!--MD5=[edcf71e28750a8856eb4372d573715ca]
class Call_for_Applications--><rect codeLine="523" fill="#FFFFFF" filter="url(#f92krfojkjwvr)" height="32" id="Call_for_Applications" style="stroke:#A80036;stroke-width:1.5;" width="159" x="35" y="265.5"/><ellipse cx="50" cy="281.5" fill="#ADD1B2" rx="11" ry="11" style="stroke:#A80036;stroke-width:1.0;"/><path d="M52.9688,287.1406 Q52.3906,287.4375 51.75,287.5781 Q51.1094,287.7344 50.4063,287.7344 Q47.9063,287.7344 46.5781,286.0938 Q45.2656,284.4375 45.2656,281.3125 Q45.2656,278.1875 46.5781,276.5313 Q47.9063,274.875 50.4063,274.875 Q51.1094,274.875 51.75,275.0313 Q52.4063,275.1875 52.9688,275.4844 L52.9688,278.2031 Q52.3438,277.625 51.75,277.3594 Q51.1563,277.0781 50.5313,277.0781 Q49.1875,277.0781 48.5,278.1563 Q47.8125,279.2188 47.8125,281.3125 Q47.8125,283.4063 48.5,284.4844 Q49.1875,285.5469 50.5313,285.5469 Q51.1563,285.5469 51.75,285.2813 Q52.3438,285 52.9688,284.4219 L52.9688,287.1406 Z " fill="#000000"/><text fill="#000000" font-family="sans-serif" font-size="12" lengthAdjust="spacing" textLength="127" x="64" y="285.6543">Call_for_Applications</text><!--MD5=[0b4e4b4980470ea387cc45de9bd14b5b]
class Application--><rect codeLine="502" fill="#FFFFFF" filter="url(#f92krfojkjwvr)" height="52.8047" id="Application" style="stroke:#A80036;stroke-width:1.5;" width="101" x="335" y="255"/><ellipse cx="350" cy="271" fill="#ADD1B2" rx="11" ry="11" style="stroke:#A80036;stroke-width:1.0;"/><path d="M352.9688,276.6406 Q352.3906,276.9375 351.75,277.0781 Q351.1094,277.2344 350.4063,277.2344 Q347.9063,277.2344 346.5781,275.5938 Q345.2656,273.9375 345.2656,270.8125 Q345.2656,267.6875 346.5781,266.0313 Q347.9063,264.375 350.4063,264.375 Q351.1094,264.375 351.75,264.5313 Q352.4063,264.6875 352.9688,264.9844 L352.9688,267.7031 Q352.3438,267.125 351.75,266.8594 Q351.1563,266.5781 350.5313,266.5781 Q349.1875,266.5781 348.5,267.6563 Q347.8125,268.7188 347.8125,270.8125 Q347.8125,272.9063 348.5,273.9844 Q349.1875,275.0469 350.5313,275.0469 Q351.1563,275.0469 351.75,274.7813 Q352.3438,274.5 352.9688,273.9219 L352.9688,276.6406 Z " fill="#000000"/><text fill="#000000" font-family="sans-serif" font-size="12" lengthAdjust="spacing" textLength="69" x="364" y="275.1543">Application</text><line style="stroke:#A80036;stroke-width:1.5;" x1="336" x2="435" y1="287" y2="287"/><text fill="#000000" font-family="sans-serif" font-size="11" lengthAdjust="spacing" textLength="63" x="341" y="301.2104">date : Date</text><!--MD5=[8a67874827a9dbf014cc34517ffca193]
class Resource_Offer--><rect codeLine="689" fill="#FFFFFF" filter="url(#f92krfojkjwvr)" height="32" id="Resource_Offer" style="stroke:#A80036;stroke-width:1.5;" width="127" x="1073" y="146"/><ellipse cx="1088" cy="162" fill="#ADD1B2" rx="11" ry="11" style="stroke:#A80036;stroke-width:1.0;"/><path d="M1090.9688,167.6406 Q1090.3906,167.9375 1089.75,168.0781 Q1089.1094,168.2344 1088.4063,168.2344 Q1085.9063,168.2344 1084.5781,166.5938 Q1083.2656,164.9375 1083.2656,161.8125 Q1083.2656,158.6875 1084.5781,157.0313 Q1085.9063,155.375 1088.4063,155.375 Q1089.1094,155.375 1089.75,155.5313 Q1090.4063,155.6875 1090.9688,155.9844 L1090.9688,158.7031 Q1090.3438,158.125 1089.75,157.8594 Q1089.1563,157.5781 1088.5313,157.5781 Q1087.1875,157.5781 1086.5,158.6563 Q1085.8125,159.7188 1085.8125,161.8125 Q1085.8125,163.9063 1086.5,164.9844 Q1087.1875,166.0469 1088.5313,166.0469 Q1089.1563,166.0469 1089.75,165.7813 Q1090.3438,165.5 1090.9688,164.9219 L1090.9688,167.6406 Z " fill="#000000"/><text fill="#000000" font-family="sans-serif" font-size="12" lengthAdjust="spacing" textLength="95" x="1102" y="166.1543">Resource_Offer</text><!--MD5=[9d44916250b776386006c440668bcfbb]
class Agent--><rect codeLine="10" fill="#FFFFFF" filter="url(#f92krfojkjwvr)" height="78.4141" id="Agent" style="stroke:#A80036;stroke-width:1.5;" width="224" x="678.5" y="7"/><ellipse cx="767.75" cy="23" fill="#ADD1B2" rx="11" ry="11" style="stroke:#A80036;stroke-width:1.0;"/><path d="M770.7188,28.6406 Q770.1406,28.9375 769.5,29.0781 Q768.8594,29.2344 768.1563,29.2344 Q765.6563,29.2344 764.3281,27.5938 Q763.0156,25.9375 763.0156,22.8125 Q763.0156,19.6875 764.3281,18.0313 Q765.6563,16.375 768.1563,16.375 Q768.8594,16.375 769.5,16.5313 Q770.1563,16.6875 770.7188,16.9844 L770.7188,19.7031 Q770.0938,19.125 769.5,18.8594 Q768.9063,18.5781 768.2813,18.5781 Q766.9375,18.5781 766.25,19.6563 Q765.5625,20.7188 765.5625,22.8125 Q765.5625,24.9063 766.25,25.9844 Q766.9375,27.0469 768.2813,27.0469 Q768.9063,27.0469 769.5,26.7813 Q770.0938,26.5 770.7188,25.9219 L770.7188,28.6406 Z " fill="#000000"/><text fill="#000000" font-family="sans-serif" font-size="12" lengthAdjust="spacing" textLength="37" x="788.25" y="27.1543">Agent</text><line style="stroke:#A80036;stroke-width:1.5;" x1="679.5" x2="901.5" y1="39" y2="39"/><text fill="#000000" font-family="sans-serif" font-size="11" lengthAdjust="spacing" textLength="207" x="684.5" y="53.2104">keywords : List&lt;Multilingual_String&gt;</text><text fill="#000000" font-family="sans-serif" font-size="11" lengthAdjust="spacing" textLength="121" x="684.5" y="66.0151">lifetime : Date_Range</text><text fill="#000000" font-family="sans-serif" font-size="11" lengthAdjust="spacing" textLength="212" x="684.5" y="78.8198">contacts : List&lt;Contact_Information&gt;</text><!--MD5=[59b530d44ae785dc18db921986a9c15c]
class Document--><rect codeLine="299" fill="#FFFFFF" filter="url(#f92krfojkjwvr)" height="65.6094" id="Document" style="stroke:#A80036;stroke-width:1.5;" width="148" x="458.5" y="385"/><ellipse cx="496.9" cy="401" fill="#ADD1B2" rx="11" ry="11" style="stroke:#A80036;stroke-width:1.0;"/><path d="M499.8688,406.6406 Q499.2906,406.9375 498.65,407.0781 Q498.0094,407.2344 497.3063,407.2344 Q494.8063,407.2344 493.4781,405.5938 Q492.1656,403.9375 492.1656,400.8125 Q492.1656,397.6875 493.4781,396.0313 Q494.8063,394.375 497.3063,394.375 Q498.0094,394.375 498.65,394.5313 Q499.3063,394.6875 499.8688,394.9844 L499.8688,397.7031 Q499.2438,397.125 498.65,396.8594 Q498.0563,396.5781 497.4313,396.5781 Q496.0875,396.5781 495.4,397.6563 Q494.7125,398.7188 494.7125,400.8125 Q494.7125,402.9063 495.4,403.9844 Q496.0875,405.0469 497.4313,405.0469 Q498.0563,405.0469 498.65,404.7813 Q499.2438,404.5 499.8688,403.9219 L499.8688,406.6406 Z " fill="#000000"/><text fill="#000000" font-family="sans-serif" font-size="12" lengthAdjust="spacing" textLength="64" x="516.1" y="405.1543">Document</text><line style="stroke:#A80036;stroke-width:1.5;" x1="459.5" x2="605.5" y1="417" y2="417"/><text fill="#000000" font-family="sans-serif" font-size="11" lengthAdjust="spacing" textLength="136" x="464.5" y="431.2104">title : Multilingual_String</text><text fill="#000000" font-family="sans-serif" font-size="11" lengthAdjust="spacing" textLength="125" x="464.5" y="444.0151">publicationDate : Date</text><!--MD5=[68c3952ebfab03c1a0449046a32d2ee2]
class Resource_Request--><rect codeLine="711" fill="#FFFFFF" filter="url(#f92krfojkjwvr)" height="32" id="Resource_Request" style="stroke:#A80036;stroke-width:1.5;" width="149" x="471" y="146"/><ellipse cx="486" cy="162" fill="#ADD1B2" rx="11" ry="11" style="stroke:#A80036;stroke-width:1.0;"/><path d="M488.9688,167.6406 Q488.3906,167.9375 487.75,168.0781 Q487.1094,168.2344 486.4063,168.2344 Q483.9063,168.2344 482.5781,166.5938 Q481.2656,164.9375 481.2656,161.8125 Q481.2656,158.6875 482.5781,157.0313 Q483.9063,155.375 486.4063,155.375 Q487.1094,155.375 487.75,155.5313 Q488.4063,155.6875 488.9688,155.9844 L488.9688,158.7031 Q488.3438,158.125 487.75,157.8594 Q487.1563,157.5781 486.5313,157.5781 Q485.1875,157.5781 484.5,158.6563 Q483.8125,159.7188 483.8125,161.8125 Q483.8125,163.9063 484.5,164.9844 Q485.1875,166.0469 486.5313,166.0469 Q487.1563,166.0469 487.75,165.7813 Q488.3438,165.5 488.9688,164.9219 L488.9688,167.6406 Z " fill="#000000"/><text fill="#000000" font-family="sans-serif" font-size="12" lengthAdjust="spacing" textLength="117" x="500" y="166.1543">Resource_Request</text><!--MD5=[6b13f1b330d33795af281e5c1dfe1e98]
class Resource--><rect codeLine="254" fill="#FFFFFF" filter="url(#f92krfojkjwvr)" height="32" id="Resource" style="stroke:#A80036;stroke-width:1.5;" width="91" x="984" y="265.5"/><ellipse cx="999" cy="281.5" fill="#ADD1B2" rx="11" ry="11" style="stroke:#A80036;stroke-width:1.0;"/><path d="M1001.9688,287.1406 Q1001.3906,287.4375 1000.75,287.5781 Q1000.1094,287.7344 999.4063,287.7344 Q996.9063,287.7344 995.5781,286.0938 Q994.2656,284.4375 994.2656,281.3125 Q994.2656,278.1875 995.5781,276.5313 Q996.9063,274.875 999.4063,274.875 Q1000.1094,274.875 1000.75,275.0313 Q1001.4063,275.1875 1001.9688,275.4844 L1001.9688,278.2031 Q1001.3438,277.625 1000.75,277.3594 Q1000.1563,277.0781 999.5313,277.0781 Q998.1875,277.0781 997.5,278.1563 Q996.8125,279.2188 996.8125,281.3125 Q996.8125,283.4063 997.5,284.4844 Q998.1875,285.5469 999.5313,285.5469 Q1000.1563,285.5469 1000.75,285.2813 Q1001.3438,285 1001.9688,284.4219 L1001.9688,287.1406 Z " fill="#000000"/><text fill="#000000" font-family="sans-serif" font-size="12" lengthAdjust="spacing" textLength="59" x="1013" y="285.6543">Resource</text><!--MD5=[176bc0a65f2558a2e68a39a8b34c74bb]
class Date_Range--><rect fill="#FEFECE" filter="url(#f92krfojkjwvr)" height="32" id="Date_Range" style="stroke:#A80036;stroke-width:1.5;" width="108" x="736.5" y="146"/><ellipse cx="751.5" cy="162" fill="#ADD1B2" rx="11" ry="11" style="stroke:#A80036;stroke-width:1.0;"/><path d="M754.4688,167.6406 Q753.8906,167.9375 753.25,168.0781 Q752.6094,168.2344 751.9063,168.2344 Q749.4063,168.2344 748.0781,166.5938 Q746.7656,164.9375 746.7656,161.8125 Q746.7656,158.6875 748.0781,157.0313 Q749.4063,155.375 751.9063,155.375 Q752.6094,155.375 753.25,155.5313 Q753.9063,155.6875 754.4688,155.9844 L754.4688,158.7031 Q753.8438,158.125 753.25,157.8594 Q752.6563,157.5781 752.0313,157.5781 Q750.6875,157.5781 750,158.6563 Q749.3125,159.7188 749.3125,161.8125 Q749.3125,163.9063 750,164.9844 Q750.6875,166.0469 752.0313,166.0469 Q752.6563,166.0469 753.25,165.7813 Q753.8438,165.5 754.4688,164.9219 L754.4688,167.6406 Z " fill="#000000"/><text fill="#000000" font-family="sans-serif" font-size="12" lengthAdjust="spacing" textLength="76" x="765.5" y="166.1543">Date_Range</text><!--MD5=[a0318ef586937002b2555963e2a1f4ad]
class Contact_Information--><rect fill="#FEFECE" filter="url(#f92krfojkjwvr)" height="32" id="Contact_Information" style="stroke:#A80036;stroke-width:1.5;" width="158" x="879.5" y="146"/><ellipse cx="894.5" cy="162" fill="#ADD1B2" rx="11" ry="11" style="stroke:#A80036;stroke-width:1.0;"/><path d="M897.4688,167.6406 Q896.8906,167.9375 896.25,168.0781 Q895.6094,168.2344 894.9063,168.2344 Q892.4063,168.2344 891.0781,166.5938 Q889.7656,164.9375 889.7656,161.8125 Q889.7656,158.6875 891.0781,157.0313 Q892.4063,155.375 894.9063,155.375 Q895.6094,155.375 896.25,155.5313 Q896.9063,155.6875 897.4688,155.9844 L897.4688,158.7031 Q896.8438,158.125 896.25,157.8594 Q895.6563,157.5781 895.0313,157.5781 Q893.6875,157.5781 893,158.6563 Q892.3125,159.7188 892.3125,161.8125 Q892.3125,163.9063 893,164.9844 Q893.6875,166.0469 895.0313,166.0469 Q895.6563,166.0469 896.25,165.7813 Q896.8438,165.5 897.4688,164.9219 L897.4688,167.6406 Z " fill="#000000"/><text fill="#000000" font-family="sans-serif" font-size="12" lengthAdjust="spacing" textLength="126" x="908.5" y="166.1543">Contact_Information</text><!--MD5=[a030fa97ffb865708cae79f6847e8968]
class Condition--><rect codeLine="702" fill="#FFFFFF" filter="url(#f92krfojkjwvr)" height="32" id="Condition" style="stroke:#A80036;stroke-width:1.5;" width="91" x="1110" y="265.5"/><ellipse cx="1125" cy="281.5" fill="#ADD1B2" rx="11" ry="11" style="stroke:#A80036;stroke-width:1.0;"/><path d="M1127.9688,287.1406 Q1127.3906,287.4375 1126.75,287.5781 Q1126.1094,287.7344 1125.4063,287.7344 Q1122.9063,287.7344 1121.5781,286.0938 Q1120.2656,284.4375 1120.2656,281.3125 Q1120.2656,278.1875 1121.5781,276.5313 Q1122.9063,274.875 1125.4063,274.875 Q1126.1094,274.875 1126.75,275.0313 Q1127.4063,275.1875 1127.9688,275.4844 L1127.9688,278.2031 Q1127.3438,277.625 1126.75,277.3594 Q1126.1563,277.0781 1125.5313,277.0781 Q1124.1875,277.0781 1123.5,278.1563 Q1122.8125,279.2188 1122.8125,281.3125 Q1122.8125,283.4063 1123.5,284.4844 Q1124.1875,285.5469 1125.5313,285.5469 Q1126.1563,285.5469 1126.75,285.2813 Q1127.3438,285 1127.9688,284.4219 L1127.9688,287.1406 Z " fill="#000000"/><text fill="#000000" font-family="sans-serif" font-size="12" lengthAdjust="spacing" textLength="59" x="1139" y="285.6543">Condition</text><!--MD5=[92dc6ef2f70a23983af4e570fc6275cd]
class Funding--><rect codeLine="259" fill="#FFFFFF" filter="url(#f92krfojkjwvr)" height="52.8047" id="Funding" style="stroke:#A80036;stroke-width:1.5;" width="180" x="1183.5" y="391.5"/><ellipse cx="1244.25" cy="407.5" fill="#ADD1B2" rx="11" ry="11" style="stroke:#A80036;stroke-width:1.0;"/><path d="M1247.2188,413.1406 Q1246.6406,413.4375 1246,413.5781 Q1245.3594,413.7344 1244.6563,413.7344 Q1242.1563,413.7344 1240.8281,412.0938 Q1239.5156,410.4375 1239.5156,407.3125 Q1239.5156,404.1875 1240.8281,402.5313 Q1242.1563,400.875 1244.6563,400.875 Q1245.3594,400.875 1246,401.0313 Q1246.6563,401.1875 1247.2188,401.4844 L1247.2188,404.2031 Q1246.5938,403.625 1246,403.3594 Q1245.4063,403.0781 1244.7813,403.0781 Q1243.4375,403.0781 1242.75,404.1563 Q1242.0625,405.2188 1242.0625,407.3125 Q1242.0625,409.4063 1242.75,410.4844 Q1243.4375,411.5469 1244.7813,411.5469 Q1245.4063,411.5469 1246,411.2813 Q1246.5938,411 1247.2188,410.4219 L1247.2188,413.1406 Z " fill="#000000"/><text fill="#000000" font-family="sans-serif" font-size="12" lengthAdjust="spacing" textLength="50" x="1264.75" y="411.6543">Funding</text><line style="stroke:#A80036;stroke-width:1.5;" x1="1184.5" x2="1362.5" y1="423.5" y2="423.5"/><text fill="#000000" font-family="sans-serif" font-size="11" lengthAdjust="spacing" textLength="168" x="1189.5" y="437.7104">amount  :   Monetary_Amount</text><!--MD5=[9db362234582fbb89ee6f48a28063aa6]
class Monetary_Amount--><rect codeLine="265" fill="#FFFFFF" filter="url(#f92krfojkjwvr)" height="71.5469" id="Monetary_Amount" style="stroke:#A80036;stroke-width:1.5;" width="232" x="1157.5" y="512"/><ellipse cx="1213.25" cy="530.9688" fill="#ADD0B2" rx="11" ry="11" style="stroke:#A80036;stroke-width:1.0;"/><path d="M1212.8438,526.7813 L1212.8438,534.7656 L1213.5,534.7656 Q1214.9375,534.7656 1215.5469,533.8594 Q1216.1719,532.9375 1216.1719,530.7656 Q1216.1719,528.5938 1215.5469,527.6875 Q1214.9375,526.7813 1213.5,526.7813 L1212.8438,526.7813 Z M1210.3906,524.5781 L1213.0156,524.5781 Q1216.0469,524.5781 1217.375,526.0313 Q1218.7188,527.4688 1218.7188,530.7656 Q1218.7188,534.0625 1217.375,535.5156 Q1216.0469,536.9688 1213.0156,536.9688 L1210.3906,536.9688 L1210.3906,524.5781 Z " fill="#000000"/><text fill="#000000" font-family="sans-serif" font-size="12" font-style="italic" lengthAdjust="spacing" textLength="74" x="1252.75" y="528.1387">«DataType»</text><text fill="#000000" font-family="sans-serif" font-size="12" lengthAdjust="spacing" textLength="112" x="1233.75" y="542.1074">Monetary_Amount</text><line style="stroke:#A80036;stroke-width:1.5;" x1="1158.5" x2="1388.5" y1="549.9375" y2="549.9375"/><text fill="#000000" font-family="sans-serif" font-size="11" lengthAdjust="spacing" textLength="100" x="1163.5" y="564.1479">amount : Decimal</text><text fill="#000000" font-family="sans-serif" font-size="11" lengthAdjust="spacing" textLength="220" x="1163.5" y="576.9526">currencyCode  : ISO_4217_Alpha_Code</text><!--MD5=[c881b25adf3665c6568c9693d41a70f3]
class Activity--><rect fill="#FEFECE" filter="url(#f92krfojkjwvr)" height="32" id="Activity" style="stroke:#A80036;stroke-width:1.5;" width="75" x="1347" y="146"/><ellipse cx="1362" cy="162" fill="#ADD1B2" rx="11" ry="11" style="stroke:#A80036;stroke-width:1.0;"/><path d="M1364.9688,167.6406 Q1364.3906,167.9375 1363.75,168.0781 Q1363.1094,168.2344 1362.4063,168.2344 Q1359.9063,168.2344 1358.5781,166.5938 Q1357.2656,164.9375 1357.2656,161.8125 Q1357.2656,158.6875 1358.5781,157.0313 Q1359.9063,155.375 1362.4063,155.375 Q1363.1094,155.375 1363.75,155.5313 Q1364.4063,155.6875 1364.9688,155.9844 L1364.9688,158.7031 Q1364.3438,158.125 1363.75,157.8594 Q1363.1563,157.5781 1362.5313,157.5781 Q1361.1875,157.5781 1360.5,158.6563 Q1359.8125,159.7188 1359.8125,161.8125 Q1359.8125,163.9063 1360.5,164.9844 Q1361.1875,166.0469 1362.5313,166.0469 Q1363.1563,166.0469 1363.75,165.7813 Q1364.3438,165.5 1364.9688,164.9219 L1364.9688,167.6406 Z " fill="#000000"/><text fill="#000000" font-family="sans-serif" font-size="12" lengthAdjust="spacing" textLength="43" x="1376" y="166.1543">Activity</text><!--MD5=[79d378210367c0c6ec62ef762ddfbd1b]
class Project--><rect fill="#FEFECE" filter="url(#f92krfojkjwvr)" height="32" id="Project" style="stroke:#A80036;stroke-width:1.5;" width="76" x="1235.5" y="146"/><ellipse cx="1250.5" cy="162" fill="#ADD1B2" rx="11" ry="11" style="stroke:#A80036;stroke-width:1.0;"/><path d="M1253.4688,167.6406 Q1252.8906,167.9375 1252.25,168.0781 Q1251.6094,168.2344 1250.9063,168.2344 Q1248.4063,168.2344 1247.0781,166.5938 Q1245.7656,164.9375 1245.7656,161.8125 Q1245.7656,158.6875 1247.0781,157.0313 Q1248.4063,155.375 1250.9063,155.375 Q1251.6094,155.375 1252.25,155.5313 Q1252.9063,155.6875 1253.4688,155.9844 L1253.4688,158.7031 Q1252.8438,158.125 1252.25,157.8594 Q1251.6563,157.5781 1251.0313,157.5781 Q1249.6875,157.5781 1249,158.6563 Q1248.3125,159.7188 1248.3125,161.8125 Q1248.3125,163.9063 1249,164.9844 Q1249.6875,166.0469 1251.0313,166.0469 Q1251.6563,166.0469 1252.25,165.7813 Q1252.8438,165.5 1253.4688,164.9219 L1253.4688,167.6406 Z " fill="#000000"/><text fill="#000000" font-family="sans-serif" font-size="12" lengthAdjust="spacing" textLength="44" x="1264.5" y="166.1543">Project</text><!--MD5=[6ff7a5782d5ed311fa9cacd2967fdc4e]
class Funding_Application--><rect codeLine="514" fill="#FFFFFF" filter="url(#f92krfojkjwvr)" height="32" id="Funding_Application" style="stroke:#A80036;stroke-width:1.5;" width="157" x="266" y="402"/><ellipse cx="281" cy="418" fill="#ADD1B2" rx="11" ry="11" style="stroke:#A80036;stroke-width:1.0;"/><path d="M283.9688,423.6406 Q283.3906,423.9375 282.75,424.0781 Q282.1094,424.2344 281.4063,424.2344 Q278.9063,424.2344 277.5781,422.5938 Q276.2656,420.9375 276.2656,417.8125 Q276.2656,414.6875 277.5781,413.0313 Q278.9063,411.375 281.4063,411.375 Q282.1094,411.375 282.75,411.5313 Q283.4063,411.6875 283.9688,411.9844 L283.9688,414.7031 Q283.3438,414.125 282.75,413.8594 Q282.1563,413.5781 281.5313,413.5781 Q280.1875,413.5781 279.5,414.6563 Q278.8125,415.7188 278.8125,417.8125 Q278.8125,419.9063 279.5,420.9844 Q280.1875,422.0469 281.5313,422.0469 Q282.1563,422.0469 282.75,421.7813 Q283.3438,421.5 283.9688,420.9219 L283.9688,423.6406 Z " fill="#000000"/><text fill="#000000" font-family="sans-serif" font-size="12" lengthAdjust="spacing" textLength="125" x="295" y="422.1543">Funding_Application</text><!--MD5=[0db85a2d6db180b105db5ebe9e86b106]
class Call_for_Funding_Applications--><rect codeLine="528" fill="#FFFFFF" filter="url(#f92krfojkjwvr)" height="32" id="Call_for_Funding_Applications" style="stroke:#A80036;stroke-width:1.5;" width="215" x="7" y="402"/><ellipse cx="22" cy="418" fill="#ADD1B2" rx="11" ry="11" style="stroke:#A80036;stroke-width:1.0;"/><path d="M24.9688,423.6406 Q24.3906,423.9375 23.75,424.0781 Q23.1094,424.2344 22.4063,424.2344 Q19.9063,424.2344 18.5781,422.5938 Q17.2656,420.9375 17.2656,417.8125 Q17.2656,414.6875 18.5781,413.0313 Q19.9063,411.375 22.4063,411.375 Q23.1094,411.375 23.75,411.5313 Q24.4063,411.6875 24.9688,411.9844 L24.9688,414.7031 Q24.3438,414.125 23.75,413.8594 Q23.1563,413.5781 22.5313,413.5781 Q21.1875,413.5781 20.5,414.6563 Q19.8125,415.7188 19.8125,417.8125 Q19.8125,419.9063 20.5,420.9844 Q21.1875,422.0469 22.5313,422.0469 Q23.1563,422.0469 23.75,421.7813 Q24.3438,421.5 24.9688,420.9219 L24.9688,423.6406 Z " fill="#000000"/><text fill="#000000" font-family="sans-serif" font-size="12" lengthAdjust="spacing" textLength="183" x="36" y="422.1543">Call_for_Funding_Applications</text><!--MD5=[a59b92cc30ee8d24d8d720fed1533057]
link Call_for_Applications to Application--><path codeLine="574" d="M194.34,281.5 C239.78,281.5 295.32,281.5 334.8,281.5 " fill="none" id="Call_for_Applications-Application" style="stroke:#A80036;stroke-width:1.0;"/><polygon fill="#000000" points="211.5,270.0664,220.5451,273.0053,220.5451,267.1275,211.5,270.0664" style="stroke:#000000;stroke-width:1.0;"/><text fill="#000000" font-family="sans-serif" font-size="13" lengthAdjust="spacing" textLength="91" x="225.5" y="274.5669">in response to</text><text fill="#000000" font-family="sans-serif" font-size="13" lengthAdjust="spacing" textLength="24" x="201.9455" y="294.1935">0..1</text><text fill="#000000" font-family="sans-serif" font-size="13" lengthAdjust="spacing" textLength="23" x="303.8306" y="294.5489">0..*</text><!--MD5=[555d991a4645b83cbfa238b562f91a92]
reverse link Resource_Offer to Call_for_Applications--><path codeLine="698" d="M1052.82,178.1 C908.43,197.52 868.59,193.77 730.5,208 C546.73,226.94 500.93,233.04 317.5,255 C276.77,259.88 231.47,265.54 194.01,270.29 " fill="none" id="Resource_Offer-backto-Call_for_Applications" style="stroke:#A80036;stroke-width:1.0;"/><polygon fill="none" points="1052.15,171.13,1072.92,175.34,1054.06,185,1052.15,171.13" style="stroke:#A80036;stroke-width:1.0;"/><!--MD5=[0c5226e8f688e58cc6150c041928918d]
reverse link Agent to Application--><path codeLine="558" d="M673.23,59.27 C565.21,73.28 416.42,100.37 380.5,146 C356.14,176.94 366.02,225.42 375.61,254.94 " fill="none" id="Agent-backto-Application" style="stroke:#A80036;stroke-width:1.0;"/><polygon fill="#A80036" points="678.34,58.61,668.9083,55.7739,673.3797,59.239,669.9147,63.7104,678.34,58.61" style="stroke:#A80036;stroke-width:1.0;"/><polygon fill="#000000" points="389.6779,159.3196,380.5055,161.8329,383.7345,166.7443,389.6779,159.3196" style="stroke:#000000;stroke-width:1.0;"/><text fill="#000000" font-family="sans-serif" font-size="13" lengthAdjust="spacing" textLength="58" x="394.5" y="166.5669">applicant</text><text fill="#000000" font-family="sans-serif" font-size="13" lengthAdjust="spacing" textLength="24" x="646.386" y="71.9562">0..1</text><!--MD5=[0c5226e8f688e58cc6150c041928918d]
reverse link Agent to Application--><path codeLine="562" d="M673.11,52.6 C537.26,61.85 325.93,85.76 277.5,146 C247.01,183.93 298.74,227.9 340.6,254.96 " fill="none" id="Agent-backto-Application-1" style="stroke:#A80036;stroke-width:1.0;"/><polygon fill="#A80036" points="678.31,52.25,669.0664,48.8505,673.3208,52.5788,669.5925,56.8332,678.31,52.25" style="stroke:#A80036;stroke-width:1.0;"/><polygon fill="#000000" points="286.7712,159.467,277.5166,161.6588,280.5724,166.6799,286.7712,159.467" style="stroke:#000000;stroke-width:1.0;"/><text fill="#000000" font-family="sans-serif" font-size="13" lengthAdjust="spacing" textLength="67" x="291.5" y="166.5669">addressee</text><text fill="#000000" font-family="sans-serif" font-size="13" lengthAdjust="spacing" textLength="24" x="646.3541" y="49.2278">0..1</text><!--MD5=[33d78e85ad541f0b21b2e8ffaf1167a1]
reverse link Application to Document--><path codeLine="578" d="M400.86,320.35 C406.98,332.38 414.88,345.12 424.5,355 C435.66,366.47 449.39,376.49 463.27,384.94 " fill="none" id="Application-backto-Document" style="stroke:#A80036;stroke-width:1.0;"/><polygon fill="#FFFFFF" points="395.13,308.22,394.0776,315.3539,400.258,319.0691,401.3104,311.9352,395.13,308.22" style="stroke:#A80036;stroke-width:1.0;"/><polygon fill="#000000" points="432.9743,350.1621,428.8027,341.6153,424.5757,345.6996,432.9743,350.1621" style="stroke:#000000;stroke-width:1.0;"/><text fill="#000000" font-family="sans-serif" font-size="13" lengthAdjust="spacing" textLength="56" x="438.5" y="351.0669">contents</text><text fill="#000000" font-family="sans-serif" font-size="13" lengthAdjust="spacing" textLength="24" x="426.324" y="375.5844">0..1</text><!--MD5=[34d3520aa241427fbea18906841a2be6]
reverse link Resource_Request to Application--><path codeLine="716" d="M508.57,190.12 C482,209.63 446.41,235.77 420.34,254.92 " fill="none" id="Resource_Request-backto-Application" style="stroke:#A80036;stroke-width:1.0;"/><polygon fill="none" points="504.65,184.32,524.91,178.12,512.93,195.6,504.65,184.32" style="stroke:#A80036;stroke-width:1.0;"/><!--MD5=[392b5d5331db5043115a06bd654f787a]
link Agent to Date_Range--><path codeLine="15" d="M790.5,85.28 C790.5,103.71 790.5,125.09 790.5,140.42 " fill="none" id="Agent-to-Date_Range" style="stroke:#A80036;stroke-width:1.0;stroke-dasharray:7.0,7.0;"/><polygon fill="#A80036" points="790.5,145.77,794.5,136.77,790.5,140.77,786.5,136.77,790.5,145.77" style="stroke:#A80036;stroke-width:1.0;"/><!--MD5=[d43df4fbdad36fd00892352d175d5460]
link Agent to Contact_Information--><path codeLine="16" d="M846.91,85.28 C875.51,104.68 908.9,127.34 931.66,142.78 " fill="none" id="Agent-to-Contact_Information" style="stroke:#A80036;stroke-width:1.0;stroke-dasharray:7.0,7.0;"/><polygon fill="#A80036" points="936.06,145.77,930.8764,137.3956,931.9286,142.9538,926.3704,144.0059,936.06,145.77" style="stroke:#A80036;stroke-width:1.0;"/><text fill="#000000" font-family="sans-serif" font-size="13" lengthAdjust="spacing" textLength="23" x="901.8174" y="134.9983">0..*</text><!--MD5=[99eb79a5f2da6a3539a2315dc6fc09c9]
reverse link Agent to Resource_Offer--><path codeLine="566" d="M907.71,85.62 C970.43,106.28 1044.1,130.55 1090.54,145.86 " fill="none" id="Agent-backto-Resource_Offer" style="stroke:#A80036;stroke-width:1.0;"/><polygon fill="#A80036" points="902.84,84.01,910.1432,90.6178,907.5905,85.5697,912.6387,83.017,902.84,84.01" style="stroke:#A80036;stroke-width:1.0;"/><text fill="#000000" font-family="sans-serif" font-size="13" lengthAdjust="spacing" textLength="71" x="847.6883" y="105.4343">solicited by</text><!--MD5=[d43c569b2c93336ab3caeea3dfd29687]
link Resource_Offer to Resource--><path codeLine="694" d="M1122.51,178.36 C1103.13,199.65 1068.1,238.11 1047.01,261.27 " fill="none" id="Resource_Offer-to-Resource" style="stroke:#A80036;stroke-width:1.0;"/><polygon fill="#A80036" points="1043.49,265.14,1052.5084,261.1816,1046.8576,261.4442,1046.5951,255.7934,1043.49,265.14" style="stroke:#A80036;stroke-width:1.0;"/><polygon fill="#000000" points="1094.1335,220.2633,1102.3965,215.5543,1098.0506,211.5968,1094.1335,220.2633" style="stroke:#000000;stroke-width:1.0;"/><text fill="#000000" font-family="sans-serif" font-size="13" lengthAdjust="spacing" textLength="12" x="1106.5" y="221.0669">of</text><text fill="#000000" font-family="sans-serif" font-size="13" lengthAdjust="spacing" textLength="23" x="1091.3851" y="198.0534">0..*</text><text fill="#000000" font-family="sans-serif" font-size="13" lengthAdjust="spacing" textLength="23" x="1021.3148" y="254.3253">1..*</text><!--MD5=[70b48935e489e5910f3d4342ebe97e3f]
reverse link Resource_Offer to Condition--><path codeLine="707" d="M1141.11,191.48 C1144.85,214.66 1150,246.49 1153.02,265.14 " fill="none" id="Resource_Offer-backto-Condition" style="stroke:#A80036;stroke-width:1.0;"/><polygon fill="#FFFFFF" points="1138.98,178.36,1135.9876,184.9209,1140.8929,190.2066,1143.8853,183.6457,1138.98,178.36" style="stroke:#A80036;stroke-width:1.0;"/><polygon fill="#000000" points="1151.2981,221.5023,1152.7556,212.1041,1146.9531,213.0423,1151.2981,221.5023" style="stroke:#000000;stroke-width:1.0;"/><text fill="#000000" font-family="sans-serif" font-size="13" lengthAdjust="spacing" textLength="23" x="1159.5" y="221.0669">has</text><text fill="#000000" font-family="sans-serif" font-size="13" lengthAdjust="spacing" textLength="23" x="1125.3891" y="254.3253">0..*</text><!--MD5=[de101208c945d7bf9a03e03cc38155cf]
reverse link Resource_Offer to Document--><path codeLine="724" d="M1074.79,182.13 C1020.4,199.52 939.33,226.71 870.5,255 C771.79,295.57 660.84,350.64 593.84,384.99 " fill="none" id="Resource_Offer-backto-Document" style="stroke:#A80036;stroke-width:1.0;"/><polygon fill="#FFFFFF" points="1087.34,178.15,1080.4093,176.1585,1075.9054,181.7901,1082.8361,183.7816,1087.34,178.15" style="stroke:#A80036;stroke-width:1.0;"/><polygon fill="#000000" points="870.893,283.5096,880.3693,282.7023,878.0849,277.2864,870.893,283.5096" style="stroke:#000000;stroke-width:1.0;"/><text fill="#000000" font-family="sans-serif" font-size="13" lengthAdjust="spacing" textLength="81" x="884.5" y="286.0669">described by</text><text fill="#000000" font-family="sans-serif" font-size="13" lengthAdjust="spacing" textLength="24" x="1043.0807" y="198.073">0..1</text><text fill="#000000" font-family="sans-serif" font-size="13" lengthAdjust="spacing" textLength="23" x="581.1195" y="373.7557">0..*</text><!--MD5=[fc92b3bd86963d223135ad44997ca08d]
reverse link Resource_Request to Document--><path codeLine="720" d="M544.05,191.24 C541.62,238.81 536.72,334.64 534.15,384.77 " fill="none" id="Resource_Request-backto-Document" style="stroke:#A80036;stroke-width:1.0;"/><polygon fill="#FFFFFF" points="544.73,178.13,540.4319,183.9202,544.1235,190.1147,548.4216,184.3245,544.73,178.13" style="stroke:#A80036;stroke-width:1.0;"/><polygon fill="#000000" points="546.2446,286.5599,549.6417,277.6767,543.7716,277.3765,546.2446,286.5599" style="stroke:#000000;stroke-width:1.0;"/><text fill="#000000" font-family="sans-serif" font-size="13" lengthAdjust="spacing" textLength="77" x="555.5" y="286.0669">described in</text><text fill="#000000" font-family="sans-serif" font-size="13" lengthAdjust="spacing" textLength="24" x="516.4999" y="198.0463">0..1</text><text fill="#000000" font-family="sans-serif" font-size="13" lengthAdjust="spacing" textLength="23" x="509.2108" y="373.8697">0..*</text><!--MD5=[633efb3059d8abd5e23b324815a30d32]
link Resource_Request to Resource_Request--><path codeLine="728" d="M620.22,153.45 C640.01,153.94 655,156.79 655,162 C655,166.72 642.69,169.51 625.65,170.35 " fill="none" id="Resource_Request-to-Resource_Request" style="stroke:#A80036;stroke-width:1.0;"/><polygon fill="#A80036" points="620.22,170.55,629.3627,174.2122,625.2165,170.3639,629.0649,166.2178,620.22,170.55" style="stroke:#A80036;stroke-width:1.0;"/><polygon fill="#000000" points="660.1238,167.0649,662.8379,157.9498,656.9618,158.0953,660.1238,167.0649" style="stroke:#000000;stroke-width:1.0;"/><text fill="#000000" font-family="sans-serif" font-size="13" lengthAdjust="spacing" textLength="38" x="674" y="166.5669">revise</text><text fill="#000000" font-family="sans-serif" font-size="13" lengthAdjust="spacing" textLength="23" x="627.899" y="149.0934">0..*</text><text fill="#000000" font-family="sans-serif" font-size="13" lengthAdjust="spacing" textLength="24" x="627.9435" y="167.7163">0..1</text><!--MD5=[0db8103b3d861b3f1c0ae604b4b70acc]
link Resource_Request to Resource--><path codeLine="732" d="M607.54,178.06 C682.6,196.28 812.81,227.88 924.5,255 C942.09,259.27 961.35,263.95 978.51,268.11 " fill="none" id="Resource_Request-to-Resource" style="stroke:#A80036;stroke-width:1.0;"/><polygon fill="#A80036" points="983.76,269.39,975.9487,263.3914,978.8994,268.2177,974.073,271.1684,983.76,269.39" style="stroke:#A80036;stroke-width:1.0;"/><polygon fill="#000000" points="809.3589,217.7459,801.2623,212.7562,799.8758,218.4682,809.3589,217.7459" style="stroke:#000000;stroke-width:1.0;"/><text fill="#000000" font-family="sans-serif" font-size="13" lengthAdjust="spacing" textLength="12" x="813.5" y="221.0669">of</text><text fill="#000000" font-family="sans-serif" font-size="13" lengthAdjust="spacing" textLength="23" x="601.2814" y="197.9531">0..*</text><text fill="#000000" font-family="sans-serif" font-size="13" lengthAdjust="spacing" textLength="23" x="953.0684" y="263.8307">1..*</text><!--MD5=[fe5a6d20c914780ef904d1216500e5bb]
link Funding to Monetary_Amount--><path codeLine="272" d="M1273.5,444.6 C1273.5,462.35 1273.5,486.36 1273.5,506.68 " fill="none" id="Funding-to-Monetary_Amount" style="stroke:#A80036;stroke-width:1.0;stroke-dasharray:7.0,7.0;"/><polygon fill="#A80036" points="1273.5,511.75,1277.5,502.75,1273.5,506.75,1269.5,502.75,1273.5,511.75" style="stroke:#A80036;stroke-width:1.0;"/><!--MD5=[a21829bf9e22d7ad2257d12c520c50b2]
reverse link Resource to Funding--><path codeLine="276" d="M1074.68,307.4 C1118.01,331.29 1183.14,367.19 1226.93,391.33 " fill="none" id="Resource-backto-Funding" style="stroke:#A80036;stroke-width:1.0;"/><polygon fill="none" points="1071.15,313.45,1057.02,297.67,1077.91,301.19,1071.15,313.45" style="stroke:#A80036;stroke-width:1.0;"/><!--MD5=[7072accdc040e53c8442e4ca7ea58660]
link Funding to Funding--><path codeLine="325" d="M1363.67,406.67 C1383.81,407.72 1398.5,411.49 1398.5,418 C1398.5,424.51 1383.81,428.28 1363.67,429.33 " fill="none" id="Funding-Funding" style="stroke:#A80036;stroke-width:1.0;"/><polygon fill="#000000" points="1403.7603,423.0596,1406.2243,413.8738,1400.3545,414.1798,1403.7603,423.0596" style="stroke:#000000;stroke-width:1.0;"/><text fill="#000000" font-family="sans-serif" font-size="13" lengthAdjust="spacing" textLength="56" x="1417.5" y="422.5669">is part of</text><text fill="#000000" font-family="sans-serif" font-size="13" lengthAdjust="spacing" textLength="23" x="1371.4541" y="402.3078">0..*</text><text fill="#000000" font-family="sans-serif" font-size="13" lengthAdjust="spacing" textLength="23" x="1371.4541" y="426.7027">0..*</text><!--MD5=[ff11c2ae19cf8b0222e8ec830cb319de]
link Activity to Funding--><path codeLine="829" d="M1375.83,182.84 C1356.47,227.14 1309.64,334.3 1286.66,386.88 " fill="none" id="Activity-Funding" style="stroke:#A80036;stroke-width:1.0;"/><polygon fill="#A80036" points="1284.65,391.49,1291.922,384.8479,1286.6541,386.9092,1284.5927,381.6413,1284.65,391.49" style="stroke:#A80036;stroke-width:1.0;"/><polygon fill="#A80036" points="1377.89,178.13,1370.6256,184.7805,1375.8912,182.7131,1377.9585,187.9786,1377.89,178.13" style="stroke:#A80036;stroke-width:1.0;"/><text fill="#000000" font-family="sans-serif" font-size="13" lengthAdjust="spacing" textLength="69" x="1295.3602" y="198.0956">0..* covers</text><text fill="#000000" font-family="sans-serif" font-size="13" lengthAdjust="spacing" textLength="90" x="1186.3991" y="380.3069">0..* funded by</text><!--MD5=[b2c19dd082d0b6980457b5ba90e9353b]
link Project to Funding--><path codeLine="830" d="M1273.5,183.4 C1273.5,227.86 1273.5,333.69 1273.5,386.27 " fill="none" id="Project-Funding" style="stroke:#A80036;stroke-width:1.0;"/><polygon fill="#A80036" points="1273.5,391.49,1277.5,382.49,1273.5,386.49,1269.5,382.49,1273.5,391.49" style="stroke:#A80036;stroke-width:1.0;"/><polygon fill="#A80036" points="1273.5,178.13,1269.5,187.13,1273.5,183.13,1277.5,187.13,1273.5,178.13" style="stroke:#A80036;stroke-width:1.0;"/><text fill="#000000" font-family="sans-serif" font-size="13" lengthAdjust="spacing" textLength="69" x="1198.7169" y="198.1637">0..* covers</text><text fill="#000000" font-family="sans-serif" font-size="13" lengthAdjust="spacing" textLength="90" x="1284.4688" y="380.3069">0..* funded by</text><!--MD5=[dc4598ce2d2e32aede71f5bf98c1fc33]
reverse link Application to Funding_Application--><path codeLine="519" d="M370.87,327.2 C369.72,330.85 368.58,334.49 367.5,338 C360.7,360.12 353.29,385.88 348.77,401.81 " fill="none" id="Application-backto-Funding_Application" style="stroke:#A80036;stroke-width:1.0;"/><polygon fill="none" points="364.21,325.04,377,308.15,377.54,329.33,364.21,325.04" style="stroke:#A80036;stroke-width:1.0;"/><!--MD5=[ce01e496d5f2dcc88ba1226d075cb019]
reverse link Call_for_Applications to Call_for_Funding_Applications--><path codeLine="590" d="M114.5,317.86 C114.5,345.1 114.5,381.42 114.5,401.68 " fill="none" id="Call_for_Applications-backto-Call_for_Funding_Applications" style="stroke:#A80036;stroke-width:1.0;"/><polygon fill="none" points="107.5,317.67,114.5,297.67,121.5,317.67,107.5,317.67" style="stroke:#A80036;stroke-width:1.0;"/><!--MD5=[c4cf48dfa116a462588209416946e9b0]
@startuml

    !includesub core.puml!common
    !includesub core.puml!Call_for_Applications
    !includesub core.puml!Application
    !includesub core.puml!Resource
    !includesub core.puml!Document
    !includesub core.puml!Agent
    !includesub core.puml!Resource_Offer
    !includesub core.puml!Resource_Request
    !includesub core.puml!Condition
    !includesub core.puml!Funding
    !includesub core.puml!Funding_Application
    !includesub core.puml!Call_for_Funding_Applications

@enduml

@startuml

    hide empty members
    skinparam BoxPadding 120
    class "Call_for_Applications" #ffffff {
    }
    "Application" "0..*" -l- "0..1" "Call_for_Applications" : in response to >
	"Resource_Offer" <|- - "Call_for_Applications"
    class "Application" #ffffff {
        date : Date
    }
    "Application" -u-> "0..1" "Agent" : applicant >
    "Application" -u-> "0..1" "Agent" : addressee >
    "Application" o- - "0..1" "Document" : contents >
	"Resource_Request" <|- - "Application"
    class "Resource" #ffffff {
    }
    class "Document" #ffffff {
        title : Multilingual_String
        publicationDate : Date
    }
    class "Agent" #ffffff {
        keywords : List<Multilingual_String>
    	lifetime : Date_Range
    	contacts : List<Contact_Information>
    }
    "Agent" ..> "Date_Range"
    "Agent" ..> "0..*" "Contact_Information"
	"Resource_Offer" -u-> "solicited by" "Agent"
	class "Resource_Offer" #ffffff {
	}
	"Resource_Offer" "0..*" - -> "1..*" "Resource" : of >
	"Resource_Offer" o- - "0..*" "Condition" : has >
	"Resource_Offer" "0..1" o- - "0..*" "Document" : described by >
	class "Resource_Request" #ffffff {
	}
	"Resource_Request" "0..1" o- - "0..*" "Document" : described in >
	"Resource_Request" "0..*" - -> "0..1" "Resource_Request" : revise >
	"Resource_Request" "0..*" - -> "1..*" "Resource" : of >
	class "Condition" #ffffff {
	}
    class "Funding" #ffffff {
        amount  :   Monetary_Amount
    }
    class Monetary_Amount << (D,#add0b2) DataType>> #ffffff {
        amount : Decimal
        currencyCode  : ISO_4217_Alpha_Code
    }
    "Funding" ..> "Monetary_Amount"
     "Resource" <|- - "Funding"
     "Funding" "0..*" - - "0..*" "Funding" : is part of >
    "Activity" "0..* covers" <- - -> "0..* funded by" "Funding"
    "Project" "0..* covers" <- - -> "0..* funded by" "Funding"
    class "Funding_Application" #ffffff {
    }
    "Application" <|- - "Funding_Application"
    class "Call_for_Funding_Applications" #ffffff {
    }
    "Call_for_Applications" <|- - "Call_for_Funding_Applications"

@enduml

PlantUML version 1.2021.8(Sat Jun 26 08:20:59 UTC 2021)
(GPL source distribution)
Java Runtime: OpenJDK Runtime Environment
JVM: OpenJDK 64-Bit Server VM
Default Encoding: UTF-8
Language: en
Country: null
--></g></svg>