<svg xmlns="http://www.w3.org/2000/svg" xmlns:xlink="http://www.w3.org/1999/xlink" contentStyleType="text/css" data-diagram-type="CLASS" height="764px" preserveAspectRatio="none" style="width:1604px;height:764px;background:#FFFFFF;" version="1.1" viewBox="0 0 1604 764" width="1604px" zoomAndPan="magnify"><defs/><g><!--class Call_for_Applications--><g class="entity" data-entity="Call_for_Applications" data-source-line="553" data-uid="ent0002" id="entity_Call_for_Applications"><rect fill="#FFFFFF" height="32" rx="2.5" ry="2.5" style="stroke:#181818;stroke-width:0.5;" width="174.9736" x="38.08" y="294.71"/><ellipse cx="53.08" cy="310.71" fill="#ADD1B2" rx="11" ry="11" style="stroke:#181818;stroke-width:1;"/><path d="M55.5531,316.8531 Q54.9721,317.1519 54.3329,317.3013 Q53.6938,317.4507 52.9882,317.4507 Q50.4814,317.4507 49.1615,315.7989 Q47.8417,314.147 47.8417,311.0259 Q47.8417,307.8965 49.1615,306.2447 Q50.4814,304.5928 52.9882,304.5928 Q53.6938,304.5928 54.3412,304.7422 Q54.9887,304.8916 55.5531,305.1905 L55.5531,307.9131 Q54.9223,307.3321 54.3288,307.0623 Q53.7353,306.7925 53.1044,306.7925 Q51.7597,306.7925 51.0749,307.8592 Q50.3901,308.9258 50.3901,311.0259 Q50.3901,313.1177 51.0749,314.1844 Q51.7597,315.251 53.1044,315.251 Q53.7353,315.251 54.3288,314.9812 Q54.9223,314.7115 55.5531,314.1304 Z " fill="#000000"/><text fill="#000000" font-family="sans-serif" font-size="14" lengthAdjust="spacing" textLength="142.9736" x="67.08" y="316.001">Call_for_Applications</text></g><!--class Application--><g class="entity" data-entity="Application" data-source-line="604" data-uid="ent0003" id="entity_Application"><rect fill="#FFFFFF" height="56.4883" rx="2.5" ry="2.5" style="stroke:#181818;stroke-width:0.5;" width="108.8496" x="800.14" y="282.47"/><ellipse cx="815.14" cy="298.47" fill="#ADD1B2" rx="11" ry="11" style="stroke:#181818;stroke-width:1;"/><path d="M817.6131,304.6131 Q817.0321,304.9119 816.3929,305.0613 Q815.7538,305.2107 815.0482,305.2107 Q812.5414,305.2107 811.2215,303.5589 Q809.9017,301.907 809.9017,298.7859 Q809.9017,295.6565 811.2215,294.0047 Q812.5414,292.3528 815.0482,292.3528 Q815.7538,292.3528 816.4012,292.5022 Q817.0487,292.6516 817.6131,292.9505 L817.6131,295.6731 Q816.9823,295.0921 816.3888,294.8223 Q815.7953,294.5525 815.1644,294.5525 Q813.8197,294.5525 813.1349,295.6192 Q812.4501,296.6858 812.4501,298.7859 Q812.4501,300.8777 813.1349,301.9444 Q813.8197,303.011 815.1644,303.011 Q815.7953,303.011 816.3888,302.7412 Q816.9823,302.4715 817.6131,301.8904 Z " fill="#000000"/><text fill="#000000" font-family="sans-serif" font-size="14" lengthAdjust="spacing" textLength="76.8496" x="829.14" y="303.761">Application</text><line style="stroke:#181818;stroke-width:0.5;" x1="801.14" x2="907.9896" y1="314.47" y2="314.47"/><text fill="#000000" font-family="sans-serif" font-size="14" lengthAdjust="spacing" textLength="74.1221" x="806.14" y="332.0052">date : Date</text></g><!--class Resource_Offer--><g class="entity" data-entity="Resource_Offer" data-source-line="716" data-uid="ent0006" id="entity_Resource_Offer"><rect fill="#FFFFFF" height="32" rx="2.5" ry="2.5" style="stroke:#181818;stroke-width:0.5;" width="135.4756" x="416.83" y="173.47"/><ellipse cx="431.83" cy="189.47" fill="#ADD1B2" rx="11" ry="11" style="stroke:#181818;stroke-width:1;"/><path d="M434.3031,195.6131 Q433.7221,195.9119 433.0829,196.0613 Q432.4438,196.2107 431.7382,196.2107 Q429.2314,196.2107 427.9115,194.5589 Q426.5917,192.907 426.5917,189.7859 Q426.5917,186.6565 427.9115,185.0047 Q429.2314,183.3528 431.7382,183.3528 Q432.4438,183.3528 433.0912,183.5022 Q433.7387,183.6516 434.3031,183.9505 L434.3031,186.6731 Q433.6723,186.0921 433.0788,185.8223 Q432.4853,185.5525 431.8544,185.5525 Q430.5097,185.5525 429.8249,186.6192 Q429.1401,187.6858 429.1401,189.7859 Q429.1401,191.8777 429.8249,192.9444 Q430.5097,194.011 431.8544,194.011 Q432.4853,194.011 433.0788,193.7412 Q433.6723,193.4715 434.3031,192.8904 Z " fill="#000000"/><text fill="#000000" font-family="sans-serif" font-size="14" lengthAdjust="spacing" textLength="103.4756" x="445.83" y="194.761">Resource_Offer</text></g><!--class Resource_Request--><g class="entity" data-entity="Resource_Request" data-source-line="734" data-uid="ent0008" id="entity_Resource_Request"><rect fill="#FFFFFF" height="32" rx="2.5" ry="2.5" style="stroke:#181818;stroke-width:0.5;" width="155.1016" x="773.02" y="173.47"/><ellipse cx="788.02" cy="189.47" fill="#ADD1B2" rx="11" ry="11" style="stroke:#181818;stroke-width:1;"/><path d="M790.4931,195.6131 Q789.9121,195.9119 789.2729,196.0613 Q788.6338,196.2107 787.9282,196.2107 Q785.4214,196.2107 784.1015,194.5589 Q782.7817,192.907 782.7817,189.7859 Q782.7817,186.6565 784.1015,185.0047 Q785.4214,183.3528 787.9282,183.3528 Q788.6338,183.3528 789.2812,183.5022 Q789.9287,183.6516 790.4931,183.9505 L790.4931,186.6731 Q789.8623,186.0921 789.2688,185.8223 Q788.6753,185.5525 788.0444,185.5525 Q786.6997,185.5525 786.0149,186.6192 Q785.3301,187.6858 785.3301,189.7859 Q785.3301,191.8777 786.0149,192.9444 Q786.6997,194.011 788.0444,194.011 Q788.6753,194.011 789.2688,193.7412 Q789.8623,193.4715 790.4931,192.8904 Z " fill="#000000"/><text fill="#000000" font-family="sans-serif" font-size="14" lengthAdjust="spacing" textLength="123.1016" x="802.02" y="194.761">Resource_Request</text></g><!--class Resource--><g class="entity" data-entity="Resource" data-source-line="254" data-uid="ent0010" id="entity_Resource"><rect fill="#FFFFFF" height="32" rx="2.5" ry="2.5" style="stroke:#181818;stroke-width:0.5;" width="93.7764" x="943.68" y="294.71"/><ellipse cx="958.68" cy="310.71" fill="#ADD1B2" rx="11" ry="11" style="stroke:#181818;stroke-width:1;"/><path d="M961.1531,316.8531 Q960.5721,317.1519 959.9329,317.3013 Q959.2938,317.4507 958.5882,317.4507 Q956.0814,317.4507 954.7615,315.7989 Q953.4417,314.147 953.4417,311.0259 Q953.4417,307.8965 954.7615,306.2447 Q956.0814,304.5928 958.5882,304.5928 Q959.2938,304.5928 959.9412,304.7422 Q960.5887,304.8916 961.1531,305.1905 L961.1531,307.9131 Q960.5223,307.3321 959.9288,307.0623 Q959.3353,306.7925 958.7044,306.7925 Q957.3597,306.7925 956.6749,307.8592 Q955.9901,308.9258 955.9901,311.0259 Q955.9901,313.1177 956.6749,314.1844 Q957.3597,315.251 958.7044,315.251 Q959.3353,315.251 959.9288,314.9812 Q960.5223,314.7115 961.1531,314.1304 Z " fill="#000000"/><text fill="#000000" font-family="sans-serif" font-size="14" lengthAdjust="spacing" textLength="61.7764" x="972.68" y="316.001">Resource</text></g><!--class Document--><g class="entity" data-entity="Document" data-source-line="299" data-uid="ent0011" id="entity_Document"><rect fill="#FFFFFF" height="56.4883" rx="2.5" ry="2.5" style="stroke:#181818;stroke-width:0.5;" width="178.6807" x="382.23" y="282.47"/><ellipse cx="432.4502" cy="298.47" fill="#ADD1B2" rx="11" ry="11" style="stroke:#181818;stroke-width:1;"/><path d="M434.9234,304.6131 Q434.3423,304.9119 433.7031,305.0613 Q433.064,305.2107 432.3584,305.2107 Q429.8516,305.2107 428.5318,303.5589 Q427.2119,301.907 427.2119,298.7859 Q427.2119,295.6565 428.5318,294.0047 Q429.8516,292.3528 432.3584,292.3528 Q433.064,292.3528 433.7114,292.5022 Q434.3589,292.6516 434.9234,292.9505 L434.9234,295.6731 Q434.2925,295.0921 433.699,294.8223 Q433.1055,294.5525 432.4746,294.5525 Q431.1299,294.5525 430.4451,295.6192 Q429.7603,296.6858 429.7603,298.7859 Q429.7603,300.8777 430.4451,301.9444 Q431.1299,303.011 432.4746,303.011 Q433.1055,303.011 433.699,302.7412 Q434.2925,302.4715 434.9234,301.8904 Z " fill="#000000"/><text fill="#000000" font-family="sans-serif" font-size="14" lengthAdjust="spacing" textLength="69.7402" x="452.9502" y="303.761">Document</text><line style="stroke:#181818;stroke-width:0.5;" x1="383.23" x2="559.9107" y1="314.47" y2="314.47"/><text fill="#000000" font-family="sans-serif" font-size="14" lengthAdjust="spacing" textLength="166.6807" x="388.23" y="332.0052">title : Multilingual_String</text></g><!--class Contents_Location--><g class="entity" data-entity="Contents_Location" data-source-line="304" data-uid="ent0013" id="entity_Contents_Location"><rect fill="#FFFFFF" height="65.1094" rx="2.5" ry="2.5" style="stroke:#181818;stroke-width:0.5;" width="157.6104" x="392.76" y="541.69"/><ellipse cx="407.76" cy="562.0005" fill="#ADD0B2" rx="11" ry="11" style="stroke:#181818;stroke-width:1;"/><path d="M406.8459,558.3155 L406.8459,566.2925 L407.51,566.2925 Q408.9543,566.2925 409.5686,565.3836 Q410.1829,564.4747 410.1829,562.2916 Q410.1829,560.1251 409.5686,559.2203 Q408.9543,558.3155 407.51,558.3155 Z M404.3972,556.1075 L407.0203,556.1075 Q410.0583,556.1075 411.3948,557.556 Q412.7312,559.0045 412.7312,562.2916 Q412.7312,565.587 411.3948,567.0438 Q410.0583,568.5005 407.0203,568.5005 L404.3972,568.5005 Z " fill="#000000"/><text fill="#000000" font-family="sans-serif" font-size="12" font-style="italic" lengthAdjust="spacing" textLength="67.4004" x="450.865" y="558.2916">&#171;DataType&#187;</text><text fill="#000000" font-family="sans-serif" font-size="14" lengthAdjust="spacing" textLength="125.6104" x="421.76" y="574.358">Contents_Location</text><line style="stroke:#181818;stroke-width:0.5;" x1="393.76" x2="549.3704" y1="582.3111" y2="582.3111"/><text fill="#000000" font-family="sans-serif" font-size="14" lengthAdjust="spacing" textLength="106.0459" x="398.76" y="599.8462">number : String</text></g><ellipse cx="471.57" cy="444.2" fill="#181818" rx="2" ry="2" style="stroke:#181818;stroke-width:1;"/><!--class Page_Based_Contents_Location--><g class="entity" data-entity="Page_Based_Contents_Location" data-source-line="315" data-uid="ent0020" id="entity_Page_Based_Contents_Location"><rect fill="#FFFFFF" height="81.5977" rx="2.5" ry="2.5" style="stroke:#181818;stroke-width:0.5;" width="243.1416" x="211" y="676.04"/><ellipse cx="226" cy="696.3505" fill="#ADD0B2" rx="11" ry="11" style="stroke:#181818;stroke-width:1;"/><path d="M225.0859,692.6655 L225.0859,700.6425 L225.75,700.6425 Q227.1943,700.6425 227.8086,699.7336 Q228.4229,698.8247 228.4229,696.6416 Q228.4229,694.4751 227.8086,693.5703 Q227.1943,692.6655 225.75,692.6655 Z M222.6372,690.4575 L225.2603,690.4575 Q228.2983,690.4575 229.6348,691.906 Q230.9712,693.3545 230.9712,696.6416 Q230.9712,699.937 229.6348,701.3938 Q228.2983,702.8505 225.2603,702.8505 L222.6372,702.8505 Z " fill="#000000"/><text fill="#000000" font-family="sans-serif" font-size="12" font-style="italic" lengthAdjust="spacing" textLength="67.4004" x="311.8706" y="692.6416">&#171;DataType&#187;</text><text fill="#000000" font-family="sans-serif" font-size="14" lengthAdjust="spacing" textLength="211.1416" x="240" y="708.708">Page_Based_Contents_Location</text><line style="stroke:#181818;stroke-width:0.5;" x1="212" x2="453.1416" y1="716.6611" y2="716.6611"/><text fill="#000000" font-family="sans-serif" font-size="14" lengthAdjust="spacing" textLength="116.3271" x="217" y="734.1963">startPage : String</text><text fill="#000000" font-family="sans-serif" font-size="14" lengthAdjust="spacing" textLength="110.5576" x="217" y="750.6845">endPage : String</text></g><!--class Time_Based_Contents_Location--><g class="entity" data-entity="Time_Based_Contents_Location" data-source-line="322" data-uid="ent0022" id="entity_Time_Based_Contents_Location"><rect fill="#FFFFFF" height="81.5977" rx="2.5" ry="2.5" style="stroke:#181818;stroke-width:0.5;" width="244.9121" x="489.11" y="676.04"/><ellipse cx="504.11" cy="696.3505" fill="#ADD0B2" rx="11" ry="11" style="stroke:#181818;stroke-width:1;"/><path d="M503.1959,692.6655 L503.1959,700.6425 L503.86,700.6425 Q505.3043,700.6425 505.9186,699.7336 Q506.5329,698.8247 506.5329,696.6416 Q506.5329,694.4751 505.9186,693.5703 Q505.3043,692.6655 503.86,692.6655 Z M500.7472,690.4575 L503.3703,690.4575 Q506.4083,690.4575 507.7448,691.906 Q509.0812,693.3545 509.0812,696.6416 Q509.0812,699.937 507.7448,701.3938 Q506.4083,702.8505 503.3703,702.8505 L500.7472,702.8505 Z " fill="#000000"/><text fill="#000000" font-family="sans-serif" font-size="12" font-style="italic" lengthAdjust="spacing" textLength="67.4004" x="590.8659" y="692.6416">&#171;DataType&#187;</text><text fill="#000000" font-family="sans-serif" font-size="14" lengthAdjust="spacing" textLength="212.9121" x="518.11" y="708.708">Time_Based_Contents_Location</text><line style="stroke:#181818;stroke-width:0.5;" x1="490.11" x2="733.0221" y1="716.6611" y2="716.6611"/><text fill="#000000" font-family="sans-serif" font-size="14" lengthAdjust="spacing" textLength="111.8975" x="495.11" y="734.1963">startTime : Time</text><text fill="#000000" font-family="sans-serif" font-size="14" lengthAdjust="spacing" textLength="106.1279" x="495.11" y="750.6845">endTime : Time</text></g><!--class Agent--><g class="entity" data-entity="Agent" data-source-line="10" data-uid="ent0024" id="entity_Agent"><rect fill="#FFFFFF" height="89.4648" rx="2.5" ry="2.5" style="stroke:#181818;stroke-width:0.5;" width="267.3223" x="834.91" y="7"/><ellipse cx="944.2645" cy="23" fill="#ADD1B2" rx="11" ry="11" style="stroke:#181818;stroke-width:1;"/><path d="M946.7376,29.1431 Q946.1566,29.4419 945.5174,29.5913 Q944.8783,29.7407 944.1727,29.7407 Q941.6659,29.7407 940.346,28.0889 Q939.0262,26.437 939.0262,23.3159 Q939.0262,20.1865 940.346,18.5347 Q941.6659,16.8828 944.1727,16.8828 Q944.8783,16.8828 945.5257,17.0322 Q946.1732,17.1816 946.7376,17.4805 L946.7376,20.2031 Q946.1068,19.6221 945.5133,19.3523 Q944.9198,19.0825 944.2889,19.0825 Q942.9442,19.0825 942.2594,20.1492 Q941.5746,21.2158 941.5746,23.3159 Q941.5746,25.4077 942.2594,26.4744 Q942.9442,27.541 944.2889,27.541 Q944.9198,27.541 945.5133,27.2712 Q946.1068,27.0015 946.7376,26.4204 Z " fill="#000000"/><text fill="#000000" font-family="sans-serif" font-size="14" lengthAdjust="spacing" textLength="40.1133" x="964.7645" y="28.291">Agent</text><line style="stroke:#181818;stroke-width:0.5;" x1="835.91" x2="1101.2323" y1="39" y2="39"/><text fill="#000000" font-family="sans-serif" font-size="14" lengthAdjust="spacing" textLength="250.8174" x="840.91" y="56.5352">keywords : List&lt;Multilingual_String&gt;</text><text fill="#000000" font-family="sans-serif" font-size="14" lengthAdjust="spacing" textLength="144.5391" x="840.91" y="73.0234">lifetime : Date_Range</text><text fill="#000000" font-family="sans-serif" font-size="14" lengthAdjust="spacing" textLength="255.3223" x="840.91" y="89.5117">contacts : List&lt;Contact_Information&gt;</text></g><!--class Date_Range--><g class="entity" data-entity="Date_Range" data-source-line="15" data-uid="ent0025" id="entity_Date_Range"><rect fill="#F1F1F1" height="32" rx="2.5" ry="2.5" style="stroke:#181818;stroke-width:0.5;" width="112.0557" x="1279.54" y="173.47"/><ellipse cx="1294.54" cy="189.47" fill="#ADD1B2" rx="11" ry="11" style="stroke:#181818;stroke-width:1;"/><path d="M1297.0131,195.6131 Q1296.4321,195.9119 1295.7929,196.0613 Q1295.1538,196.2107 1294.4482,196.2107 Q1291.9414,196.2107 1290.6215,194.5589 Q1289.3017,192.907 1289.3017,189.7859 Q1289.3017,186.6565 1290.6215,185.0047 Q1291.9414,183.3528 1294.4482,183.3528 Q1295.1538,183.3528 1295.8012,183.5022 Q1296.4487,183.6516 1297.0131,183.9505 L1297.0131,186.6731 Q1296.3823,186.0921 1295.7888,185.8223 Q1295.1953,185.5525 1294.5644,185.5525 Q1293.2197,185.5525 1292.5349,186.6192 Q1291.8501,187.6858 1291.8501,189.7859 Q1291.8501,191.8777 1292.5349,192.9444 Q1293.2197,194.011 1294.5644,194.011 Q1295.1953,194.011 1295.7888,193.7412 Q1296.3823,193.4715 1297.0131,192.8904 Z " fill="#000000"/><text fill="#000000" font-family="sans-serif" font-size="14" lengthAdjust="spacing" textLength="80.0557" x="1308.54" y="194.761">Date_Range</text></g><!--class Contact_Information--><g class="entity" data-entity="Contact_Information" data-source-line="16" data-uid="ent0027" id="entity_Contact_Information"><rect fill="#F1F1F1" height="32" rx="2.5" ry="2.5" style="stroke:#181818;stroke-width:0.5;" width="170.9199" x="1426.11" y="173.47"/><ellipse cx="1441.11" cy="189.47" fill="#ADD1B2" rx="11" ry="11" style="stroke:#181818;stroke-width:1;"/><path d="M1443.5831,195.6131 Q1443.0021,195.9119 1442.3629,196.0613 Q1441.7238,196.2107 1441.0182,196.2107 Q1438.5114,196.2107 1437.1915,194.5589 Q1435.8717,192.907 1435.8717,189.7859 Q1435.8717,186.6565 1437.1915,185.0047 Q1438.5114,183.3528 1441.0182,183.3528 Q1441.7238,183.3528 1442.3712,183.5022 Q1443.0187,183.6516 1443.5831,183.9505 L1443.5831,186.6731 Q1442.9523,186.0921 1442.3588,185.8223 Q1441.7653,185.5525 1441.1344,185.5525 Q1439.7897,185.5525 1439.1049,186.6192 Q1438.4201,187.6858 1438.4201,189.7859 Q1438.4201,191.8777 1439.1049,192.9444 Q1439.7897,194.011 1441.1344,194.011 Q1441.7653,194.011 1442.3588,193.7412 Q1442.9523,193.4715 1443.5831,192.8904 Z " fill="#000000"/><text fill="#000000" font-family="sans-serif" font-size="14" lengthAdjust="spacing" textLength="138.9199" x="1455.11" y="194.761">Contact_Information</text></g><!--class Condition--><g class="entity" data-entity="Condition" data-source-line="725" data-uid="ent0032" id="entity_Condition"><rect fill="#FFFFFF" height="32" rx="2.5" ry="2.5" style="stroke:#181818;stroke-width:0.5;" width="98.4043" x="248.36" y="294.71"/><ellipse cx="263.36" cy="310.71" fill="#ADD1B2" rx="11" ry="11" style="stroke:#181818;stroke-width:1;"/><path d="M265.8331,316.8531 Q265.2521,317.1519 264.6129,317.3013 Q263.9738,317.4507 263.2682,317.4507 Q260.7614,317.4507 259.4415,315.7989 Q258.1217,314.147 258.1217,311.0259 Q258.1217,307.8965 259.4415,306.2447 Q260.7614,304.5928 263.2682,304.5928 Q263.9738,304.5928 264.6212,304.7422 Q265.2687,304.8916 265.8331,305.1905 L265.8331,307.9131 Q265.2023,307.3321 264.6088,307.0623 Q264.0153,306.7925 263.3844,306.7925 Q262.0397,306.7925 261.3549,307.8592 Q260.6701,308.9258 260.6701,311.0259 Q260.6701,313.1177 261.3549,314.1844 Q262.0397,315.251 263.3844,315.251 Q264.0153,315.251 264.6088,314.9812 Q265.2023,314.7115 265.8331,314.1304 Z " fill="#000000"/><text fill="#000000" font-family="sans-serif" font-size="14" lengthAdjust="spacing" textLength="66.4043" x="277.36" y="316.001">Condition</text></g><!--class Funding--><g class="entity" data-entity="Funding" data-source-line="259" data-uid="ent0042" id="entity_Funding"><rect fill="#FFFFFF" height="56.4883" rx="2.5" ry="2.5" style="stroke:#181818;stroke-width:0.5;" width="214.6924" x="983.22" y="415.96"/><ellipse cx="1058.7366" cy="431.96" fill="#ADD1B2" rx="11" ry="11" style="stroke:#181818;stroke-width:1;"/><path d="M1061.2097,438.1031 Q1060.6287,438.4019 1059.9895,438.5513 Q1059.3504,438.7007 1058.6448,438.7007 Q1056.138,438.7007 1054.8181,437.0489 Q1053.4983,435.397 1053.4983,432.2759 Q1053.4983,429.1465 1054.8181,427.4947 Q1056.138,425.8428 1058.6448,425.8428 Q1059.3504,425.8428 1059.9978,425.9922 Q1060.6453,426.1416 1061.2097,426.4405 L1061.2097,429.1631 Q1060.5789,428.5821 1059.9854,428.3123 Q1059.3919,428.0425 1058.761,428.0425 Q1057.4163,428.0425 1056.7315,429.1092 Q1056.0467,430.1758 1056.0467,432.2759 Q1056.0467,434.3677 1056.7315,435.4344 Q1057.4163,436.501 1058.761,436.501 Q1059.3919,436.501 1059.9854,436.2312 Q1060.5789,435.9615 1061.2097,435.3804 Z " fill="#000000"/><text fill="#000000" font-family="sans-serif" font-size="14" lengthAdjust="spacing" textLength="55.1592" x="1079.2366" y="437.251">Funding</text><line style="stroke:#181818;stroke-width:0.5;" x1="984.22" x2="1196.9124" y1="447.96" y2="447.96"/><text fill="#000000" font-family="sans-serif" font-size="14" lengthAdjust="spacing" textLength="202.6924" x="989.22" y="465.4952">amount  :   Monetary_Amount</text></g><!--class Monetary_Amount--><g class="entity" data-entity="Monetary_Amount" data-source-line="265" data-uid="ent0043" id="entity_Monetary_Amount"><rect fill="#FFFFFF" height="81.5977" rx="2.5" ry="2.5" style="stroke:#181818;stroke-width:0.5;" width="275.6006" x="952.77" y="533.44"/><ellipse cx="1024.2705" cy="553.7505" fill="#ADD0B2" rx="11" ry="11" style="stroke:#181818;stroke-width:1;"/><path d="M1023.3564,550.0655 L1023.3564,558.0425 L1024.0205,558.0425 Q1025.4648,558.0425 1026.0791,557.1336 Q1026.6933,556.2247 1026.6933,554.0416 Q1026.6933,551.8751 1026.0791,550.9703 Q1025.4648,550.0655 1024.0205,550.0655 Z M1020.9077,547.8575 L1023.5307,547.8575 Q1026.5688,547.8575 1027.9053,549.306 Q1029.2417,550.7545 1029.2417,554.0416 Q1029.2417,557.337 1027.9053,558.7938 Q1026.5688,560.2505 1023.5307,560.2505 L1020.9077,560.2505 Z " fill="#000000"/><text fill="#000000" font-family="sans-serif" font-size="12" font-style="italic" lengthAdjust="spacing" textLength="67.4004" x="1073.1201" y="550.0416">&#171;DataType&#187;</text><text fill="#000000" font-family="sans-serif" font-size="14" lengthAdjust="spacing" textLength="124.0996" x="1044.7705" y="566.108">Monetary_Amount</text><line style="stroke:#181818;stroke-width:0.5;" x1="953.77" x2="1227.3706" y1="574.0611" y2="574.0611"/><text fill="#000000" font-family="sans-serif" font-size="14" lengthAdjust="spacing" textLength="119.6563" x="958.77" y="591.5962">amount : Decimal</text><text fill="#000000" font-family="sans-serif" font-size="14" lengthAdjust="spacing" textLength="263.6006" x="958.77" y="608.0845">currencyCode  : ISO_4217_Alpha_Code</text></g><!--class Activity--><g class="entity" data-entity="Activity" data-source-line="847" data-uid="ent0047" id="entity_Activity"><rect fill="#F1F1F1" height="32" rx="2.5" ry="2.5" style="stroke:#181818;stroke-width:0.5;" width="81.957" x="1049.59" y="173.47"/><ellipse cx="1064.59" cy="189.47" fill="#ADD1B2" rx="11" ry="11" style="stroke:#181818;stroke-width:1;"/><path d="M1067.0631,195.6131 Q1066.4821,195.9119 1065.8429,196.0613 Q1065.2038,196.2107 1064.4982,196.2107 Q1061.9914,196.2107 1060.6715,194.5589 Q1059.3517,192.907 1059.3517,189.7859 Q1059.3517,186.6565 1060.6715,185.0047 Q1061.9914,183.3528 1064.4982,183.3528 Q1065.2038,183.3528 1065.8512,183.5022 Q1066.4987,183.6516 1067.0631,183.9505 L1067.0631,186.6731 Q1066.4323,186.0921 1065.8388,185.8223 Q1065.2453,185.5525 1064.6144,185.5525 Q1063.2697,185.5525 1062.5849,186.6192 Q1061.9001,187.6858 1061.9001,189.7859 Q1061.9001,191.8777 1062.5849,192.9444 Q1063.2697,194.011 1064.6144,194.011 Q1065.2453,194.011 1065.8388,193.7412 Q1066.4323,193.4715 1067.0631,192.8904 Z " fill="#000000"/><text fill="#000000" font-family="sans-serif" font-size="14" lengthAdjust="spacing" textLength="49.957" x="1078.59" y="194.761">Activity</text></g><!--class Project--><g class="entity" data-entity="Project" data-source-line="848" data-uid="ent0049" id="entity_Project"><rect fill="#F1F1F1" height="32" rx="2.5" ry="2.5" style="stroke:#181818;stroke-width:0.5;" width="78.5322" x="1166.3" y="173.47"/><ellipse cx="1181.3" cy="189.47" fill="#ADD1B2" rx="11" ry="11" style="stroke:#181818;stroke-width:1;"/><path d="M1183.7731,195.6131 Q1183.1921,195.9119 1182.5529,196.0613 Q1181.9138,196.2107 1181.2082,196.2107 Q1178.7014,196.2107 1177.3815,194.5589 Q1176.0617,192.907 1176.0617,189.7859 Q1176.0617,186.6565 1177.3815,185.0047 Q1178.7014,183.3528 1181.2082,183.3528 Q1181.9138,183.3528 1182.5612,183.5022 Q1183.2087,183.6516 1183.7731,183.9505 L1183.7731,186.6731 Q1183.1423,186.0921 1182.5488,185.8223 Q1181.9553,185.5525 1181.3244,185.5525 Q1179.9797,185.5525 1179.2949,186.6192 Q1178.6101,187.6858 1178.6101,189.7859 Q1178.6101,191.8777 1179.2949,192.9444 Q1179.9797,194.011 1181.3244,194.011 Q1181.9553,194.011 1182.5488,193.7412 Q1183.1423,193.4715 1183.7731,192.8904 Z " fill="#000000"/><text fill="#000000" font-family="sans-serif" font-size="14" lengthAdjust="spacing" textLength="46.5322" x="1195.3" y="194.761">Project</text></g><!--class Funding_Application--><g class="entity" data-entity="Funding_Application" data-source-line="544" data-uid="ent0051" id="entity_Funding_Application"><rect fill="#FFFFFF" height="32" rx="2.5" ry="2.5" style="stroke:#181818;stroke-width:0.5;" width="171.0088" x="769.06" y="428.2"/><ellipse cx="784.06" cy="444.2" fill="#ADD1B2" rx="11" ry="11" style="stroke:#181818;stroke-width:1;"/><path d="M786.5331,450.3431 Q785.9521,450.6419 785.3129,450.7913 Q784.6738,450.9407 783.9682,450.9407 Q781.4614,450.9407 780.1415,449.2889 Q778.8217,447.637 778.8217,444.5159 Q778.8217,441.3865 780.1415,439.7347 Q781.4614,438.0828 783.9682,438.0828 Q784.6738,438.0828 785.3212,438.2322 Q785.9687,438.3816 786.5331,438.6805 L786.5331,441.4031 Q785.9023,440.8221 785.3088,440.5523 Q784.7153,440.2825 784.0844,440.2825 Q782.7397,440.2825 782.0549,441.3492 Q781.3701,442.4158 781.3701,444.5159 Q781.3701,446.6077 782.0549,447.6744 Q782.7397,448.741 784.0844,448.741 Q784.7153,448.741 785.3088,448.4712 Q785.9023,448.2015 786.5331,447.6204 Z " fill="#000000"/><text fill="#000000" font-family="sans-serif" font-size="14" lengthAdjust="spacing" textLength="139.0088" x="798.06" y="449.491">Funding_Application</text></g><!--class Call_for_Funding_Applications--><g class="entity" data-entity="Call_for_Funding_Applications" data-source-line="558" data-uid="ent0053" id="entity_Call_for_Funding_Applications"><rect fill="#FFFFFF" height="32" rx="2.5" ry="2.5" style="stroke:#181818;stroke-width:0.5;" width="237.1328" x="7" y="428.2"/><ellipse cx="22" cy="444.2" fill="#ADD1B2" rx="11" ry="11" style="stroke:#181818;stroke-width:1;"/><path d="M24.4731,450.3431 Q23.8921,450.6419 23.2529,450.7913 Q22.6138,450.9407 21.9082,450.9407 Q19.4014,450.9407 18.0815,449.2889 Q16.7617,447.637 16.7617,444.5159 Q16.7617,441.3865 18.0815,439.7347 Q19.4014,438.0828 21.9082,438.0828 Q22.6138,438.0828 23.2612,438.2322 Q23.9087,438.3816 24.4731,438.6805 L24.4731,441.4031 Q23.8423,440.8221 23.2488,440.5523 Q22.6553,440.2825 22.0244,440.2825 Q20.6797,440.2825 19.9949,441.3492 Q19.3101,442.4158 19.3101,444.5159 Q19.3101,446.6077 19.9949,447.6744 Q20.6797,448.741 22.0244,448.741 Q22.6553,448.741 23.2488,448.4712 Q23.8423,448.2015 24.4731,447.6204 Z " fill="#000000"/><text fill="#000000" font-family="sans-serif" font-size="14" lengthAdjust="spacing" textLength="205.1328" x="36" y="449.491">Call_for_Funding_Applications</text></g><!--link Call_for_Applications to Application--><g class="link" data-entity-1="Call_for_Applications" data-entity-2="Application" data-source-line="604" data-uid="lnk5" id="link_Call_for_Applications_Application"><path codeLine="604" d="M167.27,294.22 C209.72,278.39 277.8,255.59 339.07,246.59 C466.68,227.84 749.71,274.44 782.57,282.47 C788.31,283.87 794.2,285.63 800.02,287.57" fill="none" id="Call_for_Applications-Application" style="stroke:#181818;stroke-width:1;"/><polygon fill="#000000" points="339.0703,244.1778,348.1457,247.0215,348.084,241.144,339.0703,244.1778" style="stroke:#000000;stroke-width:1;"/><text fill="#000000" font-family="sans-serif" font-size="13" lengthAdjust="spacing" textLength="90.1938" x="353.07" y="249.0384">in response to</text><text fill="#000000" font-family="sans-serif" font-size="13" lengthAdjust="spacing" textLength="24.667" x="153.2197" y="283.8931">0..1</text><text fill="#000000" font-family="sans-serif" font-size="13" lengthAdjust="spacing" textLength="22.7119" x="769.2602" y="281.0414">0..*</text></g><!--reverse link Resource_Offer to Call_for_Applications--><g class="link" data-entity-1="Resource_Offer" data-entity-2="Call_for_Applications" data-source-line="716" data-uid="lnk7" id="link_Resource_Offer_Call_for_Applications"><path codeLine="716" d="M398.8363,204.5427 C358.3963,211.9727 324.17,220.06 279.57,235.47 C233.28,251.46 182.68,277.68 152.56,294.3" fill="none" id="Resource_Offer-backto-Call_for_Applications" style="stroke:#181818;stroke-width:1;"/><polygon fill="none" points="416.54,201.29,397.7521,198.6415,399.9206,210.4439,416.54,201.29" style="stroke:#181818;stroke-width:1;"/></g><!--reverse link Resource_Request to Application--><g class="link" data-entity-1="Resource_Request" data-entity-2="Application" data-source-line="734" data-uid="lnk9" id="link_Resource_Request_Application"><path codeLine="734" d="M851.6797,223.5597 C852.3297,242.7397 852.84,258.2 853.64,282.02" fill="none" id="Resource_Request-backto-Application" style="stroke:#181818;stroke-width:1;"/><polygon fill="none" points="851.07,205.57,845.6831,223.7629,857.6762,223.3565,851.07,205.57" style="stroke:#181818;stroke-width:1;"/></g><!--link Document to apoint14--><g class="link" data-entity-1="Document" data-entity-2="apoint14" data-source-line="304" data-uid="lnk16" id="link_Document_apoint14"><path d="M437.06,339.24 C424.74,352.54 415.29,369.22 421.57,385.96 C432.14,414.12 463.54,437.52 470.28,442.31" fill="none" id="Document-apoint14" style="stroke:#181818;stroke-width:1;"/><polygon fill="#000000" points="428.1038,382.3742,428.1263,372.8637,422.5319,374.6668,428.1038,382.3742" style="stroke:#000000;stroke-width:1;"/><text fill="#000000" font-family="sans-serif" font-size="13" lengthAdjust="spacing" textLength="56.9194" x="435.57" y="382.5284">is part of</text><text fill="#000000" font-family="sans-serif" font-size="13" lengthAdjust="spacing" textLength="22.7119" x="405.1825" y="359.723">0..*</text></g><!--link apoint14 to Document--><g class="link" data-entity-1="apoint14" data-entity-2="Document" data-source-line="304" data-uid="lnk17" id="link_apoint14_Document"><path d="M472.35,442.18 C477.24,435.72 503.02,399.84 496.57,368.96 C494.46,358.87 490.47,348.39 486.29,339.19" fill="none" id="apoint14-Document" style="stroke:#181818;stroke-width:1;"/><text fill="#000000" font-family="sans-serif" font-size="13" lengthAdjust="spacing" textLength="22.7119" x="465.1815" y="359.662">0..*</text></g><!--link apoint14 to Contents_Location--><g class="link" data-entity-1="apoint14" data-entity-2="Contents_Location" data-source-line="304" data-uid="lnk18" id="link_apoint14_Contents_Location"><path d="M471.57,446.64 C471.57,455.82 471.57,506.9 471.57,541.3" fill="none" id="apoint14-Contents_Location" style="stroke:#181818;stroke-width:1;stroke-dasharray:7,7;"/></g><!--link Document to Document--><g class="link" data-entity-1="Document" data-entity-2="Document" data-source-line="306" data-uid="lnk19" id="link_Document_Document"><path codeLine="306" d="M561.26,298.52 C581.29,299.64 595.91,303.71 595.91,310.71 C595.91,317.72 581.29,321.78 561.26,322.91" fill="none" id="Document-Document" style="stroke:#181818;stroke-width:1;"/><polygon fill="#000000" points="601.1891,315.8575,603.6185,306.6624,597.7498,306.9906,601.1891,315.8575" style="stroke:#000000;stroke-width:1;"/><text fill="#000000" font-family="sans-serif" font-size="13" lengthAdjust="spacing" textLength="161.6748" x="614.91" y="315.7784">another representation of</text><text fill="#000000" font-family="sans-serif" font-size="13" lengthAdjust="spacing" textLength="22.7119" x="568.9963" y="294.5924">0..*</text><text fill="#000000" font-family="sans-serif" font-size="13" lengthAdjust="spacing" textLength="22.7119" x="568.9963" y="320.8498">0..*</text></g><!--reverse link Contents_Location to Page_Based_Contents_Location--><g class="link" data-entity-1="Contents_Location" data-entity-2="Page_Based_Contents_Location" data-source-line="320" data-uid="lnk21" id="link_Contents_Location_Page_Based_Contents_Location"><path codeLine="320" d="M427.3715,619.947 C407.2615,640.277 393.7,654 372.2,675.76" fill="none" id="Contents_Location-backto-Page_Based_Contents_Location" style="stroke:#181818;stroke-width:1;"/><polygon fill="none" points="440.03,607.15,423.1058,615.7275,431.6372,624.1665,440.03,607.15" style="stroke:#181818;stroke-width:1;"/></g><!--reverse link Contents_Location to Time_Based_Contents_Location--><g class="link" data-entity-1="Contents_Location" data-entity-2="Time_Based_Contents_Location" data-source-line="327" data-uid="lnk23" id="link_Contents_Location_Time_Based_Contents_Location"><path codeLine="327" d="M516.0328,619.903 C536.2828,640.233 549.99,654 571.65,675.76" fill="none" id="Contents_Location-backto-Time_Based_Contents_Location" style="stroke:#181818;stroke-width:1;"/><polygon fill="none" points="503.33,607.15,511.7818,624.1373,520.2838,615.6687,503.33,607.15" style="stroke:#181818;stroke-width:1;"/></g><!--link Agent to Date_Range--><g class="link" data-entity-1="Agent" data-entity-2="Date_Range" data-source-line="15" data-uid="lnk26" id="link_Agent_Date_Range"><path codeLine="15" d="M1087.97,96.9 C1158.7,123.05 1238.3226,152.4984 1288.0926,170.9084" fill="none" id="Agent-to-Date_Range" style="stroke:#181818;stroke-width:1;stroke-dasharray:7,7;"/><polygon fill="#181818" points="1293.72,172.99,1286.6667,166.1161,1289.0305,171.2554,1283.8913,173.6192,1293.72,172.99" style="stroke:#181818;stroke-width:1;"/></g><!--link Agent to Contact_Information--><g class="link" data-entity-1="Agent" data-entity-2="Contact_Information" data-source-line="16" data-uid="lnk28" id="link_Agent_Contact_Information"><path codeLine="16" d="M1102.44,86.2 C1213.3,113.91 1359.9491,150.5649 1443.9591,171.5649" fill="none" id="Agent-to-Contact_Information" style="stroke:#181818;stroke-width:1;stroke-dasharray:7,7;"/><polygon fill="#181818" points="1449.78,173.02,1442.0187,166.9568,1444.9293,171.8075,1440.0786,174.718,1449.78,173.02" style="stroke:#181818;stroke-width:1;"/><text fill="#000000" font-family="sans-serif" font-size="13" lengthAdjust="spacing" textLength="22.7119" x="1403.7862" y="162.7064">0..*</text></g><!--reverse link Agent to Resource_Offer--><g class="link" data-entity-1="Agent" data-entity-2="Resource_Offer" data-source-line="596" data-uid="lnk30" id="link_Agent_Resource_Offer"><path codeLine="596" d="M828.9329,91.8903 C731.7029,119.1603 610.94,153.03 539.66,173.02" fill="none" id="Agent-backto-Resource_Offer" style="stroke:#181818;stroke-width:1;"/><polygon fill="#181818" points="834.71,90.27,824.9642,88.8491,829.8958,91.6202,827.1246,96.5518,834.71,90.27" style="stroke:#181818;stroke-width:1;"/><text fill="#000000" font-family="sans-serif" font-size="13" lengthAdjust="spacing" textLength="71.9189" x="755.001" y="89.4467">solicited by</text></g><!--link Resource_Offer to Resource--><g class="link" data-entity-1="Resource_Offer" data-entity-2="Resource" data-source-line="712" data-uid="lnk31" id="link_Resource_Offer_Resource"><path codeLine="712" d="M552.65,199.12 C640.71,211.55 798.05,238 926.57,282.47 C936.49,285.9 941.5516,287.7948 951.1816,291.9048" fill="none" id="Resource_Offer-to-Resource" style="stroke:#181818;stroke-width:1;"/><polygon fill="#181818" points="956.7,294.26,949.9925,287.0482,952.1013,292.2973,946.8522,294.4061,956.7,294.26" style="stroke:#181818;stroke-width:1;"/><polygon fill="#000000" points="830.4398,245.259,822.2967,240.3457,820.9639,246.0704,830.4398,245.259" style="stroke:#000000;stroke-width:1;"/><text fill="#000000" font-family="sans-serif" font-size="13" lengthAdjust="spacing" textLength="12.7651" x="834.57" y="249.0384">of</text><text fill="#000000" font-family="sans-serif" font-size="13" lengthAdjust="spacing" textLength="22.7119" x="560.2215" y="196.9081">0..*</text><text fill="#000000" font-family="sans-serif" font-size="13" lengthAdjust="spacing" textLength="22.7119" x="919.9553" y="283.9464">1..*</text></g><!--reverse link Resource_Offer to Condition--><g class="link" data-entity-1="Resource_Offer" data-entity-2="Condition" data-source-line="725" data-uid="lnk33" id="link_Resource_Offer_Condition"><path codeLine="725" d="M404.5942,199.3618 C356.4542,206.0518 309.76,216.26 294.57,235.47 C281.44,252.06 286.37,277.87 291.6,294.27" fill="none" id="Resource_Offer-backto-Condition" style="stroke:#181818;stroke-width:1;"/><polygon fill="none" points="416.48,197.71,409.9865,194.574,404.5942,199.3618,411.0877,202.4978,416.48,197.71" style="stroke:#181818;stroke-width:1;"/><polygon fill="#000000" points="295.7414,247.3411,304.5576,243.774,300.7772,239.2732,295.7414,247.3411" style="stroke:#000000;stroke-width:1;"/><text fill="#000000" font-family="sans-serif" font-size="13" lengthAdjust="spacing" textLength="21.874" x="308.57" y="249.0384">has</text><text fill="#000000" font-family="sans-serif" font-size="13" lengthAdjust="spacing" textLength="22.7119" x="264.0992" y="283.9597">0..*</text></g><!--reverse link Resource_Offer to Document--><g class="link" data-entity-1="Resource_Offer" data-entity-2="Document" data-source-line="738" data-uid="lnk34" id="link_Resource_Offer_Document"><path codeLine="738" d="M481.6201,217.4994 C479.5301,236.6794 477.18,258.2 474.59,282.02" fill="none" id="Resource_Offer-backto-Document" style="stroke:#181818;stroke-width:1;"/><polygon fill="none" points="482.92,205.57,478.2936,211.1014,481.6201,217.4994,486.2465,211.968,482.92,205.57" style="stroke:#181818;stroke-width:1;"/><polygon fill="#000000" points="485.0284,249.0959,488.9298,240.4223,483.0865,239.7857,485.0284,249.0959" style="stroke:#000000;stroke-width:1;"/><text fill="#000000" font-family="sans-serif" font-size="13" lengthAdjust="spacing" textLength="80.4819" x="494.57" y="249.0384">described by</text><text fill="#000000" font-family="sans-serif" font-size="13" lengthAdjust="spacing" textLength="24.667" x="454.5096" y="226.0073">0..1</text><text fill="#000000" font-family="sans-serif" font-size="13" lengthAdjust="spacing" textLength="22.7119" x="450.9222" y="271.7049">0..*</text></g><!--reverse link Agent to Resource_Request--><g class="link" data-entity-1="Agent" data-entity-2="Resource_Request" data-source-line="588" data-uid="lnk36" id="link_Agent_Resource_Request"><path codeLine="588" d="M954.0895,102.259 C947.9895,118.319 941.45,130.17 929.57,143.47 C918.42,155.94 902.95,165.8 888.66,173.07" fill="none" id="Agent-backto-Resource_Request" style="stroke:#181818;stroke-width:1;"/><polygon fill="#181818" points="956.22,96.65,949.285,103.6432,954.4446,101.3242,956.7637,106.4838,956.22,96.65" style="stroke:#181818;stroke-width:1;"/><polygon fill="#000000" points="949.9632,131.453,941.6663,136.1018,945.9834,140.0907,949.9632,131.453" style="stroke:#000000;stroke-width:1;"/><text fill="#000000" font-family="sans-serif" font-size="13" lengthAdjust="spacing" textLength="60.106" x="955.57" y="140.0384">requester</text><text fill="#000000" font-family="sans-serif" font-size="13" lengthAdjust="spacing" textLength="24.667" x="928.6924" y="116.94">0..1</text></g><!--reverse link Agent to Resource_Request--><g class="link" data-entity-1="Agent" data-entity-2="Resource_Request" data-source-line="592" data-uid="lnk38" id="link_Agent_Resource_Request"><path codeLine="592" d="M864.6789,100.7026 C854.4389,109.0926 850.06,115.09 843.57,126.47 C835.4,140.77 839.4,159.94 844,173.16" fill="none" id="Agent-backto-Resource_Request-1" style="stroke:#181818;stroke-width:1;"/><polygon fill="#181818" points="869.32,96.9,859.8232,99.5099,865.4524,100.0689,864.8934,105.698,869.32,96.9" style="stroke:#181818;stroke-width:1;"/><polygon fill="#000000" points="849.9422,130.3172,844.6338,138.2085,850.286,139.8216,849.9422,130.3172" style="stroke:#000000;stroke-width:1;"/><text fill="#000000" font-family="sans-serif" font-size="13" lengthAdjust="spacing" textLength="63.8447" x="857.57" y="140.0384">addressee</text><text fill="#000000" font-family="sans-serif" font-size="13" lengthAdjust="spacing" textLength="24.667" x="829.7222" y="116.8966">0..1</text></g><!--reverse link Resource_Request to Document--><g class="link" data-entity-1="Resource_Request" data-entity-2="Document" data-source-line="608" data-uid="lnk39" id="link_Resource_Request_Document"><path codeLine="608" d="M760.8569,207.6995 C724.3369,215.3795 692.2,223.26 653.57,235.47 C612.24,248.52 567.13,266.9 532.15,282.1" fill="none" id="Resource_Request-backto-Document" style="stroke:#181818;stroke-width:1;"/><polygon fill="none" points="772.6,205.23,765.9053,202.5504,760.8569,207.6995,767.5516,210.3791,772.6,205.23" style="stroke:#181818;stroke-width:1;"/><polygon fill="#000000" points="653.8153,245.672,663.3258,245.6687,661.5075,240.0792,653.8153,245.672" style="stroke:#000000;stroke-width:1;"/><text fill="#000000" font-family="sans-serif" font-size="13" lengthAdjust="spacing" textLength="80.4819" x="667.57" y="249.0384">described by</text><text fill="#000000" font-family="sans-serif" font-size="13" lengthAdjust="spacing" textLength="24.667" x="518.8498" y="271.8024">0..1</text></g><!--link Resource_Request to Resource_Request--><g class="link" data-entity-1="Resource_Request" data-entity-2="Resource_Request" data-source-line="742" data-uid="lnk40" id="link_Resource_Request_Resource_Request"><path codeLine="742" d="M928.42,179.37 C948.24,180.04 963.12,183.4 963.12,189.47 C963.12,195.54 954.2367,198.7003 934.4167,199.3603" fill="none" id="Resource_Request-to-Resource_Request" style="stroke:#181818;stroke-width:1;"/><polygon fill="#181818" points="928.42,199.56,937.5481,203.2583,933.4172,199.3936,937.2819,195.2627,928.42,199.56" style="stroke:#181818;stroke-width:1;"/><polygon fill="#000000" points="968.2889,194.6224,970.9206,185.4832,965.0461,185.6818,968.2889,194.6224" style="stroke:#000000;stroke-width:1;"/><text fill="#000000" font-family="sans-serif" font-size="13" lengthAdjust="spacing" textLength="43.5449" x="982.12" y="194.5384">revises</text><text fill="#000000" font-family="sans-serif" font-size="13" lengthAdjust="spacing" textLength="22.7119" x="936.0861" y="175.4392">0..*</text><text fill="#000000" font-family="sans-serif" font-size="13" lengthAdjust="spacing" textLength="24.667" x="936.1701" y="197.3643">0..1</text></g><!--link Resource_Request to Resource--><g class="link" data-entity-1="Resource_Request" data-entity-2="Resource" data-source-line="746" data-uid="lnk41" id="link_Resource_Request_Resource"><path codeLine="746" d="M868.58,205.81 C895.46,228.71 941.2131,267.6686 968.0531,290.5386" fill="none" id="Resource_Request-to-Resource" style="stroke:#181818;stroke-width:1;"/><polygon fill="#181818" points="972.62,294.43,968.3639,285.5483,968.8142,291.1872,963.1753,291.6375,972.62,294.43" style="stroke:#181818;stroke-width:1;"/><polygon fill="#000000" points="929.3764,247.3674,924.3963,239.265,920.5849,243.7396,929.3764,247.3674" style="stroke:#000000;stroke-width:1;"/><text fill="#000000" font-family="sans-serif" font-size="13" lengthAdjust="spacing" textLength="12.7651" x="934.57" y="249.0384">of</text><text fill="#000000" font-family="sans-serif" font-size="13" lengthAdjust="spacing" textLength="22.7119" x="848.9276" y="226.0269">0..*</text><text fill="#000000" font-family="sans-serif" font-size="13" lengthAdjust="spacing" textLength="22.7119" x="970.3539" y="283.8774">1..*</text></g><!--link Funding to Monetary_Amount--><g class="link" data-entity-1="Funding" data-entity-2="Monetary_Amount" data-source-line="272" data-uid="lnk44" id="link_Funding_Monetary_Amount"><path codeLine="272" d="M1090.57,472.67 C1090.57,490.3 1090.57,507.51 1090.57,527.18" fill="none" id="Funding-to-Monetary_Amount" style="stroke:#181818;stroke-width:1;stroke-dasharray:7,7;"/><polygon fill="#181818" points="1090.57,533.18,1094.57,524.18,1090.57,528.18,1086.57,524.18,1090.57,533.18" style="stroke:#181818;stroke-width:1;"/></g><!--reverse link Resource to Funding--><g class="link" data-entity-1="Resource" data-entity-2="Funding" data-source-line="276" data-uid="lnk45" id="link_Resource_Funding"><path codeLine="276" d="M1013.127,341.3767 C1029.617,363.0567 1049.1,388.68 1069.57,415.6" fill="none" id="Resource-backto-Funding" style="stroke:#181818;stroke-width:1;"/><polygon fill="none" points="1002.23,327.05,1008.3515,345.0091,1017.9026,337.7444,1002.23,327.05" style="stroke:#181818;stroke-width:1;"/></g><!--link Funding to Funding--><g class="link" data-entity-1="Funding" data-entity-2="Funding" data-source-line="356" data-uid="lnk46" id="link_Funding_Funding"><path codeLine="356" d="M1198.26,433.73 C1218.58,435 1232.91,438.49 1232.91,444.2 C1232.91,449.91 1218.58,453.4 1198.26,454.67" fill="none" id="Funding-Funding" style="stroke:#181818;stroke-width:1;"/><polygon fill="#000000" points="1238.2219,449.3455,1240.5909,440.1347,1234.7245,440.5014,1238.2219,449.3455" style="stroke:#000000;stroke-width:1;"/><text fill="#000000" font-family="sans-serif" font-size="13" lengthAdjust="spacing" textLength="56.9194" x="1251.91" y="449.2684">is part of</text><text fill="#000000" font-family="sans-serif" font-size="13" lengthAdjust="spacing" textLength="22.7119" x="1205.8866" y="430.1568">0..*</text><text fill="#000000" font-family="sans-serif" font-size="13" lengthAdjust="spacing" textLength="22.7119" x="1205.8866" y="452.4383">0..*</text></g><!--link Activity to Funding--><g class="link" data-entity-1="Activity" data-entity-2="Funding" data-source-line="847" data-uid="lnk48" id="link_Activity_Funding"><path codeLine="847" d="M1090.57,211.9 C1090.57,253.48 1090.57,356.32 1090.57,409.5" fill="none" id="Activity-Funding" style="stroke:#181818;stroke-width:1;"/><polygon fill="#181818" points="1090.57,205.9,1086.57,214.9,1090.57,210.9,1094.57,214.9,1090.57,205.9" style="stroke:#181818;stroke-width:1;"/><polygon fill="#181818" points="1090.57,415.5,1094.57,406.5,1090.57,410.5,1086.57,406.5,1090.57,415.5" style="stroke:#181818;stroke-width:1;"/><text fill="#000000" font-family="sans-serif" font-size="13" lengthAdjust="spacing" textLength="67.3867" x="1012.954" y="226.1455">0..* covers</text><text fill="#000000" font-family="sans-serif" font-size="13" lengthAdjust="spacing" textLength="90.4351" x="990.7747" y="405.1827">0..* funded by</text></g><!--link Project to Funding--><g class="link" data-entity-1="Project" data-entity-2="Funding" data-source-line="848" data-uid="lnk50" id="link_Project_Funding"><path codeLine="848" d="M1196.0639,211.3607 C1177.1339,252.9407 1129.8551,356.8589 1105.6551,410.0389" fill="none" id="Project-Funding" style="stroke:#181818;stroke-width:1;"/><polygon fill="#181818" points="1198.55,205.9,1191.1804,212.4337,1196.4783,210.4506,1198.4614,215.7485,1198.55,205.9" style="stroke:#181818;stroke-width:1;"/><polygon fill="#181818" points="1103.17,415.5,1110.5385,408.965,1105.2409,410.949,1103.2569,405.6515,1103.17,415.5" style="stroke:#181818;stroke-width:1;"/><text fill="#000000" font-family="sans-serif" font-size="13" lengthAdjust="spacing" textLength="67.3867" x="1133.7889" y="226.0291">0..* covers</text><text fill="#000000" font-family="sans-serif" font-size="13" lengthAdjust="spacing" textLength="90.4351" x="1115.8184" y="405.1827">0..* funded by</text></g><!--reverse link Application to Funding_Application--><g class="link" data-entity-1="Application" data-entity-2="Funding_Application" data-source-line="549" data-uid="lnk52" id="link_Application_Funding_Application"><path codeLine="549" d="M854.57,357.28 C854.57,384.24 854.57,406.3 854.57,427.97" fill="none" id="Application-backto-Funding_Application" style="stroke:#181818;stroke-width:1;"/><polygon fill="none" points="854.57,339.28,848.57,357.28,860.57,357.28,854.57,339.28" style="stroke:#181818;stroke-width:1;"/></g><!--reverse link Call_for_Applications to Call_for_Funding_Applications--><g class="link" data-entity-1="Call_for_Applications" data-entity-2="Call_for_Funding_Applications" data-source-line="620" data-uid="lnk54" id="link_Call_for_Applications_Call_for_Funding_Applications"><path codeLine="620" d="M125.57,345.05 C125.57,370.39 125.57,402.69 125.57,427.96" fill="none" id="Call_for_Applications-backto-Call_for_Funding_Applications" style="stroke:#181818;stroke-width:1;"/><polygon fill="none" points="125.57,327.05,119.57,345.05,131.57,345.05,125.57,327.05" style="stroke:#181818;stroke-width:1;"/></g><!--SRC=[ZT4n3iCm20NGFQSW5-WTgbHPA-K2LafmPCa6ruJxjqkh3Wt9p8Cl002WJupP5b9x04gZIxMIUvHIX3lO1SESSuZImhNMd73Uah0w_eSvQY8LQqWEkGbQ8TwyhDMlVrB2FKPgP-14JoFrPWx2IphORhItuVLOX7FN-lxWJvjsBm00]--></g></svg>