<?xml version="1.0" encoding="UTF-8" standalone="no"?><svg xmlns="http://www.w3.org/2000/svg" xmlns:xlink="http://www.w3.org/1999/xlink" contentScriptType="application/ecmascript" contentStyleType="text/css" height="371px" preserveAspectRatio="none" style="width:1191px;height:371px;background:#FFFFFF;" version="1.1" viewBox="0 0 1191 371" width="1191px" zoomAndPan="magnify"><defs><filter height="300%" id="fm8wr08qxij0z" width="300%" x="-1" y="-1"><feGaussianBlur result="blurOut" stdDeviation="2.0"/><feColorMatrix in="blurOut" result="blurOut2" type="matrix" values="0 0 0 0 0 0 0 0 0 0 0 0 0 0 0 0 0 0 .4 0"/><feOffset dx="4.0" dy="4.0" in="blurOut2" result="blurOut3"/><feBlend in="SourceGraphic" in2="blurOut3" mode="normal"/></filter></defs><g><!--MD5=[edcf71e28750a8856eb4372d573715ca]
class Call_for_Applications--><rect codeLine="409" fill="#FFFFFF" filter="url(#fm8wr08qxij0z)" height="32" id="Call_for_Applications" style="stroke:#A80036;stroke-width:1.5;" width="159" x="199.5" y="172.5"/><ellipse cx="214.5" cy="188.5" fill="#ADD1B2" rx="11" ry="11" style="stroke:#A80036;stroke-width:1.0;"/><path d="M217.4688,194.1406 Q216.8906,194.4375 216.25,194.5781 Q215.6094,194.7344 214.9063,194.7344 Q212.4063,194.7344 211.0781,193.0938 Q209.7656,191.4375 209.7656,188.3125 Q209.7656,185.1875 211.0781,183.5313 Q212.4063,181.875 214.9063,181.875 Q215.6094,181.875 216.25,182.0313 Q216.9063,182.1875 217.4688,182.4844 L217.4688,185.2031 Q216.8438,184.625 216.25,184.3594 Q215.6563,184.0781 215.0313,184.0781 Q213.6875,184.0781 213,185.1563 Q212.3125,186.2188 212.3125,188.3125 Q212.3125,190.4063 213,191.4844 Q213.6875,192.5469 215.0313,192.5469 Q215.6563,192.5469 216.25,192.2813 Q216.8438,192 217.4688,191.4219 L217.4688,194.1406 Z " fill="#000000"/><text fill="#000000" font-family="sans-serif" font-size="12" lengthAdjust="spacing" textLength="127" x="228.5" y="192.6543">Call_for_Applications</text><!--MD5=[9d44916250b776386006c440668bcfbb]
class Agent--><rect codeLine="10" fill="#FFFFFF" filter="url(#fm8wr08qxij0z)" height="78.4141" id="Agent" style="stroke:#A80036;stroke-width:1.5;" width="224" x="220" y="7"/><ellipse cx="309.25" cy="23" fill="#ADD1B2" rx="11" ry="11" style="stroke:#A80036;stroke-width:1.0;"/><path d="M312.2188,28.6406 Q311.6406,28.9375 311,29.0781 Q310.3594,29.2344 309.6563,29.2344 Q307.1563,29.2344 305.8281,27.5938 Q304.5156,25.9375 304.5156,22.8125 Q304.5156,19.6875 305.8281,18.0313 Q307.1563,16.375 309.6563,16.375 Q310.3594,16.375 311,16.5313 Q311.6563,16.6875 312.2188,16.9844 L312.2188,19.7031 Q311.5938,19.125 311,18.8594 Q310.4063,18.5781 309.7813,18.5781 Q308.4375,18.5781 307.75,19.6563 Q307.0625,20.7188 307.0625,22.8125 Q307.0625,24.9063 307.75,25.9844 Q308.4375,27.0469 309.7813,27.0469 Q310.4063,27.0469 311,26.7813 Q311.5938,26.5 312.2188,25.9219 L312.2188,28.6406 Z " fill="#000000"/><text fill="#000000" font-family="sans-serif" font-size="12" lengthAdjust="spacing" textLength="37" x="329.75" y="27.1543">Agent</text><line style="stroke:#A80036;stroke-width:1.5;" x1="221" x2="443" y1="39" y2="39"/><text fill="#000000" font-family="sans-serif" font-size="11" lengthAdjust="spacing" textLength="207" x="226" y="53.2104">keywords : List&lt;Multilingual_String&gt;</text><text fill="#000000" font-family="sans-serif" font-size="11" lengthAdjust="spacing" textLength="121" x="226" y="66.0151">lifetime : Date_Range</text><text fill="#000000" font-family="sans-serif" font-size="11" lengthAdjust="spacing" textLength="212" x="226" y="78.8198">contacts : List&lt;Contact_Information&gt;</text><!--MD5=[0b4e4b4980470ea387cc45de9bd14b5b]
class Application--><rect codeLine="388" fill="#FFFFFF" filter="url(#fm8wr08qxij0z)" height="52.8047" id="Application" style="stroke:#A80036;stroke-width:1.5;" width="101" x="499.5" y="162"/><ellipse cx="514.5" cy="178" fill="#ADD1B2" rx="11" ry="11" style="stroke:#A80036;stroke-width:1.0;"/><path d="M517.4688,183.6406 Q516.8906,183.9375 516.25,184.0781 Q515.6094,184.2344 514.9063,184.2344 Q512.4063,184.2344 511.0781,182.5938 Q509.7656,180.9375 509.7656,177.8125 Q509.7656,174.6875 511.0781,173.0313 Q512.4063,171.375 514.9063,171.375 Q515.6094,171.375 516.25,171.5313 Q516.9063,171.6875 517.4688,171.9844 L517.4688,174.7031 Q516.8438,174.125 516.25,173.8594 Q515.6563,173.5781 515.0313,173.5781 Q513.6875,173.5781 513,174.6563 Q512.3125,175.7188 512.3125,177.8125 Q512.3125,179.9063 513,180.9844 Q513.6875,182.0469 515.0313,182.0469 Q515.6563,182.0469 516.25,181.7813 Q516.8438,181.5 517.4688,180.9219 L517.4688,183.6406 Z " fill="#000000"/><text fill="#000000" font-family="sans-serif" font-size="12" lengthAdjust="spacing" textLength="69" x="528.5" y="182.1543">Application</text><line style="stroke:#A80036;stroke-width:1.5;" x1="500.5" x2="599.5" y1="194" y2="194"/><text fill="#000000" font-family="sans-serif" font-size="11" lengthAdjust="spacing" textLength="63" x="505.5" y="208.2104">date : Date</text><!--MD5=[8a67874827a9dbf014cc34517ffca193]
class Resource_Offer--><rect codeLine="572" fill="#FFFFFF" filter="url(#fm8wr08qxij0z)" height="32" id="Resource_Offer" style="stroke:#A80036;stroke-width:1.5;" width="127" x="901.5" y="30"/><ellipse cx="916.5" cy="46" fill="#ADD1B2" rx="11" ry="11" style="stroke:#A80036;stroke-width:1.0;"/><path d="M919.4688,51.6406 Q918.8906,51.9375 918.25,52.0781 Q917.6094,52.2344 916.9063,52.2344 Q914.4063,52.2344 913.0781,50.5938 Q911.7656,48.9375 911.7656,45.8125 Q911.7656,42.6875 913.0781,41.0313 Q914.4063,39.375 916.9063,39.375 Q917.6094,39.375 918.25,39.5313 Q918.9063,39.6875 919.4688,39.9844 L919.4688,42.7031 Q918.8438,42.125 918.25,41.8594 Q917.6563,41.5781 917.0313,41.5781 Q915.6875,41.5781 915,42.6563 Q914.3125,43.7188 914.3125,45.8125 Q914.3125,47.9063 915,48.9844 Q915.6875,50.0469 917.0313,50.0469 Q917.6563,50.0469 918.25,49.7813 Q918.8438,49.5 919.4688,48.9219 L919.4688,51.6406 Z " fill="#000000"/><text fill="#000000" font-family="sans-serif" font-size="12" lengthAdjust="spacing" textLength="95" x="930.5" y="50.1543">Resource_Offer</text><!--MD5=[59b530d44ae785dc18db921986a9c15c]
class Document--><rect codeLine="257" fill="#FFFFFF" filter="url(#fm8wr08qxij0z)" height="65.6094" id="Document" style="stroke:#A80036;stroke-width:1.5;" width="148" x="619" y="292"/><ellipse cx="657.4" cy="308" fill="#ADD1B2" rx="11" ry="11" style="stroke:#A80036;stroke-width:1.0;"/><path d="M660.3688,313.6406 Q659.7906,313.9375 659.15,314.0781 Q658.5094,314.2344 657.8063,314.2344 Q655.3063,314.2344 653.9781,312.5938 Q652.6656,310.9375 652.6656,307.8125 Q652.6656,304.6875 653.9781,303.0313 Q655.3063,301.375 657.8063,301.375 Q658.5094,301.375 659.15,301.5313 Q659.8063,301.6875 660.3688,301.9844 L660.3688,304.7031 Q659.7438,304.125 659.15,303.8594 Q658.5563,303.5781 657.9313,303.5781 Q656.5875,303.5781 655.9,304.6563 Q655.2125,305.7188 655.2125,307.8125 Q655.2125,309.9063 655.9,310.9844 Q656.5875,312.0469 657.9313,312.0469 Q658.5563,312.0469 659.15,311.7813 Q659.7438,311.5 660.3688,310.9219 L660.3688,313.6406 Z " fill="#000000"/><text fill="#000000" font-family="sans-serif" font-size="12" lengthAdjust="spacing" textLength="64" x="676.6" y="312.1543">Document</text><line style="stroke:#A80036;stroke-width:1.5;" x1="620" x2="766" y1="324" y2="324"/><text fill="#000000" font-family="sans-serif" font-size="11" lengthAdjust="spacing" textLength="136" x="625" y="338.2104">title : Multilingual_String</text><text fill="#000000" font-family="sans-serif" font-size="11" lengthAdjust="spacing" textLength="125" x="625" y="351.0151">publicationDate : Date</text><!--MD5=[68c3952ebfab03c1a0449046a32d2ee2]
class Resource_Request--><rect codeLine="594" fill="#FFFFFF" filter="url(#fm8wr08qxij0z)" height="32" id="Resource_Request" style="stroke:#A80036;stroke-width:1.5;" width="149" x="596.5" y="30"/><ellipse cx="611.5" cy="46" fill="#ADD1B2" rx="11" ry="11" style="stroke:#A80036;stroke-width:1.0;"/><path d="M614.4688,51.6406 Q613.8906,51.9375 613.25,52.0781 Q612.6094,52.2344 611.9063,52.2344 Q609.4063,52.2344 608.0781,50.5938 Q606.7656,48.9375 606.7656,45.8125 Q606.7656,42.6875 608.0781,41.0313 Q609.4063,39.375 611.9063,39.375 Q612.6094,39.375 613.25,39.5313 Q613.9063,39.6875 614.4688,39.9844 L614.4688,42.7031 Q613.8438,42.125 613.25,41.8594 Q612.6563,41.5781 612.0313,41.5781 Q610.6875,41.5781 610,42.6563 Q609.3125,43.7188 609.3125,45.8125 Q609.3125,47.9063 610,48.9844 Q610.6875,50.0469 612.0313,50.0469 Q612.6563,50.0469 613.25,49.7813 Q613.8438,49.5 614.4688,48.9219 L614.4688,51.6406 Z " fill="#000000"/><text fill="#000000" font-family="sans-serif" font-size="12" lengthAdjust="spacing" textLength="117" x="625.5" y="50.1543">Resource_Request</text><!--MD5=[6b13f1b330d33795af281e5c1dfe1e98]
class Resource--><rect codeLine="239" fill="#FFFFFF" filter="url(#fm8wr08qxij0z)" height="32" id="Resource" style="stroke:#A80036;stroke-width:1.5;" width="91" x="960.5" y="172.5"/><ellipse cx="975.5" cy="188.5" fill="#ADD1B2" rx="11" ry="11" style="stroke:#A80036;stroke-width:1.0;"/><path d="M978.4688,194.1406 Q977.8906,194.4375 977.25,194.5781 Q976.6094,194.7344 975.9063,194.7344 Q973.4063,194.7344 972.0781,193.0938 Q970.7656,191.4375 970.7656,188.3125 Q970.7656,185.1875 972.0781,183.5313 Q973.4063,181.875 975.9063,181.875 Q976.6094,181.875 977.25,182.0313 Q977.9063,182.1875 978.4688,182.4844 L978.4688,185.2031 Q977.8438,184.625 977.25,184.3594 Q976.6563,184.0781 976.0313,184.0781 Q974.6875,184.0781 974,185.1563 Q973.3125,186.2188 973.3125,188.3125 Q973.3125,190.4063 974,191.4844 Q974.6875,192.5469 976.0313,192.5469 Q976.6563,192.5469 977.25,192.2813 Q977.8438,192 978.4688,191.4219 L978.4688,194.1406 Z " fill="#000000"/><text fill="#000000" font-family="sans-serif" font-size="12" lengthAdjust="spacing" textLength="59" x="989.5" y="192.6543">Resource</text><!--MD5=[a0318ef586937002b2555963e2a1f4ad]
class Contact_Information--><rect fill="#FEFECE" filter="url(#fm8wr08qxij0z)" height="32" id="Contact_Information" style="stroke:#A80036;stroke-width:1.5;" width="158" x="7" y="172.5"/><ellipse cx="22" cy="188.5" fill="#ADD1B2" rx="11" ry="11" style="stroke:#A80036;stroke-width:1.0;"/><path d="M24.9688,194.1406 Q24.3906,194.4375 23.75,194.5781 Q23.1094,194.7344 22.4063,194.7344 Q19.9063,194.7344 18.5781,193.0938 Q17.2656,191.4375 17.2656,188.3125 Q17.2656,185.1875 18.5781,183.5313 Q19.9063,181.875 22.4063,181.875 Q23.1094,181.875 23.75,182.0313 Q24.4063,182.1875 24.9688,182.4844 L24.9688,185.2031 Q24.3438,184.625 23.75,184.3594 Q23.1563,184.0781 22.5313,184.0781 Q21.1875,184.0781 20.5,185.1563 Q19.8125,186.2188 19.8125,188.3125 Q19.8125,190.4063 20.5,191.4844 Q21.1875,192.5469 22.5313,192.5469 Q23.1563,192.5469 23.75,192.2813 Q24.3438,192 24.9688,191.4219 L24.9688,194.1406 Z " fill="#000000"/><text fill="#000000" font-family="sans-serif" font-size="12" lengthAdjust="spacing" textLength="126" x="36" y="192.6543">Contact_Information</text><!--MD5=[a030fa97ffb865708cae79f6847e8968]
class Condition--><rect codeLine="585" fill="#FFFFFF" filter="url(#fm8wr08qxij0z)" height="32" id="Condition" style="stroke:#A80036;stroke-width:1.5;" width="91" x="1086.5" y="172.5"/><ellipse cx="1101.5" cy="188.5" fill="#ADD1B2" rx="11" ry="11" style="stroke:#A80036;stroke-width:1.0;"/><path d="M1104.4688,194.1406 Q1103.8906,194.4375 1103.25,194.5781 Q1102.6094,194.7344 1101.9063,194.7344 Q1099.4063,194.7344 1098.0781,193.0938 Q1096.7656,191.4375 1096.7656,188.3125 Q1096.7656,185.1875 1098.0781,183.5313 Q1099.4063,181.875 1101.9063,181.875 Q1102.6094,181.875 1103.25,182.0313 Q1103.9063,182.1875 1104.4688,182.4844 L1104.4688,185.2031 Q1103.8438,184.625 1103.25,184.3594 Q1102.6563,184.0781 1102.0313,184.0781 Q1100.6875,184.0781 1100,185.1563 Q1099.3125,186.2188 1099.3125,188.3125 Q1099.3125,190.4063 1100,191.4844 Q1100.6875,192.5469 1102.0313,192.5469 Q1102.6563,192.5469 1103.25,192.2813 Q1103.8438,192 1104.4688,191.4219 L1104.4688,194.1406 Z " fill="#000000"/><text fill="#000000" font-family="sans-serif" font-size="12" lengthAdjust="spacing" textLength="59" x="1115.5" y="192.6543">Condition</text><!--MD5=[92dc6ef2f70a23983af4e570fc6275cd]
class Funding--><rect codeLine="244" fill="#FFFFFF" filter="url(#fm8wr08qxij0z)" height="32" id="Funding" style="stroke:#A80036;stroke-width:1.5;" width="82" x="965" y="309"/><ellipse cx="980" cy="325" fill="#ADD1B2" rx="11" ry="11" style="stroke:#A80036;stroke-width:1.0;"/><path d="M982.9688,330.6406 Q982.3906,330.9375 981.75,331.0781 Q981.1094,331.2344 980.4063,331.2344 Q977.9063,331.2344 976.5781,329.5938 Q975.2656,327.9375 975.2656,324.8125 Q975.2656,321.6875 976.5781,320.0313 Q977.9063,318.375 980.4063,318.375 Q981.1094,318.375 981.75,318.5313 Q982.4063,318.6875 982.9688,318.9844 L982.9688,321.7031 Q982.3438,321.125 981.75,320.8594 Q981.1563,320.5781 980.5313,320.5781 Q979.1875,320.5781 978.5,321.6563 Q977.8125,322.7188 977.8125,324.8125 Q977.8125,326.9063 978.5,327.9844 Q979.1875,329.0469 980.5313,329.0469 Q981.1563,329.0469 981.75,328.7813 Q982.3438,328.5 982.9688,327.9219 L982.9688,330.6406 Z " fill="#000000"/><text fill="#000000" font-family="sans-serif" font-size="12" lengthAdjust="spacing" textLength="50" x="994" y="329.1543">Funding</text><!--MD5=[6ff7a5782d5ed311fa9cacd2967fdc4e]
class Funding_Application--><rect codeLine="400" fill="#FFFFFF" filter="url(#fm8wr08qxij0z)" height="32" id="Funding_Application" style="stroke:#A80036;stroke-width:1.5;" width="157" x="426.5" y="309"/><ellipse cx="441.5" cy="325" fill="#ADD1B2" rx="11" ry="11" style="stroke:#A80036;stroke-width:1.0;"/><path d="M444.4688,330.6406 Q443.8906,330.9375 443.25,331.0781 Q442.6094,331.2344 441.9063,331.2344 Q439.4063,331.2344 438.0781,329.5938 Q436.7656,327.9375 436.7656,324.8125 Q436.7656,321.6875 438.0781,320.0313 Q439.4063,318.375 441.9063,318.375 Q442.6094,318.375 443.25,318.5313 Q443.9063,318.6875 444.4688,318.9844 L444.4688,321.7031 Q443.8438,321.125 443.25,320.8594 Q442.6563,320.5781 442.0313,320.5781 Q440.6875,320.5781 440,321.6563 Q439.3125,322.7188 439.3125,324.8125 Q439.3125,326.9063 440,327.9844 Q440.6875,329.0469 442.0313,329.0469 Q442.6563,329.0469 443.25,328.7813 Q443.8438,328.5 444.4688,327.9219 L444.4688,330.6406 Z " fill="#000000"/><text fill="#000000" font-family="sans-serif" font-size="12" lengthAdjust="spacing" textLength="125" x="455.5" y="329.1543">Funding_Application</text><!--MD5=[0db85a2d6db180b105db5ebe9e86b106]
class Call_for_Funding_Applications--><rect codeLine="414" fill="#FFFFFF" filter="url(#fm8wr08qxij0z)" height="32" id="Call_for_Funding_Applications" style="stroke:#A80036;stroke-width:1.5;" width="215" x="171.5" y="309"/><ellipse cx="186.5" cy="325" fill="#ADD1B2" rx="11" ry="11" style="stroke:#A80036;stroke-width:1.0;"/><path d="M189.4688,330.6406 Q188.8906,330.9375 188.25,331.0781 Q187.6094,331.2344 186.9063,331.2344 Q184.4063,331.2344 183.0781,329.5938 Q181.7656,327.9375 181.7656,324.8125 Q181.7656,321.6875 183.0781,320.0313 Q184.4063,318.375 186.9063,318.375 Q187.6094,318.375 188.25,318.5313 Q188.9063,318.6875 189.4688,318.9844 L189.4688,321.7031 Q188.8438,321.125 188.25,320.8594 Q187.6563,320.5781 187.0313,320.5781 Q185.6875,320.5781 185,321.6563 Q184.3125,322.7188 184.3125,324.8125 Q184.3125,326.9063 185,327.9844 Q185.6875,329.0469 187.0313,329.0469 Q187.6563,329.0469 188.25,328.7813 Q188.8438,328.5 189.4688,327.9219 L189.4688,330.6406 Z " fill="#000000"/><text fill="#000000" font-family="sans-serif" font-size="12" lengthAdjust="spacing" textLength="183" x="200.5" y="329.1543">Call_for_Funding_Applications</text><!--MD5=[08c6a5fbc728deaee606fab1d8cae3e6]
reverse link Agent to Call_for_Applications--><path codeLine="452" d="M315.85,89.82 C305.26,117.89 292.05,152.9 284.67,172.47 " fill="none" id="Agent-backto-Call_for_Applications" style="stroke:#A80036;stroke-width:1.0;"/><polygon fill="#A80036" points="317.66,85.02,310.7288,92.017,315.8872,89.6952,318.209,94.8535,317.66,85.02" style="stroke:#A80036;stroke-width:1.0;"/><text fill="#000000" font-family="sans-serif" font-size="13" lengthAdjust="spacing" textLength="38" x="273.7213" y="105.3482">issuer</text><!--MD5=[a59b92cc30ee8d24d8d720fed1533057]
link Call_for_Applications to Application--><path codeLine="460" d="M358.84,188.5 C404.28,188.5 459.82,188.5 499.3,188.5 " fill="none" id="Call_for_Applications-Application" style="stroke:#A80036;stroke-width:1.0;"/><polygon fill="#000000" points="376,177.0664,385.0451,180.0053,385.0451,174.1275,376,177.0664" style="stroke:#000000;stroke-width:1.0;"/><text fill="#000000" font-family="sans-serif" font-size="13" lengthAdjust="spacing" textLength="91" x="390" y="181.5669">in response to</text><text fill="#000000" font-family="sans-serif" font-size="13" lengthAdjust="spacing" textLength="24" x="366.4455" y="201.1935">0..1</text><text fill="#000000" font-family="sans-serif" font-size="13" lengthAdjust="spacing" textLength="23" x="468.3306" y="201.5489">0..*</text><!--MD5=[555d991a4645b83cbfa238b562f91a92]
reverse link Resource_Offer to Call_for_Applications--><path codeLine="581" d="M902.37,68.31 C883.72,74.2 863.15,80.27 844,85 C672.92,127.21 468.75,159.99 358.73,176.25 " fill="none" id="Resource_Offer-backto-Call_for_Applications" style="stroke:#A80036;stroke-width:1.0;"/><polygon fill="none" points="900.5,61.55,921.69,62.05,904.82,74.87,900.5,61.55" style="stroke:#A80036;stroke-width:1.0;"/><!--MD5=[0c5226e8f688e58cc6150c041928918d]
reverse link Agent to Application--><path codeLine="444" d="M356.24,89.58 C366.57,104.67 379.76,120.69 395,132 C425.87,154.91 467.09,169.07 499.26,177.34 " fill="none" id="Agent-backto-Application" style="stroke:#A80036;stroke-width:1.0;"/><polygon fill="#A80036" points="353.41,85.36,355.0972,95.0633,356.1934,89.5137,361.743,90.6099,353.41,85.36" style="stroke:#A80036;stroke-width:1.0;"/><polygon fill="#000000" points="395.7384,120.9514,401.9107,128.1869,404.9848,123.1771,395.7384,120.9514" style="stroke:#000000;stroke-width:1.0;"/><text fill="#000000" font-family="sans-serif" font-size="13" lengthAdjust="spacing" textLength="58" x="409" y="128.0669">applicant</text><text fill="#000000" font-family="sans-serif" font-size="13" lengthAdjust="spacing" textLength="24" x="331.0273" y="105.4568">0..1</text><!--MD5=[0c5226e8f688e58cc6150c041928918d]
reverse link Agent to Application--><path codeLine="448" d="M425.04,87.36 C441.17,95.71 457.43,105.02 472,115 C491.83,128.58 511.63,147.06 526.32,161.97 " fill="none" id="Agent-backto-Application-1" style="stroke:#A80036;stroke-width:1.0;"/><polygon fill="#A80036" points="420.5,85.04,426.6731,92.7142,424.9461,87.3274,430.3329,85.6004,420.5,85.04" style="stroke:#A80036;stroke-width:1.0;"/><polygon fill="#000000" points="493.9744,120.6009,499.5137,128.3318,502.9999,123.5994,493.9744,120.6009" style="stroke:#000000;stroke-width:1.0;"/><text fill="#000000" font-family="sans-serif" font-size="13" lengthAdjust="spacing" textLength="67" x="507" y="128.0669">addressee</text><text fill="#000000" font-family="sans-serif" font-size="13" lengthAdjust="spacing" textLength="24" x="410.1266" y="105.3718">0..1</text><!--MD5=[33d78e85ad541f0b21b2e8ffaf1167a1]
reverse link Application to Document--><path codeLine="464" d="M556.72,227.63 C560.29,239.63 565.73,252.29 574,262 C586.08,276.19 602.23,287.57 618.73,296.5 " fill="none" id="Application-backto-Document" style="stroke:#A80036;stroke-width:1.0;"/><polygon fill="#FFFFFF" points="553.53,215.01,551.1209,221.8068,556.4683,226.6447,558.8774,219.8479,553.53,215.01" style="stroke:#A80036;stroke-width:1.0;"/><polygon fill="#000000" points="582.3456,257.2822,578.4774,248.5938,574.1093,252.5268,582.3456,257.2822" style="stroke:#000000;stroke-width:1.0;"/><text fill="#000000" font-family="sans-serif" font-size="13" lengthAdjust="spacing" textLength="56" x="588" y="258.0669">contents</text><text fill="#000000" font-family="sans-serif" font-size="13" lengthAdjust="spacing" textLength="24" x="587.0466" y="290.384">0..1</text><!--MD5=[34d3520aa241427fbea18906841a2be6]
reverse link Resource_Request to Application--><path codeLine="599" d="M646.09,78.06 C632.9,94.31 616.3,114.42 601,132 C592.41,141.87 582.75,152.5 574.16,161.79 " fill="none" id="Resource_Request-backto-Application" style="stroke:#A80036;stroke-width:1.0;"/><polygon fill="none" points="640.84,73.42,658.85,62.25,651.74,82.21,640.84,73.42" style="stroke:#A80036;stroke-width:1.0;"/><!--MD5=[d43df4fbdad36fd00892352d175d5460]
link Agent to Contact_Information--><path codeLine="18" d="M265.43,85.02 C217.02,112.67 153.74,148.81 116.71,169.96 " fill="none" id="Agent-to-Contact_Information" style="stroke:#A80036;stroke-width:1.0;"/><polygon fill="#A80036" points="112.32,172.47,122.1191,171.4812,116.6621,169.9908,118.1525,164.5338,112.32,172.47" style="stroke:#A80036;stroke-width:1.0;"/><polygon fill="#000000" points="209.6582,126.0462,218.9701,124.1123,216.055,119.0082,209.6582,126.0462" style="stroke:#000000;stroke-width:1.0;"/><text fill="#000000" font-family="sans-serif" font-size="13" lengthAdjust="spacing" textLength="55" x="223" y="128.0669">contacts</text><text fill="#000000" font-family="sans-serif" font-size="13" lengthAdjust="spacing" textLength="8" x="244.8597" y="105.3482">1</text><text fill="#000000" font-family="sans-serif" font-size="13" lengthAdjust="spacing" textLength="23" x="94.4144" y="161.4713">0..*</text><!--MD5=[d43c569b2c93336ab3caeea3dfd29687]
link Resource_Offer to Resource--><path codeLine="577" d="M969.39,62.04 C976.78,87.36 991.71,138.55 1000.04,167.09 " fill="none" id="Resource_Offer-to-Resource" style="stroke:#A80036;stroke-width:1.0;"/><polygon fill="#A80036" points="1001.52,172.15,1002.84,162.39,1000.12,167.35,995.16,164.63,1001.52,172.15" style="stroke:#A80036;stroke-width:1.0;"/><polygon fill="#000000" points="995.4004,128.3663,995.6883,118.8601,990.0457,120.5064,995.4004,128.3663" style="stroke:#000000;stroke-width:1.0;"/><text fill="#000000" font-family="sans-serif" font-size="13" lengthAdjust="spacing" textLength="12" x="1003" y="128.0669">of</text><text fill="#000000" font-family="sans-serif" font-size="13" lengthAdjust="spacing" textLength="23" x="974.6536" y="81.9265">0..*</text><text fill="#000000" font-family="sans-serif" font-size="13" lengthAdjust="spacing" textLength="23" x="973.2266" y="161.3386">1..*</text><!--MD5=[70b48935e489e5910f3d4342ebe97e3f]
reverse link Resource_Offer to Condition--><path codeLine="590" d="M993.2,70.72 C1027.67,99.73 1085,147.95 1114,172.36 " fill="none" id="Resource_Offer-backto-Condition" style="stroke:#A80036;stroke-width:1.0;"/><polygon fill="#FFFFFF" points="982.87,62.04,984.8884,68.9629,992.0551,69.7623,990.0366,62.8395,982.87,62.04" style="stroke:#A80036;stroke-width:1.0;"/><polygon fill="#000000" points="1071.8259,126.7855,1066.7969,118.7133,1063.0127,123.2109,1071.8259,126.7855" style="stroke:#000000;stroke-width:1.0;"/><text fill="#000000" font-family="sans-serif" font-size="13" lengthAdjust="spacing" textLength="23" x="1077" y="128.0669">has</text><text fill="#000000" font-family="sans-serif" font-size="13" lengthAdjust="spacing" textLength="23" x="1080.8594" y="161.3235">0..*</text><!--MD5=[de101208c945d7bf9a03e03cc38155cf]
reverse link Resource_Offer to Document--><path codeLine="607" d="M940.45,71.65 C917.32,94.9 881.73,130.74 851,162 C806.79,206.96 755.91,259.22 724.1,291.96 " fill="none" id="Resource_Offer-backto-Document" style="stroke:#A80036;stroke-width:1.0;"/><polygon fill="#FFFFFF" points="949.84,62.21,942.7722,63.6407,941.3745,70.715,948.4423,69.2843,949.84,62.21" style="stroke:#A80036;stroke-width:1.0;"/><polygon fill="#000000" points="852.4967,192.1339,860.9311,187.7395,856.7374,183.6211,852.4967,192.1339" style="stroke:#000000;stroke-width:1.0;"/><text fill="#000000" font-family="sans-serif" font-size="13" lengthAdjust="spacing" textLength="77" x="865" y="193.0669">described in</text><text fill="#000000" font-family="sans-serif" font-size="13" lengthAdjust="spacing" textLength="24" x="916.8433" y="82.1528">0..1</text><text fill="#000000" font-family="sans-serif" font-size="13" lengthAdjust="spacing" textLength="23" x="705.1425" y="280.7195">0..*</text><!--MD5=[fc92b3bd86963d223135ad44997ca08d]
reverse link Resource_Request to Document--><path codeLine="603" d="M673.25,75.27 C677.36,127.12 686.1,237.07 690.44,291.74 " fill="none" id="Resource_Request-backto-Document" style="stroke:#A80036;stroke-width:1.0;"/><polygon fill="#FFFFFF" points="672.21,62.29,668.6973,68.5877,673.1596,74.2524,676.6723,67.9546,672.21,62.29" style="stroke:#A80036;stroke-width:1.0;"/><polygon fill="#000000" points="690.3958,193.5507,692.6095,184.3014,686.7501,184.7667,690.3958,193.5507" style="stroke:#000000;stroke-width:1.0;"/><text fill="#000000" font-family="sans-serif" font-size="13" lengthAdjust="spacing" textLength="77" x="699" y="193.0669">described in</text><text fill="#000000" font-family="sans-serif" font-size="13" lengthAdjust="spacing" textLength="24" x="644.7707" y="81.9611">0..1</text><text fill="#000000" font-family="sans-serif" font-size="13" lengthAdjust="spacing" textLength="23" x="664.6719" y="280.8338">0..*</text><!--MD5=[633efb3059d8abd5e23b324815a30d32]
link Resource_Request to Resource_Request--><path codeLine="611" d="M745.72,31.88 C765.51,32.68 780.5,37.39 780.5,46 C780.5,53.8 768.19,58.4 751.15,59.79 " fill="none" id="Resource_Request-to-Resource_Request" style="stroke:#A80036;stroke-width:1.0;"/><polygon fill="#A80036" points="745.72,60.12,754.9434,63.5738,750.711,59.8205,754.4643,55.5882,745.72,60.12" style="stroke:#A80036;stroke-width:1.0;"/><polygon fill="#000000" points="785.702,51.0623,788.2731,41.9059,782.4001,42.1433,785.702,51.0623" style="stroke:#000000;stroke-width:1.0;"/><text fill="#000000" font-family="sans-serif" font-size="13" lengthAdjust="spacing" textLength="38" x="799.5" y="50.5669">revise</text><text fill="#000000" font-family="sans-serif" font-size="13" lengthAdjust="spacing" textLength="23" x="753.399" y="27.0273">0..*</text><text fill="#000000" font-family="sans-serif" font-size="13" lengthAdjust="spacing" textLength="24" x="753.4435" y="57.7824">0..1</text><!--MD5=[0db8103b3d861b3f1c0ae604b4b70acc]
link Resource_Request to Resource--><path codeLine="615" d="M706.85,62.04 C769.74,88.41 899.5,142.83 965.51,170.52 " fill="none" id="Resource_Request-to-Resource" style="stroke:#A80036;stroke-width:1.0;"/><polygon fill="#A80036" points="970.15,172.47,963.3886,165.3087,965.5367,170.5419,960.3036,172.69,970.15,172.47" style="stroke:#A80036;stroke-width:1.0;"/><polygon fill="#000000" points="877.6109,125.5002,870.4063,119.2917,868.133,124.7122,877.6109,125.5002" style="stroke:#000000;stroke-width:1.0;"/><text fill="#000000" font-family="sans-serif" font-size="13" lengthAdjust="spacing" textLength="12" x="882" y="128.0669">of</text><text fill="#000000" font-family="sans-serif" font-size="13" lengthAdjust="spacing" textLength="23" x="691.9159" y="81.9265">0..*</text><text fill="#000000" font-family="sans-serif" font-size="13" lengthAdjust="spacing" textLength="23" x="930.8734" y="161.4713">1..*</text><!--MD5=[a21829bf9e22d7ad2257d12c520c50b2]
reverse link Resource to Funding--><path codeLine="249" d="M1006,224.86 C1006,252.1 1006,288.42 1006,308.68 " fill="none" id="Resource-backto-Funding" style="stroke:#A80036;stroke-width:1.0;"/><polygon fill="none" points="999,224.67,1006,204.67,1013,224.67,999,224.67" style="stroke:#A80036;stroke-width:1.0;"/><!--MD5=[7072accdc040e53c8442e4ca7ea58660]
link Funding to Funding--><path codeLine="273" d="M1047.05,312.11 C1065.75,310.79 1082,315.09 1082,325 C1082,334.91 1065.75,339.21 1047.05,337.89 " fill="none" id="Funding-Funding" style="stroke:#A80036;stroke-width:1.0;"/><polygon fill="#000000" points="1086.6479,330.054,1090.2165,321.2383,1084.3532,320.8244,1086.6479,330.054" style="stroke:#000000;stroke-width:1.0;"/><text fill="#000000" font-family="sans-serif" font-size="13" lengthAdjust="spacing" textLength="56" x="1101" y="329.5669">is part of</text><text fill="#000000" font-family="sans-serif" font-size="13" lengthAdjust="spacing" textLength="23" x="1055.0967" y="306.0648">0..*</text><text fill="#000000" font-family="sans-serif" font-size="13" lengthAdjust="spacing" textLength="23" x="1055.0967" y="335.7924">0..*</text><!--MD5=[dc4598ce2d2e32aede71f5bf98c1fc33]
reverse link Application to Funding_Application--><path codeLine="405" d="M530.94,234.17 C529.56,237.81 528.22,241.46 527,245 C519.43,266.94 512.58,292.97 508.6,308.98 " fill="none" id="Application-backto-Funding_Application" style="stroke:#A80036;stroke-width:1.0;"/><polygon fill="none" points="524.61,231.16,538.58,215.23,537.59,236.39,524.61,231.16" style="stroke:#A80036;stroke-width:1.0;"/><!--MD5=[ce01e496d5f2dcc88ba1226d075cb019]
reverse link Call_for_Applications to Call_for_Funding_Applications--><path codeLine="476" d="M279,224.86 C279,252.1 279,288.42 279,308.68 " fill="none" id="Call_for_Applications-backto-Call_for_Funding_Applications" style="stroke:#A80036;stroke-width:1.0;"/><polygon fill="none" points="272,224.67,279,204.67,286,224.67,272,224.67" style="stroke:#A80036;stroke-width:1.0;"/><!--MD5=[a406bc577592b2f153e84d7b09167aaf]
@startuml

    !includesub core.puml!common
    !includesub core.puml!Call_for_Applications
    !includesub core.puml!Application
    !includesub core.puml!Resource
    !includesub core.puml!Document
    !includesub core.puml!Agent
    !includesub core.puml!Resource_Offer
    !includesub core.puml!Resource_Request
    !includesub core.puml!Condition
    !includesub core.puml!Funding
    !includesub core.puml!Funding_Application
    !includesub core.puml!Call_for_Funding_Applications

@enduml

@startuml

    hide empty members
    skinparam BoxPadding 120
    class "Call_for_Applications" #ffffff {
    }
	"Call_for_Applications" -u-> "issuer" "Agent"
    "Application" "0..*" -l- "0..1" "Call_for_Applications" : in response to >
	"Resource_Offer" <|- - "Call_for_Applications"
    class "Application" #ffffff {
        date : Date
    }
    "Application" -u-> "0..1" "Agent" : applicant >
    "Application" -u-> "0..1" "Agent" : addressee >
    "Application" o- - "0..1" "Document" : contents >
	"Resource_Request" <|- - "Application"
    class "Resource" #ffffff {
    }
    class "Document" #ffffff {
        title : Multilingual_String
        publicationDate : Date
    }
    class "Agent" #ffffff {
        keywords : List<Multilingual_String>
    	lifetime : Date_Range
    	contacts : List<Contact_Information>
    }
    "Agent" "1" - -> "0..*" "Contact_Information" : contacts >
	class "Resource_Offer" #ffffff {
	}
	"Resource_Offer" "0..*" - -> "1..*" "Resource" : of >
	"Resource_Offer" o- - "0..*" "Condition" : has >
	"Resource_Offer" "0..1" o- - "0..*" "Document" : described in >
	class "Resource_Request" #ffffff {
	}
	"Resource_Request" "0..1" o- - "0..*" "Document" : described in >
	"Resource_Request" "0..*" - -> "0..1" "Resource_Request" : revise >
	"Resource_Request" "0..*" - -> "1..*" "Resource" : of >
	class "Condition" #ffffff {
	}
    class "Funding" #ffffff {
    }
     "Resource" <|- - "Funding"
     "Funding" "0..*" - - "0..*" "Funding" : is part of >
    class "Funding_Application" #ffffff {
    }
    "Application" <|- - "Funding_Application"
    class "Call_for_Funding_Applications" #ffffff {
    }
    "Call_for_Applications" <|- - "Call_for_Funding_Applications"

@enduml

PlantUML version 1.2021.8(Sat Jun 26 08:20:59 UTC 2021)
(GPL source distribution)
Java Runtime: OpenJDK Runtime Environment
JVM: OpenJDK 64-Bit Server VM
Default Encoding: UTF-8
Language: en
Country: null
--></g></svg>