<?xml version="1.0" encoding="UTF-8" standalone="no"?><svg xmlns="http://www.w3.org/2000/svg" xmlns:xlink="http://www.w3.org/1999/xlink" contentScriptType="application/ecmascript" contentStyleType="text/css" height="535px" preserveAspectRatio="none" style="width:1055px;height:535px;background:#FFFFFF;" version="1.1" viewBox="0 0 1055 535" width="1055px" zoomAndPan="magnify"><defs><filter height="300%" id="f11pgmj9wmslnn" width="300%" x="-1" y="-1"><feGaussianBlur result="blurOut" stdDeviation="2.0"/><feColorMatrix in="blurOut" result="blurOut2" type="matrix" values="0 0 0 0 0 0 0 0 0 0 0 0 0 0 0 0 0 0 .4 0"/><feOffset dx="4.0" dy="4.0" in="blurOut2" result="blurOut3"/><feBlend in="SourceGraphic" in2="blurOut3" mode="normal"/></filter></defs><g><!--MD5=[9d44916250b776386006c440668bcfbb]
class Agent--><rect codeLine="23" fill="#FFFFFF" filter="url(#f11pgmj9wmslnn)" height="32" id="Agent" style="stroke:#A80036;stroke-width:1.5;" width="69" x="353.9809" y="150"/><ellipse cx="368.9809" cy="166" fill="#ADD1B2" rx="11" ry="11" style="stroke:#A80036;stroke-width:1.0;"/><path d="M371.9497,171.6406 Q371.3716,171.9375 370.7309,172.0781 Q370.0903,172.2344 369.3872,172.2344 Q366.8872,172.2344 365.5591,170.5938 Q364.2466,168.9375 364.2466,165.8125 Q364.2466,162.6875 365.5591,161.0313 Q366.8872,159.375 369.3872,159.375 Q370.0903,159.375 370.7309,159.5313 Q371.3872,159.6875 371.9497,159.9844 L371.9497,162.7031 Q371.3247,162.125 370.7309,161.8594 Q370.1372,161.5781 369.5122,161.5781 Q368.1684,161.5781 367.4809,162.6563 Q366.7934,163.7188 366.7934,165.8125 Q366.7934,167.9063 367.4809,168.9844 Q368.1684,170.0469 369.5122,170.0469 Q370.1372,170.0469 370.7309,169.7813 Q371.3247,169.5 371.9497,168.9219 L371.9497,171.6406 Z " fill="#000000"/><text fill="#000000" font-family="sans-serif" font-size="12" lengthAdjust="spacing" textLength="37" x="382.9809" y="170.1543">Agent</text><!--MD5=[c881b25adf3665c6568c9693d41a70f3]
class Activity--><rect codeLine="52" fill="#FFFFFF" filter="url(#f11pgmj9wmslnn)" height="65.6094" id="Activity" style="stroke:#A80036;stroke-width:1.5;" width="131" x="322.9809" y="7"/><ellipse cx="363.1809" cy="23" fill="#ADD1B2" rx="11" ry="11" style="stroke:#A80036;stroke-width:1.0;"/><path d="M366.1497,28.6406 Q365.5716,28.9375 364.9309,29.0781 Q364.2903,29.2344 363.5872,29.2344 Q361.0872,29.2344 359.7591,27.5938 Q358.4466,25.9375 358.4466,22.8125 Q358.4466,19.6875 359.7591,18.0313 Q361.0872,16.375 363.5872,16.375 Q364.2903,16.375 364.9309,16.5313 Q365.5872,16.6875 366.1497,16.9844 L366.1497,19.7031 Q365.5247,19.125 364.9309,18.8594 Q364.3372,18.5781 363.7122,18.5781 Q362.3684,18.5781 361.6809,19.6563 Q360.9934,20.7188 360.9934,22.8125 Q360.9934,24.9063 361.6809,25.9844 Q362.3684,27.0469 363.7122,27.0469 Q364.3372,27.0469 364.9309,26.7813 Q365.5247,26.5 366.1497,25.9219 L366.1497,28.6406 Z " fill="#000000"/><text fill="#000000" font-family="sans-serif" font-size="12" lengthAdjust="spacing" textLength="43" x="382.7809" y="27.1543">Activity</text><line style="stroke:#A80036;stroke-width:1.5;" x1="323.9809" x2="452.9809" y1="39" y2="39"/><text fill="#000000" font-family="sans-serif" font-size="11" lengthAdjust="spacing" textLength="116" x="328.9809" y="53.2104">contacts : List&lt;URI&gt;</text><text fill="#000000" font-family="sans-serif" font-size="11" lengthAdjust="spacing" textLength="119" x="328.9809" y="66.0151">displayName : String</text><!--MD5=[0330879a1a385efee19ba3488ed490fa]
class Contribution--><rect codeLine="82" fill="#FFFFFF" filter="url(#f11pgmj9wmslnn)" height="32" id="Contribution" style="stroke:#A80036;stroke-width:1.5;" width="109" x="483.9809" y="150"/><ellipse cx="498.9809" cy="166" fill="#ADD1B2" rx="11" ry="11" style="stroke:#A80036;stroke-width:1.0;"/><path d="M501.9497,171.6406 Q501.3716,171.9375 500.7309,172.0781 Q500.0903,172.2344 499.3872,172.2344 Q496.8872,172.2344 495.5591,170.5938 Q494.2466,168.9375 494.2466,165.8125 Q494.2466,162.6875 495.5591,161.0313 Q496.8872,159.375 499.3872,159.375 Q500.0903,159.375 500.7309,159.5313 Q501.3872,159.6875 501.9497,159.9844 L501.9497,162.7031 Q501.3247,162.125 500.7309,161.8594 Q500.1372,161.5781 499.5122,161.5781 Q498.1684,161.5781 497.4809,162.6563 Q496.7934,163.7188 496.7934,165.8125 Q496.7934,167.9063 497.4809,168.9844 Q498.1684,170.0469 499.5122,170.0469 Q500.1372,170.0469 500.7309,169.7813 Q501.3247,169.5 501.9497,168.9219 L501.9497,171.6406 Z " fill="#000000"/><text fill="#000000" font-family="sans-serif" font-size="12" lengthAdjust="spacing" textLength="77" x="512.9809" y="170.1543">Contribution</text><!--MD5=[9291c471b34ea1f1faaed3f62ed2250a]
class Acknowledgement_Statement--><rect codeLine="85" fill="#FFFFFF" filter="url(#f11pgmj9wmslnn)" height="32" id="Acknowledgement_Statement" style="stroke:#A80036;stroke-width:1.5;" width="218" x="651.4809" y="24"/><ellipse cx="666.4809" cy="40" fill="#ADD1B2" rx="11" ry="11" style="stroke:#A80036;stroke-width:1.0;"/><path d="M669.4497,45.6406 Q668.8716,45.9375 668.2309,46.0781 Q667.5903,46.2344 666.8872,46.2344 Q664.3872,46.2344 663.0591,44.5938 Q661.7466,42.9375 661.7466,39.8125 Q661.7466,36.6875 663.0591,35.0313 Q664.3872,33.375 666.8872,33.375 Q667.5903,33.375 668.2309,33.5313 Q668.8872,33.6875 669.4497,33.9844 L669.4497,36.7031 Q668.8247,36.125 668.2309,35.8594 Q667.6372,35.5781 667.0122,35.5781 Q665.6684,35.5781 664.9809,36.6563 Q664.2934,37.7188 664.2934,39.8125 Q664.2934,41.9063 664.9809,42.9844 Q665.6684,44.0469 667.0122,44.0469 Q667.6372,44.0469 668.2309,43.7813 Q668.8247,43.5 669.4497,42.9219 L669.4497,45.6406 Z " fill="#000000"/><text fill="#000000" font-family="sans-serif" font-size="12" lengthAdjust="spacing" textLength="186" x="680.4809" y="44.1543">Acknowledgement_Statement</text><!--MD5=[532fe005ca0bef0ad6b309c9c6480e22]
class Contribution_Statement--><rect codeLine="88" fill="#FFFFFF" filter="url(#f11pgmj9wmslnn)" height="32" id="Contribution_Statement" style="stroke:#A80036;stroke-width:1.5;" width="181" x="610.9809" y="259"/><ellipse cx="625.9809" cy="275" fill="#ADD1B2" rx="11" ry="11" style="stroke:#A80036;stroke-width:1.0;"/><path d="M628.9497,280.6406 Q628.3716,280.9375 627.7309,281.0781 Q627.0903,281.2344 626.3872,281.2344 Q623.8872,281.2344 622.5591,279.5938 Q621.2466,277.9375 621.2466,274.8125 Q621.2466,271.6875 622.5591,270.0313 Q623.8872,268.375 626.3872,268.375 Q627.0903,268.375 627.7309,268.5313 Q628.3872,268.6875 628.9497,268.9844 L628.9497,271.7031 Q628.3247,271.125 627.7309,270.8594 Q627.1372,270.5781 626.5122,270.5781 Q625.1684,270.5781 624.4809,271.6563 Q623.7934,272.7188 623.7934,274.8125 Q623.7934,276.9063 624.4809,277.9844 Q625.1684,279.0469 626.5122,279.0469 Q627.1372,279.0469 627.7309,278.7813 Q628.3247,278.5 628.9497,277.9219 L628.9497,280.6406 Z " fill="#000000"/><text fill="#000000" font-family="sans-serif" font-size="12" lengthAdjust="spacing" textLength="149" x="639.9809" y="279.1543">Contribution_Statement</text><!--MD5=[75e6ee6f0cee60576da1adad405695b7]
class Free_Text_Contribution_Statement--><rect codeLine="91" fill="#FFFFFF" filter="url(#f11pgmj9wmslnn)" height="52.8047" id="Free_Text_Contribution_Statement" style="stroke:#A80036;stroke-width:1.5;" width="247" x="435.9809" y="363.5"/><ellipse cx="450.9809" cy="379.5" fill="#ADD1B2" rx="11" ry="11" style="stroke:#A80036;stroke-width:1.0;"/><path d="M453.9497,385.1406 Q453.3716,385.4375 452.7309,385.5781 Q452.0903,385.7344 451.3872,385.7344 Q448.8872,385.7344 447.5591,384.0938 Q446.2466,382.4375 446.2466,379.3125 Q446.2466,376.1875 447.5591,374.5313 Q448.8872,372.875 451.3872,372.875 Q452.0903,372.875 452.7309,373.0313 Q453.3872,373.1875 453.9497,373.4844 L453.9497,376.2031 Q453.3247,375.625 452.7309,375.3594 Q452.1372,375.0781 451.5122,375.0781 Q450.1684,375.0781 449.4809,376.1563 Q448.7934,377.2188 448.7934,379.3125 Q448.7934,381.4063 449.4809,382.4844 Q450.1684,383.5469 451.5122,383.5469 Q452.1372,383.5469 452.7309,383.2813 Q453.3247,383 453.9497,382.4219 L453.9497,385.1406 Z " fill="#000000"/><text fill="#000000" font-family="sans-serif" font-size="12" lengthAdjust="spacing" textLength="215" x="464.9809" y="383.6543">Free_Text_Contribution_Statement</text><line style="stroke:#A80036;stroke-width:1.5;" x1="436.9809" x2="681.9809" y1="395.5" y2="395.5"/><text fill="#000000" font-family="sans-serif" font-size="11" lengthAdjust="spacing" textLength="173" x="441.9809" y="409.7104">statement : Multilingual_String</text><!--MD5=[694c8da16a3aeed8cc252f2a2bde6980]
class Resource_Contribution_Statement--><rect codeLine="95" fill="#FFFFFF" filter="url(#f11pgmj9wmslnn)" height="32" id="Resource_Contribution_Statement" style="stroke:#A80036;stroke-width:1.5;" width="246" x="718.4809" y="374"/><ellipse cx="733.4809" cy="390" fill="#ADD1B2" rx="11" ry="11" style="stroke:#A80036;stroke-width:1.0;"/><path d="M736.4497,395.6406 Q735.8716,395.9375 735.2309,396.0781 Q734.5903,396.2344 733.8872,396.2344 Q731.3872,396.2344 730.0591,394.5938 Q728.7466,392.9375 728.7466,389.8125 Q728.7466,386.6875 730.0591,385.0313 Q731.3872,383.375 733.8872,383.375 Q734.5903,383.375 735.2309,383.5313 Q735.8872,383.6875 736.4497,383.9844 L736.4497,386.7031 Q735.8247,386.125 735.2309,385.8594 Q734.6372,385.5781 734.0122,385.5781 Q732.6684,385.5781 731.9809,386.6563 Q731.2934,387.7188 731.2934,389.8125 Q731.2934,391.9063 731.9809,392.9844 Q732.6684,394.0469 734.0122,394.0469 Q734.6372,394.0469 735.2309,393.7813 Q735.8247,393.5 736.4497,392.9219 L736.4497,395.6406 Z " fill="#000000"/><text fill="#000000" font-family="sans-serif" font-size="12" lengthAdjust="spacing" textLength="214" x="747.4809" y="394.1543">Resource_Contribution_Statement</text><!--MD5=[6b13f1b330d33795af281e5c1dfe1e98]
class Resource--><rect codeLine="98" fill="#FFFFFF" filter="url(#f11pgmj9wmslnn)" height="32" id="Resource" style="stroke:#A80036;stroke-width:1.5;" width="91" x="883.9809" y="489"/><ellipse cx="898.9809" cy="505" fill="#ADD1B2" rx="11" ry="11" style="stroke:#A80036;stroke-width:1.0;"/><path d="M901.9497,510.6406 Q901.3716,510.9375 900.7309,511.0781 Q900.0903,511.2344 899.3872,511.2344 Q896.8872,511.2344 895.5591,509.5938 Q894.2466,507.9375 894.2466,504.8125 Q894.2466,501.6875 895.5591,500.0313 Q896.8872,498.375 899.3872,498.375 Q900.0903,498.375 900.7309,498.5313 Q901.3872,498.6875 901.9497,498.9844 L901.9497,501.7031 Q901.3247,501.125 900.7309,500.8594 Q900.1372,500.5781 899.5122,500.5781 Q898.1684,500.5781 897.4809,501.6563 Q896.7934,502.7188 896.7934,504.8125 Q896.7934,506.9063 897.4809,507.9844 Q898.1684,509.0469 899.5122,509.0469 Q900.1372,509.0469 900.7309,508.7813 Q901.3247,508.5 901.9497,507.9219 L901.9497,510.6406 Z " fill="#000000"/><text fill="#000000" font-family="sans-serif" font-size="12" lengthAdjust="spacing" textLength="59" x="912.9809" y="509.1543">Resource</text><!--MD5=[499f999e1567c93424c56c6c7aa1fc6e]
class Contributorship_to_Document--><rect codeLine="104" fill="#FFFFFF" filter="url(#f11pgmj9wmslnn)" height="32" id="Contributorship_to_Document" style="stroke:#A80036;stroke-width:1.5;" width="218" x="357.4809" y="259"/><ellipse cx="372.4809" cy="275" fill="#ADD1B2" rx="11" ry="11" style="stroke:#A80036;stroke-width:1.0;"/><path d="M375.4497,280.6406 Q374.8716,280.9375 374.2309,281.0781 Q373.5903,281.2344 372.8872,281.2344 Q370.3872,281.2344 369.0591,279.5938 Q367.7466,277.9375 367.7466,274.8125 Q367.7466,271.6875 369.0591,270.0313 Q370.3872,268.375 372.8872,268.375 Q373.5903,268.375 374.2309,268.5313 Q374.8872,268.6875 375.4497,268.9844 L375.4497,271.7031 Q374.8247,271.125 374.2309,270.8594 Q373.6372,270.5781 373.0122,270.5781 Q371.6684,270.5781 370.9809,271.6563 Q370.2934,272.7188 370.2934,274.8125 Q370.2934,276.9063 370.9809,277.9844 Q371.6684,279.0469 373.0122,279.0469 Q373.6372,279.0469 374.2309,278.7813 Q374.8247,278.5 375.4497,277.9219 L375.4497,280.6406 Z " fill="#000000"/><text fill="#000000" font-family="sans-serif" font-size="12" lengthAdjust="spacing" textLength="186" x="386.4809" y="279.1543">Contributorship_to_Document</text><!--MD5=[59b530d44ae785dc18db921986a9c15c]
class Document--><rect codeLine="8" fill="#FFFFFF" filter="url(#f11pgmj9wmslnn)" height="78.4141" id="Document" style="stroke:#A80036;stroke-width:1.5;" width="148" x="252.4809" y="351"/><ellipse cx="290.8809" cy="367" fill="#ADD1B2" rx="11" ry="11" style="stroke:#A80036;stroke-width:1.0;"/><path d="M293.8497,372.6406 Q293.2716,372.9375 292.6309,373.0781 Q291.9903,373.2344 291.2872,373.2344 Q288.7872,373.2344 287.4591,371.5938 Q286.1466,369.9375 286.1466,366.8125 Q286.1466,363.6875 287.4591,362.0313 Q288.7872,360.375 291.2872,360.375 Q291.9903,360.375 292.6309,360.5313 Q293.2872,360.6875 293.8497,360.9844 L293.8497,363.7031 Q293.2247,363.125 292.6309,362.8594 Q292.0372,362.5781 291.4122,362.5781 Q290.0684,362.5781 289.3809,363.6563 Q288.6934,364.7188 288.6934,366.8125 Q288.6934,368.9063 289.3809,369.9844 Q290.0684,371.0469 291.4122,371.0469 Q292.0372,371.0469 292.6309,370.7813 Q293.2247,370.5 293.8497,369.9219 L293.8497,372.6406 Z " fill="#000000"/><text fill="#000000" font-family="sans-serif" font-size="12" lengthAdjust="spacing" textLength="64" x="310.0809" y="371.1543">Document</text><line style="stroke:#A80036;stroke-width:1.5;" x1="253.4809" x2="399.4809" y1="383" y2="383"/><text fill="#000000" font-family="sans-serif" font-size="11" lengthAdjust="spacing" textLength="85" x="258.4809" y="397.2104">DOI : DOI_Type</text><text fill="#000000" font-family="sans-serif" font-size="11" lengthAdjust="spacing" textLength="136" x="258.4809" y="410.0151">title : Multilingual_String</text><text fill="#000000" font-family="sans-serif" font-size="11" lengthAdjust="spacing" textLength="125" x="258.4809" y="422.8198">publicationDate : Date</text><!--MD5=[ddbff00b4911ad4b77d6aa32dd14d1d7]
class Affiliation_Statement--><rect codeLine="127" fill="#FFFFFF" filter="url(#f11pgmj9wmslnn)" height="65.6094" id="Affiliation_Statement" style="stroke:#A80036;stroke-width:1.5;" width="161" x="105.9809" y="133"/><ellipse cx="120.9809" cy="149" fill="#ADD1B2" rx="11" ry="11" style="stroke:#A80036;stroke-width:1.0;"/><path d="M123.9497,154.6406 Q123.3716,154.9375 122.7309,155.0781 Q122.0903,155.2344 121.3872,155.2344 Q118.8872,155.2344 117.5591,153.5938 Q116.2466,151.9375 116.2466,148.8125 Q116.2466,145.6875 117.5591,144.0313 Q118.8872,142.375 121.3872,142.375 Q122.0903,142.375 122.7309,142.5313 Q123.3872,142.6875 123.9497,142.9844 L123.9497,145.7031 Q123.3247,145.125 122.7309,144.8594 Q122.1372,144.5781 121.5122,144.5781 Q120.1684,144.5781 119.4809,145.6563 Q118.7934,146.7188 118.7934,148.8125 Q118.7934,150.9063 119.4809,151.9844 Q120.1684,153.0469 121.5122,153.0469 Q122.1372,153.0469 122.7309,152.7813 Q123.3247,152.5 123.9497,151.9219 L123.9497,154.6406 Z " fill="#000000"/><text fill="#000000" font-family="sans-serif" font-size="12" lengthAdjust="spacing" textLength="129" x="134.9809" y="153.1543">Affiliation_Statement</text><line style="stroke:#A80036;stroke-width:1.5;" x1="106.9809" x2="265.9809" y1="165" y2="165"/><text fill="#000000" font-family="sans-serif" font-size="11" lengthAdjust="spacing" textLength="138" x="111.9809" y="179.2104">displayAffiliation : String</text><text fill="#000000" font-family="sans-serif" font-size="11" lengthAdjust="spacing" textLength="147" x="111.9809" y="192.0151">address : Postal_Address</text><!--MD5=[fe1d14fe6d68ca7e76eb34268c62a1f3]
class Postal_Address--><rect fill="#FEFECE" filter="url(#f11pgmj9wmslnn)" height="32" id="Postal_Address" style="stroke:#A80036;stroke-width:1.5;" width="128" x="194.4809" y="259"/><ellipse cx="209.4809" cy="275" fill="#ADD1B2" rx="11" ry="11" style="stroke:#A80036;stroke-width:1.0;"/><path d="M212.4497,280.6406 Q211.8716,280.9375 211.2309,281.0781 Q210.5903,281.2344 209.8872,281.2344 Q207.3872,281.2344 206.0591,279.5938 Q204.7466,277.9375 204.7466,274.8125 Q204.7466,271.6875 206.0591,270.0313 Q207.3872,268.375 209.8872,268.375 Q210.5903,268.375 211.2309,268.5313 Q211.8872,268.6875 212.4497,268.9844 L212.4497,271.7031 Q211.8247,271.125 211.2309,270.8594 Q210.6372,270.5781 210.0122,270.5781 Q208.6684,270.5781 207.9809,271.6563 Q207.2934,272.7188 207.2934,274.8125 Q207.2934,276.9063 207.9809,277.9844 Q208.6684,279.0469 210.0122,279.0469 Q210.6372,279.0469 211.2309,278.7813 Q211.8247,278.5 212.4497,277.9219 L212.4497,280.6406 Z " fill="#000000"/><text fill="#000000" font-family="sans-serif" font-size="12" lengthAdjust="spacing" textLength="96" x="223.4809" y="279.1543">Postal_Address</text><!--MD5=[779f3743e425ed8a6f0bf188ddea4860]
class Organisation_Unit--><rect fill="#FEFECE" filter="url(#f11pgmj9wmslnn)" height="32" id="Organisation_Unit" style="stroke:#A80036;stroke-width:1.5;" width="143" x="15.9809" y="259"/><ellipse cx="30.9809" cy="275" fill="#ADD1B2" rx="11" ry="11" style="stroke:#A80036;stroke-width:1.0;"/><path d="M33.9497,280.6406 Q33.3716,280.9375 32.7309,281.0781 Q32.0903,281.2344 31.3872,281.2344 Q28.8872,281.2344 27.5591,279.5938 Q26.2466,277.9375 26.2466,274.8125 Q26.2466,271.6875 27.5591,270.0313 Q28.8872,268.375 31.3872,268.375 Q32.0903,268.375 32.7309,268.5313 Q33.3872,268.6875 33.9497,268.9844 L33.9497,271.7031 Q33.3247,271.125 32.7309,270.8594 Q32.1372,270.5781 31.5122,270.5781 Q30.1684,270.5781 29.4809,271.6563 Q28.7934,272.7188 28.7934,274.8125 Q28.7934,276.9063 29.4809,277.9844 Q30.1684,279.0469 31.5122,279.0469 Q32.1372,279.0469 32.7309,278.7813 Q33.3247,278.5 33.9497,277.9219 L33.9497,280.6406 Z " fill="#000000"/><text fill="#000000" font-family="sans-serif" font-size="12" lengthAdjust="spacing" textLength="111" x="44.9809" y="279.1543">Organisation_Unit</text><!--MD5=[09ce52be0ee7de43c61b6e2d59bf108b]
class Person--><rect fill="#FEFECE" filter="url(#f11pgmj9wmslnn)" height="32" id="Person" style="stroke:#A80036;stroke-width:1.5;" width="76" x="148.4809" y="24"/><ellipse cx="163.4809" cy="40" fill="#ADD1B2" rx="11" ry="11" style="stroke:#A80036;stroke-width:1.0;"/><path d="M166.4497,45.6406 Q165.8716,45.9375 165.2309,46.0781 Q164.5903,46.2344 163.8872,46.2344 Q161.3872,46.2344 160.0591,44.5938 Q158.7466,42.9375 158.7466,39.8125 Q158.7466,36.6875 160.0591,35.0313 Q161.3872,33.375 163.8872,33.375 Q164.5903,33.375 165.2309,33.5313 Q165.8872,33.6875 166.4497,33.9844 L166.4497,36.7031 Q165.8247,36.125 165.2309,35.8594 Q164.6372,35.5781 164.0122,35.5781 Q162.6684,35.5781 161.9809,36.6563 Q161.2934,37.7188 161.2934,39.8125 Q161.2934,41.9063 161.9809,42.9844 Q162.6684,44.0469 164.0122,44.0469 Q164.6372,44.0469 165.2309,43.7813 Q165.8247,43.5 166.4497,42.9219 L166.4497,45.6406 Z " fill="#000000"/><text fill="#000000" font-family="sans-serif" font-size="12" lengthAdjust="spacing" textLength="44" x="177.4809" y="44.1543">Person</text><!--MD5=[fe105c2ee1fabf2400c31a97ce9128bc]
class Textual_Document--><rect codeLine="13" fill="#FFFFFF" filter="url(#f11pgmj9wmslnn)" height="32" id="Textual_Document" style="stroke:#A80036;stroke-width:1.5;" width="147" x="252.9809" y="489"/><ellipse cx="267.9809" cy="505" fill="#ADD1B2" rx="11" ry="11" style="stroke:#A80036;stroke-width:1.0;"/><path d="M270.9497,510.6406 Q270.3716,510.9375 269.7309,511.0781 Q269.0903,511.2344 268.3872,511.2344 Q265.8872,511.2344 264.5591,509.5938 Q263.2466,507.9375 263.2466,504.8125 Q263.2466,501.6875 264.5591,500.0313 Q265.8872,498.375 268.3872,498.375 Q269.0903,498.375 269.7309,498.5313 Q270.3872,498.6875 270.9497,498.9844 L270.9497,501.7031 Q270.3247,501.125 269.7309,500.8594 Q269.1372,500.5781 268.5122,500.5781 Q267.1684,500.5781 266.4809,501.6563 Q265.7934,502.7188 265.7934,504.8125 Q265.7934,506.9063 266.4809,507.9844 Q267.1684,509.0469 268.5122,509.0469 Q269.1372,509.0469 269.7309,508.7813 Q270.3247,508.5 270.9497,507.9219 L270.9497,510.6406 Z " fill="#000000"/><text fill="#000000" font-family="sans-serif" font-size="12" lengthAdjust="spacing" textLength="115" x="281.9809" y="509.1543">Textual_Document</text><!--MD5=[cd935cc757d29bd6a59b1252b30899e0]
link Activity to Agent--><path codeLine="165" d="M388.4809,73.26 C388.4809,92.93 388.4809,117.83 388.4809,136.73 " fill="none" id="Activity-to-Agent" style="stroke:#A80036;stroke-width:1.0;"/><polygon fill="#FFFFFF" points="388.4809,149.82,392.4809,143.82,388.4809,137.82,384.4809,143.82,388.4809,149.82" style="stroke:#A80036;stroke-width:1.0;"/><text fill="#000000" font-family="sans-serif" font-size="13" lengthAdjust="spacing" textLength="23" x="363.4325" y="92.6339">0..*</text><text fill="#000000" font-family="sans-serif" font-size="13" lengthAdjust="spacing" textLength="53" x="326.7028" y="139.0649">0..1 who</text><!--MD5=[985660d160cc1234ef784a412fcab047]
reverse link Contribution to Contribution_Statement--><path codeLine="153" d="M572.4809,189.32 C604.3009,210.21 650.9709,240.85 678.5909,258.97 " fill="none" id="Contribution-backto-Contribution_Statement" style="stroke:#A80036;stroke-width:1.0;"/><polygon fill="#A80036" points="561.4909,182.1,564.3151,188.7351,571.526,188.6801,568.7018,182.0451,561.4909,182.1" style="stroke:#A80036;stroke-width:1.0;"/><text fill="#000000" font-family="sans-serif" font-size="13" lengthAdjust="spacing" textLength="179" x="461.0881" y="247.922">0..* contributionStatements</text><!--MD5=[21f8b3605054312288eb3132d9b75edc]
reverse link Contribution_Statement to Free_Text_Contribution_Statement--><path codeLine="156" d="M666.7009,303.67 C643.8309,321.88 614.1109,345.53 591.7609,363.31 " fill="none" id="Contribution_Statement-backto-Free_Text_Contribution_Statement" style="stroke:#A80036;stroke-width:1.0;"/><polygon fill="none" points="662.6209,297.98,682.6209,291.01,671.3309,308.94,662.6209,297.98" style="stroke:#A80036;stroke-width:1.0;"/><!--MD5=[a32bc6b77530b63001477d316ccad4f4]
reverse link Contribution_Statement to Resource_Contribution_Statement--><path codeLine="159" d="M736.0209,303.88 C763.4409,326.01 800.7109,356.09 822.8109,373.93 " fill="none" id="Contribution_Statement-backto-Resource_Contribution_Statement" style="stroke:#A80036;stroke-width:1.0;"/><polygon fill="none" points="731.2409,309.01,720.0709,291.01,740.0309,298.12,731.2409,309.01" style="stroke:#A80036;stroke-width:1.0;"/><!--MD5=[55f20054f286b2e7074e8d22fab1f608]
reverse link Activity to Contribution--><path codeLine="189" d="M443.2609,86.29 C470.2609,108.61 501.0409,134.05 520.1209,149.82 " fill="none" id="Activity-backto-Contribution" style="stroke:#A80036;stroke-width:1.0;"/><polygon fill="none" points="438.4509,91.39,427.5009,73.26,447.3709,80.6,438.4509,91.39" style="stroke:#A80036;stroke-width:1.0;"/><!--MD5=[69e52749bc6a88f912658ed2a89efd9a]
link Acknowledgement_Statement to Contribution--><path codeLine="198" d="M733.2609,56.2 C694.1209,78.06 621.7709,118.48 577.1109,143.42 " fill="none" id="Acknowledgement_Statement-to-Contribution" style="stroke:#A80036;stroke-width:1.0;"/><polygon fill="#FFFFFF" points="565.5809,149.86,572.7692,150.4336,576.0634,144.0189,568.8751,143.4453,565.5809,149.86" style="stroke:#A80036;stroke-width:1.0;"/><text fill="#000000" font-family="sans-serif" font-size="13" lengthAdjust="spacing" textLength="87" x="622.8349" y="76.1395">0..* thanks to</text><text fill="#000000" font-family="sans-serif" font-size="13" lengthAdjust="spacing" textLength="24" x="546.7716" y="138.8235">0..1</text><!--MD5=[9a54662a9dd62a0778534af2fcaddce0]
link Acknowledgement_Statement to Resource--><path codeLine="201" d="M776.8409,56.08 C820.7209,97.78 940.4809,220.22 982.4809,351 C993.0809,384.01 992.9809,395.96 982.4809,429 C976.6109,447.46 964.3809,465.3 953.1409,478.94 " fill="none" id="Acknowledgement_Statement-to-Resource" style="stroke:#A80036;stroke-width:1.0;"/><polygon fill="#FFFFFF" points="944.4809,488.91,951.4358,487.0048,952.3521,479.8522,945.3973,481.7574,944.4809,488.91" style="stroke:#A80036;stroke-width:1.0;"/><text fill="#000000" font-family="sans-serif" font-size="13" lengthAdjust="spacing" textLength="23" x="755.4508" y="75.9798">0..*</text><text fill="#000000" font-family="sans-serif" font-size="13" lengthAdjust="spacing" textLength="84" x="964.0747" y="477.8907">0..1 resource</text><!--MD5=[bd2b41009eed06f10d8bee85cf3b965a]
link Resource_Contribution_Statement to Resource--><path codeLine="204" d="M853.3509,406.24 C867.7209,424.69 892.1309,456.05 909.4409,478.27 " fill="none" id="Resource_Contribution_Statement-to-Resource" style="stroke:#A80036;stroke-width:1.0;"/><polygon fill="#A80036" points="917.5209,488.64,916.9912,481.4484,910.1491,479.1713,910.6788,486.3629,917.5209,488.64" style="stroke:#A80036;stroke-width:1.0;"/><text fill="#000000" font-family="sans-serif" font-size="13" lengthAdjust="spacing" textLength="23" x="830.4735" y="426.1928">0..*</text><text fill="#000000" font-family="sans-serif" font-size="13" lengthAdjust="spacing" textLength="84" x="815.6467" y="477.8253">0..1 resource</text><!--MD5=[9eee727d802a18f0e95ff3f6b6586c86]
link Contributorship_to_Document to Document--><path codeLine="162" d="M447.8909,291.01 C431.5709,304.18 406.9409,324.05 384.1309,342.47 " fill="none" id="Contributorship_to_Document-to-Document" style="stroke:#A80036;stroke-width:1.0;"/><polygon fill="#A80036" points="373.8109,350.8,380.9918,350.1408,383.1452,343.2587,375.9643,343.9179,373.8109,350.8" style="stroke:#A80036;stroke-width:1.0;"/><text fill="#000000" font-family="sans-serif" font-size="13" lengthAdjust="spacing" textLength="23" x="414.5475" y="311.1813">0..*</text><!--MD5=[64b3920ce24dd4d033875075a5ecfc25]
reverse link Contribution to Contributorship_to_Document--><path codeLine="174" d="M516.9009,199.07 C503.6209,218.81 487.2009,243.21 476.7809,258.7 " fill="none" id="Contribution-backto-Contributorship_to_Document" style="stroke:#A80036;stroke-width:1.0;"/><polygon fill="none" points="511.1909,195.02,528.1609,182.33,522.8109,202.83,511.1909,195.02" style="stroke:#A80036;stroke-width:1.0;"/><!--MD5=[af6b79ce3af62c8c5ee779db9fbc8cf6]
link Affiliation_Statement to Postal_Address--><path codeLine="137" d="M208.0809,199.1 C220.2709,217.22 235.1009,239.26 245.5109,254.72 " fill="none" id="Affiliation_Statement-to-Postal_Address" style="stroke:#A80036;stroke-width:1.0;stroke-dasharray:7.0,7.0;"/><polygon fill="#A80036" points="248.3209,258.9,246.6183,249.1994,245.5309,254.7508,239.9796,253.6634,248.3209,258.9" style="stroke:#A80036;stroke-width:1.0;"/><text fill="#000000" font-family="sans-serif" font-size="13" lengthAdjust="spacing" textLength="91" x="138.1878" y="247.8772">postalAddress</text><!--MD5=[fe03d2c8e9644e7513bef3a6fb6291e6]
reverse link Affiliation_Statement to Organisation_Unit--><path codeLine="140" d="M135.4409,208.69 C118.2309,226.36 101.2909,245.85 92.2509,258.9 " fill="none" id="Affiliation_Statement-backto-Organisation_Unit" style="stroke:#A80036;stroke-width:1.0;"/><polygon fill="#FFFFFF" points="144.9809,199.1,137.9132,200.5307,136.5155,207.605,143.5832,206.1743,144.9809,199.1" style="stroke:#A80036;stroke-width:1.0;"/><text fill="#000000" font-family="sans-serif" font-size="13" lengthAdjust="spacing" textLength="75" x="6" y="247.8772">0..1 orgUnit</text><!--MD5=[fe03d2c8e9644e7513bef3a6fb6291e6]
reverse link Affiliation_Statement to Organisation_Unit--><path codeLine="143" d="M160.6809,209.18 C145.3009,226.72 126.3309,245.98 111.1909,258.9 " fill="none" id="Affiliation_Statement-backto-Organisation_Unit-1" style="stroke:#A80036;stroke-width:1.0;"/><polygon fill="#FFFFFF" points="169.2709,199.1,162.3357,201.0755,161.4919,208.2371,168.4271,206.2616,169.2709,199.1" style="stroke:#A80036;stroke-width:1.0;"/><text fill="#000000" font-family="sans-serif" font-size="13" lengthAdjust="spacing" textLength="91" x="104.4857" y="247.8687">0..1 institution</text><!--MD5=[dc2c5634ff295731fc33abbfcbd96d36]
reverse link Person to Affiliation_Statement--><path codeLine="147" d="M186.4809,69.34 C186.4809,88.3 186.4809,113.29 186.4809,132.97 " fill="none" id="Person-backto-Affiliation_Statement" style="stroke:#A80036;stroke-width:1.0;"/><polygon fill="#FFFFFF" points="186.4809,56.2,182.4809,62.2,186.4809,68.2,190.4809,62.2,186.4809,56.2" style="stroke:#A80036;stroke-width:1.0;"/><text fill="#000000" font-family="sans-serif" font-size="13" lengthAdjust="spacing" textLength="91" x="86.0966" y="121.7316">0..* affiliations</text><!--MD5=[335bc652314d68e20c6b9db39c8a9e92]
reverse link Activity to Affiliation_Statement--><path codeLine="150" d="M325.0209,79.95 C297.3209,96.96 265.2209,116.67 238.8909,132.82 " fill="none" id="Activity-backto-Affiliation_Statement" style="stroke:#A80036;stroke-width:1.0;"/><polygon fill="#A80036" points="336.2009,73.09,328.9948,72.8217,325.9756,79.3703,333.1817,79.6386,336.2009,73.09" style="stroke:#A80036;stroke-width:1.0;"/><text fill="#000000" font-family="sans-serif" font-size="13" lengthAdjust="spacing" textLength="91" x="149.2513" y="121.9295">0..* affiliations</text><!--MD5=[67ceb885199ca7e1fa058287d8756a2e]
reverse link Document to Textual_Document--><path codeLine="223" d="M326.4809,449.39 C326.4809,464.09 326.4809,478.62 326.4809,488.99 " fill="none" id="Document-backto-Textual_Document" style="stroke:#A80036;stroke-width:1.0;"/><polygon fill="none" points="319.4809,449.26,326.4809,429.26,333.4809,449.26,319.4809,449.26" style="stroke:#A80036;stroke-width:1.0;"/><!--MD5=[5fc87159a3e7167247dd2a8a93426be9]
@startuml

    !includesub core.puml!common
    !includesub core.puml!Agent
    !includesub core.puml!Activity
    !includesub core.puml!Contribution
    !includesub core.puml!ContributorshipToDocument
    !includesub core.puml!AffiliationStatement
    !includesub core.puml!Document

@enduml

@startuml

        hide empty members
        skinparam BoxPadding 120
        class "Agent" #ffffff {
        }
    class "Activity" #ffffff {
        contacts : List<URI>
        displayName : String
    }
        "Activity" "0..*" - -o "0..1 who" "Agent"
        class "Contribution" #ffffff {
        }
            
        class "Acknowledgement_Statement" #ffffff {
        }
        
        class "Contribution_Statement" #ffffff {
        }
        
        class "Free_Text_Contribution_Statement" #ffffff {
            statement : Multilingual_String
        }
    
        class "Resource_Contribution_Statement" #ffffff {
        }
    
        class "Resource" #ffffff {
        }
        "Contribution" *- - "0..* contributionStatements" "Contribution_Statement"
        "Contribution_Statement" <|- - "Free_Text_Contribution_Statement"
        "Contribution_Statement" <|- - "Resource_Contribution_Statement"
        "Activity" <|- - "Contribution"
        "Acknowledgement_Statement" "0..* thanks to" - -o "0..1" "Contribution"
        "Acknowledgement_Statement" "0..*" - -o "0..1 resource" "Resource"
        "Resource_Contribution_Statement" "0..*" - -* "0..1 resource" "Resource"
        class "Contributorship_to_Document" #ffffff {
        }
        "Contributorship_to_Document" "0..*" - -* "Document"
        "Contribution" <|- - "Contributorship_to_Document"
        class "Affiliation_Statement" #ffffff {
            displayAffiliation : String
            address : Postal_Address
        }
        "Affiliation_Statement" ..> "postalAddress" "Postal_Address"
        "Affiliation_Statement" o- - "0..1 orgUnit" "Organisation_Unit"
        "Affiliation_Statement" o- - "0..1 institution" "Organisation_Unit"
        "Person" o- - "0..* affiliations" "Affiliation_Statement"
        "Activity" *- - "0..* affiliations" "Affiliation_Statement"
        class "Document" #ffffff {
            DOI : DOI_Type
            title : Multilingual_String
            publicationDate : Date
        }
        class "Textual_Document" #ffffff {
        }
        "Document" <|- - "Textual_Document"

@enduml

PlantUML version 1.2021.8(Sat Jun 26 08:20:59 UTC 2021)
(GPL source distribution)
Java Runtime: OpenJDK Runtime Environment
JVM: OpenJDK 64-Bit Server VM
Default Encoding: UTF-8
Language: en
Country: null
--></g></svg>