<?xml version="1.0" encoding="UTF-8" standalone="no"?><svg xmlns="http://www.w3.org/2000/svg" xmlns:xlink="http://www.w3.org/1999/xlink" contentScriptType="application/ecmascript" contentStyleType="text/css" height="834px" preserveAspectRatio="none" style="width:780px;height:834px;background:#FFFFFF;" version="1.1" viewBox="0 0 780 834" width="780px" zoomAndPan="magnify"><defs><filter height="300%" id="fdt702s4vxftv" width="300%" x="-1" y="-1"><feGaussianBlur result="blurOut" stdDeviation="2.0"/><feColorMatrix in="blurOut" result="blurOut2" type="matrix" values="0 0 0 0 0 0 0 0 0 0 0 0 0 0 0 0 0 0 .4 0"/><feOffset dx="4.0" dy="4.0" in="blurOut2" result="blurOut3"/><feBlend in="SourceGraphic" in2="blurOut3" mode="normal"/></filter></defs><g><!--MD5=[9d44916250b776386006c440668bcfbb]
class Agent--><rect codeLine="19" fill="#FFFFFF" filter="url(#fdt702s4vxftv)" height="32" id="Agent" style="stroke:#A80036;stroke-width:1.5;" width="69" x="193.26" y="30"/><ellipse cx="208.26" cy="46" fill="#ADD1B2" rx="11" ry="11" style="stroke:#A80036;stroke-width:1.0;"/><path d="M211.2288,51.6406 Q210.6506,51.9375 210.01,52.0781 Q209.3694,52.2344 208.6663,52.2344 Q206.1663,52.2344 204.8381,50.5938 Q203.5256,48.9375 203.5256,45.8125 Q203.5256,42.6875 204.8381,41.0313 Q206.1663,39.375 208.6663,39.375 Q209.3694,39.375 210.01,39.5313 Q210.6663,39.6875 211.2288,39.9844 L211.2288,42.7031 Q210.6038,42.125 210.01,41.8594 Q209.4163,41.5781 208.7913,41.5781 Q207.4475,41.5781 206.76,42.6563 Q206.0725,43.7188 206.0725,45.8125 Q206.0725,47.9063 206.76,48.9844 Q207.4475,50.0469 208.7913,50.0469 Q209.4163,50.0469 210.01,49.7813 Q210.6038,49.5 211.2288,48.9219 L211.2288,51.6406 Z " fill="#000000"/><text fill="#000000" font-family="sans-serif" font-size="12" lengthAdjust="spacing" textLength="37" x="222.26" y="50.1543">Agent</text><!--MD5=[779f3743e425ed8a6f0bf188ddea4860]
class Organisation_Unit--><rect codeLine="22" fill="#FFFFFF" filter="url(#fdt702s4vxftv)" height="116.8281" id="Organisation_Unit" style="stroke:#A80036;stroke-width:1.5;" width="159" x="257.26" y="415"/><ellipse cx="279.46" cy="431" fill="#ADD1B2" rx="11" ry="11" style="stroke:#A80036;stroke-width:1.0;"/><path d="M282.4288,436.6406 Q281.8506,436.9375 281.21,437.0781 Q280.5694,437.2344 279.8663,437.2344 Q277.3663,437.2344 276.0381,435.5938 Q274.7256,433.9375 274.7256,430.8125 Q274.7256,427.6875 276.0381,426.0313 Q277.3663,424.375 279.8663,424.375 Q280.5694,424.375 281.21,424.5313 Q281.8663,424.6875 282.4288,424.9844 L282.4288,427.7031 Q281.8038,427.125 281.21,426.8594 Q280.6163,426.5781 279.9913,426.5781 Q278.6475,426.5781 277.96,427.6563 Q277.2725,428.7188 277.2725,430.8125 Q277.2725,432.9063 277.96,433.9844 Q278.6475,435.0469 279.9913,435.0469 Q280.6163,435.0469 281.21,434.7813 Q281.8038,434.5 282.4288,433.9219 L282.4288,436.6406 Z " fill="#000000"/><text fill="#000000" font-family="sans-serif" font-size="12" lengthAdjust="spacing" textLength="111" x="295.06" y="435.1543">Organisation_Unit</text><line style="stroke:#A80036;stroke-width:1.5;" x1="258.26" x2="415.26" y1="447" y2="447"/><text fill="#000000" font-family="sans-serif" font-size="11" lengthAdjust="spacing" textLength="147" x="263.26" y="461.2104">name : Multilingual_String</text><text fill="#000000" font-family="sans-serif" font-size="11" lengthAdjust="spacing" textLength="95" x="263.26" y="474.0151">acronym : String</text><text fill="#000000" font-family="sans-serif" font-size="11" lengthAdjust="spacing" textLength="147" x="263.26" y="486.8198">address : Postal_Address</text><text fill="#000000" font-family="sans-serif" font-size="11" lengthAdjust="spacing" textLength="78" x="263.26" y="499.6245">rorId : ROR_Id</text><text fill="#000000" font-family="sans-serif" font-size="11" lengthAdjust="spacing" textLength="99" x="263.26" y="512.4292">webSiteURL : URL</text><text fill="#000000" font-family="sans-serif" font-size="11" lengthAdjust="spacing" textLength="64" x="263.26" y="525.2339">email : URL</text><!--MD5=[09ce52be0ee7de43c61b6e2d59bf108b]
class Person--><rect codeLine="30" fill="#FFFFFF" filter="url(#fdt702s4vxftv)" height="65.6094" id="Person" style="stroke:#A80036;stroke-width:1.5;" width="135" x="160.26" y="145"/><ellipse cx="201.81" cy="161" fill="#ADD1B2" rx="11" ry="11" style="stroke:#A80036;stroke-width:1.0;"/><path d="M204.7788,166.6406 Q204.2006,166.9375 203.56,167.0781 Q202.9194,167.2344 202.2163,167.2344 Q199.7163,167.2344 198.3881,165.5938 Q197.0756,163.9375 197.0756,160.8125 Q197.0756,157.6875 198.3881,156.0313 Q199.7163,154.375 202.2163,154.375 Q202.9194,154.375 203.56,154.5313 Q204.2163,154.6875 204.7788,154.9844 L204.7788,157.7031 Q204.1538,157.125 203.56,156.8594 Q202.9663,156.5781 202.3413,156.5781 Q200.9975,156.5781 200.31,157.6563 Q199.6225,158.7188 199.6225,160.8125 Q199.6225,162.9063 200.31,163.9844 Q200.9975,165.0469 202.3413,165.0469 Q202.9663,165.0469 203.56,164.7813 Q204.1538,164.5 204.7788,163.9219 L204.7788,166.6406 Z " fill="#000000"/><text fill="#000000" font-family="sans-serif" font-size="12" lengthAdjust="spacing" textLength="44" x="221.71" y="165.1543">Person</text><line style="stroke:#A80036;stroke-width:1.5;" x1="161.26" x2="294.26" y1="177" y2="177"/><text fill="#000000" font-family="sans-serif" font-size="11" lengthAdjust="spacing" textLength="123" x="166.26" y="191.2104">name : Person_Name</text><text fill="#000000" font-family="sans-serif" font-size="11" lengthAdjust="spacing" textLength="102" x="166.26" y="204.0151">orcidId : ORCID_iD</text><!--MD5=[7b209ef07eb91b93e0aebc9fe4fb9a26]
class Person_Name--><rect codeLine="34" fill="#FFFFFF" filter="url(#fdt702s4vxftv)" height="84.3516" id="Person_Name" style="stroke:#A80036;stroke-width:1.5;" width="201" x="87.26" y="271"/><ellipse cx="140.51" cy="289.9688" fill="#ADD0B2" rx="11" ry="11" style="stroke:#A80036;stroke-width:1.0;"/><path d="M140.1038,285.7813 L140.1038,293.7656 L140.76,293.7656 Q142.1975,293.7656 142.8069,292.8594 Q143.4319,291.9375 143.4319,289.7656 Q143.4319,287.5938 142.8069,286.6875 Q142.1975,285.7813 140.76,285.7813 L140.1038,285.7813 Z M137.6506,283.5781 L140.2756,283.5781 Q143.3069,283.5781 144.635,285.0313 Q145.9788,286.4688 145.9788,289.7656 Q145.9788,293.0625 144.635,294.5156 Q143.3069,295.9688 140.2756,295.9688 L137.6506,295.9688 L137.6506,283.5781 Z " fill="#000000"/><text fill="#000000" font-family="sans-serif" font-size="12" font-style="italic" lengthAdjust="spacing" textLength="74" x="167.01" y="287.1387">«DataType»</text><text fill="#000000" font-family="sans-serif" font-size="12" lengthAdjust="spacing" textLength="86" x="161.01" y="301.1074">Person_Name</text><line style="stroke:#A80036;stroke-width:1.5;" x1="88.26" x2="287.26" y1="308.9375" y2="308.9375"/><text fill="#000000" font-family="sans-serif" font-size="11" lengthAdjust="spacing" textLength="178" x="93.26" y="323.1479">firstNames : Multilingual_String</text><text fill="#000000" font-family="sans-serif" font-size="11" lengthAdjust="spacing" textLength="189" x="93.26" y="335.9526">familyNames : Multilingual_String</text><text fill="#000000" font-family="sans-serif" font-size="11" lengthAdjust="spacing" textLength="185" x="93.26" y="348.7573">otherNames : Multilingual_String</text><!--MD5=[fe1d14fe6d68ca7e76eb34268c62a1f3]
class Postal_Address--><rect codeLine="39" fill="#FFFFFF" filter="url(#fdt702s4vxftv)" height="97.1563" id="Postal_Address" style="stroke:#A80036;stroke-width:1.5;" width="171" x="317.26" y="592"/><ellipse cx="351.61" cy="610.9688" fill="#ADD0B2" rx="11" ry="11" style="stroke:#A80036;stroke-width:1.0;"/><path d="M351.2038,606.7813 L351.2038,614.7656 L351.86,614.7656 Q353.2975,614.7656 353.9069,613.8594 Q354.5319,612.9375 354.5319,610.7656 Q354.5319,608.5938 353.9069,607.6875 Q353.2975,606.7813 351.86,606.7813 L351.2038,606.7813 Z M348.7506,604.5781 L351.3756,604.5781 Q354.4069,604.5781 355.735,606.0313 Q357.0788,607.4688 357.0788,610.7656 Q357.0788,614.0625 355.735,615.5156 Q354.4069,616.9688 351.3756,616.9688 L348.7506,616.9688 L348.7506,604.5781 Z " fill="#000000"/><text fill="#000000" font-family="sans-serif" font-size="12" font-style="italic" lengthAdjust="spacing" textLength="74" x="380.91" y="608.1387">«DataType»</text><text fill="#000000" font-family="sans-serif" font-size="12" lengthAdjust="spacing" textLength="96" x="369.91" y="622.1074">Postal_Address</text><line style="stroke:#A80036;stroke-width:1.5;" x1="318.26" x2="487.26" y1="629.9375" y2="629.9375"/><text fill="#000000" font-family="sans-serif" font-size="11" lengthAdjust="spacing" textLength="149" x="323.26" y="644.1479">street : Multilingual_String</text><text fill="#000000" font-family="sans-serif" font-size="11" lengthAdjust="spacing" textLength="134" x="323.26" y="656.9526">city : Multilingual_String</text><text fill="#000000" font-family="sans-serif" font-size="11" lengthAdjust="spacing" textLength="159" x="323.26" y="669.7573">zipCode : Multilingual_String</text><text fill="#000000" font-family="sans-serif" font-size="11" lengthAdjust="spacing" textLength="98" x="323.26" y="682.562">country : Country</text><!--MD5=[deb4e1f6eb1e3c1256fdb830f96abfbb]
class Country--><rect codeLine="45" fill="#FFFFFF" filter="url(#fdt702s4vxftv)" height="71.5469" id="Country" style="stroke:#A80036;stroke-width:1.5;" width="263" x="271.26" y="749"/><ellipse cx="363.51" cy="767.9688" fill="#ADD0B2" rx="11" ry="11" style="stroke:#A80036;stroke-width:1.0;"/><path d="M363.1038,763.7813 L363.1038,771.7656 L363.76,771.7656 Q365.1975,771.7656 365.8069,770.8594 Q366.4319,769.9375 366.4319,767.7656 Q366.4319,765.5938 365.8069,764.6875 Q365.1975,763.7813 363.76,763.7813 L363.1038,763.7813 Z M360.6506,761.5781 L363.2756,761.5781 Q366.3069,761.5781 367.635,763.0313 Q368.9788,764.4688 368.9788,767.7656 Q368.9788,771.0625 367.635,772.5156 Q366.3069,773.9688 363.2756,773.9688 L360.6506,773.9688 L360.6506,761.5781 Z " fill="#000000"/><text fill="#000000" font-family="sans-serif" font-size="12" font-style="italic" lengthAdjust="spacing" textLength="74" x="382.01" y="765.1387">«DataType»</text><text fill="#000000" font-family="sans-serif" font-size="12" lengthAdjust="spacing" textLength="48" x="395.01" y="779.1074">Country</text><line style="stroke:#A80036;stroke-width:1.5;" x1="272.26" x2="533.26" y1="786.9375" y2="786.9375"/><text fill="#000000" font-family="sans-serif" font-size="11" lengthAdjust="spacing" textLength="147" x="277.26" y="801.1479">name : Multilingual_String</text><text fill="#000000" font-family="sans-serif" font-size="11" lengthAdjust="spacing" textLength="251" x="277.26" y="813.9526">iso3166alpha2Code : ISO3166_Alpha2_Code</text><!--MD5=[59b530d44ae785dc18db921986a9c15c]
class Document--><rect codeLine="8" fill="#FFFFFF" filter="url(#fdt702s4vxftv)" height="78.4141" id="Document" style="stroke:#A80036;stroke-width:1.5;" width="148" x="504.76" y="7"/><ellipse cx="543.16" cy="23" fill="#ADD1B2" rx="11" ry="11" style="stroke:#A80036;stroke-width:1.0;"/><path d="M546.1288,28.6406 Q545.5506,28.9375 544.91,29.0781 Q544.2694,29.2344 543.5663,29.2344 Q541.0663,29.2344 539.7381,27.5938 Q538.4256,25.9375 538.4256,22.8125 Q538.4256,19.6875 539.7381,18.0313 Q541.0663,16.375 543.5663,16.375 Q544.2694,16.375 544.91,16.5313 Q545.5663,16.6875 546.1288,16.9844 L546.1288,19.7031 Q545.5038,19.125 544.91,18.8594 Q544.3163,18.5781 543.6913,18.5781 Q542.3475,18.5781 541.66,19.6563 Q540.9725,20.7188 540.9725,22.8125 Q540.9725,24.9063 541.66,25.9844 Q542.3475,27.0469 543.6913,27.0469 Q544.3163,27.0469 544.91,26.7813 Q545.5038,26.5 546.1288,25.9219 L546.1288,28.6406 Z " fill="#000000"/><text fill="#000000" font-family="sans-serif" font-size="12" lengthAdjust="spacing" textLength="64" x="562.36" y="27.1543">Document</text><line style="stroke:#A80036;stroke-width:1.5;" x1="505.76" x2="651.76" y1="39" y2="39"/><text fill="#000000" font-family="sans-serif" font-size="11" lengthAdjust="spacing" textLength="49" x="510.76" y="53.2104">doi : DOI</text><text fill="#000000" font-family="sans-serif" font-size="11" lengthAdjust="spacing" textLength="136" x="510.76" y="66.0151">title : Multilingual_String</text><text fill="#000000" font-family="sans-serif" font-size="11" lengthAdjust="spacing" textLength="125" x="510.76" y="78.8198">publicationDate : Date</text><!--MD5=[b821bb113f9f55c728f1fbb8949cc3af]
class Contributorship--><rect codeLine="58" fill="#FFFFFF" filter="url(#fdt702s4vxftv)" height="65.6094" id="Contributorship" style="stroke:#A80036;stroke-width:1.5;" width="131" x="338.26" y="13"/><ellipse cx="354.16" cy="29" fill="#ADD1B2" rx="11" ry="11" style="stroke:#A80036;stroke-width:1.0;"/><path d="M357.1287,34.6406 Q356.5506,34.9375 355.91,35.0781 Q355.2694,35.2344 354.5662,35.2344 Q352.0662,35.2344 350.7381,33.5938 Q349.4256,31.9375 349.4256,28.8125 Q349.4256,25.6875 350.7381,24.0313 Q352.0662,22.375 354.5662,22.375 Q355.2694,22.375 355.91,22.5313 Q356.5662,22.6875 357.1287,22.9844 L357.1287,25.7031 Q356.5037,25.125 355.91,24.8594 Q355.3162,24.5781 354.6912,24.5781 Q353.3475,24.5781 352.66,25.6563 Q351.9725,26.7188 351.9725,28.8125 Q351.9725,30.9063 352.66,31.9844 Q353.3475,33.0469 354.6912,33.0469 Q355.3162,33.0469 355.91,32.7813 Q356.5037,32.5 357.1287,31.9219 L357.1287,34.6406 Z " fill="#000000"/><text fill="#000000" font-family="sans-serif" font-size="12" lengthAdjust="spacing" textLength="97" x="368.36" y="33.1543">Contributorship</text><line style="stroke:#A80036;stroke-width:1.5;" x1="339.26" x2="468.26" y1="45" y2="45"/><text fill="#000000" font-family="sans-serif" font-size="11" lengthAdjust="spacing" textLength="116" x="344.26" y="59.2104">contacts : List&lt;URI&gt;</text><text fill="#000000" font-family="sans-serif" font-size="11" lengthAdjust="spacing" textLength="119" x="344.26" y="72.0151">displayName : String</text><!--MD5=[532fe005ca0bef0ad6b309c9c6480e22]
class Contribution_Statement--><rect codeLine="62" fill="#FFFFFF" filter="url(#fdt702s4vxftv)" height="32" id="Contribution_Statement" style="stroke:#A80036;stroke-width:1.5;" width="181" x="504.26" y="162"/><ellipse cx="519.26" cy="178" fill="#ADD1B2" rx="11" ry="11" style="stroke:#A80036;stroke-width:1.0;"/><path d="M522.2288,183.6406 Q521.6506,183.9375 521.01,184.0781 Q520.3694,184.2344 519.6663,184.2344 Q517.1663,184.2344 515.8381,182.5938 Q514.5256,180.9375 514.5256,177.8125 Q514.5256,174.6875 515.8381,173.0313 Q517.1663,171.375 519.6663,171.375 Q520.3694,171.375 521.01,171.5313 Q521.6663,171.6875 522.2288,171.9844 L522.2288,174.7031 Q521.6038,174.125 521.01,173.8594 Q520.4163,173.5781 519.7913,173.5781 Q518.4475,173.5781 517.76,174.6563 Q517.0725,175.7188 517.0725,177.8125 Q517.0725,179.9063 517.76,180.9844 Q518.4475,182.0469 519.7913,182.0469 Q520.4163,182.0469 521.01,181.7813 Q521.6038,181.5 522.2288,180.9219 L522.2288,183.6406 Z " fill="#000000"/><text fill="#000000" font-family="sans-serif" font-size="12" lengthAdjust="spacing" textLength="149" x="533.26" y="182.1543">Contribution_Statement</text><!--MD5=[75e6ee6f0cee60576da1adad405695b7]
class Free_Text_Contribution_Statement--><rect codeLine="64" fill="#FFFFFF" filter="url(#fdt702s4vxftv)" height="52.8047" id="Free_Text_Contribution_Statement" style="stroke:#A80036;stroke-width:1.5;" width="247" x="519.26" y="286.5"/><ellipse cx="534.26" cy="302.5" fill="#ADD1B2" rx="11" ry="11" style="stroke:#A80036;stroke-width:1.0;"/><path d="M537.2288,308.1406 Q536.6506,308.4375 536.01,308.5781 Q535.3694,308.7344 534.6663,308.7344 Q532.1663,308.7344 530.8381,307.0938 Q529.5256,305.4375 529.5256,302.3125 Q529.5256,299.1875 530.8381,297.5313 Q532.1663,295.875 534.6663,295.875 Q535.3694,295.875 536.01,296.0313 Q536.6663,296.1875 537.2288,296.4844 L537.2288,299.2031 Q536.6038,298.625 536.01,298.3594 Q535.4163,298.0781 534.7913,298.0781 Q533.4475,298.0781 532.76,299.1563 Q532.0725,300.2188 532.0725,302.3125 Q532.0725,304.4063 532.76,305.4844 Q533.4475,306.5469 534.7913,306.5469 Q535.4163,306.5469 536.01,306.2813 Q536.6038,306 537.2288,305.4219 L537.2288,308.1406 Z " fill="#000000"/><text fill="#000000" font-family="sans-serif" font-size="12" lengthAdjust="spacing" textLength="215" x="548.26" y="306.6543">Free_Text_Contribution_Statement</text><line style="stroke:#A80036;stroke-width:1.5;" x1="520.26" x2="765.26" y1="318.5" y2="318.5"/><text fill="#000000" font-family="sans-serif" font-size="11" lengthAdjust="spacing" textLength="173" x="525.26" y="332.7104">statement : Multilingual_String</text><!--MD5=[ddbff00b4911ad4b77d6aa32dd14d1d7]
class Affiliation_Statement--><rect codeLine="67" fill="#FFFFFF" filter="url(#fdt702s4vxftv)" height="65.6094" id="Affiliation_Statement" style="stroke:#A80036;stroke-width:1.5;" width="161" x="323.26" y="280"/><ellipse cx="338.26" cy="296" fill="#ADD1B2" rx="11" ry="11" style="stroke:#A80036;stroke-width:1.0;"/><path d="M341.2288,301.6406 Q340.6506,301.9375 340.01,302.0781 Q339.3694,302.2344 338.6663,302.2344 Q336.1663,302.2344 334.8381,300.5938 Q333.5256,298.9375 333.5256,295.8125 Q333.5256,292.6875 334.8381,291.0313 Q336.1663,289.375 338.6663,289.375 Q339.3694,289.375 340.01,289.5313 Q340.6663,289.6875 341.2288,289.9844 L341.2288,292.7031 Q340.6038,292.125 340.01,291.8594 Q339.4163,291.5781 338.7913,291.5781 Q337.4475,291.5781 336.76,292.6563 Q336.0725,293.7188 336.0725,295.8125 Q336.0725,297.9063 336.76,298.9844 Q337.4475,300.0469 338.7913,300.0469 Q339.4163,300.0469 340.01,299.7813 Q340.6038,299.5 341.2288,298.9219 L341.2288,301.6406 Z " fill="#000000"/><text fill="#000000" font-family="sans-serif" font-size="12" lengthAdjust="spacing" textLength="129" x="352.26" y="300.1543">Affiliation_Statement</text><line style="stroke:#A80036;stroke-width:1.5;" x1="324.26" x2="483.26" y1="312" y2="312"/><text fill="#000000" font-family="sans-serif" font-size="11" lengthAdjust="spacing" textLength="138" x="329.26" y="326.2104">displayAffiliation : String</text><text fill="#000000" font-family="sans-serif" font-size="11" lengthAdjust="spacing" textLength="147" x="329.26" y="339.0151">address : Postal_Address</text><!--MD5=[1c2d5a11bdff8297fbebaa44435072c9]
link Postal_Address to Country--><path codeLine="51" d="M402.76,701.35 C402.76,701.35 402.76,724.95 402.76,735.63 " fill="none" id="Postal_Address-Country" style="stroke:#A80036;stroke-width:1.0;"/><polygon fill="#A80036" points="402.76,748.67,406.76,739.67,402.76,743.67,398.76,739.67,402.76,748.67" style="stroke:#A80036;stroke-width:1.0;"/><line style="stroke:#A80036;stroke-width:1.0;" x1="402.76" x2="402.76" y1="743.67" y2="735.67"/><polygon fill="#FFFFFF" points="402.76,689.35,398.76,695.35,402.76,701.35,406.76,695.35,402.76,689.35" style="stroke:#A80036;stroke-width:1.0;"/><text fill="#000000" font-family="sans-serif" font-size="13" lengthAdjust="spacing" textLength="48" x="350.485" y="737.9819">country</text><!--MD5=[5d8901ce694eb85aefa78b7d82d9f6f6]
link Person to Person_Name--><path codeLine="89" d="M218.07,211.2 C213.17,227.5 207.13,247.59 201.73,265.53 " fill="none" id="Person-to-Person_Name" style="stroke:#A80036;stroke-width:1.0;stroke-dasharray:7.0,7.0;"/><polygon fill="#A80036" points="200.23,270.53,206.6577,263.0677,201.6733,265.7428,198.9982,260.7585,200.23,270.53" style="stroke:#A80036;stroke-width:1.0;"/><text fill="#000000" font-family="sans-serif" font-size="13" lengthAdjust="spacing" textLength="37" x="162.3067" y="259.9285">name</text><!--MD5=[de96f77e660762cb21a195b4097c3876]
reverse link Agent to Person--><path codeLine="90" d="M227.76,82.4 C227.76,101.89 227.76,125.89 227.76,144.84 " fill="none" id="Agent-backto-Person" style="stroke:#A80036;stroke-width:1.0;"/><polygon fill="none" points="220.76,82.17,227.76,62.17,234.76,82.17,220.76,82.17" style="stroke:#A80036;stroke-width:1.0;"/><!--MD5=[521d3f26cc3887ed8885a4c0e03f9952]
reverse link Agent to Organisation_Unit--><path codeLine="91" d="M193.38,75.14 C129.83,130.63 6,257.28 69.76,355 C110.92,418.09 194.39,447.53 257.11,461.13 " fill="none" id="Agent-backto-Organisation_Unit" style="stroke:#A80036;stroke-width:1.0;"/><polygon fill="none" points="189.02,69.65,208.8,62.03,198.09,80.32,189.02,69.65" style="stroke:#A80036;stroke-width:1.0;"/><!--MD5=[15e2f573152931505f3d87c1c2d22c4e]
link Organisation_Unit to Postal_Address--><path codeLine="92" d="M359.84,532.21 C366.98,550.05 374.79,569.59 381.78,587.05 " fill="none" id="Organisation_Unit-to-Postal_Address" style="stroke:#A80036;stroke-width:1.0;stroke-dasharray:7.0,7.0;"/><polygon fill="#A80036" points="383.72,591.92,384.0914,582.0781,381.863,587.2776,376.6636,585.0493,383.72,591.92" style="stroke:#A80036;stroke-width:1.0;"/><text fill="#000000" font-family="sans-serif" font-size="13" lengthAdjust="spacing" textLength="51" x="326.4566" y="581.099">address</text><!--MD5=[af6b79ce3af62c8c5ee779db9fbc8cf6]
link Affiliation_Statement to Postal_Address--><path codeLine="74" d="M415.92,346.21 C422.65,365.79 430.34,391.47 433.76,415 C441.24,466.46 441.03,480.51 433.76,532 C431.17,550.28 426.23,569.81 421.04,587.14 " fill="none" id="Affiliation_Statement-to-Postal_Address" style="stroke:#A80036;stroke-width:1.0;stroke-dasharray:7.0,7.0;"/><polygon fill="#A80036" points="419.58,591.96,426.028,584.5153,421.0364,587.1768,418.3749,582.1851,419.58,591.96" style="stroke:#A80036;stroke-width:1.0;"/><text fill="#000000" font-family="sans-serif" font-size="13" lengthAdjust="spacing" textLength="91" x="428.7333" y="580.7943">postalAddress</text><!--MD5=[fe03d2c8e9644e7513bef3a6fb6291e6]
reverse link Affiliation_Statement to Organisation_Unit--><path codeLine="75" d="M373.72,357.76 C364.98,375.39 356.01,395.99 348.82,414.82 " fill="none" id="Affiliation_Statement-backto-Organisation_Unit" style="stroke:#A80036;stroke-width:1.0;"/><polygon fill="#FFFFFF" points="379.72,346.07,373.4207,349.5799,374.2378,356.7445,380.5371,353.2347,379.72,346.07" style="stroke:#A80036;stroke-width:1.0;"/><text fill="#000000" font-family="sans-serif" font-size="13" lengthAdjust="spacing" textLength="75" x="270.7195" y="403.8398">0..1 orgUnit</text><!--MD5=[fe03d2c8e9644e7513bef3a6fb6291e6]
reverse link Affiliation_Statement to Organisation_Unit--><path codeLine="76" d="M397.21,358.52 C391.14,375.99 382.83,396.26 374.18,414.82 " fill="none" id="Affiliation_Statement-backto-Organisation_Unit-1" style="stroke:#A80036;stroke-width:1.0;"/><polygon fill="#FFFFFF" points="401.3,346.07,395.6279,350.5228,397.5567,357.4712,403.2288,353.0184,401.3,346.07" style="stroke:#A80036;stroke-width:1.0;"/><text fill="#000000" font-family="sans-serif" font-size="13" lengthAdjust="spacing" textLength="91" x="384.2859" y="403.8398">0..1 institution</text><!--MD5=[dc2c5634ff295731fc33abbfcbd96d36]
reverse link Person to Affiliation_Statement--><path codeLine="78" d="M281.05,219.27 C306.74,238.69 337.13,261.65 361.24,279.87 " fill="none" id="Person-backto-Affiliation_Statement" style="stroke:#A80036;stroke-width:1.0;"/><polygon fill="#FFFFFF" points="270.36,211.2,272.7331,218.0094,279.9314,218.4379,277.5584,211.6285,270.36,211.2" style="stroke:#A80036;stroke-width:1.0;"/><text fill="#000000" font-family="sans-serif" font-size="13" lengthAdjust="spacing" textLength="91" x="296.6359" y="268.5344">0..* affiliations</text><!--MD5=[21f8b3605054312288eb3132d9b75edc]
reverse link Contribution_Statement to Free_Text_Contribution_Statement--><path codeLine="79" d="M607.12,213.27 C615.37,236.12 626.04,265.68 633.55,286.48 " fill="none" id="Contribution_Statement-backto-Free_Text_Contribution_Statement" style="stroke:#A80036;stroke-width:1.0;"/><polygon fill="none" points="600.47,215.45,600.26,194.26,613.64,210.69,600.47,215.45" style="stroke:#A80036;stroke-width:1.0;"/><!--MD5=[1f014480a3afa8c0325c3be3fbf7ad6f]
link Contributorship to Document--><path codeLine="80" d="M469.38,46 C476.68,46 483.98,46 491.28,46 " fill="none" id="Contributorship-to-Document" style="stroke:#A80036;stroke-width:1.0;"/><polygon fill="#A80036" points="504.42,46,498.42,42,492.42,46,498.42,50,504.42,46" style="stroke:#A80036;stroke-width:1.0;"/><text fill="#000000" font-family="sans-serif" font-size="13" lengthAdjust="spacing" textLength="23" x="477.333" y="42.3204">0..*</text><!--MD5=[504de05de5dc33320621ff1be2e6e6ff]
reverse link Agent to Contributorship--><path codeLine="81" d="M275.77,46 C296.54,46 317.31,46 338.08,46 " fill="none" id="Agent-backto-Contributorship" style="stroke:#A80036;stroke-width:1.0;"/><polygon fill="#FFFFFF" points="262.48,46,268.48,50,274.48,46,268.48,42,262.48,46" style="stroke:#A80036;stroke-width:1.0;"/><text fill="#000000" font-family="sans-serif" font-size="13" lengthAdjust="spacing" textLength="98" x="233.202" y="38.9151">0..1 contributor</text><text fill="#000000" font-family="sans-serif" font-size="13" lengthAdjust="spacing" textLength="23" x="307.1208" y="58.8673">0..*</text><!--MD5=[d50a95e3ddb5a3ed983c7b2ff4649bd6]
reverse link Contributorship to Affiliation_Statement--><path codeLine="82" d="M403.76,92.36 C403.76,145.79 403.76,233.17 403.76,279.99 " fill="none" id="Contributorship-backto-Affiliation_Statement" style="stroke:#A80036;stroke-width:1.0;"/><polygon fill="#FFFFFF" points="403.76,79.23,399.76,85.23,403.76,91.23,407.76,85.23,403.76,79.23" style="stroke:#A80036;stroke-width:1.0;"/><text fill="#000000" font-family="sans-serif" font-size="13" lengthAdjust="spacing" textLength="91" x="413.1444" y="268.7557">0..* affiliations</text><!--MD5=[aa65b9840c4d4bb6ada386eeadadc345]
reverse link Contributorship to Contribution_Statement--><path codeLine="83" d="M461.74,86.47 C499.11,111.9 545.59,143.54 572.55,161.88 " fill="none" id="Contributorship-backto-Contribution_Statement" style="stroke:#A80036;stroke-width:1.0;"/><polygon fill="#A80036" points="450.97,79.13,453.6784,85.8131,460.8892,85.8835,458.1808,79.2003,450.97,79.13" style="stroke:#A80036;stroke-width:1.0;"/><text fill="#000000" font-family="sans-serif" font-size="13" lengthAdjust="spacing" textLength="179" x="355.1497" y="150.8503">0..* contributionStatements</text><!--MD5=[ab22fe0f061f5139cf4c8894ca8e2ee8]
@startuml

    !includesub core.puml!common
    !includesub core.puml!Agent
    !includesub core.puml!Contributorship

@enduml

@startuml

	hide empty members
	skinparam BoxPadding 120
    class "Agent" #ffffff {

    }
    class "Organisation_Unit" #ffffff {
        name : Multilingual_String
        acronym : String
        address : Postal_Address
        rorId : ROR_Id
        webSiteURL : URL
        email : URL
    }
    class "Person" #ffffff {
        name : Person_Name
        orcidId : ORCID_iD
    }
    class Person_Name << (D,#add0b2) DataType>> #ffffff {
        firstNames : Multilingual_String
        familyNames : Multilingual_String
        otherNames : Multilingual_String
    } 
    class Postal_Address << (D,#add0b2) DataType>> #ffffff {
        street : Multilingual_String 
        city : Multilingual_String
        zipCode : Multilingual_String 
        country : Country
    }
    class Country << (D,#add0b2) DataType>> #ffffff{
        name : Multilingual_String
        iso3166alpha2Code : ISO3166_Alpha2_Code
    }
	"Postal_Address" o- -> "country" "Country"
"Person" ..> "name" "Person_Name"
"Agent" <|- - "Person"
"Agent" <|- - "Organisation_Unit"
"Organisation_Unit" ..> "address" "Postal_Address"
    class "Document" #ffffff {
        doi : DOI
        title : Multilingual_String
        publicationDate : Date
    }
    class "Contributorship" #ffffff {
        contacts : List<URI> 
        displayName : String
    }
    class "Contribution_Statement" #ffffff {
    }
    class "Free_Text_Contribution_Statement" #ffffff {
        statement : Multilingual_String
    }
    class "Affiliation_Statement" #ffffff {
        displayAffiliation : String 
        address : Postal_Address
    }
"Affiliation_Statement" ..> "postalAddress" "Postal_Address"
"Affiliation_Statement" o- - "0..1 orgUnit" "Organisation_Unit"
"Affiliation_Statement" o- - "0..1 institution" "Organisation_Unit"
"Person" o- - "0..* affiliations" "Affiliation_Statement"
"Contribution_Statement" <|- - "Free_Text_Contribution_Statement"
"Contributorship" "0..*" - -r- -* "Document"
"Contributorship" "0..*" - -l- -o "0..1 contributor" "Agent"
"Contributorship" o- - "0..* affiliations" "Affiliation_Statement"
"Contributorship" *- - "0..* contributionStatements" "Contribution_Statement"

@enduml

PlantUML version 1.2021.8(Sat Jun 26 08:20:59 UTC 2021)
(GPL source distribution)
Java Runtime: OpenJDK Runtime Environment
JVM: OpenJDK 64-Bit Server VM
Default Encoding: UTF-8
Language: en
Country: null
--></g></svg>