<?xml version="1.0" encoding="UTF-8" standalone="no"?><svg xmlns="http://www.w3.org/2000/svg" xmlns:xlink="http://www.w3.org/1999/xlink" contentScriptType="application/ecmascript" contentStyleType="text/css" height="533px" preserveAspectRatio="none" style="width:652px;height:533px;background:#FFFFFF;" version="1.1" viewBox="0 0 652 533" width="652px" zoomAndPan="magnify"><defs><filter height="300%" id="f5tprdo1n3lc0" width="300%" x="-1" y="-1"><feGaussianBlur result="blurOut" stdDeviation="2.0"/><feColorMatrix in="blurOut" result="blurOut2" type="matrix" values="0 0 0 0 0 0 0 0 0 0 0 0 0 0 0 0 0 0 .4 0"/><feOffset dx="4.0" dy="4.0" in="blurOut2" result="blurOut3"/><feBlend in="SourceGraphic" in2="blurOut3" mode="normal"/></filter></defs><g><!--MD5=[59b530d44ae785dc18db921986a9c15c]
class Document--><rect codeLine="7" fill="#FEFECE" filter="url(#f5tprdo1n3lc0)" height="78.4141" id="Document" style="stroke:#A80036;stroke-width:1.5;" width="148" x="458.5" y="7"/><ellipse cx="496.9" cy="23" fill="#ADD1B2" rx="11" ry="11" style="stroke:#A80036;stroke-width:1.0;"/><path d="M499.8688,28.6406 Q499.2906,28.9375 498.65,29.0781 Q498.0094,29.2344 497.3063,29.2344 Q494.8063,29.2344 493.4781,27.5938 Q492.1656,25.9375 492.1656,22.8125 Q492.1656,19.6875 493.4781,18.0313 Q494.8063,16.375 497.3063,16.375 Q498.0094,16.375 498.65,16.5313 Q499.3063,16.6875 499.8688,16.9844 L499.8688,19.7031 Q499.2438,19.125 498.65,18.8594 Q498.0563,18.5781 497.4313,18.5781 Q496.0875,18.5781 495.4,19.6563 Q494.7125,20.7188 494.7125,22.8125 Q494.7125,24.9063 495.4,25.9844 Q496.0875,27.0469 497.4313,27.0469 Q498.0563,27.0469 498.65,26.7813 Q499.2438,26.5 499.8688,25.9219 L499.8688,28.6406 Z " fill="#000000"/><text fill="#000000" font-family="sans-serif" font-size="12" lengthAdjust="spacing" textLength="64" x="516.1" y="27.1543">Document</text><line style="stroke:#A80036;stroke-width:1.5;" x1="459.5" x2="605.5" y1="39" y2="39"/><text fill="#000000" font-family="sans-serif" font-size="11" lengthAdjust="spacing" textLength="136" x="464.5" y="53.2104">title : Multilingual_String</text><text fill="#000000" font-family="sans-serif" font-size="11" lengthAdjust="spacing" textLength="125" x="464.5" y="66.0151">publicationDate : Date</text><text fill="#000000" font-family="sans-serif" font-size="11" lengthAdjust="spacing" textLength="49" x="464.5" y="78.8198">doi : DOI</text><!--MD5=[b821bb113f9f55c728f1fbb8949cc3af]
class Contributorship--><rect codeLine="38" fill="#FEFECE" filter="url(#f5tprdo1n3lc0)" height="65.6094" id="Contributorship" style="stroke:#A80036;stroke-width:1.5;" width="131" x="292" y="13"/><ellipse cx="307.9" cy="29" fill="#ADD1B2" rx="11" ry="11" style="stroke:#A80036;stroke-width:1.0;"/><path d="M310.8688,34.6406 Q310.2906,34.9375 309.65,35.0781 Q309.0094,35.2344 308.3063,35.2344 Q305.8063,35.2344 304.4781,33.5938 Q303.1656,31.9375 303.1656,28.8125 Q303.1656,25.6875 304.4781,24.0313 Q305.8063,22.375 308.3063,22.375 Q309.0094,22.375 309.65,22.5313 Q310.3063,22.6875 310.8688,22.9844 L310.8688,25.7031 Q310.2438,25.125 309.65,24.8594 Q309.0563,24.5781 308.4313,24.5781 Q307.0875,24.5781 306.4,25.6563 Q305.7125,26.7188 305.7125,28.8125 Q305.7125,30.9063 306.4,31.9844 Q307.0875,33.0469 308.4313,33.0469 Q309.0563,33.0469 309.65,32.7813 Q310.2438,32.5 310.8688,31.9219 L310.8688,34.6406 Z " fill="#000000"/><text fill="#000000" font-family="sans-serif" font-size="12" lengthAdjust="spacing" textLength="97" x="322.1" y="33.1543">Contributorship</text><line style="stroke:#A80036;stroke-width:1.5;" x1="293" x2="422" y1="45" y2="45"/><text fill="#000000" font-family="sans-serif" font-size="11" lengthAdjust="spacing" textLength="116" x="298" y="59.2104">contacts : List&lt;URI&gt;</text><text fill="#000000" font-family="sans-serif" font-size="11" lengthAdjust="spacing" textLength="119" x="298" y="72.0151">displayName : String</text><!--MD5=[532fe005ca0bef0ad6b309c9c6480e22]
class Contribution_Statement--><rect codeLine="42" fill="#FEFECE" filter="url(#f5tprdo1n3lc0)" height="32" id="Contribution_Statement" style="stroke:#A80036;stroke-width:1.5;" width="181" x="155" y="162"/><ellipse cx="170" cy="178" fill="#ADD1B2" rx="11" ry="11" style="stroke:#A80036;stroke-width:1.0;"/><path d="M172.9688,183.6406 Q172.3906,183.9375 171.75,184.0781 Q171.1094,184.2344 170.4063,184.2344 Q167.9063,184.2344 166.5781,182.5938 Q165.2656,180.9375 165.2656,177.8125 Q165.2656,174.6875 166.5781,173.0313 Q167.9063,171.375 170.4063,171.375 Q171.1094,171.375 171.75,171.5313 Q172.4063,171.6875 172.9688,171.9844 L172.9688,174.7031 Q172.3438,174.125 171.75,173.8594 Q171.1563,173.5781 170.5313,173.5781 Q169.1875,173.5781 168.5,174.6563 Q167.8125,175.7188 167.8125,177.8125 Q167.8125,179.9063 168.5,180.9844 Q169.1875,182.0469 170.5313,182.0469 Q171.1563,182.0469 171.75,181.7813 Q172.3438,181.5 172.9688,180.9219 L172.9688,183.6406 Z " fill="#000000"/><text fill="#000000" font-family="sans-serif" font-size="12" lengthAdjust="spacing" textLength="149" x="184" y="182.1543">Contribution_Statement</text><!--MD5=[75e6ee6f0cee60576da1adad405695b7]
class Free_Text_Contribution_Statement--><rect codeLine="44" fill="#FEFECE" filter="url(#f5tprdo1n3lc0)" height="52.8047" id="Free_Text_Contribution_Statement" style="stroke:#A80036;stroke-width:1.5;" width="247" x="7" y="293"/><ellipse cx="22" cy="309" fill="#ADD1B2" rx="11" ry="11" style="stroke:#A80036;stroke-width:1.0;"/><path d="M24.9688,314.6406 Q24.3906,314.9375 23.75,315.0781 Q23.1094,315.2344 22.4063,315.2344 Q19.9063,315.2344 18.5781,313.5938 Q17.2656,311.9375 17.2656,308.8125 Q17.2656,305.6875 18.5781,304.0313 Q19.9063,302.375 22.4063,302.375 Q23.1094,302.375 23.75,302.5313 Q24.4063,302.6875 24.9688,302.9844 L24.9688,305.7031 Q24.3438,305.125 23.75,304.8594 Q23.1563,304.5781 22.5313,304.5781 Q21.1875,304.5781 20.5,305.6563 Q19.8125,306.7188 19.8125,308.8125 Q19.8125,310.9063 20.5,311.9844 Q21.1875,313.0469 22.5313,313.0469 Q23.1563,313.0469 23.75,312.7813 Q24.3438,312.5 24.9688,311.9219 L24.9688,314.6406 Z " fill="#000000"/><text fill="#000000" font-family="sans-serif" font-size="12" lengthAdjust="spacing" textLength="215" x="36" y="313.1543">Free_Text_Contribution_Statement</text><line style="stroke:#A80036;stroke-width:1.5;" x1="8" x2="253" y1="325" y2="325"/><text fill="#000000" font-family="sans-serif" font-size="11" lengthAdjust="spacing" textLength="173" x="13" y="339.2104">statement : Multilingual_String</text><!--MD5=[ddbff00b4911ad4b77d6aa32dd14d1d7]
class Affiliation_Statement--><rect codeLine="47" fill="#FEFECE" filter="url(#f5tprdo1n3lc0)" height="65.6094" id="Affiliation_Statement" style="stroke:#A80036;stroke-width:1.5;" width="161" x="390" y="145"/><ellipse cx="405" cy="161" fill="#ADD1B2" rx="11" ry="11" style="stroke:#A80036;stroke-width:1.0;"/><path d="M407.9688,166.6406 Q407.3906,166.9375 406.75,167.0781 Q406.1094,167.2344 405.4063,167.2344 Q402.9063,167.2344 401.5781,165.5938 Q400.2656,163.9375 400.2656,160.8125 Q400.2656,157.6875 401.5781,156.0313 Q402.9063,154.375 405.4063,154.375 Q406.1094,154.375 406.75,154.5313 Q407.4063,154.6875 407.9688,154.9844 L407.9688,157.7031 Q407.3438,157.125 406.75,156.8594 Q406.1563,156.5781 405.5313,156.5781 Q404.1875,156.5781 403.5,157.6563 Q402.8125,158.7188 402.8125,160.8125 Q402.8125,162.9063 403.5,163.9844 Q404.1875,165.0469 405.5313,165.0469 Q406.1563,165.0469 406.75,164.7813 Q407.3438,164.5 407.9688,163.9219 L407.9688,166.6406 Z " fill="#000000"/><text fill="#000000" font-family="sans-serif" font-size="12" lengthAdjust="spacing" textLength="129" x="419" y="165.1543">Affiliation_Statement</text><line style="stroke:#A80036;stroke-width:1.5;" x1="391" x2="550" y1="177" y2="177"/><text fill="#000000" font-family="sans-serif" font-size="11" lengthAdjust="spacing" textLength="138" x="396" y="191.2104">displayAffiliation : String</text><text fill="#000000" font-family="sans-serif" font-size="11" lengthAdjust="spacing" textLength="147" x="396" y="204.0151">address : Postal_Address</text><!--MD5=[fe1d14fe6d68ca7e76eb34268c62a1f3]
class Postal_Address--><rect codeLine="51" fill="#FEFECE" filter="url(#f5tprdo1n3lc0)" height="97.1563" id="Postal_Address" style="stroke:#A80036;stroke-width:1.5;" width="171" x="289" y="271"/><ellipse cx="323.35" cy="289.9688" fill="#FF7700" rx="11" ry="11" style="stroke:#A80036;stroke-width:1.0;"/><path d="M322.9438,285.7813 L322.9438,293.7656 L323.6,293.7656 Q325.0375,293.7656 325.6469,292.8594 Q326.2719,291.9375 326.2719,289.7656 Q326.2719,287.5938 325.6469,286.6875 Q325.0375,285.7813 323.6,285.7813 L322.9438,285.7813 Z M320.4906,283.5781 L323.1156,283.5781 Q326.1469,283.5781 327.475,285.0313 Q328.8188,286.4688 328.8188,289.7656 Q328.8188,293.0625 327.475,294.5156 Q326.1469,295.9688 323.1156,295.9688 L320.4906,295.9688 L320.4906,283.5781 Z " fill="#000000"/><text fill="#000000" font-family="sans-serif" font-size="12" font-style="italic" lengthAdjust="spacing" textLength="74" x="352.65" y="287.1387">«DataType»</text><text fill="#000000" font-family="sans-serif" font-size="12" lengthAdjust="spacing" textLength="96" x="341.65" y="301.1074">Postal_Address</text><line style="stroke:#A80036;stroke-width:1.5;" x1="290" x2="459" y1="308.9375" y2="308.9375"/><text fill="#000000" font-family="sans-serif" font-size="11" lengthAdjust="spacing" textLength="149" x="295" y="323.1479">street : Multilingual_String</text><text fill="#000000" font-family="sans-serif" font-size="11" lengthAdjust="spacing" textLength="134" x="295" y="335.9526">city : Multilingual_String</text><text fill="#000000" font-family="sans-serif" font-size="11" lengthAdjust="spacing" textLength="159" x="295" y="348.7573">zipCode : Multilingual_String</text><text fill="#000000" font-family="sans-serif" font-size="11" lengthAdjust="spacing" textLength="98" x="295" y="361.562">country : Country</text><!--MD5=[deb4e1f6eb1e3c1256fdb830f96abfbb]
class Country--><rect codeLine="57" fill="#FEFECE" filter="url(#f5tprdo1n3lc0)" height="91.2188" id="Country" style="stroke:#A80036;stroke-width:1.5;" width="281" x="234" y="428"/><ellipse cx="346.25" cy="444" fill="#ADD1B2" rx="11" ry="11" style="stroke:#A80036;stroke-width:1.0;"/><path d="M349.2188,449.6406 Q348.6406,449.9375 348,450.0781 Q347.3594,450.2344 346.6563,450.2344 Q344.1563,450.2344 342.8281,448.5938 Q341.5156,446.9375 341.5156,443.8125 Q341.5156,440.6875 342.8281,439.0313 Q344.1563,437.375 346.6563,437.375 Q347.3594,437.375 348,437.5313 Q348.6563,437.6875 349.2188,437.9844 L349.2188,440.7031 Q348.5938,440.125 348,439.8594 Q347.4063,439.5781 346.7813,439.5781 Q345.4375,439.5781 344.75,440.6563 Q344.0625,441.7188 344.0625,443.8125 Q344.0625,445.9063 344.75,446.9844 Q345.4375,448.0469 346.7813,448.0469 Q347.4063,448.0469 348,447.7813 Q348.5938,447.5 349.2188,446.9219 L349.2188,449.6406 Z " fill="#000000"/><text fill="#000000" font-family="sans-serif" font-size="12" lengthAdjust="spacing" textLength="48" x="366.75" y="448.1543">Country</text><line style="stroke:#A80036;stroke-width:1.5;" x1="235" x2="514" y1="460" y2="460"/><text fill="#000000" font-family="sans-serif" font-size="11" lengthAdjust="spacing" textLength="147" x="240" y="474.2104">name : Multilingual_String</text><text fill="#000000" font-family="sans-serif" font-size="11" lengthAdjust="spacing" textLength="237" x="240" y="487.0151">iso3166alphaCode : ISO3166_Alpha_Code</text><text fill="#000000" font-family="sans-serif" font-size="11" lengthAdjust="spacing" textLength="269" x="240" y="499.8198">iso3166NumericCode : ISO3166_Numeric_Code</text><text fill="#000000" font-family="sans-serif" font-size="11" lengthAdjust="spacing" textLength="199" x="240" y="512.6245">euCountryCode : EU_Country_Code</text><!--MD5=[779f3743e425ed8a6f0bf188ddea4860]
class Organisation_Unit--><rect fill="#FEFECE" filter="url(#f5tprdo1n3lc0)" height="32" id="Organisation_Unit" style="stroke:#A80036;stroke-width:1.5;" width="143" x="495" y="303.5"/><ellipse cx="510" cy="319.5" fill="#ADD1B2" rx="11" ry="11" style="stroke:#A80036;stroke-width:1.0;"/><path d="M512.9688,325.1406 Q512.3906,325.4375 511.75,325.5781 Q511.1094,325.7344 510.4063,325.7344 Q507.9063,325.7344 506.5781,324.0938 Q505.2656,322.4375 505.2656,319.3125 Q505.2656,316.1875 506.5781,314.5313 Q507.9063,312.875 510.4063,312.875 Q511.1094,312.875 511.75,313.0313 Q512.4063,313.1875 512.9688,313.4844 L512.9688,316.2031 Q512.3438,315.625 511.75,315.3594 Q511.1563,315.0781 510.5313,315.0781 Q509.1875,315.0781 508.5,316.1563 Q507.8125,317.2188 507.8125,319.3125 Q507.8125,321.4063 508.5,322.4844 Q509.1875,323.5469 510.5313,323.5469 Q511.1563,323.5469 511.75,323.2813 Q512.3438,323 512.9688,322.4219 L512.9688,325.1406 Z " fill="#000000"/><text fill="#000000" font-family="sans-serif" font-size="12" lengthAdjust="spacing" textLength="111" x="524" y="323.6543">Organisation_Unit</text><!--MD5=[9d44916250b776386006c440668bcfbb]
class Agent--><rect fill="#FEFECE" filter="url(#f5tprdo1n3lc0)" height="32" id="Agent" style="stroke:#A80036;stroke-width:1.5;" width="69" x="188" y="30"/><ellipse cx="203" cy="46" fill="#ADD1B2" rx="11" ry="11" style="stroke:#A80036;stroke-width:1.0;"/><path d="M205.9688,51.6406 Q205.3906,51.9375 204.75,52.0781 Q204.1094,52.2344 203.4063,52.2344 Q200.9063,52.2344 199.5781,50.5938 Q198.2656,48.9375 198.2656,45.8125 Q198.2656,42.6875 199.5781,41.0313 Q200.9063,39.375 203.4063,39.375 Q204.1094,39.375 204.75,39.5313 Q205.4063,39.6875 205.9688,39.9844 L205.9688,42.7031 Q205.3438,42.125 204.75,41.8594 Q204.1563,41.5781 203.5313,41.5781 Q202.1875,41.5781 201.5,42.6563 Q200.8125,43.7188 200.8125,45.8125 Q200.8125,47.9063 201.5,48.9844 Q202.1875,50.0469 203.5313,50.0469 Q204.1563,50.0469 204.75,49.7813 Q205.3438,49.5 205.9688,48.9219 L205.9688,51.6406 Z " fill="#000000"/><text fill="#000000" font-family="sans-serif" font-size="12" lengthAdjust="spacing" textLength="37" x="217" y="50.1543">Agent</text><!--MD5=[bf7e8cf64254ff374c5acfe277545dd5]
reverse link Postal_Address to Country--><path codeLine="66" d="M374.5,381.5 C374.5,396.98 374.5,413.34 374.5,427.84 " fill="none" id="Postal_Address-backto-Country" style="stroke:#A80036;stroke-width:1.0;"/><polygon fill="#FFFFFF" points="374.5,368.18,370.5,374.18,374.5,380.18,378.5,374.18,374.5,368.18" style="stroke:#A80036;stroke-width:1.0;"/><text fill="#000000" font-family="sans-serif" font-size="13" lengthAdjust="spacing" textLength="48" x="322.975" y="417.0927">country</text><!--MD5=[af6b79ce3af62c8c5ee779db9fbc8cf6]
link Affiliation_Statement to Postal_Address--><path codeLine="67" d="M448.48,211 C437.15,227.46 423.07,247.92 410.24,266.56 " fill="none" id="Affiliation_Statement-to-Postal_Address" style="stroke:#A80036;stroke-width:1.0;stroke-dasharray:7.0,7.0;"/><polygon fill="#A80036" points="407.36,270.76,415.7549,265.6097,410.1926,266.6398,409.1626,261.0775,407.36,270.76" style="stroke:#A80036;stroke-width:1.0;"/><text fill="#000000" font-family="sans-serif" font-size="13" lengthAdjust="spacing" textLength="91" x="314.5825" y="259.9165">postalAddress</text><!--MD5=[fe03d2c8e9644e7513bef3a6fb6291e6]
reverse link Affiliation_Statement to Organisation_Unit--><path codeLine="68" d="M488.45,222.38 C505.6,250 530.26,284.09 547.78,303.36 " fill="none" id="Affiliation_Statement-backto-Organisation_Unit" style="stroke:#A80036;stroke-width:1.0;"/><polygon fill="#FFFFFF" points="481.6,211,481.2638,218.2033,487.7836,221.2841,488.1199,214.0808,481.6,211" style="stroke:#A80036;stroke-width:1.0;"/><text fill="#000000" font-family="sans-serif" font-size="13" lengthAdjust="spacing" textLength="47" x="486.2669" y="292.3235">orgUnit</text><!--MD5=[fe03d2c8e9644e7513bef3a6fb6291e6]
reverse link Affiliation_Statement to Organisation_Unit--><path codeLine="69" d="M512.12,221.28 C533.34,249.09 556.01,283.84 564.87,303.36 " fill="none" id="Affiliation_Statement-backto-Organisation_Unit-1" style="stroke:#A80036;stroke-width:1.0;"/><polygon fill="#FFFFFF" points="504.09,211,504.637,218.1903,511.4846,220.4509,510.9376,213.2606,504.09,211" style="stroke:#A80036;stroke-width:1.0;"/><text fill="#000000" font-family="sans-serif" font-size="13" lengthAdjust="spacing" textLength="63" x="575.1378" y="292.3235">institution</text><!--MD5=[21f8b3605054312288eb3132d9b75edc]
reverse link Contribution_Statement to Free_Text_Contribution_Statement--><path codeLine="70" d="M220.24,209.64 C199.66,234.61 170.93,269.46 151.57,292.94 " fill="none" id="Contribution_Statement-backto-Free_Text_Contribution_Statement" style="stroke:#A80036;stroke-width:1.0;"/><polygon fill="none" points="214.85,205.17,232.97,194.19,225.65,214.08,214.85,205.17" style="stroke:#A80036;stroke-width:1.0;"/><!--MD5=[1f014480a3afa8c0325c3be3fbf7ad6f]
link Contributorship to Document--><path codeLine="71" d="M423.12,46 C430.42,46 437.72,46 445.02,46 " fill="none" id="Contributorship-to-Document" style="stroke:#A80036;stroke-width:1.0;"/><polygon fill="#A80036" points="458.16,46,452.16,42,446.16,46,452.16,50,458.16,46" style="stroke:#A80036;stroke-width:1.0;"/><!--MD5=[504de05de5dc33320621ff1be2e6e6ff]
reverse link Agent to Contributorship--><path codeLine="72" d="M270.14,46 C277.41,46 284.69,46 291.97,46 " fill="none" id="Agent-backto-Contributorship" style="stroke:#A80036;stroke-width:1.0;"/><polygon fill="#A80036" points="257.04,46,263.04,50,269.04,46,263.04,42,257.04,46" style="stroke:#A80036;stroke-width:1.0;"/><!--MD5=[d50a95e3ddb5a3ed983c7b2ff4649bd6]
reverse link Contributorship to Affiliation_Statement--><path codeLine="73" d="M394.12,89.13 C409.83,107.2 427.89,127.97 442.5,144.78 " fill="none" id="Contributorship-backto-Affiliation_Statement" style="stroke:#A80036;stroke-width:1.0;"/><polygon fill="#A80036" points="385.43,79.13,386.3463,86.2826,393.3012,88.1878,392.3849,81.0352,385.43,79.13" style="stroke:#A80036;stroke-width:1.0;"/><text fill="#000000" font-family="sans-serif" font-size="13" lengthAdjust="spacing" textLength="64" x="366.6875" y="133.8817">affiliations</text><!--MD5=[aa65b9840c4d4bb6ada386eeadadc345]
reverse link Contributorship to Contribution_Statement--><path codeLine="74" d="M321.25,89.08 C299.82,113.95 273.96,143.97 258.67,161.71 " fill="none" id="Contributorship-backto-Contribution_Statement" style="stroke:#A80036;stroke-width:1.0;"/><polygon fill="#A80036" points="329.81,79.13,322.8641,81.0675,321.981,88.2243,328.9269,86.2868,329.81,79.13" style="stroke:#A80036;stroke-width:1.0;"/><text fill="#000000" font-family="sans-serif" font-size="13" lengthAdjust="spacing" textLength="152" x="85.8576" y="150.9185">contributionStatements</text><!--MD5=[bf6914a9cb4cbf5597916d576d7f8581]
@startuml

    !includesub core.puml!common
    !includesub core.puml!Contributorship

@enduml

@startuml

	hide empty members
    class "Document"{
        title : Multilingual_String
        publicationDate : Date 
        doi : DOI
    }
    class "Contributorship"{
        contacts : List<URI> 
        displayName : String
    }
    class "Contribution_Statement"{
    }
    class "Free_Text_Contribution_Statement"{
        statement : Multilingual_String
    }
    class "Affiliation_Statement"{
        displayAffiliation : String 
        address : Postal_Address
    }
    class Postal_Address << (D,#FF7700) DataType>> {
        street : Multilingual_String 
        city : Multilingual_String
        zipCode : Multilingual_String 
        country : Country
    }
    class "Country"{
        name : Multilingual_String
        iso3166alphaCode : ISO3166_Alpha_Code
        iso3166NumericCode : ISO3166_Numeric_Code
        euCountryCode : EU_Country_Code
    }
"Postal_Address" o- - "country" "Country"
"Affiliation_Statement" ..> "postalAddress" "Postal_Address"
"Affiliation_Statement" o- - "orgUnit" "Organisation_Unit"
"Affiliation_Statement" o- - "institution" "Organisation_Unit"
"Contribution_Statement" <|- - "Free_Text_Contribution_Statement"
"Contributorship" -r-* "Document"
"Contributorship" -l-* "Agent"
"Contributorship" *- - "affiliations" "Affiliation_Statement"
"Contributorship" *- - "contributionStatements" "Contribution_Statement"

@enduml

PlantUML version 1.2021.8(Sat Jun 26 08:20:59 UTC 2021)
(GPL source distribution)
Java Runtime: OpenJDK Runtime Environment
JVM: OpenJDK 64-Bit Server VM
Default Encoding: UTF-8
Language: en
Country: null
--></g></svg>