<?xml version="1.0" encoding="UTF-8" standalone="no"?><svg xmlns="http://www.w3.org/2000/svg" xmlns:xlink="http://www.w3.org/1999/xlink" contentScriptType="application/ecmascript" contentStyleType="text/css" height="710px" preserveAspectRatio="none" style="width:737px;height:710px;background:#FFFFFF;" version="1.1" viewBox="0 0 737 710" width="737px" zoomAndPan="magnify"><defs><filter height="300%" id="fd1s9ag5srjso" width="300%" x="-1" y="-1"><feGaussianBlur result="blurOut" stdDeviation="2.0"/><feColorMatrix in="blurOut" result="blurOut2" type="matrix" values="0 0 0 0 0 0 0 0 0 0 0 0 0 0 0 0 0 0 .4 0"/><feOffset dx="4.0" dy="4.0" in="blurOut2" result="blurOut3"/><feBlend in="SourceGraphic" in2="blurOut3" mode="normal"/></filter></defs><g><!--MD5=[9d44916250b776386006c440668bcfbb]
class Agent--><rect codeLine="19" fill="#FEFECE" filter="url(#fd1s9ag5srjso)" height="32" id="Agent" style="stroke:#A80036;stroke-width:1.5;" width="69" x="143" y="30"/><ellipse cx="158" cy="46" fill="#ADD1B2" rx="11" ry="11" style="stroke:#A80036;stroke-width:1.0;"/><path d="M160.9688,51.6406 Q160.3906,51.9375 159.75,52.0781 Q159.1094,52.2344 158.4063,52.2344 Q155.9063,52.2344 154.5781,50.5938 Q153.2656,48.9375 153.2656,45.8125 Q153.2656,42.6875 154.5781,41.0313 Q155.9063,39.375 158.4063,39.375 Q159.1094,39.375 159.75,39.5313 Q160.4063,39.6875 160.9688,39.9844 L160.9688,42.7031 Q160.3438,42.125 159.75,41.8594 Q159.1563,41.5781 158.5313,41.5781 Q157.1875,41.5781 156.5,42.6563 Q155.8125,43.7188 155.8125,45.8125 Q155.8125,47.9063 156.5,48.9844 Q157.1875,50.0469 158.5313,50.0469 Q159.1563,50.0469 159.75,49.7813 Q160.3438,49.5 160.9688,48.9219 L160.9688,51.6406 Z " fill="#000000"/><text fill="#000000" font-family="sans-serif" font-size="12" lengthAdjust="spacing" textLength="37" x="172" y="50.1543">Agent</text><!--MD5=[779f3743e425ed8a6f0bf188ddea4860]
class Organisation_Unit--><rect codeLine="22" fill="#FEFECE" filter="url(#fd1s9ag5srjso)" height="116.8281" id="Organisation_Unit" style="stroke:#A80036;stroke-width:1.5;" width="159" x="210" y="271"/><ellipse cx="232.2" cy="287" fill="#ADD1B2" rx="11" ry="11" style="stroke:#A80036;stroke-width:1.0;"/><path d="M235.1688,292.6406 Q234.5906,292.9375 233.95,293.0781 Q233.3094,293.2344 232.6063,293.2344 Q230.1063,293.2344 228.7781,291.5938 Q227.4656,289.9375 227.4656,286.8125 Q227.4656,283.6875 228.7781,282.0313 Q230.1063,280.375 232.6063,280.375 Q233.3094,280.375 233.95,280.5313 Q234.6063,280.6875 235.1688,280.9844 L235.1688,283.7031 Q234.5438,283.125 233.95,282.8594 Q233.3563,282.5781 232.7313,282.5781 Q231.3875,282.5781 230.7,283.6563 Q230.0125,284.7188 230.0125,286.8125 Q230.0125,288.9063 230.7,289.9844 Q231.3875,291.0469 232.7313,291.0469 Q233.3563,291.0469 233.95,290.7813 Q234.5438,290.5 235.1688,289.9219 L235.1688,292.6406 Z " fill="#000000"/><text fill="#000000" font-family="sans-serif" font-size="12" lengthAdjust="spacing" textLength="111" x="247.8" y="291.1543">Organisation_Unit</text><line style="stroke:#A80036;stroke-width:1.5;" x1="211" x2="368" y1="303" y2="303"/><text fill="#000000" font-family="sans-serif" font-size="11" lengthAdjust="spacing" textLength="147" x="216" y="317.2104">name : Multilingual_String</text><text fill="#000000" font-family="sans-serif" font-size="11" lengthAdjust="spacing" textLength="95" x="216" y="330.0151">acronym : String</text><text fill="#000000" font-family="sans-serif" font-size="11" lengthAdjust="spacing" textLength="147" x="216" y="342.8198">address : Postal_Address</text><text fill="#000000" font-family="sans-serif" font-size="11" lengthAdjust="spacing" textLength="78" x="216" y="355.6245">rorId : ROR_Id</text><text fill="#000000" font-family="sans-serif" font-size="11" lengthAdjust="spacing" textLength="99" x="216" y="368.4292">webSiteURL : URL</text><text fill="#000000" font-family="sans-serif" font-size="11" lengthAdjust="spacing" textLength="64" x="216" y="381.2339">email : URL</text><!--MD5=[09ce52be0ee7de43c61b6e2d59bf108b]
class Person--><rect codeLine="30" fill="#FEFECE" filter="url(#fd1s9ag5srjso)" height="65.6094" id="Person" style="stroke:#A80036;stroke-width:1.5;" width="135" x="40" y="296.5"/><ellipse cx="81.55" cy="312.5" fill="#ADD1B2" rx="11" ry="11" style="stroke:#A80036;stroke-width:1.0;"/><path d="M84.5188,318.1406 Q83.9406,318.4375 83.3,318.5781 Q82.6594,318.7344 81.9563,318.7344 Q79.4563,318.7344 78.1281,317.0938 Q76.8156,315.4375 76.8156,312.3125 Q76.8156,309.1875 78.1281,307.5313 Q79.4563,305.875 81.9563,305.875 Q82.6594,305.875 83.3,306.0313 Q83.9563,306.1875 84.5188,306.4844 L84.5188,309.2031 Q83.8938,308.625 83.3,308.3594 Q82.7063,308.0781 82.0813,308.0781 Q80.7375,308.0781 80.05,309.1563 Q79.3625,310.2188 79.3625,312.3125 Q79.3625,314.4063 80.05,315.4844 Q80.7375,316.5469 82.0813,316.5469 Q82.7063,316.5469 83.3,316.2813 Q83.8938,316 84.5188,315.4219 L84.5188,318.1406 Z " fill="#000000"/><text fill="#000000" font-family="sans-serif" font-size="12" lengthAdjust="spacing" textLength="44" x="101.45" y="316.6543">Person</text><line style="stroke:#A80036;stroke-width:1.5;" x1="41" x2="174" y1="328.5" y2="328.5"/><text fill="#000000" font-family="sans-serif" font-size="11" lengthAdjust="spacing" textLength="123" x="46" y="342.7104">name : Person_Name</text><text fill="#000000" font-family="sans-serif" font-size="11" lengthAdjust="spacing" textLength="102" x="46" y="355.5151">orcidId : ORCID_iD</text><!--MD5=[7b209ef07eb91b93e0aebc9fe4fb9a26]
class Person_Name--><rect codeLine="34" fill="#FEFECE" filter="url(#fd1s9ag5srjso)" height="84.3516" id="Person_Name" style="stroke:#A80036;stroke-width:1.5;" width="201" x="7" y="454.5"/><ellipse cx="60.25" cy="473.4688" fill="#FF7700" rx="11" ry="11" style="stroke:#A80036;stroke-width:1.0;"/><path d="M59.8438,469.2813 L59.8438,477.2656 L60.5,477.2656 Q61.9375,477.2656 62.5469,476.3594 Q63.1719,475.4375 63.1719,473.2656 Q63.1719,471.0938 62.5469,470.1875 Q61.9375,469.2813 60.5,469.2813 L59.8438,469.2813 Z M57.3906,467.0781 L60.0156,467.0781 Q63.0469,467.0781 64.375,468.5313 Q65.7188,469.9688 65.7188,473.2656 Q65.7188,476.5625 64.375,478.0156 Q63.0469,479.4688 60.0156,479.4688 L57.3906,479.4688 L57.3906,467.0781 Z " fill="#000000"/><text fill="#000000" font-family="sans-serif" font-size="12" font-style="italic" lengthAdjust="spacing" textLength="74" x="86.75" y="470.6387">«DataType»</text><text fill="#000000" font-family="sans-serif" font-size="12" lengthAdjust="spacing" textLength="86" x="80.75" y="484.6074">Person_Name</text><line style="stroke:#A80036;stroke-width:1.5;" x1="8" x2="207" y1="492.4375" y2="492.4375"/><text fill="#000000" font-family="sans-serif" font-size="11" lengthAdjust="spacing" textLength="178" x="13" y="506.6479">firstNames : Multilingual_String</text><text fill="#000000" font-family="sans-serif" font-size="11" lengthAdjust="spacing" textLength="189" x="13" y="519.4526">familyNames : Multilingual_String</text><text fill="#000000" font-family="sans-serif" font-size="11" lengthAdjust="spacing" textLength="185" x="13" y="532.2573">otherNames : Multilingual_String</text><!--MD5=[fe1d14fe6d68ca7e76eb34268c62a1f3]
class Postal_Address--><rect codeLine="39" fill="#FEFECE" filter="url(#fd1s9ag5srjso)" height="97.1563" id="Postal_Address" style="stroke:#A80036;stroke-width:1.5;" width="171" x="290" y="448"/><ellipse cx="324.35" cy="466.9688" fill="#FF7700" rx="11" ry="11" style="stroke:#A80036;stroke-width:1.0;"/><path d="M323.9438,462.7813 L323.9438,470.7656 L324.6,470.7656 Q326.0375,470.7656 326.6469,469.8594 Q327.2719,468.9375 327.2719,466.7656 Q327.2719,464.5938 326.6469,463.6875 Q326.0375,462.7813 324.6,462.7813 L323.9438,462.7813 Z M321.4906,460.5781 L324.1156,460.5781 Q327.1469,460.5781 328.475,462.0313 Q329.8188,463.4688 329.8188,466.7656 Q329.8188,470.0625 328.475,471.5156 Q327.1469,472.9688 324.1156,472.9688 L321.4906,472.9688 L321.4906,460.5781 Z " fill="#000000"/><text fill="#000000" font-family="sans-serif" font-size="12" font-style="italic" lengthAdjust="spacing" textLength="74" x="353.65" y="464.1387">«DataType»</text><text fill="#000000" font-family="sans-serif" font-size="12" lengthAdjust="spacing" textLength="96" x="342.65" y="478.1074">Postal_Address</text><line style="stroke:#A80036;stroke-width:1.5;" x1="291" x2="460" y1="485.9375" y2="485.9375"/><text fill="#000000" font-family="sans-serif" font-size="11" lengthAdjust="spacing" textLength="149" x="296" y="500.1479">street : Multilingual_String</text><text fill="#000000" font-family="sans-serif" font-size="11" lengthAdjust="spacing" textLength="134" x="296" y="512.9526">city : Multilingual_String</text><text fill="#000000" font-family="sans-serif" font-size="11" lengthAdjust="spacing" textLength="159" x="296" y="525.7573">zipCode : Multilingual_String</text><text fill="#000000" font-family="sans-serif" font-size="11" lengthAdjust="spacing" textLength="98" x="296" y="538.562">country : Country</text><!--MD5=[deb4e1f6eb1e3c1256fdb830f96abfbb]
class Country--><rect codeLine="45" fill="#FEFECE" filter="url(#fd1s9ag5srjso)" height="91.2188" id="Country" style="stroke:#A80036;stroke-width:1.5;" width="281" x="235" y="605"/><ellipse cx="347.25" cy="621" fill="#ADD1B2" rx="11" ry="11" style="stroke:#A80036;stroke-width:1.0;"/><path d="M350.2188,626.6406 Q349.6406,626.9375 349,627.0781 Q348.3594,627.2344 347.6563,627.2344 Q345.1563,627.2344 343.8281,625.5938 Q342.5156,623.9375 342.5156,620.8125 Q342.5156,617.6875 343.8281,616.0313 Q345.1563,614.375 347.6563,614.375 Q348.3594,614.375 349,614.5313 Q349.6563,614.6875 350.2188,614.9844 L350.2188,617.7031 Q349.5938,617.125 349,616.8594 Q348.4063,616.5781 347.7813,616.5781 Q346.4375,616.5781 345.75,617.6563 Q345.0625,618.7188 345.0625,620.8125 Q345.0625,622.9063 345.75,623.9844 Q346.4375,625.0469 347.7813,625.0469 Q348.4063,625.0469 349,624.7813 Q349.5938,624.5 350.2188,623.9219 L350.2188,626.6406 Z " fill="#000000"/><text fill="#000000" font-family="sans-serif" font-size="12" lengthAdjust="spacing" textLength="48" x="367.75" y="625.1543">Country</text><line style="stroke:#A80036;stroke-width:1.5;" x1="236" x2="515" y1="637" y2="637"/><text fill="#000000" font-family="sans-serif" font-size="11" lengthAdjust="spacing" textLength="147" x="241" y="651.2104">name : Multilingual_String</text><text fill="#000000" font-family="sans-serif" font-size="11" lengthAdjust="spacing" textLength="237" x="241" y="664.0151">iso3166alphaCode : ISO3166_Alpha_Code</text><text fill="#000000" font-family="sans-serif" font-size="11" lengthAdjust="spacing" textLength="269" x="241" y="676.8198">iso3166NumericCode : ISO3166_Numeric_Code</text><text fill="#000000" font-family="sans-serif" font-size="11" lengthAdjust="spacing" textLength="199" x="241" y="689.6245">euCountryCode : EU_Country_Code</text><!--MD5=[59b530d44ae785dc18db921986a9c15c]
class Document--><rect codeLine="8" fill="#FEFECE" filter="url(#fd1s9ag5srjso)" height="78.4141" id="Document" style="stroke:#A80036;stroke-width:1.5;" width="148" x="413.5" y="7"/><ellipse cx="451.9" cy="23" fill="#ADD1B2" rx="11" ry="11" style="stroke:#A80036;stroke-width:1.0;"/><path d="M454.8688,28.6406 Q454.2906,28.9375 453.65,29.0781 Q453.0094,29.2344 452.3063,29.2344 Q449.8063,29.2344 448.4781,27.5938 Q447.1656,25.9375 447.1656,22.8125 Q447.1656,19.6875 448.4781,18.0313 Q449.8063,16.375 452.3063,16.375 Q453.0094,16.375 453.65,16.5313 Q454.3063,16.6875 454.8688,16.9844 L454.8688,19.7031 Q454.2438,19.125 453.65,18.8594 Q453.0563,18.5781 452.4313,18.5781 Q451.0875,18.5781 450.4,19.6563 Q449.7125,20.7188 449.7125,22.8125 Q449.7125,24.9063 450.4,25.9844 Q451.0875,27.0469 452.4313,27.0469 Q453.0563,27.0469 453.65,26.7813 Q454.2438,26.5 454.8688,25.9219 L454.8688,28.6406 Z " fill="#000000"/><text fill="#000000" font-family="sans-serif" font-size="12" lengthAdjust="spacing" textLength="64" x="471.1" y="27.1543">Document</text><line style="stroke:#A80036;stroke-width:1.5;" x1="414.5" x2="560.5" y1="39" y2="39"/><text fill="#000000" font-family="sans-serif" font-size="11" lengthAdjust="spacing" textLength="136" x="419.5" y="53.2104">title : Multilingual_String</text><text fill="#000000" font-family="sans-serif" font-size="11" lengthAdjust="spacing" textLength="125" x="419.5" y="66.0151">publicationDate : Date</text><text fill="#000000" font-family="sans-serif" font-size="11" lengthAdjust="spacing" textLength="49" x="419.5" y="78.8198">doi : DOI</text><!--MD5=[b821bb113f9f55c728f1fbb8949cc3af]
class Contributorship--><rect codeLine="58" fill="#FEFECE" filter="url(#fd1s9ag5srjso)" height="65.6094" id="Contributorship" style="stroke:#A80036;stroke-width:1.5;" width="131" x="247" y="13"/><ellipse cx="262.9" cy="29" fill="#ADD1B2" rx="11" ry="11" style="stroke:#A80036;stroke-width:1.0;"/><path d="M265.8688,34.6406 Q265.2906,34.9375 264.65,35.0781 Q264.0094,35.2344 263.3063,35.2344 Q260.8063,35.2344 259.4781,33.5938 Q258.1656,31.9375 258.1656,28.8125 Q258.1656,25.6875 259.4781,24.0313 Q260.8063,22.375 263.3063,22.375 Q264.0094,22.375 264.65,22.5313 Q265.3063,22.6875 265.8688,22.9844 L265.8688,25.7031 Q265.2438,25.125 264.65,24.8594 Q264.0563,24.5781 263.4313,24.5781 Q262.0875,24.5781 261.4,25.6563 Q260.7125,26.7188 260.7125,28.8125 Q260.7125,30.9063 261.4,31.9844 Q262.0875,33.0469 263.4313,33.0469 Q264.0563,33.0469 264.65,32.7813 Q265.2438,32.5 265.8688,31.9219 L265.8688,34.6406 Z " fill="#000000"/><text fill="#000000" font-family="sans-serif" font-size="12" lengthAdjust="spacing" textLength="97" x="277.1" y="33.1543">Contributorship</text><line style="stroke:#A80036;stroke-width:1.5;" x1="248" x2="377" y1="45" y2="45"/><text fill="#000000" font-family="sans-serif" font-size="11" lengthAdjust="spacing" textLength="116" x="253" y="59.2104">contacts : List&lt;URI&gt;</text><text fill="#000000" font-family="sans-serif" font-size="11" lengthAdjust="spacing" textLength="119" x="253" y="72.0151">displayName : String</text><!--MD5=[532fe005ca0bef0ad6b309c9c6480e22]
class Contribution_Statement--><rect codeLine="62" fill="#FEFECE" filter="url(#fd1s9ag5srjso)" height="32" id="Contribution_Statement" style="stroke:#A80036;stroke-width:1.5;" width="181" x="468" y="162"/><ellipse cx="483" cy="178" fill="#ADD1B2" rx="11" ry="11" style="stroke:#A80036;stroke-width:1.0;"/><path d="M485.9688,183.6406 Q485.3906,183.9375 484.75,184.0781 Q484.1094,184.2344 483.4063,184.2344 Q480.9063,184.2344 479.5781,182.5938 Q478.2656,180.9375 478.2656,177.8125 Q478.2656,174.6875 479.5781,173.0313 Q480.9063,171.375 483.4063,171.375 Q484.1094,171.375 484.75,171.5313 Q485.4063,171.6875 485.9688,171.9844 L485.9688,174.7031 Q485.3438,174.125 484.75,173.8594 Q484.1563,173.5781 483.5313,173.5781 Q482.1875,173.5781 481.5,174.6563 Q480.8125,175.7188 480.8125,177.8125 Q480.8125,179.9063 481.5,180.9844 Q482.1875,182.0469 483.5313,182.0469 Q484.1563,182.0469 484.75,181.7813 Q485.3438,181.5 485.9688,180.9219 L485.9688,183.6406 Z " fill="#000000"/><text fill="#000000" font-family="sans-serif" font-size="12" lengthAdjust="spacing" textLength="149" x="497" y="182.1543">Contribution_Statement</text><!--MD5=[75e6ee6f0cee60576da1adad405695b7]
class Free_Text_Contribution_Statement--><rect codeLine="64" fill="#FEFECE" filter="url(#fd1s9ag5srjso)" height="52.8047" id="Free_Text_Contribution_Statement" style="stroke:#A80036;stroke-width:1.5;" width="247" x="476" y="303"/><ellipse cx="491" cy="319" fill="#ADD1B2" rx="11" ry="11" style="stroke:#A80036;stroke-width:1.0;"/><path d="M493.9688,324.6406 Q493.3906,324.9375 492.75,325.0781 Q492.1094,325.2344 491.4063,325.2344 Q488.9063,325.2344 487.5781,323.5938 Q486.2656,321.9375 486.2656,318.8125 Q486.2656,315.6875 487.5781,314.0313 Q488.9063,312.375 491.4063,312.375 Q492.1094,312.375 492.75,312.5313 Q493.4063,312.6875 493.9688,312.9844 L493.9688,315.7031 Q493.3438,315.125 492.75,314.8594 Q492.1563,314.5781 491.5313,314.5781 Q490.1875,314.5781 489.5,315.6563 Q488.8125,316.7188 488.8125,318.8125 Q488.8125,320.9063 489.5,321.9844 Q490.1875,323.0469 491.5313,323.0469 Q492.1563,323.0469 492.75,322.7813 Q493.3438,322.5 493.9688,321.9219 L493.9688,324.6406 Z " fill="#000000"/><text fill="#000000" font-family="sans-serif" font-size="12" lengthAdjust="spacing" textLength="215" x="505" y="323.1543">Free_Text_Contribution_Statement</text><line style="stroke:#A80036;stroke-width:1.5;" x1="477" x2="722" y1="335" y2="335"/><text fill="#000000" font-family="sans-serif" font-size="11" lengthAdjust="spacing" textLength="173" x="482" y="349.2104">statement : Multilingual_String</text><!--MD5=[ddbff00b4911ad4b77d6aa32dd14d1d7]
class Affiliation_Statement--><rect codeLine="67" fill="#FEFECE" filter="url(#fd1s9ag5srjso)" height="65.6094" id="Affiliation_Statement" style="stroke:#A80036;stroke-width:1.5;" width="161" x="232" y="145"/><ellipse cx="247" cy="161" fill="#ADD1B2" rx="11" ry="11" style="stroke:#A80036;stroke-width:1.0;"/><path d="M249.9688,166.6406 Q249.3906,166.9375 248.75,167.0781 Q248.1094,167.2344 247.4063,167.2344 Q244.9063,167.2344 243.5781,165.5938 Q242.2656,163.9375 242.2656,160.8125 Q242.2656,157.6875 243.5781,156.0313 Q244.9063,154.375 247.4063,154.375 Q248.1094,154.375 248.75,154.5313 Q249.4063,154.6875 249.9688,154.9844 L249.9688,157.7031 Q249.3438,157.125 248.75,156.8594 Q248.1563,156.5781 247.5313,156.5781 Q246.1875,156.5781 245.5,157.6563 Q244.8125,158.7188 244.8125,160.8125 Q244.8125,162.9063 245.5,163.9844 Q246.1875,165.0469 247.5313,165.0469 Q248.1563,165.0469 248.75,164.7813 Q249.3438,164.5 249.9688,163.9219 L249.9688,166.6406 Z " fill="#000000"/><text fill="#000000" font-family="sans-serif" font-size="12" lengthAdjust="spacing" textLength="129" x="261" y="165.1543">Affiliation_Statement</text><line style="stroke:#A80036;stroke-width:1.5;" x1="233" x2="392" y1="177" y2="177"/><text fill="#000000" font-family="sans-serif" font-size="11" lengthAdjust="spacing" textLength="138" x="238" y="191.2104">displayAffiliation : String</text><text fill="#000000" font-family="sans-serif" font-size="11" lengthAdjust="spacing" textLength="147" x="238" y="204.0151">address : Postal_Address</text><!--MD5=[1c2d5a11bdff8297fbebaa44435072c9]
link Postal_Address to Country--><path codeLine="51" d="M375.5,557.18 C375.5,557.18 375.5,580.7 375.5,591.5 " fill="none" id="Postal_Address-Country" style="stroke:#A80036;stroke-width:1.0;"/><polygon fill="#A80036" points="375.5,604.84,379.5,595.84,375.5,599.84,371.5,595.84,375.5,604.84" style="stroke:#A80036;stroke-width:1.0;"/><line style="stroke:#A80036;stroke-width:1.0;" x1="375.5" x2="375.5" y1="599.84" y2="591.84"/><polygon fill="#FFFFFF" points="375.5,545.18,371.5,551.18,375.5,557.18,379.5,551.18,375.5,545.18" style="stroke:#A80036;stroke-width:1.0;"/><text fill="#000000" font-family="sans-serif" font-size="13" lengthAdjust="spacing" textLength="48" x="323.975" y="594.0927">country</text><!--MD5=[5d8901ce694eb85aefa78b7d82d9f6f6]
link Person to Person_Name--><path codeLine="88" d="M107.5,362.71 C107.5,387.34 107.5,421.64 107.5,449.22 " fill="none" id="Person-to-Person_Name" style="stroke:#A80036;stroke-width:1.0;stroke-dasharray:7.0,7.0;"/><polygon fill="#A80036" points="107.5,454.28,111.5,445.28,107.5,449.28,103.5,445.28,107.5,454.28" style="stroke:#A80036;stroke-width:1.0;"/><text fill="#000000" font-family="sans-serif" font-size="13" lengthAdjust="spacing" textLength="37" x="67.5516" y="443.4053">name</text><!--MD5=[de96f77e660762cb21a195b4097c3876]
reverse link Agent to Person--><path codeLine="89" d="M168.51,81.93 C163.71,100.62 157.74,124.06 152.5,145 C139.25,197.98 124.2,259.67 115.29,296.32 " fill="none" id="Agent-backto-Person" style="stroke:#A80036;stroke-width:1.0;"/><polygon fill="none" points="161.8,79.89,173.56,62.27,175.36,83.38,161.8,79.89" style="stroke:#A80036;stroke-width:1.0;"/><!--MD5=[521d3f26cc3887ed8885a4c0e03f9952]
reverse link Agent to Organisation_Unit--><path codeLine="90" d="M181.85,82.23 C186.87,116.19 196.8,168.54 214.5,211 C223.07,231.55 235.16,252.51 247.15,270.92 " fill="none" id="Agent-backto-Organisation_Unit" style="stroke:#A80036;stroke-width:1.0;"/><polygon fill="none" points="174.86,82.76,179.13,62,188.73,80.89,174.86,82.76" style="stroke:#A80036;stroke-width:1.0;"/><!--MD5=[15e2f573152931505f3d87c1c2d22c4e]
link Organisation_Unit to Postal_Address--><path codeLine="91" d="M319.58,388.21 C328.88,406.05 339.06,425.59 348.16,443.05 " fill="none" id="Organisation_Unit-to-Postal_Address" style="stroke:#A80036;stroke-width:1.0;stroke-dasharray:7.0,7.0;"/><polygon fill="#A80036" points="350.7,447.92,350.0767,438.0909,348.3842,443.4886,342.9865,441.7961,350.7,447.92" style="stroke:#A80036;stroke-width:1.0;"/><text fill="#000000" font-family="sans-serif" font-size="13" lengthAdjust="spacing" textLength="51" x="292.6266" y="437.099">address</text><!--MD5=[af6b79ce3af62c8c5ee779db9fbc8cf6]
link Affiliation_Statement to Postal_Address--><path codeLine="74" d="M347.6,211.33 C362.67,227.58 378.6,248.57 386.5,271 C406.33,327.29 398.54,396.44 389.06,443 " fill="none" id="Affiliation_Statement-to-Postal_Address" style="stroke:#A80036;stroke-width:1.0;stroke-dasharray:7.0,7.0;"/><polygon fill="#A80036" points="388.01,448,393.7513,439.9976,389.0235,443.1038,385.9173,438.376,388.01,448" style="stroke:#A80036;stroke-width:1.0;"/><text fill="#000000" font-family="sans-serif" font-size="13" lengthAdjust="spacing" textLength="91" x="396.5302" y="436.8402">postalAddress</text><!--MD5=[fe03d2c8e9644e7513bef3a6fb6291e6]
reverse link Affiliation_Statement to Organisation_Unit--><path codeLine="75" d="M293.77,224 C290.52,238.73 287.76,255.31 285.92,270.84 " fill="none" id="Affiliation_Statement-backto-Organisation_Unit" style="stroke:#A80036;stroke-width:1.0;"/><polygon fill="#FFFFFF" points="296.88,211.07,291.5858,215.9661,294.069,222.7361,299.3632,217.84,296.88,211.07" style="stroke:#A80036;stroke-width:1.0;"/><text fill="#000000" font-family="sans-serif" font-size="13" lengthAdjust="spacing" textLength="47" x="235.6196" y="259.8622">orgUnit</text><!--MD5=[fe03d2c8e9644e7513bef3a6fb6291e6]
reverse link Affiliation_Statement to Organisation_Unit--><path codeLine="76" d="M318.04,224.45 C316.81,239.07 314.5,255.47 311.55,270.84 " fill="none" id="Affiliation_Statement-backto-Organisation_Unit-1" style="stroke:#A80036;stroke-width:1.0;"/><polygon fill="#FFFFFF" points="318.88,211.07,314.5123,216.8079,318.129,223.0465,322.4967,217.3086,318.88,211.07" style="stroke:#A80036;stroke-width:1.0;"/><text fill="#000000" font-family="sans-serif" font-size="13" lengthAdjust="spacing" textLength="63" x="318.0764" y="259.8622">institution</text><!--MD5=[d9b08b031298a036c8fb3d44263a5204]
reverse link Affiliation_Statement to Person--><path codeLine="77" d="M257.6,219.04 C224.33,243.3 182.46,273.83 151.4,296.48 " fill="none" id="Affiliation_Statement-backto-Person" style="stroke:#A80036;stroke-width:1.0;"/><polygon fill="#FFFFFF" points="268.52,211.07,261.3153,211.3734,258.8243,218.1406,266.029,217.8372,268.52,211.07" style="stroke:#A80036;stroke-width:1.0;"/><!--MD5=[21f8b3605054312288eb3132d9b75edc]
reverse link Contribution_Statement to Free_Text_Contribution_Statement--><path codeLine="78" d="M568.04,213.8 C575.51,241.03 585.73,278.28 592.46,302.85 " fill="none" id="Contribution_Statement-backto-Free_Text_Contribution_Statement" style="stroke:#A80036;stroke-width:1.0;"/><polygon fill="none" points="561.2,215.3,562.66,194.16,574.7,211.59,561.2,215.3" style="stroke:#A80036;stroke-width:1.0;"/><!--MD5=[1f014480a3afa8c0325c3be3fbf7ad6f]
link Contributorship to Document--><path codeLine="79" d="M378.12,46 C385.42,46 392.72,46 400.02,46 " fill="none" id="Contributorship-to-Document" style="stroke:#A80036;stroke-width:1.0;"/><polygon fill="#A80036" points="413.16,46,407.16,42,401.16,46,407.16,50,413.16,46" style="stroke:#A80036;stroke-width:1.0;"/><text fill="#000000" font-family="sans-serif" font-size="13" lengthAdjust="spacing" textLength="7" x="386.112" y="42.23">*</text><!--MD5=[504de05de5dc33320621ff1be2e6e6ff]
reverse link Agent to Contributorship--><path codeLine="80" d="M225.14,46 C232.41,46 239.69,46 246.97,46 " fill="none" id="Agent-backto-Contributorship" style="stroke:#A80036;stroke-width:1.0;"/><polygon fill="#FFFFFF" points="212.04,46,218.04,50,224.04,46,218.04,42,212.04,46" style="stroke:#A80036;stroke-width:1.0;"/><text fill="#000000" font-family="sans-serif" font-size="13" lengthAdjust="spacing" textLength="98" x="139.5319" y="27.6568">0..1 contributor</text><text fill="#000000" font-family="sans-serif" font-size="13" lengthAdjust="spacing" textLength="7" x="231.9884" y="58.9643">*</text><!--MD5=[d50a95e3ddb5a3ed983c7b2ff4649bd6]
reverse link Contributorship to Affiliation_Statement--><path codeLine="81" d="M312.5,92.18 C312.5,109.51 312.5,128.91 312.5,144.78 " fill="none" id="Contributorship-backto-Affiliation_Statement" style="stroke:#A80036;stroke-width:1.0;"/><polygon fill="#FFFFFF" points="312.5,79.13,308.5,85.13,312.5,91.13,316.5,85.13,312.5,79.13" style="stroke:#A80036;stroke-width:1.0;"/><text fill="#000000" font-family="sans-serif" font-size="13" lengthAdjust="spacing" textLength="75" x="230.1172" y="133.8817">affiliations *</text><!--MD5=[aa65b9840c4d4bb6ada386eeadadc345]
reverse link Contributorship to Contribution_Statement--><path codeLine="82" d="M385.02,85.32 C433.51,110.95 494.66,143.26 529.9,161.88 " fill="none" id="Contributorship-backto-Contribution_Statement" style="stroke:#A80036;stroke-width:1.0;"/><polygon fill="#A80036" points="373.31,79.13,376.7452,85.4703,383.919,84.738,380.4838,78.3977,373.31,79.13" style="stroke:#A80036;stroke-width:1.0;"/><text fill="#000000" font-family="sans-serif" font-size="13" lengthAdjust="spacing" textLength="163" x="548.0844" y="150.8503">contributionStatements *</text><!--MD5=[077da6cf6d9335f21943345d6b6a1c4b]
@startuml

    !includesub core.puml!common
    !includesub core.puml!Agent
    !includesub core.puml!Contributorship

@enduml

@startuml

	hide empty members
	skinparam BoxPadding 120
    class "Agent"{

    }
    class "Organisation_Unit"{
        name : Multilingual_String
        acronym : String
        address : Postal_Address
        rorId : ROR_Id
        webSiteURL : URL
        email : URL
    }
    class "Person"{
        name : Person_Name
        orcidId : ORCID_iD
    }
    class Person_Name << (D,#FF7700) DataType>> {
        firstNames : Multilingual_String
        familyNames : Multilingual_String
        otherNames : Multilingual_String
    } 
    class Postal_Address << (D,#FF7700) DataType>> {
        street : Multilingual_String 
        city : Multilingual_String
        zipCode : Multilingual_String 
        country : Country
    }
    class "Country"{
        name : Multilingual_String
        iso3166alphaCode : ISO3166_Alpha_Code
        iso3166NumericCode : ISO3166_Numeric_Code
        euCountryCode : EU_Country_Code
    }
	"Postal_Address" o- -> "country" "Country"
"Person" ..> "name" "Person_Name"
"Agent" <|- - "Person"
"Agent" <|- - "Organisation_Unit"
"Organisation_Unit" ..> "address" "Postal_Address"
    class "Document"{
        title : Multilingual_String
        publicationDate : Date 
        doi : DOI
    }
    class "Contributorship"{
        contacts : List<URI> 
        displayName : String
    }
    class "Contribution_Statement"{
    }
    class "Free_Text_Contribution_Statement"{
        statement : Multilingual_String
    }
    class "Affiliation_Statement"{
        displayAffiliation : String 
        address : Postal_Address
    }
"Affiliation_Statement" ..> "postalAddress" "Postal_Address"
"Affiliation_Statement" o- - "orgUnit" "Organisation_Unit"
"Affiliation_Statement" o- - "institution" "Organisation_Unit"
"Affiliation_Statement" o- - "Person"
"Contribution_Statement" <|- - "Free_Text_Contribution_Statement"
"Contributorship" "*" - -r- -* "Document"
"Contributorship" "*" - -l- -o "0..1 contributor" "Agent"
"Contributorship" o- - "affiliations *" "Affiliation_Statement"
"Contributorship" *- - "contributionStatements *" "Contribution_Statement"

@enduml

PlantUML version 1.2021.8(Sat Jun 26 08:20:59 UTC 2021)
(GPL source distribution)
Java Runtime: OpenJDK Runtime Environment
JVM: OpenJDK 64-Bit Server VM
Default Encoding: UTF-8
Language: en
Country: null
--></g></svg>