<?xml version="1.0" encoding="UTF-8" standalone="no"?><svg xmlns="http://www.w3.org/2000/svg" xmlns:xlink="http://www.w3.org/1999/xlink" contentScriptType="application/ecmascript" contentStyleType="text/css" height="654px" preserveAspectRatio="none" style="width:575px;height:654px;background:#FFFFFF;" version="1.1" viewBox="0 0 575 654" width="575px" zoomAndPan="magnify"><defs><filter height="300%" id="f1g1pyyd2ylirh" width="300%" x="-1" y="-1"><feGaussianBlur result="blurOut" stdDeviation="2.0"/><feColorMatrix in="blurOut" result="blurOut2" type="matrix" values="0 0 0 0 0 0 0 0 0 0 0 0 0 0 0 0 0 0 .4 0"/><feOffset dx="4.0" dy="4.0" in="blurOut2" result="blurOut3"/><feBlend in="SourceGraphic" in2="blurOut3" mode="normal"/></filter></defs><g><!--MD5=[59b530d44ae785dc18db921986a9c15c]
class Document--><rect codeLine="4" fill="#FEFECE" filter="url(#f1g1pyyd2ylirh)" height="89.5078" id="Document" style="stroke:#A80036;stroke-width:1.5;" width="116" x="445" y="115"/><ellipse cx="472.15" cy="131" fill="#ADD1B2" rx="11" ry="11" style="stroke:#A80036;stroke-width:1.0;"/><path d="M474.9156,126.875 Q475.0719,126.6563 475.2594,126.5469 Q475.4469,126.4375 475.6656,126.4375 Q476.0406,126.4375 476.275,126.6953 Q476.5094,126.9531 476.5094,127.5625 L476.5094,129.0156 Q476.5094,129.625 476.275,129.8906 Q476.0406,130.1563 475.6656,130.1563 Q475.3219,130.1563 475.1188,129.9531 Q474.9156,129.7656 474.8063,129.25 Q474.7594,128.8906 474.5719,128.7031 Q474.2438,128.3281 473.6344,128.1094 Q473.025,127.8906 472.4,127.8906 Q471.6344,127.8906 471.0016,128.2188 Q470.3688,128.5469 469.8766,129.2969 Q469.3844,130.0469 469.3844,131.0781 L469.3844,132.1719 Q469.3844,133.4063 470.275,134.2266 Q471.1656,135.0469 472.7594,135.0469 Q473.6969,135.0469 474.3531,134.7969 Q474.7438,134.6406 475.1656,134.2031 Q475.4313,133.9375 475.5797,133.8594 Q475.7281,133.7813 475.9313,133.7813 Q476.2594,133.7813 476.5172,134.0391 Q476.775,134.2969 476.775,134.6406 Q476.775,134.9844 476.4313,135.3906 Q475.9313,135.9688 475.1344,136.2969 Q474.0563,136.75 472.7594,136.75 Q471.2438,136.75 470.0406,136.125 Q469.0563,135.625 468.3688,134.5547 Q467.6813,133.4844 467.6813,132.2031 L467.6813,131.0469 Q467.6813,129.7188 468.2984,128.5703 Q468.9156,127.4219 470.0094,126.8047 Q471.1031,126.1875 472.3375,126.1875 Q473.0719,126.1875 473.7203,126.3516 Q474.3688,126.5156 474.9156,126.875 Z " fill="#000000"/><text fill="#000000" font-family="sans-serif" font-size="12" lengthAdjust="spacing" textLength="57" x="488.85" y="135.9102">Document</text><line style="stroke:#A80036;stroke-width:1.5;" x1="446" x2="560" y1="147" y2="147"/><text fill="#000000" font-family="sans-serif" font-size="11" lengthAdjust="spacing" textLength="104" x="451" y="162.4189">Multilingual_String title</text><text fill="#000000" font-family="sans-serif" font-size="11" lengthAdjust="spacing" textLength="98" x="451" y="176.2549">Date publicationDate</text><text fill="#000000" font-family="sans-serif" font-size="11" lengthAdjust="spacing" textLength="67" x="451" y="190.0908">DOI_Type DOI</text><line style="stroke:#A80036;stroke-width:1.5;" x1="446" x2="560" y1="196.5078" y2="196.5078"/><!--MD5=[b821bb113f9f55c728f1fbb8949cc3af]
class Contributorship--><rect codeLine="34" fill="#FEFECE" filter="url(#f1g1pyyd2ylirh)" height="75.6719" id="Contributorship" style="stroke:#A80036;stroke-width:1.5;" width="117" x="292.5" y="122"/><ellipse cx="307.5" cy="138" fill="#ADD1B2" rx="11" ry="11" style="stroke:#A80036;stroke-width:1.0;"/><path d="M310.2656,133.875 Q310.4219,133.6563 310.6094,133.5469 Q310.7969,133.4375 311.0156,133.4375 Q311.3906,133.4375 311.625,133.6953 Q311.8594,133.9531 311.8594,134.5625 L311.8594,136.0156 Q311.8594,136.625 311.625,136.8906 Q311.3906,137.1563 311.0156,137.1563 Q310.6719,137.1563 310.4688,136.9531 Q310.2656,136.7656 310.1563,136.25 Q310.1094,135.8906 309.9219,135.7031 Q309.5938,135.3281 308.9844,135.1094 Q308.375,134.8906 307.75,134.8906 Q306.9844,134.8906 306.3516,135.2188 Q305.7188,135.5469 305.2266,136.2969 Q304.7344,137.0469 304.7344,138.0781 L304.7344,139.1719 Q304.7344,140.4063 305.625,141.2266 Q306.5156,142.0469 308.1094,142.0469 Q309.0469,142.0469 309.7031,141.7969 Q310.0938,141.6406 310.5156,141.2031 Q310.7813,140.9375 310.9297,140.8594 Q311.0781,140.7813 311.2813,140.7813 Q311.6094,140.7813 311.8672,141.0391 Q312.125,141.2969 312.125,141.6406 Q312.125,141.9844 311.7813,142.3906 Q311.2813,142.9688 310.4844,143.2969 Q309.4063,143.75 308.1094,143.75 Q306.5938,143.75 305.3906,143.125 Q304.4063,142.625 303.7188,141.5547 Q303.0313,140.4844 303.0313,139.2031 L303.0313,138.0469 Q303.0313,136.7188 303.6484,135.5703 Q304.2656,134.4219 305.3594,133.8047 Q306.4531,133.1875 307.6875,133.1875 Q308.4219,133.1875 309.0703,133.3516 Q309.7188,133.5156 310.2656,133.875 Z " fill="#000000"/><text fill="#000000" font-family="sans-serif" font-size="12" lengthAdjust="spacing" textLength="85" x="321.5" y="142.9102">Contributorship</text><line style="stroke:#A80036;stroke-width:1.5;" x1="293.5" x2="408.5" y1="154" y2="154"/><text fill="#000000" font-family="sans-serif" font-size="11" lengthAdjust="spacing" textLength="90" x="298.5" y="169.4189">List&lt;URI&gt; contacts</text><text fill="#000000" font-family="sans-serif" font-size="11" lengthAdjust="spacing" textLength="92" x="298.5" y="183.2549">String displayName</text><line style="stroke:#A80036;stroke-width:1.5;" x1="293.5" x2="408.5" y1="189.6719" y2="189.6719"/><!--MD5=[f8f29aeb30962b8f0c17f3bed64bd579]
class Contribution Statement--><rect codeLine="38" fill="#FEFECE" filter="url(#f1g1pyyd2ylirh)" height="48" id="Contribution Statement" style="stroke:#A80036;stroke-width:1.5;" width="158" x="138" y="7"/><ellipse cx="153" cy="23" fill="#ADD1B2" rx="11" ry="11" style="stroke:#A80036;stroke-width:1.0;"/><path d="M155.7656,18.875 Q155.9219,18.6563 156.1094,18.5469 Q156.2969,18.4375 156.5156,18.4375 Q156.8906,18.4375 157.125,18.6953 Q157.3594,18.9531 157.3594,19.5625 L157.3594,21.0156 Q157.3594,21.625 157.125,21.8906 Q156.8906,22.1563 156.5156,22.1563 Q156.1719,22.1563 155.9688,21.9531 Q155.7656,21.7656 155.6563,21.25 Q155.6094,20.8906 155.4219,20.7031 Q155.0938,20.3281 154.4844,20.1094 Q153.875,19.8906 153.25,19.8906 Q152.4844,19.8906 151.8516,20.2188 Q151.2188,20.5469 150.7266,21.2969 Q150.2344,22.0469 150.2344,23.0781 L150.2344,24.1719 Q150.2344,25.4063 151.125,26.2266 Q152.0156,27.0469 153.6094,27.0469 Q154.5469,27.0469 155.2031,26.7969 Q155.5938,26.6406 156.0156,26.2031 Q156.2813,25.9375 156.4297,25.8594 Q156.5781,25.7813 156.7813,25.7813 Q157.1094,25.7813 157.3672,26.0391 Q157.625,26.2969 157.625,26.6406 Q157.625,26.9844 157.2813,27.3906 Q156.7813,27.9688 155.9844,28.2969 Q154.9063,28.75 153.6094,28.75 Q152.0938,28.75 150.8906,28.125 Q149.9063,27.625 149.2188,26.5547 Q148.5313,25.4844 148.5313,24.2031 L148.5313,23.0469 Q148.5313,21.7188 149.1484,20.5703 Q149.7656,19.4219 150.8594,18.8047 Q151.9531,18.1875 153.1875,18.1875 Q153.9219,18.1875 154.5703,18.3516 Q155.2188,18.5156 155.7656,18.875 Z " fill="#000000"/><text fill="#000000" font-family="sans-serif" font-size="12" lengthAdjust="spacing" textLength="126" x="167" y="27.9102">Contribution Statement</text><line style="stroke:#A80036;stroke-width:1.5;" x1="139" x2="295" y1="39" y2="39"/><line style="stroke:#A80036;stroke-width:1.5;" x1="139" x2="295" y1="47" y2="47"/><!--MD5=[3f6954d26e8fa8feef64f8ba628c4304]
class Free Text Contribution--><rect codeLine="40" fill="#FEFECE" filter="url(#f1g1pyyd2ylirh)" height="61.8359" id="Free Text Contribution" style="stroke:#A80036;stroke-width:1.5;" width="152" x="7" y="129"/><ellipse cx="22" cy="145" fill="#ADD1B2" rx="11" ry="11" style="stroke:#A80036;stroke-width:1.0;"/><path d="M24.7656,140.875 Q24.9219,140.6563 25.1094,140.5469 Q25.2969,140.4375 25.5156,140.4375 Q25.8906,140.4375 26.125,140.6953 Q26.3594,140.9531 26.3594,141.5625 L26.3594,143.0156 Q26.3594,143.625 26.125,143.8906 Q25.8906,144.1563 25.5156,144.1563 Q25.1719,144.1563 24.9688,143.9531 Q24.7656,143.7656 24.6563,143.25 Q24.6094,142.8906 24.4219,142.7031 Q24.0938,142.3281 23.4844,142.1094 Q22.875,141.8906 22.25,141.8906 Q21.4844,141.8906 20.8516,142.2188 Q20.2188,142.5469 19.7266,143.2969 Q19.2344,144.0469 19.2344,145.0781 L19.2344,146.1719 Q19.2344,147.4063 20.125,148.2266 Q21.0156,149.0469 22.6094,149.0469 Q23.5469,149.0469 24.2031,148.7969 Q24.5938,148.6406 25.0156,148.2031 Q25.2813,147.9375 25.4297,147.8594 Q25.5781,147.7813 25.7813,147.7813 Q26.1094,147.7813 26.3672,148.0391 Q26.625,148.2969 26.625,148.6406 Q26.625,148.9844 26.2813,149.3906 Q25.7813,149.9688 24.9844,150.2969 Q23.9063,150.75 22.6094,150.75 Q21.0938,150.75 19.8906,150.125 Q18.9063,149.625 18.2188,148.5547 Q17.5313,147.4844 17.5313,146.2031 L17.5313,145.0469 Q17.5313,143.7188 18.1484,142.5703 Q18.7656,141.4219 19.8594,140.8047 Q20.9531,140.1875 22.1875,140.1875 Q22.9219,140.1875 23.5703,140.3516 Q24.2188,140.5156 24.7656,140.875 Z " fill="#000000"/><text fill="#000000" font-family="sans-serif" font-size="12" lengthAdjust="spacing" textLength="120" x="36" y="149.9102">Free Text Contribution</text><line style="stroke:#A80036;stroke-width:1.5;" x1="8" x2="158" y1="161" y2="161"/><text fill="#000000" font-family="sans-serif" font-size="11" lengthAdjust="spacing" textLength="135" x="13" y="176.4189">Multilingual_String statement</text><line style="stroke:#A80036;stroke-width:1.5;" x1="8" x2="158" y1="182.8359" y2="182.8359"/><!--MD5=[819e4821c75d866d91a46af0ea8026f8]
class Affiliation Statement--><rect codeLine="43" fill="#FEFECE" filter="url(#f1g1pyyd2ylirh)" height="61.8359" id="Affiliation Statement" style="stroke:#A80036;stroke-width:1.5;" width="140" x="281" y="265"/><ellipse cx="296" cy="281" fill="#ADD1B2" rx="11" ry="11" style="stroke:#A80036;stroke-width:1.0;"/><path d="M298.7656,276.875 Q298.9219,276.6563 299.1094,276.5469 Q299.2969,276.4375 299.5156,276.4375 Q299.8906,276.4375 300.125,276.6953 Q300.3594,276.9531 300.3594,277.5625 L300.3594,279.0156 Q300.3594,279.625 300.125,279.8906 Q299.8906,280.1563 299.5156,280.1563 Q299.1719,280.1563 298.9688,279.9531 Q298.7656,279.7656 298.6563,279.25 Q298.6094,278.8906 298.4219,278.7031 Q298.0938,278.3281 297.4844,278.1094 Q296.875,277.8906 296.25,277.8906 Q295.4844,277.8906 294.8516,278.2188 Q294.2188,278.5469 293.7266,279.2969 Q293.2344,280.0469 293.2344,281.0781 L293.2344,282.1719 Q293.2344,283.4063 294.125,284.2266 Q295.0156,285.0469 296.6094,285.0469 Q297.5469,285.0469 298.2031,284.7969 Q298.5938,284.6406 299.0156,284.2031 Q299.2813,283.9375 299.4297,283.8594 Q299.5781,283.7813 299.7813,283.7813 Q300.1094,283.7813 300.3672,284.0391 Q300.625,284.2969 300.625,284.6406 Q300.625,284.9844 300.2813,285.3906 Q299.7813,285.9688 298.9844,286.2969 Q297.9063,286.75 296.6094,286.75 Q295.0938,286.75 293.8906,286.125 Q292.9063,285.625 292.2188,284.5547 Q291.5313,283.4844 291.5313,282.2031 L291.5313,281.0469 Q291.5313,279.7188 292.1484,278.5703 Q292.7656,277.4219 293.8594,276.8047 Q294.9531,276.1875 296.1875,276.1875 Q296.9219,276.1875 297.5703,276.3516 Q298.2188,276.5156 298.7656,276.875 Z " fill="#000000"/><text fill="#000000" font-family="sans-serif" font-size="12" lengthAdjust="spacing" textLength="108" x="310" y="285.9102">Affiliation Statement</text><line style="stroke:#A80036;stroke-width:1.5;" x1="282" x2="420" y1="297" y2="297"/><text fill="#000000" font-family="sans-serif" font-size="11" lengthAdjust="spacing" textLength="110" x="287" y="312.4189">String displayAffiliation</text><line style="stroke:#A80036;stroke-width:1.5;" x1="282" x2="420" y1="318.8359" y2="318.8359"/><!--MD5=[5b6d5f043b17cf3ce8a453f9008bb166]
class Postal Address--><rect codeLine="46" fill="#FEFECE" filter="url(#f1g1pyyd2ylirh)" height="89.5078" id="Postal Address" style="stroke:#A80036;stroke-width:1.5;" width="116" x="136" y="387"/><ellipse cx="151" cy="403" fill="#ADD1B2" rx="11" ry="11" style="stroke:#A80036;stroke-width:1.0;"/><path d="M153.7656,398.875 Q153.9219,398.6563 154.1094,398.5469 Q154.2969,398.4375 154.5156,398.4375 Q154.8906,398.4375 155.125,398.6953 Q155.3594,398.9531 155.3594,399.5625 L155.3594,401.0156 Q155.3594,401.625 155.125,401.8906 Q154.8906,402.1563 154.5156,402.1563 Q154.1719,402.1563 153.9688,401.9531 Q153.7656,401.7656 153.6563,401.25 Q153.6094,400.8906 153.4219,400.7031 Q153.0938,400.3281 152.4844,400.1094 Q151.875,399.8906 151.25,399.8906 Q150.4844,399.8906 149.8516,400.2188 Q149.2188,400.5469 148.7266,401.2969 Q148.2344,402.0469 148.2344,403.0781 L148.2344,404.1719 Q148.2344,405.4063 149.125,406.2266 Q150.0156,407.0469 151.6094,407.0469 Q152.5469,407.0469 153.2031,406.7969 Q153.5938,406.6406 154.0156,406.2031 Q154.2813,405.9375 154.4297,405.8594 Q154.5781,405.7813 154.7813,405.7813 Q155.1094,405.7813 155.3672,406.0391 Q155.625,406.2969 155.625,406.6406 Q155.625,406.9844 155.2813,407.3906 Q154.7813,407.9688 153.9844,408.2969 Q152.9063,408.75 151.6094,408.75 Q150.0938,408.75 148.8906,408.125 Q147.9063,407.625 147.2188,406.5547 Q146.5313,405.4844 146.5313,404.2031 L146.5313,403.0469 Q146.5313,401.7188 147.1484,400.5703 Q147.7656,399.4219 148.8594,398.8047 Q149.9531,398.1875 151.1875,398.1875 Q151.9219,398.1875 152.5703,398.3516 Q153.2188,398.5156 153.7656,398.875 Z " fill="#000000"/><text fill="#000000" font-family="sans-serif" font-size="12" lengthAdjust="spacing" textLength="84" x="165" y="407.9102">Postal Address</text><line style="stroke:#A80036;stroke-width:1.5;" x1="137" x2="251" y1="419" y2="419"/><text fill="#000000" font-family="sans-serif" font-size="11" lengthAdjust="spacing" textLength="59" x="142" y="434.4189">String street</text><text fill="#000000" font-family="sans-serif" font-size="11" lengthAdjust="spacing" textLength="48" x="142" y="448.2549">String city</text><text fill="#000000" font-family="sans-serif" font-size="11" lengthAdjust="spacing" textLength="70" x="142" y="462.0908">String zipCode</text><line style="stroke:#A80036;stroke-width:1.5;" x1="137" x2="251" y1="468.5078" y2="468.5078"/><!--MD5=[deb4e1f6eb1e3c1256fdb830f96abfbb]
class Country--><rect codeLine="51" fill="#FEFECE" filter="url(#f1g1pyyd2ylirh)" height="103.3438" id="Country" style="stroke:#A80036;stroke-width:1.5;" width="234" x="77" y="537"/><ellipse cx="168.75" cy="553" fill="#ADD1B2" rx="11" ry="11" style="stroke:#A80036;stroke-width:1.0;"/><path d="M171.5156,548.875 Q171.6719,548.6563 171.8594,548.5469 Q172.0469,548.4375 172.2656,548.4375 Q172.6406,548.4375 172.875,548.6953 Q173.1094,548.9531 173.1094,549.5625 L173.1094,551.0156 Q173.1094,551.625 172.875,551.8906 Q172.6406,552.1563 172.2656,552.1563 Q171.9219,552.1563 171.7188,551.9531 Q171.5156,551.7656 171.4063,551.25 Q171.3594,550.8906 171.1719,550.7031 Q170.8438,550.3281 170.2344,550.1094 Q169.625,549.8906 169,549.8906 Q168.2344,549.8906 167.6016,550.2188 Q166.9688,550.5469 166.4766,551.2969 Q165.9844,552.0469 165.9844,553.0781 L165.9844,554.1719 Q165.9844,555.4063 166.875,556.2266 Q167.7656,557.0469 169.3594,557.0469 Q170.2969,557.0469 170.9531,556.7969 Q171.3438,556.6406 171.7656,556.2031 Q172.0313,555.9375 172.1797,555.8594 Q172.3281,555.7813 172.5313,555.7813 Q172.8594,555.7813 173.1172,556.0391 Q173.375,556.2969 173.375,556.6406 Q173.375,556.9844 173.0313,557.3906 Q172.5313,557.9688 171.7344,558.2969 Q170.6563,558.75 169.3594,558.75 Q167.8438,558.75 166.6406,558.125 Q165.6563,557.625 164.9688,556.5547 Q164.2813,555.4844 164.2813,554.2031 L164.2813,553.0469 Q164.2813,551.7188 164.8984,550.5703 Q165.5156,549.4219 166.6094,548.8047 Q167.7031,548.1875 168.9375,548.1875 Q169.6719,548.1875 170.3203,548.3516 Q170.9688,548.5156 171.5156,548.875 Z " fill="#000000"/><text fill="#000000" font-family="sans-serif" font-size="12" lengthAdjust="spacing" textLength="42" x="189.25" y="557.9102">Country</text><line style="stroke:#A80036;stroke-width:1.5;" x1="78" x2="310" y1="569" y2="569"/><text fill="#000000" font-family="sans-serif" font-size="11" lengthAdjust="spacing" textLength="114" x="83" y="584.4189">Multilingual_String name</text><text fill="#000000" font-family="sans-serif" font-size="11" lengthAdjust="spacing" textLength="198" x="83" y="598.2549">ISO3166_Alpha_Code iso3166alphaCode</text><text fill="#000000" font-family="sans-serif" font-size="11" lengthAdjust="spacing" textLength="222" x="83" y="612.0908">ISO3166_Numeric_Code iso3166NumericCode</text><text fill="#000000" font-family="sans-serif" font-size="11" lengthAdjust="spacing" textLength="166" x="83" y="625.9268">EU_Country_Code euCountryCode</text><line style="stroke:#A80036;stroke-width:1.5;" x1="78" x2="310" y1="632.3438" y2="632.3438"/><!--MD5=[fd289f43f02ef8bd75c20da9b3dee237]
class Organisation Unit--><rect fill="#FEFECE" filter="url(#f1g1pyyd2ylirh)" height="48" id="Organisation Unit" style="stroke:#A80036;stroke-width:1.5;" width="128" x="287" y="408"/><ellipse cx="302" cy="424" fill="#ADD1B2" rx="11" ry="11" style="stroke:#A80036;stroke-width:1.0;"/><path d="M304.7656,419.875 Q304.9219,419.6563 305.1094,419.5469 Q305.2969,419.4375 305.5156,419.4375 Q305.8906,419.4375 306.125,419.6953 Q306.3594,419.9531 306.3594,420.5625 L306.3594,422.0156 Q306.3594,422.625 306.125,422.8906 Q305.8906,423.1563 305.5156,423.1563 Q305.1719,423.1563 304.9688,422.9531 Q304.7656,422.7656 304.6563,422.25 Q304.6094,421.8906 304.4219,421.7031 Q304.0938,421.3281 303.4844,421.1094 Q302.875,420.8906 302.25,420.8906 Q301.4844,420.8906 300.8516,421.2188 Q300.2188,421.5469 299.7266,422.2969 Q299.2344,423.0469 299.2344,424.0781 L299.2344,425.1719 Q299.2344,426.4063 300.125,427.2266 Q301.0156,428.0469 302.6094,428.0469 Q303.5469,428.0469 304.2031,427.7969 Q304.5938,427.6406 305.0156,427.2031 Q305.2813,426.9375 305.4297,426.8594 Q305.5781,426.7813 305.7813,426.7813 Q306.1094,426.7813 306.3672,427.0391 Q306.625,427.2969 306.625,427.6406 Q306.625,427.9844 306.2813,428.3906 Q305.7813,428.9688 304.9844,429.2969 Q303.9063,429.75 302.6094,429.75 Q301.0938,429.75 299.8906,429.125 Q298.9063,428.625 298.2188,427.5547 Q297.5313,426.4844 297.5313,425.2031 L297.5313,424.0469 Q297.5313,422.7188 298.1484,421.5703 Q298.7656,420.4219 299.8594,419.8047 Q300.9531,419.1875 302.1875,419.1875 Q302.9219,419.1875 303.5703,419.3516 Q304.2188,419.5156 304.7656,419.875 Z " fill="#000000"/><text fill="#000000" font-family="sans-serif" font-size="12" lengthAdjust="spacing" textLength="96" x="316" y="428.9102">Organisation Unit</text><line style="stroke:#A80036;stroke-width:1.5;" x1="288" x2="414" y1="440" y2="440"/><line style="stroke:#A80036;stroke-width:1.5;" x1="288" x2="414" y1="448" y2="448"/><!--MD5=[9d44916250b776386006c440668bcfbb]
class Agent--><rect fill="#FEFECE" filter="url(#f1g1pyyd2ylirh)" height="48" id="Agent" style="stroke:#A80036;stroke-width:1.5;" width="63" x="194.5" y="136"/><ellipse cx="209.5" cy="152" fill="#ADD1B2" rx="11" ry="11" style="stroke:#A80036;stroke-width:1.0;"/><path d="M212.2656,147.875 Q212.4219,147.6563 212.6094,147.5469 Q212.7969,147.4375 213.0156,147.4375 Q213.3906,147.4375 213.625,147.6953 Q213.8594,147.9531 213.8594,148.5625 L213.8594,150.0156 Q213.8594,150.625 213.625,150.8906 Q213.3906,151.1563 213.0156,151.1563 Q212.6719,151.1563 212.4688,150.9531 Q212.2656,150.7656 212.1563,150.25 Q212.1094,149.8906 211.9219,149.7031 Q211.5938,149.3281 210.9844,149.1094 Q210.375,148.8906 209.75,148.8906 Q208.9844,148.8906 208.3516,149.2188 Q207.7188,149.5469 207.2266,150.2969 Q206.7344,151.0469 206.7344,152.0781 L206.7344,153.1719 Q206.7344,154.4063 207.625,155.2266 Q208.5156,156.0469 210.1094,156.0469 Q211.0469,156.0469 211.7031,155.7969 Q212.0938,155.6406 212.5156,155.2031 Q212.7813,154.9375 212.9297,154.8594 Q213.0781,154.7813 213.2813,154.7813 Q213.6094,154.7813 213.8672,155.0391 Q214.125,155.2969 214.125,155.6406 Q214.125,155.9844 213.7813,156.3906 Q213.2813,156.9688 212.4844,157.2969 Q211.4063,157.75 210.1094,157.75 Q208.5938,157.75 207.3906,157.125 Q206.4063,156.625 205.7188,155.5547 Q205.0313,154.4844 205.0313,153.2031 L205.0313,152.0469 Q205.0313,150.7188 205.6484,149.5703 Q206.2656,148.4219 207.3594,147.8047 Q208.4531,147.1875 209.6875,147.1875 Q210.4219,147.1875 211.0703,147.3516 Q211.7188,147.5156 212.2656,147.875 Z " fill="#000000"/><text fill="#000000" font-family="sans-serif" font-size="12" lengthAdjust="spacing" textLength="31" x="223.5" y="156.9102">Agent</text><line style="stroke:#A80036;stroke-width:1.5;" x1="195.5" x2="256.5" y1="168" y2="168"/><line style="stroke:#A80036;stroke-width:1.5;" x1="195.5" x2="256.5" y1="176" y2="176"/><!--MD5=[f88c115e3130e3b4ff5649ba9e133055]
reverse link Postal Address to Country--><path codeLine="60" d="M194,490.36 C194,505.65 194,522.06 194,536.96 " fill="none" id="Postal Address-backto-Country" style="stroke:#A80036;stroke-width:1.0;"/><polygon fill="#A80036" points="194,477.27,190,483.27,194,489.27,198,483.27,194,477.27" style="stroke:#A80036;stroke-width:1.0;"/><text fill="#000000" font-family="sans-serif" font-size="13" lengthAdjust="spacing" textLength="43" x="147.9766" y="526.0829">country</text><!--MD5=[8528c0d5784524a7ac31969edc457096]
reverse link Affiliation Statement to Postal Address--><path codeLine="61" d="M305.72,335.65 C286.99,351.64 265.17,370.26 245.81,386.78 " fill="none" id="Affiliation Statement-backto-Postal Address" style="stroke:#A80036;stroke-width:1.0;"/><polygon fill="#A80036" points="315.77,327.07,308.6098,327.9249,306.645,334.8632,313.8052,334.0083,315.77,327.07" style="stroke:#A80036;stroke-width:1.0;"/><text fill="#000000" font-family="sans-serif" font-size="13" lengthAdjust="spacing" textLength="83" x="164.3887" y="376.1904">postalAddress</text><!--MD5=[4904fd3a26b4d7fe956968cf0a0d8a9b]
reverse link Affiliation Statement to Organisation Unit--><path codeLine="62" d="M339,340.06 C337.53,362.51 338.22,389.09 341.06,407.69 " fill="none" id="Affiliation Statement-backto-Organisation Unit" style="stroke:#A80036;stroke-width:1.0;"/><polygon fill="#A80036" points="340.16,327.07,335.6483,332.6953,339.1057,339.0236,343.6174,333.3982,340.16,327.07" style="stroke:#A80036;stroke-width:1.0;"/><text fill="#000000" font-family="sans-serif" font-size="13" lengthAdjust="spacing" textLength="41" x="292.2598" y="396.9507">orgUnit</text><!--MD5=[4904fd3a26b4d7fe956968cf0a0d8a9b]
reverse link Affiliation Statement to Organisation Unit--><path codeLine="63" d="M363.7,340.06 C365.26,362.51 364.54,389.09 361.53,407.69 " fill="none" id="Affiliation Statement-backto-Organisation Unit-1" style="stroke:#A80036;stroke-width:1.0;"/><polygon fill="#A80036" points="362.48,327.07,359.0579,333.4174,363.6009,339.0175,367.023,332.6701,362.48,327.07" style="stroke:#A80036;stroke-width:1.0;"/><text fill="#000000" font-family="sans-serif" font-size="13" lengthAdjust="spacing" textLength="56" x="371.4033" y="396.9507">institution</text><!--MD5=[1e703325bca9787769503a051e7183a5]
reverse link Contribution Statement to Free Text Contribution--><path codeLine="64" d="M177.77,69.18 C157.8,88.11 133.84,110.81 115.01,128.66 " fill="none" id="Contribution Statement-backto-Free Text Contribution" style="stroke:#A80036;stroke-width:1.0;"/><polygon fill="none" points="173.09,63.97,192.42,55.29,182.72,74.13,173.09,63.97" style="stroke:#A80036;stroke-width:1.0;"/><!--MD5=[1f014480a3afa8c0325c3be3fbf7ad6f]
link Contributorship to Document--><path codeLine="65" d="M409.78,160 C417.06,160 424.35,160 431.63,160 " fill="none" id="Contributorship-to-Document" style="stroke:#A80036;stroke-width:1.0;"/><polygon fill="#A80036" points="444.74,160,438.74,156,432.74,160,438.74,164,444.74,160" style="stroke:#A80036;stroke-width:1.0;"/><!--MD5=[504de05de5dc33320621ff1be2e6e6ff]
reverse link Agent to Contributorship--><path codeLine="66" d="M270.99,160 C278.11,160 285.23,160 292.35,160 " fill="none" id="Agent-backto-Contributorship" style="stroke:#A80036;stroke-width:1.0;"/><polygon fill="#A80036" points="257.74,160,263.74,164,269.74,160,263.74,156,257.74,160" style="stroke:#A80036;stroke-width:1.0;"/><!--MD5=[4629ab2f8b8cc60994d50cb24184a136]
reverse link Contributorship to Affiliation Statement--><path codeLine="67" d="M351,211.57 C351,229.44 351,248.97 351,264.64 " fill="none" id="Contributorship-backto-Affiliation Statement" style="stroke:#A80036;stroke-width:1.0;"/><polygon fill="#FFFFFF" points="351,198.33,347,204.33,351,210.33,355,204.33,351,198.33" style="stroke:#A80036;stroke-width:1.0;"/><text fill="#000000" font-family="sans-serif" font-size="13" lengthAdjust="spacing" textLength="57" x="288.1219" y="254.0703">affiliations</text><!--MD5=[87dce73954b4196bb1c032bbee886bf4]
link Contribution Statement to Contributorship--><path codeLine="68" d="M241.58,55.29 C258.54,71.37 281.66,93.28 302.27,112.82 " fill="none" id="Contribution Statement-to-Contributorship" style="stroke:#A80036;stroke-width:1.0;"/><polygon fill="#FFFFFF" points="311.85,121.89,310.2494,114.8588,303.1434,113.6319,304.744,120.6632,311.85,121.89" style="stroke:#A80036;stroke-width:1.0;"/><text fill="#000000" font-family="sans-serif" font-size="13" lengthAdjust="spacing" textLength="134" x="97.7704" y="76.2928">contributionStatements</text><!--MD5=[436c1cf014f5227f491515b583104c38]
@startuml
    !includesub ./core.puml!Contributorship

@enduml

@startuml
    class "Document"{
        Multilingual_String title
        Date publicationDate
        DOI_Type DOI
    }
    class "Contributorship"{
        List<URI> contacts
        String displayName
    }
    class "Contribution Statement"{
    }
    class "Free Text Contribution"{
        Multilingual_String statement
    }
    class "Affiliation Statement"{
        String displayAffiliation
    }
    class "Postal Address"{
        String street
        String city
        String zipCode
    }
    class "Country"{
        Multilingual_String name
        ISO3166_Alpha_Code iso3166alphaCode
        ISO3166_Numeric_Code iso3166NumericCode
        EU_Country_Code euCountryCode
    }
"Postal Address" *- - "country" "Country"
"Affiliation Statement" *- - "postalAddress" "Postal Address"
"Affiliation Statement" *- - "orgUnit" "Organisation Unit"
"Affiliation Statement" *- - "institution" "Organisation Unit"
"Contribution Statement" <|- - "Free Text Contribution"
"Contributorship" -r-* "Document"
"Contributorship" -l-* "Agent"
"Contributorship" o- - "affiliations" "Affiliation Statement"
"Contributorship" o-u- "contributionStatements" "Contribution Statement"

@enduml

PlantUML version 1.2021.8(Sat Jun 26 10:20:59 CEST 2021)
(GPL source distribution)
Java Runtime: Java(TM) SE Runtime Environment
JVM: Java HotSpot(TM) 64-Bit Server VM
Default Encoding: Cp1252
Language: en
Country: US
--></g></svg>