<?xml version="1.0" encoding="UTF-8" standalone="no"?><svg xmlns="http://www.w3.org/2000/svg" xmlns:xlink="http://www.w3.org/1999/xlink" contentScriptType="application/ecmascript" contentStyleType="text/css" height="713px" preserveAspectRatio="none" style="width:696px;height:713px;background:#FFFFFF;" version="1.1" viewBox="0 0 696 713" width="696px" zoomAndPan="magnify"><defs><filter height="300%" id="fd1s9ag5srjso" width="300%" x="-1" y="-1"><feGaussianBlur result="blurOut" stdDeviation="2.0"/><feColorMatrix in="blurOut" result="blurOut2" type="matrix" values="0 0 0 0 0 0 0 0 0 0 0 0 0 0 0 0 0 0 .4 0"/><feOffset dx="4.0" dy="4.0" in="blurOut2" result="blurOut3"/><feBlend in="SourceGraphic" in2="blurOut3" mode="normal"/></filter></defs><g><!--MD5=[9d44916250b776386006c440668bcfbb]
class Agent--><rect codeLine="19" fill="#FEFECE" filter="url(#fd1s9ag5srjso)" height="32" id="Agent" style="stroke:#A80036;stroke-width:1.5;" width="65" x="139" y="30.5"/><ellipse cx="154" cy="46.5" fill="#ADD1B2" rx="11" ry="11" style="stroke:#A80036;stroke-width:1.0;"/><path d="M156.4731,52.6431 Q155.8921,52.9419 155.2529,53.0913 Q154.6138,53.2407 153.9082,53.2407 Q151.4014,53.2407 150.0815,51.5889 Q148.7617,49.937 148.7617,46.8159 Q148.7617,43.6865 150.0815,42.0347 Q151.4014,40.3828 153.9082,40.3828 Q154.6138,40.3828 155.2612,40.5322 Q155.9087,40.6816 156.4731,40.9805 L156.4731,43.7031 Q155.8423,43.1221 155.2488,42.8523 Q154.6553,42.5825 154.0244,42.5825 Q152.6797,42.5825 151.9949,43.6492 Q151.3101,44.7158 151.3101,46.8159 Q151.3101,48.9077 151.9949,49.9744 Q152.6797,51.041 154.0244,51.041 Q154.6553,51.041 155.2488,50.7712 Q155.8423,50.5015 156.4731,49.9204 Z " fill="#000000"/><text fill="#000000" font-family="sans-serif" font-size="12" lengthAdjust="spacing" textLength="33" x="168" y="51.0352">Agent</text><!--MD5=[779f3743e425ed8a6f0bf188ddea4860]
class Organisation_Unit--><rect codeLine="22" fill="#FEFECE" filter="url(#fd1s9ag5srjso)" height="117.7305" id="Organisation_Unit" style="stroke:#A80036;stroke-width:1.5;" width="150" x="198.5" y="272"/><ellipse cx="221.6" cy="288" fill="#ADD1B2" rx="11" ry="11" style="stroke:#A80036;stroke-width:1.0;"/><path d="M224.0731,294.1431 Q223.4921,294.4419 222.8529,294.5913 Q222.2138,294.7407 221.5082,294.7407 Q219.0014,294.7407 217.6815,293.0889 Q216.3617,291.437 216.3617,288.3159 Q216.3617,285.1865 217.6815,283.5347 Q219.0014,281.8828 221.5082,281.8828 Q222.2138,281.8828 222.8612,282.0322 Q223.5087,282.1816 224.0731,282.4805 L224.0731,285.2031 Q223.4423,284.6221 222.8488,284.3523 Q222.2553,284.0825 221.6244,284.0825 Q220.2797,284.0825 219.5949,285.1492 Q218.9101,286.2158 218.9101,288.3159 Q218.9101,290.4077 219.5949,291.4744 Q220.2797,292.541 221.6244,292.541 Q222.2553,292.541 222.8488,292.2712 Q223.4423,292.0015 224.0731,291.4204 Z " fill="#000000"/><text fill="#000000" font-family="sans-serif" font-size="12" lengthAdjust="spacing" textLength="100" x="237.4" y="292.5352">Organisation_Unit</text><line style="stroke:#A80036;stroke-width:1.5;" x1="199.5" x2="347.5" y1="304" y2="304"/><text fill="#000000" font-family="sans-serif" font-size="11" lengthAdjust="spacing" textLength="138" x="204.5" y="318.6348">name : Multilingual_String</text><text fill="#000000" font-family="sans-serif" font-size="11" lengthAdjust="spacing" textLength="88" x="204.5" y="331.5898">acronym : String</text><text fill="#000000" font-family="sans-serif" font-size="11" lengthAdjust="spacing" textLength="135" x="204.5" y="344.5449">address : Postal_Address</text><text fill="#000000" font-family="sans-serif" font-size="11" lengthAdjust="spacing" textLength="75" x="204.5" y="357.5">rorId : ROR_Id</text><text fill="#000000" font-family="sans-serif" font-size="11" lengthAdjust="spacing" textLength="91" x="204.5" y="370.4551">webSiteURL : URL</text><text fill="#000000" font-family="sans-serif" font-size="11" lengthAdjust="spacing" textLength="58" x="204.5" y="383.4102">email : URL</text><!--MD5=[09ce52be0ee7de43c61b6e2d59bf108b]
class Person--><rect codeLine="30" fill="#FEFECE" filter="url(#fd1s9ag5srjso)" height="65.9102" id="Person" style="stroke:#A80036;stroke-width:1.5;" width="123" x="40" y="298"/><ellipse cx="78.4" cy="314" fill="#ADD1B2" rx="11" ry="11" style="stroke:#A80036;stroke-width:1.0;"/><path d="M80.8731,320.1431 Q80.2921,320.4419 79.6529,320.5913 Q79.0138,320.7407 78.3082,320.7407 Q75.8014,320.7407 74.4815,319.0889 Q73.1617,317.437 73.1617,314.3159 Q73.1617,311.1865 74.4815,309.5347 Q75.8014,307.8828 78.3082,307.8828 Q79.0138,307.8828 79.6612,308.0322 Q80.3087,308.1816 80.8731,308.4805 L80.8731,311.2031 Q80.2423,310.6221 79.6488,310.3523 Q79.0553,310.0825 78.4244,310.0825 Q77.0797,310.0825 76.3949,311.1492 Q75.7101,312.2158 75.7101,314.3159 Q75.7101,316.4077 76.3949,317.4744 Q77.0797,318.541 78.4244,318.541 Q79.0553,318.541 79.6488,318.2712 Q80.2423,318.0015 80.8731,317.4204 Z " fill="#000000"/><text fill="#000000" font-family="sans-serif" font-size="12" lengthAdjust="spacing" textLength="39" x="97.6" y="318.5352">Person</text><line style="stroke:#A80036;stroke-width:1.5;" x1="41" x2="162" y1="330" y2="330"/><text fill="#000000" font-family="sans-serif" font-size="11" lengthAdjust="spacing" textLength="111" x="46" y="344.6348">name : Person_Name</text><text fill="#000000" font-family="sans-serif" font-size="11" lengthAdjust="spacing" textLength="99" x="46" y="357.5898">orcidId : ORCID_iD</text><!--MD5=[7b209ef07eb91b93e0aebc9fe4fb9a26]
class Person_Name--><rect codeLine="34" fill="#FEFECE" filter="url(#fd1s9ag5srjso)" height="85.1309" id="Person_Name" style="stroke:#A80036;stroke-width:1.5;" width="189" x="7" y="456.5"/><ellipse cx="57.75" cy="475.6328" fill="#FF7700" rx="11" ry="11" style="stroke:#A80036;stroke-width:1.0;"/><path d="M56.8359,471.9478 L56.8359,479.9248 L57.5,479.9248 Q58.9443,479.9248 59.5586,479.0159 Q60.1729,478.1069 60.1729,475.9238 Q60.1729,473.7573 59.5586,472.8525 Q58.9443,471.9478 57.5,471.9478 Z M54.3872,469.7397 L57.0103,469.7397 Q60.0483,469.7397 61.3848,471.1882 Q62.7212,472.6367 62.7212,475.9238 Q62.7212,479.2192 61.3848,480.676 Q60.0483,482.1328 57.0103,482.1328 L54.3872,482.1328 Z " fill="#000000"/><text fill="#000000" font-family="sans-serif" font-size="12" font-style="italic" lengthAdjust="spacing" textLength="68" x="83.75" y="473.1016">«DataType»</text><text fill="#000000" font-family="sans-serif" font-size="12" lengthAdjust="spacing" textLength="79" x="78.25" y="487.2344">Person_Name</text><line style="stroke:#A80036;stroke-width:1.5;" x1="8" x2="195" y1="494.7656" y2="494.7656"/><text fill="#000000" font-family="sans-serif" font-size="11" lengthAdjust="spacing" textLength="167" x="13" y="509.4004">firstNames : Multilingual_String</text><text fill="#000000" font-family="sans-serif" font-size="11" lengthAdjust="spacing" textLength="177" x="13" y="522.3555">familyNames : Multilingual_String</text><text fill="#000000" font-family="sans-serif" font-size="11" lengthAdjust="spacing" textLength="174" x="13" y="535.3105">otherNames : Multilingual_String</text><!--MD5=[fe1d14fe6d68ca7e76eb34268c62a1f3]
class Postal_Address--><rect codeLine="39" fill="#FEFECE" filter="url(#fd1s9ag5srjso)" height="98.0859" id="Postal_Address" style="stroke:#A80036;stroke-width:1.5;" width="165" x="275" y="450"/><ellipse cx="310.25" cy="469.1328" fill="#FF7700" rx="11" ry="11" style="stroke:#A80036;stroke-width:1.0;"/><path d="M309.3359,465.4478 L309.3359,473.4248 L310,473.4248 Q311.4443,473.4248 312.0586,472.5159 Q312.6729,471.6069 312.6729,469.4238 Q312.6729,467.2573 312.0586,466.3525 Q311.4443,465.4478 310,465.4478 Z M306.8872,463.2397 L309.5103,463.2397 Q312.5483,463.2397 313.8848,464.6882 Q315.2212,466.1367 315.2212,469.4238 Q315.2212,472.7192 313.8848,474.176 Q312.5483,475.6328 309.5103,475.6328 L306.8872,475.6328 Z " fill="#000000"/><text fill="#000000" font-family="sans-serif" font-size="12" font-style="italic" lengthAdjust="spacing" textLength="68" x="338.75" y="466.6016">«DataType»</text><text fill="#000000" font-family="sans-serif" font-size="12" lengthAdjust="spacing" textLength="88" x="328.75" y="480.7344">Postal_Address</text><line style="stroke:#A80036;stroke-width:1.5;" x1="276" x2="439" y1="488.2656" y2="488.2656"/><text fill="#000000" font-family="sans-serif" font-size="11" lengthAdjust="spacing" textLength="140" x="281" y="502.9004">street : Multilingual_String</text><text fill="#000000" font-family="sans-serif" font-size="11" lengthAdjust="spacing" textLength="128" x="281" y="515.8555">city : Multilingual_String</text><text fill="#000000" font-family="sans-serif" font-size="11" lengthAdjust="spacing" textLength="153" x="281" y="528.8105">zipCode : Multilingual_String</text><text fill="#000000" font-family="sans-serif" font-size="11" lengthAdjust="spacing" textLength="95" x="281" y="541.7656">country : Country</text><!--MD5=[deb4e1f6eb1e3c1256fdb830f96abfbb]
class Country--><rect codeLine="45" fill="#FEFECE" filter="url(#fd1s9ag5srjso)" height="91.8203" id="Country" style="stroke:#A80036;stroke-width:1.5;" width="269" x="223" y="608"/><ellipse cx="331.25" cy="624" fill="#ADD1B2" rx="11" ry="11" style="stroke:#A80036;stroke-width:1.0;"/><path d="M333.7231,630.1431 Q333.1421,630.4419 332.5029,630.5913 Q331.8638,630.7407 331.1582,630.7407 Q328.6514,630.7407 327.3315,629.0889 Q326.0117,627.437 326.0117,624.3159 Q326.0117,621.1865 327.3315,619.5347 Q328.6514,617.8828 331.1582,617.8828 Q331.8638,617.8828 332.5112,618.0322 Q333.1587,618.1816 333.7231,618.4805 L333.7231,621.2031 Q333.0923,620.6221 332.4988,620.3523 Q331.9053,620.0825 331.2744,620.0825 Q329.9297,620.0825 329.2449,621.1492 Q328.5601,622.2158 328.5601,624.3159 Q328.5601,626.4077 329.2449,627.4744 Q329.9297,628.541 331.2744,628.541 Q331.9053,628.541 332.4988,628.2712 Q333.0923,628.0015 333.7231,627.4204 Z " fill="#000000"/><text fill="#000000" font-family="sans-serif" font-size="12" lengthAdjust="spacing" textLength="44" x="351.75" y="628.5352">Country</text><line style="stroke:#A80036;stroke-width:1.5;" x1="224" x2="491" y1="640" y2="640"/><text fill="#000000" font-family="sans-serif" font-size="11" lengthAdjust="spacing" textLength="138" x="229" y="654.6348">name : Multilingual_String</text><text fill="#000000" font-family="sans-serif" font-size="11" lengthAdjust="spacing" textLength="227" x="229" y="667.5898">iso3166alphaCode : ISO3166_Alpha_Code</text><text fill="#000000" font-family="sans-serif" font-size="11" lengthAdjust="spacing" textLength="257" x="229" y="680.5449">iso3166NumericCode : ISO3166_Numeric_Code</text><text fill="#000000" font-family="sans-serif" font-size="11" lengthAdjust="spacing" textLength="192" x="229" y="693.5">euCountryCode : EU_Country_Code</text><!--MD5=[59b530d44ae785dc18db921986a9c15c]
class Document--><rect codeLine="8" fill="#FEFECE" filter="url(#fd1s9ag5srjso)" height="78.8652" id="Document" style="stroke:#A80036;stroke-width:1.5;" width="141" x="397" y="7"/><ellipse cx="434.95" cy="23" fill="#ADD1B2" rx="11" ry="11" style="stroke:#A80036;stroke-width:1.0;"/><path d="M437.4231,29.1431 Q436.8421,29.4419 436.2029,29.5913 Q435.5638,29.7407 434.8582,29.7407 Q432.3514,29.7407 431.0315,28.0889 Q429.7117,26.437 429.7117,23.3159 Q429.7117,20.1865 431.0315,18.5347 Q432.3514,16.8828 434.8582,16.8828 Q435.5638,16.8828 436.2112,17.0322 Q436.8587,17.1816 437.4231,17.4805 L437.4231,20.2031 Q436.7923,19.6221 436.1988,19.3523 Q435.6053,19.0825 434.9744,19.0825 Q433.6297,19.0825 432.9449,20.1492 Q432.2601,21.2158 432.2601,23.3159 Q432.2601,25.4077 432.9449,26.4744 Q433.6297,27.541 434.9744,27.541 Q435.6053,27.541 436.1988,27.2712 Q436.7923,27.0015 437.4231,26.4204 Z " fill="#000000"/><text fill="#000000" font-family="sans-serif" font-size="12" lengthAdjust="spacing" textLength="58" x="454.05" y="27.5352">Document</text><line style="stroke:#A80036;stroke-width:1.5;" x1="398" x2="537" y1="39" y2="39"/><text fill="#000000" font-family="sans-serif" font-size="11" lengthAdjust="spacing" textLength="129" x="403" y="53.6348">title : Multilingual_String</text><text fill="#000000" font-family="sans-serif" font-size="11" lengthAdjust="spacing" textLength="117" x="403" y="66.5898">publicationDate : Date</text><text fill="#000000" font-family="sans-serif" font-size="11" lengthAdjust="spacing" textLength="46" x="403" y="79.5449">doi : DOI</text><!--MD5=[b821bb113f9f55c728f1fbb8949cc3af]
class Contributorship--><rect codeLine="58" fill="#FEFECE" filter="url(#fd1s9ag5srjso)" height="65.9102" id="Contributorship" style="stroke:#A80036;stroke-width:1.5;" width="122" x="239.5" y="13.5"/><ellipse cx="254.95" cy="29.5" fill="#ADD1B2" rx="11" ry="11" style="stroke:#A80036;stroke-width:1.0;"/><path d="M257.4231,35.6431 Q256.8421,35.9419 256.2029,36.0913 Q255.5638,36.2407 254.8582,36.2407 Q252.3514,36.2407 251.0315,34.5889 Q249.7117,32.937 249.7117,29.8159 Q249.7117,26.6865 251.0315,25.0347 Q252.3514,23.3828 254.8582,23.3828 Q255.5638,23.3828 256.2112,23.5322 Q256.8587,23.6816 257.4231,23.9805 L257.4231,26.7031 Q256.7923,26.1221 256.1988,25.8523 Q255.6053,25.5825 254.9744,25.5825 Q253.6297,25.5825 252.9449,26.6492 Q252.2601,27.7158 252.2601,29.8159 Q252.2601,31.9077 252.9449,32.9744 Q253.6297,34.041 254.9744,34.041 Q255.6053,34.041 256.1988,33.7712 Q256.7923,33.5015 257.4231,32.9204 Z " fill="#000000"/><text fill="#000000" font-family="sans-serif" font-size="12" lengthAdjust="spacing" textLength="89" x="269.05" y="34.0352">Contributorship</text><line style="stroke:#A80036;stroke-width:1.5;" x1="240.5" x2="360.5" y1="45.5" y2="45.5"/><text fill="#000000" font-family="sans-serif" font-size="11" lengthAdjust="spacing" textLength="110" x="245.5" y="60.1348">contacts : List&lt;URI&gt;</text><text fill="#000000" font-family="sans-serif" font-size="11" lengthAdjust="spacing" textLength="109" x="245.5" y="73.0898">displayName : String</text><!--MD5=[532fe005ca0bef0ad6b309c9c6480e22]
class Contribution_Statement--><rect codeLine="62" fill="#FEFECE" filter="url(#fd1s9ag5srjso)" height="32" id="Contribution_Statement" style="stroke:#A80036;stroke-width:1.5;" width="165" x="447" y="163"/><ellipse cx="462" cy="179" fill="#ADD1B2" rx="11" ry="11" style="stroke:#A80036;stroke-width:1.0;"/><path d="M464.4731,185.1431 Q463.8921,185.4419 463.2529,185.5913 Q462.6138,185.7407 461.9082,185.7407 Q459.4014,185.7407 458.0815,184.0889 Q456.7617,182.437 456.7617,179.3159 Q456.7617,176.1865 458.0815,174.5347 Q459.4014,172.8828 461.9082,172.8828 Q462.6138,172.8828 463.2612,173.0322 Q463.9087,173.1816 464.4731,173.4805 L464.4731,176.2031 Q463.8423,175.6221 463.2488,175.3523 Q462.6553,175.0825 462.0244,175.0825 Q460.6797,175.0825 459.9949,176.1492 Q459.3101,177.2158 459.3101,179.3159 Q459.3101,181.4077 459.9949,182.4744 Q460.6797,183.541 462.0244,183.541 Q462.6553,183.541 463.2488,183.2712 Q463.8423,183.0015 464.4731,182.4204 Z " fill="#000000"/><text fill="#000000" font-family="sans-serif" font-size="12" lengthAdjust="spacing" textLength="133" x="476" y="183.5352">Contribution_Statement</text><!--MD5=[75e6ee6f0cee60576da1adad405695b7]
class Free_Text_Contribution_Statement--><rect codeLine="64" fill="#FEFECE" filter="url(#fd1s9ag5srjso)" height="52.9551" id="Free_Text_Contribution_Statement" style="stroke:#A80036;stroke-width:1.5;" width="228" x="454.5" y="304.5"/><ellipse cx="469.5" cy="320.5" fill="#ADD1B2" rx="11" ry="11" style="stroke:#A80036;stroke-width:1.0;"/><path d="M471.9731,326.6431 Q471.3921,326.9419 470.7529,327.0913 Q470.1138,327.2407 469.4082,327.2407 Q466.9014,327.2407 465.5815,325.5889 Q464.2617,323.937 464.2617,320.8159 Q464.2617,317.6865 465.5815,316.0347 Q466.9014,314.3828 469.4082,314.3828 Q470.1138,314.3828 470.7612,314.5322 Q471.4087,314.6816 471.9731,314.9805 L471.9731,317.7031 Q471.3423,317.1221 470.7488,316.8523 Q470.1553,316.5825 469.5244,316.5825 Q468.1797,316.5825 467.4949,317.6492 Q466.8101,318.7158 466.8101,320.8159 Q466.8101,322.9077 467.4949,323.9744 Q468.1797,325.041 469.5244,325.041 Q470.1553,325.041 470.7488,324.7712 Q471.3423,324.5015 471.9731,323.9204 Z " fill="#000000"/><text fill="#000000" font-family="sans-serif" font-size="12" lengthAdjust="spacing" textLength="196" x="483.5" y="325.0352">Free_Text_Contribution_Statement</text><line style="stroke:#A80036;stroke-width:1.5;" x1="455.5" x2="681.5" y1="336.5" y2="336.5"/><text fill="#000000" font-family="sans-serif" font-size="11" lengthAdjust="spacing" textLength="162" x="460.5" y="351.1348">statement : Multilingual_String</text><!--MD5=[ddbff00b4911ad4b77d6aa32dd14d1d7]
class Affiliation_Statement--><rect codeLine="67" fill="#FEFECE" filter="url(#fd1s9ag5srjso)" height="65.9102" id="Affiliation_Statement" style="stroke:#A80036;stroke-width:1.5;" width="148" x="225.5" y="146"/><ellipse cx="240.5" cy="162" fill="#ADD1B2" rx="11" ry="11" style="stroke:#A80036;stroke-width:1.0;"/><path d="M242.9731,168.1431 Q242.3921,168.4419 241.7529,168.5913 Q241.1138,168.7407 240.4082,168.7407 Q237.9014,168.7407 236.5815,167.0889 Q235.2617,165.437 235.2617,162.3159 Q235.2617,159.1865 236.5815,157.5347 Q237.9014,155.8828 240.4082,155.8828 Q241.1138,155.8828 241.7612,156.0322 Q242.4087,156.1816 242.9731,156.4805 L242.9731,159.2031 Q242.3423,158.6221 241.7488,158.3523 Q241.1553,158.0825 240.5244,158.0825 Q239.1797,158.0825 238.4949,159.1492 Q237.8101,160.2158 237.8101,162.3159 Q237.8101,164.4077 238.4949,165.4744 Q239.1797,166.541 240.5244,166.541 Q241.1553,166.541 241.7488,166.2712 Q242.3423,166.0015 242.9731,165.4204 Z " fill="#000000"/><text fill="#000000" font-family="sans-serif" font-size="12" lengthAdjust="spacing" textLength="116" x="254.5" y="166.5352">Affiliation_Statement</text><line style="stroke:#A80036;stroke-width:1.5;" x1="226.5" x2="372.5" y1="178" y2="178"/><text fill="#000000" font-family="sans-serif" font-size="11" lengthAdjust="spacing" textLength="131" x="231.5" y="192.6348">displayAffiliation : String</text><text fill="#000000" font-family="sans-serif" font-size="11" lengthAdjust="spacing" textLength="135" x="231.5" y="205.5898">address : Postal_Address</text><!--MD5=[1c2d5a11bdff8297fbebaa44435072c9]
link Postal_Address to Country--><path codeLine="51" d="M357.5,560.41 C357.5,560.41 357.5,583.75 357.5,594.5 " fill="none" id="Postal_Address-Country" style="stroke:#A80036;stroke-width:1.0;"/><polygon fill="#A80036" points="357.5,607.77,361.5,598.77,357.5,602.77,353.5,598.77,357.5,607.77" style="stroke:#A80036;stroke-width:1.0;"/><line style="stroke:#A80036;stroke-width:1.0;" x1="357.5" x2="357.5" y1="602.77" y2="594.77"/><polygon fill="#FFFFFF" points="357.5,548.41,353.5,554.41,357.5,560.41,361.5,554.41,357.5,548.41" style="stroke:#A80036;stroke-width:1.0;"/><text fill="#000000" font-family="sans-serif" font-size="13" lengthAdjust="spacing" textLength="48" x="305.825" y="597.1485">country</text><!--MD5=[5d8901ce694eb85aefa78b7d82d9f6f6]
link Person to Person_Name--><path codeLine="88" d="M101.5,364.01 C101.5,388.75 101.5,423.37 101.5,451.22 " fill="none" id="Person-to-Person_Name" style="stroke:#A80036;stroke-width:1.0;stroke-dasharray:7.0,7.0;"/><polygon fill="#A80036" points="101.5,456.34,105.5,447.34,101.5,451.34,97.5,447.34,101.5,456.34" style="stroke:#A80036;stroke-width:1.0;"/><text fill="#000000" font-family="sans-serif" font-size="13" lengthAdjust="spacing" textLength="34" x="64.6844" y="445.6155">name</text><!--MD5=[de96f77e660762cb21a195b4097c3876]
reverse link Agent to Person--><path codeLine="89" d="M162.67,81.97 C157.85,100.87 151.8,124.71 146.5,146 C133.26,199.13 118.21,260.98 109.3,297.74 " fill="none" id="Agent-backto-Person" style="stroke:#A80036;stroke-width:1.0;"/><polygon fill="none" points="155.91,80.15,167.65,62.51,169.48,83.62,155.91,80.15" style="stroke:#A80036;stroke-width:1.0;"/><!--MD5=[521d3f26cc3887ed8885a4c0e03f9952]
reverse link Agent to Organisation_Unit--><path codeLine="90" d="M176.2,83.14 C181.39,117.06 191.23,169.14 207.5,212 C215.2,232.3 225.96,253.34 236.55,271.93 " fill="none" id="Agent-backto-Organisation_Unit" style="stroke:#A80036;stroke-width:1.0;"/><polygon fill="none" points="169.21,83.68,173.33,62.9,183.07,81.72,169.21,83.68" style="stroke:#A80036;stroke-width:1.0;"/><!--MD5=[15e2f573152931505f3d87c1c2d22c4e]
link Organisation_Unit to Postal_Address--><path codeLine="91" d="M302.88,390.06 C311.92,407.92 321.82,427.48 330.67,444.98 " fill="none" id="Organisation_Unit-to-Postal_Address" style="stroke:#A80036;stroke-width:1.0;stroke-dasharray:7.0,7.0;"/><polygon fill="#A80036" points="333.14,449.86,332.6551,440.0231,330.8868,445.3965,325.5135,443.6281,333.14,449.86" style="stroke:#A80036;stroke-width:1.0;"/><text fill="#000000" font-family="sans-serif" font-size="13" lengthAdjust="spacing" textLength="49" x="276.9637" y="439.1259">address</text><!--MD5=[af6b79ce3af62c8c5ee779db9fbc8cf6]
link Affiliation_Statement to Postal_Address--><path codeLine="74" d="M330.63,212.05 C344.48,228.55 359.28,249.83 366.5,272 C385.03,328.92 378.3,398.19 369.82,444.92 " fill="none" id="Affiliation_Statement-to-Postal_Address" style="stroke:#A80036;stroke-width:1.0;stroke-dasharray:7.0,7.0;"/><polygon fill="#A80036" points="368.89,449.94,374.4687,441.8235,369.8045,445.0243,366.6037,440.3602,368.89,449.94" style="stroke:#A80036;stroke-width:1.0;"/><text fill="#000000" font-family="sans-serif" font-size="13" lengthAdjust="spacing" textLength="90" x="377.1723" y="439.2176">postalAddress</text><!--MD5=[fe03d2c8e9644e7513bef3a6fb6291e6]
reverse link Affiliation_Statement to Organisation_Unit--><path codeLine="75" d="M279.88,225.08 C276.35,239.79 273.27,256.33 271.12,271.85 " fill="none" id="Affiliation_Statement-backto-Organisation_Unit" style="stroke:#A80036;stroke-width:1.0;"/><polygon fill="#FFFFFF" points="283.24,212.18,277.8592,216.9807,280.2211,223.7941,285.6019,218.9933,283.24,212.18" style="stroke:#A80036;stroke-width:1.0;"/><text fill="#000000" font-family="sans-serif" font-size="13" lengthAdjust="spacing" textLength="47" x="220.9659" y="261.3307">orgUnit</text><!--MD5=[fe03d2c8e9644e7513bef3a6fb6291e6]
reverse link Affiliation_Statement to Organisation_Unit--><path codeLine="76" d="M304.14,225.54 C302.62,240.13 300,256.49 296.77,271.85 " fill="none" id="Affiliation_Statement-backto-Organisation_Unit-1" style="stroke:#A80036;stroke-width:1.0;"/><polygon fill="#FFFFFF" points="305.24,212.18,300.7592,217.83,304.2511,224.1392,308.7319,218.4892,305.24,212.18" style="stroke:#A80036;stroke-width:1.0;"/><text fill="#000000" font-family="sans-serif" font-size="13" lengthAdjust="spacing" textLength="66" x="303.6279" y="261.3307">institution</text><!--MD5=[d9b08b031298a036c8fb3d44263a5204]
reverse link Affiliation_Statement to Person--><path codeLine="77" d="M246.47,220.17 C214.34,244.51 173.9,275.15 143.91,297.87 " fill="none" id="Affiliation_Statement-backto-Person" style="stroke:#A80036;stroke-width:1.0;"/><polygon fill="#FFFFFF" points="257.02,212.18,249.822,212.6148,247.4549,219.4263,254.6529,218.9915,257.02,212.18" style="stroke:#A80036;stroke-width:1.0;"/><!--MD5=[21f8b3605054312288eb3132d9b75edc]
reverse link Contribution_Statement to Free_Text_Contribution_Statement--><path codeLine="78" d="M538.58,214.91 C545.68,242.24 555.4,279.61 561.81,304.26 " fill="none" id="Contribution_Statement-backto-Free_Text_Contribution_Statement" style="stroke:#A80036;stroke-width:1.0;"/><polygon fill="none" points="531.71,216.33,533.45,195.21,545.26,212.8,531.71,216.33" style="stroke:#A80036;stroke-width:1.0;"/><!--MD5=[1f014480a3afa8c0325c3be3fbf7ad6f]
link Contributorship to Document--><path codeLine="79" d="M361.82,46.5 C369.13,46.5 376.44,46.5 383.75,46.5 " fill="none" id="Contributorship-to-Document" style="stroke:#A80036;stroke-width:1.0;"/><polygon fill="#A80036" points="396.91,46.5,390.91,42.5,384.91,46.5,390.91,50.5,396.91,46.5" style="stroke:#A80036;stroke-width:1.0;"/><text fill="#000000" font-family="sans-serif" font-size="13" lengthAdjust="spacing" textLength="6" x="369.659" y="43.1787">*</text><!--MD5=[504de05de5dc33320621ff1be2e6e6ff]
reverse link Agent to Contributorship--><path codeLine="80" d="M217.01,46.5 C224.49,46.5 231.96,46.5 239.43,46.5 " fill="none" id="Agent-backto-Contributorship" style="stroke:#A80036;stroke-width:1.0;"/><polygon fill="#FFFFFF" points="204,46.5,210,50.5,216,46.5,210,42.5,204,46.5" style="stroke:#A80036;stroke-width:1.0;"/><text fill="#000000" font-family="sans-serif" font-size="13" lengthAdjust="spacing" textLength="99" x="132.2692" y="26.8986">0..1 contributor</text><text fill="#000000" font-family="sans-serif" font-size="13" lengthAdjust="spacing" textLength="6" x="225.6215" y="60.0068">*</text><!--MD5=[d50a95e3ddb5a3ed983c7b2ff4649bd6]
reverse link Contributorship to Affiliation_Statement--><path codeLine="81" d="M300.15,92.86 C300.02,110.25 299.87,129.73 299.75,145.66 " fill="none" id="Contributorship-backto-Affiliation_Statement" style="stroke:#A80036;stroke-width:1.0;"/><polygon fill="#FFFFFF" points="300.25,79.76,296.204,85.7291,300.1577,91.7596,304.2037,85.7906,300.25,79.76" style="stroke:#A80036;stroke-width:1.0;"/><text fill="#000000" font-family="sans-serif" font-size="13" lengthAdjust="spacing" textLength="78" x="214.1211" y="135.2274">affiliations *</text><!--MD5=[aa65b9840c4d4bb6ada386eeadadc345]
reverse link Contributorship to Contribution_Statement--><path codeLine="82" d="M368.33,86.15 C413.52,111.91 470.42,144.33 503.11,162.96 " fill="none" id="Contributorship-backto-Contribution_Statement" style="stroke:#A80036;stroke-width:1.0;"/><polygon fill="#A80036" points="356.81,79.59,360.0411,86.0367,367.2346,85.5337,364.0035,79.087,356.81,79.59" style="stroke:#A80036;stroke-width:1.0;"/><text fill="#000000" font-family="sans-serif" font-size="13" lengthAdjust="spacing" textLength="158" x="521.8523" y="152.1976">contributionStatements *</text><!--MD5=[85234c3b1c435c3ba4e52976e322dac4]
@startuml

    !includesub core.puml!common
    !includesub core.puml!Agent
    !includesub core.puml!Contributorship

@enduml

@startuml

	hide empty members
	skinparam BoxPadding 120
    class "Agent"{

    }
    class "Organisation_Unit"{
        name : Multilingual_String
        acronym : String
        address : Postal_Address
        rorId : ROR_Id
        webSiteURL : URL
        email : URL
    }
    class "Person"{
        name : Person_Name
        orcidId : ORCID_iD
    }
    class Person_Name << (D,#FF7700) DataType>> {
        firstNames : Multilingual_String
        familyNames : Multilingual_String
        otherNames : Multilingual_String
    } 
    class Postal_Address << (D,#FF7700) DataType>> {
        street : Multilingual_String 
        city : Multilingual_String
        zipCode : Multilingual_String 
        country : Country
    }
    class "Country"{
        name : Multilingual_String
        iso3166alphaCode : ISO3166_Alpha_Code
        iso3166NumericCode : ISO3166_Numeric_Code
        euCountryCode : EU_Country_Code
    }
	"Postal_Address" o- -> "country" "Country"
"Person" ..> "name" "Person_Name"
"Agent" <|- - "Person"
"Agent" <|- - "Organisation_Unit"
"Organisation_Unit" ..> "address" "Postal_Address"
    class "Document"{
        title : Multilingual_String
        publicationDate : Date 
        doi : DOI
    }
    class "Contributorship"{
        contacts : List<URI> 
        displayName : String
    }
    class "Contribution_Statement"{
    }
    class "Free_Text_Contribution_Statement"{
        statement : Multilingual_String
    }
    class "Affiliation_Statement"{
        displayAffiliation : String 
        address : Postal_Address
    }
"Affiliation_Statement" ..> "postalAddress" "Postal_Address"
"Affiliation_Statement" o- - "orgUnit" "Organisation_Unit"
"Affiliation_Statement" o- - "institution" "Organisation_Unit"
"Affiliation_Statement" o- - "Person"
"Contribution_Statement" <|- - "Free_Text_Contribution_Statement"
"Contributorship" "*" - -r- -* "Document"
"Contributorship" "*" - -l- -o "0..1 contributor" "Agent"
"Contributorship" o- - "affiliations *" "Affiliation_Statement"
"Contributorship" *- - "contributionStatements *" "Contribution_Statement"

@enduml

PlantUML version 1.2021.8(Sat Jun 26 10:20:59 CEST 2021)
(GPL source distribution)
Java Runtime: Java(TM) SE Runtime Environment
JVM: Java HotSpot(TM) 64-Bit Server VM
Default Encoding: UTF-8
Language: cs
Country: CZ
--></g></svg>