<?xml version="1.0" encoding="UTF-8" standalone="no"?><svg xmlns="http://www.w3.org/2000/svg" xmlns:xlink="http://www.w3.org/1999/xlink" contentScriptType="application/ecmascript" contentStyleType="text/css" height="543px" preserveAspectRatio="none" style="width:937px;height:543px;background:#FFFFFF;" version="1.1" viewBox="0 0 937 543" width="937px" zoomAndPan="magnify"><defs><filter height="300%" id="f11pgmj9wmslnn" width="300%" x="-1" y="-1"><feGaussianBlur result="blurOut" stdDeviation="2.0"/><feColorMatrix in="blurOut" result="blurOut2" type="matrix" values="0 0 0 0 0 0 0 0 0 0 0 0 0 0 0 0 0 0 .4 0"/><feOffset dx="4.0" dy="4.0" in="blurOut2" result="blurOut3"/><feBlend in="SourceGraphic" in2="blurOut3" mode="normal"/></filter></defs><g><!--MD5=[9d44916250b776386006c440668bcfbb]
class Agent--><rect codeLine="23" fill="#FFFFFF" filter="url(#f11pgmj9wmslnn)" height="32" id="Agent" style="stroke:#A80036;stroke-width:1.5;" width="63" x="329.3518" y="153"/><ellipse cx="344.3518" cy="169" fill="#ADD1B2" rx="11" ry="11" style="stroke:#A80036;stroke-width:1.0;"/><path d="M347.1174,164.875 Q347.2736,164.6563 347.4611,164.5469 Q347.6486,164.4375 347.8674,164.4375 Q348.2424,164.4375 348.4768,164.7031 Q348.7111,164.9531 348.7111,165.5625 L348.7111,167.0156 Q348.7111,167.625 348.4768,167.8906 Q348.2424,168.1563 347.8674,168.1563 Q347.5236,168.1563 347.3205,167.9531 Q347.1174,167.7656 347.008,167.25 Q346.9611,166.8906 346.7736,166.7031 Q346.4455,166.3281 345.8361,166.1094 Q345.2268,165.8906 344.6018,165.8906 Q343.8361,165.8906 343.1955,166.2188 Q342.5705,166.5469 342.0705,167.2969 Q341.5861,168.0469 341.5861,169.0781 L341.5861,170.1719 Q341.5861,171.4063 342.4768,172.2344 Q343.3674,173.0469 344.9611,173.0469 Q345.8986,173.0469 346.5549,172.7969 Q346.9455,172.6406 347.3674,172.2031 Q347.633,171.9375 347.7736,171.8594 Q347.9299,171.7813 348.133,171.7813 Q348.4611,171.7813 348.7111,172.0469 Q348.9768,172.2969 348.9768,172.6406 Q348.9768,172.9844 348.633,173.3906 Q348.133,173.9688 347.3361,174.2969 Q346.258,174.75 344.9611,174.75 Q343.4455,174.75 342.2424,174.125 Q341.258,173.625 340.5705,172.5625 Q339.883,171.4844 339.883,170.2031 L339.883,169.0469 Q339.883,167.7188 340.4924,166.5781 Q341.1174,165.4219 342.2111,164.8125 Q343.3049,164.1875 344.5393,164.1875 Q345.2736,164.1875 345.9143,164.3594 Q346.5705,164.5156 347.1174,164.875 Z " fill="#000000"/><text fill="#000000" font-family="sans-serif" font-size="12" lengthAdjust="spacing" textLength="31" x="358.3518" y="173.9102">Agent</text><!--MD5=[c881b25adf3665c6568c9693d41a70f3]
class Activity--><rect codeLine="52" fill="#FFFFFF" filter="url(#f11pgmj9wmslnn)" height="67.6719" id="Activity" style="stroke:#A80036;stroke-width:1.5;" width="110" x="305.8518" y="7"/><ellipse cx="340.2018" cy="23" fill="#ADD1B2" rx="11" ry="11" style="stroke:#A80036;stroke-width:1.0;"/><path d="M342.9674,18.875 Q343.1236,18.6563 343.3111,18.5469 Q343.4986,18.4375 343.7174,18.4375 Q344.0924,18.4375 344.3268,18.7031 Q344.5611,18.9531 344.5611,19.5625 L344.5611,21.0156 Q344.5611,21.625 344.3268,21.8906 Q344.0924,22.1563 343.7174,22.1563 Q343.3736,22.1563 343.1705,21.9531 Q342.9674,21.7656 342.858,21.25 Q342.8111,20.8906 342.6236,20.7031 Q342.2955,20.3281 341.6861,20.1094 Q341.0768,19.8906 340.4518,19.8906 Q339.6861,19.8906 339.0455,20.2188 Q338.4205,20.5469 337.9205,21.2969 Q337.4361,22.0469 337.4361,23.0781 L337.4361,24.1719 Q337.4361,25.4063 338.3268,26.2344 Q339.2174,27.0469 340.8111,27.0469 Q341.7486,27.0469 342.4049,26.7969 Q342.7955,26.6406 343.2174,26.2031 Q343.483,25.9375 343.6236,25.8594 Q343.7799,25.7813 343.983,25.7813 Q344.3111,25.7813 344.5611,26.0469 Q344.8268,26.2969 344.8268,26.6406 Q344.8268,26.9844 344.483,27.3906 Q343.983,27.9688 343.1861,28.2969 Q342.108,28.75 340.8111,28.75 Q339.2955,28.75 338.0924,28.125 Q337.108,27.625 336.4205,26.5625 Q335.733,25.4844 335.733,24.2031 L335.733,23.0469 Q335.733,21.7188 336.3424,20.5781 Q336.9674,19.4219 338.0611,18.8125 Q339.1549,18.1875 340.3893,18.1875 Q341.1236,18.1875 341.7643,18.3594 Q342.4205,18.5156 342.9674,18.875 Z " fill="#000000"/><text fill="#000000" font-family="sans-serif" font-size="12" lengthAdjust="spacing" textLength="35" x="358.5017" y="27.9102">Activity</text><line style="stroke:#A80036;stroke-width:1.5;" x1="306.8518" x2="414.8518" y1="39" y2="39"/><text fill="#000000" font-family="sans-serif" font-size="11" lengthAdjust="spacing" textLength="96" x="311.8518" y="54.4189">contacts : List&lt;URI&gt;</text><text fill="#000000" font-family="sans-serif" font-size="11" lengthAdjust="spacing" textLength="98" x="311.8518" y="68.2549">displayName : String</text><!--MD5=[0330879a1a385efee19ba3488ed490fa]
class Contribution--><rect codeLine="82" fill="#FFFFFF" filter="url(#f11pgmj9wmslnn)" height="32" id="Contribution" style="stroke:#A80036;stroke-width:1.5;" width="99" x="452.3518" y="153"/><ellipse cx="467.3518" cy="169" fill="#ADD1B2" rx="11" ry="11" style="stroke:#A80036;stroke-width:1.0;"/><path d="M470.1174,164.875 Q470.2736,164.6563 470.4611,164.5469 Q470.6486,164.4375 470.8674,164.4375 Q471.2424,164.4375 471.4768,164.7031 Q471.7111,164.9531 471.7111,165.5625 L471.7111,167.0156 Q471.7111,167.625 471.4768,167.8906 Q471.2424,168.1563 470.8674,168.1563 Q470.5236,168.1563 470.3205,167.9531 Q470.1174,167.7656 470.008,167.25 Q469.9611,166.8906 469.7736,166.7031 Q469.4455,166.3281 468.8361,166.1094 Q468.2268,165.8906 467.6018,165.8906 Q466.8361,165.8906 466.1955,166.2188 Q465.5705,166.5469 465.0705,167.2969 Q464.5861,168.0469 464.5861,169.0781 L464.5861,170.1719 Q464.5861,171.4063 465.4768,172.2344 Q466.3674,173.0469 467.9611,173.0469 Q468.8986,173.0469 469.5549,172.7969 Q469.9455,172.6406 470.3674,172.2031 Q470.633,171.9375 470.7736,171.8594 Q470.9299,171.7813 471.133,171.7813 Q471.4611,171.7813 471.7111,172.0469 Q471.9768,172.2969 471.9768,172.6406 Q471.9768,172.9844 471.633,173.3906 Q471.133,173.9688 470.3361,174.2969 Q469.258,174.75 467.9611,174.75 Q466.4455,174.75 465.2424,174.125 Q464.258,173.625 463.5705,172.5625 Q462.883,171.4844 462.883,170.2031 L462.883,169.0469 Q462.883,167.7188 463.4924,166.5781 Q464.1174,165.4219 465.2111,164.8125 Q466.3049,164.1875 467.5393,164.1875 Q468.2736,164.1875 468.9143,164.3594 Q469.5705,164.5156 470.1174,164.875 Z " fill="#000000"/><text fill="#000000" font-family="sans-serif" font-size="12" lengthAdjust="spacing" textLength="67" x="481.3518" y="173.9102">Contribution</text><!--MD5=[9291c471b34ea1f1faaed3f62ed2250a]
class Acknowledgement_Statement--><rect codeLine="85" fill="#FFFFFF" filter="url(#f11pgmj9wmslnn)" height="32" id="Acknowledgement_Statement" style="stroke:#A80036;stroke-width:1.5;" width="196" x="604.8518" y="25"/><ellipse cx="619.8518" cy="41" fill="#ADD1B2" rx="11" ry="11" style="stroke:#A80036;stroke-width:1.0;"/><path d="M622.6174,36.875 Q622.7736,36.6563 622.9611,36.5469 Q623.1486,36.4375 623.3674,36.4375 Q623.7424,36.4375 623.9768,36.7031 Q624.2111,36.9531 624.2111,37.5625 L624.2111,39.0156 Q624.2111,39.625 623.9768,39.8906 Q623.7424,40.1563 623.3674,40.1563 Q623.0236,40.1563 622.8205,39.9531 Q622.6174,39.7656 622.508,39.25 Q622.4611,38.8906 622.2736,38.7031 Q621.9455,38.3281 621.3361,38.1094 Q620.7268,37.8906 620.1018,37.8906 Q619.3361,37.8906 618.6955,38.2188 Q618.0705,38.5469 617.5705,39.2969 Q617.0861,40.0469 617.0861,41.0781 L617.0861,42.1719 Q617.0861,43.4063 617.9768,44.2344 Q618.8674,45.0469 620.4611,45.0469 Q621.3986,45.0469 622.0549,44.7969 Q622.4455,44.6406 622.8674,44.2031 Q623.133,43.9375 623.2736,43.8594 Q623.4299,43.7813 623.633,43.7813 Q623.9611,43.7813 624.2111,44.0469 Q624.4768,44.2969 624.4768,44.6406 Q624.4768,44.9844 624.133,45.3906 Q623.633,45.9688 622.8361,46.2969 Q621.758,46.75 620.4611,46.75 Q618.9455,46.75 617.7424,46.125 Q616.758,45.625 616.0705,44.5625 Q615.383,43.4844 615.383,42.2031 L615.383,41.0469 Q615.383,39.7188 615.9924,38.5781 Q616.6174,37.4219 617.7111,36.8125 Q618.8049,36.1875 620.0393,36.1875 Q620.7736,36.1875 621.4143,36.3594 Q622.0705,36.5156 622.6174,36.875 Z " fill="#000000"/><text fill="#000000" font-family="sans-serif" font-size="12" lengthAdjust="spacing" textLength="164" x="633.8518" y="45.9102">Acknowledgement_Statement</text><!--MD5=[532fe005ca0bef0ad6b309c9c6480e22]
class Contribution_Statement--><rect codeLine="88" fill="#FFFFFF" filter="url(#f11pgmj9wmslnn)" height="32" id="Contribution_Statement" style="stroke:#A80036;stroke-width:1.5;" width="162" x="567.8518" y="263"/><ellipse cx="582.8518" cy="279" fill="#ADD1B2" rx="11" ry="11" style="stroke:#A80036;stroke-width:1.0;"/><path d="M585.6174,274.875 Q585.7736,274.6563 585.9611,274.5469 Q586.1486,274.4375 586.3674,274.4375 Q586.7424,274.4375 586.9768,274.7031 Q587.2111,274.9531 587.2111,275.5625 L587.2111,277.0156 Q587.2111,277.625 586.9768,277.8906 Q586.7424,278.1563 586.3674,278.1563 Q586.0236,278.1563 585.8205,277.9531 Q585.6174,277.7656 585.508,277.25 Q585.4611,276.8906 585.2736,276.7031 Q584.9455,276.3281 584.3361,276.1094 Q583.7268,275.8906 583.1018,275.8906 Q582.3361,275.8906 581.6955,276.2188 Q581.0705,276.5469 580.5705,277.2969 Q580.0861,278.0469 580.0861,279.0781 L580.0861,280.1719 Q580.0861,281.4063 580.9768,282.2344 Q581.8674,283.0469 583.4611,283.0469 Q584.3986,283.0469 585.0549,282.7969 Q585.4455,282.6406 585.8674,282.2031 Q586.133,281.9375 586.2736,281.8594 Q586.4299,281.7813 586.633,281.7813 Q586.9611,281.7813 587.2111,282.0469 Q587.4768,282.2969 587.4768,282.6406 Q587.4768,282.9844 587.133,283.3906 Q586.633,283.9688 585.8361,284.2969 Q584.758,284.75 583.4611,284.75 Q581.9455,284.75 580.7424,284.125 Q579.758,283.625 579.0705,282.5625 Q578.383,281.4844 578.383,280.2031 L578.383,279.0469 Q578.383,277.7188 578.9924,276.5781 Q579.6174,275.4219 580.7111,274.8125 Q581.8049,274.1875 583.0393,274.1875 Q583.7736,274.1875 584.4143,274.3594 Q585.0705,274.5156 585.6174,274.875 Z " fill="#000000"/><text fill="#000000" font-family="sans-serif" font-size="12" lengthAdjust="spacing" textLength="130" x="596.8518" y="283.9102">Contribution_Statement</text><!--MD5=[75e6ee6f0cee60576da1adad405695b7]
class Free_Text_Contribution_Statement--><rect codeLine="91" fill="#FFFFFF" filter="url(#f11pgmj9wmslnn)" height="53.8359" id="Free_Text_Contribution_Statement" style="stroke:#A80036;stroke-width:1.5;" width="223" x="404.3518" y="369"/><ellipse cx="419.3518" cy="385" fill="#ADD1B2" rx="11" ry="11" style="stroke:#A80036;stroke-width:1.0;"/><path d="M422.1174,380.875 Q422.2736,380.6563 422.4611,380.5469 Q422.6486,380.4375 422.8674,380.4375 Q423.2424,380.4375 423.4768,380.7031 Q423.7111,380.9531 423.7111,381.5625 L423.7111,383.0156 Q423.7111,383.625 423.4768,383.8906 Q423.2424,384.1563 422.8674,384.1563 Q422.5236,384.1563 422.3205,383.9531 Q422.1174,383.7656 422.008,383.25 Q421.9611,382.8906 421.7736,382.7031 Q421.4455,382.3281 420.8361,382.1094 Q420.2268,381.8906 419.6018,381.8906 Q418.8361,381.8906 418.1955,382.2188 Q417.5705,382.5469 417.0705,383.2969 Q416.5861,384.0469 416.5861,385.0781 L416.5861,386.1719 Q416.5861,387.4063 417.4768,388.2344 Q418.3674,389.0469 419.9611,389.0469 Q420.8986,389.0469 421.5549,388.7969 Q421.9455,388.6406 422.3674,388.2031 Q422.633,387.9375 422.7736,387.8594 Q422.9299,387.7813 423.133,387.7813 Q423.4611,387.7813 423.7111,388.0469 Q423.9768,388.2969 423.9768,388.6406 Q423.9768,388.9844 423.633,389.3906 Q423.133,389.9688 422.3361,390.2969 Q421.258,390.75 419.9611,390.75 Q418.4455,390.75 417.2424,390.125 Q416.258,389.625 415.5705,388.5625 Q414.883,387.4844 414.883,386.2031 L414.883,385.0469 Q414.883,383.7188 415.4924,382.5781 Q416.1174,381.4219 417.2111,380.8125 Q418.3049,380.1875 419.5393,380.1875 Q420.2736,380.1875 420.9143,380.3594 Q421.5705,380.5156 422.1174,380.875 Z " fill="#000000"/><text fill="#000000" font-family="sans-serif" font-size="12" lengthAdjust="spacing" textLength="191" x="433.3518" y="389.9102">Free_Text_Contribution_Statement</text><line style="stroke:#A80036;stroke-width:1.5;" x1="405.3518" x2="626.3518" y1="401" y2="401"/><text fill="#000000" font-family="sans-serif" font-size="11" lengthAdjust="spacing" textLength="141" x="410.3518" y="416.4189">statement : Multilingual_String</text><!--MD5=[694c8da16a3aeed8cc252f2a2bde6980]
class Resource_Contribution_Statement--><rect codeLine="95" fill="#FFFFFF" filter="url(#f11pgmj9wmslnn)" height="32" id="Resource_Contribution_Statement" style="stroke:#A80036;stroke-width:1.5;" width="223" x="662.3518" y="380"/><ellipse cx="677.3518" cy="396" fill="#ADD1B2" rx="11" ry="11" style="stroke:#A80036;stroke-width:1.0;"/><path d="M680.1174,391.875 Q680.2736,391.6563 680.4611,391.5469 Q680.6486,391.4375 680.8674,391.4375 Q681.2424,391.4375 681.4768,391.7031 Q681.7111,391.9531 681.7111,392.5625 L681.7111,394.0156 Q681.7111,394.625 681.4768,394.8906 Q681.2424,395.1563 680.8674,395.1563 Q680.5236,395.1563 680.3205,394.9531 Q680.1174,394.7656 680.008,394.25 Q679.9611,393.8906 679.7736,393.7031 Q679.4455,393.3281 678.8361,393.1094 Q678.2268,392.8906 677.6018,392.8906 Q676.8361,392.8906 676.1955,393.2188 Q675.5705,393.5469 675.0705,394.2969 Q674.5861,395.0469 674.5861,396.0781 L674.5861,397.1719 Q674.5861,398.4063 675.4768,399.2344 Q676.3674,400.0469 677.9611,400.0469 Q678.8986,400.0469 679.5549,399.7969 Q679.9455,399.6406 680.3674,399.2031 Q680.633,398.9375 680.7736,398.8594 Q680.9299,398.7813 681.133,398.7813 Q681.4611,398.7813 681.7111,399.0469 Q681.9768,399.2969 681.9768,399.6406 Q681.9768,399.9844 681.633,400.3906 Q681.133,400.9688 680.3361,401.2969 Q679.258,401.75 677.9611,401.75 Q676.4455,401.75 675.2424,401.125 Q674.258,400.625 673.5705,399.5625 Q672.883,398.4844 672.883,397.2031 L672.883,396.0469 Q672.883,394.7188 673.4924,393.5781 Q674.1174,392.4219 675.2111,391.8125 Q676.3049,391.1875 677.5393,391.1875 Q678.2736,391.1875 678.9143,391.3594 Q679.5705,391.5156 680.1174,391.875 Z " fill="#000000"/><text fill="#000000" font-family="sans-serif" font-size="12" lengthAdjust="spacing" textLength="191" x="691.3518" y="400.9102">Resource_Contribution_Statement</text><!--MD5=[6b13f1b330d33795af281e5c1dfe1e98]
class Resource--><rect codeLine="98" fill="#FFFFFF" filter="url(#f11pgmj9wmslnn)" height="32" id="Resource" style="stroke:#A80036;stroke-width:1.5;" width="86" x="812.8518" y="497"/><ellipse cx="827.8518" cy="513" fill="#ADD1B2" rx="11" ry="11" style="stroke:#A80036;stroke-width:1.0;"/><path d="M830.6174,508.875 Q830.7736,508.6563 830.9611,508.5469 Q831.1486,508.4375 831.3674,508.4375 Q831.7424,508.4375 831.9768,508.7031 Q832.2111,508.9531 832.2111,509.5625 L832.2111,511.0156 Q832.2111,511.625 831.9768,511.8906 Q831.7424,512.1563 831.3674,512.1563 Q831.0236,512.1563 830.8205,511.9531 Q830.6174,511.7656 830.508,511.25 Q830.4611,510.8906 830.2736,510.7031 Q829.9455,510.3281 829.3361,510.1094 Q828.7268,509.8906 828.1018,509.8906 Q827.3361,509.8906 826.6955,510.2188 Q826.0705,510.5469 825.5705,511.2969 Q825.0861,512.0469 825.0861,513.0781 L825.0861,514.1719 Q825.0861,515.4063 825.9768,516.2344 Q826.8674,517.0469 828.4611,517.0469 Q829.3986,517.0469 830.0549,516.7969 Q830.4455,516.6406 830.8674,516.2031 Q831.133,515.9375 831.2736,515.8594 Q831.4299,515.7813 831.633,515.7813 Q831.9611,515.7813 832.2111,516.0469 Q832.4768,516.2969 832.4768,516.6406 Q832.4768,516.9844 832.133,517.3906 Q831.633,517.9688 830.8361,518.2969 Q829.758,518.75 828.4611,518.75 Q826.9455,518.75 825.7424,518.125 Q824.758,517.625 824.0705,516.5625 Q823.383,515.4844 823.383,514.2031 L823.383,513.0469 Q823.383,511.7188 823.9924,510.5781 Q824.6174,509.4219 825.7111,508.8125 Q826.8049,508.1875 828.0393,508.1875 Q828.7736,508.1875 829.4143,508.3594 Q830.0705,508.5156 830.6174,508.875 Z " fill="#000000"/><text fill="#000000" font-family="sans-serif" font-size="12" lengthAdjust="spacing" textLength="54" x="841.8518" y="517.9102">Resource</text><!--MD5=[499f999e1567c93424c56c6c7aa1fc6e]
class Contributorship_to_Document--><rect codeLine="104" fill="#FFFFFF" filter="url(#f11pgmj9wmslnn)" height="32" id="Contributorship_to_Document" style="stroke:#A80036;stroke-width:1.5;" width="198" x="334.8518" y="263"/><ellipse cx="349.8518" cy="279" fill="#ADD1B2" rx="11" ry="11" style="stroke:#A80036;stroke-width:1.0;"/><path d="M352.6174,274.875 Q352.7736,274.6563 352.9611,274.5469 Q353.1486,274.4375 353.3674,274.4375 Q353.7424,274.4375 353.9768,274.7031 Q354.2111,274.9531 354.2111,275.5625 L354.2111,277.0156 Q354.2111,277.625 353.9768,277.8906 Q353.7424,278.1563 353.3674,278.1563 Q353.0236,278.1563 352.8205,277.9531 Q352.6174,277.7656 352.508,277.25 Q352.4611,276.8906 352.2736,276.7031 Q351.9455,276.3281 351.3361,276.1094 Q350.7268,275.8906 350.1018,275.8906 Q349.3361,275.8906 348.6955,276.2188 Q348.0705,276.5469 347.5705,277.2969 Q347.0861,278.0469 347.0861,279.0781 L347.0861,280.1719 Q347.0861,281.4063 347.9768,282.2344 Q348.8674,283.0469 350.4611,283.0469 Q351.3986,283.0469 352.0549,282.7969 Q352.4455,282.6406 352.8674,282.2031 Q353.133,281.9375 353.2736,281.8594 Q353.4299,281.7813 353.633,281.7813 Q353.9611,281.7813 354.2111,282.0469 Q354.4768,282.2969 354.4768,282.6406 Q354.4768,282.9844 354.133,283.3906 Q353.633,283.9688 352.8361,284.2969 Q351.758,284.75 350.4611,284.75 Q348.9455,284.75 347.7424,284.125 Q346.758,283.625 346.0705,282.5625 Q345.383,281.4844 345.383,280.2031 L345.383,279.0469 Q345.383,277.7188 345.9924,276.5781 Q346.6174,275.4219 347.7111,274.8125 Q348.8049,274.1875 350.0393,274.1875 Q350.7736,274.1875 351.4143,274.3594 Q352.0705,274.5156 352.6174,274.875 Z " fill="#000000"/><text fill="#000000" font-family="sans-serif" font-size="12" lengthAdjust="spacing" textLength="166" x="363.8518" y="283.9102">Contributorship_to_Document</text><!--MD5=[59b530d44ae785dc18db921986a9c15c]
class Document--><rect codeLine="8" fill="#FFFFFF" filter="url(#f11pgmj9wmslnn)" height="81.5078" id="Document" style="stroke:#A80036;stroke-width:1.5;" width="122" x="246.8518" y="355"/><ellipse cx="276.7018" cy="371" fill="#ADD1B2" rx="11" ry="11" style="stroke:#A80036;stroke-width:1.0;"/><path d="M279.4674,366.875 Q279.6236,366.6563 279.8111,366.5469 Q279.9986,366.4375 280.2174,366.4375 Q280.5924,366.4375 280.8268,366.7031 Q281.0611,366.9531 281.0611,367.5625 L281.0611,369.0156 Q281.0611,369.625 280.8268,369.8906 Q280.5924,370.1563 280.2174,370.1563 Q279.8736,370.1563 279.6705,369.9531 Q279.4674,369.7656 279.358,369.25 Q279.3111,368.8906 279.1236,368.7031 Q278.7955,368.3281 278.1861,368.1094 Q277.5768,367.8906 276.9518,367.8906 Q276.1861,367.8906 275.5455,368.2188 Q274.9205,368.5469 274.4205,369.2969 Q273.9361,370.0469 273.9361,371.0781 L273.9361,372.1719 Q273.9361,373.4063 274.8268,374.2344 Q275.7174,375.0469 277.3111,375.0469 Q278.2486,375.0469 278.9049,374.7969 Q279.2955,374.6406 279.7174,374.2031 Q279.983,373.9375 280.1236,373.8594 Q280.2799,373.7813 280.483,373.7813 Q280.8111,373.7813 281.0611,374.0469 Q281.3268,374.2969 281.3268,374.6406 Q281.3268,374.9844 280.983,375.3906 Q280.483,375.9688 279.6861,376.2969 Q278.608,376.75 277.3111,376.75 Q275.7955,376.75 274.5924,376.125 Q273.608,375.625 272.9205,374.5625 Q272.233,373.4844 272.233,372.2031 L272.233,371.0469 Q272.233,369.7188 272.8424,368.5781 Q273.4674,367.4219 274.5611,366.8125 Q275.6549,366.1875 276.8893,366.1875 Q277.6236,366.1875 278.2643,366.3594 Q278.9205,366.5156 279.4674,366.875 Z " fill="#000000"/><text fill="#000000" font-family="sans-serif" font-size="12" lengthAdjust="spacing" textLength="57" x="294.0018" y="375.9102">Document</text><line style="stroke:#A80036;stroke-width:1.5;" x1="247.8518" x2="367.8518" y1="387" y2="387"/><text fill="#000000" font-family="sans-serif" font-size="11" lengthAdjust="spacing" textLength="73" x="252.8518" y="402.4189">DOI : DOI_Type</text><text fill="#000000" font-family="sans-serif" font-size="11" lengthAdjust="spacing" textLength="110" x="252.8518" y="416.2549">title : Multilingual_String</text><text fill="#000000" font-family="sans-serif" font-size="11" lengthAdjust="spacing" textLength="104" x="252.8518" y="430.0908">publicationDate : Date</text><!--MD5=[ddbff00b4911ad4b77d6aa32dd14d1d7]
class Affiliation_Statement--><rect codeLine="127" fill="#FFFFFF" filter="url(#f11pgmj9wmslnn)" height="67.6719" id="Affiliation_Statement" style="stroke:#A80036;stroke-width:1.5;" width="144" x="99.8518" y="135"/><ellipse cx="114.8518" cy="151" fill="#ADD1B2" rx="11" ry="11" style="stroke:#A80036;stroke-width:1.0;"/><path d="M117.6174,146.875 Q117.7736,146.6563 117.9611,146.5469 Q118.1486,146.4375 118.3674,146.4375 Q118.7424,146.4375 118.9768,146.7031 Q119.2111,146.9531 119.2111,147.5625 L119.2111,149.0156 Q119.2111,149.625 118.9768,149.8906 Q118.7424,150.1563 118.3674,150.1563 Q118.0236,150.1563 117.8205,149.9531 Q117.6174,149.7656 117.508,149.25 Q117.4611,148.8906 117.2736,148.7031 Q116.9455,148.3281 116.3361,148.1094 Q115.7268,147.8906 115.1018,147.8906 Q114.3361,147.8906 113.6955,148.2188 Q113.0705,148.5469 112.5705,149.2969 Q112.0861,150.0469 112.0861,151.0781 L112.0861,152.1719 Q112.0861,153.4063 112.9768,154.2344 Q113.8674,155.0469 115.4611,155.0469 Q116.3986,155.0469 117.0549,154.7969 Q117.4455,154.6406 117.8674,154.2031 Q118.133,153.9375 118.2736,153.8594 Q118.4299,153.7813 118.633,153.7813 Q118.9611,153.7813 119.2111,154.0469 Q119.4768,154.2969 119.4768,154.6406 Q119.4768,154.9844 119.133,155.3906 Q118.633,155.9688 117.8361,156.2969 Q116.758,156.75 115.4611,156.75 Q113.9455,156.75 112.7424,156.125 Q111.758,155.625 111.0705,154.5625 Q110.383,153.4844 110.383,152.2031 L110.383,151.0469 Q110.383,149.7188 110.9924,148.5781 Q111.6174,147.4219 112.7111,146.8125 Q113.8049,146.1875 115.0393,146.1875 Q115.7736,146.1875 116.4143,146.3594 Q117.0705,146.5156 117.6174,146.875 Z " fill="#000000"/><text fill="#000000" font-family="sans-serif" font-size="12" lengthAdjust="spacing" textLength="112" x="128.8518" y="155.9102">Affiliation_Statement</text><line style="stroke:#A80036;stroke-width:1.5;" x1="100.8518" x2="242.8518" y1="167" y2="167"/><text fill="#000000" font-family="sans-serif" font-size="11" lengthAdjust="spacing" textLength="116" x="105.8518" y="182.4189">displayAffiliation : String</text><text fill="#000000" font-family="sans-serif" font-size="11" lengthAdjust="spacing" textLength="126" x="105.8518" y="196.2549">address : Postal_Address</text><!--MD5=[fe1d14fe6d68ca7e76eb34268c62a1f3]
class Postal_Address--><rect fill="#FEFECE" filter="url(#f11pgmj9wmslnn)" height="32" id="Postal_Address" style="stroke:#A80036;stroke-width:1.5;" width="120" x="179.8518" y="263"/><ellipse cx="194.8518" cy="279" fill="#ADD1B2" rx="11" ry="11" style="stroke:#A80036;stroke-width:1.0;"/><path d="M197.6174,274.875 Q197.7736,274.6563 197.9611,274.5469 Q198.1486,274.4375 198.3674,274.4375 Q198.7424,274.4375 198.9768,274.7031 Q199.2111,274.9531 199.2111,275.5625 L199.2111,277.0156 Q199.2111,277.625 198.9768,277.8906 Q198.7424,278.1563 198.3674,278.1563 Q198.0236,278.1563 197.8205,277.9531 Q197.6174,277.7656 197.508,277.25 Q197.4611,276.8906 197.2736,276.7031 Q196.9455,276.3281 196.3361,276.1094 Q195.7268,275.8906 195.1018,275.8906 Q194.3361,275.8906 193.6955,276.2188 Q193.0705,276.5469 192.5705,277.2969 Q192.0861,278.0469 192.0861,279.0781 L192.0861,280.1719 Q192.0861,281.4063 192.9768,282.2344 Q193.8674,283.0469 195.4611,283.0469 Q196.3986,283.0469 197.0549,282.7969 Q197.4455,282.6406 197.8674,282.2031 Q198.133,281.9375 198.2736,281.8594 Q198.4299,281.7813 198.633,281.7813 Q198.9611,281.7813 199.2111,282.0469 Q199.4768,282.2969 199.4768,282.6406 Q199.4768,282.9844 199.133,283.3906 Q198.633,283.9688 197.8361,284.2969 Q196.758,284.75 195.4611,284.75 Q193.9455,284.75 192.7424,284.125 Q191.758,283.625 191.0705,282.5625 Q190.383,281.4844 190.383,280.2031 L190.383,279.0469 Q190.383,277.7188 190.9924,276.5781 Q191.6174,275.4219 192.7111,274.8125 Q193.8049,274.1875 195.0393,274.1875 Q195.7736,274.1875 196.4143,274.3594 Q197.0705,274.5156 197.6174,274.875 Z " fill="#000000"/><text fill="#000000" font-family="sans-serif" font-size="12" lengthAdjust="spacing" textLength="88" x="208.8518" y="283.9102">Postal_Address</text><!--MD5=[779f3743e425ed8a6f0bf188ddea4860]
class Organisation_Unit--><rect fill="#FEFECE" filter="url(#f11pgmj9wmslnn)" height="32" id="Organisation_Unit" style="stroke:#A80036;stroke-width:1.5;" width="132" x="12.8518" y="263"/><ellipse cx="27.8518" cy="279" fill="#ADD1B2" rx="11" ry="11" style="stroke:#A80036;stroke-width:1.0;"/><path d="M30.6174,274.875 Q30.7736,274.6563 30.9611,274.5469 Q31.1486,274.4375 31.3674,274.4375 Q31.7424,274.4375 31.9768,274.7031 Q32.2111,274.9531 32.2111,275.5625 L32.2111,277.0156 Q32.2111,277.625 31.9768,277.8906 Q31.7424,278.1563 31.3674,278.1563 Q31.0236,278.1563 30.8205,277.9531 Q30.6174,277.7656 30.508,277.25 Q30.4611,276.8906 30.2736,276.7031 Q29.9455,276.3281 29.3361,276.1094 Q28.7268,275.8906 28.1018,275.8906 Q27.3361,275.8906 26.6955,276.2188 Q26.0705,276.5469 25.5705,277.2969 Q25.0861,278.0469 25.0861,279.0781 L25.0861,280.1719 Q25.0861,281.4063 25.9768,282.2344 Q26.8674,283.0469 28.4611,283.0469 Q29.3986,283.0469 30.0549,282.7969 Q30.4455,282.6406 30.8674,282.2031 Q31.133,281.9375 31.2736,281.8594 Q31.4299,281.7813 31.633,281.7813 Q31.9611,281.7813 32.2111,282.0469 Q32.4768,282.2969 32.4768,282.6406 Q32.4768,282.9844 32.133,283.3906 Q31.633,283.9688 30.8361,284.2969 Q29.758,284.75 28.4611,284.75 Q26.9455,284.75 25.7424,284.125 Q24.758,283.625 24.0705,282.5625 Q23.383,281.4844 23.383,280.2031 L23.383,279.0469 Q23.383,277.7188 23.9924,276.5781 Q24.6174,275.4219 25.7111,274.8125 Q26.8049,274.1875 28.0393,274.1875 Q28.7736,274.1875 29.4143,274.3594 Q30.0705,274.5156 30.6174,274.875 Z " fill="#000000"/><text fill="#000000" font-family="sans-serif" font-size="12" lengthAdjust="spacing" textLength="100" x="41.8518" y="283.9102">Organisation_Unit</text><!--MD5=[09ce52be0ee7de43c61b6e2d59bf108b]
class Person--><rect fill="#FEFECE" filter="url(#f11pgmj9wmslnn)" height="32" id="Person" style="stroke:#A80036;stroke-width:1.5;" width="72" x="135.8518" y="25"/><ellipse cx="150.8518" cy="41" fill="#ADD1B2" rx="11" ry="11" style="stroke:#A80036;stroke-width:1.0;"/><path d="M153.6174,36.875 Q153.7736,36.6563 153.9611,36.5469 Q154.1486,36.4375 154.3674,36.4375 Q154.7424,36.4375 154.9768,36.7031 Q155.2111,36.9531 155.2111,37.5625 L155.2111,39.0156 Q155.2111,39.625 154.9768,39.8906 Q154.7424,40.1563 154.3674,40.1563 Q154.0236,40.1563 153.8205,39.9531 Q153.6174,39.7656 153.508,39.25 Q153.4611,38.8906 153.2736,38.7031 Q152.9455,38.3281 152.3361,38.1094 Q151.7268,37.8906 151.1018,37.8906 Q150.3361,37.8906 149.6955,38.2188 Q149.0705,38.5469 148.5705,39.2969 Q148.0861,40.0469 148.0861,41.0781 L148.0861,42.1719 Q148.0861,43.4063 148.9768,44.2344 Q149.8674,45.0469 151.4611,45.0469 Q152.3986,45.0469 153.0549,44.7969 Q153.4455,44.6406 153.8674,44.2031 Q154.133,43.9375 154.2736,43.8594 Q154.4299,43.7813 154.633,43.7813 Q154.9611,43.7813 155.2111,44.0469 Q155.4768,44.2969 155.4768,44.6406 Q155.4768,44.9844 155.133,45.3906 Q154.633,45.9688 153.8361,46.2969 Q152.758,46.75 151.4611,46.75 Q149.9455,46.75 148.7424,46.125 Q147.758,45.625 147.0705,44.5625 Q146.383,43.4844 146.383,42.2031 L146.383,41.0469 Q146.383,39.7188 146.9924,38.5781 Q147.6174,37.4219 148.7111,36.8125 Q149.8049,36.1875 151.0393,36.1875 Q151.7736,36.1875 152.4143,36.3594 Q153.0705,36.5156 153.6174,36.875 Z " fill="#000000"/><text fill="#000000" font-family="sans-serif" font-size="12" lengthAdjust="spacing" textLength="40" x="164.8518" y="45.9102">Person</text><!--MD5=[fe105c2ee1fabf2400c31a97ce9128bc]
class Textual_Document--><rect codeLine="13" fill="#FFFFFF" filter="url(#f11pgmj9wmslnn)" height="32" id="Textual_Document" style="stroke:#A80036;stroke-width:1.5;" width="135" x="240.3518" y="497"/><ellipse cx="255.3518" cy="513" fill="#ADD1B2" rx="11" ry="11" style="stroke:#A80036;stroke-width:1.0;"/><path d="M258.1174,508.875 Q258.2736,508.6563 258.4611,508.5469 Q258.6486,508.4375 258.8674,508.4375 Q259.2424,508.4375 259.4768,508.7031 Q259.7111,508.9531 259.7111,509.5625 L259.7111,511.0156 Q259.7111,511.625 259.4768,511.8906 Q259.2424,512.1563 258.8674,512.1563 Q258.5236,512.1563 258.3205,511.9531 Q258.1174,511.7656 258.008,511.25 Q257.9611,510.8906 257.7736,510.7031 Q257.4455,510.3281 256.8361,510.1094 Q256.2268,509.8906 255.6018,509.8906 Q254.8361,509.8906 254.1955,510.2188 Q253.5705,510.5469 253.0705,511.2969 Q252.5861,512.0469 252.5861,513.0781 L252.5861,514.1719 Q252.5861,515.4063 253.4768,516.2344 Q254.3674,517.0469 255.9611,517.0469 Q256.8986,517.0469 257.5549,516.7969 Q257.9455,516.6406 258.3674,516.2031 Q258.633,515.9375 258.7736,515.8594 Q258.9299,515.7813 259.133,515.7813 Q259.4611,515.7813 259.7111,516.0469 Q259.9768,516.2969 259.9768,516.6406 Q259.9768,516.9844 259.633,517.3906 Q259.133,517.9688 258.3361,518.2969 Q257.258,518.75 255.9611,518.75 Q254.4455,518.75 253.2424,518.125 Q252.258,517.625 251.5705,516.5625 Q250.883,515.4844 250.883,514.2031 L250.883,513.0469 Q250.883,511.7188 251.4924,510.5781 Q252.1174,509.4219 253.2111,508.8125 Q254.3049,508.1875 255.5393,508.1875 Q256.2736,508.1875 256.9143,508.3594 Q257.5705,508.5156 258.1174,508.875 Z " fill="#000000"/><text fill="#000000" font-family="sans-serif" font-size="12" lengthAdjust="spacing" textLength="103" x="269.3518" y="517.9102">Textual_Document</text><!--MD5=[cd935cc757d29bd6a59b1252b30899e0]
link Activity to Agent--><path codeLine="165" d="M360.8518,75.11 C360.8518,95.21 360.8518,120.6 360.8518,139.75 " fill="none" id="Activity-to-Agent" style="stroke:#A80036;stroke-width:1.0;"/><polygon fill="#FFFFFF" points="360.8518,152.99,364.8518,146.99,360.8518,140.99,356.8518,146.99,360.8518,152.99" style="stroke:#A80036;stroke-width:1.0;"/><text fill="#000000" font-family="sans-serif" font-size="13" lengthAdjust="spacing" textLength="20" x="339.0705" y="96.1665">0..*</text><text fill="#000000" font-family="sans-serif" font-size="13" lengthAdjust="spacing" textLength="49" x="303.4299" y="142.2921">0..1 who</text><!--MD5=[985660d160cc1234ef784a412fcab047]
reverse link Contribution to Contribution_Statement--><path codeLine="153" d="M532.9418,192.84 C561.5918,213.89 603.3218,244.55 628.1118,262.76 " fill="none" id="Contribution-backto-Contribution_Statement" style="stroke:#A80036;stroke-width:1.0;"/><polygon fill="#A80036" points="522.2918,185.02,524.7559,191.797,531.9594,192.1289,529.4952,185.3519,522.2918,185.02" style="stroke:#A80036;stroke-width:1.0;"/><text fill="#000000" font-family="sans-serif" font-size="13" lengthAdjust="spacing" textLength="158" x="437.4583" y="252.1337">0..* contributionStatements</text><!--MD5=[21f8b3605054312288eb3132d9b75edc]
reverse link Contribution_Statement to Free_Text_Contribution_Statement--><path codeLine="156" d="M616.2118,308.23 C594.7518,326.78 566.8818,350.88 545.9618,368.97 " fill="none" id="Contribution_Statement-backto-Free_Text_Contribution_Statement" style="stroke:#A80036;stroke-width:1.0;"/><polygon fill="none" points="611.7618,302.82,631.4618,295.03,620.9118,313.41,611.7618,302.82" style="stroke:#A80036;stroke-width:1.0;"/><!--MD5=[a32bc6b77530b63001477d316ccad4f4]
reverse link Contribution_Statement to Resource_Contribution_Statement--><path codeLine="159" d="M680.2018,308.84 C704.7618,331.44 737.9418,361.97 757.5018,379.96 " fill="none" id="Contribution_Statement-backto-Resource_Contribution_Statement" style="stroke:#A80036;stroke-width:1.0;"/><polygon fill="none" points="675.1718,313.73,665.1918,295.03,684.6518,303.42,675.1718,313.73" style="stroke:#A80036;stroke-width:1.0;"/><!--MD5=[55f20054f286b2e7074e8d22fab1f608]
reverse link Activity to Contribution--><path codeLine="189" d="M413.1518,88.74 C438.5617,111.44 467.3518,137.17 485.0617,152.99 " fill="none" id="Activity-backto-Contribution" style="stroke:#A80036;stroke-width:1.0;"/><polygon fill="none" points="408.1418,93.65,397.9018,75.11,417.4718,83.21,408.1418,93.65" style="stroke:#A80036;stroke-width:1.0;"/><!--MD5=[69e52749bc6a88f912658ed2a89efd9a]
link Acknowledgement_Statement to Contribution--><path codeLine="198" d="M678.6018,57.2 C643.3518,79.3 577.7218,120.44 537.1118,145.9 " fill="none" id="Acknowledgement_Statement-to-Contribution" style="stroke:#A80036;stroke-width:1.0;"/><polygon fill="#FFFFFF" points="525.8718,152.94,533.08,153.1444,536.0411,146.5693,528.8329,146.3649,525.8718,152.94" style="stroke:#A80036;stroke-width:1.0;"/><text fill="#000000" font-family="sans-serif" font-size="13" lengthAdjust="spacing" textLength="78" x="580.4408" y="78.4649">0..* thanks to</text><text fill="#000000" font-family="sans-serif" font-size="13" lengthAdjust="spacing" textLength="22" x="508.3474" y="142.2249">0..1</text><!--MD5=[9a54662a9dd62a0778534af2fcaddce0]
link Acknowledgement_Statement to Resource--><path codeLine="201" d="M717.3418,57.31 C756.7118,100.09 865.2318,226.25 902.8518,355 C913.0718,389.98 912.9218,401.97 902.8518,437 C897.7118,454.88 886.9218,472.63 876.9718,486.37 " fill="none" id="Acknowledgement_Statement-to-Resource" style="stroke:#A80036;stroke-width:1.0;"/><polygon fill="#FFFFFF" points="868.9518,496.88,875.7721,494.5384,876.2338,487.3421,869.4135,489.6837,868.9518,496.88" style="stroke:#A80036;stroke-width:1.0;"/><text fill="#000000" font-family="sans-serif" font-size="13" lengthAdjust="spacing" textLength="20" x="698.7729" y="78.61">0..*</text><text fill="#000000" font-family="sans-serif" font-size="13" lengthAdjust="spacing" textLength="76" x="784.3924" y="486.1443">0..1 resource</text><!--MD5=[bd2b41009eed06f10d8bee85cf3b965a]
link Resource_Contribution_Statement to Resource--><path codeLine="204" d="M784.5718,412.03 C798.0118,430.89 821.2718,463.51 837.5518,486.34 " fill="none" id="Resource_Contribution_Statement-to-Resource" style="stroke:#A80036;stroke-width:1.0;"/><polygon fill="#A80036" points="845.1318,496.96,844.9029,489.7525,838.1619,487.1916,838.3907,494.3991,845.1318,496.96" style="stroke:#A80036;stroke-width:1.0;"/><text fill="#000000" font-family="sans-serif" font-size="13" lengthAdjust="spacing" textLength="20" x="764.8103" y="433.5433">0..*</text><text fill="#000000" font-family="sans-serif" font-size="13" lengthAdjust="spacing" textLength="76" x="854.5093" y="486.2518">0..1 resource</text><!--MD5=[9eee727d802a18f0e95ff3f6b6586c86]
link Contributorship_to_Document to Document--><path codeLine="162" d="M417.3817,295.03 C403.1018,308.06 381.6317,327.66 361.4718,346.06 " fill="none" id="Contributorship_to_Document-to-Document" style="stroke:#A80036;stroke-width:1.0;"/><polygon fill="#A80036" points="351.7118,354.97,358.8402,353.8816,360.5773,346.8828,353.4488,347.9712,351.7118,354.97" style="stroke:#A80036;stroke-width:1.0;"/><text fill="#000000" font-family="sans-serif" font-size="13" lengthAdjust="spacing" textLength="20" x="388.6136" y="316.5433">0..*</text><!--MD5=[64b3920ce24dd4d033875075a5ecfc25]
reverse link Contribution to Contributorship_to_Document--><path codeLine="174" d="M481.7118,201.99 C469.0718,222.07 453.3418,247.05 443.4417,262.76 " fill="none" id="Contribution-backto-Contributorship_to_Document" style="stroke:#A80036;stroke-width:1.0;"/><polygon fill="none" points="475.8117,198.21,492.3918,185.02,487.6618,205.67,475.8117,198.21" style="stroke:#A80036;stroke-width:1.0;"/><!--MD5=[af6b79ce3af62c8c5ee779db9fbc8cf6]
link Affiliation_Statement to Postal_Address--><path codeLine="137" d="M192.8118,203.28 C204.1218,221.26 217.7118,242.84 227.3718,258.18 " fill="none" id="Affiliation_Statement-to-Postal_Address" style="stroke:#A80036;stroke-width:1.0;stroke-dasharray:7.0,7.0;"/><polygon fill="#A80036" points="230.2318,262.73,228.8065,252.9848,227.5612,258.5029,222.0432,257.2576,230.2318,262.73" style="stroke:#A80036;stroke-width:1.0;"/><text fill="#000000" font-family="sans-serif" font-size="13" lengthAdjust="spacing" textLength="83" x="130.7339" y="252.0936">postalAddress</text><!--MD5=[fe03d2c8e9644e7513bef3a6fb6291e6]
reverse link Affiliation_Statement to Organisation_Unit--><path codeLine="140" d="M122.4418,212.85 C106.4918,230.47 90.9918,249.75 82.7918,262.73 " fill="none" id="Affiliation_Statement-backto-Organisation_Unit" style="stroke:#A80036;stroke-width:1.0;"/><polygon fill="#FFFFFF" points="131.3118,203.28,124.2997,204.9626,123.156,212.0824,130.168,210.3998,131.3118,203.28" style="stroke:#A80036;stroke-width:1.0;"/><text fill="#000000" font-family="sans-serif" font-size="13" lengthAdjust="spacing" textLength="67" x="6" y="252.2439">0..1 orgUnit</text><!--MD5=[fe03d2c8e9644e7513bef3a6fb6291e6]
reverse link Affiliation_Statement to Organisation_Unit--><path codeLine="143" d="M147.3918,213.83 C133.1918,231.18 115.8218,249.99 101.7518,262.73 " fill="none" id="Affiliation_Statement-backto-Organisation_Unit-1" style="stroke:#A80036;stroke-width:1.0;"/><polygon fill="#FFFFFF" points="155.7618,203.28,148.8969,205.4877,148.2944,212.6735,155.1593,210.4659,155.7618,203.28" style="stroke:#A80036;stroke-width:1.0;"/><text fill="#000000" font-family="sans-serif" font-size="13" lengthAdjust="spacing" textLength="82" x="99.8428" y="252.1359">0..1 institution</text><!--MD5=[dc2c5634ff295731fc33abbfcbd96d36]
reverse link Person to Affiliation_Statement--><path codeLine="147" d="M171.8518,70.7 C171.8518,89.81 171.8518,114.98 171.8518,134.94 " fill="none" id="Person-backto-Affiliation_Statement" style="stroke:#A80036;stroke-width:1.0;"/><polygon fill="#FFFFFF" points="171.8518,57.45,167.8518,63.45,171.8518,69.45,175.8518,63.45,171.8518,57.45" style="stroke:#A80036;stroke-width:1.0;"/><text fill="#000000" font-family="sans-serif" font-size="13" lengthAdjust="spacing" textLength="81" x="82.8783" y="124.2215">0..* affiliations</text><!--MD5=[335bc652314d68e20c6b9db39c8a9e92]
reverse link Activity to Affiliation_Statement--><path codeLine="150" d="M300.1917,82.44 C274.7818,99.38 245.6118,118.83 221.5018,134.9 " fill="none" id="Activity-backto-Affiliation_Statement" style="stroke:#A80036;stroke-width:1.0;"/><polygon fill="#A80036" points="311.1917,75.11,303.9806,75.1122,301.2092,81.7694,308.4203,81.7672,311.1917,75.11" style="stroke:#A80036;stroke-width:1.0;"/><text fill="#000000" font-family="sans-serif" font-size="13" lengthAdjust="spacing" textLength="81" x="142.3032" y="124.1736">0..* affiliations</text><!--MD5=[67ceb885199ca7e1fa058287d8756a2e]
reverse link Document to Textual_Document--><path codeLine="223" d="M307.8518,457.37 C307.8518,472.04 307.8518,486.46 307.8518,496.8 " fill="none" id="Document-backto-Textual_Document" style="stroke:#A80036;stroke-width:1.0;"/><polygon fill="none" points="300.8518,457.22,307.8518,437.22,314.8518,457.22,300.8518,457.22" style="stroke:#A80036;stroke-width:1.0;"/><!--MD5=[bacde8bdd7ba3b5a7aa420cd520617ae]
@startuml

    !includesub core.puml!common
    !includesub core.puml!Agent
    !includesub core.puml!Activity
    !includesub core.puml!Contribution
    !includesub core.puml!ContributorshipToDocument
    !includesub core.puml!AffiliationStatement
    !includesub core.puml!Document

@enduml

@startuml

        hide empty members
        skinparam BoxPadding 120
        class "Agent" #ffffff {
        }
    class "Activity" #ffffff {
        contacts : List<URI>
        displayName : String
    }
        "Activity" "0..*" - -o "0..1 who" "Agent"
        class "Contribution" #ffffff {
        }
            
        class "Acknowledgement_Statement" #ffffff {
        }
        
        class "Contribution_Statement" #ffffff {
        }
        
        class "Free_Text_Contribution_Statement" #ffffff {
            statement : Multilingual_String
        }
    
        class "Resource_Contribution_Statement" #ffffff {
        }
    
        class "Resource" #ffffff {
        }
        "Contribution" *- - "0..* contributionStatements" "Contribution_Statement"
        "Contribution_Statement" <|- - "Free_Text_Contribution_Statement"
        "Contribution_Statement" <|- - "Resource_Contribution_Statement"
        "Activity" <|- - "Contribution"
        "Acknowledgement_Statement" "0..* thanks to" - -o "0..1" "Contribution"
        "Acknowledgement_Statement" "0..*" - -o "0..1 resource" "Resource"
        "Resource_Contribution_Statement" "0..*" - -* "0..1 resource" "Resource"
        class "Contributorship_to_Document" #ffffff {
        }
        "Contributorship_to_Document" "0..*" - -* "Document"
        "Contribution" <|- - "Contributorship_to_Document"
        class "Affiliation_Statement" #ffffff {
            displayAffiliation : String
            address : Postal_Address
        }
        "Affiliation_Statement" ..> "postalAddress" "Postal_Address"
        "Affiliation_Statement" o- - "0..1 orgUnit" "Organisation_Unit"
        "Affiliation_Statement" o- - "0..1 institution" "Organisation_Unit"
        "Person" o- - "0..* affiliations" "Affiliation_Statement"
        "Activity" *- - "0..* affiliations" "Affiliation_Statement"
        class "Document" #ffffff {
            DOI : DOI_Type
            title : Multilingual_String
            publicationDate : Date
        }
        class "Textual_Document" #ffffff {
        }
        "Document" <|- - "Textual_Document"

@enduml

PlantUML version 1.2021.8(Sat Jun 26 10:20:59 CEST 2021)
(GPL source distribution)
Java Runtime: Java(TM) SE Runtime Environment
JVM: Java HotSpot(TM) 64-Bit Server VM
Default Encoding: Cp1252
Language: en
Country: US
--></g></svg>