<?xml version="1.0" encoding="UTF-8" standalone="no"?><svg xmlns="http://www.w3.org/2000/svg" xmlns:xlink="http://www.w3.org/1999/xlink" contentScriptType="application/ecmascript" contentStyleType="text/css" height="804px" preserveAspectRatio="none" style="width:945px;height:804px;background:#FFFFFF;" version="1.1" viewBox="0 0 945 804" width="945px" zoomAndPan="magnify"><defs><filter height="300%" id="f14naqwia2o67y" width="300%" x="-1" y="-1"><feGaussianBlur result="blurOut" stdDeviation="2.0"/><feColorMatrix in="blurOut" result="blurOut2" type="matrix" values="0 0 0 0 0 0 0 0 0 0 0 0 0 0 0 0 0 0 .4 0"/><feOffset dx="4.0" dy="4.0" in="blurOut2" result="blurOut3"/><feBlend in="SourceGraphic" in2="blurOut3" mode="normal"/></filter></defs><g><!--MD5=[59b530d44ae785dc18db921986a9c15c]
class Document--><rect codeLine="7" fill="#FEFECE" filter="url(#f14naqwia2o67y)" height="78.4141" id="Document" style="stroke:#A80036;stroke-width:1.5;" width="148" x="558.5" y="263.5"/><ellipse cx="596.9" cy="279.5" fill="#ADD1B2" rx="11" ry="11" style="stroke:#A80036;stroke-width:1.0;"/><path d="M599.8688,285.1406 Q599.2906,285.4375 598.65,285.5781 Q598.0094,285.7344 597.3063,285.7344 Q594.8063,285.7344 593.4781,284.0938 Q592.1656,282.4375 592.1656,279.3125 Q592.1656,276.1875 593.4781,274.5313 Q594.8063,272.875 597.3063,272.875 Q598.0094,272.875 598.65,273.0313 Q599.3063,273.1875 599.8688,273.4844 L599.8688,276.2031 Q599.2438,275.625 598.65,275.3594 Q598.0563,275.0781 597.4313,275.0781 Q596.0875,275.0781 595.4,276.1563 Q594.7125,277.2188 594.7125,279.3125 Q594.7125,281.4063 595.4,282.4844 Q596.0875,283.5469 597.4313,283.5469 Q598.0563,283.5469 598.65,283.2813 Q599.2438,283 599.8688,282.4219 L599.8688,285.1406 Z " fill="#000000"/><text fill="#000000" font-family="sans-serif" font-size="12" lengthAdjust="spacing" textLength="64" x="616.1" y="283.6543">Document</text><line style="stroke:#A80036;stroke-width:1.5;" x1="559.5" x2="705.5" y1="295.5" y2="295.5"/><text fill="#000000" font-family="sans-serif" font-size="11" lengthAdjust="spacing" textLength="136" x="564.5" y="309.7104">title : Multilingual_String</text><text fill="#000000" font-family="sans-serif" font-size="11" lengthAdjust="spacing" textLength="125" x="564.5" y="322.5151">publicationDate : Date</text><text fill="#000000" font-family="sans-serif" font-size="11" lengthAdjust="spacing" textLength="49" x="564.5" y="335.3198">doi : DOI</text><!--MD5=[fe105c2ee1fabf2400c31a97ce9128bc]
class Textual_Document--><rect codeLine="13" fill="#FEFECE" filter="url(#f14naqwia2o67y)" height="32" id="Textual_Document" style="stroke:#A80036;stroke-width:1.5;" width="147" x="496" y="110.5"/><ellipse cx="511" cy="126.5" fill="#ADD1B2" rx="11" ry="11" style="stroke:#A80036;stroke-width:1.0;"/><path d="M513.9688,132.1406 Q513.3906,132.4375 512.75,132.5781 Q512.1094,132.7344 511.4063,132.7344 Q508.9063,132.7344 507.5781,131.0938 Q506.2656,129.4375 506.2656,126.3125 Q506.2656,123.1875 507.5781,121.5313 Q508.9063,119.875 511.4063,119.875 Q512.1094,119.875 512.75,120.0313 Q513.4063,120.1875 513.9688,120.4844 L513.9688,123.2031 Q513.3438,122.625 512.75,122.3594 Q512.1563,122.0781 511.5313,122.0781 Q510.1875,122.0781 509.5,123.1563 Q508.8125,124.2188 508.8125,126.3125 Q508.8125,128.4063 509.5,129.4844 Q510.1875,130.5469 511.5313,130.5469 Q512.1563,130.5469 512.75,130.2813 Q513.3438,130 513.9688,129.4219 L513.9688,132.1406 Z " fill="#000000"/><text fill="#000000" font-family="sans-serif" font-size="12" lengthAdjust="spacing" textLength="115" x="525" y="130.6543">Textual_Document</text><!--MD5=[152f153d79baedb26b20a34b9b1b571f]
class Textual_Document_Accessibility_Specification--><rect codeLine="15" fill="#FEFECE" filter="url(#f14naqwia2o67y)" height="32" id="Textual_Document_Accessibility_Specification" style="stroke:#A80036;stroke-width:1.5;" width="314" x="412.5" y="7"/><ellipse cx="427.5" cy="23" fill="#ADD1B2" rx="11" ry="11" style="stroke:#A80036;stroke-width:1.0;"/><path d="M430.4688,28.6406 Q429.8906,28.9375 429.25,29.0781 Q428.6094,29.2344 427.9063,29.2344 Q425.4063,29.2344 424.0781,27.5938 Q422.7656,25.9375 422.7656,22.8125 Q422.7656,19.6875 424.0781,18.0313 Q425.4063,16.375 427.9063,16.375 Q428.6094,16.375 429.25,16.5313 Q429.9063,16.6875 430.4688,16.9844 L430.4688,19.7031 Q429.8438,19.125 429.25,18.8594 Q428.6563,18.5781 428.0313,18.5781 Q426.6875,18.5781 426,19.6563 Q425.3125,20.7188 425.3125,22.8125 Q425.3125,24.9063 426,25.9844 Q426.6875,27.0469 428.0313,27.0469 Q428.6563,27.0469 429.25,26.7813 Q429.8438,26.5 430.4688,25.9219 L430.4688,28.6406 Z " fill="#000000"/><text fill="#000000" font-family="sans-serif" font-size="12" lengthAdjust="spacing" textLength="282" x="441.5" y="27.1543">Textual_Document_Accessibility_Specification</text><!--MD5=[9d44916250b776386006c440668bcfbb]
class Agent--><rect codeLine="18" fill="#FEFECE" filter="url(#f14naqwia2o67y)" height="32" id="Agent" style="stroke:#A80036;stroke-width:1.5;" width="69" x="288" y="286.5"/><ellipse cx="303" cy="302.5" fill="#ADD1B2" rx="11" ry="11" style="stroke:#A80036;stroke-width:1.0;"/><path d="M305.9688,308.1406 Q305.3906,308.4375 304.75,308.5781 Q304.1094,308.7344 303.4063,308.7344 Q300.9063,308.7344 299.5781,307.0938 Q298.2656,305.4375 298.2656,302.3125 Q298.2656,299.1875 299.5781,297.5313 Q300.9063,295.875 303.4063,295.875 Q304.1094,295.875 304.75,296.0313 Q305.4063,296.1875 305.9688,296.4844 L305.9688,299.2031 Q305.3438,298.625 304.75,298.3594 Q304.1563,298.0781 303.5313,298.0781 Q302.1875,298.0781 301.5,299.1563 Q300.8125,300.2188 300.8125,302.3125 Q300.8125,304.4063 301.5,305.4844 Q302.1875,306.5469 303.5313,306.5469 Q304.1563,306.5469 304.75,306.2813 Q305.3438,306 305.9688,305.4219 L305.9688,308.1406 Z " fill="#000000"/><text fill="#000000" font-family="sans-serif" font-size="12" lengthAdjust="spacing" textLength="37" x="317" y="306.6543">Agent</text><!--MD5=[779f3743e425ed8a6f0bf188ddea4860]
class Organisation_Unit--><rect codeLine="21" fill="#FEFECE" filter="url(#f14naqwia2o67y)" height="52.8047" id="Organisation_Unit" style="stroke:#A80036;stroke-width:1.5;" width="159" x="284" y="563"/><ellipse cx="306.2" cy="579" fill="#ADD1B2" rx="11" ry="11" style="stroke:#A80036;stroke-width:1.0;"/><path d="M309.1688,584.6406 Q308.5906,584.9375 307.95,585.0781 Q307.3094,585.2344 306.6063,585.2344 Q304.1063,585.2344 302.7781,583.5938 Q301.4656,581.9375 301.4656,578.8125 Q301.4656,575.6875 302.7781,574.0313 Q304.1063,572.375 306.6063,572.375 Q307.3094,572.375 307.95,572.5313 Q308.6063,572.6875 309.1688,572.9844 L309.1688,575.7031 Q308.5438,575.125 307.95,574.8594 Q307.3563,574.5781 306.7313,574.5781 Q305.3875,574.5781 304.7,575.6563 Q304.0125,576.7188 304.0125,578.8125 Q304.0125,580.9063 304.7,581.9844 Q305.3875,583.0469 306.7313,583.0469 Q307.3563,583.0469 307.95,582.7813 Q308.5438,582.5 309.1688,581.9219 L309.1688,584.6406 Z " fill="#000000"/><text fill="#000000" font-family="sans-serif" font-size="12" lengthAdjust="spacing" textLength="111" x="321.8" y="583.1543">Organisation_Unit</text><line style="stroke:#A80036;stroke-width:1.5;" x1="285" x2="442" y1="595" y2="595"/><text fill="#000000" font-family="sans-serif" font-size="11" lengthAdjust="spacing" textLength="147" x="290" y="609.2104">name : Multilingual_String</text><!--MD5=[09ce52be0ee7de43c61b6e2d59bf108b]
class Person--><rect codeLine="24" fill="#FEFECE" filter="url(#f14naqwia2o67y)" height="65.6094" id="Person" style="stroke:#A80036;stroke-width:1.5;" width="135" x="125" y="414"/><ellipse cx="166.55" cy="430" fill="#ADD1B2" rx="11" ry="11" style="stroke:#A80036;stroke-width:1.0;"/><path d="M169.5188,435.6406 Q168.9406,435.9375 168.3,436.0781 Q167.6594,436.2344 166.9563,436.2344 Q164.4563,436.2344 163.1281,434.5938 Q161.8156,432.9375 161.8156,429.8125 Q161.8156,426.6875 163.1281,425.0313 Q164.4563,423.375 166.9563,423.375 Q167.6594,423.375 168.3,423.5313 Q168.9563,423.6875 169.5188,423.9844 L169.5188,426.7031 Q168.8938,426.125 168.3,425.8594 Q167.7063,425.5781 167.0813,425.5781 Q165.7375,425.5781 165.05,426.6563 Q164.3625,427.7188 164.3625,429.8125 Q164.3625,431.9063 165.05,432.9844 Q165.7375,434.0469 167.0813,434.0469 Q167.7063,434.0469 168.3,433.7813 Q168.8938,433.5 169.5188,432.9219 L169.5188,435.6406 Z " fill="#000000"/><text fill="#000000" font-family="sans-serif" font-size="12" lengthAdjust="spacing" textLength="44" x="186.45" y="434.1543">Person</text><line style="stroke:#A80036;stroke-width:1.5;" x1="126" x2="259" y1="446" y2="446"/><text fill="#000000" font-family="sans-serif" font-size="11" lengthAdjust="spacing" textLength="123" x="131" y="460.2104">name : Person_Name</text><text fill="#000000" font-family="sans-serif" font-size="11" lengthAdjust="spacing" textLength="102" x="131" y="473.0151">orcidId : ORCID_iD</text><!--MD5=[7b209ef07eb91b93e0aebc9fe4fb9a26]
class Person_Name--><rect codeLine="28" fill="#FEFECE" filter="url(#f14naqwia2o67y)" height="84.3516" id="Person_Name" style="stroke:#A80036;stroke-width:1.5;" width="201" x="48" y="547.5"/><ellipse cx="101.25" cy="566.4688" fill="#FF7700" rx="11" ry="11" style="stroke:#A80036;stroke-width:1.0;"/><path d="M100.8438,562.2813 L100.8438,570.2656 L101.5,570.2656 Q102.9375,570.2656 103.5469,569.3594 Q104.1719,568.4375 104.1719,566.2656 Q104.1719,564.0938 103.5469,563.1875 Q102.9375,562.2813 101.5,562.2813 L100.8438,562.2813 Z M98.3906,560.0781 L101.0156,560.0781 Q104.0469,560.0781 105.375,561.5313 Q106.7188,562.9688 106.7188,566.2656 Q106.7188,569.5625 105.375,571.0156 Q104.0469,572.4688 101.0156,572.4688 L98.3906,572.4688 L98.3906,560.0781 Z " fill="#000000"/><text fill="#000000" font-family="sans-serif" font-size="12" font-style="italic" lengthAdjust="spacing" textLength="74" x="127.75" y="563.6387">«DataType»</text><text fill="#000000" font-family="sans-serif" font-size="12" lengthAdjust="spacing" textLength="86" x="121.75" y="577.6074">Person_Name</text><line style="stroke:#A80036;stroke-width:1.5;" x1="49" x2="248" y1="585.4375" y2="585.4375"/><text fill="#000000" font-family="sans-serif" font-size="11" lengthAdjust="spacing" textLength="178" x="54" y="599.6479">firstNames : Multilingual_String</text><text fill="#000000" font-family="sans-serif" font-size="11" lengthAdjust="spacing" textLength="189" x="54" y="612.4526">familyNames : Multilingual_String</text><text fill="#000000" font-family="sans-serif" font-size="11" lengthAdjust="spacing" textLength="185" x="54" y="625.2573">otherNames : Multilingual_String</text><!--MD5=[3b25461e5df73ababc6765bb9b0c47d3]
class Authorship--><rect codeLine="34" fill="#FEFECE" filter="url(#f14naqwia2o67y)" height="52.8047" id="Authorship" style="stroke:#A80036;stroke-width:1.5;" width="212" x="248.5" y="100"/><ellipse cx="316.25" cy="116" fill="#ADD1B2" rx="11" ry="11" style="stroke:#A80036;stroke-width:1.0;"/><path d="M319.2188,121.6406 Q318.6406,121.9375 318,122.0781 Q317.3594,122.2344 316.6563,122.2344 Q314.1563,122.2344 312.8281,120.5938 Q311.5156,118.9375 311.5156,115.8125 Q311.5156,112.6875 312.8281,111.0313 Q314.1563,109.375 316.6563,109.375 Q317.3594,109.375 318,109.5313 Q318.6563,109.6875 319.2188,109.9844 L319.2188,112.7031 Q318.5938,112.125 318,111.8594 Q317.4063,111.5781 316.7813,111.5781 Q315.4375,111.5781 314.75,112.6563 Q314.0625,113.7188 314.0625,115.8125 Q314.0625,117.9063 314.75,118.9844 Q315.4375,120.0469 316.7813,120.0469 Q317.4063,120.0469 318,119.7813 Q318.5938,119.5 319.2188,118.9219 L319.2188,121.6406 Z " fill="#000000"/><text fill="#000000" font-family="sans-serif" font-size="12" lengthAdjust="spacing" textLength="68" x="336.75" y="120.1543">Authorship</text><line style="stroke:#A80036;stroke-width:1.5;" x1="249.5" x2="459.5" y1="132" y2="132"/><text fill="#000000" font-family="sans-serif" font-size="11" lengthAdjust="spacing" textLength="200" x="254.5" y="146.2104">correspondingAuthorFlag : Boolean</text><!--MD5=[b821bb113f9f55c728f1fbb8949cc3af]
class Contributorship--><rect codeLine="38" fill="#FEFECE" filter="url(#f14naqwia2o67y)" height="65.6094" id="Contributorship" style="stroke:#A80036;stroke-width:1.5;" width="131" x="392" y="269.5"/><ellipse cx="407.9" cy="285.5" fill="#ADD1B2" rx="11" ry="11" style="stroke:#A80036;stroke-width:1.0;"/><path d="M410.8688,291.1406 Q410.2906,291.4375 409.65,291.5781 Q409.0094,291.7344 408.3063,291.7344 Q405.8063,291.7344 404.4781,290.0938 Q403.1656,288.4375 403.1656,285.3125 Q403.1656,282.1875 404.4781,280.5313 Q405.8063,278.875 408.3063,278.875 Q409.0094,278.875 409.65,279.0313 Q410.3063,279.1875 410.8688,279.4844 L410.8688,282.2031 Q410.2438,281.625 409.65,281.3594 Q409.0563,281.0781 408.4313,281.0781 Q407.0875,281.0781 406.4,282.1563 Q405.7125,283.2188 405.7125,285.3125 Q405.7125,287.4063 406.4,288.4844 Q407.0875,289.5469 408.4313,289.5469 Q409.0563,289.5469 409.65,289.2813 Q410.2438,289 410.8688,288.4219 L410.8688,291.1406 Z " fill="#000000"/><text fill="#000000" font-family="sans-serif" font-size="12" lengthAdjust="spacing" textLength="97" x="422.1" y="289.6543">Contributorship</text><line style="stroke:#A80036;stroke-width:1.5;" x1="393" x2="522" y1="301.5" y2="301.5"/><text fill="#000000" font-family="sans-serif" font-size="11" lengthAdjust="spacing" textLength="116" x="398" y="315.7104">contacts : List&lt;URI&gt;</text><text fill="#000000" font-family="sans-serif" font-size="11" lengthAdjust="spacing" textLength="119" x="398" y="328.5151">displayName : String</text><!--MD5=[532fe005ca0bef0ad6b309c9c6480e22]
class Contribution_Statement--><rect codeLine="42" fill="#FEFECE" filter="url(#f14naqwia2o67y)" height="32" id="Contribution_Statement" style="stroke:#A80036;stroke-width:1.5;" width="181" x="649" y="431"/><ellipse cx="664" cy="447" fill="#ADD1B2" rx="11" ry="11" style="stroke:#A80036;stroke-width:1.0;"/><path d="M666.9688,452.6406 Q666.3906,452.9375 665.75,453.0781 Q665.1094,453.2344 664.4063,453.2344 Q661.9063,453.2344 660.5781,451.5938 Q659.2656,449.9375 659.2656,446.8125 Q659.2656,443.6875 660.5781,442.0313 Q661.9063,440.375 664.4063,440.375 Q665.1094,440.375 665.75,440.5313 Q666.4063,440.6875 666.9688,440.9844 L666.9688,443.7031 Q666.3438,443.125 665.75,442.8594 Q665.1563,442.5781 664.5313,442.5781 Q663.1875,442.5781 662.5,443.6563 Q661.8125,444.7188 661.8125,446.8125 Q661.8125,448.9063 662.5,449.9844 Q663.1875,451.0469 664.5313,451.0469 Q665.1563,451.0469 665.75,450.7813 Q666.3438,450.5 666.9688,449.9219 L666.9688,452.6406 Z " fill="#000000"/><text fill="#000000" font-family="sans-serif" font-size="12" lengthAdjust="spacing" textLength="149" x="678" y="451.1543">Contribution_Statement</text><!--MD5=[75e6ee6f0cee60576da1adad405695b7]
class Free_Text_Contribution_Statement--><rect codeLine="44" fill="#FEFECE" filter="url(#f14naqwia2o67y)" height="52.8047" id="Free_Text_Contribution_Statement" style="stroke:#A80036;stroke-width:1.5;" width="247" x="684" y="563"/><ellipse cx="699" cy="579" fill="#ADD1B2" rx="11" ry="11" style="stroke:#A80036;stroke-width:1.0;"/><path d="M701.9688,584.6406 Q701.3906,584.9375 700.75,585.0781 Q700.1094,585.2344 699.4063,585.2344 Q696.9063,585.2344 695.5781,583.5938 Q694.2656,581.9375 694.2656,578.8125 Q694.2656,575.6875 695.5781,574.0313 Q696.9063,572.375 699.4063,572.375 Q700.1094,572.375 700.75,572.5313 Q701.4063,572.6875 701.9688,572.9844 L701.9688,575.7031 Q701.3438,575.125 700.75,574.8594 Q700.1563,574.5781 699.5313,574.5781 Q698.1875,574.5781 697.5,575.6563 Q696.8125,576.7188 696.8125,578.8125 Q696.8125,580.9063 697.5,581.9844 Q698.1875,583.0469 699.5313,583.0469 Q700.1563,583.0469 700.75,582.7813 Q701.3438,582.5 701.9688,581.9219 L701.9688,584.6406 Z " fill="#000000"/><text fill="#000000" font-family="sans-serif" font-size="12" lengthAdjust="spacing" textLength="215" x="713" y="583.1543">Free_Text_Contribution_Statement</text><line style="stroke:#A80036;stroke-width:1.5;" x1="685" x2="930" y1="595" y2="595"/><text fill="#000000" font-family="sans-serif" font-size="11" lengthAdjust="spacing" textLength="173" x="690" y="609.2104">statement : Multilingual_String</text><!--MD5=[ddbff00b4911ad4b77d6aa32dd14d1d7]
class Affiliation_Statement--><rect codeLine="47" fill="#FEFECE" filter="url(#f14naqwia2o67y)" height="65.6094" id="Affiliation_Statement" style="stroke:#A80036;stroke-width:1.5;" width="161" x="377" y="414"/><ellipse cx="392" cy="430" fill="#ADD1B2" rx="11" ry="11" style="stroke:#A80036;stroke-width:1.0;"/><path d="M394.9688,435.6406 Q394.3906,435.9375 393.75,436.0781 Q393.1094,436.2344 392.4063,436.2344 Q389.9063,436.2344 388.5781,434.5938 Q387.2656,432.9375 387.2656,429.8125 Q387.2656,426.6875 388.5781,425.0313 Q389.9063,423.375 392.4063,423.375 Q393.1094,423.375 393.75,423.5313 Q394.4063,423.6875 394.9688,423.9844 L394.9688,426.7031 Q394.3438,426.125 393.75,425.8594 Q393.1563,425.5781 392.5313,425.5781 Q391.1875,425.5781 390.5,426.6563 Q389.8125,427.7188 389.8125,429.8125 Q389.8125,431.9063 390.5,432.9844 Q391.1875,434.0469 392.5313,434.0469 Q393.1563,434.0469 393.75,433.7813 Q394.3438,433.5 394.9688,432.9219 L394.9688,435.6406 Z " fill="#000000"/><text fill="#000000" font-family="sans-serif" font-size="12" lengthAdjust="spacing" textLength="129" x="406" y="434.1543">Affiliation_Statement</text><line style="stroke:#A80036;stroke-width:1.5;" x1="378" x2="537" y1="446" y2="446"/><text fill="#000000" font-family="sans-serif" font-size="11" lengthAdjust="spacing" textLength="138" x="383" y="460.2104">displayAffiliation : String</text><text fill="#000000" font-family="sans-serif" font-size="11" lengthAdjust="spacing" textLength="147" x="383" y="473.0151">address : Postal_Address</text><!--MD5=[fe1d14fe6d68ca7e76eb34268c62a1f3]
class Postal_Address--><rect codeLine="51" fill="#FEFECE" filter="url(#f14naqwia2o67y)" height="97.1563" id="Postal_Address" style="stroke:#A80036;stroke-width:1.5;" width="171" x="478" y="541"/><ellipse cx="512.35" cy="559.9688" fill="#FF7700" rx="11" ry="11" style="stroke:#A80036;stroke-width:1.0;"/><path d="M511.9438,555.7813 L511.9438,563.7656 L512.6,563.7656 Q514.0375,563.7656 514.6469,562.8594 Q515.2719,561.9375 515.2719,559.7656 Q515.2719,557.5938 514.6469,556.6875 Q514.0375,555.7813 512.6,555.7813 L511.9438,555.7813 Z M509.4906,553.5781 L512.1156,553.5781 Q515.1469,553.5781 516.475,555.0313 Q517.8188,556.4688 517.8188,559.7656 Q517.8188,563.0625 516.475,564.5156 Q515.1469,565.9688 512.1156,565.9688 L509.4906,565.9688 L509.4906,553.5781 Z " fill="#000000"/><text fill="#000000" font-family="sans-serif" font-size="12" font-style="italic" lengthAdjust="spacing" textLength="74" x="541.65" y="557.1387">«DataType»</text><text fill="#000000" font-family="sans-serif" font-size="12" lengthAdjust="spacing" textLength="96" x="530.65" y="571.1074">Postal_Address</text><line style="stroke:#A80036;stroke-width:1.5;" x1="479" x2="648" y1="578.9375" y2="578.9375"/><text fill="#000000" font-family="sans-serif" font-size="11" lengthAdjust="spacing" textLength="149" x="484" y="593.1479">street : Multilingual_String</text><text fill="#000000" font-family="sans-serif" font-size="11" lengthAdjust="spacing" textLength="134" x="484" y="605.9526">city : Multilingual_String</text><text fill="#000000" font-family="sans-serif" font-size="11" lengthAdjust="spacing" textLength="159" x="484" y="618.7573">zipCode : Multilingual_String</text><text fill="#000000" font-family="sans-serif" font-size="11" lengthAdjust="spacing" textLength="98" x="484" y="631.562">country : Country</text><!--MD5=[deb4e1f6eb1e3c1256fdb830f96abfbb]
class Country--><rect codeLine="57" fill="#FEFECE" filter="url(#f14naqwia2o67y)" height="91.2188" id="Country" style="stroke:#A80036;stroke-width:1.5;" width="281" x="423" y="699"/><ellipse cx="535.25" cy="715" fill="#ADD1B2" rx="11" ry="11" style="stroke:#A80036;stroke-width:1.0;"/><path d="M538.2188,720.6406 Q537.6406,720.9375 537,721.0781 Q536.3594,721.2344 535.6563,721.2344 Q533.1563,721.2344 531.8281,719.5938 Q530.5156,717.9375 530.5156,714.8125 Q530.5156,711.6875 531.8281,710.0313 Q533.1563,708.375 535.6563,708.375 Q536.3594,708.375 537,708.5313 Q537.6563,708.6875 538.2188,708.9844 L538.2188,711.7031 Q537.5938,711.125 537,710.8594 Q536.4063,710.5781 535.7813,710.5781 Q534.4375,710.5781 533.75,711.6563 Q533.0625,712.7188 533.0625,714.8125 Q533.0625,716.9063 533.75,717.9844 Q534.4375,719.0469 535.7813,719.0469 Q536.4063,719.0469 537,718.7813 Q537.5938,718.5 538.2188,717.9219 L538.2188,720.6406 Z " fill="#000000"/><text fill="#000000" font-family="sans-serif" font-size="12" lengthAdjust="spacing" textLength="48" x="555.75" y="719.1543">Country</text><line style="stroke:#A80036;stroke-width:1.5;" x1="424" x2="703" y1="731" y2="731"/><text fill="#000000" font-family="sans-serif" font-size="11" lengthAdjust="spacing" textLength="147" x="429" y="745.2104">name : Multilingual_String</text><text fill="#000000" font-family="sans-serif" font-size="11" lengthAdjust="spacing" textLength="237" x="429" y="758.0151">iso3166alphaCode : ISO3166_Alpha_Code</text><text fill="#000000" font-family="sans-serif" font-size="11" lengthAdjust="spacing" textLength="269" x="429" y="770.8198">iso3166NumericCode : ISO3166_Numeric_Code</text><text fill="#000000" font-family="sans-serif" font-size="11" lengthAdjust="spacing" textLength="199" x="429" y="783.6245">euCountryCode : EU_Country_Code</text><path d="M6,252 L6,352.7969 A0,0 0 0 0 6,352.7969 L253,352.7969 A0,0 0 0 0 253,352.7969 L253,306.5 L287.82,302.5 L253,298.5 L253,262 L243,252 L6,252 A0,0 0 0 0 6,252 " fill="#FBFB77" filter="url(#f14naqwia2o67y)" style="stroke:#A80036;stroke-width:1.0;"/><path d="M243,252 L243,262 L253,262 L243,252 " fill="#FBFB77" style="stroke:#A80036;stroke-width:1.0;"/><text fill="#000000" font-family="sans-serif" font-size="13" lengthAdjust="spacing" textLength="222" x="12" y="269.0669">The Agent is mandatory for almost</text><text fill="#000000" font-family="sans-serif" font-size="13" lengthAdjust="spacing" textLength="210" x="12" y="284.1997">all subclasses of Contributorship,</text><text fill="#000000" font-family="sans-serif" font-size="13" lengthAdjust="spacing" textLength="203" x="12" y="299.3325">Reviewing is the exception if the</text><text fill="#000000" font-family="sans-serif" font-size="13" lengthAdjust="spacing" textLength="201" x="12" y="314.4653">reviewer's identity is concealed.</text><text fill="#000000" font-family="sans-serif" font-size="13" lengthAdjust="spacing" textLength="184" x="12" y="329.5981">Also useful when authors are</text><text fill="#000000" font-family="sans-serif" font-size="13" lengthAdjust="spacing" textLength="124" x="12" y="344.731">using pseudonyms.</text><!--MD5=[bf7e8cf64254ff374c5acfe277545dd5]
reverse link Postal_Address to Country--><path codeLine="66" d="M563.5,651.15 C563.5,667.06 563.5,683.92 563.5,698.83 " fill="none" id="Postal_Address-backto-Country" style="stroke:#A80036;stroke-width:1.0;"/><polygon fill="#FFFFFF" points="563.5,638.07,559.5,644.07,563.5,650.07,567.5,644.07,563.5,638.07" style="stroke:#A80036;stroke-width:1.0;"/><text fill="#000000" font-family="sans-serif" font-size="13" lengthAdjust="spacing" textLength="48" x="511.975" y="688.0812">country</text><!--MD5=[af6b79ce3af62c8c5ee779db9fbc8cf6]
link Affiliation_Statement to Postal_Address--><path codeLine="67" d="M481.82,480.23 C494.43,496.95 510.15,517.79 524.42,536.7 " fill="none" id="Affiliation_Statement-to-Postal_Address" style="stroke:#A80036;stroke-width:1.0;stroke-dasharray:7.0,7.0;"/><polygon fill="#A80036" points="527.63,540.96,525.4081,531.365,524.6209,536.9669,519.0191,536.1796,527.63,540.96" style="stroke:#A80036;stroke-width:1.0;"/><text fill="#000000" font-family="sans-serif" font-size="13" lengthAdjust="spacing" textLength="91" x="424.6788" y="529.7943">postalAddress</text><!--MD5=[fe03d2c8e9644e7513bef3a6fb6291e6]
reverse link Affiliation_Statement to Organisation_Unit--><path codeLine="68" d="M417.11,490.68 C399.67,514.29 381.15,542.83 370.48,562.97 " fill="none" id="Affiliation_Statement-backto-Organisation_Unit" style="stroke:#A80036;stroke-width:1.0;"/><polygon fill="#FFFFFF" points="425.02,480.23,418.2106,482.6031,417.7821,489.8014,424.5915,487.4284,425.02,480.23" style="stroke:#A80036;stroke-width:1.0;"/><text fill="#000000" font-family="sans-serif" font-size="13" lengthAdjust="spacing" textLength="47" x="319.4533" y="551.7821">orgUnit</text><!--MD5=[fe03d2c8e9644e7513bef3a6fb6291e6]
reverse link Affiliation_Statement to Organisation_Unit--><path codeLine="69" d="M440.9,491.64 C426.9,515.06 407.5,543.1 391.27,562.97 " fill="none" id="Affiliation_Statement-backto-Organisation_Unit-1" style="stroke:#A80036;stroke-width:1.0;"/><polygon fill="#FFFFFF" points="447.5,480.23,441.0327,483.4197,441.4896,490.6163,447.9569,487.4266,447.5,480.23" style="stroke:#A80036;stroke-width:1.0;"/><text fill="#000000" font-family="sans-serif" font-size="13" lengthAdjust="spacing" textLength="63" x="405.7171" y="551.7821">institution</text><!--MD5=[21f8b3605054312288eb3132d9b75edc]
reverse link Contribution_Statement to Free_Text_Contribution_Statement--><path codeLine="70" d="M755.56,481.19 C767.66,506.19 784.01,539.97 795.11,562.91 " fill="none" id="Contribution_Statement-backto-Free_Text_Contribution_Statement" style="stroke:#A80036;stroke-width:1.0;"/><polygon fill="none" points="749.19,484.09,746.78,463.04,761.79,477.99,749.19,484.09" style="stroke:#A80036;stroke-width:1.0;"/><!--MD5=[1f014480a3afa8c0325c3be3fbf7ad6f]
link Contributorship to Document--><path codeLine="71" d="M523.12,302.5 C530.42,302.5 537.72,302.5 545.02,302.5 " fill="none" id="Contributorship-to-Document" style="stroke:#A80036;stroke-width:1.0;"/><polygon fill="#A80036" points="558.16,302.5,552.16,298.5,546.16,302.5,552.16,306.5,558.16,302.5" style="stroke:#A80036;stroke-width:1.0;"/><!--MD5=[504de05de5dc33320621ff1be2e6e6ff]
reverse link Agent to Contributorship--><path codeLine="72" d="M370.14,302.5 C377.41,302.5 384.69,302.5 391.97,302.5 " fill="none" id="Agent-backto-Contributorship" style="stroke:#A80036;stroke-width:1.0;"/><polygon fill="#FFFFFF" points="357.04,302.5,363.04,306.5,369.04,302.5,363.04,298.5,357.04,302.5" style="stroke:#A80036;stroke-width:1.0;"/><!--MD5=[d50a95e3ddb5a3ed983c7b2ff4649bd6]
reverse link Contributorship to Affiliation_Statement--><path codeLine="73" d="M457.5,349.09 C457.5,370.16 457.5,394.69 457.5,413.79 " fill="none" id="Contributorship-backto-Affiliation_Statement" style="stroke:#A80036;stroke-width:1.0;"/><polygon fill="#FFFFFF" points="457.5,335.84,453.5,341.84,457.5,347.84,461.5,341.84,457.5,335.84" style="stroke:#A80036;stroke-width:1.0;"/><text fill="#000000" font-family="sans-serif" font-size="13" lengthAdjust="spacing" textLength="64" x="387.2" y="402.8936">affiliations</text><!--MD5=[aa65b9840c4d4bb6ada386eeadadc345]
reverse link Contributorship to Contribution_Statement--><path codeLine="74" d="M522.05,342.35 C528.57,346.03 535.14,349.64 541.5,353 C597.75,382.7 665.16,413.35 705.04,430.99 " fill="none" id="Contributorship-backto-Contribution_Statement" style="stroke:#A80036;stroke-width:1.0;"/><polygon fill="#FFFFFF" points="510.4,335.68,513.6214,342.1316,520.8157,341.6393,517.5943,335.1878,510.4,335.68" style="stroke:#A80036;stroke-width:1.0;"/><text fill="#000000" font-family="sans-serif" font-size="13" lengthAdjust="spacing" textLength="152" x="545.9573" y="412.7584">contributionStatements</text><!--MD5=[db20fd804d8595e73b6b8c99fdd1338c]
link Authorship to Textual_Document--><path codeLine="76" d="M460.74,126.5 C468,126.5 475.26,126.5 482.51,126.5 " fill="none" id="Authorship-to-Textual_Document" style="stroke:#A80036;stroke-width:1.0;"/><polygon fill="#A80036" points="495.58,126.5,489.58,122.5,483.58,126.5,489.58,130.5,495.58,126.5" style="stroke:#A80036;stroke-width:1.0;"/><!--MD5=[e74e4958a1d7eb99db8e977d8859ba66]
link Authorship to Contributorship--><path codeLine="77" d="M436.37,153.14 C449.14,160.73 460.68,170.5 468.5,183 C480.77,202.62 480.2,227.74 475.68,249.81 " fill="none" id="Authorship-to-Contributorship" style="stroke:#A80036;stroke-width:1.0;"/><polygon fill="none" points="482.39,251.78,470.54,269.35,468.85,248.23,482.39,251.78" style="stroke:#A80036;stroke-width:1.0;"/><!--MD5=[49125a4ba45432b051dcbcd9e53401d7]
link Authorship to Agent--><path codeLine="78" d="M312.07,153.16 C302.18,161.36 292.96,171.38 287.5,183 C273.29,213.22 289.31,250.52 304.05,275.1 " fill="none" id="Authorship-to-Agent" style="stroke:#A80036;stroke-width:1.0;"/><polygon fill="#FFFFFF" points="311.25,286.38,311.3906,279.1703,304.7896,276.2675,304.649,283.4772,311.25,286.38" style="stroke:#A80036;stroke-width:1.0;"/><path d="M292.5,188 L292.5,213 L455.5,213 L455.5,198 L445.5,188 L292.5,188 " fill="#FFFF00" filter="url(#f14naqwia2o67y)" style="stroke:#A80036;stroke-width:1.0;"/><path d="M445.5,188 L445.5,198 L455.5,198 L445.5,188 " fill="#FFFF00" style="stroke:#A80036;stroke-width:1.0;"/><text fill="#000000" font-family="sans-serif" font-size="13" lengthAdjust="spacing" textLength="142" x="298.5" y="205.0669">author == contributor</text><text fill="#000000" font-family="sans-serif" font-size="13" lengthAdjust="spacing" textLength="42" x="260.8389" y="287.1161">author</text><!--MD5=[5d8901ce694eb85aefa78b7d82d9f6f6]
link Person to Person_Name--><path codeLine="81" d="M182.41,480.23 C176.63,498.68 169.28,522.14 162.91,542.5 " fill="none" id="Person-to-Person_Name" style="stroke:#A80036;stroke-width:1.0;stroke-dasharray:7.0,7.0;"/><polygon fill="#A80036" points="161.39,547.33,167.905,539.9439,162.8895,542.5601,160.2732,537.5447,161.39,547.33" style="stroke:#A80036;stroke-width:1.0;"/><text fill="#000000" font-family="sans-serif" font-size="13" lengthAdjust="spacing" textLength="37" x="123.4959" y="536.4633">name</text><!--MD5=[de96f77e660762cb21a195b4097c3876]
reverse link Agent to Person--><path codeLine="82" d="M294.96,333.68 C273.53,357.18 243.83,389.73 221.93,413.74 " fill="none" id="Agent-backto-Person" style="stroke:#A80036;stroke-width:1.0;"/><polygon fill="none" points="289.94,328.81,308.59,318.75,300.28,338.24,289.94,328.81" style="stroke:#A80036;stroke-width:1.0;"/><!--MD5=[521d3f26cc3887ed8885a4c0e03f9952]
reverse link Agent to Organisation_Unit--><path codeLine="83" d="M327.57,338.72 C335.94,396.93 352.47,511.83 359.82,562.94 " fill="none" id="Agent-backto-Organisation_Unit" style="stroke:#A80036;stroke-width:1.0;"/><polygon fill="none" points="320.62,339.62,324.7,318.82,334.48,337.62,320.62,339.62" style="stroke:#A80036;stroke-width:1.0;"/><!--MD5=[8d9b790276a1e6c61f0b091de629785c]
link Textual_Document to Document--><path codeLine="85" d="M574.98,142.64 C583.14,165.17 598.91,208.73 611.88,244.54 " fill="none" id="Textual_Document-to-Document" style="stroke:#A80036;stroke-width:1.0;"/><polygon fill="none" points="618.5,242.27,618.73,263.46,605.34,247.03,618.5,242.27" style="stroke:#A80036;stroke-width:1.0;"/><!--MD5=[c0a805770ea07def151bfb445be554f3]
link Textual_Document_Accessibility_Specification to Textual_Document--><path codeLine="86" d="M569.5,39.42 C569.5,54.71 569.5,78.49 569.5,97.19 " fill="none" id="Textual_Document_Accessibility_Specification-to-Textual_Document" style="stroke:#A80036;stroke-width:1.0;"/><polygon fill="#A80036" points="569.5,110.27,573.5,104.27,569.5,98.27,565.5,104.27,569.5,110.27" style="stroke:#A80036;stroke-width:1.0;"/><text fill="#000000" font-family="sans-serif" font-size="13" lengthAdjust="spacing" textLength="83" x="473.2719" y="59.1326">accessRights</text><!--MD5=[3bc04dee94cc69985a1813f74705f429]
reverse link Textual_Document to Agent--><path codeLine="87" d="M549.55,152.78 C531.52,174.05 503.16,203.84 472.5,222 C433.31,245.21 413.83,229.02 374.5,252 C359.22,260.93 344.89,275.18 335.16,286.11 " fill="none" id="Textual_Document-backto-Agent" style="stroke:#A80036;stroke-width:1.0;"/><polygon fill="#A80036" points="558,142.53,551.0965,144.6136,550.3646,151.7875,557.2681,149.7039,558,142.53" style="stroke:#A80036;stroke-width:1.0;"/><text fill="#000000" font-family="sans-serif" font-size="13" lengthAdjust="spacing" textLength="49" x="282.238" y="275.2853">authors</text><!--MD5=[0937c1285703b421bbbe9f9bf2fdbe21]
@startuml
	!startsub common
	!define datatype(x) class x << (D,#FF7700) DataType>>
	hide empty members
	!endsub

    !startsub Contributorship
    class "Document"{
        title : Multilingual_String
        publicationDate : Date 
        doi : DOI
    }
    !endsub
    class "Textual_Document"{
    }
    class "Textual_Document_Accessibility_Specification"{
    }
    !startsub Agent
    class "Agent"{

    }
    class "Organisation_Unit"{
        name : Multilingual_String
    }
    class "Person"{
        name : Person_Name
        orcidId : ORCID_iD
    }
    datatype("Person_Name") {
        firstNames : Multilingual_String
        familyNames : Multilingual_String
        otherNames : Multilingual_String
    } 
    !endsub
    class "Authorship"{
        correspondingAuthorFlag : Boolean 
    }
    !startsub Contributorship
    class "Contributorship"{
        contacts : List<URI> 
        displayName : String
    }
    class "Contribution_Statement"{
    }
    class "Free_Text_Contribution_Statement"{
        statement : Multilingual_String
    }
    class "Affiliation_Statement"{
        displayAffiliation : String 
        address : Postal_Address
    }
    datatype("Postal_Address") {
        street : Multilingual_String 
        city : Multilingual_String
        zipCode : Multilingual_String 
        country : Country
    }
    class "Country"{
        name : Multilingual_String
        iso3166alphaCode : ISO3166_Alpha_Code
        iso3166NumericCode : ISO3166_Numeric_Code
        euCountryCode : EU_Country_Code
    }
    !endsub

!startsub Contributorship
"Postal_Address" o- - "country" "Country"
"Affiliation_Statement" ..> "postalAddress" "Postal_Address"
"Affiliation_Statement" o- - "orgUnit" "Organisation_Unit"
"Affiliation_Statement" o- - "institution" "Organisation_Unit"
"Contribution_Statement" <|- - "Free_Text_Contribution_Statement"
"Contributorship" -r-* "Document"
"Contributorship" -l-o "Agent"
"Contributorship" o- - "affiliations" "Affiliation_Statement"
"Contributorship" o- - "contributionStatements" "Contribution_Statement"
!endsub
"Authorship" -r-* "Textual_Document"
"Contributorship" <|-u- "Authorship"
"Authorship" - -o "author" "Agent"
note on link #yellow: author == contributor
!startsub Agent
"Person" .d.> "name" "Person_Name"
"Agent" <|-d- "Person"
"Agent" <|-d- "Organisation_Unit"
!endsub
"Document" <|-u- "Textual_Document"
"Textual_Document" *-u- "accessRights" "Textual_Document_Accessibility_Specification"
"Textual_Document" *- -  "authors" "Agent"

note left of Agent: The Agent is mandatory for almost \nall subclasses of Contributorship,\nReviewing is the exception if the \nreviewer's identity is concealed. \nAlso useful when authors are \nusing pseudonyms.
@enduml

@startuml
	hide empty members

    class "Document"{
        title : Multilingual_String
        publicationDate : Date 
        doi : DOI
    }
    class "Textual_Document"{
    }
    class "Textual_Document_Accessibility_Specification"{
    }
    class "Agent"{

    }
    class "Organisation_Unit"{
        name : Multilingual_String
    }
    class "Person"{
        name : Person_Name
        orcidId : ORCID_iD
    }
    class Person_Name << (D,#FF7700) DataType>> {
        firstNames : Multilingual_String
        familyNames : Multilingual_String
        otherNames : Multilingual_String
    } 
    class "Authorship"{
        correspondingAuthorFlag : Boolean 
    }
    class "Contributorship"{
        contacts : List<URI> 
        displayName : String
    }
    class "Contribution_Statement"{
    }
    class "Free_Text_Contribution_Statement"{
        statement : Multilingual_String
    }
    class "Affiliation_Statement"{
        displayAffiliation : String 
        address : Postal_Address
    }
    class Postal_Address << (D,#FF7700) DataType>> {
        street : Multilingual_String 
        city : Multilingual_String
        zipCode : Multilingual_String 
        country : Country
    }
    class "Country"{
        name : Multilingual_String
        iso3166alphaCode : ISO3166_Alpha_Code
        iso3166NumericCode : ISO3166_Numeric_Code
        euCountryCode : EU_Country_Code
    }

"Postal_Address" o- - "country" "Country"
"Affiliation_Statement" ..> "postalAddress" "Postal_Address"
"Affiliation_Statement" o- - "orgUnit" "Organisation_Unit"
"Affiliation_Statement" o- - "institution" "Organisation_Unit"
"Contribution_Statement" <|- - "Free_Text_Contribution_Statement"
"Contributorship" -r-* "Document"
"Contributorship" -l-o "Agent"
"Contributorship" o- - "affiliations" "Affiliation_Statement"
"Contributorship" o- - "contributionStatements" "Contribution_Statement"
"Authorship" -r-* "Textual_Document"
"Contributorship" <|-u- "Authorship"
"Authorship" - -o "author" "Agent"
note on link #yellow: author == contributor
"Person" .d.> "name" "Person_Name"
"Agent" <|-d- "Person"
"Agent" <|-d- "Organisation_Unit"
"Document" <|-u- "Textual_Document"
"Textual_Document" *-u- "accessRights" "Textual_Document_Accessibility_Specification"
"Textual_Document" *- -  "authors" "Agent"

note left of Agent: The Agent is mandatory for almost \nall subclasses of Contributorship,\nReviewing is the exception if the \nreviewer's identity is concealed. \nAlso useful when authors are \nusing pseudonyms.
@enduml

PlantUML version 1.2021.8(Sat Jun 26 08:20:59 UTC 2021)
(GPL source distribution)
Java Runtime: OpenJDK Runtime Environment
JVM: OpenJDK 64-Bit Server VM
Default Encoding: UTF-8
Language: en
Country: null
--></g></svg>