<?xml version="1.0" encoding="UTF-8" standalone="no"?><svg xmlns="http://www.w3.org/2000/svg" xmlns:xlink="http://www.w3.org/1999/xlink" contentScriptType="application/ecmascript" contentStyleType="text/css" height="1613px" preserveAspectRatio="none" style="width:1344px;height:1613px;background:#FFFFFF;" version="1.1" viewBox="0 0 1344 1613" width="1344px" zoomAndPan="magnify"><defs><filter height="300%" id="fdcjvq8kklbx6" width="300%" x="-1" y="-1"><feGaussianBlur result="blurOut" stdDeviation="2.0"/><feColorMatrix in="blurOut" result="blurOut2" type="matrix" values="0 0 0 0 0 0 0 0 0 0 0 0 0 0 0 0 0 0 .4 0"/><feOffset dx="4.0" dy="4.0" in="blurOut2" result="blurOut3"/><feBlend in="SourceGraphic" in2="blurOut3" mode="normal"/></filter></defs><g><!--MD5=[59b530d44ae785dc18db921986a9c15c]
class Document--><rect codeLine="8" fill="#FFFFFF" filter="url(#fdcjvq8kklbx6)" height="81.5078" id="Document" style="stroke:#A80036;stroke-width:1.5;" width="122" x="836.7875" y="358"/><ellipse cx="866.6375" cy="374" fill="#ADD1B2" rx="11" ry="11" style="stroke:#A80036;stroke-width:1.0;"/><path d="M869.4031,369.875 Q869.5594,369.6563 869.7469,369.5469 Q869.9344,369.4375 870.1531,369.4375 Q870.5281,369.4375 870.7625,369.7031 Q870.9969,369.9531 870.9969,370.5625 L870.9969,372.0156 Q870.9969,372.625 870.7625,372.8906 Q870.5281,373.1563 870.1531,373.1563 Q869.8094,373.1563 869.6063,372.9531 Q869.4031,372.7656 869.2938,372.25 Q869.2469,371.8906 869.0594,371.7031 Q868.7313,371.3281 868.1219,371.1094 Q867.5125,370.8906 866.8875,370.8906 Q866.1219,370.8906 865.4813,371.2188 Q864.8563,371.5469 864.3563,372.2969 Q863.8719,373.0469 863.8719,374.0781 L863.8719,375.1719 Q863.8719,376.4063 864.7625,377.2344 Q865.6531,378.0469 867.2469,378.0469 Q868.1844,378.0469 868.8406,377.7969 Q869.2313,377.6406 869.6531,377.2031 Q869.9188,376.9375 870.0594,376.8594 Q870.2156,376.7813 870.4188,376.7813 Q870.7469,376.7813 870.9969,377.0469 Q871.2625,377.2969 871.2625,377.6406 Q871.2625,377.9844 870.9188,378.3906 Q870.4188,378.9688 869.6219,379.2969 Q868.5438,379.75 867.2469,379.75 Q865.7313,379.75 864.5281,379.125 Q863.5438,378.625 862.8563,377.5625 Q862.1688,376.4844 862.1688,375.2031 L862.1688,374.0469 Q862.1688,372.7188 862.7781,371.5781 Q863.4031,370.4219 864.4969,369.8125 Q865.5906,369.1875 866.825,369.1875 Q867.5594,369.1875 868.2,369.3594 Q868.8563,369.5156 869.4031,369.875 Z " fill="#000000"/><text fill="#000000" font-family="sans-serif" font-size="12" lengthAdjust="spacing" textLength="57" x="883.9375" y="378.9102">Document</text><line style="stroke:#A80036;stroke-width:1.5;" x1="837.7875" x2="957.7875" y1="390" y2="390"/><text fill="#000000" font-family="sans-serif" font-size="11" lengthAdjust="spacing" textLength="73" x="842.7875" y="405.4189">DOI : DOI_Type</text><text fill="#000000" font-family="sans-serif" font-size="11" lengthAdjust="spacing" textLength="110" x="842.7875" y="419.2549">title : Multilingual_String</text><text fill="#000000" font-family="sans-serif" font-size="11" lengthAdjust="spacing" textLength="104" x="842.7875" y="433.0908">publicationDate : Date</text><!--MD5=[fe105c2ee1fabf2400c31a97ce9128bc]
class Textual_Document--><rect codeLine="13" fill="#FFFFFF" filter="url(#fdcjvq8kklbx6)" height="32" id="Textual_Document" style="stroke:#A80036;stroke-width:1.5;" width="135" x="806.2875" y="501"/><ellipse cx="821.2875" cy="517" fill="#ADD1B2" rx="11" ry="11" style="stroke:#A80036;stroke-width:1.0;"/><path d="M824.0531,512.875 Q824.2094,512.6563 824.3969,512.5469 Q824.5844,512.4375 824.8031,512.4375 Q825.1781,512.4375 825.4125,512.7031 Q825.6469,512.9531 825.6469,513.5625 L825.6469,515.0156 Q825.6469,515.625 825.4125,515.8906 Q825.1781,516.1563 824.8031,516.1563 Q824.4594,516.1563 824.2563,515.9531 Q824.0531,515.7656 823.9438,515.25 Q823.8969,514.8906 823.7094,514.7031 Q823.3813,514.3281 822.7719,514.1094 Q822.1625,513.8906 821.5375,513.8906 Q820.7719,513.8906 820.1313,514.2188 Q819.5063,514.5469 819.0063,515.2969 Q818.5219,516.0469 818.5219,517.0781 L818.5219,518.1719 Q818.5219,519.4063 819.4125,520.2344 Q820.3031,521.0469 821.8969,521.0469 Q822.8344,521.0469 823.4906,520.7969 Q823.8813,520.6406 824.3031,520.2031 Q824.5688,519.9375 824.7094,519.8594 Q824.8656,519.7813 825.0688,519.7813 Q825.3969,519.7813 825.6469,520.0469 Q825.9125,520.2969 825.9125,520.6406 Q825.9125,520.9844 825.5688,521.3906 Q825.0688,521.9688 824.2719,522.2969 Q823.1938,522.75 821.8969,522.75 Q820.3813,522.75 819.1781,522.125 Q818.1938,521.625 817.5063,520.5625 Q816.8188,519.4844 816.8188,518.2031 L816.8188,517.0469 Q816.8188,515.7188 817.4281,514.5781 Q818.0531,513.4219 819.1469,512.8125 Q820.2406,512.1875 821.475,512.1875 Q822.2094,512.1875 822.85,512.3594 Q823.5063,512.5156 824.0531,512.875 Z " fill="#000000"/><text fill="#000000" font-family="sans-serif" font-size="12" lengthAdjust="spacing" textLength="103" x="835.2875" y="521.9102">Textual_Document</text><!--MD5=[152f153d79baedb26b20a34b9b1b571f]
class Textual_Document_Accessibility_Specification--><rect codeLine="18" fill="#FFFFFF" filter="url(#fdcjvq8kklbx6)" height="32" id="Textual_Document_Accessibility_Specification" style="stroke:#A80036;stroke-width:1.5;" width="286" x="720.7875" y="633"/><ellipse cx="735.7875" cy="649" fill="#ADD1B2" rx="11" ry="11" style="stroke:#A80036;stroke-width:1.0;"/><path d="M738.5531,644.875 Q738.7094,644.6563 738.8969,644.5469 Q739.0844,644.4375 739.3031,644.4375 Q739.6781,644.4375 739.9125,644.7031 Q740.1469,644.9531 740.1469,645.5625 L740.1469,647.0156 Q740.1469,647.625 739.9125,647.8906 Q739.6781,648.1563 739.3031,648.1563 Q738.9594,648.1563 738.7563,647.9531 Q738.5531,647.7656 738.4438,647.25 Q738.3969,646.8906 738.2094,646.7031 Q737.8813,646.3281 737.2719,646.1094 Q736.6625,645.8906 736.0375,645.8906 Q735.2719,645.8906 734.6313,646.2188 Q734.0063,646.5469 733.5063,647.2969 Q733.0219,648.0469 733.0219,649.0781 L733.0219,650.1719 Q733.0219,651.4063 733.9125,652.2344 Q734.8031,653.0469 736.3969,653.0469 Q737.3344,653.0469 737.9906,652.7969 Q738.3813,652.6406 738.8031,652.2031 Q739.0688,651.9375 739.2094,651.8594 Q739.3656,651.7813 739.5688,651.7813 Q739.8969,651.7813 740.1469,652.0469 Q740.4125,652.2969 740.4125,652.6406 Q740.4125,652.9844 740.0688,653.3906 Q739.5688,653.9688 738.7719,654.2969 Q737.6938,654.75 736.3969,654.75 Q734.8813,654.75 733.6781,654.125 Q732.6938,653.625 732.0063,652.5625 Q731.3188,651.4844 731.3188,650.2031 L731.3188,649.0469 Q731.3188,647.7188 731.9281,646.5781 Q732.5531,645.4219 733.6469,644.8125 Q734.7406,644.1875 735.975,644.1875 Q736.7094,644.1875 737.35,644.3594 Q738.0063,644.5156 738.5531,644.875 Z " fill="#000000"/><text fill="#000000" font-family="sans-serif" font-size="12" lengthAdjust="spacing" textLength="254" x="749.7875" y="653.9102">Textual_Document_Accessibility_Specification</text><!--MD5=[9d44916250b776386006c440668bcfbb]
class Agent--><rect codeLine="23" fill="#FFFFFF" filter="url(#fdcjvq8kklbx6)" height="32" id="Agent" style="stroke:#A80036;stroke-width:1.5;" width="63" x="1022.2875" y="764"/><ellipse cx="1037.2875" cy="780" fill="#ADD1B2" rx="11" ry="11" style="stroke:#A80036;stroke-width:1.0;"/><path d="M1040.0531,775.875 Q1040.2094,775.6563 1040.3969,775.5469 Q1040.5844,775.4375 1040.8031,775.4375 Q1041.1781,775.4375 1041.4125,775.7031 Q1041.6469,775.9531 1041.6469,776.5625 L1041.6469,778.0156 Q1041.6469,778.625 1041.4125,778.8906 Q1041.1781,779.1563 1040.8031,779.1563 Q1040.4594,779.1563 1040.2563,778.9531 Q1040.0531,778.7656 1039.9438,778.25 Q1039.8969,777.8906 1039.7094,777.7031 Q1039.3813,777.3281 1038.7719,777.1094 Q1038.1625,776.8906 1037.5375,776.8906 Q1036.7719,776.8906 1036.1313,777.2188 Q1035.5063,777.5469 1035.0063,778.2969 Q1034.5219,779.0469 1034.5219,780.0781 L1034.5219,781.1719 Q1034.5219,782.4063 1035.4125,783.2344 Q1036.3031,784.0469 1037.8969,784.0469 Q1038.8344,784.0469 1039.4906,783.7969 Q1039.8813,783.6406 1040.3031,783.2031 Q1040.5688,782.9375 1040.7094,782.8594 Q1040.8656,782.7813 1041.0688,782.7813 Q1041.3969,782.7813 1041.6469,783.0469 Q1041.9125,783.2969 1041.9125,783.6406 Q1041.9125,783.9844 1041.5688,784.3906 Q1041.0688,784.9688 1040.2719,785.2969 Q1039.1938,785.75 1037.8969,785.75 Q1036.3813,785.75 1035.1781,785.125 Q1034.1938,784.625 1033.5063,783.5625 Q1032.8188,782.4844 1032.8188,781.2031 L1032.8188,780.0469 Q1032.8188,778.7188 1033.4281,777.5781 Q1034.0531,776.4219 1035.1469,775.8125 Q1036.2406,775.1875 1037.475,775.1875 Q1038.2094,775.1875 1038.85,775.3594 Q1039.5063,775.5156 1040.0531,775.875 Z " fill="#000000"/><text fill="#000000" font-family="sans-serif" font-size="12" lengthAdjust="spacing" textLength="31" x="1051.2875" y="784.9102">Agent</text><!--MD5=[779f3743e425ed8a6f0bf188ddea4860]
class Organisation_Unit--><rect codeLine="28" fill="#FFFFFF" filter="url(#fdcjvq8kklbx6)" height="123.0156" id="Organisation_Unit" style="stroke:#A80036;stroke-width:1.5;" width="138" x="1086.7875" y="1175"/><ellipse cx="1104.4875" cy="1191" fill="#ADD1B2" rx="11" ry="11" style="stroke:#A80036;stroke-width:1.0;"/><path d="M1107.2531,1186.875 Q1107.4094,1186.6563 1107.5969,1186.5469 Q1107.7844,1186.4375 1108.0031,1186.4375 Q1108.3781,1186.4375 1108.6125,1186.7031 Q1108.8469,1186.9531 1108.8469,1187.5625 L1108.8469,1189.0156 Q1108.8469,1189.625 1108.6125,1189.8906 Q1108.3781,1190.1563 1108.0031,1190.1563 Q1107.6594,1190.1563 1107.4563,1189.9531 Q1107.2531,1189.7656 1107.1438,1189.25 Q1107.0969,1188.8906 1106.9094,1188.7031 Q1106.5813,1188.3281 1105.9719,1188.1094 Q1105.3625,1187.8906 1104.7375,1187.8906 Q1103.9719,1187.8906 1103.3313,1188.2188 Q1102.7063,1188.5469 1102.2063,1189.2969 Q1101.7219,1190.0469 1101.7219,1191.0781 L1101.7219,1192.1719 Q1101.7219,1193.4063 1102.6125,1194.2344 Q1103.5031,1195.0469 1105.0969,1195.0469 Q1106.0344,1195.0469 1106.6906,1194.7969 Q1107.0813,1194.6406 1107.5031,1194.2031 Q1107.7688,1193.9375 1107.9094,1193.8594 Q1108.0656,1193.7813 1108.2688,1193.7813 Q1108.5969,1193.7813 1108.8469,1194.0469 Q1109.1125,1194.2969 1109.1125,1194.6406 Q1109.1125,1194.9844 1108.7688,1195.3906 Q1108.2688,1195.9688 1107.4719,1196.2969 Q1106.3938,1196.75 1105.0969,1196.75 Q1103.5813,1196.75 1102.3781,1196.125 Q1101.3938,1195.625 1100.7063,1194.5625 Q1100.0188,1193.4844 1100.0188,1192.2031 L1100.0188,1191.0469 Q1100.0188,1189.7188 1100.6281,1188.5781 Q1101.2531,1187.4219 1102.3469,1186.8125 Q1103.4406,1186.1875 1104.675,1186.1875 Q1105.4094,1186.1875 1106.05,1186.3594 Q1106.7063,1186.5156 1107.2531,1186.875 Z " fill="#000000"/><text fill="#000000" font-family="sans-serif" font-size="12" lengthAdjust="spacing" textLength="100" x="1119.0875" y="1195.9102">Organisation_Unit</text><line style="stroke:#A80036;stroke-width:1.5;" x1="1087.7875" x2="1223.7875" y1="1207" y2="1207"/><text fill="#000000" font-family="sans-serif" font-size="11" lengthAdjust="spacing" textLength="120" x="1092.7875" y="1222.4189">name : Multilingual_String</text><text fill="#000000" font-family="sans-serif" font-size="11" lengthAdjust="spacing" textLength="79" x="1092.7875" y="1236.2549">acronym : String</text><text fill="#000000" font-family="sans-serif" font-size="11" lengthAdjust="spacing" textLength="126" x="1092.7875" y="1250.0908">address : Postal_Address</text><text fill="#000000" font-family="sans-serif" font-size="11" lengthAdjust="spacing" textLength="67" x="1092.7875" y="1263.9268">rorId : ROR_Id</text><text fill="#000000" font-family="sans-serif" font-size="11" lengthAdjust="spacing" textLength="89" x="1092.7875" y="1277.7627">webSiteURL : URL</text><text fill="#000000" font-family="sans-serif" font-size="11" lengthAdjust="spacing" textLength="53" x="1092.7875" y="1291.5986">email : URL</text><!--MD5=[09ce52be0ee7de43c61b6e2d59bf108b]
class Person--><rect codeLine="39" fill="#FFFFFF" filter="url(#fdcjvq8kklbx6)" height="67.6719" id="Person" style="stroke:#A80036;stroke-width:1.5;" width="114" x="996.7875" y="895"/><ellipse cx="1030.6875" cy="911" fill="#ADD1B2" rx="11" ry="11" style="stroke:#A80036;stroke-width:1.0;"/><path d="M1033.4531,906.875 Q1033.6094,906.6563 1033.7969,906.5469 Q1033.9844,906.4375 1034.2031,906.4375 Q1034.5781,906.4375 1034.8125,906.7031 Q1035.0469,906.9531 1035.0469,907.5625 L1035.0469,909.0156 Q1035.0469,909.625 1034.8125,909.8906 Q1034.5781,910.1563 1034.2031,910.1563 Q1033.8594,910.1563 1033.6563,909.9531 Q1033.4531,909.7656 1033.3438,909.25 Q1033.2969,908.8906 1033.1094,908.7031 Q1032.7813,908.3281 1032.1719,908.1094 Q1031.5625,907.8906 1030.9375,907.8906 Q1030.1719,907.8906 1029.5313,908.2188 Q1028.9063,908.5469 1028.4063,909.2969 Q1027.9219,910.0469 1027.9219,911.0781 L1027.9219,912.1719 Q1027.9219,913.4063 1028.8125,914.2344 Q1029.7031,915.0469 1031.2969,915.0469 Q1032.2344,915.0469 1032.8906,914.7969 Q1033.2813,914.6406 1033.7031,914.2031 Q1033.9688,913.9375 1034.1094,913.8594 Q1034.2656,913.7813 1034.4688,913.7813 Q1034.7969,913.7813 1035.0469,914.0469 Q1035.3125,914.2969 1035.3125,914.6406 Q1035.3125,914.9844 1034.9688,915.3906 Q1034.4688,915.9688 1033.6719,916.2969 Q1032.5938,916.75 1031.2969,916.75 Q1029.7813,916.75 1028.5781,916.125 Q1027.5938,915.625 1026.9063,914.5625 Q1026.2188,913.4844 1026.2188,912.2031 L1026.2188,911.0469 Q1026.2188,909.7188 1026.8281,908.5781 Q1027.4531,907.4219 1028.5469,906.8125 Q1029.6406,906.1875 1030.875,906.1875 Q1031.6094,906.1875 1032.25,906.3594 Q1032.9063,906.5156 1033.4531,906.875 Z " fill="#000000"/><text fill="#000000" font-family="sans-serif" font-size="12" lengthAdjust="spacing" textLength="40" x="1048.8875" y="915.9102">Person</text><line style="stroke:#A80036;stroke-width:1.5;" x1="997.7875" x2="1109.7875" y1="927" y2="927"/><text fill="#000000" font-family="sans-serif" font-size="11" lengthAdjust="spacing" textLength="102" x="1002.7875" y="942.4189">name : Person_Name</text><text fill="#000000" font-family="sans-serif" font-size="11" lengthAdjust="spacing" textLength="87" x="1002.7875" y="956.2549">orcidId : ORCID_iD</text><!--MD5=[7b209ef07eb91b93e0aebc9fe4fb9a26]
class Person_Name--><rect codeLine="44" fill="#FFFFFF" filter="url(#fdcjvq8kklbx6)" height="89.6953" id="Person_Name" style="stroke:#A80036;stroke-width:1.5;" width="167" x="958.2875" y="1024"/><ellipse cx="997.5875" cy="1044.0938" fill="#ADD0B2" rx="11" ry="11" style="stroke:#A80036;stroke-width:1.0;"/><path d="M995.1344,1047.3906 L995.1344,1040.7344 Q994.5875,1040.7188 994.3219,1040.4844 Q994.0719,1040.25 994.0719,1039.875 Q994.0719,1039.5 994.3375,1039.2656 Q994.6031,1039.0313 995.2125,1039.0313 L998.775,1039.0313 Q999.6031,1039.0313 1000.4,1039.3438 Q1001.1969,1039.6406 1001.6813,1040.125 Q1002.0406,1040.4844 1002.4313,1041.1094 Q1002.8219,1041.7188 1003.025,1042.3438 Q1003.2281,1042.9531 1003.2281,1043.8438 L1003.2281,1044.6563 Q1003.2281,1045.7344 1002.8531,1046.5781 Q1002.4938,1047.4063 1001.9,1047.9375 Q1001.3063,1048.4531 1000.7906,1048.7031 Q999.9625,1049.0938 998.6344,1049.0938 L995.2125,1049.0938 Q994.6031,1049.0938 994.3375,1048.8594 Q994.0719,1048.625 994.0719,1048.2344 Q994.0719,1047.8594 994.3375,1047.625 Q994.6031,1047.3906 995.1344,1047.3906 Z M996.8375,1047.3906 L998.65,1047.3906 Q999.65,1047.3906 1000.1656,1047.0938 Q1000.8375,1046.7188 1001.1813,1046.1406 Q1001.525,1045.5469 1001.525,1044.6094 L1001.525,1043.7969 Q1001.525,1043 1001.2125,1042.3906 Q1000.7281,1041.4375 1000.1188,1041.0938 Q999.525,1040.7344 998.6344,1040.7344 L996.8375,1040.7344 L996.8375,1047.3906 Z " fill="#000000"/><text fill="#000000" font-family="sans-serif" font-size="12" font-style="italic" lengthAdjust="spacing" textLength="67" x="1023.9875" y="1041.457">«DataType»</text><text fill="#000000" font-family="sans-serif" font-size="12" lengthAdjust="spacing" textLength="81" x="1016.9875" y="1056.5508">Person_Name</text><line style="stroke:#A80036;stroke-width:1.5;" x1="959.2875" x2="1124.2875" y1="1064.1875" y2="1064.1875"/><text fill="#000000" font-family="sans-serif" font-size="11" lengthAdjust="spacing" textLength="146" x="964.2875" y="1079.6064">firstNames : Multilingual_String</text><text fill="#000000" font-family="sans-serif" font-size="11" lengthAdjust="spacing" textLength="155" x="964.2875" y="1093.4424">familyNames : Multilingual_String</text><text fill="#000000" font-family="sans-serif" font-size="11" lengthAdjust="spacing" textLength="152" x="964.2875" y="1107.2783">otherNames : Multilingual_String</text><!--MD5=[c881b25adf3665c6568c9693d41a70f3]
class Activity--><rect codeLine="52" fill="#FFFFFF" filter="url(#fdcjvq8kklbx6)" height="67.6719" id="Activity" style="stroke:#A80036;stroke-width:1.5;" width="110" x="784.7875" y="7"/><ellipse cx="819.1375" cy="23" fill="#ADD1B2" rx="11" ry="11" style="stroke:#A80036;stroke-width:1.0;"/><path d="M821.9031,18.875 Q822.0594,18.6563 822.2469,18.5469 Q822.4344,18.4375 822.6531,18.4375 Q823.0281,18.4375 823.2625,18.7031 Q823.4969,18.9531 823.4969,19.5625 L823.4969,21.0156 Q823.4969,21.625 823.2625,21.8906 Q823.0281,22.1563 822.6531,22.1563 Q822.3094,22.1563 822.1063,21.9531 Q821.9031,21.7656 821.7938,21.25 Q821.7469,20.8906 821.5594,20.7031 Q821.2313,20.3281 820.6219,20.1094 Q820.0125,19.8906 819.3875,19.8906 Q818.6219,19.8906 817.9813,20.2188 Q817.3563,20.5469 816.8563,21.2969 Q816.3719,22.0469 816.3719,23.0781 L816.3719,24.1719 Q816.3719,25.4063 817.2625,26.2344 Q818.1531,27.0469 819.7469,27.0469 Q820.6844,27.0469 821.3406,26.7969 Q821.7313,26.6406 822.1531,26.2031 Q822.4188,25.9375 822.5594,25.8594 Q822.7156,25.7813 822.9188,25.7813 Q823.2469,25.7813 823.4969,26.0469 Q823.7625,26.2969 823.7625,26.6406 Q823.7625,26.9844 823.4188,27.3906 Q822.9188,27.9688 822.1219,28.2969 Q821.0438,28.75 819.7469,28.75 Q818.2313,28.75 817.0281,28.125 Q816.0438,27.625 815.3563,26.5625 Q814.6688,25.4844 814.6688,24.2031 L814.6688,23.0469 Q814.6688,21.7188 815.2781,20.5781 Q815.9031,19.4219 816.9969,18.8125 Q818.0906,18.1875 819.325,18.1875 Q820.0594,18.1875 820.7,18.3594 Q821.3563,18.5156 821.9031,18.875 Z " fill="#000000"/><text fill="#000000" font-family="sans-serif" font-size="12" lengthAdjust="spacing" textLength="35" x="837.4375" y="27.9102">Activity</text><line style="stroke:#A80036;stroke-width:1.5;" x1="785.7875" x2="893.7875" y1="39" y2="39"/><text fill="#000000" font-family="sans-serif" font-size="11" lengthAdjust="spacing" textLength="96" x="790.7875" y="54.4189">contacts : List&lt;URI&gt;</text><text fill="#000000" font-family="sans-serif" font-size="11" lengthAdjust="spacing" textLength="98" x="790.7875" y="68.2549">displayName : String</text><!--MD5=[77463bb17ddcfe3891c27a1f4a877731]
class Membership--><rect codeLine="59" fill="#FFFFFF" filter="url(#fdcjvq8kklbx6)" height="32" id="Membership" style="stroke:#A80036;stroke-width:1.5;" width="101" x="349.2875" y="136"/><ellipse cx="364.2875" cy="152" fill="#ADD1B2" rx="11" ry="11" style="stroke:#A80036;stroke-width:1.0;"/><path d="M367.0531,147.875 Q367.2094,147.6563 367.3969,147.5469 Q367.5844,147.4375 367.8031,147.4375 Q368.1781,147.4375 368.4125,147.7031 Q368.6469,147.9531 368.6469,148.5625 L368.6469,150.0156 Q368.6469,150.625 368.4125,150.8906 Q368.1781,151.1563 367.8031,151.1563 Q367.4594,151.1563 367.2562,150.9531 Q367.0531,150.7656 366.9437,150.25 Q366.8969,149.8906 366.7094,149.7031 Q366.3812,149.3281 365.7719,149.1094 Q365.1625,148.8906 364.5375,148.8906 Q363.7719,148.8906 363.1312,149.2188 Q362.5062,149.5469 362.0062,150.2969 Q361.5219,151.0469 361.5219,152.0781 L361.5219,153.1719 Q361.5219,154.4063 362.4125,155.2344 Q363.3031,156.0469 364.8969,156.0469 Q365.8344,156.0469 366.4906,155.7969 Q366.8812,155.6406 367.3031,155.2031 Q367.5687,154.9375 367.7094,154.8594 Q367.8656,154.7813 368.0687,154.7813 Q368.3969,154.7813 368.6469,155.0469 Q368.9125,155.2969 368.9125,155.6406 Q368.9125,155.9844 368.5687,156.3906 Q368.0687,156.9688 367.2719,157.2969 Q366.1937,157.75 364.8969,157.75 Q363.3812,157.75 362.1781,157.125 Q361.1937,156.625 360.5062,155.5625 Q359.8187,154.4844 359.8187,153.2031 L359.8187,152.0469 Q359.8187,150.7188 360.4281,149.5781 Q361.0531,148.4219 362.1469,147.8125 Q363.2406,147.1875 364.475,147.1875 Q365.2094,147.1875 365.85,147.3594 Q366.5062,147.5156 367.0531,147.875 Z " fill="#000000"/><text fill="#000000" font-family="sans-serif" font-size="12" lengthAdjust="spacing" textLength="69" x="378.2875" y="156.9102">Membership</text><!--MD5=[41314a0efc36828092cff9ebad2fcafd]
class Group--><rect codeLine="61" fill="#FFFFFF" filter="url(#fdcjvq8kklbx6)" height="32" id="Group" style="stroke:#A80036;stroke-width:1.5;" width="66" x="159.7875" y="247"/><ellipse cx="174.7875" cy="263" fill="#ADD1B2" rx="11" ry="11" style="stroke:#A80036;stroke-width:1.0;"/><path d="M177.5531,258.875 Q177.7094,258.6563 177.8969,258.5469 Q178.0844,258.4375 178.3031,258.4375 Q178.6781,258.4375 178.9125,258.7031 Q179.1469,258.9531 179.1469,259.5625 L179.1469,261.0156 Q179.1469,261.625 178.9125,261.8906 Q178.6781,262.1563 178.3031,262.1563 Q177.9594,262.1563 177.7563,261.9531 Q177.5531,261.7656 177.4438,261.25 Q177.3969,260.8906 177.2094,260.7031 Q176.8813,260.3281 176.2719,260.1094 Q175.6625,259.8906 175.0375,259.8906 Q174.2719,259.8906 173.6313,260.2188 Q173.0063,260.5469 172.5063,261.2969 Q172.0219,262.0469 172.0219,263.0781 L172.0219,264.1719 Q172.0219,265.4063 172.9125,266.2344 Q173.8031,267.0469 175.3969,267.0469 Q176.3344,267.0469 176.9906,266.7969 Q177.3813,266.6406 177.8031,266.2031 Q178.0688,265.9375 178.2094,265.8594 Q178.3656,265.7813 178.5688,265.7813 Q178.8969,265.7813 179.1469,266.0469 Q179.4125,266.2969 179.4125,266.6406 Q179.4125,266.9844 179.0688,267.3906 Q178.5688,267.9688 177.7719,268.2969 Q176.6938,268.75 175.3969,268.75 Q173.8813,268.75 172.6781,268.125 Q171.6938,267.625 171.0063,266.5625 Q170.3188,265.4844 170.3188,264.2031 L170.3188,263.0469 Q170.3188,261.7188 170.9281,260.5781 Q171.5531,259.4219 172.6469,258.8125 Q173.7406,258.1875 174.975,258.1875 Q175.7094,258.1875 176.35,258.3594 Q177.0063,258.5156 177.5531,258.875 Z " fill="#000000"/><text fill="#000000" font-family="sans-serif" font-size="12" lengthAdjust="spacing" textLength="34" x="188.7875" y="267.9102">Group</text><!--MD5=[275992d9fa6349b757b2e4552553fa46]
class Contributorship_to_Project--><rect codeLine="66" fill="#FFFFFF" filter="url(#fdcjvq8kklbx6)" height="32" id="Contributorship_to_Project" style="stroke:#A80036;stroke-width:1.5;" width="179" x="898.2875" y="247"/><ellipse cx="913.2875" cy="263" fill="#ADD1B2" rx="11" ry="11" style="stroke:#A80036;stroke-width:1.0;"/><path d="M916.0531,258.875 Q916.2094,258.6563 916.3969,258.5469 Q916.5844,258.4375 916.8031,258.4375 Q917.1781,258.4375 917.4125,258.7031 Q917.6469,258.9531 917.6469,259.5625 L917.6469,261.0156 Q917.6469,261.625 917.4125,261.8906 Q917.1781,262.1563 916.8031,262.1563 Q916.4594,262.1563 916.2563,261.9531 Q916.0531,261.7656 915.9438,261.25 Q915.8969,260.8906 915.7094,260.7031 Q915.3813,260.3281 914.7719,260.1094 Q914.1625,259.8906 913.5375,259.8906 Q912.7719,259.8906 912.1313,260.2188 Q911.5063,260.5469 911.0063,261.2969 Q910.5219,262.0469 910.5219,263.0781 L910.5219,264.1719 Q910.5219,265.4063 911.4125,266.2344 Q912.3031,267.0469 913.8969,267.0469 Q914.8344,267.0469 915.4906,266.7969 Q915.8813,266.6406 916.3031,266.2031 Q916.5688,265.9375 916.7094,265.8594 Q916.8656,265.7813 917.0688,265.7813 Q917.3969,265.7813 917.6469,266.0469 Q917.9125,266.2969 917.9125,266.6406 Q917.9125,266.9844 917.5688,267.3906 Q917.0688,267.9688 916.2719,268.2969 Q915.1938,268.75 913.8969,268.75 Q912.3813,268.75 911.1781,268.125 Q910.1938,267.625 909.5063,266.5625 Q908.8188,265.4844 908.8188,264.2031 L908.8188,263.0469 Q908.8188,261.7188 909.4281,260.5781 Q910.0531,259.4219 911.1469,258.8125 Q912.2406,258.1875 913.475,258.1875 Q914.2094,258.1875 914.85,258.3594 Q915.5063,258.5156 916.0531,258.875 Z " fill="#000000"/><text fill="#000000" font-family="sans-serif" font-size="12" lengthAdjust="spacing" textLength="147" x="927.2875" y="267.9102">Contributorship_to_Project</text><!--MD5=[79d378210367c0c6ec62ef762ddfbd1b]
class Project--><rect codeLine="69" fill="#FFFFFF" filter="url(#fdcjvq8kklbx6)" height="32" id="Project" style="stroke:#A80036;stroke-width:1.5;" width="70" x="993.7875" y="383"/><ellipse cx="1008.7875" cy="399" fill="#ADD1B2" rx="11" ry="11" style="stroke:#A80036;stroke-width:1.0;"/><path d="M1011.5531,394.875 Q1011.7094,394.6563 1011.8969,394.5469 Q1012.0844,394.4375 1012.3031,394.4375 Q1012.6781,394.4375 1012.9125,394.7031 Q1013.1469,394.9531 1013.1469,395.5625 L1013.1469,397.0156 Q1013.1469,397.625 1012.9125,397.8906 Q1012.6781,398.1563 1012.3031,398.1563 Q1011.9594,398.1563 1011.7563,397.9531 Q1011.5531,397.7656 1011.4438,397.25 Q1011.3969,396.8906 1011.2094,396.7031 Q1010.8813,396.3281 1010.2719,396.1094 Q1009.6625,395.8906 1009.0375,395.8906 Q1008.2719,395.8906 1007.6313,396.2188 Q1007.0063,396.5469 1006.5063,397.2969 Q1006.0219,398.0469 1006.0219,399.0781 L1006.0219,400.1719 Q1006.0219,401.4063 1006.9125,402.2344 Q1007.8031,403.0469 1009.3969,403.0469 Q1010.3344,403.0469 1010.9906,402.7969 Q1011.3813,402.6406 1011.8031,402.2031 Q1012.0688,401.9375 1012.2094,401.8594 Q1012.3656,401.7813 1012.5688,401.7813 Q1012.8969,401.7813 1013.1469,402.0469 Q1013.4125,402.2969 1013.4125,402.6406 Q1013.4125,402.9844 1013.0688,403.3906 Q1012.5688,403.9688 1011.7719,404.2969 Q1010.6938,404.75 1009.3969,404.75 Q1007.8813,404.75 1006.6781,404.125 Q1005.6938,403.625 1005.0063,402.5625 Q1004.3188,401.4844 1004.3188,400.2031 L1004.3188,399.0469 Q1004.3188,397.7188 1004.9281,396.5781 Q1005.5531,395.4219 1006.6469,394.8125 Q1007.7406,394.1875 1008.975,394.1875 Q1009.7094,394.1875 1010.35,394.3594 Q1011.0063,394.5156 1011.5531,394.875 Z " fill="#000000"/><text fill="#000000" font-family="sans-serif" font-size="12" lengthAdjust="spacing" textLength="38" x="1022.7875" y="403.9102">Project</text><!--MD5=[e02ddce66e3bbf15b4b6a9e19ecd894a]
class Contributorship_to_Event--><rect codeLine="74" fill="#FFFFFF" filter="url(#fdcjvq8kklbx6)" height="32" id="Contributorship_to_Event" style="stroke:#A80036;stroke-width:1.5;" width="171" x="261.2875" y="247"/><ellipse cx="276.2875" cy="263" fill="#ADD1B2" rx="11" ry="11" style="stroke:#A80036;stroke-width:1.0;"/><path d="M279.0531,258.875 Q279.2094,258.6563 279.3969,258.5469 Q279.5844,258.4375 279.8031,258.4375 Q280.1781,258.4375 280.4125,258.7031 Q280.6469,258.9531 280.6469,259.5625 L280.6469,261.0156 Q280.6469,261.625 280.4125,261.8906 Q280.1781,262.1563 279.8031,262.1563 Q279.4594,262.1563 279.2563,261.9531 Q279.0531,261.7656 278.9438,261.25 Q278.8969,260.8906 278.7094,260.7031 Q278.3813,260.3281 277.7719,260.1094 Q277.1625,259.8906 276.5375,259.8906 Q275.7719,259.8906 275.1313,260.2188 Q274.5063,260.5469 274.0063,261.2969 Q273.5219,262.0469 273.5219,263.0781 L273.5219,264.1719 Q273.5219,265.4063 274.4125,266.2344 Q275.3031,267.0469 276.8969,267.0469 Q277.8344,267.0469 278.4906,266.7969 Q278.8813,266.6406 279.3031,266.2031 Q279.5688,265.9375 279.7094,265.8594 Q279.8656,265.7813 280.0688,265.7813 Q280.3969,265.7813 280.6469,266.0469 Q280.9125,266.2969 280.9125,266.6406 Q280.9125,266.9844 280.5688,267.3906 Q280.0688,267.9688 279.2719,268.2969 Q278.1938,268.75 276.8969,268.75 Q275.3813,268.75 274.1781,268.125 Q273.1938,267.625 272.5063,266.5625 Q271.8188,265.4844 271.8188,264.2031 L271.8188,263.0469 Q271.8188,261.7188 272.4281,260.5781 Q273.0531,259.4219 274.1469,258.8125 Q275.2406,258.1875 276.475,258.1875 Q277.2094,258.1875 277.85,258.3594 Q278.5063,258.5156 279.0531,258.875 Z " fill="#000000"/><text fill="#000000" font-family="sans-serif" font-size="12" lengthAdjust="spacing" textLength="139" x="290.2875" y="267.9102">Contributorship_to_Event</text><!--MD5=[ac13618b1a974308c1f12eb6c57723dc]
class Event--><rect codeLine="77" fill="#FFFFFF" filter="url(#fdcjvq8kklbx6)" height="32" id="Event" style="stroke:#A80036;stroke-width:1.5;" width="62" x="96.7875" y="383"/><ellipse cx="111.7875" cy="399" fill="#ADD1B2" rx="11" ry="11" style="stroke:#A80036;stroke-width:1.0;"/><path d="M114.5531,394.875 Q114.7094,394.6563 114.8969,394.5469 Q115.0844,394.4375 115.3031,394.4375 Q115.6781,394.4375 115.9125,394.7031 Q116.1469,394.9531 116.1469,395.5625 L116.1469,397.0156 Q116.1469,397.625 115.9125,397.8906 Q115.6781,398.1563 115.3031,398.1563 Q114.9594,398.1563 114.7563,397.9531 Q114.5531,397.7656 114.4438,397.25 Q114.3969,396.8906 114.2094,396.7031 Q113.8813,396.3281 113.2719,396.1094 Q112.6625,395.8906 112.0375,395.8906 Q111.2719,395.8906 110.6313,396.2188 Q110.0063,396.5469 109.5063,397.2969 Q109.0219,398.0469 109.0219,399.0781 L109.0219,400.1719 Q109.0219,401.4063 109.9125,402.2344 Q110.8031,403.0469 112.3969,403.0469 Q113.3344,403.0469 113.9906,402.7969 Q114.3813,402.6406 114.8031,402.2031 Q115.0688,401.9375 115.2094,401.8594 Q115.3656,401.7813 115.5688,401.7813 Q115.8969,401.7813 116.1469,402.0469 Q116.4125,402.2969 116.4125,402.6406 Q116.4125,402.9844 116.0688,403.3906 Q115.5688,403.9688 114.7719,404.2969 Q113.6938,404.75 112.3969,404.75 Q110.8813,404.75 109.6781,404.125 Q108.6938,403.625 108.0063,402.5625 Q107.3188,401.4844 107.3188,400.2031 L107.3188,399.0469 Q107.3188,397.7188 107.9281,396.5781 Q108.5531,395.4219 109.6469,394.8125 Q110.7406,394.1875 111.975,394.1875 Q112.7094,394.1875 113.35,394.3594 Q114.0063,394.5156 114.5531,394.875 Z " fill="#000000"/><text fill="#000000" font-family="sans-serif" font-size="12" lengthAdjust="spacing" textLength="30" x="125.7875" y="403.9102">Event</text><!--MD5=[0330879a1a385efee19ba3488ed490fa]
class Contribution--><rect codeLine="82" fill="#FFFFFF" filter="url(#fdcjvq8kklbx6)" height="32" id="Contribution" style="stroke:#A80036;stroke-width:1.5;" width="99" x="595.2875" y="136"/><ellipse cx="610.2875" cy="152" fill="#ADD1B2" rx="11" ry="11" style="stroke:#A80036;stroke-width:1.0;"/><path d="M613.0531,147.875 Q613.2094,147.6563 613.3969,147.5469 Q613.5844,147.4375 613.8031,147.4375 Q614.1781,147.4375 614.4125,147.7031 Q614.6469,147.9531 614.6469,148.5625 L614.6469,150.0156 Q614.6469,150.625 614.4125,150.8906 Q614.1781,151.1563 613.8031,151.1563 Q613.4594,151.1563 613.2563,150.9531 Q613.0531,150.7656 612.9438,150.25 Q612.8969,149.8906 612.7094,149.7031 Q612.3813,149.3281 611.7719,149.1094 Q611.1625,148.8906 610.5375,148.8906 Q609.7719,148.8906 609.1313,149.2188 Q608.5063,149.5469 608.0063,150.2969 Q607.5219,151.0469 607.5219,152.0781 L607.5219,153.1719 Q607.5219,154.4063 608.4125,155.2344 Q609.3031,156.0469 610.8969,156.0469 Q611.8344,156.0469 612.4906,155.7969 Q612.8813,155.6406 613.3031,155.2031 Q613.5688,154.9375 613.7094,154.8594 Q613.8656,154.7813 614.0688,154.7813 Q614.3969,154.7813 614.6469,155.0469 Q614.9125,155.2969 614.9125,155.6406 Q614.9125,155.9844 614.5688,156.3906 Q614.0688,156.9688 613.2719,157.2969 Q612.1938,157.75 610.8969,157.75 Q609.3813,157.75 608.1781,157.125 Q607.1938,156.625 606.5063,155.5625 Q605.8188,154.4844 605.8188,153.2031 L605.8188,152.0469 Q605.8188,150.7188 606.4281,149.5781 Q607.0531,148.4219 608.1469,147.8125 Q609.2406,147.1875 610.475,147.1875 Q611.2094,147.1875 611.85,147.3594 Q612.5063,147.5156 613.0531,147.875 Z " fill="#000000"/><text fill="#000000" font-family="sans-serif" font-size="12" lengthAdjust="spacing" textLength="67" x="624.2875" y="156.9102">Contribution</text><!--MD5=[9291c471b34ea1f1faaed3f62ed2250a]
class Acknowledgement_Statement--><rect codeLine="85" fill="#FFFFFF" filter="url(#fdcjvq8kklbx6)" height="32" id="Acknowledgement_Statement" style="stroke:#A80036;stroke-width:1.5;" width="196" x="214.7875" y="25"/><ellipse cx="229.7875" cy="41" fill="#ADD1B2" rx="11" ry="11" style="stroke:#A80036;stroke-width:1.0;"/><path d="M232.5531,36.875 Q232.7094,36.6563 232.8969,36.5469 Q233.0844,36.4375 233.3031,36.4375 Q233.6781,36.4375 233.9125,36.7031 Q234.1469,36.9531 234.1469,37.5625 L234.1469,39.0156 Q234.1469,39.625 233.9125,39.8906 Q233.6781,40.1563 233.3031,40.1563 Q232.9594,40.1563 232.7563,39.9531 Q232.5531,39.7656 232.4438,39.25 Q232.3969,38.8906 232.2094,38.7031 Q231.8813,38.3281 231.2719,38.1094 Q230.6625,37.8906 230.0375,37.8906 Q229.2719,37.8906 228.6313,38.2188 Q228.0063,38.5469 227.5063,39.2969 Q227.0219,40.0469 227.0219,41.0781 L227.0219,42.1719 Q227.0219,43.4063 227.9125,44.2344 Q228.8031,45.0469 230.3969,45.0469 Q231.3344,45.0469 231.9906,44.7969 Q232.3813,44.6406 232.8031,44.2031 Q233.0688,43.9375 233.2094,43.8594 Q233.3656,43.7813 233.5688,43.7813 Q233.8969,43.7813 234.1469,44.0469 Q234.4125,44.2969 234.4125,44.6406 Q234.4125,44.9844 234.0688,45.3906 Q233.5688,45.9688 232.7719,46.2969 Q231.6938,46.75 230.3969,46.75 Q228.8813,46.75 227.6781,46.125 Q226.6938,45.625 226.0063,44.5625 Q225.3188,43.4844 225.3188,42.2031 L225.3188,41.0469 Q225.3188,39.7188 225.9281,38.5781 Q226.5531,37.4219 227.6469,36.8125 Q228.7406,36.1875 229.975,36.1875 Q230.7094,36.1875 231.35,36.3594 Q232.0063,36.5156 232.5531,36.875 Z " fill="#000000"/><text fill="#000000" font-family="sans-serif" font-size="12" lengthAdjust="spacing" textLength="164" x="243.7875" y="45.9102">Acknowledgement_Statement</text><!--MD5=[532fe005ca0bef0ad6b309c9c6480e22]
class Contribution_Statement--><rect codeLine="88" fill="#FFFFFF" filter="url(#fdcjvq8kklbx6)" height="32" id="Contribution_Statement" style="stroke:#A80036;stroke-width:1.5;" width="162" x="467.7875" y="247"/><ellipse cx="482.7875" cy="263" fill="#ADD1B2" rx="11" ry="11" style="stroke:#A80036;stroke-width:1.0;"/><path d="M485.5531,258.875 Q485.7094,258.6563 485.8969,258.5469 Q486.0844,258.4375 486.3031,258.4375 Q486.6781,258.4375 486.9125,258.7031 Q487.1469,258.9531 487.1469,259.5625 L487.1469,261.0156 Q487.1469,261.625 486.9125,261.8906 Q486.6781,262.1563 486.3031,262.1563 Q485.9594,262.1563 485.7562,261.9531 Q485.5531,261.7656 485.4437,261.25 Q485.3969,260.8906 485.2094,260.7031 Q484.8812,260.3281 484.2719,260.1094 Q483.6625,259.8906 483.0375,259.8906 Q482.2719,259.8906 481.6312,260.2188 Q481.0062,260.5469 480.5062,261.2969 Q480.0219,262.0469 480.0219,263.0781 L480.0219,264.1719 Q480.0219,265.4063 480.9125,266.2344 Q481.8031,267.0469 483.3969,267.0469 Q484.3344,267.0469 484.9906,266.7969 Q485.3812,266.6406 485.8031,266.2031 Q486.0687,265.9375 486.2094,265.8594 Q486.3656,265.7813 486.5687,265.7813 Q486.8969,265.7813 487.1469,266.0469 Q487.4125,266.2969 487.4125,266.6406 Q487.4125,266.9844 487.0687,267.3906 Q486.5687,267.9688 485.7719,268.2969 Q484.6937,268.75 483.3969,268.75 Q481.8812,268.75 480.6781,268.125 Q479.6937,267.625 479.0062,266.5625 Q478.3187,265.4844 478.3187,264.2031 L478.3187,263.0469 Q478.3187,261.7188 478.9281,260.5781 Q479.5531,259.4219 480.6469,258.8125 Q481.7406,258.1875 482.975,258.1875 Q483.7094,258.1875 484.35,258.3594 Q485.0062,258.5156 485.5531,258.875 Z " fill="#000000"/><text fill="#000000" font-family="sans-serif" font-size="12" lengthAdjust="spacing" textLength="130" x="496.7875" y="267.9102">Contribution_Statement</text><!--MD5=[75e6ee6f0cee60576da1adad405695b7]
class Free_Text_Contribution_Statement--><rect codeLine="91" fill="#FFFFFF" filter="url(#fdcjvq8kklbx6)" height="53.8359" id="Free_Text_Contribution_Statement" style="stroke:#A80036;stroke-width:1.5;" width="223" x="452.2875" y="372"/><ellipse cx="467.2875" cy="388" fill="#ADD1B2" rx="11" ry="11" style="stroke:#A80036;stroke-width:1.0;"/><path d="M470.0531,383.875 Q470.2094,383.6563 470.3969,383.5469 Q470.5844,383.4375 470.8031,383.4375 Q471.1781,383.4375 471.4125,383.7031 Q471.6469,383.9531 471.6469,384.5625 L471.6469,386.0156 Q471.6469,386.625 471.4125,386.8906 Q471.1781,387.1563 470.8031,387.1563 Q470.4594,387.1563 470.2562,386.9531 Q470.0531,386.7656 469.9437,386.25 Q469.8969,385.8906 469.7094,385.7031 Q469.3812,385.3281 468.7719,385.1094 Q468.1625,384.8906 467.5375,384.8906 Q466.7719,384.8906 466.1312,385.2188 Q465.5062,385.5469 465.0062,386.2969 Q464.5219,387.0469 464.5219,388.0781 L464.5219,389.1719 Q464.5219,390.4063 465.4125,391.2344 Q466.3031,392.0469 467.8969,392.0469 Q468.8344,392.0469 469.4906,391.7969 Q469.8812,391.6406 470.3031,391.2031 Q470.5687,390.9375 470.7094,390.8594 Q470.8656,390.7813 471.0687,390.7813 Q471.3969,390.7813 471.6469,391.0469 Q471.9125,391.2969 471.9125,391.6406 Q471.9125,391.9844 471.5687,392.3906 Q471.0687,392.9688 470.2719,393.2969 Q469.1937,393.75 467.8969,393.75 Q466.3812,393.75 465.1781,393.125 Q464.1937,392.625 463.5062,391.5625 Q462.8187,390.4844 462.8187,389.2031 L462.8187,388.0469 Q462.8187,386.7188 463.4281,385.5781 Q464.0531,384.4219 465.1469,383.8125 Q466.2406,383.1875 467.475,383.1875 Q468.2094,383.1875 468.85,383.3594 Q469.5062,383.5156 470.0531,383.875 Z " fill="#000000"/><text fill="#000000" font-family="sans-serif" font-size="12" lengthAdjust="spacing" textLength="191" x="481.2875" y="392.9102">Free_Text_Contribution_Statement</text><line style="stroke:#A80036;stroke-width:1.5;" x1="453.2875" x2="674.2875" y1="404" y2="404"/><text fill="#000000" font-family="sans-serif" font-size="11" lengthAdjust="spacing" textLength="141" x="458.2875" y="419.4189">statement : Multilingual_String</text><!--MD5=[694c8da16a3aeed8cc252f2a2bde6980]
class Resource_Contribution_Statement--><rect codeLine="95" fill="#FFFFFF" filter="url(#fdcjvq8kklbx6)" height="32" id="Resource_Contribution_Statement" style="stroke:#A80036;stroke-width:1.5;" width="223" x="194.2875" y="383"/><ellipse cx="209.2875" cy="399" fill="#ADD1B2" rx="11" ry="11" style="stroke:#A80036;stroke-width:1.0;"/><path d="M212.0531,394.875 Q212.2094,394.6563 212.3969,394.5469 Q212.5844,394.4375 212.8031,394.4375 Q213.1781,394.4375 213.4125,394.7031 Q213.6469,394.9531 213.6469,395.5625 L213.6469,397.0156 Q213.6469,397.625 213.4125,397.8906 Q213.1781,398.1563 212.8031,398.1563 Q212.4594,398.1563 212.2563,397.9531 Q212.0531,397.7656 211.9438,397.25 Q211.8969,396.8906 211.7094,396.7031 Q211.3813,396.3281 210.7719,396.1094 Q210.1625,395.8906 209.5375,395.8906 Q208.7719,395.8906 208.1313,396.2188 Q207.5063,396.5469 207.0063,397.2969 Q206.5219,398.0469 206.5219,399.0781 L206.5219,400.1719 Q206.5219,401.4063 207.4125,402.2344 Q208.3031,403.0469 209.8969,403.0469 Q210.8344,403.0469 211.4906,402.7969 Q211.8813,402.6406 212.3031,402.2031 Q212.5688,401.9375 212.7094,401.8594 Q212.8656,401.7813 213.0688,401.7813 Q213.3969,401.7813 213.6469,402.0469 Q213.9125,402.2969 213.9125,402.6406 Q213.9125,402.9844 213.5688,403.3906 Q213.0688,403.9688 212.2719,404.2969 Q211.1938,404.75 209.8969,404.75 Q208.3813,404.75 207.1781,404.125 Q206.1938,403.625 205.5063,402.5625 Q204.8188,401.4844 204.8188,400.2031 L204.8188,399.0469 Q204.8188,397.7188 205.4281,396.5781 Q206.0531,395.4219 207.1469,394.8125 Q208.2406,394.1875 209.475,394.1875 Q210.2094,394.1875 210.85,394.3594 Q211.5063,394.5156 212.0531,394.875 Z " fill="#000000"/><text fill="#000000" font-family="sans-serif" font-size="12" lengthAdjust="spacing" textLength="191" x="223.2875" y="403.9102">Resource_Contribution_Statement</text><!--MD5=[6b13f1b330d33795af281e5c1dfe1e98]
class Resource--><rect codeLine="98" fill="#FFFFFF" filter="url(#fdcjvq8kklbx6)" height="32" id="Resource" style="stroke:#A80036;stroke-width:1.5;" width="86" x="76.7875" y="501"/><ellipse cx="91.7875" cy="517" fill="#ADD1B2" rx="11" ry="11" style="stroke:#A80036;stroke-width:1.0;"/><path d="M94.5531,512.875 Q94.7094,512.6563 94.8969,512.5469 Q95.0844,512.4375 95.3031,512.4375 Q95.6781,512.4375 95.9125,512.7031 Q96.1469,512.9531 96.1469,513.5625 L96.1469,515.0156 Q96.1469,515.625 95.9125,515.8906 Q95.6781,516.1563 95.3031,516.1563 Q94.9594,516.1563 94.7563,515.9531 Q94.5531,515.7656 94.4438,515.25 Q94.3969,514.8906 94.2094,514.7031 Q93.8813,514.3281 93.2719,514.1094 Q92.6625,513.8906 92.0375,513.8906 Q91.2719,513.8906 90.6313,514.2188 Q90.0063,514.5469 89.5063,515.2969 Q89.0219,516.0469 89.0219,517.0781 L89.0219,518.1719 Q89.0219,519.4063 89.9125,520.2344 Q90.8031,521.0469 92.3969,521.0469 Q93.3344,521.0469 93.9906,520.7969 Q94.3813,520.6406 94.8031,520.2031 Q95.0688,519.9375 95.2094,519.8594 Q95.3656,519.7813 95.5688,519.7813 Q95.8969,519.7813 96.1469,520.0469 Q96.4125,520.2969 96.4125,520.6406 Q96.4125,520.9844 96.0688,521.3906 Q95.5688,521.9688 94.7719,522.2969 Q93.6938,522.75 92.3969,522.75 Q90.8813,522.75 89.6781,522.125 Q88.6938,521.625 88.0063,520.5625 Q87.3188,519.4844 87.3188,518.2031 L87.3188,517.0469 Q87.3188,515.7188 87.9281,514.5781 Q88.5531,513.4219 89.6469,512.8125 Q90.7406,512.1875 91.975,512.1875 Q92.7094,512.1875 93.35,512.3594 Q94.0063,512.5156 94.5531,512.875 Z " fill="#000000"/><text fill="#000000" font-family="sans-serif" font-size="12" lengthAdjust="spacing" textLength="54" x="105.7875" y="521.9102">Resource</text><!--MD5=[499f999e1567c93424c56c6c7aa1fc6e]
class Contributorship_to_Document--><rect codeLine="104" fill="#FFFFFF" filter="url(#fdcjvq8kklbx6)" height="67.6719" id="Contributorship_to_Document" style="stroke:#A80036;stroke-width:1.5;" width="198" x="664.7875" y="229"/><ellipse cx="679.7875" cy="245" fill="#ADD1B2" rx="11" ry="11" style="stroke:#A80036;stroke-width:1.0;"/><path d="M682.5531,240.875 Q682.7094,240.6563 682.8969,240.5469 Q683.0844,240.4375 683.3031,240.4375 Q683.6781,240.4375 683.9125,240.7031 Q684.1469,240.9531 684.1469,241.5625 L684.1469,243.0156 Q684.1469,243.625 683.9125,243.8906 Q683.6781,244.1563 683.3031,244.1563 Q682.9594,244.1563 682.7563,243.9531 Q682.5531,243.7656 682.4438,243.25 Q682.3969,242.8906 682.2094,242.7031 Q681.8813,242.3281 681.2719,242.1094 Q680.6625,241.8906 680.0375,241.8906 Q679.2719,241.8906 678.6313,242.2188 Q678.0063,242.5469 677.5063,243.2969 Q677.0219,244.0469 677.0219,245.0781 L677.0219,246.1719 Q677.0219,247.4063 677.9125,248.2344 Q678.8031,249.0469 680.3969,249.0469 Q681.3344,249.0469 681.9906,248.7969 Q682.3813,248.6406 682.8031,248.2031 Q683.0688,247.9375 683.2094,247.8594 Q683.3656,247.7813 683.5688,247.7813 Q683.8969,247.7813 684.1469,248.0469 Q684.4125,248.2969 684.4125,248.6406 Q684.4125,248.9844 684.0688,249.3906 Q683.5688,249.9688 682.7719,250.2969 Q681.6938,250.75 680.3969,250.75 Q678.8813,250.75 677.6781,250.125 Q676.6938,249.625 676.0063,248.5625 Q675.3188,247.4844 675.3188,246.2031 L675.3188,245.0469 Q675.3188,243.7188 675.9281,242.5781 Q676.5531,241.4219 677.6469,240.8125 Q678.7406,240.1875 679.975,240.1875 Q680.7094,240.1875 681.35,240.3594 Q682.0063,240.5156 682.5531,240.875 Z " fill="#000000"/><text fill="#000000" font-family="sans-serif" font-size="12" lengthAdjust="spacing" textLength="166" x="693.7875" y="249.9102">Contributorship_to_Document</text><line style="stroke:#A80036;stroke-width:1.5;" x1="665.7875" x2="861.7875" y1="261" y2="261"/><text fill="#000000" font-family="sans-serif" font-size="11" lengthAdjust="spacing" textLength="130" x="670.7875" y="276.4189">class "Authorship" #ffffff {</text><text fill="#000000" font-family="sans-serif" font-size="11" lengthAdjust="spacing" textLength="171" x="670.7875" y="290.2549">correspondingAuthorFlag : Boolean</text><!--MD5=[fe1d14fe6d68ca7e76eb34268c62a1f3]
class Postal_Address--><rect codeLine="114" fill="#FFFFFF" filter="url(#fdcjvq8kklbx6)" height="103.5313" id="Postal_Address" style="stroke:#A80036;stroke-width:1.5;" width="145" x="1144.2875" y="1359"/><ellipse cx="1170.5375" cy="1379.0938" fill="#ADD0B2" rx="11" ry="11" style="stroke:#A80036;stroke-width:1.0;"/><path d="M1168.0844,1382.3906 L1168.0844,1375.7344 Q1167.5375,1375.7188 1167.2719,1375.4844 Q1167.0219,1375.25 1167.0219,1374.875 Q1167.0219,1374.5 1167.2875,1374.2656 Q1167.5531,1374.0313 1168.1625,1374.0313 L1171.725,1374.0313 Q1172.5531,1374.0313 1173.35,1374.3438 Q1174.1469,1374.6406 1174.6313,1375.125 Q1174.9906,1375.4844 1175.3813,1376.1094 Q1175.7719,1376.7188 1175.975,1377.3438 Q1176.1781,1377.9531 1176.1781,1378.8438 L1176.1781,1379.6563 Q1176.1781,1380.7344 1175.8031,1381.5781 Q1175.4438,1382.4063 1174.85,1382.9375 Q1174.2563,1383.4531 1173.7406,1383.7031 Q1172.9125,1384.0938 1171.5844,1384.0938 L1168.1625,1384.0938 Q1167.5531,1384.0938 1167.2875,1383.8594 Q1167.0219,1383.625 1167.0219,1383.2344 Q1167.0219,1382.8594 1167.2875,1382.625 Q1167.5531,1382.3906 1168.0844,1382.3906 Z M1169.7875,1382.3906 L1171.6,1382.3906 Q1172.6,1382.3906 1173.1156,1382.0938 Q1173.7875,1381.7188 1174.1313,1381.1406 Q1174.475,1380.5469 1174.475,1379.6094 L1174.475,1378.7969 Q1174.475,1378 1174.1625,1377.3906 Q1173.6781,1376.4375 1173.0688,1376.0938 Q1172.475,1375.7344 1171.5844,1375.7344 L1169.7875,1375.7344 L1169.7875,1382.3906 Z " fill="#000000"/><text fill="#000000" font-family="sans-serif" font-size="12" font-style="italic" lengthAdjust="spacing" textLength="67" x="1197.5375" y="1376.457">«DataType»</text><text fill="#000000" font-family="sans-serif" font-size="12" lengthAdjust="spacing" textLength="88" x="1187.0375" y="1391.5508">Postal_Address</text><line style="stroke:#A80036;stroke-width:1.5;" x1="1145.2875" x2="1288.2875" y1="1399.1875" y2="1399.1875"/><text fill="#000000" font-family="sans-serif" font-size="11" lengthAdjust="spacing" textLength="122" x="1150.2875" y="1414.6064">street : Multilingual_String</text><text fill="#000000" font-family="sans-serif" font-size="11" lengthAdjust="spacing" textLength="111" x="1150.2875" y="1428.4424">city : Multilingual_String</text><text fill="#000000" font-family="sans-serif" font-size="11" lengthAdjust="spacing" textLength="133" x="1150.2875" y="1442.2783">zipCode : Multilingual_String</text><text fill="#000000" font-family="sans-serif" font-size="11" lengthAdjust="spacing" textLength="84" x="1150.2875" y="1456.1143">country : Country</text><!--MD5=[deb4e1f6eb1e3c1256fdb830f96abfbb]
class Country--><rect codeLine="120" fill="#FFFFFF" filter="url(#fdcjvq8kklbx6)" height="75.8594" id="Country" style="stroke:#A80036;stroke-width:1.5;" width="228" x="1102.7875" y="1524"/><ellipse cx="1181.0375" cy="1544.0938" fill="#ADD0B2" rx="11" ry="11" style="stroke:#A80036;stroke-width:1.0;"/><path d="M1178.5844,1547.3906 L1178.5844,1540.7344 Q1178.0375,1540.7188 1177.7719,1540.4844 Q1177.5219,1540.25 1177.5219,1539.875 Q1177.5219,1539.5 1177.7875,1539.2656 Q1178.0531,1539.0313 1178.6625,1539.0313 L1182.225,1539.0313 Q1183.0531,1539.0313 1183.85,1539.3438 Q1184.6469,1539.6406 1185.1313,1540.125 Q1185.4906,1540.4844 1185.8813,1541.1094 Q1186.2719,1541.7188 1186.475,1542.3438 Q1186.6781,1542.9531 1186.6781,1543.8438 L1186.6781,1544.6563 Q1186.6781,1545.7344 1186.3031,1546.5781 Q1185.9438,1547.4063 1185.35,1547.9375 Q1184.7563,1548.4531 1184.2406,1548.7031 Q1183.4125,1549.0938 1182.0844,1549.0938 L1178.6625,1549.0938 Q1178.0531,1549.0938 1177.7875,1548.8594 Q1177.5219,1548.625 1177.5219,1548.2344 Q1177.5219,1547.8594 1177.7875,1547.625 Q1178.0531,1547.3906 1178.5844,1547.3906 Z M1180.2875,1547.3906 L1182.1,1547.3906 Q1183.1,1547.3906 1183.6156,1547.0938 Q1184.2875,1546.7188 1184.6313,1546.1406 Q1184.975,1545.5469 1184.975,1544.6094 L1184.975,1543.7969 Q1184.975,1543 1184.6625,1542.3906 Q1184.1781,1541.4375 1183.5688,1541.0938 Q1182.975,1540.7344 1182.0844,1540.7344 L1180.2875,1540.7344 L1180.2875,1547.3906 Z " fill="#000000"/><text fill="#000000" font-family="sans-serif" font-size="12" font-style="italic" lengthAdjust="spacing" textLength="67" x="1199.5375" y="1541.457">«DataType»</text><text fill="#000000" font-family="sans-serif" font-size="12" lengthAdjust="spacing" textLength="42" x="1212.0375" y="1556.5508">Country</text><line style="stroke:#A80036;stroke-width:1.5;" x1="1103.7875" x2="1329.7875" y1="1564.1875" y2="1564.1875"/><text fill="#000000" font-family="sans-serif" font-size="11" lengthAdjust="spacing" textLength="216" x="1108.7875" y="1579.6064">iso3166alpha2Code : ISO3166_Alpha2_Code</text><text fill="#000000" font-family="sans-serif" font-size="11" lengthAdjust="spacing" textLength="120" x="1108.7875" y="1593.4424">name : Multilingual_String</text><!--MD5=[ddbff00b4911ad4b77d6aa32dd14d1d7]
class Affiliation_Statement--><rect codeLine="127" fill="#FFFFFF" filter="url(#fdcjvq8kklbx6)" height="67.6719" id="Affiliation_Statement" style="stroke:#A80036;stroke-width:1.5;" width="144" x="1160.7875" y="1035"/><ellipse cx="1175.7875" cy="1051" fill="#ADD1B2" rx="11" ry="11" style="stroke:#A80036;stroke-width:1.0;"/><path d="M1178.5531,1046.875 Q1178.7094,1046.6563 1178.8969,1046.5469 Q1179.0844,1046.4375 1179.3031,1046.4375 Q1179.6781,1046.4375 1179.9125,1046.7031 Q1180.1469,1046.9531 1180.1469,1047.5625 L1180.1469,1049.0156 Q1180.1469,1049.625 1179.9125,1049.8906 Q1179.6781,1050.1563 1179.3031,1050.1563 Q1178.9594,1050.1563 1178.7563,1049.9531 Q1178.5531,1049.7656 1178.4438,1049.25 Q1178.3969,1048.8906 1178.2094,1048.7031 Q1177.8813,1048.3281 1177.2719,1048.1094 Q1176.6625,1047.8906 1176.0375,1047.8906 Q1175.2719,1047.8906 1174.6313,1048.2188 Q1174.0063,1048.5469 1173.5063,1049.2969 Q1173.0219,1050.0469 1173.0219,1051.0781 L1173.0219,1052.1719 Q1173.0219,1053.4063 1173.9125,1054.2344 Q1174.8031,1055.0469 1176.3969,1055.0469 Q1177.3344,1055.0469 1177.9906,1054.7969 Q1178.3813,1054.6406 1178.8031,1054.2031 Q1179.0688,1053.9375 1179.2094,1053.8594 Q1179.3656,1053.7813 1179.5688,1053.7813 Q1179.8969,1053.7813 1180.1469,1054.0469 Q1180.4125,1054.2969 1180.4125,1054.6406 Q1180.4125,1054.9844 1180.0688,1055.3906 Q1179.5688,1055.9688 1178.7719,1056.2969 Q1177.6938,1056.75 1176.3969,1056.75 Q1174.8813,1056.75 1173.6781,1056.125 Q1172.6938,1055.625 1172.0063,1054.5625 Q1171.3188,1053.4844 1171.3188,1052.2031 L1171.3188,1051.0469 Q1171.3188,1049.7188 1171.9281,1048.5781 Q1172.5531,1047.4219 1173.6469,1046.8125 Q1174.7406,1046.1875 1175.975,1046.1875 Q1176.7094,1046.1875 1177.35,1046.3594 Q1178.0063,1046.5156 1178.5531,1046.875 Z " fill="#000000"/><text fill="#000000" font-family="sans-serif" font-size="12" lengthAdjust="spacing" textLength="112" x="1189.7875" y="1055.9102">Affiliation_Statement</text><line style="stroke:#A80036;stroke-width:1.5;" x1="1161.7875" x2="1303.7875" y1="1067" y2="1067"/><text fill="#000000" font-family="sans-serif" font-size="11" lengthAdjust="spacing" textLength="116" x="1166.7875" y="1082.4189">displayAffiliation : String</text><text fill="#000000" font-family="sans-serif" font-size="11" lengthAdjust="spacing" textLength="126" x="1166.7875" y="1096.2549">address : Postal_Address</text><!--MD5=[3b25461e5df73ababc6765bb9b0c47d3]
class Authorship--><rect fill="#FEFECE" filter="url(#fdcjvq8kklbx6)" height="32" id="Authorship" style="stroke:#A80036;stroke-width:1.5;" width="91" x="710.2875" y="383"/><ellipse cx="725.2875" cy="399" fill="#ADD1B2" rx="11" ry="11" style="stroke:#A80036;stroke-width:1.0;"/><path d="M728.0531,394.875 Q728.2094,394.6563 728.3969,394.5469 Q728.5844,394.4375 728.8031,394.4375 Q729.1781,394.4375 729.4125,394.7031 Q729.6469,394.9531 729.6469,395.5625 L729.6469,397.0156 Q729.6469,397.625 729.4125,397.8906 Q729.1781,398.1563 728.8031,398.1563 Q728.4594,398.1563 728.2563,397.9531 Q728.0531,397.7656 727.9438,397.25 Q727.8969,396.8906 727.7094,396.7031 Q727.3813,396.3281 726.7719,396.1094 Q726.1625,395.8906 725.5375,395.8906 Q724.7719,395.8906 724.1313,396.2188 Q723.5063,396.5469 723.0063,397.2969 Q722.5219,398.0469 722.5219,399.0781 L722.5219,400.1719 Q722.5219,401.4063 723.4125,402.2344 Q724.3031,403.0469 725.8969,403.0469 Q726.8344,403.0469 727.4906,402.7969 Q727.8813,402.6406 728.3031,402.2031 Q728.5688,401.9375 728.7094,401.8594 Q728.8656,401.7813 729.0688,401.7813 Q729.3969,401.7813 729.6469,402.0469 Q729.9125,402.2969 729.9125,402.6406 Q729.9125,402.9844 729.5688,403.3906 Q729.0688,403.9688 728.2719,404.2969 Q727.1938,404.75 725.8969,404.75 Q724.3813,404.75 723.1781,404.125 Q722.1938,403.625 721.5063,402.5625 Q720.8188,401.4844 720.8188,400.2031 L720.8188,399.0469 Q720.8188,397.7188 721.4281,396.5781 Q722.0531,395.4219 723.1469,394.8125 Q724.2406,394.1875 725.475,394.1875 Q726.2094,394.1875 726.85,394.3594 Q727.5063,394.5156 728.0531,394.875 Z " fill="#000000"/><text fill="#000000" font-family="sans-serif" font-size="12" lengthAdjust="spacing" textLength="59" x="739.2875" y="403.9102">Authorship</text><path d="M746.2875,726 L746.2875,834.1094 A0,0 0 0 0 746.2875,834.1094 L987.2875,834.1094 A0,0 0 0 0 987.2875,834.1094 L987.2875,784 L1022.1075,780 L987.2875,776 L987.2875,736 L977.2875,726 L746.2875,726 A0,0 0 0 0 746.2875,726 " fill="#FFFF00" filter="url(#fdcjvq8kklbx6)" style="stroke:#A80036;stroke-width:1.0;"/><path d="M977.2875,726 L977.2875,736 L987.2875,736 L977.2875,726 " fill="#FFFF00" style="stroke:#A80036;stroke-width:1.0;"/><text fill="#000000" font-family="sans-serif" font-size="13" lengthAdjust="spacing" textLength="216" x="752.2875" y="744.4951">The Agent is mandatory for almost all</text><text fill="#000000" font-family="sans-serif" font-size="13" lengthAdjust="spacing" textLength="175" x="752.2875" y="760.8467">subclasses of Contributorship,</text><text fill="#000000" font-family="sans-serif" font-size="13" lengthAdjust="spacing" textLength="185" x="752.2875" y="777.1982">Reviewing is the exception if the</text><text fill="#000000" font-family="sans-serif" font-size="13" lengthAdjust="spacing" textLength="182" x="752.2875" y="793.5498">reviewer's identity is concealed.</text><text fill="#000000" font-family="sans-serif" font-size="13" lengthAdjust="spacing" textLength="167" x="752.2875" y="809.9014">Also useful when authors are</text><text fill="#000000" font-family="sans-serif" font-size="13" lengthAdjust="spacing" textLength="113" x="752.2875" y="826.2529">using pseudonyms.</text><!--MD5=[bf7e8cf64254ff374c5acfe277545dd5]
reverse link Postal_Address to Country--><path codeLine="134" d="M1216.7875,1476.6 C1216.7875,1492.71 1216.7875,1509.46 1216.7875,1523.74 " fill="none" id="Postal_Address-backto-Country" style="stroke:#A80036;stroke-width:1.0;"/><polygon fill="#FFFFFF" points="1216.7875,1463.28,1212.7875,1469.28,1216.7875,1475.28,1220.7875,1469.28,1216.7875,1463.28" style="stroke:#A80036;stroke-width:1.0;"/><text fill="#000000" font-family="sans-serif" font-size="13" lengthAdjust="spacing" textLength="43" x="1169.9578" y="1513.0389">country</text><!--MD5=[af6b79ce3af62c8c5ee779db9fbc8cf6]
link Affiliation_Statement to Postal_Address--><path codeLine="137" d="M1236.6775,1103.12 C1238.0975,1115.89 1239.6275,1130.61 1240.7875,1144 C1246.6675,1212.2 1250.5775,1229.99 1242.7875,1298 C1240.6775,1316.4 1236.6775,1336.17 1232.4475,1353.91 " fill="none" id="Affiliation_Statement-to-Postal_Address" style="stroke:#A80036;stroke-width:1.0;stroke-dasharray:7.0,7.0;"/><polygon fill="#A80036" points="1231.2475,1358.85,1237.2678,1351.0554,1232.4333,1353.9926,1229.496,1349.1581,1231.2475,1358.85" style="stroke:#A80036;stroke-width:1.0;"/><text fill="#000000" font-family="sans-serif" font-size="13" lengthAdjust="spacing" textLength="83" x="1238.7671" y="1348.3176">postalAddress</text><!--MD5=[fe03d2c8e9644e7513bef3a6fb6291e6]
reverse link Affiliation_Statement to Organisation_Unit--><path codeLine="140" d="M1200.5175,1114.7 C1190.6075,1133.14 1180.2275,1154.82 1171.7375,1174.67 " fill="none" id="Affiliation_Statement-backto-Organisation_Unit" style="stroke:#A80036;stroke-width:1.0;"/><polygon fill="#FFFFFF" points="1206.9475,1103.09,1200.5409,1106.3999,1201.1321,1113.5867,1207.5387,1110.2768,1206.9475,1103.09" style="stroke:#A80036;stroke-width:1.0;"/><text fill="#000000" font-family="sans-serif" font-size="13" lengthAdjust="spacing" textLength="67" x="1102.7083" y="1164.1104">0..1 orgUnit</text><!--MD5=[fe03d2c8e9644e7513bef3a6fb6291e6]
reverse link Affiliation_Statement to Organisation_Unit--><path codeLine="143" d="M1223.8175,1115.49 C1216.6875,1133.76 1207.0475,1155.1 1197.1575,1174.67 " fill="none" id="Affiliation_Statement-backto-Organisation_Unit-1" style="stroke:#A80036;stroke-width:1.0;"/><polygon fill="#FFFFFF" points="1228.4375,1103.09,1222.5979,1107.3208,1224.2573,1114.3384,1230.0968,1110.1076,1228.4375,1103.09" style="stroke:#A80036;stroke-width:1.0;"/><text fill="#000000" font-family="sans-serif" font-size="13" lengthAdjust="spacing" textLength="82" x="1206.6815" y="1164.1104">0..1 institution</text><!--MD5=[dc2c5634ff295731fc33abbfcbd96d36]
reverse link Person to Affiliation_Statement--><path codeLine="147" d="M1107.2675,971.23 C1133.6875,991.6 1165.1375,1015.85 1189.9475,1034.98 " fill="none" id="Person-backto-Affiliation_Statement" style="stroke:#A80036;stroke-width:1.0;"/><polygon fill="#FFFFFF" points="1096.6575,963.05,1098.9662,969.8815,1106.1602,970.378,1103.8515,963.5464,1096.6575,963.05" style="stroke:#A80036;stroke-width:1.0;"/><text fill="#000000" font-family="sans-serif" font-size="13" lengthAdjust="spacing" textLength="81" x="1189.4868" y="1024.2693">0..* affiliations</text><!--MD5=[335bc652314d68e20c6b9db39c8a9e92]
reverse link Activity to Affiliation_Statement--><path codeLine="150" d="M908.1175,47.23 C1018.9775,57.63 1225.7875,85.76 1225.7875,151 C1225.7875,151 1225.7875,151 1225.7875,930 C1225.7875,965.86 1228.1675,1006.9 1230.1575,1034.84 " fill="none" id="Activity-backto-Affiliation_Statement" style="stroke:#A80036;stroke-width:1.0;"/><polygon fill="#A80036" points="895.0875,46.05,900.7025,50.5746,907.0387,47.1317,901.4236,42.6071,895.0875,46.05" style="stroke:#A80036;stroke-width:1.0;"/><text fill="#000000" font-family="sans-serif" font-size="13" lengthAdjust="spacing" textLength="81" x="1140.6663" y="1024.1018">0..* affiliations</text><!--MD5=[985660d160cc1234ef784a412fcab047]
reverse link Contribution to Contribution_Statement--><path codeLine="153" d="M622.6675,178.11 C603.9175,199.4 577.6575,229.22 562.0175,246.97 " fill="none" id="Contribution-backto-Contribution_Statement" style="stroke:#A80036;stroke-width:1.0;"/><polygon fill="#A80036" points="631.4375,168.16,624.4694,170.0163,623.5028,177.1623,630.4709,175.306,631.4375,168.16" style="stroke:#A80036;stroke-width:1.0;"/><text fill="#000000" font-family="sans-serif" font-size="13" lengthAdjust="spacing" textLength="158" x="438.7614" y="236.1154">0..* contributionStatements</text><!--MD5=[21f8b3605054312288eb3132d9b75edc]
reverse link Contribution_Statement to Free_Text_Contribution_Statement--><path codeLine="156" d="M552.7275,299.23 C555.2775,322.02 558.5475,351.2 560.8675,371.92 " fill="none" id="Contribution_Statement-backto-Free_Text_Contribution_Statement" style="stroke:#A80036;stroke-width:1.0;"/><polygon fill="none" points="545.7475,299.77,550.4775,279.11,559.6575,298.21,545.7475,299.77" style="stroke:#A80036;stroke-width:1.0;"/><!--MD5=[a32bc6b77530b63001477d316ccad4f4]
reverse link Contribution_Statement to Resource_Contribution_Statement--><path codeLine="159" d="M503.7675,288.82 C453.7275,316.42 374.5175,360.1 333.0875,382.94 " fill="none" id="Contribution_Statement-backto-Resource_Contribution_Statement" style="stroke:#A80036;stroke-width:1.0;"/><polygon fill="none" points="500.4875,282.64,521.3775,279.11,507.2475,294.9,500.4875,282.64" style="stroke:#A80036;stroke-width:1.0;"/><!--MD5=[9eee727d802a18f0e95ff3f6b6586c86]
link Contributorship_to_Document to Document--><path codeLine="162" d="M796.9075,297.12 C812.3375,312.56 831.0275,331.24 848.1075,348.32 " fill="none" id="Contributorship_to_Document-to-Document" style="stroke:#A80036;stroke-width:1.0;"/><polygon fill="#A80036" points="857.3975,357.61,855.9833,350.5389,848.9122,349.1247,850.3264,356.1958,857.3975,357.61" style="stroke:#A80036;stroke-width:1.0;"/><text fill="#000000" font-family="sans-serif" font-size="13" lengthAdjust="spacing" textLength="20" x="781.0258" y="318.1783">0..*</text><!--MD5=[cd935cc757d29bd6a59b1252b30899e0]
link Activity to Agent--><path codeLine="165" d="M894.8575,51.05 C979.2275,66.49 1130.7875,101.16 1130.7875,151 C1130.7875,151 1130.7875,151 1130.7875,650 C1130.7875,690.85 1101.9575,730 1079.5875,754.24 " fill="none" id="Activity-to-Agent" style="stroke:#A80036;stroke-width:1.0;"/><polygon fill="#FFFFFF" points="1070.4975,763.68,1077.5422,762.1397,1078.8298,755.0445,1071.7851,756.5848,1070.4975,763.68" style="stroke:#A80036;stroke-width:1.0;"/><text fill="#000000" font-family="sans-serif" font-size="13" lengthAdjust="spacing" textLength="20" x="902.7879" y="48.8364">0..*</text><text fill="#000000" font-family="sans-serif" font-size="13" lengthAdjust="spacing" textLength="49" x="1093.6781" y="772.594">0..1 who</text><!--MD5=[db20fd804d8595e73b6b8c99fdd1338c]
link Authorship to Textual_Document--><path codeLine="168" d="M771.2075,415.16 C790.9975,434.62 825.5575,468.59 849.0475,491.68 " fill="none" id="Authorship-to-Textual_Document" style="stroke:#A80036;stroke-width:1.0;"/><polygon fill="#A80036" points="858.3575,500.83,856.8829,493.7713,849.8,492.4175,851.2746,499.4763,858.3575,500.83" style="stroke:#A80036;stroke-width:1.0;"/><!--MD5=[debc4b893dfbd4a10dcb5407f45fc6df]
reverse link Contributorship_to_Document to Authorship--><path codeLine="171" d="M760.5975,317.4 C759.1875,341.04 757.6375,367.04 756.6875,382.95 " fill="none" id="Contributorship_to_Document-backto-Authorship" style="stroke:#A80036;stroke-width:1.0;"/><polygon fill="none" points="753.6275,316.67,761.8075,297.12,767.6075,317.51,753.6275,316.67" style="stroke:#A80036;stroke-width:1.0;"/><!--MD5=[64b3920ce24dd4d033875075a5ecfc25]
reverse link Contribution to Contributorship_to_Document--><path codeLine="174" d="M676.2075,181.78 C691.9075,196.16 710.9875,213.64 727.3275,228.6 " fill="none" id="Contribution-backto-Contributorship_to_Document" style="stroke:#A80036;stroke-width:1.0;"/><polygon fill="none" points="671.3475,186.83,661.3275,168.16,680.8075,176.5,671.3475,186.83" style="stroke:#A80036;stroke-width:1.0;"/><!--MD5=[1b0f5ea6f542eacb2001785991427a8d]
reverse link Contribution to Contributorship_to_Project--><path codeLine="177" d="M711.3675,174.16 C778.6575,195.54 880.9375,228.05 940.3875,246.94 " fill="none" id="Contribution-backto-Contributorship_to_Project" style="stroke:#A80036;stroke-width:1.0;"/><polygon fill="none" points="709.0575,180.77,692.1175,168.04,713.2975,167.43,709.0575,180.77" style="stroke:#A80036;stroke-width:1.0;"/><!--MD5=[bdc3a9ab3614c0fcd4b2ef8dfe646df2]
link Contributorship_to_Project to Project--><path codeLine="180" d="M992.4075,279.11 C999.1475,301.13 1011.7775,342.4 1020.2375,370.05 " fill="none" id="Contributorship_to_Project-to-Project" style="stroke:#A80036;stroke-width:1.0;"/><polygon fill="#A80036" points="1024.1175,382.74,1026.1906,375.8333,1020.6126,371.2633,1018.5394,378.17,1024.1175,382.74" style="stroke:#A80036;stroke-width:1.0;"/><text fill="#000000" font-family="sans-serif" font-size="13" lengthAdjust="spacing" textLength="20" x="970.6926" y="300.3462">0..*</text><text fill="#000000" font-family="sans-serif" font-size="13" lengthAdjust="spacing" textLength="65" x="960.0891" y="372.235">0..1 project</text><!--MD5=[44ebf267513ca55c9f965e3896db040b]
reverse link Contribution to Contributorship_to_Event--><path codeLine="183" d="M584.6575,174.99 C526.1875,196.38 438.9475,228.29 387.9675,246.94 " fill="none" id="Contribution-backto-Contributorship_to_Event" style="stroke:#A80036;stroke-width:1.0;"/><polygon fill="none" points="582.4775,168.34,603.6575,168.04,587.2875,181.49,582.4775,168.34" style="stroke:#A80036;stroke-width:1.0;"/><!--MD5=[faa04ed23172490daf7862c226f2b2a1]
link Contributorship_to_Event to Event--><path codeLine="186" d="M315.7175,279.05 C280.8675,296.42 223.1475,326.63 176.7875,358 C169.5075,362.93 161.9875,368.68 155.0875,374.27 " fill="none" id="Contributorship_to_Event-to-Event" style="stroke:#A80036;stroke-width:1.0;"/><polygon fill="#A80036" points="144.8875,382.77,152.0579,382.0048,154.1094,375.0917,146.939,375.8569,144.8875,382.77" style="stroke:#A80036;stroke-width:1.0;"/><text fill="#000000" font-family="sans-serif" font-size="13" lengthAdjust="spacing" textLength="20" x="282.1131" y="300.5699">0..*</text><text fill="#000000" font-family="sans-serif" font-size="13" lengthAdjust="spacing" textLength="56" x="85.1406" y="371.9965">0..1 event</text><!--MD5=[55f20054f286b2e7074e8d22fab1f608]
reverse link Activity to Contribution--><path codeLine="189" d="M767.1975,82.57 C733.8375,101.22 696.2975,122.21 671.6875,135.96 " fill="none" id="Activity-backto-Contribution" style="stroke:#A80036;stroke-width:1.0;"/><polygon fill="none" points="763.8175,76.45,784.6875,72.8,770.6475,88.67,763.8175,76.45" style="stroke:#A80036;stroke-width:1.0;"/><!--MD5=[ac110f789ae7a6a0503e4df1ad0c3da4]
reverse link Activity to Membership--><path codeLine="192" d="M764.9475,60.54 C675.3275,82.74 527.6475,119.33 450.4175,138.46 " fill="none" id="Activity-backto-Membership" style="stroke:#A80036;stroke-width:1.0;"/><polygon fill="none" points="763.4075,53.71,784.5075,55.69,766.7775,67.3,763.4075,53.71" style="stroke:#A80036;stroke-width:1.0;"/><!--MD5=[f5e0273634b15655b552a32017180749]
link Membership to Group--><path codeLine="195" d="M366.0175,168.02 C334.0075,182.58 284.8475,205.83 243.7875,229 C237.8575,232.35 231.6675,236.11 225.7375,239.86 " fill="none" id="Membership-to-Group" style="stroke:#A80036;stroke-width:1.0;"/><polygon fill="#FFFFFF" points="214.7675,246.95,221.9779,247.0511,224.8445,240.4343,217.6341,240.3331,214.7675,246.95" style="stroke:#A80036;stroke-width:1.0;"/><text fill="#000000" font-family="sans-serif" font-size="13" lengthAdjust="spacing" textLength="20" x="331.5187" y="189.53">0..*</text><text fill="#000000" font-family="sans-serif" font-size="13" lengthAdjust="spacing" textLength="87" x="120.37" y="236.2384">0..1 member of</text><!--MD5=[69e52749bc6a88f912658ed2a89efd9a]
link Acknowledgement_Statement to Contribution--><path codeLine="198" d="M358.5975,57.04 C417.9675,76.53 521.5375,110.54 586.4675,131.85 " fill="none" id="Acknowledgement_Statement-to-Contribution" style="stroke:#A80036;stroke-width:1.0;"/><polygon fill="#FFFFFF" points="598.9075,135.94,594.4547,130.2679,587.5063,132.1967,591.9591,137.8688,598.9075,135.94" style="stroke:#A80036;stroke-width:1.0;"/><text fill="#000000" font-family="sans-serif" font-size="13" lengthAdjust="spacing" textLength="78" x="282.8533" y="78.5566">0..* thanks to</text><text fill="#000000" font-family="sans-serif" font-size="13" lengthAdjust="spacing" textLength="22" x="565.176" y="128.509">0..1</text><!--MD5=[9a54662a9dd62a0778534af2fcaddce0]
link Acknowledgement_Statement to Resource--><path codeLine="201" d="M238.2075,57.02 C158.5975,75.26 43.7875,108.86 43.7875,151 C43.7875,151 43.7875,151 43.7875,400 C43.7875,436.33 70.1875,470.13 91.8675,491.77 " fill="none" id="Acknowledgement_Statement-to-Resource" style="stroke:#A80036;stroke-width:1.0;"/><polygon fill="#FFFFFF" points="101.3875,500.81,99.7978,493.7763,92.6938,492.5384,94.2834,499.5721,101.3875,500.81" style="stroke:#A80036;stroke-width:1.0;"/><text fill="#000000" font-family="sans-serif" font-size="13" lengthAdjust="spacing" textLength="20" x="190.1904" y="78.53">0..*</text><text fill="#000000" font-family="sans-serif" font-size="13" lengthAdjust="spacing" textLength="76" x="6" y="490.0502">0..1 resource</text><!--MD5=[bd2b41009eed06f10d8bee85cf3b965a]
link Resource_Contribution_Statement to Resource--><path codeLine="204" d="M281.4675,415.16 C249.3075,435.23 192.3675,470.73 155.3675,493.81 " fill="none" id="Resource_Contribution_Statement-to-Resource" style="stroke:#A80036;stroke-width:1.0;"/><polygon fill="#A80036" points="144.1075,500.83,151.3154,501.0454,154.2864,494.4748,147.0786,494.2594,144.1075,500.83" style="stroke:#A80036;stroke-width:1.0;"/><text fill="#000000" font-family="sans-serif" font-size="13" lengthAdjust="spacing" textLength="20" x="250.528" y="436.4121">0..*</text><text fill="#000000" font-family="sans-serif" font-size="13" lengthAdjust="spacing" textLength="76" x="165.53" y="490.0771">0..1 resource</text><!--MD5=[49125a4ba45432b051dcbcd9e53401d7]
link Authorship to Agent--><path codeLine="207" d="M745.2575,415.26 C716.1575,459.47 640.8475,589.28 703.7875,665 C791.0375,769.97 885.8075,659.09 1004.7875,726 C1016.6575,732.68 1027.2775,743.24 1035.5775,753.18 " fill="none" id="Authorship-to-Agent" style="stroke:#A80036;stroke-width:1.0;"/><polygon fill="#FFFFFF" points="1043.6075,763.51,1043.0827,756.318,1036.242,754.0364,1036.7669,761.2283,1043.6075,763.51" style="stroke:#A80036;stroke-width:1.0;"/><path d="M685.7875,568 L685.7875,594 L827.7875,594 L827.7875,578 L817.7875,568 L685.7875,568 " fill="#FFFF00" filter="url(#fdcjvq8kklbx6)" style="stroke:#A80036;stroke-width:1.0;"/><path d="M817.7875,568 L817.7875,578 L827.7875,578 L817.7875,568 " fill="#FFFF00" style="stroke:#A80036;stroke-width:1.0;"/><text fill="#000000" font-family="sans-serif" font-size="13" lengthAdjust="spacing" textLength="121" x="691.7875" y="586.4951">author == contributor</text><text fill="#000000" font-family="sans-serif" font-size="13" lengthAdjust="spacing" textLength="20" x="718.7136" y="436.544">0..*</text><text fill="#000000" font-family="sans-serif" font-size="13" lengthAdjust="spacing" textLength="62" x="995.8495" y="746.6304">0..1 author</text><!--MD5=[5d8901ce694eb85aefa78b7d82d9f6f6]
link Person to Person_Name--><path codeLine="211" d="M1050.9075,963.05 C1049.4575,979.75 1047.6675,1000.33 1046.0575,1018.83 " fill="none" id="Person-to-Person_Name" style="stroke:#A80036;stroke-width:1.0;stroke-dasharray:7.0,7.0;"/><polygon fill="#A80036" points="1045.6075,1023.99,1050.3636,1015.3656,1046.0357,1019.0084,1042.393,1014.6805,1045.6075,1023.99" style="stroke:#A80036;stroke-width:1.0;"/><text fill="#000000" font-family="sans-serif" font-size="13" lengthAdjust="spacing" textLength="32" x="1011.6663" y="1013.0889">name</text><!--MD5=[de96f77e660762cb21a195b4097c3876]
reverse link Agent to Person--><path codeLine="214" d="M1053.7875,816.24 C1053.7875,840.07 1053.7875,871.33 1053.7875,894.73 " fill="none" id="Agent-backto-Person" style="stroke:#A80036;stroke-width:1.0;"/><polygon fill="none" points="1046.7875,816.18,1053.7875,796.18,1060.7875,816.18,1046.7875,816.18" style="stroke:#A80036;stroke-width:1.0;"/><!--MD5=[521d3f26cc3887ed8885a4c0e03f9952]
reverse link Agent to Organisation_Unit--><path codeLine="217" d="M1026.8575,811.83 C977.0775,872.76 880.9975,1011.54 940.7875,1114 C972.0075,1167.51 1036.4875,1199.32 1086.7275,1216.88 " fill="none" id="Agent-backto-Organisation_Unit" style="stroke:#A80036;stroke-width:1.0;"/><polygon fill="none" points="1021.8075,806.96,1040.0475,796.18,1032.5075,815.98,1021.8075,806.96" style="stroke:#A80036;stroke-width:1.0;"/><!--MD5=[15e2f573152931505f3d87c1c2d22c4e]
link Organisation_Unit to Postal_Address--><path codeLine="220" d="M1177.2875,1298.32 C1183.6875,1316.4 1190.6675,1336.13 1196.9475,1353.9 " fill="none" id="Organisation_Unit-to-Postal_Address" style="stroke:#A80036;stroke-width:1.0;stroke-dasharray:7.0,7.0;"/><polygon fill="#A80036" points="1198.6975,1358.86,1199.4601,1349.0407,1197.0267,1354.1474,1191.92,1351.714,1198.6975,1358.86" style="stroke:#A80036;stroke-width:1.0;"/><text fill="#000000" font-family="sans-serif" font-size="13" lengthAdjust="spacing" textLength="46" x="1147.176" y="1348.3289">address</text><!--MD5=[67ceb885199ca7e1fa058287d8756a2e]
reverse link Document to Textual_Document--><path codeLine="223" d="M885.3775,459.99 C882.2275,475.19 879.1175,490.21 876.9175,500.86 " fill="none" id="Document-backto-Textual_Document" style="stroke:#A80036;stroke-width:1.0;"/><polygon fill="none" points="878.5475,458.41,889.4575,440.25,892.2575,461.25,878.5475,458.41" style="stroke:#A80036;stroke-width:1.0;"/><!--MD5=[0df3595c7a152ac097b4d28b9398e692]
reverse link Textual_Document to Textual_Document_Accessibility_Specification--><path codeLine="225" d="M871.6175,546.16 C869.5675,572.79 866.5775,611.75 864.9475,632.93 " fill="none" id="Textual_Document-backto-Textual_Document_Accessibility_Specification" style="stroke:#A80036;stroke-width:1.0;"/><polygon fill="#A80036" points="872.6175,533.17,868.1677,538.8444,871.6941,545.1344,876.1439,539.46,872.6175,533.17" style="stroke:#A80036;stroke-width:1.0;"/><text fill="#000000" font-family="sans-serif" font-size="13" lengthAdjust="spacing" textLength="103" x="744.6431" y="622.2115">0..* accessRights</text><!--MD5=[2c23d09c80fbfac9dc5109bf504b493e]
link Textual_Document to Agent--><path codeLine="227" d="M905.2775,533.11 C940.2675,551.6 995.6475,586.32 1024.7875,633 C1050.9175,674.87 1054.1975,735.53 1054.1775,763.64 " fill="none" id="Textual_Document-Agent" style="stroke:#A80036;stroke-width:1.0;"/><text fill="#000000" font-family="sans-serif" font-size="13" lengthAdjust="spacing" textLength="140" x="753.0024" y="554.3462">0..* authoredDocuments</text><text fill="#000000" font-family="sans-serif" font-size="13" lengthAdjust="spacing" textLength="67" x="1065.4036" y="753.1241">0..* authors</text><!--MD5=[35a7f441aea01c5c6636ef7fa719e032]
@startuml
	!startsub common
        !define datatype(x) class x << (D,#add0b2) DataType>> #ffffff
        hide empty members
        skinparam BoxPadding 120
	!endsub

    !startsub Document
        class "Document" #ffffff {
            DOI : DOI_Type
            title : Multilingual_String
            publicationDate : Date
        }
        class "Textual_Document" #ffffff {
        }
    !endsub

    !startsub TDAS
        class "Textual_Document_Accessibility_Specification" #ffffff {
        }
    !endsub

    !startsub Agent
        class "Agent" #ffffff {
        }
    !endsub

    !startsub OrgUnit
        class "Organisation_Unit" #ffffff {
            name : Multilingual_String
            acronym : String
            address : Postal_Address
            rorId : ROR_Id
            webSiteURL : URL
            email : URL
        }
    !endsub

   !startsub Person
    class "Person" #ffffff {
        name : Person_Name
        orcidId : ORCID_iD
    }

    datatype("Person_Name") {
        firstNames : Multilingual_String
        familyNames : Multilingual_String
        otherNames : Multilingual_String
    }
    !endsub

    !startsub Activity
    class "Activity" #ffffff {
        contacts : List<URI>
        displayName : String
    }
    !endsub

    !startsub Membership
        class "Membership" #ffffff {
        }
        class "Group" #ffffff {
        }
    !endsub

    !startsub ContributorshipToProject
        class "Contributorship_to_Project" #ffffff {
        }
    
        class "Project" #ffffff {
        }
    !endsub
    
    !startsub ContributorshipToEvent
        class "Contributorship_to_Event" #ffffff {
        }
    
        class "Event" #ffffff {
        }
    !endsub

    !startsub Contribution
        class "Contribution" #ffffff {
        }
            
        class "Acknowledgement_Statement" #ffffff {
        }
        
        class "Contribution_Statement" #ffffff {
        }
        
        class "Free_Text_Contribution_Statement" #ffffff {
            statement : Multilingual_String
        }
    
        class "Resource_Contribution_Statement" #ffffff {
        }
    
        class "Resource" #ffffff {
        }
    !endsub


    !startsub ContributorshipToDocument
        class "Contributorship_to_Document" #ffffff {
        }
    !endsub
    !startsub Authorship    
        class "Authorship" #ffffff {
            correspondingAuthorFlag : Boolean
        }
    !endsub

    !startsub PostalAddress
        datatype("Postal_Address") {
            street : Multilingual_String
            city : Multilingual_String
            zipCode : Multilingual_String
            country : Country
        }
        datatype("Country") {
             iso3166alpha2Code : ISO3166_Alpha2_Code
             name : Multilingual_String
        }
    !endsub

    !startsub AffiliationStatement
        class "Affiliation_Statement" #ffffff {
            displayAffiliation : String
            address : Postal_Address
        }
    !endsub AffiliationStatement

    !startsub PostalAddress
    "Postal_Address" o- - "country" "Country"
    !endsub
    !startsub AffiliationStatement
        "Affiliation_Statement" ..> "postalAddress" "Postal_Address"
    !endsub
    !startsub AffiliationStatement
        "Affiliation_Statement" o- - "0..1 orgUnit" "Organisation_Unit"
    !endsub
    !startsub AffiliationStatement
        "Affiliation_Statement" o- - "0..1 institution" "Organisation_Unit"
        '    "Affiliation_Statement" o- - "person" "Person"
    !endsub
    !startsub AffiliationStatement
        "Person" o- - "0..* affiliations" "Affiliation_Statement"
    !endsub
    !startsub AffiliationStatement
        "Activity" *- - "0..* affiliations" "Affiliation_Statement"
    !endsub
    !startsub Contribution
        "Contribution" *- - "0..* contributionStatements" "Contribution_Statement"
    !endsub
    !startsub Contribution
        "Contribution_Statement" <|- - "Free_Text_Contribution_Statement"
    !endsub
    !startsub Contribution
        "Contribution_Statement" <|- - "Resource_Contribution_Statement"
    !endsub
    !startsub ContributorshipToDocument
        "Contributorship_to_Document" "0..*" - -* "Document"
    !endsub
    !startsub Activity
        "Activity" "0..*" - -o "0..1 who" "Agent"
    !endsub
    !startsub Authorship
        "Authorship" - -* "Textual_Document"
    !endsub
    !startsub Authorship
        "Contributorship_to_Document" <|- - "Authorship"
    !endsub
    !startsub ContributorshipToDocument
        "Contribution" <|- - "Contributorship_to_Document"
    !endsub
    !startsub ContributorshipToProject
        "Contribution" <|- - "Contributorship_to_Project"
    !endsub
    !startsub ContributorshipToProject
        "Contributorship_to_Project" "0..*" - -* "0..1 project" "Project"
    !endsub
    !startsub ContributorshipToEvent
        "Contribution" <|- - "Contributorship_to_Event"
    !endsub
    !startsub ContributorshipToEvent
        "Contributorship_to_Event" "0..*" - -* "0..1 event" "Event"
    !endsub
    !startsub Contribution
        "Activity" <|- - "Contribution"
    !endsub
    !startsub Membership
        "Activity" <|- - "Membership"
    !endsub
    !startsub Membership
        "Membership" "0..*" - -o "0..1 member of" "Group"
    !endsub
    !startsub Contribution
        "Acknowledgement_Statement" "0..* thanks to" - -o "0..1" "Contribution"
    !endsub
    !startsub Contribution
        "Acknowledgement_Statement" "0..*" - -o "0..1 resource" "Resource"
    !endsub
    !startsub Contribution
        "Resource_Contribution_Statement" "0..*" - -* "0..1 resource" "Resource"
    !endsub
    !startsub Authorship
        "Authorship" "0..*" - -o "0..1 author" "Agent"
    !endsub
    note on link #yellow: author == contributor
    !startsub Person
        "Person" ..> "name" "Person_Name"
    !endsub
    !startsub Person
        "Agent" <|- - "Person"
    !endsub
    !startsub OrgUnit
        "Agent" <|- - "Organisation_Unit"
    !endsub
    !startsub OrgUnit
        "Organisation_Unit" ..> "address" "Postal_Address"
    !endsub
    !startsub Document
        "Document" <|- - "Textual_Document"
    !endsub
    "Textual_Document" *- - "0..* accessRights" "Textual_Document_Accessibility_Specification"
    !startsub Authorship
        "Textual_Document" "0..* authoredDocuments" - - - "0..* authors" "Agent"
    !endsub
    note left of Agent #yellow: The Agent is mandatory for almost all \nsubclasses of Contributorship,\nReviewing is the exception if the \nreviewer's identity is concealed. \nAlso useful when authors are \nusing pseudonyms.
@enduml

@startuml
        hide empty members
        skinparam BoxPadding 120

        class "Document" #ffffff {
            DOI : DOI_Type
            title : Multilingual_String
            publicationDate : Date
        }
        class "Textual_Document" #ffffff {
        }

        class "Textual_Document_Accessibility_Specification" #ffffff {
        }

        class "Agent" #ffffff {
        }

        class "Organisation_Unit" #ffffff {
            name : Multilingual_String
            acronym : String
            address : Postal_Address
            rorId : ROR_Id
            webSiteURL : URL
            email : URL
        }

    class "Person" #ffffff {
        name : Person_Name
        orcidId : ORCID_iD
    }

    class Person_Name << (D,#add0b2) DataType>> #ffffff {
        firstNames : Multilingual_String
        familyNames : Multilingual_String
        otherNames : Multilingual_String
    }

    class "Activity" #ffffff {
        contacts : List<URI>
        displayName : String
    }

        class "Membership" #ffffff {
        }
        class "Group" #ffffff {
        }

        class "Contributorship_to_Project" #ffffff {
        }
    
        class "Project" #ffffff {
        }
    
        class "Contributorship_to_Event" #ffffff {
        }
    
        class "Event" #ffffff {
        }

        class "Contribution" #ffffff {
        }
            
        class "Acknowledgement_Statement" #ffffff {
        }
        
        class "Contribution_Statement" #ffffff {
        }
        
        class "Free_Text_Contribution_Statement" #ffffff {
            statement : Multilingual_String
        }
    
        class "Resource_Contribution_Statement" #ffffff {
        }
    
        class "Resource" #ffffff {
        }


        class "Contributorship_to_Document" #ffffff {
        class "Authorship" #ffffff {
            correspondingAuthorFlag : Boolean
        }

        class Postal_Address << (D,#add0b2) DataType>> #ffffff {
            street : Multilingual_String
            city : Multilingual_String
            zipCode : Multilingual_String
            country : Country
        }
        class Country << (D,#add0b2) DataType>> #ffffff {
             iso3166alpha2Code : ISO3166_Alpha2_Code
             name : Multilingual_String
        }

        class "Affiliation_Statement" #ffffff {
            displayAffiliation : String
            address : Postal_Address
        }

    "Postal_Address" o- - "country" "Country"
        "Affiliation_Statement" ..> "postalAddress" "Postal_Address"
        "Affiliation_Statement" o- - "0..1 orgUnit" "Organisation_Unit"
        "Affiliation_Statement" o- - "0..1 institution" "Organisation_Unit"
        "Person" o- - "0..* affiliations" "Affiliation_Statement"
        "Activity" *- - "0..* affiliations" "Affiliation_Statement"
        "Contribution" *- - "0..* contributionStatements" "Contribution_Statement"
        "Contribution_Statement" <|- - "Free_Text_Contribution_Statement"
        "Contribution_Statement" <|- - "Resource_Contribution_Statement"
        "Contributorship_to_Document" "0..*" - -* "Document"
        "Activity" "0..*" - -o "0..1 who" "Agent"
        "Authorship" - -* "Textual_Document"
        "Contributorship_to_Document" <|- - "Authorship"
        "Contribution" <|- - "Contributorship_to_Document"
        "Contribution" <|- - "Contributorship_to_Project"
        "Contributorship_to_Project" "0..*" - -* "0..1 project" "Project"
        "Contribution" <|- - "Contributorship_to_Event"
        "Contributorship_to_Event" "0..*" - -* "0..1 event" "Event"
        "Activity" <|- - "Contribution"
        "Activity" <|- - "Membership"
        "Membership" "0..*" - -o "0..1 member of" "Group"
        "Acknowledgement_Statement" "0..* thanks to" - -o "0..1" "Contribution"
        "Acknowledgement_Statement" "0..*" - -o "0..1 resource" "Resource"
        "Resource_Contribution_Statement" "0..*" - -* "0..1 resource" "Resource"
        "Authorship" "0..*" - -o "0..1 author" "Agent"
    note on link #yellow: author == contributor
        "Person" ..> "name" "Person_Name"
        "Agent" <|- - "Person"
        "Agent" <|- - "Organisation_Unit"
        "Organisation_Unit" ..> "address" "Postal_Address"
        "Document" <|- - "Textual_Document"
    "Textual_Document" *- - "0..* accessRights" "Textual_Document_Accessibility_Specification"
        "Textual_Document" "0..* authoredDocuments" - - - "0..* authors" "Agent"
    note left of Agent #yellow: The Agent is mandatory for almost all \nsubclasses of Contributorship,\nReviewing is the exception if the \nreviewer's identity is concealed. \nAlso useful when authors are \nusing pseudonyms.
@enduml

PlantUML version 1.2021.8(Sat Jun 26 10:20:59 CEST 2021)
(GPL source distribution)
Java Runtime: Java(TM) SE Runtime Environment
JVM: Java HotSpot(TM) 64-Bit Server VM
Default Encoding: Cp1252
Language: en
Country: US
--></g></svg>