<?xml version="1.0" encoding="UTF-8" standalone="no"?><svg xmlns="http://www.w3.org/2000/svg" xmlns:xlink="http://www.w3.org/1999/xlink" contentScriptType="application/ecmascript" contentStyleType="text/css" height="1076px" preserveAspectRatio="none" style="width:1084px;height:1076px;background:#FFFFFF;" version="1.1" viewBox="0 0 1084 1076" width="1084px" zoomAndPan="magnify"><defs><filter height="300%" id="fv9fksnhruvyc" width="300%" x="-1" y="-1"><feGaussianBlur result="blurOut" stdDeviation="2.0"/><feColorMatrix in="blurOut" result="blurOut2" type="matrix" values="0 0 0 0 0 0 0 0 0 0 0 0 0 0 0 0 0 0 .4 0"/><feOffset dx="4.0" dy="4.0" in="blurOut2" result="blurOut3"/><feBlend in="SourceGraphic" in2="blurOut3" mode="normal"/></filter></defs><g><!--MD5=[59b530d44ae785dc18db921986a9c15c]
class Document--><rect codeLine="8" fill="#FFFFFF" filter="url(#fv9fksnhruvyc)" height="78.4141" id="Document" style="stroke:#A80036;stroke-width:1.5;" width="148" x="617.5" y="232.5"/><ellipse cx="655.9" cy="248.5" fill="#ADD1B2" rx="11" ry="11" style="stroke:#A80036;stroke-width:1.0;"/><path d="M658.8688,254.1406 Q658.2906,254.4375 657.65,254.5781 Q657.0094,254.7344 656.3063,254.7344 Q653.8063,254.7344 652.4781,253.0938 Q651.1656,251.4375 651.1656,248.3125 Q651.1656,245.1875 652.4781,243.5313 Q653.8063,241.875 656.3063,241.875 Q657.0094,241.875 657.65,242.0313 Q658.3063,242.1875 658.8688,242.4844 L658.8688,245.2031 Q658.2438,244.625 657.65,244.3594 Q657.0563,244.0781 656.4313,244.0781 Q655.0875,244.0781 654.4,245.1563 Q653.7125,246.2188 653.7125,248.3125 Q653.7125,250.4063 654.4,251.4844 Q655.0875,252.5469 656.4313,252.5469 Q657.0563,252.5469 657.65,252.2813 Q658.2438,252 658.8688,251.4219 L658.8688,254.1406 Z " fill="#000000"/><text fill="#000000" font-family="sans-serif" font-size="12" lengthAdjust="spacing" textLength="64" x="675.1" y="252.6543">Document</text><line style="stroke:#A80036;stroke-width:1.5;" x1="618.5" x2="764.5" y1="264.5" y2="264.5"/><text fill="#000000" font-family="sans-serif" font-size="11" lengthAdjust="spacing" textLength="85" x="623.5" y="278.7104">DOI : DOI_Type</text><text fill="#000000" font-family="sans-serif" font-size="11" lengthAdjust="spacing" textLength="136" x="623.5" y="291.5151">title : Multilingual_String</text><text fill="#000000" font-family="sans-serif" font-size="11" lengthAdjust="spacing" textLength="125" x="623.5" y="304.3198">publicationDate : Date</text><!--MD5=[fe105c2ee1fabf2400c31a97ce9128bc]
class Textual_Document--><rect codeLine="13" fill="#FFFFFF" filter="url(#fv9fksnhruvyc)" height="32" id="Textual_Document" style="stroke:#A80036;stroke-width:1.5;" width="147" x="574" y="17.5"/><ellipse cx="589" cy="33.5" fill="#ADD1B2" rx="11" ry="11" style="stroke:#A80036;stroke-width:1.0;"/><path d="M591.9688,39.1406 Q591.3906,39.4375 590.75,39.5781 Q590.1094,39.7344 589.4063,39.7344 Q586.9063,39.7344 585.5781,38.0938 Q584.2656,36.4375 584.2656,33.3125 Q584.2656,30.1875 585.5781,28.5313 Q586.9063,26.875 589.4063,26.875 Q590.1094,26.875 590.75,27.0313 Q591.4063,27.1875 591.9688,27.4844 L591.9688,30.2031 Q591.3438,29.625 590.75,29.3594 Q590.1563,29.0781 589.5313,29.0781 Q588.1875,29.0781 587.5,30.1563 Q586.8125,31.2188 586.8125,33.3125 Q586.8125,35.4063 587.5,36.4844 Q588.1875,37.5469 589.5313,37.5469 Q590.1563,37.5469 590.75,37.2813 Q591.3438,37 591.9688,36.4219 L591.9688,39.1406 Z " fill="#000000"/><text fill="#000000" font-family="sans-serif" font-size="12" lengthAdjust="spacing" textLength="115" x="603" y="37.6543">Textual_Document</text><!--MD5=[152f153d79baedb26b20a34b9b1b571f]
class Textual_Document_Accessibility_Specification--><rect codeLine="18" fill="#FFFFFF" filter="url(#fv9fksnhruvyc)" height="32" id="Textual_Document_Accessibility_Specification" style="stroke:#A80036;stroke-width:1.5;" width="314" x="756.5" y="17.5"/><ellipse cx="771.5" cy="33.5" fill="#ADD1B2" rx="11" ry="11" style="stroke:#A80036;stroke-width:1.0;"/><path d="M774.4688,39.1406 Q773.8906,39.4375 773.25,39.5781 Q772.6094,39.7344 771.9063,39.7344 Q769.4063,39.7344 768.0781,38.0938 Q766.7656,36.4375 766.7656,33.3125 Q766.7656,30.1875 768.0781,28.5313 Q769.4063,26.875 771.9063,26.875 Q772.6094,26.875 773.25,27.0313 Q773.9063,27.1875 774.4688,27.4844 L774.4688,30.2031 Q773.8438,29.625 773.25,29.3594 Q772.6563,29.0781 772.0313,29.0781 Q770.6875,29.0781 770,30.1563 Q769.3125,31.2188 769.3125,33.3125 Q769.3125,35.4063 770,36.4844 Q770.6875,37.5469 772.0313,37.5469 Q772.6563,37.5469 773.25,37.2813 Q773.8438,37 774.4688,36.4219 L774.4688,39.1406 Z " fill="#000000"/><text fill="#000000" font-family="sans-serif" font-size="12" lengthAdjust="spacing" textLength="282" x="785.5" y="37.6543">Textual_Document_Accessibility_Specification</text><!--MD5=[9d44916250b776386006c440668bcfbb]
class Agent--><rect codeLine="23" fill="#FFFFFF" filter="url(#fv9fksnhruvyc)" height="32" id="Agent" style="stroke:#A80036;stroke-width:1.5;" width="69" x="306" y="255.5"/><ellipse cx="321" cy="271.5" fill="#ADD1B2" rx="11" ry="11" style="stroke:#A80036;stroke-width:1.0;"/><path d="M323.9688,277.1406 Q323.3906,277.4375 322.75,277.5781 Q322.1094,277.7344 321.4063,277.7344 Q318.9063,277.7344 317.5781,276.0938 Q316.2656,274.4375 316.2656,271.3125 Q316.2656,268.1875 317.5781,266.5313 Q318.9063,264.875 321.4063,264.875 Q322.1094,264.875 322.75,265.0313 Q323.4063,265.1875 323.9688,265.4844 L323.9688,268.2031 Q323.3438,267.625 322.75,267.3594 Q322.1563,267.0781 321.5313,267.0781 Q320.1875,267.0781 319.5,268.1563 Q318.8125,269.2188 318.8125,271.3125 Q318.8125,273.4063 319.5,274.4844 Q320.1875,275.5469 321.5313,275.5469 Q322.1563,275.5469 322.75,275.2813 Q323.3438,275 323.9688,274.4219 L323.9688,277.1406 Z " fill="#000000"/><text fill="#000000" font-family="sans-serif" font-size="12" lengthAdjust="spacing" textLength="37" x="335" y="275.6543">Agent</text><!--MD5=[779f3743e425ed8a6f0bf188ddea4860]
class Organisation_Unit--><rect codeLine="28" fill="#FFFFFF" filter="url(#fv9fksnhruvyc)" height="116.8281" id="Organisation_Unit" style="stroke:#A80036;stroke-width:1.5;" width="159" x="351" y="655"/><ellipse cx="373.2" cy="671" fill="#ADD1B2" rx="11" ry="11" style="stroke:#A80036;stroke-width:1.0;"/><path d="M376.1688,676.6406 Q375.5906,676.9375 374.95,677.0781 Q374.3094,677.2344 373.6063,677.2344 Q371.1063,677.2344 369.7781,675.5938 Q368.4656,673.9375 368.4656,670.8125 Q368.4656,667.6875 369.7781,666.0313 Q371.1063,664.375 373.6063,664.375 Q374.3094,664.375 374.95,664.5313 Q375.6063,664.6875 376.1688,664.9844 L376.1688,667.7031 Q375.5438,667.125 374.95,666.8594 Q374.3563,666.5781 373.7313,666.5781 Q372.3875,666.5781 371.7,667.6563 Q371.0125,668.7188 371.0125,670.8125 Q371.0125,672.9063 371.7,673.9844 Q372.3875,675.0469 373.7313,675.0469 Q374.3563,675.0469 374.95,674.7813 Q375.5438,674.5 376.1688,673.9219 L376.1688,676.6406 Z " fill="#000000"/><text fill="#000000" font-family="sans-serif" font-size="12" lengthAdjust="spacing" textLength="111" x="388.8" y="675.1543">Organisation_Unit</text><line style="stroke:#A80036;stroke-width:1.5;" x1="352" x2="509" y1="687" y2="687"/><text fill="#000000" font-family="sans-serif" font-size="11" lengthAdjust="spacing" textLength="147" x="357" y="701.2104">name : Multilingual_String</text><text fill="#000000" font-family="sans-serif" font-size="11" lengthAdjust="spacing" textLength="95" x="357" y="714.0151">acronym : String</text><text fill="#000000" font-family="sans-serif" font-size="11" lengthAdjust="spacing" textLength="147" x="357" y="726.8198">address : Postal_Address</text><text fill="#000000" font-family="sans-serif" font-size="11" lengthAdjust="spacing" textLength="78" x="357" y="739.6245">rorId : ROR_Id</text><text fill="#000000" font-family="sans-serif" font-size="11" lengthAdjust="spacing" textLength="99" x="357" y="752.4292">webSiteURL : URL</text><text fill="#000000" font-family="sans-serif" font-size="11" lengthAdjust="spacing" textLength="64" x="357" y="765.2339">email : URL</text><!--MD5=[09ce52be0ee7de43c61b6e2d59bf108b]
class Person--><rect codeLine="39" fill="#FFFFFF" filter="url(#fv9fksnhruvyc)" height="65.6094" id="Person" style="stroke:#A80036;stroke-width:1.5;" width="135" x="273" y="383"/><ellipse cx="314.55" cy="399" fill="#ADD1B2" rx="11" ry="11" style="stroke:#A80036;stroke-width:1.0;"/><path d="M317.5188,404.6406 Q316.9406,404.9375 316.3,405.0781 Q315.6594,405.2344 314.9563,405.2344 Q312.4563,405.2344 311.1281,403.5938 Q309.8156,401.9375 309.8156,398.8125 Q309.8156,395.6875 311.1281,394.0313 Q312.4563,392.375 314.9563,392.375 Q315.6594,392.375 316.3,392.5313 Q316.9563,392.6875 317.5188,392.9844 L317.5188,395.7031 Q316.8938,395.125 316.3,394.8594 Q315.7063,394.5781 315.0813,394.5781 Q313.7375,394.5781 313.05,395.6563 Q312.3625,396.7188 312.3625,398.8125 Q312.3625,400.9063 313.05,401.9844 Q313.7375,403.0469 315.0813,403.0469 Q315.7063,403.0469 316.3,402.7813 Q316.8938,402.5 317.5188,401.9219 L317.5188,404.6406 Z " fill="#000000"/><text fill="#000000" font-family="sans-serif" font-size="12" lengthAdjust="spacing" textLength="44" x="334.45" y="403.1543">Person</text><line style="stroke:#A80036;stroke-width:1.5;" x1="274" x2="407" y1="415" y2="415"/><text fill="#000000" font-family="sans-serif" font-size="11" lengthAdjust="spacing" textLength="123" x="279" y="429.2104">name : Person_Name</text><text fill="#000000" font-family="sans-serif" font-size="11" lengthAdjust="spacing" textLength="102" x="279" y="442.0151">orcidId : ORCID_iD</text><!--MD5=[7b209ef07eb91b93e0aebc9fe4fb9a26]
class Person_Name--><rect codeLine="44" fill="#FFFFFF" filter="url(#fv9fksnhruvyc)" height="84.3516" id="Person_Name" style="stroke:#A80036;stroke-width:1.5;" width="201" x="200" y="510"/><ellipse cx="253.25" cy="528.9688" fill="#ADD0B2" rx="11" ry="11" style="stroke:#A80036;stroke-width:1.0;"/><path d="M252.8438,524.7813 L252.8438,532.7656 L253.5,532.7656 Q254.9375,532.7656 255.5469,531.8594 Q256.1719,530.9375 256.1719,528.7656 Q256.1719,526.5938 255.5469,525.6875 Q254.9375,524.7813 253.5,524.7813 L252.8438,524.7813 Z M250.3906,522.5781 L253.0156,522.5781 Q256.0469,522.5781 257.375,524.0313 Q258.7188,525.4688 258.7188,528.7656 Q258.7188,532.0625 257.375,533.5156 Q256.0469,534.9688 253.0156,534.9688 L250.3906,534.9688 L250.3906,522.5781 Z " fill="#000000"/><text fill="#000000" font-family="sans-serif" font-size="12" font-style="italic" lengthAdjust="spacing" textLength="74" x="279.75" y="526.1387">«DataType»</text><text fill="#000000" font-family="sans-serif" font-size="12" lengthAdjust="spacing" textLength="86" x="273.75" y="540.1074">Person_Name</text><line style="stroke:#A80036;stroke-width:1.5;" x1="201" x2="400" y1="547.9375" y2="547.9375"/><text fill="#000000" font-family="sans-serif" font-size="11" lengthAdjust="spacing" textLength="178" x="206" y="562.1479">firstNames : Multilingual_String</text><text fill="#000000" font-family="sans-serif" font-size="11" lengthAdjust="spacing" textLength="189" x="206" y="574.9526">familyNames : Multilingual_String</text><text fill="#000000" font-family="sans-serif" font-size="11" lengthAdjust="spacing" textLength="185" x="206" y="587.7573">otherNames : Multilingual_String</text><!--MD5=[3b25461e5df73ababc6765bb9b0c47d3]
class Authorship--><rect codeLine="51" fill="#FFFFFF" filter="url(#fv9fksnhruvyc)" height="52.8047" id="Authorship" style="stroke:#A80036;stroke-width:1.5;" width="212" x="326.5" y="7"/><ellipse cx="394.25" cy="23" fill="#ADD1B2" rx="11" ry="11" style="stroke:#A80036;stroke-width:1.0;"/><path d="M397.2188,28.6406 Q396.6406,28.9375 396,29.0781 Q395.3594,29.2344 394.6563,29.2344 Q392.1563,29.2344 390.8281,27.5938 Q389.5156,25.9375 389.5156,22.8125 Q389.5156,19.6875 390.8281,18.0313 Q392.1563,16.375 394.6563,16.375 Q395.3594,16.375 396,16.5313 Q396.6563,16.6875 397.2188,16.9844 L397.2188,19.7031 Q396.5938,19.125 396,18.8594 Q395.4063,18.5781 394.7813,18.5781 Q393.4375,18.5781 392.75,19.6563 Q392.0625,20.7188 392.0625,22.8125 Q392.0625,24.9063 392.75,25.9844 Q393.4375,27.0469 394.7813,27.0469 Q395.4063,27.0469 396,26.7813 Q396.5938,26.5 397.2188,25.9219 L397.2188,28.6406 Z " fill="#000000"/><text fill="#000000" font-family="sans-serif" font-size="12" lengthAdjust="spacing" textLength="68" x="414.75" y="27.1543">Authorship</text><line style="stroke:#A80036;stroke-width:1.5;" x1="327.5" x2="537.5" y1="39" y2="39"/><text fill="#000000" font-family="sans-serif" font-size="11" lengthAdjust="spacing" textLength="200" x="332.5" y="53.2104">correspondingAuthorFlag : Boolean</text><!--MD5=[b821bb113f9f55c728f1fbb8949cc3af]
class Contributorship--><rect codeLine="56" fill="#FFFFFF" filter="url(#fv9fksnhruvyc)" height="65.6094" id="Contributorship" style="stroke:#A80036;stroke-width:1.5;" width="131" x="451" y="238.5"/><ellipse cx="466.9" cy="254.5" fill="#ADD1B2" rx="11" ry="11" style="stroke:#A80036;stroke-width:1.0;"/><path d="M469.8688,260.1406 Q469.2906,260.4375 468.65,260.5781 Q468.0094,260.7344 467.3063,260.7344 Q464.8063,260.7344 463.4781,259.0938 Q462.1656,257.4375 462.1656,254.3125 Q462.1656,251.1875 463.4781,249.5313 Q464.8063,247.875 467.3063,247.875 Q468.0094,247.875 468.65,248.0313 Q469.3063,248.1875 469.8688,248.4844 L469.8688,251.2031 Q469.2438,250.625 468.65,250.3594 Q468.0563,250.0781 467.4313,250.0781 Q466.0875,250.0781 465.4,251.1563 Q464.7125,252.2188 464.7125,254.3125 Q464.7125,256.4063 465.4,257.4844 Q466.0875,258.5469 467.4313,258.5469 Q468.0563,258.5469 468.65,258.2813 Q469.2438,258 469.8688,257.4219 L469.8688,260.1406 Z " fill="#000000"/><text fill="#000000" font-family="sans-serif" font-size="12" lengthAdjust="spacing" textLength="97" x="481.1" y="258.6543">Contributorship</text><line style="stroke:#A80036;stroke-width:1.5;" x1="452" x2="581" y1="270.5" y2="270.5"/><text fill="#000000" font-family="sans-serif" font-size="11" lengthAdjust="spacing" textLength="116" x="457" y="284.7104">contacts : List&lt;URI&gt;</text><text fill="#000000" font-family="sans-serif" font-size="11" lengthAdjust="spacing" textLength="119" x="457" y="297.5151">displayName : String</text><!--MD5=[532fe005ca0bef0ad6b309c9c6480e22]
class Contribution_Statement--><rect codeLine="61" fill="#FFFFFF" filter="url(#fv9fksnhruvyc)" height="32" id="Contribution_Statement" style="stroke:#A80036;stroke-width:1.5;" width="181" x="618" y="400"/><ellipse cx="633" cy="416" fill="#ADD1B2" rx="11" ry="11" style="stroke:#A80036;stroke-width:1.0;"/><path d="M635.9688,421.6406 Q635.3906,421.9375 634.75,422.0781 Q634.1094,422.2344 633.4063,422.2344 Q630.9063,422.2344 629.5781,420.5938 Q628.2656,418.9375 628.2656,415.8125 Q628.2656,412.6875 629.5781,411.0313 Q630.9063,409.375 633.4063,409.375 Q634.1094,409.375 634.75,409.5313 Q635.4063,409.6875 635.9688,409.9844 L635.9688,412.7031 Q635.3438,412.125 634.75,411.8594 Q634.1563,411.5781 633.5313,411.5781 Q632.1875,411.5781 631.5,412.6563 Q630.8125,413.7188 630.8125,415.8125 Q630.8125,417.9063 631.5,418.9844 Q632.1875,420.0469 633.5313,420.0469 Q634.1563,420.0469 634.75,419.7813 Q635.3438,419.5 635.9688,418.9219 L635.9688,421.6406 Z " fill="#000000"/><text fill="#000000" font-family="sans-serif" font-size="12" lengthAdjust="spacing" textLength="149" x="647" y="420.1543">Contribution_Statement</text><!--MD5=[75e6ee6f0cee60576da1adad405695b7]
class Free_Text_Contribution_Statement--><rect codeLine="64" fill="#FFFFFF" filter="url(#fv9fksnhruvyc)" height="52.8047" id="Free_Text_Contribution_Statement" style="stroke:#A80036;stroke-width:1.5;" width="247" x="632" y="525.5"/><ellipse cx="647" cy="541.5" fill="#ADD1B2" rx="11" ry="11" style="stroke:#A80036;stroke-width:1.0;"/><path d="M649.9688,547.1406 Q649.3906,547.4375 648.75,547.5781 Q648.1094,547.7344 647.4063,547.7344 Q644.9063,547.7344 643.5781,546.0938 Q642.2656,544.4375 642.2656,541.3125 Q642.2656,538.1875 643.5781,536.5313 Q644.9063,534.875 647.4063,534.875 Q648.1094,534.875 648.75,535.0313 Q649.4063,535.1875 649.9688,535.4844 L649.9688,538.2031 Q649.3438,537.625 648.75,537.3594 Q648.1563,537.0781 647.5313,537.0781 Q646.1875,537.0781 645.5,538.1563 Q644.8125,539.2188 644.8125,541.3125 Q644.8125,543.4063 645.5,544.4844 Q646.1875,545.5469 647.5313,545.5469 Q648.1563,545.5469 648.75,545.2813 Q649.3438,545 649.9688,544.4219 L649.9688,547.1406 Z " fill="#000000"/><text fill="#000000" font-family="sans-serif" font-size="12" lengthAdjust="spacing" textLength="215" x="661" y="545.6543">Free_Text_Contribution_Statement</text><line style="stroke:#A80036;stroke-width:1.5;" x1="633" x2="878" y1="557.5" y2="557.5"/><text fill="#000000" font-family="sans-serif" font-size="11" lengthAdjust="spacing" textLength="173" x="638" y="571.7104">statement : Multilingual_String</text><!--MD5=[fe1d14fe6d68ca7e76eb34268c62a1f3]
class Postal_Address--><rect codeLine="70" fill="#FFFFFF" filter="url(#fv9fksnhruvyc)" height="97.1563" id="Postal_Address" style="stroke:#A80036;stroke-width:1.5;" width="171" x="411" y="833"/><ellipse cx="445.35" cy="851.9688" fill="#ADD0B2" rx="11" ry="11" style="stroke:#A80036;stroke-width:1.0;"/><path d="M444.9438,847.7813 L444.9438,855.7656 L445.6,855.7656 Q447.0375,855.7656 447.6469,854.8594 Q448.2719,853.9375 448.2719,851.7656 Q448.2719,849.5938 447.6469,848.6875 Q447.0375,847.7813 445.6,847.7813 L444.9438,847.7813 Z M442.4906,845.5781 L445.1156,845.5781 Q448.1469,845.5781 449.475,847.0313 Q450.8188,848.4688 450.8188,851.7656 Q450.8188,855.0625 449.475,856.5156 Q448.1469,857.9688 445.1156,857.9688 L442.4906,857.9688 L442.4906,845.5781 Z " fill="#000000"/><text fill="#000000" font-family="sans-serif" font-size="12" font-style="italic" lengthAdjust="spacing" textLength="74" x="474.65" y="849.1387">«DataType»</text><text fill="#000000" font-family="sans-serif" font-size="12" lengthAdjust="spacing" textLength="96" x="463.65" y="863.1074">Postal_Address</text><line style="stroke:#A80036;stroke-width:1.5;" x1="412" x2="581" y1="870.9375" y2="870.9375"/><text fill="#000000" font-family="sans-serif" font-size="11" lengthAdjust="spacing" textLength="149" x="417" y="885.1479">street : Multilingual_String</text><text fill="#000000" font-family="sans-serif" font-size="11" lengthAdjust="spacing" textLength="134" x="417" y="897.9526">city : Multilingual_String</text><text fill="#000000" font-family="sans-serif" font-size="11" lengthAdjust="spacing" textLength="159" x="417" y="910.7573">zipCode : Multilingual_String</text><text fill="#000000" font-family="sans-serif" font-size="11" lengthAdjust="spacing" textLength="98" x="417" y="923.562">country : Country</text><!--MD5=[deb4e1f6eb1e3c1256fdb830f96abfbb]
class Country--><rect codeLine="76" fill="#FFFFFF" filter="url(#fv9fksnhruvyc)" height="71.5469" id="Country" style="stroke:#A80036;stroke-width:1.5;" width="263" x="365" y="991"/><ellipse cx="457.25" cy="1009.9688" fill="#ADD0B2" rx="11" ry="11" style="stroke:#A80036;stroke-width:1.0;"/><path d="M456.8438,1005.7813 L456.8438,1013.7656 L457.5,1013.7656 Q458.9375,1013.7656 459.5469,1012.8594 Q460.1719,1011.9375 460.1719,1009.7656 Q460.1719,1007.5938 459.5469,1006.6875 Q458.9375,1005.7813 457.5,1005.7813 L456.8438,1005.7813 Z M454.3906,1003.5781 L457.0156,1003.5781 Q460.0469,1003.5781 461.375,1005.0313 Q462.7188,1006.4688 462.7188,1009.7656 Q462.7188,1013.0625 461.375,1014.5156 Q460.0469,1015.9688 457.0156,1015.9688 L454.3906,1015.9688 L454.3906,1003.5781 Z " fill="#000000"/><text fill="#000000" font-family="sans-serif" font-size="12" font-style="italic" lengthAdjust="spacing" textLength="74" x="475.75" y="1007.1387">«DataType»</text><text fill="#000000" font-family="sans-serif" font-size="12" lengthAdjust="spacing" textLength="48" x="488.75" y="1021.1074">Country</text><line style="stroke:#A80036;stroke-width:1.5;" x1="366" x2="627" y1="1028.9375" y2="1028.9375"/><text fill="#000000" font-family="sans-serif" font-size="11" lengthAdjust="spacing" textLength="147" x="371" y="1043.1479">name : Multilingual_String</text><text fill="#000000" font-family="sans-serif" font-size="11" lengthAdjust="spacing" textLength="251" x="371" y="1055.9526">iso3166alpha2Code : ISO3166_Alpha2_Code</text><!--MD5=[ddbff00b4911ad4b77d6aa32dd14d1d7]
class Affiliation_Statement--><rect codeLine="85" fill="#FFFFFF" filter="url(#fv9fksnhruvyc)" height="65.6094" id="Affiliation_Statement" style="stroke:#A80036;stroke-width:1.5;" width="161" x="436" y="519"/><ellipse cx="451" cy="535" fill="#ADD1B2" rx="11" ry="11" style="stroke:#A80036;stroke-width:1.0;"/><path d="M453.9688,540.6406 Q453.3906,540.9375 452.75,541.0781 Q452.1094,541.2344 451.4063,541.2344 Q448.9063,541.2344 447.5781,539.5938 Q446.2656,537.9375 446.2656,534.8125 Q446.2656,531.6875 447.5781,530.0313 Q448.9063,528.375 451.4063,528.375 Q452.1094,528.375 452.75,528.5313 Q453.4063,528.6875 453.9688,528.9844 L453.9688,531.7031 Q453.3438,531.125 452.75,530.8594 Q452.1563,530.5781 451.5313,530.5781 Q450.1875,530.5781 449.5,531.6563 Q448.8125,532.7188 448.8125,534.8125 Q448.8125,536.9063 449.5,537.9844 Q450.1875,539.0469 451.5313,539.0469 Q452.1563,539.0469 452.75,538.7813 Q453.3438,538.5 453.9688,537.9219 L453.9688,540.6406 Z " fill="#000000"/><text fill="#000000" font-family="sans-serif" font-size="12" lengthAdjust="spacing" textLength="129" x="465" y="539.1543">Affiliation_Statement</text><line style="stroke:#A80036;stroke-width:1.5;" x1="437" x2="596" y1="551" y2="551"/><text fill="#000000" font-family="sans-serif" font-size="11" lengthAdjust="spacing" textLength="138" x="442" y="565.2104">displayAffiliation : String</text><text fill="#000000" font-family="sans-serif" font-size="11" lengthAdjust="spacing" textLength="147" x="442" y="578.0151">address : Postal_Address</text><path d="M6,221 L6,321.7969 A0,0 0 0 0 6,321.7969 L271,321.7969 A0,0 0 0 0 271,321.7969 L271,275.5 L305.78,271.5 L271,267.5 L271,231 L261,221 L6,221 A0,0 0 0 0 6,221 " fill="#FFFF00" filter="url(#fv9fksnhruvyc)" style="stroke:#A80036;stroke-width:1.0;"/><path d="M261,221 L261,231 L271,231 L261,221 " fill="#FFFF00" style="stroke:#A80036;stroke-width:1.0;"/><text fill="#000000" font-family="sans-serif" font-size="13" lengthAdjust="spacing" textLength="240" x="12" y="238.0669">The Agent is mandatory for almost all</text><text fill="#000000" font-family="sans-serif" font-size="13" lengthAdjust="spacing" textLength="192" x="12" y="253.1997">subclasses of Contributorship,</text><text fill="#000000" font-family="sans-serif" font-size="13" lengthAdjust="spacing" textLength="203" x="12" y="268.3325">Reviewing is the exception if the</text><text fill="#000000" font-family="sans-serif" font-size="13" lengthAdjust="spacing" textLength="201" x="12" y="283.4653">reviewer's identity is concealed.</text><text fill="#000000" font-family="sans-serif" font-size="13" lengthAdjust="spacing" textLength="184" x="12" y="298.5981">Also useful when authors are</text><text fill="#000000" font-family="sans-serif" font-size="13" lengthAdjust="spacing" textLength="124" x="12" y="313.731">using pseudonyms.</text><!--MD5=[bf7e8cf64254ff374c5acfe277545dd5]
reverse link Postal_Address to Country--><path codeLine="92" d="M496.5,943.55 C496.5,959.64 496.5,976.46 496.5,990.68 " fill="none" id="Postal_Address-backto-Country" style="stroke:#A80036;stroke-width:1.0;"/><polygon fill="#FFFFFF" points="496.5,930.28,492.5,936.28,496.5,942.28,500.5,936.28,496.5,930.28" style="stroke:#A80036;stroke-width:1.0;"/><text fill="#000000" font-family="sans-serif" font-size="13" lengthAdjust="spacing" textLength="48" x="444.225" y="979.9936">country</text><!--MD5=[af6b79ce3af62c8c5ee779db9fbc8cf6]
link Affiliation_Statement to Postal_Address--><path codeLine="95" d="M521.88,585.08 C528.21,627.91 536.74,706.02 527.5,772 C524.9,790.53 519.93,810.34 514.71,827.89 " fill="none" id="Affiliation_Statement-to-Postal_Address" style="stroke:#A80036;stroke-width:1.0;stroke-dasharray:7.0,7.0;"/><polygon fill="#A80036" points="513.24,832.78,519.6677,825.3177,514.6833,827.9928,512.0082,823.0085,513.24,832.78" style="stroke:#A80036;stroke-width:1.0;"/><text fill="#000000" font-family="sans-serif" font-size="13" lengthAdjust="spacing" textLength="91" x="521.9925" y="821.9393">postalAddress</text><!--MD5=[fe03d2c8e9644e7513bef3a6fb6291e6]
reverse link Affiliation_Statement to Organisation_Unit--><path codeLine="98" d="M481.66,596.32 C470.61,614.32 458.92,635.48 449.31,654.78 " fill="none" id="Affiliation_Statement-backto-Organisation_Unit" style="stroke:#A80036;stroke-width:1.0;"/><polygon fill="#FFFFFF" points="488.62,585.28,482.036,588.2212,482.2185,595.4299,488.8026,592.4888,488.62,585.28" style="stroke:#A80036;stroke-width:1.0;"/><text fill="#000000" font-family="sans-serif" font-size="13" lengthAdjust="spacing" textLength="75" x="372.0322" y="643.7949">0..1 orgUnit</text><!--MD5=[fe03d2c8e9644e7513bef3a6fb6291e6]
reverse link Affiliation_Statement to Organisation_Unit--><path codeLine="101" d="M504.83,597.35 C496.6,615.13 485.68,635.85 474.65,654.78 " fill="none" id="Affiliation_Statement-backto-Organisation_Unit-1" style="stroke:#A80036;stroke-width:1.0;"/><polygon fill="#FFFFFF" points="510.19,585.28,504.0992,589.1404,505.32,596.2474,511.4108,592.387,510.19,585.28" style="stroke:#A80036;stroke-width:1.0;"/><text fill="#000000" font-family="sans-serif" font-size="13" lengthAdjust="spacing" textLength="91" x="485.5761" y="643.7949">0..1 institution</text><!--MD5=[dc2c5634ff295731fc33abbfcbd96d36]
reverse link Person to Affiliation_Statement--><path codeLine="105" d="M393.08,457.04 C419.06,476.82 449.99,500.36 474.38,518.93 " fill="none" id="Person-backto-Affiliation_Statement" style="stroke:#A80036;stroke-width:1.0;"/><polygon fill="#FFFFFF" points="382.66,449.1,385.0061,455.9188,392.2028,456.3757,389.8566,449.5569,382.66,449.1" style="stroke:#A80036;stroke-width:1.0;"/><text fill="#000000" font-family="sans-serif" font-size="13" lengthAdjust="spacing" textLength="91" x="475.0771" y="507.6833">0..* affiliations</text><!--MD5=[d50a95e3ddb5a3ed983c7b2ff4649bd6]
reverse link Contributorship to Affiliation_Statement--><path codeLine="108" d="M516.5,317.84 C516.5,374.22 516.5,469.08 516.5,518.64 " fill="none" id="Contributorship-backto-Affiliation_Statement" style="stroke:#A80036;stroke-width:1.0;"/><polygon fill="#A80036" points="516.5,304.72,512.5,310.72,516.5,316.72,520.5,310.72,516.5,304.72" style="stroke:#A80036;stroke-width:1.0;"/><text fill="#000000" font-family="sans-serif" font-size="13" lengthAdjust="spacing" textLength="91" x="416.8266" y="507.9678">0..* affiliations</text><!--MD5=[aa65b9840c4d4bb6ada386eeadadc345]
reverse link Contributorship to Contribution_Statement--><path codeLine="111" d="M570.75,312.77 C609.82,341.76 660.34,379.26 688.06,399.83 " fill="none" id="Contributorship-backto-Contribution_Statement" style="stroke:#A80036;stroke-width:1.0;"/><polygon fill="#A80036" points="560.07,304.84,562.5073,311.6267,569.7094,311.9871,567.2721,305.2004,560.07,304.84" style="stroke:#A80036;stroke-width:1.0;"/><text fill="#000000" font-family="sans-serif" font-size="13" lengthAdjust="spacing" textLength="179" x="472.6424" y="389.0782">0..* contributionStatements</text><!--MD5=[21f8b3605054312288eb3132d9b75edc]
reverse link Contribution_Statement to Free_Text_Contribution_Statement--><path codeLine="114" d="M720.53,451.3 C728.64,474.41 739.15,504.4 746.53,525.43 " fill="none" id="Contribution_Statement-backto-Free_Text_Contribution_Statement" style="stroke:#A80036;stroke-width:1.0;"/><polygon fill="none" points="713.81,453.3,713.8,432.11,727.03,448.67,713.81,453.3" style="stroke:#A80036;stroke-width:1.0;"/><!--MD5=[1f014480a3afa8c0325c3be3fbf7ad6f]
link Contributorship to Document--><path codeLine="117" d="M582.12,271.5 C589.42,271.5 596.72,271.5 604.02,271.5 " fill="none" id="Contributorship-to-Document" style="stroke:#A80036;stroke-width:1.0;"/><polygon fill="#A80036" points="617.16,271.5,611.16,267.5,605.16,271.5,611.16,275.5,617.16,271.5" style="stroke:#A80036;stroke-width:1.0;"/><text fill="#000000" font-family="sans-serif" font-size="13" lengthAdjust="spacing" textLength="23" x="590.073" y="267.8204">0..*</text><!--MD5=[504de05de5dc33320621ff1be2e6e6ff]
reverse link Agent to Contributorship--><path codeLine="120" d="M388.51,271.5 C409.28,271.5 430.05,271.5 450.83,271.5 " fill="none" id="Agent-backto-Contributorship" style="stroke:#A80036;stroke-width:1.0;"/><polygon fill="#FFFFFF" points="375.22,271.5,381.22,275.5,387.22,271.5,381.22,267.5,375.22,271.5" style="stroke:#A80036;stroke-width:1.0;"/><text fill="#000000" font-family="sans-serif" font-size="13" lengthAdjust="spacing" textLength="98" x="345.942" y="264.4151">0..1 contributor</text><text fill="#000000" font-family="sans-serif" font-size="13" lengthAdjust="spacing" textLength="23" x="419.8718" y="284.3673">0..*</text><!--MD5=[db20fd804d8595e73b6b8c99fdd1338c]
link Authorship to Textual_Document--><path codeLine="122" d="M538.74,33.5 C546,33.5 553.26,33.5 560.51,33.5 " fill="none" id="Authorship-to-Textual_Document" style="stroke:#A80036;stroke-width:1.0;"/><polygon fill="#A80036" points="573.58,33.5,567.58,29.5,561.58,33.5,567.58,37.5,573.58,33.5" style="stroke:#A80036;stroke-width:1.0;"/><!--MD5=[e74e4958a1d7eb99db8e977d8859ba66]
link Authorship to Contributorship--><path codeLine="123" d="M446.83,60.03 C455.91,76.95 467.43,99.85 475.5,121 C487.62,152.77 497.76,189.59 504.93,218.74 " fill="none" id="Authorship-to-Contributorship" style="stroke:#A80036;stroke-width:1.0;"/><polygon fill="none" points="511.79,217.35,509.61,238.43,498.17,220.59,511.79,217.35" style="stroke:#A80036;stroke-width:1.0;"/><!--MD5=[49125a4ba45432b051dcbcd9e53401d7]
link Authorship to Agent--><path codeLine="124" d="M361.05,60.17 C333.94,73.81 305.91,93.57 290.5,121 C267.8,161.41 297.02,213.79 319.4,244.61 " fill="none" id="Authorship-to-Agent" style="stroke:#A80036;stroke-width:1.0;"/><polygon fill="#FFFFFF" points="327.52,255.29,327.0694,248.093,320.2526,245.7409,320.7033,252.9379,327.52,255.29" style="stroke:#A80036;stroke-width:1.0;"/><path d="M295.5,126 L295.5,151 L458.5,151 L458.5,136 L448.5,126 L295.5,126 " fill="#FFFF00" filter="url(#fv9fksnhruvyc)" style="stroke:#A80036;stroke-width:1.0;"/><path d="M448.5,126 L448.5,136 L458.5,136 L448.5,126 " fill="#FFFF00" style="stroke:#A80036;stroke-width:1.0;"/><text fill="#000000" font-family="sans-serif" font-size="13" lengthAdjust="spacing" textLength="142" x="301.5" y="143.0669">author == contributor</text><text fill="#000000" font-family="sans-serif" font-size="13" lengthAdjust="spacing" textLength="23" x="319.9047" y="79.7475">0..*</text><text fill="#000000" font-family="sans-serif" font-size="13" lengthAdjust="spacing" textLength="70" x="334.8141" y="244.525">0..1 author</text><!--MD5=[5d8901ce694eb85aefa78b7d82d9f6f6]
link Person to Person_Name--><path codeLine="127" d="M330.92,449.1 C325.98,465.66 319.85,486.17 314.4,504.43 " fill="none" id="Person-to-Person_Name" style="stroke:#A80036;stroke-width:1.0;stroke-dasharray:7.0,7.0;"/><polygon fill="#A80036" points="312.88,509.52,319.2872,502.0402,314.3102,504.7289,311.6214,499.7519,312.88,509.52" style="stroke:#A80036;stroke-width:1.0;"/><text fill="#000000" font-family="sans-serif" font-size="13" lengthAdjust="spacing" textLength="37" x="274.9429" y="498.917">name</text><!--MD5=[de96f77e660762cb21a195b4097c3876]
reverse link Agent to Person--><path codeLine="130" d="M340.5,307.93 C340.5,330.86 340.5,360.47 340.5,382.74 " fill="none" id="Agent-backto-Person" style="stroke:#A80036;stroke-width:1.0;"/><polygon fill="none" points="333.5,307.75,340.5,287.75,347.5,307.75,333.5,307.75" style="stroke:#A80036;stroke-width:1.0;"/><!--MD5=[521d3f26cc3887ed8885a4c0e03f9952]
reverse link Agent to Organisation_Unit--><path codeLine="133" d="M314.86,303.49 C297.36,325.2 274.07,355.18 255.5,383 C200.4,465.53 129.58,510.06 182.5,594 C219.21,652.23 293.29,682.46 350.97,697.76 " fill="none" id="Agent-backto-Organisation_Unit" style="stroke:#A80036;stroke-width:1.0;"/><polygon fill="none" points="309.65,298.82,327.72,287.75,320.49,307.67,309.65,298.82" style="stroke:#A80036;stroke-width:1.0;"/><!--MD5=[15e2f573152931505f3d87c1c2d22c4e]
link Organisation_Unit to Postal_Address--><path codeLine="136" d="M453.4,772.09 C460.61,790.24 468.54,810.18 475.61,827.95 " fill="none" id="Organisation_Unit-to-Postal_Address" style="stroke:#A80036;stroke-width:1.0;stroke-dasharray:7.0,7.0;"/><polygon fill="#A80036" points="477.58,832.91,477.9618,823.0685,475.728,828.2657,470.5309,826.0318,477.58,832.91" style="stroke:#A80036;stroke-width:1.0;"/><text fill="#000000" font-family="sans-serif" font-size="13" lengthAdjust="spacing" textLength="51" x="420.3334" y="822.0876">address</text><!--MD5=[8d9b790276a1e6c61f0b091de629785c]
link Textual_Document to Document--><path codeLine="139" d="M650.32,49.62 C656.33,81.85 670.66,158.73 680.72,212.69 " fill="none" id="Textual_Document-to-Document" style="stroke:#A80036;stroke-width:1.0;"/><polygon fill="none" points="687.62,211.51,684.41,232.46,673.86,214.08,687.62,211.51" style="stroke:#A80036;stroke-width:1.0;"/><!--MD5=[0df3595c7a152ac097b4d28b9398e692]
reverse link Textual_Document to Textual_Document_Accessibility_Specification--><path codeLine="141" d="M734.27,33.5 C741.63,33.5 748.99,33.5 756.35,33.5 " fill="none" id="Textual_Document-backto-Textual_Document_Accessibility_Specification" style="stroke:#A80036;stroke-width:1.0;"/><polygon fill="#A80036" points="721.01,33.5,727.01,37.5,733.01,33.5,727.01,29.5,721.01,33.5" style="stroke:#A80036;stroke-width:1.0;"/><text fill="#000000" font-family="sans-serif" font-size="13" lengthAdjust="spacing" textLength="110" x="638.0638" y="59.8662">0..* accessRights</text><!--MD5=[2c23d09c80fbfac9dc5109bf504b493e]
link Textual_Document to Agent--><path codeLine="142" d="M627.83,49.62 C572.51,92.15 416.01,212.46 360.4,255.2 " fill="none" id="Textual_Document-Agent" style="stroke:#A80036;stroke-width:1.0;"/><text fill="#000000" font-family="sans-serif" font-size="13" lengthAdjust="spacing" textLength="159" x="647.3575" y="69.5823">0..* authoredDocuments</text><text fill="#000000" font-family="sans-serif" font-size="13" lengthAdjust="spacing" textLength="76" x="279.2383" y="244.2575">0..* authors</text><!--MD5=[0091183f70c1def0385a5d74d89583e1]
@startuml
	!startsub common
        !define datatype(x) class x << (D,#add0b2) DataType>> #ffffff
        hide empty members
        skinparam BoxPadding 120
	!endsub

    !startsub Document
        class "Document" #ffffff {
            DOI : DOI_Type
            title : Multilingual_String
            publicationDate : Date
        }
        class "Textual_Document" #ffffff {
        }
    !endsub

    !startsub TDAS
        class "Textual_Document_Accessibility_Specification" #ffffff {
        }
    !endsub

    !startsub Agent
        class "Agent" #ffffff {
        }
    !endsub

    !startsub OrgUnit
        class "Organisation_Unit" #ffffff {
            name : Multilingual_String
            acronym : String
            address : Postal_Address
            rorId : ROR_Id
            webSiteURL : URL
            email : URL
        }
    !endsub

   !startsub Person
    class "Person" #ffffff {
        name : Person_Name
        orcidId : ORCID_iD
    }

    datatype("Person_Name") {
        firstNames : Multilingual_String
        familyNames : Multilingual_String
        otherNames : Multilingual_String
    }
    !endsub

    class "Authorship" #ffffff {
        correspondingAuthorFlag : Boolean
    }

    !startsub Contributorship
        class "Contributorship" #ffffff {
            contacts : List<URI>
            displayName : String
        }

        class "Contribution_Statement" #ffffff {
        }

        class "Free_Text_Contribution_Statement" #ffffff {
            statement : Multilingual_String
        }
    !endsub

    !startsub PostalAddress
        datatype("Postal_Address") {
            street : Multilingual_String
            city : Multilingual_String
            zipCode : Multilingual_String
            country : Country
        }
        datatype("Country") {
            name : Multilingual_String
            iso3166alpha2Code : ISO3166_Alpha2_Code
    '       iso3166NumericCode : ISO3166_Numeric_Code   FIXME
    '       euCountryCode : EU_Country_Code			FIXME
        }
    !endsub

    !startsub AffiliationStatement
        class "Affiliation_Statement" #ffffff {
            displayAffiliation : String
            address : Postal_Address
        }
    !endsub AffiliationStatement

    !startsub PostalAddress
    "Postal_Address" o- - "country" "Country"
    !endsub
    !startsub AffiliationStatement
        "Affiliation_Statement" ..> "postalAddress" "Postal_Address"
    !endsub
    !startsub AffiliationStatement
        "Affiliation_Statement" o- - "0..1 orgUnit" "Organisation_Unit"
    !endsub
    !startsub AffiliationStatement
        "Affiliation_Statement" o- - "0..1 institution" "Organisation_Unit"
        '    "Affiliation_Statement" o- - "person" "Person"
    !endsub
    !startsub AffiliationStatement
        "Person" o- - "0..* affiliations" "Affiliation_Statement"
    !endsub
    !startsub AffiliationStatement
        "Contributorship" *- - "0..* affiliations" "Affiliation_Statement"
    !endsub
    !startsub Contributorship
        "Contributorship" *- - "0..* contributionStatements" "Contribution_Statement"
    !endsub
    !startsub Contributorship
        "Contribution_Statement" <|- - "Free_Text_Contribution_Statement"
    !endsub
    !startsub Contributorship
        "Contributorship" "0..*" - -r- -* "Document"
    !endsub
    !startsub Contributorship
        "Contributorship" "0..*" - -l- -o "0..1 contributor" "Agent"
    !endsub
    "Authorship" -r-* "Textual_Document"
    "Contributorship" <|-u- "Authorship"
    "Authorship" "0..*" - -o "0..1 author" "Agent"
    note on link #yellow: author == contributor
    !startsub Person
        "Person" ..> "name" "Person_Name"
    !endsub
    !startsub Person
        "Agent" <|- - "Person"
    !endsub
    !startsub OrgUnit
        "Agent" <|- - "Organisation_Unit"
    !endsub
    !startsub OrgUnit
        "Organisation_Unit" ..> "address" "Postal_Address"
    !endsub
    !startsub Document
        "Document" <|-u- "Textual_Document"
    !endsub
    "Textual_Document" *-r- "0..* accessRights" "Textual_Document_Accessibility_Specification"
    "Textual_Document" "0..* authoredDocuments" - - - "0..* authors" "Agent"
    note left of Agent #yellow: The Agent is mandatory for almost all \nsubclasses of Contributorship,\nReviewing is the exception if the \nreviewer's identity is concealed. \nAlso useful when authors are \nusing pseudonyms.
@enduml

@startuml
        hide empty members
        skinparam BoxPadding 120

        class "Document" #ffffff {
            DOI : DOI_Type
            title : Multilingual_String
            publicationDate : Date
        }
        class "Textual_Document" #ffffff {
        }

        class "Textual_Document_Accessibility_Specification" #ffffff {
        }

        class "Agent" #ffffff {
        }

        class "Organisation_Unit" #ffffff {
            name : Multilingual_String
            acronym : String
            address : Postal_Address
            rorId : ROR_Id
            webSiteURL : URL
            email : URL
        }

    class "Person" #ffffff {
        name : Person_Name
        orcidId : ORCID_iD
    }

    class Person_Name << (D,#add0b2) DataType>> #ffffff {
        firstNames : Multilingual_String
        familyNames : Multilingual_String
        otherNames : Multilingual_String
    }

    class "Authorship" #ffffff {
        correspondingAuthorFlag : Boolean
    }

        class "Contributorship" #ffffff {
            contacts : List<URI>
            displayName : String
        }

        class "Contribution_Statement" #ffffff {
        }

        class "Free_Text_Contribution_Statement" #ffffff {
            statement : Multilingual_String
        }

        class Postal_Address << (D,#add0b2) DataType>> #ffffff {
            street : Multilingual_String
            city : Multilingual_String
            zipCode : Multilingual_String
            country : Country
        }
        class Country << (D,#add0b2) DataType>> #ffffff {
            name : Multilingual_String
            iso3166alpha2Code : ISO3166_Alpha2_Code
        }

        class "Affiliation_Statement" #ffffff {
            displayAffiliation : String
            address : Postal_Address
        }

    "Postal_Address" o- - "country" "Country"
        "Affiliation_Statement" ..> "postalAddress" "Postal_Address"
        "Affiliation_Statement" o- - "0..1 orgUnit" "Organisation_Unit"
        "Affiliation_Statement" o- - "0..1 institution" "Organisation_Unit"
        "Person" o- - "0..* affiliations" "Affiliation_Statement"
        "Contributorship" *- - "0..* affiliations" "Affiliation_Statement"
        "Contributorship" *- - "0..* contributionStatements" "Contribution_Statement"
        "Contribution_Statement" <|- - "Free_Text_Contribution_Statement"
        "Contributorship" "0..*" - -r- -* "Document"
        "Contributorship" "0..*" - -l- -o "0..1 contributor" "Agent"
    "Authorship" -r-* "Textual_Document"
    "Contributorship" <|-u- "Authorship"
    "Authorship" "0..*" - -o "0..1 author" "Agent"
    note on link #yellow: author == contributor
        "Person" ..> "name" "Person_Name"
        "Agent" <|- - "Person"
        "Agent" <|- - "Organisation_Unit"
        "Organisation_Unit" ..> "address" "Postal_Address"
        "Document" <|-u- "Textual_Document"
    "Textual_Document" *-r- "0..* accessRights" "Textual_Document_Accessibility_Specification"
    "Textual_Document" "0..* authoredDocuments" - - - "0..* authors" "Agent"
    note left of Agent #yellow: The Agent is mandatory for almost all \nsubclasses of Contributorship,\nReviewing is the exception if the \nreviewer's identity is concealed. \nAlso useful when authors are \nusing pseudonyms.
@enduml

PlantUML version 1.2021.8(Sat Jun 26 08:20:59 UTC 2021)
(GPL source distribution)
Java Runtime: OpenJDK Runtime Environment
JVM: OpenJDK 64-Bit Server VM
Default Encoding: UTF-8
Language: en
Country: null
--></g></svg>