<?xml version="1.0" encoding="UTF-8" standalone="no"?><svg xmlns="http://www.w3.org/2000/svg" xmlns:xlink="http://www.w3.org/1999/xlink" contentScriptType="application/ecmascript" contentStyleType="text/css" height="820px" preserveAspectRatio="none" style="width:919px;height:820px;background:#FFFFFF;" version="1.1" viewBox="0 0 919 820" width="919px" zoomAndPan="magnify"><defs><filter height="300%" id="fe4dm0n0ylmsq" width="300%" x="-1" y="-1"><feGaussianBlur result="blurOut" stdDeviation="2.0"/><feColorMatrix in="blurOut" result="blurOut2" type="matrix" values="0 0 0 0 0 0 0 0 0 0 0 0 0 0 0 0 0 0 .4 0"/><feOffset dx="4.0" dy="4.0" in="blurOut2" result="blurOut3"/><feBlend in="SourceGraphic" in2="blurOut3" mode="normal"/></filter></defs><g><!--MD5=[59b530d44ae785dc18db921986a9c15c]
class Document--><rect codeLine="2" fill="#FEFECE" filter="url(#fe4dm0n0ylmsq)" height="86.4141" id="Document" style="stroke:#A80036;stroke-width:1.5;" width="140" x="553" y="283.5"/><ellipse cx="589.15" cy="299.5" fill="#ADD1B2" rx="11" ry="11" style="stroke:#A80036;stroke-width:1.0;"/><path d="M591.4938,295.1719 C590.5563,294.7344 589.9625,294.5938 589.0875,294.5938 C586.4625,294.5938 584.4625,296.6719 584.4625,299.3906 L584.4625,300.5156 C584.4625,303.0938 586.5719,304.9844 589.4625,304.9844 C590.6813,304.9844 591.8375,304.6875 592.5875,304.1406 C593.1656,303.7344 593.4938,303.2813 593.4938,302.8906 C593.4938,302.4375 593.1031,302.0469 592.6344,302.0469 C592.4156,302.0469 592.2125,302.125 592.025,302.3125 C591.5719,302.7969 591.5719,302.7969 591.3844,302.8906 C590.9625,303.1563 590.275,303.2813 589.5094,303.2813 C587.4625,303.2813 586.1656,302.1875 586.1656,300.4844 L586.1656,299.3906 C586.1656,297.6094 587.4156,296.2969 589.15,296.2969 C589.7281,296.2969 590.3375,296.4531 590.8063,296.7031 C591.2906,296.9844 591.4625,297.2031 591.5563,297.6094 C591.6188,298.0156 591.65,298.1406 591.7906,298.2656 C591.9313,298.4063 592.1656,298.5156 592.3844,298.5156 C592.65,298.5156 592.9156,298.375 593.0875,298.1563 C593.1969,298 593.2281,297.8125 593.2281,297.3906 L593.2281,295.9688 C593.2281,295.5313 593.2125,295.4063 593.1188,295.25 C592.9625,294.9844 592.6813,294.8438 592.3844,294.8438 C592.0875,294.8438 591.8844,294.9375 591.6656,295.25 L591.4938,295.1719 Z " fill="#000000"/><text fill="#000000" font-family="sans-serif" font-size="12" lengthAdjust="spacing" textLength="61" x="607.85" y="303.6543">Document</text><line style="stroke:#A80036;stroke-width:1.5;" x1="554" x2="692" y1="315.5" y2="315.5"/><text fill="#000000" font-family="sans-serif" font-size="11" lengthAdjust="spacing" textLength="128" x="559" y="329.7104">Multilingual_String title</text><text fill="#000000" font-family="sans-serif" font-size="11" lengthAdjust="spacing" textLength="121" x="559" y="342.5151">Date publicationDate</text><text fill="#000000" font-family="sans-serif" font-size="11" lengthAdjust="spacing" textLength="81" x="559" y="355.3198">DOI_Type DOI</text><line style="stroke:#A80036;stroke-width:1.5;" x1="554" x2="692" y1="361.9141" y2="361.9141"/><!--MD5=[406eabaf9672e74804bc505a9777bf8f]
class Textual Document--><rect codeLine="8" fill="#FEFECE" filter="url(#fe4dm0n0ylmsq)" height="48" id="Textual Document" style="stroke:#A80036;stroke-width:1.5;" width="140" x="495" y="122.5"/><ellipse cx="510" cy="138.5" fill="#ADD1B2" rx="11" ry="11" style="stroke:#A80036;stroke-width:1.0;"/><path d="M512.3438,134.1719 C511.4063,133.7344 510.8125,133.5938 509.9375,133.5938 C507.3125,133.5938 505.3125,135.6719 505.3125,138.3906 L505.3125,139.5156 C505.3125,142.0938 507.4219,143.9844 510.3125,143.9844 C511.5313,143.9844 512.6875,143.6875 513.4375,143.1406 C514.0156,142.7344 514.3438,142.2813 514.3438,141.8906 C514.3438,141.4375 513.9531,141.0469 513.4844,141.0469 C513.2656,141.0469 513.0625,141.125 512.875,141.3125 C512.4219,141.7969 512.4219,141.7969 512.2344,141.8906 C511.8125,142.1563 511.125,142.2813 510.3594,142.2813 C508.3125,142.2813 507.0156,141.1875 507.0156,139.4844 L507.0156,138.3906 C507.0156,136.6094 508.2656,135.2969 510,135.2969 C510.5781,135.2969 511.1875,135.4531 511.6563,135.7031 C512.1406,135.9844 512.3125,136.2031 512.4063,136.6094 C512.4688,137.0156 512.5,137.1406 512.6406,137.2656 C512.7813,137.4063 513.0156,137.5156 513.2344,137.5156 C513.5,137.5156 513.7656,137.375 513.9375,137.1563 C514.0469,137 514.0781,136.8125 514.0781,136.3906 L514.0781,134.9688 C514.0781,134.5313 514.0625,134.4063 513.9688,134.25 C513.8125,133.9844 513.5313,133.8438 513.2344,133.8438 C512.9375,133.8438 512.7344,133.9375 512.5156,134.25 L512.3438,134.1719 Z " fill="#000000"/><text fill="#000000" font-family="sans-serif" font-size="12" lengthAdjust="spacing" textLength="108" x="524" y="142.6543">Textual Document</text><line style="stroke:#A80036;stroke-width:1.5;" x1="496" x2="634" y1="154.5" y2="154.5"/><line style="stroke:#A80036;stroke-width:1.5;" x1="496" x2="634" y1="162.5" y2="162.5"/><!--MD5=[05b685b8e32e000146d4e5203ae16c64]
class Textual Document Accessibility Specification--><rect codeLine="10" fill="#FEFECE" filter="url(#fe4dm0n0ylmsq)" height="48" id="Textual Document Accessibility Specification" style="stroke:#A80036;stroke-width:1.5;" width="300" x="415" y="7"/><ellipse cx="430" cy="23" fill="#ADD1B2" rx="11" ry="11" style="stroke:#A80036;stroke-width:1.0;"/><path d="M432.3438,18.6719 C431.4063,18.2344 430.8125,18.0938 429.9375,18.0938 C427.3125,18.0938 425.3125,20.1719 425.3125,22.8906 L425.3125,24.0156 C425.3125,26.5938 427.4219,28.4844 430.3125,28.4844 C431.5313,28.4844 432.6875,28.1875 433.4375,27.6406 C434.0156,27.2344 434.3438,26.7813 434.3438,26.3906 C434.3438,25.9375 433.9531,25.5469 433.4844,25.5469 C433.2656,25.5469 433.0625,25.625 432.875,25.8125 C432.4219,26.2969 432.4219,26.2969 432.2344,26.3906 C431.8125,26.6563 431.125,26.7813 430.3594,26.7813 C428.3125,26.7813 427.0156,25.6875 427.0156,23.9844 L427.0156,22.8906 C427.0156,21.1094 428.2656,19.7969 430,19.7969 C430.5781,19.7969 431.1875,19.9531 431.6563,20.2031 C432.1406,20.4844 432.3125,20.7031 432.4063,21.1094 C432.4688,21.5156 432.5,21.6406 432.6406,21.7656 C432.7813,21.9063 433.0156,22.0156 433.2344,22.0156 C433.5,22.0156 433.7656,21.875 433.9375,21.6563 C434.0469,21.5 434.0781,21.3125 434.0781,20.8906 L434.0781,19.4688 C434.0781,19.0313 434.0625,18.9063 433.9688,18.75 C433.8125,18.4844 433.5313,18.3438 433.2344,18.3438 C432.9375,18.3438 432.7344,18.4375 432.5156,18.75 L432.3438,18.6719 Z " fill="#000000"/><text fill="#000000" font-family="sans-serif" font-size="12" lengthAdjust="spacing" textLength="268" x="444" y="27.1543">Textual Document Accessibility Specification</text><line style="stroke:#A80036;stroke-width:1.5;" x1="416" x2="714" y1="39" y2="39"/><line style="stroke:#A80036;stroke-width:1.5;" x1="416" x2="714" y1="47" y2="47"/><!--MD5=[9d44916250b776386006c440668bcfbb]
class Agent--><rect codeLine="13" fill="#FEFECE" filter="url(#fe4dm0n0ylmsq)" height="48" id="Agent" style="stroke:#A80036;stroke-width:1.5;" width="67" x="291.5" y="302.5"/><ellipse cx="306.5" cy="318.5" fill="#ADD1B2" rx="11" ry="11" style="stroke:#A80036;stroke-width:1.0;"/><path d="M308.8438,314.1719 C307.9063,313.7344 307.3125,313.5938 306.4375,313.5938 C303.8125,313.5938 301.8125,315.6719 301.8125,318.3906 L301.8125,319.5156 C301.8125,322.0938 303.9219,323.9844 306.8125,323.9844 C308.0313,323.9844 309.1875,323.6875 309.9375,323.1406 C310.5156,322.7344 310.8438,322.2813 310.8438,321.8906 C310.8438,321.4375 310.4531,321.0469 309.9844,321.0469 C309.7656,321.0469 309.5625,321.125 309.375,321.3125 C308.9219,321.7969 308.9219,321.7969 308.7344,321.8906 C308.3125,322.1563 307.625,322.2813 306.8594,322.2813 C304.8125,322.2813 303.5156,321.1875 303.5156,319.4844 L303.5156,318.3906 C303.5156,316.6094 304.7656,315.2969 306.5,315.2969 C307.0781,315.2969 307.6875,315.4531 308.1563,315.7031 C308.6406,315.9844 308.8125,316.2031 308.9063,316.6094 C308.9688,317.0156 309,317.1406 309.1406,317.2656 C309.2813,317.4063 309.5156,317.5156 309.7344,317.5156 C310,317.5156 310.2656,317.375 310.4375,317.1563 C310.5469,317 310.5781,316.8125 310.5781,316.3906 L310.5781,314.9688 C310.5781,314.5313 310.5625,314.4063 310.4688,314.25 C310.3125,313.9844 310.0313,313.8438 309.7344,313.8438 C309.4375,313.8438 309.2344,313.9375 309.0156,314.25 L308.8438,314.1719 Z " fill="#000000"/><text fill="#000000" font-family="sans-serif" font-size="12" lengthAdjust="spacing" textLength="35" x="320.5" y="322.6543">Agent</text><line style="stroke:#A80036;stroke-width:1.5;" x1="292.5" x2="357.5" y1="334.5" y2="334.5"/><line style="stroke:#A80036;stroke-width:1.5;" x1="292.5" x2="357.5" y1="342.5" y2="342.5"/><!--MD5=[fd289f43f02ef8bd75c20da9b3dee237]
class Organisation Unit--><rect codeLine="16" fill="#FEFECE" filter="url(#fe4dm0n0ylmsq)" height="60.8047" id="Organisation Unit" style="stroke:#A80036;stroke-width:1.5;" width="151" x="332.5" y="572.5"/><ellipse cx="354.7" cy="588.5" fill="#ADD1B2" rx="11" ry="11" style="stroke:#A80036;stroke-width:1.0;"/><path d="M357.0438,584.1719 C356.1063,583.7344 355.5125,583.5938 354.6375,583.5938 C352.0125,583.5938 350.0125,585.6719 350.0125,588.3906 L350.0125,589.5156 C350.0125,592.0938 352.1219,593.9844 355.0125,593.9844 C356.2313,593.9844 357.3875,593.6875 358.1375,593.1406 C358.7156,592.7344 359.0438,592.2813 359.0438,591.8906 C359.0438,591.4375 358.6531,591.0469 358.1844,591.0469 C357.9656,591.0469 357.7625,591.125 357.575,591.3125 C357.1219,591.7969 357.1219,591.7969 356.9344,591.8906 C356.5125,592.1563 355.825,592.2813 355.0594,592.2813 C353.0125,592.2813 351.7156,591.1875 351.7156,589.4844 L351.7156,588.3906 C351.7156,586.6094 352.9656,585.2969 354.7,585.2969 C355.2781,585.2969 355.8875,585.4531 356.3563,585.7031 C356.8406,585.9844 357.0125,586.2031 357.1063,586.6094 C357.1688,587.0156 357.2,587.1406 357.3406,587.2656 C357.4813,587.4063 357.7156,587.5156 357.9344,587.5156 C358.2,587.5156 358.4656,587.375 358.6375,587.1563 C358.7469,587 358.7781,586.8125 358.7781,586.3906 L358.7781,584.9688 C358.7781,584.5313 358.7625,584.4063 358.6688,584.25 C358.5125,583.9844 358.2313,583.8438 357.9344,583.8438 C357.6375,583.8438 357.4344,583.9375 357.2156,584.25 L357.0438,584.1719 Z " fill="#000000"/><text fill="#000000" font-family="sans-serif" font-size="12" lengthAdjust="spacing" textLength="103" x="370.3" y="592.6543">Organisation Unit</text><line style="stroke:#A80036;stroke-width:1.5;" x1="333.5" x2="482.5" y1="604.5" y2="604.5"/><text fill="#000000" font-family="sans-serif" font-size="11" lengthAdjust="spacing" textLength="139" x="338.5" y="618.7104">Multilingual_String name</text><line style="stroke:#A80036;stroke-width:1.5;" x1="333.5" x2="482.5" y1="625.3047" y2="625.3047"/><!--MD5=[09ce52be0ee7de43c61b6e2d59bf108b]
class Person--><rect codeLine="19" fill="#FEFECE" filter="url(#fe4dm0n0ylmsq)" height="60.8047" id="Person" style="stroke:#A80036;stroke-width:1.5;" width="107" x="166.5" y="438"/><ellipse cx="196.8" cy="454" fill="#ADD1B2" rx="11" ry="11" style="stroke:#A80036;stroke-width:1.0;"/><path d="M199.1438,449.6719 C198.2063,449.2344 197.6125,449.0938 196.7375,449.0938 C194.1125,449.0938 192.1125,451.1719 192.1125,453.8906 L192.1125,455.0156 C192.1125,457.5938 194.2219,459.4844 197.1125,459.4844 C198.3313,459.4844 199.4875,459.1875 200.2375,458.6406 C200.8156,458.2344 201.1438,457.7813 201.1438,457.3906 C201.1438,456.9375 200.7531,456.5469 200.2844,456.5469 C200.0656,456.5469 199.8625,456.625 199.675,456.8125 C199.2219,457.2969 199.2219,457.2969 199.0344,457.3906 C198.6125,457.6563 197.925,457.7813 197.1594,457.7813 C195.1125,457.7813 193.8156,456.6875 193.8156,454.9844 L193.8156,453.8906 C193.8156,452.1094 195.0656,450.7969 196.8,450.7969 C197.3781,450.7969 197.9875,450.9531 198.4563,451.2031 C198.9406,451.4844 199.1125,451.7031 199.2063,452.1094 C199.2688,452.5156 199.3,452.6406 199.4406,452.7656 C199.5813,452.9063 199.8156,453.0156 200.0344,453.0156 C200.3,453.0156 200.5656,452.875 200.7375,452.6563 C200.8469,452.5 200.8781,452.3125 200.8781,451.8906 L200.8781,450.4688 C200.8781,450.0313 200.8625,449.9063 200.7688,449.75 C200.6125,449.4844 200.3313,449.3438 200.0344,449.3438 C199.7375,449.3438 199.5344,449.4375 199.3156,449.75 L199.1438,449.6719 Z " fill="#000000"/><text fill="#000000" font-family="sans-serif" font-size="12" lengthAdjust="spacing" textLength="41" x="214.2" y="458.1543">Person</text><line style="stroke:#A80036;stroke-width:1.5;" x1="167.5" x2="272.5" y1="470" y2="470"/><text fill="#000000" font-family="sans-serif" font-size="11" lengthAdjust="spacing" textLength="95" x="172.5" y="484.2104">ORCID_iD orcidid</text><line style="stroke:#A80036;stroke-width:1.5;" x1="167.5" x2="272.5" y1="490.8047" y2="490.8047"/><!--MD5=[632a0a9f063c22bc9f1456509ebe931b]
class Person Name--><rect codeLine="22" fill="#FEFECE" filter="url(#fe4dm0n0ylmsq)" height="86.4141" id="Person Name" style="stroke:#A80036;stroke-width:1.5;" width="124" x="158" y="560"/><ellipse cx="178.85" cy="576" fill="#ADD1B2" rx="11" ry="11" style="stroke:#A80036;stroke-width:1.0;"/><path d="M181.1938,571.6719 C180.2563,571.2344 179.6625,571.0938 178.7875,571.0938 C176.1625,571.0938 174.1625,573.1719 174.1625,575.8906 L174.1625,577.0156 C174.1625,579.5938 176.2719,581.4844 179.1625,581.4844 C180.3813,581.4844 181.5375,581.1875 182.2875,580.6406 C182.8656,580.2344 183.1938,579.7813 183.1938,579.3906 C183.1938,578.9375 182.8031,578.5469 182.3344,578.5469 C182.1156,578.5469 181.9125,578.625 181.725,578.8125 C181.2719,579.2969 181.2719,579.2969 181.0844,579.3906 C180.6625,579.6563 179.975,579.7813 179.2094,579.7813 C177.1625,579.7813 175.8656,578.6875 175.8656,576.9844 L175.8656,575.8906 C175.8656,574.1094 177.1156,572.7969 178.85,572.7969 C179.4281,572.7969 180.0375,572.9531 180.5063,573.2031 C180.9906,573.4844 181.1625,573.7031 181.2563,574.1094 C181.3188,574.5156 181.35,574.6406 181.4906,574.7656 C181.6313,574.9063 181.8656,575.0156 182.0844,575.0156 C182.35,575.0156 182.6156,574.875 182.7875,574.6563 C182.8969,574.5 182.9281,574.3125 182.9281,573.8906 L182.9281,572.4688 C182.9281,572.0313 182.9125,571.9063 182.8188,571.75 C182.6625,571.4844 182.3813,571.3438 182.0844,571.3438 C181.7875,571.3438 181.5844,571.4375 181.3656,571.75 L181.1938,571.6719 Z " fill="#000000"/><text fill="#000000" font-family="sans-serif" font-size="12" lengthAdjust="spacing" textLength="79" x="194.15" y="580.1543">Person Name</text><line style="stroke:#A80036;stroke-width:1.5;" x1="159" x2="281" y1="592" y2="592"/><text fill="#000000" font-family="sans-serif" font-size="11" lengthAdjust="spacing" textLength="98" x="164" y="606.2104">String firstNames</text><text fill="#000000" font-family="sans-serif" font-size="11" lengthAdjust="spacing" textLength="112" x="164" y="619.0151">String familyNames</text><text fill="#000000" font-family="sans-serif" font-size="11" lengthAdjust="spacing" textLength="107" x="164" y="631.8198">String otherNames</text><line style="stroke:#A80036;stroke-width:1.5;" x1="159" x2="281" y1="638.4141" y2="638.4141"/><!--MD5=[3b25461e5df73ababc6765bb9b0c47d3]
class Authorship--><rect codeLine="28" fill="#FEFECE" filter="url(#fe4dm0n0ylmsq)" height="60.8047" id="Authorship" style="stroke:#A80036;stroke-width:1.5;" width="203" x="256.5" y="116"/><ellipse cx="321.75" cy="132" fill="#ADD1B2" rx="11" ry="11" style="stroke:#A80036;stroke-width:1.0;"/><path d="M324.0938,127.6719 C323.1563,127.2344 322.5625,127.0938 321.6875,127.0938 C319.0625,127.0938 317.0625,129.1719 317.0625,131.8906 L317.0625,133.0156 C317.0625,135.5938 319.1719,137.4844 322.0625,137.4844 C323.2813,137.4844 324.4375,137.1875 325.1875,136.6406 C325.7656,136.2344 326.0938,135.7813 326.0938,135.3906 C326.0938,134.9375 325.7031,134.5469 325.2344,134.5469 C325.0156,134.5469 324.8125,134.625 324.625,134.8125 C324.1719,135.2969 324.1719,135.2969 323.9844,135.3906 C323.5625,135.6563 322.875,135.7813 322.1094,135.7813 C320.0625,135.7813 318.7656,134.6875 318.7656,132.9844 L318.7656,131.8906 C318.7656,130.1094 320.0156,128.7969 321.75,128.7969 C322.3281,128.7969 322.9375,128.9531 323.4063,129.2031 C323.8906,129.4844 324.0625,129.7031 324.1563,130.1094 C324.2188,130.5156 324.25,130.6406 324.3906,130.7656 C324.5313,130.9063 324.7656,131.0156 324.9844,131.0156 C325.25,131.0156 325.5156,130.875 325.6875,130.6563 C325.7969,130.5 325.8281,130.3125 325.8281,129.8906 L325.8281,128.4688 C325.8281,128.0313 325.8125,127.9063 325.7188,127.75 C325.5625,127.4844 325.2813,127.3438 324.9844,127.3438 C324.6875,127.3438 324.4844,127.4375 324.2656,127.75 L324.0938,127.6719 Z " fill="#000000"/><text fill="#000000" font-family="sans-serif" font-size="12" lengthAdjust="spacing" textLength="64" x="342.25" y="136.1543">Authorship</text><line style="stroke:#A80036;stroke-width:1.5;" x1="257.5" x2="458.5" y1="148" y2="148"/><text fill="#000000" font-family="sans-serif" font-size="11" lengthAdjust="spacing" textLength="191" x="262.5" y="162.2104">Boolean correspondingAuthorFlag</text><line style="stroke:#A80036;stroke-width:1.5;" x1="257.5" x2="458.5" y1="168.8047" y2="168.8047"/><!--MD5=[b821bb113f9f55c728f1fbb8949cc3af]
class Contributorship--><rect codeLine="32" fill="#FEFECE" filter="url(#fe4dm0n0ylmsq)" height="73.6094" id="Contributorship" style="stroke:#A80036;stroke-width:1.5;" width="124" x="394" y="289.5"/><ellipse cx="409" cy="305.5" fill="#ADD1B2" rx="11" ry="11" style="stroke:#A80036;stroke-width:1.0;"/><path d="M411.3438,301.1719 C410.4063,300.7344 409.8125,300.5938 408.9375,300.5938 C406.3125,300.5938 404.3125,302.6719 404.3125,305.3906 L404.3125,306.5156 C404.3125,309.0938 406.4219,310.9844 409.3125,310.9844 C410.5313,310.9844 411.6875,310.6875 412.4375,310.1406 C413.0156,309.7344 413.3438,309.2813 413.3438,308.8906 C413.3438,308.4375 412.9531,308.0469 412.4844,308.0469 C412.2656,308.0469 412.0625,308.125 411.875,308.3125 C411.4219,308.7969 411.4219,308.7969 411.2344,308.8906 C410.8125,309.1563 410.125,309.2813 409.3594,309.2813 C407.3125,309.2813 406.0156,308.1875 406.0156,306.4844 L406.0156,305.3906 C406.0156,303.6094 407.2656,302.2969 409,302.2969 C409.5781,302.2969 410.1875,302.4531 410.6563,302.7031 C411.1406,302.9844 411.3125,303.2031 411.4063,303.6094 C411.4688,304.0156 411.5,304.1406 411.6406,304.2656 C411.7813,304.4063 412.0156,304.5156 412.2344,304.5156 C412.5,304.5156 412.7656,304.375 412.9375,304.1563 C413.0469,304 413.0781,303.8125 413.0781,303.3906 L413.0781,301.9688 C413.0781,301.5313 413.0625,301.4063 412.9688,301.25 C412.8125,300.9844 412.5313,300.8438 412.2344,300.8438 C411.9375,300.8438 411.7344,300.9375 411.5156,301.25 L411.3438,301.1719 Z " fill="#000000"/><text fill="#000000" font-family="sans-serif" font-size="12" lengthAdjust="spacing" textLength="92" x="423" y="309.6543">Contributorship</text><line style="stroke:#A80036;stroke-width:1.5;" x1="395" x2="517" y1="321.5" y2="321.5"/><text fill="#000000" font-family="sans-serif" font-size="11" lengthAdjust="spacing" textLength="106" x="400" y="335.7104">List&lt;URI&gt; contacts</text><text fill="#000000" font-family="sans-serif" font-size="11" lengthAdjust="spacing" textLength="111" x="400" y="348.5151">String displayName</text><line style="stroke:#A80036;stroke-width:1.5;" x1="395" x2="517" y1="355.1094" y2="355.1094"/><!--MD5=[f8f29aeb30962b8f0c17f3bed64bd579]
class Contribution Statement--><rect codeLine="36" fill="#FEFECE" filter="url(#fe4dm0n0ylmsq)" height="48" id="Contribution Statement" style="stroke:#A80036;stroke-width:1.5;" width="169" x="711.5" y="122.5"/><ellipse cx="726.5" cy="138.5" fill="#ADD1B2" rx="11" ry="11" style="stroke:#A80036;stroke-width:1.0;"/><path d="M728.8438,134.1719 C727.9063,133.7344 727.3125,133.5938 726.4375,133.5938 C723.8125,133.5938 721.8125,135.6719 721.8125,138.3906 L721.8125,139.5156 C721.8125,142.0938 723.9219,143.9844 726.8125,143.9844 C728.0313,143.9844 729.1875,143.6875 729.9375,143.1406 C730.5156,142.7344 730.8438,142.2813 730.8438,141.8906 C730.8438,141.4375 730.4531,141.0469 729.9844,141.0469 C729.7656,141.0469 729.5625,141.125 729.375,141.3125 C728.9219,141.7969 728.9219,141.7969 728.7344,141.8906 C728.3125,142.1563 727.625,142.2813 726.8594,142.2813 C724.8125,142.2813 723.5156,141.1875 723.5156,139.4844 L723.5156,138.3906 C723.5156,136.6094 724.7656,135.2969 726.5,135.2969 C727.0781,135.2969 727.6875,135.4531 728.1563,135.7031 C728.6406,135.9844 728.8125,136.2031 728.9063,136.6094 C728.9688,137.0156 729,137.1406 729.1406,137.2656 C729.2813,137.4063 729.5156,137.5156 729.7344,137.5156 C730,137.5156 730.2656,137.375 730.4375,137.1563 C730.5469,137 730.5781,136.8125 730.5781,136.3906 L730.5781,134.9688 C730.5781,134.5313 730.5625,134.4063 730.4688,134.25 C730.3125,133.9844 730.0313,133.8438 729.7344,133.8438 C729.4375,133.8438 729.2344,133.9375 729.0156,134.25 L728.8438,134.1719 Z " fill="#000000"/><text fill="#000000" font-family="sans-serif" font-size="12" lengthAdjust="spacing" textLength="137" x="740.5" y="142.6543">Contribution Statement</text><line style="stroke:#A80036;stroke-width:1.5;" x1="712.5" x2="879.5" y1="154.5" y2="154.5"/><line style="stroke:#A80036;stroke-width:1.5;" x1="712.5" x2="879.5" y1="162.5" y2="162.5"/><!--MD5=[3f6954d26e8fa8feef64f8ba628c4304]
class Free Text Contribution--><rect codeLine="38" fill="#FEFECE" filter="url(#fe4dm0n0ylmsq)" height="60.8047" id="Free Text Contribution" style="stroke:#A80036;stroke-width:1.5;" width="177" x="728.5" y="296"/><ellipse cx="748.45" cy="312" fill="#ADD1B2" rx="11" ry="11" style="stroke:#A80036;stroke-width:1.0;"/><path d="M750.7938,307.6719 C749.8563,307.2344 749.2625,307.0938 748.3875,307.0938 C745.7625,307.0938 743.7625,309.1719 743.7625,311.8906 L743.7625,313.0156 C743.7625,315.5938 745.8719,317.4844 748.7625,317.4844 C749.9813,317.4844 751.1375,317.1875 751.8875,316.6406 C752.4656,316.2344 752.7938,315.7813 752.7938,315.3906 C752.7938,314.9375 752.4031,314.5469 751.9344,314.5469 C751.7156,314.5469 751.5125,314.625 751.325,314.8125 C750.8719,315.2969 750.8719,315.2969 750.6844,315.3906 C750.2625,315.6563 749.575,315.7813 748.8094,315.7813 C746.7625,315.7813 745.4656,314.6875 745.4656,312.9844 L745.4656,311.8906 C745.4656,310.1094 746.7156,308.7969 748.45,308.7969 C749.0281,308.7969 749.6375,308.9531 750.1063,309.2031 C750.5906,309.4844 750.7625,309.7031 750.8563,310.1094 C750.9188,310.5156 750.95,310.6406 751.0906,310.7656 C751.2313,310.9063 751.4656,311.0156 751.6844,311.0156 C751.95,311.0156 752.2156,310.875 752.3875,310.6563 C752.4969,310.5 752.5281,310.3125 752.5281,309.8906 L752.5281,308.4688 C752.5281,308.0313 752.5125,307.9063 752.4188,307.75 C752.2625,307.4844 751.9813,307.3438 751.6844,307.3438 C751.3875,307.3438 751.1844,307.4375 750.9656,307.75 L750.7938,307.6719 Z " fill="#000000"/><text fill="#000000" font-family="sans-serif" font-size="12" lengthAdjust="spacing" textLength="134" x="763.55" y="316.1543">Free Text Contribution</text><line style="stroke:#A80036;stroke-width:1.5;" x1="729.5" x2="904.5" y1="328" y2="328"/><text fill="#000000" font-family="sans-serif" font-size="11" lengthAdjust="spacing" textLength="165" x="734.5" y="342.2104">Multilingual_String statement</text><line style="stroke:#A80036;stroke-width:1.5;" x1="729.5" x2="904.5" y1="348.8047" y2="348.8047"/><!--MD5=[819e4821c75d866d91a46af0ea8026f8]
class Affiliation Statement--><rect codeLine="41" fill="#FEFECE" filter="url(#fe4dm0n0ylmsq)" height="60.8047" id="Affiliation Statement" style="stroke:#A80036;stroke-width:1.5;" width="151" x="380.5" y="438"/><ellipse cx="395.5" cy="454" fill="#ADD1B2" rx="11" ry="11" style="stroke:#A80036;stroke-width:1.0;"/><path d="M397.8438,449.6719 C396.9063,449.2344 396.3125,449.0938 395.4375,449.0938 C392.8125,449.0938 390.8125,451.1719 390.8125,453.8906 L390.8125,455.0156 C390.8125,457.5938 392.9219,459.4844 395.8125,459.4844 C397.0313,459.4844 398.1875,459.1875 398.9375,458.6406 C399.5156,458.2344 399.8438,457.7813 399.8438,457.3906 C399.8438,456.9375 399.4531,456.5469 398.9844,456.5469 C398.7656,456.5469 398.5625,456.625 398.375,456.8125 C397.9219,457.2969 397.9219,457.2969 397.7344,457.3906 C397.3125,457.6563 396.625,457.7813 395.8594,457.7813 C393.8125,457.7813 392.5156,456.6875 392.5156,454.9844 L392.5156,453.8906 C392.5156,452.1094 393.7656,450.7969 395.5,450.7969 C396.0781,450.7969 396.6875,450.9531 397.1563,451.2031 C397.6406,451.4844 397.8125,451.7031 397.9063,452.1094 C397.9688,452.5156 398,452.6406 398.1406,452.7656 C398.2813,452.9063 398.5156,453.0156 398.7344,453.0156 C399,453.0156 399.2656,452.875 399.4375,452.6563 C399.5469,452.5 399.5781,452.3125 399.5781,451.8906 L399.5781,450.4688 C399.5781,450.0313 399.5625,449.9063 399.4688,449.75 C399.3125,449.4844 399.0313,449.3438 398.7344,449.3438 C398.4375,449.3438 398.2344,449.4375 398.0156,449.75 L397.8438,449.6719 Z " fill="#000000"/><text fill="#000000" font-family="sans-serif" font-size="12" lengthAdjust="spacing" textLength="119" x="409.5" y="458.1543">Affiliation Statement</text><line style="stroke:#A80036;stroke-width:1.5;" x1="381.5" x2="530.5" y1="470" y2="470"/><text fill="#000000" font-family="sans-serif" font-size="11" lengthAdjust="spacing" textLength="130" x="386.5" y="484.2104">String displayAffiliation</text><line style="stroke:#A80036;stroke-width:1.5;" x1="381.5" x2="530.5" y1="490.8047" y2="490.8047"/><!--MD5=[5b6d5f043b17cf3ce8a453f9008bb166]
class Postal Address--><rect codeLine="44" fill="#FEFECE" filter="url(#fe4dm0n0ylmsq)" height="86.4141" id="Postal Address" style="stroke:#A80036;stroke-width:1.5;" width="122" x="519" y="560"/><ellipse cx="534" cy="576" fill="#ADD1B2" rx="11" ry="11" style="stroke:#A80036;stroke-width:1.0;"/><path d="M536.3438,571.6719 C535.4063,571.2344 534.8125,571.0938 533.9375,571.0938 C531.3125,571.0938 529.3125,573.1719 529.3125,575.8906 L529.3125,577.0156 C529.3125,579.5938 531.4219,581.4844 534.3125,581.4844 C535.5313,581.4844 536.6875,581.1875 537.4375,580.6406 C538.0156,580.2344 538.3438,579.7813 538.3438,579.3906 C538.3438,578.9375 537.9531,578.5469 537.4844,578.5469 C537.2656,578.5469 537.0625,578.625 536.875,578.8125 C536.4219,579.2969 536.4219,579.2969 536.2344,579.3906 C535.8125,579.6563 535.125,579.7813 534.3594,579.7813 C532.3125,579.7813 531.0156,578.6875 531.0156,576.9844 L531.0156,575.8906 C531.0156,574.1094 532.2656,572.7969 534,572.7969 C534.5781,572.7969 535.1875,572.9531 535.6563,573.2031 C536.1406,573.4844 536.3125,573.7031 536.4063,574.1094 C536.4688,574.5156 536.5,574.6406 536.6406,574.7656 C536.7813,574.9063 537.0156,575.0156 537.2344,575.0156 C537.5,575.0156 537.7656,574.875 537.9375,574.6563 C538.0469,574.5 538.0781,574.3125 538.0781,573.8906 L538.0781,572.4688 C538.0781,572.0313 538.0625,571.9063 537.9688,571.75 C537.8125,571.4844 537.5313,571.3438 537.2344,571.3438 C536.9375,571.3438 536.7344,571.4375 536.5156,571.75 L536.3438,571.6719 Z " fill="#000000"/><text fill="#000000" font-family="sans-serif" font-size="12" lengthAdjust="spacing" textLength="90" x="548" y="580.1543">Postal Address</text><line style="stroke:#A80036;stroke-width:1.5;" x1="520" x2="640" y1="592" y2="592"/><text fill="#000000" font-family="sans-serif" font-size="11" lengthAdjust="spacing" textLength="71" x="525" y="606.2104">String street</text><text fill="#000000" font-family="sans-serif" font-size="11" lengthAdjust="spacing" textLength="57" x="525" y="619.0151">String city</text><text fill="#000000" font-family="sans-serif" font-size="11" lengthAdjust="spacing" textLength="84" x="525" y="631.8198">String zipCode</text><line style="stroke:#A80036;stroke-width:1.5;" x1="520" x2="640" y1="638.4141" y2="638.4141"/><!--MD5=[deb4e1f6eb1e3c1256fdb830f96abfbb]
class Country--><rect codeLine="49" fill="#FEFECE" filter="url(#fe4dm0n0ylmsq)" height="99.2188" id="Country" style="stroke:#A80036;stroke-width:1.5;" width="274" x="443" y="707"/><ellipse cx="552.75" cy="723" fill="#ADD1B2" rx="11" ry="11" style="stroke:#A80036;stroke-width:1.0;"/><path d="M555.0938,718.6719 C554.1563,718.2344 553.5625,718.0938 552.6875,718.0938 C550.0625,718.0938 548.0625,720.1719 548.0625,722.8906 L548.0625,724.0156 C548.0625,726.5938 550.1719,728.4844 553.0625,728.4844 C554.2813,728.4844 555.4375,728.1875 556.1875,727.6406 C556.7656,727.2344 557.0938,726.7813 557.0938,726.3906 C557.0938,725.9375 556.7031,725.5469 556.2344,725.5469 C556.0156,725.5469 555.8125,725.625 555.625,725.8125 C555.1719,726.2969 555.1719,726.2969 554.9844,726.3906 C554.5625,726.6563 553.875,726.7813 553.1094,726.7813 C551.0625,726.7813 549.7656,725.6875 549.7656,723.9844 L549.7656,722.8906 C549.7656,721.1094 551.0156,719.7969 552.75,719.7969 C553.3281,719.7969 553.9375,719.9531 554.4063,720.2031 C554.8906,720.4844 555.0625,720.7031 555.1563,721.1094 C555.2188,721.5156 555.25,721.6406 555.3906,721.7656 C555.5313,721.9063 555.7656,722.0156 555.9844,722.0156 C556.25,722.0156 556.5156,721.875 556.6875,721.6563 C556.7969,721.5 556.8281,721.3125 556.8281,720.8906 L556.8281,719.4688 C556.8281,719.0313 556.8125,718.9063 556.7188,718.75 C556.5625,718.4844 556.2813,718.3438 555.9844,718.3438 C555.6875,718.3438 555.4844,718.4375 555.2656,718.75 L555.0938,718.6719 Z " fill="#000000"/><text fill="#000000" font-family="sans-serif" font-size="12" lengthAdjust="spacing" textLength="46" x="573.25" y="727.1543">Country</text><line style="stroke:#A80036;stroke-width:1.5;" x1="444" x2="716" y1="739" y2="739"/><text fill="#000000" font-family="sans-serif" font-size="11" lengthAdjust="spacing" textLength="139" x="449" y="753.2104">Multilingual_String name</text><text fill="#000000" font-family="sans-serif" font-size="11" lengthAdjust="spacing" textLength="231" x="449" y="766.0151">ISO3166_Alpha_Code iso3166alphaCode</text><text fill="#000000" font-family="sans-serif" font-size="11" lengthAdjust="spacing" textLength="262" x="449" y="778.8198">ISO3166_Numeric_Code iso3166NumericCode</text><text fill="#000000" font-family="sans-serif" font-size="11" lengthAdjust="spacing" textLength="194" x="449" y="791.6245">EU_Country_Code euCountryCode</text><line style="stroke:#A80036;stroke-width:1.5;" x1="444" x2="716" y1="798.2188" y2="798.2188"/><path d="M6,276 L6,376.7969 A0,0 0 0 0 6,376.7969 L256,376.7969 A0,0 0 0 0 256,376.7969 L256,330.5 L291.328,326.5 L256,322.5 L256,286 L246,276 L6,276 A0,0 0 0 0 6,276 " fill="#FBFB77" filter="url(#fe4dm0n0ylmsq)" style="stroke:#A80036;stroke-width:1.0;"/><path d="M246,276 L246,286 L256,286 L246,276 " fill="#FBFB77" style="stroke:#A80036;stroke-width:1.0;"/><text fill="#000000" font-family="sans-serif" font-size="13" lengthAdjust="spacing" textLength="225" x="12" y="293.0669">The Agent is mandatory for almost</text><text fill="#000000" font-family="sans-serif" font-size="13" lengthAdjust="spacing" textLength="211" x="12" y="308.1997">all subclasses of Contributorship,</text><text fill="#000000" font-family="sans-serif" font-size="13" lengthAdjust="spacing" textLength="209" x="12" y="323.3325">Reviewing is the exception if the</text><text fill="#000000" font-family="sans-serif" font-size="13" lengthAdjust="spacing" textLength="205" x="12" y="338.4653">reviewer's identity is concealed.</text><text fill="#000000" font-family="sans-serif" font-size="13" lengthAdjust="spacing" textLength="187" x="12" y="353.5981">Also useful when authors are</text><text fill="#000000" font-family="sans-serif" font-size="13" lengthAdjust="spacing" textLength="125" x="12" y="368.731">using pseudonyms.</text><!--MD5=[f88c115e3130e3b4ff5649ba9e133055]
reverse link Postal Address to Country--><path codeLine="58" d="M580,659.457 C580,674.983 580,691.736 580,706.8366 " fill="none" id="Postal Address-backto-Country" style="stroke:#A80036;stroke-width:1.0;"/><polygon fill="#A80036" points="580,646.201,576,652.201,580,658.201,584,652.201,580,646.201" style="stroke:#A80036;stroke-width:1.0;"/><text fill="#000000" font-family="sans-serif" font-size="13" lengthAdjust="spacing" textLength="49" x="527.5547" y="695.8593">country</text><!--MD5=[8528c0d5784524a7ac31969edc457096]
reverse link Affiliation Statement to Postal Address--><path codeLine="59" d="M492.83,508.855 C507.845,524.899 525.232,543.477 540.509,559.802 " fill="none" id="Affiliation Statement-backto-Postal Address" style="stroke:#A80036;stroke-width:1.0;"/><polygon fill="#A80036" points="483.828,499.236,485.0074,506.35,492.0277,507.9975,490.8484,500.8835,483.828,499.236" style="stroke:#A80036;stroke-width:1.0;"/><text fill="#000000" font-family="sans-serif" font-size="13" lengthAdjust="spacing" textLength="91" x="541.4291" y="549.0842">postalAddress</text><!--MD5=[4904fd3a26b4d7fe956968cf0a0d8a9b]
reverse link Affiliation Statement to Organisation Unit--><path codeLine="60" d="M429.003,511.09 C420.418,530.973 412.329,554.312 407.905,572.364 " fill="none" id="Affiliation Statement-backto-Organisation Unit" style="stroke:#A80036;stroke-width:1.0;"/><polygon fill="#A80036" points="434.385,499.236,428.2624,503.0457,429.4241,510.1626,435.5468,506.3529,434.385,499.236" style="stroke:#A80036;stroke-width:1.0;"/><text fill="#000000" font-family="sans-serif" font-size="13" lengthAdjust="spacing" textLength="46" x="357.1417" y="561.5992">orgUnit</text><!--MD5=[4904fd3a26b4d7fe956968cf0a0d8a9b]
reverse link Affiliation Statement to Organisation Unit--><path codeLine="61" d="M453.32,511.937 C447.576,531.632 438.86,554.567 430.205,572.364 " fill="none" id="Affiliation Statement-backto-Organisation Unit-1" style="stroke:#A80036;stroke-width:1.0;"/><polygon fill="#A80036" points="456.709,499.236,451.2973,504.0019,453.6152,510.8303,459.0269,506.0644,456.709,499.236" style="stroke:#A80036;stroke-width:1.0;"/><text fill="#000000" font-family="sans-serif" font-size="13" lengthAdjust="spacing" textLength="63" x="441.2817" y="561.5992">institution</text><!--MD5=[1e703325bca9787769503a051e7183a5]
reverse link Contribution Statement to Free Text Contribution--><path codeLine="62" d="M801.098,190.716 C804.936,223.244 810.097,266.986 813.484,295.694 " fill="none" id="Contribution Statement-backto-Free Text Contribution" style="stroke:#A80036;stroke-width:1.0;"/><polygon fill="none" points="794.137,191.453,798.745,170.77,808.041,189.812,794.137,191.453" style="stroke:#A80036;stroke-width:1.0;"/><!--MD5=[1f014480a3afa8c0325c3be3fbf7ad6f]
link Contributorship to Document--><path codeLine="63" d="M518.299,326.5 C525.367,326.5 532.435,326.5 539.502,326.5 " fill="none" id="Contributorship-to-Document" style="stroke:#A80036;stroke-width:1.0;"/><polygon fill="#A80036" points="552.654,326.5,546.654,322.5,540.654,326.5,546.654,330.5,552.654,326.5" style="stroke:#A80036;stroke-width:1.0;"/><!--MD5=[504de05de5dc33320621ff1be2e6e6ff]
reverse link Agent to Contributorship--><path codeLine="64" d="M371.521,326.5 C378.991,326.5 386.461,326.5 393.931,326.5 " fill="none" id="Agent-backto-Contributorship" style="stroke:#A80036;stroke-width:1.0;"/><polygon fill="#A80036" points="358.518,326.5,364.518,330.5,370.518,326.5,364.518,322.5,358.518,326.5" style="stroke:#A80036;stroke-width:1.0;"/><!--MD5=[4629ab2f8b8cc60994d50cb24184a136]
reverse link Contributorship to Affiliation Statement--><path codeLine="65" d="M456,376.791 C456,397.119 456,420.008 456,437.708 " fill="none" id="Contributorship-backto-Affiliation Statement" style="stroke:#A80036;stroke-width:1.0;"/><polygon fill="#FFFFFF" points="456,363.553,452,369.553,456,375.553,460,369.553,456,363.553" style="stroke:#A80036;stroke-width:1.0;"/><text fill="#000000" font-family="sans-serif" font-size="13" lengthAdjust="spacing" textLength="66" x="383.1938" y="426.911">affiliations</text><!--MD5=[87dce73954b4196bb1c032bbee886bf4]
link Contribution Statement to Contributorship--><path codeLine="66" d="M745.179,170.636 C691.999,195.281 606.464,236.156 535,276 C531.254,278.089 527.437,280.275 523.603,282.517 " fill="none" id="Contribution Statement-to-Contributorship" style="stroke:#A80036;stroke-width:1.0;"/><polygon fill="#FFFFFF" points="512.11,289.367,519.3119,289.7312,522.418,283.2233,515.2161,282.8592,512.11,289.367" style="stroke:#A80036;stroke-width:1.0;"/><text fill="#000000" font-family="sans-serif" font-size="13" lengthAdjust="spacing" textLength="151" x="619.222" y="190.6152">contributionStatements</text><!--MD5=[515627370d950159b283430218e15046]
link Authorship to Textual Document--><path codeLine="68" d="M459.883,146.5 C467.154,146.5 474.425,146.5 481.697,146.5 " fill="none" id="Authorship-to-Textual Document" style="stroke:#A80036;stroke-width:1.0;"/><polygon fill="#A80036" points="494.785,146.5,488.785,142.5,482.785,146.5,488.785,150.5,494.785,146.5" style="stroke:#A80036;stroke-width:1.0;"/><!--MD5=[e74e4958a1d7eb99db8e977d8859ba66]
link Authorship to Contributorship--><path codeLine="69" d="M437.986,177.014 C449.963,184.924 460.719,194.784 468,207 C479.094,225.614 479.095,248.845 475.225,269.795 " fill="none" id="Authorship-to-Contributorship" style="stroke:#A80036;stroke-width:1.0;"/><polygon fill="none" points="481.996,271.573,470.45,289.34,468.396,268.25,481.996,271.573" style="stroke:#A80036;stroke-width:1.0;"/><!--MD5=[49125a4ba45432b051dcbcd9e53401d7]
link Authorship to Agent--><path codeLine="70" d="M312.121,177.206 C302.768,185.624 294.205,195.639 289,207 C275.342,236.812 290.734,273.159 305.41,297.675 " fill="none" id="Authorship-to-Agent" style="stroke:#A80036;stroke-width:1.0;"/><polygon fill="#A80036" points="308.135,302.111,306.8321,292.3487,305.5177,297.8507,300.0157,296.5364,308.135,302.111" style="stroke:#A80036;stroke-width:1.0;"/><path d="M294,212 L294,237 L455,237 L455,222 L445,212 L294,212 " fill="#FF0000" filter="url(#fe4dm0n0ylmsq)" style="stroke:#A80036;stroke-width:1.0;"/><path d="M445,212 L445,222 L455,222 L445,212 " fill="#FF0000" style="stroke:#A80036;stroke-width:1.0;"/><text fill="#000000" font-family="sans-serif" font-size="13" lengthAdjust="spacing" textLength="140" x="300" y="229.0669">author == contributor</text><text fill="#000000" font-family="sans-serif" font-size="13" lengthAdjust="spacing" textLength="42" x="264.0211" y="289.5089">author</text><!--MD5=[9a7235b84334665fcda294365fcaf4f5]
reverse link Person to Person Name--><path codeLine="73" d="M220,512.529 C220,527.69 220,544.709 220,559.802 " fill="none" id="Person-backto-Person Name" style="stroke:#A80036;stroke-width:1.0;"/><polygon fill="#FFFFFF" points="220,499.236,216,505.236,220,511.236,224,505.236,220,499.236" style="stroke:#A80036;stroke-width:1.0;"/><text fill="#000000" font-family="sans-serif" font-size="13" lengthAdjust="spacing" textLength="44" x="172.6313" y="549.0842">names</text><!--MD5=[de96f77e660762cb21a195b4097c3876]
reverse link Agent to Person--><path codeLine="74" d="M295.424,366.935 C278.566,389.412 257.784,417.122 242.306,437.759 " fill="none" id="Agent-backto-Person" style="stroke:#A80036;stroke-width:1.0;"/><polygon fill="none" points="290.061,362.418,307.661,350.618,301.261,370.818,290.061,362.418" style="stroke:#A80036;stroke-width:1.0;"/><!--MD5=[58a58d00e9270883bf92cdf281f32c1a]
reverse link Agent to Organisation Unit--><path codeLine="75" d="M332.178,370.733 C338.568,405.789 349.061,456.221 363,499 C371.282,524.419 383.587,552.13 393.238,572.4 " fill="none" id="Agent-backto-Organisation Unit" style="stroke:#A80036;stroke-width:1.0;"/><polygon fill="none" points="325.211,371.534,328.656,350.626,339.001,369.118,325.211,371.534" style="stroke:#A80036;stroke-width:1.0;"/><!--MD5=[0cd4e18d651655357be10210466ee4fc]
link Textual Document to Document--><path codeLine="77" d="M572.582,170.77 C580.287,194.416 592.549,232.048 603.051,264.279 " fill="none" id="Textual Document-to-Document" style="stroke:#A80036;stroke-width:1.0;"/><polygon fill="none" points="609.766,262.29,609.306,283.475,596.455,266.628,609.766,262.29" style="stroke:#A80036;stroke-width:1.0;"/><!--MD5=[467b17589d7b3ec09474af6cf2c3322d]
link Textual Document Accessibility Specification to Textual Document--><path codeLine="78" d="M565,55.242 C565,70.774 565,91.522 565,109.209 " fill="none" id="Textual Document Accessibility Specification-to-Textual Document" style="stroke:#A80036;stroke-width:1.0;"/><polygon fill="#A80036" points="565,122.289,569,116.289,565,110.289,561,116.289,565,122.289" style="stroke:#A80036;stroke-width:1.0;"/><text fill="#000000" font-family="sans-serif" font-size="13" lengthAdjust="spacing" textLength="84" x="470.7625" y="75.0622">accessRights</text><!--MD5=[d5a6c053a39d24fd07d740a282fdedf6]
reverse link Textual Document to Agent--><path codeLine="79" d="M540.741,180.957 C523.684,202.303 499.129,229.048 472,246 C434.091,269.688 414.417,253.145 376,276 C364.335,282.94 353.279,293.055 344.461,302.335 " fill="none" id="Textual Document-backto-Agent" style="stroke:#A80036;stroke-width:1.0;"/><polygon fill="#A80036" points="548.721,170.673,541.8826,172.9613,541.3648,180.1538,548.2032,177.8655,548.721,170.673" style="stroke:#A80036;stroke-width:1.0;"/><text fill="#000000" font-family="sans-serif" font-size="13" lengthAdjust="spacing" textLength="49" x="337.2561" y="281.6765">authors</text><!--MD5=[7c868f3fa4e51673551d5bfffb60aa8f]
@startuml
!startsub Contributorship
    class "Document"{
        Multilingual_String title
        Date publicationDate
        DOI_Type DOI
    }
    !endsub
    class "Textual Document"{
    }
    class "Textual Document Accessibility Specification"{
    }
    !startsub Agent
    class "Agent"{

    }
    class "Organisation Unit"{
        Multilingual_String name
    }
    class "Person"{
        ORCID_iD orcidid
    }
    class "Person Name"{
        String firstNames
        String familyNames
        String otherNames
    }
    !endsub
    class "Authorship"{
        Boolean correspondingAuthorFlag
    }
    !startsub Contributorship
    class "Contributorship"{
        List<URI> contacts
        String displayName
    }
    class "Contribution Statement"{
    }
    class "Free Text Contribution"{
        Multilingual_String statement
    }
    class "Affiliation Statement"{
        String displayAffiliation
    }
    class "Postal Address"{
        String street
        String city
        String zipCode
    }
    class "Country"{
        Multilingual_String name
        ISO3166_Alpha_Code iso3166alphaCode
        ISO3166_Numeric_Code iso3166NumericCode
        EU_Country_Code euCountryCode
    }
    !endsub

!startsub Contributorship
"Postal Address" *- - "country" "Country"
"Affiliation Statement" *- - "postalAddress" "Postal Address"
"Affiliation Statement" *- - "orgUnit" "Organisation Unit"
"Affiliation Statement" *- - "institution" "Organisation Unit"
"Contribution Statement" <|- - "Free Text Contribution"
"Contributorship" -r-* "Document"
"Contributorship" -l-* "Agent"
"Contributorship" o- - "affiliations" "Affiliation Statement"
"Contributorship" o-u- "contributionStatements" "Contribution Statement"
!endsub
"Authorship" -r-* "Textual Document"
"Contributorship" <|-u- "Authorship"
"Authorship" - -> "author" "Agent"
note on link #red: author == contributor
!startsub Agent
"Person" o-d- "names" "Person Name"
"Agent" <|-d- "Person"
"Agent" <|-d- "Organisation Unit"
!endsub
"Document" <|-u- "Textual Document"
"Textual Document" *-u- "accessRights" "Textual Document Accessibility Specification"
"Textual Document" *- -  "authors" "Agent"

note left of Agent: The Agent is mandatory for almost \nall subclasses of Contributorship,\nReviewing is the exception if the \nreviewer's identity is concealed. \nAlso useful when authors are \nusing pseudonyms.
@enduml

@startuml
    class "Document"{
        Multilingual_String title
        Date publicationDate
        DOI_Type DOI
    }
    class "Textual Document"{
    }
    class "Textual Document Accessibility Specification"{
    }
    class "Agent"{

    }
    class "Organisation Unit"{
        Multilingual_String name
    }
    class "Person"{
        ORCID_iD orcidid
    }
    class "Person Name"{
        String firstNames
        String familyNames
        String otherNames
    }
    class "Authorship"{
        Boolean correspondingAuthorFlag
    }
    class "Contributorship"{
        List<URI> contacts
        String displayName
    }
    class "Contribution Statement"{
    }
    class "Free Text Contribution"{
        Multilingual_String statement
    }
    class "Affiliation Statement"{
        String displayAffiliation
    }
    class "Postal Address"{
        String street
        String city
        String zipCode
    }
    class "Country"{
        Multilingual_String name
        ISO3166_Alpha_Code iso3166alphaCode
        ISO3166_Numeric_Code iso3166NumericCode
        EU_Country_Code euCountryCode
    }

"Postal Address" *- - "country" "Country"
"Affiliation Statement" *- - "postalAddress" "Postal Address"
"Affiliation Statement" *- - "orgUnit" "Organisation Unit"
"Affiliation Statement" *- - "institution" "Organisation Unit"
"Contribution Statement" <|- - "Free Text Contribution"
"Contributorship" -r-* "Document"
"Contributorship" -l-* "Agent"
"Contributorship" o- - "affiliations" "Affiliation Statement"
"Contributorship" o-u- "contributionStatements" "Contribution Statement"
"Authorship" -r-* "Textual Document"
"Contributorship" <|-u- "Authorship"
"Authorship" - -> "author" "Agent"
note on link #red: author == contributor
"Person" o-d- "names" "Person Name"
"Agent" <|-d- "Person"
"Agent" <|-d- "Organisation Unit"
"Document" <|-u- "Textual Document"
"Textual Document" *-u- "accessRights" "Textual Document Accessibility Specification"
"Textual Document" *- -  "authors" "Agent"

note left of Agent: The Agent is mandatory for almost \nall subclasses of Contributorship,\nReviewing is the exception if the \nreviewer's identity is concealed. \nAlso useful when authors are \nusing pseudonyms.
@enduml

PlantUML version 1.2021.9beta2(Unknown compile time)
(GPL source distribution)
Java Runtime: Java(TM) SE Runtime Environment
JVM: Java HotSpot(TM) 64-Bit Server VM
Default Encoding: UTF-8
Language: en
Country: US
--></g></svg>