<?xml version="1.0" encoding="UTF-8" standalone="no"?><svg xmlns="http://www.w3.org/2000/svg" xmlns:xlink="http://www.w3.org/1999/xlink" contentScriptType="application/ecmascript" contentStyleType="text/css" height="838px" preserveAspectRatio="none" style="width:833px;height:838px;background:#FFFFFF;" version="1.1" viewBox="0 0 833 838" width="833px" zoomAndPan="magnify"><defs><filter height="300%" id="f1gbxeaz0msuq8" width="300%" x="-1" y="-1"><feGaussianBlur result="blurOut" stdDeviation="2.0"/><feColorMatrix in="blurOut" result="blurOut2" type="matrix" values="0 0 0 0 0 0 0 0 0 0 0 0 0 0 0 0 0 0 .4 0"/><feOffset dx="4.0" dy="4.0" in="blurOut2" result="blurOut3"/><feBlend in="SourceGraphic" in2="blurOut3" mode="normal"/></filter></defs><g><!--MD5=[59b530d44ae785dc18db921986a9c15c]
class Document--><rect codeLine="4" fill="#FEFECE" filter="url(#f1gbxeaz0msuq8)" height="89.5078" id="Document" style="stroke:#A80036;stroke-width:1.5;" width="116" x="516" y="287"/><ellipse cx="543.15" cy="303" fill="#ADD1B2" rx="11" ry="11" style="stroke:#A80036;stroke-width:1.0;"/><path d="M545.9156,298.875 Q546.0719,298.6563 546.2594,298.5469 Q546.4469,298.4375 546.6656,298.4375 Q547.0406,298.4375 547.275,298.6953 Q547.5094,298.9531 547.5094,299.5625 L547.5094,301.0156 Q547.5094,301.625 547.275,301.8906 Q547.0406,302.1563 546.6656,302.1563 Q546.3219,302.1563 546.1188,301.9531 Q545.9156,301.7656 545.8063,301.25 Q545.7594,300.8906 545.5719,300.7031 Q545.2438,300.3281 544.6344,300.1094 Q544.025,299.8906 543.4,299.8906 Q542.6344,299.8906 542.0016,300.2188 Q541.3688,300.5469 540.8766,301.2969 Q540.3844,302.0469 540.3844,303.0781 L540.3844,304.1719 Q540.3844,305.4063 541.275,306.2266 Q542.1656,307.0469 543.7594,307.0469 Q544.6969,307.0469 545.3531,306.7969 Q545.7438,306.6406 546.1656,306.2031 Q546.4313,305.9375 546.5797,305.8594 Q546.7281,305.7813 546.9313,305.7813 Q547.2594,305.7813 547.5172,306.0391 Q547.775,306.2969 547.775,306.6406 Q547.775,306.9844 547.4313,307.3906 Q546.9313,307.9688 546.1344,308.2969 Q545.0563,308.75 543.7594,308.75 Q542.2438,308.75 541.0406,308.125 Q540.0563,307.625 539.3688,306.5547 Q538.6813,305.4844 538.6813,304.2031 L538.6813,303.0469 Q538.6813,301.7188 539.2984,300.5703 Q539.9156,299.4219 541.0094,298.8047 Q542.1031,298.1875 543.3375,298.1875 Q544.0719,298.1875 544.7203,298.3516 Q545.3688,298.5156 545.9156,298.875 Z " fill="#000000"/><text fill="#000000" font-family="sans-serif" font-size="12" lengthAdjust="spacing" textLength="57" x="559.85" y="307.9102">Document</text><line style="stroke:#A80036;stroke-width:1.5;" x1="517" x2="631" y1="319" y2="319"/><text fill="#000000" font-family="sans-serif" font-size="11" lengthAdjust="spacing" textLength="104" x="522" y="334.4189">Multilingual_String title</text><text fill="#000000" font-family="sans-serif" font-size="11" lengthAdjust="spacing" textLength="98" x="522" y="348.2549">Date publicationDate</text><text fill="#000000" font-family="sans-serif" font-size="11" lengthAdjust="spacing" textLength="67" x="522" y="362.0908">DOI_Type DOI</text><line style="stroke:#A80036;stroke-width:1.5;" x1="517" x2="631" y1="368.5078" y2="368.5078"/><!--MD5=[406eabaf9672e74804bc505a9777bf8f]
class Textual Document--><rect codeLine="10" fill="#FEFECE" filter="url(#f1gbxeaz0msuq8)" height="48" id="Textual Document" style="stroke:#A80036;stroke-width:1.5;" width="131" x="451.5" y="123"/><ellipse cx="466.5" cy="139" fill="#ADD1B2" rx="11" ry="11" style="stroke:#A80036;stroke-width:1.0;"/><path d="M469.2656,134.875 Q469.4219,134.6563 469.6094,134.5469 Q469.7969,134.4375 470.0156,134.4375 Q470.3906,134.4375 470.625,134.6953 Q470.8594,134.9531 470.8594,135.5625 L470.8594,137.0156 Q470.8594,137.625 470.625,137.8906 Q470.3906,138.1563 470.0156,138.1563 Q469.6719,138.1563 469.4688,137.9531 Q469.2656,137.7656 469.1563,137.25 Q469.1094,136.8906 468.9219,136.7031 Q468.5938,136.3281 467.9844,136.1094 Q467.375,135.8906 466.75,135.8906 Q465.9844,135.8906 465.3516,136.2188 Q464.7188,136.5469 464.2266,137.2969 Q463.7344,138.0469 463.7344,139.0781 L463.7344,140.1719 Q463.7344,141.4063 464.625,142.2266 Q465.5156,143.0469 467.1094,143.0469 Q468.0469,143.0469 468.7031,142.7969 Q469.0938,142.6406 469.5156,142.2031 Q469.7813,141.9375 469.9297,141.8594 Q470.0781,141.7813 470.2813,141.7813 Q470.6094,141.7813 470.8672,142.0391 Q471.125,142.2969 471.125,142.6406 Q471.125,142.9844 470.7813,143.3906 Q470.2813,143.9688 469.4844,144.2969 Q468.4063,144.75 467.1094,144.75 Q465.5938,144.75 464.3906,144.125 Q463.4063,143.625 462.7188,142.5547 Q462.0313,141.4844 462.0313,140.2031 L462.0313,139.0469 Q462.0313,137.7188 462.6484,136.5703 Q463.2656,135.4219 464.3594,134.8047 Q465.4531,134.1875 466.6875,134.1875 Q467.4219,134.1875 468.0703,134.3516 Q468.7188,134.5156 469.2656,134.875 Z " fill="#000000"/><text fill="#000000" font-family="sans-serif" font-size="12" lengthAdjust="spacing" textLength="99" x="480.5" y="143.9102">Textual Document</text><line style="stroke:#A80036;stroke-width:1.5;" x1="452.5" x2="581.5" y1="155" y2="155"/><line style="stroke:#A80036;stroke-width:1.5;" x1="452.5" x2="581.5" y1="163" y2="163"/><!--MD5=[05b685b8e32e000146d4e5203ae16c64]
class Textual Document Accessibility Specification--><rect codeLine="12" fill="#FEFECE" filter="url(#f1gbxeaz0msuq8)" height="48" id="Textual Document Accessibility Specification" style="stroke:#A80036;stroke-width:1.5;" width="274" x="380" y="7"/><ellipse cx="395" cy="23" fill="#ADD1B2" rx="11" ry="11" style="stroke:#A80036;stroke-width:1.0;"/><path d="M397.7656,18.875 Q397.9219,18.6563 398.1094,18.5469 Q398.2969,18.4375 398.5156,18.4375 Q398.8906,18.4375 399.125,18.6953 Q399.3594,18.9531 399.3594,19.5625 L399.3594,21.0156 Q399.3594,21.625 399.125,21.8906 Q398.8906,22.1563 398.5156,22.1563 Q398.1719,22.1563 397.9688,21.9531 Q397.7656,21.7656 397.6563,21.25 Q397.6094,20.8906 397.4219,20.7031 Q397.0938,20.3281 396.4844,20.1094 Q395.875,19.8906 395.25,19.8906 Q394.4844,19.8906 393.8516,20.2188 Q393.2188,20.5469 392.7266,21.2969 Q392.2344,22.0469 392.2344,23.0781 L392.2344,24.1719 Q392.2344,25.4063 393.125,26.2266 Q394.0156,27.0469 395.6094,27.0469 Q396.5469,27.0469 397.2031,26.7969 Q397.5938,26.6406 398.0156,26.2031 Q398.2813,25.9375 398.4297,25.8594 Q398.5781,25.7813 398.7813,25.7813 Q399.1094,25.7813 399.3672,26.0391 Q399.625,26.2969 399.625,26.6406 Q399.625,26.9844 399.2813,27.3906 Q398.7813,27.9688 397.9844,28.2969 Q396.9063,28.75 395.6094,28.75 Q394.0938,28.75 392.8906,28.125 Q391.9063,27.625 391.2188,26.5547 Q390.5313,25.4844 390.5313,24.2031 L390.5313,23.0469 Q390.5313,21.7188 391.1484,20.5703 Q391.7656,19.4219 392.8594,18.8047 Q393.9531,18.1875 395.1875,18.1875 Q395.9219,18.1875 396.5703,18.3516 Q397.2188,18.5156 397.7656,18.875 Z " fill="#000000"/><text fill="#000000" font-family="sans-serif" font-size="12" lengthAdjust="spacing" textLength="242" x="409" y="27.9102">Textual Document Accessibility Specification</text><line style="stroke:#A80036;stroke-width:1.5;" x1="381" x2="653" y1="39" y2="39"/><line style="stroke:#A80036;stroke-width:1.5;" x1="381" x2="653" y1="47" y2="47"/><!--MD5=[9d44916250b776386006c440668bcfbb]
class Agent--><rect codeLine="15" fill="#FEFECE" filter="url(#f1gbxeaz0msuq8)" height="48" id="Agent" style="stroke:#A80036;stroke-width:1.5;" width="63" x="265.5" y="308"/><ellipse cx="280.5" cy="324" fill="#ADD1B2" rx="11" ry="11" style="stroke:#A80036;stroke-width:1.0;"/><path d="M283.2656,319.875 Q283.4219,319.6563 283.6094,319.5469 Q283.7969,319.4375 284.0156,319.4375 Q284.3906,319.4375 284.625,319.6953 Q284.8594,319.9531 284.8594,320.5625 L284.8594,322.0156 Q284.8594,322.625 284.625,322.8906 Q284.3906,323.1563 284.0156,323.1563 Q283.6719,323.1563 283.4688,322.9531 Q283.2656,322.7656 283.1563,322.25 Q283.1094,321.8906 282.9219,321.7031 Q282.5938,321.3281 281.9844,321.1094 Q281.375,320.8906 280.75,320.8906 Q279.9844,320.8906 279.3516,321.2188 Q278.7188,321.5469 278.2266,322.2969 Q277.7344,323.0469 277.7344,324.0781 L277.7344,325.1719 Q277.7344,326.4063 278.625,327.2266 Q279.5156,328.0469 281.1094,328.0469 Q282.0469,328.0469 282.7031,327.7969 Q283.0938,327.6406 283.5156,327.2031 Q283.7813,326.9375 283.9297,326.8594 Q284.0781,326.7813 284.2813,326.7813 Q284.6094,326.7813 284.8672,327.0391 Q285.125,327.2969 285.125,327.6406 Q285.125,327.9844 284.7813,328.3906 Q284.2813,328.9688 283.4844,329.2969 Q282.4063,329.75 281.1094,329.75 Q279.5938,329.75 278.3906,329.125 Q277.4063,328.625 276.7188,327.5547 Q276.0313,326.4844 276.0313,325.2031 L276.0313,324.0469 Q276.0313,322.7188 276.6484,321.5703 Q277.2656,320.4219 278.3594,319.8047 Q279.4531,319.1875 280.6875,319.1875 Q281.4219,319.1875 282.0703,319.3516 Q282.7188,319.5156 283.2656,319.875 Z " fill="#000000"/><text fill="#000000" font-family="sans-serif" font-size="12" lengthAdjust="spacing" textLength="31" x="294.5" y="328.9102">Agent</text><line style="stroke:#A80036;stroke-width:1.5;" x1="266.5" x2="327.5" y1="340" y2="340"/><line style="stroke:#A80036;stroke-width:1.5;" x1="266.5" x2="327.5" y1="348" y2="348"/><!--MD5=[fd289f43f02ef8bd75c20da9b3dee237]
class Organisation Unit--><rect codeLine="18" fill="#FEFECE" filter="url(#f1gbxeaz0msuq8)" height="61.8359" id="Organisation Unit" style="stroke:#A80036;stroke-width:1.5;" width="128" x="323" y="584"/><ellipse cx="338" cy="600" fill="#ADD1B2" rx="11" ry="11" style="stroke:#A80036;stroke-width:1.0;"/><path d="M340.7656,595.875 Q340.9219,595.6563 341.1094,595.5469 Q341.2969,595.4375 341.5156,595.4375 Q341.8906,595.4375 342.125,595.6953 Q342.3594,595.9531 342.3594,596.5625 L342.3594,598.0156 Q342.3594,598.625 342.125,598.8906 Q341.8906,599.1563 341.5156,599.1563 Q341.1719,599.1563 340.9688,598.9531 Q340.7656,598.7656 340.6563,598.25 Q340.6094,597.8906 340.4219,597.7031 Q340.0938,597.3281 339.4844,597.1094 Q338.875,596.8906 338.25,596.8906 Q337.4844,596.8906 336.8516,597.2188 Q336.2188,597.5469 335.7266,598.2969 Q335.2344,599.0469 335.2344,600.0781 L335.2344,601.1719 Q335.2344,602.4063 336.125,603.2266 Q337.0156,604.0469 338.6094,604.0469 Q339.5469,604.0469 340.2031,603.7969 Q340.5938,603.6406 341.0156,603.2031 Q341.2813,602.9375 341.4297,602.8594 Q341.5781,602.7813 341.7813,602.7813 Q342.1094,602.7813 342.3672,603.0391 Q342.625,603.2969 342.625,603.6406 Q342.625,603.9844 342.2813,604.3906 Q341.7813,604.9688 340.9844,605.2969 Q339.9063,605.75 338.6094,605.75 Q337.0938,605.75 335.8906,605.125 Q334.9063,604.625 334.2188,603.5547 Q333.5313,602.4844 333.5313,601.2031 L333.5313,600.0469 Q333.5313,598.7188 334.1484,597.5703 Q334.7656,596.4219 335.8594,595.8047 Q336.9531,595.1875 338.1875,595.1875 Q338.9219,595.1875 339.5703,595.3516 Q340.2188,595.5156 340.7656,595.875 Z " fill="#000000"/><text fill="#000000" font-family="sans-serif" font-size="12" lengthAdjust="spacing" textLength="96" x="352" y="604.9102">Organisation Unit</text><line style="stroke:#A80036;stroke-width:1.5;" x1="324" x2="450" y1="616" y2="616"/><text fill="#000000" font-family="sans-serif" font-size="11" lengthAdjust="spacing" textLength="114" x="329" y="631.4189">Multilingual_String name</text><line style="stroke:#A80036;stroke-width:1.5;" x1="324" x2="450" y1="637.8359" y2="637.8359"/><!--MD5=[09ce52be0ee7de43c61b6e2d59bf108b]
class Person--><rect codeLine="21" fill="#FEFECE" filter="url(#f1gbxeaz0msuq8)" height="61.8359" id="Person" style="stroke:#A80036;stroke-width:1.5;" width="93" x="152.5" y="447"/><ellipse cx="176.95" cy="463" fill="#ADD1B2" rx="11" ry="11" style="stroke:#A80036;stroke-width:1.0;"/><path d="M179.7156,458.875 Q179.8719,458.6563 180.0594,458.5469 Q180.2469,458.4375 180.4656,458.4375 Q180.8406,458.4375 181.075,458.6953 Q181.3094,458.9531 181.3094,459.5625 L181.3094,461.0156 Q181.3094,461.625 181.075,461.8906 Q180.8406,462.1563 180.4656,462.1563 Q180.1219,462.1563 179.9188,461.9531 Q179.7156,461.7656 179.6063,461.25 Q179.5594,460.8906 179.3719,460.7031 Q179.0438,460.3281 178.4344,460.1094 Q177.825,459.8906 177.2,459.8906 Q176.4344,459.8906 175.8016,460.2188 Q175.1688,460.5469 174.6766,461.2969 Q174.1844,462.0469 174.1844,463.0781 L174.1844,464.1719 Q174.1844,465.4063 175.075,466.2266 Q175.9656,467.0469 177.5594,467.0469 Q178.4969,467.0469 179.1531,466.7969 Q179.5438,466.6406 179.9656,466.2031 Q180.2313,465.9375 180.3797,465.8594 Q180.5281,465.7813 180.7313,465.7813 Q181.0594,465.7813 181.3172,466.0391 Q181.575,466.2969 181.575,466.6406 Q181.575,466.9844 181.2313,467.3906 Q180.7313,467.9688 179.9344,468.2969 Q178.8563,468.75 177.5594,468.75 Q176.0438,468.75 174.8406,468.125 Q173.8563,467.625 173.1688,466.5547 Q172.4813,465.4844 172.4813,464.2031 L172.4813,463.0469 Q172.4813,461.7188 173.0984,460.5703 Q173.7156,459.4219 174.8094,458.8047 Q175.9031,458.1875 177.1375,458.1875 Q177.8719,458.1875 178.5203,458.3516 Q179.1688,458.5156 179.7156,458.875 Z " fill="#000000"/><text fill="#000000" font-family="sans-serif" font-size="12" lengthAdjust="spacing" textLength="40" x="193.05" y="467.9102">Person</text><line style="stroke:#A80036;stroke-width:1.5;" x1="153.5" x2="244.5" y1="479" y2="479"/><text fill="#000000" font-family="sans-serif" font-size="11" lengthAdjust="spacing" textLength="81" x="158.5" y="494.4189">ORCID_iD orcidid</text><line style="stroke:#A80036;stroke-width:1.5;" x1="153.5" x2="244.5" y1="500.8359" y2="500.8359"/><!--MD5=[632a0a9f063c22bc9f1456509ebe931b]
class Person Name--><rect codeLine="24" fill="#FEFECE" filter="url(#f1gbxeaz0msuq8)" height="89.5078" id="Person Name" style="stroke:#A80036;stroke-width:1.5;" width="109" x="144.5" y="570"/><ellipse cx="159.5" cy="586" fill="#ADD1B2" rx="11" ry="11" style="stroke:#A80036;stroke-width:1.0;"/><path d="M162.2656,581.875 Q162.4219,581.6563 162.6094,581.5469 Q162.7969,581.4375 163.0156,581.4375 Q163.3906,581.4375 163.625,581.6953 Q163.8594,581.9531 163.8594,582.5625 L163.8594,584.0156 Q163.8594,584.625 163.625,584.8906 Q163.3906,585.1563 163.0156,585.1563 Q162.6719,585.1563 162.4688,584.9531 Q162.2656,584.7656 162.1563,584.25 Q162.1094,583.8906 161.9219,583.7031 Q161.5938,583.3281 160.9844,583.1094 Q160.375,582.8906 159.75,582.8906 Q158.9844,582.8906 158.3516,583.2188 Q157.7188,583.5469 157.2266,584.2969 Q156.7344,585.0469 156.7344,586.0781 L156.7344,587.1719 Q156.7344,588.4063 157.625,589.2266 Q158.5156,590.0469 160.1094,590.0469 Q161.0469,590.0469 161.7031,589.7969 Q162.0938,589.6406 162.5156,589.2031 Q162.7813,588.9375 162.9297,588.8594 Q163.0781,588.7813 163.2813,588.7813 Q163.6094,588.7813 163.8672,589.0391 Q164.125,589.2969 164.125,589.6406 Q164.125,589.9844 163.7813,590.3906 Q163.2813,590.9688 162.4844,591.2969 Q161.4063,591.75 160.1094,591.75 Q158.5938,591.75 157.3906,591.125 Q156.4063,590.625 155.7188,589.5547 Q155.0313,588.4844 155.0313,587.2031 L155.0313,586.0469 Q155.0313,584.7188 155.6484,583.5703 Q156.2656,582.4219 157.3594,581.8047 Q158.4531,581.1875 159.6875,581.1875 Q160.4219,581.1875 161.0703,581.3516 Q161.7188,581.5156 162.2656,581.875 Z " fill="#000000"/><text fill="#000000" font-family="sans-serif" font-size="12" lengthAdjust="spacing" textLength="77" x="173.5" y="590.9102">Person Name</text><line style="stroke:#A80036;stroke-width:1.5;" x1="145.5" x2="252.5" y1="602" y2="602"/><text fill="#000000" font-family="sans-serif" font-size="11" lengthAdjust="spacing" textLength="83" x="150.5" y="617.4189">String firstNames</text><text fill="#000000" font-family="sans-serif" font-size="11" lengthAdjust="spacing" textLength="92" x="150.5" y="631.2549">String familyNames</text><text fill="#000000" font-family="sans-serif" font-size="11" lengthAdjust="spacing" textLength="89" x="150.5" y="645.0908">String otherNames</text><line style="stroke:#A80036;stroke-width:1.5;" x1="145.5" x2="252.5" y1="651.5078" y2="651.5078"/><!--MD5=[3b25461e5df73ababc6765bb9b0c47d3]
class Authorship--><rect codeLine="30" fill="#FEFECE" filter="url(#f1gbxeaz0msuq8)" height="61.8359" id="Authorship" style="stroke:#A80036;stroke-width:1.5;" width="177" x="239.5" y="116"/><ellipse cx="294.25" cy="132" fill="#ADD1B2" rx="11" ry="11" style="stroke:#A80036;stroke-width:1.0;"/><path d="M297.0156,127.875 Q297.1719,127.6563 297.3594,127.5469 Q297.5469,127.4375 297.7656,127.4375 Q298.1406,127.4375 298.375,127.6953 Q298.6094,127.9531 298.6094,128.5625 L298.6094,130.0156 Q298.6094,130.625 298.375,130.8906 Q298.1406,131.1563 297.7656,131.1563 Q297.4219,131.1563 297.2188,130.9531 Q297.0156,130.7656 296.9063,130.25 Q296.8594,129.8906 296.6719,129.7031 Q296.3438,129.3281 295.7344,129.1094 Q295.125,128.8906 294.5,128.8906 Q293.7344,128.8906 293.1016,129.2188 Q292.4688,129.5469 291.9766,130.2969 Q291.4844,131.0469 291.4844,132.0781 L291.4844,133.1719 Q291.4844,134.4063 292.375,135.2266 Q293.2656,136.0469 294.8594,136.0469 Q295.7969,136.0469 296.4531,135.7969 Q296.8438,135.6406 297.2656,135.2031 Q297.5313,134.9375 297.6797,134.8594 Q297.8281,134.7813 298.0313,134.7813 Q298.3594,134.7813 298.6172,135.0391 Q298.875,135.2969 298.875,135.6406 Q298.875,135.9844 298.5313,136.3906 Q298.0313,136.9688 297.2344,137.2969 Q296.1563,137.75 294.8594,137.75 Q293.3438,137.75 292.1406,137.125 Q291.1563,136.625 290.4688,135.5547 Q289.7813,134.4844 289.7813,133.2031 L289.7813,132.0469 Q289.7813,130.7188 290.3984,129.5703 Q291.0156,128.4219 292.1094,127.8047 Q293.2031,127.1875 294.4375,127.1875 Q295.1719,127.1875 295.8203,127.3516 Q296.4688,127.5156 297.0156,127.875 Z " fill="#000000"/><text fill="#000000" font-family="sans-serif" font-size="12" lengthAdjust="spacing" textLength="59" x="314.75" y="136.9102">Authorship</text><line style="stroke:#A80036;stroke-width:1.5;" x1="240.5" x2="415.5" y1="148" y2="148"/><text fill="#000000" font-family="sans-serif" font-size="11" lengthAdjust="spacing" textLength="165" x="245.5" y="163.4189">Boolean correspondingAuthorFlag</text><line style="stroke:#A80036;stroke-width:1.5;" x1="240.5" x2="415.5" y1="169.8359" y2="169.8359"/><!--MD5=[b821bb113f9f55c728f1fbb8949cc3af]
class Contributorship--><rect codeLine="34" fill="#FEFECE" filter="url(#f1gbxeaz0msuq8)" height="75.6719" id="Contributorship" style="stroke:#A80036;stroke-width:1.5;" width="117" x="363.5" y="294"/><ellipse cx="378.5" cy="310" fill="#ADD1B2" rx="11" ry="11" style="stroke:#A80036;stroke-width:1.0;"/><path d="M381.2656,305.875 Q381.4219,305.6563 381.6094,305.5469 Q381.7969,305.4375 382.0156,305.4375 Q382.3906,305.4375 382.625,305.6953 Q382.8594,305.9531 382.8594,306.5625 L382.8594,308.0156 Q382.8594,308.625 382.625,308.8906 Q382.3906,309.1563 382.0156,309.1563 Q381.6719,309.1563 381.4688,308.9531 Q381.2656,308.7656 381.1563,308.25 Q381.1094,307.8906 380.9219,307.7031 Q380.5938,307.3281 379.9844,307.1094 Q379.375,306.8906 378.75,306.8906 Q377.9844,306.8906 377.3516,307.2188 Q376.7188,307.5469 376.2266,308.2969 Q375.7344,309.0469 375.7344,310.0781 L375.7344,311.1719 Q375.7344,312.4063 376.625,313.2266 Q377.5156,314.0469 379.1094,314.0469 Q380.0469,314.0469 380.7031,313.7969 Q381.0938,313.6406 381.5156,313.2031 Q381.7813,312.9375 381.9297,312.8594 Q382.0781,312.7813 382.2813,312.7813 Q382.6094,312.7813 382.8672,313.0391 Q383.125,313.2969 383.125,313.6406 Q383.125,313.9844 382.7813,314.3906 Q382.2813,314.9688 381.4844,315.2969 Q380.4063,315.75 379.1094,315.75 Q377.5938,315.75 376.3906,315.125 Q375.4063,314.625 374.7188,313.5547 Q374.0313,312.4844 374.0313,311.2031 L374.0313,310.0469 Q374.0313,308.7188 374.6484,307.5703 Q375.2656,306.4219 376.3594,305.8047 Q377.4531,305.1875 378.6875,305.1875 Q379.4219,305.1875 380.0703,305.3516 Q380.7188,305.5156 381.2656,305.875 Z " fill="#000000"/><text fill="#000000" font-family="sans-serif" font-size="12" lengthAdjust="spacing" textLength="85" x="392.5" y="314.9102">Contributorship</text><line style="stroke:#A80036;stroke-width:1.5;" x1="364.5" x2="479.5" y1="326" y2="326"/><text fill="#000000" font-family="sans-serif" font-size="11" lengthAdjust="spacing" textLength="90" x="369.5" y="341.4189">List&lt;URI&gt; contacts</text><text fill="#000000" font-family="sans-serif" font-size="11" lengthAdjust="spacing" textLength="92" x="369.5" y="355.2549">String displayName</text><line style="stroke:#A80036;stroke-width:1.5;" x1="364.5" x2="479.5" y1="361.6719" y2="361.6719"/><!--MD5=[f8f29aeb30962b8f0c17f3bed64bd579]
class Contribution Statement--><rect codeLine="38" fill="#FEFECE" filter="url(#f1gbxeaz0msuq8)" height="48" id="Contribution Statement" style="stroke:#A80036;stroke-width:1.5;" width="158" x="641" y="123"/><ellipse cx="656" cy="139" fill="#ADD1B2" rx="11" ry="11" style="stroke:#A80036;stroke-width:1.0;"/><path d="M658.7656,134.875 Q658.9219,134.6563 659.1094,134.5469 Q659.2969,134.4375 659.5156,134.4375 Q659.8906,134.4375 660.125,134.6953 Q660.3594,134.9531 660.3594,135.5625 L660.3594,137.0156 Q660.3594,137.625 660.125,137.8906 Q659.8906,138.1563 659.5156,138.1563 Q659.1719,138.1563 658.9688,137.9531 Q658.7656,137.7656 658.6563,137.25 Q658.6094,136.8906 658.4219,136.7031 Q658.0938,136.3281 657.4844,136.1094 Q656.875,135.8906 656.25,135.8906 Q655.4844,135.8906 654.8516,136.2188 Q654.2188,136.5469 653.7266,137.2969 Q653.2344,138.0469 653.2344,139.0781 L653.2344,140.1719 Q653.2344,141.4063 654.125,142.2266 Q655.0156,143.0469 656.6094,143.0469 Q657.5469,143.0469 658.2031,142.7969 Q658.5938,142.6406 659.0156,142.2031 Q659.2813,141.9375 659.4297,141.8594 Q659.5781,141.7813 659.7813,141.7813 Q660.1094,141.7813 660.3672,142.0391 Q660.625,142.2969 660.625,142.6406 Q660.625,142.9844 660.2813,143.3906 Q659.7813,143.9688 658.9844,144.2969 Q657.9063,144.75 656.6094,144.75 Q655.0938,144.75 653.8906,144.125 Q652.9063,143.625 652.2188,142.5547 Q651.5313,141.4844 651.5313,140.2031 L651.5313,139.0469 Q651.5313,137.7188 652.1484,136.5703 Q652.7656,135.4219 653.8594,134.8047 Q654.9531,134.1875 656.1875,134.1875 Q656.9219,134.1875 657.5703,134.3516 Q658.2188,134.5156 658.7656,134.875 Z " fill="#000000"/><text fill="#000000" font-family="sans-serif" font-size="12" lengthAdjust="spacing" textLength="126" x="670" y="143.9102">Contribution Statement</text><line style="stroke:#A80036;stroke-width:1.5;" x1="642" x2="798" y1="155" y2="155"/><line style="stroke:#A80036;stroke-width:1.5;" x1="642" x2="798" y1="163" y2="163"/><!--MD5=[3f6954d26e8fa8feef64f8ba628c4304]
class Free Text Contribution--><rect codeLine="40" fill="#FEFECE" filter="url(#f1gbxeaz0msuq8)" height="61.8359" id="Free Text Contribution" style="stroke:#A80036;stroke-width:1.5;" width="152" x="667" y="301"/><ellipse cx="682" cy="317" fill="#ADD1B2" rx="11" ry="11" style="stroke:#A80036;stroke-width:1.0;"/><path d="M684.7656,312.875 Q684.9219,312.6563 685.1094,312.5469 Q685.2969,312.4375 685.5156,312.4375 Q685.8906,312.4375 686.125,312.6953 Q686.3594,312.9531 686.3594,313.5625 L686.3594,315.0156 Q686.3594,315.625 686.125,315.8906 Q685.8906,316.1563 685.5156,316.1563 Q685.1719,316.1563 684.9688,315.9531 Q684.7656,315.7656 684.6563,315.25 Q684.6094,314.8906 684.4219,314.7031 Q684.0938,314.3281 683.4844,314.1094 Q682.875,313.8906 682.25,313.8906 Q681.4844,313.8906 680.8516,314.2188 Q680.2188,314.5469 679.7266,315.2969 Q679.2344,316.0469 679.2344,317.0781 L679.2344,318.1719 Q679.2344,319.4063 680.125,320.2266 Q681.0156,321.0469 682.6094,321.0469 Q683.5469,321.0469 684.2031,320.7969 Q684.5938,320.6406 685.0156,320.2031 Q685.2813,319.9375 685.4297,319.8594 Q685.5781,319.7813 685.7813,319.7813 Q686.1094,319.7813 686.3672,320.0391 Q686.625,320.2969 686.625,320.6406 Q686.625,320.9844 686.2813,321.3906 Q685.7813,321.9688 684.9844,322.2969 Q683.9063,322.75 682.6094,322.75 Q681.0938,322.75 679.8906,322.125 Q678.9063,321.625 678.2188,320.5547 Q677.5313,319.4844 677.5313,318.2031 L677.5313,317.0469 Q677.5313,315.7188 678.1484,314.5703 Q678.7656,313.4219 679.8594,312.8047 Q680.9531,312.1875 682.1875,312.1875 Q682.9219,312.1875 683.5703,312.3516 Q684.2188,312.5156 684.7656,312.875 Z " fill="#000000"/><text fill="#000000" font-family="sans-serif" font-size="12" lengthAdjust="spacing" textLength="120" x="696" y="321.9102">Free Text Contribution</text><line style="stroke:#A80036;stroke-width:1.5;" x1="668" x2="818" y1="333" y2="333"/><text fill="#000000" font-family="sans-serif" font-size="11" lengthAdjust="spacing" textLength="135" x="673" y="348.4189">Multilingual_String statement</text><line style="stroke:#A80036;stroke-width:1.5;" x1="668" x2="818" y1="354.8359" y2="354.8359"/><!--MD5=[819e4821c75d866d91a46af0ea8026f8]
class Affiliation Statement--><rect codeLine="43" fill="#FEFECE" filter="url(#f1gbxeaz0msuq8)" height="61.8359" id="Affiliation Statement" style="stroke:#A80036;stroke-width:1.5;" width="140" x="352" y="447"/><ellipse cx="367" cy="463" fill="#ADD1B2" rx="11" ry="11" style="stroke:#A80036;stroke-width:1.0;"/><path d="M369.7656,458.875 Q369.9219,458.6563 370.1094,458.5469 Q370.2969,458.4375 370.5156,458.4375 Q370.8906,458.4375 371.125,458.6953 Q371.3594,458.9531 371.3594,459.5625 L371.3594,461.0156 Q371.3594,461.625 371.125,461.8906 Q370.8906,462.1563 370.5156,462.1563 Q370.1719,462.1563 369.9688,461.9531 Q369.7656,461.7656 369.6563,461.25 Q369.6094,460.8906 369.4219,460.7031 Q369.0938,460.3281 368.4844,460.1094 Q367.875,459.8906 367.25,459.8906 Q366.4844,459.8906 365.8516,460.2188 Q365.2188,460.5469 364.7266,461.2969 Q364.2344,462.0469 364.2344,463.0781 L364.2344,464.1719 Q364.2344,465.4063 365.125,466.2266 Q366.0156,467.0469 367.6094,467.0469 Q368.5469,467.0469 369.2031,466.7969 Q369.5938,466.6406 370.0156,466.2031 Q370.2813,465.9375 370.4297,465.8594 Q370.5781,465.7813 370.7813,465.7813 Q371.1094,465.7813 371.3672,466.0391 Q371.625,466.2969 371.625,466.6406 Q371.625,466.9844 371.2813,467.3906 Q370.7813,467.9688 369.9844,468.2969 Q368.9063,468.75 367.6094,468.75 Q366.0938,468.75 364.8906,468.125 Q363.9063,467.625 363.2188,466.5547 Q362.5313,465.4844 362.5313,464.2031 L362.5313,463.0469 Q362.5313,461.7188 363.1484,460.5703 Q363.7656,459.4219 364.8594,458.8047 Q365.9531,458.1875 367.1875,458.1875 Q367.9219,458.1875 368.5703,458.3516 Q369.2188,458.5156 369.7656,458.875 Z " fill="#000000"/><text fill="#000000" font-family="sans-serif" font-size="12" lengthAdjust="spacing" textLength="108" x="381" y="467.9102">Affiliation Statement</text><line style="stroke:#A80036;stroke-width:1.5;" x1="353" x2="491" y1="479" y2="479"/><text fill="#000000" font-family="sans-serif" font-size="11" lengthAdjust="spacing" textLength="110" x="358" y="494.4189">String displayAffiliation</text><line style="stroke:#A80036;stroke-width:1.5;" x1="353" x2="491" y1="500.8359" y2="500.8359"/><!--MD5=[5b6d5f043b17cf3ce8a453f9008bb166]
class Postal Address--><rect codeLine="46" fill="#FEFECE" filter="url(#f1gbxeaz0msuq8)" height="89.5078" id="Postal Address" style="stroke:#A80036;stroke-width:1.5;" width="116" x="486" y="570"/><ellipse cx="501" cy="586" fill="#ADD1B2" rx="11" ry="11" style="stroke:#A80036;stroke-width:1.0;"/><path d="M503.7656,581.875 Q503.9219,581.6563 504.1094,581.5469 Q504.2969,581.4375 504.5156,581.4375 Q504.8906,581.4375 505.125,581.6953 Q505.3594,581.9531 505.3594,582.5625 L505.3594,584.0156 Q505.3594,584.625 505.125,584.8906 Q504.8906,585.1563 504.5156,585.1563 Q504.1719,585.1563 503.9688,584.9531 Q503.7656,584.7656 503.6563,584.25 Q503.6094,583.8906 503.4219,583.7031 Q503.0938,583.3281 502.4844,583.1094 Q501.875,582.8906 501.25,582.8906 Q500.4844,582.8906 499.8516,583.2188 Q499.2188,583.5469 498.7266,584.2969 Q498.2344,585.0469 498.2344,586.0781 L498.2344,587.1719 Q498.2344,588.4063 499.125,589.2266 Q500.0156,590.0469 501.6094,590.0469 Q502.5469,590.0469 503.2031,589.7969 Q503.5938,589.6406 504.0156,589.2031 Q504.2813,588.9375 504.4297,588.8594 Q504.5781,588.7813 504.7813,588.7813 Q505.1094,588.7813 505.3672,589.0391 Q505.625,589.2969 505.625,589.6406 Q505.625,589.9844 505.2813,590.3906 Q504.7813,590.9688 503.9844,591.2969 Q502.9063,591.75 501.6094,591.75 Q500.0938,591.75 498.8906,591.125 Q497.9063,590.625 497.2188,589.5547 Q496.5313,588.4844 496.5313,587.2031 L496.5313,586.0469 Q496.5313,584.7188 497.1484,583.5703 Q497.7656,582.4219 498.8594,581.8047 Q499.9531,581.1875 501.1875,581.1875 Q501.9219,581.1875 502.5703,581.3516 Q503.2188,581.5156 503.7656,581.875 Z " fill="#000000"/><text fill="#000000" font-family="sans-serif" font-size="12" lengthAdjust="spacing" textLength="84" x="515" y="590.9102">Postal Address</text><line style="stroke:#A80036;stroke-width:1.5;" x1="487" x2="601" y1="602" y2="602"/><text fill="#000000" font-family="sans-serif" font-size="11" lengthAdjust="spacing" textLength="59" x="492" y="617.4189">String street</text><text fill="#000000" font-family="sans-serif" font-size="11" lengthAdjust="spacing" textLength="48" x="492" y="631.2549">String city</text><text fill="#000000" font-family="sans-serif" font-size="11" lengthAdjust="spacing" textLength="70" x="492" y="645.0908">String zipCode</text><line style="stroke:#A80036;stroke-width:1.5;" x1="487" x2="601" y1="651.5078" y2="651.5078"/><!--MD5=[deb4e1f6eb1e3c1256fdb830f96abfbb]
class Country--><rect codeLine="51" fill="#FEFECE" filter="url(#f1gbxeaz0msuq8)" height="103.3438" id="Country" style="stroke:#A80036;stroke-width:1.5;" width="234" x="427" y="721"/><ellipse cx="518.75" cy="737" fill="#ADD1B2" rx="11" ry="11" style="stroke:#A80036;stroke-width:1.0;"/><path d="M521.5156,732.875 Q521.6719,732.6563 521.8594,732.5469 Q522.0469,732.4375 522.2656,732.4375 Q522.6406,732.4375 522.875,732.6953 Q523.1094,732.9531 523.1094,733.5625 L523.1094,735.0156 Q523.1094,735.625 522.875,735.8906 Q522.6406,736.1563 522.2656,736.1563 Q521.9219,736.1563 521.7188,735.9531 Q521.5156,735.7656 521.4063,735.25 Q521.3594,734.8906 521.1719,734.7031 Q520.8438,734.3281 520.2344,734.1094 Q519.625,733.8906 519,733.8906 Q518.2344,733.8906 517.6016,734.2188 Q516.9688,734.5469 516.4766,735.2969 Q515.9844,736.0469 515.9844,737.0781 L515.9844,738.1719 Q515.9844,739.4063 516.875,740.2266 Q517.7656,741.0469 519.3594,741.0469 Q520.2969,741.0469 520.9531,740.7969 Q521.3438,740.6406 521.7656,740.2031 Q522.0313,739.9375 522.1797,739.8594 Q522.3281,739.7813 522.5313,739.7813 Q522.8594,739.7813 523.1172,740.0391 Q523.375,740.2969 523.375,740.6406 Q523.375,740.9844 523.0313,741.3906 Q522.5313,741.9688 521.7344,742.2969 Q520.6563,742.75 519.3594,742.75 Q517.8438,742.75 516.6406,742.125 Q515.6563,741.625 514.9688,740.5547 Q514.2813,739.4844 514.2813,738.2031 L514.2813,737.0469 Q514.2813,735.7188 514.8984,734.5703 Q515.5156,733.4219 516.6094,732.8047 Q517.7031,732.1875 518.9375,732.1875 Q519.6719,732.1875 520.3203,732.3516 Q520.9688,732.5156 521.5156,732.875 Z " fill="#000000"/><text fill="#000000" font-family="sans-serif" font-size="12" lengthAdjust="spacing" textLength="42" x="539.25" y="741.9102">Country</text><line style="stroke:#A80036;stroke-width:1.5;" x1="428" x2="660" y1="753" y2="753"/><text fill="#000000" font-family="sans-serif" font-size="11" lengthAdjust="spacing" textLength="114" x="433" y="768.4189">Multilingual_String name</text><text fill="#000000" font-family="sans-serif" font-size="11" lengthAdjust="spacing" textLength="198" x="433" y="782.2549">ISO3166_Alpha_Code iso3166alphaCode</text><text fill="#000000" font-family="sans-serif" font-size="11" lengthAdjust="spacing" textLength="222" x="433" y="796.0908">ISO3166_Numeric_Code iso3166NumericCode</text><text fill="#000000" font-family="sans-serif" font-size="11" lengthAdjust="spacing" textLength="166" x="433" y="809.9268">EU_Country_Code euCountryCode</text><line style="stroke:#A80036;stroke-width:1.5;" x1="428" x2="660" y1="816.3438" y2="816.3438"/><path d="M6,278 L6,386.1094 A0,0 0 0 0 6,386.1094 L230,386.1094 A0,0 0 0 0 230,386.1094 L230,336 L265.44,332 L230,328 L230,288 L220,278 L6,278 A0,0 0 0 0 6,278 " fill="#FBFB77" filter="url(#f1gbxeaz0msuq8)" style="stroke:#A80036;stroke-width:1.0;"/><path d="M220,278 L220,288 L230,288 L220,278 " fill="#FBFB77" style="stroke:#A80036;stroke-width:1.0;"/><text fill="#000000" font-family="sans-serif" font-size="13" lengthAdjust="spacing" textLength="199" x="12" y="296.4951">The Agent is mandatory for almost</text><text fill="#000000" font-family="sans-serif" font-size="13" lengthAdjust="spacing" textLength="192" x="12" y="312.8467">all subclasses of Contributorship,</text><text fill="#000000" font-family="sans-serif" font-size="13" lengthAdjust="spacing" textLength="185" x="12" y="329.1982">Reviewing is the exception if the</text><text fill="#000000" font-family="sans-serif" font-size="13" lengthAdjust="spacing" textLength="182" x="12" y="345.5498">reviewer's identity is concealed.</text><text fill="#000000" font-family="sans-serif" font-size="13" lengthAdjust="spacing" textLength="167" x="12" y="361.9014">Also useful when authors are</text><text fill="#000000" font-family="sans-serif" font-size="13" lengthAdjust="spacing" textLength="113" x="12" y="378.2529">using pseudonyms.</text><!--MD5=[f88c115e3130e3b4ff5649ba9e133055]
reverse link Postal Address to Country--><path codeLine="60" d="M544,673.46 C544,689.03 544,705.77 544,720.94 " fill="none" id="Postal Address-backto-Country" style="stroke:#A80036;stroke-width:1.0;"/><polygon fill="#A80036" points="544,660.14,540,666.14,544,672.14,548,666.14,544,660.14" style="stroke:#A80036;stroke-width:1.0;"/><text fill="#000000" font-family="sans-serif" font-size="13" lengthAdjust="spacing" textLength="43" x="497.9766" y="710.06">country</text><!--MD5=[8528c0d5784524a7ac31969edc457096]
reverse link Affiliation Statement to Postal Address--><path codeLine="61" d="M458.49,519.38 C472.9,535.32 489.5,553.69 504.21,569.97 " fill="none" id="Affiliation Statement-backto-Postal Address" style="stroke:#A80036;stroke-width:1.0;"/><polygon fill="#A80036" points="449.38,509.3,450.4352,516.4335,457.4258,518.2031,456.3706,511.0696,449.38,509.3" style="stroke:#A80036;stroke-width:1.0;"/><text fill="#000000" font-family="sans-serif" font-size="13" lengthAdjust="spacing" textLength="83" x="504.4825" y="559.0807">postalAddress</text><!--MD5=[4904fd3a26b4d7fe956968cf0a0d8a9b]
reverse link Affiliation Statement to Organisation Unit--><path codeLine="62" d="M398.99,521.66 C392.39,541.86 386.64,565.5 384,583.8 " fill="none" id="Affiliation Statement-backto-Organisation Unit" style="stroke:#A80036;stroke-width:1.0;"/><polygon fill="#A80036" points="403.3,509.3,397.5454,513.6456,399.3434,520.629,405.098,516.2833,403.3,509.3" style="stroke:#A80036;stroke-width:1.0;"/><text fill="#000000" font-family="sans-serif" font-size="13" lengthAdjust="spacing" textLength="41" x="338.1531" y="573.2633">orgUnit</text><!--MD5=[4904fd3a26b4d7fe956968cf0a0d8a9b]
reverse link Affiliation Statement to Organisation Unit--><path codeLine="63" d="M423.48,522.24 C419.67,542.3 413.21,565.67 406.3,583.8 " fill="none" id="Affiliation Statement-backto-Organisation Unit-1" style="stroke:#A80036;stroke-width:1.0;"/><polygon fill="#A80036" points="425.63,509.3,420.7018,514.5643,423.6658,521.1381,428.5939,515.8738,425.63,509.3" style="stroke:#A80036;stroke-width:1.0;"/><text fill="#000000" font-family="sans-serif" font-size="13" lengthAdjust="spacing" textLength="56" x="416.0556" y="573.2633">institution</text><!--MD5=[1e703325bca9787769503a051e7183a5]
reverse link Contribution Statement to Free Text Contribution--><path codeLine="64" d="M725.44,191.26 C729.67,224.96 735.44,270.87 739.19,300.72 " fill="none" id="Contribution Statement-backto-Free Text Contribution" style="stroke:#A80036;stroke-width:1.0;"/><polygon fill="none" points="718.46,191.89,722.91,171.18,732.35,190.15,718.46,191.89" style="stroke:#A80036;stroke-width:1.0;"/><!--MD5=[1f014480a3afa8c0325c3be3fbf7ad6f]
link Contributorship to Document--><path codeLine="65" d="M480.78,332 C488.06,332 495.35,332 502.63,332 " fill="none" id="Contributorship-to-Document" style="stroke:#A80036;stroke-width:1.0;"/><polygon fill="#A80036" points="515.74,332,509.74,328,503.74,332,509.74,336,515.74,332" style="stroke:#A80036;stroke-width:1.0;"/><!--MD5=[504de05de5dc33320621ff1be2e6e6ff]
reverse link Agent to Contributorship--><path codeLine="66" d="M341.99,332 C349.11,332 356.23,332 363.35,332 " fill="none" id="Agent-backto-Contributorship" style="stroke:#A80036;stroke-width:1.0;"/><polygon fill="#A80036" points="328.74,332,334.74,336,340.74,332,334.74,328,328.74,332" style="stroke:#A80036;stroke-width:1.0;"/><!--MD5=[4629ab2f8b8cc60994d50cb24184a136]
reverse link Contributorship to Affiliation Statement--><path codeLine="67" d="M422,383.19 C422,404.41 422,428.41 422,446.83 " fill="none" id="Contributorship-backto-Affiliation Statement" style="stroke:#A80036;stroke-width:1.0;"/><polygon fill="#FFFFFF" points="422,370.08,418,376.08,422,382.08,426,376.08,422,370.08" style="stroke:#A80036;stroke-width:1.0;"/><text fill="#000000" font-family="sans-serif" font-size="13" lengthAdjust="spacing" textLength="57" x="359.1219" y="436.2995">affiliations</text><!--MD5=[87dce73954b4196bb1c032bbee886bf4]
link Contribution Statement to Contributorship--><path codeLine="68" d="M678.5,171 C633.45,196.27 559.69,238.51 498,278 C493.7,280.75 489.3,283.63 484.89,286.57 " fill="none" id="Contribution Statement-to-Contributorship" style="stroke:#A80036;stroke-width:1.0;"/><polygon fill="#FFFFFF" points="473.96,293.96,481.171,293.9182,483.9059,287.2459,476.6949,287.2876,473.96,293.96" style="stroke:#A80036;stroke-width:1.0;"/><text fill="#000000" font-family="sans-serif" font-size="13" lengthAdjust="spacing" textLength="134" x="567.1338" y="192.5256">contributionStatements</text><!--MD5=[515627370d950159b283430218e15046]
link Authorship to Textual Document--><path codeLine="70" d="M416.59,147 C423.69,147 430.8,147 437.9,147 " fill="none" id="Authorship-to-Textual Document" style="stroke:#A80036;stroke-width:1.0;"/><polygon fill="#A80036" points="451.11,147,445.11,143,439.11,147,445.11,151,451.11,147" style="stroke:#A80036;stroke-width:1.0;"/><!--MD5=[e74e4958a1d7eb99db8e977d8859ba66]
link Authorship to Contributorship--><path codeLine="71" d="M398.9,178.28 C410.16,186.28 420.29,196.09 427,208 C438.09,227.69 439.17,252.09 436.61,273.95 " fill="none" id="Authorship-to-Contributorship" style="stroke:#A80036;stroke-width:1.0;"/><polygon fill="none" points="443.47,275.34,433.25,293.9,429.67,273.02,443.47,275.34" style="stroke:#A80036;stroke-width:1.0;"/><!--MD5=[49125a4ba45432b051dcbcd9e53401d7]
link Authorship to Agent--><path codeLine="72" d="M287.98,178.22 C279.46,186.82 271.65,196.9 267,208 C253.88,239.3 267.5,277.58 280.37,303.04 " fill="none" id="Authorship-to-Agent" style="stroke:#A80036;stroke-width:1.0;"/><polygon fill="#A80036" points="282.76,307.64,282.1617,297.8093,280.4555,303.2027,275.0621,301.4965,282.76,307.64" style="stroke:#A80036;stroke-width:1.0;"/><path d="M272,213 L272,239 L414,239 L414,223 L404,213 L272,213 " fill="#FF0000" filter="url(#f1gbxeaz0msuq8)" style="stroke:#A80036;stroke-width:1.0;"/><path d="M404,213 L404,223 L414,223 L404,213 " fill="#FF0000" style="stroke:#A80036;stroke-width:1.0;"/><text fill="#000000" font-family="sans-serif" font-size="13" lengthAdjust="spacing" textLength="121" x="278" y="231.4951">author == contributor</text><text fill="#000000" font-family="sans-serif" font-size="13" lengthAdjust="spacing" textLength="36" x="238.9015" y="297.2902">author</text><!--MD5=[9a7235b84334665fcda294365fcaf4f5]
reverse link Person to Person Name--><path codeLine="75" d="M199,522.6 C199,537.76 199,554.77 199,569.97 " fill="none" id="Person-backto-Person Name" style="stroke:#A80036;stroke-width:1.0;"/><polygon fill="#FFFFFF" points="199,509.3,195,515.3,199,521.3,203,515.3,199,509.3" style="stroke:#A80036;stroke-width:1.0;"/><text fill="#000000" font-family="sans-serif" font-size="13" lengthAdjust="spacing" textLength="39" x="156.8922" y="559.0807">names</text><!--MD5=[de96f77e660762cb21a195b4097c3876]
reverse link Agent to Person--><path codeLine="76" d="M269.97,372.72 C254.01,396.17 234.13,425.38 219.48,446.91 " fill="none" id="Agent-backto-Person" style="stroke:#A80036;stroke-width:1.0;"/><polygon fill="none" points="264.22,368.73,281.25,356.14,275.79,376.61,264.22,368.73" style="stroke:#A80036;stroke-width:1.0;"/><!--MD5=[58a58d00e9270883bf92cdf281f32c1a]
reverse link Agent to Organisation Unit--><path codeLine="77" d="M302.82,375.93 C308.48,412.1 318.52,464.85 334,509 C343.19,535.21 357.57,563.2 369.04,583.69 " fill="none" id="Agent-backto-Organisation Unit" style="stroke:#A80036;stroke-width:1.0;"/><polygon fill="none" points="295.88,376.83,299.89,356.02,309.73,374.78,295.88,376.83" style="stroke:#A80036;stroke-width:1.0;"/><!--MD5=[0cd4e18d651655357be10210466ee4fc]
link Textual Document to Document--><path codeLine="79" d="M524.22,171.18 C531.72,195.26 543.8,234.03 554.17,267.34 " fill="none" id="Textual Document-to-Document" style="stroke:#A80036;stroke-width:1.0;"/><polygon fill="none" points="560.93,265.51,560.2,286.69,547.57,269.68,560.93,265.51" style="stroke:#A80036;stroke-width:1.0;"/><!--MD5=[467b17589d7b3ec09474af6cf2c3322d]
link Textual Document Accessibility Specification to Textual Document--><path codeLine="80" d="M517,55.07 C517,70.75 517,91.83 517,109.74 " fill="none" id="Textual Document Accessibility Specification-to-Textual Document" style="stroke:#A80036;stroke-width:1.0;"/><polygon fill="#A80036" points="517,122.96,521,116.96,517,110.96,513,116.96,517,122.96" style="stroke:#A80036;stroke-width:1.0;"/><text fill="#000000" font-family="sans-serif" font-size="13" lengthAdjust="spacing" textLength="79" x="428.3719" y="76.425">accessRights</text><!--MD5=[d5a6c053a39d24fd07d740a282fdedf6]
reverse link Textual Document to Agent--><path codeLine="81" d="M494.76,182.02 C479.17,203.53 456.59,230.5 431,248 C397.93,270.62 379.47,255.98 346,278 C333.86,285.99 322.66,297.62 314.04,307.95 " fill="none" id="Textual Document-backto-Agent" style="stroke:#A80036;stroke-width:1.0;"/><polygon fill="#A80036" points="502.26,171.34,495.5371,173.9482,495.359,181.1571,502.0819,178.5489,502.26,171.34" style="stroke:#A80036;stroke-width:1.0;"/><text fill="#000000" font-family="sans-serif" font-size="13" lengthAdjust="spacing" textLength="43" x="312.6676" y="291.4203">authors</text><!--MD5=[b54186f4c22d62e2201821c08e2e7503]
@startuml


    !startsub Contributorship
    class "Document"{
        Multilingual_String title
        Date publicationDate
        DOI_Type DOI
    }
    !endsub
    class "Textual Document"{
    }
    class "Textual Document Accessibility Specification"{
    }
    !startsub Agent
    class "Agent"{

    }
    class "Organisation Unit"{
        Multilingual_String name
    }
    class "Person"{
        ORCID_iD orcidid
    }
    class "Person Name"{
        String firstNames
        String familyNames
        String otherNames
    }
    !endsub
    class "Authorship"{
        Boolean correspondingAuthorFlag
    }
    !startsub Contributorship
    class "Contributorship"{
        List<URI> contacts
        String displayName
    }
    class "Contribution Statement"{
    }
    class "Free Text Contribution"{
        Multilingual_String statement
    }
    class "Affiliation Statement"{
        String displayAffiliation
    }
    class "Postal Address"{
        String street
        String city
        String zipCode
    }
    class "Country"{
        Multilingual_String name
        ISO3166_Alpha_Code iso3166alphaCode
        ISO3166_Numeric_Code iso3166NumericCode
        EU_Country_Code euCountryCode
    }
    !endsub

!startsub Contributorship
"Postal Address" *- - "country" "Country"
"Affiliation Statement" *- - "postalAddress" "Postal Address"
"Affiliation Statement" *- - "orgUnit" "Organisation Unit"
"Affiliation Statement" *- - "institution" "Organisation Unit"
"Contribution Statement" <|- - "Free Text Contribution"
"Contributorship" -r-* "Document"
"Contributorship" -l-* "Agent"
"Contributorship" o- - "affiliations" "Affiliation Statement"
"Contributorship" o-u- "contributionStatements" "Contribution Statement"
!endsub
"Authorship" -r-* "Textual Document"
"Contributorship" <|-u- "Authorship"
"Authorship" - -> "author" "Agent"
note on link #red: author == contributor
!startsub Agent
"Person" o-d- "names" "Person Name"
"Agent" <|-d- "Person"
"Agent" <|-d- "Organisation Unit"
!endsub
"Document" <|-u- "Textual Document"
"Textual Document" *-u- "accessRights" "Textual Document Accessibility Specification"
"Textual Document" *- -  "authors" "Agent"

note left of Agent: The Agent is mandatory for almost \nall subclasses of Contributorship,\nReviewing is the exception if the \nreviewer's identity is concealed. \nAlso useful when authors are \nusing pseudonyms.
@enduml

@startuml


    class "Document"{
        Multilingual_String title
        Date publicationDate
        DOI_Type DOI
    }
    class "Textual Document"{
    }
    class "Textual Document Accessibility Specification"{
    }
    class "Agent"{

    }
    class "Organisation Unit"{
        Multilingual_String name
    }
    class "Person"{
        ORCID_iD orcidid
    }
    class "Person Name"{
        String firstNames
        String familyNames
        String otherNames
    }
    class "Authorship"{
        Boolean correspondingAuthorFlag
    }
    class "Contributorship"{
        List<URI> contacts
        String displayName
    }
    class "Contribution Statement"{
    }
    class "Free Text Contribution"{
        Multilingual_String statement
    }
    class "Affiliation Statement"{
        String displayAffiliation
    }
    class "Postal Address"{
        String street
        String city
        String zipCode
    }
    class "Country"{
        Multilingual_String name
        ISO3166_Alpha_Code iso3166alphaCode
        ISO3166_Numeric_Code iso3166NumericCode
        EU_Country_Code euCountryCode
    }

"Postal Address" *- - "country" "Country"
"Affiliation Statement" *- - "postalAddress" "Postal Address"
"Affiliation Statement" *- - "orgUnit" "Organisation Unit"
"Affiliation Statement" *- - "institution" "Organisation Unit"
"Contribution Statement" <|- - "Free Text Contribution"
"Contributorship" -r-* "Document"
"Contributorship" -l-* "Agent"
"Contributorship" o- - "affiliations" "Affiliation Statement"
"Contributorship" o-u- "contributionStatements" "Contribution Statement"
"Authorship" -r-* "Textual Document"
"Contributorship" <|-u- "Authorship"
"Authorship" - -> "author" "Agent"
note on link #red: author == contributor
"Person" o-d- "names" "Person Name"
"Agent" <|-d- "Person"
"Agent" <|-d- "Organisation Unit"
"Document" <|-u- "Textual Document"
"Textual Document" *-u- "accessRights" "Textual Document Accessibility Specification"
"Textual Document" *- -  "authors" "Agent"

note left of Agent: The Agent is mandatory for almost \nall subclasses of Contributorship,\nReviewing is the exception if the \nreviewer's identity is concealed. \nAlso useful when authors are \nusing pseudonyms.
@enduml

PlantUML version 1.2021.8(Sat Jun 26 10:20:59 CEST 2021)
(GPL source distribution)
Java Runtime: Java(TM) SE Runtime Environment
JVM: Java HotSpot(TM) 64-Bit Server VM
Default Encoding: Cp1252
Language: en
Country: US
--></g></svg>