<?xml version="1.0" encoding="UTF-8" standalone="no"?><svg xmlns="http://www.w3.org/2000/svg" xmlns:xlink="http://www.w3.org/1999/xlink" contentScriptType="application/ecmascript" contentStyleType="text/css" height="889px" preserveAspectRatio="none" style="width:919px;height:889px;background:#FFFFFF;" version="1.1" viewBox="0 0 919 889" width="919px" zoomAndPan="magnify"><defs><filter height="300%" id="fpy6pyopf692v" width="300%" x="-1" y="-1"><feGaussianBlur result="blurOut" stdDeviation="2.0"/><feColorMatrix in="blurOut" result="blurOut2" type="matrix" values="0 0 0 0 0 0 0 0 0 0 0 0 0 0 0 0 0 0 .4 0"/><feOffset dx="4.0" dy="4.0" in="blurOut2" result="blurOut3"/><feBlend in="SourceGraphic" in2="blurOut3" mode="normal"/></filter></defs><g><!--MD5=[59b530d44ae785dc18db921986a9c15c]
class Document--><rect codeLine="8" fill="#FEFECE" filter="url(#fpy6pyopf692v)" height="78.8652" id="Document" style="stroke:#A80036;stroke-width:1.5;" width="141" x="460" y="182.8824"/><ellipse cx="497.95" cy="198.8824" fill="#ADD1B2" rx="11" ry="11" style="stroke:#A80036;stroke-width:1.0;"/><path d="M500.4231,205.0254 Q499.8421,205.3243 499.2029,205.4737 Q498.5638,205.6231 497.8582,205.6231 Q495.3514,205.6231 494.0315,203.9712 Q492.7117,202.3194 492.7117,199.1983 Q492.7117,196.0689 494.0315,194.417 Q495.3514,192.7652 497.8582,192.7652 Q498.5638,192.7652 499.2112,192.9146 Q499.8587,193.064 500.4231,193.3628 L500.4231,196.0855 Q499.7923,195.5044 499.1988,195.2347 Q498.6053,194.9649 497.9744,194.9649 Q496.6297,194.9649 495.9449,196.0315 Q495.2601,197.0982 495.2601,199.1983 Q495.2601,201.2901 495.9449,202.3567 Q496.6297,203.4234 497.9744,203.4234 Q498.6053,203.4234 499.1988,203.1536 Q499.7923,202.8838 500.4231,202.3028 Z " fill="#000000"/><text fill="#000000" font-family="sans-serif" font-size="12" lengthAdjust="spacing" textLength="58" x="517.05" y="203.4175">Document</text><line style="stroke:#A80036;stroke-width:1.5;" x1="461" x2="600" y1="214.8824" y2="214.8824"/><text fill="#000000" font-family="sans-serif" font-size="11" lengthAdjust="spacing" textLength="129" x="466" y="229.5171">title : Multilingual_String</text><text fill="#000000" font-family="sans-serif" font-size="11" lengthAdjust="spacing" textLength="117" x="466" y="242.4722">publicationDate : Date</text><text fill="#000000" font-family="sans-serif" font-size="11" lengthAdjust="spacing" textLength="46" x="466" y="255.4273">doi : DOI</text><!--MD5=[fe105c2ee1fabf2400c31a97ce9128bc]
class Textual_Document--><rect codeLine="14" fill="#FEFECE" filter="url(#fpy6pyopf692v)" height="32" id="Textual_Document" style="stroke:#A80036;stroke-width:1.5;" width="139" x="440" y="19.3824"/><ellipse cx="455" cy="35.3824" fill="#ADD1B2" rx="11" ry="11" style="stroke:#A80036;stroke-width:1.0;"/><path d="M457.4731,41.5254 Q456.8921,41.8243 456.2529,41.9737 Q455.6138,42.1231 454.9082,42.1231 Q452.4014,42.1231 451.0815,40.4712 Q449.7617,38.8194 449.7617,35.6983 Q449.7617,32.5689 451.0815,30.917 Q452.4014,29.2652 454.9082,29.2652 Q455.6138,29.2652 456.2612,29.4146 Q456.9087,29.564 457.4731,29.8628 L457.4731,32.5855 Q456.8423,32.0044 456.2488,31.7347 Q455.6553,31.4649 455.0244,31.4649 Q453.6797,31.4649 452.9949,32.5315 Q452.3101,33.5982 452.3101,35.6983 Q452.3101,37.7901 452.9949,38.8567 Q453.6797,39.9234 455.0244,39.9234 Q455.6553,39.9234 456.2488,39.6536 Q456.8423,39.3838 457.4731,38.8028 Z " fill="#000000"/><text fill="#000000" font-family="sans-serif" font-size="12" lengthAdjust="spacing" textLength="107" x="469" y="39.9175">Textual_Document</text><!--MD5=[152f153d79baedb26b20a34b9b1b571f]
class Textual_Document_Accessibility_Specification--><rect codeLine="16" fill="#FEFECE" filter="url(#fpy6pyopf692v)" height="32" id="Textual_Document_Accessibility_Specification" style="stroke:#A80036;stroke-width:1.5;" width="291" x="614" y="19.3824"/><ellipse cx="629" cy="35.3824" fill="#ADD1B2" rx="11" ry="11" style="stroke:#A80036;stroke-width:1.0;"/><path d="M631.4731,41.5254 Q630.8921,41.8243 630.2529,41.9737 Q629.6138,42.1231 628.9082,42.1231 Q626.4014,42.1231 625.0815,40.4712 Q623.7617,38.8194 623.7617,35.6983 Q623.7617,32.5689 625.0815,30.917 Q626.4014,29.2652 628.9082,29.2652 Q629.6138,29.2652 630.2612,29.4146 Q630.9087,29.564 631.4731,29.8628 L631.4731,32.5855 Q630.8423,32.0044 630.2488,31.7347 Q629.6553,31.4649 629.0244,31.4649 Q627.6797,31.4649 626.9949,32.5315 Q626.3101,33.5982 626.3101,35.6983 Q626.3101,37.7901 626.9949,38.8567 Q627.6797,39.9234 629.0244,39.9234 Q629.6553,39.9234 630.2488,39.6536 Q630.8423,39.3838 631.4731,38.8028 Z " fill="#000000"/><text fill="#000000" font-family="sans-serif" font-size="12" lengthAdjust="spacing" textLength="259" x="643" y="39.9175">Textual_Document_Accessibility_Specification</text><!--MD5=[9d44916250b776386006c440668bcfbb]
class Agent--><rect codeLine="19" fill="#FEFECE" filter="url(#fpy6pyopf692v)" height="32" id="Agent" style="stroke:#A80036;stroke-width:1.5;" width="65" x="202" y="206.3824"/><ellipse cx="217" cy="222.3824" fill="#ADD1B2" rx="11" ry="11" style="stroke:#A80036;stroke-width:1.0;"/><path d="M219.4731,228.5254 Q218.8921,228.8243 218.2529,228.9737 Q217.6138,229.1231 216.9082,229.1231 Q214.4014,229.1231 213.0815,227.4712 Q211.7617,225.8194 211.7617,222.6983 Q211.7617,219.5689 213.0815,217.917 Q214.4014,216.2652 216.9082,216.2652 Q217.6138,216.2652 218.2612,216.4146 Q218.9087,216.564 219.4731,216.8628 L219.4731,219.5855 Q218.8423,219.0044 218.2488,218.7347 Q217.6553,218.4649 217.0244,218.4649 Q215.6797,218.4649 214.9949,219.5315 Q214.3101,220.5982 214.3101,222.6983 Q214.3101,224.7901 214.9949,225.8567 Q215.6797,226.9234 217.0244,226.9234 Q217.6553,226.9234 218.2488,226.6536 Q218.8423,226.3838 219.4731,225.8028 Z " fill="#000000"/><text fill="#000000" font-family="sans-serif" font-size="12" lengthAdjust="spacing" textLength="33" x="231" y="226.9175">Agent</text><!--MD5=[779f3743e425ed8a6f0bf188ddea4860]
class Organisation_Unit--><rect codeLine="22" fill="#FEFECE" filter="url(#fpy6pyopf692v)" height="117.7305" id="Organisation_Unit" style="stroke:#A80036;stroke-width:1.5;" width="150" x="261.5" y="447.8824"/><ellipse cx="284.6" cy="463.8824" fill="#ADD1B2" rx="11" ry="11" style="stroke:#A80036;stroke-width:1.0;"/><path d="M287.0731,470.0254 Q286.4921,470.3243 285.8529,470.4737 Q285.2138,470.6231 284.5082,470.6231 Q282.0014,470.6231 280.6815,468.9712 Q279.3617,467.3194 279.3617,464.1983 Q279.3617,461.0689 280.6815,459.417 Q282.0014,457.7652 284.5082,457.7652 Q285.2138,457.7652 285.8612,457.9146 Q286.5087,458.064 287.0731,458.3628 L287.0731,461.0855 Q286.4423,460.5044 285.8488,460.2347 Q285.2553,459.9649 284.6244,459.9649 Q283.2797,459.9649 282.5949,461.0315 Q281.9101,462.0982 281.9101,464.1983 Q281.9101,466.2901 282.5949,467.3567 Q283.2797,468.4234 284.6244,468.4234 Q285.2553,468.4234 285.8488,468.1536 Q286.4423,467.8838 287.0731,467.3028 Z " fill="#000000"/><text fill="#000000" font-family="sans-serif" font-size="12" lengthAdjust="spacing" textLength="100" x="300.4" y="468.4175">Organisation_Unit</text><line style="stroke:#A80036;stroke-width:1.5;" x1="262.5" x2="410.5" y1="479.8824" y2="479.8824"/><text fill="#000000" font-family="sans-serif" font-size="11" lengthAdjust="spacing" textLength="138" x="267.5" y="494.5171">name : Multilingual_String</text><text fill="#000000" font-family="sans-serif" font-size="11" lengthAdjust="spacing" textLength="88" x="267.5" y="507.4722">acronym : String</text><text fill="#000000" font-family="sans-serif" font-size="11" lengthAdjust="spacing" textLength="135" x="267.5" y="520.4273">address : Postal_Address</text><text fill="#000000" font-family="sans-serif" font-size="11" lengthAdjust="spacing" textLength="75" x="267.5" y="533.3824">rorId : ROR_Id</text><text fill="#000000" font-family="sans-serif" font-size="11" lengthAdjust="spacing" textLength="91" x="267.5" y="546.3374">webSiteURL : URL</text><text fill="#000000" font-family="sans-serif" font-size="11" lengthAdjust="spacing" textLength="58" x="267.5" y="559.2925">email : URL</text><!--MD5=[09ce52be0ee7de43c61b6e2d59bf108b]
class Person--><rect codeLine="30" fill="#FEFECE" filter="url(#fpy6pyopf692v)" height="65.9102" id="Person" style="stroke:#A80036;stroke-width:1.5;" width="123" x="103" y="473.8824"/><ellipse cx="141.4" cy="489.8824" fill="#ADD1B2" rx="11" ry="11" style="stroke:#A80036;stroke-width:1.0;"/><path d="M143.8731,496.0254 Q143.2921,496.3243 142.6529,496.4737 Q142.0138,496.6231 141.3082,496.6231 Q138.8014,496.6231 137.4815,494.9712 Q136.1617,493.3194 136.1617,490.1983 Q136.1617,487.0689 137.4815,485.417 Q138.8014,483.7652 141.3082,483.7652 Q142.0138,483.7652 142.6612,483.9146 Q143.3087,484.064 143.8731,484.3628 L143.8731,487.0855 Q143.2423,486.5044 142.6488,486.2347 Q142.0553,485.9649 141.4244,485.9649 Q140.0797,485.9649 139.3949,487.0315 Q138.7101,488.0982 138.7101,490.1983 Q138.7101,492.2901 139.3949,493.3567 Q140.0797,494.4234 141.4244,494.4234 Q142.0553,494.4234 142.6488,494.1536 Q143.2423,493.8838 143.8731,493.3028 Z " fill="#000000"/><text fill="#000000" font-family="sans-serif" font-size="12" lengthAdjust="spacing" textLength="39" x="160.6" y="494.4175">Person</text><line style="stroke:#A80036;stroke-width:1.5;" x1="104" x2="225" y1="505.8824" y2="505.8824"/><text fill="#000000" font-family="sans-serif" font-size="11" lengthAdjust="spacing" textLength="111" x="109" y="520.5171">name : Person_Name</text><text fill="#000000" font-family="sans-serif" font-size="11" lengthAdjust="spacing" textLength="99" x="109" y="533.4722">orcidId : ORCID_iD</text><!--MD5=[7b209ef07eb91b93e0aebc9fe4fb9a26]
class Person_Name--><rect codeLine="34" fill="#FEFECE" filter="url(#fpy6pyopf692v)" height="85.1309" id="Person_Name" style="stroke:#A80036;stroke-width:1.5;" width="189" x="70" y="632.3824"/><ellipse cx="120.75" cy="651.5152" fill="#FF7700" rx="11" ry="11" style="stroke:#A80036;stroke-width:1.0;"/><path d="M119.8359,647.8301 L119.8359,655.8072 L120.5,655.8072 Q121.9443,655.8072 122.5586,654.8982 Q123.1729,653.9893 123.1729,651.8062 Q123.1729,649.6397 122.5586,648.7349 Q121.9443,647.8301 120.5,647.8301 Z M117.3872,645.6221 L120.0103,645.6221 Q123.0483,645.6221 124.3848,647.0706 Q125.7212,648.5191 125.7212,651.8062 Q125.7212,655.1016 124.3848,656.5584 Q123.0483,658.0152 120.0103,658.0152 L117.3872,658.0152 Z " fill="#000000"/><text fill="#000000" font-family="sans-serif" font-size="12" font-style="italic" lengthAdjust="spacing" textLength="68" x="146.75" y="648.9839">«DataType»</text><text fill="#000000" font-family="sans-serif" font-size="12" lengthAdjust="spacing" textLength="79" x="141.25" y="663.1167">Person_Name</text><line style="stroke:#A80036;stroke-width:1.5;" x1="71" x2="258" y1="670.648" y2="670.648"/><text fill="#000000" font-family="sans-serif" font-size="11" lengthAdjust="spacing" textLength="167" x="76" y="685.2828">firstNames : Multilingual_String</text><text fill="#000000" font-family="sans-serif" font-size="11" lengthAdjust="spacing" textLength="177" x="76" y="698.2378">familyNames : Multilingual_String</text><text fill="#000000" font-family="sans-serif" font-size="11" lengthAdjust="spacing" textLength="174" x="76" y="711.1929">otherNames : Multilingual_String</text><!--MD5=[fe1d14fe6d68ca7e76eb34268c62a1f3]
class Postal_Address--><rect codeLine="39" fill="#FEFECE" filter="url(#fpy6pyopf692v)" height="98.0859" id="Postal_Address" style="stroke:#A80036;stroke-width:1.5;" width="165" x="338" y="625.8824"/><ellipse cx="373.25" cy="645.0152" fill="#FF7700" rx="11" ry="11" style="stroke:#A80036;stroke-width:1.0;"/><path d="M372.3359,641.3301 L372.3359,649.3072 L373,649.3072 Q374.4443,649.3072 375.0586,648.3982 Q375.6729,647.4893 375.6729,645.3062 Q375.6729,643.1397 375.0586,642.2349 Q374.4443,641.3301 373,641.3301 Z M369.8872,639.1221 L372.5103,639.1221 Q375.5483,639.1221 376.8848,640.5706 Q378.2212,642.0191 378.2212,645.3062 Q378.2212,648.6016 376.8848,650.0584 Q375.5483,651.5152 372.5103,651.5152 L369.8872,651.5152 Z " fill="#000000"/><text fill="#000000" font-family="sans-serif" font-size="12" font-style="italic" lengthAdjust="spacing" textLength="68" x="401.75" y="642.4839">«DataType»</text><text fill="#000000" font-family="sans-serif" font-size="12" lengthAdjust="spacing" textLength="88" x="391.75" y="656.6167">Postal_Address</text><line style="stroke:#A80036;stroke-width:1.5;" x1="339" x2="502" y1="664.148" y2="664.148"/><text fill="#000000" font-family="sans-serif" font-size="11" lengthAdjust="spacing" textLength="140" x="344" y="678.7828">street : Multilingual_String</text><text fill="#000000" font-family="sans-serif" font-size="11" lengthAdjust="spacing" textLength="128" x="344" y="691.7378">city : Multilingual_String</text><text fill="#000000" font-family="sans-serif" font-size="11" lengthAdjust="spacing" textLength="153" x="344" y="704.6929">zipCode : Multilingual_String</text><text fill="#000000" font-family="sans-serif" font-size="11" lengthAdjust="spacing" textLength="95" x="344" y="717.648">country : Country</text><!--MD5=[deb4e1f6eb1e3c1256fdb830f96abfbb]
class Country--><rect codeLine="45" fill="#FEFECE" filter="url(#fpy6pyopf692v)" height="91.8203" id="Country" style="stroke:#A80036;stroke-width:1.5;" width="269" x="286" y="783.8824"/><ellipse cx="394.25" cy="799.8824" fill="#ADD1B2" rx="11" ry="11" style="stroke:#A80036;stroke-width:1.0;"/><path d="M396.7231,806.0254 Q396.1421,806.3243 395.5029,806.4737 Q394.8638,806.6231 394.1582,806.6231 Q391.6514,806.6231 390.3315,804.9712 Q389.0117,803.3194 389.0117,800.1983 Q389.0117,797.0689 390.3315,795.417 Q391.6514,793.7652 394.1582,793.7652 Q394.8638,793.7652 395.5112,793.9146 Q396.1587,794.064 396.7231,794.3628 L396.7231,797.0855 Q396.0923,796.5044 395.4988,796.2347 Q394.9053,795.9649 394.2744,795.9649 Q392.9297,795.9649 392.2449,797.0315 Q391.5601,798.0982 391.5601,800.1983 Q391.5601,802.2901 392.2449,803.3567 Q392.9297,804.4234 394.2744,804.4234 Q394.9053,804.4234 395.4988,804.1536 Q396.0923,803.8838 396.7231,803.3028 Z " fill="#000000"/><text fill="#000000" font-family="sans-serif" font-size="12" lengthAdjust="spacing" textLength="44" x="414.75" y="804.4175">Country</text><line style="stroke:#A80036;stroke-width:1.5;" x1="287" x2="554" y1="815.8824" y2="815.8824"/><text fill="#000000" font-family="sans-serif" font-size="11" lengthAdjust="spacing" textLength="138" x="292" y="830.5171">name : Multilingual_String</text><text fill="#000000" font-family="sans-serif" font-size="11" lengthAdjust="spacing" textLength="227" x="292" y="843.4722">iso3166alphaCode : ISO3166_Alpha_Code</text><text fill="#000000" font-family="sans-serif" font-size="11" lengthAdjust="spacing" textLength="257" x="292" y="856.4273">iso3166NumericCode : ISO3166_Numeric_Code</text><text fill="#000000" font-family="sans-serif" font-size="11" lengthAdjust="spacing" textLength="192" x="292" y="869.3824">euCountryCode : EU_Country_Code</text><!--MD5=[3b25461e5df73ababc6765bb9b0c47d3]
class Authorship--><rect codeLine="53" fill="#FEFECE" filter="url(#fpy6pyopf692v)" height="52.9551" id="Authorship" style="stroke:#A80036;stroke-width:1.5;" width="203" x="202" y="8.8824"/><ellipse cx="268.25" cy="24.8824" fill="#ADD1B2" rx="11" ry="11" style="stroke:#A80036;stroke-width:1.0;"/><path d="M270.7231,31.0254 Q270.1421,31.3243 269.5029,31.4737 Q268.8638,31.6231 268.1582,31.6231 Q265.6514,31.6231 264.3315,29.9712 Q263.0117,28.3194 263.0117,25.1983 Q263.0117,22.0689 264.3315,20.417 Q265.6514,18.7652 268.1582,18.7652 Q268.8638,18.7652 269.5112,18.9146 Q270.1587,19.064 270.7231,19.3628 L270.7231,22.0855 Q270.0923,21.5044 269.4988,21.2347 Q268.9053,20.9649 268.2744,20.9649 Q266.9297,20.9649 266.2449,22.0315 Q265.5601,23.0982 265.5601,25.1983 Q265.5601,27.2901 266.2449,28.3567 Q266.9297,29.4234 268.2744,29.4234 Q268.9053,29.4234 269.4988,29.1536 Q270.0923,28.8838 270.7231,28.3028 Z " fill="#000000"/><text fill="#000000" font-family="sans-serif" font-size="12" lengthAdjust="spacing" textLength="62" x="288.75" y="29.4175">Authorship</text><line style="stroke:#A80036;stroke-width:1.5;" x1="203" x2="404" y1="40.8824" y2="40.8824"/><text fill="#000000" font-family="sans-serif" font-size="11" lengthAdjust="spacing" textLength="191" x="208" y="55.5171">correspondingAuthorFlag : Boolean</text><path d="M6,22.8824 L6,48.1929 A0,0 0 0 0 6,48.1929 L167,48.1929 A0,0 0 0 0 167,48.1929 L167,40.8824 L201.95,35.3824 L167,32.8824 L167,32.8824 L157,22.8824 L6,22.8824 A0,0 0 0 0 6,22.8824 " fill="#FFFF00" filter="url(#fpy6pyopf692v)" style="stroke:#A80036;stroke-width:1.0;"/><path d="M157,22.8824 L157,32.8824 L167,32.8824 L157,22.8824 " fill="#FFFF00" style="stroke:#A80036;stroke-width:1.0;"/><text fill="#000000" font-family="sans-serif" font-size="13" lengthAdjust="spacing" textLength="140" x="12" y="40.4507">author == contributor</text><!--MD5=[b821bb113f9f55c728f1fbb8949cc3af]
class Contributorship--><rect codeLine="58" fill="#FEFECE" filter="url(#fpy6pyopf692v)" height="65.9102" id="Contributorship" style="stroke:#A80036;stroke-width:1.5;" width="122" x="302.5" y="189.3824"/><ellipse cx="317.95" cy="205.3824" fill="#ADD1B2" rx="11" ry="11" style="stroke:#A80036;stroke-width:1.0;"/><path d="M320.4231,211.5254 Q319.8421,211.8243 319.2029,211.9737 Q318.5638,212.1231 317.8582,212.1231 Q315.3514,212.1231 314.0315,210.4712 Q312.7117,208.8194 312.7117,205.6983 Q312.7117,202.5689 314.0315,200.917 Q315.3514,199.2652 317.8582,199.2652 Q318.5638,199.2652 319.2112,199.4146 Q319.8587,199.564 320.4231,199.8628 L320.4231,202.5855 Q319.7923,202.0044 319.1988,201.7347 Q318.6053,201.4649 317.9744,201.4649 Q316.6297,201.4649 315.9449,202.5315 Q315.2601,203.5982 315.2601,205.6983 Q315.2601,207.7901 315.9449,208.8567 Q316.6297,209.9234 317.9744,209.9234 Q318.6053,209.9234 319.1988,209.6536 Q319.7923,209.3838 320.4231,208.8028 Z " fill="#000000"/><text fill="#000000" font-family="sans-serif" font-size="12" lengthAdjust="spacing" textLength="89" x="332.05" y="209.9175">Contributorship</text><line style="stroke:#A80036;stroke-width:1.5;" x1="303.5" x2="423.5" y1="221.3824" y2="221.3824"/><text fill="#000000" font-family="sans-serif" font-size="11" lengthAdjust="spacing" textLength="110" x="308.5" y="236.0171">contacts : List&lt;URI&gt;</text><text fill="#000000" font-family="sans-serif" font-size="11" lengthAdjust="spacing" textLength="109" x="308.5" y="248.9722">displayName : String</text><!--MD5=[532fe005ca0bef0ad6b309c9c6480e22]
class Contribution_Statement--><rect codeLine="62" fill="#FEFECE" filter="url(#fpy6pyopf692v)" height="32" id="Contribution_Statement" style="stroke:#A80036;stroke-width:1.5;" width="165" x="510" y="338.8824"/><ellipse cx="525" cy="354.8824" fill="#ADD1B2" rx="11" ry="11" style="stroke:#A80036;stroke-width:1.0;"/><path d="M527.4731,361.0254 Q526.8921,361.3243 526.2529,361.4737 Q525.6138,361.6231 524.9082,361.6231 Q522.4014,361.6231 521.0815,359.9712 Q519.7617,358.3194 519.7617,355.1983 Q519.7617,352.0689 521.0815,350.417 Q522.4014,348.7652 524.9082,348.7652 Q525.6138,348.7652 526.2612,348.9146 Q526.9087,349.064 527.4731,349.3628 L527.4731,352.0855 Q526.8423,351.5044 526.2488,351.2347 Q525.6553,350.9649 525.0244,350.9649 Q523.6797,350.9649 522.9949,352.0315 Q522.3101,353.0982 522.3101,355.1983 Q522.3101,357.2901 522.9949,358.3567 Q523.6797,359.4234 525.0244,359.4234 Q525.6553,359.4234 526.2488,359.1536 Q526.8423,358.8838 527.4731,358.3028 Z " fill="#000000"/><text fill="#000000" font-family="sans-serif" font-size="12" lengthAdjust="spacing" textLength="133" x="539" y="359.4175">Contribution_Statement</text><!--MD5=[75e6ee6f0cee60576da1adad405695b7]
class Free_Text_Contribution_Statement--><rect codeLine="64" fill="#FEFECE" filter="url(#fpy6pyopf692v)" height="52.9551" id="Free_Text_Contribution_Statement" style="stroke:#A80036;stroke-width:1.5;" width="228" x="517.5" y="480.3824"/><ellipse cx="532.5" cy="496.3824" fill="#ADD1B2" rx="11" ry="11" style="stroke:#A80036;stroke-width:1.0;"/><path d="M534.9731,502.5254 Q534.3921,502.8243 533.7529,502.9737 Q533.1138,503.1231 532.4082,503.1231 Q529.9014,503.1231 528.5815,501.4712 Q527.2617,499.8194 527.2617,496.6983 Q527.2617,493.5689 528.5815,491.917 Q529.9014,490.2652 532.4082,490.2652 Q533.1138,490.2652 533.7612,490.4146 Q534.4087,490.564 534.9731,490.8628 L534.9731,493.5855 Q534.3423,493.0044 533.7488,492.7347 Q533.1553,492.4649 532.5244,492.4649 Q531.1797,492.4649 530.4949,493.5315 Q529.8101,494.5982 529.8101,496.6983 Q529.8101,498.7901 530.4949,499.8567 Q531.1797,500.9234 532.5244,500.9234 Q533.1553,500.9234 533.7488,500.6536 Q534.3423,500.3838 534.9731,499.8028 Z " fill="#000000"/><text fill="#000000" font-family="sans-serif" font-size="12" lengthAdjust="spacing" textLength="196" x="546.5" y="500.9175">Free_Text_Contribution_Statement</text><line style="stroke:#A80036;stroke-width:1.5;" x1="518.5" x2="744.5" y1="512.3824" y2="512.3824"/><text fill="#000000" font-family="sans-serif" font-size="11" lengthAdjust="spacing" textLength="162" x="523.5" y="527.0171">statement : Multilingual_String</text><!--MD5=[ddbff00b4911ad4b77d6aa32dd14d1d7]
class Affiliation_Statement--><rect codeLine="67" fill="#FEFECE" filter="url(#fpy6pyopf692v)" height="65.9102" id="Affiliation_Statement" style="stroke:#A80036;stroke-width:1.5;" width="148" x="288.5" y="321.8824"/><ellipse cx="303.5" cy="337.8824" fill="#ADD1B2" rx="11" ry="11" style="stroke:#A80036;stroke-width:1.0;"/><path d="M305.9731,344.0254 Q305.3921,344.3243 304.7529,344.4737 Q304.1138,344.6231 303.4082,344.6231 Q300.9014,344.6231 299.5815,342.9712 Q298.2617,341.3194 298.2617,338.1983 Q298.2617,335.0689 299.5815,333.417 Q300.9014,331.7652 303.4082,331.7652 Q304.1138,331.7652 304.7612,331.9146 Q305.4087,332.064 305.9731,332.3628 L305.9731,335.0855 Q305.3423,334.5044 304.7488,334.2347 Q304.1553,333.9649 303.5244,333.9649 Q302.1797,333.9649 301.4949,335.0315 Q300.8101,336.0982 300.8101,338.1983 Q300.8101,340.2901 301.4949,341.3567 Q302.1797,342.4234 303.5244,342.4234 Q304.1553,342.4234 304.7488,342.1536 Q305.3423,341.8838 305.9731,341.3028 Z " fill="#000000"/><text fill="#000000" font-family="sans-serif" font-size="12" lengthAdjust="spacing" textLength="116" x="317.5" y="342.4175">Affiliation_Statement</text><line style="stroke:#A80036;stroke-width:1.5;" x1="289.5" x2="435.5" y1="353.8824" y2="353.8824"/><text fill="#000000" font-family="sans-serif" font-size="11" lengthAdjust="spacing" textLength="131" x="294.5" y="368.5171">displayAffiliation : String</text><text fill="#000000" font-family="sans-serif" font-size="11" lengthAdjust="spacing" textLength="135" x="294.5" y="381.4722">address : Postal_Address</text><!--MD5=[1c2d5a11bdff8297fbebaa44435072c9]
link Postal_Address to Country--><path codeLine="51" d="M420.5,736.2924 C420.5,736.2924 420.5,759.6324 420.5,770.3824 " fill="none" id="Postal_Address-Country" style="stroke:#A80036;stroke-width:1.0;"/><polygon fill="#A80036" points="420.5,783.6524,424.5,774.6524,420.5,778.6524,416.5,774.6524,420.5,783.6524" style="stroke:#A80036;stroke-width:1.0;"/><line style="stroke:#A80036;stroke-width:1.0;" x1="420.5" x2="420.5" y1="778.6524" y2="770.6524"/><polygon fill="#FFFFFF" points="420.5,724.2924,416.5,730.2924,420.5,736.2924,424.5,730.2924,420.5,724.2924" style="stroke:#A80036;stroke-width:1.0;"/><text fill="#000000" font-family="sans-serif" font-size="13" lengthAdjust="spacing" textLength="48" x="368.825" y="773.0308">country</text><!--MD5=[af6b79ce3af62c8c5ee779db9fbc8cf6]
link Affiliation_Statement to Postal_Address--><path codeLine="74" d="M393.63,387.9324 C407.48,404.4324 422.28,425.7124 429.5,447.8824 C448.03,504.8024 441.3,574.0724 432.82,620.8024 " fill="none" id="Affiliation_Statement-to-Postal_Address" style="stroke:#A80036;stroke-width:1.0;stroke-dasharray:7.0,7.0;"/><polygon fill="#A80036" points="431.89,625.8224,437.4687,617.7058,432.8045,620.9067,429.6037,616.2426,431.89,625.8224" style="stroke:#A80036;stroke-width:1.0;"/><text fill="#000000" font-family="sans-serif" font-size="13" lengthAdjust="spacing" textLength="90" x="440.1723" y="615.1">postalAddress</text><!--MD5=[fe03d2c8e9644e7513bef3a6fb6291e6]
reverse link Affiliation_Statement to Organisation_Unit--><path codeLine="75" d="M342.88,400.9624 C339.35,415.6724 336.27,432.2124 334.12,447.7324 " fill="none" id="Affiliation_Statement-backto-Organisation_Unit" style="stroke:#A80036;stroke-width:1.0;"/><polygon fill="#FFFFFF" points="346.24,388.0624,340.8592,392.8631,343.2211,399.6764,348.6019,394.8757,346.24,388.0624" style="stroke:#A80036;stroke-width:1.0;"/><text fill="#000000" font-family="sans-serif" font-size="13" lengthAdjust="spacing" textLength="47" x="283.9659" y="437.2131">orgUnit</text><!--MD5=[fe03d2c8e9644e7513bef3a6fb6291e6]
reverse link Affiliation_Statement to Organisation_Unit--><path codeLine="76" d="M367.14,401.4224 C365.62,416.0124 363,432.3724 359.77,447.7324 " fill="none" id="Affiliation_Statement-backto-Organisation_Unit-1" style="stroke:#A80036;stroke-width:1.0;"/><polygon fill="#FFFFFF" points="368.24,388.0624,363.7592,393.7123,367.2511,400.0215,371.7319,394.3716,368.24,388.0624" style="stroke:#A80036;stroke-width:1.0;"/><text fill="#000000" font-family="sans-serif" font-size="13" lengthAdjust="spacing" textLength="66" x="366.6279" y="437.2131">institution</text><!--MD5=[d9b08b031298a036c8fb3d44263a5204]
reverse link Affiliation_Statement to Person--><path codeLine="77" d="M309.47,396.0524 C277.34,420.3924 236.9,451.0324 206.91,473.7524 " fill="none" id="Affiliation_Statement-backto-Person" style="stroke:#A80036;stroke-width:1.0;"/><polygon fill="#FFFFFF" points="320.02,388.0624,312.822,388.4971,310.4549,395.3087,317.6529,394.8739,320.02,388.0624" style="stroke:#A80036;stroke-width:1.0;"/><!--MD5=[21f8b3605054312288eb3132d9b75edc]
reverse link Contribution_Statement to Free_Text_Contribution_Statement--><path codeLine="78" d="M601.58,390.7924 C608.68,418.1224 618.4,455.4924 624.81,480.1424 " fill="none" id="Contribution_Statement-backto-Free_Text_Contribution_Statement" style="stroke:#A80036;stroke-width:1.0;"/><polygon fill="none" points="594.71,392.2124,596.45,371.0924,608.26,388.6824,594.71,392.2124" style="stroke:#A80036;stroke-width:1.0;"/><!--MD5=[1f014480a3afa8c0325c3be3fbf7ad6f]
link Contributorship to Document--><path codeLine="79" d="M424.82,222.3824 C432.13,222.3824 439.44,222.3824 446.75,222.3824 " fill="none" id="Contributorship-to-Document" style="stroke:#A80036;stroke-width:1.0;"/><polygon fill="#A80036" points="459.91,222.3824,453.91,218.3824,447.91,222.3824,453.91,226.3824,459.91,222.3824" style="stroke:#A80036;stroke-width:1.0;"/><text fill="#000000" font-family="sans-serif" font-size="13" lengthAdjust="spacing" textLength="6" x="432.659" y="219.0611">*</text><!--MD5=[504de05de5dc33320621ff1be2e6e6ff]
reverse link Agent to Contributorship--><path codeLine="80" d="M280.01,222.3824 C287.49,222.3824 294.96,222.3824 302.43,222.3824 " fill="none" id="Agent-backto-Contributorship" style="stroke:#A80036;stroke-width:1.0;"/><polygon fill="#FFFFFF" points="267,222.3824,273,226.3824,279,222.3824,273,218.3824,267,222.3824" style="stroke:#A80036;stroke-width:1.0;"/><text fill="#000000" font-family="sans-serif" font-size="13" lengthAdjust="spacing" textLength="99" x="195.2692" y="202.781">0..1 contributor</text><text fill="#000000" font-family="sans-serif" font-size="13" lengthAdjust="spacing" textLength="6" x="288.6215" y="235.8892">*</text><!--MD5=[d50a95e3ddb5a3ed983c7b2ff4649bd6]
reverse link Contributorship to Affiliation_Statement--><path codeLine="81" d="M363.15,268.7424 C363.02,286.1324 362.87,305.6124 362.75,321.5424 " fill="none" id="Contributorship-backto-Affiliation_Statement" style="stroke:#A80036;stroke-width:1.0;"/><polygon fill="#FFFFFF" points="363.25,255.6424,359.204,261.6114,363.1577,267.642,367.2037,261.673,363.25,255.6424" style="stroke:#A80036;stroke-width:1.0;"/><text fill="#000000" font-family="sans-serif" font-size="13" lengthAdjust="spacing" textLength="78" x="277.1211" y="311.1098">affiliations *</text><!--MD5=[aa65b9840c4d4bb6ada386eeadadc345]
reverse link Contributorship to Contribution_Statement--><path codeLine="82" d="M431.33,262.0324 C476.52,287.7924 533.42,320.2124 566.11,338.8424 " fill="none" id="Contributorship-backto-Contribution_Statement" style="stroke:#A80036;stroke-width:1.0;"/><polygon fill="#A80036" points="419.81,255.4724,423.0411,261.9191,430.2346,261.4161,427.0035,254.9694,419.81,255.4724" style="stroke:#A80036;stroke-width:1.0;"/><text fill="#000000" font-family="sans-serif" font-size="13" lengthAdjust="spacing" textLength="158" x="584.8523" y="328.0799">contributionStatements *</text><!--MD5=[db20fd804d8595e73b6b8c99fdd1338c]
link Authorship to Textual_Document--><path codeLine="84" d="M405.29,35.3824 C412.41,35.3824 419.53,35.3824 426.65,35.3824 " fill="none" id="Authorship-to-Textual_Document" style="stroke:#A80036;stroke-width:1.0;"/><polygon fill="#A80036" points="439.89,35.3824,433.89,31.3824,427.89,35.3824,433.89,39.3824,439.89,35.3824" style="stroke:#A80036;stroke-width:1.0;"/><!--MD5=[e74e4958a1d7eb99db8e977d8859ba66]
link Authorship to Contributorship--><path codeLine="85" d="M311.84,62.1024 C320.86,89.9124 335.47,134.9424 346.85,170.0524 " fill="none" id="Authorship-to-Contributorship" style="stroke:#A80036;stroke-width:1.0;"/><polygon fill="none" points="353.6,168.1824,353.12,189.3624,340.29,172.5024,353.6,168.1824" style="stroke:#A80036;stroke-width:1.0;"/><!--MD5=[49125a4ba45432b051dcbcd9e53401d7]
link Authorship to Agent--><path codeLine="86" d="M293.91,62.1024 C280.97,96.7924 258.03,158.3024 244.76,193.8824 " fill="none" id="Authorship-to-Agent" style="stroke:#A80036;stroke-width:1.0;"/><polygon fill="#FFFFFF" points="240.19,206.1324,246.0355,201.9098,244.3861,194.8899,238.5406,199.1124,240.19,206.1324" style="stroke:#A80036;stroke-width:1.0;"/><text fill="#000000" font-family="sans-serif" font-size="13" lengthAdjust="spacing" textLength="69" x="225.4136" y="183.5195">0..1 author</text><!--MD5=[5d8901ce694eb85aefa78b7d82d9f6f6]
link Person to Person_Name--><path codeLine="88" d="M164.5,539.8924 C164.5,564.6324 164.5,599.2524 164.5,627.1024 " fill="none" id="Person-to-Person_Name" style="stroke:#A80036;stroke-width:1.0;stroke-dasharray:7.0,7.0;"/><polygon fill="#A80036" points="164.5,632.2224,168.5,623.2224,164.5,627.2224,160.5,623.2224,164.5,632.2224" style="stroke:#A80036;stroke-width:1.0;"/><text fill="#000000" font-family="sans-serif" font-size="13" lengthAdjust="spacing" textLength="34" x="127.6844" y="621.4979">name</text><!--MD5=[de96f77e660762cb21a195b4097c3876]
reverse link Agent to Person--><path codeLine="89" d="M225.67,257.8524 C220.85,276.7524 214.8,300.5924 209.5,321.8824 C196.26,375.0124 181.21,436.8624 172.3,473.6224 " fill="none" id="Agent-backto-Person" style="stroke:#A80036;stroke-width:1.0;"/><polygon fill="none" points="218.91,256.0324,230.65,238.3924,232.48,259.5024,218.91,256.0324" style="stroke:#A80036;stroke-width:1.0;"/><!--MD5=[521d3f26cc3887ed8885a4c0e03f9952]
reverse link Agent to Organisation_Unit--><path codeLine="90" d="M239.2,259.0224 C244.39,292.9424 254.23,345.0224 270.5,387.8824 C278.2,408.1824 288.96,429.2224 299.55,447.8124 " fill="none" id="Agent-backto-Organisation_Unit" style="stroke:#A80036;stroke-width:1.0;"/><polygon fill="none" points="232.21,259.5624,236.33,238.7824,246.07,257.6024,232.21,259.5624" style="stroke:#A80036;stroke-width:1.0;"/><!--MD5=[15e2f573152931505f3d87c1c2d22c4e]
link Organisation_Unit to Postal_Address--><path codeLine="91" d="M365.88,565.9424 C374.92,583.8024 384.82,603.3624 393.67,620.8624 " fill="none" id="Organisation_Unit-to-Postal_Address" style="stroke:#A80036;stroke-width:1.0;stroke-dasharray:7.0,7.0;"/><polygon fill="#A80036" points="396.14,625.7424,395.6551,615.9054,393.8868,621.2788,388.5135,619.5105,396.14,625.7424" style="stroke:#A80036;stroke-width:1.0;"/><text fill="#000000" font-family="sans-serif" font-size="13" lengthAdjust="spacing" textLength="49" x="339.9637" y="615.0082">address</text><!--MD5=[8d9b790276a1e6c61f0b091de629785c]
link Textual_Document to Document--><path codeLine="93" d="M511.22,51.5224 C513.95,75.5924 519.43,123.8324 523.85,162.7724 " fill="none" id="Textual_Document-to-Document" style="stroke:#A80036;stroke-width:1.0;"/><polygon fill="none" points="530.81,162.0124,526.11,182.6724,516.9,163.5924,530.81,162.0124" style="stroke:#A80036;stroke-width:1.0;"/><!--MD5=[0df3595c7a152ac097b4d28b9398e692]
reverse link Textual_Document to Textual_Document_Accessibility_Specification--><path codeLine="94" d="M592.53,35.3824 C599.62,35.3824 606.72,35.3824 613.81,35.3824 " fill="none" id="Textual_Document-backto-Textual_Document_Accessibility_Specification" style="stroke:#A80036;stroke-width:1.0;"/><polygon fill="#A80036" points="579.32,35.3824,585.32,39.3824,591.32,35.3824,585.32,31.3824,579.32,35.3824" style="stroke:#A80036;stroke-width:1.0;"/><text fill="#000000" font-family="sans-serif" font-size="13" lengthAdjust="spacing" textLength="82" x="523.2005" y="19.8105">accessRights</text><!--MD5=[3bc04dee94cc69985a1813f74705f429]
reverse link Textual_Document to Agent--><path codeLine="95" d="M473.58,58.5424 C428.68,86.5224 349.78,136.6124 284.5,182.8824 C274.13,190.2324 262.89,198.8224 253.7,206.0324 " fill="none" id="Textual_Document-backto-Agent" style="stroke:#A80036;stroke-width:1.0;"/><polygon fill="#FFFFFF" points="484.77,51.5824,477.5627,51.3494,474.5755,57.9127,481.7829,58.1457,484.77,51.5824" style="stroke:#A80036;stroke-width:1.0;"/><text fill="#000000" font-family="sans-serif" font-size="13" lengthAdjust="spacing" textLength="58" x="192.4537" y="195.7518">authors *</text><!--MD5=[01f78235daca53a8893bb7842b709f19]
@startuml
	!startsub common
	!define datatype(x) class x << (D,#FF7700) DataType>>
	hide empty members
	skinparam BoxPadding 120
	!endsub

    !startsub Contributorship
    class "Document"{
        title : Multilingual_String
        publicationDate : Date 
        doi : DOI
    }
    !endsub
    class "Textual_Document"{
    }
    class "Textual_Document_Accessibility_Specification"{
    }
    !startsub Agent
    class "Agent"{

    }
    class "Organisation_Unit"{
        name : Multilingual_String
        acronym : String
        address : Postal_Address
        rorId : ROR_Id
        webSiteURL : URL
        email : URL
    }
    class "Person"{
        name : Person_Name
        orcidId : ORCID_iD
    }
    datatype("Person_Name") {
        firstNames : Multilingual_String
        familyNames : Multilingual_String
        otherNames : Multilingual_String
    } 
    datatype("Postal_Address") {
        street : Multilingual_String 
        city : Multilingual_String
        zipCode : Multilingual_String 
        country : Country
    }
    class "Country"{
        name : Multilingual_String
        iso3166alphaCode : ISO3166_Alpha_Code
        iso3166NumericCode : ISO3166_Numeric_Code
        euCountryCode : EU_Country_Code
    }
	"Postal_Address" o- -> "country" "Country"
    !endsub
    class "Authorship"{
        correspondingAuthorFlag : Boolean 
    }
    note left #yellow: author == contributor
    !startsub Contributorship
    class "Contributorship"{
        contacts : List<URI> 
        displayName : String
    }
    class "Contribution_Statement"{
    }
    class "Free_Text_Contribution_Statement"{
        statement : Multilingual_String
    }
    class "Affiliation_Statement"{
        displayAffiliation : String 
        address : Postal_Address
    }
    !endsub

!startsub Contributorship
"Affiliation_Statement" ..> "postalAddress" "Postal_Address"
"Affiliation_Statement" o- - "orgUnit" "Organisation_Unit"
"Affiliation_Statement" o- - "institution" "Organisation_Unit"
"Affiliation_Statement" o- - "Person"
"Contribution_Statement" <|- - "Free_Text_Contribution_Statement"
"Contributorship" "*" - -r- -* "Document"
"Contributorship" "*" - -l- -o "0..1 contributor" "Agent"
"Contributorship" o- - "affiliations *" "Affiliation_Statement"
"Contributorship" *- - "contributionStatements *" "Contribution_Statement"
!endsub
"Authorship" -r-* "Textual_Document"
"Contributorship" <|-u- "Authorship"
"Authorship" - -o "0..1 author" "Agent"
!startsub Agent
"Person" ..> "name" "Person_Name"
"Agent" <|- - "Person"
"Agent" <|- - "Organisation_Unit"
"Organisation_Unit" ..> "address" "Postal_Address"
!endsub
"Document" <|-u- "Textual_Document"
"Textual_Document" *-r- "accessRights" "Textual_Document_Accessibility_Specification"
"Textual_Document" o- - -  "authors *" "Agent"
@enduml

@startuml
	hide empty members
	skinparam BoxPadding 120

    class "Document"{
        title : Multilingual_String
        publicationDate : Date 
        doi : DOI
    }
    class "Textual_Document"{
    }
    class "Textual_Document_Accessibility_Specification"{
    }
    class "Agent"{

    }
    class "Organisation_Unit"{
        name : Multilingual_String
        acronym : String
        address : Postal_Address
        rorId : ROR_Id
        webSiteURL : URL
        email : URL
    }
    class "Person"{
        name : Person_Name
        orcidId : ORCID_iD
    }
    class Person_Name << (D,#FF7700) DataType>> {
        firstNames : Multilingual_String
        familyNames : Multilingual_String
        otherNames : Multilingual_String
    } 
    class Postal_Address << (D,#FF7700) DataType>> {
        street : Multilingual_String 
        city : Multilingual_String
        zipCode : Multilingual_String 
        country : Country
    }
    class "Country"{
        name : Multilingual_String
        iso3166alphaCode : ISO3166_Alpha_Code
        iso3166NumericCode : ISO3166_Numeric_Code
        euCountryCode : EU_Country_Code
    }
	"Postal_Address" o- -> "country" "Country"
    class "Authorship"{
        correspondingAuthorFlag : Boolean 
    }
    note left #yellow: author == contributor
    class "Contributorship"{
        contacts : List<URI> 
        displayName : String
    }
    class "Contribution_Statement"{
    }
    class "Free_Text_Contribution_Statement"{
        statement : Multilingual_String
    }
    class "Affiliation_Statement"{
        displayAffiliation : String 
        address : Postal_Address
    }

"Affiliation_Statement" ..> "postalAddress" "Postal_Address"
"Affiliation_Statement" o- - "orgUnit" "Organisation_Unit"
"Affiliation_Statement" o- - "institution" "Organisation_Unit"
"Affiliation_Statement" o- - "Person"
"Contribution_Statement" <|- - "Free_Text_Contribution_Statement"
"Contributorship" "*" - -r- -* "Document"
"Contributorship" "*" - -l- -o "0..1 contributor" "Agent"
"Contributorship" o- - "affiliations *" "Affiliation_Statement"
"Contributorship" *- - "contributionStatements *" "Contribution_Statement"
"Authorship" -r-* "Textual_Document"
"Contributorship" <|-u- "Authorship"
"Authorship" - -o "0..1 author" "Agent"
"Person" ..> "name" "Person_Name"
"Agent" <|- - "Person"
"Agent" <|- - "Organisation_Unit"
"Organisation_Unit" ..> "address" "Postal_Address"
"Document" <|-u- "Textual_Document"
"Textual_Document" *-r- "accessRights" "Textual_Document_Accessibility_Specification"
"Textual_Document" o- - -  "authors *" "Agent"
@enduml

PlantUML version 1.2021.8(Sat Jun 26 10:20:59 CEST 2021)
(GPL source distribution)
Java Runtime: Java(TM) SE Runtime Environment
JVM: Java HotSpot(TM) 64-Bit Server VM
Default Encoding: UTF-8
Language: cs
Country: CZ
--></g></svg>