<?xml version="1.0" encoding="UTF-8" standalone="no"?><svg xmlns="http://www.w3.org/2000/svg" xmlns:xlink="http://www.w3.org/1999/xlink" contentScriptType="application/ecmascript" contentStyleType="text/css" height="884px" preserveAspectRatio="none" style="width:962px;height:884px;background:#FFFFFF;" version="1.1" viewBox="0 0 962 884" width="962px" zoomAndPan="magnify"><defs><filter height="300%" id="f1ngdw85zqzplx" width="300%" x="-1" y="-1"><feGaussianBlur result="blurOut" stdDeviation="2.0"/><feColorMatrix in="blurOut" result="blurOut2" type="matrix" values="0 0 0 0 0 0 0 0 0 0 0 0 0 0 0 0 0 0 .4 0"/><feOffset dx="4.0" dy="4.0" in="blurOut2" result="blurOut3"/><feBlend in="SourceGraphic" in2="blurOut3" mode="normal"/></filter></defs><g><!--MD5=[59b530d44ae785dc18db921986a9c15c]
class Document--><rect codeLine="8" fill="#FEFECE" filter="url(#f1ngdw85zqzplx)" height="78.4141" id="Document" style="stroke:#A80036;stroke-width:1.5;" width="148" x="475.5" y="181"/><ellipse cx="513.9" cy="197" fill="#ADD1B2" rx="11" ry="11" style="stroke:#A80036;stroke-width:1.0;"/><path d="M516.8688,202.6406 Q516.2906,202.9375 515.65,203.0781 Q515.0094,203.2344 514.3063,203.2344 Q511.8063,203.2344 510.4781,201.5938 Q509.1656,199.9375 509.1656,196.8125 Q509.1656,193.6875 510.4781,192.0313 Q511.8063,190.375 514.3063,190.375 Q515.0094,190.375 515.65,190.5313 Q516.3063,190.6875 516.8688,190.9844 L516.8688,193.7031 Q516.2438,193.125 515.65,192.8594 Q515.0563,192.5781 514.4313,192.5781 Q513.0875,192.5781 512.4,193.6563 Q511.7125,194.7188 511.7125,196.8125 Q511.7125,198.9063 512.4,199.9844 Q513.0875,201.0469 514.4313,201.0469 Q515.0563,201.0469 515.65,200.7813 Q516.2438,200.5 516.8688,199.9219 L516.8688,202.6406 Z " fill="#000000"/><text fill="#000000" font-family="sans-serif" font-size="12" lengthAdjust="spacing" textLength="64" x="533.1" y="201.1543">Document</text><line style="stroke:#A80036;stroke-width:1.5;" x1="476.5" x2="622.5" y1="213" y2="213"/><text fill="#000000" font-family="sans-serif" font-size="11" lengthAdjust="spacing" textLength="49" x="481.5" y="227.2104">doi : DOI</text><text fill="#000000" font-family="sans-serif" font-size="11" lengthAdjust="spacing" textLength="136" x="481.5" y="240.0151">title : Multilingual_String</text><text fill="#000000" font-family="sans-serif" font-size="11" lengthAdjust="spacing" textLength="125" x="481.5" y="252.8198">publicationDate : Date</text><!--MD5=[fe105c2ee1fabf2400c31a97ce9128bc]
class Textual_Document--><rect codeLine="14" fill="#FEFECE" filter="url(#f1ngdw85zqzplx)" height="32" id="Textual_Document" style="stroke:#A80036;stroke-width:1.5;" width="147" x="452" y="17.5"/><ellipse cx="467" cy="33.5" fill="#ADD1B2" rx="11" ry="11" style="stroke:#A80036;stroke-width:1.0;"/><path d="M469.9688,39.1406 Q469.3906,39.4375 468.75,39.5781 Q468.1094,39.7344 467.4063,39.7344 Q464.9063,39.7344 463.5781,38.0938 Q462.2656,36.4375 462.2656,33.3125 Q462.2656,30.1875 463.5781,28.5313 Q464.9063,26.875 467.4063,26.875 Q468.1094,26.875 468.75,27.0313 Q469.4063,27.1875 469.9688,27.4844 L469.9688,30.2031 Q469.3438,29.625 468.75,29.3594 Q468.1563,29.0781 467.5313,29.0781 Q466.1875,29.0781 465.5,30.1563 Q464.8125,31.2188 464.8125,33.3125 Q464.8125,35.4063 465.5,36.4844 Q466.1875,37.5469 467.5313,37.5469 Q468.1563,37.5469 468.75,37.2813 Q469.3438,37 469.9688,36.4219 L469.9688,39.1406 Z " fill="#000000"/><text fill="#000000" font-family="sans-serif" font-size="12" lengthAdjust="spacing" textLength="115" x="481" y="37.6543">Textual_Document</text><!--MD5=[152f153d79baedb26b20a34b9b1b571f]
class Textual_Document_Accessibility_Specification--><rect codeLine="16" fill="#FEFECE" filter="url(#f1ngdw85zqzplx)" height="32" id="Textual_Document_Accessibility_Specification" style="stroke:#A80036;stroke-width:1.5;" width="314" x="634.5" y="17.5"/><ellipse cx="649.5" cy="33.5" fill="#ADD1B2" rx="11" ry="11" style="stroke:#A80036;stroke-width:1.0;"/><path d="M652.4688,39.1406 Q651.8906,39.4375 651.25,39.5781 Q650.6094,39.7344 649.9063,39.7344 Q647.4063,39.7344 646.0781,38.0938 Q644.7656,36.4375 644.7656,33.3125 Q644.7656,30.1875 646.0781,28.5313 Q647.4063,26.875 649.9063,26.875 Q650.6094,26.875 651.25,27.0313 Q651.9063,27.1875 652.4688,27.4844 L652.4688,30.2031 Q651.8438,29.625 651.25,29.3594 Q650.6563,29.0781 650.0313,29.0781 Q648.6875,29.0781 648,30.1563 Q647.3125,31.2188 647.3125,33.3125 Q647.3125,35.4063 648,36.4844 Q648.6875,37.5469 650.0313,37.5469 Q650.6563,37.5469 651.25,37.2813 Q651.8438,37 652.4688,36.4219 L652.4688,39.1406 Z " fill="#000000"/><text fill="#000000" font-family="sans-serif" font-size="12" lengthAdjust="spacing" textLength="282" x="663.5" y="37.6543">Textual_Document_Accessibility_Specification</text><!--MD5=[9d44916250b776386006c440668bcfbb]
class Agent--><rect codeLine="19" fill="#FEFECE" filter="url(#f1ngdw85zqzplx)" height="32" id="Agent" style="stroke:#A80036;stroke-width:1.5;" width="69" x="205" y="204"/><ellipse cx="220" cy="220" fill="#ADD1B2" rx="11" ry="11" style="stroke:#A80036;stroke-width:1.0;"/><path d="M222.9688,225.6406 Q222.3906,225.9375 221.75,226.0781 Q221.1094,226.2344 220.4063,226.2344 Q217.9063,226.2344 216.5781,224.5938 Q215.2656,222.9375 215.2656,219.8125 Q215.2656,216.6875 216.5781,215.0313 Q217.9063,213.375 220.4063,213.375 Q221.1094,213.375 221.75,213.5313 Q222.4063,213.6875 222.9688,213.9844 L222.9688,216.7031 Q222.3438,216.125 221.75,215.8594 Q221.1563,215.5781 220.5313,215.5781 Q219.1875,215.5781 218.5,216.6563 Q217.8125,217.7188 217.8125,219.8125 Q217.8125,221.9063 218.5,222.9844 Q219.1875,224.0469 220.5313,224.0469 Q221.1563,224.0469 221.75,223.7813 Q222.3438,223.5 222.9688,222.9219 L222.9688,225.6406 Z " fill="#000000"/><text fill="#000000" font-family="sans-serif" font-size="12" lengthAdjust="spacing" textLength="37" x="234" y="224.1543">Agent</text><!--MD5=[779f3743e425ed8a6f0bf188ddea4860]
class Organisation_Unit--><rect codeLine="22" fill="#FEFECE" filter="url(#f1ngdw85zqzplx)" height="116.8281" id="Organisation_Unit" style="stroke:#A80036;stroke-width:1.5;" width="159" x="272" y="445"/><ellipse cx="294.2" cy="461" fill="#ADD1B2" rx="11" ry="11" style="stroke:#A80036;stroke-width:1.0;"/><path d="M297.1688,466.6406 Q296.5906,466.9375 295.95,467.0781 Q295.3094,467.2344 294.6063,467.2344 Q292.1063,467.2344 290.7781,465.5938 Q289.4656,463.9375 289.4656,460.8125 Q289.4656,457.6875 290.7781,456.0313 Q292.1063,454.375 294.6063,454.375 Q295.3094,454.375 295.95,454.5313 Q296.6063,454.6875 297.1688,454.9844 L297.1688,457.7031 Q296.5438,457.125 295.95,456.8594 Q295.3563,456.5781 294.7313,456.5781 Q293.3875,456.5781 292.7,457.6563 Q292.0125,458.7188 292.0125,460.8125 Q292.0125,462.9063 292.7,463.9844 Q293.3875,465.0469 294.7313,465.0469 Q295.3563,465.0469 295.95,464.7813 Q296.5438,464.5 297.1688,463.9219 L297.1688,466.6406 Z " fill="#000000"/><text fill="#000000" font-family="sans-serif" font-size="12" lengthAdjust="spacing" textLength="111" x="309.8" y="465.1543">Organisation_Unit</text><line style="stroke:#A80036;stroke-width:1.5;" x1="273" x2="430" y1="477" y2="477"/><text fill="#000000" font-family="sans-serif" font-size="11" lengthAdjust="spacing" textLength="147" x="278" y="491.2104">name : Multilingual_String</text><text fill="#000000" font-family="sans-serif" font-size="11" lengthAdjust="spacing" textLength="95" x="278" y="504.0151">acronym : String</text><text fill="#000000" font-family="sans-serif" font-size="11" lengthAdjust="spacing" textLength="147" x="278" y="516.8198">address : Postal_Address</text><text fill="#000000" font-family="sans-serif" font-size="11" lengthAdjust="spacing" textLength="78" x="278" y="529.6245">rorId : ROR_Id</text><text fill="#000000" font-family="sans-serif" font-size="11" lengthAdjust="spacing" textLength="99" x="278" y="542.4292">webSiteURL : URL</text><text fill="#000000" font-family="sans-serif" font-size="11" lengthAdjust="spacing" textLength="64" x="278" y="555.2339">email : URL</text><!--MD5=[09ce52be0ee7de43c61b6e2d59bf108b]
class Person--><rect codeLine="30" fill="#FEFECE" filter="url(#f1ngdw85zqzplx)" height="65.6094" id="Person" style="stroke:#A80036;stroke-width:1.5;" width="135" x="102" y="470.5"/><ellipse cx="143.55" cy="486.5" fill="#ADD1B2" rx="11" ry="11" style="stroke:#A80036;stroke-width:1.0;"/><path d="M146.5188,492.1406 Q145.9406,492.4375 145.3,492.5781 Q144.6594,492.7344 143.9563,492.7344 Q141.4563,492.7344 140.1281,491.0938 Q138.8156,489.4375 138.8156,486.3125 Q138.8156,483.1875 140.1281,481.5313 Q141.4563,479.875 143.9563,479.875 Q144.6594,479.875 145.3,480.0313 Q145.9563,480.1875 146.5188,480.4844 L146.5188,483.2031 Q145.8938,482.625 145.3,482.3594 Q144.7063,482.0781 144.0813,482.0781 Q142.7375,482.0781 142.05,483.1563 Q141.3625,484.2188 141.3625,486.3125 Q141.3625,488.4063 142.05,489.4844 Q142.7375,490.5469 144.0813,490.5469 Q144.7063,490.5469 145.3,490.2813 Q145.8938,490 146.5188,489.4219 L146.5188,492.1406 Z " fill="#000000"/><text fill="#000000" font-family="sans-serif" font-size="12" lengthAdjust="spacing" textLength="44" x="163.45" y="490.6543">Person</text><line style="stroke:#A80036;stroke-width:1.5;" x1="103" x2="236" y1="502.5" y2="502.5"/><text fill="#000000" font-family="sans-serif" font-size="11" lengthAdjust="spacing" textLength="123" x="108" y="516.7104">name : Person_Name</text><text fill="#000000" font-family="sans-serif" font-size="11" lengthAdjust="spacing" textLength="102" x="108" y="529.5151">orcidId : ORCID_iD</text><!--MD5=[7b209ef07eb91b93e0aebc9fe4fb9a26]
class Person_Name--><rect codeLine="34" fill="#FEFECE" filter="url(#f1ngdw85zqzplx)" height="84.3516" id="Person_Name" style="stroke:#A80036;stroke-width:1.5;" width="201" x="69" y="628.5"/><ellipse cx="122.25" cy="647.4688" fill="#FF7700" rx="11" ry="11" style="stroke:#A80036;stroke-width:1.0;"/><path d="M121.8438,643.2813 L121.8438,651.2656 L122.5,651.2656 Q123.9375,651.2656 124.5469,650.3594 Q125.1719,649.4375 125.1719,647.2656 Q125.1719,645.0938 124.5469,644.1875 Q123.9375,643.2813 122.5,643.2813 L121.8438,643.2813 Z M119.3906,641.0781 L122.0156,641.0781 Q125.0469,641.0781 126.375,642.5313 Q127.7188,643.9688 127.7188,647.2656 Q127.7188,650.5625 126.375,652.0156 Q125.0469,653.4688 122.0156,653.4688 L119.3906,653.4688 L119.3906,641.0781 Z " fill="#000000"/><text fill="#000000" font-family="sans-serif" font-size="12" font-style="italic" lengthAdjust="spacing" textLength="74" x="148.75" y="644.6387">«DataType»</text><text fill="#000000" font-family="sans-serif" font-size="12" lengthAdjust="spacing" textLength="86" x="142.75" y="658.6074">Person_Name</text><line style="stroke:#A80036;stroke-width:1.5;" x1="70" x2="269" y1="666.4375" y2="666.4375"/><text fill="#000000" font-family="sans-serif" font-size="11" lengthAdjust="spacing" textLength="178" x="75" y="680.6479">firstNames : Multilingual_String</text><text fill="#000000" font-family="sans-serif" font-size="11" lengthAdjust="spacing" textLength="189" x="75" y="693.4526">familyNames : Multilingual_String</text><text fill="#000000" font-family="sans-serif" font-size="11" lengthAdjust="spacing" textLength="185" x="75" y="706.2573">otherNames : Multilingual_String</text><!--MD5=[fe1d14fe6d68ca7e76eb34268c62a1f3]
class Postal_Address--><rect codeLine="39" fill="#FEFECE" filter="url(#f1ngdw85zqzplx)" height="97.1563" id="Postal_Address" style="stroke:#A80036;stroke-width:1.5;" width="171" x="352" y="622"/><ellipse cx="386.35" cy="640.9688" fill="#FF7700" rx="11" ry="11" style="stroke:#A80036;stroke-width:1.0;"/><path d="M385.9438,636.7813 L385.9438,644.7656 L386.6,644.7656 Q388.0375,644.7656 388.6469,643.8594 Q389.2719,642.9375 389.2719,640.7656 Q389.2719,638.5938 388.6469,637.6875 Q388.0375,636.7813 386.6,636.7813 L385.9438,636.7813 Z M383.4906,634.5781 L386.1156,634.5781 Q389.1469,634.5781 390.475,636.0313 Q391.8188,637.4688 391.8188,640.7656 Q391.8188,644.0625 390.475,645.5156 Q389.1469,646.9688 386.1156,646.9688 L383.4906,646.9688 L383.4906,634.5781 Z " fill="#000000"/><text fill="#000000" font-family="sans-serif" font-size="12" font-style="italic" lengthAdjust="spacing" textLength="74" x="415.65" y="638.1387">«DataType»</text><text fill="#000000" font-family="sans-serif" font-size="12" lengthAdjust="spacing" textLength="96" x="404.65" y="652.1074">Postal_Address</text><line style="stroke:#A80036;stroke-width:1.5;" x1="353" x2="522" y1="659.9375" y2="659.9375"/><text fill="#000000" font-family="sans-serif" font-size="11" lengthAdjust="spacing" textLength="149" x="358" y="674.1479">street : Multilingual_String</text><text fill="#000000" font-family="sans-serif" font-size="11" lengthAdjust="spacing" textLength="134" x="358" y="686.9526">city : Multilingual_String</text><text fill="#000000" font-family="sans-serif" font-size="11" lengthAdjust="spacing" textLength="159" x="358" y="699.7573">zipCode : Multilingual_String</text><text fill="#000000" font-family="sans-serif" font-size="11" lengthAdjust="spacing" textLength="98" x="358" y="712.562">country : Country</text><!--MD5=[deb4e1f6eb1e3c1256fdb830f96abfbb]
class Country--><rect codeLine="45" fill="#FEFECE" filter="url(#f1ngdw85zqzplx)" height="91.2188" id="Country" style="stroke:#A80036;stroke-width:1.5;" width="295" x="290" y="779"/><ellipse cx="409.25" cy="795" fill="#ADD1B2" rx="11" ry="11" style="stroke:#A80036;stroke-width:1.0;"/><path d="M412.2188,800.6406 Q411.6406,800.9375 411,801.0781 Q410.3594,801.2344 409.6563,801.2344 Q407.1563,801.2344 405.8281,799.5938 Q404.5156,797.9375 404.5156,794.8125 Q404.5156,791.6875 405.8281,790.0313 Q407.1563,788.375 409.6563,788.375 Q410.3594,788.375 411,788.5313 Q411.6563,788.6875 412.2188,788.9844 L412.2188,791.7031 Q411.5938,791.125 411,790.8594 Q410.4063,790.5781 409.7813,790.5781 Q408.4375,790.5781 407.75,791.6563 Q407.0625,792.7188 407.0625,794.8125 Q407.0625,796.9063 407.75,797.9844 Q408.4375,799.0469 409.7813,799.0469 Q410.4063,799.0469 411,798.7813 Q411.5938,798.5 412.2188,797.9219 L412.2188,800.6406 Z " fill="#000000"/><text fill="#000000" font-family="sans-serif" font-size="12" lengthAdjust="spacing" textLength="48" x="429.75" y="799.1543">Country</text><line style="stroke:#A80036;stroke-width:1.5;" x1="291" x2="584" y1="811" y2="811"/><text fill="#000000" font-family="sans-serif" font-size="11" lengthAdjust="spacing" textLength="147" x="310" y="825.2104">name : Multilingual_String</text><text fill="#000000" font-family="sans-serif" font-size="11" lengthAdjust="spacing" textLength="251" x="310" y="838.0151">iso3166alpha2Code : ISO3166_Alpha2_Code</text><polygon fill="none" points="301,842.6094,305,846.6094,301,850.6094,297,846.6094" style="stroke:#B38D22;stroke-width:1.0;"/><text fill="#000000" font-family="sans-serif" font-size="11" lengthAdjust="spacing" textLength="269" x="310" y="850.8198">iso3166NumericCode : ISO3166_Numeric_Code</text><polygon fill="none" points="301,855.4141,305,859.4141,301,863.4141,297,859.4141" style="stroke:#B38D22;stroke-width:1.0;"/><text fill="#000000" font-family="sans-serif" font-size="11" lengthAdjust="spacing" textLength="199" x="310" y="863.6245">euCountryCode : EU_Country_Code</text><!--MD5=[3b25461e5df73ababc6765bb9b0c47d3]
class Authorship--><rect codeLine="53" fill="#FEFECE" filter="url(#f1ngdw85zqzplx)" height="52.8047" id="Authorship" style="stroke:#A80036;stroke-width:1.5;" width="212" x="204.5" y="7"/><ellipse cx="272.25" cy="23" fill="#ADD1B2" rx="11" ry="11" style="stroke:#A80036;stroke-width:1.0;"/><path d="M275.2188,28.6406 Q274.6406,28.9375 274,29.0781 Q273.3594,29.2344 272.6563,29.2344 Q270.1563,29.2344 268.8281,27.5938 Q267.5156,25.9375 267.5156,22.8125 Q267.5156,19.6875 268.8281,18.0313 Q270.1563,16.375 272.6563,16.375 Q273.3594,16.375 274,16.5313 Q274.6563,16.6875 275.2188,16.9844 L275.2188,19.7031 Q274.5938,19.125 274,18.8594 Q273.4063,18.5781 272.7813,18.5781 Q271.4375,18.5781 270.75,19.6563 Q270.0625,20.7188 270.0625,22.8125 Q270.0625,24.9063 270.75,25.9844 Q271.4375,27.0469 272.7813,27.0469 Q273.4063,27.0469 274,26.7813 Q274.5938,26.5 275.2188,25.9219 L275.2188,28.6406 Z " fill="#000000"/><text fill="#000000" font-family="sans-serif" font-size="12" lengthAdjust="spacing" textLength="68" x="292.75" y="27.1543">Authorship</text><line style="stroke:#A80036;stroke-width:1.5;" x1="205.5" x2="415.5" y1="39" y2="39"/><text fill="#000000" font-family="sans-serif" font-size="11" lengthAdjust="spacing" textLength="200" x="210.5" y="53.2104">correspondingAuthorFlag : Boolean</text><path d="M6,21 L6,46.1328 A0,0 0 0 0 6,46.1328 L169,46.1328 A0,0 0 0 0 169,46.1328 L169,39 L204.39,33.5 L169,31 L169,31 L159,21 L6,21 A0,0 0 0 0 6,21 " fill="#FFFF00" filter="url(#f1ngdw85zqzplx)" style="stroke:#A80036;stroke-width:1.0;"/><path d="M159,21 L159,31 L169,31 L159,21 " fill="#FFFF00" style="stroke:#A80036;stroke-width:1.0;"/><text fill="#000000" font-family="sans-serif" font-size="13" lengthAdjust="spacing" textLength="142" x="12" y="38.0669">author == contributor</text><!--MD5=[b821bb113f9f55c728f1fbb8949cc3af]
class Contributorship--><rect codeLine="58" fill="#FEFECE" filter="url(#f1ngdw85zqzplx)" height="65.6094" id="Contributorship" style="stroke:#A80036;stroke-width:1.5;" width="131" x="309" y="187"/><ellipse cx="324.9" cy="203" fill="#ADD1B2" rx="11" ry="11" style="stroke:#A80036;stroke-width:1.0;"/><path d="M327.8688,208.6406 Q327.2906,208.9375 326.65,209.0781 Q326.0094,209.2344 325.3063,209.2344 Q322.8063,209.2344 321.4781,207.5938 Q320.1656,205.9375 320.1656,202.8125 Q320.1656,199.6875 321.4781,198.0313 Q322.8063,196.375 325.3063,196.375 Q326.0094,196.375 326.65,196.5313 Q327.3063,196.6875 327.8688,196.9844 L327.8688,199.7031 Q327.2438,199.125 326.65,198.8594 Q326.0563,198.5781 325.4313,198.5781 Q324.0875,198.5781 323.4,199.6563 Q322.7125,200.7188 322.7125,202.8125 Q322.7125,204.9063 323.4,205.9844 Q324.0875,207.0469 325.4313,207.0469 Q326.0563,207.0469 326.65,206.7813 Q327.2438,206.5 327.8688,205.9219 L327.8688,208.6406 Z " fill="#000000"/><text fill="#000000" font-family="sans-serif" font-size="12" lengthAdjust="spacing" textLength="97" x="339.1" y="207.1543">Contributorship</text><line style="stroke:#A80036;stroke-width:1.5;" x1="310" x2="439" y1="219" y2="219"/><text fill="#000000" font-family="sans-serif" font-size="11" lengthAdjust="spacing" textLength="116" x="315" y="233.2104">contacts : List&lt;URI&gt;</text><text fill="#000000" font-family="sans-serif" font-size="11" lengthAdjust="spacing" textLength="119" x="315" y="246.0151">displayName : String</text><!--MD5=[532fe005ca0bef0ad6b309c9c6480e22]
class Contribution_Statement--><rect codeLine="62" fill="#FEFECE" filter="url(#f1ngdw85zqzplx)" height="32" id="Contribution_Statement" style="stroke:#A80036;stroke-width:1.5;" width="181" x="530" y="336"/><ellipse cx="545" cy="352" fill="#ADD1B2" rx="11" ry="11" style="stroke:#A80036;stroke-width:1.0;"/><path d="M547.9688,357.6406 Q547.3906,357.9375 546.75,358.0781 Q546.1094,358.2344 545.4063,358.2344 Q542.9063,358.2344 541.5781,356.5938 Q540.2656,354.9375 540.2656,351.8125 Q540.2656,348.6875 541.5781,347.0313 Q542.9063,345.375 545.4063,345.375 Q546.1094,345.375 546.75,345.5313 Q547.4063,345.6875 547.9688,345.9844 L547.9688,348.7031 Q547.3438,348.125 546.75,347.8594 Q546.1563,347.5781 545.5313,347.5781 Q544.1875,347.5781 543.5,348.6563 Q542.8125,349.7188 542.8125,351.8125 Q542.8125,353.9063 543.5,354.9844 Q544.1875,356.0469 545.5313,356.0469 Q546.1563,356.0469 546.75,355.7813 Q547.3438,355.5 547.9688,354.9219 L547.9688,357.6406 Z " fill="#000000"/><text fill="#000000" font-family="sans-serif" font-size="12" lengthAdjust="spacing" textLength="149" x="559" y="356.1543">Contribution_Statement</text><!--MD5=[75e6ee6f0cee60576da1adad405695b7]
class Free_Text_Contribution_Statement--><rect codeLine="64" fill="#FEFECE" filter="url(#f1ngdw85zqzplx)" height="52.8047" id="Free_Text_Contribution_Statement" style="stroke:#A80036;stroke-width:1.5;" width="247" x="538" y="477"/><ellipse cx="553" cy="493" fill="#ADD1B2" rx="11" ry="11" style="stroke:#A80036;stroke-width:1.0;"/><path d="M555.9688,498.6406 Q555.3906,498.9375 554.75,499.0781 Q554.1094,499.2344 553.4063,499.2344 Q550.9063,499.2344 549.5781,497.5938 Q548.2656,495.9375 548.2656,492.8125 Q548.2656,489.6875 549.5781,488.0313 Q550.9063,486.375 553.4063,486.375 Q554.1094,486.375 554.75,486.5313 Q555.4063,486.6875 555.9688,486.9844 L555.9688,489.7031 Q555.3438,489.125 554.75,488.8594 Q554.1563,488.5781 553.5313,488.5781 Q552.1875,488.5781 551.5,489.6563 Q550.8125,490.7188 550.8125,492.8125 Q550.8125,494.9063 551.5,495.9844 Q552.1875,497.0469 553.5313,497.0469 Q554.1563,497.0469 554.75,496.7813 Q555.3438,496.5 555.9688,495.9219 L555.9688,498.6406 Z " fill="#000000"/><text fill="#000000" font-family="sans-serif" font-size="12" lengthAdjust="spacing" textLength="215" x="567" y="497.1543">Free_Text_Contribution_Statement</text><line style="stroke:#A80036;stroke-width:1.5;" x1="539" x2="784" y1="509" y2="509"/><text fill="#000000" font-family="sans-serif" font-size="11" lengthAdjust="spacing" textLength="173" x="544" y="523.2104">statement : Multilingual_String</text><!--MD5=[ddbff00b4911ad4b77d6aa32dd14d1d7]
class Affiliation_Statement--><rect codeLine="67" fill="#FEFECE" filter="url(#f1ngdw85zqzplx)" height="65.6094" id="Affiliation_Statement" style="stroke:#A80036;stroke-width:1.5;" width="161" x="294" y="319"/><ellipse cx="309" cy="335" fill="#ADD1B2" rx="11" ry="11" style="stroke:#A80036;stroke-width:1.0;"/><path d="M311.9688,340.6406 Q311.3906,340.9375 310.75,341.0781 Q310.1094,341.2344 309.4063,341.2344 Q306.9063,341.2344 305.5781,339.5938 Q304.2656,337.9375 304.2656,334.8125 Q304.2656,331.6875 305.5781,330.0313 Q306.9063,328.375 309.4063,328.375 Q310.1094,328.375 310.75,328.5313 Q311.4063,328.6875 311.9688,328.9844 L311.9688,331.7031 Q311.3438,331.125 310.75,330.8594 Q310.1563,330.5781 309.5313,330.5781 Q308.1875,330.5781 307.5,331.6563 Q306.8125,332.7188 306.8125,334.8125 Q306.8125,336.9063 307.5,337.9844 Q308.1875,339.0469 309.5313,339.0469 Q310.1563,339.0469 310.75,338.7813 Q311.3438,338.5 311.9688,337.9219 L311.9688,340.6406 Z " fill="#000000"/><text fill="#000000" font-family="sans-serif" font-size="12" lengthAdjust="spacing" textLength="129" x="323" y="339.1543">Affiliation_Statement</text><line style="stroke:#A80036;stroke-width:1.5;" x1="295" x2="454" y1="351" y2="351"/><text fill="#000000" font-family="sans-serif" font-size="11" lengthAdjust="spacing" textLength="138" x="300" y="365.2104">displayAffiliation : String</text><text fill="#000000" font-family="sans-serif" font-size="11" lengthAdjust="spacing" textLength="147" x="300" y="378.0151">address : Postal_Address</text><!--MD5=[1c2d5a11bdff8297fbebaa44435072c9]
link Postal_Address to Country--><path codeLine="51" d="M437.5,731.18 C437.5,731.18 437.5,754.7 437.5,765.5 " fill="none" id="Postal_Address-Country" style="stroke:#A80036;stroke-width:1.0;"/><polygon fill="#A80036" points="437.5,778.84,441.5,769.84,437.5,773.84,433.5,769.84,437.5,778.84" style="stroke:#A80036;stroke-width:1.0;"/><line style="stroke:#A80036;stroke-width:1.0;" x1="437.5" x2="437.5" y1="773.84" y2="765.84"/><polygon fill="#FFFFFF" points="437.5,719.18,433.5,725.18,437.5,731.18,441.5,725.18,437.5,719.18" style="stroke:#A80036;stroke-width:1.0;"/><text fill="#000000" font-family="sans-serif" font-size="13" lengthAdjust="spacing" textLength="48" x="385.975" y="768.0927">country</text><!--MD5=[af6b79ce3af62c8c5ee779db9fbc8cf6]
link Affiliation_Statement to Postal_Address--><path codeLine="74" d="M409.6,385.33 C424.67,401.58 440.6,422.57 448.5,445 C468.33,501.29 460.54,570.44 451.06,617 " fill="none" id="Affiliation_Statement-to-Postal_Address" style="stroke:#A80036;stroke-width:1.0;stroke-dasharray:7.0,7.0;"/><polygon fill="#A80036" points="450.01,622,455.7513,613.9976,451.0235,617.1038,447.9173,612.376,450.01,622" style="stroke:#A80036;stroke-width:1.0;"/><text fill="#000000" font-family="sans-serif" font-size="13" lengthAdjust="spacing" textLength="91" x="458.5302" y="610.8402">postalAddress</text><!--MD5=[fe03d2c8e9644e7513bef3a6fb6291e6]
reverse link Affiliation_Statement to Organisation_Unit--><path codeLine="75" d="M355.77,398 C352.52,412.73 349.76,429.31 347.92,444.84 " fill="none" id="Affiliation_Statement-backto-Organisation_Unit" style="stroke:#A80036;stroke-width:1.0;"/><polygon fill="#FFFFFF" points="358.88,385.07,353.5858,389.9661,356.069,396.7361,361.3632,391.84,358.88,385.07" style="stroke:#A80036;stroke-width:1.0;"/><text fill="#000000" font-family="sans-serif" font-size="13" lengthAdjust="spacing" textLength="75" x="267.9134" y="433.8622">0..1 orgUnit</text><!--MD5=[fe03d2c8e9644e7513bef3a6fb6291e6]
reverse link Affiliation_Statement to Organisation_Unit--><path codeLine="76" d="M380.04,398.45 C378.81,413.07 376.5,429.47 373.55,444.84 " fill="none" id="Affiliation_Statement-backto-Organisation_Unit-1" style="stroke:#A80036;stroke-width:1.0;"/><polygon fill="#FFFFFF" points="380.88,385.07,376.5123,390.8079,380.129,397.0465,384.4967,391.3086,380.88,385.07" style="stroke:#A80036;stroke-width:1.0;"/><text fill="#000000" font-family="sans-serif" font-size="13" lengthAdjust="spacing" textLength="91" x="381.7827" y="433.8622">0..1 institution</text><!--MD5=[d9b08b031298a036c8fb3d44263a5204]
reverse link Affiliation_Statement to Person--><path codeLine="77" d="M319.6,393.04 C286.33,417.3 244.46,447.83 213.4,470.48 " fill="none" id="Affiliation_Statement-backto-Person" style="stroke:#A80036;stroke-width:1.0;"/><polygon fill="#FFFFFF" points="330.52,385.07,323.3153,385.3734,320.8243,392.1406,328.029,391.8372,330.52,385.07" style="stroke:#A80036;stroke-width:1.0;"/><text fill="#000000" font-family="sans-serif" font-size="13" lengthAdjust="spacing" textLength="44" x="173.9169" y="459.2436">person</text><!--MD5=[21f8b3605054312288eb3132d9b75edc]
reverse link Contribution_Statement to Free_Text_Contribution_Statement--><path codeLine="78" d="M630.04,387.8 C637.51,415.03 647.73,452.28 654.46,476.85 " fill="none" id="Contribution_Statement-backto-Free_Text_Contribution_Statement" style="stroke:#A80036;stroke-width:1.0;"/><polygon fill="none" points="623.2,389.3,624.66,368.16,636.7,385.59,623.2,389.3" style="stroke:#A80036;stroke-width:1.0;"/><!--MD5=[1f014480a3afa8c0325c3be3fbf7ad6f]
link Contributorship to Document--><path codeLine="79" d="M440.12,220 C447.42,220 454.72,220 462.02,220 " fill="none" id="Contributorship-to-Document" style="stroke:#A80036;stroke-width:1.0;"/><polygon fill="#A80036" points="475.16,220,469.16,216,463.16,220,469.16,224,475.16,220" style="stroke:#A80036;stroke-width:1.0;"/><text fill="#000000" font-family="sans-serif" font-size="13" lengthAdjust="spacing" textLength="23" x="448.073" y="216.3204">0..*</text><!--MD5=[504de05de5dc33320621ff1be2e6e6ff]
reverse link Agent to Contributorship--><path codeLine="80" d="M287.14,220 C294.41,220 301.69,220 308.97,220 " fill="none" id="Agent-backto-Contributorship" style="stroke:#A80036;stroke-width:1.0;"/><polygon fill="#FFFFFF" points="274.04,220,280.04,224,286.04,220,280.04,216,274.04,220" style="stroke:#A80036;stroke-width:1.0;"/><text fill="#000000" font-family="sans-serif" font-size="13" lengthAdjust="spacing" textLength="98" x="201.5319" y="201.6568">0..1 contributor</text><text fill="#000000" font-family="sans-serif" font-size="13" lengthAdjust="spacing" textLength="23" x="278.0263" y="232.8673">0..*</text><!--MD5=[d50a95e3ddb5a3ed983c7b2ff4649bd6]
reverse link Contributorship to Affiliation_Statement--><path codeLine="81" d="M374.5,266.18 C374.5,283.51 374.5,302.91 374.5,318.78 " fill="none" id="Contributorship-backto-Affiliation_Statement" style="stroke:#A80036;stroke-width:1.0;"/><polygon fill="#FFFFFF" points="374.5,253.13,370.5,259.13,374.5,265.13,378.5,259.13,374.5,253.13" style="stroke:#A80036;stroke-width:1.0;"/><text fill="#000000" font-family="sans-serif" font-size="13" lengthAdjust="spacing" textLength="91" x="274.5422" y="307.8817">0..* affiliations</text><!--MD5=[aa65b9840c4d4bb6ada386eeadadc345]
reverse link Contributorship to Contribution_Statement--><path codeLine="82" d="M447.02,259.32 C495.51,284.95 556.66,317.26 591.9,335.88 " fill="none" id="Contributorship-backto-Contribution_Statement" style="stroke:#A80036;stroke-width:1.0;"/><polygon fill="#A80036" points="435.31,253.13,438.7452,259.4703,445.919,258.738,442.4838,252.3977,435.31,253.13" style="stroke:#A80036;stroke-width:1.0;"/><text fill="#000000" font-family="sans-serif" font-size="13" lengthAdjust="spacing" textLength="179" x="612.8344" y="324.8503">0..* contributionStatements</text><!--MD5=[db20fd804d8595e73b6b8c99fdd1338c]
link Authorship to Textual_Document--><path codeLine="84" d="M416.74,33.5 C424,33.5 431.26,33.5 438.51,33.5 " fill="none" id="Authorship-to-Textual_Document" style="stroke:#A80036;stroke-width:1.0;"/><polygon fill="#A80036" points="451.58,33.5,445.58,29.5,439.58,33.5,445.58,37.5,451.58,33.5" style="stroke:#A80036;stroke-width:1.0;"/><!--MD5=[e74e4958a1d7eb99db8e977d8859ba66]
link Authorship to Contributorship--><path codeLine="85" d="M319.4,60.15 C328.99,87.8 344.5,132.53 356.63,167.49 " fill="none" id="Authorship-to-Contributorship" style="stroke:#A80036;stroke-width:1.0;"/><polygon fill="none" points="363.37,165.55,363.31,186.74,350.14,170.14,363.37,165.55" style="stroke:#A80036;stroke-width:1.0;"/><!--MD5=[49125a4ba45432b051dcbcd9e53401d7]
link Authorship to Agent--><path codeLine="86" d="M300.63,60.15 C287.32,94.75 263.71,156.09 250.06,191.57 " fill="none" id="Authorship-to-Agent" style="stroke:#A80036;stroke-width:1.0;"/><polygon fill="#FFFFFF" points="245.35,203.79,251.2376,199.6263,249.6586,192.5902,243.771,196.7539,245.35,203.79" style="stroke:#A80036;stroke-width:1.0;"/><text fill="#000000" font-family="sans-serif" font-size="13" lengthAdjust="spacing" textLength="23" x="272.9553" y="79.7231">0..*</text><text fill="#000000" font-family="sans-serif" font-size="13" lengthAdjust="spacing" textLength="70" x="231.169" y="182.2724">0..1 author</text><!--MD5=[5d8901ce694eb85aefa78b7d82d9f6f6]
link Person to Person_Name--><path codeLine="88" d="M169.5,536.71 C169.5,561.34 169.5,595.64 169.5,623.22 " fill="none" id="Person-to-Person_Name" style="stroke:#A80036;stroke-width:1.0;stroke-dasharray:7.0,7.0;"/><polygon fill="#A80036" points="169.5,628.28,173.5,619.28,169.5,623.28,165.5,619.28,169.5,628.28" style="stroke:#A80036;stroke-width:1.0;"/><text fill="#000000" font-family="sans-serif" font-size="13" lengthAdjust="spacing" textLength="37" x="129.5516" y="617.4053">name</text><!--MD5=[de96f77e660762cb21a195b4097c3876]
reverse link Agent to Person--><path codeLine="89" d="M230.51,255.93 C225.71,274.62 219.74,298.06 214.5,319 C201.25,371.98 186.2,433.67 177.29,470.32 " fill="none" id="Agent-backto-Person" style="stroke:#A80036;stroke-width:1.0;"/><polygon fill="none" points="223.8,253.89,235.56,236.27,237.36,257.38,223.8,253.89" style="stroke:#A80036;stroke-width:1.0;"/><!--MD5=[521d3f26cc3887ed8885a4c0e03f9952]
reverse link Agent to Organisation_Unit--><path codeLine="90" d="M243.85,256.23 C248.87,290.19 258.8,342.54 276.5,385 C285.07,405.55 297.16,426.51 309.15,444.92 " fill="none" id="Agent-backto-Organisation_Unit" style="stroke:#A80036;stroke-width:1.0;"/><polygon fill="none" points="236.86,256.76,241.13,236,250.73,254.89,236.86,256.76" style="stroke:#A80036;stroke-width:1.0;"/><!--MD5=[15e2f573152931505f3d87c1c2d22c4e]
link Organisation_Unit to Postal_Address--><path codeLine="91" d="M381.58,562.21 C390.88,580.05 401.06,599.59 410.16,617.05 " fill="none" id="Organisation_Unit-to-Postal_Address" style="stroke:#A80036;stroke-width:1.0;stroke-dasharray:7.0,7.0;"/><polygon fill="#A80036" points="412.7,621.92,412.0767,612.0909,410.3842,617.4886,404.9865,615.7961,412.7,621.92" style="stroke:#A80036;stroke-width:1.0;"/><text fill="#000000" font-family="sans-serif" font-size="13" lengthAdjust="spacing" textLength="51" x="354.6266" y="611.099">address</text><!--MD5=[8d9b790276a1e6c61f0b091de629785c]
link Textual_Document to Document--><path codeLine="93" d="M527.46,49.6 C530.6,73.67 536.88,122.01 541.94,160.9 " fill="none" id="Textual_Document-to-Document" style="stroke:#A80036;stroke-width:1.0;"/><polygon fill="none" points="548.89,160.03,544.53,180.77,535.01,161.84,548.89,160.03" style="stroke:#A80036;stroke-width:1.0;"/><!--MD5=[0df3595c7a152ac097b4d28b9398e692]
reverse link Textual_Document to Textual_Document_Accessibility_Specification--><path codeLine="94" d="M612.27,33.5 C619.63,33.5 626.99,33.5 634.35,33.5 " fill="none" id="Textual_Document-backto-Textual_Document_Accessibility_Specification" style="stroke:#A80036;stroke-width:1.0;"/><polygon fill="#A80036" points="599.01,33.5,605.01,37.5,611.01,33.5,605.01,29.5,599.01,33.5" style="stroke:#A80036;stroke-width:1.0;"/><text fill="#000000" font-family="sans-serif" font-size="13" lengthAdjust="spacing" textLength="110" x="516.0638" y="59.8662">0..* accessRights</text><!--MD5=[2c23d09c80fbfac9dc5109bf504b493e]
link Textual_Document to Agent--><path codeLine="95" d="M500.19,49.53 C456.85,75.45 365.91,130.61 291.5,181 C280.76,188.27 269.08,196.76 259.51,203.86 " fill="none" id="Textual_Document-Agent" style="stroke:#A80036;stroke-width:1.0;"/><text fill="#000000" font-family="sans-serif" font-size="13" lengthAdjust="spacing" textLength="159" x="518.8178" y="69.7082">0..* authoredDocuments</text><text fill="#000000" font-family="sans-serif" font-size="13" lengthAdjust="spacing" textLength="76" x="177.3259" y="192.8235">0..* authors</text><!--MD5=[e9b22431b10209c2410f2619ea4c89f8]
@startuml
	!startsub common
	!define datatype(x) class x << (D,#FF7700) DataType>>
	hide empty members
	skinparam BoxPadding 120
	!endsub

    !startsub Contributorship
    class "Document"{
        doi : DOI
        title : Multilingual_String
        publicationDate : Date
    }
    !endsub
    class "Textual_Document"{
    }
    class "Textual_Document_Accessibility_Specification"{
    }
    !startsub Agent
    class "Agent"{

    }
    class "Organisation_Unit"{
        name : Multilingual_String
        acronym : String
        address : Postal_Address
        rorId : ROR_Id
        webSiteURL : URL
        email : URL
    }
    class "Person"{
        name : Person_Name
        orcidId : ORCID_iD
    }
    datatype("Person_Name") {
        firstNames : Multilingual_String
        familyNames : Multilingual_String
        otherNames : Multilingual_String
    } 
    datatype("Postal_Address") {
        street : Multilingual_String 
        city : Multilingual_String
        zipCode : Multilingual_String 
        country : Country
    }
    class "Country"{
        name : Multilingual_String
        iso3166alpha2Code : ISO3166_Alpha2_Code
        # iso3166NumericCode : ISO3166_Numeric_Code
        # euCountryCode : EU_Country_Code
    }
	"Postal_Address" o- -> "country" "Country"
    !endsub
    class "Authorship"{
        correspondingAuthorFlag : Boolean 
    }
    note left #yellow: author == contributor
    !startsub Contributorship
    class "Contributorship"{
        contacts : List<URI> 
        displayName : String
    }
    class "Contribution_Statement"{
    }
    class "Free_Text_Contribution_Statement"{
        statement : Multilingual_String
    }
    class "Affiliation_Statement"{
        displayAffiliation : String 
        address : Postal_Address
    }
    !endsub

!startsub Contributorship
"Affiliation_Statement" ..> "postalAddress" "Postal_Address"
"Affiliation_Statement" o- - "0..1 orgUnit" "Organisation_Unit"
"Affiliation_Statement" o- - "0..1 institution" "Organisation_Unit"
"Affiliation_Statement" o- - "person" "Person"
"Contribution_Statement" <|- - "Free_Text_Contribution_Statement"
"Contributorship" "0..*" - -r- -* "Document"
"Contributorship" "0..*" - -l- -o "0..1 contributor" "Agent"
"Contributorship" o- - "0..* affiliations" "Affiliation_Statement"
"Contributorship" *- - "0..* contributionStatements" "Contribution_Statement"
!endsub
"Authorship" -r-* "Textual_Document"
"Contributorship" <|-u- "Authorship"
"Authorship" "0..*" - -o "0..1 author" "Agent"
!startsub Agent
"Person" ..> "name" "Person_Name"
"Agent" <|- - "Person"
"Agent" <|- - "Organisation_Unit"
"Organisation_Unit" ..> "address" "Postal_Address"
!endsub
"Document" <|-u- "Textual_Document"
"Textual_Document" *-r- "0..* accessRights" "Textual_Document_Accessibility_Specification"
"Textual_Document" "0..* authoredDocuments" - - - "0..* authors" "Agent"
@enduml

@startuml
	hide empty members
	skinparam BoxPadding 120

    class "Document"{
        doi : DOI
        title : Multilingual_String
        publicationDate : Date
    }
    class "Textual_Document"{
    }
    class "Textual_Document_Accessibility_Specification"{
    }
    class "Agent"{

    }
    class "Organisation_Unit"{
        name : Multilingual_String
        acronym : String
        address : Postal_Address
        rorId : ROR_Id
        webSiteURL : URL
        email : URL
    }
    class "Person"{
        name : Person_Name
        orcidId : ORCID_iD
    }
    class Person_Name << (D,#FF7700) DataType>> {
        firstNames : Multilingual_String
        familyNames : Multilingual_String
        otherNames : Multilingual_String
    } 
    class Postal_Address << (D,#FF7700) DataType>> {
        street : Multilingual_String 
        city : Multilingual_String
        zipCode : Multilingual_String 
        country : Country
    }
    class "Country"{
        name : Multilingual_String
        iso3166alpha2Code : ISO3166_Alpha2_Code
        # iso3166NumericCode : ISO3166_Numeric_Code
        # euCountryCode : EU_Country_Code
    }
	"Postal_Address" o- -> "country" "Country"
    class "Authorship"{
        correspondingAuthorFlag : Boolean 
    }
    note left #yellow: author == contributor
    class "Contributorship"{
        contacts : List<URI> 
        displayName : String
    }
    class "Contribution_Statement"{
    }
    class "Free_Text_Contribution_Statement"{
        statement : Multilingual_String
    }
    class "Affiliation_Statement"{
        displayAffiliation : String 
        address : Postal_Address
    }

"Affiliation_Statement" ..> "postalAddress" "Postal_Address"
"Affiliation_Statement" o- - "0..1 orgUnit" "Organisation_Unit"
"Affiliation_Statement" o- - "0..1 institution" "Organisation_Unit"
"Affiliation_Statement" o- - "person" "Person"
"Contribution_Statement" <|- - "Free_Text_Contribution_Statement"
"Contributorship" "0..*" - -r- -* "Document"
"Contributorship" "0..*" - -l- -o "0..1 contributor" "Agent"
"Contributorship" o- - "0..* affiliations" "Affiliation_Statement"
"Contributorship" *- - "0..* contributionStatements" "Contribution_Statement"
"Authorship" -r-* "Textual_Document"
"Contributorship" <|-u- "Authorship"
"Authorship" "0..*" - -o "0..1 author" "Agent"
"Person" ..> "name" "Person_Name"
"Agent" <|- - "Person"
"Agent" <|- - "Organisation_Unit"
"Organisation_Unit" ..> "address" "Postal_Address"
"Document" <|-u- "Textual_Document"
"Textual_Document" *-r- "0..* accessRights" "Textual_Document_Accessibility_Specification"
"Textual_Document" "0..* authoredDocuments" - - - "0..* authors" "Agent"
@enduml

PlantUML version 1.2021.8(Sat Jun 26 08:20:59 UTC 2021)
(GPL source distribution)
Java Runtime: OpenJDK Runtime Environment
JVM: OpenJDK 64-Bit Server VM
Default Encoding: UTF-8
Language: en
Country: null
--></g></svg>