<?xml version="1.0" encoding="UTF-8" standalone="no"?><svg xmlns="http://www.w3.org/2000/svg" xmlns:xlink="http://www.w3.org/1999/xlink" contentScriptType="application/ecmascript" contentStyleType="text/css" height="896px" preserveAspectRatio="none" style="width:741px;height:896px;background:#FFFFFF;" version="1.1" viewBox="0 0 741 896" width="741px" zoomAndPan="magnify"><defs><filter height="300%" id="f3167l3xpzref" width="300%" x="-1" y="-1"><feGaussianBlur result="blurOut" stdDeviation="2.0"/><feColorMatrix in="blurOut" result="blurOut2" type="matrix" values="0 0 0 0 0 0 0 0 0 0 0 0 0 0 0 0 0 0 .4 0"/><feOffset dx="4.0" dy="4.0" in="blurOut2" result="blurOut3"/><feBlend in="SourceGraphic" in2="blurOut3" mode="normal"/></filter></defs><g><!--MD5=[0ce99cd3eae675f87caad727cac20a4b]
cluster CERIF core--><polygon fill="#DDDDDD" filter="url(#f3167l3xpzref)" points="16,6,106,6,113,28.2969,720,28.2969,720,889,16,889,16,6" style="stroke:#000000;stroke-width:1.5;"/><line style="stroke:#000000;stroke-width:1.5;" x1="16" x2="113" y1="28.2969" y2="28.2969"/><text fill="#000000" font-family="sans-serif" font-size="14" font-weight="bold" lengthAdjust="spacing" textLength="84" x="20" y="20.9951">CERIF core</text><!--MD5=[59b530d44ae785dc18db921986a9c15c]
class Document--><rect codeLine="3" fill="#FEFECE" filter="url(#f3167l3xpzref)" height="86.4141" id="Document" style="stroke:#A80036;stroke-width:1.5;" width="140" x="32" y="176"/><ellipse cx="68.15" cy="192" fill="#ADD1B2" rx="11" ry="11" style="stroke:#A80036;stroke-width:1.0;"/><path d="M70.4938,187.6719 C69.5563,187.2344 68.9625,187.0938 68.0875,187.0938 C65.4625,187.0938 63.4625,189.1719 63.4625,191.8906 L63.4625,193.0156 C63.4625,195.5938 65.5719,197.4844 68.4625,197.4844 C69.6813,197.4844 70.8375,197.1875 71.5875,196.6406 C72.1656,196.2344 72.4938,195.7813 72.4938,195.3906 C72.4938,194.9375 72.1031,194.5469 71.6344,194.5469 C71.4156,194.5469 71.2125,194.625 71.025,194.8125 C70.5719,195.2969 70.5719,195.2969 70.3844,195.3906 C69.9625,195.6563 69.275,195.7813 68.5094,195.7813 C66.4625,195.7813 65.1656,194.6875 65.1656,192.9844 L65.1656,191.8906 C65.1656,190.1094 66.4156,188.7969 68.15,188.7969 C68.7281,188.7969 69.3375,188.9531 69.8063,189.2031 C70.2906,189.4844 70.4625,189.7031 70.5563,190.1094 C70.6188,190.5156 70.65,190.6406 70.7906,190.7656 C70.9313,190.9063 71.1656,191.0156 71.3844,191.0156 C71.65,191.0156 71.9156,190.875 72.0875,190.6563 C72.1969,190.5 72.2281,190.3125 72.2281,189.8906 L72.2281,188.4688 C72.2281,188.0313 72.2125,187.9063 72.1188,187.75 C71.9625,187.4844 71.6813,187.3438 71.3844,187.3438 C71.0875,187.3438 70.8844,187.4375 70.6656,187.75 L70.4938,187.6719 Z " fill="#000000"/><text fill="#000000" font-family="sans-serif" font-size="12" lengthAdjust="spacing" textLength="61" x="86.85" y="196.1543">Document</text><line style="stroke:#A80036;stroke-width:1.5;" x1="33" x2="171" y1="208" y2="208"/><text fill="#000000" font-family="sans-serif" font-size="11" lengthAdjust="spacing" textLength="128" x="38" y="222.2104">Multilingual_String title</text><text fill="#000000" font-family="sans-serif" font-size="11" lengthAdjust="spacing" textLength="121" x="38" y="235.0151">Date publicationDate</text><text fill="#000000" font-family="sans-serif" font-size="11" lengthAdjust="spacing" textLength="81" x="38" y="247.8198">DOI_Type DOI</text><line style="stroke:#A80036;stroke-width:1.5;" x1="33" x2="171" y1="254.4141" y2="254.4141"/><!--MD5=[406eabaf9672e74804bc505a9777bf8f]
class Textual Document--><rect codeLine="9" fill="#FEFECE" filter="url(#f3167l3xpzref)" height="48" id="Textual Document" style="stroke:#A80036;stroke-width:1.5;" width="140" x="32" y="389.5"/><ellipse cx="47" cy="405.5" fill="#ADD1B2" rx="11" ry="11" style="stroke:#A80036;stroke-width:1.0;"/><path d="M49.3438,401.1719 C48.4063,400.7344 47.8125,400.5938 46.9375,400.5938 C44.3125,400.5938 42.3125,402.6719 42.3125,405.3906 L42.3125,406.5156 C42.3125,409.0938 44.4219,410.9844 47.3125,410.9844 C48.5313,410.9844 49.6875,410.6875 50.4375,410.1406 C51.0156,409.7344 51.3438,409.2813 51.3438,408.8906 C51.3438,408.4375 50.9531,408.0469 50.4844,408.0469 C50.2656,408.0469 50.0625,408.125 49.875,408.3125 C49.4219,408.7969 49.4219,408.7969 49.2344,408.8906 C48.8125,409.1563 48.125,409.2813 47.3594,409.2813 C45.3125,409.2813 44.0156,408.1875 44.0156,406.4844 L44.0156,405.3906 C44.0156,403.6094 45.2656,402.2969 47,402.2969 C47.5781,402.2969 48.1875,402.4531 48.6563,402.7031 C49.1406,402.9844 49.3125,403.2031 49.4063,403.6094 C49.4688,404.0156 49.5,404.1406 49.6406,404.2656 C49.7813,404.4063 50.0156,404.5156 50.2344,404.5156 C50.5,404.5156 50.7656,404.375 50.9375,404.1563 C51.0469,404 51.0781,403.8125 51.0781,403.3906 L51.0781,401.9688 C51.0781,401.5313 51.0625,401.4063 50.9688,401.25 C50.8125,400.9844 50.5313,400.8438 50.2344,400.8438 C49.9375,400.8438 49.7344,400.9375 49.5156,401.25 L49.3438,401.1719 Z " fill="#000000"/><text fill="#000000" font-family="sans-serif" font-size="12" lengthAdjust="spacing" textLength="108" x="61" y="409.6543">Textual Document</text><line style="stroke:#A80036;stroke-width:1.5;" x1="33" x2="171" y1="421.5" y2="421.5"/><line style="stroke:#A80036;stroke-width:1.5;" x1="33" x2="171" y1="429.5" y2="429.5"/><!--MD5=[05b685b8e32e000146d4e5203ae16c64]
class Textual Document Accessibility Specification--><rect codeLine="11" fill="#FEFECE" filter="url(#f3167l3xpzref)" height="48" id="Textual Document Accessibility Specification" style="stroke:#A80036;stroke-width:1.5;" width="300" x="32" y="511.5"/><ellipse cx="47" cy="527.5" fill="#ADD1B2" rx="11" ry="11" style="stroke:#A80036;stroke-width:1.0;"/><path d="M49.3438,523.1719 C48.4063,522.7344 47.8125,522.5938 46.9375,522.5938 C44.3125,522.5938 42.3125,524.6719 42.3125,527.3906 L42.3125,528.5156 C42.3125,531.0938 44.4219,532.9844 47.3125,532.9844 C48.5313,532.9844 49.6875,532.6875 50.4375,532.1406 C51.0156,531.7344 51.3438,531.2813 51.3438,530.8906 C51.3438,530.4375 50.9531,530.0469 50.4844,530.0469 C50.2656,530.0469 50.0625,530.125 49.875,530.3125 C49.4219,530.7969 49.4219,530.7969 49.2344,530.8906 C48.8125,531.1563 48.125,531.2813 47.3594,531.2813 C45.3125,531.2813 44.0156,530.1875 44.0156,528.4844 L44.0156,527.3906 C44.0156,525.6094 45.2656,524.2969 47,524.2969 C47.5781,524.2969 48.1875,524.4531 48.6563,524.7031 C49.1406,524.9844 49.3125,525.2031 49.4063,525.6094 C49.4688,526.0156 49.5,526.1406 49.6406,526.2656 C49.7813,526.4063 50.0156,526.5156 50.2344,526.5156 C50.5,526.5156 50.7656,526.375 50.9375,526.1563 C51.0469,526 51.0781,525.8125 51.0781,525.3906 L51.0781,523.9688 C51.0781,523.5313 51.0625,523.4063 50.9688,523.25 C50.8125,522.9844 50.5313,522.8438 50.2344,522.8438 C49.9375,522.8438 49.7344,522.9375 49.5156,523.25 L49.3438,523.1719 Z " fill="#000000"/><text fill="#000000" font-family="sans-serif" font-size="12" lengthAdjust="spacing" textLength="268" x="61" y="531.6543">Textual Document Accessibility Specification</text><line style="stroke:#A80036;stroke-width:1.5;" x1="33" x2="331" y1="543.5" y2="543.5"/><line style="stroke:#A80036;stroke-width:1.5;" x1="33" x2="331" y1="551.5" y2="551.5"/><!--MD5=[9d44916250b776386006c440668bcfbb]
class Agent--><rect codeLine="14" fill="#FEFECE" filter="url(#f3167l3xpzref)" height="48" id="Agent" style="stroke:#A80036;stroke-width:1.5;" width="67" x="367.5" y="511.5"/><ellipse cx="382.5" cy="527.5" fill="#ADD1B2" rx="11" ry="11" style="stroke:#A80036;stroke-width:1.0;"/><path d="M384.8438,523.1719 C383.9063,522.7344 383.3125,522.5938 382.4375,522.5938 C379.8125,522.5938 377.8125,524.6719 377.8125,527.3906 L377.8125,528.5156 C377.8125,531.0938 379.9219,532.9844 382.8125,532.9844 C384.0313,532.9844 385.1875,532.6875 385.9375,532.1406 C386.5156,531.7344 386.8438,531.2813 386.8438,530.8906 C386.8438,530.4375 386.4531,530.0469 385.9844,530.0469 C385.7656,530.0469 385.5625,530.125 385.375,530.3125 C384.9219,530.7969 384.9219,530.7969 384.7344,530.8906 C384.3125,531.1563 383.625,531.2813 382.8594,531.2813 C380.8125,531.2813 379.5156,530.1875 379.5156,528.4844 L379.5156,527.3906 C379.5156,525.6094 380.7656,524.2969 382.5,524.2969 C383.0781,524.2969 383.6875,524.4531 384.1563,524.7031 C384.6406,524.9844 384.8125,525.2031 384.9063,525.6094 C384.9688,526.0156 385,526.1406 385.1406,526.2656 C385.2813,526.4063 385.5156,526.5156 385.7344,526.5156 C386,526.5156 386.2656,526.375 386.4375,526.1563 C386.5469,526 386.5781,525.8125 386.5781,525.3906 L386.5781,523.9688 C386.5781,523.5313 386.5625,523.4063 386.4688,523.25 C386.3125,522.9844 386.0313,522.8438 385.7344,522.8438 C385.4375,522.8438 385.2344,522.9375 385.0156,523.25 L384.8438,523.1719 Z " fill="#000000"/><text fill="#000000" font-family="sans-serif" font-size="12" lengthAdjust="spacing" textLength="35" x="396.5" y="531.6543">Agent</text><line style="stroke:#A80036;stroke-width:1.5;" x1="368.5" x2="433.5" y1="543.5" y2="543.5"/><line style="stroke:#A80036;stroke-width:1.5;" x1="368.5" x2="433.5" y1="551.5" y2="551.5"/><!--MD5=[fd289f43f02ef8bd75c20da9b3dee237]
class Organisation Unit--><rect codeLine="18" fill="#FEFECE" filter="url(#f3167l3xpzref)" height="60.8047" id="Organisation Unit" style="stroke:#A80036;stroke-width:1.5;" width="151" x="381.5" y="639.5"/><ellipse cx="403.7" cy="655.5" fill="#ADD1B2" rx="11" ry="11" style="stroke:#A80036;stroke-width:1.0;"/><path d="M406.0438,651.1719 C405.1063,650.7344 404.5125,650.5938 403.6375,650.5938 C401.0125,650.5938 399.0125,652.6719 399.0125,655.3906 L399.0125,656.5156 C399.0125,659.0938 401.1219,660.9844 404.0125,660.9844 C405.2313,660.9844 406.3875,660.6875 407.1375,660.1406 C407.7156,659.7344 408.0438,659.2813 408.0438,658.8906 C408.0438,658.4375 407.6531,658.0469 407.1844,658.0469 C406.9656,658.0469 406.7625,658.125 406.575,658.3125 C406.1219,658.7969 406.1219,658.7969 405.9344,658.8906 C405.5125,659.1563 404.825,659.2813 404.0594,659.2813 C402.0125,659.2813 400.7156,658.1875 400.7156,656.4844 L400.7156,655.3906 C400.7156,653.6094 401.9656,652.2969 403.7,652.2969 C404.2781,652.2969 404.8875,652.4531 405.3563,652.7031 C405.8406,652.9844 406.0125,653.2031 406.1063,653.6094 C406.1688,654.0156 406.2,654.1406 406.3406,654.2656 C406.4813,654.4063 406.7156,654.5156 406.9344,654.5156 C407.2,654.5156 407.4656,654.375 407.6375,654.1563 C407.7469,654 407.7781,653.8125 407.7781,653.3906 L407.7781,651.9688 C407.7781,651.5313 407.7625,651.4063 407.6688,651.25 C407.5125,650.9844 407.2313,650.8438 406.9344,650.8438 C406.6375,650.8438 406.4344,650.9375 406.2156,651.25 L406.0438,651.1719 Z " fill="#000000"/><text fill="#000000" font-family="sans-serif" font-size="12" lengthAdjust="spacing" textLength="103" x="419.3" y="659.6543">Organisation Unit</text><line style="stroke:#A80036;stroke-width:1.5;" x1="382.5" x2="531.5" y1="671.5" y2="671.5"/><text fill="#000000" font-family="sans-serif" font-size="11" lengthAdjust="spacing" textLength="139" x="387.5" y="685.7104">Multilingual_String name</text><line style="stroke:#A80036;stroke-width:1.5;" x1="382.5" x2="531.5" y1="692.3047" y2="692.3047"/><!--MD5=[09ce52be0ee7de43c61b6e2d59bf108b]
class Person--><rect codeLine="21" fill="#FEFECE" filter="url(#f3167l3xpzref)" height="60.8047" id="Person" style="stroke:#A80036;stroke-width:1.5;" width="107" x="239.5" y="639.5"/><ellipse cx="269.8" cy="655.5" fill="#ADD1B2" rx="11" ry="11" style="stroke:#A80036;stroke-width:1.0;"/><path d="M272.1438,651.1719 C271.2063,650.7344 270.6125,650.5938 269.7375,650.5938 C267.1125,650.5938 265.1125,652.6719 265.1125,655.3906 L265.1125,656.5156 C265.1125,659.0938 267.2219,660.9844 270.1125,660.9844 C271.3313,660.9844 272.4875,660.6875 273.2375,660.1406 C273.8156,659.7344 274.1438,659.2813 274.1438,658.8906 C274.1438,658.4375 273.7531,658.0469 273.2844,658.0469 C273.0656,658.0469 272.8625,658.125 272.675,658.3125 C272.2219,658.7969 272.2219,658.7969 272.0344,658.8906 C271.6125,659.1563 270.925,659.2813 270.1594,659.2813 C268.1125,659.2813 266.8156,658.1875 266.8156,656.4844 L266.8156,655.3906 C266.8156,653.6094 268.0656,652.2969 269.8,652.2969 C270.3781,652.2969 270.9875,652.4531 271.4563,652.7031 C271.9406,652.9844 272.1125,653.2031 272.2063,653.6094 C272.2688,654.0156 272.3,654.1406 272.4406,654.2656 C272.5813,654.4063 272.8156,654.5156 273.0344,654.5156 C273.3,654.5156 273.5656,654.375 273.7375,654.1563 C273.8469,654 273.8781,653.8125 273.8781,653.3906 L273.8781,651.9688 C273.8781,651.5313 273.8625,651.4063 273.7688,651.25 C273.6125,650.9844 273.3313,650.8438 273.0344,650.8438 C272.7375,650.8438 272.5344,650.9375 272.3156,651.25 L272.1438,651.1719 Z " fill="#000000"/><text fill="#000000" font-family="sans-serif" font-size="12" lengthAdjust="spacing" textLength="41" x="287.2" y="659.6543">Person</text><line style="stroke:#A80036;stroke-width:1.5;" x1="240.5" x2="345.5" y1="671.5" y2="671.5"/><text fill="#000000" font-family="sans-serif" font-size="11" lengthAdjust="spacing" textLength="95" x="245.5" y="685.7104">ORCID_iD orcidid</text><line style="stroke:#A80036;stroke-width:1.5;" x1="240.5" x2="345.5" y1="692.3047" y2="692.3047"/><!--MD5=[632a0a9f063c22bc9f1456509ebe931b]
class Person Name--><rect codeLine="24" fill="#FEFECE" filter="url(#f3167l3xpzref)" height="86.4141" id="Person Name" style="stroke:#A80036;stroke-width:1.5;" width="124" x="231" y="780.5"/><ellipse cx="251.85" cy="796.5" fill="#ADD1B2" rx="11" ry="11" style="stroke:#A80036;stroke-width:1.0;"/><path d="M254.1938,792.1719 C253.2563,791.7344 252.6625,791.5938 251.7875,791.5938 C249.1625,791.5938 247.1625,793.6719 247.1625,796.3906 L247.1625,797.5156 C247.1625,800.0938 249.2719,801.9844 252.1625,801.9844 C253.3813,801.9844 254.5375,801.6875 255.2875,801.1406 C255.8656,800.7344 256.1938,800.2813 256.1938,799.8906 C256.1938,799.4375 255.8031,799.0469 255.3344,799.0469 C255.1156,799.0469 254.9125,799.125 254.725,799.3125 C254.2719,799.7969 254.2719,799.7969 254.0844,799.8906 C253.6625,800.1563 252.975,800.2813 252.2094,800.2813 C250.1625,800.2813 248.8656,799.1875 248.8656,797.4844 L248.8656,796.3906 C248.8656,794.6094 250.1156,793.2969 251.85,793.2969 C252.4281,793.2969 253.0375,793.4531 253.5063,793.7031 C253.9906,793.9844 254.1625,794.2031 254.2563,794.6094 C254.3188,795.0156 254.35,795.1406 254.4906,795.2656 C254.6313,795.4063 254.8656,795.5156 255.0844,795.5156 C255.35,795.5156 255.6156,795.375 255.7875,795.1563 C255.8969,795 255.9281,794.8125 255.9281,794.3906 L255.9281,792.9688 C255.9281,792.5313 255.9125,792.4063 255.8188,792.25 C255.6625,791.9844 255.3813,791.8438 255.0844,791.8438 C254.7875,791.8438 254.5844,791.9375 254.3656,792.25 L254.1938,792.1719 Z " fill="#000000"/><text fill="#000000" font-family="sans-serif" font-size="12" lengthAdjust="spacing" textLength="79" x="267.15" y="800.6543">Person Name</text><line style="stroke:#A80036;stroke-width:1.5;" x1="232" x2="354" y1="812.5" y2="812.5"/><text fill="#000000" font-family="sans-serif" font-size="11" lengthAdjust="spacing" textLength="98" x="237" y="826.7104">String firstNames</text><text fill="#000000" font-family="sans-serif" font-size="11" lengthAdjust="spacing" textLength="112" x="237" y="839.5151">String familyNames</text><text fill="#000000" font-family="sans-serif" font-size="11" lengthAdjust="spacing" textLength="107" x="237" y="852.3198">String otherNames</text><line style="stroke:#A80036;stroke-width:1.5;" x1="232" x2="354" y1="858.9141" y2="858.9141"/><!--MD5=[3b25461e5df73ababc6765bb9b0c47d3]
class Authorship--><rect codeLine="29" fill="#FEFECE" filter="url(#f3167l3xpzref)" height="60.8047" id="Authorship" style="stroke:#A80036;stroke-width:1.5;" width="203" x="214.5" y="292"/><ellipse cx="279.75" cy="308" fill="#ADD1B2" rx="11" ry="11" style="stroke:#A80036;stroke-width:1.0;"/><path d="M282.0938,303.6719 C281.1563,303.2344 280.5625,303.0938 279.6875,303.0938 C277.0625,303.0938 275.0625,305.1719 275.0625,307.8906 L275.0625,309.0156 C275.0625,311.5938 277.1719,313.4844 280.0625,313.4844 C281.2813,313.4844 282.4375,313.1875 283.1875,312.6406 C283.7656,312.2344 284.0938,311.7813 284.0938,311.3906 C284.0938,310.9375 283.7031,310.5469 283.2344,310.5469 C283.0156,310.5469 282.8125,310.625 282.625,310.8125 C282.1719,311.2969 282.1719,311.2969 281.9844,311.3906 C281.5625,311.6563 280.875,311.7813 280.1094,311.7813 C278.0625,311.7813 276.7656,310.6875 276.7656,308.9844 L276.7656,307.8906 C276.7656,306.1094 278.0156,304.7969 279.75,304.7969 C280.3281,304.7969 280.9375,304.9531 281.4063,305.2031 C281.8906,305.4844 282.0625,305.7031 282.1563,306.1094 C282.2188,306.5156 282.25,306.6406 282.3906,306.7656 C282.5313,306.9063 282.7656,307.0156 282.9844,307.0156 C283.25,307.0156 283.5156,306.875 283.6875,306.6563 C283.7969,306.5 283.8281,306.3125 283.8281,305.8906 L283.8281,304.4688 C283.8281,304.0313 283.8125,303.9063 283.7188,303.75 C283.5625,303.4844 283.2813,303.3438 282.9844,303.3438 C282.6875,303.3438 282.4844,303.4375 282.2656,303.75 L282.0938,303.6719 Z " fill="#000000"/><text fill="#000000" font-family="sans-serif" font-size="12" lengthAdjust="spacing" textLength="64" x="300.25" y="312.1543">Authorship</text><line style="stroke:#A80036;stroke-width:1.5;" x1="215.5" x2="416.5" y1="324" y2="324"/><text fill="#000000" font-family="sans-serif" font-size="11" lengthAdjust="spacing" textLength="191" x="220.5" y="338.2104">Boolean correspondingAuthorFlag</text><line style="stroke:#A80036;stroke-width:1.5;" x1="215.5" x2="416.5" y1="344.8047" y2="344.8047"/><!--MD5=[b821bb113f9f55c728f1fbb8949cc3af]
class Contributorship--><rect codeLine="33" fill="#FEFECE" filter="url(#f3167l3xpzref)" height="73.6094" id="Contributorship" style="stroke:#A80036;stroke-width:1.5;" width="124" x="254" y="41"/><ellipse cx="269" cy="57" fill="#ADD1B2" rx="11" ry="11" style="stroke:#A80036;stroke-width:1.0;"/><path d="M271.3438,52.6719 C270.4063,52.2344 269.8125,52.0938 268.9375,52.0938 C266.3125,52.0938 264.3125,54.1719 264.3125,56.8906 L264.3125,58.0156 C264.3125,60.5938 266.4219,62.4844 269.3125,62.4844 C270.5313,62.4844 271.6875,62.1875 272.4375,61.6406 C273.0156,61.2344 273.3438,60.7813 273.3438,60.3906 C273.3438,59.9375 272.9531,59.5469 272.4844,59.5469 C272.2656,59.5469 272.0625,59.625 271.875,59.8125 C271.4219,60.2969 271.4219,60.2969 271.2344,60.3906 C270.8125,60.6563 270.125,60.7813 269.3594,60.7813 C267.3125,60.7813 266.0156,59.6875 266.0156,57.9844 L266.0156,56.8906 C266.0156,55.1094 267.2656,53.7969 269,53.7969 C269.5781,53.7969 270.1875,53.9531 270.6563,54.2031 C271.1406,54.4844 271.3125,54.7031 271.4063,55.1094 C271.4688,55.5156 271.5,55.6406 271.6406,55.7656 C271.7813,55.9063 272.0156,56.0156 272.2344,56.0156 C272.5,56.0156 272.7656,55.875 272.9375,55.6563 C273.0469,55.5 273.0781,55.3125 273.0781,54.8906 L273.0781,53.4688 C273.0781,53.0313 273.0625,52.9063 272.9688,52.75 C272.8125,52.4844 272.5313,52.3438 272.2344,52.3438 C271.9375,52.3438 271.7344,52.4375 271.5156,52.75 L271.3438,52.6719 Z " fill="#000000"/><text fill="#000000" font-family="sans-serif" font-size="12" lengthAdjust="spacing" textLength="92" x="283" y="61.1543">Contributorship</text><line style="stroke:#A80036;stroke-width:1.5;" x1="255" x2="377" y1="73" y2="73"/><text fill="#000000" font-family="sans-serif" font-size="11" lengthAdjust="spacing" textLength="106" x="260" y="87.2104">List&lt;URI&gt; contacts</text><text fill="#000000" font-family="sans-serif" font-size="11" lengthAdjust="spacing" textLength="111" x="260" y="100.0151">String displayName</text><line style="stroke:#A80036;stroke-width:1.5;" x1="255" x2="377" y1="106.6094" y2="106.6094"/><!--MD5=[f8f29aeb30962b8f0c17f3bed64bd579]
class Contribution Statement--><rect codeLine="37" fill="#FEFECE" filter="url(#f3167l3xpzref)" height="48" id="Contribution Statement" style="stroke:#A80036;stroke-width:1.5;" width="169" x="397.5" y="195"/><ellipse cx="412.5" cy="211" fill="#ADD1B2" rx="11" ry="11" style="stroke:#A80036;stroke-width:1.0;"/><path d="M414.8438,206.6719 C413.9063,206.2344 413.3125,206.0938 412.4375,206.0938 C409.8125,206.0938 407.8125,208.1719 407.8125,210.8906 L407.8125,212.0156 C407.8125,214.5938 409.9219,216.4844 412.8125,216.4844 C414.0313,216.4844 415.1875,216.1875 415.9375,215.6406 C416.5156,215.2344 416.8438,214.7813 416.8438,214.3906 C416.8438,213.9375 416.4531,213.5469 415.9844,213.5469 C415.7656,213.5469 415.5625,213.625 415.375,213.8125 C414.9219,214.2969 414.9219,214.2969 414.7344,214.3906 C414.3125,214.6563 413.625,214.7813 412.8594,214.7813 C410.8125,214.7813 409.5156,213.6875 409.5156,211.9844 L409.5156,210.8906 C409.5156,209.1094 410.7656,207.7969 412.5,207.7969 C413.0781,207.7969 413.6875,207.9531 414.1563,208.2031 C414.6406,208.4844 414.8125,208.7031 414.9063,209.1094 C414.9688,209.5156 415,209.6406 415.1406,209.7656 C415.2813,209.9063 415.5156,210.0156 415.7344,210.0156 C416,210.0156 416.2656,209.875 416.4375,209.6563 C416.5469,209.5 416.5781,209.3125 416.5781,208.8906 L416.5781,207.4688 C416.5781,207.0313 416.5625,206.9063 416.4688,206.75 C416.3125,206.4844 416.0313,206.3438 415.7344,206.3438 C415.4375,206.3438 415.2344,206.4375 415.0156,206.75 L414.8438,206.6719 Z " fill="#000000"/><text fill="#000000" font-family="sans-serif" font-size="12" lengthAdjust="spacing" textLength="137" x="426.5" y="215.1543">Contribution Statement</text><line style="stroke:#A80036;stroke-width:1.5;" x1="398.5" x2="565.5" y1="227" y2="227"/><line style="stroke:#A80036;stroke-width:1.5;" x1="398.5" x2="565.5" y1="235" y2="235"/><!--MD5=[3f6954d26e8fa8feef64f8ba628c4304]
class Free Text Contribution--><rect codeLine="39" fill="#FEFECE" filter="url(#f3167l3xpzref)" height="60.8047" id="Free Text Contribution" style="stroke:#A80036;stroke-width:1.5;" width="177" x="489.5" y="383"/><ellipse cx="509.45" cy="399" fill="#ADD1B2" rx="11" ry="11" style="stroke:#A80036;stroke-width:1.0;"/><path d="M511.7938,394.6719 C510.8563,394.2344 510.2625,394.0938 509.3875,394.0938 C506.7625,394.0938 504.7625,396.1719 504.7625,398.8906 L504.7625,400.0156 C504.7625,402.5938 506.8719,404.4844 509.7625,404.4844 C510.9813,404.4844 512.1375,404.1875 512.8875,403.6406 C513.4656,403.2344 513.7938,402.7813 513.7938,402.3906 C513.7938,401.9375 513.4031,401.5469 512.9344,401.5469 C512.7156,401.5469 512.5125,401.625 512.325,401.8125 C511.8719,402.2969 511.8719,402.2969 511.6844,402.3906 C511.2625,402.6563 510.575,402.7813 509.8094,402.7813 C507.7625,402.7813 506.4656,401.6875 506.4656,399.9844 L506.4656,398.8906 C506.4656,397.1094 507.7156,395.7969 509.45,395.7969 C510.0281,395.7969 510.6375,395.9531 511.1063,396.2031 C511.5906,396.4844 511.7625,396.7031 511.8563,397.1094 C511.9188,397.5156 511.95,397.6406 512.0906,397.7656 C512.2313,397.9063 512.4656,398.0156 512.6844,398.0156 C512.95,398.0156 513.2156,397.875 513.3875,397.6563 C513.4969,397.5 513.5281,397.3125 513.5281,396.8906 L513.5281,395.4688 C513.5281,395.0313 513.5125,394.9063 513.4188,394.75 C513.2625,394.4844 512.9813,394.3438 512.6844,394.3438 C512.3875,394.3438 512.1844,394.4375 511.9656,394.75 L511.7938,394.6719 Z " fill="#000000"/><text fill="#000000" font-family="sans-serif" font-size="12" lengthAdjust="spacing" textLength="134" x="524.55" y="403.1543">Free Text Contribution</text><line style="stroke:#A80036;stroke-width:1.5;" x1="490.5" x2="665.5" y1="415" y2="415"/><text fill="#000000" font-family="sans-serif" font-size="11" lengthAdjust="spacing" textLength="165" x="495.5" y="429.2104">Multilingual_String statement</text><line style="stroke:#A80036;stroke-width:1.5;" x1="490.5" x2="665.5" y1="435.8047" y2="435.8047"/><!--MD5=[819e4821c75d866d91a46af0ea8026f8]
class Affiliation Statement--><rect codeLine="42" fill="#FEFECE" filter="url(#f3167l3xpzref)" height="60.8047" id="Affiliation Statement" style="stroke:#A80036;stroke-width:1.5;" width="151" x="510.5" y="505"/><ellipse cx="525.5" cy="521" fill="#ADD1B2" rx="11" ry="11" style="stroke:#A80036;stroke-width:1.0;"/><path d="M527.8438,516.6719 C526.9063,516.2344 526.3125,516.0938 525.4375,516.0938 C522.8125,516.0938 520.8125,518.1719 520.8125,520.8906 L520.8125,522.0156 C520.8125,524.5938 522.9219,526.4844 525.8125,526.4844 C527.0313,526.4844 528.1875,526.1875 528.9375,525.6406 C529.5156,525.2344 529.8438,524.7813 529.8438,524.3906 C529.8438,523.9375 529.4531,523.5469 528.9844,523.5469 C528.7656,523.5469 528.5625,523.625 528.375,523.8125 C527.9219,524.2969 527.9219,524.2969 527.7344,524.3906 C527.3125,524.6563 526.625,524.7813 525.8594,524.7813 C523.8125,524.7813 522.5156,523.6875 522.5156,521.9844 L522.5156,520.8906 C522.5156,519.1094 523.7656,517.7969 525.5,517.7969 C526.0781,517.7969 526.6875,517.9531 527.1563,518.2031 C527.6406,518.4844 527.8125,518.7031 527.9063,519.1094 C527.9688,519.5156 528,519.6406 528.1406,519.7656 C528.2813,519.9063 528.5156,520.0156 528.7344,520.0156 C529,520.0156 529.2656,519.875 529.4375,519.6563 C529.5469,519.5 529.5781,519.3125 529.5781,518.8906 L529.5781,517.4688 C529.5781,517.0313 529.5625,516.9063 529.4688,516.75 C529.3125,516.4844 529.0313,516.3438 528.7344,516.3438 C528.4375,516.3438 528.2344,516.4375 528.0156,516.75 L527.8438,516.6719 Z " fill="#000000"/><text fill="#000000" font-family="sans-serif" font-size="12" lengthAdjust="spacing" textLength="119" x="539.5" y="525.1543">Affiliation Statement</text><line style="stroke:#A80036;stroke-width:1.5;" x1="511.5" x2="660.5" y1="537" y2="537"/><text fill="#000000" font-family="sans-serif" font-size="11" lengthAdjust="spacing" textLength="130" x="516.5" y="551.2104">String displayAffiliation</text><line style="stroke:#A80036;stroke-width:1.5;" x1="511.5" x2="660.5" y1="557.8047" y2="557.8047"/><!--MD5=[5b6d5f043b17cf3ce8a453f9008bb166]
class Postal Address--><rect codeLine="45" fill="#FEFECE" filter="url(#f3167l3xpzref)" height="86.4141" id="Postal Address" style="stroke:#A80036;stroke-width:1.5;" width="122" x="568" y="627"/><ellipse cx="583" cy="643" fill="#ADD1B2" rx="11" ry="11" style="stroke:#A80036;stroke-width:1.0;"/><path d="M585.3438,638.6719 C584.4063,638.2344 583.8125,638.0938 582.9375,638.0938 C580.3125,638.0938 578.3125,640.1719 578.3125,642.8906 L578.3125,644.0156 C578.3125,646.5938 580.4219,648.4844 583.3125,648.4844 C584.5313,648.4844 585.6875,648.1875 586.4375,647.6406 C587.0156,647.2344 587.3438,646.7813 587.3438,646.3906 C587.3438,645.9375 586.9531,645.5469 586.4844,645.5469 C586.2656,645.5469 586.0625,645.625 585.875,645.8125 C585.4219,646.2969 585.4219,646.2969 585.2344,646.3906 C584.8125,646.6563 584.125,646.7813 583.3594,646.7813 C581.3125,646.7813 580.0156,645.6875 580.0156,643.9844 L580.0156,642.8906 C580.0156,641.1094 581.2656,639.7969 583,639.7969 C583.5781,639.7969 584.1875,639.9531 584.6563,640.2031 C585.1406,640.4844 585.3125,640.7031 585.4063,641.1094 C585.4688,641.5156 585.5,641.6406 585.6406,641.7656 C585.7813,641.9063 586.0156,642.0156 586.2344,642.0156 C586.5,642.0156 586.7656,641.875 586.9375,641.6563 C587.0469,641.5 587.0781,641.3125 587.0781,640.8906 L587.0781,639.4688 C587.0781,639.0313 587.0625,638.9063 586.9688,638.75 C586.8125,638.4844 586.5313,638.3438 586.2344,638.3438 C585.9375,638.3438 585.7344,638.4375 585.5156,638.75 L585.3438,638.6719 Z " fill="#000000"/><text fill="#000000" font-family="sans-serif" font-size="12" lengthAdjust="spacing" textLength="90" x="597" y="647.1543">Postal Address</text><line style="stroke:#A80036;stroke-width:1.5;" x1="569" x2="689" y1="659" y2="659"/><text fill="#000000" font-family="sans-serif" font-size="11" lengthAdjust="spacing" textLength="71" x="574" y="673.2104">String street</text><text fill="#000000" font-family="sans-serif" font-size="11" lengthAdjust="spacing" textLength="57" x="574" y="686.0151">String city</text><text fill="#000000" font-family="sans-serif" font-size="11" lengthAdjust="spacing" textLength="84" x="574" y="698.8198">String zipCode</text><line style="stroke:#A80036;stroke-width:1.5;" x1="569" x2="689" y1="705.4141" y2="705.4141"/><!--MD5=[deb4e1f6eb1e3c1256fdb830f96abfbb]
class Country--><rect codeLine="50" fill="#FEFECE" filter="url(#f3167l3xpzref)" height="99.2188" id="Country" style="stroke:#A80036;stroke-width:1.5;" width="274" x="430" y="774"/><ellipse cx="539.75" cy="790" fill="#ADD1B2" rx="11" ry="11" style="stroke:#A80036;stroke-width:1.0;"/><path d="M542.0938,785.6719 C541.1563,785.2344 540.5625,785.0938 539.6875,785.0938 C537.0625,785.0938 535.0625,787.1719 535.0625,789.8906 L535.0625,791.0156 C535.0625,793.5938 537.1719,795.4844 540.0625,795.4844 C541.2813,795.4844 542.4375,795.1875 543.1875,794.6406 C543.7656,794.2344 544.0938,793.7813 544.0938,793.3906 C544.0938,792.9375 543.7031,792.5469 543.2344,792.5469 C543.0156,792.5469 542.8125,792.625 542.625,792.8125 C542.1719,793.2969 542.1719,793.2969 541.9844,793.3906 C541.5625,793.6563 540.875,793.7813 540.1094,793.7813 C538.0625,793.7813 536.7656,792.6875 536.7656,790.9844 L536.7656,789.8906 C536.7656,788.1094 538.0156,786.7969 539.75,786.7969 C540.3281,786.7969 540.9375,786.9531 541.4063,787.2031 C541.8906,787.4844 542.0625,787.7031 542.1563,788.1094 C542.2188,788.5156 542.25,788.6406 542.3906,788.7656 C542.5313,788.9063 542.7656,789.0156 542.9844,789.0156 C543.25,789.0156 543.5156,788.875 543.6875,788.6563 C543.7969,788.5 543.8281,788.3125 543.8281,787.8906 L543.8281,786.4688 C543.8281,786.0313 543.8125,785.9063 543.7188,785.75 C543.5625,785.4844 543.2813,785.3438 542.9844,785.3438 C542.6875,785.3438 542.4844,785.4375 542.2656,785.75 L542.0938,785.6719 Z " fill="#000000"/><text fill="#000000" font-family="sans-serif" font-size="12" lengthAdjust="spacing" textLength="46" x="560.25" y="794.1543">Country</text><line style="stroke:#A80036;stroke-width:1.5;" x1="431" x2="703" y1="806" y2="806"/><text fill="#000000" font-family="sans-serif" font-size="11" lengthAdjust="spacing" textLength="139" x="436" y="820.2104">Multilingual_String name</text><text fill="#000000" font-family="sans-serif" font-size="11" lengthAdjust="spacing" textLength="231" x="436" y="833.0151">ISO3166_Alpha_Code iso3166alphaCode</text><text fill="#000000" font-family="sans-serif" font-size="11" lengthAdjust="spacing" textLength="262" x="436" y="845.8198">ISO3166_Numeric_Code iso3166NumericCode</text><text fill="#000000" font-family="sans-serif" font-size="11" lengthAdjust="spacing" textLength="194" x="436" y="858.6245">EU_Country_Code euCountryCode</text><line style="stroke:#A80036;stroke-width:1.5;" x1="431" x2="703" y1="865.2188" y2="865.2188"/><!--MD5=[f88c115e3130e3b4ff5649ba9e133055]
reverse link Postal Address to Country--><path codeLine="59" d="M606.689,725.517 C600.228,741.305 593.219,758.431 586.915,773.837 " fill="none" id="Postal Address-backto-Country" style="stroke:#A80036;stroke-width:1.0;"/><polygon fill="#A80036" points="611.73,713.201,605.7553,717.2388,607.1846,724.3068,613.1592,720.2691,611.73,713.201" style="stroke:#A80036;stroke-width:1.0;"/><text fill="#000000" font-family="sans-serif" font-size="13" lengthAdjust="spacing" textLength="49" x="537.2702" y="762.8593">country</text><!--MD5=[8528c0d5784524a7ac31969edc457096]
reverse link Affiliation Statement to Postal Address--><path codeLine="60" d="M599.664,578.603 C604.659,593.995 610.308,611.401 615.305,626.802 " fill="none" id="Affiliation Statement-backto-Postal Address" style="stroke:#A80036;stroke-width:1.0;"/><polygon fill="#A80036" points="595.65,566.236,593.6973,573.1777,599.354,577.65,601.3067,570.7083,595.65,566.236" style="stroke:#A80036;stroke-width:1.0;"/><text fill="#000000" font-family="sans-serif" font-size="13" lengthAdjust="spacing" textLength="91" x="620.1751" y="616.0842">postalAddress</text><!--MD5=[4904fd3a26b4d7fe956968cf0a0d8a9b]
reverse link Affiliation Statement to Organisation Unit--><path codeLine="61" d="M536.501,575.301 C514.963,595.759 491.211,620.46 475.022,639.364 " fill="none" id="Affiliation Statement-backto-Organisation Unit" style="stroke:#A80036;stroke-width:1.0;"/><polygon fill="#A80036" points="546.207,566.236,539.0919,567.4087,537.4378,574.4276,544.5529,573.2548,546.207,566.236" style="stroke:#A80036;stroke-width:1.0;"/><text fill="#000000" font-family="sans-serif" font-size="13" lengthAdjust="spacing" textLength="46" x="427.9953" y="628.5992">orgUnit</text><!--MD5=[4904fd3a26b4d7fe956968cf0a0d8a9b]
reverse link Affiliation Statement to Organisation Unit--><path codeLine="62" d="M559.895,576.133 C541.777,596.426 517.791,620.716 497.322,639.364 " fill="none" id="Affiliation Statement-backto-Organisation Unit-1" style="stroke:#A80036;stroke-width:1.0;"/><polygon fill="#A80036" points="568.531,566.236,561.5723,568.1272,560.6416,575.2779,567.6003,573.3868,568.531,566.236" style="stroke:#A80036;stroke-width:1.0;"/><text fill="#000000" font-family="sans-serif" font-size="13" lengthAdjust="spacing" textLength="63" x="496.9297" y="620.3861">institution</text><!--MD5=[1e703325bca9787769503a051e7183a5]
reverse link Contribution Statement to Free Text Contribution--><path codeLine="63" d="M502.538,261.183 C520.779,297.76 546.994,350.326 563.236,382.895 " fill="none" id="Contribution Statement-backto-Free Text Contribution" style="stroke:#A80036;stroke-width:1.0;"/><polygon fill="none" points="496.241,264.242,493.58,243.22,508.77,257.994,496.241,264.242" style="stroke:#A80036;stroke-width:1.0;"/><!--MD5=[1f014480a3afa8c0325c3be3fbf7ad6f]
link Contributorship to Document--><path codeLine="64" d="M253.765,112.107 C235.802,122.196 216.369,133.636 199,145 C188.087,152.14 176.783,160.093 165.914,168.049 " fill="none" id="Contributorship-to-Document" style="stroke:#A80036;stroke-width:1.0;"/><polygon fill="#A80036" points="155.221,175.976,162.4231,175.6162,164.861,168.8297,157.6589,169.1895,155.221,175.976" style="stroke:#A80036;stroke-width:1.0;"/><text fill="#000000" font-family="sans-serif" font-size="13" lengthAdjust="spacing" textLength="65" x="93.5235" y="164.9682">document</text><!--MD5=[ff6e801c9023c630f48a964273458308]
link Contributorship to Agent--><path codeLine="65" d="M285.782,115.052 C245.916,167.171 184.007,266.777 213,353 C234.99,418.398 256.864,429.808 309,475 C317.351,482.238 337.074,495.164 356.126,507.122 " fill="none" id="Contributorship-to-Agent" style="stroke:#A80036;stroke-width:1.0;"/><polygon fill="#A80036" points="367.175,514.001,364.1959,507.434,356.9883,507.6582,359.9674,514.2252,367.175,514.001" style="stroke:#A80036;stroke-width:1.0;"/><text fill="#000000" font-family="sans-serif" font-size="13" lengthAdjust="spacing" textLength="70" x="367.6083" y="500.399">contributor</text><!--MD5=[4629ab2f8b8cc60994d50cb24184a136]
reverse link Contributorship to Affiliation Statement--><path codeLine="66" d="M391.141,90.308 C449.762,102.562 530.033,127.312 584,176 C678.395,261.161 734.977,327.535 684,444 C673.228,468.61 652.097,489.499 632.206,504.986 " fill="none" id="Contributorship-backto-Affiliation Statement" style="stroke:#A80036;stroke-width:1.0;"/><polygon fill="#FFFFFF" points="378.233,87.738,383.3364,92.8326,390.002,90.0812,384.8986,84.9866,378.233,87.738" style="stroke:#A80036;stroke-width:1.0;"/><text fill="#000000" font-family="sans-serif" font-size="13" lengthAdjust="spacing" textLength="66" x="569.0948" y="493.7732">affiliations</text><!--MD5=[50c6679b3e1caaa7068a6125a03e4bca]
reverse link Contributorship to Contribution Statement--><path codeLine="67" d="M369.313,123.641 C397.539,147.276 431.041,175.329 454.139,194.671 " fill="none" id="Contributorship-backto-Contribution Statement" style="stroke:#A80036;stroke-width:1.0;"/><polygon fill="#FFFFFF" points="359.181,115.158,361.2128,122.077,368.3809,122.8626,366.3492,115.9437,359.181,115.158" style="stroke:#A80036;stroke-width:1.0;"/><text fill="#000000" font-family="sans-serif" font-size="13" lengthAdjust="spacing" textLength="151" x="277.9448" y="183.9958">contributionStatements</text><!--MD5=[ece4de1f18514be2e3daabcd0d19f4d3]
reverse link Contributorship to Authorship--><path codeLine="69" d="M316,135.251 C316,184.092 316,252.907 316,291.759 " fill="none" id="Contributorship-backto-Authorship" style="stroke:#A80036;stroke-width:1.0;"/><polygon fill="none" points="309,135.043,316,115.043,323,135.043,309,135.043" style="stroke:#A80036;stroke-width:1.0;"/><!--MD5=[49125a4ba45432b051dcbcd9e53401d7]
link Authorship to Agent--><path codeLine="70" d="M302.248,353.248 C292.678,378.445 283.79,414.993 297,444 C309.305,471.019 334.103,493.102 356.398,508.689 " fill="none" id="Authorship-to-Agent" style="stroke:#A80036;stroke-width:1.0;"/><polygon fill="#A80036" points="367.411,516.025,364.6353,509.3695,357.4242,509.3719,360.1999,516.0274,367.411,516.025" style="stroke:#A80036;stroke-width:1.0;"/><text fill="#000000" font-family="sans-serif" font-size="13" lengthAdjust="spacing" textLength="42" x="363.5" y="398.5669">author</text><path d="M302,407.6328 L302,432.6328 L463,432.6328 L463,417.6328 L453,407.6328 L302,407.6328 " fill="#FF0000" filter="url(#f3167l3xpzref)" style="stroke:#A80036;stroke-width:1.0;"/><path d="M453,407.6328 L453,417.6328 L463,417.6328 L453,407.6328 " fill="#FF0000" style="stroke:#A80036;stroke-width:1.0;"/><text fill="#000000" font-family="sans-serif" font-size="13" lengthAdjust="spacing" textLength="140" x="308" y="424.6997">author == contributor</text><!--MD5=[9a7235b84334665fcda294365fcaf4f5]
reverse link Person to Person Name--><path codeLine="72" d="M293,713.606 C293,734.494 293,759.572 293,780.393 " fill="none" id="Person-backto-Person Name" style="stroke:#A80036;stroke-width:1.0;"/><polygon fill="#FFFFFF" points="293,700.57,289,706.57,293,712.57,297,706.57,293,700.57" style="stroke:#A80036;stroke-width:1.0;"/><text fill="#000000" font-family="sans-serif" font-size="13" lengthAdjust="spacing" textLength="44" x="245.4938" y="769.372">names</text><!--MD5=[de96f77e660762cb21a195b4097c3876]
reverse link Agent to Person--><path codeLine="73" d="M369.467,575.187 C352.817,595.613 332.7,620.294 317.279,639.213 " fill="none" id="Agent-backto-Person" style="stroke:#A80036;stroke-width:1.0;"/><polygon fill="none" points="364.126,570.66,382.188,559.58,374.978,579.505,364.126,570.66" style="stroke:#A80036;stroke-width:1.0;"/><!--MD5=[58a58d00e9270883bf92cdf281f32c1a]
reverse link Agent to Organisation Unit--><path codeLine="74" d="M418.652,578.266 C427.016,598.055 436.813,621.235 444.411,639.213 " fill="none" id="Agent-backto-Organisation Unit" style="stroke:#A80036;stroke-width:1.0;"/><polygon fill="none" points="412.093,580.727,410.754,559.58,424.988,575.277,412.093,580.727" style="stroke:#A80036;stroke-width:1.0;"/><!--MD5=[53b7c6d4e5a1aa2c96492a4408eaa466]
reverse link Document to Textual Document--><path codeLine="75" d="M102,282.446 C102,319.008 102,363.023 102,389.332 " fill="none" id="Document-backto-Textual Document" style="stroke:#A80036;stroke-width:1.0;"/><polygon fill="none" points="95.0001,282.245,102,262.245,109,282.245,95.0001,282.245" style="stroke:#A80036;stroke-width:1.0;"/><!--MD5=[f787ba307220269751248ba5c7487a39]
reverse link Textual Document to Textual Document Accessibility Specification--><path codeLine="76" d="M124.693,448.539 C138.107,468.66 154.738,493.607 166.623,511.434 " fill="none" id="Textual Document-backto-Textual Document Accessibility Specification" style="stroke:#A80036;stroke-width:1.0;"/><polygon fill="#A80036" points="117.425,437.637,117.425,444.8481,124.0814,447.6216,124.0814,440.4105,117.425,437.637" style="stroke:#A80036;stroke-width:1.0;"/><text fill="#000000" font-family="sans-serif" font-size="13" lengthAdjust="spacing" textLength="84" x="67.9195" y="500.4291">accessRights</text><!--MD5=[d5a6c053a39d24fd07d740a282fdedf6]
reverse link Textual Document to Agent--><path codeLine="77" d="M143.682,445.124 C160.2,455.994 179.808,467.403 199,475 C262.62,500.182 285.97,480.879 350,505 C355.839,507.2 361.791,510.026 367.471,513.055 " fill="none" id="Textual Document-backto-Agent" style="stroke:#A80036;stroke-width:1.0;"/><polygon fill="#A80036" points="132.784,437.738,135.5069,444.4153,142.7178,444.47,139.9949,437.7927,132.784,437.738" style="stroke:#A80036;stroke-width:1.0;"/><text fill="#000000" font-family="sans-serif" font-size="13" lengthAdjust="spacing" textLength="49" x="334.073" y="500.4933">authors</text><!--MD5=[fc03e7a60ec4acae1dcfc8bda907ab01]
@startuml
package "CERIF core" #DDDDDD {
    !startsub Contributorship
    class "Document"{
        Multilingual_String title
        Date publicationDate
        DOI_Type DOI
    }
    !endsub
    class "Textual Document"{
    }
    class "Textual Document Accessibility Specification"{
    }
    !startsub Contributorship
    class "Agent"{

    }
    !endsub
    class "Organisation Unit"{
        Multilingual_String name
    }
    class "Person"{
        ORCID_iD orcidid
    }
    class "Person Name"{
        String firstNames
        String familyNames
        String otherNames
    }
    class "Authorship"{
        Boolean correspondingAuthorFlag
    }
    !startsub Contributorship
    class "Contributorship"{
        List<URI> contacts
        String displayName
    }
    class "Contribution Statement"{
    }
    class "Free Text Contribution"{
        Multilingual_String statement
    }
    class "Affiliation Statement"{
        String displayAffiliation
    }
    class "Postal Address"{
        String street
        String city
        String zipCode
    }
    class "Country"{
        Multilingual_String name
        ISO3166_Alpha_Code iso3166alphaCode
        ISO3166_Numeric_Code iso3166NumericCode
        EU_Country_Code euCountryCode
    }
    !endsub
}
!startsub Contributorship
"Postal Address" *- - "country" "Country"
"Affiliation Statement" *- - "postalAddress" "Postal Address"
"Affiliation Statement" *- - "orgUnit" "Organisation Unit"
"Affiliation Statement" *- - "institution" "Organisation Unit"
"Contribution Statement" <|- - "Free Text Contribution"
"Contributorship" - -* "document" "Document"
"Contributorship" - -* "contributor" "Agent"
"Contributorship" o- - "affiliations" "Affiliation Statement"
"Contributorship" o- - "contributionStatements" "Contribution Statement"
!endsub
"Contributorship" <|- - "Authorship"
"Authorship" - -* "Agent":author
note on link #red: author == contributor
"Person" o- - "names" "Person Name"
"Agent" <|- - "Person"
"Agent" <|- - "Organisation Unit"
"Document" <|- - "Textual Document"
"Textual Document" *- - "accessRights" "Textual Document Accessibility Specification"
"Textual Document" *- -  "authors" "Agent"
@enduml

@startuml
package "CERIF core" #DDDDDD {
    class "Document"{
        Multilingual_String title
        Date publicationDate
        DOI_Type DOI
    }
    class "Textual Document"{
    }
    class "Textual Document Accessibility Specification"{
    }
    class "Agent"{

    }
    class "Organisation Unit"{
        Multilingual_String name
    }
    class "Person"{
        ORCID_iD orcidid
    }
    class "Person Name"{
        String firstNames
        String familyNames
        String otherNames
    }
    class "Authorship"{
        Boolean correspondingAuthorFlag
    }
    class "Contributorship"{
        List<URI> contacts
        String displayName
    }
    class "Contribution Statement"{
    }
    class "Free Text Contribution"{
        Multilingual_String statement
    }
    class "Affiliation Statement"{
        String displayAffiliation
    }
    class "Postal Address"{
        String street
        String city
        String zipCode
    }
    class "Country"{
        Multilingual_String name
        ISO3166_Alpha_Code iso3166alphaCode
        ISO3166_Numeric_Code iso3166NumericCode
        EU_Country_Code euCountryCode
    }
}
"Postal Address" *- - "country" "Country"
"Affiliation Statement" *- - "postalAddress" "Postal Address"
"Affiliation Statement" *- - "orgUnit" "Organisation Unit"
"Affiliation Statement" *- - "institution" "Organisation Unit"
"Contribution Statement" <|- - "Free Text Contribution"
"Contributorship" - -* "document" "Document"
"Contributorship" - -* "contributor" "Agent"
"Contributorship" o- - "affiliations" "Affiliation Statement"
"Contributorship" o- - "contributionStatements" "Contribution Statement"
"Contributorship" <|- - "Authorship"
"Authorship" - -* "Agent":author
note on link #red: author == contributor
"Person" o- - "names" "Person Name"
"Agent" <|- - "Person"
"Agent" <|- - "Organisation Unit"
"Document" <|- - "Textual Document"
"Textual Document" *- - "accessRights" "Textual Document Accessibility Specification"
"Textual Document" *- -  "authors" "Agent"
@enduml

PlantUML version 1.2021.9beta2(Unknown compile time)
(GPL source distribution)
Java Runtime: Java(TM) SE Runtime Environment
JVM: Java HotSpot(TM) 64-Bit Server VM
Default Encoding: UTF-8
Language: en
Country: US
--></g></svg>