<?xml version="1.0" encoding="UTF-8" standalone="no"?><svg xmlns="http://www.w3.org/2000/svg" xmlns:xlink="http://www.w3.org/1999/xlink" contentScriptType="application/ecmascript" contentStyleType="text/css" height="388px" preserveAspectRatio="none" style="width:471px;height:388px;background:#FFFFFF;" version="1.1" viewBox="0 0 471 388" width="471px" zoomAndPan="magnify"><defs><filter height="300%" id="fr1rsjh4rdu4s" width="300%" x="-1" y="-1"><feGaussianBlur result="blurOut" stdDeviation="2.0"/><feColorMatrix in="blurOut" result="blurOut2" type="matrix" values="0 0 0 0 0 0 0 0 0 0 0 0 0 0 0 0 0 0 .4 0"/><feOffset dx="4.0" dy="4.0" in="blurOut2" result="blurOut3"/><feBlend in="SourceGraphic" in2="blurOut3" mode="normal"/></filter></defs><g><!--MD5=[9d44916250b776386006c440668bcfbb]
class Agent--><rect codeLine="23" fill="#FFFFFF" filter="url(#fr1rsjh4rdu4s)" height="32" id="Agent" style="stroke:#A80036;stroke-width:1.5;" width="69" x="12.6738" y="128.5"/><ellipse cx="27.6738" cy="144.5" fill="#ADD1B2" rx="11" ry="11" style="stroke:#A80036;stroke-width:1.0;"/><path d="M30.6425,150.1406 Q30.0644,150.4375 29.4238,150.5781 Q28.7831,150.7344 28.08,150.7344 Q25.58,150.7344 24.2519,149.0938 Q22.9394,147.4375 22.9394,144.3125 Q22.9394,141.1875 24.2519,139.5313 Q25.58,137.875 28.08,137.875 Q28.7831,137.875 29.4238,138.0313 Q30.08,138.1875 30.6425,138.4844 L30.6425,141.2031 Q30.0175,140.625 29.4238,140.3594 Q28.83,140.0781 28.205,140.0781 Q26.8613,140.0781 26.1738,141.1563 Q25.4863,142.2188 25.4863,144.3125 Q25.4863,146.4063 26.1738,147.4844 Q26.8613,148.5469 28.205,148.5469 Q28.83,148.5469 29.4238,148.2813 Q30.0175,148 30.6425,147.4219 L30.6425,150.1406 Z " fill="#000000"/><text fill="#000000" font-family="sans-serif" font-size="12" lengthAdjust="spacing" textLength="37" x="41.6738" y="148.6543">Agent</text><!--MD5=[c881b25adf3665c6568c9693d41a70f3]
class Activity--><rect codeLine="52" fill="#FFFFFF" filter="url(#fr1rsjh4rdu4s)" height="32" id="Activity" style="stroke:#A80036;stroke-width:1.5;" width="75" x="133.6738" y="7"/><ellipse cx="148.6738" cy="23" fill="#ADD1B2" rx="11" ry="11" style="stroke:#A80036;stroke-width:1.0;"/><path d="M151.6425,28.6406 Q151.0644,28.9375 150.4238,29.0781 Q149.7831,29.2344 149.08,29.2344 Q146.58,29.2344 145.2519,27.5938 Q143.9394,25.9375 143.9394,22.8125 Q143.9394,19.6875 145.2519,18.0313 Q146.58,16.375 149.08,16.375 Q149.7831,16.375 150.4238,16.5313 Q151.08,16.6875 151.6425,16.9844 L151.6425,19.7031 Q151.0175,19.125 150.4238,18.8594 Q149.83,18.5781 149.205,18.5781 Q147.8613,18.5781 147.1738,19.6563 Q146.4863,20.7188 146.4863,22.8125 Q146.4863,24.9063 147.1738,25.9844 Q147.8613,27.0469 149.205,27.0469 Q149.83,27.0469 150.4238,26.7813 Q151.0175,26.5 151.6425,25.9219 L151.6425,28.6406 Z " fill="#000000"/><text fill="#000000" font-family="sans-serif" font-size="12" lengthAdjust="spacing" textLength="43" x="162.6738" y="27.1543">Activity</text><!--MD5=[77463bb17ddcfe3891c27a1f4a877731]
class Membership--><rect codeLine="57" fill="#FFFFFF" filter="url(#fr1rsjh4rdu4s)" height="32" id="Membership" style="stroke:#A80036;stroke-width:1.5;" width="108" x="117.1738" y="128.5"/><ellipse cx="132.1737" cy="144.5" fill="#ADD1B2" rx="11" ry="11" style="stroke:#A80036;stroke-width:1.0;"/><path d="M135.1425,150.1406 Q134.5644,150.4375 133.9237,150.5781 Q133.2831,150.7344 132.58,150.7344 Q130.08,150.7344 128.7519,149.0938 Q127.4394,147.4375 127.4394,144.3125 Q127.4394,141.1875 128.7519,139.5313 Q130.08,137.875 132.58,137.875 Q133.2831,137.875 133.9237,138.0313 Q134.58,138.1875 135.1425,138.4844 L135.1425,141.2031 Q134.5175,140.625 133.9237,140.3594 Q133.33,140.0781 132.705,140.0781 Q131.3612,140.0781 130.6737,141.1563 Q129.9862,142.2188 129.9862,144.3125 Q129.9862,146.4063 130.6737,147.4844 Q131.3612,148.5469 132.705,148.5469 Q133.33,148.5469 133.9237,148.2813 Q134.5175,148 135.1425,147.4219 L135.1425,150.1406 Z " fill="#000000"/><text fill="#000000" font-family="sans-serif" font-size="12" lengthAdjust="spacing" textLength="76" x="146.1737" y="148.6543">Membership</text><!--MD5=[41314a0efc36828092cff9ebad2fcafd]
class Group--><rect codeLine="62" fill="#FFFFFF" filter="url(#fr1rsjh4rdu4s)" height="32" id="Group" style="stroke:#A80036;stroke-width:1.5;" width="70" x="136.1738" y="250"/><ellipse cx="151.1738" cy="266" fill="#ADD1B2" rx="11" ry="11" style="stroke:#A80036;stroke-width:1.0;"/><path d="M154.1425,271.6406 Q153.5644,271.9375 152.9238,272.0781 Q152.2831,272.2344 151.58,272.2344 Q149.08,272.2344 147.7519,270.5938 Q146.4394,268.9375 146.4394,265.8125 Q146.4394,262.6875 147.7519,261.0313 Q149.08,259.375 151.58,259.375 Q152.2831,259.375 152.9238,259.5313 Q153.58,259.6875 154.1425,259.9844 L154.1425,262.7031 Q153.5175,262.125 152.9238,261.8594 Q152.33,261.5781 151.705,261.5781 Q150.3613,261.5781 149.6738,262.6563 Q148.9863,263.7188 148.9863,265.8125 Q148.9863,267.9063 149.6738,268.9844 Q150.3613,270.0469 151.705,270.0469 Q152.33,270.0469 152.9238,269.7813 Q153.5175,269.5 154.1425,268.9219 L154.1425,271.6406 Z " fill="#000000"/><text fill="#000000" font-family="sans-serif" font-size="12" lengthAdjust="spacing" textLength="38" x="165.1738" y="270.1543">Group</text><!--MD5=[dae000cba6c379e3053478bba72a741c]
class Organisation_Unit_with_Members--><rect codeLine="67" fill="#FFFFFF" filter="url(#fr1rsjh4rdu4s)" height="32" id="Organisation_Unit_with_Members" style="stroke:#A80036;stroke-width:1.5;" width="237" x="139.6737" y="342"/><ellipse cx="154.6737" cy="358" fill="#ADD1B2" rx="11" ry="11" style="stroke:#A80036;stroke-width:1.0;"/><path d="M157.6425,363.6406 Q157.0644,363.9375 156.4237,364.0781 Q155.7831,364.2344 155.08,364.2344 Q152.58,364.2344 151.2519,362.5938 Q149.9394,360.9375 149.9394,357.8125 Q149.9394,354.6875 151.2519,353.0313 Q152.58,351.375 155.08,351.375 Q155.7831,351.375 156.4237,351.5313 Q157.08,351.6875 157.6425,351.9844 L157.6425,354.7031 Q157.0175,354.125 156.4237,353.8594 Q155.83,353.5781 155.205,353.5781 Q153.8612,353.5781 153.1737,354.6563 Q152.4862,355.7188 152.4862,357.8125 Q152.4862,359.9063 153.1737,360.9844 Q153.8612,362.0469 155.205,362.0469 Q155.83,362.0469 156.4237,361.7813 Q157.0175,361.5 157.6425,360.9219 L157.6425,363.6406 Z " fill="#000000"/><text fill="#000000" font-family="sans-serif" font-size="12" lengthAdjust="spacing" textLength="205" x="168.6737" y="362.1543">Organisation_Unit_with_Members</text><!--MD5=[779f3743e425ed8a6f0bf188ddea4860]
class Organisation_Unit--><rect fill="#FEFECE" filter="url(#fr1rsjh4rdu4s)" height="32" id="Organisation_Unit" style="stroke:#A80036;stroke-width:1.5;" width="143" x="274.6738" y="250"/><ellipse cx="289.6738" cy="266" fill="#ADD1B2" rx="11" ry="11" style="stroke:#A80036;stroke-width:1.0;"/><path d="M292.6425,271.6406 Q292.0644,271.9375 291.4238,272.0781 Q290.7831,272.2344 290.08,272.2344 Q287.58,272.2344 286.2519,270.5938 Q284.9394,268.9375 284.9394,265.8125 Q284.9394,262.6875 286.2519,261.0313 Q287.58,259.375 290.08,259.375 Q290.7831,259.375 291.4238,259.5313 Q292.08,259.6875 292.6425,259.9844 L292.6425,262.7031 Q292.0175,262.125 291.4238,261.8594 Q290.83,261.5781 290.205,261.5781 Q288.8613,261.5781 288.1738,262.6563 Q287.4863,263.7188 287.4863,265.8125 Q287.4863,267.9063 288.1738,268.9844 Q288.8613,270.0469 290.205,270.0469 Q290.83,270.0469 291.4238,269.7813 Q292.0175,269.5 292.6425,268.9219 L292.6425,271.6406 Z " fill="#000000"/><text fill="#000000" font-family="sans-serif" font-size="12" lengthAdjust="spacing" textLength="111" x="303.6738" y="270.1543">Organisation_Unit</text><!--MD5=[ddbff00b4911ad4b77d6aa32dd14d1d7]
class Affiliation_Statement--><rect codeLine="128" fill="#FFFFFF" filter="url(#fr1rsjh4rdu4s)" height="91.2188" id="Affiliation_Statement" style="stroke:#A80036;stroke-width:1.5;" width="171" x="260.6738" y="99"/><ellipse cx="280.1738" cy="115" fill="#ADD1B2" rx="11" ry="11" style="stroke:#A80036;stroke-width:1.0;"/><path d="M283.1425,120.6406 Q282.5644,120.9375 281.9238,121.0781 Q281.2831,121.2344 280.58,121.2344 Q278.08,121.2344 276.7519,119.5938 Q275.4394,117.9375 275.4394,114.8125 Q275.4394,111.6875 276.7519,110.0313 Q278.08,108.375 280.58,108.375 Q281.2831,108.375 281.9238,108.5313 Q282.58,108.6875 283.1425,108.9844 L283.1425,111.7031 Q282.5175,111.125 281.9238,110.8594 Q281.33,110.5781 280.705,110.5781 Q279.3613,110.5781 278.6738,111.6563 Q277.9863,112.7188 277.9863,114.8125 Q277.9863,116.9063 278.6738,117.9844 Q279.3613,119.0469 280.705,119.0469 Q281.33,119.0469 281.9238,118.7813 Q282.5175,118.5 283.1425,117.9219 L283.1425,120.6406 Z " fill="#000000"/><text fill="#000000" font-family="sans-serif" font-size="12" lengthAdjust="spacing" textLength="129" x="295.1738" y="119.1543">Affiliation_Statement</text><line style="stroke:#A80036;stroke-width:1.5;" x1="261.6738" x2="430.6738" y1="131" y2="131"/><text fill="#000000" font-family="sans-serif" font-size="11" lengthAdjust="spacing" textLength="138" x="266.6738" y="145.2104">displayAffiliation : String</text><text fill="#000000" font-family="sans-serif" font-size="11" lengthAdjust="spacing" textLength="159" x="266.6738" y="158.0151">displayPersonName : String</text><text fill="#000000" font-family="sans-serif" font-size="11" lengthAdjust="spacing" textLength="147" x="266.6738" y="170.8198">address : Postal_Address</text><text fill="#000000" font-family="sans-serif" font-size="11" lengthAdjust="spacing" textLength="116" x="266.6738" y="183.6245">contacts : List&lt;URI&gt;</text><!--MD5=[09ce52be0ee7de43c61b6e2d59bf108b]
class Person--><rect fill="#FEFECE" filter="url(#fr1rsjh4rdu4s)" height="32" id="Person" style="stroke:#A80036;stroke-width:1.5;" width="76" x="308.1738" y="7"/><ellipse cx="323.1738" cy="23" fill="#ADD1B2" rx="11" ry="11" style="stroke:#A80036;stroke-width:1.0;"/><path d="M326.1425,28.6406 Q325.5644,28.9375 324.9238,29.0781 Q324.2831,29.2344 323.58,29.2344 Q321.08,29.2344 319.7519,27.5938 Q318.4394,25.9375 318.4394,22.8125 Q318.4394,19.6875 319.7519,18.0313 Q321.08,16.375 323.58,16.375 Q324.2831,16.375 324.9238,16.5313 Q325.58,16.6875 326.1425,16.9844 L326.1425,19.7031 Q325.5175,19.125 324.9238,18.8594 Q324.33,18.5781 323.705,18.5781 Q322.3613,18.5781 321.6738,19.6563 Q320.9863,20.7188 320.9863,22.8125 Q320.9863,24.9063 321.6738,25.9844 Q322.3613,27.0469 323.705,27.0469 Q324.33,27.0469 324.9238,26.7813 Q325.5175,26.5 326.1425,25.9219 L326.1425,28.6406 Z " fill="#000000"/><text fill="#000000" font-family="sans-serif" font-size="12" lengthAdjust="spacing" textLength="44" x="337.1738" y="27.1543">Person</text><!--MD5=[cd935cc757d29bd6a59b1252b30899e0]
link Activity to Agent--><path codeLine="265" d="M155.4738,39.13 C134.5038,59.34 97.1337,95.35 72.2538,119.33 " fill="none" id="Activity-to-Agent" style="stroke:#A80036;stroke-width:1.0;"/><polygon fill="#FFFFFF" points="62.7538,128.49,69.849,127.2024,71.3893,120.1577,64.2941,121.4453,62.7538,128.49" style="stroke:#A80036;stroke-width:1.0;"/><text fill="#000000" font-family="sans-serif" font-size="13" lengthAdjust="spacing" textLength="23" x="123.4637" y="59.0463">0..*</text><text fill="#000000" font-family="sans-serif" font-size="13" lengthAdjust="spacing" textLength="53" x="6" y="117.4982">0..1 who</text><!--MD5=[ac110f789ae7a6a0503e4df1ad0c3da4]
reverse link Activity to Membership--><path codeLine="301" d="M171.1737,59.21 C171.1737,82.26 171.1737,111.21 171.1737,128.49 " fill="none" id="Activity-backto-Membership" style="stroke:#A80036;stroke-width:1.0;"/><polygon fill="none" points="164.1737,59.13,171.1737,39.13,178.1737,59.13,164.1737,59.13" style="stroke:#A80036;stroke-width:1.0;"/><!--MD5=[f5e0273634b15655b552a32017180749]
link Membership to Group--><path codeLine="305" d="M171.1737,160.63 C171.1737,182 171.1737,221.07 171.1737,244.86 " fill="none" id="Membership-to-Group" style="stroke:#A80036;stroke-width:1.0;"/><polygon fill="#A80036" points="171.1737,249.99,175.1737,240.99,171.1737,244.99,167.1737,240.99,171.1737,249.99" style="stroke:#A80036;stroke-width:1.0;"/><text fill="#000000" font-family="sans-serif" font-size="13" lengthAdjust="spacing" textLength="23" x="144.3644" y="180.5463">0..*</text><text fill="#000000" font-family="sans-serif" font-size="13" lengthAdjust="spacing" textLength="99" x="55.1581" y="238.9982">0..1 member of</text><!--MD5=[821f2106180f8920faf5f01affeb7691]
reverse link Agent to Group--><path codeLine="343" d="M77.5538,174.77 C102.2538,198.57 136.0938,231.19 155.6038,249.99 " fill="none" id="Agent-backto-Group" style="stroke:#A80036;stroke-width:1.0;"/><polygon fill="none" points="72.4238,179.55,62.8838,160.63,82.1438,169.47,72.4238,179.55" style="stroke:#A80036;stroke-width:1.0;"/><!--MD5=[854899a0b21de2cb3f4d3222738c1bb3]
reverse link Group to Organisation_Unit_with_Members--><path codeLine="347" d="M199.9537,296.77 C214.5938,311.91 231.7538,329.67 243.6338,341.96 " fill="none" id="Group-backto-Organisation_Unit_with_Members" style="stroke:#A80036;stroke-width:1.0;"/><polygon fill="none" points="194.8038,301.51,185.9338,282.27,204.8638,291.78,194.8038,301.51" style="stroke:#A80036;stroke-width:1.0;"/><!--MD5=[adeab3cf6be56cae862ee063039c31ec]
reverse link Organisation_Unit to Organisation_Unit_with_Members--><path codeLine="351" d="M317.0738,296.77 C302.2638,311.91 284.9038,329.67 272.8838,341.96 " fill="none" id="Organisation_Unit-backto-Organisation_Unit_with_Members" style="stroke:#A80036;stroke-width:1.0;"/><polygon fill="none" points="312.2638,291.67,331.2438,282.27,322.2738,301.46,312.2638,291.67" style="stroke:#A80036;stroke-width:1.0;"/><!--MD5=[fe03d2c8e9644e7513bef3a6fb6291e6]
reverse link Affiliation_Statement to Organisation_Unit--><path codeLine="240" d="M333.4338,203.57 C333.3438,220.64 334.6338,237.9 337.3238,249.75 " fill="none" id="Affiliation_Statement-backto-Organisation_Unit" style="stroke:#A80036;stroke-width:1.0;"/><polygon fill="#FFFFFF" points="333.7838,190.34,329.6268,196.2323,333.467,202.3358,337.624,196.4435,333.7838,190.34" style="stroke:#A80036;stroke-width:1.0;"/><text fill="#000000" font-family="sans-serif" font-size="13" lengthAdjust="spacing" textLength="75" x="246.9703" y="238.9717">0..1 orgUnit</text><!--MD5=[fe03d2c8e9644e7513bef3a6fb6291e6]
reverse link Affiliation_Statement to Organisation_Unit--><path codeLine="244" d="M359.6738,203.57 C359.7638,220.64 358.3938,237.9 355.5538,249.75 " fill="none" id="Affiliation_Statement-backto-Organisation_Unit-1" style="stroke:#A80036;stroke-width:1.0;"/><polygon fill="#FFFFFF" points="359.2938,190.34,355.4667,196.4518,359.6365,202.3351,363.4635,196.2233,359.2938,190.34" style="stroke:#A80036;stroke-width:1.0;"/><text fill="#000000" font-family="sans-serif" font-size="13" lengthAdjust="spacing" textLength="91" x="373.7328" y="238.9717">0..1 institution</text><!--MD5=[dc2c5634ff295731fc33abbfcbd96d36]
reverse link Person to Affiliation_Statement--><path codeLine="249" d="M346.1738,52.29 C346.1738,66.21 346.1738,83.31 346.1738,98.93 " fill="none" id="Person-backto-Affiliation_Statement" style="stroke:#A80036;stroke-width:1.0;"/><polygon fill="#FFFFFF" points="346.1738,39.13,342.1738,45.13,346.1738,51.13,350.1738,45.13,346.1738,39.13" style="stroke:#A80036;stroke-width:1.0;"/><text fill="#000000" font-family="sans-serif" font-size="13" lengthAdjust="spacing" textLength="91" x="353.1409" y="87.864">0..* affiliations</text><!--MD5=[335bc652314d68e20c6b9db39c8a9e92]
reverse link Activity to Affiliation_Statement--><path codeLine="253" d="M204.2138,46.56 C225.8238,61.32 254.7838,81.09 280.9038,98.93 " fill="none" id="Activity-backto-Affiliation_Statement" style="stroke:#A80036;stroke-width:1.0;"/><polygon fill="#A80036" points="193.3438,39.13,196.042,45.8173,203.2526,45.8986,200.5544,39.2114,193.3438,39.13" style="stroke:#A80036;stroke-width:1.0;"/><text fill="#000000" font-family="sans-serif" font-size="13" lengthAdjust="spacing" textLength="91" x="172.9421" y="87.864">0..* affiliations</text><!--MD5=[53d2314a81b092cc042c9d4c6fdea7bb]
@startuml

    !includesub core.puml!common
    !includesub core.puml!Agent
    !includesub core.puml!Activity
    !includesub core.puml!Membership
    !includesub core.puml!Group
    !includesub core.puml!OrgUnitWithMembers
    !includesub core.puml!AffiliationStatement

@enduml

@startuml

        hide empty members
        skinparam BoxPadding 120
        class "Agent" #ffffff {
        }
        class "Activity" #ffffff {
        }
        "Activity" "0..*" - -o "0..1 who" "Agent"
        class "Membership" #ffffff {
        }
        "Activity" <|- - "Membership"
        "Membership" "0..*" - -> "0..1 member of" "Group"
        class "Group" #ffffff {
        }
        "Agent" <|- - "Group"
            class "Organisation_Unit_with_Members" #ffffff {
            }
        "Group" <|- - "Organisation_Unit_with_Members"
        "Organisation_Unit" <|- - "Organisation_Unit_with_Members"
        class "Affiliation_Statement" #ffffff {
            displayAffiliation : String
            displayPersonName : String
            address : Postal_Address
            contacts : List<URI>
        }
        "Affiliation_Statement" o- - "0..1 orgUnit" "Organisation_Unit"
        "Affiliation_Statement" o- - "0..1 institution" "Organisation_Unit"
        "Person" o- - "0..* affiliations" "Affiliation_Statement"
        "Activity" *- - "0..* affiliations" "Affiliation_Statement"

@enduml

PlantUML version 1.2021.8(Sat Jun 26 08:20:59 UTC 2021)
(GPL source distribution)
Java Runtime: OpenJDK Runtime Environment
JVM: OpenJDK 64-Bit Server VM
Default Encoding: UTF-8
Language: en
Country: null
--></g></svg>