<svg xmlns="http://www.w3.org/2000/svg" xmlns:xlink="http://www.w3.org/1999/xlink" contentStyleType="text/css" data-diagram-type="CLASS" height="701px" preserveAspectRatio="none" style="width:1419px;height:701px;background:#FFFFFF;" version="1.1" viewBox="0 0 1419 701" width="1419px" zoomAndPan="magnify"><defs/><g><!--class Agent--><g class="entity" data-entity="Agent" data-source-line="10" data-uid="ent0002" id="entity_Agent"><rect fill="#FFFFFF" height="88.8906" rx="2.5" ry="2.5" style="stroke:#181818;stroke-width:0.5;" width="275.9902" x="594" y="257"/><ellipse cx="707.0254" cy="273" fill="#ADD1B2" rx="11" ry="11" style="stroke:#181818;stroke-width:1;"/><path d="M709.9941,278.6406 Q709.416,278.9375 708.7754,279.0781 Q708.1348,279.2344 707.4316,279.2344 Q704.9316,279.2344 703.6035,277.5938 Q702.291,275.9375 702.291,272.8125 Q702.291,269.6875 703.6035,268.0313 Q704.9316,266.375 707.4316,266.375 Q708.1348,266.375 708.7754,266.5313 Q709.4316,266.6875 709.9941,266.9844 L709.9941,269.7031 Q709.3691,269.125 708.7754,268.8594 Q708.1816,268.5781 707.5566,268.5781 Q706.2129,268.5781 705.5254,269.6563 Q704.8379,270.7188 704.8379,272.8125 Q704.8379,274.9063 705.5254,275.9844 Q706.2129,277.0469 707.5566,277.0469 Q708.1816,277.0469 708.7754,276.7813 Q709.3691,276.5 709.9941,275.9219 L709.9941,278.6406 Z " fill="#000000"/><text fill="#000000" font-family="sans-serif" font-size="14" lengthAdjust="spacing" textLength="41.4395" x="727.5254" y="277.8467">Agent</text><line style="stroke:#181818;stroke-width:0.5;" x1="595" x2="868.9902" y1="289" y2="289"/><text fill="#000000" font-family="sans-serif" font-size="14" lengthAdjust="spacing" textLength="258.3916" x="600" y="305.9951">keywords : List&lt;Multilingual_String&gt;</text><text fill="#000000" font-family="sans-serif" font-size="14" lengthAdjust="spacing" textLength="151.71" x="600" y="322.292">lifetime : Date_Range</text><text fill="#000000" font-family="sans-serif" font-size="14" lengthAdjust="spacing" textLength="263.9902" x="600" y="338.5889">contacts : List&lt;Contact_Information&gt;</text></g><!--class Date_Range--><g class="entity" data-entity="Date_Range" data-source-line="15" data-uid="ent0003" id="entity_Date_Range"><rect fill="#F1F1F1" height="32" rx="2.5" ry="2.5" style="stroke:#181818;stroke-width:0.5;" width="117.1416" x="841.5" y="459.5"/><ellipse cx="856.5" cy="475.5" fill="#ADD1B2" rx="11" ry="11" style="stroke:#181818;stroke-width:1;"/><path d="M859.4688,481.1406 Q858.8906,481.4375 858.25,481.5781 Q857.6094,481.7344 856.9063,481.7344 Q854.4063,481.7344 853.0781,480.0938 Q851.7656,478.4375 851.7656,475.3125 Q851.7656,472.1875 853.0781,470.5313 Q854.4063,468.875 856.9063,468.875 Q857.6094,468.875 858.25,469.0313 Q858.9063,469.1875 859.4688,469.4844 L859.4688,472.2031 Q858.8438,471.625 858.25,471.3594 Q857.6563,471.0781 857.0313,471.0781 Q855.6875,471.0781 855,472.1563 Q854.3125,473.2188 854.3125,475.3125 Q854.3125,477.4063 855,478.4844 Q855.6875,479.5469 857.0313,479.5469 Q857.6563,479.5469 858.25,479.2813 Q858.8438,479 859.4688,478.4219 L859.4688,481.1406 Z " fill="#000000"/><text fill="#000000" font-family="sans-serif" font-size="14" lengthAdjust="spacing" textLength="85.1416" x="870.5" y="480.3467">Date_Range</text></g><!--class Contact_Information--><g class="entity" data-entity="Contact_Information" data-source-line="16" data-uid="ent0005" id="entity_Contact_Information"><rect fill="#F1F1F1" height="32" rx="2.5" ry="2.5" style="stroke:#181818;stroke-width:0.5;" width="174.7549" x="631.5" y="459.5"/><ellipse cx="646.5" cy="475.5" fill="#ADD1B2" rx="11" ry="11" style="stroke:#181818;stroke-width:1;"/><path d="M649.4688,481.1406 Q648.8906,481.4375 648.25,481.5781 Q647.6094,481.7344 646.9063,481.7344 Q644.4063,481.7344 643.0781,480.0938 Q641.7656,478.4375 641.7656,475.3125 Q641.7656,472.1875 643.0781,470.5313 Q644.4063,468.875 646.9063,468.875 Q647.6094,468.875 648.25,469.0313 Q648.9063,469.1875 649.4688,469.4844 L649.4688,472.2031 Q648.8438,471.625 648.25,471.3594 Q647.6563,471.0781 647.0313,471.0781 Q645.6875,471.0781 645,472.1563 Q644.3125,473.2188 644.3125,475.3125 Q644.3125,477.4063 645,478.4844 Q645.6875,479.5469 647.0313,479.5469 Q647.6563,479.5469 648.25,479.2813 Q648.8438,479 649.4688,478.4219 L649.4688,481.1406 Z " fill="#000000"/><text fill="#000000" font-family="sans-serif" font-size="14" lengthAdjust="spacing" textLength="142.7549" x="660.5" y="480.3467">Contact_Information</text></g><!--class Activity--><g class="entity" data-entity="Activity" data-source-line="129" data-uid="ent0007" id="entity_Activity"><rect fill="#FFFFFF" height="56.2969" rx="2.5" ry="2.5" style="stroke:#181818;stroke-width:0.5;" width="187.0068" x="717.5" y="116"/><ellipse cx="780.4521" cy="132" fill="#ADD1B2" rx="11" ry="11" style="stroke:#181818;stroke-width:1;"/><path d="M783.4209,137.6406 Q782.8428,137.9375 782.2021,138.0781 Q781.5615,138.2344 780.8584,138.2344 Q778.3584,138.2344 777.0303,136.5938 Q775.7178,134.9375 775.7178,131.8125 Q775.7178,128.6875 777.0303,127.0313 Q778.3584,125.375 780.8584,125.375 Q781.5615,125.375 782.2021,125.5313 Q782.8584,125.6875 783.4209,125.9844 L783.4209,128.7031 Q782.7959,128.125 782.2021,127.8594 Q781.6084,127.5781 780.9834,127.5781 Q779.6396,127.5781 778.9521,128.6563 Q778.2646,129.7188 778.2646,131.8125 Q778.2646,133.9063 778.9521,134.9844 Q779.6396,136.0469 780.9834,136.0469 Q781.6084,136.0469 782.2021,135.7813 Q782.7959,135.5 783.4209,134.9219 L783.4209,137.6406 Z " fill="#000000"/><text fill="#000000" font-family="sans-serif" font-size="14" lengthAdjust="spacing" textLength="52.6025" x="800.9521" y="136.8467">Activity</text><line style="stroke:#181818;stroke-width:0.5;" x1="718.5" x2="903.5068" y1="148" y2="148"/><text fill="#000000" font-family="sans-serif" font-size="14" lengthAdjust="spacing" textLength="175.0068" x="723.5" y="164.9951">dateRange : Date_Range</text></g><!--class Document--><g class="entity" data-entity="Document" data-source-line="238" data-uid="ent0008" id="entity_Document"><rect fill="#F1F1F1" height="32" rx="2.5" ry="2.5" style="stroke:#181818;stroke-width:0.5;" width="104.5293" x="758.5" y="7"/><ellipse cx="773.5" cy="23" fill="#ADD1B2" rx="11" ry="11" style="stroke:#181818;stroke-width:1;"/><path d="M776.4688,28.6406 Q775.8906,28.9375 775.25,29.0781 Q774.6094,29.2344 773.9063,29.2344 Q771.4063,29.2344 770.0781,27.5938 Q768.7656,25.9375 768.7656,22.8125 Q768.7656,19.6875 770.0781,18.0313 Q771.4063,16.375 773.9063,16.375 Q774.6094,16.375 775.25,16.5313 Q775.9063,16.6875 776.4688,16.9844 L776.4688,19.7031 Q775.8438,19.125 775.25,18.8594 Q774.6563,18.5781 774.0313,18.5781 Q772.6875,18.5781 772,19.6563 Q771.3125,20.7188 771.3125,22.8125 Q771.3125,24.9063 772,25.9844 Q772.6875,27.0469 774.0313,27.0469 Q774.6563,27.0469 775.25,26.7813 Q775.8438,26.5 776.4688,25.9219 L776.4688,28.6406 Z " fill="#000000"/><text fill="#000000" font-family="sans-serif" font-size="14" lengthAdjust="spacing" textLength="72.5293" x="787.5" y="27.8467">Document</text></g><!--class Membership--><g class="entity" data-entity="Membership" data-source-line="165" data-uid="ent0012" id="entity_Membership"><rect fill="#FFFFFF" height="32" rx="2.5" ry="2.5" style="stroke:#181818;stroke-width:0.5;" width="118.5293" x="1261.5" y="459.5"/><ellipse cx="1276.5" cy="475.5" fill="#ADD1B2" rx="11" ry="11" style="stroke:#181818;stroke-width:1;"/><path d="M1279.4688,481.1406 Q1278.8906,481.4375 1278.25,481.5781 Q1277.6094,481.7344 1276.9063,481.7344 Q1274.4063,481.7344 1273.0781,480.0938 Q1271.7656,478.4375 1271.7656,475.3125 Q1271.7656,472.1875 1273.0781,470.5313 Q1274.4063,468.875 1276.9063,468.875 Q1277.6094,468.875 1278.25,469.0313 Q1278.9063,469.1875 1279.4688,469.4844 L1279.4688,472.2031 Q1278.8438,471.625 1278.25,471.3594 Q1277.6563,471.0781 1277.0313,471.0781 Q1275.6875,471.0781 1275,472.1563 Q1274.3125,473.2188 1274.3125,475.3125 Q1274.3125,477.4063 1275,478.4844 Q1275.6875,479.5469 1277.0313,479.5469 Q1277.6563,479.5469 1278.25,479.2813 Q1278.8438,479 1279.4688,478.4219 L1279.4688,481.1406 Z " fill="#000000"/><text fill="#000000" font-family="sans-serif" font-size="14" lengthAdjust="spacing" textLength="86.5293" x="1290.5" y="480.3467">Membership</text></g><!--class Involvement--><g class="entity" data-entity="Involvement" data-source-line="170" data-uid="ent0013" id="entity_Involvement"><rect fill="#FFFFFF" height="72.5938" rx="2.5" ry="2.5" style="stroke:#181818;stroke-width:0.5;" width="233.3408" x="976.5" y="265"/><ellipse cx="1045.2935" cy="281" fill="#ADD1B2" rx="11" ry="11" style="stroke:#181818;stroke-width:1;"/><path d="M1048.2622,286.6406 Q1047.6841,286.9375 1047.0435,287.0781 Q1046.4028,287.2344 1045.6997,287.2344 Q1043.1997,287.2344 1041.8716,285.5938 Q1040.5591,283.9375 1040.5591,280.8125 Q1040.5591,277.6875 1041.8716,276.0313 Q1043.1997,274.375 1045.6997,274.375 Q1046.4028,274.375 1047.0435,274.5313 Q1047.6997,274.6875 1048.2622,274.9844 L1048.2622,277.7031 Q1047.6372,277.125 1047.0435,276.8594 Q1046.4497,276.5781 1045.8247,276.5781 Q1044.481,276.5781 1043.7935,277.6563 Q1043.106,278.7188 1043.106,280.8125 Q1043.106,282.9063 1043.7935,283.9844 Q1044.481,285.0469 1045.8247,285.0469 Q1046.4497,285.0469 1047.0435,284.7813 Q1047.6372,284.5 1048.2622,283.9219 L1048.2622,286.6406 Z " fill="#000000"/><text fill="#000000" font-family="sans-serif" font-size="14" lengthAdjust="spacing" textLength="87.2539" x="1065.7935" y="285.8467">Involvement</text><line style="stroke:#181818;stroke-width:0.5;" x1="977.5" x2="1208.8408" y1="297" y2="297"/><text fill="#000000" font-family="sans-serif" font-size="14" lengthAdjust="spacing" textLength="221.3408" x="982.5" y="313.9951">description : Multilingual_String</text><text fill="#000000" font-family="sans-serif" font-size="14" lengthAdjust="spacing" textLength="137.4297" x="982.5" y="330.292">position    : Position</text></g><!--class Person--><g class="entity" data-entity="Person" data-source-line="20" data-uid="ent0015" id="entity_Person"><rect fill="#FFFFFF" height="72.5938" rx="2.5" ry="2.5" style="stroke:#181818;stroke-width:0.5;" width="286.3262" x="310" y="439"/><ellipse cx="425.1411" cy="455" fill="#ADD1B2" rx="11" ry="11" style="stroke:#181818;stroke-width:1;"/><path d="M428.1099,460.6406 Q427.5317,460.9375 426.8911,461.0781 Q426.2505,461.2344 425.5474,461.2344 Q423.0474,461.2344 421.7192,459.5938 Q420.4067,457.9375 420.4067,454.8125 Q420.4067,451.6875 421.7192,450.0313 Q423.0474,448.375 425.5474,448.375 Q426.2505,448.375 426.8911,448.5313 Q427.5474,448.6875 428.1099,448.9844 L428.1099,451.7031 Q427.4849,451.125 426.8911,450.8594 Q426.2974,450.5781 425.6724,450.5781 Q424.3286,450.5781 423.6411,451.6563 Q422.9536,452.7188 422.9536,454.8125 Q422.9536,456.9063 423.6411,457.9844 Q424.3286,459.0469 425.6724,459.0469 Q426.2974,459.0469 426.8911,458.7813 Q427.4849,458.5 428.1099,457.9219 L428.1099,460.6406 Z " fill="#000000"/><text fill="#000000" font-family="sans-serif" font-size="14" lengthAdjust="spacing" textLength="47.5439" x="445.6411" y="459.8467">Person</text><line style="stroke:#181818;stroke-width:0.5;" x1="311" x2="595.3262" y1="471" y2="471"/><text fill="#000000" font-family="sans-serif" font-size="14" lengthAdjust="spacing" textLength="198.1191" x="316" y="487.9951">name            : Person_Name</text><text fill="#000000" font-family="sans-serif" font-size="14" lengthAdjust="spacing" textLength="274.3262" x="316" y="504.292">alternateNames  : List&lt;Person_Name&gt;</text></g><!--class Person_Name--><g class="entity" data-entity="Person_Name" data-source-line="76" data-uid="ent0017" id="entity_Person_Name"><rect fill="#FFFFFF" height="113.4531" rx="2.5" ry="2.5" style="stroke:#181818;stroke-width:0.5;" width="247.3066" x="329.5" y="581"/><ellipse cx="400.98" cy="601.1328" fill="#ADD0B2" rx="11" ry="11" style="stroke:#181818;stroke-width:1;"/><path d="M400.5737,596.9453 L400.5737,604.9297 L401.23,604.9297 Q402.6675,604.9297 403.2769,604.0234 Q403.9019,603.1016 403.9019,600.9297 Q403.9019,598.7578 403.2769,597.8516 Q402.6675,596.9453 401.23,596.9453 L400.5737,596.9453 Z M398.1206,594.7422 L400.7456,594.7422 Q403.7769,594.7422 405.105,596.1953 Q406.4487,597.6328 406.4487,600.9297 Q406.4487,604.2266 405.105,605.6797 Q403.7769,607.1328 400.7456,607.1328 L398.1206,607.1328 L398.1206,594.7422 Z " fill="#000000"/><text fill="#000000" font-family="sans-serif" font-size="12" font-style="italic" lengthAdjust="spacing" textLength="72.8965" x="432.9551" y="597.1387">&#171;DataType&#187;</text><text fill="#000000" font-family="sans-serif" font-size="14" lengthAdjust="spacing" textLength="95.8467" x="421.48" y="612.9639">Person_Name</text><line style="stroke:#181818;stroke-width:0.5;" x1="330.5" x2="575.8066" y1="621.2656" y2="621.2656"/><text fill="#000000" font-family="sans-serif" font-size="14" lengthAdjust="spacing" textLength="219.4541" x="335.5" y="638.2607">firstNames : Multilingual_String</text><text fill="#000000" font-family="sans-serif" font-size="14" lengthAdjust="spacing" textLength="235.3066" x="335.5" y="654.5576">familyNames : Multilingual_String</text><text fill="#000000" font-family="sans-serif" font-size="14" lengthAdjust="spacing" textLength="229.3936" x="335.5" y="670.8545">otherNames : Multilingual_String</text><text fill="#000000" font-family="sans-serif" font-size="14" lengthAdjust="spacing" textLength="234.5137" x="335.5" y="687.1514">displayName : Multilingual_String</text></g><!--class Group--><g class="entity" data-entity="Group" data-source-line="101" data-uid="ent0019" id="entity_Group"><rect fill="#FFFFFF" height="32" rx="2.5" ry="2.5" style="stroke:#181818;stroke-width:0.5;" width="74.9297" x="1072.5" y="621.5"/><ellipse cx="1087.5" cy="637.5" fill="#ADD1B2" rx="11" ry="11" style="stroke:#181818;stroke-width:1;"/><path d="M1090.4688,643.1406 Q1089.8906,643.4375 1089.25,643.5781 Q1088.6094,643.7344 1087.9063,643.7344 Q1085.4063,643.7344 1084.0781,642.0938 Q1082.7656,640.4375 1082.7656,637.3125 Q1082.7656,634.1875 1084.0781,632.5313 Q1085.4063,630.875 1087.9063,630.875 Q1088.6094,630.875 1089.25,631.0313 Q1089.9063,631.1875 1090.4688,631.4844 L1090.4688,634.2031 Q1089.8438,633.625 1089.25,633.3594 Q1088.6563,633.0781 1088.0313,633.0781 Q1086.6875,633.0781 1086,634.1563 Q1085.3125,635.2188 1085.3125,637.3125 Q1085.3125,639.4063 1086,640.4844 Q1086.6875,641.5469 1088.0313,641.5469 Q1088.6563,641.5469 1089.25,641.2813 Q1089.8438,641 1090.4688,640.4219 L1090.4688,643.1406 Z " fill="#000000"/><text fill="#000000" font-family="sans-serif" font-size="14" lengthAdjust="spacing" textLength="42.9297" x="1101.5" y="642.3467">Group</text></g><!--class Group_or_Organisation_Unit--><g class="entity" data-entity="Group_or_Organisation_Unit" data-source-line="106" data-uid="ent0020" id="entity_Group_or_Organisation_Unit"><rect fill="#FFFFFF" height="88.8906" rx="2.5" ry="2.5" style="stroke:#181818;stroke-width:0.5;" width="233.3408" x="993.5" y="431"/><ellipse cx="1010.7034" cy="447" fill="#ADD1B2" rx="11" ry="11" style="stroke:#181818;stroke-width:1;"/><path d="M1013.6722,452.6406 Q1013.094,452.9375 1012.4534,453.0781 Q1011.8128,453.2344 1011.1097,453.2344 Q1008.6097,453.2344 1007.2815,451.5938 Q1005.969,449.9375 1005.969,446.8125 Q1005.969,443.6875 1007.2815,442.0313 Q1008.6097,440.375 1011.1097,440.375 Q1011.8128,440.375 1012.4534,440.5313 Q1013.1097,440.6875 1013.6722,440.9844 L1013.6722,443.7031 Q1013.0472,443.125 1012.4534,442.8594 Q1011.8597,442.5781 1011.2347,442.5781 Q1009.8909,442.5781 1009.2034,443.6563 Q1008.5159,444.7188 1008.5159,446.8125 Q1008.5159,448.9063 1009.2034,449.9844 Q1009.8909,451.0469 1011.2347,451.0469 Q1011.8597,451.0469 1012.4534,450.7813 Q1013.0472,450.5 1013.6722,449.9219 L1013.6722,452.6406 Z " fill="#000000"/><text fill="#000000" font-family="sans-serif" font-size="14" lengthAdjust="spacing" textLength="196.4443" x="1025.1931" y="451.8467">Group_or_Organisation_Unit</text><line style="stroke:#181818;stroke-width:0.5;" x1="994.5" x2="1225.8408" y1="463" y2="463"/><text fill="#000000" font-family="sans-serif" font-size="14" lengthAdjust="spacing" textLength="183.2031" x="999.5" y="479.9951">name : Multilingual_String</text><text fill="#000000" font-family="sans-serif" font-size="14" lengthAdjust="spacing" textLength="204.8936" x="999.5" y="496.292">acronym : Multilingual_String</text><text fill="#000000" font-family="sans-serif" font-size="14" lengthAdjust="spacing" textLength="221.3408" x="999.5" y="512.5889">description : Multilingual_String</text></g><!--class Organisation_Unit--><g class="entity" data-entity="Organisation_Unit" data-source-line="110" data-uid="ent0023" id="entity_Organisation_Unit"><rect fill="#FFFFFF" height="32" rx="2.5" ry="2.5" style="stroke:#181818;stroke-width:0.5;" width="157.1934" x="71.5" y="621.5"/><ellipse cx="86.5" cy="637.5" fill="#ADD1B2" rx="11" ry="11" style="stroke:#181818;stroke-width:1;"/><path d="M89.4688,643.1406 Q88.8906,643.4375 88.25,643.5781 Q87.6094,643.7344 86.9063,643.7344 Q84.4063,643.7344 83.0781,642.0938 Q81.7656,640.4375 81.7656,637.3125 Q81.7656,634.1875 83.0781,632.5313 Q84.4063,630.875 86.9063,630.875 Q87.6094,630.875 88.25,631.0313 Q88.9063,631.1875 89.4688,631.4844 L89.4688,634.2031 Q88.8438,633.625 88.25,633.3594 Q87.6563,633.0781 87.0313,633.0781 Q85.6875,633.0781 85,634.1563 Q84.3125,635.2188 84.3125,637.3125 Q84.3125,639.4063 85,640.4844 Q85.6875,641.5469 87.0313,641.5469 Q87.6563,641.5469 88.25,641.2813 Q88.8438,641 89.4688,640.4219 L89.4688,643.1406 Z " fill="#000000"/><text fill="#000000" font-family="sans-serif" font-size="14" lengthAdjust="spacing" textLength="125.1934" x="100.5" y="642.3467">Organisation_Unit</text></g><!--class Affiliation_Statement--><g class="entity" data-entity="Affiliation_Statement" data-source-line="822" data-uid="ent0029" id="entity_Affiliation_Statement"><rect fill="#FFFFFF" height="105.1875" rx="2.5" ry="2.5" style="stroke:#181818;stroke-width:0.5;" width="294.0576" x="265" y="249"/><ellipse cx="334.1934" cy="265" fill="#ADD1B2" rx="11" ry="11" style="stroke:#181818;stroke-width:1;"/><path d="M337.1621,270.6406 Q336.584,270.9375 335.9434,271.0781 Q335.3027,271.2344 334.5996,271.2344 Q332.0996,271.2344 330.7715,269.5938 Q329.459,267.9375 329.459,264.8125 Q329.459,261.6875 330.7715,260.0313 Q332.0996,258.375 334.5996,258.375 Q335.3027,258.375 335.9434,258.5313 Q336.5996,258.6875 337.1621,258.9844 L337.1621,261.7031 Q336.5371,261.125 335.9434,260.8594 Q335.3496,260.5781 334.7246,260.5781 Q333.3809,260.5781 332.6934,261.6563 Q332.0059,262.7188 332.0059,264.8125 Q332.0059,266.9063 332.6934,267.9844 Q333.3809,269.0469 334.7246,269.0469 Q335.3496,269.0469 335.9434,268.7813 Q336.5371,268.5 337.1621,267.9219 L337.1621,270.6406 Z " fill="#000000"/><text fill="#000000" font-family="sans-serif" font-size="14" lengthAdjust="spacing" textLength="147.1709" x="354.6934" y="269.8467">Affiliation_Statement</text><line style="stroke:#181818;stroke-width:0.5;" x1="266" x2="558.0576" y1="281" y2="281"/><text fill="#000000" font-family="sans-serif" font-size="14" lengthAdjust="spacing" textLength="259.7109" x="271" y="297.9951">displayAffiliation : Multilingual_String</text><text fill="#000000" font-family="sans-serif" font-size="14" lengthAdjust="spacing" textLength="282.0576" x="271" y="314.292">displayPersonName : Multilingual_String</text><text fill="#000000" font-family="sans-serif" font-size="14" lengthAdjust="spacing" textLength="263.9902" x="271" y="330.5889">contacts : List&lt;Contact_Information&gt;</text><text fill="#000000" font-family="sans-serif" font-size="14" lengthAdjust="spacing" textLength="124.0791" x="271" y="346.8857">position : Position</text></g><!--link Agent to Date_Range--><g class="link" data-entity-1="Agent" data-entity-2="Date_Range" data-source-line="15" data-uid="lnk4" id="link_Agent_Date_Range"><path codeLine="15" d="M774.83,346.35 C811,383.37 856.4973,429.958 880.9673,455.008" fill="none" id="Agent-to-Date_Range" style="stroke:#181818;stroke-width:1;stroke-dasharray:7,7;"/><polygon fill="#181818" points="885.16,459.3,881.7324,450.0668,881.6661,455.7233,876.0096,455.6571,885.16,459.3" style="stroke:#181818;stroke-width:1;"/></g><!--link Agent to Contact_Information--><g class="link" data-entity-1="Agent" data-entity-2="Contact_Information" data-source-line="16" data-uid="lnk6" id="link_Agent_Contact_Information"><path codeLine="16" d="M728.69,346.35 C725.89,383.37 722.5038,428.2672 720.6038,453.3172" fill="none" id="Agent-to-Contact_Information" style="stroke:#181818;stroke-width:1;stroke-dasharray:7,7;"/><polygon fill="#181818" points="720.15,459.3,724.8192,450.6283,720.5282,454.3143,716.8421,450.0233,720.15,459.3" style="stroke:#181818;stroke-width:1;"/><text fill="#000000" font-family="sans-serif" font-size="13" lengthAdjust="spacing" textLength="23.0356" x="693.7681" y="448.5383">0..*</text></g><!--link Document to Activity--><g class="link" data-entity-1="Document" data-entity-2="Activity" data-source-line="238" data-uid="lnk9" id="link_Document_Activity"><path codeLine="238" d="M811,39.07 C811,58.33 811,92.03 811,115.82" fill="none" id="Document-Activity" style="stroke:#181818;stroke-width:1;"/><polygon fill="#000000" points="816,82.5664,818.9389,73.5213,813.0611,73.5213,816,82.5664" style="stroke:#000000;stroke-width:1;"/><text fill="#000000" font-family="sans-serif" font-size="13" lengthAdjust="spacing" textLength="37.2417" x="825" y="82.0669">prove</text><text fill="#000000" font-family="sans-serif" font-size="13" lengthAdjust="spacing" textLength="23.0356" x="784.2745" y="58.9665">0..*</text><text fill="#000000" font-family="sans-serif" font-size="13" lengthAdjust="spacing" textLength="23.0356" x="785.4875" y="105.064">0..*</text></g><!--link Activity to Agent--><g class="link" data-entity-1="Activity" data-entity-2="Agent" data-source-line="244" data-uid="lnk10" id="link_Activity_Agent"><path codeLine="244" d="M728.52,172.06 C715.98,179.77 704.68,189.58 697,202 C686.7,218.67 688.6549,233.4344 697.4349,251.1444" fill="none" id="Activity-to-Agent" style="stroke:#181818;stroke-width:1;"/><polygon fill="#181818" points="700.1,256.52,699.6862,246.6798,697.8791,252.0403,692.5187,250.2332,700.1,256.52" style="stroke:#181818;stroke-width:1;"/><polygon fill="#000000" points="700.1709,215.2198,706.215,207.8768,700.7445,205.7266,700.1709,215.2198" style="stroke:#000000;stroke-width:1;"/><text fill="#000000" font-family="sans-serif" font-size="13" lengthAdjust="spacing" textLength="33.5093" x="711" y="215.0669">actor</text><text fill="#000000" font-family="sans-serif" font-size="13" lengthAdjust="spacing" textLength="23.0356" x="686.1396" y="191.4442">0..*</text><text fill="#000000" font-family="sans-serif" font-size="13" lengthAdjust="spacing" textLength="24.8066" x="669.7121" y="245.8967">0..1</text></g><!--link Activity to Date_Range--><g class="link" data-entity-1="Activity" data-entity-2="Date_Range" data-source-line="843" data-uid="lnk11" id="link_Activity_Date_Range"><path codeLine="843" d="M872.79,172.28 C884.1,180.19 894.41,190.01 901,202 C948.79,288.83 919.4089,410.2885 906.5289,453.6385" fill="none" id="Activity-to-Date_Range" style="stroke:#181818;stroke-width:1;stroke-dasharray:7,7;"/><polygon fill="#181818" points="904.82,459.39,911.2176,451.902,906.2441,454.5971,903.549,449.6235,904.82,459.39" style="stroke:#181818;stroke-width:1;"/></g><!--reverse link Involvement to Membership--><g class="link" data-entity-1="Involvement" data-entity-2="Membership" data-source-line="170" data-uid="lnk14" id="link_Involvement_Membership"><path codeLine="170" d="M1154.6193,348.9808 C1204.1793,386.3708 1265.37,432.53 1301.04,459.44" fill="none" id="Involvement-backto-Membership" style="stroke:#181818;stroke-width:1;"/><polygon fill="none" points="1140.25,338.14,1151.0057,353.7706,1158.2329,344.191,1140.25,338.14" style="stroke:#181818;stroke-width:1;"/></g><!--reverse link Agent to Person--><g class="link" data-entity-1="Agent" data-entity-2="Person" data-source-line="72" data-uid="lnk16" id="link_Agent_Person"><path codeLine="72" d="M645.9176,355.5759 C599.4276,384.2359 554.67,411.82 511,438.74" fill="none" id="Agent-backto-Person" style="stroke:#181818;stroke-width:1;"/><polygon fill="none" points="661.24,346.13,642.769,350.4684,649.0663,360.6833,661.24,346.13" style="stroke:#181818;stroke-width:1;"/></g><!--link Person to Person_Name--><g class="link" data-entity-1="Person" data-entity-2="Person_Name" data-source-line="85" data-uid="lnk18" id="link_Person_Person_Name"><path codeLine="85" d="M453,512.01 C453,532.26 453,552.1 453,574.97" fill="none" id="Person-to-Person_Name" style="stroke:#181818;stroke-width:1;stroke-dasharray:7,7;"/><polygon fill="#181818" points="453,580.97,457,571.97,453,575.97,449,571.97,453,580.97" style="stroke:#181818;stroke-width:1;"/></g><!--reverse link Group_or_Organisation_Unit to Group--><g class="link" data-entity-1="Group_or_Organisation_Unit" data-entity-2="Group" data-source-line="106" data-uid="lnk21" id="link_Group_or_Organisation_Unit_Group"><path codeLine="106" d="M1110,538.22 C1110,571.9 1110,598.46 1110,621.41" fill="none" id="Group_or_Organisation_Unit-backto-Group" style="stroke:#181818;stroke-width:1;"/><polygon fill="none" points="1110,520.22,1104,538.22,1116,538.22,1110,520.22" style="stroke:#181818;stroke-width:1;"/></g><!--link Group to Group--><g class="link" data-entity-1="Group" data-entity-2="Group" data-source-line="123" data-uid="lnk22" id="link_Group_Group"><path codeLine="123" d="M1153.6433,621.1474 C1172.0933,619.0974 1182.5,624.99 1182.5,637.5 C1182.5,650.01 1172.0933,655.9026 1153.6433,653.8526" fill="none" id="Group-Group" style="stroke:#181818;stroke-width:1;stroke-dasharray:7,7;"/><polygon fill="#181818" points="1147.68,621.81,1157.0667,624.7917,1152.6494,621.2578,1156.1832,616.8406,1147.68,621.81" style="stroke:#181818;stroke-width:1;"/><polygon fill="#181818" points="1147.68,653.19,1156.1832,658.1594,1152.6494,653.7422,1157.0667,650.2083,1147.68,653.19" style="stroke:#181818;stroke-width:1;"/><text fill="#000000" font-family="sans-serif" font-size="13" lengthAdjust="spacing" textLength="70.4907" x="1078.7717" y="610.3501">0..* part of</text><text fill="#000000" font-family="sans-serif" font-size="13" lengthAdjust="spacing" textLength="60.6011" x="1090.5356" y="673.542">0..* parts</text></g><!--reverse link Group_or_Organisation_Unit to Organisation_Unit--><g class="link" data-entity-1="Group_or_Organisation_Unit" data-entity-2="Organisation_Unit" data-source-line="115" data-uid="lnk24" id="link_Group_or_Organisation_Unit_Organisation_Unit"><path codeLine="115" d="M976.0174,520.3756 C685.7374,580.0556 601.8,518.98 312,581 C267.53,590.52 218.35,608.48 185.97,621.4" fill="none" id="Group_or_Organisation_Unit-backto-Organisation_Unit" style="stroke:#181818;stroke-width:1;"/><polygon fill="none" points="993.48,516.01,974.5622,514.5548,977.4726,526.1965,993.48,516.01" style="stroke:#181818;stroke-width:1;"/></g><!--link Organisation_Unit to Organisation_Unit--><g class="link" data-entity-1="Organisation_Unit" data-entity-2="Organisation_Unit" data-source-line="119" data-uid="lnk25" id="link_Organisation_Unit_Organisation_Unit"><path codeLine="119" d="M220.7457,621.2633 C247.1957,620.2633 263.5,625.83 263.5,637.5 C263.5,649.17 247.1957,654.7367 220.7457,653.7367" fill="none" id="Organisation_Unit-Organisation_Unit" style="stroke:#181818;stroke-width:1;stroke-dasharray:7,7;"/><polygon fill="#181818" points="214.75,621.49,223.8947,625.1471,219.7464,621.3011,223.5925,617.1528,214.75,621.49" style="stroke:#181818;stroke-width:1;"/><polygon fill="#181818" points="214.75,653.51,223.5925,657.8472,219.7464,653.6989,223.8947,649.8529,214.75,653.51" style="stroke:#181818;stroke-width:1;"/><text fill="#000000" font-family="sans-serif" font-size="13" lengthAdjust="spacing" textLength="70.4907" x="236.6028" y="613.4286">0..* part of</text><text fill="#000000" font-family="sans-serif" font-size="13" lengthAdjust="spacing" textLength="60.6011" x="166.7654" y="673.6813">0..* parts</text></g><!--reverse link Agent to Group_or_Organisation_Unit--><g class="link" data-entity-1="Agent" data-entity-2="Group_or_Organisation_Unit" data-source-line="97" data-uid="lnk26" id="link_Agent_Group_or_Organisation_Unit"><path codeLine="97" d="M844.2644,353.5832 C901.3544,379.5532 957.16,404.95 1014.23,430.92" fill="none" id="Agent-backto-Group_or_Organisation_Unit" style="stroke:#181818;stroke-width:1;"/><polygon fill="none" points="827.88,346.13,841.78,359.0447,846.7488,348.1217,827.88,346.13" style="stroke:#181818;stroke-width:1;"/></g><!--reverse link Activity to Involvement--><g class="link" data-entity-1="Activity" data-entity-2="Involvement" data-source-line="142" data-uid="lnk27" id="link_Activity_Involvement"><path codeLine="142" d="M901.3167,178.933 C922.5067,187.613 928.71,191.02 949,202 C982.97,220.37 1018.82,244.88 1046.26,264.85" fill="none" id="Activity-backto-Involvement" style="stroke:#181818;stroke-width:1;"/><polygon fill="none" points="884.66,172.11,899.0424,184.4853,903.5911,173.3808,884.66,172.11" style="stroke:#181818;stroke-width:1;"/></g><!--link Involvement to Group_or_Organisation_Unit--><g class="link" data-entity-1="Involvement" data-entity-2="Group_or_Organisation_Unit" data-source-line="248" data-uid="lnk28" id="link_Involvement_Group_or_Organisation_Unit"><path codeLine="248" d="M1096.53,338.14 C1099.19,365.1 1102.2696,396.2891 1105.1096,425.0091" fill="none" id="Involvement-to-Group_or_Organisation_Unit" style="stroke:#181818;stroke-width:1;"/><polygon fill="#181818" points="1105.7,430.98,1108.7949,421.6301,1105.208,426.0043,1100.8338,422.4173,1105.7,430.98" style="stroke:#181818;stroke-width:1;"/><polygon fill="#000000" points="1107.4914,397.5422,1109.5271,388.2521,1103.6777,388.8298,1107.4914,397.5422" style="stroke:#000000;stroke-width:1;"/><text fill="#000000" font-family="sans-serif" font-size="13" lengthAdjust="spacing" textLength="71.0366" x="1116" y="397.0669">involved in</text><text fill="#000000" font-family="sans-serif" font-size="13" lengthAdjust="spacing" textLength="23.0356" x="1072.1847" y="357.5622">0..*</text></g><!--reverse link Affiliation_Statement to Involvement--><g class="link" data-entity-1="Affiliation_Statement" data-entity-2="Involvement" data-source-line="822" data-uid="lnk31" id="link_Affiliation_Statement_Involvement"><path codeLine="822" d="M558.2316,247.248 C655.8916,217.618 783.15,192.7 899.5,217 C944.18,226.33 991.17,246.57 1027.65,264.9" fill="none" id="Affiliation_Statement-backto-Involvement" style="stroke:#181818;stroke-width:1;"/><polygon fill="#181818" points="552.49,248.99,562.2637,250.2047,557.2746,247.5383,559.941,242.5493,552.49,248.99" style="stroke:#181818;stroke-width:1;"/><polygon fill="#000000" points="752.5035,210.3785,761.4318,213.6553,761.6527,207.7816,752.5035,210.3785" style="stroke:#000000;stroke-width:1;"/><text fill="#000000" font-family="sans-serif" font-size="13" lengthAdjust="spacing" textLength="132.1201" x="766.5" y="215.0669">is the foundation for</text><text fill="#000000" font-family="sans-serif" font-size="13" lengthAdjust="spacing" textLength="23.0356" x="546.8216" y="237.9894">0..*</text><text fill="#000000" font-family="sans-serif" font-size="13" lengthAdjust="spacing" textLength="23.0356" x="990.4526" y="253.8857">0..*</text></g><!--link Involvement to Involvement--><g class="link" data-entity-1="Involvement" data-entity-2="Involvement" data-source-line="826" data-uid="lnk32" id="link_Involvement_Involvement"><path codeLine="826" d="M1209.56,293.57 C1230.15,294.62 1244.5,297.26 1244.5,301.5 C1244.5,305.74 1236.1422,308.0744 1215.5522,309.1244" fill="none" id="Involvement-to-Involvement" style="stroke:#181818;stroke-width:1;"/><polygon fill="#181818" points="1209.56,309.43,1218.752,312.9664,1214.5535,309.1754,1218.3446,304.9768,1209.56,309.43" style="stroke:#181818;stroke-width:1;"/><polygon fill="#000000" points="1249.7546,306.5599,1252.2291,297.3769,1246.3589,297.6762,1249.7546,306.5599" style="stroke:#000000;stroke-width:1;"/><text fill="#000000" font-family="sans-serif" font-size="13" lengthAdjust="spacing" textLength="26.6602" x="1263.5" y="306.0669">part</text><text fill="#000000" font-family="sans-serif" font-size="13" lengthAdjust="spacing" textLength="23.0356" x="1217.7541" y="305.6266">0..*</text><text fill="#000000" font-family="sans-serif" font-size="13" lengthAdjust="spacing" textLength="24.8066" x="1217.8108" y="322.5026">0..1</text></g><!--link Involvement to Involvement--><g class="link" data-entity-1="Involvement" data-entity-2="Involvement" data-source-line="830" data-uid="lnk33" id="link_Involvement_Involvement"><path codeLine="830" d="M1209.7,284.69 C1256.04,283.96 1295.5,289.57 1295.5,301.5 C1295.5,313.43 1262.0393,319.1345 1215.6993,318.4045" fill="none" id="Involvement-to-Involvement-1" style="stroke:#181818;stroke-width:1;"/><polygon fill="#181818" points="1209.7,318.31,1218.6359,322.4513,1214.6994,318.3888,1218.7619,314.4523,1209.7,318.31" style="stroke:#181818;stroke-width:1;"/><polygon fill="#000000" points="1300.4212,306.5658,1303.5023,297.5681,1297.6252,297.4755,1300.4212,306.5658" style="stroke:#000000;stroke-width:1;"/><text fill="#000000" font-family="sans-serif" font-size="13" lengthAdjust="spacing" textLength="92.2251" x="1314.5" y="306.0669">part transitive</text><text fill="#000000" font-family="sans-serif" font-size="13" lengthAdjust="spacing" textLength="23.0356" x="1217.903" y="280.2168">0..*</text><text fill="#000000" font-family="sans-serif" font-size="13" lengthAdjust="spacing" textLength="23.0356" x="1217.903" y="331.9515">0..*</text></g><!--reverse link Activity to Affiliation_Statement--><g class="link" data-entity-1="Activity" data-entity-2="Affiliation_Statement" data-source-line="644" data-uid="lnk34" id="link_Activity_Affiliation_Statement"><path codeLine="644" d="M705.5763,153.8172 C649.0863,161.0172 588.78,173.76 530,202 C505.59,213.73 481.99,231.64 462.39,248.99" fill="none" id="Activity-backto-Affiliation_Statement" style="stroke:#181818;stroke-width:1;"/><polygon fill="none" points="717.48,152.3,711.0224,149.0907,705.5763,153.8172,712.0339,157.0265,717.48,152.3" style="stroke:#181818;stroke-width:1;"/><polygon fill="#000000" points="530.3439,212.3886,539.838,211.829,537.6958,206.3554,530.3439,212.3886" style="stroke:#000000;stroke-width:1;"/><text fill="#000000" font-family="sans-serif" font-size="13" lengthAdjust="spacing" textLength="138.6582" x="544" y="215.0669">affiliation statements</text><text fill="#000000" font-family="sans-serif" font-size="13" lengthAdjust="spacing" textLength="23.0356" x="686.4405" y="149.4219">0..*</text><text fill="#000000" font-family="sans-serif" font-size="13" lengthAdjust="spacing" textLength="23.0356" x="444.6144" y="237.9894">0..*</text></g><!--link Affiliation_Statement to Organisation_Unit--><g class="link" data-entity-1="Affiliation_Statement" data-entity-2="Organisation_Unit" data-source-line="645" data-uid="lnk35" id="link_Affiliation_Statement_Organisation_Unit"><path codeLine="645" d="M264.96,331.45 C167.7,354.14 53.41,388.87 27,431 C6,464.52 11.37,483.66 27,520 C46.76,565.93 89.474,598.9837 119.334,618.1937" fill="none" id="Affiliation_Statement-to-Organisation_Unit" style="stroke:#181818;stroke-width:1;"/><polygon fill="#181818" points="124.38,621.44,118.9752,613.2066,120.175,618.7348,114.6469,619.9346,124.38,621.44" style="stroke:#181818;stroke-width:1;"/><polygon fill="#000000" points="29.7359,480.0244,36.452,473.2906,31.2113,470.629,29.7359,480.0244" style="stroke:#000000;stroke-width:1;"/><text fill="#000000" font-family="sans-serif" font-size="13" lengthAdjust="spacing" textLength="65.5713" x="41" y="480.0669">institution</text><text fill="#000000" font-family="sans-serif" font-size="13" lengthAdjust="spacing" textLength="23.0356" x="233.7847" y="329.6731">0..*</text><text fill="#000000" font-family="sans-serif" font-size="13" lengthAdjust="spacing" textLength="8.271" x="106.2115" y="610.431">1</text></g><!--link Affiliation_Statement to Organisation_Unit--><g class="link" data-entity-1="Affiliation_Statement" data-entity-2="Organisation_Unit" data-source-line="646" data-uid="lnk36" id="link_Affiliation_Statement_Organisation_Unit"><path codeLine="646" d="M264.75,350.04 C227.01,369.27 190.48,395.57 167,431 C126.97,491.43 138.4891,578.9495 145.5391,615.3495" fill="none" id="Affiliation_Statement-to-Organisation_Unit-1" style="stroke:#181818;stroke-width:1;"/><polygon fill="#181818" points="146.68,621.24,148.8957,611.6436,145.7293,616.3312,141.0416,613.1648,146.68,621.24" style="stroke:#181818;stroke-width:1;"/><polygon fill="#000000" points="169.9507,480.1272,176.3386,473.0812,170.9772,470.6721,169.9507,480.1272" style="stroke:#000000;stroke-width:1;"/><text fill="#000000" font-family="sans-serif" font-size="13" lengthAdjust="spacing" textLength="110.3286" x="181" y="480.0669">organisation unit</text><text fill="#000000" font-family="sans-serif" font-size="13" lengthAdjust="spacing" textLength="23.0356" x="234.06" y="349.0934">0..*</text><text fill="#000000" font-family="sans-serif" font-size="13" lengthAdjust="spacing" textLength="24.8066" x="149.6568" y="610.4584">0..1</text></g><!--link Affiliation_Statement to Person--><g class="link" data-entity-1="Affiliation_Statement" data-entity-2="Person" data-source-line="647" data-uid="lnk37" id="link_Affiliation_Statement_Person"><path codeLine="647" d="M424.31,354.11 C430.82,381.42 437.26,408.4332 443.09,432.9132" fill="none" id="Affiliation_Statement-to-Person" style="stroke:#181818;stroke-width:1;"/><polygon fill="#181818" points="444.48,438.75,446.2861,429.0682,443.3216,433.886,438.5038,430.9216,444.48,438.75" style="stroke:#181818;stroke-width:1;"/><polygon fill="#000000" points="441.1591,397.4302,441.9211,387.9502,436.2034,389.3128,441.1591,397.4302" style="stroke:#000000;stroke-width:1;"/><text fill="#000000" font-family="sans-serif" font-size="13" lengthAdjust="spacing" textLength="44.5605" x="449" y="397.0669">person</text><text fill="#000000" font-family="sans-serif" font-size="13" lengthAdjust="spacing" textLength="23.0356" x="401.4174" y="374.2505">0..*</text><text fill="#000000" font-family="sans-serif" font-size="13" lengthAdjust="spacing" textLength="24.8066" x="416.8677" y="427.9829">0..1</text></g><!--SRC=[bT312i8m383Xkq-HlO3lu4ayY89uBbtDPg1DHfeMzlOAEvlXELz-GW001kAKsmjh6o69ud5f9Gz9IX4-m4zmcf7DcoUZJhOwv8fbHArlMXnq_mhtaBDAym8tdIDJZKR2uSbaUwqW6lvPkd2NtB7i_6EQADCMV5YqpNy0]--></g></svg>