<?xml version="1.0" encoding="UTF-8" standalone="no"?><svg xmlns="http://www.w3.org/2000/svg" xmlns:xlink="http://www.w3.org/1999/xlink" contentScriptType="application/ecmascript" contentStyleType="text/css" height="731px" preserveAspectRatio="none" style="width:1030px;height:731px;background:#FFFFFF;" version="1.1" viewBox="0 0 1030 731" width="1030px" zoomAndPan="magnify"><defs><filter height="300%" id="fsh974f7m1n2g" width="300%" x="-1" y="-1"><feGaussianBlur result="blurOut" stdDeviation="2.0"/><feColorMatrix in="blurOut" result="blurOut2" type="matrix" values="0 0 0 0 0 0 0 0 0 0 0 0 0 0 0 0 0 0 .4 0"/><feOffset dx="4.0" dy="4.0" in="blurOut2" result="blurOut3"/><feBlend in="SourceGraphic" in2="blurOut3" mode="normal"/></filter></defs><g><!--MD5=[9d44916250b776386006c440668bcfbb]
class Agent--><rect codeLine="10" fill="#FFFFFF" filter="url(#fsh974f7m1n2g)" height="78.4141" id="Agent" style="stroke:#A80036;stroke-width:1.5;" width="224" x="751" y="246"/><ellipse cx="840.25" cy="262" fill="#ADD1B2" rx="11" ry="11" style="stroke:#A80036;stroke-width:1.0;"/><path d="M843.2188,267.6406 Q842.6406,267.9375 842,268.0781 Q841.3594,268.2344 840.6563,268.2344 Q838.1563,268.2344 836.8281,266.5938 Q835.5156,264.9375 835.5156,261.8125 Q835.5156,258.6875 836.8281,257.0313 Q838.1563,255.375 840.6563,255.375 Q841.3594,255.375 842,255.5313 Q842.6563,255.6875 843.2188,255.9844 L843.2188,258.7031 Q842.5938,258.125 842,257.8594 Q841.4063,257.5781 840.7813,257.5781 Q839.4375,257.5781 838.75,258.6563 Q838.0625,259.7188 838.0625,261.8125 Q838.0625,263.9063 838.75,264.9844 Q839.4375,266.0469 840.7813,266.0469 Q841.4063,266.0469 842,265.7813 Q842.5938,265.5 843.2188,264.9219 L843.2188,267.6406 Z " fill="#000000"/><text fill="#000000" font-family="sans-serif" font-size="12" lengthAdjust="spacing" textLength="37" x="860.75" y="266.1543">Agent</text><line style="stroke:#A80036;stroke-width:1.5;" x1="752" x2="974" y1="278" y2="278"/><text fill="#000000" font-family="sans-serif" font-size="11" lengthAdjust="spacing" textLength="207" x="757" y="292.2104">keywords : List&lt;Multilingual_String&gt;</text><text fill="#000000" font-family="sans-serif" font-size="11" lengthAdjust="spacing" textLength="121" x="757" y="305.0151">lifetime : Date_Range</text><text fill="#000000" font-family="sans-serif" font-size="11" lengthAdjust="spacing" textLength="212" x="757" y="317.8198">contacts : List&lt;Contact_Information&gt;</text><!--MD5=[c881b25adf3665c6568c9693d41a70f3]
class Activity--><rect codeLine="135" fill="#FFFFFF" filter="url(#fsh974f7m1n2g)" height="52.8047" id="Activity" style="stroke:#A80036;stroke-width:1.5;" width="151" x="386.5" y="116"/><ellipse cx="436.25" cy="132" fill="#ADD1B2" rx="11" ry="11" style="stroke:#A80036;stroke-width:1.0;"/><path d="M439.2188,137.6406 Q438.6406,137.9375 438,138.0781 Q437.3594,138.2344 436.6563,138.2344 Q434.1563,138.2344 432.8281,136.5938 Q431.5156,134.9375 431.5156,131.8125 Q431.5156,128.6875 432.8281,127.0313 Q434.1563,125.375 436.6563,125.375 Q437.3594,125.375 438,125.5313 Q438.6563,125.6875 439.2188,125.9844 L439.2188,128.7031 Q438.5938,128.125 438,127.8594 Q437.4063,127.5781 436.7813,127.5781 Q435.4375,127.5781 434.75,128.6563 Q434.0625,129.7188 434.0625,131.8125 Q434.0625,133.9063 434.75,134.9844 Q435.4375,136.0469 436.7813,136.0469 Q437.4063,136.0469 438,135.7813 Q438.5938,135.5 439.2188,134.9219 L439.2188,137.6406 Z " fill="#000000"/><text fill="#000000" font-family="sans-serif" font-size="12" lengthAdjust="spacing" textLength="43" x="456.75" y="136.1543">Activity</text><line style="stroke:#A80036;stroke-width:1.5;" x1="387.5" x2="536.5" y1="148" y2="148"/><text fill="#000000" font-family="sans-serif" font-size="11" lengthAdjust="spacing" textLength="139" x="392.5" y="162.2104">dateRange : Date_Range</text><!--MD5=[59b530d44ae785dc18db921986a9c15c]
class Document--><rect fill="#FEFECE" filter="url(#fsh974f7m1n2g)" height="32" id="Document" style="stroke:#A80036;stroke-width:1.5;" width="96" x="414" y="7"/><ellipse cx="429" cy="23" fill="#ADD1B2" rx="11" ry="11" style="stroke:#A80036;stroke-width:1.0;"/><path d="M431.9688,28.6406 Q431.3906,28.9375 430.75,29.0781 Q430.1094,29.2344 429.4063,29.2344 Q426.9063,29.2344 425.5781,27.5938 Q424.2656,25.9375 424.2656,22.8125 Q424.2656,19.6875 425.5781,18.0313 Q426.9063,16.375 429.4063,16.375 Q430.1094,16.375 430.75,16.5313 Q431.4063,16.6875 431.9688,16.9844 L431.9688,19.7031 Q431.3438,19.125 430.75,18.8594 Q430.1563,18.5781 429.5313,18.5781 Q428.1875,18.5781 427.5,19.6563 Q426.8125,20.7188 426.8125,22.8125 Q426.8125,24.9063 427.5,25.9844 Q428.1875,27.0469 429.5313,27.0469 Q430.1563,27.0469 430.75,26.7813 Q431.3438,26.5 431.9688,25.9219 L431.9688,28.6406 Z " fill="#000000"/><text fill="#000000" font-family="sans-serif" font-size="12" lengthAdjust="spacing" textLength="64" x="443" y="27.1543">Document</text><!--MD5=[77463bb17ddcfe3891c27a1f4a877731]
class Membership--><rect codeLine="169" fill="#FFFFFF" filter="url(#fsh974f7m1n2g)" height="32" id="Membership" style="stroke:#A80036;stroke-width:1.5;" width="108" x="396" y="424"/><ellipse cx="411" cy="440" fill="#ADD1B2" rx="11" ry="11" style="stroke:#A80036;stroke-width:1.0;"/><path d="M413.9688,445.6406 Q413.3906,445.9375 412.75,446.0781 Q412.1094,446.2344 411.4063,446.2344 Q408.9063,446.2344 407.5781,444.5938 Q406.2656,442.9375 406.2656,439.8125 Q406.2656,436.6875 407.5781,435.0313 Q408.9063,433.375 411.4063,433.375 Q412.1094,433.375 412.75,433.5313 Q413.4063,433.6875 413.9688,433.9844 L413.9688,436.7031 Q413.3438,436.125 412.75,435.8594 Q412.1563,435.5781 411.5313,435.5781 Q410.1875,435.5781 409.5,436.6563 Q408.8125,437.7188 408.8125,439.8125 Q408.8125,441.9063 409.5,442.9844 Q410.1875,444.0469 411.5313,444.0469 Q412.1563,444.0469 412.75,443.7813 Q413.3438,443.5 413.9688,442.9219 L413.9688,445.6406 Z " fill="#000000"/><text fill="#000000" font-family="sans-serif" font-size="12" lengthAdjust="spacing" textLength="76" x="425" y="444.1543">Membership</text><!--MD5=[6a029e66987f6edc98a50822cc78695f]
class Involvement--><rect codeLine="141" fill="#FFFFFF" filter="url(#fsh974f7m1n2g)" height="32" id="Involvement" style="stroke:#A80036;stroke-width:1.5;" width="106" x="409" y="269"/><ellipse cx="424" cy="285" fill="#ADD1B2" rx="11" ry="11" style="stroke:#A80036;stroke-width:1.0;"/><path d="M426.9688,290.6406 Q426.3906,290.9375 425.75,291.0781 Q425.1094,291.2344 424.4063,291.2344 Q421.9063,291.2344 420.5781,289.5938 Q419.2656,287.9375 419.2656,284.8125 Q419.2656,281.6875 420.5781,280.0313 Q421.9063,278.375 424.4063,278.375 Q425.1094,278.375 425.75,278.5313 Q426.4063,278.6875 426.9688,278.9844 L426.9688,281.7031 Q426.3438,281.125 425.75,280.8594 Q425.1563,280.5781 424.5313,280.5781 Q423.1875,280.5781 422.5,281.6563 Q421.8125,282.7188 421.8125,284.8125 Q421.8125,286.9063 422.5,287.9844 Q423.1875,289.0469 424.5313,289.0469 Q425.1563,289.0469 425.75,288.7813 Q426.3438,288.5 426.9688,287.9219 L426.9688,290.6406 Z " fill="#000000"/><text fill="#000000" font-family="sans-serif" font-size="12" lengthAdjust="spacing" textLength="74" x="438" y="289.1543">Involvement</text><!--MD5=[09ce52be0ee7de43c61b6e2d59bf108b]
class Person--><rect codeLine="18" fill="#FFFFFF" filter="url(#fsh974f7m1n2g)" height="65.6094" id="Person" style="stroke:#A80036;stroke-width:1.5;" width="236" x="780" y="407"/><ellipse cx="871.75" cy="423" fill="#ADD1B2" rx="11" ry="11" style="stroke:#A80036;stroke-width:1.0;"/><path d="M874.7188,428.6406 Q874.1406,428.9375 873.5,429.0781 Q872.8594,429.2344 872.1563,429.2344 Q869.6563,429.2344 868.3281,427.5938 Q867.0156,425.9375 867.0156,422.8125 Q867.0156,419.6875 868.3281,418.0313 Q869.6563,416.375 872.1563,416.375 Q872.8594,416.375 873.5,416.5313 Q874.1563,416.6875 874.7188,416.9844 L874.7188,419.7031 Q874.0938,419.125 873.5,418.8594 Q872.9063,418.5781 872.2813,418.5781 Q870.9375,418.5781 870.25,419.6563 Q869.5625,420.7188 869.5625,422.8125 Q869.5625,424.9063 870.25,425.9844 Q870.9375,427.0469 872.2813,427.0469 Q872.9063,427.0469 873.5,426.7813 Q874.0938,426.5 874.7188,425.9219 L874.7188,428.6406 Z " fill="#000000"/><text fill="#000000" font-family="sans-serif" font-size="12" lengthAdjust="spacing" textLength="44" x="892.25" y="427.1543">Person</text><line style="stroke:#A80036;stroke-width:1.5;" x1="781" x2="1015" y1="439" y2="439"/><text fill="#000000" font-family="sans-serif" font-size="11" lengthAdjust="spacing" textLength="167" x="786" y="453.2104">name            : Person_Name</text><text fill="#000000" font-family="sans-serif" font-size="11" lengthAdjust="spacing" textLength="224" x="786" y="466.0151">alternateNames  : List&lt;Person_Name&gt;</text><!--MD5=[7b209ef07eb91b93e0aebc9fe4fb9a26]
class Person_Name--><rect codeLine="78" fill="#FFFFFF" filter="url(#fsh974f7m1n2g)" height="84.3516" id="Person_Name" style="stroke:#A80036;stroke-width:1.5;" width="201" x="797.5" y="540"/><ellipse cx="850.75" cy="558.9688" fill="#ADD0B2" rx="11" ry="11" style="stroke:#A80036;stroke-width:1.0;"/><path d="M850.3438,554.7813 L850.3438,562.7656 L851,562.7656 Q852.4375,562.7656 853.0469,561.8594 Q853.6719,560.9375 853.6719,558.7656 Q853.6719,556.5938 853.0469,555.6875 Q852.4375,554.7813 851,554.7813 L850.3438,554.7813 Z M847.8906,552.5781 L850.5156,552.5781 Q853.5469,552.5781 854.875,554.0313 Q856.2188,555.4688 856.2188,558.7656 Q856.2188,562.0625 854.875,563.5156 Q853.5469,564.9688 850.5156,564.9688 L847.8906,564.9688 L847.8906,552.5781 Z " fill="#000000"/><text fill="#000000" font-family="sans-serif" font-size="12" font-style="italic" lengthAdjust="spacing" textLength="74" x="877.25" y="556.1387">«DataType»</text><text fill="#000000" font-family="sans-serif" font-size="12" lengthAdjust="spacing" textLength="86" x="871.25" y="570.1074">Person_Name</text><line style="stroke:#A80036;stroke-width:1.5;" x1="798.5" x2="997.5" y1="577.9375" y2="577.9375"/><text fill="#000000" font-family="sans-serif" font-size="11" lengthAdjust="spacing" textLength="178" x="803.5" y="592.1479">firstNames : Multilingual_String</text><text fill="#000000" font-family="sans-serif" font-size="11" lengthAdjust="spacing" textLength="189" x="803.5" y="604.9526">familyNames : Multilingual_String</text><text fill="#000000" font-family="sans-serif" font-size="11" lengthAdjust="spacing" textLength="185" x="803.5" y="617.7573">otherNames : Multilingual_String</text><!--MD5=[41314a0efc36828092cff9ebad2fcafd]
class Group--><rect codeLine="102" fill="#FFFFFF" filter="url(#fsh974f7m1n2g)" height="32" id="Group" style="stroke:#A80036;stroke-width:1.5;" width="70" x="490" y="566"/><ellipse cx="505" cy="582" fill="#ADD1B2" rx="11" ry="11" style="stroke:#A80036;stroke-width:1.0;"/><path d="M507.9688,587.6406 Q507.3906,587.9375 506.75,588.0781 Q506.1094,588.2344 505.4063,588.2344 Q502.9063,588.2344 501.5781,586.5938 Q500.2656,584.9375 500.2656,581.8125 Q500.2656,578.6875 501.5781,577.0313 Q502.9063,575.375 505.4063,575.375 Q506.1094,575.375 506.75,575.5313 Q507.4063,575.6875 507.9688,575.9844 L507.9688,578.7031 Q507.3438,578.125 506.75,577.8594 Q506.1563,577.5781 505.5313,577.5781 Q504.1875,577.5781 503.5,578.6563 Q502.8125,579.7188 502.8125,581.8125 Q502.8125,583.9063 503.5,584.9844 Q504.1875,586.0469 505.5313,586.0469 Q506.1563,586.0469 506.75,585.7813 Q507.3438,585.5 507.9688,584.9219 L507.9688,587.6406 Z " fill="#000000"/><text fill="#000000" font-family="sans-serif" font-size="12" lengthAdjust="spacing" textLength="38" x="519" y="586.1543">Group</text><!--MD5=[affb11a45f8309443fb20b6133e8d181]
class Group_or_Organisation_Unit--><rect codeLine="90" fill="#FFFFFF" filter="url(#fsh974f7m1n2g)" height="78.4141" id="Group_or_Organisation_Unit" style="stroke:#A80036;stroke-width:1.5;" width="206" x="539" y="401"/><ellipse cx="554" cy="417" fill="#ADD1B2" rx="11" ry="11" style="stroke:#A80036;stroke-width:1.0;"/><path d="M556.9688,422.6406 Q556.3906,422.9375 555.75,423.0781 Q555.1094,423.2344 554.4063,423.2344 Q551.9063,423.2344 550.5781,421.5938 Q549.2656,419.9375 549.2656,416.8125 Q549.2656,413.6875 550.5781,412.0313 Q551.9063,410.375 554.4063,410.375 Q555.1094,410.375 555.75,410.5313 Q556.4063,410.6875 556.9688,410.9844 L556.9688,413.7031 Q556.3438,413.125 555.75,412.8594 Q555.1563,412.5781 554.5313,412.5781 Q553.1875,412.5781 552.5,413.6563 Q551.8125,414.7188 551.8125,416.8125 Q551.8125,418.9063 552.5,419.9844 Q553.1875,421.0469 554.5313,421.0469 Q555.1563,421.0469 555.75,420.7813 Q556.3438,420.5 556.9688,419.9219 L556.9688,422.6406 Z " fill="#000000"/><text fill="#000000" font-family="sans-serif" font-size="12" lengthAdjust="spacing" textLength="174" x="568" y="421.1543">Group_or_Organisation_Unit</text><line style="stroke:#A80036;stroke-width:1.5;" x1="540" x2="744" y1="433" y2="433"/><text fill="#000000" font-family="sans-serif" font-size="11" lengthAdjust="spacing" textLength="147" x="545" y="447.2104">name : Multilingual_String</text><text fill="#000000" font-family="sans-serif" font-size="11" lengthAdjust="spacing" textLength="95" x="545" y="460.0151">acronym : String</text><text fill="#000000" font-family="sans-serif" font-size="11" lengthAdjust="spacing" textLength="178" x="545" y="472.8198">description : Multilingual_String</text><!--MD5=[779f3743e425ed8a6f0bf188ddea4860]
class Organisation_Unit--><rect codeLine="111" fill="#FFFFFF" filter="url(#fsh974f7m1n2g)" height="32" id="Organisation_Unit" style="stroke:#A80036;stroke-width:1.5;" width="143" x="595.5" y="566"/><ellipse cx="610.5" cy="582" fill="#ADD1B2" rx="11" ry="11" style="stroke:#A80036;stroke-width:1.0;"/><path d="M613.4688,587.6406 Q612.8906,587.9375 612.25,588.0781 Q611.6094,588.2344 610.9063,588.2344 Q608.4063,588.2344 607.0781,586.5938 Q605.7656,584.9375 605.7656,581.8125 Q605.7656,578.6875 607.0781,577.0313 Q608.4063,575.375 610.9063,575.375 Q611.6094,575.375 612.25,575.5313 Q612.9063,575.6875 613.4688,575.9844 L613.4688,578.7031 Q612.8438,578.125 612.25,577.8594 Q611.6563,577.5781 611.0313,577.5781 Q609.6875,577.5781 609,578.6563 Q608.3125,579.7188 608.3125,581.8125 Q608.3125,583.9063 609,584.9844 Q609.6875,586.0469 611.0313,586.0469 Q611.6563,586.0469 612.25,585.7813 Q612.8438,585.5 613.4688,584.9219 L613.4688,587.6406 Z " fill="#000000"/><text fill="#000000" font-family="sans-serif" font-size="12" lengthAdjust="spacing" textLength="111" x="624.5" y="586.1543">Organisation_Unit</text><!--MD5=[dae000cba6c379e3053478bba72a741c]
class Organisation_Unit_with_Members--><rect codeLine="120" fill="#FFFFFF" filter="url(#fsh974f7m1n2g)" height="32" id="Organisation_Unit_with_Members" style="stroke:#A80036;stroke-width:1.5;" width="237" x="476.5" y="685"/><ellipse cx="491.5" cy="701" fill="#ADD1B2" rx="11" ry="11" style="stroke:#A80036;stroke-width:1.0;"/><path d="M494.4688,706.6406 Q493.8906,706.9375 493.25,707.0781 Q492.6094,707.2344 491.9063,707.2344 Q489.4063,707.2344 488.0781,705.5938 Q486.7656,703.9375 486.7656,700.8125 Q486.7656,697.6875 488.0781,696.0313 Q489.4063,694.375 491.9063,694.375 Q492.6094,694.375 493.25,694.5313 Q493.9063,694.6875 494.4688,694.9844 L494.4688,697.7031 Q493.8438,697.125 493.25,696.8594 Q492.6563,696.5781 492.0313,696.5781 Q490.6875,696.5781 490,697.6563 Q489.3125,698.7188 489.3125,700.8125 Q489.3125,702.9063 490,703.9844 Q490.6875,705.0469 492.0313,705.0469 Q492.6563,705.0469 493.25,704.7813 Q493.8438,704.5 494.4688,703.9219 L494.4688,706.6406 Z " fill="#000000"/><text fill="#000000" font-family="sans-serif" font-size="12" lengthAdjust="spacing" textLength="205" x="505.5" y="705.1543">Organisation_Unit_with_Members</text><!--MD5=[ddbff00b4911ad4b77d6aa32dd14d1d7]
class Affiliation_Statement--><rect codeLine="357" fill="#FFFFFF" filter="url(#fsh974f7m1n2g)" height="78.4141" id="Affiliation_Statement" style="stroke:#A80036;stroke-width:1.5;" width="224" x="7" y="246"/><ellipse cx="50.35" cy="262" fill="#ADD1B2" rx="11" ry="11" style="stroke:#A80036;stroke-width:1.0;"/><path d="M53.3188,267.6406 Q52.7406,267.9375 52.1,268.0781 Q51.4594,268.2344 50.7563,268.2344 Q48.2563,268.2344 46.9281,266.5938 Q45.6156,264.9375 45.6156,261.8125 Q45.6156,258.6875 46.9281,257.0313 Q48.2563,255.375 50.7563,255.375 Q51.4594,255.375 52.1,255.5313 Q52.7563,255.6875 53.3188,255.9844 L53.3188,258.7031 Q52.6938,258.125 52.1,257.8594 Q51.5063,257.5781 50.8813,257.5781 Q49.5375,257.5781 48.85,258.6563 Q48.1625,259.7188 48.1625,261.8125 Q48.1625,263.9063 48.85,264.9844 Q49.5375,266.0469 50.8813,266.0469 Q51.5063,266.0469 52.1,265.7813 Q52.6938,265.5 53.3188,264.9219 L53.3188,267.6406 Z " fill="#000000"/><text fill="#000000" font-family="sans-serif" font-size="12" lengthAdjust="spacing" textLength="129" x="70.65" y="266.1543">Affiliation_Statement</text><line style="stroke:#A80036;stroke-width:1.5;" x1="8" x2="230" y1="278" y2="278"/><text fill="#000000" font-family="sans-serif" font-size="11" lengthAdjust="spacing" textLength="203" x="13" y="292.2104">displayAffiliation_Statement : String</text><text fill="#000000" font-family="sans-serif" font-size="11" lengthAdjust="spacing" textLength="159" x="13" y="305.0151">displayPersonName : String</text><text fill="#000000" font-family="sans-serif" font-size="11" lengthAdjust="spacing" textLength="212" x="13" y="317.8198">contacts : List&lt;Contact_Information&gt;</text><!--MD5=[ff9dfe2dddb5fe4a69020d7834f0d207]
link Document to Activity--><path codeLine="214" d="M462,39.36 C462,58.77 462,92.45 462,115.8 " fill="none" id="Document-Activity" style="stroke:#A80036;stroke-width:1.0;"/><polygon fill="#000000" points="467,82.5664,469.9389,73.5213,464.0611,73.5213,467,82.5664" style="stroke:#000000;stroke-width:1.0;"/><text fill="#000000" font-family="sans-serif" font-size="13" lengthAdjust="spacing" textLength="36" x="476" y="82.0669">prove</text><text fill="#000000" font-family="sans-serif" font-size="13" lengthAdjust="spacing" textLength="23" x="435.3344" y="59.0534">0..*</text><text fill="#000000" font-family="sans-serif" font-size="13" lengthAdjust="spacing" textLength="23" x="436.3406" y="104.9961">0..*</text><!--MD5=[cd935cc757d29bd6a59b1252b30899e0]
link Activity to Agent--><path codeLine="220" d="M535.08,169.11 C594.98,190.09 680.78,220.15 749.59,244.26 " fill="none" id="Activity-to-Agent" style="stroke:#A80036;stroke-width:1.0;"/><polygon fill="#A80036" points="754.51,245.99,747.3394,239.2385,749.7914,244.3363,744.6936,246.7883,754.51,245.99" style="stroke:#A80036;stroke-width:1.0;"/><polygon fill="#000000" points="671.7188,209.2196,664.1541,203.4553,662.2107,209.0026,671.7188,209.2196" style="stroke:#000000;stroke-width:1.0;"/><text fill="#000000" font-family="sans-serif" font-size="13" lengthAdjust="spacing" textLength="33" x="676" y="212.0669">actor</text><text fill="#000000" font-family="sans-serif" font-size="13" lengthAdjust="spacing" textLength="23" x="525.5506" y="188.6743">0..*</text><text fill="#000000" font-family="sans-serif" font-size="13" lengthAdjust="spacing" textLength="24" x="719.0258" y="238.6105">0..1</text><!--MD5=[774ab914c44fde287bade86ae1a1d531]
reverse link Involvement to Membership--><path codeLine="174" d="M459.22,321.39 C456.68,353.78 453.05,400.16 451.19,423.83 " fill="none" id="Involvement-backto-Membership" style="stroke:#A80036;stroke-width:1.0;"/><polygon fill="none" points="452.26,320.62,460.81,301.23,466.22,321.72,452.26,320.62" style="stroke:#A80036;stroke-width:1.0;"/><!--MD5=[de96f77e660762cb21a195b4097c3876]
reverse link Agent to Person--><path codeLine="74" d="M876.23,343.84 C881.12,365.22 886.49,388.68 890.67,406.95 " fill="none" id="Agent-backto-Person" style="stroke:#A80036;stroke-width:1.0;"/><polygon fill="none" points="869.38,345.27,871.74,324.21,883.03,342.15,869.38,345.27" style="stroke:#A80036;stroke-width:1.0;"/><!--MD5=[5d8901ce694eb85aefa78b7d82d9f6f6]
link Person to Person_Name--><path codeLine="86" d="M898,473.12 C898,491.43 898,514.68 898,534.91 " fill="none" id="Person-to-Person_Name" style="stroke:#A80036;stroke-width:1.0;stroke-dasharray:7.0,7.0;"/><polygon fill="#A80036" points="898,539.98,902,530.98,898,534.98,894,530.98,898,539.98" style="stroke:#A80036;stroke-width:1.0;"/><text fill="#000000" font-family="sans-serif" font-size="13" lengthAdjust="spacing" textLength="37" x="857.9359" y="528.827">name</text><!--MD5=[ef849346ed6a9c6429a3acad43755067]
reverse link Group_or_Organisation_Unit to Group--><path codeLine="107" d="M597.2,494.61 C575.88,520.11 552,548.7 537.74,565.75 " fill="none" id="Group_or_Organisation_Unit-backto-Group" style="stroke:#A80036;stroke-width:1.0;"/><polygon fill="none" points="591.83,490.11,610.03,479.26,602.58,499.09,591.83,490.11" style="stroke:#A80036;stroke-width:1.0;"/><!--MD5=[46aa33658a7939f97c192b82d622be7c]
reverse link Group_or_Organisation_Unit to Organisation_Unit--><path codeLine="116" d="M652.35,498.97 C656.7,523.31 661.4,549.66 664.28,565.75 " fill="none" id="Group_or_Organisation_Unit-backto-Organisation_Unit" style="stroke:#A80036;stroke-width:1.0;"/><polygon fill="none" points="645.46,500.17,648.83,479.26,659.24,497.71,645.46,500.17" style="stroke:#A80036;stroke-width:1.0;"/><!--MD5=[854899a0b21de2cb3f4d3222738c1bb3]
reverse link Group to Organisation_Unit_with_Members--><path codeLine="125" d="M544.56,615.7 C558.07,638.28 575.42,667.27 585.85,684.7 " fill="none" id="Group-backto-Organisation_Unit_with_Members" style="stroke:#A80036;stroke-width:1.0;"/><polygon fill="none" points="538.41,619.05,534.15,598.3,550.43,611.86,538.41,619.05" style="stroke:#A80036;stroke-width:1.0;"/><!--MD5=[adeab3cf6be56cae862ee063039c31ec]
reverse link Organisation_Unit to Organisation_Unit_with_Members--><path codeLine="129" d="M647.09,615.36 C633.16,637.98 615.2,667.18 604.42,684.7 " fill="none" id="Organisation_Unit-backto-Organisation_Unit_with_Members" style="stroke:#A80036;stroke-width:1.0;"/><polygon fill="none" points="641.14,611.66,657.59,598.3,653.07,619,641.14,611.66" style="stroke:#A80036;stroke-width:1.0;"/><!--MD5=[8baa0633a34be8ca6adcc4fd46743d97]
reverse link Agent to Group_or_Organisation_Unit--><path codeLine="98" d="M791.59,335.44 C760.91,356.68 725.61,381.11 697.01,400.91 " fill="none" id="Agent-backto-Group_or_Organisation_Unit" style="stroke:#A80036;stroke-width:1.0;"/><polygon fill="none" points="787.66,329.65,808.09,324.02,795.63,341.16,787.66,329.65" style="stroke:#A80036;stroke-width:1.0;"/><!--MD5=[5310b7429ef001befd0a176a00932538]
reverse link Activity to Involvement--><path codeLine="146" d="M462,189.66 C462,217.04 462,249.97 462,268.8 " fill="none" id="Activity-backto-Involvement" style="stroke:#A80036;stroke-width:1.0;"/><polygon fill="none" points="455,189.27,462,169.27,469,189.27,455,189.27" style="stroke:#A80036;stroke-width:1.0;"/><!--MD5=[3e6df519c6409dff9ecce5f5942987dd]
link Involvement to Group_or_Organisation_Unit--><path codeLine="224" d="M479.92,301.23 C506.09,323.47 555.72,365.66 593.2,397.52 " fill="none" id="Involvement-to-Group_or_Organisation_Unit" style="stroke:#A80036;stroke-width:1.0;"/><polygon fill="#A80036" points="597.24,400.96,592.9741,392.0829,593.4307,397.7213,587.7923,398.1779,597.24,400.96" style="stroke:#A80036;stroke-width:1.0;"/><polygon fill="#000000" points="566.8097,365.8047,561.8213,357.7073,558.0145,362.1858,566.8097,365.8047" style="stroke:#000000;stroke-width:1.0;"/><text fill="#000000" font-family="sans-serif" font-size="13" lengthAdjust="spacing" textLength="67" x="572" y="367.0669">involved in</text><text fill="#000000" font-family="sans-serif" font-size="13" lengthAdjust="spacing" textLength="23" x="459.0466" y="321.1795">0..*</text><!--MD5=[ec091f800280b56df8e15aaaa2e5104f]
reverse link Affiliation_Statement to Involvement--><path codeLine="664" d="M236.58,285 C295.01,285 362.74,285 408.59,285 " fill="none" id="Affiliation_Statement-backto-Involvement" style="stroke:#A80036;stroke-width:1.0;"/><polygon fill="#A80036" points="231.31,285,240.31,289,236.31,285,240.31,281,231.31,285" style="stroke:#A80036;stroke-width:1.0;"/><polygon fill="#000000" points="248.5,273.5664,257.5451,276.5053,257.5451,270.6275,248.5,273.5664" style="stroke:#000000;stroke-width:1.0;"/><text fill="#000000" font-family="sans-serif" font-size="13" lengthAdjust="spacing" textLength="128" x="262.5" y="278.0669">is the foundation for</text><text fill="#000000" font-family="sans-serif" font-size="13" lengthAdjust="spacing" textLength="23" x="238.8547" y="297.5154">0..*</text><text fill="#000000" font-family="sans-serif" font-size="13" lengthAdjust="spacing" textLength="23" x="378.0848" y="297.9418">0..*</text><!--MD5=[eeb1986463f873db234da87eccdc590b]
link Involvement to Involvement--><path codeLine="668" d="M515.27,277.88 C534.4,277.73 550,280.1 550,285 C550,289.44 537.19,291.8 520.55,292.09 " fill="none" id="Involvement-to-Involvement" style="stroke:#A80036;stroke-width:1.0;"/><polygon fill="#A80036" points="515.27,292.12,524.2927,296.0685,520.2699,292.0914,524.247,288.0686,515.27,292.12" style="stroke:#A80036;stroke-width:1.0;"/><polygon fill="#000000" points="554.9608,290.0663,557.9706,281.0445,552.0929,280.9984,554.9608,290.0663" style="stroke:#000000;stroke-width:1.0;"/><text fill="#000000" font-family="sans-serif" font-size="13" lengthAdjust="spacing" textLength="26" x="569" y="289.5669">part</text><text fill="#000000" font-family="sans-serif" font-size="13" lengthAdjust="spacing" textLength="23" x="523.1638" y="290.0013">0..*</text><text fill="#000000" font-family="sans-serif" font-size="13" lengthAdjust="spacing" textLength="24" x="522.8168" y="305.885">0..1</text><!--MD5=[eeb1986463f873db234da87eccdc590b]
link Involvement to Involvement--><path codeLine="672" d="M515.29,272.43 C556.76,268.05 601,272.23 601,285 C601,297.22 560.48,301.58 520.65,298.08 " fill="none" id="Involvement-to-Involvement-1" style="stroke:#A80036;stroke-width:1.0;"/><polygon fill="#A80036" points="515.29,297.57,523.8584,302.4262,520.2663,298.0562,524.6363,294.4641,515.29,297.57" style="stroke:#A80036;stroke-width:1.0;"/><polygon fill="#000000" points="605.4748,290.0387,609.3475,281.3524,603.5022,280.735,605.4748,290.0387" style="stroke:#000000;stroke-width:1.0;"/><text fill="#000000" font-family="sans-serif" font-size="13" lengthAdjust="spacing" textLength="89" x="620" y="289.5669">part transitive</text><text fill="#000000" font-family="sans-serif" font-size="13" lengthAdjust="spacing" textLength="23" x="523.1863" y="267.059">0..*</text><text fill="#000000" font-family="sans-serif" font-size="13" lengthAdjust="spacing" textLength="23" x="515.7969" y="320.9636">0..*</text><!--MD5=[335bc652314d68e20c6b9db39c8a9e92]
reverse link Activity to Affiliation_Statement--><path codeLine="477" d="M387.44,174.04 C335.88,195.16 266.91,223.41 211.8,245.99 " fill="none" id="Activity-backto-Affiliation_Statement" style="stroke:#A80036;stroke-width:1.0;"/><polygon fill="#FFFFFF" points="399.49,169.11,392.4214,167.6835,388.386,173.6598,395.4546,175.0862,399.49,169.11" style="stroke:#A80036;stroke-width:1.0;"/><polygon fill="#000000" points="322.3732,209.4618,331.8573,208.7526,329.6291,203.3134,322.3732,209.4618" style="stroke:#000000;stroke-width:1.0;"/><text fill="#000000" font-family="sans-serif" font-size="13" lengthAdjust="spacing" textLength="61" x="336" y="212.0669">affilations</text><text fill="#000000" font-family="sans-serif" font-size="13" lengthAdjust="spacing" textLength="23" x="360.3003" y="188.6743">0..*</text><text fill="#000000" font-family="sans-serif" font-size="13" lengthAdjust="spacing" textLength="23" x="202.7734" y="235.0388">0..*</text><!--MD5=[ef2c54e932259daa6acdc8c007a11788]
@startuml

    !includesub core.puml!common
    !includesub core.puml!Agent
    !includesub core.puml!Activity
    !includesub core.puml!Membership
    !includesub core.puml!Person
    !includesub core.puml!Group
    !includesub core.puml!Organisation_Unit
    !includesub core.puml!Organisation_Unit_with_Members
    !includesub core.puml!Group_or_Organisation_Unit
    !includesub core.puml!Involvement
    !includesub core.puml!Affiliation_Statement

@enduml

@startuml

    hide empty members
    skinparam BoxPadding 120
    class "Agent" #ffffff {
        keywords : List<Multilingual_String>
    	lifetime : Date_Range
    	contacts : List<Contact_Information>
    }
    class "Activity" #ffffff {
  		dateRange : Date_Range
    }
	"Document" "0..*" - - "0..*" "Activity" : prove >
    "Activity" "0..*" - -> "0..1" "Agent" : actor >
    class "Membership" #ffffff {
    }
    "Involvement" <|-d- "Membership"
    class "Person" #ffffff {
        name            : Person_Name
        alternateNames  : List<Person_Name>
    }
    "Agent" <|- - "Person"
    class Person_Name << (D,#add0b2) DataType>> #ffffff {
        firstNames : Multilingual_String
        familyNames : Multilingual_String
        otherNames : Multilingual_String
    }
    "Person" ..> "name" "Person_Name"
    class "Group" #ffffff {
    }
	"Group_or_Organisation_Unit" <|- - "Group"
    class "Organisation_Unit" #ffffff {
    }
	"Group_or_Organisation_Unit" <|- - "Organisation_Unit"
    class "Organisation_Unit_with_Members" #ffffff {
    }
    "Group" <|- - "Organisation_Unit_with_Members"
    "Organisation_Unit" <|- - "Organisation_Unit_with_Members"
    class "Group_or_Organisation_Unit" #ffffff {
        name : Multilingual_String
        acronym : String
        description : Multilingual_String
    }
	"Agent" <|- - "Group_or_Organisation_Unit"
    class "Involvement" #ffffff {
    }
   "Activity" <|-d- "Involvement"
	"Involvement" "0..*" - -> "Group_or_Organisation_Unit" : involved in >
	"Involvement" "0..*" -l-> "0..*" "Affiliation_Statement" : is the foundation for >
	"Involvement" "0..*" - -> "0..1" "Involvement" : part >
	"Involvement" "0..*" - -> "0..*" "Involvement" : part transitive >
    class "Affiliation_Statement" #ffffff {
        displayAffiliation_Statement : String
        displayPersonName : String
        contacts : List<Contact_Information>
    }
    "Activity" "0..*" o- - "0..*" "Affiliation_Statement" : affilations >

@enduml

PlantUML version 1.2021.8(Sat Jun 26 08:20:59 UTC 2021)
(GPL source distribution)
Java Runtime: OpenJDK Runtime Environment
JVM: OpenJDK 64-Bit Server VM
Default Encoding: UTF-8
Language: en
Country: null
--></g></svg>