<?xml version="1.0" encoding="UTF-8" standalone="no"?><svg xmlns="http://www.w3.org/2000/svg" xmlns:xlink="http://www.w3.org/1999/xlink" contentScriptType="application/ecmascript" contentStyleType="text/css" height="560px" preserveAspectRatio="none" style="width:562px;height:560px;background:#FFFFFF;" version="1.1" viewBox="0 0 562 560" width="562px" zoomAndPan="magnify"><defs><filter height="300%" id="f18g43owug2m73" width="300%" x="-1" y="-1"><feGaussianBlur result="blurOut" stdDeviation="2.0"/><feColorMatrix in="blurOut" result="blurOut2" type="matrix" values="0 0 0 0 0 0 0 0 0 0 0 0 0 0 0 0 0 0 .4 0"/><feOffset dx="4.0" dy="4.0" in="blurOut2" result="blurOut3"/><feBlend in="SourceGraphic" in2="blurOut3" mode="normal"/></filter></defs><g><!--MD5=[9d44916250b776386006c440668bcfbb]
class Agent--><rect codeLine="23" fill="#FFFFFF" filter="url(#f18g43owug2m73)" height="32" id="Agent" style="stroke:#A80036;stroke-width:1.5;" width="69" x="150.5" y="145.5"/><ellipse cx="165.5" cy="161.5" fill="#ADD1B2" rx="11" ry="11" style="stroke:#A80036;stroke-width:1.0;"/><path d="M168.4688,167.1406 Q167.8906,167.4375 167.25,167.5781 Q166.6094,167.7344 165.9063,167.7344 Q163.4063,167.7344 162.0781,166.0938 Q160.7656,164.4375 160.7656,161.3125 Q160.7656,158.1875 162.0781,156.5313 Q163.4063,154.875 165.9063,154.875 Q166.6094,154.875 167.25,155.0313 Q167.9063,155.1875 168.4688,155.4844 L168.4688,158.2031 Q167.8438,157.625 167.25,157.3594 Q166.6563,157.0781 166.0313,157.0781 Q164.6875,157.0781 164,158.1563 Q163.3125,159.2188 163.3125,161.3125 Q163.3125,163.4063 164,164.4844 Q164.6875,165.5469 166.0313,165.5469 Q166.6563,165.5469 167.25,165.2813 Q167.8438,165 168.4688,164.4219 L168.4688,167.1406 Z " fill="#000000"/><text fill="#000000" font-family="sans-serif" font-size="12" lengthAdjust="spacing" textLength="37" x="179.5" y="165.6543">Agent</text><!--MD5=[c881b25adf3665c6568c9693d41a70f3]
class Activity--><rect codeLine="52" fill="#FFFFFF" filter="url(#f18g43owug2m73)" height="32" id="Activity" style="stroke:#A80036;stroke-width:1.5;" width="75" x="147.5" y="7"/><ellipse cx="162.5" cy="23" fill="#ADD1B2" rx="11" ry="11" style="stroke:#A80036;stroke-width:1.0;"/><path d="M165.4688,28.6406 Q164.8906,28.9375 164.25,29.0781 Q163.6094,29.2344 162.9063,29.2344 Q160.4063,29.2344 159.0781,27.5938 Q157.7656,25.9375 157.7656,22.8125 Q157.7656,19.6875 159.0781,18.0313 Q160.4063,16.375 162.9063,16.375 Q163.6094,16.375 164.25,16.5313 Q164.9063,16.6875 165.4688,16.9844 L165.4688,19.7031 Q164.8438,19.125 164.25,18.8594 Q163.6563,18.5781 163.0313,18.5781 Q161.6875,18.5781 161,19.6563 Q160.3125,20.7188 160.3125,22.8125 Q160.3125,24.9063 161,25.9844 Q161.6875,27.0469 163.0313,27.0469 Q163.6563,27.0469 164.25,26.7813 Q164.8438,26.5 165.4688,25.9219 L165.4688,28.6406 Z " fill="#000000"/><text fill="#000000" font-family="sans-serif" font-size="12" lengthAdjust="spacing" textLength="43" x="176.5" y="27.1543">Activity</text><!--MD5=[77463bb17ddcfe3891c27a1f4a877731]
class Membership--><rect codeLine="57" fill="#FFFFFF" filter="url(#f18g43owug2m73)" height="32" id="Membership" style="stroke:#A80036;stroke-width:1.5;" width="108" x="7" y="145.5"/><ellipse cx="22" cy="161.5" fill="#ADD1B2" rx="11" ry="11" style="stroke:#A80036;stroke-width:1.0;"/><path d="M24.9688,167.1406 Q24.3906,167.4375 23.75,167.5781 Q23.1094,167.7344 22.4063,167.7344 Q19.9063,167.7344 18.5781,166.0938 Q17.2656,164.4375 17.2656,161.3125 Q17.2656,158.1875 18.5781,156.5313 Q19.9063,154.875 22.4063,154.875 Q23.1094,154.875 23.75,155.0313 Q24.4063,155.1875 24.9688,155.4844 L24.9688,158.2031 Q24.3438,157.625 23.75,157.3594 Q23.1563,157.0781 22.5313,157.0781 Q21.1875,157.0781 20.5,158.1563 Q19.8125,159.2188 19.8125,161.3125 Q19.8125,163.4063 20.5,164.4844 Q21.1875,165.5469 22.5313,165.5469 Q23.1563,165.5469 23.75,165.2813 Q24.3438,165 24.9688,164.4219 L24.9688,167.1406 Z " fill="#000000"/><text fill="#000000" font-family="sans-serif" font-size="12" lengthAdjust="spacing" textLength="76" x="36" y="165.6543">Membership</text><!--MD5=[41314a0efc36828092cff9ebad2fcafd]
class Group--><rect codeLine="62" fill="#FFFFFF" filter="url(#f18g43owug2m73)" height="32" id="Group" style="stroke:#A80036;stroke-width:1.5;" width="70" x="26" y="326.5"/><ellipse cx="41" cy="342.5" fill="#ADD1B2" rx="11" ry="11" style="stroke:#A80036;stroke-width:1.0;"/><path d="M43.9688,348.1406 Q43.3906,348.4375 42.75,348.5781 Q42.1094,348.7344 41.4063,348.7344 Q38.9063,348.7344 37.5781,347.0938 Q36.2656,345.4375 36.2656,342.3125 Q36.2656,339.1875 37.5781,337.5313 Q38.9063,335.875 41.4063,335.875 Q42.1094,335.875 42.75,336.0313 Q43.4063,336.1875 43.9688,336.4844 L43.9688,339.2031 Q43.3438,338.625 42.75,338.3594 Q42.1563,338.0781 41.5313,338.0781 Q40.1875,338.0781 39.5,339.1563 Q38.8125,340.2188 38.8125,342.3125 Q38.8125,344.4063 39.5,345.4844 Q40.1875,346.5469 41.5313,346.5469 Q42.1563,346.5469 42.75,346.2813 Q43.3438,346 43.9688,345.4219 L43.9688,348.1406 Z " fill="#000000"/><text fill="#000000" font-family="sans-serif" font-size="12" lengthAdjust="spacing" textLength="38" x="55" y="346.6543">Group</text><!--MD5=[09ce52be0ee7de43c61b6e2d59bf108b]
class Person--><rect codeLine="39" fill="#FFFFFF" filter="url(#f18g43owug2m73)" height="65.6094" id="Person" style="stroke:#A80036;stroke-width:1.5;" width="135" x="347.5" y="309.5"/><ellipse cx="389.05" cy="325.5" fill="#ADD1B2" rx="11" ry="11" style="stroke:#A80036;stroke-width:1.0;"/><path d="M392.0188,331.1406 Q391.4406,331.4375 390.8,331.5781 Q390.1594,331.7344 389.4563,331.7344 Q386.9563,331.7344 385.6281,330.0938 Q384.3156,328.4375 384.3156,325.3125 Q384.3156,322.1875 385.6281,320.5313 Q386.9563,318.875 389.4563,318.875 Q390.1594,318.875 390.8,319.0313 Q391.4563,319.1875 392.0188,319.4844 L392.0188,322.2031 Q391.3938,321.625 390.8,321.3594 Q390.2063,321.0781 389.5813,321.0781 Q388.2375,321.0781 387.55,322.1563 Q386.8625,323.2188 386.8625,325.3125 Q386.8625,327.4063 387.55,328.4844 Q388.2375,329.5469 389.5813,329.5469 Q390.2063,329.5469 390.8,329.2813 Q391.3938,329 392.0188,328.4219 L392.0188,331.1406 Z " fill="#000000"/><text fill="#000000" font-family="sans-serif" font-size="12" lengthAdjust="spacing" textLength="44" x="408.95" y="329.6543">Person</text><line style="stroke:#A80036;stroke-width:1.5;" x1="348.5" x2="481.5" y1="341.5" y2="341.5"/><text fill="#000000" font-family="sans-serif" font-size="11" lengthAdjust="spacing" textLength="123" x="353.5" y="355.7104">name : Person_Name</text><text fill="#000000" font-family="sans-serif" font-size="11" lengthAdjust="spacing" textLength="102" x="353.5" y="368.5151">orcidId : ORCID_iD</text><!--MD5=[7b209ef07eb91b93e0aebc9fe4fb9a26]
class Person_Name--><rect codeLine="44" fill="#FFFFFF" filter="url(#f18g43owug2m73)" height="84.3516" id="Person_Name" style="stroke:#A80036;stroke-width:1.5;" width="201" x="314.5" y="462"/><ellipse cx="367.75" cy="480.9688" fill="#ADD0B2" rx="11" ry="11" style="stroke:#A80036;stroke-width:1.0;"/><path d="M367.3438,476.7813 L367.3438,484.7656 L368,484.7656 Q369.4375,484.7656 370.0469,483.8594 Q370.6719,482.9375 370.6719,480.7656 Q370.6719,478.5938 370.0469,477.6875 Q369.4375,476.7813 368,476.7813 L367.3438,476.7813 Z M364.8906,474.5781 L367.5156,474.5781 Q370.5469,474.5781 371.875,476.0313 Q373.2188,477.4688 373.2188,480.7656 Q373.2188,484.0625 371.875,485.5156 Q370.5469,486.9688 367.5156,486.9688 L364.8906,486.9688 L364.8906,474.5781 Z " fill="#000000"/><text fill="#000000" font-family="sans-serif" font-size="12" font-style="italic" lengthAdjust="spacing" textLength="74" x="394.25" y="478.1387">«DataType»</text><text fill="#000000" font-family="sans-serif" font-size="12" lengthAdjust="spacing" textLength="86" x="388.25" y="492.1074">Person_Name</text><line style="stroke:#A80036;stroke-width:1.5;" x1="315.5" x2="514.5" y1="499.9375" y2="499.9375"/><text fill="#000000" font-family="sans-serif" font-size="11" lengthAdjust="spacing" textLength="178" x="320.5" y="514.1479">firstNames : Multilingual_String</text><text fill="#000000" font-family="sans-serif" font-size="11" lengthAdjust="spacing" textLength="189" x="320.5" y="526.9526">familyNames : Multilingual_String</text><text fill="#000000" font-family="sans-serif" font-size="11" lengthAdjust="spacing" textLength="185" x="320.5" y="539.7573">otherNames : Multilingual_String</text><!--MD5=[779f3743e425ed8a6f0bf188ddea4860]
class Organisation_Unit--><rect codeLine="28" fill="#FFFFFF" filter="url(#f18g43owug2m73)" height="116.8281" id="Organisation_Unit" style="stroke:#A80036;stroke-width:1.5;" width="159" x="131.5" y="284"/><ellipse cx="153.7" cy="300" fill="#ADD1B2" rx="11" ry="11" style="stroke:#A80036;stroke-width:1.0;"/><path d="M156.6688,305.6406 Q156.0906,305.9375 155.45,306.0781 Q154.8094,306.2344 154.1063,306.2344 Q151.6063,306.2344 150.2781,304.5938 Q148.9656,302.9375 148.9656,299.8125 Q148.9656,296.6875 150.2781,295.0313 Q151.6063,293.375 154.1063,293.375 Q154.8094,293.375 155.45,293.5313 Q156.1063,293.6875 156.6688,293.9844 L156.6688,296.7031 Q156.0438,296.125 155.45,295.8594 Q154.8563,295.5781 154.2313,295.5781 Q152.8875,295.5781 152.2,296.6563 Q151.5125,297.7188 151.5125,299.8125 Q151.5125,301.9063 152.2,302.9844 Q152.8875,304.0469 154.2313,304.0469 Q154.8563,304.0469 155.45,303.7813 Q156.0438,303.5 156.6688,302.9219 L156.6688,305.6406 Z " fill="#000000"/><text fill="#000000" font-family="sans-serif" font-size="12" lengthAdjust="spacing" textLength="111" x="169.3" y="304.1543">Organisation_Unit</text><line style="stroke:#A80036;stroke-width:1.5;" x1="132.5" x2="289.5" y1="316" y2="316"/><text fill="#000000" font-family="sans-serif" font-size="11" lengthAdjust="spacing" textLength="147" x="137.5" y="330.2104">name : Multilingual_String</text><text fill="#000000" font-family="sans-serif" font-size="11" lengthAdjust="spacing" textLength="95" x="137.5" y="343.0151">acronym : String</text><text fill="#000000" font-family="sans-serif" font-size="11" lengthAdjust="spacing" textLength="147" x="137.5" y="355.8198">address : Postal_Address</text><text fill="#000000" font-family="sans-serif" font-size="11" lengthAdjust="spacing" textLength="78" x="137.5" y="368.6245">rorId : ROR_Id</text><text fill="#000000" font-family="sans-serif" font-size="11" lengthAdjust="spacing" textLength="99" x="137.5" y="381.4292">webSiteURL : URL</text><text fill="#000000" font-family="sans-serif" font-size="11" lengthAdjust="spacing" textLength="64" x="137.5" y="394.2339">email : URL</text><!--MD5=[dae000cba6c379e3053478bba72a741c]
class Organisation_Unit_with_Members--><rect codeLine="67" fill="#FFFFFF" filter="url(#f18g43owug2m73)" height="32" id="Organisation_Unit_with_Members" style="stroke:#A80036;stroke-width:1.5;" width="237" x="23.5" y="488"/><ellipse cx="38.5" cy="504" fill="#ADD1B2" rx="11" ry="11" style="stroke:#A80036;stroke-width:1.0;"/><path d="M41.4688,509.6406 Q40.8906,509.9375 40.25,510.0781 Q39.6094,510.2344 38.9063,510.2344 Q36.4063,510.2344 35.0781,508.5938 Q33.7656,506.9375 33.7656,503.8125 Q33.7656,500.6875 35.0781,499.0313 Q36.4063,497.375 38.9063,497.375 Q39.6094,497.375 40.25,497.5313 Q40.9063,497.6875 41.4688,497.9844 L41.4688,500.7031 Q40.8438,500.125 40.25,499.8594 Q39.6563,499.5781 39.0313,499.5781 Q37.6875,499.5781 37,500.6563 Q36.3125,501.7188 36.3125,503.8125 Q36.3125,505.9063 37,506.9844 Q37.6875,508.0469 39.0313,508.0469 Q39.6563,508.0469 40.25,507.7813 Q40.8438,507.5 41.4688,506.9219 L41.4688,509.6406 Z " fill="#000000"/><text fill="#000000" font-family="sans-serif" font-size="12" lengthAdjust="spacing" textLength="205" x="52.5" y="508.1543">Organisation_Unit_with_Members</text><!--MD5=[ffd23e2be68b77e0a5e7cb34d3da4e62]
class Affiliation--><rect codeLine="135" fill="#FFFFFF" filter="url(#f18g43owug2m73)" height="91.2188" id="Affiliation" style="stroke:#A80036;stroke-width:1.5;" width="171" x="290.5" y="116"/><ellipse cx="343.25" cy="132" fill="#ADD1B2" rx="11" ry="11" style="stroke:#A80036;stroke-width:1.0;"/><path d="M346.2188,137.6406 Q345.6406,137.9375 345,138.0781 Q344.3594,138.2344 343.6563,138.2344 Q341.1563,138.2344 339.8281,136.5938 Q338.5156,134.9375 338.5156,131.8125 Q338.5156,128.6875 339.8281,127.0313 Q341.1563,125.375 343.6563,125.375 Q344.3594,125.375 345,125.5313 Q345.6563,125.6875 346.2188,125.9844 L346.2188,128.7031 Q345.5938,128.125 345,127.8594 Q344.4063,127.5781 343.7813,127.5781 Q342.4375,127.5781 341.75,128.6563 Q341.0625,129.7188 341.0625,131.8125 Q341.0625,133.9063 341.75,134.9844 Q342.4375,136.0469 343.7813,136.0469 Q344.4063,136.0469 345,135.7813 Q345.5938,135.5 346.2188,134.9219 L346.2188,137.6406 Z " fill="#000000"/><text fill="#000000" font-family="sans-serif" font-size="12" lengthAdjust="spacing" textLength="57" x="363.75" y="136.1543">Affiliation</text><line style="stroke:#A80036;stroke-width:1.5;" x1="291.5" x2="460.5" y1="148" y2="148"/><text fill="#000000" font-family="sans-serif" font-size="11" lengthAdjust="spacing" textLength="138" x="296.5" y="162.2104">displayAffiliation : String</text><text fill="#000000" font-family="sans-serif" font-size="11" lengthAdjust="spacing" textLength="159" x="296.5" y="175.0151">displayPersonName : String</text><text fill="#000000" font-family="sans-serif" font-size="11" lengthAdjust="spacing" textLength="147" x="296.5" y="187.8198">address : Postal_Address</text><text fill="#000000" font-family="sans-serif" font-size="11" lengthAdjust="spacing" textLength="116" x="296.5" y="200.6245">contacts : List&lt;URI&gt;</text><!--MD5=[cd935cc757d29bd6a59b1252b30899e0]
link Activity to Agent--><path codeLine="269" d="M185,39.13 C185,61.47 185,103.69 185,131.97 " fill="none" id="Activity-to-Agent" style="stroke:#A80036;stroke-width:1.0;"/><polygon fill="#FFFFFF" points="185,145.3,189,139.3,185,133.3,181,139.3,185,145.3" style="stroke:#A80036;stroke-width:1.0;"/><text fill="#000000" font-family="sans-serif" font-size="13" lengthAdjust="spacing" textLength="23" x="158.1906" y="59.0463">0..*</text><text fill="#000000" font-family="sans-serif" font-size="13" lengthAdjust="spacing" textLength="53" x="123.2219" y="134.5383">0..1 who</text><!--MD5=[ac110f789ae7a6a0503e4df1ad0c3da4]
reverse link Activity to Membership--><path codeLine="305" d="M157.73,54.02 C132.1,82.23 94.77,123.33 74.81,145.3 " fill="none" id="Activity-backto-Membership" style="stroke:#A80036;stroke-width:1.0;"/><polygon fill="none" points="152.63,49.23,171.26,39.13,162.99,58.64,152.63,49.23" style="stroke:#A80036;stroke-width:1.0;"/><!--MD5=[f5e0273634b15655b552a32017180749]
link Membership to Group--><path codeLine="309" d="M60.48,177.62 C59.98,192.67 59.28,216.43 59,237 C58.61,266.27 59.5,300.15 60.22,321.21 " fill="none" id="Membership-to-Group" style="stroke:#A80036;stroke-width:1.0;"/><polygon fill="#A80036" points="60.4,326.27,64.0632,317.1277,60.2144,321.2734,56.0687,317.4247,60.4,326.27" style="stroke:#A80036;stroke-width:1.0;"/><polygon fill="#000000" points="63.9909,250.5664,66.9462,241.5266,61.0684,241.516,63.9909,250.5664" style="stroke:#000000;stroke-width:1.0;"/><text fill="#000000" font-family="sans-serif" font-size="13" lengthAdjust="spacing" textLength="11" x="73" y="250.0669">in</text><text fill="#000000" font-family="sans-serif" font-size="13" lengthAdjust="spacing" textLength="23" x="33.4984" y="197.533">0..*</text><text fill="#000000" font-family="sans-serif" font-size="13" lengthAdjust="spacing" textLength="24" x="32.2262" y="315.4983">0..1</text><!--MD5=[5d8901ce694eb85aefa78b7d82d9f6f6]
link Person to Person_Name--><path codeLine="334" d="M415,375.78 C415,399.07 415,430.87 415,456.85 " fill="none" id="Person-to-Person_Name" style="stroke:#A80036;stroke-width:1.0;stroke-dasharray:7.0,7.0;"/><polygon fill="#A80036" points="415,461.96,419,452.96,415,456.96,411,452.96,415,461.96" style="stroke:#A80036;stroke-width:1.0;"/><text fill="#000000" font-family="sans-serif" font-size="13" lengthAdjust="spacing" textLength="37" x="374.9359" y="450.8037">name</text><!--MD5=[de96f77e660762cb21a195b4097c3876]
reverse link Agent to Person--><path codeLine="338" d="M232.78,186.71 C245.82,193.31 259.95,200.44 273,207 C299.64,220.39 309.9,218.15 333,237 C358.01,257.42 380.19,286.75 395.16,309.15 " fill="none" id="Agent-backto-Person" style="stroke:#A80036;stroke-width:1.0;"/><polygon fill="none" points="229.4,192.85,214.72,177.57,235.72,180.36,229.4,192.85" style="stroke:#A80036;stroke-width:1.0;"/><!--MD5=[821f2106180f8920faf5f01affeb7691]
reverse link Agent to Group--><path codeLine="350" d="M162.97,194.3 C136.08,233.11 91.7,297.18 71.55,326.28 " fill="none" id="Agent-backto-Group" style="stroke:#A80036;stroke-width:1.0;"/><polygon fill="none" points="157.28,190.22,174.43,177.76,168.79,198.19,157.28,190.22" style="stroke:#A80036;stroke-width:1.0;"/><!--MD5=[521d3f26cc3887ed8885a4c0e03f9952]
reverse link Agent to Organisation_Unit--><path codeLine="342" d="M175.66,197.09 C172.32,214.3 170.22,235.36 174,254 C176,263.86 179.15,273.99 182.78,283.7 " fill="none" id="Agent-backto-Organisation_Unit" style="stroke:#A80036;stroke-width:1.0;"/><polygon fill="none" points="168.87,195.37,180.28,177.52,182.5,198.59,168.87,195.37" style="stroke:#A80036;stroke-width:1.0;"/><!--MD5=[854899a0b21de2cb3f4d3222738c1bb3]
reverse link Group to Organisation_Unit_with_Members--><path codeLine="354" d="M77.86,376.69 C95.21,410.86 121.47,462.57 134.34,487.92 " fill="none" id="Group-backto-Organisation_Unit_with_Members" style="stroke:#A80036;stroke-width:1.0;"/><polygon fill="none" points="71.43,379.51,68.62,358.51,83.92,373.17,71.43,379.51" style="stroke:#A80036;stroke-width:1.0;"/><!--MD5=[adeab3cf6be56cae862ee063039c31ec]
reverse link Organisation_Unit to Organisation_Unit_with_Members--><path codeLine="358" d="M178.04,419.68 C166.85,445.55 155.44,471.93 148.54,487.89 " fill="none" id="Organisation_Unit-backto-Organisation_Unit_with_Members" style="stroke:#A80036;stroke-width:1.0;"/><polygon fill="none" points="171.72,416.66,186.09,401.08,184.57,422.22,171.72,416.66" style="stroke:#A80036;stroke-width:1.0;"/><!--MD5=[b0eaf32bc04340a0e4999b15e6183349]
reverse link Affiliation to Organisation_Unit--><path codeLine="248" d="M279.46,208.32 C267.82,216.69 256.92,226.24 248,237 C236.89,250.41 229.01,267.4 223.46,283.76 " fill="none" id="Affiliation-backto-Organisation_Unit" style="stroke:#A80036;stroke-width:1.0;"/><polygon fill="#FFFFFF" points="290.33,200.97,283.1191,201.0183,280.3902,207.6932,287.6012,207.6448,290.33,200.97" style="stroke:#A80036;stroke-width:1.0;"/><polygon fill="#000000" points="250.0198,249.5812,257.7709,244.0701,253.0512,240.5667,250.0198,249.5812" style="stroke:#000000;stroke-width:1.0;"/><text fill="#000000" font-family="sans-serif" font-size="13" lengthAdjust="spacing" textLength="107" x="262" y="250.0669">organisation unit</text><text fill="#000000" font-family="sans-serif" font-size="13" lengthAdjust="spacing" textLength="24" x="199.5161" y="272.7725">0..1</text><!--MD5=[b0eaf32bc04340a0e4999b15e6183349]
reverse link Affiliation to Organisation_Unit--><path codeLine="252" d="M383.7,220.58 C382.86,232.3 380.09,244.06 374,254 C368.73,262.59 329.46,283.79 290.78,303.17 " fill="none" id="Affiliation-backto-Organisation_Unit-1" style="stroke:#A80036;stroke-width:1.0;"/><polygon fill="#FFFFFF" points="383.91,207.46,379.8117,213.3933,383.7122,219.4584,387.8106,213.5251,383.91,207.46" style="stroke:#A80036;stroke-width:1.0;"/><polygon fill="#000000" points="381.2628,248.8881,389.9759,245.0757,386.071,240.6825,381.2628,248.8881" style="stroke:#000000;stroke-width:1.0;"/><text fill="#000000" font-family="sans-serif" font-size="13" lengthAdjust="spacing" textLength="63" x="394" y="250.0669">institution</text><text fill="#000000" font-family="sans-serif" font-size="13" lengthAdjust="spacing" textLength="24" x="298.3805" y="296.3714">0..1</text><!--MD5=[65cee075af308ac4af8ef03042de4df5]
reverse link Affiliation to Person--><path codeLine="253" d="M471.91,211.57 C479.86,219.06 486.82,227.52 492,237 C506.1,262.81 485.81,289.46 462.54,309.39 " fill="none" id="Affiliation-backto-Person" style="stroke:#A80036;stroke-width:1.0;"/><polygon fill="#FFFFFF" points="461.77,202.9,463.724,209.8413,470.8829,210.7073,468.9289,203.766,461.77,202.9" style="stroke:#A80036;stroke-width:1.0;"/><polygon fill="#000000" points="500.5232,250.5436,504.3112,241.82,498.4602,241.2595,500.5232,250.5436" style="stroke:#000000;stroke-width:1.0;"/><text fill="#000000" font-family="sans-serif" font-size="13" lengthAdjust="spacing" textLength="44" x="510" y="250.0669">person</text><text fill="#000000" font-family="sans-serif" font-size="13" lengthAdjust="spacing" textLength="24" x="445.5369" y="298.5133">0..1</text><!--MD5=[fa858b0881c9c050c3a621ef5cb249a3]
reverse link Activity to Affiliation--><path codeLine="257" d="M217.01,46.87 C243.28,65.65 281.27,92.8 313.53,115.86 " fill="none" id="Activity-backto-Affiliation" style="stroke:#A80036;stroke-width:1.0;"/><polygon fill="#FFFFFF" points="206.17,39.13,208.7249,45.8733,215.9321,46.1086,213.3773,39.3653,206.17,39.13" style="stroke:#A80036;stroke-width:1.0;"/><polygon fill="#000000" points="278.0677,80.4739,272.4181,72.8232,269.0001,77.6051,278.0677,80.4739" style="stroke:#000000;stroke-width:1.0;"/><text fill="#000000" font-family="sans-serif" font-size="13" lengthAdjust="spacing" textLength="61" x="283" y="82.0669">affilations</text><text fill="#000000" font-family="sans-serif" font-size="13" lengthAdjust="spacing" textLength="23" x="216.9919" y="59.0463">0..*</text><text fill="#000000" font-family="sans-serif" font-size="13" lengthAdjust="spacing" textLength="23" x="279.2033" y="104.7833">0..*</text><!--MD5=[b9cb039d721d32e52da93c0869e31b2a]
@startuml

    !includesub core.puml!common
    !includesub core.puml!Agent
    !includesub core.puml!Activity
    !includesub core.puml!Membership
    !includesub core.puml!Person
    !includesub core.puml!Group
    !includesub core.puml!OrgUnit
    !includesub core.puml!OrgUnitWithMembers
    !includesub core.puml!AffiliationStatement

@enduml

@startuml

        hide empty members
        skinparam BoxPadding 120
        class "Agent" #ffffff {
        }
        class "Activity" #ffffff {
        }
        "Activity" "0..*" - -o "0..1 who" "Agent"
        class "Membership" #ffffff {
        }
        "Activity" <|- - "Membership"
        "Membership" "0..*" - -> "0..1" "Group" : in >
        class "Person" #ffffff {
            name : Person_Name
            orcidId : ORCID_iD
        }

        class Person_Name << (D,#add0b2) DataType>> #ffffff {
            firstNames : Multilingual_String
            familyNames : Multilingual_String
            otherNames : Multilingual_String
        }
        "Person" ..> "name" "Person_Name"
        "Agent" <|- - "Person"
        class "Group" #ffffff {
        }
        "Agent" <|- - "Group"
        class "Organisation_Unit" #ffffff {
            name : Multilingual_String
            acronym : String
            address : Postal_Address
            rorId : ROR_Id
            webSiteURL : URL
            email : URL
        }
        "Agent" <|- - "Organisation_Unit"
            class "Organisation_Unit_with_Members" #ffffff {
            }
        "Group" <|- - "Organisation_Unit_with_Members"
        "Organisation_Unit" <|- - "Organisation_Unit_with_Members"
        class "Affiliation" #ffffff {
            displayAffiliation : String
            displayPersonName : String
            address : Postal_Address
            contacts : List<URI>
        }
        "Affiliation" o- - "0..1" "Organisation_Unit" : organisation unit >
        "Affiliation" o- - "0..1" "Organisation_Unit" : institution >
        "Affiliation" o- - "0..1" "Person" : person >
        "Activity" "0..*" o- - "0..*" "Affiliation" : affilations >

@enduml

PlantUML version 1.2021.8(Sat Jun 26 08:20:59 UTC 2021)
(GPL source distribution)
Java Runtime: OpenJDK Runtime Environment
JVM: OpenJDK 64-Bit Server VM
Default Encoding: UTF-8
Language: en
Country: null
--></g></svg>