<?xml version="1.0" encoding="UTF-8" standalone="no"?><svg xmlns="http://www.w3.org/2000/svg" xmlns:xlink="http://www.w3.org/1999/xlink" contentScriptType="application/ecmascript" contentStyleType="text/css" height="565px" preserveAspectRatio="none" style="width:808px;height:565px;background:#FFFFFF;" version="1.1" viewBox="0 0 808 565" width="808px" zoomAndPan="magnify"><defs><filter height="300%" id="faof7p3cjes50" width="300%" x="-1" y="-1"><feGaussianBlur result="blurOut" stdDeviation="2.0"/><feColorMatrix in="blurOut" result="blurOut2" type="matrix" values="0 0 0 0 0 0 0 0 0 0 0 0 0 0 0 0 0 0 .4 0"/><feOffset dx="4.0" dy="4.0" in="blurOut2" result="blurOut3"/><feBlend in="SourceGraphic" in2="blurOut3" mode="normal"/></filter></defs><g><!--MD5=[9d44916250b776386006c440668bcfbb]
class Agent--><rect codeLine="23" fill="#FFFFFF" filter="url(#faof7p3cjes50)" height="32" id="Agent" style="stroke:#A80036;stroke-width:1.5;" width="69" x="211" y="166.5"/><ellipse cx="226" cy="182.5" fill="#ADD1B2" rx="11" ry="11" style="stroke:#A80036;stroke-width:1.0;"/><path d="M228.9688,188.1406 Q228.3906,188.4375 227.75,188.5781 Q227.1094,188.7344 226.4063,188.7344 Q223.9063,188.7344 222.5781,187.0938 Q221.2656,185.4375 221.2656,182.3125 Q221.2656,179.1875 222.5781,177.5313 Q223.9063,175.875 226.4063,175.875 Q227.1094,175.875 227.75,176.0313 Q228.4063,176.1875 228.9688,176.4844 L228.9688,179.2031 Q228.3438,178.625 227.75,178.3594 Q227.1563,178.0781 226.5313,178.0781 Q225.1875,178.0781 224.5,179.1563 Q223.8125,180.2188 223.8125,182.3125 Q223.8125,184.4063 224.5,185.4844 Q225.1875,186.5469 226.5313,186.5469 Q227.1563,186.5469 227.75,186.2813 Q228.3438,186 228.9688,185.4219 L228.9688,188.1406 Z " fill="#000000"/><text fill="#000000" font-family="sans-serif" font-size="12" lengthAdjust="spacing" textLength="37" x="240" y="186.6543">Agent</text><!--MD5=[affb11a45f8309443fb20b6133e8d181]
class Group_or_Organisation_Unit--><rect codeLine="25" fill="#FFFFFF" filter="url(#faof7p3cjes50)" height="32" id="Group_or_Organisation_Unit" style="stroke:#A80036;stroke-width:1.5;" width="206" x="445.5" y="17.5"/><ellipse cx="460.5" cy="33.5" fill="#ADD1B2" rx="11" ry="11" style="stroke:#A80036;stroke-width:1.0;"/><path d="M463.4688,39.1406 Q462.8906,39.4375 462.25,39.5781 Q461.6094,39.7344 460.9063,39.7344 Q458.4063,39.7344 457.0781,38.0938 Q455.7656,36.4375 455.7656,33.3125 Q455.7656,30.1875 457.0781,28.5313 Q458.4063,26.875 460.9063,26.875 Q461.6094,26.875 462.25,27.0313 Q462.9063,27.1875 463.4688,27.4844 L463.4688,30.2031 Q462.8438,29.625 462.25,29.3594 Q461.6563,29.0781 461.0313,29.0781 Q459.6875,29.0781 459,30.1563 Q458.3125,31.2188 458.3125,33.3125 Q458.3125,35.4063 459,36.4844 Q459.6875,37.5469 461.0313,37.5469 Q461.6563,37.5469 462.25,37.2813 Q462.8438,37 463.4688,36.4219 L463.4688,39.1406 Z " fill="#000000"/><text fill="#000000" font-family="sans-serif" font-size="12" lengthAdjust="spacing" textLength="174" x="474.5" y="37.6543">Group_or_Organisation_Unit</text><!--MD5=[c881b25adf3665c6568c9693d41a70f3]
class Activity--><rect codeLine="54" fill="#FFFFFF" filter="url(#faof7p3cjes50)" height="52.8047" id="Activity" style="stroke:#A80036;stroke-width:1.5;" width="151" x="259" y="7"/><ellipse cx="308.75" cy="23" fill="#ADD1B2" rx="11" ry="11" style="stroke:#A80036;stroke-width:1.0;"/><path d="M311.7188,28.6406 Q311.1406,28.9375 310.5,29.0781 Q309.8594,29.2344 309.1563,29.2344 Q306.6563,29.2344 305.3281,27.5938 Q304.0156,25.9375 304.0156,22.8125 Q304.0156,19.6875 305.3281,18.0313 Q306.6563,16.375 309.1563,16.375 Q309.8594,16.375 310.5,16.5313 Q311.1563,16.6875 311.7188,16.9844 L311.7188,19.7031 Q311.0938,19.125 310.5,18.8594 Q309.9063,18.5781 309.2813,18.5781 Q307.9375,18.5781 307.25,19.6563 Q306.5625,20.7188 306.5625,22.8125 Q306.5625,24.9063 307.25,25.9844 Q307.9375,27.0469 309.2813,27.0469 Q309.9063,27.0469 310.5,26.7813 Q311.0938,26.5 311.7188,25.9219 L311.7188,28.6406 Z " fill="#000000"/><text fill="#000000" font-family="sans-serif" font-size="12" lengthAdjust="spacing" textLength="43" x="329.25" y="27.1543">Activity</text><line style="stroke:#A80036;stroke-width:1.5;" x1="260" x2="409" y1="39" y2="39"/><text fill="#000000" font-family="sans-serif" font-size="11" lengthAdjust="spacing" textLength="139" x="265" y="53.2104">dateRange : Date_Range</text><!--MD5=[77463bb17ddcfe3891c27a1f4a877731]
class Membership--><rect codeLine="60" fill="#FFFFFF" filter="url(#faof7p3cjes50)" height="32" id="Membership" style="stroke:#A80036;stroke-width:1.5;" width="108" x="686.5" y="17.5"/><ellipse cx="701.5" cy="33.5" fill="#ADD1B2" rx="11" ry="11" style="stroke:#A80036;stroke-width:1.0;"/><path d="M704.4688,39.1406 Q703.8906,39.4375 703.25,39.5781 Q702.6094,39.7344 701.9063,39.7344 Q699.4063,39.7344 698.0781,38.0938 Q696.7656,36.4375 696.7656,33.3125 Q696.7656,30.1875 698.0781,28.5313 Q699.4063,26.875 701.9063,26.875 Q702.6094,26.875 703.25,27.0313 Q703.9063,27.1875 704.4688,27.4844 L704.4688,30.2031 Q703.8438,29.625 703.25,29.3594 Q702.6563,29.0781 702.0313,29.0781 Q700.6875,29.0781 700,30.1563 Q699.3125,31.2188 699.3125,33.3125 Q699.3125,35.4063 700,36.4844 Q700.6875,37.5469 702.0313,37.5469 Q702.6563,37.5469 703.25,37.2813 Q703.8438,37 704.4688,36.4219 L704.4688,39.1406 Z " fill="#000000"/><text fill="#000000" font-family="sans-serif" font-size="12" lengthAdjust="spacing" textLength="76" x="715.5" y="37.6543">Membership</text><!--MD5=[09ce52be0ee7de43c61b6e2d59bf108b]
class Person--><rect codeLine="41" fill="#FFFFFF" filter="url(#faof7p3cjes50)" height="65.6094" id="Person" style="stroke:#A80036;stroke-width:1.5;" width="135" x="40" y="314.5"/><ellipse cx="81.55" cy="330.5" fill="#ADD1B2" rx="11" ry="11" style="stroke:#A80036;stroke-width:1.0;"/><path d="M84.5188,336.1406 Q83.9406,336.4375 83.3,336.5781 Q82.6594,336.7344 81.9563,336.7344 Q79.4563,336.7344 78.1281,335.0938 Q76.8156,333.4375 76.8156,330.3125 Q76.8156,327.1875 78.1281,325.5313 Q79.4563,323.875 81.9563,323.875 Q82.6594,323.875 83.3,324.0313 Q83.9563,324.1875 84.5188,324.4844 L84.5188,327.2031 Q83.8938,326.625 83.3,326.3594 Q82.7063,326.0781 82.0813,326.0781 Q80.7375,326.0781 80.05,327.1563 Q79.3625,328.2188 79.3625,330.3125 Q79.3625,332.4063 80.05,333.4844 Q80.7375,334.5469 82.0813,334.5469 Q82.7063,334.5469 83.3,334.2813 Q83.8938,334 84.5188,333.4219 L84.5188,336.1406 Z " fill="#000000"/><text fill="#000000" font-family="sans-serif" font-size="12" lengthAdjust="spacing" textLength="44" x="101.45" y="334.6543">Person</text><line style="stroke:#A80036;stroke-width:1.5;" x1="41" x2="174" y1="346.5" y2="346.5"/><text fill="#000000" font-family="sans-serif" font-size="11" lengthAdjust="spacing" textLength="123" x="46" y="360.7104">name : Person_Name</text><text fill="#000000" font-family="sans-serif" font-size="11" lengthAdjust="spacing" textLength="102" x="46" y="373.5151">orcidId : ORCID_iD</text><!--MD5=[7b209ef07eb91b93e0aebc9fe4fb9a26]
class Person_Name--><rect codeLine="46" fill="#FFFFFF" filter="url(#faof7p3cjes50)" height="84.3516" id="Person_Name" style="stroke:#A80036;stroke-width:1.5;" width="201" x="7" y="467"/><ellipse cx="60.25" cy="485.9688" fill="#ADD0B2" rx="11" ry="11" style="stroke:#A80036;stroke-width:1.0;"/><path d="M59.8438,481.7813 L59.8438,489.7656 L60.5,489.7656 Q61.9375,489.7656 62.5469,488.8594 Q63.1719,487.9375 63.1719,485.7656 Q63.1719,483.5938 62.5469,482.6875 Q61.9375,481.7813 60.5,481.7813 L59.8438,481.7813 Z M57.3906,479.5781 L60.0156,479.5781 Q63.0469,479.5781 64.375,481.0313 Q65.7188,482.4688 65.7188,485.7656 Q65.7188,489.0625 64.375,490.5156 Q63.0469,491.9688 60.0156,491.9688 L57.3906,491.9688 L57.3906,479.5781 Z " fill="#000000"/><text fill="#000000" font-family="sans-serif" font-size="12" font-style="italic" lengthAdjust="spacing" textLength="74" x="86.75" y="483.1387">«DataType»</text><text fill="#000000" font-family="sans-serif" font-size="12" lengthAdjust="spacing" textLength="86" x="80.75" y="497.1074">Person_Name</text><line style="stroke:#A80036;stroke-width:1.5;" x1="8" x2="207" y1="504.9375" y2="504.9375"/><text fill="#000000" font-family="sans-serif" font-size="11" lengthAdjust="spacing" textLength="178" x="13" y="519.1479">firstNames : Multilingual_String</text><text fill="#000000" font-family="sans-serif" font-size="11" lengthAdjust="spacing" textLength="189" x="13" y="531.9526">familyNames : Multilingual_String</text><text fill="#000000" font-family="sans-serif" font-size="11" lengthAdjust="spacing" textLength="185" x="13" y="544.7573">otherNames : Multilingual_String</text><!--MD5=[41314a0efc36828092cff9ebad2fcafd]
class Group--><rect codeLine="65" fill="#FFFFFF" filter="url(#faof7p3cjes50)" height="32" id="Group" style="stroke:#A80036;stroke-width:1.5;" width="70" x="210.5" y="331.5"/><ellipse cx="225.5" cy="347.5" fill="#ADD1B2" rx="11" ry="11" style="stroke:#A80036;stroke-width:1.0;"/><path d="M228.4688,353.1406 Q227.8906,353.4375 227.25,353.5781 Q226.6094,353.7344 225.9063,353.7344 Q223.4063,353.7344 222.0781,352.0938 Q220.7656,350.4375 220.7656,347.3125 Q220.7656,344.1875 222.0781,342.5313 Q223.4063,340.875 225.9063,340.875 Q226.6094,340.875 227.25,341.0313 Q227.9063,341.1875 228.4688,341.4844 L228.4688,344.2031 Q227.8438,343.625 227.25,343.3594 Q226.6563,343.0781 226.0313,343.0781 Q224.6875,343.0781 224,344.1563 Q223.3125,345.2188 223.3125,347.3125 Q223.3125,349.4063 224,350.4844 Q224.6875,351.5469 226.0313,351.5469 Q226.6563,351.5469 227.25,351.2813 Q227.8438,351 228.4688,350.4219 L228.4688,353.1406 Z " fill="#000000"/><text fill="#000000" font-family="sans-serif" font-size="12" lengthAdjust="spacing" textLength="38" x="239.5" y="351.6543">Group</text><!--MD5=[779f3743e425ed8a6f0bf188ddea4860]
class Organisation_Unit--><rect codeLine="30" fill="#FFFFFF" filter="url(#faof7p3cjes50)" height="116.8281" id="Organisation_Unit" style="stroke:#A80036;stroke-width:1.5;" width="159" x="316" y="289"/><ellipse cx="338.2" cy="305" fill="#ADD1B2" rx="11" ry="11" style="stroke:#A80036;stroke-width:1.0;"/><path d="M341.1688,310.6406 Q340.5906,310.9375 339.95,311.0781 Q339.3094,311.2344 338.6063,311.2344 Q336.1063,311.2344 334.7781,309.5938 Q333.4656,307.9375 333.4656,304.8125 Q333.4656,301.6875 334.7781,300.0313 Q336.1063,298.375 338.6063,298.375 Q339.3094,298.375 339.95,298.5313 Q340.6063,298.6875 341.1688,298.9844 L341.1688,301.7031 Q340.5438,301.125 339.95,300.8594 Q339.3563,300.5781 338.7313,300.5781 Q337.3875,300.5781 336.7,301.6563 Q336.0125,302.7188 336.0125,304.8125 Q336.0125,306.9063 336.7,307.9844 Q337.3875,309.0469 338.7313,309.0469 Q339.3563,309.0469 339.95,308.7813 Q340.5438,308.5 341.1688,307.9219 L341.1688,310.6406 Z " fill="#000000"/><text fill="#000000" font-family="sans-serif" font-size="12" lengthAdjust="spacing" textLength="111" x="353.8" y="309.1543">Organisation_Unit</text><line style="stroke:#A80036;stroke-width:1.5;" x1="317" x2="474" y1="321" y2="321"/><text fill="#000000" font-family="sans-serif" font-size="11" lengthAdjust="spacing" textLength="147" x="322" y="335.2104">name : Multilingual_String</text><text fill="#000000" font-family="sans-serif" font-size="11" lengthAdjust="spacing" textLength="95" x="322" y="348.0151">acronym : String</text><text fill="#000000" font-family="sans-serif" font-size="11" lengthAdjust="spacing" textLength="147" x="322" y="360.8198">address : Postal_Address</text><text fill="#000000" font-family="sans-serif" font-size="11" lengthAdjust="spacing" textLength="78" x="322" y="373.6245">rorId : ROR_Id</text><text fill="#000000" font-family="sans-serif" font-size="11" lengthAdjust="spacing" textLength="99" x="322" y="386.4292">webSiteURL : URL</text><text fill="#000000" font-family="sans-serif" font-size="11" lengthAdjust="spacing" textLength="64" x="322" y="399.2339">email : URL</text><!--MD5=[dae000cba6c379e3053478bba72a741c]
class Organisation_Unit_with_Members--><rect codeLine="70" fill="#FFFFFF" filter="url(#faof7p3cjes50)" height="32" id="Organisation_Unit_with_Members" style="stroke:#A80036;stroke-width:1.5;" width="237" x="260" y="493"/><ellipse cx="275" cy="509" fill="#ADD1B2" rx="11" ry="11" style="stroke:#A80036;stroke-width:1.0;"/><path d="M277.9688,514.6406 Q277.3906,514.9375 276.75,515.0781 Q276.1094,515.2344 275.4063,515.2344 Q272.9063,515.2344 271.5781,513.5938 Q270.2656,511.9375 270.2656,508.8125 Q270.2656,505.6875 271.5781,504.0313 Q272.9063,502.375 275.4063,502.375 Q276.1094,502.375 276.75,502.5313 Q277.4063,502.6875 277.9688,502.9844 L277.9688,505.7031 Q277.3438,505.125 276.75,504.8594 Q276.1563,504.5781 275.5313,504.5781 Q274.1875,504.5781 273.5,505.6563 Q272.8125,506.7188 272.8125,508.8125 Q272.8125,510.9063 273.5,511.9844 Q274.1875,513.0469 275.5313,513.0469 Q276.1563,513.0469 276.75,512.7813 Q277.3438,512.5 277.9688,511.9219 L277.9688,514.6406 Z " fill="#000000"/><text fill="#000000" font-family="sans-serif" font-size="12" lengthAdjust="spacing" textLength="205" x="289" y="513.1543">Organisation_Unit_with_Members</text><!--MD5=[ddbff00b4911ad4b77d6aa32dd14d1d7]
class Affiliation_Statement--><rect codeLine="138" fill="#FFFFFF" filter="url(#faof7p3cjes50)" height="91.2188" id="Affiliation_Statement" style="stroke:#A80036;stroke-width:1.5;" width="215" x="315" y="137"/><ellipse cx="354.3" cy="153" fill="#ADD1B2" rx="11" ry="11" style="stroke:#A80036;stroke-width:1.0;"/><path d="M357.2688,158.6406 Q356.6906,158.9375 356.05,159.0781 Q355.4094,159.2344 354.7063,159.2344 Q352.2063,159.2344 350.8781,157.5938 Q349.5656,155.9375 349.5656,152.8125 Q349.5656,149.6875 350.8781,148.0313 Q352.2063,146.375 354.7063,146.375 Q355.4094,146.375 356.05,146.5313 Q356.7063,146.6875 357.2688,146.9844 L357.2688,149.7031 Q356.6438,149.125 356.05,148.8594 Q355.4563,148.5781 354.8313,148.5781 Q353.4875,148.5781 352.8,149.6563 Q352.1125,150.7188 352.1125,152.8125 Q352.1125,154.9063 352.8,155.9844 Q353.4875,157.0469 354.8313,157.0469 Q355.4563,157.0469 356.05,156.7813 Q356.6438,156.5 357.2688,155.9219 L357.2688,158.6406 Z " fill="#000000"/><text fill="#000000" font-family="sans-serif" font-size="12" lengthAdjust="spacing" textLength="129" x="373.7" y="157.1543">Affiliation_Statement</text><line style="stroke:#A80036;stroke-width:1.5;" x1="316" x2="529" y1="169" y2="169"/><text fill="#000000" font-family="sans-serif" font-size="11" lengthAdjust="spacing" textLength="203" x="321" y="183.2104">displayAffiliation_Statement : String</text><text fill="#000000" font-family="sans-serif" font-size="11" lengthAdjust="spacing" textLength="159" x="321" y="196.0151">displayPersonName : String</text><text fill="#000000" font-family="sans-serif" font-size="11" lengthAdjust="spacing" textLength="147" x="321" y="208.8198">address : Postal_Address</text><text fill="#000000" font-family="sans-serif" font-size="11" lengthAdjust="spacing" textLength="116" x="321" y="221.6245">contacts : List&lt;URI&gt;</text><!--MD5=[cd935cc757d29bd6a59b1252b30899e0]
link Activity to Agent--><path codeLine="263" d="M319,60.11 C302.93,86.64 277.93,127.93 261.64,154.85 " fill="none" id="Activity-to-Agent" style="stroke:#A80036;stroke-width:1.0;"/><polygon fill="#FFFFFF" points="254.82,166.1,261.3491,163.0389,261.0346,155.8346,254.5055,158.8958,254.82,166.1" style="stroke:#A80036;stroke-width:1.0;"/><text fill="#000000" font-family="sans-serif" font-size="13" lengthAdjust="spacing" textLength="23" x="290.0938" y="79.6743">0..*</text><text fill="#000000" font-family="sans-serif" font-size="13" lengthAdjust="spacing" textLength="53" x="196.3439" y="155.5699">0..1 who</text><!--MD5=[5d8901ce694eb85aefa78b7d82d9f6f6]
link Person to Person_Name--><path codeLine="320" d="M107.5,380.78 C107.5,404.07 107.5,435.87 107.5,461.85 " fill="none" id="Person-to-Person_Name" style="stroke:#A80036;stroke-width:1.0;stroke-dasharray:7.0,7.0;"/><polygon fill="#A80036" points="107.5,466.96,111.5,457.96,107.5,461.96,103.5,457.96,107.5,466.96" style="stroke:#A80036;stroke-width:1.0;"/><text fill="#000000" font-family="sans-serif" font-size="13" lengthAdjust="spacing" textLength="37" x="67.4359" y="455.8037">name</text><!--MD5=[de96f77e660762cb21a195b4097c3876]
reverse link Agent to Person--><path codeLine="324" d="M219.77,213.9 C195.59,242.45 159.53,285.04 134.85,314.2 " fill="none" id="Agent-backto-Person" style="stroke:#A80036;stroke-width:1.0;"/><polygon fill="none" points="214.5,209.28,232.76,198.54,225.18,218.33,214.5,209.28" style="stroke:#A80036;stroke-width:1.0;"/><!--MD5=[821f2106180f8920faf5f01affeb7691]
reverse link Agent to Group--><path codeLine="336" d="M245.5,218.68 C245.5,253.78 245.5,306.05 245.5,331.49 " fill="none" id="Agent-backto-Group" style="stroke:#A80036;stroke-width:1.0;"/><polygon fill="none" points="238.5,218.54,245.5,198.54,252.5,218.54,238.5,218.54" style="stroke:#A80036;stroke-width:1.0;"/><!--MD5=[521d3f26cc3887ed8885a4c0e03f9952]
reverse link Agent to Organisation_Unit--><path codeLine="328" d="M273.15,213.54 C292.51,234.59 319,263.37 342.38,288.77 " fill="none" id="Agent-backto-Organisation_Unit" style="stroke:#A80036;stroke-width:1.0;"/><polygon fill="none" points="267.73,218,259.34,198.54,278.04,208.52,267.73,218" style="stroke:#A80036;stroke-width:1.0;"/><!--MD5=[854899a0b21de2cb3f4d3222738c1bb3]
reverse link Group to Organisation_Unit_with_Members--><path codeLine="340" d="M271.2,379.32 C299.63,413.42 344.29,466.98 365.92,492.92 " fill="none" id="Group-backto-Organisation_Unit_with_Members" style="stroke:#A80036;stroke-width:1.0;"/><polygon fill="none" points="265.44,383.35,258.01,363.51,276.2,374.38,265.44,383.35" style="stroke:#A80036;stroke-width:1.0;"/><!--MD5=[adeab3cf6be56cae862ee063039c31ec]
reverse link Organisation_Unit to Organisation_Unit_with_Members--><path codeLine="344" d="M387.22,426.19 C384.51,451.57 381.78,477.24 380.11,492.89 " fill="none" id="Organisation_Unit-backto-Organisation_Unit_with_Members" style="stroke:#A80036;stroke-width:1.0;"/><polygon fill="none" points="380.28,425.23,389.36,406.08,394.2,426.71,380.28,425.23" style="stroke:#A80036;stroke-width:1.0;"/><!--MD5=[335bc652314d68e20c6b9db39c8a9e92]
reverse link Activity to Affiliation_Statement--><path codeLine="251" d="M356.64,71.48 C368.53,91.34 383.27,115.97 395.79,136.89 " fill="none" id="Activity-backto-Affiliation_Statement" style="stroke:#A80036;stroke-width:1.0;"/><polygon fill="#FFFFFF" points="349.83,60.11,349.4829,67.3127,355.9981,70.4034,356.3452,63.2007,349.83,60.11" style="stroke:#A80036;stroke-width:1.0;"/><polygon fill="#000000" points="383.0678,102.8566,380.9443,93.5862,375.9008,96.6049,383.0678,102.8566" style="stroke:#000000;stroke-width:1.0;"/><text fill="#000000" font-family="sans-serif" font-size="13" lengthAdjust="spacing" textLength="61" x="389.5" y="103.0669">affilations</text><text fill="#000000" font-family="sans-serif" font-size="13" lengthAdjust="spacing" textLength="23" x="327.6678" y="79.6743">0..*</text><text fill="#000000" font-family="sans-serif" font-size="13" lengthAdjust="spacing" textLength="23" x="366.9391" y="125.8178">0..*</text><!--MD5=[03867f90edb2fbffed6e4e1e0392c5ed]
@startuml

    !includesub core.puml!common
    !includesub core.puml!Agent
    !includesub core.puml!Activity
    !includesub core.puml!Membership
    !includesub core.puml!Person
    !includesub core.puml!Group
    !includesub core.puml!OrgUnit
    !includesub core.puml!OrgUnitWithMembers
    !includesub core.puml!AffiliationStatement

@enduml

@startuml

        hide empty members
        skinparam BoxPadding 120
        class "Agent" #ffffff {
        }
        class "Group_or_Organisation_Unit" #ffffff {
        }
        class "Activity" #ffffff {
      		dateRange : Date_Range
        }
        "Activity" "0..*" - -o "0..1 who" "Agent"
        class "Membership" #ffffff {
        }
        class "Person" #ffffff {
            name : Person_Name
            orcidId : ORCID_iD
        }

        class Person_Name << (D,#add0b2) DataType>> #ffffff {
            firstNames : Multilingual_String
            familyNames : Multilingual_String
            otherNames : Multilingual_String
        }
        "Person" ..> "name" "Person_Name"
        "Agent" <|- - "Person"
        class "Group" #ffffff {
        }
        "Agent" <|- - "Group"
        class "Organisation_Unit" #ffffff {
            name : Multilingual_String
            acronym : String
            address : Postal_Address
            rorId : ROR_Id
            webSiteURL : URL
            email : URL
        }
        "Agent" <|- - "Organisation_Unit"
            class "Organisation_Unit_with_Members" #ffffff {
            }
        "Group" <|- - "Organisation_Unit_with_Members"
        "Organisation_Unit" <|- - "Organisation_Unit_with_Members"
        class "Affiliation_Statement" #ffffff {
            displayAffiliation_Statement : String
            displayPersonName : String
            address : Postal_Address
            contacts : List<URI>
        }
        "Activity" "0..*" o- - "0..*" "Affiliation_Statement" : affilations >

@enduml

PlantUML version 1.2021.8(Sat Jun 26 08:20:59 UTC 2021)
(GPL source distribution)
Java Runtime: OpenJDK Runtime Environment
JVM: OpenJDK 64-Bit Server VM
Default Encoding: UTF-8
Language: en
Country: null
--></g></svg>