<?xml version="1.0" encoding="UTF-8" standalone="no"?><svg xmlns="http://www.w3.org/2000/svg" xmlns:xlink="http://www.w3.org/1999/xlink" contentScriptType="application/ecmascript" contentStyleType="text/css" height="305px" preserveAspectRatio="none" style="width:562px;height:305px;background:#FFFFFF;" version="1.1" viewBox="0 0 562 305" width="562px" zoomAndPan="magnify"><defs><filter height="300%" id="foaycoylcujk0" width="300%" x="-1" y="-1"><feGaussianBlur result="blurOut" stdDeviation="2.0"/><feColorMatrix in="blurOut" result="blurOut2" type="matrix" values="0 0 0 0 0 0 0 0 0 0 0 0 0 0 0 0 0 0 .4 0"/><feOffset dx="4.0" dy="4.0" in="blurOut2" result="blurOut3"/><feBlend in="SourceGraphic" in2="blurOut3" mode="normal"/></filter></defs><g><!--MD5=[9d44916250b776386006c440668bcfbb]
class Agent--><rect codeLine="23" fill="#FFFFFF" filter="url(#foaycoylcujk0)" height="32" id="Agent" style="stroke:#A80036;stroke-width:1.5;" width="69" x="13.0698" y="150"/><ellipse cx="28.0698" cy="166" fill="#ADD1B2" rx="11" ry="11" style="stroke:#A80036;stroke-width:1.0;"/><path d="M31.0385,171.6406 Q30.4604,171.9375 29.8198,172.0781 Q29.1791,172.2344 28.476,172.2344 Q25.976,172.2344 24.6479,170.5938 Q23.3354,168.9375 23.3354,165.8125 Q23.3354,162.6875 24.6479,161.0313 Q25.976,159.375 28.476,159.375 Q29.1791,159.375 29.8198,159.5313 Q30.476,159.6875 31.0385,159.9844 L31.0385,162.7031 Q30.4135,162.125 29.8198,161.8594 Q29.226,161.5781 28.601,161.5781 Q27.2573,161.5781 26.5698,162.6563 Q25.8823,163.7188 25.8823,165.8125 Q25.8823,167.9063 26.5698,168.9844 Q27.2573,170.0469 28.601,170.0469 Q29.226,170.0469 29.8198,169.7813 Q30.4135,169.5 31.0385,168.9219 L31.0385,171.6406 Z " fill="#000000"/><text fill="#000000" font-family="sans-serif" font-size="12" lengthAdjust="spacing" textLength="37" x="42.0698" y="170.1543">Agent</text><!--MD5=[c881b25adf3665c6568c9693d41a70f3]
class Activity--><rect codeLine="52" fill="#FFFFFF" filter="url(#foaycoylcujk0)" height="65.6094" id="Activity" style="stroke:#A80036;stroke-width:1.5;" width="131" x="106.0698" y="7"/><ellipse cx="146.2698" cy="23" fill="#ADD1B2" rx="11" ry="11" style="stroke:#A80036;stroke-width:1.0;"/><path d="M149.2385,28.6406 Q148.6604,28.9375 148.0198,29.0781 Q147.3791,29.2344 146.676,29.2344 Q144.176,29.2344 142.8479,27.5938 Q141.5354,25.9375 141.5354,22.8125 Q141.5354,19.6875 142.8479,18.0313 Q144.176,16.375 146.676,16.375 Q147.3791,16.375 148.0198,16.5313 Q148.676,16.6875 149.2385,16.9844 L149.2385,19.7031 Q148.6135,19.125 148.0198,18.8594 Q147.426,18.5781 146.801,18.5781 Q145.4573,18.5781 144.7698,19.6563 Q144.0823,20.7188 144.0823,22.8125 Q144.0823,24.9063 144.7698,25.9844 Q145.4573,27.0469 146.801,27.0469 Q147.426,27.0469 148.0198,26.7813 Q148.6135,26.5 149.2385,25.9219 L149.2385,28.6406 Z " fill="#000000"/><text fill="#000000" font-family="sans-serif" font-size="12" lengthAdjust="spacing" textLength="43" x="165.8698" y="27.1543">Activity</text><line style="stroke:#A80036;stroke-width:1.5;" x1="107.0698" x2="236.0698" y1="39" y2="39"/><text fill="#000000" font-family="sans-serif" font-size="11" lengthAdjust="spacing" textLength="116" x="112.0698" y="53.2104">contacts : List&lt;URI&gt;</text><text fill="#000000" font-family="sans-serif" font-size="11" lengthAdjust="spacing" textLength="119" x="112.0698" y="66.0151">displayName : String</text><!--MD5=[77463bb17ddcfe3891c27a1f4a877731]
class Membership--><rect codeLine="59" fill="#FFFFFF" filter="url(#foaycoylcujk0)" height="32" id="Membership" style="stroke:#A80036;stroke-width:1.5;" width="108" x="117.5698" y="150"/><ellipse cx="132.5698" cy="166" fill="#ADD1B2" rx="11" ry="11" style="stroke:#A80036;stroke-width:1.0;"/><path d="M135.5385,171.6406 Q134.9604,171.9375 134.3198,172.0781 Q133.6791,172.2344 132.976,172.2344 Q130.476,172.2344 129.1479,170.5938 Q127.8354,168.9375 127.8354,165.8125 Q127.8354,162.6875 129.1479,161.0313 Q130.476,159.375 132.976,159.375 Q133.6791,159.375 134.3198,159.5313 Q134.976,159.6875 135.5385,159.9844 L135.5385,162.7031 Q134.9135,162.125 134.3198,161.8594 Q133.726,161.5781 133.101,161.5781 Q131.7573,161.5781 131.0698,162.6563 Q130.3823,163.7188 130.3823,165.8125 Q130.3823,167.9063 131.0698,168.9844 Q131.7573,170.0469 133.101,170.0469 Q133.726,170.0469 134.3198,169.7813 Q134.9135,169.5 135.5385,168.9219 L135.5385,171.6406 Z " fill="#000000"/><text fill="#000000" font-family="sans-serif" font-size="12" lengthAdjust="spacing" textLength="76" x="146.5698" y="170.1543">Membership</text><!--MD5=[41314a0efc36828092cff9ebad2fcafd]
class Group--><rect codeLine="61" fill="#FFFFFF" filter="url(#foaycoylcujk0)" height="32" id="Group" style="stroke:#A80036;stroke-width:1.5;" width="70" x="102.5698" y="259"/><ellipse cx="117.5698" cy="275" fill="#ADD1B2" rx="11" ry="11" style="stroke:#A80036;stroke-width:1.0;"/><path d="M120.5385,280.6406 Q119.9604,280.9375 119.3198,281.0781 Q118.6791,281.2344 117.976,281.2344 Q115.476,281.2344 114.1479,279.5938 Q112.8354,277.9375 112.8354,274.8125 Q112.8354,271.6875 114.1479,270.0313 Q115.476,268.375 117.976,268.375 Q118.6791,268.375 119.3198,268.5313 Q119.976,268.6875 120.5385,268.9844 L120.5385,271.7031 Q119.9135,271.125 119.3198,270.8594 Q118.726,270.5781 118.101,270.5781 Q116.7573,270.5781 116.0698,271.6563 Q115.3823,272.7188 115.3823,274.8125 Q115.3823,276.9063 116.0698,277.9844 Q116.7573,279.0469 118.101,279.0469 Q118.726,279.0469 119.3198,278.7813 Q119.9135,278.5 120.5385,277.9219 L120.5385,280.6406 Z " fill="#000000"/><text fill="#000000" font-family="sans-serif" font-size="12" lengthAdjust="spacing" textLength="38" x="131.5698" y="279.1543">Group</text><!--MD5=[ddbff00b4911ad4b77d6aa32dd14d1d7]
class Affiliation_Statement--><rect codeLine="127" fill="#FFFFFF" filter="url(#foaycoylcujk0)" height="65.6094" id="Affiliation_Statement" style="stroke:#A80036;stroke-width:1.5;" width="161" x="328.0698" y="133"/><ellipse cx="343.0698" cy="149" fill="#ADD1B2" rx="11" ry="11" style="stroke:#A80036;stroke-width:1.0;"/><path d="M346.0385,154.6406 Q345.4604,154.9375 344.8198,155.0781 Q344.1791,155.2344 343.476,155.2344 Q340.976,155.2344 339.6479,153.5938 Q338.3354,151.9375 338.3354,148.8125 Q338.3354,145.6875 339.6479,144.0313 Q340.976,142.375 343.476,142.375 Q344.1791,142.375 344.8198,142.5313 Q345.476,142.6875 346.0385,142.9844 L346.0385,145.7031 Q345.4135,145.125 344.8198,144.8594 Q344.226,144.5781 343.601,144.5781 Q342.2573,144.5781 341.5698,145.6563 Q340.8823,146.7188 340.8823,148.8125 Q340.8823,150.9063 341.5698,151.9844 Q342.2573,153.0469 343.601,153.0469 Q344.226,153.0469 344.8198,152.7813 Q345.4135,152.5 346.0385,151.9219 L346.0385,154.6406 Z " fill="#000000"/><text fill="#000000" font-family="sans-serif" font-size="12" lengthAdjust="spacing" textLength="129" x="357.0698" y="153.1543">Affiliation_Statement</text><line style="stroke:#A80036;stroke-width:1.5;" x1="329.0698" x2="488.0698" y1="165" y2="165"/><text fill="#000000" font-family="sans-serif" font-size="11" lengthAdjust="spacing" textLength="138" x="334.0698" y="179.2104">displayAffiliation : String</text><text fill="#000000" font-family="sans-serif" font-size="11" lengthAdjust="spacing" textLength="147" x="334.0698" y="192.0151">address : Postal_Address</text><!--MD5=[fe1d14fe6d68ca7e76eb34268c62a1f3]
class Postal_Address--><rect fill="#FEFECE" filter="url(#foaycoylcujk0)" height="32" id="Postal_Address" style="stroke:#A80036;stroke-width:1.5;" width="128" x="207.5698" y="259"/><ellipse cx="222.5698" cy="275" fill="#ADD1B2" rx="11" ry="11" style="stroke:#A80036;stroke-width:1.0;"/><path d="M225.5385,280.6406 Q224.9604,280.9375 224.3198,281.0781 Q223.6791,281.2344 222.976,281.2344 Q220.476,281.2344 219.1479,279.5938 Q217.8354,277.9375 217.8354,274.8125 Q217.8354,271.6875 219.1479,270.0313 Q220.476,268.375 222.976,268.375 Q223.6791,268.375 224.3198,268.5313 Q224.976,268.6875 225.5385,268.9844 L225.5385,271.7031 Q224.9135,271.125 224.3198,270.8594 Q223.726,270.5781 223.101,270.5781 Q221.7573,270.5781 221.0698,271.6563 Q220.3823,272.7188 220.3823,274.8125 Q220.3823,276.9063 221.0698,277.9844 Q221.7573,279.0469 223.101,279.0469 Q223.726,279.0469 224.3198,278.7813 Q224.9135,278.5 225.5385,277.9219 L225.5385,280.6406 Z " fill="#000000"/><text fill="#000000" font-family="sans-serif" font-size="12" lengthAdjust="spacing" textLength="96" x="236.5698" y="279.1543">Postal_Address</text><!--MD5=[779f3743e425ed8a6f0bf188ddea4860]
class Organisation_Unit--><rect fill="#FEFECE" filter="url(#foaycoylcujk0)" height="32" id="Organisation_Unit" style="stroke:#A80036;stroke-width:1.5;" width="143" x="371.0698" y="259"/><ellipse cx="386.0698" cy="275" fill="#ADD1B2" rx="11" ry="11" style="stroke:#A80036;stroke-width:1.0;"/><path d="M389.0385,280.6406 Q388.4604,280.9375 387.8198,281.0781 Q387.1791,281.2344 386.476,281.2344 Q383.976,281.2344 382.6479,279.5938 Q381.3354,277.9375 381.3354,274.8125 Q381.3354,271.6875 382.6479,270.0313 Q383.976,268.375 386.476,268.375 Q387.1791,268.375 387.8198,268.5313 Q388.476,268.6875 389.0385,268.9844 L389.0385,271.7031 Q388.4135,271.125 387.8198,270.8594 Q387.226,270.5781 386.601,270.5781 Q385.2573,270.5781 384.5698,271.6563 Q383.8823,272.7188 383.8823,274.8125 Q383.8823,276.9063 384.5698,277.9844 Q385.2573,279.0469 386.601,279.0469 Q387.226,279.0469 387.8198,278.7813 Q388.4135,278.5 389.0385,277.9219 L389.0385,280.6406 Z " fill="#000000"/><text fill="#000000" font-family="sans-serif" font-size="12" lengthAdjust="spacing" textLength="111" x="400.0698" y="279.1543">Organisation_Unit</text><!--MD5=[09ce52be0ee7de43c61b6e2d59bf108b]
class Person--><rect fill="#FEFECE" filter="url(#foaycoylcujk0)" height="32" id="Person" style="stroke:#A80036;stroke-width:1.5;" width="76" x="370.5698" y="24"/><ellipse cx="385.5698" cy="40" fill="#ADD1B2" rx="11" ry="11" style="stroke:#A80036;stroke-width:1.0;"/><path d="M388.5385,45.6406 Q387.9604,45.9375 387.3198,46.0781 Q386.6791,46.2344 385.976,46.2344 Q383.476,46.2344 382.1479,44.5938 Q380.8354,42.9375 380.8354,39.8125 Q380.8354,36.6875 382.1479,35.0313 Q383.476,33.375 385.976,33.375 Q386.6791,33.375 387.3198,33.5313 Q387.976,33.6875 388.5385,33.9844 L388.5385,36.7031 Q387.9135,36.125 387.3198,35.8594 Q386.726,35.5781 386.101,35.5781 Q384.7573,35.5781 384.0698,36.6563 Q383.3823,37.7188 383.3823,39.8125 Q383.3823,41.9063 384.0698,42.9844 Q384.7573,44.0469 386.101,44.0469 Q386.726,44.0469 387.3198,43.7813 Q387.9135,43.5 388.5385,42.9219 L388.5385,45.6406 Z " fill="#000000"/><text fill="#000000" font-family="sans-serif" font-size="12" lengthAdjust="spacing" textLength="44" x="399.5698" y="44.1543">Person</text><!--MD5=[cd935cc757d29bd6a59b1252b30899e0]
link Activity to Agent--><path codeLine="165" d="M139.3198,73.26 C118.2998,94.28 91.2998,121.28 72.0398,140.53 " fill="none" id="Activity-to-Agent" style="stroke:#A80036;stroke-width:1.0;"/><polygon fill="#FFFFFF" points="62.7498,149.82,69.8219,148.4113,71.2416,141.3413,64.1695,142.75,62.7498,149.82" style="stroke:#A80036;stroke-width:1.0;"/><text fill="#000000" font-family="sans-serif" font-size="13" lengthAdjust="spacing" textLength="23" x="108.5268" y="92.6339">0..*</text><text fill="#000000" font-family="sans-serif" font-size="13" lengthAdjust="spacing" textLength="53" x="6" y="139.0649">0..1 who</text><!--MD5=[ac110f789ae7a6a0503e4df1ad0c3da4]
reverse link Activity to Membership--><path codeLine="192" d="M171.5698,93.29 C171.5698,113.76 171.5698,135.68 171.5698,149.82 " fill="none" id="Activity-backto-Membership" style="stroke:#A80036;stroke-width:1.0;"/><polygon fill="none" points="164.5698,93.26,171.5698,73.26,178.5698,93.26,164.5698,93.26" style="stroke:#A80036;stroke-width:1.0;"/><!--MD5=[f5e0273634b15655b552a32017180749]
link Membership to Group--><path codeLine="195" d="M166.6998,182.33 C161.4198,198.94 152.8898,225.78 146.4298,246.14 " fill="none" id="Membership-to-Group" style="stroke:#A80036;stroke-width:1.0;"/><polygon fill="#FFFFFF" points="142.4298,258.7,148.0613,254.1961,146.0698,247.2654,140.4383,251.7693,142.4298,258.7" style="stroke:#A80036;stroke-width:1.0;"/><text fill="#000000" font-family="sans-serif" font-size="13" lengthAdjust="spacing" textLength="23" x="138.4818" y="202.0139">0..*</text><text fill="#000000" font-family="sans-serif" font-size="13" lengthAdjust="spacing" textLength="99" x="28.6428" y="247.9051">0..1 member of</text><!--MD5=[af6b79ce3af62c8c5ee779db9fbc8cf6]
link Affiliation_Statement to Postal_Address--><path codeLine="137" d="M367.4698,199.1 C343.7698,217.61 314.8398,240.2 294.9998,255.71 " fill="none" id="Affiliation_Statement-to-Postal_Address" style="stroke:#A80036;stroke-width:1.0;stroke-dasharray:7.0,7.0;"/><polygon fill="#A80036" points="290.8998,258.9,300.4579,256.5248,294.8442,255.8273,295.5416,250.2136,290.8998,258.9" style="stroke:#A80036;stroke-width:1.0;"/><text fill="#000000" font-family="sans-serif" font-size="13" lengthAdjust="spacing" textLength="91" x="190.9038" y="247.8772">postalAddress</text><!--MD5=[fe03d2c8e9644e7513bef3a6fb6291e6]
reverse link Affiliation_Statement to Organisation_Unit--><path codeLine="140" d="M410.3098,212.14 C415.0598,228.86 421.8598,246.7 428.5698,258.9 " fill="none" id="Affiliation_Statement-backto-Organisation_Unit" style="stroke:#A80036;stroke-width:1.0;"/><polygon fill="#FFFFFF" points="406.9798,199.1,404.5942,205.9051,409.9584,210.7245,412.3439,203.9194,406.9798,199.1" style="stroke:#A80036;stroke-width:1.0;"/><text fill="#000000" font-family="sans-serif" font-size="13" lengthAdjust="spacing" textLength="75" x="335.8666" y="247.8772">0..1 orgUnit</text><!--MD5=[fe03d2c8e9644e7513bef3a6fb6291e6]
reverse link Affiliation_Statement to Organisation_Unit--><path codeLine="143" d="M436.0898,211.65 C442.0898,228.51 446.6298,246.58 447.5198,258.9 " fill="none" id="Affiliation_Statement-backto-Organisation_Unit-1" style="stroke:#A80036;stroke-width:1.0;"/><polygon fill="#FFFFFF" points="431.2598,199.1,429.6836,206.1367,435.5728,210.2981,437.149,203.2614,431.2598,199.1" style="stroke:#A80036;stroke-width:1.0;"/><text fill="#000000" font-family="sans-serif" font-size="13" lengthAdjust="spacing" textLength="91" x="464.8619" y="247.8772">0..1 institution</text><!--MD5=[dc2c5634ff295731fc33abbfcbd96d36]
reverse link Person to Affiliation_Statement--><path codeLine="147" d="M408.5698,69.34 C408.5698,88.3 408.5698,113.29 408.5698,132.97 " fill="none" id="Person-backto-Affiliation_Statement" style="stroke:#A80036;stroke-width:1.0;"/><polygon fill="#FFFFFF" points="408.5698,56.2,404.5698,62.2,408.5698,68.2,412.5698,62.2,408.5698,56.2" style="stroke:#A80036;stroke-width:1.0;"/><text fill="#000000" font-family="sans-serif" font-size="13" lengthAdjust="spacing" textLength="91" x="417.9541" y="121.7316">0..* affiliations</text><!--MD5=[335bc652314d68e20c6b9db39c8a9e92]
reverse link Activity to Affiliation_Statement--><path codeLine="150" d="M244.7298,79.28 C277.5298,96.44 315.7798,116.45 347.0798,132.82 " fill="none" id="Activity-backto-Affiliation_Statement" style="stroke:#A80036;stroke-width:1.0;"/><polygon fill="#A80036" points="232.9098,73.09,236.3699,79.4167,243.5408,78.6561,240.0806,72.3294,232.9098,73.09" style="stroke:#A80036;stroke-width:1.0;"/><text fill="#000000" font-family="sans-serif" font-size="13" lengthAdjust="spacing" textLength="91" x="235.0161" y="121.9295">0..* affiliations</text><!--MD5=[59676b92fd257d92b063ac1700c365e1]
@startuml

    !includesub core.puml!common
    !includesub core.puml!Agent
    !includesub core.puml!Activity
    !includesub core.puml!Membership
    !includesub core.puml!AffiliationStatement

@enduml

@startuml

        hide empty members
        skinparam BoxPadding 120
        class "Agent" #ffffff {
        }
    class "Activity" #ffffff {
        contacts : List<URI>
        displayName : String
    }
        "Activity" "0..*" - -o "0..1 who" "Agent"
        class "Membership" #ffffff {
        }
        class "Group" #ffffff {
        }
        "Activity" <|- - "Membership"
        "Membership" "0..*" - -o "0..1 member of" "Group"
        class "Affiliation_Statement" #ffffff {
            displayAffiliation : String
            address : Postal_Address
        }
        "Affiliation_Statement" ..> "postalAddress" "Postal_Address"
        "Affiliation_Statement" o- - "0..1 orgUnit" "Organisation_Unit"
        "Affiliation_Statement" o- - "0..1 institution" "Organisation_Unit"
        "Person" o- - "0..* affiliations" "Affiliation_Statement"
        "Activity" *- - "0..* affiliations" "Affiliation_Statement"

@enduml

PlantUML version 1.2021.8(Sat Jun 26 08:20:59 UTC 2021)
(GPL source distribution)
Java Runtime: OpenJDK Runtime Environment
JVM: OpenJDK 64-Bit Server VM
Default Encoding: UTF-8
Language: en
Country: null
--></g></svg>