<svg xmlns="http://www.w3.org/2000/svg" xmlns:xlink="http://www.w3.org/1999/xlink" contentStyleType="text/css" data-diagram-type="CLASS" height="704px" preserveAspectRatio="none" style="width:1386px;height:704px;background:#FFFFFF;" version="1.1" viewBox="0 0 1386 704" width="1386px" zoomAndPan="magnify"><defs/><g><!--class Agent--><g class="entity" data-entity="Agent" data-source-line="10" data-uid="ent0002" id="entity_Agent"><rect fill="#FFFFFF" height="89.4648" rx="2.5" ry="2.5" style="stroke:#181818;stroke-width:0.5;" width="267.3223" x="579.38" y="257.73"/><ellipse cx="688.7345" cy="273.73" fill="#ADD1B2" rx="11" ry="11" style="stroke:#181818;stroke-width:1;"/><path d="M691.2076,279.8731 Q690.6266,280.1719 689.9874,280.3213 Q689.3483,280.4707 688.6427,280.4707 Q686.1359,280.4707 684.816,278.8189 Q683.4962,277.167 683.4962,274.0459 Q683.4962,270.9165 684.816,269.2647 Q686.1359,267.6128 688.6427,267.6128 Q689.3483,267.6128 689.9957,267.7622 Q690.6432,267.9116 691.2076,268.2105 L691.2076,270.9331 Q690.5768,270.3521 689.9833,270.0823 Q689.3898,269.8125 688.7589,269.8125 Q687.4142,269.8125 686.7294,270.8792 Q686.0446,271.9458 686.0446,274.0459 Q686.0446,276.1377 686.7294,277.2044 Q687.4142,278.271 688.7589,278.271 Q689.3898,278.271 689.9833,278.0012 Q690.5768,277.7315 691.2076,277.1504 Z " fill="#000000"/><text fill="#000000" font-family="sans-serif" font-size="14" lengthAdjust="spacing" textLength="40.1133" x="709.2345" y="279.021">Agent</text><line style="stroke:#181818;stroke-width:0.5;" x1="580.38" x2="845.7023" y1="289.73" y2="289.73"/><text fill="#000000" font-family="sans-serif" font-size="14" lengthAdjust="spacing" textLength="250.8174" x="585.38" y="307.2652">keywords : List&lt;Multilingual_String&gt;</text><text fill="#000000" font-family="sans-serif" font-size="14" lengthAdjust="spacing" textLength="144.5391" x="585.38" y="323.7534">lifetime : Date_Range</text><text fill="#000000" font-family="sans-serif" font-size="14" lengthAdjust="spacing" textLength="255.3223" x="585.38" y="340.2417">contacts : List&lt;Contact_Information&gt;</text></g><!--class Date_Range--><g class="entity" data-entity="Date_Range" data-source-line="15" data-uid="ent0003" id="entity_Date_Range"><rect fill="#F1F1F1" height="32" rx="2.5" ry="2.5" style="stroke:#181818;stroke-width:0.5;" width="112.0557" x="820.02" y="461.17"/><ellipse cx="835.02" cy="477.17" fill="#ADD1B2" rx="11" ry="11" style="stroke:#181818;stroke-width:1;"/><path d="M837.4931,483.3131 Q836.9121,483.6119 836.2729,483.7613 Q835.6338,483.9107 834.9282,483.9107 Q832.4214,483.9107 831.1015,482.2589 Q829.7817,480.607 829.7817,477.4859 Q829.7817,474.3565 831.1015,472.7047 Q832.4214,471.0528 834.9282,471.0528 Q835.6338,471.0528 836.2812,471.2022 Q836.9287,471.3516 837.4931,471.6505 L837.4931,474.3731 Q836.8623,473.7921 836.2688,473.5223 Q835.6753,473.2525 835.0444,473.2525 Q833.6997,473.2525 833.0149,474.3192 Q832.3301,475.3858 832.3301,477.4859 Q832.3301,479.5777 833.0149,480.6444 Q833.6997,481.711 835.0444,481.711 Q835.6753,481.711 836.2688,481.4412 Q836.8623,481.1715 837.4931,480.5904 Z " fill="#000000"/><text fill="#000000" font-family="sans-serif" font-size="14" lengthAdjust="spacing" textLength="80.0557" x="849.02" y="482.461">Date_Range</text></g><!--class Contact_Information--><g class="entity" data-entity="Contact_Information" data-source-line="16" data-uid="ent0005" id="entity_Contact_Information"><rect fill="#F1F1F1" height="32" rx="2.5" ry="2.5" style="stroke:#181818;stroke-width:0.5;" width="170.9199" x="614.59" y="461.17"/><ellipse cx="629.59" cy="477.17" fill="#ADD1B2" rx="11" ry="11" style="stroke:#181818;stroke-width:1;"/><path d="M632.0631,483.3131 Q631.4821,483.6119 630.8429,483.7613 Q630.2038,483.9107 629.4982,483.9107 Q626.9914,483.9107 625.6715,482.2589 Q624.3517,480.607 624.3517,477.4859 Q624.3517,474.3565 625.6715,472.7047 Q626.9914,471.0528 629.4982,471.0528 Q630.2038,471.0528 630.8512,471.2022 Q631.4987,471.3516 632.0631,471.6505 L632.0631,474.3731 Q631.4323,473.7921 630.8388,473.5223 Q630.2453,473.2525 629.6144,473.2525 Q628.2697,473.2525 627.5849,474.3192 Q626.9001,475.3858 626.9001,477.4859 Q626.9001,479.5777 627.5849,480.6444 Q628.2697,481.711 629.6144,481.711 Q630.2453,481.711 630.8388,481.4412 Q631.4323,481.1715 632.0631,480.5904 Z " fill="#000000"/><text fill="#000000" font-family="sans-serif" font-size="14" lengthAdjust="spacing" textLength="138.9199" x="643.59" y="482.461">Contact_Information</text></g><!--class Activity--><g class="entity" data-entity="Activity" data-source-line="129" data-uid="ent0007" id="entity_Activity"><rect fill="#FFFFFF" height="56.4883" rx="2.5" ry="2.5" style="stroke:#181818;stroke-width:0.5;" width="176.7256" x="701.68" y="116"/><ellipse cx="760.8143" cy="132" fill="#ADD1B2" rx="11" ry="11" style="stroke:#181818;stroke-width:1;"/><path d="M763.2874,138.1431 Q762.7064,138.4419 762.0672,138.5913 Q761.428,138.7407 760.7225,138.7407 Q758.2156,138.7407 756.8958,137.0889 Q755.576,135.437 755.576,132.3159 Q755.576,129.1865 756.8958,127.5347 Q758.2156,125.8828 760.7225,125.8828 Q761.428,125.8828 762.0755,126.0322 Q762.723,126.1816 763.2874,126.4805 L763.2874,129.2031 Q762.6566,128.6221 762.0631,128.3523 Q761.4696,128.0825 760.8387,128.0825 Q759.494,128.0825 758.8092,129.1492 Q758.1243,130.2158 758.1243,132.3159 Q758.1243,134.4077 758.8092,135.4744 Q759.494,136.541 760.8387,136.541 Q761.4696,136.541 762.0631,136.2712 Q762.6566,136.0015 763.2874,135.4204 Z " fill="#000000"/><text fill="#000000" font-family="sans-serif" font-size="14" lengthAdjust="spacing" textLength="49.957" x="781.3143" y="137.291">Activity</text><line style="stroke:#181818;stroke-width:0.5;" x1="702.68" x2="877.4056" y1="148" y2="148"/><text fill="#000000" font-family="sans-serif" font-size="14" lengthAdjust="spacing" textLength="164.7256" x="707.68" y="165.5352">dateRange : Date_Range</text></g><!--class Document--><g class="entity" data-entity="Document" data-source-line="238" data-uid="ent0008" id="entity_Document"><rect fill="#F1F1F1" height="32" rx="2.5" ry="2.5" style="stroke:#181818;stroke-width:0.5;" width="101.7402" x="739.18" y="7"/><ellipse cx="754.18" cy="23" fill="#ADD1B2" rx="11" ry="11" style="stroke:#181818;stroke-width:1;"/><path d="M756.6531,29.1431 Q756.0721,29.4419 755.4329,29.5913 Q754.7938,29.7407 754.0882,29.7407 Q751.5814,29.7407 750.2615,28.0889 Q748.9417,26.437 748.9417,23.3159 Q748.9417,20.1865 750.2615,18.5347 Q751.5814,16.8828 754.0882,16.8828 Q754.7938,16.8828 755.4412,17.0322 Q756.0887,17.1816 756.6531,17.4805 L756.6531,20.2031 Q756.0223,19.6221 755.4288,19.3523 Q754.8353,19.0825 754.2044,19.0825 Q752.8597,19.0825 752.1749,20.1492 Q751.4901,21.2158 751.4901,23.3159 Q751.4901,25.4077 752.1749,26.4744 Q752.8597,27.541 754.2044,27.541 Q754.8353,27.541 755.4288,27.2712 Q756.0223,27.0015 756.6531,26.4204 Z " fill="#000000"/><text fill="#000000" font-family="sans-serif" font-size="14" lengthAdjust="spacing" textLength="69.7402" x="768.18" y="28.291">Document</text></g><!--class Membership--><g class="entity" data-entity="Membership" data-source-line="165" data-uid="ent0012" id="entity_Membership"><rect fill="#FFFFFF" height="32" rx="2.5" ry="2.5" style="stroke:#181818;stroke-width:0.5;" width="115.9521" x="1230.07" y="461.17"/><ellipse cx="1245.07" cy="477.17" fill="#ADD1B2" rx="11" ry="11" style="stroke:#181818;stroke-width:1;"/><path d="M1247.5431,483.3131 Q1246.9621,483.6119 1246.3229,483.7613 Q1245.6838,483.9107 1244.9782,483.9107 Q1242.4714,483.9107 1241.1515,482.2589 Q1239.8317,480.607 1239.8317,477.4859 Q1239.8317,474.3565 1241.1515,472.7047 Q1242.4714,471.0528 1244.9782,471.0528 Q1245.6838,471.0528 1246.3312,471.2022 Q1246.9787,471.3516 1247.5431,471.6505 L1247.5431,474.3731 Q1246.9123,473.7921 1246.3188,473.5223 Q1245.7253,473.2525 1245.0944,473.2525 Q1243.7497,473.2525 1243.0649,474.3192 Q1242.3801,475.3858 1242.3801,477.4859 Q1242.3801,479.5777 1243.0649,480.6444 Q1243.7497,481.711 1245.0944,481.711 Q1245.7253,481.711 1246.3188,481.4412 Q1246.9123,481.1715 1247.5431,480.5904 Z " fill="#000000"/><text fill="#000000" font-family="sans-serif" font-size="14" lengthAdjust="spacing" textLength="83.9521" x="1259.07" y="482.461">Membership</text></g><!--class Involvement--><g class="entity" data-entity="Involvement" data-source-line="170" data-uid="ent0013" id="entity_Involvement"><rect fill="#FFFFFF" height="72.9766" rx="2.5" ry="2.5" style="stroke:#181818;stroke-width:0.5;" width="228.3916" x="952.85" y="265.98"/><ellipse cx="1021.5683" cy="281.98" fill="#ADD1B2" rx="11" ry="11" style="stroke:#181818;stroke-width:1;"/><path d="M1024.0414,288.1231 Q1023.4604,288.4219 1022.8212,288.5713 Q1022.182,288.7207 1021.4765,288.7207 Q1018.9696,288.7207 1017.6498,287.0689 Q1016.33,285.417 1016.33,282.2959 Q1016.33,279.1665 1017.6498,277.5147 Q1018.9696,275.8628 1021.4765,275.8628 Q1022.182,275.8628 1022.8295,276.0122 Q1023.477,276.1616 1024.0414,276.4605 L1024.0414,279.1831 Q1023.4105,278.6021 1022.817,278.3323 Q1022.2235,278.0625 1021.5927,278.0625 Q1020.2479,278.0625 1019.5631,279.1292 Q1018.8783,280.1958 1018.8783,282.2959 Q1018.8783,284.3877 1019.5631,285.4544 Q1020.2479,286.521 1021.5927,286.521 Q1022.2235,286.521 1022.817,286.2512 Q1023.4105,285.9815 1024.0414,285.4004 Z " fill="#000000"/><text fill="#000000" font-family="sans-serif" font-size="14" lengthAdjust="spacing" textLength="82.4551" x="1042.0683" y="287.271">Involvement</text><line style="stroke:#181818;stroke-width:0.5;" x1="953.85" x2="1180.2416" y1="297.98" y2="297.98"/><text fill="#000000" font-family="sans-serif" font-size="14" lengthAdjust="spacing" textLength="216.3916" x="958.85" y="315.5152">description : Multilingual_String</text><text fill="#000000" font-family="sans-serif" font-size="14" lengthAdjust="spacing" textLength="135.8369" x="958.85" y="332.0034">position    : Position</text></g><!--class Person--><g class="entity" data-entity="Person" data-source-line="20" data-uid="ent0015" id="entity_Person"><rect fill="#FFFFFF" height="72.9766" rx="2.5" ry="2.5" style="stroke:#181818;stroke-width:0.5;" width="273.5771" x="306.26" y="440.69"/><ellipse cx="415.9529" cy="456.69" fill="#ADD1B2" rx="11" ry="11" style="stroke:#181818;stroke-width:1;"/><path d="M418.426,462.8331 Q417.845,463.1319 417.2058,463.2813 Q416.5666,463.4307 415.8611,463.4307 Q413.3542,463.4307 412.0344,461.7789 Q410.7146,460.127 410.7146,457.0059 Q410.7146,453.8765 412.0344,452.2247 Q413.3542,450.5728 415.8611,450.5728 Q416.5666,450.5728 417.2141,450.7222 Q417.8616,450.8716 418.426,451.1705 L418.426,453.8931 Q417.7952,453.3121 417.2017,453.0423 Q416.6081,452.7725 415.9773,452.7725 Q414.6326,452.7725 413.9477,453.8392 Q413.2629,454.9058 413.2629,457.0059 Q413.2629,459.0977 413.9477,460.1644 Q414.6326,461.231 415.9773,461.231 Q416.6081,461.231 417.2017,460.9612 Q417.7952,460.6915 418.426,460.1104 Z " fill="#000000"/><text fill="#000000" font-family="sans-serif" font-size="14" lengthAdjust="spacing" textLength="45.6914" x="436.4529" y="461.981">Person</text><line style="stroke:#181818;stroke-width:0.5;" x1="307.26" x2="578.8371" y1="472.69" y2="472.69"/><text fill="#000000" font-family="sans-serif" font-size="14" lengthAdjust="spacing" textLength="190.9414" x="312.26" y="490.2252">name            : Person_Name</text><text fill="#000000" font-family="sans-serif" font-size="14" lengthAdjust="spacing" textLength="261.5771" x="312.26" y="506.7134">alternateNames  : List&lt;Person_Name&gt;</text></g><!--class Person_Name--><g class="entity" data-entity="Person_Name" data-source-line="76" data-uid="ent0017" id="entity_Person_Name"><rect fill="#FFFFFF" height="114.5742" rx="2.5" ry="2.5" style="stroke:#181818;stroke-width:0.5;" width="239.7529" x="323.17" y="582.91"/><ellipse cx="392.9786" cy="603.2205" fill="#ADD0B2" rx="11" ry="11" style="stroke:#181818;stroke-width:1;"/><path d="M392.0645,599.5355 L392.0645,607.5125 L392.7286,607.5125 Q394.1729,607.5125 394.7872,606.6036 Q395.4014,605.6947 395.4014,603.5116 Q395.4014,601.3451 394.7872,600.4403 Q394.1729,599.5355 392.7286,599.5355 Z M389.6158,597.3275 L392.2388,597.3275 Q395.2769,597.3275 396.6134,598.776 Q397.9498,600.2245 397.9498,603.5116 Q397.9498,606.807 396.6134,608.2638 Q395.2769,609.7205 392.2388,609.7205 L389.6158,609.7205 Z " fill="#000000"/><text fill="#000000" font-family="sans-serif" font-size="12" font-style="italic" lengthAdjust="spacing" textLength="67.4004" x="425.5963" y="599.5116">&#171;DataType&#187;</text><text fill="#000000" font-family="sans-serif" font-size="14" lengthAdjust="spacing" textLength="91.6357" x="413.4786" y="615.578">Person_Name</text><line style="stroke:#181818;stroke-width:0.5;" x1="324.17" x2="561.9229" y1="623.5311" y2="623.5311"/><text fill="#000000" font-family="sans-serif" font-size="14" lengthAdjust="spacing" textLength="213.6914" x="329.17" y="641.0663">firstNames : Multilingual_String</text><text fill="#000000" font-family="sans-serif" font-size="14" lengthAdjust="spacing" textLength="227.7529" x="329.17" y="657.5545">familyNames : Multilingual_String</text><text fill="#000000" font-family="sans-serif" font-size="14" lengthAdjust="spacing" textLength="222.4482" x="329.17" y="674.0428">otherNames : Multilingual_String</text><text fill="#000000" font-family="sans-serif" font-size="14" lengthAdjust="spacing" textLength="227.1582" x="329.17" y="690.5311">displayName : Multilingual_String</text></g><!--class Group--><g class="entity" data-entity="Group" data-source-line="101" data-uid="ent0019" id="entity_Group"><rect fill="#FFFFFF" height="32" rx="2.5" ry="2.5" style="stroke:#181818;stroke-width:0.5;" width="73.9453" x="1044.07" y="624.19"/><ellipse cx="1059.07" cy="640.19" fill="#ADD1B2" rx="11" ry="11" style="stroke:#181818;stroke-width:1;"/><path d="M1061.5431,646.3331 Q1060.9621,646.6319 1060.3229,646.7813 Q1059.6838,646.9307 1058.9782,646.9307 Q1056.4714,646.9307 1055.1515,645.2789 Q1053.8317,643.627 1053.8317,640.5059 Q1053.8317,637.3765 1055.1515,635.7247 Q1056.4714,634.0728 1058.9782,634.0728 Q1059.6838,634.0728 1060.3312,634.2222 Q1060.9787,634.3716 1061.5431,634.6705 L1061.5431,637.3931 Q1060.9123,636.8121 1060.3188,636.5423 Q1059.7253,636.2725 1059.0944,636.2725 Q1057.7497,636.2725 1057.0649,637.3392 Q1056.3801,638.4058 1056.3801,640.5059 Q1056.3801,642.5977 1057.0649,643.6644 Q1057.7497,644.731 1059.0944,644.731 Q1059.7253,644.731 1060.3188,644.4612 Q1060.9123,644.1915 1061.5431,643.6104 Z " fill="#000000"/><text fill="#000000" font-family="sans-serif" font-size="14" lengthAdjust="spacing" textLength="41.9453" x="1073.07" y="645.481">Group</text></g><!--class Group_or_Organisation_Unit--><g class="entity" data-entity="Group_or_Organisation_Unit" data-source-line="106" data-uid="ent0020" id="entity_Group_or_Organisation_Unit"><rect fill="#FFFFFF" height="89.4648" rx="2.5" ry="2.5" style="stroke:#181818;stroke-width:0.5;" width="228.3916" x="966.85" y="432.44"/><ellipse cx="983.7427" cy="448.44" fill="#ADD1B2" rx="11" ry="11" style="stroke:#181818;stroke-width:1;"/><path d="M986.2159,454.5831 Q985.6348,454.8819 984.9957,455.0313 Q984.3565,455.1807 983.6509,455.1807 Q981.1441,455.1807 979.8243,453.5289 Q978.5044,451.877 978.5044,448.7559 Q978.5044,445.6265 979.8243,443.9747 Q981.1441,442.3228 983.6509,442.3228 Q984.3565,442.3228 985.004,442.4722 Q985.6514,442.6216 986.2159,442.9205 L986.2159,445.6431 Q985.585,445.0621 984.9915,444.7923 Q984.398,444.5225 983.7671,444.5225 Q982.4224,444.5225 981.7376,445.5892 Q981.0528,446.6558 981.0528,448.7559 Q981.0528,450.8477 981.7376,451.9144 Q982.4224,452.981 983.7671,452.981 Q984.398,452.981 984.9915,452.7112 Q985.585,452.4415 986.2159,451.8604 Z " fill="#000000"/><text fill="#000000" font-family="sans-serif" font-size="14" lengthAdjust="spacing" textLength="192.1855" x="998.1633" y="453.731">Group_or_Organisation_Unit</text><line style="stroke:#181818;stroke-width:0.5;" x1="967.85" x2="1194.2416" y1="464.44" y2="464.44"/><text fill="#000000" font-family="sans-serif" font-size="14" lengthAdjust="spacing" textLength="177.6045" x="972.85" y="481.9752">name : Multilingual_String</text><text fill="#000000" font-family="sans-serif" font-size="14" lengthAdjust="spacing" textLength="198.6182" x="972.85" y="498.4634">acronym : Multilingual_String</text><text fill="#000000" font-family="sans-serif" font-size="14" lengthAdjust="spacing" textLength="216.3916" x="972.85" y="514.9517">description : Multilingual_String</text></g><!--class Organisation_Unit--><g class="entity" data-entity="Organisation_Unit" data-source-line="110" data-uid="ent0023" id="entity_Organisation_Unit"><rect fill="#FFFFFF" height="32" rx="2.5" ry="2.5" style="stroke:#181818;stroke-width:0.5;" width="153.9121" x="72.09" y="624.19"/><ellipse cx="87.09" cy="640.19" fill="#ADD1B2" rx="11" ry="11" style="stroke:#181818;stroke-width:1;"/><path d="M89.5631,646.3331 Q88.9821,646.6319 88.3429,646.7813 Q87.7038,646.9307 86.9982,646.9307 Q84.4914,646.9307 83.1715,645.2789 Q81.8517,643.627 81.8517,640.5059 Q81.8517,637.3765 83.1715,635.7247 Q84.4914,634.0728 86.9982,634.0728 Q87.7038,634.0728 88.3512,634.2222 Q88.9987,634.3716 89.5631,634.6705 L89.5631,637.3931 Q88.9323,636.8121 88.3388,636.5423 Q87.7453,636.2725 87.1144,636.2725 Q85.7697,636.2725 85.0849,637.3392 Q84.4001,638.4058 84.4001,640.5059 Q84.4001,642.5977 85.0849,643.6644 Q85.7697,644.731 87.1144,644.731 Q87.7453,644.731 88.3388,644.4612 Q88.9323,644.1915 89.5631,643.6104 Z " fill="#000000"/><text fill="#000000" font-family="sans-serif" font-size="14" lengthAdjust="spacing" textLength="121.9121" x="101.09" y="645.481">Organisation_Unit</text></g><!--class Affiliation_Statement--><g class="entity" data-entity="Affiliation_Statement" data-source-line="822" data-uid="ent0029" id="entity_Affiliation_Statement"><rect fill="#FFFFFF" height="105.9531" rx="2.5" ry="2.5" style="stroke:#181818;stroke-width:0.5;" width="284.8496" x="259.62" y="249.49"/><ellipse cx="326.9266" cy="265.49" fill="#ADD1B2" rx="11" ry="11" style="stroke:#181818;stroke-width:1;"/><path d="M329.3998,271.6331 Q328.8187,271.9319 328.1796,272.0813 Q327.5404,272.2307 326.8348,272.2307 Q324.328,272.2307 323.0082,270.5789 Q321.6884,268.927 321.6884,265.8059 Q321.6884,262.6765 323.0082,261.0247 Q324.328,259.3728 326.8348,259.3728 Q327.5404,259.3728 328.1879,259.5222 Q328.8353,259.6716 329.3998,259.9705 L329.3998,262.6931 Q328.7689,262.1121 328.1754,261.8423 Q327.5819,261.5725 326.9511,261.5725 Q325.6063,261.5725 324.9215,262.6392 Q324.2367,263.7058 324.2367,265.8059 Q324.2367,267.8977 324.9215,268.9644 Q325.6063,270.031 326.9511,270.031 Q327.5819,270.031 328.1754,269.7612 Q328.7689,269.4915 329.3998,268.9104 Z " fill="#000000"/><text fill="#000000" font-family="sans-serif" font-size="14" lengthAdjust="spacing" textLength="141.7363" x="347.4266" y="270.781">Affiliation_Statement</text><line style="stroke:#181818;stroke-width:0.5;" x1="260.62" x2="543.4696" y1="281.49" y2="281.49"/><text fill="#000000" font-family="sans-serif" font-size="14" lengthAdjust="spacing" textLength="254.6113" x="265.62" y="299.0252">displayAffiliation : Multilingual_String</text><text fill="#000000" font-family="sans-serif" font-size="14" lengthAdjust="spacing" textLength="272.8496" x="265.62" y="315.5134">displayPersonName : Multilingual_String</text><text fill="#000000" font-family="sans-serif" font-size="14" lengthAdjust="spacing" textLength="255.3223" x="265.62" y="332.0017">contacts : List&lt;Contact_Information&gt;</text><text fill="#000000" font-family="sans-serif" font-size="14" lengthAdjust="spacing" textLength="122.5479" x="265.62" y="348.49">position : Position</text></g><!--link Agent to Date_Range--><g class="link" data-entity-1="Agent" data-entity-2="Date_Range" data-source-line="15" data-uid="lnk4" id="link_Agent_Date_Range"><path codeLine="15" d="M754.6,347.49 C789.69,384.67 833.7823,431.386 857.5223,456.546" fill="none" id="Agent-to-Date_Range" style="stroke:#181818;stroke-width:1;stroke-dasharray:7,7;"/><polygon fill="#181818" points="861.64,460.91,858.3728,451.6189,858.2086,457.2733,852.5541,457.1091,861.64,460.91" style="stroke:#181818;stroke-width:1;"/></g><!--link Agent to Contact_Information--><g class="link" data-entity-1="Agent" data-entity-2="Contact_Information" data-source-line="16" data-uid="lnk6" id="link_Agent_Contact_Information"><path codeLine="16" d="M709.73,347.49 C706.93,384.67 703.5418,429.767 701.6418,454.927" fill="none" id="Agent-to-Contact_Information" style="stroke:#181818;stroke-width:1;stroke-dasharray:7,7;"/><polygon fill="#181818" points="701.19,460.91,705.8564,452.2368,701.5665,455.9242,697.8791,451.6343,701.19,460.91" style="stroke:#181818;stroke-width:1;"/><text fill="#000000" font-family="sans-serif" font-size="13" lengthAdjust="spacing" textLength="22.7119" x="675.923" y="450.3642">0..*</text></g><!--link Document to Activity--><g class="link" data-entity-1="Document" data-entity-2="Activity" data-source-line="238" data-uid="lnk9" id="link_Document_Activity"><path codeLine="238" d="M790.05,39.1 C790.05,58.28 790.05,91.73 790.05,115.55" fill="none" id="Document-Activity" style="stroke:#181818;stroke-width:1;"/><polygon fill="#000000" points="795.05,82.6553,797.9889,73.6102,792.1111,73.6102,795.05,82.6553" style="stroke:#000000;stroke-width:1;"/><text fill="#000000" font-family="sans-serif" font-size="13" lengthAdjust="spacing" textLength="35.458" x="804.05" y="82.5684">prove</text><text fill="#000000" font-family="sans-serif" font-size="13" lengthAdjust="spacing" textLength="22.7119" x="764.5241" y="59.5373">0..*</text><text fill="#000000" font-family="sans-serif" font-size="13" lengthAdjust="spacing" textLength="22.7119" x="765.7232" y="105.2349">0..*</text></g><!--link Activity to Agent--><g class="link" data-entity-1="Activity" data-entity-2="Agent" data-source-line="244" data-uid="lnk10" id="link_Activity_Agent"><path codeLine="244" d="M708.69,172.9 C696.49,180.58 685.51,190.29 678.05,202.49 C667.77,219.28 669.7321,234.1408 678.5221,251.9308" fill="none" id="Activity-to-Agent" style="stroke:#181818;stroke-width:1;"/><polygon fill="#181818" points="681.18,257.31,680.7794,247.4693,678.9651,252.8273,673.6071,251.0131,681.18,257.31" style="stroke:#181818;stroke-width:1;"/><polygon fill="#000000" points="681.2669,215.8165,687.2383,208.4143,681.7469,206.3181,681.2669,215.8165" style="stroke:#000000;stroke-width:1;"/><text fill="#000000" font-family="sans-serif" font-size="13" lengthAdjust="spacing" textLength="32.0049" x="692.05" y="216.0584">actor</text><text fill="#000000" font-family="sans-serif" font-size="13" lengthAdjust="spacing" textLength="22.7119" x="670.878" y="191.7093">0..*</text><text fill="#000000" font-family="sans-serif" font-size="13" lengthAdjust="spacing" textLength="24.667" x="650.5148" y="246.8397">0..1</text></g><!--link Activity to Date_Range--><g class="link" data-entity-1="Activity" data-entity-2="Date_Range" data-source-line="843" data-uid="lnk11" id="link_Activity_Date_Range"><path codeLine="843" d="M850.49,172.93 C861.55,180.85 871.61,190.63 878.05,202.49 C925.4,289.78 895.8199,411.2118 882.7299,454.9618" fill="none" id="Activity-to-Date_Range" style="stroke:#181818;stroke-width:1;stroke-dasharray:7,7;"/><polygon fill="#181818" points="881.01,460.71,887.4219,453.2342,882.4432,455.9198,879.7577,450.9411,881.01,460.71" style="stroke:#181818;stroke-width:1;"/></g><!--reverse link Involvement to Membership--><g class="link" data-entity-1="Involvement" data-entity-2="Membership" data-source-line="170" data-uid="lnk14" id="link_Involvement_Membership"><path codeLine="170" d="M1127.0215,350.3353 C1174.9315,387.7853 1233.74,433.73 1268.42,460.84" fill="none" id="Involvement-backto-Membership" style="stroke:#181818;stroke-width:1;"/><polygon fill="none" points="1112.84,339.25,1123.3264,355.0625,1130.7166,345.6082,1112.84,339.25" style="stroke:#181818;stroke-width:1;"/></g><!--reverse link Agent to Person--><g class="link" data-entity-1="Agent" data-entity-2="Person" data-source-line="72" data-uid="lnk16" id="link_Agent_Person"><path codeLine="72" d="M629.0486,357.1921 C584.0586,385.9821 541.19,413.39 499.03,440.36" fill="none" id="Agent-backto-Person" style="stroke:#181818;stroke-width:1;"/><polygon fill="none" points="644.21,347.49,625.8145,352.1383,632.2826,362.2459,644.21,347.49" style="stroke:#181818;stroke-width:1;"/></g><!--link Person to Person_Name--><g class="link" data-entity-1="Person" data-entity-2="Person_Name" data-source-line="85" data-uid="lnk18" id="link_Person_Person_Name"><path codeLine="85" d="M443.05,513.91 C443.05,534.11 443.05,553.82 443.05,576.69" fill="none" id="Person-to-Person_Name" style="stroke:#181818;stroke-width:1;stroke-dasharray:7,7;"/><polygon fill="#181818" points="443.05,582.69,447.05,573.69,443.05,577.69,439.05,573.69,443.05,582.69" style="stroke:#181818;stroke-width:1;"/></g><!--reverse link Group_or_Organisation_Unit to Group--><g class="link" data-entity-1="Group_or_Organisation_Unit" data-entity-2="Group" data-source-line="106" data-uid="lnk21" id="link_Group_or_Organisation_Unit_Group"><path codeLine="106" d="M1081.05,540.17 C1081.05,574.07 1081.05,600.91 1081.05,624.01" fill="none" id="Group_or_Organisation_Unit-backto-Group" style="stroke:#181818;stroke-width:1;"/><polygon fill="none" points="1081.05,522.17,1075.05,540.17,1087.05,540.17,1081.05,522.17" style="stroke:#181818;stroke-width:1;"/></g><!--link Group to Group--><g class="link" data-entity-1="Group" data-entity-2="Group" data-source-line="123" data-uid="lnk22" id="link_Group_Group"><path codeLine="123" d="M1124.4109,623.4963 C1142.7209,621.3963 1153.02,627.42 1153.02,640.19 C1153.02,652.97 1142.7209,658.9937 1124.4109,656.8937" fill="none" id="Group-Group" style="stroke:#181818;stroke-width:1;stroke-dasharray:7,7;"/><polygon fill="#181818" points="1118.45,624.18,1127.8472,627.1284,1123.4174,623.6103,1126.9356,619.1806,1118.45,624.18" style="stroke:#181818;stroke-width:1;"/><polygon fill="#181818" points="1118.45,656.21,1126.9356,661.2094,1123.4174,656.7797,1127.8472,653.2616,1118.45,656.21" style="stroke:#181818;stroke-width:1;"/><text fill="#000000" font-family="sans-serif" font-size="13" lengthAdjust="spacing" textLength="69.2466" x="1050.5297" y="613.4282">0..* part of</text><text fill="#000000" font-family="sans-serif" font-size="13" lengthAdjust="spacing" textLength="58.9951" x="1063.3997" y="676.6208">0..* parts</text></g><!--reverse link Group_or_Organisation_Unit to Organisation_Unit--><g class="link" data-entity-1="Group_or_Organisation_Unit" data-entity-2="Organisation_Unit" data-source-line="115" data-uid="lnk24" id="link_Group_or_Organisation_Unit_Organisation_Unit"><path codeLine="115" d="M948.9924,522.5051 C667.7024,581.9651 586.66,520.35 306.05,582.91 C262.95,592.51 215.48,610.65 184.15,623.74" fill="none" id="Group_or_Organisation_Unit-backto-Organisation_Unit" style="stroke:#181818;stroke-width:1;"/><polygon fill="none" points="966.44,518.08,947.5174,516.6893,950.4674,528.321,966.44,518.08" style="stroke:#181818;stroke-width:1;"/></g><!--link Organisation_Unit to Organisation_Unit--><g class="link" data-entity-1="Organisation_Unit" data-entity-2="Organisation_Unit" data-source-line="119" data-uid="lnk25" id="link_Organisation_Unit_Organisation_Unit"><path codeLine="119" d="M232.4812,624.2552 C252.1912,625.3252 261,630.42 261,640.19 C261,649.97 252.1912,655.0648 232.4812,656.1348" fill="none" id="Organisation_Unit-Organisation_Unit" style="stroke:#181818;stroke-width:1;stroke-dasharray:7,7;"/><polygon fill="#181818" points="226.49,623.93,235.2599,628.412,231.4826,624.201,235.6936,620.4237,226.49,623.93" style="stroke:#181818;stroke-width:1;"/><polygon fill="#181818" points="226.49,656.46,235.6936,659.9663,231.4826,656.189,235.2599,651.978,226.49,656.46" style="stroke:#181818;stroke-width:1;"/><text fill="#000000" font-family="sans-serif" font-size="13" lengthAdjust="spacing" textLength="69.2466" x="234.0195" y="619.9124">0..* part of</text><text fill="#000000" font-family="sans-serif" font-size="13" lengthAdjust="spacing" textLength="58.9951" x="184.0901" y="676.6545">0..* parts</text></g><!--reverse link Agent to Group_or_Organisation_Unit--><g class="link" data-entity-1="Agent" data-entity-2="Group_or_Organisation_Unit" data-source-line="97" data-uid="lnk26" id="link_Agent_Group_or_Organisation_Unit"><path codeLine="97" d="M823.1541,355.1387 C878.4141,381.0787 931.8,406.13 987.08,432.08" fill="none" id="Agent-backto-Group_or_Organisation_Unit" style="stroke:#181818;stroke-width:1;"/><polygon fill="none" points="806.86,347.49,820.6045,360.5701,825.7037,349.7074,806.86,347.49" style="stroke:#181818;stroke-width:1;"/></g><!--reverse link Activity to Involvement--><g class="link" data-entity-1="Activity" data-entity-2="Involvement" data-source-line="142" data-uid="lnk27" id="link_Activity_Involvement"><path codeLine="142" d="M880.3537,179.8511 C900.9437,188.4711 906.43,191.64 926.05,202.49 C959.41,220.94 994.52,245.57 1021.35,265.64" fill="none" id="Activity-backto-Involvement" style="stroke:#181818;stroke-width:1;"/><polygon fill="none" points="863.75,172.9,878.0366,185.3857,882.6707,174.3166,863.75,172.9" style="stroke:#181818;stroke-width:1;"/></g><!--link Involvement to Group_or_Organisation_Unit--><g class="link" data-entity-1="Involvement" data-entity-2="Group_or_Organisation_Unit" data-source-line="248" data-uid="lnk28" id="link_Involvement_Group_or_Organisation_Unit"><path codeLine="248" d="M1069.95,339.25 C1072.13,366.22 1074.6539,397.3797 1076.9939,426.1697" fill="none" id="Involvement-to-Group_or_Organisation_Unit" style="stroke:#181818;stroke-width:1;"/><polygon fill="#181818" points="1077.48,432.15,1080.7378,422.8555,1077.0749,427.1664,1072.764,423.5036,1077.48,432.15" style="stroke:#181818;stroke-width:1;"/><polygon fill="#000000" points="1079.4539,399.0789,1081.6526,389.826,1075.7939,390.3008,1079.4539,399.0789" style="stroke:#000000;stroke-width:1;"/><text fill="#000000" font-family="sans-serif" font-size="13" lengthAdjust="spacing" textLength="68.3896" x="1088.05" y="399.0084">involved in</text><text fill="#000000" font-family="sans-serif" font-size="13" lengthAdjust="spacing" textLength="22.7119" x="1046.6197" y="359.456">0..*</text></g><!--reverse link Affiliation_Statement to Involvement--><g class="link" data-entity-1="Affiliation_Statement" data-entity-2="Involvement" data-source-line="822" data-uid="lnk31" id="link_Affiliation_Statement_Involvement"><path codeLine="822" d="M547.7736,247.2219 C642.6236,217.9719 764.9,193.86 877.05,217.73 C920.85,227.06 966.8,247.23 1002.53,265.55" fill="none" id="Affiliation_Statement-backto-Involvement" style="stroke:#181818;stroke-width:1;"/><polygon fill="#181818" points="542.04,248.99,551.8191,250.1602,546.818,247.5166,549.4616,242.5154,542.04,248.99" style="stroke:#181818;stroke-width:1;"/><polygon fill="#000000" points="733.0541,210.9439,741.9735,214.2447,742.2102,208.3716,733.0541,210.9439" style="stroke:#000000;stroke-width:1;"/><text fill="#000000" font-family="sans-serif" font-size="13" lengthAdjust="spacing" textLength="129.9175" x="747.05" y="216.0584">is the foundation for</text><text fill="#000000" font-family="sans-serif" font-size="13" lengthAdjust="spacing" textLength="22.7119" x="536.6131" y="238.7656">0..*</text><text fill="#000000" font-family="sans-serif" font-size="13" lengthAdjust="spacing" textLength="22.7119" x="967.1422" y="255.234">0..*</text></g><!--link Involvement to Involvement--><g class="link" data-entity-1="Involvement" data-entity-2="Involvement" data-source-line="826" data-uid="lnk32" id="link_Involvement_Involvement"><path codeLine="826" d="M1181.52,294.39 C1201.96,295.44 1216.24,298.13 1216.24,302.46 C1216.24,306.8 1207.9521,309.1822 1187.5121,310.2322" fill="none" id="Involvement-to-Involvement" style="stroke:#181818;stroke-width:1;"/><polygon fill="#181818" points="1181.52,310.54,1190.7134,314.073,1186.5134,310.2835,1190.3029,306.0835,1181.52,310.54" style="stroke:#181818;stroke-width:1;"/><polygon fill="#000000" points="1221.4965,307.6087,1223.9675,298.4247,1218.0974,298.7263,1221.4965,307.6087" style="stroke:#000000;stroke-width:1;"/><text fill="#000000" font-family="sans-serif" font-size="13" lengthAdjust="spacing" textLength="25.543" x="1235.24" y="307.5284">part</text><text fill="#000000" font-family="sans-serif" font-size="13" lengthAdjust="spacing" textLength="22.7119" x="1189.1878" y="306.9326">0..*</text><text fill="#000000" font-family="sans-serif" font-size="13" lengthAdjust="spacing" textLength="24.667" x="1189.2473" y="324.0667">0..1</text></g><!--link Involvement to Involvement--><g class="link" data-entity-1="Involvement" data-entity-2="Involvement" data-source-line="830" data-uid="lnk33" id="link_Involvement_Involvement"><path codeLine="830" d="M1181.69,285.38 C1227.35,284.62 1266.24,290.32 1266.24,302.46 C1266.24,314.61 1233.3492,320.4099 1187.6892,319.6499" fill="none" id="Involvement-to-Involvement-1" style="stroke:#181818;stroke-width:1;"/><polygon fill="#181818" points="1181.69,319.55,1190.6222,323.6992,1186.6893,319.6332,1190.7553,315.7003,1181.69,319.55" style="stroke:#181818;stroke-width:1;"/><polygon fill="#000000" points="1271.1568,307.6146,1274.2458,298.6197,1268.3688,298.5218,1271.1568,307.6146" style="stroke:#000000;stroke-width:1;"/><text fill="#000000" font-family="sans-serif" font-size="13" lengthAdjust="spacing" textLength="88.061" x="1285.24" y="307.5284">part transitive</text><text fill="#000000" font-family="sans-serif" font-size="13" lengthAdjust="spacing" textLength="22.7119" x="1189.3681" y="281.4595">0..*</text><text fill="#000000" font-family="sans-serif" font-size="13" lengthAdjust="spacing" textLength="22.7119" x="1189.3681" y="333.6258">0..*</text></g><!--reverse link Activity to Affiliation_Statement--><g class="link" data-entity-1="Activity" data-entity-2="Affiliation_Statement" data-source-line="644" data-uid="lnk34" id="link_Activity_Affiliation_Statement"><path codeLine="644" d="M689.5773,153.7851 C634.0073,160.9051 574.06,173.71 516.05,202.49 C492.45,214.19 469.81,231.96 451.01,249.23" fill="none" id="Activity-backto-Affiliation_Statement" style="stroke:#181818;stroke-width:1;"/><polygon fill="none" points="701.48,152.26,695.0203,149.055,689.5773,153.7851,696.037,156.9901,701.48,152.26" style="stroke:#181818;stroke-width:1;"/><polygon fill="#000000" points="516.4077,213.0025,525.8973,212.3714,523.714,206.9141,516.4077,213.0025" style="stroke:#000000;stroke-width:1;"/><text fill="#000000" font-family="sans-serif" font-size="13" lengthAdjust="spacing" textLength="133.688" x="530.05" y="216.0584">affiliation statements</text><text fill="#000000" font-family="sans-serif" font-size="13" lengthAdjust="spacing" textLength="22.7119" x="670.9544" y="149.886">0..*</text><text fill="#000000" font-family="sans-serif" font-size="13" lengthAdjust="spacing" textLength="22.7119" x="434.1594" y="238.6577">0..*</text></g><!--link Affiliation_Statement to Organisation_Unit--><g class="link" data-entity-1="Affiliation_Statement" data-entity-2="Organisation_Unit" data-source-line="645" data-uid="lnk35" id="link_Affiliation_Statement_Organisation_Unit"><path codeLine="645" d="M259.57,310.3 C175.21,322.85 75.6,354.61 27.05,432.44 C6,466.18 11.47,485.32 27.05,521.91 C46.56,567.73 88.6952,600.9958 118.3352,620.4658" fill="none" id="Affiliation_Statement-to-Organisation_Unit" style="stroke:#181818;stroke-width:1;"/><polygon fill="#181818" points="123.35,623.76,118.0239,615.4755,119.171,621.0149,113.6316,622.162,123.35,623.76" style="stroke:#181818;stroke-width:1;"/><polygon fill="#000000" points="29.9779,481.8757,36.401,474.8618,31.0516,472.426,29.9779,481.8757" style="stroke:#000000;stroke-width:1;"/><text fill="#000000" font-family="sans-serif" font-size="13" lengthAdjust="spacing" textLength="64.6763" x="41.05" y="482.2384">institution</text><text fill="#000000" font-family="sans-serif" font-size="13" lengthAdjust="spacing" textLength="22.7119" x="228.7178" y="307.8966">0..*</text><text fill="#000000" font-family="sans-serif" font-size="13" lengthAdjust="spacing" textLength="8.2202" x="105.5497" y="613.453">1</text></g><!--link Affiliation_Statement to Organisation_Unit--><g class="link" data-entity-1="Affiliation_Statement" data-entity-2="Organisation_Unit" data-source-line="646" data-uid="lnk36" id="link_Affiliation_Statement_Organisation_Unit"><path codeLine="646" d="M259.24,353.37 C223.58,372.62 189.22,398.43 167.05,432.44 C127.19,493.56 138.0448,581.449 144.7648,617.989" fill="none" id="Affiliation_Statement-to-Organisation_Unit-1" style="stroke:#181818;stroke-width:1;"/><polygon fill="#181818" points="145.85,623.89,148.1562,614.3149,144.9456,618.9725,140.2881,615.7619,145.85,623.89" style="stroke:#181818;stroke-width:1;"/><polygon fill="#000000" points="170.0648,481.9143,176.3534,474.7796,170.9587,472.4458,170.0648,481.9143" style="stroke:#000000;stroke-width:1;"/><text fill="#000000" font-family="sans-serif" font-size="13" lengthAdjust="spacing" textLength="107.7642" x="181.05" y="482.2384">organisation unit</text><text fill="#000000" font-family="sans-serif" font-size="13" lengthAdjust="spacing" textLength="22.7119" x="228.8483" y="353.3205">0..*</text><text fill="#000000" font-family="sans-serif" font-size="13" lengthAdjust="spacing" textLength="24.667" x="148.991" y="613.3305">0..1</text></g><!--link Affiliation_Statement to Person--><g class="link" data-entity-1="Affiliation_Statement" data-entity-2="Person" data-source-line="647" data-uid="lnk37" id="link_Affiliation_Statement_Person"><path codeLine="647" d="M414.46,355.75 C420.94,383.05 427.324,409.9323 433.124,434.3623" fill="none" id="Affiliation_Statement-to-Person" style="stroke:#181818;stroke-width:1;"/><polygon fill="#181818" points="434.51,440.2,436.3229,430.5194,433.355,435.3352,428.5392,432.3674,434.51,440.2" style="stroke:#181818;stroke-width:1;"/><polygon fill="#000000" points="431.205,398.96,431.975,389.4807,426.2562,390.8385,431.205,398.96" style="stroke:#000000;stroke-width:1;"/><text fill="#000000" font-family="sans-serif" font-size="13" lengthAdjust="spacing" textLength="43.4243" x="439.05" y="399.0084">person</text><text fill="#000000" font-family="sans-serif" font-size="13" lengthAdjust="spacing" textLength="22.7119" x="392.6869" y="376.1261">0..*</text><text fill="#000000" font-family="sans-serif" font-size="13" lengthAdjust="spacing" textLength="24.667" x="406.911" y="429.8733">0..1</text></g><!--SRC=[bT312i8m383Xkq-HlO3lu4ayY89uBbtDPg1DHfeMzlOAEvlXELz-GW001kAKsmjh6o69ud5f9Gz9IX4-m4zmcf7DcoUZJhOwv8fbHArlMXnq_mhtaBDAym8tdIDJZKR2uSbaUwqW6lvPkd2NtB7i_6EQADCMV5YqpNy0]--></g></svg>