<?xml version="1.0" encoding="UTF-8" standalone="no"?><svg xmlns="http://www.w3.org/2000/svg" xmlns:xlink="http://www.w3.org/1999/xlink" contentScriptType="application/ecmascript" contentStyleType="text/css" height="706px" preserveAspectRatio="none" style="width:960px;height:706px;background:#FFFFFF;" version="1.1" viewBox="0 0 960 706" width="960px" zoomAndPan="magnify"><defs><filter height="300%" id="famojnf6lttvj" width="300%" x="-1" y="-1"><feGaussianBlur result="blurOut" stdDeviation="2.0"/><feColorMatrix in="blurOut" result="blurOut2" type="matrix" values="0 0 0 0 0 0 0 0 0 0 0 0 0 0 0 0 0 0 .4 0"/><feOffset dx="4.0" dy="4.0" in="blurOut2" result="blurOut3"/><feBlend in="SourceGraphic" in2="blurOut3" mode="normal"/></filter></defs><g><!--MD5=[9d44916250b776386006c440668bcfbb]
class Agent--><rect codeLine="10" fill="#FFFFFF" filter="url(#famojnf6lttvj)" height="52.8047" id="Agent" style="stroke:#A80036;stroke-width:1.5;" width="133" x="751.5" y="258.5"/><ellipse cx="795.3" cy="274.5" fill="#ADD1B2" rx="11" ry="11" style="stroke:#A80036;stroke-width:1.0;"/><path d="M798.2688,280.1406 Q797.6906,280.4375 797.05,280.5781 Q796.4094,280.7344 795.7063,280.7344 Q793.2063,280.7344 791.8781,279.0938 Q790.5656,277.4375 790.5656,274.3125 Q790.5656,271.1875 791.8781,269.5313 Q793.2063,267.875 795.7063,267.875 Q796.4094,267.875 797.05,268.0313 Q797.7063,268.1875 798.2688,268.4844 L798.2688,271.2031 Q797.6438,270.625 797.05,270.3594 Q796.4563,270.0781 795.8313,270.0781 Q794.4875,270.0781 793.8,271.1563 Q793.1125,272.2188 793.1125,274.3125 Q793.1125,276.4063 793.8,277.4844 Q794.4875,278.5469 795.8313,278.5469 Q796.4563,278.5469 797.05,278.2813 Q797.6438,278 798.2688,277.4219 L798.2688,280.1406 Z " fill="#000000"/><text fill="#000000" font-family="sans-serif" font-size="12" lengthAdjust="spacing" textLength="37" x="815.7" y="278.6543">Agent</text><line style="stroke:#A80036;stroke-width:1.5;" x1="752.5" x2="883.5" y1="290.5" y2="290.5"/><text fill="#000000" font-family="sans-serif" font-size="11" lengthAdjust="spacing" textLength="121" x="757.5" y="304.7104">lifetime : Date_Range</text><!--MD5=[c881b25adf3665c6568c9693d41a70f3]
class Activity--><rect codeLine="132" fill="#FFFFFF" filter="url(#famojnf6lttvj)" height="52.8047" id="Activity" style="stroke:#A80036;stroke-width:1.5;" width="151" x="386.5" y="116"/><ellipse cx="436.25" cy="132" fill="#ADD1B2" rx="11" ry="11" style="stroke:#A80036;stroke-width:1.0;"/><path d="M439.2188,137.6406 Q438.6406,137.9375 438,138.0781 Q437.3594,138.2344 436.6563,138.2344 Q434.1563,138.2344 432.8281,136.5938 Q431.5156,134.9375 431.5156,131.8125 Q431.5156,128.6875 432.8281,127.0313 Q434.1563,125.375 436.6563,125.375 Q437.3594,125.375 438,125.5313 Q438.6563,125.6875 439.2188,125.9844 L439.2188,128.7031 Q438.5938,128.125 438,127.8594 Q437.4063,127.5781 436.7813,127.5781 Q435.4375,127.5781 434.75,128.6563 Q434.0625,129.7188 434.0625,131.8125 Q434.0625,133.9063 434.75,134.9844 Q435.4375,136.0469 436.7813,136.0469 Q437.4063,136.0469 438,135.7813 Q438.5938,135.5 439.2188,134.9219 L439.2188,137.6406 Z " fill="#000000"/><text fill="#000000" font-family="sans-serif" font-size="12" lengthAdjust="spacing" textLength="43" x="456.75" y="136.1543">Activity</text><line style="stroke:#A80036;stroke-width:1.5;" x1="387.5" x2="536.5" y1="148" y2="148"/><text fill="#000000" font-family="sans-serif" font-size="11" lengthAdjust="spacing" textLength="139" x="392.5" y="162.2104">dateRange : Date_Range</text><!--MD5=[59b530d44ae785dc18db921986a9c15c]
class Document--><rect fill="#FEFECE" filter="url(#famojnf6lttvj)" height="32" id="Document" style="stroke:#A80036;stroke-width:1.5;" width="96" x="414" y="7"/><ellipse cx="429" cy="23" fill="#ADD1B2" rx="11" ry="11" style="stroke:#A80036;stroke-width:1.0;"/><path d="M431.9688,28.6406 Q431.3906,28.9375 430.75,29.0781 Q430.1094,29.2344 429.4063,29.2344 Q426.9063,29.2344 425.5781,27.5938 Q424.2656,25.9375 424.2656,22.8125 Q424.2656,19.6875 425.5781,18.0313 Q426.9063,16.375 429.4063,16.375 Q430.1094,16.375 430.75,16.5313 Q431.4063,16.6875 431.9688,16.9844 L431.9688,19.7031 Q431.3438,19.125 430.75,18.8594 Q430.1563,18.5781 429.5313,18.5781 Q428.1875,18.5781 427.5,19.6563 Q426.8125,20.7188 426.8125,22.8125 Q426.8125,24.9063 427.5,25.9844 Q428.1875,27.0469 429.5313,27.0469 Q430.1563,27.0469 430.75,26.7813 Q431.3438,26.5 431.9688,25.9219 L431.9688,28.6406 Z " fill="#000000"/><text fill="#000000" font-family="sans-serif" font-size="12" lengthAdjust="spacing" textLength="64" x="443" y="27.1543">Document</text><!--MD5=[77463bb17ddcfe3891c27a1f4a877731]
class Membership--><rect codeLine="165" fill="#FFFFFF" filter="url(#famojnf6lttvj)" height="32" id="Membership" style="stroke:#A80036;stroke-width:1.5;" width="108" x="352" y="411.5"/><ellipse cx="367" cy="427.5" fill="#ADD1B2" rx="11" ry="11" style="stroke:#A80036;stroke-width:1.0;"/><path d="M369.9688,433.1406 Q369.3906,433.4375 368.75,433.5781 Q368.1094,433.7344 367.4063,433.7344 Q364.9063,433.7344 363.5781,432.0938 Q362.2656,430.4375 362.2656,427.3125 Q362.2656,424.1875 363.5781,422.5313 Q364.9063,420.875 367.4063,420.875 Q368.1094,420.875 368.75,421.0313 Q369.4063,421.1875 369.9688,421.4844 L369.9688,424.2031 Q369.3438,423.625 368.75,423.3594 Q368.1563,423.0781 367.5313,423.0781 Q366.1875,423.0781 365.5,424.1563 Q364.8125,425.2188 364.8125,427.3125 Q364.8125,429.4063 365.5,430.4844 Q366.1875,431.5469 367.5313,431.5469 Q368.1563,431.5469 368.75,431.2813 Q369.3438,431 369.9688,430.4219 L369.9688,433.1406 Z " fill="#000000"/><text fill="#000000" font-family="sans-serif" font-size="12" lengthAdjust="spacing" textLength="76" x="381" y="431.6543">Membership</text><!--MD5=[6a029e66987f6edc98a50822cc78695f]
class Involvement--><rect codeLine="138" fill="#FFFFFF" filter="url(#famojnf6lttvj)" height="32" id="Involvement" style="stroke:#A80036;stroke-width:1.5;" width="106" x="409" y="269"/><ellipse cx="424" cy="285" fill="#ADD1B2" rx="11" ry="11" style="stroke:#A80036;stroke-width:1.0;"/><path d="M426.9688,290.6406 Q426.3906,290.9375 425.75,291.0781 Q425.1094,291.2344 424.4063,291.2344 Q421.9063,291.2344 420.5781,289.5938 Q419.2656,287.9375 419.2656,284.8125 Q419.2656,281.6875 420.5781,280.0313 Q421.9063,278.375 424.4063,278.375 Q425.1094,278.375 425.75,278.5313 Q426.4063,278.6875 426.9688,278.9844 L426.9688,281.7031 Q426.3438,281.125 425.75,280.8594 Q425.1563,280.5781 424.5313,280.5781 Q423.1875,280.5781 422.5,281.6563 Q421.8125,282.7188 421.8125,284.8125 Q421.8125,286.9063 422.5,287.9844 Q423.1875,289.0469 424.5313,289.0469 Q425.1563,289.0469 425.75,288.7813 Q426.3438,288.5 426.9688,287.9219 L426.9688,290.6406 Z " fill="#000000"/><text fill="#000000" font-family="sans-serif" font-size="12" lengthAdjust="spacing" textLength="74" x="438" y="289.1543">Involvement</text><!--MD5=[09ce52be0ee7de43c61b6e2d59bf108b]
class Person--><rect codeLine="16" fill="#FFFFFF" filter="url(#famojnf6lttvj)" height="52.8047" id="Person" style="stroke:#A80036;stroke-width:1.5;" width="135" x="773.5" y="401"/><ellipse cx="815.05" cy="417" fill="#ADD1B2" rx="11" ry="11" style="stroke:#A80036;stroke-width:1.0;"/><path d="M818.0188,422.6406 Q817.4406,422.9375 816.8,423.0781 Q816.1594,423.2344 815.4563,423.2344 Q812.9563,423.2344 811.6281,421.5938 Q810.3156,419.9375 810.3156,416.8125 Q810.3156,413.6875 811.6281,412.0313 Q812.9563,410.375 815.4563,410.375 Q816.1594,410.375 816.8,410.5313 Q817.4563,410.6875 818.0188,410.9844 L818.0188,413.7031 Q817.3938,413.125 816.8,412.8594 Q816.2063,412.5781 815.5813,412.5781 Q814.2375,412.5781 813.55,413.6563 Q812.8625,414.7188 812.8625,416.8125 Q812.8625,418.9063 813.55,419.9844 Q814.2375,421.0469 815.5813,421.0469 Q816.2063,421.0469 816.8,420.7813 Q817.3938,420.5 818.0188,419.9219 L818.0188,422.6406 Z " fill="#000000"/><text fill="#000000" font-family="sans-serif" font-size="12" lengthAdjust="spacing" textLength="44" x="834.95" y="421.1543">Person</text><line style="stroke:#A80036;stroke-width:1.5;" x1="774.5" x2="907.5" y1="433" y2="433"/><text fill="#000000" font-family="sans-serif" font-size="11" lengthAdjust="spacing" textLength="123" x="779.5" y="447.2104">name : Person_Name</text><!--MD5=[7b209ef07eb91b93e0aebc9fe4fb9a26]
class Person_Name--><rect codeLine="75" fill="#FFFFFF" filter="url(#famojnf6lttvj)" height="84.3516" id="Person_Name" style="stroke:#A80036;stroke-width:1.5;" width="201" x="745.5" y="515"/><ellipse cx="798.75" cy="533.9688" fill="#ADD0B2" rx="11" ry="11" style="stroke:#A80036;stroke-width:1.0;"/><path d="M798.3438,529.7813 L798.3438,537.7656 L799,537.7656 Q800.4375,537.7656 801.0469,536.8594 Q801.6719,535.9375 801.6719,533.7656 Q801.6719,531.5938 801.0469,530.6875 Q800.4375,529.7813 799,529.7813 L798.3438,529.7813 Z M795.8906,527.5781 L798.5156,527.5781 Q801.5469,527.5781 802.875,529.0313 Q804.2188,530.4688 804.2188,533.7656 Q804.2188,537.0625 802.875,538.5156 Q801.5469,539.9688 798.5156,539.9688 L795.8906,539.9688 L795.8906,527.5781 Z " fill="#000000"/><text fill="#000000" font-family="sans-serif" font-size="12" font-style="italic" lengthAdjust="spacing" textLength="74" x="825.25" y="531.1387">«DataType»</text><text fill="#000000" font-family="sans-serif" font-size="12" lengthAdjust="spacing" textLength="86" x="819.25" y="545.1074">Person_Name</text><line style="stroke:#A80036;stroke-width:1.5;" x1="746.5" x2="945.5" y1="552.9375" y2="552.9375"/><text fill="#000000" font-family="sans-serif" font-size="11" lengthAdjust="spacing" textLength="178" x="751.5" y="567.1479">firstNames : Multilingual_String</text><text fill="#000000" font-family="sans-serif" font-size="11" lengthAdjust="spacing" textLength="189" x="751.5" y="579.9526">familyNames : Multilingual_String</text><text fill="#000000" font-family="sans-serif" font-size="11" lengthAdjust="spacing" textLength="185" x="751.5" y="592.7573">otherNames : Multilingual_String</text><!--MD5=[41314a0efc36828092cff9ebad2fcafd]
class Group--><rect codeLine="96" fill="#FFFFFF" filter="url(#famojnf6lttvj)" height="32" id="Group" style="stroke:#A80036;stroke-width:1.5;" width="70" x="381" y="541"/><ellipse cx="396" cy="557" fill="#ADD1B2" rx="11" ry="11" style="stroke:#A80036;stroke-width:1.0;"/><path d="M398.9688,562.6406 Q398.3906,562.9375 397.75,563.0781 Q397.1094,563.2344 396.4063,563.2344 Q393.9063,563.2344 392.5781,561.5938 Q391.2656,559.9375 391.2656,556.8125 Q391.2656,553.6875 392.5781,552.0313 Q393.9063,550.375 396.4063,550.375 Q397.1094,550.375 397.75,550.5313 Q398.4063,550.6875 398.9688,550.9844 L398.9688,553.7031 Q398.3438,553.125 397.75,552.8594 Q397.1563,552.5781 396.5313,552.5781 Q395.1875,552.5781 394.5,553.6563 Q393.8125,554.7188 393.8125,556.8125 Q393.8125,558.9063 394.5,559.9844 Q395.1875,561.0469 396.5313,561.0469 Q397.1563,561.0469 397.75,560.7813 Q398.3438,560.5 398.9688,559.9219 L398.9688,562.6406 Z " fill="#000000"/><text fill="#000000" font-family="sans-serif" font-size="12" lengthAdjust="spacing" textLength="38" x="410" y="561.1543">Group</text><!--MD5=[affb11a45f8309443fb20b6133e8d181]
class Group_or_Organisation_Unit--><rect codeLine="87" fill="#FFFFFF" filter="url(#famojnf6lttvj)" height="32" id="Group_or_Organisation_Unit" style="stroke:#A80036;stroke-width:1.5;" width="206" x="495" y="411.5"/><ellipse cx="510" cy="427.5" fill="#ADD1B2" rx="11" ry="11" style="stroke:#A80036;stroke-width:1.0;"/><path d="M512.9688,433.1406 Q512.3906,433.4375 511.75,433.5781 Q511.1094,433.7344 510.4063,433.7344 Q507.9063,433.7344 506.5781,432.0938 Q505.2656,430.4375 505.2656,427.3125 Q505.2656,424.1875 506.5781,422.5313 Q507.9063,420.875 510.4063,420.875 Q511.1094,420.875 511.75,421.0313 Q512.4063,421.1875 512.9688,421.4844 L512.9688,424.2031 Q512.3438,423.625 511.75,423.3594 Q511.1563,423.0781 510.5313,423.0781 Q509.1875,423.0781 508.5,424.1563 Q507.8125,425.2188 507.8125,427.3125 Q507.8125,429.4063 508.5,430.4844 Q509.1875,431.5469 510.5313,431.5469 Q511.1563,431.5469 511.75,431.2813 Q512.3438,431 512.9688,430.4219 L512.9688,433.1406 Z " fill="#000000"/><text fill="#000000" font-family="sans-serif" font-size="12" lengthAdjust="spacing" textLength="174" x="524" y="431.6543">Group_or_Organisation_Unit</text><!--MD5=[779f3743e425ed8a6f0bf188ddea4860]
class Organisation_Unit--><rect codeLine="105" fill="#FFFFFF" filter="url(#famojnf6lttvj)" height="78.4141" id="Organisation_Unit" style="stroke:#A80036;stroke-width:1.5;" width="224" x="486" y="518"/><ellipse cx="538.25" cy="534" fill="#ADD1B2" rx="11" ry="11" style="stroke:#A80036;stroke-width:1.0;"/><path d="M541.2188,539.6406 Q540.6406,539.9375 540,540.0781 Q539.3594,540.2344 538.6563,540.2344 Q536.1563,540.2344 534.8281,538.5938 Q533.5156,536.9375 533.5156,533.8125 Q533.5156,530.6875 534.8281,529.0313 Q536.1563,527.375 538.6563,527.375 Q539.3594,527.375 540,527.5313 Q540.6563,527.6875 541.2188,527.9844 L541.2188,530.7031 Q540.5938,530.125 540,529.8594 Q539.4063,529.5781 538.7813,529.5781 Q537.4375,529.5781 536.75,530.6563 Q536.0625,531.7188 536.0625,533.8125 Q536.0625,535.9063 536.75,536.9844 Q537.4375,538.0469 538.7813,538.0469 Q539.4063,538.0469 540,537.7813 Q540.5938,537.5 541.2188,536.9219 L541.2188,539.6406 Z " fill="#000000"/><text fill="#000000" font-family="sans-serif" font-size="12" lengthAdjust="spacing" textLength="111" x="558.75" y="538.1543">Organisation_Unit</text><line style="stroke:#A80036;stroke-width:1.5;" x1="487" x2="709" y1="550" y2="550"/><text fill="#000000" font-family="sans-serif" font-size="11" lengthAdjust="spacing" textLength="147" x="492" y="564.2104">name : Multilingual_String</text><text fill="#000000" font-family="sans-serif" font-size="11" lengthAdjust="spacing" textLength="95" x="492" y="577.0151">acronym : String</text><text fill="#000000" font-family="sans-serif" font-size="11" lengthAdjust="spacing" textLength="212" x="492" y="589.8198">contacts : List&lt;Contact_Information&gt;</text><!--MD5=[dae000cba6c379e3053478bba72a741c]
class Organisation_Unit_with_Members--><rect codeLine="117" fill="#FFFFFF" filter="url(#famojnf6lttvj)" height="32" id="Organisation_Unit_with_Members" style="stroke:#A80036;stroke-width:1.5;" width="237" x="387.5" y="660"/><ellipse cx="402.5" cy="676" fill="#ADD1B2" rx="11" ry="11" style="stroke:#A80036;stroke-width:1.0;"/><path d="M405.4688,681.6406 Q404.8906,681.9375 404.25,682.0781 Q403.6094,682.2344 402.9063,682.2344 Q400.4063,682.2344 399.0781,680.5938 Q397.7656,678.9375 397.7656,675.8125 Q397.7656,672.6875 399.0781,671.0313 Q400.4063,669.375 402.9063,669.375 Q403.6094,669.375 404.25,669.5313 Q404.9063,669.6875 405.4688,669.9844 L405.4688,672.7031 Q404.8438,672.125 404.25,671.8594 Q403.6563,671.5781 403.0313,671.5781 Q401.6875,671.5781 401,672.6563 Q400.3125,673.7188 400.3125,675.8125 Q400.3125,677.9063 401,678.9844 Q401.6875,680.0469 403.0313,680.0469 Q403.6563,680.0469 404.25,679.7813 Q404.8438,679.5 405.4688,678.9219 L405.4688,681.6406 Z " fill="#000000"/><text fill="#000000" font-family="sans-serif" font-size="12" lengthAdjust="spacing" textLength="205" x="416.5" y="680.1543">Organisation_Unit_with_Members</text><!--MD5=[ddbff00b4911ad4b77d6aa32dd14d1d7]
class Affiliation_Statement--><rect codeLine="353" fill="#FFFFFF" filter="url(#famojnf6lttvj)" height="78.4141" id="Affiliation_Statement" style="stroke:#A80036;stroke-width:1.5;" width="224" x="7" y="246"/><ellipse cx="50.35" cy="262" fill="#ADD1B2" rx="11" ry="11" style="stroke:#A80036;stroke-width:1.0;"/><path d="M53.3188,267.6406 Q52.7406,267.9375 52.1,268.0781 Q51.4594,268.2344 50.7563,268.2344 Q48.2563,268.2344 46.9281,266.5938 Q45.6156,264.9375 45.6156,261.8125 Q45.6156,258.6875 46.9281,257.0313 Q48.2563,255.375 50.7563,255.375 Q51.4594,255.375 52.1,255.5313 Q52.7563,255.6875 53.3188,255.9844 L53.3188,258.7031 Q52.6938,258.125 52.1,257.8594 Q51.5063,257.5781 50.8813,257.5781 Q49.5375,257.5781 48.85,258.6563 Q48.1625,259.7188 48.1625,261.8125 Q48.1625,263.9063 48.85,264.9844 Q49.5375,266.0469 50.8813,266.0469 Q51.5063,266.0469 52.1,265.7813 Q52.6938,265.5 53.3188,264.9219 L53.3188,267.6406 Z " fill="#000000"/><text fill="#000000" font-family="sans-serif" font-size="12" lengthAdjust="spacing" textLength="129" x="70.65" y="266.1543">Affiliation_Statement</text><line style="stroke:#A80036;stroke-width:1.5;" x1="8" x2="230" y1="278" y2="278"/><text fill="#000000" font-family="sans-serif" font-size="11" lengthAdjust="spacing" textLength="203" x="13" y="292.2104">displayAffiliation_Statement : String</text><text fill="#000000" font-family="sans-serif" font-size="11" lengthAdjust="spacing" textLength="159" x="13" y="305.0151">displayPersonName : String</text><text fill="#000000" font-family="sans-serif" font-size="11" lengthAdjust="spacing" textLength="212" x="13" y="317.8198">contacts : List&lt;Contact_Information&gt;</text><!--MD5=[ff9dfe2dddb5fe4a69020d7834f0d207]
link Document to Activity--><path codeLine="210" d="M462,39.36 C462,58.77 462,92.45 462,115.8 " fill="none" id="Document-Activity" style="stroke:#A80036;stroke-width:1.0;"/><polygon fill="#000000" points="467,82.5664,469.9389,73.5213,464.0611,73.5213,467,82.5664" style="stroke:#000000;stroke-width:1.0;"/><text fill="#000000" font-family="sans-serif" font-size="13" lengthAdjust="spacing" textLength="36" x="476" y="82.0669">prove</text><text fill="#000000" font-family="sans-serif" font-size="13" lengthAdjust="spacing" textLength="23" x="435.3344" y="59.0534">0..*</text><text fill="#000000" font-family="sans-serif" font-size="13" lengthAdjust="spacing" textLength="23" x="436.3406" y="104.9961">0..*</text><!--MD5=[cd935cc757d29bd6a59b1252b30899e0]
link Activity to Agent--><path codeLine="216" d="M533.51,169.02 C588.65,189.04 666.63,218.1 734,246 C741.72,249.19 749.77,252.67 757.72,256.17 " fill="none" id="Activity-to-Agent" style="stroke:#A80036;stroke-width:1.0;"/><polygon fill="#A80036" points="762.64,258.35,756.036,251.0433,758.0698,256.322,752.7911,258.3557,762.64,258.35" style="stroke:#A80036;stroke-width:1.0;"/><polygon fill="#000000" points="661.6603,209.3779,654.2945,203.3616,652.165,208.8402,661.6603,209.3779" style="stroke:#000000;stroke-width:1.0;"/><text fill="#000000" font-family="sans-serif" font-size="13" lengthAdjust="spacing" textLength="33" x="666" y="212.0669">actor</text><text fill="#000000" font-family="sans-serif" font-size="13" lengthAdjust="spacing" textLength="23" x="524.3873" y="188.992">0..*</text><text fill="#000000" font-family="sans-serif" font-size="13" lengthAdjust="spacing" textLength="24" x="723.063" y="247.5576">0..1</text><!--MD5=[774ab914c44fde287bade86ae1a1d531]
reverse link Involvement to Membership--><path codeLine="170" d="M444.19,318.82 C438.6,329.82 432.67,342.27 428,354 C420.31,373.31 413.73,396.4 409.82,411.25 " fill="none" id="Involvement-backto-Membership" style="stroke:#A80036;stroke-width:1.0;"/><polygon fill="none" points="438.03,315.49,453.55,301.05,450.42,322.01,438.03,315.49" style="stroke:#A80036;stroke-width:1.0;"/><!--MD5=[de96f77e660762cb21a195b4097c3876]
reverse link Agent to Person--><path codeLine="71" d="M825.49,331.77 C829.25,354.71 833.65,381.63 836.81,400.89 " fill="none" id="Agent-backto-Person" style="stroke:#A80036;stroke-width:1.0;"/><polygon fill="none" points="818.54,332.64,822.22,311.77,832.36,330.38,818.54,332.64" style="stroke:#A80036;stroke-width:1.0;"/><!--MD5=[5d8901ce694eb85aefa78b7d82d9f6f6]
link Person to Person_Name--><path codeLine="83" d="M842.01,454.3 C842.64,470.2 843.45,491.04 844.19,509.72 " fill="none" id="Person-to-Person_Name" style="stroke:#A80036;stroke-width:1.0;stroke-dasharray:7.0,7.0;"/><polygon fill="#A80036" points="844.39,514.93,848.0271,505.7773,844.1902,509.934,840.0335,506.0971,844.39,514.93" style="stroke:#A80036;stroke-width:1.0;"/><text fill="#000000" font-family="sans-serif" font-size="13" lengthAdjust="spacing" textLength="37" x="804.185" y="504.0792">name</text><!--MD5=[ef849346ed6a9c6429a3acad43755067]
reverse link Group_or_Organisation_Unit to Group--><path codeLine="101" d="M557.27,454.4 C531.35,471.17 497.28,493.77 468,515 C456.65,523.23 444.3,532.93 434.49,540.83 " fill="none" id="Group_or_Organisation_Unit-backto-Group" style="stroke:#A80036;stroke-width:1.0;"/><polygon fill="none" points="553.52,448.49,574.13,443.57,561.08,460.27,553.52,448.49" style="stroke:#A80036;stroke-width:1.0;"/><!--MD5=[46aa33658a7939f97c192b82d622be7c]
reverse link Group_or_Organisation_Unit to Organisation_Unit--><path codeLine="113" d="M598,463.63 C598,480.51 598,500.76 598,517.99 " fill="none" id="Group_or_Organisation_Unit-backto-Organisation_Unit" style="stroke:#A80036;stroke-width:1.0;"/><polygon fill="none" points="591,463.63,598,443.63,605,463.63,591,463.63" style="stroke:#A80036;stroke-width:1.0;"/><!--MD5=[854899a0b21de2cb3f4d3222738c1bb3]
reverse link Group to Organisation_Unit_with_Members--><path codeLine="122" d="M440.11,589.34 C457.62,612.11 480.55,641.92 494.23,659.7 " fill="none" id="Group-backto-Organisation_Unit_with_Members" style="stroke:#A80036;stroke-width:1.0;"/><polygon fill="none" points="434.41,593.42,427.77,573.3,445.51,584.88,434.41,593.42" style="stroke:#A80036;stroke-width:1.0;"/><!--MD5=[adeab3cf6be56cae862ee063039c31ec]
reverse link Organisation_Unit to Organisation_Unit_with_Members--><path codeLine="126" d="M555.46,612.1 C541.65,629.66 527.43,647.75 517.8,659.99 " fill="none" id="Organisation_Unit-backto-Organisation_Unit_with_Members" style="stroke:#A80036;stroke-width:1.0;"/><polygon fill="none" points="550.01,607.71,567.88,596.31,561.02,616.36,550.01,607.71" style="stroke:#A80036;stroke-width:1.0;"/><!--MD5=[8baa0633a34be8ca6adcc4fd46743d97]
reverse link Agent to Group_or_Organisation_Unit--><path codeLine="92" d="M760.79,322.53 C715.5,351.46 654.54,390.39 621.56,411.45 " fill="none" id="Agent-backto-Group_or_Organisation_Unit" style="stroke:#A80036;stroke-width:1.0;"/><polygon fill="none" points="757.28,316.47,777.9,311.61,764.82,328.27,757.28,316.47" style="stroke:#A80036;stroke-width:1.0;"/><!--MD5=[5310b7429ef001befd0a176a00932538]
reverse link Activity to Involvement--><path codeLine="143" d="M462,189.66 C462,217.04 462,249.97 462,268.8 " fill="none" id="Activity-backto-Involvement" style="stroke:#A80036;stroke-width:1.0;"/><polygon fill="none" points="455,189.27,462,169.27,469,189.27,455,189.27" style="stroke:#A80036;stroke-width:1.0;"/><!--MD5=[3e6df519c6409dff9ecce5f5942987dd]
link Involvement to Group_or_Organisation_Unit--><path codeLine="220" d="M476.55,301.04 C501.47,326.78 552.27,379.25 579.6,407.49 " fill="none" id="Involvement-to-Group_or_Organisation_Unit" style="stroke:#A80036;stroke-width:1.0;"/><polygon fill="#A80036" points="583.14,411.15,579.7722,401.8949,579.6693,407.5508,574.0134,407.4479,583.14,411.15" style="stroke:#A80036;stroke-width:1.0;"/><polygon fill="#000000" points="551.4777,366.1588,547.2981,357.6159,543.0749,361.7042,551.4777,366.1588" style="stroke:#000000;stroke-width:1.0;"/><text fill="#000000" font-family="sans-serif" font-size="13" lengthAdjust="spacing" textLength="67" x="557" y="367.0669">involved in</text><text fill="#000000" font-family="sans-serif" font-size="13" lengthAdjust="spacing" textLength="23" x="454.5603" y="320.9265">0..*</text><!--MD5=[ec091f800280b56df8e15aaaa2e5104f]
reverse link Affiliation_Statement to Involvement--><path codeLine="658" d="M236.58,285 C295.01,285 362.74,285 408.59,285 " fill="none" id="Affiliation_Statement-backto-Involvement" style="stroke:#A80036;stroke-width:1.0;"/><polygon fill="#A80036" points="231.31,285,240.31,289,236.31,285,240.31,281,231.31,285" style="stroke:#A80036;stroke-width:1.0;"/><polygon fill="#000000" points="248.5,273.5664,257.5451,276.5053,257.5451,270.6275,248.5,273.5664" style="stroke:#000000;stroke-width:1.0;"/><text fill="#000000" font-family="sans-serif" font-size="13" lengthAdjust="spacing" textLength="128" x="262.5" y="278.0669">is the foundation for</text><text fill="#000000" font-family="sans-serif" font-size="13" lengthAdjust="spacing" textLength="23" x="238.8547" y="297.5154">0..*</text><text fill="#000000" font-family="sans-serif" font-size="13" lengthAdjust="spacing" textLength="23" x="378.0848" y="297.9418">0..*</text><!--MD5=[eeb1986463f873db234da87eccdc590b]
link Involvement to Involvement--><path codeLine="662" d="M515.27,277.88 C534.4,277.73 550,280.1 550,285 C550,289.44 537.19,291.8 520.55,292.09 " fill="none" id="Involvement-to-Involvement" style="stroke:#A80036;stroke-width:1.0;"/><polygon fill="#A80036" points="515.27,292.12,524.2927,296.0685,520.2699,292.0914,524.247,288.0686,515.27,292.12" style="stroke:#A80036;stroke-width:1.0;"/><polygon fill="#000000" points="554.9608,290.0663,557.9706,281.0445,552.0929,280.9984,554.9608,290.0663" style="stroke:#000000;stroke-width:1.0;"/><text fill="#000000" font-family="sans-serif" font-size="13" lengthAdjust="spacing" textLength="26" x="569" y="289.5669">part</text><text fill="#000000" font-family="sans-serif" font-size="13" lengthAdjust="spacing" textLength="23" x="523.1638" y="290.0013">0..*</text><text fill="#000000" font-family="sans-serif" font-size="13" lengthAdjust="spacing" textLength="24" x="522.8168" y="305.885">0..1</text><!--MD5=[eeb1986463f873db234da87eccdc590b]
link Involvement to Involvement--><path codeLine="666" d="M515.29,272.43 C556.76,268.05 601,272.23 601,285 C601,297.22 560.48,301.58 520.65,298.08 " fill="none" id="Involvement-to-Involvement-1" style="stroke:#A80036;stroke-width:1.0;"/><polygon fill="#A80036" points="515.29,297.57,523.8584,302.4262,520.2663,298.0562,524.6363,294.4641,515.29,297.57" style="stroke:#A80036;stroke-width:1.0;"/><polygon fill="#000000" points="605.4748,290.0387,609.3475,281.3524,603.5022,280.735,605.4748,290.0387" style="stroke:#000000;stroke-width:1.0;"/><text fill="#000000" font-family="sans-serif" font-size="13" lengthAdjust="spacing" textLength="89" x="620" y="289.5669">part transitive</text><text fill="#000000" font-family="sans-serif" font-size="13" lengthAdjust="spacing" textLength="23" x="523.1863" y="267.059">0..*</text><text fill="#000000" font-family="sans-serif" font-size="13" lengthAdjust="spacing" textLength="23" x="515.7969" y="320.9636">0..*</text><!--MD5=[335bc652314d68e20c6b9db39c8a9e92]
reverse link Activity to Affiliation_Statement--><path codeLine="473" d="M387.44,174.04 C335.88,195.16 266.91,223.41 211.8,245.99 " fill="none" id="Activity-backto-Affiliation_Statement" style="stroke:#A80036;stroke-width:1.0;"/><polygon fill="#FFFFFF" points="399.49,169.11,392.4214,167.6835,388.386,173.6598,395.4546,175.0862,399.49,169.11" style="stroke:#A80036;stroke-width:1.0;"/><polygon fill="#000000" points="322.3732,209.4618,331.8573,208.7526,329.6291,203.3134,322.3732,209.4618" style="stroke:#000000;stroke-width:1.0;"/><text fill="#000000" font-family="sans-serif" font-size="13" lengthAdjust="spacing" textLength="61" x="336" y="212.0669">affilations</text><text fill="#000000" font-family="sans-serif" font-size="13" lengthAdjust="spacing" textLength="23" x="360.3003" y="188.6743">0..*</text><text fill="#000000" font-family="sans-serif" font-size="13" lengthAdjust="spacing" textLength="23" x="202.7734" y="235.0388">0..*</text><!--MD5=[1b6dd3f0c2cbfc2c392caad7cede74fc]
@startuml

    !includesub core.puml!common
    !includesub core.puml!Agent
    !includesub core.puml!Activity
    !includesub core.puml!Membership
    !includesub core.puml!Person
    !includesub core.puml!Group
    !includesub core.puml!Organisation_Unit
    !includesub core.puml!Organisation_Unit_with_Members
    !includesub core.puml!Group_or_Organisation_Unit
    !includesub core.puml!Involvement
    !includesub core.puml!Affiliation_Statement

@enduml

@startuml

    hide empty members
    skinparam BoxPadding 120
    class "Agent" #ffffff {
    	lifetime : Date_Range
    }
    class "Activity" #ffffff {
  		dateRange : Date_Range
    }
	"Document" "0..*" - - "0..*" "Activity" : prove >
    "Activity" "0..*" - -> "0..1" "Agent" : actor >
    class "Membership" #ffffff {
    }
    "Involvement" <|-d- "Membership"
    class "Person" #ffffff {
        name : Person_Name
    }
    "Agent" <|- - "Person"
    class Person_Name << (D,#add0b2) DataType>> #ffffff {
        firstNames : Multilingual_String
        familyNames : Multilingual_String
        otherNames : Multilingual_String
    }
    "Person" ..> "name" "Person_Name"
    class "Group" #ffffff {
    }
	"Group_or_Organisation_Unit" <|- - "Group"
    class "Organisation_Unit" #ffffff {
        name : Multilingual_String
        acronym : String
        contacts : List<Contact_Information>
    }
	"Group_or_Organisation_Unit" <|- - "Organisation_Unit"
    class "Organisation_Unit_with_Members" #ffffff {
    }
    "Group" <|- - "Organisation_Unit_with_Members"
    "Organisation_Unit" <|- - "Organisation_Unit_with_Members"
    class "Group_or_Organisation_Unit" #ffffff {
    }
	"Agent" <|- - "Group_or_Organisation_Unit"
    class "Involvement" #ffffff {
    }
   "Activity" <|-d- "Involvement"
	"Involvement" "0..*" - -> "Group_or_Organisation_Unit" : involved in >
	"Involvement" "0..*" -l-> "0..*" "Affiliation_Statement" : is the foundation for >
	"Involvement" "0..*" - -> "0..1" "Involvement" : part >
	"Involvement" "0..*" - -> "0..*" "Involvement" : part transitive >
    class "Affiliation_Statement" #ffffff {
        displayAffiliation_Statement : String
        displayPersonName : String
        contacts : List<Contact_Information>
    }
    "Activity" "0..*" o- - "0..*" "Affiliation_Statement" : affilations >

@enduml

PlantUML version 1.2021.8(Sat Jun 26 08:20:59 UTC 2021)
(GPL source distribution)
Java Runtime: OpenJDK Runtime Environment
JVM: OpenJDK 64-Bit Server VM
Default Encoding: UTF-8
Language: en
Country: null
--></g></svg>