<?xml version="1.0" encoding="UTF-8" standalone="no"?><svg xmlns="http://www.w3.org/2000/svg" xmlns:xlink="http://www.w3.org/1999/xlink" contentScriptType="application/ecmascript" contentStyleType="text/css" height="744px" preserveAspectRatio="none" style="width:1276px;height:744px;background:#FFFFFF;" version="1.1" viewBox="0 0 1276 744" width="1276px" zoomAndPan="magnify"><defs><filter height="300%" id="f11qxk5w969h1" width="300%" x="-1" y="-1"><feGaussianBlur result="blurOut" stdDeviation="2.0"/><feColorMatrix in="blurOut" result="blurOut2" type="matrix" values="0 0 0 0 0 0 0 0 0 0 0 0 0 0 0 0 0 0 .4 0"/><feOffset dx="4.0" dy="4.0" in="blurOut2" result="blurOut3"/><feBlend in="SourceGraphic" in2="blurOut3" mode="normal"/></filter></defs><g><!--MD5=[9d44916250b776386006c440668bcfbb]
class Agent--><rect codeLine="10" fill="#FFFFFF" filter="url(#f11qxk5w969h1)" height="78.4141" id="Agent" style="stroke:#A80036;stroke-width:1.5;" width="224" x="549.29" y="252.5"/><ellipse cx="638.54" cy="268.5" fill="#ADD1B2" rx="11" ry="11" style="stroke:#A80036;stroke-width:1.0;"/><path d="M641.5088,274.1406 Q640.9306,274.4375 640.29,274.5781 Q639.6494,274.7344 638.9463,274.7344 Q636.4463,274.7344 635.1181,273.0938 Q633.8056,271.4375 633.8056,268.3125 Q633.8056,265.1875 635.1181,263.5313 Q636.4463,261.875 638.9463,261.875 Q639.6494,261.875 640.29,262.0313 Q640.9463,262.1875 641.5088,262.4844 L641.5088,265.2031 Q640.8838,264.625 640.29,264.3594 Q639.6963,264.0781 639.0713,264.0781 Q637.7275,264.0781 637.04,265.1563 Q636.3525,266.2188 636.3525,268.3125 Q636.3525,270.4063 637.04,271.4844 Q637.7275,272.5469 639.0713,272.5469 Q639.6963,272.5469 640.29,272.2813 Q640.8838,272 641.5088,271.4219 L641.5088,274.1406 Z " fill="#000000"/><text fill="#000000" font-family="sans-serif" font-size="12" lengthAdjust="spacing" textLength="37" x="659.04" y="272.6543">Agent</text><line style="stroke:#A80036;stroke-width:1.5;" x1="550.29" x2="772.29" y1="284.5" y2="284.5"/><text fill="#000000" font-family="sans-serif" font-size="11" lengthAdjust="spacing" textLength="207" x="555.29" y="298.7104">keywords : List&lt;Multilingual_String&gt;</text><text fill="#000000" font-family="sans-serif" font-size="11" lengthAdjust="spacing" textLength="121" x="555.29" y="311.5151">lifetime : Date_Range</text><text fill="#000000" font-family="sans-serif" font-size="11" lengthAdjust="spacing" textLength="212" x="555.29" y="324.3198">contacts : List&lt;Contact_Information&gt;</text><!--MD5=[176bc0a65f2558a2e68a39a8b34c74bb]
class Date_Range--><rect fill="#FEFECE" filter="url(#f11qxk5w969h1)" height="32" id="Date_Range" style="stroke:#A80036;stroke-width:1.5;" width="108" x="766.29" y="437"/><ellipse cx="781.29" cy="453" fill="#ADD1B2" rx="11" ry="11" style="stroke:#A80036;stroke-width:1.0;"/><path d="M784.2588,458.6406 Q783.6806,458.9375 783.04,459.0781 Q782.3994,459.2344 781.6963,459.2344 Q779.1963,459.2344 777.8681,457.5938 Q776.5556,455.9375 776.5556,452.8125 Q776.5556,449.6875 777.8681,448.0313 Q779.1963,446.375 781.6963,446.375 Q782.3994,446.375 783.04,446.5313 Q783.6963,446.6875 784.2588,446.9844 L784.2588,449.7031 Q783.6338,449.125 783.04,448.8594 Q782.4463,448.5781 781.8213,448.5781 Q780.4775,448.5781 779.79,449.6563 Q779.1025,450.7188 779.1025,452.8125 Q779.1025,454.9063 779.79,455.9844 Q780.4775,457.0469 781.8213,457.0469 Q782.4463,457.0469 783.04,456.7813 Q783.6338,456.5 784.2588,455.9219 L784.2588,458.6406 Z " fill="#000000"/><text fill="#000000" font-family="sans-serif" font-size="12" lengthAdjust="spacing" textLength="76" x="795.29" y="457.1543">Date_Range</text><!--MD5=[a0318ef586937002b2555963e2a1f4ad]
class Contact_Information--><rect fill="#FEFECE" filter="url(#f11qxk5w969h1)" height="32" id="Contact_Information" style="stroke:#A80036;stroke-width:1.5;" width="158" x="573.29" y="437"/><ellipse cx="588.29" cy="453" fill="#ADD1B2" rx="11" ry="11" style="stroke:#A80036;stroke-width:1.0;"/><path d="M591.2588,458.6406 Q590.6806,458.9375 590.04,459.0781 Q589.3994,459.2344 588.6963,459.2344 Q586.1963,459.2344 584.8681,457.5938 Q583.5556,455.9375 583.5556,452.8125 Q583.5556,449.6875 584.8681,448.0313 Q586.1963,446.375 588.6963,446.375 Q589.3994,446.375 590.04,446.5313 Q590.6963,446.6875 591.2588,446.9844 L591.2588,449.7031 Q590.6338,449.125 590.04,448.8594 Q589.4463,448.5781 588.8213,448.5781 Q587.4775,448.5781 586.79,449.6563 Q586.1025,450.7188 586.1025,452.8125 Q586.1025,454.9063 586.79,455.9844 Q587.4775,457.0469 588.8213,457.0469 Q589.4463,457.0469 590.04,456.7813 Q590.6338,456.5 591.2588,455.9219 L591.2588,458.6406 Z " fill="#000000"/><text fill="#000000" font-family="sans-serif" font-size="12" lengthAdjust="spacing" textLength="126" x="602.29" y="457.1543">Contact_Information</text><!--MD5=[c881b25adf3665c6568c9693d41a70f3]
class Activity--><rect codeLine="147" fill="#FFFFFF" filter="url(#f11qxk5w969h1)" height="52.8047" id="Activity" style="stroke:#A80036;stroke-width:1.5;" width="151" x="640.79" y="116"/><ellipse cx="690.54" cy="132" fill="#ADD1B2" rx="11" ry="11" style="stroke:#A80036;stroke-width:1.0;"/><path d="M693.5088,137.6406 Q692.9306,137.9375 692.29,138.0781 Q691.6494,138.2344 690.9463,138.2344 Q688.4463,138.2344 687.1181,136.5938 Q685.8056,134.9375 685.8056,131.8125 Q685.8056,128.6875 687.1181,127.0313 Q688.4463,125.375 690.9463,125.375 Q691.6494,125.375 692.29,125.5313 Q692.9463,125.6875 693.5088,125.9844 L693.5088,128.7031 Q692.8838,128.125 692.29,127.8594 Q691.6963,127.5781 691.0713,127.5781 Q689.7275,127.5781 689.04,128.6563 Q688.3525,129.7188 688.3525,131.8125 Q688.3525,133.9063 689.04,134.9844 Q689.7275,136.0469 691.0713,136.0469 Q691.6963,136.0469 692.29,135.7813 Q692.8838,135.5 693.5088,134.9219 L693.5088,137.6406 Z " fill="#000000"/><text fill="#000000" font-family="sans-serif" font-size="12" lengthAdjust="spacing" textLength="43" x="711.04" y="136.1543">Activity</text><line style="stroke:#A80036;stroke-width:1.5;" x1="641.79" x2="790.79" y1="148" y2="148"/><text fill="#000000" font-family="sans-serif" font-size="11" lengthAdjust="spacing" textLength="139" x="646.79" y="162.2104">dateRange : Date_Range</text><!--MD5=[59b530d44ae785dc18db921986a9c15c]
class Document--><rect fill="#FEFECE" filter="url(#f11qxk5w969h1)" height="32" id="Document" style="stroke:#A80036;stroke-width:1.5;" width="96" x="668.29" y="7"/><ellipse cx="683.29" cy="23" fill="#ADD1B2" rx="11" ry="11" style="stroke:#A80036;stroke-width:1.0;"/><path d="M686.2588,28.6406 Q685.6806,28.9375 685.04,29.0781 Q684.3994,29.2344 683.6963,29.2344 Q681.1963,29.2344 679.8681,27.5938 Q678.5556,25.9375 678.5556,22.8125 Q678.5556,19.6875 679.8681,18.0313 Q681.1963,16.375 683.6963,16.375 Q684.3994,16.375 685.04,16.5313 Q685.6963,16.6875 686.2588,16.9844 L686.2588,19.7031 Q685.6338,19.125 685.04,18.8594 Q684.4463,18.5781 683.8213,18.5781 Q682.4775,18.5781 681.79,19.6563 Q681.1025,20.7188 681.1025,22.8125 Q681.1025,24.9063 681.79,25.9844 Q682.4775,27.0469 683.8213,27.0469 Q684.4463,27.0469 685.04,26.7813 Q685.6338,26.5 686.2588,25.9219 L686.2588,28.6406 Z " fill="#000000"/><text fill="#000000" font-family="sans-serif" font-size="12" lengthAdjust="spacing" textLength="64" x="697.29" y="27.1543">Document</text><!--MD5=[77463bb17ddcfe3891c27a1f4a877731]
class Membership--><rect codeLine="183" fill="#FFFFFF" filter="url(#f11qxk5w969h1)" height="32" id="Membership" style="stroke:#A80036;stroke-width:1.5;" width="108" x="1150.29" y="437"/><ellipse cx="1165.29" cy="453" fill="#ADD1B2" rx="11" ry="11" style="stroke:#A80036;stroke-width:1.0;"/><path d="M1168.2588,458.6406 Q1167.6806,458.9375 1167.04,459.0781 Q1166.3994,459.2344 1165.6963,459.2344 Q1163.1963,459.2344 1161.8681,457.5938 Q1160.5556,455.9375 1160.5556,452.8125 Q1160.5556,449.6875 1161.8681,448.0313 Q1163.1963,446.375 1165.6963,446.375 Q1166.3994,446.375 1167.04,446.5313 Q1167.6963,446.6875 1168.2588,446.9844 L1168.2588,449.7031 Q1167.6338,449.125 1167.04,448.8594 Q1166.4463,448.5781 1165.8213,448.5781 Q1164.4775,448.5781 1163.79,449.6563 Q1163.1025,450.7188 1163.1025,452.8125 Q1163.1025,454.9063 1163.79,455.9844 Q1164.4775,457.0469 1165.8213,457.0469 Q1166.4463,457.0469 1167.04,456.7813 Q1167.6338,456.5 1168.2588,455.9219 L1168.2588,458.6406 Z " fill="#000000"/><text fill="#000000" font-family="sans-serif" font-size="12" lengthAdjust="spacing" textLength="76" x="1179.29" y="457.1543">Membership</text><!--MD5=[6a029e66987f6edc98a50822cc78695f]
class Involvement--><rect codeLine="153" fill="#FFFFFF" filter="url(#f11qxk5w969h1)" height="65.6094" id="Involvement" style="stroke:#A80036;stroke-width:1.5;" width="190" x="879.29" y="258.5"/><ellipse cx="933.04" cy="274.5" fill="#ADD1B2" rx="11" ry="11" style="stroke:#A80036;stroke-width:1.0;"/><path d="M936.0088,280.1406 Q935.4306,280.4375 934.79,280.5781 Q934.1494,280.7344 933.4463,280.7344 Q930.9463,280.7344 929.6181,279.0938 Q928.3056,277.4375 928.3056,274.3125 Q928.3056,271.1875 929.6181,269.5313 Q930.9463,267.875 933.4463,267.875 Q934.1494,267.875 934.79,268.0313 Q935.4463,268.1875 936.0088,268.4844 L936.0088,271.2031 Q935.3838,270.625 934.79,270.3594 Q934.1963,270.0781 933.5713,270.0781 Q932.2275,270.0781 931.54,271.1563 Q930.8525,272.2188 930.8525,274.3125 Q930.8525,276.4063 931.54,277.4844 Q932.2275,278.5469 933.5713,278.5469 Q934.1963,278.5469 934.79,278.2813 Q935.3838,278 936.0088,277.4219 L936.0088,280.1406 Z " fill="#000000"/><text fill="#000000" font-family="sans-serif" font-size="12" lengthAdjust="spacing" textLength="74" x="953.54" y="278.6543">Involvement</text><line style="stroke:#A80036;stroke-width:1.5;" x1="880.29" x2="1068.29" y1="290.5" y2="290.5"/><text fill="#000000" font-family="sans-serif" font-size="11" lengthAdjust="spacing" textLength="178" x="885.29" y="304.7104">description : Multilingual_String</text><text fill="#000000" font-family="sans-serif" font-size="11" lengthAdjust="spacing" textLength="114" x="885.29" y="317.5151">position    : Position</text><!--MD5=[09ce52be0ee7de43c61b6e2d59bf108b]
class Person--><rect codeLine="20" fill="#FFFFFF" filter="url(#f11qxk5w969h1)" height="65.6094" id="Person" style="stroke:#A80036;stroke-width:1.5;" width="236" x="302.29" y="420"/><ellipse cx="394.04" cy="436" fill="#ADD1B2" rx="11" ry="11" style="stroke:#A80036;stroke-width:1.0;"/><path d="M397.0087,441.6406 Q396.4306,441.9375 395.79,442.0781 Q395.1494,442.2344 394.4462,442.2344 Q391.9462,442.2344 390.6181,440.5938 Q389.3056,438.9375 389.3056,435.8125 Q389.3056,432.6875 390.6181,431.0313 Q391.9462,429.375 394.4462,429.375 Q395.1494,429.375 395.79,429.5313 Q396.4462,429.6875 397.0087,429.9844 L397.0087,432.7031 Q396.3837,432.125 395.79,431.8594 Q395.1962,431.5781 394.5712,431.5781 Q393.2275,431.5781 392.54,432.6563 Q391.8525,433.7188 391.8525,435.8125 Q391.8525,437.9063 392.54,438.9844 Q393.2275,440.0469 394.5712,440.0469 Q395.1962,440.0469 395.79,439.7813 Q396.3837,439.5 397.0087,438.9219 L397.0087,441.6406 Z " fill="#000000"/><text fill="#000000" font-family="sans-serif" font-size="12" lengthAdjust="spacing" textLength="44" x="414.54" y="440.1543">Person</text><line style="stroke:#A80036;stroke-width:1.5;" x1="303.29" x2="537.29" y1="452" y2="452"/><text fill="#000000" font-family="sans-serif" font-size="11" lengthAdjust="spacing" textLength="167" x="308.29" y="466.2104">name            : Person_Name</text><text fill="#000000" font-family="sans-serif" font-size="11" lengthAdjust="spacing" textLength="224" x="308.29" y="479.0151">alternateNames  : List&lt;Person_Name&gt;</text><!--MD5=[7b209ef07eb91b93e0aebc9fe4fb9a26]
class Person_Name--><rect codeLine="82" fill="#FFFFFF" filter="url(#f11qxk5w969h1)" height="84.3516" id="Person_Name" style="stroke:#A80036;stroke-width:1.5;" width="201" x="319.79" y="553"/><ellipse cx="373.04" cy="571.9688" fill="#ADD0B2" rx="11" ry="11" style="stroke:#A80036;stroke-width:1.0;"/><path d="M372.6337,567.7813 L372.6337,575.7656 L373.29,575.7656 Q374.7275,575.7656 375.3369,574.8594 Q375.9619,573.9375 375.9619,571.7656 Q375.9619,569.5938 375.3369,568.6875 Q374.7275,567.7813 373.29,567.7813 L372.6337,567.7813 Z M370.1806,565.5781 L372.8056,565.5781 Q375.8369,565.5781 377.165,567.0313 Q378.5087,568.4688 378.5087,571.7656 Q378.5087,575.0625 377.165,576.5156 Q375.8369,577.9688 372.8056,577.9688 L370.1806,577.9688 L370.1806,565.5781 Z " fill="#000000"/><text fill="#000000" font-family="sans-serif" font-size="12" font-style="italic" lengthAdjust="spacing" textLength="74" x="399.54" y="569.1387">«DataType»</text><text fill="#000000" font-family="sans-serif" font-size="12" lengthAdjust="spacing" textLength="86" x="393.54" y="583.1074">Person_Name</text><line style="stroke:#A80036;stroke-width:1.5;" x1="320.79" x2="519.79" y1="590.9375" y2="590.9375"/><text fill="#000000" font-family="sans-serif" font-size="11" lengthAdjust="spacing" textLength="178" x="325.79" y="605.1479">firstNames : Multilingual_String</text><text fill="#000000" font-family="sans-serif" font-size="11" lengthAdjust="spacing" textLength="189" x="325.79" y="617.9526">familyNames : Multilingual_String</text><text fill="#000000" font-family="sans-serif" font-size="11" lengthAdjust="spacing" textLength="185" x="325.79" y="630.7573">otherNames : Multilingual_String</text><!--MD5=[41314a0efc36828092cff9ebad2fcafd]
class Group--><rect codeLine="106" fill="#FFFFFF" filter="url(#f11qxk5w969h1)" height="32" id="Group" style="stroke:#A80036;stroke-width:1.5;" width="70" x="766.29" y="579"/><ellipse cx="781.29" cy="595" fill="#ADD1B2" rx="11" ry="11" style="stroke:#A80036;stroke-width:1.0;"/><path d="M784.2588,600.6406 Q783.6806,600.9375 783.04,601.0781 Q782.3994,601.2344 781.6963,601.2344 Q779.1963,601.2344 777.8681,599.5938 Q776.5556,597.9375 776.5556,594.8125 Q776.5556,591.6875 777.8681,590.0313 Q779.1963,588.375 781.6963,588.375 Q782.3994,588.375 783.04,588.5313 Q783.6963,588.6875 784.2588,588.9844 L784.2588,591.7031 Q783.6338,591.125 783.04,590.8594 Q782.4463,590.5781 781.8213,590.5781 Q780.4775,590.5781 779.79,591.6563 Q779.1025,592.7188 779.1025,594.8125 Q779.1025,596.9063 779.79,597.9844 Q780.4775,599.0469 781.8213,599.0469 Q782.4463,599.0469 783.04,598.7813 Q783.6338,598.5 784.2588,597.9219 L784.2588,600.6406 Z " fill="#000000"/><text fill="#000000" font-family="sans-serif" font-size="12" lengthAdjust="spacing" textLength="38" x="795.29" y="599.1543">Group</text><!--MD5=[affb11a45f8309443fb20b6133e8d181]
class Group_or_Organisation_Unit--><rect codeLine="94" fill="#FFFFFF" filter="url(#f11qxk5w969h1)" height="78.4141" id="Group_or_Organisation_Unit" style="stroke:#A80036;stroke-width:1.5;" width="206" x="909.29" y="414"/><ellipse cx="924.29" cy="430" fill="#ADD1B2" rx="11" ry="11" style="stroke:#A80036;stroke-width:1.0;"/><path d="M927.2588,435.6406 Q926.6806,435.9375 926.04,436.0781 Q925.3994,436.2344 924.6963,436.2344 Q922.1963,436.2344 920.8681,434.5938 Q919.5556,432.9375 919.5556,429.8125 Q919.5556,426.6875 920.8681,425.0313 Q922.1963,423.375 924.6963,423.375 Q925.3994,423.375 926.04,423.5313 Q926.6963,423.6875 927.2588,423.9844 L927.2588,426.7031 Q926.6338,426.125 926.04,425.8594 Q925.4463,425.5781 924.8213,425.5781 Q923.4775,425.5781 922.79,426.6563 Q922.1025,427.7188 922.1025,429.8125 Q922.1025,431.9063 922.79,432.9844 Q923.4775,434.0469 924.8213,434.0469 Q925.4463,434.0469 926.04,433.7813 Q926.6338,433.5 927.2588,432.9219 L927.2588,435.6406 Z " fill="#000000"/><text fill="#000000" font-family="sans-serif" font-size="12" lengthAdjust="spacing" textLength="174" x="938.29" y="434.1543">Group_or_Organisation_Unit</text><line style="stroke:#A80036;stroke-width:1.5;" x1="910.29" x2="1114.29" y1="446" y2="446"/><text fill="#000000" font-family="sans-serif" font-size="11" lengthAdjust="spacing" textLength="147" x="915.29" y="460.2104">name : Multilingual_String</text><text fill="#000000" font-family="sans-serif" font-size="11" lengthAdjust="spacing" textLength="95" x="915.29" y="473.0151">acronym : String</text><text fill="#000000" font-family="sans-serif" font-size="11" lengthAdjust="spacing" textLength="178" x="915.29" y="485.8198">description : Multilingual_String</text><!--MD5=[779f3743e425ed8a6f0bf188ddea4860]
class Organisation_Unit--><rect codeLine="115" fill="#FFFFFF" filter="url(#f11qxk5w969h1)" height="32" id="Organisation_Unit" style="stroke:#A80036;stroke-width:1.5;" width="143" x="98.79" y="579"/><ellipse cx="113.79" cy="595" fill="#ADD1B2" rx="11" ry="11" style="stroke:#A80036;stroke-width:1.0;"/><path d="M116.7588,600.6406 Q116.1806,600.9375 115.54,601.0781 Q114.8994,601.2344 114.1963,601.2344 Q111.6963,601.2344 110.3681,599.5938 Q109.0556,597.9375 109.0556,594.8125 Q109.0556,591.6875 110.3681,590.0313 Q111.6963,588.375 114.1963,588.375 Q114.8994,588.375 115.54,588.5313 Q116.1963,588.6875 116.7588,588.9844 L116.7588,591.7031 Q116.1338,591.125 115.54,590.8594 Q114.9463,590.5781 114.3213,590.5781 Q112.9775,590.5781 112.29,591.6563 Q111.6025,592.7188 111.6025,594.8125 Q111.6025,596.9063 112.29,597.9844 Q112.9775,599.0469 114.3213,599.0469 Q114.9463,599.0469 115.54,598.7813 Q116.1338,598.5 116.7588,597.9219 L116.7588,600.6406 Z " fill="#000000"/><text fill="#000000" font-family="sans-serif" font-size="12" lengthAdjust="spacing" textLength="111" x="127.79" y="599.1543">Organisation_Unit</text><!--MD5=[dae000cba6c379e3053478bba72a741c]
class Organisation_Unit_with_Members--><rect codeLine="132" fill="#FFFFFF" filter="url(#f11qxk5w969h1)" height="32" id="Organisation_Unit_with_Members" style="stroke:#A80036;stroke-width:1.5;" width="237" x="248.79" y="698"/><ellipse cx="263.79" cy="714" fill="#ADD1B2" rx="11" ry="11" style="stroke:#A80036;stroke-width:1.0;"/><path d="M266.7587,719.6406 Q266.1806,719.9375 265.54,720.0781 Q264.8994,720.2344 264.1962,720.2344 Q261.6962,720.2344 260.3681,718.5938 Q259.0556,716.9375 259.0556,713.8125 Q259.0556,710.6875 260.3681,709.0313 Q261.6962,707.375 264.1962,707.375 Q264.8994,707.375 265.54,707.5313 Q266.1962,707.6875 266.7587,707.9844 L266.7587,710.7031 Q266.1337,710.125 265.54,709.8594 Q264.9462,709.5781 264.3212,709.5781 Q262.9775,709.5781 262.29,710.6563 Q261.6025,711.7188 261.6025,713.8125 Q261.6025,715.9063 262.29,716.9844 Q262.9775,718.0469 264.3212,718.0469 Q264.9462,718.0469 265.54,717.7813 Q266.1337,717.5 266.7587,716.9219 L266.7587,719.6406 Z " fill="#000000"/><text fill="#000000" font-family="sans-serif" font-size="12" lengthAdjust="spacing" textLength="205" x="277.79" y="718.1543">Organisation_Unit_with_Members</text><!--MD5=[ddbff00b4911ad4b77d6aa32dd14d1d7]
class Affiliation_Statement--><rect codeLine="519" fill="#FFFFFF" filter="url(#f11qxk5w969h1)" height="91.2188" id="Affiliation_Statement" style="stroke:#A80036;stroke-width:1.5;" width="224" x="290.29" y="246"/><ellipse cx="333.64" cy="262" fill="#ADD1B2" rx="11" ry="11" style="stroke:#A80036;stroke-width:1.0;"/><path d="M336.6088,267.6406 Q336.0306,267.9375 335.39,268.0781 Q334.7494,268.2344 334.0463,268.2344 Q331.5463,268.2344 330.2181,266.5938 Q328.9056,264.9375 328.9056,261.8125 Q328.9056,258.6875 330.2181,257.0313 Q331.5463,255.375 334.0463,255.375 Q334.7494,255.375 335.39,255.5313 Q336.0463,255.6875 336.6088,255.9844 L336.6088,258.7031 Q335.9838,258.125 335.39,257.8594 Q334.7963,257.5781 334.1713,257.5781 Q332.8275,257.5781 332.14,258.6563 Q331.4525,259.7188 331.4525,261.8125 Q331.4525,263.9063 332.14,264.9844 Q332.8275,266.0469 334.1713,266.0469 Q334.7963,266.0469 335.39,265.7813 Q335.9838,265.5 336.6088,264.9219 L336.6088,267.6406 Z " fill="#000000"/><text fill="#000000" font-family="sans-serif" font-size="12" lengthAdjust="spacing" textLength="129" x="353.94" y="266.1543">Affiliation_Statement</text><line style="stroke:#A80036;stroke-width:1.5;" x1="291.29" x2="513.29" y1="278" y2="278"/><text fill="#000000" font-family="sans-serif" font-size="11" lengthAdjust="spacing" textLength="138" x="296.29" y="292.2104">displayAffiliation : String</text><text fill="#000000" font-family="sans-serif" font-size="11" lengthAdjust="spacing" textLength="159" x="296.29" y="305.0151">displayPersonName : String</text><text fill="#000000" font-family="sans-serif" font-size="11" lengthAdjust="spacing" textLength="212" x="296.29" y="317.8198">contacts : List&lt;Contact_Information&gt;</text><text fill="#000000" font-family="sans-serif" font-size="11" lengthAdjust="spacing" textLength="102" x="296.29" y="330.6245">position : Position</text><!--MD5=[392b5d5331db5043115a06bd654f787a]
link Agent to Date_Range--><path codeLine="15" d="M696.82,330.78 C712.41,347.34 731.05,366.82 748.29,384 C765.32,400.97 785.23,419.7 799.79,433.19 " fill="none" id="Agent-to-Date_Range" style="stroke:#A80036;stroke-width:1.0;stroke-dasharray:7.0,7.0;"/><polygon fill="#A80036" points="803.75,436.85,799.8645,427.8,800.0815,433.4527,794.4288,433.6696,803.75,436.85" style="stroke:#A80036;stroke-width:1.0;"/><!--MD5=[d43df4fbdad36fd00892352d175d5460]
link Agent to Contact_Information--><path codeLine="16" d="M659.13,330.7 C657.35,362.37 654.88,406.15 653.44,431.54 " fill="none" id="Agent-to-Contact_Information" style="stroke:#A80036;stroke-width:1.0;stroke-dasharray:7.0,7.0;"/><polygon fill="#A80036" points="653.15,436.66,657.6584,427.9036,653.4361,431.6682,649.6715,427.4459,653.15,436.66" style="stroke:#A80036;stroke-width:1.0;"/><text fill="#000000" font-family="sans-serif" font-size="13" lengthAdjust="spacing" textLength="23" x="626.6255" y="425.8519">0..*</text><!--MD5=[ff9dfe2dddb5fe4a69020d7834f0d207]
link Document to Activity--><path codeLine="256" d="M716.29,39.36 C716.29,58.77 716.29,92.45 716.29,115.8 " fill="none" id="Document-Activity" style="stroke:#A80036;stroke-width:1.0;"/><polygon fill="#000000" points="721.29,82.5664,724.2289,73.5213,718.3511,73.5213,721.29,82.5664" style="stroke:#000000;stroke-width:1.0;"/><text fill="#000000" font-family="sans-serif" font-size="13" lengthAdjust="spacing" textLength="36" x="730.29" y="82.0669">prove</text><text fill="#000000" font-family="sans-serif" font-size="13" lengthAdjust="spacing" textLength="23" x="689.6244" y="59.0534">0..*</text><text fill="#000000" font-family="sans-serif" font-size="13" lengthAdjust="spacing" textLength="23" x="690.6306" y="104.9961">0..*</text><!--MD5=[cd935cc757d29bd6a59b1252b30899e0]
link Activity to Agent--><path codeLine="262" d="M640.65,166.6 C626.21,174.54 612.93,185.08 604.29,199 C594.37,214.99 601.03,232.53 612.78,247.95 " fill="none" id="Activity-to-Agent" style="stroke:#A80036;stroke-width:1.0;"/><polygon fill="#A80036" points="616.22,252.23,613.7085,242.7068,613.0913,248.3298,607.4682,247.7127,616.22,252.23" style="stroke:#A80036;stroke-width:1.0;"/><polygon fill="#000000" points="607.6695,212.2965,613.3813,204.6922,607.8207,202.7872,607.6695,212.2965" style="stroke:#000000;stroke-width:1.0;"/><text fill="#000000" font-family="sans-serif" font-size="13" lengthAdjust="spacing" textLength="33" x="618.29" y="212.0669">actor</text><text fill="#000000" font-family="sans-serif" font-size="13" lengthAdjust="spacing" textLength="23" x="609.8891" y="165.1599">0..*</text><text fill="#000000" font-family="sans-serif" font-size="13" lengthAdjust="spacing" textLength="24" x="582.7678" y="241.5273">0..1</text><!--MD5=[2da288daa10c3ee0fffff7997d0d73e1]
link Activity to Date_Range--><path codeLine="859" d="M774.33,169.11 C786.12,177 797.1,186.88 804.29,199 C849.28,274.8 833.67,386.85 824.74,432.03 " fill="none" id="Activity-to-Date_Range" style="stroke:#A80036;stroke-width:1.0;stroke-dasharray:7.0,7.0;"/><polygon fill="#A80036" points="823.74,436.95,829.4364,428.9156,824.7261,432.0482,821.5935,427.3379,823.74,436.95" style="stroke:#A80036;stroke-width:1.0;"/><!--MD5=[774ab914c44fde287bade86ae1a1d531]
reverse link Involvement to Membership--><path codeLine="188" d="M1039.92,336.09 C1054.89,346.16 1070.68,356.89 1085.29,367 C1119.94,390.99 1159.69,419.61 1183.35,436.77 " fill="none" id="Involvement-backto-Membership" style="stroke:#A80036;stroke-width:1.0;"/><polygon fill="none" points="1035.57,341.6,1022.85,324.65,1043.36,329.97,1035.57,341.6" style="stroke:#A80036;stroke-width:1.0;"/><!--MD5=[de96f77e660762cb21a195b4097c3876]
reverse link Agent to Person--><path codeLine="78" d="M587.05,341.63 C548.56,367.11 502.64,397.5 468.74,419.94 " fill="none" id="Agent-backto-Person" style="stroke:#A80036;stroke-width:1.0;"/><polygon fill="none" points="583.33,335.7,603.87,330.5,591.05,347.38,583.33,335.7" style="stroke:#A80036;stroke-width:1.0;"/><!--MD5=[5d8901ce694eb85aefa78b7d82d9f6f6]
link Person to Person_Name--><path codeLine="90" d="M420.29,486.12 C420.29,504.43 420.29,527.68 420.29,547.91 " fill="none" id="Person-to-Person_Name" style="stroke:#A80036;stroke-width:1.0;stroke-dasharray:7.0,7.0;"/><polygon fill="#A80036" points="420.29,552.98,424.29,543.98,420.29,547.98,416.29,543.98,420.29,552.98" style="stroke:#A80036;stroke-width:1.0;"/><!--MD5=[ef849346ed6a9c6429a3acad43755067]
reverse link Group_or_Organisation_Unit to Group--><path codeLine="111" d="M938.19,503.16 C898.06,529.79 851.25,560.85 824.07,578.88 " fill="none" id="Group_or_Organisation_Unit-backto-Group" style="stroke:#A80036;stroke-width:1.0;"/><polygon fill="none" points="934.37,497.3,954.91,492.07,942.12,508.96,934.37,497.3" style="stroke:#A80036;stroke-width:1.0;"/><!--MD5=[69e875cd42dba5e548805475ea29280d]
link Group to Group--><path codeLine="128" d="M841.66,581.58 C857.78,580.84 871.29,585.31 871.29,595 C871.29,604.69 857.78,609.16 841.66,608.42 " fill="none" id="Group-Group" style="stroke:#A80036;stroke-width:1.0;stroke-dasharray:7.0,7.0;"/><polygon fill="#A80036" points="836.59,608.03,845.2413,612.7369,841.574,608.4299,845.8811,604.7626,836.59,608.03" style="stroke:#A80036;stroke-width:1.0;"/><polygon fill="#A80036" points="836.59,581.97,845.8811,585.2374,841.574,581.5701,845.2413,577.2631,836.59,581.97" style="stroke:#A80036;stroke-width:1.0;"/><text fill="#000000" font-family="sans-serif" font-size="13" lengthAdjust="spacing" textLength="69" x="844.2244" y="576.7987">0..* part of</text><text fill="#000000" font-family="sans-serif" font-size="13" lengthAdjust="spacing" textLength="60" x="844.1403" y="605.744">0..* parts</text><!--MD5=[46aa33658a7939f97c192b82d622be7c]
reverse link Group_or_Organisation_Unit to Organisation_Unit--><path codeLine="120" d="M889.43,492.14 C630.47,543.46 554.24,501.38 302.29,553 C271.26,559.36 237.13,570.06 211.35,578.94 " fill="none" id="Group_or_Organisation_Unit-backto-Organisation_Unit" style="stroke:#A80036;stroke-width:1.0;"/><polygon fill="none" points="888.23,485.24,909.22,488.1,891.02,498.96,888.23,485.24" style="stroke:#A80036;stroke-width:1.0;"/><!--MD5=[f47b8cdb810f6f32f0d73f513aa4cbda]
link Organisation_Unit to Organisation_Unit--><path codeLine="124" d="M247.38,581.87 C264.4,583.1 276.79,587.48 276.79,595 C276.79,602.52 264.4,606.9 247.38,608.13 " fill="none" id="Organisation_Unit-Organisation_Unit" style="stroke:#A80036;stroke-width:1.0;stroke-dasharray:7.0,7.0;"/><polygon fill="#A80036" points="241.96,608.42,251.1541,611.9511,246.9534,608.1625,250.742,603.9617,241.96,608.42" style="stroke:#A80036;stroke-width:1.0;"/><polygon fill="#A80036" points="241.96,581.58,250.742,586.0383,246.9534,581.8375,251.1541,578.0489,241.96,581.58" style="stroke:#A80036;stroke-width:1.0;"/><text fill="#000000" font-family="sans-serif" font-size="13" lengthAdjust="spacing" textLength="69" x="249.7569" y="577.1155">0..* part of</text><text fill="#000000" font-family="sans-serif" font-size="13" lengthAdjust="spacing" textLength="60" x="249.7441" y="605.9452">0..* parts</text><!--MD5=[854899a0b21de2cb3f4d3222738c1bb3]
reverse link Group to Organisation_Unit_with_Members--><path codeLine="137" d="M746.75,610.7 C663.85,633.05 506.97,675.35 423.24,697.92 " fill="none" id="Group-backto-Organisation_Unit_with_Members" style="stroke:#A80036;stroke-width:1.0;"/><polygon fill="none" points="745.01,603.92,766.14,605.48,748.65,617.44,745.01,603.92" style="stroke:#A80036;stroke-width:1.0;"/><!--MD5=[adeab3cf6be56cae862ee063039c31ec]
reverse link Organisation_Unit to Organisation_Unit_with_Members--><path codeLine="141" d="M213.05,621.4 C252.29,644.7 309.12,678.46 341.72,697.82 " fill="none" id="Organisation_Unit-backto-Organisation_Unit_with_Members" style="stroke:#A80036;stroke-width:1.0;"/><polygon fill="none" points="209.26,627.29,195.64,611.06,216.41,615.25,209.26,627.29" style="stroke:#A80036;stroke-width:1.0;"/><!--MD5=[8baa0633a34be8ca6adcc4fd46743d97]
reverse link Agent to Group_or_Organisation_Unit--><path codeLine="102" d="M763.34,338.87 C815.75,362.69 878.84,391.36 928.39,413.88 " fill="none" id="Agent-backto-Group_or_Organisation_Unit" style="stroke:#A80036;stroke-width:1.0;"/><polygon fill="none" points="760.23,345.15,744.92,330.5,766.02,332.4,760.23,345.15" style="stroke:#A80036;stroke-width:1.0;"/><!--MD5=[5310b7429ef001befd0a176a00932538]
reverse link Activity to Involvement--><path codeLine="160" d="M807.34,176.87 C822.67,183.55 838.17,191 852.29,199 C882.35,216.03 913.47,239.48 936.75,258.37 " fill="none" id="Activity-backto-Involvement" style="stroke:#A80036;stroke-width:1.0;"/><polygon fill="none" points="804.58,183.3,788.84,169.11,809.99,170.39,804.58,183.3" style="stroke:#A80036;stroke-width:1.0;"/><!--MD5=[3e6df519c6409dff9ecce5f5942987dd]
link Involvement to Group_or_Organisation_Unit--><path codeLine="266" d="M981.98,324.78 C987.76,349.03 995.73,382.49 1002.05,409.01 " fill="none" id="Involvement-to-Group_or_Organisation_Unit" style="stroke:#A80036;stroke-width:1.0;"/><polygon fill="#A80036" points="1003.21,413.87,1005.0218,404.1892,1002.0545,409.0054,997.2383,406.0381,1003.21,413.87" style="stroke:#A80036;stroke-width:1.0;"/><polygon fill="#000000" points="1001.4489,380.4302,1002.2113,370.9503,996.4935,372.3127,1001.4489,380.4302" style="stroke:#000000;stroke-width:1.0;"/><text fill="#000000" font-family="sans-serif" font-size="13" lengthAdjust="spacing" textLength="67" x="1009.29" y="380.0669">involved in</text><text fill="#000000" font-family="sans-serif" font-size="13" lengthAdjust="spacing" textLength="23" x="958.3013" y="344.1575">0..*</text><!--MD5=[ec091f800280b56df8e15aaaa2e5104f]
reverse link Affiliation_Statement to Involvement--><path codeLine="838" d="M516.1,244.29 C596.4,217.05 706.4,191.99 802.79,213 C843.26,221.82 885.61,241.09 918.1,258.33 " fill="none" id="Affiliation_Statement-backto-Involvement" style="stroke:#A80036;stroke-width:1.0;"/><polygon fill="#A80036" points="511.33,245.92,521.1397,246.7978,516.0619,244.3046,518.555,239.2268,511.33,245.92" style="stroke:#A80036;stroke-width:1.0;"/><polygon fill="#000000" points="659.793,207.3919,668.73,210.6447,668.9352,204.7705,659.793,207.3919" style="stroke:#000000;stroke-width:1.0;"/><text fill="#000000" font-family="sans-serif" font-size="13" lengthAdjust="spacing" textLength="128" x="673.79" y="212.0669">is the foundation for</text><text fill="#000000" font-family="sans-serif" font-size="13" lengthAdjust="spacing" textLength="23" x="503.2658" y="234.8524">0..*</text><text fill="#000000" font-family="sans-serif" font-size="13" lengthAdjust="spacing" textLength="23" x="881.7735" y="247.4415">0..*</text><!--MD5=[eeb1986463f873db234da87eccdc590b]
link Involvement to Involvement--><path codeLine="842" d="M1069.52,283.88 C1089.71,284.65 1104.29,287.19 1104.29,291.5 C1104.29,295.44 1092.11,297.9 1074.59,298.88 " fill="none" id="Involvement-to-Involvement" style="stroke:#A80036;stroke-width:1.0;"/><polygon fill="#A80036" points="1069.52,299.12,1078.704,302.6774,1074.5141,298.8767,1078.3147,294.6869,1069.52,299.12" style="stroke:#A80036;stroke-width:1.0;"/><polygon fill="#000000" points="1109.4805,296.5628,1112.0726,287.4123,1106.1991,287.6363,1109.4805,296.5628" style="stroke:#000000;stroke-width:1.0;"/><text fill="#000000" font-family="sans-serif" font-size="13" lengthAdjust="spacing" textLength="26" x="1123.29" y="296.0669">part</text><text fill="#000000" font-family="sans-serif" font-size="13" lengthAdjust="spacing" textLength="23" x="1077.358" y="279.8557">0..*</text><text fill="#000000" font-family="sans-serif" font-size="13" lengthAdjust="spacing" textLength="24" x="1077.3947" y="296.2149">0..1</text><!--MD5=[eeb1986463f873db234da87eccdc590b]
link Involvement to Involvement--><path codeLine="846" d="M1069.35,276.04 C1114.59,274.41 1155.29,279.56 1155.29,291.5 C1155.29,302.99 1117.55,308.2 1074.37,307.11 " fill="none" id="Involvement-to-Involvement-1" style="stroke:#A80036;stroke-width:1.0;"/><polygon fill="#A80036" points="1069.35,306.96,1078.2199,311.2407,1074.3475,307.1171,1078.4712,303.2447,1069.35,306.96" style="stroke:#A80036;stroke-width:1.0;"/><polygon fill="#000000" points="1160.11,296.5632,1163.3727,287.6298,1157.4986,287.4181,1160.11,296.5632" style="stroke:#000000;stroke-width:1.0;"/><text fill="#000000" font-family="sans-serif" font-size="13" lengthAdjust="spacing" textLength="89" x="1174.29" y="296.0669">part transitive</text><text fill="#000000" font-family="sans-serif" font-size="13" lengthAdjust="spacing" textLength="23" x="1077.1755" y="271.44">0..*</text><text fill="#000000" font-family="sans-serif" font-size="13" lengthAdjust="spacing" textLength="23" x="1077.1755" y="320.7322">0..*</text><!--MD5=[335bc652314d68e20c6b9db39c8a9e92]
reverse link Activity to Affiliation_Statement--><path codeLine="640" d="M627.59,152.41 C558.41,160.97 469.49,176.03 441.29,199 C426.83,210.78 417.63,228.9 411.82,245.92 " fill="none" id="Activity-backto-Affiliation_Statement" style="stroke:#A80036;stroke-width:1.0;"/><polygon fill="#FFFFFF" points="640.69,150.83,634.2539,147.5779,628.7765,152.2681,635.2126,155.5202,640.69,150.83" style="stroke:#A80036;stroke-width:1.0;"/><polygon fill="#000000" points="441.7023,209.5546,451.1702,208.6545,448.8329,203.2613,441.7023,209.5546" style="stroke:#000000;stroke-width:1.0;"/><text fill="#000000" font-family="sans-serif" font-size="13" lengthAdjust="spacing" textLength="135" x="455.29" y="212.0669">affiliation statements</text><text fill="#000000" font-family="sans-serif" font-size="13" lengthAdjust="spacing" textLength="23" x="609.6605" y="147.9885">0..*</text><text fill="#000000" font-family="sans-serif" font-size="13" lengthAdjust="spacing" textLength="23" x="388.5183" y="234.8524">0..*</text><!--MD5=[08193f8303ce63c6cbc57ff8816f81b7]
link Affiliation_Statement to Organisation_Unit--><path codeLine="641" d="M290.19,312.14 C189.4,332.52 52.92,367.88 24.29,414 C6,443.45 8.26,461.26 24.29,492 C45.56,532.8 91.44,560.64 126.13,576.79 " fill="none" id="Affiliation_Statement-to-Organisation_Unit" style="stroke:#A80036;stroke-width:1.0;"/><polygon fill="#A80036" points="130.73,578.9,124.211,571.5174,126.1836,576.8192,120.8817,578.7917,130.73,578.9" style="stroke:#A80036;stroke-width:1.0;"/><polygon fill="#000000" points="26.6556,457.3161,33.9192,451.1768,28.9234,448.0799,26.6556,457.3161" style="stroke:#000000;stroke-width:1.0;"/><text fill="#000000" font-family="sans-serif" font-size="13" lengthAdjust="spacing" textLength="63" x="38.29" y="457.5669">institution</text><text fill="#000000" font-family="sans-serif" font-size="13" lengthAdjust="spacing" textLength="23" x="259.2719" y="310.0459">0..*</text><text fill="#000000" font-family="sans-serif" font-size="13" lengthAdjust="spacing" textLength="8" x="107.7563" y="567.8772">1</text><!--MD5=[08193f8303ce63c6cbc57ff8816f81b7]
link Affiliation_Statement to Organisation_Unit--><path codeLine="642" d="M290.29,320.59 C242.14,338.82 190.53,368.04 162.29,414 C131.38,464.29 150.39,538.25 162.52,573.66 " fill="none" id="Affiliation_Statement-to-Organisation_Unit-1" style="stroke:#A80036;stroke-width:1.0;"/><polygon fill="#A80036" points="164.25,578.59,165.039,568.7728,162.5919,573.8729,157.4917,571.4258,164.25,578.59" style="stroke:#A80036;stroke-width:1.0;"/><polygon fill="#000000" points="165.0365,457.5298,171.7366,450.78,166.4896,448.1309,165.0365,457.5298" style="stroke:#000000;stroke-width:1.0;"/><text fill="#000000" font-family="sans-serif" font-size="13" lengthAdjust="spacing" textLength="107" x="176.29" y="457.5669">organisation unit</text><text fill="#000000" font-family="sans-serif" font-size="13" lengthAdjust="spacing" textLength="23" x="259.3783" y="334.9982">0..*</text><text fill="#000000" font-family="sans-serif" font-size="13" lengthAdjust="spacing" textLength="24" x="134.4998" y="568.0567">0..1</text><!--MD5=[df6fa22554e93164629bbf1a9b0c08c4]
link Affiliation_Statement to Person--><path codeLine="643" d="M407.35,337.35 C410.1,361.68 413.45,391.41 416.06,414.49 " fill="none" id="Affiliation_Statement-to-Person" style="stroke:#A80036;stroke-width:1.0;"/><polygon fill="#A80036" points="416.63,419.61,419.6028,410.2205,416.0731,414.6411,411.6525,411.1115,416.63,419.61" style="stroke:#A80036;stroke-width:1.0;"/><polygon fill="#000000" points="418.851,380.5348,420.7565,371.2171,414.9158,371.8766,418.851,380.5348" style="stroke:#000000;stroke-width:1.0;"/><text fill="#000000" font-family="sans-serif" font-size="13" lengthAdjust="spacing" textLength="44" x="427.29" y="380.0669">person</text><text fill="#000000" font-family="sans-serif" font-size="13" lengthAdjust="spacing" textLength="23" x="383.4041" y="357.2464">0..*</text><text fill="#000000" font-family="sans-serif" font-size="13" lengthAdjust="spacing" textLength="24" x="389.6448" y="408.9321">0..1</text><!--MD5=[2a2c915aed06e700207697e5d540b8a4]
@startuml

    !includesub core.puml!common
    !includesub core.puml!Agent
    !includesub core.puml!Activity
    !includesub core.puml!Membership
    !includesub core.puml!Person
    !includesub core.puml!Group
    !includesub core.puml!Organisation_Unit
    !includesub core.puml!Organisation_Unit_with_Members
    !includesub core.puml!Group_or_Organisation_Unit
    !includesub core.puml!Involvement
    !includesub core.puml!Affiliation_Statement

@enduml

@startuml

    hide empty members
    skinparam BoxPadding 120
    class "Agent" #ffffff {
        keywords : List<Multilingual_String>
    	lifetime : Date_Range
    	contacts : List<Contact_Information>
    }
    "Agent" ..> "Date_Range"
    "Agent" ..> "0..*" "Contact_Information"
    class "Activity" #ffffff {
  		dateRange : Date_Range
    }
	"Document" "0..*" - - "0..*" "Activity" : prove >
    "Activity" "0..*" - -> "0..1" "Agent" : actor >
	"Activity" ..> "Date_Range"
    class "Membership" #ffffff {
    }
    "Involvement" <|-d- "Membership"
    class "Person" #ffffff {
        name            : Person_Name
        alternateNames  : List<Person_Name>
    }
    "Agent" <|- - "Person"
    class Person_Name << (D,#add0b2) DataType>> #ffffff {
        firstNames : Multilingual_String
        familyNames : Multilingual_String
        otherNames : Multilingual_String
    }
    "Person" ..> "Person_Name"
    class "Group" #ffffff {
    }
	"Group_or_Organisation_Unit" <|- - "Group"
	"Group" "0..* part of" <..> "0..* parts" "Group"
    class "Organisation_Unit" #ffffff {
    }
	"Group_or_Organisation_Unit" <|- - "Organisation_Unit"
	"Organisation_Unit" "0..* part of" <..> "0..* parts" "Organisation_Unit"
    class "Organisation_Unit_with_Members" #ffffff {
    }
    "Group" <|- - "Organisation_Unit_with_Members"
    "Organisation_Unit" <|- - "Organisation_Unit_with_Members"
    class "Group_or_Organisation_Unit" #ffffff {
        name : Multilingual_String
        acronym : String
        description : Multilingual_String
    }
	"Agent" <|- - "Group_or_Organisation_Unit"
    class "Involvement" #ffffff {
        description : Multilingual_String
        position    : Position
    }
   "Activity" <|-d- "Involvement"
	"Involvement" "0..*" - -> "Group_or_Organisation_Unit" : involved in >
	"Involvement" "0..*" -l-> "0..*" "Affiliation_Statement" : is the foundation for >
	"Involvement" "0..*" - -> "0..1" "Involvement" : part >
	"Involvement" "0..*" - -> "0..*" "Involvement" : part transitive >
    class "Affiliation_Statement" #ffffff {
        displayAffiliation : String
        displayPersonName : String
        contacts : List<Contact_Information>
        position : Position
    }
    "Activity" "0..*" o- - "0..*" "Affiliation_Statement" : affiliation statements >
    "Affiliation_Statement" "0..*" - -> "1" "Organisation_Unit" : institution >
    "Affiliation_Statement" "0..*" - -> "0..1" "Organisation_Unit" : organisation unit >
    "Affiliation_Statement" "0..*" - -> "0..1" "Person" : person >

@enduml

PlantUML version 1.2021.8(Sat Jun 26 08:20:59 UTC 2021)
(GPL source distribution)
Java Runtime: OpenJDK Runtime Environment
JVM: OpenJDK 64-Bit Server VM
Default Encoding: UTF-8
Language: en
Country: null
--></g></svg>