<?xml version="1.0" encoding="UTF-8" standalone="no"?><svg xmlns="http://www.w3.org/2000/svg" xmlns:xlink="http://www.w3.org/1999/xlink" contentScriptType="application/ecmascript" contentStyleType="text/css" height="765px" preserveAspectRatio="none" style="width:965px;height:765px;background:#FFFFFF;" version="1.1" viewBox="0 0 965 765" width="965px" zoomAndPan="magnify"><defs><filter height="300%" id="fjpdrwtl7dihp" width="300%" x="-1" y="-1"><feGaussianBlur result="blurOut" stdDeviation="2.0"/><feColorMatrix in="blurOut" result="blurOut2" type="matrix" values="0 0 0 0 0 0 0 0 0 0 0 0 0 0 0 0 0 0 .4 0"/><feOffset dx="4.0" dy="4.0" in="blurOut2" result="blurOut3"/><feBlend in="SourceGraphic" in2="blurOut3" mode="normal"/></filter></defs><g><!--MD5=[9d44916250b776386006c440668bcfbb]
class Agent--><rect codeLine="10" fill="#FFFFFF" filter="url(#fjpdrwtl7dihp)" height="52.8047" id="Agent" style="stroke:#A80036;stroke-width:1.5;" width="133" x="742" y="265"/><ellipse cx="785.8" cy="281" fill="#ADD1B2" rx="11" ry="11" style="stroke:#A80036;stroke-width:1.0;"/><path d="M788.7688,286.6406 Q788.1906,286.9375 787.55,287.0781 Q786.9094,287.2344 786.2063,287.2344 Q783.7063,287.2344 782.3781,285.5938 Q781.0656,283.9375 781.0656,280.8125 Q781.0656,277.6875 782.3781,276.0313 Q783.7063,274.375 786.2063,274.375 Q786.9094,274.375 787.55,274.5313 Q788.2063,274.6875 788.7688,274.9844 L788.7688,277.7031 Q788.1438,277.125 787.55,276.8594 Q786.9563,276.5781 786.3313,276.5781 Q784.9875,276.5781 784.3,277.6563 Q783.6125,278.7188 783.6125,280.8125 Q783.6125,282.9063 784.3,283.9844 Q784.9875,285.0469 786.3313,285.0469 Q786.9563,285.0469 787.55,284.7813 Q788.1438,284.5 788.7688,283.9219 L788.7688,286.6406 Z " fill="#000000"/><text fill="#000000" font-family="sans-serif" font-size="12" lengthAdjust="spacing" textLength="37" x="806.2" y="285.1543">Agent</text><line style="stroke:#A80036;stroke-width:1.5;" x1="743" x2="874" y1="297" y2="297"/><text fill="#000000" font-family="sans-serif" font-size="11" lengthAdjust="spacing" textLength="121" x="748" y="311.2104">lifetime : Date_Range</text><!--MD5=[c881b25adf3665c6568c9693d41a70f3]
class Activity--><rect codeLine="91" fill="#FFFFFF" filter="url(#fjpdrwtl7dihp)" height="52.8047" id="Activity" style="stroke:#A80036;stroke-width:1.5;" width="151" x="377" y="116"/><ellipse cx="426.75" cy="132" fill="#ADD1B2" rx="11" ry="11" style="stroke:#A80036;stroke-width:1.0;"/><path d="M429.7188,137.6406 Q429.1406,137.9375 428.5,138.0781 Q427.8594,138.2344 427.1563,138.2344 Q424.6563,138.2344 423.3281,136.5938 Q422.0156,134.9375 422.0156,131.8125 Q422.0156,128.6875 423.3281,127.0313 Q424.6563,125.375 427.1563,125.375 Q427.8594,125.375 428.5,125.5313 Q429.1563,125.6875 429.7188,125.9844 L429.7188,128.7031 Q429.0938,128.125 428.5,127.8594 Q427.9063,127.5781 427.2813,127.5781 Q425.9375,127.5781 425.25,128.6563 Q424.5625,129.7188 424.5625,131.8125 Q424.5625,133.9063 425.25,134.9844 Q425.9375,136.0469 427.2813,136.0469 Q427.9063,136.0469 428.5,135.7813 Q429.0938,135.5 429.7188,134.9219 L429.7188,137.6406 Z " fill="#000000"/><text fill="#000000" font-family="sans-serif" font-size="12" lengthAdjust="spacing" textLength="43" x="447.25" y="136.1543">Activity</text><line style="stroke:#A80036;stroke-width:1.5;" x1="378" x2="527" y1="148" y2="148"/><text fill="#000000" font-family="sans-serif" font-size="11" lengthAdjust="spacing" textLength="139" x="383" y="162.2104">dateRange : Date_Range</text><!--MD5=[59b530d44ae785dc18db921986a9c15c]
class Document--><rect fill="#FEFECE" filter="url(#fjpdrwtl7dihp)" height="32" id="Document" style="stroke:#A80036;stroke-width:1.5;" width="96" x="404.5" y="7"/><ellipse cx="419.5" cy="23" fill="#ADD1B2" rx="11" ry="11" style="stroke:#A80036;stroke-width:1.0;"/><path d="M422.4688,28.6406 Q421.8906,28.9375 421.25,29.0781 Q420.6094,29.2344 419.9063,29.2344 Q417.4063,29.2344 416.0781,27.5938 Q414.7656,25.9375 414.7656,22.8125 Q414.7656,19.6875 416.0781,18.0313 Q417.4063,16.375 419.9063,16.375 Q420.6094,16.375 421.25,16.5313 Q421.9063,16.6875 422.4688,16.9844 L422.4688,19.7031 Q421.8438,19.125 421.25,18.8594 Q420.6563,18.5781 420.0313,18.5781 Q418.6875,18.5781 418,19.6563 Q417.3125,20.7188 417.3125,22.8125 Q417.3125,24.9063 418,25.9844 Q418.6875,27.0469 420.0313,27.0469 Q420.6563,27.0469 421.25,26.7813 Q421.8438,26.5 422.4688,25.9219 L422.4688,28.6406 Z " fill="#000000"/><text fill="#000000" font-family="sans-serif" font-size="12" lengthAdjust="spacing" textLength="64" x="433.5" y="27.1543">Document</text><!--MD5=[77463bb17ddcfe3891c27a1f4a877731]
class Membership--><rect codeLine="124" fill="#FFFFFF" filter="url(#fjpdrwtl7dihp)" height="32" id="Membership" style="stroke:#A80036;stroke-width:1.5;" width="108" x="389.5" y="431"/><ellipse cx="404.5" cy="447" fill="#ADD1B2" rx="11" ry="11" style="stroke:#A80036;stroke-width:1.0;"/><path d="M407.4688,452.6406 Q406.8906,452.9375 406.25,453.0781 Q405.6094,453.2344 404.9063,453.2344 Q402.4063,453.2344 401.0781,451.5938 Q399.7656,449.9375 399.7656,446.8125 Q399.7656,443.6875 401.0781,442.0313 Q402.4063,440.375 404.9063,440.375 Q405.6094,440.375 406.25,440.5313 Q406.9063,440.6875 407.4688,440.9844 L407.4688,443.7031 Q406.8438,443.125 406.25,442.8594 Q405.6563,442.5781 405.0313,442.5781 Q403.6875,442.5781 403,443.6563 Q402.3125,444.7188 402.3125,446.8125 Q402.3125,448.9063 403,449.9844 Q403.6875,451.0469 405.0313,451.0469 Q405.6563,451.0469 406.25,450.7813 Q406.8438,450.5 407.4688,449.9219 L407.4688,452.6406 Z " fill="#000000"/><text fill="#000000" font-family="sans-serif" font-size="12" lengthAdjust="spacing" textLength="76" x="418.5" y="451.1543">Membership</text><!--MD5=[6a029e66987f6edc98a50822cc78695f]
class Involvement--><rect codeLine="97" fill="#FFFFFF" filter="url(#fjpdrwtl7dihp)" height="32" id="Involvement" style="stroke:#A80036;stroke-width:1.5;" width="106" x="399.5" y="275.5"/><ellipse cx="414.5" cy="291.5" fill="#ADD1B2" rx="11" ry="11" style="stroke:#A80036;stroke-width:1.0;"/><path d="M417.4688,297.1406 Q416.8906,297.4375 416.25,297.5781 Q415.6094,297.7344 414.9063,297.7344 Q412.4063,297.7344 411.0781,296.0938 Q409.7656,294.4375 409.7656,291.3125 Q409.7656,288.1875 411.0781,286.5313 Q412.4063,284.875 414.9063,284.875 Q415.6094,284.875 416.25,285.0313 Q416.9063,285.1875 417.4688,285.4844 L417.4688,288.2031 Q416.8438,287.625 416.25,287.3594 Q415.6563,287.0781 415.0313,287.0781 Q413.6875,287.0781 413,288.1563 Q412.3125,289.2188 412.3125,291.3125 Q412.3125,293.4063 413,294.4844 Q413.6875,295.5469 415.0313,295.5469 Q415.6563,295.5469 416.25,295.2813 Q416.8438,295 417.4688,294.4219 L417.4688,297.1406 Z " fill="#000000"/><text fill="#000000" font-family="sans-serif" font-size="12" lengthAdjust="spacing" textLength="74" x="428.5" y="295.6543">Involvement</text><!--MD5=[09ce52be0ee7de43c61b6e2d59bf108b]
class Person--><rect codeLine="16" fill="#FFFFFF" filter="url(#fjpdrwtl7dihp)" height="65.6094" id="Person" style="stroke:#A80036;stroke-width:1.5;" width="135" x="779" y="414"/><ellipse cx="820.55" cy="430" fill="#ADD1B2" rx="11" ry="11" style="stroke:#A80036;stroke-width:1.0;"/><path d="M823.5188,435.6406 Q822.9406,435.9375 822.3,436.0781 Q821.6594,436.2344 820.9563,436.2344 Q818.4563,436.2344 817.1281,434.5938 Q815.8156,432.9375 815.8156,429.8125 Q815.8156,426.6875 817.1281,425.0313 Q818.4563,423.375 820.9563,423.375 Q821.6594,423.375 822.3,423.5313 Q822.9563,423.6875 823.5188,423.9844 L823.5188,426.7031 Q822.8938,426.125 822.3,425.8594 Q821.7063,425.5781 821.0813,425.5781 Q819.7375,425.5781 819.05,426.6563 Q818.3625,427.7188 818.3625,429.8125 Q818.3625,431.9063 819.05,432.9844 Q819.7375,434.0469 821.0813,434.0469 Q821.7063,434.0469 822.3,433.7813 Q822.8938,433.5 823.5188,432.9219 L823.5188,435.6406 Z " fill="#000000"/><text fill="#000000" font-family="sans-serif" font-size="12" lengthAdjust="spacing" textLength="44" x="840.45" y="434.1543">Person</text><line style="stroke:#A80036;stroke-width:1.5;" x1="780" x2="913" y1="446" y2="446"/><text fill="#000000" font-family="sans-serif" font-size="11" lengthAdjust="spacing" textLength="123" x="785" y="460.2104">name : Person_Name</text><text fill="#000000" font-family="sans-serif" font-size="11" lengthAdjust="spacing" textLength="102" x="785" y="473.0151">orcidId : ORCID_iD</text><!--MD5=[7b209ef07eb91b93e0aebc9fe4fb9a26]
class Person_Name--><rect codeLine="27" fill="#FFFFFF" filter="url(#fjpdrwtl7dihp)" height="84.3516" id="Person_Name" style="stroke:#A80036;stroke-width:1.5;" width="201" x="750" y="557.5"/><ellipse cx="803.25" cy="576.4688" fill="#ADD0B2" rx="11" ry="11" style="stroke:#A80036;stroke-width:1.0;"/><path d="M802.8438,572.2813 L802.8438,580.2656 L803.5,580.2656 Q804.9375,580.2656 805.5469,579.3594 Q806.1719,578.4375 806.1719,576.2656 Q806.1719,574.0938 805.5469,573.1875 Q804.9375,572.2813 803.5,572.2813 L802.8438,572.2813 Z M800.3906,570.0781 L803.0156,570.0781 Q806.0469,570.0781 807.375,571.5313 Q808.7188,572.9688 808.7188,576.2656 Q808.7188,579.5625 807.375,581.0156 Q806.0469,582.4688 803.0156,582.4688 L800.3906,582.4688 L800.3906,570.0781 Z " fill="#000000"/><text fill="#000000" font-family="sans-serif" font-size="12" font-style="italic" lengthAdjust="spacing" textLength="74" x="829.75" y="573.6387">«DataType»</text><text fill="#000000" font-family="sans-serif" font-size="12" lengthAdjust="spacing" textLength="86" x="823.75" y="587.6074">Person_Name</text><line style="stroke:#A80036;stroke-width:1.5;" x1="751" x2="950" y1="595.4375" y2="595.4375"/><text fill="#000000" font-family="sans-serif" font-size="11" lengthAdjust="spacing" textLength="178" x="756" y="609.6479">firstNames : Multilingual_String</text><text fill="#000000" font-family="sans-serif" font-size="11" lengthAdjust="spacing" textLength="189" x="756" y="622.4526">familyNames : Multilingual_String</text><text fill="#000000" font-family="sans-serif" font-size="11" lengthAdjust="spacing" textLength="185" x="756" y="635.2573">otherNames : Multilingual_String</text><!--MD5=[41314a0efc36828092cff9ebad2fcafd]
class Group--><rect codeLine="52" fill="#FFFFFF" filter="url(#fjpdrwtl7dihp)" height="32" id="Group" style="stroke:#A80036;stroke-width:1.5;" width="70" x="450.5" y="583.5"/><ellipse cx="465.5" cy="599.5" fill="#ADD1B2" rx="11" ry="11" style="stroke:#A80036;stroke-width:1.0;"/><path d="M468.4688,605.1406 Q467.8906,605.4375 467.25,605.5781 Q466.6094,605.7344 465.9063,605.7344 Q463.4063,605.7344 462.0781,604.0938 Q460.7656,602.4375 460.7656,599.3125 Q460.7656,596.1875 462.0781,594.5313 Q463.4063,592.875 465.9063,592.875 Q466.6094,592.875 467.25,593.0313 Q467.9063,593.1875 468.4688,593.4844 L468.4688,596.2031 Q467.8438,595.625 467.25,595.3594 Q466.6563,595.0781 466.0313,595.0781 Q464.6875,595.0781 464,596.1563 Q463.3125,597.2188 463.3125,599.3125 Q463.3125,601.4063 464,602.4844 Q464.6875,603.5469 466.0313,603.5469 Q466.6563,603.5469 467.25,603.2813 Q467.8438,603 468.4688,602.4219 L468.4688,605.1406 Z " fill="#000000"/><text fill="#000000" font-family="sans-serif" font-size="12" lengthAdjust="spacing" textLength="38" x="479.5" y="603.6543">Group</text><!--MD5=[affb11a45f8309443fb20b6133e8d181]
class Group_or_Organisation_Unit--><rect codeLine="43" fill="#FFFFFF" filter="url(#fjpdrwtl7dihp)" height="32" id="Group_or_Organisation_Unit" style="stroke:#A80036;stroke-width:1.5;" width="206" x="532.5" y="431"/><ellipse cx="547.5" cy="447" fill="#ADD1B2" rx="11" ry="11" style="stroke:#A80036;stroke-width:1.0;"/><path d="M550.4688,452.6406 Q549.8906,452.9375 549.25,453.0781 Q548.6094,453.2344 547.9063,453.2344 Q545.4063,453.2344 544.0781,451.5938 Q542.7656,449.9375 542.7656,446.8125 Q542.7656,443.6875 544.0781,442.0313 Q545.4063,440.375 547.9063,440.375 Q548.6094,440.375 549.25,440.5313 Q549.9063,440.6875 550.4688,440.9844 L550.4688,443.7031 Q549.8438,443.125 549.25,442.8594 Q548.6563,442.5781 548.0313,442.5781 Q546.6875,442.5781 546,443.6563 Q545.3125,444.7188 545.3125,446.8125 Q545.3125,448.9063 546,449.9844 Q546.6875,451.0469 548.0313,451.0469 Q548.6563,451.0469 549.25,450.7813 Q549.8438,450.5 550.4688,449.9219 L550.4688,452.6406 Z " fill="#000000"/><text fill="#000000" font-family="sans-serif" font-size="12" lengthAdjust="spacing" textLength="174" x="561.5" y="451.1543">Group_or_Organisation_Unit</text><!--MD5=[779f3743e425ed8a6f0bf188ddea4860]
class Organisation_Unit--><rect codeLine="61" fill="#FFFFFF" filter="url(#fjpdrwtl7dihp)" height="116.8281" id="Organisation_Unit" style="stroke:#A80036;stroke-width:1.5;" width="159" x="556" y="541"/><ellipse cx="578.2" cy="557" fill="#ADD1B2" rx="11" ry="11" style="stroke:#A80036;stroke-width:1.0;"/><path d="M581.1688,562.6406 Q580.5906,562.9375 579.95,563.0781 Q579.3094,563.2344 578.6063,563.2344 Q576.1063,563.2344 574.7781,561.5938 Q573.4656,559.9375 573.4656,556.8125 Q573.4656,553.6875 574.7781,552.0313 Q576.1063,550.375 578.6063,550.375 Q579.3094,550.375 579.95,550.5313 Q580.6063,550.6875 581.1688,550.9844 L581.1688,553.7031 Q580.5438,553.125 579.95,552.8594 Q579.3563,552.5781 578.7313,552.5781 Q577.3875,552.5781 576.7,553.6563 Q576.0125,554.7188 576.0125,556.8125 Q576.0125,558.9063 576.7,559.9844 Q577.3875,561.0469 578.7313,561.0469 Q579.3563,561.0469 579.95,560.7813 Q580.5438,560.5 581.1688,559.9219 L581.1688,562.6406 Z " fill="#000000"/><text fill="#000000" font-family="sans-serif" font-size="12" lengthAdjust="spacing" textLength="111" x="593.8" y="561.1543">Organisation_Unit</text><line style="stroke:#A80036;stroke-width:1.5;" x1="557" x2="714" y1="573" y2="573"/><text fill="#000000" font-family="sans-serif" font-size="11" lengthAdjust="spacing" textLength="147" x="562" y="587.2104">name : Multilingual_String</text><text fill="#000000" font-family="sans-serif" font-size="11" lengthAdjust="spacing" textLength="95" x="562" y="600.0151">acronym : String</text><text fill="#000000" font-family="sans-serif" font-size="11" lengthAdjust="spacing" textLength="147" x="562" y="612.8198">address : Postal_Address</text><text fill="#000000" font-family="sans-serif" font-size="11" lengthAdjust="spacing" textLength="79" x="562" y="625.6245">rorId : ROR_ID</text><text fill="#000000" font-family="sans-serif" font-size="11" lengthAdjust="spacing" textLength="96" x="562" y="638.4292">webSiteURL : URI</text><text fill="#000000" font-family="sans-serif" font-size="11" lengthAdjust="spacing" textLength="61" x="562" y="651.2339">email : URI</text><!--MD5=[dae000cba6c379e3053478bba72a741c]
class Organisation_Unit_with_Members--><rect codeLine="76" fill="#FFFFFF" filter="url(#fjpdrwtl7dihp)" height="32" id="Organisation_Unit_with_Members" style="stroke:#A80036;stroke-width:1.5;" width="237" x="441" y="719"/><ellipse cx="456" cy="735" fill="#ADD1B2" rx="11" ry="11" style="stroke:#A80036;stroke-width:1.0;"/><path d="M458.9688,740.6406 Q458.3906,740.9375 457.75,741.0781 Q457.1094,741.2344 456.4063,741.2344 Q453.9063,741.2344 452.5781,739.5938 Q451.2656,737.9375 451.2656,734.8125 Q451.2656,731.6875 452.5781,730.0313 Q453.9063,728.375 456.4063,728.375 Q457.1094,728.375 457.75,728.5313 Q458.4063,728.6875 458.9688,728.9844 L458.9688,731.7031 Q458.3438,731.125 457.75,730.8594 Q457.1563,730.5781 456.5313,730.5781 Q455.1875,730.5781 454.5,731.6563 Q453.8125,732.7188 453.8125,734.8125 Q453.8125,736.9063 454.5,737.9844 Q455.1875,739.0469 456.5313,739.0469 Q457.1563,739.0469 457.75,738.7813 Q458.3438,738.5 458.9688,737.9219 L458.9688,740.6406 Z " fill="#000000"/><text fill="#000000" font-family="sans-serif" font-size="12" lengthAdjust="spacing" textLength="205" x="470" y="739.1543">Organisation_Unit_with_Members</text><!--MD5=[ddbff00b4911ad4b77d6aa32dd14d1d7]
class Affiliation_Statement--><rect codeLine="280" fill="#FFFFFF" filter="url(#fjpdrwtl7dihp)" height="91.2188" id="Affiliation_Statement" style="stroke:#A80036;stroke-width:1.5;" width="215" x="7" y="246"/><ellipse cx="46.3" cy="262" fill="#ADD1B2" rx="11" ry="11" style="stroke:#A80036;stroke-width:1.0;"/><path d="M49.2688,267.6406 Q48.6906,267.9375 48.05,268.0781 Q47.4094,268.2344 46.7063,268.2344 Q44.2063,268.2344 42.8781,266.5938 Q41.5656,264.9375 41.5656,261.8125 Q41.5656,258.6875 42.8781,257.0313 Q44.2063,255.375 46.7063,255.375 Q47.4094,255.375 48.05,255.5313 Q48.7063,255.6875 49.2688,255.9844 L49.2688,258.7031 Q48.6438,258.125 48.05,257.8594 Q47.4563,257.5781 46.8313,257.5781 Q45.4875,257.5781 44.8,258.6563 Q44.1125,259.7188 44.1125,261.8125 Q44.1125,263.9063 44.8,264.9844 Q45.4875,266.0469 46.8313,266.0469 Q47.4563,266.0469 48.05,265.7813 Q48.6438,265.5 49.2688,264.9219 L49.2688,267.6406 Z " fill="#000000"/><text fill="#000000" font-family="sans-serif" font-size="12" lengthAdjust="spacing" textLength="129" x="65.7" y="266.1543">Affiliation_Statement</text><line style="stroke:#A80036;stroke-width:1.5;" x1="8" x2="221" y1="278" y2="278"/><text fill="#000000" font-family="sans-serif" font-size="11" lengthAdjust="spacing" textLength="203" x="13" y="292.2104">displayAffiliation_Statement : String</text><text fill="#000000" font-family="sans-serif" font-size="11" lengthAdjust="spacing" textLength="159" x="13" y="305.0151">displayPersonName : String</text><text fill="#000000" font-family="sans-serif" font-size="11" lengthAdjust="spacing" textLength="147" x="13" y="317.8198">address : Postal_Address</text><text fill="#000000" font-family="sans-serif" font-size="11" lengthAdjust="spacing" textLength="116" x="13" y="330.6245">contacts : List&lt;URI&gt;</text><!--MD5=[ff9dfe2dddb5fe4a69020d7834f0d207]
link Document to Activity--><path codeLine="169" d="M452.5,39.36 C452.5,58.77 452.5,92.45 452.5,115.8 " fill="none" id="Document-Activity" style="stroke:#A80036;stroke-width:1.0;"/><polygon fill="#000000" points="457.5,82.5664,460.4389,73.5213,454.5611,73.5213,457.5,82.5664" style="stroke:#000000;stroke-width:1.0;"/><text fill="#000000" font-family="sans-serif" font-size="13" lengthAdjust="spacing" textLength="36" x="466.5" y="82.0669">prove</text><text fill="#000000" font-family="sans-serif" font-size="13" lengthAdjust="spacing" textLength="23" x="425.8344" y="59.0534">0..*</text><text fill="#000000" font-family="sans-serif" font-size="13" lengthAdjust="spacing" textLength="23" x="426.8406" y="104.9961">0..*</text><!--MD5=[cd935cc757d29bd6a59b1252b30899e0]
link Activity to Agent--><path codeLine="175" d="M528,169.05 C583.17,188.42 659.41,216.64 724.5,246 C735.56,250.99 747.19,256.78 758.15,262.5 " fill="none" id="Activity-to-Agent" style="stroke:#A80036;stroke-width:1.0;"/><polygon fill="#A80036" points="762.81,264.95,756.7056,257.221,758.3845,262.623,752.9825,264.3019,762.81,264.95" style="stroke:#A80036;stroke-width:1.0;"/><polygon fill="#000000" points="660.1327,209.4475,652.8577,203.3216,650.6464,208.7676,660.1327,209.4475" style="stroke:#000000;stroke-width:1.0;"/><text fill="#000000" font-family="sans-serif" font-size="13" lengthAdjust="spacing" textLength="33" x="664.5" y="212.0669">actor</text><text fill="#000000" font-family="sans-serif" font-size="13" lengthAdjust="spacing" textLength="23" x="519.8" y="189.0289">0..*</text><text fill="#000000" font-family="sans-serif" font-size="13" lengthAdjust="spacing" textLength="24" x="724.7481" y="253.7572">0..1</text><!--MD5=[774ab914c44fde287bade86ae1a1d531]
reverse link Involvement to Membership--><path codeLine="129" d="M450.42,328.01 C448.51,360.51 445.78,407.03 444.39,430.78 " fill="none" id="Involvement-backto-Membership" style="stroke:#A80036;stroke-width:1.0;"/><polygon fill="none" points="443.45,327.34,451.6,307.78,457.42,328.15,443.45,327.34" style="stroke:#A80036;stroke-width:1.0;"/><!--MD5=[de96f77e660762cb21a195b4097c3876]
reverse link Agent to Person--><path codeLine="23" d="M819.67,337.63 C825.72,362.08 833.06,391.72 838.53,413.82 " fill="none" id="Agent-backto-Person" style="stroke:#A80036;stroke-width:1.0;"/><polygon fill="none" points="812.87,339.29,814.86,318.19,826.46,335.92,812.87,339.29" style="stroke:#A80036;stroke-width:1.0;"/><!--MD5=[5d8901ce694eb85aefa78b7d82d9f6f6]
link Person to Person_Name--><path codeLine="35" d="M847.36,480.29 C847.92,501.24 848.65,528.89 849.27,552.17 " fill="none" id="Person-to-Person_Name" style="stroke:#A80036;stroke-width:1.0;stroke-dasharray:7.0,7.0;"/><polygon fill="#A80036" points="849.41,557.38,853.1513,548.2694,849.2672,552.382,845.1546,548.4979,849.41,557.38" style="stroke:#A80036;stroke-width:1.0;"/><text fill="#000000" font-family="sans-serif" font-size="13" lengthAdjust="spacing" textLength="37" x="809.2878" y="546.5213">name</text><!--MD5=[ef849346ed6a9c6429a3acad43755067]
reverse link Group_or_Organisation_Unit to Group--><path codeLine="57" d="M604.46,476.83 C585.19,494.96 560.07,519.01 538.5,541 C524.81,554.96 509.75,571.41 499.2,583.13 " fill="none" id="Group_or_Organisation_Unit-backto-Group" style="stroke:#A80036;stroke-width:1.0;"/><polygon fill="none" points="599.68,471.72,619.07,463.17,609.25,481.94,599.68,471.72" style="stroke:#A80036;stroke-width:1.0;"/><!--MD5=[46aa33658a7939f97c192b82d622be7c]
reverse link Group_or_Organisation_Unit to Organisation_Unit--><path codeLine="72" d="M635.5,483.36 C635.5,500.46 635.5,521.43 635.5,540.77 " fill="none" id="Group_or_Organisation_Unit-backto-Organisation_Unit" style="stroke:#A80036;stroke-width:1.0;"/><polygon fill="none" points="628.5,483.26,635.5,463.26,642.5,483.26,628.5,483.26" style="stroke:#A80036;stroke-width:1.0;"/><!--MD5=[854899a0b21de2cb3f4d3222738c1bb3]
reverse link Group to Organisation_Unit_with_Members--><path codeLine="81" d="M503.62,633.19 C518.73,660.46 539.59,698.08 551.07,718.8 " fill="none" id="Group-backto-Organisation_Unit_with_Members" style="stroke:#A80036;stroke-width:1.0;"/><polygon fill="none" points="497.42,636.44,493.84,615.55,509.66,629.65,497.42,636.44" style="stroke:#A80036;stroke-width:1.0;"/><!--MD5=[adeab3cf6be56cae862ee063039c31ec]
reverse link Organisation_Unit to Organisation_Unit_with_Members--><path codeLine="85" d="M592.6,675.86 C583.23,692.31 574.27,708.05 568.04,719 " fill="none" id="Organisation_Unit-backto-Organisation_Unit_with_Members" style="stroke:#A80036;stroke-width:1.0;"/><polygon fill="none" points="586.63,672.2,602.61,658.28,598.8,679.12,586.63,672.2" style="stroke:#A80036;stroke-width:1.0;"/><!--MD5=[8baa0633a34be8ca6adcc4fd46743d97]
reverse link Agent to Group_or_Organisation_Unit--><path codeLine="48" d="M764.37,331.66 C727.94,363.98 678.19,408.12 652.46,430.95 " fill="none" id="Agent-backto-Group_or_Organisation_Unit" style="stroke:#A80036;stroke-width:1.0;"/><polygon fill="none" points="759.94,326.23,779.54,318.19,769.23,336.7,759.94,326.23" style="stroke:#A80036;stroke-width:1.0;"/><!--MD5=[5310b7429ef001befd0a176a00932538]
reverse link Activity to Involvement--><path codeLine="102" d="M452.5,189.38 C452.5,218.72 452.5,254.94 452.5,275.1 " fill="none" id="Activity-backto-Involvement" style="stroke:#A80036;stroke-width:1.0;"/><polygon fill="none" points="445.5,189.11,452.5,169.11,459.5,189.11,445.5,189.11" style="stroke:#A80036;stroke-width:1.0;"/><!--MD5=[3e6df519c6409dff9ecce5f5942987dd]
link Involvement to Group_or_Organisation_Unit--><path codeLine="179" d="M470.72,307.78 C504.56,336.17 577.01,396.94 613.51,427.56 " fill="none" id="Involvement-to-Group_or_Organisation_Unit" style="stroke:#A80036;stroke-width:1.0;"/><polygon fill="#A80036" points="617.36,430.78,613.0391,421.9296,613.5306,427.565,607.8952,428.0566,617.36,430.78" style="stroke:#A80036;stroke-width:1.0;"/><polygon fill="#000000" points="569.3307,378.7798,564.2897,370.7151,560.5121,375.2183,569.3307,378.7798" style="stroke:#000000;stroke-width:1.0;"/><text fill="#000000" font-family="sans-serif" font-size="13" lengthAdjust="spacing" textLength="67" x="574.5" y="380.0669">involved in</text><text fill="#000000" font-family="sans-serif" font-size="13" lengthAdjust="spacing" textLength="23" x="449.862" y="327.4479">0..*</text><!--MD5=[ec091f800280b56df8e15aaaa2e5104f]
reverse link Affiliation_Statement to Involvement--><path codeLine="598" d="M227.6,291.5 C285.61,291.5 353.53,291.5 399.43,291.5 " fill="none" id="Affiliation_Statement-backto-Involvement" style="stroke:#A80036;stroke-width:1.0;"/><polygon fill="#A80036" points="222.37,291.5,231.37,295.5,227.37,291.5,231.37,287.5,222.37,291.5" style="stroke:#A80036;stroke-width:1.0;"/><polygon fill="#000000" points="239.25,280.0664,248.2951,283.0053,248.2951,277.1275,239.25,280.0664" style="stroke:#000000;stroke-width:1.0;"/><text fill="#000000" font-family="sans-serif" font-size="13" lengthAdjust="spacing" textLength="128" x="253.25" y="284.5669">is the foundation for</text><text fill="#000000" font-family="sans-serif" font-size="13" lengthAdjust="spacing" textLength="23" x="230.0171" y="304.0446">0..*</text><text fill="#000000" font-family="sans-serif" font-size="13" lengthAdjust="spacing" textLength="23" x="368.5605" y="304.4891">0..*</text><!--MD5=[eeb1986463f873db234da87eccdc590b]
link Involvement to Involvement--><path codeLine="602" d="M505.77,283.63 C524.9,283.46 540.5,286.09 540.5,291.5 C540.5,296.41 527.69,299.02 511.05,299.34 " fill="none" id="Involvement-to-Involvement" style="stroke:#A80036;stroke-width:1.0;"/><polygon fill="#A80036" points="505.77,299.37,514.7927,303.3185,510.7699,299.3414,514.747,295.3186,505.77,299.37" style="stroke:#A80036;stroke-width:1.0;"/><polygon fill="#000000" points="545.4556,296.5662,548.4748,287.5476,542.5971,287.4954,545.4556,296.5662" style="stroke:#000000;stroke-width:1.0;"/><text fill="#000000" font-family="sans-serif" font-size="13" lengthAdjust="spacing" textLength="26" x="559.5" y="296.0669">part</text><text fill="#000000" font-family="sans-serif" font-size="13" lengthAdjust="spacing" textLength="23" x="513.6638" y="295.6599">0..*</text><text fill="#000000" font-family="sans-serif" font-size="13" lengthAdjust="spacing" textLength="24" x="513.3168" y="313.2217">0..1</text><!--MD5=[eeb1986463f873db234da87eccdc590b]
link Involvement to Involvement--><path codeLine="606" d="M505.79,277.61 C547.26,272.76 591.5,277.39 591.5,291.5 C591.5,305 550.98,309.82 511.15,305.96 " fill="none" id="Involvement-to-Involvement-1" style="stroke:#A80036;stroke-width:1.0;"/><polygon fill="#A80036" points="505.79,305.39,514.3167,310.3191,510.762,305.9186,515.1625,302.364,505.79,305.39" style="stroke:#A80036;stroke-width:1.0;"/><polygon fill="#000000" points="595.9192,296.5326,599.8889,287.8901,594.0508,287.2073,595.9192,296.5326" style="stroke:#000000;stroke-width:1.0;"/><text fill="#000000" font-family="sans-serif" font-size="13" lengthAdjust="spacing" textLength="89" x="610.5" y="296.0669">part transitive</text><text fill="#000000" font-family="sans-serif" font-size="13" lengthAdjust="spacing" textLength="23" x="513.6863" y="272.0781">0..*</text><text fill="#000000" font-family="sans-serif" font-size="13" lengthAdjust="spacing" textLength="23" x="502.1179" y="327.3805">0..*</text><!--MD5=[335bc652314d68e20c6b9db39c8a9e92]
reverse link Activity to Affiliation_Statement--><path codeLine="413" d="M381.55,174.36 C333.86,195.1 270.25,222.76 217.07,245.89 " fill="none" id="Activity-backto-Affiliation_Statement" style="stroke:#A80036;stroke-width:1.0;"/><polygon fill="#FFFFFF" points="393.62,169.11,386.5222,167.8369,382.617,173.8991,389.7149,175.1722,393.62,169.11" style="stroke:#A80036;stroke-width:1.0;"/><polygon fill="#000000" points="324.9148,209.5604,334.3815,208.6483,332.0374,203.2581,324.9148,209.5604" style="stroke:#000000;stroke-width:1.0;"/><text fill="#000000" font-family="sans-serif" font-size="13" lengthAdjust="spacing" textLength="61" x="338.5" y="212.0669">affilations</text><text fill="#000000" font-family="sans-serif" font-size="13" lengthAdjust="spacing" textLength="23" x="355.2244" y="188.6743">0..*</text><text fill="#000000" font-family="sans-serif" font-size="13" lengthAdjust="spacing" textLength="23" x="208.0151" y="234.8178">0..*</text><!--MD5=[adaff05375f24b68df81cfa09fd92835]
@startuml

    !includesub core.puml!common
    !includesub core.puml!Agent
    !includesub core.puml!Activity
    !includesub core.puml!Membership
    !includesub core.puml!Person
    !includesub core.puml!Group
    !includesub core.puml!Organisation_Unit
    !includesub core.puml!Organisation_Unit_with_Members
    !includesub core.puml!Group_or_Organisation_Unit
    !includesub core.puml!Involvement
    !includesub core.puml!Affiliation_Statement

@enduml

@startuml

    hide empty members
    skinparam BoxPadding 120
    class "Agent" #ffffff {
    	lifetime : Date_Range
    }
    class "Activity" #ffffff {
  		dateRange : Date_Range
    }
	"Document" "0..*" - - "0..*" "Activity" : prove >
    "Activity" "0..*" - -> "0..1" "Agent" : actor >
    class "Membership" #ffffff {
    }
    "Involvement" <|- - "Membership"
    class "Person" #ffffff {
        name : Person_Name
        orcidId : ORCID_iD
    }
    "Agent" <|- - "Person"
    class Person_Name << (D,#add0b2) DataType>> #ffffff {
        firstNames : Multilingual_String
        familyNames : Multilingual_String
        otherNames : Multilingual_String
    }
    "Person" ..> "name" "Person_Name"
    class "Group" #ffffff {
    }
	"Group_or_Organisation_Unit" <|- - "Group"
    class "Organisation_Unit" #ffffff {
        name : Multilingual_String
        acronym : String
        address : Postal_Address
        rorId : ROR_ID
        webSiteURL : URI
        email : URI
    }
	"Group_or_Organisation_Unit" <|- - "Organisation_Unit"
    class "Organisation_Unit_with_Members" #ffffff {
    }
    "Group" <|- - "Organisation_Unit_with_Members"
    "Organisation_Unit" <|- - "Organisation_Unit_with_Members"
    class "Group_or_Organisation_Unit" #ffffff {
    }
	"Agent" <|- - "Group_or_Organisation_Unit"
    class "Involvement" #ffffff {
    }
    "Activity" <|- - "Involvement"
	"Involvement" "0..*" - -> "Group_or_Organisation_Unit" : involved in >
	"Involvement" "0..*" -l-> "0..*" "Affiliation_Statement" : is the foundation for >
	"Involvement" "0..*" - -> "0..1" "Involvement" : part >
	"Involvement" "0..*" - -> "0..*" "Involvement" : part transitive >
    class "Affiliation_Statement" #ffffff {
        displayAffiliation_Statement : String
        displayPersonName : String
        address : Postal_Address
        contacts : List<URI>
    }
    "Activity" "0..*" o- - "0..*" "Affiliation_Statement" : affilations >

@enduml

PlantUML version 1.2021.8(Sat Jun 26 08:20:59 UTC 2021)
(GPL source distribution)
Java Runtime: OpenJDK Runtime Environment
JVM: OpenJDK 64-Bit Server VM
Default Encoding: UTF-8
Language: en
Country: null
--></g></svg>