<?xml version="1.0" encoding="UTF-8" standalone="no"?><svg xmlns="http://www.w3.org/2000/svg" xmlns:xlink="http://www.w3.org/1999/xlink" contentScriptType="application/ecmascript" contentStyleType="text/css" height="731px" preserveAspectRatio="none" style="width:949px;height:731px;background:#FFFFFF;" version="1.1" viewBox="0 0 949 731" width="949px" zoomAndPan="magnify"><defs><filter height="300%" id="frw7zilgjs4e0" width="300%" x="-1" y="-1"><feGaussianBlur result="blurOut" stdDeviation="2.0"/><feColorMatrix in="blurOut" result="blurOut2" type="matrix" values="0 0 0 0 0 0 0 0 0 0 0 0 0 0 0 0 0 0 .4 0"/><feOffset dx="4.0" dy="4.0" in="blurOut2" result="blurOut3"/><feBlend in="SourceGraphic" in2="blurOut3" mode="normal"/></filter></defs><g><!--MD5=[9d44916250b776386006c440668bcfbb]
class Agent--><rect codeLine="10" fill="#FFFFFF" filter="url(#frw7zilgjs4e0)" height="78.4141" id="Agent" style="stroke:#A80036;stroke-width:1.5;" width="224" x="266" y="246"/><ellipse cx="355.25" cy="262" fill="#ADD1B2" rx="11" ry="11" style="stroke:#A80036;stroke-width:1.0;"/><path d="M358.2188,267.6406 Q357.6406,267.9375 357,268.0781 Q356.3594,268.2344 355.6563,268.2344 Q353.1563,268.2344 351.8281,266.5938 Q350.5156,264.9375 350.5156,261.8125 Q350.5156,258.6875 351.8281,257.0313 Q353.1563,255.375 355.6563,255.375 Q356.3594,255.375 357,255.5313 Q357.6563,255.6875 358.2188,255.9844 L358.2188,258.7031 Q357.5938,258.125 357,257.8594 Q356.4063,257.5781 355.7813,257.5781 Q354.4375,257.5781 353.75,258.6563 Q353.0625,259.7188 353.0625,261.8125 Q353.0625,263.9063 353.75,264.9844 Q354.4375,266.0469 355.7813,266.0469 Q356.4063,266.0469 357,265.7813 Q357.5938,265.5 358.2188,264.9219 L358.2188,267.6406 Z " fill="#000000"/><text fill="#000000" font-family="sans-serif" font-size="12" lengthAdjust="spacing" textLength="37" x="375.75" y="266.1543">Agent</text><line style="stroke:#A80036;stroke-width:1.5;" x1="267" x2="489" y1="278" y2="278"/><text fill="#000000" font-family="sans-serif" font-size="11" lengthAdjust="spacing" textLength="207" x="272" y="292.2104">keywords : List&lt;Multilingual_String&gt;</text><text fill="#000000" font-family="sans-serif" font-size="11" lengthAdjust="spacing" textLength="121" x="272" y="305.0151">lifetime : Date_Range</text><text fill="#000000" font-family="sans-serif" font-size="11" lengthAdjust="spacing" textLength="212" x="272" y="317.8198">contacts : List&lt;Contact_Information&gt;</text><!--MD5=[a0318ef586937002b2555963e2a1f4ad]
class Contact_Information--><rect fill="#FEFECE" filter="url(#frw7zilgjs4e0)" height="32" id="Contact_Information" style="stroke:#A80036;stroke-width:1.5;" width="158" x="29" y="424"/><ellipse cx="44" cy="440" fill="#ADD1B2" rx="11" ry="11" style="stroke:#A80036;stroke-width:1.0;"/><path d="M46.9688,445.6406 Q46.3906,445.9375 45.75,446.0781 Q45.1094,446.2344 44.4063,446.2344 Q41.9063,446.2344 40.5781,444.5938 Q39.2656,442.9375 39.2656,439.8125 Q39.2656,436.6875 40.5781,435.0313 Q41.9063,433.375 44.4063,433.375 Q45.1094,433.375 45.75,433.5313 Q46.4063,433.6875 46.9688,433.9844 L46.9688,436.7031 Q46.3438,436.125 45.75,435.8594 Q45.1563,435.5781 44.5313,435.5781 Q43.1875,435.5781 42.5,436.6563 Q41.8125,437.7188 41.8125,439.8125 Q41.8125,441.9063 42.5,442.9844 Q43.1875,444.0469 44.5313,444.0469 Q45.1563,444.0469 45.75,443.7813 Q46.3438,443.5 46.9688,442.9219 L46.9688,445.6406 Z " fill="#000000"/><text fill="#000000" font-family="sans-serif" font-size="12" lengthAdjust="spacing" textLength="126" x="58" y="444.1543">Contact_Information</text><!--MD5=[c881b25adf3665c6568c9693d41a70f3]
class Activity--><rect codeLine="144" fill="#FFFFFF" filter="url(#frw7zilgjs4e0)" height="52.8047" id="Activity" style="stroke:#A80036;stroke-width:1.5;" width="151" x="338.5" y="116"/><ellipse cx="388.25" cy="132" fill="#ADD1B2" rx="11" ry="11" style="stroke:#A80036;stroke-width:1.0;"/><path d="M391.2188,137.6406 Q390.6406,137.9375 390,138.0781 Q389.3594,138.2344 388.6563,138.2344 Q386.1563,138.2344 384.8281,136.5938 Q383.5156,134.9375 383.5156,131.8125 Q383.5156,128.6875 384.8281,127.0313 Q386.1563,125.375 388.6563,125.375 Q389.3594,125.375 390,125.5313 Q390.6563,125.6875 391.2188,125.9844 L391.2188,128.7031 Q390.5938,128.125 390,127.8594 Q389.4063,127.5781 388.7813,127.5781 Q387.4375,127.5781 386.75,128.6563 Q386.0625,129.7188 386.0625,131.8125 Q386.0625,133.9063 386.75,134.9844 Q387.4375,136.0469 388.7813,136.0469 Q389.4063,136.0469 390,135.7813 Q390.5938,135.5 391.2188,134.9219 L391.2188,137.6406 Z " fill="#000000"/><text fill="#000000" font-family="sans-serif" font-size="12" lengthAdjust="spacing" textLength="43" x="408.75" y="136.1543">Activity</text><line style="stroke:#A80036;stroke-width:1.5;" x1="339.5" x2="488.5" y1="148" y2="148"/><text fill="#000000" font-family="sans-serif" font-size="11" lengthAdjust="spacing" textLength="139" x="344.5" y="162.2104">dateRange : Date_Range</text><!--MD5=[59b530d44ae785dc18db921986a9c15c]
class Document--><rect fill="#FEFECE" filter="url(#frw7zilgjs4e0)" height="32" id="Document" style="stroke:#A80036;stroke-width:1.5;" width="96" x="366" y="7"/><ellipse cx="381" cy="23" fill="#ADD1B2" rx="11" ry="11" style="stroke:#A80036;stroke-width:1.0;"/><path d="M383.9688,28.6406 Q383.3906,28.9375 382.75,29.0781 Q382.1094,29.2344 381.4063,29.2344 Q378.9063,29.2344 377.5781,27.5938 Q376.2656,25.9375 376.2656,22.8125 Q376.2656,19.6875 377.5781,18.0313 Q378.9063,16.375 381.4063,16.375 Q382.1094,16.375 382.75,16.5313 Q383.4063,16.6875 383.9688,16.9844 L383.9688,19.7031 Q383.3438,19.125 382.75,18.8594 Q382.1563,18.5781 381.5313,18.5781 Q380.1875,18.5781 379.5,19.6563 Q378.8125,20.7188 378.8125,22.8125 Q378.8125,24.9063 379.5,25.9844 Q380.1875,27.0469 381.5313,27.0469 Q382.1563,27.0469 382.75,26.7813 Q383.3438,26.5 383.9688,25.9219 L383.9688,28.6406 Z " fill="#000000"/><text fill="#000000" font-family="sans-serif" font-size="12" lengthAdjust="spacing" textLength="64" x="395" y="27.1543">Document</text><!--MD5=[77463bb17ddcfe3891c27a1f4a877731]
class Membership--><rect codeLine="178" fill="#FFFFFF" filter="url(#frw7zilgjs4e0)" height="32" id="Membership" style="stroke:#A80036;stroke-width:1.5;" width="108" x="734" y="424"/><ellipse cx="749" cy="440" fill="#ADD1B2" rx="11" ry="11" style="stroke:#A80036;stroke-width:1.0;"/><path d="M751.9688,445.6406 Q751.3906,445.9375 750.75,446.0781 Q750.1094,446.2344 749.4063,446.2344 Q746.9063,446.2344 745.5781,444.5938 Q744.2656,442.9375 744.2656,439.8125 Q744.2656,436.6875 745.5781,435.0313 Q746.9063,433.375 749.4063,433.375 Q750.1094,433.375 750.75,433.5313 Q751.4063,433.6875 751.9688,433.9844 L751.9688,436.7031 Q751.3438,436.125 750.75,435.8594 Q750.1563,435.5781 749.5313,435.5781 Q748.1875,435.5781 747.5,436.6563 Q746.8125,437.7188 746.8125,439.8125 Q746.8125,441.9063 747.5,442.9844 Q748.1875,444.0469 749.5313,444.0469 Q750.1563,444.0469 750.75,443.7813 Q751.3438,443.5 751.9688,442.9219 L751.9688,445.6406 Z " fill="#000000"/><text fill="#000000" font-family="sans-serif" font-size="12" lengthAdjust="spacing" textLength="76" x="763" y="444.1543">Membership</text><!--MD5=[6a029e66987f6edc98a50822cc78695f]
class Involvement--><rect codeLine="150" fill="#FFFFFF" filter="url(#frw7zilgjs4e0)" height="32" id="Involvement" style="stroke:#A80036;stroke-width:1.5;" width="106" x="525" y="269"/><ellipse cx="540" cy="285" fill="#ADD1B2" rx="11" ry="11" style="stroke:#A80036;stroke-width:1.0;"/><path d="M542.9688,290.6406 Q542.3906,290.9375 541.75,291.0781 Q541.1094,291.2344 540.4063,291.2344 Q537.9063,291.2344 536.5781,289.5938 Q535.2656,287.9375 535.2656,284.8125 Q535.2656,281.6875 536.5781,280.0313 Q537.9063,278.375 540.4063,278.375 Q541.1094,278.375 541.75,278.5313 Q542.4063,278.6875 542.9688,278.9844 L542.9688,281.7031 Q542.3438,281.125 541.75,280.8594 Q541.1563,280.5781 540.5313,280.5781 Q539.1875,280.5781 538.5,281.6563 Q537.8125,282.7188 537.8125,284.8125 Q537.8125,286.9063 538.5,287.9844 Q539.1875,289.0469 540.5313,289.0469 Q541.1563,289.0469 541.75,288.7813 Q542.3438,288.5 542.9688,287.9219 L542.9688,290.6406 Z " fill="#000000"/><text fill="#000000" font-family="sans-serif" font-size="12" lengthAdjust="spacing" textLength="74" x="554" y="289.1543">Involvement</text><!--MD5=[09ce52be0ee7de43c61b6e2d59bf108b]
class Person--><rect codeLine="22" fill="#FFFFFF" filter="url(#frw7zilgjs4e0)" height="65.6094" id="Person" style="stroke:#A80036;stroke-width:1.5;" width="236" x="222" y="407"/><ellipse cx="313.75" cy="423" fill="#ADD1B2" rx="11" ry="11" style="stroke:#A80036;stroke-width:1.0;"/><path d="M316.7188,428.6406 Q316.1406,428.9375 315.5,429.0781 Q314.8594,429.2344 314.1563,429.2344 Q311.6563,429.2344 310.3281,427.5938 Q309.0156,425.9375 309.0156,422.8125 Q309.0156,419.6875 310.3281,418.0313 Q311.6563,416.375 314.1563,416.375 Q314.8594,416.375 315.5,416.5313 Q316.1563,416.6875 316.7188,416.9844 L316.7188,419.7031 Q316.0938,419.125 315.5,418.8594 Q314.9063,418.5781 314.2813,418.5781 Q312.9375,418.5781 312.25,419.6563 Q311.5625,420.7188 311.5625,422.8125 Q311.5625,424.9063 312.25,425.9844 Q312.9375,427.0469 314.2813,427.0469 Q314.9063,427.0469 315.5,426.7813 Q316.0938,426.5 316.7188,425.9219 L316.7188,428.6406 Z " fill="#000000"/><text fill="#000000" font-family="sans-serif" font-size="12" lengthAdjust="spacing" textLength="44" x="334.25" y="427.1543">Person</text><line style="stroke:#A80036;stroke-width:1.5;" x1="223" x2="457" y1="439" y2="439"/><text fill="#000000" font-family="sans-serif" font-size="11" lengthAdjust="spacing" textLength="167" x="228" y="453.2104">name            : Person_Name</text><text fill="#000000" font-family="sans-serif" font-size="11" lengthAdjust="spacing" textLength="224" x="228" y="466.0151">alternateNames  : List&lt;Person_Name&gt;</text><!--MD5=[7b209ef07eb91b93e0aebc9fe4fb9a26]
class Person_Name--><rect codeLine="82" fill="#FFFFFF" filter="url(#frw7zilgjs4e0)" height="84.3516" id="Person_Name" style="stroke:#A80036;stroke-width:1.5;" width="201" x="239.5" y="540"/><ellipse cx="292.75" cy="558.9688" fill="#ADD0B2" rx="11" ry="11" style="stroke:#A80036;stroke-width:1.0;"/><path d="M292.3438,554.7813 L292.3438,562.7656 L293,562.7656 Q294.4375,562.7656 295.0469,561.8594 Q295.6719,560.9375 295.6719,558.7656 Q295.6719,556.5938 295.0469,555.6875 Q294.4375,554.7813 293,554.7813 L292.3438,554.7813 Z M289.8906,552.5781 L292.5156,552.5781 Q295.5469,552.5781 296.875,554.0313 Q298.2188,555.4688 298.2188,558.7656 Q298.2188,562.0625 296.875,563.5156 Q295.5469,564.9688 292.5156,564.9688 L289.8906,564.9688 L289.8906,552.5781 Z " fill="#000000"/><text fill="#000000" font-family="sans-serif" font-size="12" font-style="italic" lengthAdjust="spacing" textLength="74" x="319.25" y="556.1387">«DataType»</text><text fill="#000000" font-family="sans-serif" font-size="12" lengthAdjust="spacing" textLength="86" x="313.25" y="570.1074">Person_Name</text><line style="stroke:#A80036;stroke-width:1.5;" x1="240.5" x2="439.5" y1="577.9375" y2="577.9375"/><text fill="#000000" font-family="sans-serif" font-size="11" lengthAdjust="spacing" textLength="178" x="245.5" y="592.1479">firstNames : Multilingual_String</text><text fill="#000000" font-family="sans-serif" font-size="11" lengthAdjust="spacing" textLength="189" x="245.5" y="604.9526">familyNames : Multilingual_String</text><text fill="#000000" font-family="sans-serif" font-size="11" lengthAdjust="spacing" textLength="185" x="245.5" y="617.7573">otherNames : Multilingual_String</text><!--MD5=[41314a0efc36828092cff9ebad2fcafd]
class Group--><rect codeLine="106" fill="#FFFFFF" filter="url(#frw7zilgjs4e0)" height="32" id="Group" style="stroke:#A80036;stroke-width:1.5;" width="70" x="865" y="566"/><ellipse cx="880" cy="582" fill="#ADD1B2" rx="11" ry="11" style="stroke:#A80036;stroke-width:1.0;"/><path d="M882.9688,587.6406 Q882.3906,587.9375 881.75,588.0781 Q881.1094,588.2344 880.4063,588.2344 Q877.9063,588.2344 876.5781,586.5938 Q875.2656,584.9375 875.2656,581.8125 Q875.2656,578.6875 876.5781,577.0313 Q877.9063,575.375 880.4063,575.375 Q881.1094,575.375 881.75,575.5313 Q882.4063,575.6875 882.9688,575.9844 L882.9688,578.7031 Q882.3438,578.125 881.75,577.8594 Q881.1563,577.5781 880.5313,577.5781 Q879.1875,577.5781 878.5,578.6563 Q877.8125,579.7188 877.8125,581.8125 Q877.8125,583.9063 878.5,584.9844 Q879.1875,586.0469 880.5313,586.0469 Q881.1563,586.0469 881.75,585.7813 Q882.3438,585.5 882.9688,584.9219 L882.9688,587.6406 Z " fill="#000000"/><text fill="#000000" font-family="sans-serif" font-size="12" lengthAdjust="spacing" textLength="38" x="894" y="586.1543">Group</text><!--MD5=[affb11a45f8309443fb20b6133e8d181]
class Group_or_Organisation_Unit--><rect codeLine="94" fill="#FFFFFF" filter="url(#frw7zilgjs4e0)" height="78.4141" id="Group_or_Organisation_Unit" style="stroke:#A80036;stroke-width:1.5;" width="206" x="493" y="401"/><ellipse cx="508" cy="417" fill="#ADD1B2" rx="11" ry="11" style="stroke:#A80036;stroke-width:1.0;"/><path d="M510.9688,422.6406 Q510.3906,422.9375 509.75,423.0781 Q509.1094,423.2344 508.4063,423.2344 Q505.9063,423.2344 504.5781,421.5938 Q503.2656,419.9375 503.2656,416.8125 Q503.2656,413.6875 504.5781,412.0313 Q505.9063,410.375 508.4063,410.375 Q509.1094,410.375 509.75,410.5313 Q510.4063,410.6875 510.9688,410.9844 L510.9688,413.7031 Q510.3438,413.125 509.75,412.8594 Q509.1563,412.5781 508.5313,412.5781 Q507.1875,412.5781 506.5,413.6563 Q505.8125,414.7188 505.8125,416.8125 Q505.8125,418.9063 506.5,419.9844 Q507.1875,421.0469 508.5313,421.0469 Q509.1563,421.0469 509.75,420.7813 Q510.3438,420.5 510.9688,419.9219 L510.9688,422.6406 Z " fill="#000000"/><text fill="#000000" font-family="sans-serif" font-size="12" lengthAdjust="spacing" textLength="174" x="522" y="421.1543">Group_or_Organisation_Unit</text><line style="stroke:#A80036;stroke-width:1.5;" x1="494" x2="698" y1="433" y2="433"/><text fill="#000000" font-family="sans-serif" font-size="11" lengthAdjust="spacing" textLength="147" x="499" y="447.2104">name : Multilingual_String</text><text fill="#000000" font-family="sans-serif" font-size="11" lengthAdjust="spacing" textLength="95" x="499" y="460.0151">acronym : String</text><text fill="#000000" font-family="sans-serif" font-size="11" lengthAdjust="spacing" textLength="178" x="499" y="472.8198">description : Multilingual_String</text><!--MD5=[779f3743e425ed8a6f0bf188ddea4860]
class Organisation_Unit--><rect codeLine="115" fill="#FFFFFF" filter="url(#frw7zilgjs4e0)" height="32" id="Organisation_Unit" style="stroke:#A80036;stroke-width:1.5;" width="143" x="479.5" y="566"/><ellipse cx="494.5" cy="582" fill="#ADD1B2" rx="11" ry="11" style="stroke:#A80036;stroke-width:1.0;"/><path d="M497.4688,587.6406 Q496.8906,587.9375 496.25,588.0781 Q495.6094,588.2344 494.9063,588.2344 Q492.4063,588.2344 491.0781,586.5938 Q489.7656,584.9375 489.7656,581.8125 Q489.7656,578.6875 491.0781,577.0313 Q492.4063,575.375 494.9063,575.375 Q495.6094,575.375 496.25,575.5313 Q496.9063,575.6875 497.4688,575.9844 L497.4688,578.7031 Q496.8438,578.125 496.25,577.8594 Q495.6563,577.5781 495.0313,577.5781 Q493.6875,577.5781 493,578.6563 Q492.3125,579.7188 492.3125,581.8125 Q492.3125,583.9063 493,584.9844 Q493.6875,586.0469 495.0313,586.0469 Q495.6563,586.0469 496.25,585.7813 Q496.8438,585.5 497.4688,584.9219 L497.4688,587.6406 Z " fill="#000000"/><text fill="#000000" font-family="sans-serif" font-size="12" lengthAdjust="spacing" textLength="111" x="508.5" y="586.1543">Organisation_Unit</text><!--MD5=[dae000cba6c379e3053478bba72a741c]
class Organisation_Unit_with_Members--><rect codeLine="129" fill="#FFFFFF" filter="url(#frw7zilgjs4e0)" height="32" id="Organisation_Unit_with_Members" style="stroke:#A80036;stroke-width:1.5;" width="237" x="606.5" y="685"/><ellipse cx="621.5" cy="701" fill="#ADD1B2" rx="11" ry="11" style="stroke:#A80036;stroke-width:1.0;"/><path d="M624.4688,706.6406 Q623.8906,706.9375 623.25,707.0781 Q622.6094,707.2344 621.9063,707.2344 Q619.4063,707.2344 618.0781,705.5938 Q616.7656,703.9375 616.7656,700.8125 Q616.7656,697.6875 618.0781,696.0313 Q619.4063,694.375 621.9063,694.375 Q622.6094,694.375 623.25,694.5313 Q623.9063,694.6875 624.4688,694.9844 L624.4688,697.7031 Q623.8438,697.125 623.25,696.8594 Q622.6563,696.5781 622.0313,696.5781 Q620.6875,696.5781 620,697.6563 Q619.3125,698.7188 619.3125,700.8125 Q619.3125,702.9063 620,703.9844 Q620.6875,705.0469 622.0313,705.0469 Q622.6563,705.0469 623.25,704.7813 Q623.8438,704.5 624.4688,703.9219 L624.4688,706.6406 Z " fill="#000000"/><text fill="#000000" font-family="sans-serif" font-size="12" lengthAdjust="spacing" textLength="205" x="635.5" y="705.1543">Organisation_Unit_with_Members</text><!--MD5=[ddbff00b4911ad4b77d6aa32dd14d1d7]
class Affiliation_Statement--><rect codeLine="366" fill="#FFFFFF" filter="url(#frw7zilgjs4e0)" height="78.4141" id="Affiliation_Statement" style="stroke:#A80036;stroke-width:1.5;" width="224" x="7" y="246"/><ellipse cx="50.35" cy="262" fill="#ADD1B2" rx="11" ry="11" style="stroke:#A80036;stroke-width:1.0;"/><path d="M53.3188,267.6406 Q52.7406,267.9375 52.1,268.0781 Q51.4594,268.2344 50.7563,268.2344 Q48.2563,268.2344 46.9281,266.5938 Q45.6156,264.9375 45.6156,261.8125 Q45.6156,258.6875 46.9281,257.0313 Q48.2563,255.375 50.7563,255.375 Q51.4594,255.375 52.1,255.5313 Q52.7563,255.6875 53.3188,255.9844 L53.3188,258.7031 Q52.6938,258.125 52.1,257.8594 Q51.5063,257.5781 50.8813,257.5781 Q49.5375,257.5781 48.85,258.6563 Q48.1625,259.7188 48.1625,261.8125 Q48.1625,263.9063 48.85,264.9844 Q49.5375,266.0469 50.8813,266.0469 Q51.5063,266.0469 52.1,265.7813 Q52.6938,265.5 53.3188,264.9219 L53.3188,267.6406 Z " fill="#000000"/><text fill="#000000" font-family="sans-serif" font-size="12" lengthAdjust="spacing" textLength="129" x="70.65" y="266.1543">Affiliation_Statement</text><line style="stroke:#A80036;stroke-width:1.5;" x1="8" x2="230" y1="278" y2="278"/><text fill="#000000" font-family="sans-serif" font-size="11" lengthAdjust="spacing" textLength="203" x="13" y="292.2104">displayAffiliation_Statement : String</text><text fill="#000000" font-family="sans-serif" font-size="11" lengthAdjust="spacing" textLength="159" x="13" y="305.0151">displayPersonName : String</text><text fill="#000000" font-family="sans-serif" font-size="11" lengthAdjust="spacing" textLength="212" x="13" y="317.8198">contacts : List&lt;Contact_Information&gt;</text><!--MD5=[d43df4fbdad36fd00892352d175d5460]
link Agent to Contact_Information--><path codeLine="18" d="M310.91,324.02 C255.91,355.18 180.57,397.88 138.9,421.49 " fill="none" id="Agent-to-Contact_Information" style="stroke:#A80036;stroke-width:1.0;"/><polygon fill="#A80036" points="134.48,424,144.2805,423.0251,138.8256,421.527,140.3237,416.0721,134.48,424" style="stroke:#A80036;stroke-width:1.0;"/><polygon fill="#000000" points="252.6499,365.0314,261.9682,363.1291,259.0704,358.0152,252.6499,365.0314" style="stroke:#000000;stroke-width:1.0;"/><text fill="#000000" font-family="sans-serif" font-size="13" lengthAdjust="spacing" textLength="55" x="266" y="367.0669">contacts</text><text fill="#000000" font-family="sans-serif" font-size="13" lengthAdjust="spacing" textLength="8" x="290.2471" y="344.3482">1</text><text fill="#000000" font-family="sans-serif" font-size="13" lengthAdjust="spacing" textLength="23" x="116.6294" y="413.0116">0..*</text><!--MD5=[ff9dfe2dddb5fe4a69020d7834f0d207]
link Document to Activity--><path codeLine="223" d="M414,39.36 C414,58.77 414,92.45 414,115.8 " fill="none" id="Document-Activity" style="stroke:#A80036;stroke-width:1.0;"/><polygon fill="#000000" points="419,82.5664,421.9389,73.5213,416.0611,73.5213,419,82.5664" style="stroke:#000000;stroke-width:1.0;"/><text fill="#000000" font-family="sans-serif" font-size="13" lengthAdjust="spacing" textLength="36" x="428" y="82.0669">prove</text><text fill="#000000" font-family="sans-serif" font-size="13" lengthAdjust="spacing" textLength="23" x="387.3344" y="59.0534">0..*</text><text fill="#000000" font-family="sans-serif" font-size="13" lengthAdjust="spacing" textLength="23" x="388.3406" y="104.9961">0..*</text><!--MD5=[cd935cc757d29bd6a59b1252b30899e0]
link Activity to Agent--><path codeLine="229" d="M407.4,169.27 C402.26,189.31 395.02,217.56 389.01,241.01 " fill="none" id="Activity-to-Agent" style="stroke:#A80036;stroke-width:1.0;"/><polygon fill="#A80036" points="387.75,245.94,393.8617,238.2168,388.9929,241.0969,386.1128,236.2282,387.75,245.94" style="stroke:#A80036;stroke-width:1.0;"/><polygon fill="#000000" points="403.7584,212.4098,408.8513,204.3778,403.1576,202.9182,403.7584,212.4098" style="stroke:#000000;stroke-width:1.0;"/><text fill="#000000" font-family="sans-serif" font-size="13" lengthAdjust="spacing" textLength="33" x="414" y="212.0669">actor</text><text fill="#000000" font-family="sans-serif" font-size="13" lengthAdjust="spacing" textLength="23" x="380.4406" y="188.8693">0..*</text><text fill="#000000" font-family="sans-serif" font-size="13" lengthAdjust="spacing" textLength="24" x="363.3633" y="234.9802">0..1</text><!--MD5=[774ab914c44fde287bade86ae1a1d531]
reverse link Involvement to Membership--><path codeLine="183" d="M617.64,312.15 C636.16,324.57 658.4,339.78 678,354 C710.63,377.66 747.5,406.63 769.19,423.9 " fill="none" id="Involvement-backto-Membership" style="stroke:#A80036;stroke-width:1.0;"/><polygon fill="none" points="613.67,317.92,600.91,301.01,621.44,306.27,613.67,317.92" style="stroke:#A80036;stroke-width:1.0;"/><!--MD5=[de96f77e660762cb21a195b4097c3876]
reverse link Agent to Person--><path codeLine="78" d="M363.63,343.84 C358.32,365.22 352.5,388.68 347.96,406.95 " fill="none" id="Agent-backto-Person" style="stroke:#A80036;stroke-width:1.0;"/><polygon fill="none" points="356.89,341.94,368.51,324.21,370.48,345.31,356.89,341.94" style="stroke:#A80036;stroke-width:1.0;"/><!--MD5=[5d8901ce694eb85aefa78b7d82d9f6f6]
link Person to Person_Name--><path codeLine="90" d="M340,473.12 C340,491.43 340,514.68 340,534.91 " fill="none" id="Person-to-Person_Name" style="stroke:#A80036;stroke-width:1.0;stroke-dasharray:7.0,7.0;"/><polygon fill="#A80036" points="340,539.98,344,530.98,340,534.98,336,530.98,340,539.98" style="stroke:#A80036;stroke-width:1.0;"/><text fill="#000000" font-family="sans-serif" font-size="13" lengthAdjust="spacing" textLength="37" x="299.9359" y="528.827">name</text><!--MD5=[ef849346ed6a9c6429a3acad43755067]
reverse link Group_or_Organisation_Unit to Group--><path codeLine="111" d="M718.11,481.24 C760.15,497.13 806.74,517.11 847,540 C859.74,547.25 872.78,557.29 882.74,565.63 " fill="none" id="Group_or_Organisation_Unit-backto-Group" style="stroke:#A80036;stroke-width:1.0;"/><polygon fill="none" points="715.49,487.73,699.16,474.22,720.35,474.6,715.49,487.73" style="stroke:#A80036;stroke-width:1.0;"/><!--MD5=[46aa33658a7939f97c192b82d622be7c]
reverse link Group_or_Organisation_Unit to Organisation_Unit--><path codeLine="120" d="M577.49,498.6 C569.63,523.05 561.1,549.58 555.9,565.75 " fill="none" id="Group_or_Organisation_Unit-backto-Organisation_Unit" style="stroke:#A80036;stroke-width:1.0;"/><polygon fill="none" points="570.92,496.15,583.7,479.26,584.25,500.44,570.92,496.15" style="stroke:#A80036;stroke-width:1.0;"/><!--MD5=[f47b8cdb810f6f32f0d73f513aa4cbda]
link Organisation_Unit to Organisation_Unit--><path codeLine="124" d="M634.669,575.8044 C634.669,575.8044 657.5,578.86 657.5,582 C657.5,585.14 648.84,587.19 636.05,588.14 " fill="none" id="Organisation_Unit-Organisation_Unit" style="stroke:#A80036;stroke-width:1.0;stroke-dasharray:7.0,7.0;"/><polygon fill="#A80036" points="622.68,588.71,631.8432,592.3205,627.6754,588.4957,631.5003,584.3279,622.68,588.71" style="stroke:#A80036;stroke-width:1.0;"/><line style="stroke:#A80036;stroke-width:1.0;" x1="627.6754" x2="635.665" y1="588.4957" y2="588.155"/><polygon fill="#FFFFFF" points="622.68,575.29,628.503,579.5435,634.669,575.8044,628.8459,571.5509,622.68,575.29" style="stroke:#A80036;stroke-width:1.0;"/><polygon fill="#000000" points="663.8095,586.8919,664.277,577.3928,658.6043,578.9322,663.8095,586.8919" style="stroke:#000000;stroke-width:1.0;"/><text fill="#000000" font-family="sans-serif" font-size="13" lengthAdjust="spacing" textLength="54" x="676.5" y="586.5669">subunits</text><text fill="#000000" font-family="sans-serif" font-size="13" lengthAdjust="spacing" textLength="23" x="630.6081" y="585.7079">0..*</text><!--MD5=[f47b8cdb810f6f32f0d73f513aa4cbda]
link Organisation_Unit to Organisation_Unit--><path codeLine="125" d="M634.6211,569.1471 C634.6211,569.1471 736.5,571.13 736.5,582 C736.5,592.87 686.08,597.17 635.75,594.92 " fill="none" id="Organisation_Unit-Organisation_Unit-1" style="stroke:#A80036;stroke-width:1.0;stroke-dasharray:7.0,7.0;"/><polygon fill="#A80036" points="622.64,594.18,631.4015,598.6784,627.6321,594.4604,631.8502,590.691,622.64,594.18" style="stroke:#A80036;stroke-width:1.0;"/><line style="stroke:#A80036;stroke-width:1.0;" x1="627.6321" x2="635.615" y1="594.4604" y2="594.91"/><polygon fill="#FFFFFF" points="622.64,569.82,628.8549,573.4772,634.6211,569.1471,628.4062,565.4898,622.64,569.82" style="stroke:#A80036;stroke-width:1.0;"/><polygon fill="#000000" points="742.1258,587.0271,743.9095,577.6853,738.0779,578.421,742.1258,587.0271" style="stroke:#000000;stroke-width:1.0;"/><text fill="#000000" font-family="sans-serif" font-size="13" lengthAdjust="spacing" textLength="67" x="755.5" y="586.5669">superunits</text><text fill="#000000" font-family="sans-serif" font-size="13" lengthAdjust="spacing" textLength="23" x="630.5643" y="608.129">0..*</text><!--MD5=[854899a0b21de2cb3f4d3222738c1bb3]
reverse link Group to Organisation_Unit_with_Members--><path codeLine="134" d="M865.28,610.66 C859.26,615.22 853.01,619.82 847,624 C814.84,646.37 776.24,669.89 751.19,684.73 " fill="none" id="Group-backto-Organisation_Unit_with_Members" style="stroke:#A80036;stroke-width:1.0;"/><polygon fill="none" points="861.13,605.02,881.21,598.28,869.72,616.08,861.13,605.02" style="stroke:#A80036;stroke-width:1.0;"/><!--MD5=[adeab3cf6be56cae862ee063039c31ec]
reverse link Organisation_Unit to Organisation_Unit_with_Members--><path codeLine="138" d="M590.43,609.51 C625.02,632.77 674.08,665.76 702.42,684.82 " fill="none" id="Organisation_Unit-backto-Organisation_Unit_with_Members" style="stroke:#A80036;stroke-width:1.0;"/><polygon fill="none" points="586.08,615.03,573.39,598.06,593.89,603.41,586.08,615.03" style="stroke:#A80036;stroke-width:1.0;"/><!--MD5=[8baa0633a34be8ca6adcc4fd46743d97]
reverse link Agent to Group_or_Organisation_Unit--><path codeLine="102" d="M448.86,335.73 C479.03,356.91 513.65,381.21 541.73,400.91 " fill="none" id="Agent-backto-Group_or_Organisation_Unit" style="stroke:#A80036;stroke-width:1.0;"/><polygon fill="none" points="444.52,341.24,432.17,324.02,452.56,329.78,444.52,341.24" style="stroke:#A80036;stroke-width:1.0;"/><!--MD5=[5310b7429ef001befd0a176a00932538]
reverse link Activity to Involvement--><path codeLine="155" d="M459.51,182.49 C492.86,211.06 536.32,248.29 560.25,268.8 " fill="none" id="Activity-backto-Involvement" style="stroke:#A80036;stroke-width:1.0;"/><polygon fill="none" points="454.71,187.6,444.08,169.27,463.82,176.97,454.71,187.6" style="stroke:#A80036;stroke-width:1.0;"/><!--MD5=[3e6df519c6409dff9ecce5f5942987dd]
link Involvement to Group_or_Organisation_Unit--><path codeLine="233" d="M579.79,301.23 C582.37,323.11 587.21,364.3 590.94,395.96 " fill="none" id="Involvement-to-Group_or_Organisation_Unit" style="stroke:#A80036;stroke-width:1.0;"/><polygon fill="#A80036" points="591.52,400.96,594.4661,391.5621,590.949,395.9927,586.5184,392.4756,591.52,400.96" style="stroke:#A80036;stroke-width:1.0;"/><polygon fill="#000000" points="593.5845,367.5321,595.4459,358.2055,589.6084,358.8926,593.5845,367.5321" style="stroke:#000000;stroke-width:1.0;"/><text fill="#000000" font-family="sans-serif" font-size="13" lengthAdjust="spacing" textLength="67" x="602" y="367.0669">involved in</text><text fill="#000000" font-family="sans-serif" font-size="13" lengthAdjust="spacing" textLength="23" x="553.5736" y="321.1795">0..*</text><!--MD5=[ec091f800280b56df8e15aaaa2e5104f]
reverse link Affiliation_Statement to Involvement--><path codeLine="677" d="M168.78,242.96 C187.01,230.1 208.58,217.61 230.5,211 C291.35,192.65 310.47,202.87 373.5,211 C434.34,218.84 450.02,223.29 507,246 C522.68,252.25 539.26,261.21 552.45,268.97 " fill="none" id="Affiliation_Statement-backto-Involvement" style="stroke:#A80036;stroke-width:1.0;"/><polygon fill="#A80036" points="164.7,245.88,174.3433,243.8781,168.7609,242.963,169.6761,237.3807,164.7,245.88" style="stroke:#A80036;stroke-width:1.0;"/><polygon fill="#000000" points="230.5115,207.2282,239.337,210.7722,239.7346,204.9078,230.5115,207.2282" style="stroke:#000000;stroke-width:1.0;"/><text fill="#000000" font-family="sans-serif" font-size="13" lengthAdjust="spacing" textLength="128" x="244.5" y="212.0669">is the foundation for</text><text fill="#000000" font-family="sans-serif" font-size="13" lengthAdjust="spacing" textLength="23" x="147.5781" y="234.9099">0..*</text><text fill="#000000" font-family="sans-serif" font-size="13" lengthAdjust="spacing" textLength="23" x="516.7141" y="257.9713">0..*</text><!--MD5=[eeb1986463f873db234da87eccdc590b]
link Involvement to Involvement--><path codeLine="681" d="M631.27,277.88 C650.4,277.73 666,280.1 666,285 C666,289.44 653.19,291.8 636.55,292.09 " fill="none" id="Involvement-to-Involvement" style="stroke:#A80036;stroke-width:1.0;"/><polygon fill="#A80036" points="631.27,292.12,640.2927,296.0685,636.2699,292.0914,640.247,288.0686,631.27,292.12" style="stroke:#A80036;stroke-width:1.0;"/><polygon fill="#000000" points="670.9608,290.0663,673.9706,281.0445,668.0929,280.9984,670.9608,290.0663" style="stroke:#000000;stroke-width:1.0;"/><text fill="#000000" font-family="sans-serif" font-size="13" lengthAdjust="spacing" textLength="26" x="685" y="289.5669">part</text><text fill="#000000" font-family="sans-serif" font-size="13" lengthAdjust="spacing" textLength="23" x="639.1638" y="290.0013">0..*</text><text fill="#000000" font-family="sans-serif" font-size="13" lengthAdjust="spacing" textLength="24" x="638.8168" y="305.885">0..1</text><!--MD5=[eeb1986463f873db234da87eccdc590b]
link Involvement to Involvement--><path codeLine="685" d="M631.29,272.43 C672.76,268.05 717,272.23 717,285 C717,297.22 676.48,301.58 636.65,298.08 " fill="none" id="Involvement-to-Involvement-1" style="stroke:#A80036;stroke-width:1.0;"/><polygon fill="#A80036" points="631.29,297.57,639.8584,302.4262,636.2663,298.0562,640.6363,294.4641,631.29,297.57" style="stroke:#A80036;stroke-width:1.0;"/><polygon fill="#000000" points="721.4748,290.0387,725.3475,281.3524,719.5022,280.735,721.4748,290.0387" style="stroke:#000000;stroke-width:1.0;"/><text fill="#000000" font-family="sans-serif" font-size="13" lengthAdjust="spacing" textLength="89" x="736" y="289.5669">part transitive</text><text fill="#000000" font-family="sans-serif" font-size="13" lengthAdjust="spacing" textLength="23" x="639.1863" y="267.059">0..*</text><text fill="#000000" font-family="sans-serif" font-size="13" lengthAdjust="spacing" textLength="23" x="631.7969" y="320.9636">0..*</text><!--MD5=[61f16e3d960520d2b039fd3aa546c893]
link Affiliation_Statement to Contact_Information--><path codeLine="374" d="M116.25,324.21 C114.1,354.17 111.19,394.67 109.46,418.69 " fill="none" id="Affiliation_Statement-to-Contact_Information" style="stroke:#A80036;stroke-width:1.0;"/><polygon fill="#A80036" points="109.09,423.85,113.7476,415.172,109.4615,418.8638,105.7697,414.5777,109.09,423.85" style="stroke:#A80036;stroke-width:1.0;"/><polygon fill="#000000" points="118.6416,367.5535,122.2213,358.7424,116.3586,358.3211,118.6416,367.5535" style="stroke:#000000;stroke-width:1.0;"/><text fill="#000000" font-family="sans-serif" font-size="13" lengthAdjust="spacing" textLength="55" x="128" y="367.0669">contacts</text><text fill="#000000" font-family="sans-serif" font-size="13" lengthAdjust="spacing" textLength="8" x="107.0477" y="344.5721">1</text><text fill="#000000" font-family="sans-serif" font-size="13" lengthAdjust="spacing" textLength="23" x="82.5116" y="412.81">0..*</text><!--MD5=[335bc652314d68e20c6b9db39c8a9e92]
reverse link Activity to Affiliation_Statement--><path codeLine="490" d="M324.94,152.25 C257.48,160.61 172.09,175.47 146,199 C132.78,210.92 125.98,229.29 122.51,245.9 " fill="none" id="Activity-backto-Affiliation_Statement" style="stroke:#A80036;stroke-width:1.0;"/><polygon fill="#FFFFFF" points="338.18,150.66,331.7479,147.4,326.2647,152.0835,332.6969,155.3435,338.18,150.66" style="stroke:#A80036;stroke-width:1.0;"/><polygon fill="#000000" points="146.4621,209.6658,155.9052,208.5353,153.4373,203.2007,146.4621,209.6658" style="stroke:#000000;stroke-width:1.0;"/><text fill="#000000" font-family="sans-serif" font-size="13" lengthAdjust="spacing" textLength="61" x="160" y="212.0669">affilations</text><text fill="#000000" font-family="sans-serif" font-size="13" lengthAdjust="spacing" textLength="23" x="307.4031" y="147.8003">0..*</text><text fill="#000000" font-family="sans-serif" font-size="13" lengthAdjust="spacing" textLength="23" x="98.1367" y="234.9333">0..*</text><!--MD5=[5f77bb67d14325617acc23b2d25a281c]
@startuml

    !includesub core.puml!common
    !includesub core.puml!Agent
    !includesub core.puml!Activity
    !includesub core.puml!Membership
    !includesub core.puml!Person
    !includesub core.puml!Group
    !includesub core.puml!Organisation_Unit
    !includesub core.puml!Organisation_Unit_with_Members
    !includesub core.puml!Group_or_Organisation_Unit
    !includesub core.puml!Involvement
    !includesub core.puml!Affiliation_Statement

@enduml

@startuml

    hide empty members
    skinparam BoxPadding 120
    class "Agent" #ffffff {
        keywords : List<Multilingual_String>
    	lifetime : Date_Range
    	contacts : List<Contact_Information>
    }
    "Agent" "1" - -> "0..*" "Contact_Information" : contacts >
    class "Activity" #ffffff {
  		dateRange : Date_Range
    }
	"Document" "0..*" - - "0..*" "Activity" : prove >
    "Activity" "0..*" - -> "0..1" "Agent" : actor >
    class "Membership" #ffffff {
    }
    "Involvement" <|-d- "Membership"
    class "Person" #ffffff {
        name            : Person_Name
        alternateNames  : List<Person_Name>
    }
    "Agent" <|- - "Person"
    class Person_Name << (D,#add0b2) DataType>> #ffffff {
        firstNames : Multilingual_String
        familyNames : Multilingual_String
        otherNames : Multilingual_String
    }
    "Person" ..> "name" "Person_Name"
    class "Group" #ffffff {
    }
	"Group_or_Organisation_Unit" <|- - "Group"
    class "Organisation_Unit" #ffffff {
    }
	"Group_or_Organisation_Unit" <|- - "Organisation_Unit"
	"Organisation_Unit" o..> "0..*" "Organisation_Unit" : subunits >
	"Organisation_Unit" o..> "0..*" "Organisation_Unit" : superunits >
    class "Organisation_Unit_with_Members" #ffffff {
    }
    "Group" <|- - "Organisation_Unit_with_Members"
    "Organisation_Unit" <|- - "Organisation_Unit_with_Members"
    class "Group_or_Organisation_Unit" #ffffff {
        name : Multilingual_String
        acronym : String
        description : Multilingual_String
    }
	"Agent" <|- - "Group_or_Organisation_Unit"
    class "Involvement" #ffffff {
    }
   "Activity" <|-d- "Involvement"
	"Involvement" "0..*" - -> "Group_or_Organisation_Unit" : involved in >
	"Involvement" "0..*" -l-> "0..*" "Affiliation_Statement" : is the foundation for >
	"Involvement" "0..*" - -> "0..1" "Involvement" : part >
	"Involvement" "0..*" - -> "0..*" "Involvement" : part transitive >
    class "Affiliation_Statement" #ffffff {
        displayAffiliation_Statement : String
        displayPersonName : String
        contacts : List<Contact_Information>
    }
    "Affiliation_Statement" "1" - -> "0..*" "Contact_Information" : contacts >
    "Activity" "0..*" o- - "0..*" "Affiliation_Statement" : affilations >

@enduml

PlantUML version 1.2021.8(Sat Jun 26 08:20:59 UTC 2021)
(GPL source distribution)
Java Runtime: OpenJDK Runtime Environment
JVM: OpenJDK 64-Bit Server VM
Default Encoding: UTF-8
Language: en
Country: null
--></g></svg>