<?xml version="1.0" encoding="UTF-8" standalone="no"?><svg xmlns="http://www.w3.org/2000/svg" xmlns:xlink="http://www.w3.org/1999/xlink" contentScriptType="application/ecmascript" contentStyleType="text/css" height="757px" preserveAspectRatio="none" style="width:1278px;height:757px;background:#FFFFFF;" version="1.1" viewBox="0 0 1278 757" width="1278px" zoomAndPan="magnify"><defs><filter height="300%" id="fjrcr47syouu8" width="300%" x="-1" y="-1"><feGaussianBlur result="blurOut" stdDeviation="2.0"/><feColorMatrix in="blurOut" result="blurOut2" type="matrix" values="0 0 0 0 0 0 0 0 0 0 0 0 0 0 0 0 0 0 .4 0"/><feOffset dx="4.0" dy="4.0" in="blurOut2" result="blurOut3"/><feBlend in="SourceGraphic" in2="blurOut3" mode="normal"/></filter></defs><g><!--MD5=[9d44916250b776386006c440668bcfbb]
class Agent--><rect codeLine="10" fill="#FFFFFF" filter="url(#fjrcr47syouu8)" height="78.4141" id="Agent" style="stroke:#A80036;stroke-width:1.5;" width="224" x="551.29" y="252.5"/><ellipse cx="640.54" cy="268.5" fill="#ADD1B2" rx="11" ry="11" style="stroke:#A80036;stroke-width:1.0;"/><path d="M643.5088,274.1406 Q642.9306,274.4375 642.29,274.5781 Q641.6494,274.7344 640.9463,274.7344 Q638.4463,274.7344 637.1181,273.0938 Q635.8056,271.4375 635.8056,268.3125 Q635.8056,265.1875 637.1181,263.5313 Q638.4463,261.875 640.9463,261.875 Q641.6494,261.875 642.29,262.0313 Q642.9463,262.1875 643.5088,262.4844 L643.5088,265.2031 Q642.8838,264.625 642.29,264.3594 Q641.6963,264.0781 641.0713,264.0781 Q639.7275,264.0781 639.04,265.1563 Q638.3525,266.2188 638.3525,268.3125 Q638.3525,270.4063 639.04,271.4844 Q639.7275,272.5469 641.0713,272.5469 Q641.6963,272.5469 642.29,272.2813 Q642.8838,272 643.5088,271.4219 L643.5088,274.1406 Z " fill="#000000"/><text fill="#000000" font-family="sans-serif" font-size="12" lengthAdjust="spacing" textLength="37" x="661.04" y="272.6543">Agent</text><line style="stroke:#A80036;stroke-width:1.5;" x1="552.29" x2="774.29" y1="284.5" y2="284.5"/><text fill="#000000" font-family="sans-serif" font-size="11" lengthAdjust="spacing" textLength="207" x="557.29" y="298.7104">keywords : List&lt;Multilingual_String&gt;</text><text fill="#000000" font-family="sans-serif" font-size="11" lengthAdjust="spacing" textLength="121" x="557.29" y="311.5151">lifetime : Date_Range</text><text fill="#000000" font-family="sans-serif" font-size="11" lengthAdjust="spacing" textLength="212" x="557.29" y="324.3198">contacts : List&lt;Contact_Information&gt;</text><!--MD5=[176bc0a65f2558a2e68a39a8b34c74bb]
class Date_Range--><rect fill="#FEFECE" filter="url(#fjrcr47syouu8)" height="32" id="Date_Range" style="stroke:#A80036;stroke-width:1.5;" width="108" x="766.29" y="437"/><ellipse cx="781.29" cy="453" fill="#ADD1B2" rx="11" ry="11" style="stroke:#A80036;stroke-width:1.0;"/><path d="M784.2588,458.6406 Q783.6806,458.9375 783.04,459.0781 Q782.3994,459.2344 781.6963,459.2344 Q779.1963,459.2344 777.8681,457.5938 Q776.5556,455.9375 776.5556,452.8125 Q776.5556,449.6875 777.8681,448.0313 Q779.1963,446.375 781.6963,446.375 Q782.3994,446.375 783.04,446.5313 Q783.6963,446.6875 784.2588,446.9844 L784.2588,449.7031 Q783.6338,449.125 783.04,448.8594 Q782.4463,448.5781 781.8213,448.5781 Q780.4775,448.5781 779.79,449.6563 Q779.1025,450.7188 779.1025,452.8125 Q779.1025,454.9063 779.79,455.9844 Q780.4775,457.0469 781.8213,457.0469 Q782.4463,457.0469 783.04,456.7813 Q783.6338,456.5 784.2588,455.9219 L784.2588,458.6406 Z " fill="#000000"/><text fill="#000000" font-family="sans-serif" font-size="12" lengthAdjust="spacing" textLength="76" x="795.29" y="457.1543">Date_Range</text><!--MD5=[a0318ef586937002b2555963e2a1f4ad]
class Contact_Information--><rect fill="#FEFECE" filter="url(#fjrcr47syouu8)" height="32" id="Contact_Information" style="stroke:#A80036;stroke-width:1.5;" width="158" x="573.29" y="437"/><ellipse cx="588.29" cy="453" fill="#ADD1B2" rx="11" ry="11" style="stroke:#A80036;stroke-width:1.0;"/><path d="M591.2588,458.6406 Q590.6806,458.9375 590.04,459.0781 Q589.3994,459.2344 588.6963,459.2344 Q586.1963,459.2344 584.8681,457.5938 Q583.5556,455.9375 583.5556,452.8125 Q583.5556,449.6875 584.8681,448.0313 Q586.1963,446.375 588.6963,446.375 Q589.3994,446.375 590.04,446.5313 Q590.6963,446.6875 591.2588,446.9844 L591.2588,449.7031 Q590.6338,449.125 590.04,448.8594 Q589.4463,448.5781 588.8213,448.5781 Q587.4775,448.5781 586.79,449.6563 Q586.1025,450.7188 586.1025,452.8125 Q586.1025,454.9063 586.79,455.9844 Q587.4775,457.0469 588.8213,457.0469 Q589.4463,457.0469 590.04,456.7813 Q590.6338,456.5 591.2588,455.9219 L591.2588,458.6406 Z " fill="#000000"/><text fill="#000000" font-family="sans-serif" font-size="12" lengthAdjust="spacing" textLength="126" x="602.29" y="457.1543">Contact_Information</text><!--MD5=[c881b25adf3665c6568c9693d41a70f3]
class Activity--><rect codeLine="142" fill="#FFFFFF" filter="url(#fjrcr47syouu8)" height="52.8047" id="Activity" style="stroke:#A80036;stroke-width:1.5;" width="151" x="642.79" y="116"/><ellipse cx="692.54" cy="132" fill="#ADD1B2" rx="11" ry="11" style="stroke:#A80036;stroke-width:1.0;"/><path d="M695.5088,137.6406 Q694.9306,137.9375 694.29,138.0781 Q693.6494,138.2344 692.9463,138.2344 Q690.4463,138.2344 689.1181,136.5938 Q687.8056,134.9375 687.8056,131.8125 Q687.8056,128.6875 689.1181,127.0313 Q690.4463,125.375 692.9463,125.375 Q693.6494,125.375 694.29,125.5313 Q694.9463,125.6875 695.5088,125.9844 L695.5088,128.7031 Q694.8838,128.125 694.29,127.8594 Q693.6963,127.5781 693.0713,127.5781 Q691.7275,127.5781 691.04,128.6563 Q690.3525,129.7188 690.3525,131.8125 Q690.3525,133.9063 691.04,134.9844 Q691.7275,136.0469 693.0713,136.0469 Q693.6963,136.0469 694.29,135.7813 Q694.8838,135.5 695.5088,134.9219 L695.5088,137.6406 Z " fill="#000000"/><text fill="#000000" font-family="sans-serif" font-size="12" lengthAdjust="spacing" textLength="43" x="713.04" y="136.1543">Activity</text><line style="stroke:#A80036;stroke-width:1.5;" x1="643.79" x2="792.79" y1="148" y2="148"/><text fill="#000000" font-family="sans-serif" font-size="11" lengthAdjust="spacing" textLength="139" x="648.79" y="162.2104">dateRange : Date_Range</text><!--MD5=[59b530d44ae785dc18db921986a9c15c]
class Document--><rect fill="#FEFECE" filter="url(#fjrcr47syouu8)" height="32" id="Document" style="stroke:#A80036;stroke-width:1.5;" width="96" x="670.29" y="7"/><ellipse cx="685.29" cy="23" fill="#ADD1B2" rx="11" ry="11" style="stroke:#A80036;stroke-width:1.0;"/><path d="M688.2588,28.6406 Q687.6806,28.9375 687.04,29.0781 Q686.3994,29.2344 685.6963,29.2344 Q683.1963,29.2344 681.8681,27.5938 Q680.5556,25.9375 680.5556,22.8125 Q680.5556,19.6875 681.8681,18.0313 Q683.1963,16.375 685.6963,16.375 Q686.3994,16.375 687.04,16.5313 Q687.6963,16.6875 688.2588,16.9844 L688.2588,19.7031 Q687.6338,19.125 687.04,18.8594 Q686.4463,18.5781 685.8213,18.5781 Q684.4775,18.5781 683.79,19.6563 Q683.1025,20.7188 683.1025,22.8125 Q683.1025,24.9063 683.79,25.9844 Q684.4775,27.0469 685.8213,27.0469 Q686.4463,27.0469 687.04,26.7813 Q687.6338,26.5 688.2588,25.9219 L688.2588,28.6406 Z " fill="#000000"/><text fill="#000000" font-family="sans-serif" font-size="12" lengthAdjust="spacing" textLength="64" x="699.29" y="27.1543">Document</text><!--MD5=[77463bb17ddcfe3891c27a1f4a877731]
class Membership--><rect codeLine="178" fill="#FFFFFF" filter="url(#fjrcr47syouu8)" height="32" id="Membership" style="stroke:#A80036;stroke-width:1.5;" width="108" x="1150.29" y="437"/><ellipse cx="1165.29" cy="453" fill="#ADD1B2" rx="11" ry="11" style="stroke:#A80036;stroke-width:1.0;"/><path d="M1168.2588,458.6406 Q1167.6806,458.9375 1167.04,459.0781 Q1166.3994,459.2344 1165.6963,459.2344 Q1163.1963,459.2344 1161.8681,457.5938 Q1160.5556,455.9375 1160.5556,452.8125 Q1160.5556,449.6875 1161.8681,448.0313 Q1163.1963,446.375 1165.6963,446.375 Q1166.3994,446.375 1167.04,446.5313 Q1167.6963,446.6875 1168.2588,446.9844 L1168.2588,449.7031 Q1167.6338,449.125 1167.04,448.8594 Q1166.4463,448.5781 1165.8213,448.5781 Q1164.4775,448.5781 1163.79,449.6563 Q1163.1025,450.7188 1163.1025,452.8125 Q1163.1025,454.9063 1163.79,455.9844 Q1164.4775,457.0469 1165.8213,457.0469 Q1166.4463,457.0469 1167.04,456.7813 Q1167.6338,456.5 1168.2588,455.9219 L1168.2588,458.6406 Z " fill="#000000"/><text fill="#000000" font-family="sans-serif" font-size="12" lengthAdjust="spacing" textLength="76" x="1179.29" y="457.1543">Membership</text><!--MD5=[6a029e66987f6edc98a50822cc78695f]
class Involvement--><rect codeLine="148" fill="#FFFFFF" filter="url(#fjrcr47syouu8)" height="65.6094" id="Involvement" style="stroke:#A80036;stroke-width:1.5;" width="190" x="881.29" y="258.5"/><ellipse cx="935.04" cy="274.5" fill="#ADD1B2" rx="11" ry="11" style="stroke:#A80036;stroke-width:1.0;"/><path d="M938.0088,280.1406 Q937.4306,280.4375 936.79,280.5781 Q936.1494,280.7344 935.4463,280.7344 Q932.9463,280.7344 931.6181,279.0938 Q930.3056,277.4375 930.3056,274.3125 Q930.3056,271.1875 931.6181,269.5313 Q932.9463,267.875 935.4463,267.875 Q936.1494,267.875 936.79,268.0313 Q937.4463,268.1875 938.0088,268.4844 L938.0088,271.2031 Q937.3838,270.625 936.79,270.3594 Q936.1963,270.0781 935.5713,270.0781 Q934.2275,270.0781 933.54,271.1563 Q932.8525,272.2188 932.8525,274.3125 Q932.8525,276.4063 933.54,277.4844 Q934.2275,278.5469 935.5713,278.5469 Q936.1963,278.5469 936.79,278.2813 Q937.3838,278 938.0088,277.4219 L938.0088,280.1406 Z " fill="#000000"/><text fill="#000000" font-family="sans-serif" font-size="12" lengthAdjust="spacing" textLength="74" x="955.54" y="278.6543">Involvement</text><line style="stroke:#A80036;stroke-width:1.5;" x1="882.29" x2="1070.29" y1="290.5" y2="290.5"/><text fill="#000000" font-family="sans-serif" font-size="11" lengthAdjust="spacing" textLength="178" x="887.29" y="304.7104">description : Multilingual_String</text><text fill="#000000" font-family="sans-serif" font-size="11" lengthAdjust="spacing" textLength="114" x="887.29" y="317.5151">position    : Position</text><!--MD5=[09ce52be0ee7de43c61b6e2d59bf108b]
class Person--><rect codeLine="20" fill="#FFFFFF" filter="url(#fjrcr47syouu8)" height="65.6094" id="Person" style="stroke:#A80036;stroke-width:1.5;" width="236" x="302.29" y="420"/><ellipse cx="394.04" cy="436" fill="#ADD1B2" rx="11" ry="11" style="stroke:#A80036;stroke-width:1.0;"/><path d="M397.0088,441.6406 Q396.4306,441.9375 395.79,442.0781 Q395.1494,442.2344 394.4463,442.2344 Q391.9463,442.2344 390.6181,440.5938 Q389.3056,438.9375 389.3056,435.8125 Q389.3056,432.6875 390.6181,431.0313 Q391.9463,429.375 394.4463,429.375 Q395.1494,429.375 395.79,429.5313 Q396.4463,429.6875 397.0088,429.9844 L397.0088,432.7031 Q396.3838,432.125 395.79,431.8594 Q395.1963,431.5781 394.5713,431.5781 Q393.2275,431.5781 392.54,432.6563 Q391.8525,433.7188 391.8525,435.8125 Q391.8525,437.9063 392.54,438.9844 Q393.2275,440.0469 394.5713,440.0469 Q395.1963,440.0469 395.79,439.7813 Q396.3838,439.5 397.0088,438.9219 L397.0088,441.6406 Z " fill="#000000"/><text fill="#000000" font-family="sans-serif" font-size="12" lengthAdjust="spacing" textLength="44" x="414.54" y="440.1543">Person</text><line style="stroke:#A80036;stroke-width:1.5;" x1="303.29" x2="537.29" y1="452" y2="452"/><text fill="#000000" font-family="sans-serif" font-size="11" lengthAdjust="spacing" textLength="167" x="308.29" y="466.2104">name            : Person_Name</text><text fill="#000000" font-family="sans-serif" font-size="11" lengthAdjust="spacing" textLength="224" x="308.29" y="479.0151">alternateNames  : List&lt;Person_Name&gt;</text><!--MD5=[7b209ef07eb91b93e0aebc9fe4fb9a26]
class Person_Name--><rect codeLine="76" fill="#FFFFFF" filter="url(#fjrcr47syouu8)" height="97.1563" id="Person_Name" style="stroke:#A80036;stroke-width:1.5;" width="201" x="319.79" y="553"/><ellipse cx="373.04" cy="571.9688" fill="#ADD0B2" rx="11" ry="11" style="stroke:#A80036;stroke-width:1.0;"/><path d="M372.6338,567.7813 L372.6338,575.7656 L373.29,575.7656 Q374.7275,575.7656 375.3369,574.8594 Q375.9619,573.9375 375.9619,571.7656 Q375.9619,569.5938 375.3369,568.6875 Q374.7275,567.7813 373.29,567.7813 L372.6338,567.7813 Z M370.1806,565.5781 L372.8056,565.5781 Q375.8369,565.5781 377.165,567.0313 Q378.5088,568.4688 378.5088,571.7656 Q378.5088,575.0625 377.165,576.5156 Q375.8369,577.9688 372.8056,577.9688 L370.1806,577.9688 L370.1806,565.5781 Z " fill="#000000"/><text fill="#000000" font-family="sans-serif" font-size="12" font-style="italic" lengthAdjust="spacing" textLength="74" x="399.54" y="569.1387">«DataType»</text><text fill="#000000" font-family="sans-serif" font-size="12" lengthAdjust="spacing" textLength="86" x="393.54" y="583.1074">Person_Name</text><line style="stroke:#A80036;stroke-width:1.5;" x1="320.79" x2="519.79" y1="590.9375" y2="590.9375"/><text fill="#000000" font-family="sans-serif" font-size="11" lengthAdjust="spacing" textLength="178" x="325.79" y="605.1479">firstNames : Multilingual_String</text><text fill="#000000" font-family="sans-serif" font-size="11" lengthAdjust="spacing" textLength="189" x="325.79" y="617.9526">familyNames : Multilingual_String</text><text fill="#000000" font-family="sans-serif" font-size="11" lengthAdjust="spacing" textLength="185" x="325.79" y="630.7573">otherNames : Multilingual_String</text><text fill="#000000" font-family="sans-serif" font-size="11" lengthAdjust="spacing" textLength="188" x="325.79" y="643.562">displayName : Multilingual_String</text><!--MD5=[41314a0efc36828092cff9ebad2fcafd]
class Group--><rect codeLine="101" fill="#FFFFFF" filter="url(#fjrcr47syouu8)" height="32" id="Group" style="stroke:#A80036;stroke-width:1.5;" width="70" x="766.29" y="585.5"/><ellipse cx="781.29" cy="601.5" fill="#ADD1B2" rx="11" ry="11" style="stroke:#A80036;stroke-width:1.0;"/><path d="M784.2588,607.1406 Q783.6806,607.4375 783.04,607.5781 Q782.3994,607.7344 781.6963,607.7344 Q779.1963,607.7344 777.8681,606.0938 Q776.5556,604.4375 776.5556,601.3125 Q776.5556,598.1875 777.8681,596.5313 Q779.1963,594.875 781.6963,594.875 Q782.3994,594.875 783.04,595.0313 Q783.6963,595.1875 784.2588,595.4844 L784.2588,598.2031 Q783.6338,597.625 783.04,597.3594 Q782.4463,597.0781 781.8213,597.0781 Q780.4775,597.0781 779.79,598.1563 Q779.1025,599.2188 779.1025,601.3125 Q779.1025,603.4063 779.79,604.4844 Q780.4775,605.5469 781.8213,605.5469 Q782.4463,605.5469 783.04,605.2813 Q783.6338,605 784.2588,604.4219 L784.2588,607.1406 Z " fill="#000000"/><text fill="#000000" font-family="sans-serif" font-size="12" lengthAdjust="spacing" textLength="38" x="795.29" y="605.6543">Group</text><!--MD5=[affb11a45f8309443fb20b6133e8d181]
class Group_or_Organisation_Unit--><rect codeLine="89" fill="#FFFFFF" filter="url(#fjrcr47syouu8)" height="78.4141" id="Group_or_Organisation_Unit" style="stroke:#A80036;stroke-width:1.5;" width="206" x="909.29" y="414"/><ellipse cx="924.29" cy="430" fill="#ADD1B2" rx="11" ry="11" style="stroke:#A80036;stroke-width:1.0;"/><path d="M927.2588,435.6406 Q926.6806,435.9375 926.04,436.0781 Q925.3994,436.2344 924.6963,436.2344 Q922.1963,436.2344 920.8681,434.5938 Q919.5556,432.9375 919.5556,429.8125 Q919.5556,426.6875 920.8681,425.0313 Q922.1963,423.375 924.6963,423.375 Q925.3994,423.375 926.04,423.5313 Q926.6963,423.6875 927.2588,423.9844 L927.2588,426.7031 Q926.6338,426.125 926.04,425.8594 Q925.4463,425.5781 924.8213,425.5781 Q923.4775,425.5781 922.79,426.6563 Q922.1025,427.7188 922.1025,429.8125 Q922.1025,431.9063 922.79,432.9844 Q923.4775,434.0469 924.8213,434.0469 Q925.4463,434.0469 926.04,433.7813 Q926.6338,433.5 927.2588,432.9219 L927.2588,435.6406 Z " fill="#000000"/><text fill="#000000" font-family="sans-serif" font-size="12" lengthAdjust="spacing" textLength="174" x="938.29" y="434.1543">Group_or_Organisation_Unit</text><line style="stroke:#A80036;stroke-width:1.5;" x1="910.29" x2="1114.29" y1="446" y2="446"/><text fill="#000000" font-family="sans-serif" font-size="11" lengthAdjust="spacing" textLength="147" x="915.29" y="460.2104">name : Multilingual_String</text><text fill="#000000" font-family="sans-serif" font-size="11" lengthAdjust="spacing" textLength="164" x="915.29" y="473.0151">acronym : Multilingual_String</text><text fill="#000000" font-family="sans-serif" font-size="11" lengthAdjust="spacing" textLength="178" x="915.29" y="485.8198">description : Multilingual_String</text><!--MD5=[779f3743e425ed8a6f0bf188ddea4860]
class Organisation_Unit--><rect codeLine="110" fill="#FFFFFF" filter="url(#fjrcr47syouu8)" height="32" id="Organisation_Unit" style="stroke:#A80036;stroke-width:1.5;" width="143" x="98.79" y="585.5"/><ellipse cx="113.79" cy="601.5" fill="#ADD1B2" rx="11" ry="11" style="stroke:#A80036;stroke-width:1.0;"/><path d="M116.7588,607.1406 Q116.1806,607.4375 115.54,607.5781 Q114.8994,607.7344 114.1963,607.7344 Q111.6963,607.7344 110.3681,606.0938 Q109.0556,604.4375 109.0556,601.3125 Q109.0556,598.1875 110.3681,596.5313 Q111.6963,594.875 114.1963,594.875 Q114.8994,594.875 115.54,595.0313 Q116.1963,595.1875 116.7588,595.4844 L116.7588,598.2031 Q116.1338,597.625 115.54,597.3594 Q114.9463,597.0781 114.3213,597.0781 Q112.9775,597.0781 112.29,598.1563 Q111.6025,599.2188 111.6025,601.3125 Q111.6025,603.4063 112.29,604.4844 Q112.9775,605.5469 114.3213,605.5469 Q114.9463,605.5469 115.54,605.2813 Q116.1338,605 116.7588,604.4219 L116.7588,607.1406 Z " fill="#000000"/><text fill="#000000" font-family="sans-serif" font-size="12" lengthAdjust="spacing" textLength="111" x="127.79" y="605.6543">Organisation_Unit</text><!--MD5=[dae000cba6c379e3053478bba72a741c]
class Organisation_Unit_with_Members--><rect codeLine="127" fill="#FFFFFF" filter="url(#fjrcr47syouu8)" height="32" id="Organisation_Unit_with_Members" style="stroke:#A80036;stroke-width:1.5;" width="237" x="248.79" y="711"/><ellipse cx="263.79" cy="727" fill="#ADD1B2" rx="11" ry="11" style="stroke:#A80036;stroke-width:1.0;"/><path d="M266.7587,732.6406 Q266.1806,732.9375 265.54,733.0781 Q264.8994,733.2344 264.1962,733.2344 Q261.6962,733.2344 260.3681,731.5938 Q259.0556,729.9375 259.0556,726.8125 Q259.0556,723.6875 260.3681,722.0313 Q261.6962,720.375 264.1962,720.375 Q264.8994,720.375 265.54,720.5313 Q266.1962,720.6875 266.7587,720.9844 L266.7587,723.7031 Q266.1337,723.125 265.54,722.8594 Q264.9462,722.5781 264.3212,722.5781 Q262.9775,722.5781 262.29,723.6563 Q261.6025,724.7188 261.6025,726.8125 Q261.6025,728.9063 262.29,729.9844 Q262.9775,731.0469 264.3212,731.0469 Q264.9462,731.0469 265.54,730.7813 Q266.1337,730.5 266.7587,729.9219 L266.7587,732.6406 Z " fill="#000000"/><text fill="#000000" font-family="sans-serif" font-size="12" lengthAdjust="spacing" textLength="205" x="277.79" y="731.1543">Organisation_Unit_with_Members</text><!--MD5=[ddbff00b4911ad4b77d6aa32dd14d1d7]
class Affiliation_Statement--><rect codeLine="536" fill="#FFFFFF" filter="url(#fjrcr47syouu8)" height="91.2188" id="Affiliation_Statement" style="stroke:#A80036;stroke-width:1.5;" width="240" x="276.29" y="246"/><ellipse cx="327.54" cy="262" fill="#ADD1B2" rx="11" ry="11" style="stroke:#A80036;stroke-width:1.0;"/><path d="M330.5088,267.6406 Q329.9306,267.9375 329.29,268.0781 Q328.6494,268.2344 327.9463,268.2344 Q325.4463,268.2344 324.1181,266.5938 Q322.8056,264.9375 322.8056,261.8125 Q322.8056,258.6875 324.1181,257.0313 Q325.4463,255.375 327.9463,255.375 Q328.6494,255.375 329.29,255.5313 Q329.9463,255.6875 330.5088,255.9844 L330.5088,258.7031 Q329.8838,258.125 329.29,257.8594 Q328.6963,257.5781 328.0713,257.5781 Q326.7275,257.5781 326.04,258.6563 Q325.3525,259.7188 325.3525,261.8125 Q325.3525,263.9063 326.04,264.9844 Q326.7275,266.0469 328.0713,266.0469 Q328.6963,266.0469 329.29,265.7813 Q329.8838,265.5 330.5088,264.9219 L330.5088,267.6406 Z " fill="#000000"/><text fill="#000000" font-family="sans-serif" font-size="12" lengthAdjust="spacing" textLength="129" x="348.04" y="266.1543">Affiliation_Statement</text><line style="stroke:#A80036;stroke-width:1.5;" x1="277.29" x2="515.29" y1="278" y2="278"/><text fill="#000000" font-family="sans-serif" font-size="11" lengthAdjust="spacing" textLength="207" x="282.29" y="292.2104">displayAffiliation : Multilingual_String</text><text fill="#000000" font-family="sans-serif" font-size="11" lengthAdjust="spacing" textLength="228" x="282.29" y="305.0151">displayPersonName : Multilingual_String</text><text fill="#000000" font-family="sans-serif" font-size="11" lengthAdjust="spacing" textLength="212" x="282.29" y="317.8198">contacts : List&lt;Contact_Information&gt;</text><text fill="#000000" font-family="sans-serif" font-size="11" lengthAdjust="spacing" textLength="102" x="282.29" y="330.6245">position : Position</text><!--MD5=[392b5d5331db5043115a06bd654f787a]
link Agent to Date_Range--><path codeLine="15" d="M698.93,330.66 C714.55,347.2 733.17,366.7 750.29,384 C766.95,400.84 786.3,419.58 800.43,433.11 " fill="none" id="Agent-to-Date_Range" style="stroke:#A80036;stroke-width:1.0;stroke-dasharray:7.0,7.0;"/><polygon fill="#A80036" points="804.26,436.78,800.5211,427.6684,800.6468,433.3239,794.9913,433.4496,804.26,436.78" style="stroke:#A80036;stroke-width:1.0;"/><!--MD5=[d43df4fbdad36fd00892352d175d5460]
link Agent to Contact_Information--><path codeLine="16" d="M660.65,330.7 C658.47,362.37 655.45,406.15 653.7,431.54 " fill="none" id="Agent-to-Contact_Information" style="stroke:#A80036;stroke-width:1.0;stroke-dasharray:7.0,7.0;"/><polygon fill="#A80036" points="653.34,436.66,657.948,427.9556,653.683,431.6718,649.9669,427.4068,653.34,436.66" style="stroke:#A80036;stroke-width:1.0;"/><text fill="#000000" font-family="sans-serif" font-size="13" lengthAdjust="spacing" textLength="23" x="626.8784" y="425.8519">0..*</text><!--MD5=[ff9dfe2dddb5fe4a69020d7834f0d207]
link Document to Activity--><path codeLine="251" d="M718.29,39.36 C718.29,58.77 718.29,92.45 718.29,115.8 " fill="none" id="Document-Activity" style="stroke:#A80036;stroke-width:1.0;"/><polygon fill="#000000" points="723.29,82.5664,726.2289,73.5213,720.3511,73.5213,723.29,82.5664" style="stroke:#000000;stroke-width:1.0;"/><text fill="#000000" font-family="sans-serif" font-size="13" lengthAdjust="spacing" textLength="36" x="732.29" y="82.0669">prove</text><text fill="#000000" font-family="sans-serif" font-size="13" lengthAdjust="spacing" textLength="23" x="691.6244" y="59.0534">0..*</text><text fill="#000000" font-family="sans-serif" font-size="13" lengthAdjust="spacing" textLength="23" x="692.6306" y="104.9961">0..*</text><!--MD5=[cd935cc757d29bd6a59b1252b30899e0]
link Activity to Agent--><path codeLine="257" d="M642.65,166.6 C628.21,174.54 614.93,185.08 606.29,199 C596.37,214.99 603.03,232.53 614.78,247.95 " fill="none" id="Activity-to-Agent" style="stroke:#A80036;stroke-width:1.0;"/><polygon fill="#A80036" points="618.22,252.23,615.7085,242.7068,615.0913,248.3298,609.4682,247.7127,618.22,252.23" style="stroke:#A80036;stroke-width:1.0;"/><polygon fill="#000000" points="609.6695,212.2965,615.3813,204.6922,609.8207,202.7872,609.6695,212.2965" style="stroke:#000000;stroke-width:1.0;"/><text fill="#000000" font-family="sans-serif" font-size="13" lengthAdjust="spacing" textLength="33" x="620.29" y="212.0669">actor</text><text fill="#000000" font-family="sans-serif" font-size="13" lengthAdjust="spacing" textLength="23" x="611.8891" y="165.1599">0..*</text><text fill="#000000" font-family="sans-serif" font-size="13" lengthAdjust="spacing" textLength="24" x="584.7678" y="241.5273">0..1</text><!--MD5=[2da288daa10c3ee0fffff7997d0d73e1]
link Activity to Date_Range--><path codeLine="856" d="M776.4,169.07 C788.18,176.96 799.14,186.86 806.29,199 C850.96,274.94 834.3,386.91 824.93,432.05 " fill="none" id="Activity-to-Date_Range" style="stroke:#A80036;stroke-width:1.0;stroke-dasharray:7.0,7.0;"/><polygon fill="#A80036" points="823.89,436.97,829.6583,428.9871,824.9201,432.0773,821.8299,427.339,823.89,436.97" style="stroke:#A80036;stroke-width:1.0;"/><!--MD5=[774ab914c44fde287bade86ae1a1d531]
reverse link Involvement to Membership--><path codeLine="183" d="M1041.33,336.1 C1056.16,346.16 1071.81,356.89 1086.29,367 C1120.64,391 1160.06,419.62 1183.53,436.77 " fill="none" id="Involvement-backto-Membership" style="stroke:#A80036;stroke-width:1.0;"/><polygon fill="none" points="1037.06,341.66,1024.41,324.65,1044.9,330.06,1037.06,341.66" style="stroke:#A80036;stroke-width:1.0;"/><!--MD5=[de96f77e660762cb21a195b4097c3876]
reverse link Agent to Person--><path codeLine="72" d="M588.44,341.63 C549.62,367.11 503.32,397.5 469.14,419.94 " fill="none" id="Agent-backto-Person" style="stroke:#A80036;stroke-width:1.0;"/><polygon fill="none" points="584.83,335.62,605.39,330.5,592.51,347.33,584.83,335.62" style="stroke:#A80036;stroke-width:1.0;"/><!--MD5=[5d8901ce694eb85aefa78b7d82d9f6f6]
link Person to Person_Name--><path codeLine="85" d="M420.29,486.15 C420.29,504.16 420.29,527.08 420.29,547.66 " fill="none" id="Person-to-Person_Name" style="stroke:#A80036;stroke-width:1.0;stroke-dasharray:7.0,7.0;"/><polygon fill="#A80036" points="420.29,552.84,424.29,543.84,420.29,547.84,416.29,543.84,420.29,552.84" style="stroke:#A80036;stroke-width:1.0;"/><!--MD5=[ef849346ed6a9c6429a3acad43755067]
reverse link Group_or_Organisation_Unit to Group--><path codeLine="106" d="M940.88,503.58 C899.65,532.2 850.65,566.23 823.03,585.4 " fill="none" id="Group_or_Organisation_Unit-backto-Group" style="stroke:#A80036;stroke-width:1.0;"/><polygon fill="none" points="936.98,497.77,957.4,492.11,944.96,509.27,936.98,497.77" style="stroke:#A80036;stroke-width:1.0;"/><!--MD5=[69e875cd42dba5e548805475ea29280d]
link Group to Group--><path codeLine="123" d="M841.66,586.96 C857.78,586.16 871.29,591.01 871.29,601.5 C871.29,611.99 857.78,616.84 841.66,616.04 " fill="none" id="Group-Group" style="stroke:#A80036;stroke-width:1.0;stroke-dasharray:7.0,7.0;"/><polygon fill="#A80036" points="836.58,615.61,845.2179,620.3415,841.5628,616.024,845.8803,612.369,836.58,615.61" style="stroke:#A80036;stroke-width:1.0;"/><polygon fill="#A80036" points="836.58,587.39,845.8803,590.631,841.5628,586.976,845.2179,582.6585,836.58,587.39" style="stroke:#A80036;stroke-width:1.0;"/><text fill="#000000" font-family="sans-serif" font-size="13" lengthAdjust="spacing" textLength="69" x="844.2133" y="582.1006">0..* part of</text><text fill="#000000" font-family="sans-serif" font-size="13" lengthAdjust="spacing" textLength="60" x="844.1292" y="613.4489">0..* parts</text><!--MD5=[46aa33658a7939f97c192b82d622be7c]
reverse link Group_or_Organisation_Unit to Organisation_Unit--><path codeLine="115" d="M889.43,492.13 C630.41,543.19 553.03,495.82 302.29,553 C268.33,560.74 231.12,574.66 204.89,585.43 " fill="none" id="Group_or_Organisation_Unit-backto-Organisation_Unit" style="stroke:#A80036;stroke-width:1.0;"/><polygon fill="none" points="888.23,485.23,909.22,488.1,891.01,498.95,888.23,485.23" style="stroke:#A80036;stroke-width:1.0;"/><!--MD5=[f47b8cdb810f6f32f0d73f513aa4cbda]
link Organisation_Unit to Organisation_Unit--><path codeLine="119" d="M247.38,587.27 C264.4,588.61 276.79,593.35 276.79,601.5 C276.79,609.65 264.4,614.39 247.38,615.73 " fill="none" id="Organisation_Unit-Organisation_Unit" style="stroke:#A80036;stroke-width:1.0;stroke-dasharray:7.0,7.0;"/><polygon fill="#A80036" points="241.96,616.04,251.1641,619.5448,246.9526,615.7682,250.7292,611.5567,241.96,616.04" style="stroke:#A80036;stroke-width:1.0;"/><polygon fill="#A80036" points="241.96,586.96,250.7292,591.4433,246.9526,587.2318,251.1641,583.4552,241.96,586.96" style="stroke:#A80036;stroke-width:1.0;"/><text fill="#000000" font-family="sans-serif" font-size="13" lengthAdjust="spacing" textLength="69" x="249.7569" y="582.4132">0..* part of</text><text fill="#000000" font-family="sans-serif" font-size="13" lengthAdjust="spacing" textLength="60" x="249.7441" y="613.651">0..* parts</text><!--MD5=[854899a0b21de2cb3f4d3222738c1bb3]
reverse link Group to Organisation_Unit_with_Members--><path codeLine="132" d="M746.79,618.01 C662.94,641.87 503.31,687.29 420.34,710.9 " fill="none" id="Group-backto-Organisation_Unit_with_Members" style="stroke:#A80036;stroke-width:1.0;"/><polygon fill="none" points="744.99,611.24,766.14,612.5,748.82,624.71,744.99,611.24" style="stroke:#A80036;stroke-width:1.0;"/><!--MD5=[adeab3cf6be56cae862ee063039c31ec]
reverse link Organisation_Unit to Organisation_Unit_with_Members--><path codeLine="136" d="M211.51,628.34 C251.4,653.35 310.5,690.4 343.24,710.93 " fill="none" id="Organisation_Unit-backto-Organisation_Unit_with_Members" style="stroke:#A80036;stroke-width:1.0;"/><polygon fill="none" points="207.67,634.2,194.44,617.64,215.11,622.34,207.67,634.2" style="stroke:#A80036;stroke-width:1.0;"/><!--MD5=[8baa0633a34be8ca6adcc4fd46743d97]
reverse link Agent to Group_or_Organisation_Unit--><path codeLine="97" d="M764.75,338.87 C816.87,362.69 879.6,391.36 928.87,413.88 " fill="none" id="Agent-backto-Group_or_Organisation_Unit" style="stroke:#A80036;stroke-width:1.0;"/><polygon fill="none" points="761.72,345.18,746.44,330.5,767.54,332.45,761.72,345.18" style="stroke:#A80036;stroke-width:1.0;"/><!--MD5=[5310b7429ef001befd0a176a00932538]
reverse link Activity to Involvement--><path codeLine="155" d="M809.34,176.87 C824.67,183.55 840.17,191 854.29,199 C884.35,216.03 915.46,239.48 938.75,258.37 " fill="none" id="Activity-backto-Involvement" style="stroke:#A80036;stroke-width:1.0;"/><polygon fill="none" points="806.58,183.3,790.84,169.11,811.99,170.39,806.58,183.3" style="stroke:#A80036;stroke-width:1.0;"/><!--MD5=[3e6df519c6409dff9ecce5f5942987dd]
link Involvement to Group_or_Organisation_Unit--><path codeLine="261" d="M983.57,324.78 C989.02,348.93 996.54,382.21 1002.51,408.68 " fill="none" id="Involvement-to-Group_or_Organisation_Unit" style="stroke:#A80036;stroke-width:1.0;"/><polygon fill="#A80036" points="1003.68,413.87,1005.6055,404.2112,1002.5818,408.9921,997.8009,405.9684,1003.68,413.87" style="stroke:#A80036;stroke-width:1.0;"/><polygon fill="#000000" points="1002.391,380.4437,1003.266,370.9734,997.5325,372.2678,1002.391,380.4437" style="stroke:#000000;stroke-width:1.0;"/><text fill="#000000" font-family="sans-serif" font-size="13" lengthAdjust="spacing" textLength="67" x="1010.29" y="380.0669">involved in</text><text fill="#000000" font-family="sans-serif" font-size="13" lengthAdjust="spacing" textLength="23" x="959.8183" y="344.1575">0..*</text><!--MD5=[ec091f800280b56df8e15aaaa2e5104f]
reverse link Affiliation_Statement to Involvement--><path codeLine="835" d="M511.55,244.32 C593.55,216.86 706.2,191.51 804.79,213 C845.26,221.82 887.61,241.09 920.1,258.33 " fill="none" id="Affiliation_Statement-backto-Involvement" style="stroke:#A80036;stroke-width:1.0;"/><polygon fill="#A80036" points="506.68,245.97,516.4873,246.8743,511.4162,244.3674,513.9231,239.2964,506.68,245.97" style="stroke:#A80036;stroke-width:1.0;"/><polygon fill="#000000" points="661.7929,207.395,670.732,210.6422,670.9334,204.7678,661.7929,207.395" style="stroke:#000000;stroke-width:1.0;"/><text fill="#000000" font-family="sans-serif" font-size="13" lengthAdjust="spacing" textLength="128" x="675.79" y="212.0669">is the foundation for</text><text fill="#000000" font-family="sans-serif" font-size="13" lengthAdjust="spacing" textLength="23" x="498.8225" y="234.9101">0..*</text><text fill="#000000" font-family="sans-serif" font-size="13" lengthAdjust="spacing" textLength="23" x="883.7735" y="247.4415">0..*</text><!--MD5=[eeb1986463f873db234da87eccdc590b]
link Involvement to Involvement--><path codeLine="839" d="M1071.52,283.88 C1091.71,284.65 1106.29,287.19 1106.29,291.5 C1106.29,295.44 1094.11,297.9 1076.59,298.88 " fill="none" id="Involvement-to-Involvement" style="stroke:#A80036;stroke-width:1.0;"/><polygon fill="#A80036" points="1071.52,299.12,1080.6937,302.7036,1076.5148,298.891,1080.3274,294.712,1071.52,299.12" style="stroke:#A80036;stroke-width:1.0;"/><polygon fill="#000000" points="1111.4805,296.5628,1114.0726,287.4123,1108.1991,287.6363,1111.4805,296.5628" style="stroke:#000000;stroke-width:1.0;"/><text fill="#000000" font-family="sans-serif" font-size="13" lengthAdjust="spacing" textLength="26" x="1125.29" y="296.0669">part</text><text fill="#000000" font-family="sans-serif" font-size="13" lengthAdjust="spacing" textLength="23" x="1079.358" y="279.8557">0..*</text><text fill="#000000" font-family="sans-serif" font-size="13" lengthAdjust="spacing" textLength="24" x="1079.3947" y="296.2149">0..1</text><!--MD5=[eeb1986463f873db234da87eccdc590b]
link Involvement to Involvement--><path codeLine="843" d="M1071.35,276.04 C1116.58,274.41 1157.29,279.56 1157.29,291.5 C1157.29,302.99 1119.55,308.2 1076.36,307.11 " fill="none" id="Involvement-to-Involvement-1" style="stroke:#A80036;stroke-width:1.0;"/><polygon fill="#A80036" points="1071.35,306.96,1080.2199,311.2407,1076.3475,307.1171,1080.4712,303.2447,1071.35,306.96" style="stroke:#A80036;stroke-width:1.0;"/><polygon fill="#000000" points="1162.1099,296.5632,1165.3727,287.6298,1159.4987,287.4181,1162.1099,296.5632" style="stroke:#000000;stroke-width:1.0;"/><text fill="#000000" font-family="sans-serif" font-size="13" lengthAdjust="spacing" textLength="89" x="1176.29" y="296.0669">part transitive</text><text fill="#000000" font-family="sans-serif" font-size="13" lengthAdjust="spacing" textLength="23" x="1079.1755" y="271.44">0..*</text><text fill="#000000" font-family="sans-serif" font-size="13" lengthAdjust="spacing" textLength="23" x="1079.1755" y="320.7322">0..*</text><!--MD5=[335bc652314d68e20c6b9db39c8a9e92]
reverse link Activity to Affiliation_Statement--><path codeLine="657" d="M629.68,152.98 C560.8,161.87 472.25,177.09 443.29,199 C427.91,210.64 417.14,228.74 409.83,245.78 " fill="none" id="Activity-backto-Affiliation_Statement" style="stroke:#A80036;stroke-width:1.0;"/><polygon fill="#FFFFFF" points="642.73,151.34,636.2762,148.123,630.8245,152.843,637.2783,156.06,642.73,151.34" style="stroke:#A80036;stroke-width:1.0;"/><polygon fill="#000000" points="443.6836,209.5108,453.1596,208.7009,450.8738,203.2858,443.6836,209.5108" style="stroke:#000000;stroke-width:1.0;"/><text fill="#000000" font-family="sans-serif" font-size="13" lengthAdjust="spacing" textLength="135" x="457.29" y="212.0669">affiliation statements</text><text fill="#000000" font-family="sans-serif" font-size="13" lengthAdjust="spacing" textLength="23" x="611.7042" y="148.5456">0..*</text><text fill="#000000" font-family="sans-serif" font-size="13" lengthAdjust="spacing" textLength="23" x="387.1296" y="235.0239">0..*</text><!--MD5=[08193f8303ce63c6cbc57ff8816f81b7]
link Affiliation_Statement to Organisation_Unit--><path codeLine="658" d="M275.96,314.54 C177.98,335.41 51.57,370.06 24.29,414 C6,443.45 8.72,461.03 24.29,492 C46.08,535.34 94.28,565.73 129.36,583.11 " fill="none" id="Affiliation_Statement-to-Organisation_Unit" style="stroke:#A80036;stroke-width:1.0;"/><polygon fill="#A80036" points="134,585.37,127.652,577.8398,129.5025,583.1855,124.1568,585.0359,134,585.37" style="stroke:#A80036;stroke-width:1.0;"/><polygon fill="#000000" points="26.8944,457.4551,33.8077,450.9239,28.6485,448.1077,26.8944,457.4551" style="stroke:#000000;stroke-width:1.0;"/><text fill="#000000" font-family="sans-serif" font-size="13" lengthAdjust="spacing" textLength="63" x="38.29" y="457.5669">institution</text><text fill="#000000" font-family="sans-serif" font-size="13" lengthAdjust="spacing" textLength="23" x="245.3386" y="312.5028">0..*</text><text fill="#000000" font-family="sans-serif" font-size="13" lengthAdjust="spacing" textLength="8" x="112.1503" y="574.3369">1</text><!--MD5=[08193f8303ce63c6cbc57ff8816f81b7]
link Affiliation_Statement to Organisation_Unit--><path codeLine="659" d="M275.98,325.79 C232.35,344.31 187.6,372.34 162.29,414 C130.29,466.67 150.24,543.99 162.62,580.28 " fill="none" id="Affiliation_Statement-to-Organisation_Unit-1" style="stroke:#A80036;stroke-width:1.0;"/><polygon fill="#A80036" points="164.38,585.33,165.1783,575.5136,162.7263,580.6114,157.6285,578.1594,164.38,585.33" style="stroke:#A80036;stroke-width:1.0;"/><polygon fill="#000000" points="165.2555,457.6338,171.6206,450.5672,166.2513,448.1755,165.2555,457.6338" style="stroke:#000000;stroke-width:1.0;"/><text fill="#000000" font-family="sans-serif" font-size="13" lengthAdjust="spacing" textLength="107" x="176.29" y="457.5669">organisation unit</text><text fill="#000000" font-family="sans-serif" font-size="13" lengthAdjust="spacing" textLength="23" x="245.3597" y="340.2704">0..*</text><text fill="#000000" font-family="sans-serif" font-size="13" lengthAdjust="spacing" textLength="24" x="134.4473" y="574.5782">0..1</text><!--MD5=[df6fa22554e93164629bbf1a9b0c08c4]
link Affiliation_Statement to Person--><path codeLine="660" d="M403.04,337.35 C406.7,361.68 411.17,391.41 414.64,414.49 " fill="none" id="Affiliation_Statement-to-Person" style="stroke:#A80036;stroke-width:1.0;"/><polygon fill="#A80036" points="415.41,419.61,418.028,410.1155,414.6669,414.6655,410.1168,411.3044,415.41,419.61" style="stroke:#A80036;stroke-width:1.0;"/><polygon fill="#000000" points="416.0335,380.5108,417.5947,371.1293,411.7822,372.0033,416.0335,380.5108" style="stroke:#000000;stroke-width:1.0;"/><text fill="#000000" font-family="sans-serif" font-size="13" lengthAdjust="spacing" textLength="44" x="424.29" y="380.0669">person</text><text fill="#000000" font-family="sans-serif" font-size="13" lengthAdjust="spacing" textLength="23" x="379.3423" y="357.2464">0..*</text><text fill="#000000" font-family="sans-serif" font-size="13" lengthAdjust="spacing" textLength="24" x="388.1923" y="408.9321">0..1</text><!--MD5=[bbbb49e0367a492694f5d87755015610]
@startuml

    !includesub core.puml!common
    !includesub core.puml!Agent
    !includesub core.puml!Activity
    !includesub core.puml!Membership
    !includesub core.puml!Person
    !includesub core.puml!Group
    !includesub core.puml!Organisation_Unit
    !includesub core.puml!Organisation_Unit_with_Members
    !includesub core.puml!Group_or_Organisation_Unit
    !includesub core.puml!Involvement
    !includesub core.puml!Affiliation_Statement

@enduml

@startuml

    hide empty members
    skinparam BoxPadding 120
    class "Agent" #ffffff {
        keywords : List<Multilingual_String>
    	lifetime : Date_Range
    	contacts : List<Contact_Information>
    }
    "Agent" ..> "Date_Range"
    "Agent" ..> "0..*" "Contact_Information"
    class "Activity" #ffffff {
  		dateRange : Date_Range
    }
	"Document" "0..*" - - "0..*" "Activity" : prove >
    "Activity" "0..*" - -> "0..1" "Agent" : actor >
	"Activity" ..> "Date_Range"
    class "Membership" #ffffff {
    }
    "Involvement" <|-d- "Membership"
    class "Person" #ffffff {
        name            : Person_Name
        alternateNames  : List<Person_Name>
    }
    "Agent" <|- - "Person"
    class Person_Name << (D,#add0b2) DataType>> #ffffff {
        firstNames : Multilingual_String
        familyNames : Multilingual_String
        otherNames : Multilingual_String
        displayName : Multilingual_String
    }
    "Person" ..> "Person_Name"
    class "Group" #ffffff {
    }
	"Group_or_Organisation_Unit" <|- - "Group"
	"Group" "0..* part of" <..> "0..* parts" "Group"
    class "Organisation_Unit" #ffffff {
    }
	"Group_or_Organisation_Unit" <|- - "Organisation_Unit"
	"Organisation_Unit" "0..* part of" <..> "0..* parts" "Organisation_Unit"
    class "Organisation_Unit_with_Members" #ffffff {
    }
    "Group" <|- - "Organisation_Unit_with_Members"
    "Organisation_Unit" <|- - "Organisation_Unit_with_Members"
    class "Group_or_Organisation_Unit" #ffffff {
        name : Multilingual_String
        acronym : Multilingual_String
        description : Multilingual_String
    }
	"Agent" <|- - "Group_or_Organisation_Unit"
    class "Involvement" #ffffff {
        description : Multilingual_String
        position    : Position
    }
   "Activity" <|-d- "Involvement"
	"Involvement" "0..*" - -> "Group_or_Organisation_Unit" : involved in >
	"Involvement" "0..*" -l-> "0..*" "Affiliation_Statement" : is the foundation for >
	"Involvement" "0..*" - -> "0..1" "Involvement" : part >
	"Involvement" "0..*" - -> "0..*" "Involvement" : part transitive >
    class "Affiliation_Statement" #ffffff {
        displayAffiliation : Multilingual_String
        displayPersonName : Multilingual_String
        contacts : List<Contact_Information>
        position : Position
    }
    "Activity" "0..*" o- - "0..*" "Affiliation_Statement" : affiliation statements >
    "Affiliation_Statement" "0..*" - -> "1" "Organisation_Unit" : institution >
    "Affiliation_Statement" "0..*" - -> "0..1" "Organisation_Unit" : organisation unit >
    "Affiliation_Statement" "0..*" - -> "0..1" "Person" : person >

@enduml

PlantUML version 1.2021.8(Sat Jun 26 08:20:59 UTC 2021)
(GPL source distribution)
Java Runtime: OpenJDK Runtime Environment
JVM: OpenJDK 64-Bit Server VM
Default Encoding: UTF-8
Language: en
Country: null
--></g></svg>