<?xml version="1.0" encoding="UTF-8" standalone="no"?><svg xmlns="http://www.w3.org/2000/svg" xmlns:xlink="http://www.w3.org/1999/xlink" contentScriptType="application/ecmascript" contentStyleType="text/css" height="763px" preserveAspectRatio="none" style="width:1445px;height:763px;background:#FFFFFF;" version="1.1" viewBox="0 0 1445 763" width="1445px" zoomAndPan="magnify"><defs><filter height="300%" id="fddxec0zrtyk4" width="300%" x="-1" y="-1"><feGaussianBlur result="blurOut" stdDeviation="2.0"/><feColorMatrix in="blurOut" result="blurOut2" type="matrix" values="0 0 0 0 0 0 0 0 0 0 0 0 0 0 0 0 0 0 .4 0"/><feOffset dx="4.0" dy="4.0" in="blurOut2" result="blurOut3"/><feBlend in="SourceGraphic" in2="blurOut3" mode="normal"/></filter></defs><g><!--MD5=[9d44916250b776386006c440668bcfbb]
class Agent--><rect codeLine="10" fill="#FFFFFF" filter="url(#fddxec0zrtyk4)" height="78.4141" id="Agent" style="stroke:#A80036;stroke-width:1.5;" width="224" x="547.27" y="252.5"/><ellipse cx="636.52" cy="268.5" fill="#ADD1B2" rx="11" ry="11" style="stroke:#A80036;stroke-width:1.0;"/><path d="M639.4888,274.1406 Q638.9106,274.4375 638.27,274.5781 Q637.6294,274.7344 636.9263,274.7344 Q634.4263,274.7344 633.0981,273.0938 Q631.7856,271.4375 631.7856,268.3125 Q631.7856,265.1875 633.0981,263.5313 Q634.4263,261.875 636.9263,261.875 Q637.6294,261.875 638.27,262.0313 Q638.9263,262.1875 639.4888,262.4844 L639.4888,265.2031 Q638.8638,264.625 638.27,264.3594 Q637.6763,264.0781 637.0513,264.0781 Q635.7075,264.0781 635.02,265.1563 Q634.3325,266.2188 634.3325,268.3125 Q634.3325,270.4063 635.02,271.4844 Q635.7075,272.5469 637.0513,272.5469 Q637.6763,272.5469 638.27,272.2813 Q638.8638,272 639.4888,271.4219 L639.4888,274.1406 Z " fill="#000000"/><text fill="#000000" font-family="sans-serif" font-size="12" lengthAdjust="spacing" textLength="37" x="657.02" y="272.6543">Agent</text><line style="stroke:#A80036;stroke-width:1.5;" x1="548.27" x2="770.27" y1="284.5" y2="284.5"/><text fill="#000000" font-family="sans-serif" font-size="11" lengthAdjust="spacing" textLength="207" x="553.27" y="298.7104">keywords : List&lt;Multilingual_String&gt;</text><text fill="#000000" font-family="sans-serif" font-size="11" lengthAdjust="spacing" textLength="121" x="553.27" y="311.5151">lifetime : Date_Range</text><text fill="#000000" font-family="sans-serif" font-size="11" lengthAdjust="spacing" textLength="212" x="553.27" y="324.3198">contacts : List&lt;Contact_Information&gt;</text><!--MD5=[176bc0a65f2558a2e68a39a8b34c74bb]
class Date_Range--><rect codeLine="776" fill="#FFFFFF" filter="url(#fddxec0zrtyk4)" height="97.1563" id="Date_Range" style="stroke:#A80036;stroke-width:1.5;" width="183" x="746.77" y="414"/><ellipse cx="796.02" cy="432.9688" fill="#ADD0B2" rx="11" ry="11" style="stroke:#A80036;stroke-width:1.0;"/><path d="M795.6138,428.7813 L795.6138,436.7656 L796.27,436.7656 Q797.7075,436.7656 798.3169,435.8594 Q798.9419,434.9375 798.9419,432.7656 Q798.9419,430.5938 798.3169,429.6875 Q797.7075,428.7813 796.27,428.7813 L795.6138,428.7813 Z M793.1606,426.5781 L795.7856,426.5781 Q798.8169,426.5781 800.145,428.0313 Q801.4888,429.4688 801.4888,432.7656 Q801.4888,436.0625 800.145,437.5156 Q798.8169,438.9688 795.7856,438.9688 L793.1606,438.9688 L793.1606,426.5781 Z " fill="#000000"/><text fill="#000000" font-family="sans-serif" font-size="12" font-style="italic" lengthAdjust="spacing" textLength="74" x="817.52" y="430.1387">«DataType»</text><text fill="#000000" font-family="sans-serif" font-size="12" lengthAdjust="spacing" textLength="76" x="816.52" y="444.1074">Date_Range</text><line style="stroke:#A80036;stroke-width:1.5;" x1="747.77" x2="928.77" y1="451.9375" y2="451.9375"/><text fill="#000000" font-family="sans-serif" font-size="11" lengthAdjust="spacing" textLength="96" x="752.77" y="466.1479">start_date : Date</text><text fill="#000000" font-family="sans-serif" font-size="11" lengthAdjust="spacing" textLength="171" x="752.77" y="478.9526">start_date_inclusive : Boolean</text><text fill="#000000" font-family="sans-serif" font-size="11" lengthAdjust="spacing" textLength="90" x="752.77" y="491.7573">end_date : Date</text><text fill="#000000" font-family="sans-serif" font-size="11" lengthAdjust="spacing" textLength="165" x="752.77" y="504.562">end_date_inclusive : Boolean</text><!--MD5=[a0318ef586937002b2555963e2a1f4ad]
class Contact_Information--><rect fill="#FEFECE" filter="url(#fddxec0zrtyk4)" height="32" id="Contact_Information" style="stroke:#A80036;stroke-width:1.5;" width="158" x="553.27" y="446.5"/><ellipse cx="568.27" cy="462.5" fill="#ADD1B2" rx="11" ry="11" style="stroke:#A80036;stroke-width:1.0;"/><path d="M571.2388,468.1406 Q570.6606,468.4375 570.02,468.5781 Q569.3794,468.7344 568.6763,468.7344 Q566.1763,468.7344 564.8481,467.0938 Q563.5356,465.4375 563.5356,462.3125 Q563.5356,459.1875 564.8481,457.5313 Q566.1763,455.875 568.6763,455.875 Q569.3794,455.875 570.02,456.0313 Q570.6763,456.1875 571.2388,456.4844 L571.2388,459.2031 Q570.6138,458.625 570.02,458.3594 Q569.4263,458.0781 568.8013,458.0781 Q567.4575,458.0781 566.77,459.1563 Q566.0825,460.2188 566.0825,462.3125 Q566.0825,464.4063 566.77,465.4844 Q567.4575,466.5469 568.8013,466.5469 Q569.4263,466.5469 570.02,466.2813 Q570.6138,466 571.2388,465.4219 L571.2388,468.1406 Z " fill="#000000"/><text fill="#000000" font-family="sans-serif" font-size="12" lengthAdjust="spacing" textLength="126" x="582.27" y="466.6543">Contact_Information</text><!--MD5=[c881b25adf3665c6568c9693d41a70f3]
class Activity--><rect codeLine="147" fill="#FFFFFF" filter="url(#fddxec0zrtyk4)" height="52.8047" id="Activity" style="stroke:#A80036;stroke-width:1.5;" width="151" x="781.77" y="116"/><ellipse cx="831.52" cy="132" fill="#ADD1B2" rx="11" ry="11" style="stroke:#A80036;stroke-width:1.0;"/><path d="M834.4888,137.6406 Q833.9106,137.9375 833.27,138.0781 Q832.6294,138.2344 831.9263,138.2344 Q829.4263,138.2344 828.0981,136.5938 Q826.7856,134.9375 826.7856,131.8125 Q826.7856,128.6875 828.0981,127.0313 Q829.4263,125.375 831.9263,125.375 Q832.6294,125.375 833.27,125.5313 Q833.9263,125.6875 834.4888,125.9844 L834.4888,128.7031 Q833.8638,128.125 833.27,127.8594 Q832.6763,127.5781 832.0513,127.5781 Q830.7075,127.5781 830.02,128.6563 Q829.3325,129.7188 829.3325,131.8125 Q829.3325,133.9063 830.02,134.9844 Q830.7075,136.0469 832.0513,136.0469 Q832.6763,136.0469 833.27,135.7813 Q833.8638,135.5 834.4888,134.9219 L834.4888,137.6406 Z " fill="#000000"/><text fill="#000000" font-family="sans-serif" font-size="12" lengthAdjust="spacing" textLength="43" x="852.02" y="136.1543">Activity</text><line style="stroke:#A80036;stroke-width:1.5;" x1="782.77" x2="931.77" y1="148" y2="148"/><text fill="#000000" font-family="sans-serif" font-size="11" lengthAdjust="spacing" textLength="139" x="787.77" y="162.2104">dateRange : Date_Range</text><!--MD5=[59b530d44ae785dc18db921986a9c15c]
class Document--><rect fill="#FEFECE" filter="url(#fddxec0zrtyk4)" height="32" id="Document" style="stroke:#A80036;stroke-width:1.5;" width="96" x="809.27" y="7"/><ellipse cx="824.27" cy="23" fill="#ADD1B2" rx="11" ry="11" style="stroke:#A80036;stroke-width:1.0;"/><path d="M827.2388,28.6406 Q826.6606,28.9375 826.02,29.0781 Q825.3794,29.2344 824.6763,29.2344 Q822.1763,29.2344 820.8481,27.5938 Q819.5356,25.9375 819.5356,22.8125 Q819.5356,19.6875 820.8481,18.0313 Q822.1763,16.375 824.6763,16.375 Q825.3794,16.375 826.02,16.5313 Q826.6763,16.6875 827.2388,16.9844 L827.2388,19.7031 Q826.6138,19.125 826.02,18.8594 Q825.4263,18.5781 824.8013,18.5781 Q823.4575,18.5781 822.77,19.6563 Q822.0825,20.7188 822.0825,22.8125 Q822.0825,24.9063 822.77,25.9844 Q823.4575,27.0469 824.8013,27.0469 Q825.4263,27.0469 826.02,26.7813 Q826.6138,26.5 827.2388,25.9219 L827.2388,28.6406 Z " fill="#000000"/><text fill="#000000" font-family="sans-serif" font-size="12" lengthAdjust="spacing" textLength="64" x="838.27" y="27.1543">Document</text><!--MD5=[92dc6ef2f70a23983af4e570fc6275cd]
class Funding--><rect fill="#FEFECE" filter="url(#fddxec0zrtyk4)" height="32" id="Funding" style="stroke:#A80036;stroke-width:1.5;" width="82" x="1349.27" y="446.5"/><ellipse cx="1364.27" cy="462.5" fill="#ADD1B2" rx="11" ry="11" style="stroke:#A80036;stroke-width:1.0;"/><path d="M1367.2388,468.1406 Q1366.6606,468.4375 1366.02,468.5781 Q1365.3794,468.7344 1364.6763,468.7344 Q1362.1763,468.7344 1360.8481,467.0938 Q1359.5356,465.4375 1359.5356,462.3125 Q1359.5356,459.1875 1360.8481,457.5313 Q1362.1763,455.875 1364.6763,455.875 Q1365.3794,455.875 1366.02,456.0313 Q1366.6763,456.1875 1367.2388,456.4844 L1367.2388,459.2031 Q1366.6138,458.625 1366.02,458.3594 Q1365.4263,458.0781 1364.8013,458.0781 Q1363.4575,458.0781 1362.77,459.1563 Q1362.0825,460.2188 1362.0825,462.3125 Q1362.0825,464.4063 1362.77,465.4844 Q1363.4575,466.5469 1364.8013,466.5469 Q1365.4263,466.5469 1366.02,466.2813 Q1366.6138,466 1367.2388,465.4219 L1367.2388,468.1406 Z " fill="#000000"/><text fill="#000000" font-family="sans-serif" font-size="12" lengthAdjust="spacing" textLength="50" x="1378.27" y="466.6543">Funding</text><!--MD5=[77463bb17ddcfe3891c27a1f4a877731]
class Membership--><rect codeLine="183" fill="#FFFFFF" filter="url(#fddxec0zrtyk4)" height="32" id="Membership" style="stroke:#A80036;stroke-width:1.5;" width="108" x="1206.27" y="446.5"/><ellipse cx="1221.27" cy="462.5" fill="#ADD1B2" rx="11" ry="11" style="stroke:#A80036;stroke-width:1.0;"/><path d="M1224.2388,468.1406 Q1223.6606,468.4375 1223.02,468.5781 Q1222.3794,468.7344 1221.6763,468.7344 Q1219.1763,468.7344 1217.8481,467.0938 Q1216.5356,465.4375 1216.5356,462.3125 Q1216.5356,459.1875 1217.8481,457.5313 Q1219.1763,455.875 1221.6763,455.875 Q1222.3794,455.875 1223.02,456.0313 Q1223.6763,456.1875 1224.2388,456.4844 L1224.2388,459.2031 Q1223.6138,458.625 1223.02,458.3594 Q1222.4263,458.0781 1221.8013,458.0781 Q1220.4575,458.0781 1219.77,459.1563 Q1219.0825,460.2188 1219.0825,462.3125 Q1219.0825,464.4063 1219.77,465.4844 Q1220.4575,466.5469 1221.8013,466.5469 Q1222.4263,466.5469 1223.02,466.2813 Q1223.6138,466 1224.2388,465.4219 L1224.2388,468.1406 Z " fill="#000000"/><text fill="#000000" font-family="sans-serif" font-size="12" lengthAdjust="spacing" textLength="76" x="1235.27" y="466.6543">Membership</text><!--MD5=[6a029e66987f6edc98a50822cc78695f]
class Involvement--><rect codeLine="153" fill="#FFFFFF" filter="url(#fddxec0zrtyk4)" height="65.6094" id="Involvement" style="stroke:#A80036;stroke-width:1.5;" width="190" x="910.27" y="258.5"/><ellipse cx="964.02" cy="274.5" fill="#ADD1B2" rx="11" ry="11" style="stroke:#A80036;stroke-width:1.0;"/><path d="M966.9888,280.1406 Q966.4106,280.4375 965.77,280.5781 Q965.1294,280.7344 964.4263,280.7344 Q961.9263,280.7344 960.5981,279.0938 Q959.2856,277.4375 959.2856,274.3125 Q959.2856,271.1875 960.5981,269.5313 Q961.9263,267.875 964.4263,267.875 Q965.1294,267.875 965.77,268.0313 Q966.4263,268.1875 966.9888,268.4844 L966.9888,271.2031 Q966.3638,270.625 965.77,270.3594 Q965.1763,270.0781 964.5513,270.0781 Q963.2075,270.0781 962.52,271.1563 Q961.8325,272.2188 961.8325,274.3125 Q961.8325,276.4063 962.52,277.4844 Q963.2075,278.5469 964.5513,278.5469 Q965.1763,278.5469 965.77,278.2813 Q966.3638,278 966.9888,277.4219 L966.9888,280.1406 Z " fill="#000000"/><text fill="#000000" font-family="sans-serif" font-size="12" lengthAdjust="spacing" textLength="74" x="984.52" y="278.6543">Involvement</text><line style="stroke:#A80036;stroke-width:1.5;" x1="911.27" x2="1099.27" y1="290.5" y2="290.5"/><text fill="#000000" font-family="sans-serif" font-size="11" lengthAdjust="spacing" textLength="178" x="916.27" y="304.7104">description : Multilingual_String</text><text fill="#000000" font-family="sans-serif" font-size="11" lengthAdjust="spacing" textLength="114" x="916.27" y="317.5151">position    : Position</text><!--MD5=[09ce52be0ee7de43c61b6e2d59bf108b]
class Person--><rect codeLine="20" fill="#FFFFFF" filter="url(#fddxec0zrtyk4)" height="65.6094" id="Person" style="stroke:#A80036;stroke-width:1.5;" width="236" x="282.27" y="429.5"/><ellipse cx="374.02" cy="445.5" fill="#ADD1B2" rx="11" ry="11" style="stroke:#A80036;stroke-width:1.0;"/><path d="M376.9888,451.1406 Q376.4106,451.4375 375.77,451.5781 Q375.1294,451.7344 374.4263,451.7344 Q371.9263,451.7344 370.5981,450.0938 Q369.2856,448.4375 369.2856,445.3125 Q369.2856,442.1875 370.5981,440.5313 Q371.9263,438.875 374.4263,438.875 Q375.1294,438.875 375.77,439.0313 Q376.4263,439.1875 376.9888,439.4844 L376.9888,442.2031 Q376.3638,441.625 375.77,441.3594 Q375.1763,441.0781 374.5513,441.0781 Q373.2075,441.0781 372.52,442.1563 Q371.8325,443.2188 371.8325,445.3125 Q371.8325,447.4063 372.52,448.4844 Q373.2075,449.5469 374.5513,449.5469 Q375.1763,449.5469 375.77,449.2813 Q376.3638,449 376.9888,448.4219 L376.9888,451.1406 Z " fill="#000000"/><text fill="#000000" font-family="sans-serif" font-size="12" lengthAdjust="spacing" textLength="44" x="394.52" y="449.6543">Person</text><line style="stroke:#A80036;stroke-width:1.5;" x1="283.27" x2="517.27" y1="461.5" y2="461.5"/><text fill="#000000" font-family="sans-serif" font-size="11" lengthAdjust="spacing" textLength="167" x="288.27" y="475.7104">name            : Person_Name</text><text fill="#000000" font-family="sans-serif" font-size="11" lengthAdjust="spacing" textLength="224" x="288.27" y="488.5151">alternateNames  : List&lt;Person_Name&gt;</text><!--MD5=[7b209ef07eb91b93e0aebc9fe4fb9a26]
class Person_Name--><rect codeLine="82" fill="#FFFFFF" filter="url(#fddxec0zrtyk4)" height="84.3516" id="Person_Name" style="stroke:#A80036;stroke-width:1.5;" width="201" x="299.77" y="572"/><ellipse cx="353.02" cy="590.9688" fill="#ADD0B2" rx="11" ry="11" style="stroke:#A80036;stroke-width:1.0;"/><path d="M352.6138,586.7813 L352.6138,594.7656 L353.27,594.7656 Q354.7075,594.7656 355.3169,593.8594 Q355.9419,592.9375 355.9419,590.7656 Q355.9419,588.5938 355.3169,587.6875 Q354.7075,586.7813 353.27,586.7813 L352.6138,586.7813 Z M350.1606,584.5781 L352.7856,584.5781 Q355.8169,584.5781 357.145,586.0313 Q358.4888,587.4688 358.4888,590.7656 Q358.4888,594.0625 357.145,595.5156 Q355.8169,596.9688 352.7856,596.9688 L350.1606,596.9688 L350.1606,584.5781 Z " fill="#000000"/><text fill="#000000" font-family="sans-serif" font-size="12" font-style="italic" lengthAdjust="spacing" textLength="74" x="379.52" y="588.1387">«DataType»</text><text fill="#000000" font-family="sans-serif" font-size="12" lengthAdjust="spacing" textLength="86" x="373.52" y="602.1074">Person_Name</text><line style="stroke:#A80036;stroke-width:1.5;" x1="300.77" x2="499.77" y1="609.9375" y2="609.9375"/><text fill="#000000" font-family="sans-serif" font-size="11" lengthAdjust="spacing" textLength="178" x="305.77" y="624.1479">firstNames : Multilingual_String</text><text fill="#000000" font-family="sans-serif" font-size="11" lengthAdjust="spacing" textLength="189" x="305.77" y="636.9526">familyNames : Multilingual_String</text><text fill="#000000" font-family="sans-serif" font-size="11" lengthAdjust="spacing" textLength="185" x="305.77" y="649.7573">otherNames : Multilingual_String</text><!--MD5=[41314a0efc36828092cff9ebad2fcafd]
class Group--><rect codeLine="106" fill="#FFFFFF" filter="url(#fddxec0zrtyk4)" height="32" id="Group" style="stroke:#A80036;stroke-width:1.5;" width="70" x="784.27" y="598"/><ellipse cx="799.27" cy="614" fill="#ADD1B2" rx="11" ry="11" style="stroke:#A80036;stroke-width:1.0;"/><path d="M802.2388,619.6406 Q801.6606,619.9375 801.02,620.0781 Q800.3794,620.2344 799.6763,620.2344 Q797.1763,620.2344 795.8481,618.5938 Q794.5356,616.9375 794.5356,613.8125 Q794.5356,610.6875 795.8481,609.0313 Q797.1763,607.375 799.6763,607.375 Q800.3794,607.375 801.02,607.5313 Q801.6763,607.6875 802.2388,607.9844 L802.2388,610.7031 Q801.6138,610.125 801.02,609.8594 Q800.4263,609.5781 799.8013,609.5781 Q798.4575,609.5781 797.77,610.6563 Q797.0825,611.7188 797.0825,613.8125 Q797.0825,615.9063 797.77,616.9844 Q798.4575,618.0469 799.8013,618.0469 Q800.4263,618.0469 801.02,617.7813 Q801.6138,617.5 802.2388,616.9219 L802.2388,619.6406 Z " fill="#000000"/><text fill="#000000" font-family="sans-serif" font-size="12" lengthAdjust="spacing" textLength="38" x="813.27" y="618.1543">Group</text><!--MD5=[affb11a45f8309443fb20b6133e8d181]
class Group_or_Organisation_Unit--><rect codeLine="94" fill="#FFFFFF" filter="url(#fddxec0zrtyk4)" height="78.4141" id="Group_or_Organisation_Unit" style="stroke:#A80036;stroke-width:1.5;" width="206" x="965.27" y="423.5"/><ellipse cx="980.27" cy="439.5" fill="#ADD1B2" rx="11" ry="11" style="stroke:#A80036;stroke-width:1.0;"/><path d="M983.2388,445.1406 Q982.6606,445.4375 982.02,445.5781 Q981.3794,445.7344 980.6763,445.7344 Q978.1763,445.7344 976.8481,444.0938 Q975.5356,442.4375 975.5356,439.3125 Q975.5356,436.1875 976.8481,434.5313 Q978.1763,432.875 980.6763,432.875 Q981.3794,432.875 982.02,433.0313 Q982.6763,433.1875 983.2388,433.4844 L983.2388,436.2031 Q982.6138,435.625 982.02,435.3594 Q981.4263,435.0781 980.8013,435.0781 Q979.4575,435.0781 978.77,436.1563 Q978.0825,437.2188 978.0825,439.3125 Q978.0825,441.4063 978.77,442.4844 Q979.4575,443.5469 980.8013,443.5469 Q981.4263,443.5469 982.02,443.2813 Q982.6138,443 983.2388,442.4219 L983.2388,445.1406 Z " fill="#000000"/><text fill="#000000" font-family="sans-serif" font-size="12" lengthAdjust="spacing" textLength="174" x="994.27" y="443.6543">Group_or_Organisation_Unit</text><line style="stroke:#A80036;stroke-width:1.5;" x1="966.27" x2="1170.27" y1="455.5" y2="455.5"/><text fill="#000000" font-family="sans-serif" font-size="11" lengthAdjust="spacing" textLength="147" x="971.27" y="469.7104">name : Multilingual_String</text><text fill="#000000" font-family="sans-serif" font-size="11" lengthAdjust="spacing" textLength="95" x="971.27" y="482.5151">acronym : String</text><text fill="#000000" font-family="sans-serif" font-size="11" lengthAdjust="spacing" textLength="178" x="971.27" y="495.3198">description : Multilingual_String</text><!--MD5=[779f3743e425ed8a6f0bf188ddea4860]
class Organisation_Unit--><rect codeLine="115" fill="#FFFFFF" filter="url(#fddxec0zrtyk4)" height="32" id="Organisation_Unit" style="stroke:#A80036;stroke-width:1.5;" width="143" x="100.77" y="598"/><ellipse cx="115.77" cy="614" fill="#ADD1B2" rx="11" ry="11" style="stroke:#A80036;stroke-width:1.0;"/><path d="M118.7388,619.6406 Q118.1606,619.9375 117.52,620.0781 Q116.8794,620.2344 116.1763,620.2344 Q113.6763,620.2344 112.3481,618.5938 Q111.0356,616.9375 111.0356,613.8125 Q111.0356,610.6875 112.3481,609.0313 Q113.6763,607.375 116.1763,607.375 Q116.8794,607.375 117.52,607.5313 Q118.1763,607.6875 118.7388,607.9844 L118.7388,610.7031 Q118.1138,610.125 117.52,609.8594 Q116.9263,609.5781 116.3013,609.5781 Q114.9575,609.5781 114.27,610.6563 Q113.5825,611.7188 113.5825,613.8125 Q113.5825,615.9063 114.27,616.9844 Q114.9575,618.0469 116.3013,618.0469 Q116.9263,618.0469 117.52,617.7813 Q118.1138,617.5 118.7388,616.9219 L118.7388,619.6406 Z " fill="#000000"/><text fill="#000000" font-family="sans-serif" font-size="12" lengthAdjust="spacing" textLength="111" x="129.77" y="618.1543">Organisation_Unit</text><!--MD5=[dae000cba6c379e3053478bba72a741c]
class Organisation_Unit_with_Members--><rect codeLine="132" fill="#FFFFFF" filter="url(#fddxec0zrtyk4)" height="32" id="Organisation_Unit_with_Members" style="stroke:#A80036;stroke-width:1.5;" width="237" x="250.77" y="717"/><ellipse cx="265.77" cy="733" fill="#ADD1B2" rx="11" ry="11" style="stroke:#A80036;stroke-width:1.0;"/><path d="M268.7388,738.6406 Q268.1606,738.9375 267.52,739.0781 Q266.8794,739.2344 266.1763,739.2344 Q263.6763,739.2344 262.3481,737.5938 Q261.0356,735.9375 261.0356,732.8125 Q261.0356,729.6875 262.3481,728.0313 Q263.6763,726.375 266.1763,726.375 Q266.8794,726.375 267.52,726.5313 Q268.1763,726.6875 268.7388,726.9844 L268.7388,729.7031 Q268.1138,729.125 267.52,728.8594 Q266.9263,728.5781 266.3013,728.5781 Q264.9575,728.5781 264.27,729.6563 Q263.5825,730.7188 263.5825,732.8125 Q263.5825,734.9063 264.27,735.9844 Q264.9575,737.0469 266.3013,737.0469 Q266.9263,737.0469 267.52,736.7813 Q268.1138,736.5 268.7388,735.9219 L268.7388,738.6406 Z " fill="#000000"/><text fill="#000000" font-family="sans-serif" font-size="12" lengthAdjust="spacing" textLength="205" x="279.77" y="737.1543">Organisation_Unit_with_Members</text><!--MD5=[ddbff00b4911ad4b77d6aa32dd14d1d7]
class Affiliation_Statement--><rect codeLine="453" fill="#FFFFFF" filter="url(#fddxec0zrtyk4)" height="91.2188" id="Affiliation_Statement" style="stroke:#A80036;stroke-width:1.5;" width="224" x="288.27" y="246"/><ellipse cx="331.62" cy="262" fill="#ADD1B2" rx="11" ry="11" style="stroke:#A80036;stroke-width:1.0;"/><path d="M334.5888,267.6406 Q334.0106,267.9375 333.37,268.0781 Q332.7294,268.2344 332.0263,268.2344 Q329.5263,268.2344 328.1981,266.5938 Q326.8856,264.9375 326.8856,261.8125 Q326.8856,258.6875 328.1981,257.0313 Q329.5263,255.375 332.0263,255.375 Q332.7294,255.375 333.37,255.5313 Q334.0263,255.6875 334.5888,255.9844 L334.5888,258.7031 Q333.9638,258.125 333.37,257.8594 Q332.7763,257.5781 332.1513,257.5781 Q330.8075,257.5781 330.12,258.6563 Q329.4325,259.7188 329.4325,261.8125 Q329.4325,263.9063 330.12,264.9844 Q330.8075,266.0469 332.1513,266.0469 Q332.7763,266.0469 333.37,265.7813 Q333.9638,265.5 334.5888,264.9219 L334.5888,267.6406 Z " fill="#000000"/><text fill="#000000" font-family="sans-serif" font-size="12" lengthAdjust="spacing" textLength="129" x="351.92" y="266.1543">Affiliation_Statement</text><line style="stroke:#A80036;stroke-width:1.5;" x1="289.27" x2="511.27" y1="278" y2="278"/><text fill="#000000" font-family="sans-serif" font-size="11" lengthAdjust="spacing" textLength="203" x="294.27" y="292.2104">displayAffiliation_Statement : String</text><text fill="#000000" font-family="sans-serif" font-size="11" lengthAdjust="spacing" textLength="159" x="294.27" y="305.0151">displayPersonName : String</text><text fill="#000000" font-family="sans-serif" font-size="11" lengthAdjust="spacing" textLength="212" x="294.27" y="317.8198">contacts : List&lt;Contact_Information&gt;</text><text fill="#000000" font-family="sans-serif" font-size="11" lengthAdjust="spacing" textLength="102" x="294.27" y="330.6245">position : Position</text><!--MD5=[392b5d5331db5043115a06bd654f787a]
link Agent to Date_Range--><path codeLine="15" d="M699.89,330.85 C724.77,354.33 756.91,384.68 783.95,410.21 " fill="none" id="Agent-to-Date_Range" style="stroke:#A80036;stroke-width:1.0;stroke-dasharray:7.0,7.0;"/><polygon fill="#A80036" points="787.9,413.94,784.1244,404.8436,784.2729,410.4985,778.618,410.647,787.9,413.94" style="stroke:#A80036;stroke-width:1.0;"/><!--MD5=[d43df4fbdad36fd00892352d175d5460]
link Agent to Contact_Information--><path codeLine="16" d="M653.15,330.85 C647.66,365.18 639.84,414.17 635.49,441.36 " fill="none" id="Agent-to-Contact_Information" style="stroke:#A80036;stroke-width:1.0;stroke-dasharray:7.0,7.0;"/><polygon fill="#A80036" points="634.67,446.49,640.0333,438.2296,635.4549,441.552,632.1325,436.9736,634.67,446.49" style="stroke:#A80036;stroke-width:1.0;"/><text fill="#000000" font-family="sans-serif" font-size="13" lengthAdjust="spacing" textLength="23" x="608.5419" y="435.4982">0..*</text><!--MD5=[ff9dfe2dddb5fe4a69020d7834f0d207]
link Document to Activity--><path codeLine="228" d="M857.27,39.36 C857.27,58.77 857.27,92.45 857.27,115.8 " fill="none" id="Document-Activity" style="stroke:#A80036;stroke-width:1.0;"/><polygon fill="#000000" points="862.27,82.5664,865.2089,73.5213,859.3311,73.5213,862.27,82.5664" style="stroke:#000000;stroke-width:1.0;"/><text fill="#000000" font-family="sans-serif" font-size="13" lengthAdjust="spacing" textLength="36" x="871.27" y="82.0669">prove</text><text fill="#000000" font-family="sans-serif" font-size="13" lengthAdjust="spacing" textLength="23" x="830.6044" y="59.0534">0..*</text><text fill="#000000" font-family="sans-serif" font-size="13" lengthAdjust="spacing" textLength="23" x="831.6106" y="104.9961">0..*</text><!--MD5=[cd935cc757d29bd6a59b1252b30899e0]
link Activity to Agent--><path codeLine="234" d="M781.74,152.43 C724.74,160.9 653.37,175.83 635.27,199 C624.47,212.84 626.88,231.09 633.35,247.64 " fill="none" id="Activity-to-Agent" style="stroke:#A80036;stroke-width:1.0;"/><polygon fill="#A80036" points="635.27,252.26,635.49,242.4136,633.3419,247.6467,628.1087,245.4986,635.27,252.26" style="stroke:#A80036;stroke-width:1.0;"/><polygon fill="#000000" points="636.0617,210.2665,645.2616,207.8555,642.0875,202.9084,636.0617,210.2665" style="stroke:#000000;stroke-width:1.0;"/><text fill="#000000" font-family="sans-serif" font-size="13" lengthAdjust="spacing" textLength="33" x="649.27" y="212.0669">actor</text><text fill="#000000" font-family="sans-serif" font-size="13" lengthAdjust="spacing" textLength="23" x="750.7169" y="166.1188">0..*</text><text fill="#000000" font-family="sans-serif" font-size="13" lengthAdjust="spacing" textLength="24" x="605.3075" y="241.5623">0..1</text><!--MD5=[2da288daa10c3ee0fffff7997d0d73e1]
link Activity to Date_Range--><path codeLine="782" d="M855.74,169.25 C852.63,221.2 845.57,339.48 841.44,408.58 " fill="none" id="Activity-to-Date_Range" style="stroke:#A80036;stroke-width:1.0;stroke-dasharray:7.0,7.0;"/><polygon fill="#A80036" points="841.12,413.88,845.6518,405.1357,841.4195,408.889,837.6662,404.6566,841.12,413.88" style="stroke:#A80036;stroke-width:1.0;"/><!--MD5=[ff11c2ae19cf8b0222e8ec830cb319de]
link Activity to Funding--><path codeLine="783" d="M933.05,151.23 C1049.08,164.52 1263.22,195.29 1319.27,246 C1379.45,300.44 1388.75,406.81 1390.09,446.28 " fill="none" id="Activity-Funding" style="stroke:#A80036;stroke-width:1.0;"/><polygon fill="#000000" points="1372.0693,288.8546,1378.0745,296.2294,1381.2624,291.2912,1372.0693,288.8546" style="stroke:#000000;stroke-width:1.0;"/><text fill="#000000" font-family="sans-serif" font-size="13" lengthAdjust="spacing" textLength="42" x="1385.27" y="296.0669">covers</text><text fill="#000000" font-family="sans-serif" font-size="13" lengthAdjust="spacing" textLength="23" x="940.8234" y="148.4211">0..*</text><text fill="#000000" font-family="sans-serif" font-size="13" lengthAdjust="spacing" textLength="23" x="1363.221" y="435.5116">0..*</text><!--MD5=[774ab914c44fde287bade86ae1a1d531]
reverse link Involvement to Membership--><path codeLine="188" d="M1077.71,335.11 C1094.47,345.31 1112.12,356.35 1128.27,367 C1168.74,393.69 1214.42,427.17 1240.04,446.27 " fill="none" id="Involvement-backto-Membership" style="stroke:#A80036;stroke-width:1.0;"/><polygon fill="none" points="1073.84,340.95,1060.33,324.62,1081.07,328.96,1073.84,340.95" style="stroke:#A80036;stroke-width:1.0;"/><!--MD5=[de96f77e660762cb21a195b4097c3876]
reverse link Agent to Person--><path codeLine="78" d="M583.84,341.72 C540.51,370 487.32,404.7 449.38,429.46 " fill="none" id="Agent-backto-Person" style="stroke:#A80036;stroke-width:1.0;"/><polygon fill="none" points="580.25,335.7,600.83,330.64,587.9,347.43,580.25,335.7" style="stroke:#A80036;stroke-width:1.0;"/><!--MD5=[5d8901ce694eb85aefa78b7d82d9f6f6]
link Person to Person_Name--><path codeLine="90" d="M400.27,495.57 C400.27,516.31 400.27,543.64 400.27,566.72 " fill="none" id="Person-to-Person_Name" style="stroke:#A80036;stroke-width:1.0;stroke-dasharray:7.0,7.0;"/><polygon fill="#A80036" points="400.27,571.87,404.27,562.87,400.27,566.87,396.27,562.87,400.27,571.87" style="stroke:#A80036;stroke-width:1.0;"/><!--MD5=[ef849346ed6a9c6429a3acad43755067]
reverse link Group_or_Organisation_Unit to Group--><path codeLine="111" d="M987.4,512.06 C937.74,541.87 877.5,578.04 844.28,597.98 " fill="none" id="Group_or_Organisation_Unit-backto-Group" style="stroke:#A80036;stroke-width:1.0;"/><polygon fill="none" points="984.05,505.91,1004.8,501.61,991.25,517.91,984.05,505.91" style="stroke:#A80036;stroke-width:1.0;"/><!--MD5=[69e875cd42dba5e548805475ea29280d]
link Group to Group--><path codeLine="128" d="M859.65,600.58 C875.76,599.84 889.27,604.31 889.27,614 C889.27,623.69 875.76,628.16 859.65,627.42 " fill="none" id="Group-Group" style="stroke:#A80036;stroke-width:1.0;stroke-dasharray:7.0,7.0;"/><polygon fill="#A80036" points="854.57,627.03,863.2347,631.7123,859.5551,627.4157,863.8517,623.7361,854.57,627.03" style="stroke:#A80036;stroke-width:1.0;"/><polygon fill="#A80036" points="854.57,600.97,863.8517,604.2639,859.5551,600.5843,863.2347,596.2877,854.57,600.97" style="stroke:#A80036;stroke-width:1.0;"/><text fill="#000000" font-family="sans-serif" font-size="13" lengthAdjust="spacing" textLength="69" x="862.2044" y="595.7987">0..* part of</text><text fill="#000000" font-family="sans-serif" font-size="13" lengthAdjust="spacing" textLength="60" x="862.1203" y="624.744">0..* parts</text><!--MD5=[46aa33658a7939f97c192b82d622be7c]
reverse link Group_or_Organisation_Unit to Organisation_Unit--><path codeLine="120" d="M960.37,507.58 C955.98,508.83 951.6,509.97 947.27,511 C658.48,579.46 571.65,506.04 282.27,572 C255.85,578.02 227.19,588.86 205.75,597.87 " fill="none" id="Group_or_Organisation_Unit-backto-Organisation_Unit" style="stroke:#A80036;stroke-width:1.0;"/><polygon fill="none" points="958.47,500.84,979.65,501.55,962.65,514.2,958.47,500.84" style="stroke:#A80036;stroke-width:1.0;"/><!--MD5=[f47b8cdb810f6f32f0d73f513aa4cbda]
link Organisation_Unit to Organisation_Unit--><path codeLine="124" d="M249.37,600.87 C266.39,602.1 278.77,606.48 278.77,614 C278.77,621.52 266.39,625.9 249.37,627.13 " fill="none" id="Organisation_Unit-Organisation_Unit" style="stroke:#A80036;stroke-width:1.0;stroke-dasharray:7.0,7.0;"/><polygon fill="#A80036" points="243.95,627.42,253.1441,630.9511,248.9434,627.1625,252.732,622.9617,243.95,627.42" style="stroke:#A80036;stroke-width:1.0;"/><polygon fill="#A80036" points="243.95,600.58,252.732,605.0383,248.9434,600.8375,253.1441,597.0489,243.95,600.58" style="stroke:#A80036;stroke-width:1.0;"/><text fill="#000000" font-family="sans-serif" font-size="13" lengthAdjust="spacing" textLength="69" x="248.0521" y="586.845">0..* part of</text><text fill="#000000" font-family="sans-serif" font-size="13" lengthAdjust="spacing" textLength="60" x="252.2453" y="645.127">0..* parts</text><!--MD5=[854899a0b21de2cb3f4d3222738c1bb3]
reverse link Group to Organisation_Unit_with_Members--><path codeLine="137" d="M764.52,629.24 C679.06,651.46 514.7,694.19 427.28,716.92 " fill="none" id="Group-backto-Organisation_Unit_with_Members" style="stroke:#A80036;stroke-width:1.0;"/><polygon fill="none" points="762.85,622.44,783.96,624.18,766.37,635.99,762.85,622.44" style="stroke:#A80036;stroke-width:1.0;"/><!--MD5=[adeab3cf6be56cae862ee063039c31ec]
reverse link Organisation_Unit to Organisation_Unit_with_Members--><path codeLine="141" d="M215.04,640.4 C254.28,663.7 311.11,697.46 343.71,716.82 " fill="none" id="Organisation_Unit-backto-Organisation_Unit_with_Members" style="stroke:#A80036;stroke-width:1.0;"/><polygon fill="none" points="211.25,646.29,197.63,630.06,218.4,634.25,211.25,646.29" style="stroke:#A80036;stroke-width:1.0;"/><!--MD5=[8baa0633a34be8ca6adcc4fd46743d97]
reverse link Agent to Group_or_Organisation_Unit--><path codeLine="102" d="M769.95,338.23 C834.54,364.92 915.09,398.2 976.2,423.45 " fill="none" id="Agent-backto-Group_or_Organisation_Unit" style="stroke:#A80036;stroke-width:1.0;"/><polygon fill="none" points="767.13,344.64,751.32,330.53,772.47,331.7,767.13,344.64" style="stroke:#A80036;stroke-width:1.0;"/><!--MD5=[5310b7429ef001befd0a176a00932538]
reverse link Activity to Involvement--><path codeLine="160" d="M897.27,183.22 C920.96,206.75 950.58,236.18 972.81,258.26 " fill="none" id="Activity-backto-Involvement" style="stroke:#A80036;stroke-width:1.0;"/><polygon fill="none" points="892.31,188.17,883.05,169.11,902.18,178.23,892.31,188.17" style="stroke:#A80036;stroke-width:1.0;"/><!--MD5=[3e6df519c6409dff9ecce5f5942987dd]
link Involvement to Group_or_Organisation_Unit--><path codeLine="238" d="M1017.27,324.69 C1027.16,351.21 1041.28,389.08 1052.15,418.25 " fill="none" id="Involvement-to-Group_or_Organisation_Unit" style="stroke:#A80036;stroke-width:1.0;"/><polygon fill="#A80036" points="1054.01,423.22,1054.6215,413.3901,1052.2669,418.5337,1047.1234,416.1791,1054.01,423.22" style="stroke:#A80036;stroke-width:1.0;"/><polygon fill="#000000" points="1045.0166,380.2514,1044.6107,370.7495,1039.1032,372.8028,1045.0166,380.2514" style="stroke:#000000;stroke-width:1.0;"/><text fill="#000000" font-family="sans-serif" font-size="13" lengthAdjust="spacing" textLength="67" x="1052.27" y="380.0669">involved in</text><text fill="#000000" font-family="sans-serif" font-size="13" lengthAdjust="spacing" textLength="23" x="994.3591" y="344.0514">0..*</text><!--MD5=[ec091f800280b56df8e15aaaa2e5104f]
reverse link Affiliation_Statement to Involvement--><path codeLine="764" d="M517.45,245.23 C604.93,216.76 727.24,189.78 833.77,213 C874.25,221.82 916.6,241.09 949.09,258.33 " fill="none" id="Affiliation_Statement-backto-Involvement" style="stroke:#A80036;stroke-width:1.0;"/><polygon fill="#A80036" points="512.53,246.85,522.3313,247.8164,517.2763,245.2774,519.8152,240.2224,512.53,246.85" style="stroke:#A80036;stroke-width:1.0;"/><polygon fill="#000000" points="690.7723,207.4147,699.7241,210.6267,699.9024,204.7515,690.7723,207.4147" style="stroke:#000000;stroke-width:1.0;"/><text fill="#000000" font-family="sans-serif" font-size="13" lengthAdjust="spacing" textLength="128" x="704.77" y="212.0669">is the foundation for</text><text fill="#000000" font-family="sans-serif" font-size="13" lengthAdjust="spacing" textLength="23" x="520.4584" y="240.5733">0..*</text><text fill="#000000" font-family="sans-serif" font-size="13" lengthAdjust="spacing" textLength="23" x="912.7655" y="247.4415">0..*</text><!--MD5=[eeb1986463f873db234da87eccdc590b]
link Involvement to Involvement--><path codeLine="768" d="M1100.51,283.88 C1120.7,284.65 1135.27,287.19 1135.27,291.5 C1135.27,295.44 1123.09,297.9 1105.58,298.88 " fill="none" id="Involvement-to-Involvement" style="stroke:#A80036;stroke-width:1.0;"/><polygon fill="#A80036" points="1100.51,299.12,1109.6837,302.7036,1105.5048,298.891,1109.3174,294.712,1100.51,299.12" style="stroke:#A80036;stroke-width:1.0;"/><polygon fill="#000000" points="1140.4605,296.5628,1143.0526,287.4123,1137.1791,287.6363,1140.4605,296.5628" style="stroke:#000000;stroke-width:1.0;"/><text fill="#000000" font-family="sans-serif" font-size="13" lengthAdjust="spacing" textLength="26" x="1154.27" y="296.0669">part</text><text fill="#000000" font-family="sans-serif" font-size="13" lengthAdjust="spacing" textLength="23" x="1108.3487" y="279.8557">0..*</text><text fill="#000000" font-family="sans-serif" font-size="13" lengthAdjust="spacing" textLength="24" x="1108.3854" y="296.2149">0..1</text><!--MD5=[eeb1986463f873db234da87eccdc590b]
link Involvement to Involvement--><path codeLine="772" d="M1100.34,276.04 C1145.57,274.41 1186.27,279.56 1186.27,291.5 C1186.27,302.99 1148.54,308.2 1105.35,307.11 " fill="none" id="Involvement-to-Involvement-1" style="stroke:#A80036;stroke-width:1.0;"/><polygon fill="#A80036" points="1100.34,306.96,1109.2099,311.2407,1105.3375,307.1171,1109.4612,303.2447,1100.34,306.96" style="stroke:#A80036;stroke-width:1.0;"/><polygon fill="#000000" points="1191.0899,296.5632,1194.3527,287.6298,1188.4787,287.4181,1191.0899,296.5632" style="stroke:#000000;stroke-width:1.0;"/><text fill="#000000" font-family="sans-serif" font-size="13" lengthAdjust="spacing" textLength="89" x="1205.27" y="296.0669">part transitive</text><text fill="#000000" font-family="sans-serif" font-size="13" lengthAdjust="spacing" textLength="23" x="1108.1662" y="271.44">0..*</text><text fill="#000000" font-family="sans-serif" font-size="13" lengthAdjust="spacing" textLength="23" x="1108.1662" y="320.7322">0..*</text><!--MD5=[335bc652314d68e20c6b9db39c8a9e92]
reverse link Activity to Affiliation_Statement--><path codeLine="574" d="M768.54,148.78 C671.17,155.88 522.16,170.98 473.27,199 C454.06,210.02 437.97,228.24 425.83,245.53 " fill="none" id="Activity-backto-Affiliation_Statement" style="stroke:#A80036;stroke-width:1.0;"/><polygon fill="#FFFFFF" points="781.63,147.85,775.3636,144.2818,769.6597,148.6937,775.9261,152.262,781.63,147.85" style="stroke:#A80036;stroke-width:1.0;"/><polygon fill="#000000" points="473.4581,208.9249,482.9614,209.2958,481.3645,203.639,473.4581,208.9249" style="stroke:#000000;stroke-width:1.0;"/><text fill="#000000" font-family="sans-serif" font-size="13" lengthAdjust="spacing" textLength="132" x="487.27" y="212.0669">affilation statements</text><text fill="#000000" font-family="sans-serif" font-size="13" lengthAdjust="spacing" textLength="23" x="750.8691" y="144.74">0..*</text><text fill="#000000" font-family="sans-serif" font-size="13" lengthAdjust="spacing" textLength="23" x="404.8072" y="235.0716">0..*</text><!--MD5=[08193f8303ce63c6cbc57ff8816f81b7]
link Affiliation_Statement to Organisation_Unit--><path codeLine="575" d="M288.03,330.65 C249.34,349.57 209.85,376.59 186.27,414 C150.81,470.27 160.68,554.11 167.82,592.49 " fill="none" id="Affiliation_Statement-to-Organisation_Unit" style="stroke:#A80036;stroke-width:1.0;"/><polygon fill="#A80036" points="168.85,597.81,171.0825,588.2175,167.9079,592.8996,163.2258,589.7249,168.85,597.81" style="stroke:#A80036;stroke-width:1.0;"/><polygon fill="#000000" points="189.1839,467.1104,195.6286,460.1164,190.2868,457.664,189.1839,467.1104" style="stroke:#000000;stroke-width:1.0;"/><text fill="#000000" font-family="sans-serif" font-size="13" lengthAdjust="spacing" textLength="63" x="200.27" y="467.0669">institution</text><text fill="#000000" font-family="sans-serif" font-size="13" lengthAdjust="spacing" textLength="23" x="257.1029" y="329.7417">0..*</text><text fill="#000000" font-family="sans-serif" font-size="13" lengthAdjust="spacing" textLength="8" x="158.3921" y="587.0516">1</text><!--MD5=[08193f8303ce63c6cbc57ff8816f81b7]
link Affiliation_Statement to Organisation_Unit--><path codeLine="576" d="M288.16,296.14 C202.44,305.54 89.39,333.68 31.27,414 C6,448.93 11.66,472.61 31.27,511 C51.84,551.26 96.54,579.31 130.13,595.66 " fill="none" id="Affiliation_Statement-to-Organisation_Unit-1" style="stroke:#A80036;stroke-width:1.0;"/><polygon fill="#A80036" points="135.01,597.99,128.6141,590.5005,130.4986,595.8342,125.1649,597.7187,135.01,597.99" style="stroke:#A80036;stroke-width:1.0;"/><polygon fill="#000000" points="33.9368,466.9886,40.7569,460.3602,35.5583,457.6173,33.9368,466.9886" style="stroke:#000000;stroke-width:1.0;"/><text fill="#000000" font-family="sans-serif" font-size="13" lengthAdjust="spacing" textLength="107" x="45.27" y="467.0669">organisation unit</text><text fill="#000000" font-family="sans-serif" font-size="13" lengthAdjust="spacing" textLength="23" x="257.2412" y="293.0209">0..*</text><text fill="#000000" font-family="sans-serif" font-size="13" lengthAdjust="spacing" textLength="24" x="94.0769" y="586.9982">0..1</text><!--MD5=[df6fa22554e93164629bbf1a9b0c08c4]
link Affiliation_Statement to Person--><path codeLine="577" d="M400.27,337.35 C400.27,364.48 400.27,398.67 400.27,424.3 " fill="none" id="Affiliation_Statement-to-Person" style="stroke:#A80036;stroke-width:1.0;"/><polygon fill="#A80036" points="400.27,429.31,404.27,420.31,400.27,424.31,396.27,420.31,400.27,429.31" style="stroke:#A80036;stroke-width:1.0;"/><polygon fill="#000000" points="405.27,380.5664,408.2089,371.5213,402.3311,371.5213,405.27,380.5664" style="stroke:#000000;stroke-width:1.0;"/><text fill="#000000" font-family="sans-serif" font-size="13" lengthAdjust="spacing" textLength="44" x="414.27" y="380.0669">person</text><text fill="#000000" font-family="sans-serif" font-size="13" lengthAdjust="spacing" textLength="23" x="375.5809" y="357.2464">0..*</text><text fill="#000000" font-family="sans-serif" font-size="13" lengthAdjust="spacing" textLength="24" x="373.9075" y="418.4176">0..1</text><!--MD5=[51c2f6a80f28302c21b27f1a66116436]
@startuml

    !includesub core.puml!common
    !includesub core.puml!Agent
    !includesub core.puml!Activity
    !includesub core.puml!Membership
    !includesub core.puml!Person
    !includesub core.puml!Group
    !includesub core.puml!Organisation_Unit
    !includesub core.puml!Organisation_Unit_with_Members
    !includesub core.puml!Group_or_Organisation_Unit
    !includesub core.puml!Involvement
    !includesub core.puml!Affiliation_Statement

@enduml

@startuml

    hide empty members
    skinparam BoxPadding 120
    class "Agent" #ffffff {
        keywords : List<Multilingual_String>
    	lifetime : Date_Range
    	contacts : List<Contact_Information>
    }
    "Agent" ..> "Date_Range"
    "Agent" ..> "0..*" "Contact_Information"
    class "Activity" #ffffff {
  		dateRange : Date_Range
    }
	"Document" "0..*" - - "0..*" "Activity" : prove >
    "Activity" "0..*" - -> "0..1" "Agent" : actor >
    class Date_Range << (D,#add0b2) DataType>> #ffffff {
        start_date : Date
        start_date_inclusive : Boolean
        end_date : Date
        end_date_inclusive : Boolean
	}
	"Activity" ..> "Date_Range"
	"Activity" "0..*" - - - "0..*" "Funding" : covers <
    class "Membership" #ffffff {
    }
    "Involvement" <|-d- "Membership"
    class "Person" #ffffff {
        name            : Person_Name
        alternateNames  : List<Person_Name>
    }
    "Agent" <|- - "Person"
    class Person_Name << (D,#add0b2) DataType>> #ffffff {
        firstNames : Multilingual_String
        familyNames : Multilingual_String
        otherNames : Multilingual_String
    }
    "Person" ..> "Person_Name"
    class "Group" #ffffff {
    }
	"Group_or_Organisation_Unit" <|- - "Group"
	"Group" "0..* part of" <..> "0..* parts" "Group"
    class "Organisation_Unit" #ffffff {
    }
	"Group_or_Organisation_Unit" <|- - "Organisation_Unit"
	"Organisation_Unit" "0..* part of" <..> "0..* parts" "Organisation_Unit"
    class "Organisation_Unit_with_Members" #ffffff {
    }
    "Group" <|- - "Organisation_Unit_with_Members"
    "Organisation_Unit" <|- - "Organisation_Unit_with_Members"
    class "Group_or_Organisation_Unit" #ffffff {
        name : Multilingual_String
        acronym : String
        description : Multilingual_String
    }
	"Agent" <|- - "Group_or_Organisation_Unit"
    class "Involvement" #ffffff {
        description : Multilingual_String
        position    : Position
    }
   "Activity" <|-d- "Involvement"
	"Involvement" "0..*" - -> "Group_or_Organisation_Unit" : involved in >
	"Involvement" "0..*" -l-> "0..*" "Affiliation_Statement" : is the foundation for >
	"Involvement" "0..*" - -> "0..1" "Involvement" : part >
	"Involvement" "0..*" - -> "0..*" "Involvement" : part transitive >
    class "Affiliation_Statement" #ffffff {
        displayAffiliation_Statement : String
        displayPersonName : String
        contacts : List<Contact_Information>
        position : Position
    }
    "Activity" "0..*" o- - "0..*" "Affiliation_Statement" : affilation statements >
    "Affiliation_Statement" "0..*" - -> "1" "Organisation_Unit" : institution >
    "Affiliation_Statement" "0..*" - -> "0..1" "Organisation_Unit" : organisation unit >
    "Affiliation_Statement" "0..*" - -> "0..1" "Person" : person >

@enduml

PlantUML version 1.2021.8(Sat Jun 26 08:20:59 UTC 2021)
(GPL source distribution)
Java Runtime: OpenJDK Runtime Environment
JVM: OpenJDK 64-Bit Server VM
Default Encoding: UTF-8
Language: en
Country: null
--></g></svg>