<?xml version="1.0" encoding="UTF-8" standalone="no"?><svg xmlns="http://www.w3.org/2000/svg" xmlns:xlink="http://www.w3.org/1999/xlink" contentScriptType="application/ecmascript" contentStyleType="text/css" height="656px" preserveAspectRatio="none" style="width:949px;height:656px;background:#FFFFFF;" version="1.1" viewBox="0 0 949 656" width="949px" zoomAndPan="magnify"><defs><filter height="300%" id="f1o5n7txocog9f" width="300%" x="-1" y="-1"><feGaussianBlur result="blurOut" stdDeviation="2.0"/><feColorMatrix in="blurOut" result="blurOut2" type="matrix" values="0 0 0 0 0 0 0 0 0 0 0 0 0 0 0 0 0 0 .4 0"/><feOffset dx="4.0" dy="4.0" in="blurOut2" result="blurOut3"/><feBlend in="SourceGraphic" in2="blurOut3" mode="normal"/></filter></defs><g><!--MD5=[9d44916250b776386006c440668bcfbb]
class Agent--><rect codeLine="10" fill="#FFFFFF" filter="url(#f1o5n7txocog9f)" height="52.8047" id="Agent" style="stroke:#A80036;stroke-width:1.5;" width="133" x="742" y="156"/><ellipse cx="785.8" cy="172" fill="#ADD1B2" rx="11" ry="11" style="stroke:#A80036;stroke-width:1.0;"/><path d="M788.7688,177.6406 Q788.1906,177.9375 787.55,178.0781 Q786.9094,178.2344 786.2063,178.2344 Q783.7063,178.2344 782.3781,176.5938 Q781.0656,174.9375 781.0656,171.8125 Q781.0656,168.6875 782.3781,167.0313 Q783.7063,165.375 786.2063,165.375 Q786.9094,165.375 787.55,165.5313 Q788.2063,165.6875 788.7688,165.9844 L788.7688,168.7031 Q788.1438,168.125 787.55,167.8594 Q786.9563,167.5781 786.3313,167.5781 Q784.9875,167.5781 784.3,168.6563 Q783.6125,169.7188 783.6125,171.8125 Q783.6125,173.9063 784.3,174.9844 Q784.9875,176.0469 786.3313,176.0469 Q786.9563,176.0469 787.55,175.7813 Q788.1438,175.5 788.7688,174.9219 L788.7688,177.6406 Z " fill="#000000"/><text fill="#000000" font-family="sans-serif" font-size="12" lengthAdjust="spacing" textLength="37" x="806.2" y="176.1543">Agent</text><line style="stroke:#A80036;stroke-width:1.5;" x1="743" x2="874" y1="188" y2="188"/><text fill="#000000" font-family="sans-serif" font-size="11" lengthAdjust="spacing" textLength="121" x="748" y="202.2104">lifetime : Date_Range</text><!--MD5=[c881b25adf3665c6568c9693d41a70f3]
class Activity--><rect codeLine="91" fill="#FFFFFF" filter="url(#f1o5n7txocog9f)" height="52.8047" id="Activity" style="stroke:#A80036;stroke-width:1.5;" width="151" x="377" y="7"/><ellipse cx="426.75" cy="23" fill="#ADD1B2" rx="11" ry="11" style="stroke:#A80036;stroke-width:1.0;"/><path d="M429.7188,28.6406 Q429.1406,28.9375 428.5,29.0781 Q427.8594,29.2344 427.1563,29.2344 Q424.6563,29.2344 423.3281,27.5938 Q422.0156,25.9375 422.0156,22.8125 Q422.0156,19.6875 423.3281,18.0313 Q424.6563,16.375 427.1563,16.375 Q427.8594,16.375 428.5,16.5313 Q429.1563,16.6875 429.7188,16.9844 L429.7188,19.7031 Q429.0938,19.125 428.5,18.8594 Q427.9063,18.5781 427.2813,18.5781 Q425.9375,18.5781 425.25,19.6563 Q424.5625,20.7188 424.5625,22.8125 Q424.5625,24.9063 425.25,25.9844 Q425.9375,27.0469 427.2813,27.0469 Q427.9063,27.0469 428.5,26.7813 Q429.0938,26.5 429.7188,25.9219 L429.7188,28.6406 Z " fill="#000000"/><text fill="#000000" font-family="sans-serif" font-size="12" lengthAdjust="spacing" textLength="43" x="447.25" y="27.1543">Activity</text><line style="stroke:#A80036;stroke-width:1.5;" x1="378" x2="527" y1="39" y2="39"/><text fill="#000000" font-family="sans-serif" font-size="11" lengthAdjust="spacing" textLength="139" x="383" y="53.2104">dateRange : Date_Range</text><!--MD5=[77463bb17ddcfe3891c27a1f4a877731]
class Membership--><rect codeLine="124" fill="#FFFFFF" filter="url(#f1o5n7txocog9f)" height="32" id="Membership" style="stroke:#A80036;stroke-width:1.5;" width="108" x="373.5" y="322"/><ellipse cx="388.5" cy="338" fill="#ADD1B2" rx="11" ry="11" style="stroke:#A80036;stroke-width:1.0;"/><path d="M391.4688,343.6406 Q390.8906,343.9375 390.25,344.0781 Q389.6094,344.2344 388.9063,344.2344 Q386.4063,344.2344 385.0781,342.5938 Q383.7656,340.9375 383.7656,337.8125 Q383.7656,334.6875 385.0781,333.0313 Q386.4063,331.375 388.9063,331.375 Q389.6094,331.375 390.25,331.5313 Q390.9063,331.6875 391.4688,331.9844 L391.4688,334.7031 Q390.8438,334.125 390.25,333.8594 Q389.6563,333.5781 389.0313,333.5781 Q387.6875,333.5781 387,334.6563 Q386.3125,335.7188 386.3125,337.8125 Q386.3125,339.9063 387,340.9844 Q387.6875,342.0469 389.0313,342.0469 Q389.6563,342.0469 390.25,341.7813 Q390.8438,341.5 391.4688,340.9219 L391.4688,343.6406 Z " fill="#000000"/><text fill="#000000" font-family="sans-serif" font-size="12" lengthAdjust="spacing" textLength="76" x="402.5" y="342.1543">Membership</text><!--MD5=[6a029e66987f6edc98a50822cc78695f]
class Involvement--><rect codeLine="97" fill="#FFFFFF" filter="url(#f1o5n7txocog9f)" height="32" id="Involvement" style="stroke:#A80036;stroke-width:1.5;" width="106" x="399.5" y="166.5"/><ellipse cx="414.5" cy="182.5" fill="#ADD1B2" rx="11" ry="11" style="stroke:#A80036;stroke-width:1.0;"/><path d="M417.4688,188.1406 Q416.8906,188.4375 416.25,188.5781 Q415.6094,188.7344 414.9063,188.7344 Q412.4063,188.7344 411.0781,187.0938 Q409.7656,185.4375 409.7656,182.3125 Q409.7656,179.1875 411.0781,177.5313 Q412.4063,175.875 414.9063,175.875 Q415.6094,175.875 416.25,176.0313 Q416.9063,176.1875 417.4688,176.4844 L417.4688,179.2031 Q416.8438,178.625 416.25,178.3594 Q415.6563,178.0781 415.0313,178.0781 Q413.6875,178.0781 413,179.1563 Q412.3125,180.2188 412.3125,182.3125 Q412.3125,184.4063 413,185.4844 Q413.6875,186.5469 415.0313,186.5469 Q415.6563,186.5469 416.25,186.2813 Q416.8438,186 417.4688,185.4219 L417.4688,188.1406 Z " fill="#000000"/><text fill="#000000" font-family="sans-serif" font-size="12" lengthAdjust="spacing" textLength="74" x="428.5" y="186.6543">Involvement</text><!--MD5=[09ce52be0ee7de43c61b6e2d59bf108b]
class Person--><rect codeLine="16" fill="#FFFFFF" filter="url(#f1o5n7txocog9f)" height="65.6094" id="Person" style="stroke:#A80036;stroke-width:1.5;" width="135" x="763" y="305"/><ellipse cx="804.55" cy="321" fill="#ADD1B2" rx="11" ry="11" style="stroke:#A80036;stroke-width:1.0;"/><path d="M807.5188,326.6406 Q806.9406,326.9375 806.3,327.0781 Q805.6594,327.2344 804.9563,327.2344 Q802.4563,327.2344 801.1281,325.5938 Q799.8156,323.9375 799.8156,320.8125 Q799.8156,317.6875 801.1281,316.0313 Q802.4563,314.375 804.9563,314.375 Q805.6594,314.375 806.3,314.5313 Q806.9563,314.6875 807.5188,314.9844 L807.5188,317.7031 Q806.8938,317.125 806.3,316.8594 Q805.7063,316.5781 805.0813,316.5781 Q803.7375,316.5781 803.05,317.6563 Q802.3625,318.7188 802.3625,320.8125 Q802.3625,322.9063 803.05,323.9844 Q803.7375,325.0469 805.0813,325.0469 Q805.7063,325.0469 806.3,324.7813 Q806.8938,324.5 807.5188,323.9219 L807.5188,326.6406 Z " fill="#000000"/><text fill="#000000" font-family="sans-serif" font-size="12" lengthAdjust="spacing" textLength="44" x="824.45" y="325.1543">Person</text><line style="stroke:#A80036;stroke-width:1.5;" x1="764" x2="897" y1="337" y2="337"/><text fill="#000000" font-family="sans-serif" font-size="11" lengthAdjust="spacing" textLength="123" x="769" y="351.2104">name : Person_Name</text><text fill="#000000" font-family="sans-serif" font-size="11" lengthAdjust="spacing" textLength="102" x="769" y="364.0151">orcidId : ORCID_iD</text><!--MD5=[7b209ef07eb91b93e0aebc9fe4fb9a26]
class Person_Name--><rect codeLine="27" fill="#FFFFFF" filter="url(#f1o5n7txocog9f)" height="84.3516" id="Person_Name" style="stroke:#A80036;stroke-width:1.5;" width="201" x="734" y="448.5"/><ellipse cx="787.25" cy="467.4688" fill="#ADD0B2" rx="11" ry="11" style="stroke:#A80036;stroke-width:1.0;"/><path d="M786.8438,463.2813 L786.8438,471.2656 L787.5,471.2656 Q788.9375,471.2656 789.5469,470.3594 Q790.1719,469.4375 790.1719,467.2656 Q790.1719,465.0938 789.5469,464.1875 Q788.9375,463.2813 787.5,463.2813 L786.8438,463.2813 Z M784.3906,461.0781 L787.0156,461.0781 Q790.0469,461.0781 791.375,462.5313 Q792.7188,463.9688 792.7188,467.2656 Q792.7188,470.5625 791.375,472.0156 Q790.0469,473.4688 787.0156,473.4688 L784.3906,473.4688 L784.3906,461.0781 Z " fill="#000000"/><text fill="#000000" font-family="sans-serif" font-size="12" font-style="italic" lengthAdjust="spacing" textLength="74" x="813.75" y="464.6387">«DataType»</text><text fill="#000000" font-family="sans-serif" font-size="12" lengthAdjust="spacing" textLength="86" x="807.75" y="478.6074">Person_Name</text><line style="stroke:#A80036;stroke-width:1.5;" x1="735" x2="934" y1="486.4375" y2="486.4375"/><text fill="#000000" font-family="sans-serif" font-size="11" lengthAdjust="spacing" textLength="178" x="740" y="500.6479">firstNames : Multilingual_String</text><text fill="#000000" font-family="sans-serif" font-size="11" lengthAdjust="spacing" textLength="189" x="740" y="513.4526">familyNames : Multilingual_String</text><text fill="#000000" font-family="sans-serif" font-size="11" lengthAdjust="spacing" textLength="185" x="740" y="526.2573">otherNames : Multilingual_String</text><!--MD5=[41314a0efc36828092cff9ebad2fcafd]
class Group--><rect codeLine="52" fill="#FFFFFF" filter="url(#f1o5n7txocog9f)" height="32" id="Group" style="stroke:#A80036;stroke-width:1.5;" width="70" x="434.5" y="474.5"/><ellipse cx="449.5" cy="490.5" fill="#ADD1B2" rx="11" ry="11" style="stroke:#A80036;stroke-width:1.0;"/><path d="M452.4688,496.1406 Q451.8906,496.4375 451.25,496.5781 Q450.6094,496.7344 449.9063,496.7344 Q447.4063,496.7344 446.0781,495.0938 Q444.7656,493.4375 444.7656,490.3125 Q444.7656,487.1875 446.0781,485.5313 Q447.4063,483.875 449.9063,483.875 Q450.6094,483.875 451.25,484.0313 Q451.9063,484.1875 452.4688,484.4844 L452.4688,487.2031 Q451.8438,486.625 451.25,486.3594 Q450.6563,486.0781 450.0313,486.0781 Q448.6875,486.0781 448,487.1563 Q447.3125,488.2188 447.3125,490.3125 Q447.3125,492.4063 448,493.4844 Q448.6875,494.5469 450.0313,494.5469 Q450.6563,494.5469 451.25,494.2813 Q451.8438,494 452.4688,493.4219 L452.4688,496.1406 Z " fill="#000000"/><text fill="#000000" font-family="sans-serif" font-size="12" lengthAdjust="spacing" textLength="38" x="463.5" y="494.6543">Group</text><!--MD5=[affb11a45f8309443fb20b6133e8d181]
class Group_or_Organisation_Unit--><rect codeLine="43" fill="#FFFFFF" filter="url(#f1o5n7txocog9f)" height="32" id="Group_or_Organisation_Unit" style="stroke:#A80036;stroke-width:1.5;" width="206" x="516.5" y="322"/><ellipse cx="531.5" cy="338" fill="#ADD1B2" rx="11" ry="11" style="stroke:#A80036;stroke-width:1.0;"/><path d="M534.4688,343.6406 Q533.8906,343.9375 533.25,344.0781 Q532.6094,344.2344 531.9063,344.2344 Q529.4063,344.2344 528.0781,342.5938 Q526.7656,340.9375 526.7656,337.8125 Q526.7656,334.6875 528.0781,333.0313 Q529.4063,331.375 531.9063,331.375 Q532.6094,331.375 533.25,331.5313 Q533.9063,331.6875 534.4688,331.9844 L534.4688,334.7031 Q533.8438,334.125 533.25,333.8594 Q532.6563,333.5781 532.0313,333.5781 Q530.6875,333.5781 530,334.6563 Q529.3125,335.7188 529.3125,337.8125 Q529.3125,339.9063 530,340.9844 Q530.6875,342.0469 532.0313,342.0469 Q532.6563,342.0469 533.25,341.7813 Q533.8438,341.5 534.4688,340.9219 L534.4688,343.6406 Z " fill="#000000"/><text fill="#000000" font-family="sans-serif" font-size="12" lengthAdjust="spacing" textLength="174" x="545.5" y="342.1543">Group_or_Organisation_Unit</text><!--MD5=[779f3743e425ed8a6f0bf188ddea4860]
class Organisation_Unit--><rect codeLine="61" fill="#FFFFFF" filter="url(#f1o5n7txocog9f)" height="116.8281" id="Organisation_Unit" style="stroke:#A80036;stroke-width:1.5;" width="159" x="540" y="432"/><ellipse cx="562.2" cy="448" fill="#ADD1B2" rx="11" ry="11" style="stroke:#A80036;stroke-width:1.0;"/><path d="M565.1688,453.6406 Q564.5906,453.9375 563.95,454.0781 Q563.3094,454.2344 562.6063,454.2344 Q560.1063,454.2344 558.7781,452.5938 Q557.4656,450.9375 557.4656,447.8125 Q557.4656,444.6875 558.7781,443.0313 Q560.1063,441.375 562.6063,441.375 Q563.3094,441.375 563.95,441.5313 Q564.6063,441.6875 565.1688,441.9844 L565.1688,444.7031 Q564.5438,444.125 563.95,443.8594 Q563.3563,443.5781 562.7313,443.5781 Q561.3875,443.5781 560.7,444.6563 Q560.0125,445.7188 560.0125,447.8125 Q560.0125,449.9063 560.7,450.9844 Q561.3875,452.0469 562.7313,452.0469 Q563.3563,452.0469 563.95,451.7813 Q564.5438,451.5 565.1688,450.9219 L565.1688,453.6406 Z " fill="#000000"/><text fill="#000000" font-family="sans-serif" font-size="12" lengthAdjust="spacing" textLength="111" x="577.8" y="452.1543">Organisation_Unit</text><line style="stroke:#A80036;stroke-width:1.5;" x1="541" x2="698" y1="464" y2="464"/><text fill="#000000" font-family="sans-serif" font-size="11" lengthAdjust="spacing" textLength="147" x="546" y="478.2104">name : Multilingual_String</text><text fill="#000000" font-family="sans-serif" font-size="11" lengthAdjust="spacing" textLength="95" x="546" y="491.0151">acronym : String</text><text fill="#000000" font-family="sans-serif" font-size="11" lengthAdjust="spacing" textLength="147" x="546" y="503.8198">address : Postal_Address</text><text fill="#000000" font-family="sans-serif" font-size="11" lengthAdjust="spacing" textLength="79" x="546" y="516.6245">rorId : ROR_ID</text><text fill="#000000" font-family="sans-serif" font-size="11" lengthAdjust="spacing" textLength="96" x="546" y="529.4292">webSiteURL : URI</text><text fill="#000000" font-family="sans-serif" font-size="11" lengthAdjust="spacing" textLength="61" x="546" y="542.2339">email : URI</text><!--MD5=[dae000cba6c379e3053478bba72a741c]
class Organisation_Unit_with_Members--><rect codeLine="76" fill="#FFFFFF" filter="url(#f1o5n7txocog9f)" height="32" id="Organisation_Unit_with_Members" style="stroke:#A80036;stroke-width:1.5;" width="237" x="425" y="610"/><ellipse cx="440" cy="626" fill="#ADD1B2" rx="11" ry="11" style="stroke:#A80036;stroke-width:1.0;"/><path d="M442.9688,631.6406 Q442.3906,631.9375 441.75,632.0781 Q441.1094,632.2344 440.4063,632.2344 Q437.9063,632.2344 436.5781,630.5938 Q435.2656,628.9375 435.2656,625.8125 Q435.2656,622.6875 436.5781,621.0313 Q437.9063,619.375 440.4063,619.375 Q441.1094,619.375 441.75,619.5313 Q442.4063,619.6875 442.9688,619.9844 L442.9688,622.7031 Q442.3438,622.125 441.75,621.8594 Q441.1563,621.5781 440.5313,621.5781 Q439.1875,621.5781 438.5,622.6563 Q437.8125,623.7188 437.8125,625.8125 Q437.8125,627.9063 438.5,628.9844 Q439.1875,630.0469 440.5313,630.0469 Q441.1563,630.0469 441.75,629.7813 Q442.3438,629.5 442.9688,628.9219 L442.9688,631.6406 Z " fill="#000000"/><text fill="#000000" font-family="sans-serif" font-size="12" lengthAdjust="spacing" textLength="205" x="454" y="630.1543">Organisation_Unit_with_Members</text><!--MD5=[ddbff00b4911ad4b77d6aa32dd14d1d7]
class Affiliation_Statement--><rect codeLine="276" fill="#FFFFFF" filter="url(#f1o5n7txocog9f)" height="91.2188" id="Affiliation_Statement" style="stroke:#A80036;stroke-width:1.5;" width="215" x="7" y="137"/><ellipse cx="46.3" cy="153" fill="#ADD1B2" rx="11" ry="11" style="stroke:#A80036;stroke-width:1.0;"/><path d="M49.2688,158.6406 Q48.6906,158.9375 48.05,159.0781 Q47.4094,159.2344 46.7063,159.2344 Q44.2063,159.2344 42.8781,157.5938 Q41.5656,155.9375 41.5656,152.8125 Q41.5656,149.6875 42.8781,148.0313 Q44.2063,146.375 46.7063,146.375 Q47.4094,146.375 48.05,146.5313 Q48.7063,146.6875 49.2688,146.9844 L49.2688,149.7031 Q48.6438,149.125 48.05,148.8594 Q47.4563,148.5781 46.8313,148.5781 Q45.4875,148.5781 44.8,149.6563 Q44.1125,150.7188 44.1125,152.8125 Q44.1125,154.9063 44.8,155.9844 Q45.4875,157.0469 46.8313,157.0469 Q47.4563,157.0469 48.05,156.7813 Q48.6438,156.5 49.2688,155.9219 L49.2688,158.6406 Z " fill="#000000"/><text fill="#000000" font-family="sans-serif" font-size="12" lengthAdjust="spacing" textLength="129" x="65.7" y="157.1543">Affiliation_Statement</text><line style="stroke:#A80036;stroke-width:1.5;" x1="8" x2="221" y1="169" y2="169"/><text fill="#000000" font-family="sans-serif" font-size="11" lengthAdjust="spacing" textLength="203" x="13" y="183.2104">displayAffiliation_Statement : String</text><text fill="#000000" font-family="sans-serif" font-size="11" lengthAdjust="spacing" textLength="159" x="13" y="196.0151">displayPersonName : String</text><text fill="#000000" font-family="sans-serif" font-size="11" lengthAdjust="spacing" textLength="147" x="13" y="208.8198">address : Postal_Address</text><text fill="#000000" font-family="sans-serif" font-size="11" lengthAdjust="spacing" textLength="116" x="13" y="221.6245">contacts : List&lt;URI&gt;</text><!--MD5=[cd935cc757d29bd6a59b1252b30899e0]
link Activity to Agent--><path codeLine="171" d="M527.38,60.08 C582.35,79.51 658.45,107.8 723.5,137 C734.67,142.01 746.43,147.82 757.53,153.54 " fill="none" id="Activity-to-Agent" style="stroke:#A80036;stroke-width:1.0;"/><polygon fill="#A80036" points="762.24,155.99,756.1059,148.2846,757.8056,153.6801,752.4101,155.3797,762.24,155.99" style="stroke:#A80036;stroke-width:1.0;"/><polygon fill="#000000" points="660.1326,100.4476,652.8579,94.3215,650.6464,99.7674,660.1326,100.4476" style="stroke:#000000;stroke-width:1.0;"/><text fill="#000000" font-family="sans-serif" font-size="13" lengthAdjust="spacing" textLength="33" x="664.5" y="103.0669">actor</text><text fill="#000000" font-family="sans-serif" font-size="13" lengthAdjust="spacing" textLength="23" x="519.0366" y="80.0658">0..*</text><text fill="#000000" font-family="sans-serif" font-size="13" lengthAdjust="spacing" textLength="24" x="724.0391" y="144.8069">0..1</text><!--MD5=[774ab914c44fde287bade86ae1a1d531]
reverse link Involvement to Membership--><path codeLine="129" d="M446.79,218.54 C441.5,251.05 433.87,297.92 429.98,321.78 " fill="none" id="Involvement-backto-Membership" style="stroke:#A80036;stroke-width:1.0;"/><polygon fill="none" points="439.89,217.39,450.01,198.78,453.71,219.64,439.89,217.39" style="stroke:#A80036;stroke-width:1.0;"/><!--MD5=[de96f77e660762cb21a195b4097c3876]
reverse link Agent to Person--><path codeLine="23" d="M815.02,229 C818.51,253.38 822.74,282.83 825.89,304.82 " fill="none" id="Agent-backto-Person" style="stroke:#A80036;stroke-width:1.0;"/><polygon fill="none" points="808.09,229.98,812.18,209.19,821.95,228,808.09,229.98" style="stroke:#A80036;stroke-width:1.0;"/><!--MD5=[5d8901ce694eb85aefa78b7d82d9f6f6]
link Person to Person_Name--><path codeLine="35" d="M831.36,371.29 C831.92,392.24 832.65,419.89 833.27,443.17 " fill="none" id="Person-to-Person_Name" style="stroke:#A80036;stroke-width:1.0;stroke-dasharray:7.0,7.0;"/><polygon fill="#A80036" points="833.41,448.38,837.1513,439.2694,833.2672,443.382,829.1546,439.4979,833.41,448.38" style="stroke:#A80036;stroke-width:1.0;"/><text fill="#000000" font-family="sans-serif" font-size="13" lengthAdjust="spacing" textLength="37" x="793.2878" y="437.5213">name</text><!--MD5=[ef849346ed6a9c6429a3acad43755067]
reverse link Group_or_Organisation_Unit to Group--><path codeLine="57" d="M588.46,367.83 C569.19,385.96 544.07,410.01 522.5,432 C508.81,445.96 493.75,462.41 483.2,474.13 " fill="none" id="Group_or_Organisation_Unit-backto-Group" style="stroke:#A80036;stroke-width:1.0;"/><polygon fill="none" points="583.68,362.72,603.07,354.17,593.25,372.94,583.68,362.72" style="stroke:#A80036;stroke-width:1.0;"/><!--MD5=[46aa33658a7939f97c192b82d622be7c]
reverse link Group_or_Organisation_Unit to Organisation_Unit--><path codeLine="72" d="M619.5,374.36 C619.5,391.46 619.5,412.43 619.5,431.77 " fill="none" id="Group_or_Organisation_Unit-backto-Organisation_Unit" style="stroke:#A80036;stroke-width:1.0;"/><polygon fill="none" points="612.5,374.26,619.5,354.26,626.5,374.26,612.5,374.26" style="stroke:#A80036;stroke-width:1.0;"/><!--MD5=[854899a0b21de2cb3f4d3222738c1bb3]
reverse link Group to Organisation_Unit_with_Members--><path codeLine="81" d="M487.62,524.19 C502.73,551.46 523.59,589.08 535.07,609.8 " fill="none" id="Group-backto-Organisation_Unit_with_Members" style="stroke:#A80036;stroke-width:1.0;"/><polygon fill="none" points="481.42,527.44,477.84,506.55,493.66,520.65,481.42,527.44" style="stroke:#A80036;stroke-width:1.0;"/><!--MD5=[adeab3cf6be56cae862ee063039c31ec]
reverse link Organisation_Unit to Organisation_Unit_with_Members--><path codeLine="85" d="M576.6,566.86 C567.23,583.31 558.27,599.05 552.04,610 " fill="none" id="Organisation_Unit-backto-Organisation_Unit_with_Members" style="stroke:#A80036;stroke-width:1.0;"/><polygon fill="none" points="570.63,563.2,586.61,549.28,582.8,570.12,570.63,563.2" style="stroke:#A80036;stroke-width:1.0;"/><!--MD5=[8baa0633a34be8ca6adcc4fd46743d97]
reverse link Agent to Group_or_Organisation_Unit--><path codeLine="48" d="M761.09,222.01 C721.22,254.39 666.33,298.97 638.03,321.95 " fill="none" id="Agent-backto-Group_or_Organisation_Unit" style="stroke:#A80036;stroke-width:1.0;"/><polygon fill="none" points="756.93,216.37,776.87,209.19,765.75,227.23,756.93,216.37" style="stroke:#A80036;stroke-width:1.0;"/><!--MD5=[5310b7429ef001befd0a176a00932538]
reverse link Activity to Involvement--><path codeLine="102" d="M452.5,80.38 C452.5,109.72 452.5,145.94 452.5,166.1 " fill="none" id="Activity-backto-Involvement" style="stroke:#A80036;stroke-width:1.0;"/><polygon fill="none" points="445.5,80.11,452.5,60.11,459.5,80.11,445.5,80.11" style="stroke:#A80036;stroke-width:1.0;"/><!--MD5=[3e6df519c6409dff9ecce5f5942987dd]
link Involvement to Group_or_Organisation_Unit--><path codeLine="175" d="M469.12,198.78 C499.88,227.05 565.59,287.45 599.03,318.18 " fill="none" id="Involvement-to-Group_or_Organisation_Unit" style="stroke:#A80036;stroke-width:1.0;"/><polygon fill="#A80036" points="602.94,321.78,599.018,312.7457,599.2578,318.3975,593.606,318.6373,602.94,321.78" style="stroke:#A80036;stroke-width:1.0;"/><polygon fill="#000000" points="560.1813,269.9499,555.5105,261.6653,551.533,265.9929,560.1813,269.9499" style="stroke:#000000;stroke-width:1.0;"/><text fill="#000000" font-family="sans-serif" font-size="13" lengthAdjust="spacing" textLength="67" x="565.5" y="271.0669">involved in</text><text fill="#000000" font-family="sans-serif" font-size="13" lengthAdjust="spacing" textLength="23" x="447.752" y="218.4479">0..*</text><!--MD5=[ec091f800280b56df8e15aaaa2e5104f]
reverse link Affiliation_Statement to Involvement--><path codeLine="572" d="M227.6,182.5 C285.61,182.5 353.53,182.5 399.43,182.5 " fill="none" id="Affiliation_Statement-backto-Involvement" style="stroke:#A80036;stroke-width:1.0;"/><polygon fill="#A80036" points="222.37,182.5,231.37,186.5,227.37,182.5,231.37,178.5,222.37,182.5" style="stroke:#A80036;stroke-width:1.0;"/><polygon fill="#000000" points="239.25,171.0664,248.2951,174.0053,248.2951,168.1275,239.25,171.0664" style="stroke:#000000;stroke-width:1.0;"/><text fill="#000000" font-family="sans-serif" font-size="13" lengthAdjust="spacing" textLength="128" x="253.25" y="175.5669">is the foundation for</text><text fill="#000000" font-family="sans-serif" font-size="13" lengthAdjust="spacing" textLength="23" x="230.0171" y="195.0446">0..*</text><text fill="#000000" font-family="sans-serif" font-size="13" lengthAdjust="spacing" textLength="23" x="368.5605" y="195.4891">0..*</text><!--MD5=[eeb1986463f873db234da87eccdc590b]
link Involvement to Involvement--><path codeLine="576" d="M505.77,174.63 C524.9,174.46 540.5,177.09 540.5,182.5 C540.5,187.41 527.69,190.02 511.05,190.34 " fill="none" id="Involvement-to-Involvement" style="stroke:#A80036;stroke-width:1.0;"/><polygon fill="#A80036" points="505.77,190.37,514.7927,194.3185,510.7699,190.3414,514.747,186.3186,505.77,190.37" style="stroke:#A80036;stroke-width:1.0;"/><polygon fill="#000000" points="545.4556,187.5662,548.4748,178.5476,542.5971,178.4954,545.4556,187.5662" style="stroke:#000000;stroke-width:1.0;"/><text fill="#000000" font-family="sans-serif" font-size="13" lengthAdjust="spacing" textLength="26" x="559.5" y="187.0669">part</text><text fill="#000000" font-family="sans-serif" font-size="13" lengthAdjust="spacing" textLength="23" x="513.6638" y="186.6599">0..*</text><text fill="#000000" font-family="sans-serif" font-size="13" lengthAdjust="spacing" textLength="24" x="513.3168" y="204.2217">0..1</text><!--MD5=[eeb1986463f873db234da87eccdc590b]
link Involvement to Involvement--><path codeLine="580" d="M505.79,168.61 C547.26,163.76 591.5,168.39 591.5,182.5 C591.5,196 550.98,200.82 511.15,196.96 " fill="none" id="Involvement-to-Involvement-1" style="stroke:#A80036;stroke-width:1.0;"/><polygon fill="#A80036" points="505.79,196.39,514.3167,201.3191,510.762,196.9186,515.1625,193.364,505.79,196.39" style="stroke:#A80036;stroke-width:1.0;"/><polygon fill="#000000" points="595.9192,187.5326,599.8889,178.8901,594.0508,178.2073,595.9192,187.5326" style="stroke:#000000;stroke-width:1.0;"/><text fill="#000000" font-family="sans-serif" font-size="13" lengthAdjust="spacing" textLength="89" x="610.5" y="187.0669">part transitive</text><text fill="#000000" font-family="sans-serif" font-size="13" lengthAdjust="spacing" textLength="23" x="513.6863" y="163.0781">0..*</text><text fill="#000000" font-family="sans-serif" font-size="13" lengthAdjust="spacing" textLength="23" x="502.1179" y="218.3805">0..*</text><!--MD5=[335bc652314d68e20c6b9db39c8a9e92]
reverse link Activity to Affiliation_Statement--><path codeLine="409" d="M381.55,65.36 C333.86,86.1 270.25,113.76 217.07,136.89 " fill="none" id="Activity-backto-Affiliation_Statement" style="stroke:#A80036;stroke-width:1.0;"/><polygon fill="#FFFFFF" points="393.62,60.11,386.5222,58.8369,382.617,64.8991,389.7149,66.1722,393.62,60.11" style="stroke:#A80036;stroke-width:1.0;"/><polygon fill="#000000" points="324.9148,100.5604,334.3815,99.6483,332.0374,94.2581,324.9148,100.5604" style="stroke:#000000;stroke-width:1.0;"/><text fill="#000000" font-family="sans-serif" font-size="13" lengthAdjust="spacing" textLength="61" x="338.5" y="103.0669">affilations</text><text fill="#000000" font-family="sans-serif" font-size="13" lengthAdjust="spacing" textLength="23" x="355.2244" y="79.6743">0..*</text><text fill="#000000" font-family="sans-serif" font-size="13" lengthAdjust="spacing" textLength="23" x="208.0151" y="125.8178">0..*</text><!--MD5=[db68f98784e9d76fae9607859fe2902e]
@startuml

    !includesub core.puml!common
    !includesub core.puml!Agent
    !includesub core.puml!Activity
    !includesub core.puml!Membership
    !includesub core.puml!Person
    !includesub core.puml!Group
    !includesub core.puml!Organisation_Unit
    !includesub core.puml!Organisation_Unit_with_Members
    !includesub core.puml!Group_or_Organisation_Unit
    !includesub core.puml!Involvement
    !includesub core.puml!Affiliation_Statement

@enduml

@startuml

    hide empty members
    skinparam BoxPadding 120
    class "Agent" #ffffff {
    	lifetime : Date_Range
    }
    class "Activity" #ffffff {
  		dateRange : Date_Range
    }
    "Activity" "0..*" - -> "0..1" "Agent" : actor >
    class "Membership" #ffffff {
    }
    "Involvement" <|- - "Membership"
    class "Person" #ffffff {
        name : Person_Name
        orcidId : ORCID_iD
    }
    "Agent" <|- - "Person"
    class Person_Name << (D,#add0b2) DataType>> #ffffff {
        firstNames : Multilingual_String
        familyNames : Multilingual_String
        otherNames : Multilingual_String
    }
    "Person" ..> "name" "Person_Name"
    class "Group" #ffffff {
    }
	"Group_or_Organisation_Unit" <|- - "Group"
    class "Organisation_Unit" #ffffff {
        name : Multilingual_String
        acronym : String
        address : Postal_Address
        rorId : ROR_ID
        webSiteURL : URI
        email : URI
    }
	"Group_or_Organisation_Unit" <|- - "Organisation_Unit"
    class "Organisation_Unit_with_Members" #ffffff {
    }
    "Group" <|- - "Organisation_Unit_with_Members"
    "Organisation_Unit" <|- - "Organisation_Unit_with_Members"
    class "Group_or_Organisation_Unit" #ffffff {
    }
	"Agent" <|- - "Group_or_Organisation_Unit"
    class "Involvement" #ffffff {
    }
    "Activity" <|- - "Involvement"
	"Involvement" "0..*" - -> "Group_or_Organisation_Unit" : involved in >
	"Involvement" "0..*" -l-> "0..*" "Affiliation_Statement" : is the foundation for >
	"Involvement" "0..*" - -> "0..1" "Involvement" : part >
	"Involvement" "0..*" - -> "0..*" "Involvement" : part transitive >
    class "Affiliation_Statement" #ffffff {
        displayAffiliation_Statement : String
        displayPersonName : String
        address : Postal_Address
        contacts : List<URI>
    }
    "Activity" "0..*" o- - "0..*" "Affiliation_Statement" : affilations >

@enduml

PlantUML version 1.2021.8(Sat Jun 26 08:20:59 UTC 2021)
(GPL source distribution)
Java Runtime: OpenJDK Runtime Environment
JVM: OpenJDK 64-Bit Server VM
Default Encoding: UTF-8
Language: en
Country: null
--></g></svg>