<svg xmlns="http://www.w3.org/2000/svg" xmlns:xlink="http://www.w3.org/1999/xlink" contentStyleType="text/css" data-diagram-type="CLASS" height="794px" preserveAspectRatio="none" style="width:1419px;height:794px;background:#FFFFFF;" version="1.1" viewBox="0 0 1419 794" width="1419px" zoomAndPan="magnify"><defs/><g><!--class Agent--><g class="entity" data-entity="Agent" data-source-line="10" data-uid="ent0002" id="entity_Agent"><rect fill="#FFFFFF" height="88.8906" rx="2.5" ry="2.5" style="stroke:#181818;stroke-width:0.5;" width="275.9902" x="594" y="257"/><ellipse cx="707.0254" cy="273" fill="#ADD1B2" rx="11" ry="11" style="stroke:#181818;stroke-width:1;"/><path d="M709.9941,278.6406 Q709.416,278.9375 708.7754,279.0781 Q708.1348,279.2344 707.4316,279.2344 Q704.9316,279.2344 703.6035,277.5938 Q702.291,275.9375 702.291,272.8125 Q702.291,269.6875 703.6035,268.0313 Q704.9316,266.375 707.4316,266.375 Q708.1348,266.375 708.7754,266.5313 Q709.4316,266.6875 709.9941,266.9844 L709.9941,269.7031 Q709.3691,269.125 708.7754,268.8594 Q708.1816,268.5781 707.5566,268.5781 Q706.2129,268.5781 705.5254,269.6563 Q704.8379,270.7188 704.8379,272.8125 Q704.8379,274.9063 705.5254,275.9844 Q706.2129,277.0469 707.5566,277.0469 Q708.1816,277.0469 708.7754,276.7813 Q709.3691,276.5 709.9941,275.9219 L709.9941,278.6406 Z " fill="#000000"/><text fill="#000000" font-family="sans-serif" font-size="14" lengthAdjust="spacing" textLength="41.4395" x="727.5254" y="277.8467">Agent</text><line style="stroke:#181818;stroke-width:0.5;" x1="595" x2="868.9902" y1="289" y2="289"/><text fill="#000000" font-family="sans-serif" font-size="14" lengthAdjust="spacing" textLength="258.3916" x="600" y="305.9951">keywords : List&lt;Multilingual_String&gt;</text><text fill="#000000" font-family="sans-serif" font-size="14" lengthAdjust="spacing" textLength="151.71" x="600" y="322.292">lifetime : Date_Range</text><text fill="#000000" font-family="sans-serif" font-size="14" lengthAdjust="spacing" textLength="263.9902" x="600" y="338.5889">contacts : List&lt;Contact_Information&gt;</text></g><!--class Date_Range--><g class="entity" data-entity="Date_Range" data-source-line="15" data-uid="ent0003" id="entity_Date_Range"><rect fill="#F1F1F1" height="32" rx="2.5" ry="2.5" style="stroke:#181818;stroke-width:0.5;" width="117.1416" x="841.5" y="459.5"/><ellipse cx="856.5" cy="475.5" fill="#ADD1B2" rx="11" ry="11" style="stroke:#181818;stroke-width:1;"/><path d="M859.4688,481.1406 Q858.8906,481.4375 858.25,481.5781 Q857.6094,481.7344 856.9063,481.7344 Q854.4063,481.7344 853.0781,480.0938 Q851.7656,478.4375 851.7656,475.3125 Q851.7656,472.1875 853.0781,470.5313 Q854.4063,468.875 856.9063,468.875 Q857.6094,468.875 858.25,469.0313 Q858.9063,469.1875 859.4688,469.4844 L859.4688,472.2031 Q858.8438,471.625 858.25,471.3594 Q857.6563,471.0781 857.0313,471.0781 Q855.6875,471.0781 855,472.1563 Q854.3125,473.2188 854.3125,475.3125 Q854.3125,477.4063 855,478.4844 Q855.6875,479.5469 857.0313,479.5469 Q857.6563,479.5469 858.25,479.2813 Q858.8438,479 859.4688,478.4219 L859.4688,481.1406 Z " fill="#000000"/><text fill="#000000" font-family="sans-serif" font-size="14" lengthAdjust="spacing" textLength="85.1416" x="870.5" y="480.3467">Date_Range</text></g><!--class Contact_Information--><g class="entity" data-entity="Contact_Information" data-source-line="16" data-uid="ent0005" id="entity_Contact_Information"><rect fill="#F1F1F1" height="32" rx="2.5" ry="2.5" style="stroke:#181818;stroke-width:0.5;" width="174.7549" x="631.5" y="459.5"/><ellipse cx="646.5" cy="475.5" fill="#ADD1B2" rx="11" ry="11" style="stroke:#181818;stroke-width:1;"/><path d="M649.4688,481.1406 Q648.8906,481.4375 648.25,481.5781 Q647.6094,481.7344 646.9063,481.7344 Q644.4063,481.7344 643.0781,480.0938 Q641.7656,478.4375 641.7656,475.3125 Q641.7656,472.1875 643.0781,470.5313 Q644.4063,468.875 646.9063,468.875 Q647.6094,468.875 648.25,469.0313 Q648.9063,469.1875 649.4688,469.4844 L649.4688,472.2031 Q648.8438,471.625 648.25,471.3594 Q647.6563,471.0781 647.0313,471.0781 Q645.6875,471.0781 645,472.1563 Q644.3125,473.2188 644.3125,475.3125 Q644.3125,477.4063 645,478.4844 Q645.6875,479.5469 647.0313,479.5469 Q647.6563,479.5469 648.25,479.2813 Q648.8438,479 649.4688,478.4219 L649.4688,481.1406 Z " fill="#000000"/><text fill="#000000" font-family="sans-serif" font-size="14" lengthAdjust="spacing" textLength="142.7549" x="660.5" y="480.3467">Contact_Information</text></g><!--class Activity--><g class="entity" data-entity="Activity" data-source-line="142" data-uid="ent0007" id="entity_Activity"><rect fill="#FFFFFF" height="56.2969" rx="2.5" ry="2.5" style="stroke:#181818;stroke-width:0.5;" width="187.0068" x="717.5" y="116"/><ellipse cx="780.4521" cy="132" fill="#ADD1B2" rx="11" ry="11" style="stroke:#181818;stroke-width:1;"/><path d="M783.4209,137.6406 Q782.8428,137.9375 782.2021,138.0781 Q781.5615,138.2344 780.8584,138.2344 Q778.3584,138.2344 777.0303,136.5938 Q775.7178,134.9375 775.7178,131.8125 Q775.7178,128.6875 777.0303,127.0313 Q778.3584,125.375 780.8584,125.375 Q781.5615,125.375 782.2021,125.5313 Q782.8584,125.6875 783.4209,125.9844 L783.4209,128.7031 Q782.7959,128.125 782.2021,127.8594 Q781.6084,127.5781 780.9834,127.5781 Q779.6396,127.5781 778.9521,128.6563 Q778.2646,129.7188 778.2646,131.8125 Q778.2646,133.9063 778.9521,134.9844 Q779.6396,136.0469 780.9834,136.0469 Q781.6084,136.0469 782.2021,135.7813 Q782.7959,135.5 783.4209,134.9219 L783.4209,137.6406 Z " fill="#000000"/><text fill="#000000" font-family="sans-serif" font-size="14" lengthAdjust="spacing" textLength="52.6025" x="800.9521" y="136.8467">Activity</text><line style="stroke:#181818;stroke-width:0.5;" x1="718.5" x2="903.5068" y1="148" y2="148"/><text fill="#000000" font-family="sans-serif" font-size="14" lengthAdjust="spacing" textLength="175.0068" x="723.5" y="164.9951">dateRange : Date_Range</text></g><!--class Document--><g class="entity" data-entity="Document" data-source-line="251" data-uid="ent0008" id="entity_Document"><rect fill="#F1F1F1" height="32" rx="2.5" ry="2.5" style="stroke:#181818;stroke-width:0.5;" width="104.5293" x="758.5" y="7"/><ellipse cx="773.5" cy="23" fill="#ADD1B2" rx="11" ry="11" style="stroke:#181818;stroke-width:1;"/><path d="M776.4688,28.6406 Q775.8906,28.9375 775.25,29.0781 Q774.6094,29.2344 773.9063,29.2344 Q771.4063,29.2344 770.0781,27.5938 Q768.7656,25.9375 768.7656,22.8125 Q768.7656,19.6875 770.0781,18.0313 Q771.4063,16.375 773.9063,16.375 Q774.6094,16.375 775.25,16.5313 Q775.9063,16.6875 776.4688,16.9844 L776.4688,19.7031 Q775.8438,19.125 775.25,18.8594 Q774.6563,18.5781 774.0313,18.5781 Q772.6875,18.5781 772,19.6563 Q771.3125,20.7188 771.3125,22.8125 Q771.3125,24.9063 772,25.9844 Q772.6875,27.0469 774.0313,27.0469 Q774.6563,27.0469 775.25,26.7813 Q775.8438,26.5 776.4688,25.9219 L776.4688,28.6406 Z " fill="#000000"/><text fill="#000000" font-family="sans-serif" font-size="14" lengthAdjust="spacing" textLength="72.5293" x="787.5" y="27.8467">Document</text></g><!--class Membership--><g class="entity" data-entity="Membership" data-source-line="178" data-uid="ent0012" id="entity_Membership"><rect fill="#FFFFFF" height="32" rx="2.5" ry="2.5" style="stroke:#181818;stroke-width:0.5;" width="118.5293" x="1261.5" y="459.5"/><ellipse cx="1276.5" cy="475.5" fill="#ADD1B2" rx="11" ry="11" style="stroke:#181818;stroke-width:1;"/><path d="M1279.4688,481.1406 Q1278.8906,481.4375 1278.25,481.5781 Q1277.6094,481.7344 1276.9063,481.7344 Q1274.4063,481.7344 1273.0781,480.0938 Q1271.7656,478.4375 1271.7656,475.3125 Q1271.7656,472.1875 1273.0781,470.5313 Q1274.4063,468.875 1276.9063,468.875 Q1277.6094,468.875 1278.25,469.0313 Q1278.9063,469.1875 1279.4688,469.4844 L1279.4688,472.2031 Q1278.8438,471.625 1278.25,471.3594 Q1277.6563,471.0781 1277.0313,471.0781 Q1275.6875,471.0781 1275,472.1563 Q1274.3125,473.2188 1274.3125,475.3125 Q1274.3125,477.4063 1275,478.4844 Q1275.6875,479.5469 1277.0313,479.5469 Q1277.6563,479.5469 1278.25,479.2813 Q1278.8438,479 1279.4688,478.4219 L1279.4688,481.1406 Z " fill="#000000"/><text fill="#000000" font-family="sans-serif" font-size="14" lengthAdjust="spacing" textLength="86.5293" x="1290.5" y="480.3467">Membership</text></g><!--class Involvement--><g class="entity" data-entity="Involvement" data-source-line="183" data-uid="ent0013" id="entity_Involvement"><rect fill="#FFFFFF" height="72.5938" rx="2.5" ry="2.5" style="stroke:#181818;stroke-width:0.5;" width="233.3408" x="976.5" y="265"/><ellipse cx="1045.2935" cy="281" fill="#ADD1B2" rx="11" ry="11" style="stroke:#181818;stroke-width:1;"/><path d="M1048.2622,286.6406 Q1047.6841,286.9375 1047.0435,287.0781 Q1046.4028,287.2344 1045.6997,287.2344 Q1043.1997,287.2344 1041.8716,285.5938 Q1040.5591,283.9375 1040.5591,280.8125 Q1040.5591,277.6875 1041.8716,276.0313 Q1043.1997,274.375 1045.6997,274.375 Q1046.4028,274.375 1047.0435,274.5313 Q1047.6997,274.6875 1048.2622,274.9844 L1048.2622,277.7031 Q1047.6372,277.125 1047.0435,276.8594 Q1046.4497,276.5781 1045.8247,276.5781 Q1044.481,276.5781 1043.7935,277.6563 Q1043.106,278.7188 1043.106,280.8125 Q1043.106,282.9063 1043.7935,283.9844 Q1044.481,285.0469 1045.8247,285.0469 Q1046.4497,285.0469 1047.0435,284.7813 Q1047.6372,284.5 1048.2622,283.9219 L1048.2622,286.6406 Z " fill="#000000"/><text fill="#000000" font-family="sans-serif" font-size="14" lengthAdjust="spacing" textLength="87.2539" x="1065.7935" y="285.8467">Involvement</text><line style="stroke:#181818;stroke-width:0.5;" x1="977.5" x2="1208.8408" y1="297" y2="297"/><text fill="#000000" font-family="sans-serif" font-size="14" lengthAdjust="spacing" textLength="221.3408" x="982.5" y="313.9951">description : Multilingual_String</text><text fill="#000000" font-family="sans-serif" font-size="14" lengthAdjust="spacing" textLength="137.4297" x="982.5" y="330.292">position    : Position</text></g><!--class Person--><g class="entity" data-entity="Person" data-source-line="20" data-uid="ent0015" id="entity_Person"><rect fill="#FFFFFF" height="72.5938" rx="2.5" ry="2.5" style="stroke:#181818;stroke-width:0.5;" width="286.3262" x="310" y="439"/><ellipse cx="425.1411" cy="455" fill="#ADD1B2" rx="11" ry="11" style="stroke:#181818;stroke-width:1;"/><path d="M428.1099,460.6406 Q427.5317,460.9375 426.8911,461.0781 Q426.2505,461.2344 425.5474,461.2344 Q423.0474,461.2344 421.7192,459.5938 Q420.4067,457.9375 420.4067,454.8125 Q420.4067,451.6875 421.7192,450.0313 Q423.0474,448.375 425.5474,448.375 Q426.2505,448.375 426.8911,448.5313 Q427.5474,448.6875 428.1099,448.9844 L428.1099,451.7031 Q427.4849,451.125 426.8911,450.8594 Q426.2974,450.5781 425.6724,450.5781 Q424.3286,450.5781 423.6411,451.6563 Q422.9536,452.7188 422.9536,454.8125 Q422.9536,456.9063 423.6411,457.9844 Q424.3286,459.0469 425.6724,459.0469 Q426.2974,459.0469 426.8911,458.7813 Q427.4849,458.5 428.1099,457.9219 L428.1099,460.6406 Z " fill="#000000"/><text fill="#000000" font-family="sans-serif" font-size="14" lengthAdjust="spacing" textLength="47.5439" x="445.6411" y="459.8467">Person</text><line style="stroke:#181818;stroke-width:0.5;" x1="311" x2="595.3262" y1="471" y2="471"/><text fill="#000000" font-family="sans-serif" font-size="14" lengthAdjust="spacing" textLength="198.1191" x="316" y="487.9951">name            : Person_Name</text><text fill="#000000" font-family="sans-serif" font-size="14" lengthAdjust="spacing" textLength="274.3262" x="316" y="504.292">alternateNames  : List&lt;Person_Name&gt;</text></g><!--class Person_Name--><g class="entity" data-entity="Person_Name" data-source-line="76" data-uid="ent0017" id="entity_Person_Name"><rect fill="#FFFFFF" height="113.4531" rx="2.5" ry="2.5" style="stroke:#181818;stroke-width:0.5;" width="247.3066" x="329.5" y="581"/><ellipse cx="400.98" cy="601.1328" fill="#ADD0B2" rx="11" ry="11" style="stroke:#181818;stroke-width:1;"/><path d="M400.5737,596.9453 L400.5737,604.9297 L401.23,604.9297 Q402.6675,604.9297 403.2769,604.0234 Q403.9019,603.1016 403.9019,600.9297 Q403.9019,598.7578 403.2769,597.8516 Q402.6675,596.9453 401.23,596.9453 L400.5737,596.9453 Z M398.1206,594.7422 L400.7456,594.7422 Q403.7769,594.7422 405.105,596.1953 Q406.4487,597.6328 406.4487,600.9297 Q406.4487,604.2266 405.105,605.6797 Q403.7769,607.1328 400.7456,607.1328 L398.1206,607.1328 L398.1206,594.7422 Z " fill="#000000"/><text fill="#000000" font-family="sans-serif" font-size="12" font-style="italic" lengthAdjust="spacing" textLength="72.8965" x="432.9551" y="597.1387">&#171;DataType&#187;</text><text fill="#000000" font-family="sans-serif" font-size="14" lengthAdjust="spacing" textLength="95.8467" x="421.48" y="612.9639">Person_Name</text><line style="stroke:#181818;stroke-width:0.5;" x1="330.5" x2="575.8066" y1="621.2656" y2="621.2656"/><text fill="#000000" font-family="sans-serif" font-size="14" lengthAdjust="spacing" textLength="219.4541" x="335.5" y="638.2607">firstNames : Multilingual_String</text><text fill="#000000" font-family="sans-serif" font-size="14" lengthAdjust="spacing" textLength="235.3066" x="335.5" y="654.5576">familyNames : Multilingual_String</text><text fill="#000000" font-family="sans-serif" font-size="14" lengthAdjust="spacing" textLength="229.3936" x="335.5" y="670.8545">otherNames : Multilingual_String</text><text fill="#000000" font-family="sans-serif" font-size="14" lengthAdjust="spacing" textLength="234.5137" x="335.5" y="687.1514">displayName : Multilingual_String</text></g><!--class Group--><g class="entity" data-entity="Group" data-source-line="101" data-uid="ent0019" id="entity_Group"><rect fill="#FFFFFF" height="32" rx="2.5" ry="2.5" style="stroke:#181818;stroke-width:0.5;" width="74.9297" x="841.5" y="621.5"/><ellipse cx="856.5" cy="637.5" fill="#ADD1B2" rx="11" ry="11" style="stroke:#181818;stroke-width:1;"/><path d="M859.4688,643.1406 Q858.8906,643.4375 858.25,643.5781 Q857.6094,643.7344 856.9063,643.7344 Q854.4063,643.7344 853.0781,642.0938 Q851.7656,640.4375 851.7656,637.3125 Q851.7656,634.1875 853.0781,632.5313 Q854.4063,630.875 856.9063,630.875 Q857.6094,630.875 858.25,631.0313 Q858.9063,631.1875 859.4688,631.4844 L859.4688,634.2031 Q858.8438,633.625 858.25,633.3594 Q857.6563,633.0781 857.0313,633.0781 Q855.6875,633.0781 855,634.1563 Q854.3125,635.2188 854.3125,637.3125 Q854.3125,639.4063 855,640.4844 Q855.6875,641.5469 857.0313,641.5469 Q857.6563,641.5469 858.25,641.2813 Q858.8438,641 859.4688,640.4219 L859.4688,643.1406 Z " fill="#000000"/><text fill="#000000" font-family="sans-serif" font-size="14" lengthAdjust="spacing" textLength="42.9297" x="870.5" y="642.3467">Group</text></g><!--class Group_or_Organisation_Unit--><g class="entity" data-entity="Group_or_Organisation_Unit" data-source-line="106" data-uid="ent0020" id="entity_Group_or_Organisation_Unit"><rect fill="#FFFFFF" height="88.8906" rx="2.5" ry="2.5" style="stroke:#181818;stroke-width:0.5;" width="233.3408" x="993.5" y="431"/><ellipse cx="1010.7034" cy="447" fill="#ADD1B2" rx="11" ry="11" style="stroke:#181818;stroke-width:1;"/><path d="M1013.6722,452.6406 Q1013.094,452.9375 1012.4534,453.0781 Q1011.8128,453.2344 1011.1097,453.2344 Q1008.6097,453.2344 1007.2815,451.5938 Q1005.969,449.9375 1005.969,446.8125 Q1005.969,443.6875 1007.2815,442.0313 Q1008.6097,440.375 1011.1097,440.375 Q1011.8128,440.375 1012.4534,440.5313 Q1013.1097,440.6875 1013.6722,440.9844 L1013.6722,443.7031 Q1013.0472,443.125 1012.4534,442.8594 Q1011.8597,442.5781 1011.2347,442.5781 Q1009.8909,442.5781 1009.2034,443.6563 Q1008.5159,444.7188 1008.5159,446.8125 Q1008.5159,448.9063 1009.2034,449.9844 Q1009.8909,451.0469 1011.2347,451.0469 Q1011.8597,451.0469 1012.4534,450.7813 Q1013.0472,450.5 1013.6722,449.9219 L1013.6722,452.6406 Z " fill="#000000"/><text fill="#000000" font-family="sans-serif" font-size="14" lengthAdjust="spacing" textLength="196.4443" x="1025.1931" y="451.8467">Group_or_Organisation_Unit</text><line style="stroke:#181818;stroke-width:0.5;" x1="994.5" x2="1225.8408" y1="463" y2="463"/><text fill="#000000" font-family="sans-serif" font-size="14" lengthAdjust="spacing" textLength="183.2031" x="999.5" y="479.9951">name : Multilingual_String</text><text fill="#000000" font-family="sans-serif" font-size="14" lengthAdjust="spacing" textLength="204.8936" x="999.5" y="496.292">acronym : Multilingual_String</text><text fill="#000000" font-family="sans-serif" font-size="14" lengthAdjust="spacing" textLength="221.3408" x="999.5" y="512.5889">description : Multilingual_String</text></g><!--class Organisation_Unit--><g class="entity" data-entity="Organisation_Unit" data-source-line="110" data-uid="ent0023" id="entity_Organisation_Unit"><rect fill="#FFFFFF" height="32" rx="2.5" ry="2.5" style="stroke:#181818;stroke-width:0.5;" width="157.1934" x="95.5" y="621.5"/><ellipse cx="110.5" cy="637.5" fill="#ADD1B2" rx="11" ry="11" style="stroke:#181818;stroke-width:1;"/><path d="M113.4688,643.1406 Q112.8906,643.4375 112.25,643.5781 Q111.6094,643.7344 110.9063,643.7344 Q108.4063,643.7344 107.0781,642.0938 Q105.7656,640.4375 105.7656,637.3125 Q105.7656,634.1875 107.0781,632.5313 Q108.4063,630.875 110.9063,630.875 Q111.6094,630.875 112.25,631.0313 Q112.9063,631.1875 113.4688,631.4844 L113.4688,634.2031 Q112.8438,633.625 112.25,633.3594 Q111.6563,633.0781 111.0313,633.0781 Q109.6875,633.0781 109,634.1563 Q108.3125,635.2188 108.3125,637.3125 Q108.3125,639.4063 109,640.4844 Q109.6875,641.5469 111.0313,641.5469 Q111.6563,641.5469 112.25,641.2813 Q112.8438,641 113.4688,640.4219 L113.4688,643.1406 Z " fill="#000000"/><text fill="#000000" font-family="sans-serif" font-size="14" lengthAdjust="spacing" textLength="125.1934" x="124.5" y="642.3467">Organisation_Unit</text></g><!--class Organisation_Unit_with_Members--><g class="entity" data-entity="Organisation_Unit_with_Members" data-source-line="127" data-uid="ent0026" id="entity_Organisation_Unit_with_Members"><rect fill="#FFFFFF" height="32" rx="2.5" ry="2.5" style="stroke:#181818;stroke-width:0.5;" width="265.7754" x="266" y="755"/><ellipse cx="281" cy="771" fill="#ADD1B2" rx="11" ry="11" style="stroke:#181818;stroke-width:1;"/><path d="M283.9688,776.6406 Q283.3906,776.9375 282.75,777.0781 Q282.1094,777.2344 281.4063,777.2344 Q278.9063,777.2344 277.5781,775.5938 Q276.2656,773.9375 276.2656,770.8125 Q276.2656,767.6875 277.5781,766.0313 Q278.9063,764.375 281.4063,764.375 Q282.1094,764.375 282.75,764.5313 Q283.4063,764.6875 283.9688,764.9844 L283.9688,767.7031 Q283.3438,767.125 282.75,766.8594 Q282.1563,766.5781 281.5313,766.5781 Q280.1875,766.5781 279.5,767.6563 Q278.8125,768.7188 278.8125,770.8125 Q278.8125,772.9063 279.5,773.9844 Q280.1875,775.0469 281.5313,775.0469 Q282.1563,775.0469 282.75,774.7813 Q283.3438,774.5 283.9688,773.9219 L283.9688,776.6406 Z " fill="#000000"/><text fill="#000000" font-family="sans-serif" font-size="14" lengthAdjust="spacing" textLength="233.7754" x="295" y="775.8467">Organisation_Unit_with_Members</text></g><!--class Affiliation_Statement--><g class="entity" data-entity="Affiliation_Statement" data-source-line="835" data-uid="ent0032" id="entity_Affiliation_Statement"><rect fill="#FFFFFF" height="105.1875" rx="2.5" ry="2.5" style="stroke:#181818;stroke-width:0.5;" width="294.0576" x="265" y="249"/><ellipse cx="334.1934" cy="265" fill="#ADD1B2" rx="11" ry="11" style="stroke:#181818;stroke-width:1;"/><path d="M337.1621,270.6406 Q336.584,270.9375 335.9434,271.0781 Q335.3027,271.2344 334.5996,271.2344 Q332.0996,271.2344 330.7715,269.5938 Q329.459,267.9375 329.459,264.8125 Q329.459,261.6875 330.7715,260.0313 Q332.0996,258.375 334.5996,258.375 Q335.3027,258.375 335.9434,258.5313 Q336.5996,258.6875 337.1621,258.9844 L337.1621,261.7031 Q336.5371,261.125 335.9434,260.8594 Q335.3496,260.5781 334.7246,260.5781 Q333.3809,260.5781 332.6934,261.6563 Q332.0059,262.7188 332.0059,264.8125 Q332.0059,266.9063 332.6934,267.9844 Q333.3809,269.0469 334.7246,269.0469 Q335.3496,269.0469 335.9434,268.7813 Q336.5371,268.5 337.1621,267.9219 L337.1621,270.6406 Z " fill="#000000"/><text fill="#000000" font-family="sans-serif" font-size="14" lengthAdjust="spacing" textLength="147.1709" x="354.6934" y="269.8467">Affiliation_Statement</text><line style="stroke:#181818;stroke-width:0.5;" x1="266" x2="558.0576" y1="281" y2="281"/><text fill="#000000" font-family="sans-serif" font-size="14" lengthAdjust="spacing" textLength="259.7109" x="271" y="297.9951">displayAffiliation : Multilingual_String</text><text fill="#000000" font-family="sans-serif" font-size="14" lengthAdjust="spacing" textLength="282.0576" x="271" y="314.292">displayPersonName : Multilingual_String</text><text fill="#000000" font-family="sans-serif" font-size="14" lengthAdjust="spacing" textLength="263.9902" x="271" y="330.5889">contacts : List&lt;Contact_Information&gt;</text><text fill="#000000" font-family="sans-serif" font-size="14" lengthAdjust="spacing" textLength="124.0791" x="271" y="346.8857">position : Position</text></g><!--link Agent to Date_Range--><g class="link" data-entity-1="Agent" data-entity-2="Date_Range" data-source-line="15" data-uid="lnk4" id="link_Agent_Date_Range"><path codeLine="15" d="M774.83,346.35 C810.99,383.37 856.4873,429.958 880.9573,455.008" fill="none" id="Agent-to-Date_Range" style="stroke:#181818;stroke-width:1;stroke-dasharray:7,7;"/><polygon fill="#181818" points="885.15,459.3,881.7224,450.0668,881.6561,455.7233,875.9996,455.6571,885.15,459.3" style="stroke:#181818;stroke-width:1;"/></g><!--link Agent to Contact_Information--><g class="link" data-entity-1="Agent" data-entity-2="Contact_Information" data-source-line="16" data-uid="lnk6" id="link_Agent_Contact_Information"><path codeLine="16" d="M728.69,346.35 C725.89,383.37 722.4914,428.267 720.6014,453.317" fill="none" id="Agent-to-Contact_Information" style="stroke:#181818;stroke-width:1;stroke-dasharray:7,7;"/><polygon fill="#181818" points="720.15,459.3,724.8158,450.6264,720.5262,454.3142,716.8385,450.0246,720.15,459.3" style="stroke:#181818;stroke-width:1;"/><text fill="#000000" font-family="sans-serif" font-size="13" lengthAdjust="spacing" textLength="23.0356" x="693.7681" y="448.5383">0..*</text></g><!--link Document to Activity--><g class="link" data-entity-1="Document" data-entity-2="Activity" data-source-line="251" data-uid="lnk9" id="link_Document_Activity"><path codeLine="251" d="M811,39.07 C811,58.33 811,92.03 811,115.82" fill="none" id="Document-Activity" style="stroke:#181818;stroke-width:1;"/><polygon fill="#000000" points="816,82.5664,818.9389,73.5213,813.0611,73.5213,816,82.5664" style="stroke:#000000;stroke-width:1;"/><text fill="#000000" font-family="sans-serif" font-size="13" lengthAdjust="spacing" textLength="37.2417" x="825" y="82.0669">prove</text><text fill="#000000" font-family="sans-serif" font-size="13" lengthAdjust="spacing" textLength="23.0356" x="784.2745" y="58.9665">0..*</text><text fill="#000000" font-family="sans-serif" font-size="13" lengthAdjust="spacing" textLength="23.0356" x="785.4875" y="105.064">0..*</text></g><!--link Activity to Agent--><g class="link" data-entity-1="Activity" data-entity-2="Agent" data-source-line="257" data-uid="lnk10" id="link_Activity_Agent"><path codeLine="257" d="M728.51,172.06 C715.97,179.77 704.68,189.58 697,202 C686.7,218.67 688.6425,233.4356 697.4325,251.1456" fill="none" id="Activity-to-Agent" style="stroke:#181818;stroke-width:1;"/><polygon fill="#181818" points="700.1,256.52,699.6817,246.68,697.8771,252.0413,692.5158,250.2367,700.1,256.52" style="stroke:#181818;stroke-width:1;"/><polygon fill="#000000" points="700.1713,215.22,706.2147,207.8764,700.7441,205.7267,700.1713,215.22" style="stroke:#000000;stroke-width:1;"/><text fill="#000000" font-family="sans-serif" font-size="13" lengthAdjust="spacing" textLength="33.5093" x="711" y="215.0669">actor</text><text fill="#000000" font-family="sans-serif" font-size="13" lengthAdjust="spacing" textLength="23.0356" x="686.1275" y="191.4442">0..*</text><text fill="#000000" font-family="sans-serif" font-size="13" lengthAdjust="spacing" textLength="24.8066" x="669.7121" y="245.8967">0..1</text></g><!--link Activity to Date_Range--><g class="link" data-entity-1="Activity" data-entity-2="Date_Range" data-source-line="856" data-uid="lnk11" id="link_Activity_Date_Range"><path codeLine="856" d="M872.78,172.28 C884.1,180.19 894.4,190.01 901,202 C948.79,288.83 919.3976,410.2881 906.5276,453.6381" fill="none" id="Activity-to-Date_Range" style="stroke:#181818;stroke-width:1;stroke-dasharray:7,7;"/><polygon fill="#181818" points="904.82,459.39,911.216,451.9006,906.243,454.5968,903.5469,449.6238,904.82,459.39" style="stroke:#181818;stroke-width:1;"/></g><!--reverse link Involvement to Membership--><g class="link" data-entity-1="Involvement" data-entity-2="Membership" data-source-line="183" data-uid="lnk14" id="link_Involvement_Membership"><path codeLine="183" d="M1154.6104,348.9794 C1204.1804,386.3694 1265.37,432.53 1301.03,459.44" fill="none" id="Involvement-backto-Membership" style="stroke:#181818;stroke-width:1;"/><polygon fill="none" points="1140.24,338.14,1150.9972,353.7695,1158.2235,344.1893,1140.24,338.14" style="stroke:#181818;stroke-width:1;"/></g><!--reverse link Agent to Person--><g class="link" data-entity-1="Agent" data-entity-2="Person" data-source-line="72" data-uid="lnk16" id="link_Agent_Person"><path codeLine="72" d="M645.9167,355.5744 C599.4167,384.2344 554.67,411.82 511,438.74" fill="none" id="Agent-backto-Person" style="stroke:#181818;stroke-width:1;"/><polygon fill="none" points="661.24,346.13,642.7686,350.4667,649.0649,360.6822,661.24,346.13" style="stroke:#181818;stroke-width:1;"/></g><!--link Person to Person_Name--><g class="link" data-entity-1="Person" data-entity-2="Person_Name" data-source-line="85" data-uid="lnk18" id="link_Person_Person_Name"><path codeLine="85" d="M453,512.01 C453,532.26 453,552.1 453,574.97" fill="none" id="Person-to-Person_Name" style="stroke:#181818;stroke-width:1;stroke-dasharray:7,7;"/><polygon fill="#181818" points="453,580.97,457,571.97,453,575.97,449,571.97,453,580.97" style="stroke:#181818;stroke-width:1;"/></g><!--reverse link Group_or_Organisation_Unit to Group--><g class="link" data-entity-1="Group_or_Organisation_Unit" data-entity-2="Group" data-source-line="106" data-uid="lnk21" id="link_Group_or_Organisation_Unit_Group"><path codeLine="106" d="M1032.3824,530.2585 C983.7524,563.9385 934.06,598.36 900.84,621.37" fill="none" id="Group_or_Organisation_Unit-backto-Group" style="stroke:#181818;stroke-width:1;"/><polygon fill="none" points="1047.18,520.01,1028.9662,525.3259,1035.7986,535.191,1047.18,520.01" style="stroke:#181818;stroke-width:1;"/></g><!--link Group to Group--><g class="link" data-entity-1="Group" data-entity-2="Group" data-source-line="123" data-uid="lnk22" id="link_Group_Group"><path codeLine="123" d="M922.6333,621.1478 C941.0933,619.0978 951.5,624.99 951.5,637.5 C951.5,650.01 941.0933,655.9022 922.6333,653.8522" fill="none" id="Group-Group" style="stroke:#181818;stroke-width:1;stroke-dasharray:7,7;"/><polygon fill="#181818" points="916.67,621.81,926.0565,624.7922,921.6395,621.2581,925.1735,616.8411,916.67,621.81" style="stroke:#181818;stroke-width:1;"/><polygon fill="#181818" points="916.67,653.19,925.1735,658.1589,921.6395,653.7419,926.0565,650.2078,916.67,653.19" style="stroke:#181818;stroke-width:1;"/><text fill="#000000" font-family="sans-serif" font-size="13" lengthAdjust="spacing" textLength="70.4907" x="847.758" y="610.3501">0..* part of</text><text fill="#000000" font-family="sans-serif" font-size="13" lengthAdjust="spacing" textLength="60.6011" x="859.522" y="673.542">0..* parts</text></g><!--reverse link Group_or_Organisation_Unit to Organisation_Unit--><g class="link" data-entity-1="Group_or_Organisation_Unit" data-entity-2="Organisation_Unit" data-source-line="115" data-uid="lnk24" id="link_Group_or_Organisation_Unit_Organisation_Unit"><path codeLine="115" d="M976.0174,520.3756 C685.7374,580.0556 600.07,511.42 312,581 C273.47,590.31 231.53,608.41 204.12,621.41" fill="none" id="Group_or_Organisation_Unit-backto-Organisation_Unit" style="stroke:#181818;stroke-width:1;"/><polygon fill="none" points="993.48,516.01,974.5622,514.5548,977.4726,526.1965,993.48,516.01" style="stroke:#181818;stroke-width:1;"/></g><!--link Organisation_Unit to Organisation_Unit--><g class="link" data-entity-1="Organisation_Unit" data-entity-2="Organisation_Unit" data-source-line="119" data-uid="lnk25" id="link_Organisation_Unit_Organisation_Unit"><path codeLine="119" d="M244.7457,621.2632 C271.1857,620.2632 287.5,625.83 287.5,637.5 C287.5,649.17 271.1857,654.7368 244.7457,653.7368" fill="none" id="Organisation_Unit-Organisation_Unit" style="stroke:#181818;stroke-width:1;stroke-dasharray:7,7;"/><polygon fill="#181818" points="238.75,621.49,247.8947,625.147,243.7464,621.301,247.5924,617.1527,238.75,621.49" style="stroke:#181818;stroke-width:1;"/><polygon fill="#181818" points="238.75,653.51,247.5924,657.8473,243.7464,653.699,247.8947,649.853,238.75,653.51" style="stroke:#181818;stroke-width:1;"/><text fill="#000000" font-family="sans-serif" font-size="13" lengthAdjust="spacing" textLength="70.4907" x="179.0277" y="610.4982">0..* part of</text><text fill="#000000" font-family="sans-serif" font-size="13" lengthAdjust="spacing" textLength="60.6011" x="190.7654" y="673.6813">0..* parts</text></g><!--reverse link Group to Organisation_Unit_with_Members--><g class="link" data-entity-1="Group" data-entity-2="Organisation_Unit_with_Members" data-source-line="132" data-uid="lnk27" id="link_Group_Organisation_Unit_with_Members"><path codeLine="132" d="M823.9698,653.5765 C739.6598,676.6765 552.77,727.87 454.13,754.9" fill="none" id="Group-backto-Organisation_Unit_with_Members" style="stroke:#181818;stroke-width:1;"/><polygon fill="none" points="841.33,648.82,822.3843,647.7898,825.5553,659.3632,841.33,648.82" style="stroke:#181818;stroke-width:1;"/></g><!--reverse link Organisation_Unit to Organisation_Unit_with_Members--><g class="link" data-entity-1="Organisation_Unit" data-entity-2="Organisation_Unit_with_Members" data-source-line="136" data-uid="lnk28" id="link_Organisation_Unit_Organisation_Unit_with_Members"><path codeLine="136" d="M215.3506,662.6624 C258.6406,687.9624 329.83,729.57 373.14,754.89" fill="none" id="Organisation_Unit-backto-Organisation_Unit_with_Members" style="stroke:#181818;stroke-width:1;"/><polygon fill="none" points="199.81,653.58,212.3231,667.8426,218.3781,657.4822,199.81,653.58" style="stroke:#181818;stroke-width:1;"/></g><!--reverse link Agent to Group_or_Organisation_Unit--><g class="link" data-entity-1="Agent" data-entity-2="Group_or_Organisation_Unit" data-source-line="97" data-uid="lnk29" id="link_Agent_Group_or_Organisation_Unit"><path codeLine="97" d="M844.2544,353.5832 C901.3444,379.5532 957.16,404.95 1014.23,430.92" fill="none" id="Agent-backto-Group_or_Organisation_Unit" style="stroke:#181818;stroke-width:1;"/><polygon fill="none" points="827.87,346.13,841.77,359.0447,846.7388,348.1217,827.87,346.13" style="stroke:#181818;stroke-width:1;"/></g><!--reverse link Activity to Involvement--><g class="link" data-entity-1="Activity" data-entity-2="Involvement" data-source-line="155" data-uid="lnk30" id="link_Activity_Involvement"><path codeLine="155" d="M901.3078,178.9303 C922.5078,187.6103 928.71,191.02 949,202 C982.97,220.37 1018.82,244.88 1046.25,264.85" fill="none" id="Activity-backto-Involvement" style="stroke:#181818;stroke-width:1;"/><polygon fill="none" points="884.65,172.11,899.0344,184.4829,903.5813,173.3777,884.65,172.11" style="stroke:#181818;stroke-width:1;"/></g><!--link Involvement to Group_or_Organisation_Unit--><g class="link" data-entity-1="Involvement" data-entity-2="Group_or_Organisation_Unit" data-source-line="261" data-uid="lnk31" id="link_Involvement_Group_or_Organisation_Unit"><path codeLine="261" d="M1096.52,338.14 C1099.19,365.1 1102.2696,396.2891 1105.1096,425.0091" fill="none" id="Involvement-to-Group_or_Organisation_Unit" style="stroke:#181818;stroke-width:1;"/><polygon fill="#181818" points="1105.7,430.98,1108.7949,421.6301,1105.208,426.0043,1100.8338,422.4173,1105.7,430.98" style="stroke:#181818;stroke-width:1;"/><polygon fill="#000000" points="1107.492,397.5421,1109.5266,388.2518,1103.6773,388.8301,1107.492,397.5421" style="stroke:#000000;stroke-width:1;"/><text fill="#000000" font-family="sans-serif" font-size="13" lengthAdjust="spacing" textLength="71.0366" x="1116" y="397.0669">involved in</text><text fill="#000000" font-family="sans-serif" font-size="13" lengthAdjust="spacing" textLength="23.0356" x="1072.173" y="357.5622">0..*</text></g><!--reverse link Affiliation_Statement to Involvement--><g class="link" data-entity-1="Affiliation_Statement" data-entity-2="Involvement" data-source-line="835" data-uid="lnk34" id="link_Affiliation_Statement_Involvement"><path codeLine="835" d="M558.2316,247.248 C655.8916,217.618 783.15,192.7 899.5,217 C944.17,226.33 991.16,246.57 1027.65,264.9" fill="none" id="Affiliation_Statement-backto-Involvement" style="stroke:#181818;stroke-width:1;"/><polygon fill="#181818" points="552.49,248.99,562.2637,250.2047,557.2746,247.5383,559.941,242.5493,552.49,248.99" style="stroke:#181818;stroke-width:1;"/><polygon fill="#000000" points="752.5035,210.3785,761.4318,213.6553,761.6527,207.7816,752.5035,210.3785" style="stroke:#000000;stroke-width:1;"/><text fill="#000000" font-family="sans-serif" font-size="13" lengthAdjust="spacing" textLength="132.1201" x="766.5" y="215.0669">is the foundation for</text><text fill="#000000" font-family="sans-serif" font-size="13" lengthAdjust="spacing" textLength="23.0356" x="546.8216" y="237.9894">0..*</text><text fill="#000000" font-family="sans-serif" font-size="13" lengthAdjust="spacing" textLength="23.0356" x="990.4526" y="253.8857">0..*</text></g><!--link Involvement to Involvement--><g class="link" data-entity-1="Involvement" data-entity-2="Involvement" data-source-line="839" data-uid="lnk35" id="link_Involvement_Involvement"><path codeLine="839" d="M1209.56,293.57 C1230.15,294.62 1244.5,297.26 1244.5,301.5 C1244.5,305.74 1236.1422,308.0744 1215.5522,309.1244" fill="none" id="Involvement-to-Involvement" style="stroke:#181818;stroke-width:1;"/><polygon fill="#181818" points="1209.56,309.43,1218.752,312.9664,1214.5535,309.1754,1218.3446,304.9768,1209.56,309.43" style="stroke:#181818;stroke-width:1;"/><polygon fill="#000000" points="1249.7546,306.5599,1252.2291,297.3769,1246.3589,297.6762,1249.7546,306.5599" style="stroke:#000000;stroke-width:1;"/><text fill="#000000" font-family="sans-serif" font-size="13" lengthAdjust="spacing" textLength="26.6602" x="1263.5" y="306.0669">part</text><text fill="#000000" font-family="sans-serif" font-size="13" lengthAdjust="spacing" textLength="23.0356" x="1217.7541" y="305.6266">0..*</text><text fill="#000000" font-family="sans-serif" font-size="13" lengthAdjust="spacing" textLength="24.8066" x="1217.8108" y="322.5026">0..1</text></g><!--link Involvement to Involvement--><g class="link" data-entity-1="Involvement" data-entity-2="Involvement" data-source-line="843" data-uid="lnk36" id="link_Involvement_Involvement"><path codeLine="843" d="M1209.7,284.69 C1256.04,283.96 1295.5,289.57 1295.5,301.5 C1295.5,313.43 1262.0393,319.1345 1215.6993,318.4045" fill="none" id="Involvement-to-Involvement-1" style="stroke:#181818;stroke-width:1;"/><polygon fill="#181818" points="1209.7,318.31,1218.6359,322.4513,1214.6994,318.3888,1218.7619,314.4523,1209.7,318.31" style="stroke:#181818;stroke-width:1;"/><polygon fill="#000000" points="1300.4212,306.5658,1303.5023,297.5681,1297.6252,297.4755,1300.4212,306.5658" style="stroke:#000000;stroke-width:1;"/><text fill="#000000" font-family="sans-serif" font-size="13" lengthAdjust="spacing" textLength="92.2251" x="1314.5" y="306.0669">part transitive</text><text fill="#000000" font-family="sans-serif" font-size="13" lengthAdjust="spacing" textLength="23.0356" x="1217.903" y="280.2168">0..*</text><text fill="#000000" font-family="sans-serif" font-size="13" lengthAdjust="spacing" textLength="23.0356" x="1217.903" y="331.9515">0..*</text></g><!--reverse link Activity to Affiliation_Statement--><g class="link" data-entity-1="Activity" data-entity-2="Affiliation_Statement" data-source-line="657" data-uid="lnk37" id="link_Activity_Affiliation_Statement"><path codeLine="657" d="M705.5763,153.8169 C649.0763,161.0169 588.78,173.76 530,202 C505.59,213.73 481.98,231.64 462.38,248.99" fill="none" id="Activity-backto-Affiliation_Statement" style="stroke:#181818;stroke-width:1;"/><polygon fill="none" points="717.48,152.3,711.0225,149.0906,705.5763,153.8169,712.0338,157.0264,717.48,152.3" style="stroke:#181818;stroke-width:1;"/><polygon fill="#000000" points="530.3438,212.3886,539.8379,211.8291,537.6959,206.3554,530.3438,212.3886" style="stroke:#000000;stroke-width:1;"/><text fill="#000000" font-family="sans-serif" font-size="13" lengthAdjust="spacing" textLength="138.6582" x="544" y="215.0669">affiliation statements</text><text fill="#000000" font-family="sans-serif" font-size="13" lengthAdjust="spacing" textLength="23.0356" x="686.4405" y="149.4219">0..*</text><text fill="#000000" font-family="sans-serif" font-size="13" lengthAdjust="spacing" textLength="23.0356" x="444.603" y="237.9894">0..*</text></g><!--link Affiliation_Statement to Organisation_Unit--><g class="link" data-entity-1="Affiliation_Statement" data-entity-2="Organisation_Unit" data-source-line="658" data-uid="lnk38" id="link_Affiliation_Statement_Organisation_Unit"><path codeLine="658" d="M264.95,331.45 C167.7,354.14 53.4,388.87 27,431 C6,464.52 9.78,484.39 27,520 C50.53,568.67 100.0107,600.4629 135.6507,618.7329" fill="none" id="Affiliation_Statement-to-Organisation_Unit" style="stroke:#181818;stroke-width:1;"/><polygon fill="#181818" points="140.99,621.47,134.8057,613.8048,136.5406,619.1891,131.1563,620.9239,140.99,621.47" style="stroke:#181818;stroke-width:1;"/><polygon fill="#000000" points="29.9479,480.1259,36.3402,473.0839,30.9802,470.6715,29.9479,480.1259" style="stroke:#000000;stroke-width:1;"/><text fill="#000000" font-family="sans-serif" font-size="13" lengthAdjust="spacing" textLength="65.5713" x="41" y="480.0669">institution</text><text fill="#000000" font-family="sans-serif" font-size="13" lengthAdjust="spacing" textLength="23.0356" x="233.7742" y="329.6731">0..*</text><text fill="#000000" font-family="sans-serif" font-size="13" lengthAdjust="spacing" textLength="8.271" x="120.2812" y="610.4713">1</text></g><!--link Affiliation_Statement to Organisation_Unit--><g class="link" data-entity-1="Affiliation_Statement" data-entity-2="Organisation_Unit" data-source-line="659" data-uid="lnk39" id="link_Affiliation_Statement_Organisation_Unit"><path codeLine="659" d="M264.77,347.86 C226.29,367.15 189.37,394.01 167,431 C129.59,492.86 153.773,579.7751 166.333,615.7651" fill="none" id="Affiliation_Statement-to-Organisation_Unit-1" style="stroke:#181818;stroke-width:1;"/><polygon fill="#181818" points="168.31,621.43,169.1212,611.6146,166.6625,616.7092,161.5679,614.2506,168.31,621.43" style="stroke:#181818;stroke-width:1;"/><polygon fill="#000000" points="170.2756,480.2596,176.1537,472.7831,170.6365,470.7559,170.2756,480.2596" style="stroke:#000000;stroke-width:1;"/><text fill="#000000" font-family="sans-serif" font-size="13" lengthAdjust="spacing" textLength="110.3286" x="181" y="480.0669">organisation unit</text><text fill="#000000" font-family="sans-serif" font-size="13" lengthAdjust="spacing" textLength="23.0356" x="234.081" y="346.8079">0..*</text><text fill="#000000" font-family="sans-serif" font-size="13" lengthAdjust="spacing" textLength="24.8066" x="138.3345" y="610.4175">0..1</text></g><!--link Affiliation_Statement to Person--><g class="link" data-entity-1="Affiliation_Statement" data-entity-2="Person" data-source-line="660" data-uid="lnk40" id="link_Affiliation_Statement_Person"><path codeLine="660" d="M424.3,354.11 C430.81,381.42 437.2477,408.4338 443.0877,432.9138" fill="none" id="Affiliation_Statement-to-Person" style="stroke:#181818;stroke-width:1;"/><polygon fill="#181818" points="444.48,438.75,446.2824,429.0675,443.3197,433.8865,438.5007,430.9239,444.48,438.75" style="stroke:#181818;stroke-width:1;"/><polygon fill="#000000" points="441.1596,397.4301,441.9207,387.95,436.2031,389.3132,441.1596,397.4301" style="stroke:#000000;stroke-width:1;"/><text fill="#000000" font-family="sans-serif" font-size="13" lengthAdjust="spacing" textLength="44.5605" x="449" y="397.0669">person</text><text fill="#000000" font-family="sans-serif" font-size="13" lengthAdjust="spacing" textLength="23.0356" x="401.406" y="374.2505">0..*</text><text fill="#000000" font-family="sans-serif" font-size="13" lengthAdjust="spacing" textLength="24.8066" x="416.8677" y="427.9829">0..1</text></g><!--SRC=[bT312i8m30RWkq-HlO3lu4ayY89u3btDja2RZ3RjyEqLvjMEdVFn_py10EXOV2WlogK7hucESucXyngZoW7-WjD8OgsxDwvixmQvKkmfvOdd1hf_HNF8EMbf1TpIw8IpCrR1fx3jiRYmJVWRkZK2DU6UjejK3PNYnYE7WGElWGzpjleF]--></g></svg>