<?xml version="1.0" encoding="UTF-8" standalone="no"?><svg xmlns="http://www.w3.org/2000/svg" xmlns:xlink="http://www.w3.org/1999/xlink" contentScriptType="application/ecmascript" contentStyleType="text/css" height="750px" preserveAspectRatio="none" style="width:1459px;height:750px;background:#FFFFFF;" version="1.1" viewBox="0 0 1459 750" width="1459px" zoomAndPan="magnify"><defs><filter height="300%" id="f10u7xaob74htw" width="300%" x="-1" y="-1"><feGaussianBlur result="blurOut" stdDeviation="2.0"/><feColorMatrix in="blurOut" result="blurOut2" type="matrix" values="0 0 0 0 0 0 0 0 0 0 0 0 0 0 0 0 0 0 .4 0"/><feOffset dx="4.0" dy="4.0" in="blurOut2" result="blurOut3"/><feBlend in="SourceGraphic" in2="blurOut3" mode="normal"/></filter></defs><g><!--MD5=[9d44916250b776386006c440668bcfbb]
class Agent--><rect codeLine="10" fill="#FFFFFF" filter="url(#f10u7xaob74htw)" height="78.4141" id="Agent" style="stroke:#A80036;stroke-width:1.5;" width="224" x="543.49" y="246"/><ellipse cx="632.74" cy="262" fill="#ADD1B2" rx="11" ry="11" style="stroke:#A80036;stroke-width:1.0;"/><path d="M635.7088,267.6406 Q635.1306,267.9375 634.49,268.0781 Q633.8494,268.2344 633.1463,268.2344 Q630.6463,268.2344 629.3181,266.5938 Q628.0056,264.9375 628.0056,261.8125 Q628.0056,258.6875 629.3181,257.0313 Q630.6463,255.375 633.1463,255.375 Q633.8494,255.375 634.49,255.5313 Q635.1463,255.6875 635.7088,255.9844 L635.7088,258.7031 Q635.0838,258.125 634.49,257.8594 Q633.8963,257.5781 633.2713,257.5781 Q631.9275,257.5781 631.24,258.6563 Q630.5525,259.7188 630.5525,261.8125 Q630.5525,263.9063 631.24,264.9844 Q631.9275,266.0469 633.2713,266.0469 Q633.8963,266.0469 634.49,265.7813 Q635.0838,265.5 635.7088,264.9219 L635.7088,267.6406 Z " fill="#000000"/><text fill="#000000" font-family="sans-serif" font-size="12" lengthAdjust="spacing" textLength="37" x="653.24" y="266.1543">Agent</text><line style="stroke:#A80036;stroke-width:1.5;" x1="544.49" x2="766.49" y1="278" y2="278"/><text fill="#000000" font-family="sans-serif" font-size="11" lengthAdjust="spacing" textLength="207" x="549.49" y="292.2104">keywords : List&lt;Multilingual_String&gt;</text><text fill="#000000" font-family="sans-serif" font-size="11" lengthAdjust="spacing" textLength="121" x="549.49" y="305.0151">lifetime : Date_Range</text><text fill="#000000" font-family="sans-serif" font-size="11" lengthAdjust="spacing" textLength="212" x="549.49" y="317.8198">contacts : List&lt;Contact_Information&gt;</text><!--MD5=[176bc0a65f2558a2e68a39a8b34c74bb]
class Date_Range--><rect codeLine="769" fill="#FFFFFF" filter="url(#f10u7xaob74htw)" height="97.1563" id="Date_Range" style="stroke:#A80036;stroke-width:1.5;" width="183" x="742.99" y="401"/><ellipse cx="792.24" cy="419.9688" fill="#ADD0B2" rx="11" ry="11" style="stroke:#A80036;stroke-width:1.0;"/><path d="M791.8338,415.7813 L791.8338,423.7656 L792.49,423.7656 Q793.9275,423.7656 794.5369,422.8594 Q795.1619,421.9375 795.1619,419.7656 Q795.1619,417.5938 794.5369,416.6875 Q793.9275,415.7813 792.49,415.7813 L791.8338,415.7813 Z M789.3806,413.5781 L792.0056,413.5781 Q795.0369,413.5781 796.365,415.0313 Q797.7088,416.4688 797.7088,419.7656 Q797.7088,423.0625 796.365,424.5156 Q795.0369,425.9688 792.0056,425.9688 L789.3806,425.9688 L789.3806,413.5781 Z " fill="#000000"/><text fill="#000000" font-family="sans-serif" font-size="12" font-style="italic" lengthAdjust="spacing" textLength="74" x="813.74" y="417.1387">«DataType»</text><text fill="#000000" font-family="sans-serif" font-size="12" lengthAdjust="spacing" textLength="76" x="812.74" y="431.1074">Date_Range</text><line style="stroke:#A80036;stroke-width:1.5;" x1="743.99" x2="924.99" y1="438.9375" y2="438.9375"/><text fill="#000000" font-family="sans-serif" font-size="11" lengthAdjust="spacing" textLength="96" x="748.99" y="453.1479">start_date : Date</text><text fill="#000000" font-family="sans-serif" font-size="11" lengthAdjust="spacing" textLength="171" x="748.99" y="465.9526">start_date_inclusive : Boolean</text><text fill="#000000" font-family="sans-serif" font-size="11" lengthAdjust="spacing" textLength="90" x="748.99" y="478.7573">end_date : Date</text><text fill="#000000" font-family="sans-serif" font-size="11" lengthAdjust="spacing" textLength="165" x="748.99" y="491.562">end_date_inclusive : Boolean</text><!--MD5=[a0318ef586937002b2555963e2a1f4ad]
class Contact_Information--><rect fill="#FEFECE" filter="url(#f10u7xaob74htw)" height="32" id="Contact_Information" style="stroke:#A80036;stroke-width:1.5;" width="158" x="549.49" y="433.5"/><ellipse cx="564.49" cy="449.5" fill="#ADD1B2" rx="11" ry="11" style="stroke:#A80036;stroke-width:1.0;"/><path d="M567.4588,455.1406 Q566.8806,455.4375 566.24,455.5781 Q565.5994,455.7344 564.8963,455.7344 Q562.3963,455.7344 561.0681,454.0938 Q559.7556,452.4375 559.7556,449.3125 Q559.7556,446.1875 561.0681,444.5313 Q562.3963,442.875 564.8963,442.875 Q565.5994,442.875 566.24,443.0313 Q566.8963,443.1875 567.4588,443.4844 L567.4588,446.2031 Q566.8338,445.625 566.24,445.3594 Q565.6463,445.0781 565.0213,445.0781 Q563.6775,445.0781 562.99,446.1563 Q562.3025,447.2188 562.3025,449.3125 Q562.3025,451.4063 562.99,452.4844 Q563.6775,453.5469 565.0213,453.5469 Q565.6463,453.5469 566.24,453.2813 Q566.8338,453 567.4588,452.4219 L567.4588,455.1406 Z " fill="#000000"/><text fill="#000000" font-family="sans-serif" font-size="12" lengthAdjust="spacing" textLength="126" x="578.49" y="453.6543">Contact_Information</text><!--MD5=[c881b25adf3665c6568c9693d41a70f3]
class Activity--><rect codeLine="143" fill="#FFFFFF" filter="url(#f10u7xaob74htw)" height="52.8047" id="Activity" style="stroke:#A80036;stroke-width:1.5;" width="151" x="778.99" y="116"/><ellipse cx="828.74" cy="132" fill="#ADD1B2" rx="11" ry="11" style="stroke:#A80036;stroke-width:1.0;"/><path d="M831.7088,137.6406 Q831.1306,137.9375 830.49,138.0781 Q829.8494,138.2344 829.1463,138.2344 Q826.6463,138.2344 825.3181,136.5938 Q824.0056,134.9375 824.0056,131.8125 Q824.0056,128.6875 825.3181,127.0313 Q826.6463,125.375 829.1463,125.375 Q829.8494,125.375 830.49,125.5313 Q831.1463,125.6875 831.7088,125.9844 L831.7088,128.7031 Q831.0838,128.125 830.49,127.8594 Q829.8963,127.5781 829.2713,127.5781 Q827.9275,127.5781 827.24,128.6563 Q826.5525,129.7188 826.5525,131.8125 Q826.5525,133.9063 827.24,134.9844 Q827.9275,136.0469 829.2713,136.0469 Q829.8963,136.0469 830.49,135.7813 Q831.0838,135.5 831.7088,134.9219 L831.7088,137.6406 Z " fill="#000000"/><text fill="#000000" font-family="sans-serif" font-size="12" lengthAdjust="spacing" textLength="43" x="849.24" y="136.1543">Activity</text><line style="stroke:#A80036;stroke-width:1.5;" x1="779.99" x2="928.99" y1="148" y2="148"/><text fill="#000000" font-family="sans-serif" font-size="11" lengthAdjust="spacing" textLength="139" x="784.99" y="162.2104">dateRange : Date_Range</text><!--MD5=[59b530d44ae785dc18db921986a9c15c]
class Document--><rect fill="#FEFECE" filter="url(#f10u7xaob74htw)" height="32" id="Document" style="stroke:#A80036;stroke-width:1.5;" width="96" x="806.49" y="7"/><ellipse cx="821.49" cy="23" fill="#ADD1B2" rx="11" ry="11" style="stroke:#A80036;stroke-width:1.0;"/><path d="M824.4588,28.6406 Q823.8806,28.9375 823.24,29.0781 Q822.5994,29.2344 821.8963,29.2344 Q819.3963,29.2344 818.0681,27.5938 Q816.7556,25.9375 816.7556,22.8125 Q816.7556,19.6875 818.0681,18.0313 Q819.3963,16.375 821.8963,16.375 Q822.5994,16.375 823.24,16.5313 Q823.8963,16.6875 824.4588,16.9844 L824.4588,19.7031 Q823.8338,19.125 823.24,18.8594 Q822.6463,18.5781 822.0213,18.5781 Q820.6775,18.5781 819.99,19.6563 Q819.3025,20.7188 819.3025,22.8125 Q819.3025,24.9063 819.99,25.9844 Q820.6775,27.0469 822.0213,27.0469 Q822.6463,27.0469 823.24,26.7813 Q823.8338,26.5 824.4588,25.9219 L824.4588,28.6406 Z " fill="#000000"/><text fill="#000000" font-family="sans-serif" font-size="12" lengthAdjust="spacing" textLength="64" x="835.49" y="27.1543">Document</text><!--MD5=[92dc6ef2f70a23983af4e570fc6275cd]
class Funding--><rect fill="#FEFECE" filter="url(#f10u7xaob74htw)" height="32" id="Funding" style="stroke:#A80036;stroke-width:1.5;" width="82" x="1363.49" y="433.5"/><ellipse cx="1378.49" cy="449.5" fill="#ADD1B2" rx="11" ry="11" style="stroke:#A80036;stroke-width:1.0;"/><path d="M1381.4588,455.1406 Q1380.8806,455.4375 1380.24,455.5781 Q1379.5994,455.7344 1378.8963,455.7344 Q1376.3963,455.7344 1375.0681,454.0938 Q1373.7556,452.4375 1373.7556,449.3125 Q1373.7556,446.1875 1375.0681,444.5313 Q1376.3963,442.875 1378.8963,442.875 Q1379.5994,442.875 1380.24,443.0313 Q1380.8963,443.1875 1381.4588,443.4844 L1381.4588,446.2031 Q1380.8338,445.625 1380.24,445.3594 Q1379.6463,445.0781 1379.0213,445.0781 Q1377.6775,445.0781 1376.99,446.1563 Q1376.3025,447.2188 1376.3025,449.3125 Q1376.3025,451.4063 1376.99,452.4844 Q1377.6775,453.5469 1379.0213,453.5469 Q1379.6463,453.5469 1380.24,453.2813 Q1380.8338,453 1381.4588,452.4219 L1381.4588,455.1406 Z " fill="#000000"/><text fill="#000000" font-family="sans-serif" font-size="12" lengthAdjust="spacing" textLength="50" x="1392.49" y="453.6543">Funding</text><!--MD5=[77463bb17ddcfe3891c27a1f4a877731]
class Membership--><rect codeLine="177" fill="#FFFFFF" filter="url(#f10u7xaob74htw)" height="32" id="Membership" style="stroke:#A80036;stroke-width:1.5;" width="108" x="1220.49" y="433.5"/><ellipse cx="1235.49" cy="449.5" fill="#ADD1B2" rx="11" ry="11" style="stroke:#A80036;stroke-width:1.0;"/><path d="M1238.4588,455.1406 Q1237.8806,455.4375 1237.24,455.5781 Q1236.5994,455.7344 1235.8963,455.7344 Q1233.3963,455.7344 1232.0681,454.0938 Q1230.7556,452.4375 1230.7556,449.3125 Q1230.7556,446.1875 1232.0681,444.5313 Q1233.3963,442.875 1235.8963,442.875 Q1236.5994,442.875 1237.24,443.0313 Q1237.8963,443.1875 1238.4588,443.4844 L1238.4588,446.2031 Q1237.8338,445.625 1237.24,445.3594 Q1236.6463,445.0781 1236.0213,445.0781 Q1234.6775,445.0781 1233.99,446.1563 Q1233.3025,447.2188 1233.3025,449.3125 Q1233.3025,451.4063 1233.99,452.4844 Q1234.6775,453.5469 1236.0213,453.5469 Q1236.6463,453.5469 1237.24,453.2813 Q1237.8338,453 1238.4588,452.4219 L1238.4588,455.1406 Z " fill="#000000"/><text fill="#000000" font-family="sans-serif" font-size="12" lengthAdjust="spacing" textLength="76" x="1249.49" y="453.6543">Membership</text><!--MD5=[6a029e66987f6edc98a50822cc78695f]
class Involvement--><rect codeLine="149" fill="#FFFFFF" filter="url(#f10u7xaob74htw)" height="32" id="Involvement" style="stroke:#A80036;stroke-width:1.5;" width="106" x="907.49" y="269"/><ellipse cx="922.49" cy="285" fill="#ADD1B2" rx="11" ry="11" style="stroke:#A80036;stroke-width:1.0;"/><path d="M925.4588,290.6406 Q924.8806,290.9375 924.24,291.0781 Q923.5994,291.2344 922.8963,291.2344 Q920.3963,291.2344 919.0681,289.5938 Q917.7556,287.9375 917.7556,284.8125 Q917.7556,281.6875 919.0681,280.0313 Q920.3963,278.375 922.8963,278.375 Q923.5994,278.375 924.24,278.5313 Q924.8963,278.6875 925.4588,278.9844 L925.4588,281.7031 Q924.8338,281.125 924.24,280.8594 Q923.6463,280.5781 923.0213,280.5781 Q921.6775,280.5781 920.99,281.6563 Q920.3025,282.7188 920.3025,284.8125 Q920.3025,286.9063 920.99,287.9844 Q921.6775,289.0469 923.0213,289.0469 Q923.6463,289.0469 924.24,288.7813 Q924.8338,288.5 925.4588,287.9219 L925.4588,290.6406 Z " fill="#000000"/><text fill="#000000" font-family="sans-serif" font-size="12" lengthAdjust="spacing" textLength="74" x="936.49" y="289.1543">Involvement</text><!--MD5=[09ce52be0ee7de43c61b6e2d59bf108b]
class Person--><rect codeLine="20" fill="#FFFFFF" filter="url(#f10u7xaob74htw)" height="65.6094" id="Person" style="stroke:#A80036;stroke-width:1.5;" width="236" x="278.49" y="416.5"/><ellipse cx="370.24" cy="432.5" fill="#ADD1B2" rx="11" ry="11" style="stroke:#A80036;stroke-width:1.0;"/><path d="M373.2088,438.1406 Q372.6306,438.4375 371.99,438.5781 Q371.3494,438.7344 370.6463,438.7344 Q368.1463,438.7344 366.8181,437.0938 Q365.5056,435.4375 365.5056,432.3125 Q365.5056,429.1875 366.8181,427.5313 Q368.1463,425.875 370.6463,425.875 Q371.3494,425.875 371.99,426.0313 Q372.6463,426.1875 373.2088,426.4844 L373.2088,429.2031 Q372.5838,428.625 371.99,428.3594 Q371.3963,428.0781 370.7713,428.0781 Q369.4275,428.0781 368.74,429.1563 Q368.0525,430.2188 368.0525,432.3125 Q368.0525,434.4063 368.74,435.4844 Q369.4275,436.5469 370.7713,436.5469 Q371.3963,436.5469 371.99,436.2813 Q372.5838,436 373.2088,435.4219 L373.2088,438.1406 Z " fill="#000000"/><text fill="#000000" font-family="sans-serif" font-size="12" lengthAdjust="spacing" textLength="44" x="390.74" y="436.6543">Person</text><line style="stroke:#A80036;stroke-width:1.5;" x1="279.49" x2="513.49" y1="448.5" y2="448.5"/><text fill="#000000" font-family="sans-serif" font-size="11" lengthAdjust="spacing" textLength="167" x="284.49" y="462.7104">name            : Person_Name</text><text fill="#000000" font-family="sans-serif" font-size="11" lengthAdjust="spacing" textLength="224" x="284.49" y="475.5151">alternateNames  : List&lt;Person_Name&gt;</text><!--MD5=[7b209ef07eb91b93e0aebc9fe4fb9a26]
class Person_Name--><rect codeLine="82" fill="#FFFFFF" filter="url(#f10u7xaob74htw)" height="84.3516" id="Person_Name" style="stroke:#A80036;stroke-width:1.5;" width="201" x="295.99" y="559"/><ellipse cx="349.24" cy="577.9688" fill="#ADD0B2" rx="11" ry="11" style="stroke:#A80036;stroke-width:1.0;"/><path d="M348.8338,573.7813 L348.8338,581.7656 L349.49,581.7656 Q350.9275,581.7656 351.5369,580.8594 Q352.1619,579.9375 352.1619,577.7656 Q352.1619,575.5938 351.5369,574.6875 Q350.9275,573.7813 349.49,573.7813 L348.8338,573.7813 Z M346.3806,571.5781 L349.0056,571.5781 Q352.0369,571.5781 353.365,573.0313 Q354.7088,574.4688 354.7088,577.7656 Q354.7088,581.0625 353.365,582.5156 Q352.0369,583.9688 349.0056,583.9688 L346.3806,583.9688 L346.3806,571.5781 Z " fill="#000000"/><text fill="#000000" font-family="sans-serif" font-size="12" font-style="italic" lengthAdjust="spacing" textLength="74" x="375.74" y="575.1387">«DataType»</text><text fill="#000000" font-family="sans-serif" font-size="12" lengthAdjust="spacing" textLength="86" x="369.74" y="589.1074">Person_Name</text><line style="stroke:#A80036;stroke-width:1.5;" x1="296.99" x2="495.99" y1="596.9375" y2="596.9375"/><text fill="#000000" font-family="sans-serif" font-size="11" lengthAdjust="spacing" textLength="178" x="301.99" y="611.1479">firstNames : Multilingual_String</text><text fill="#000000" font-family="sans-serif" font-size="11" lengthAdjust="spacing" textLength="189" x="301.99" y="623.9526">familyNames : Multilingual_String</text><text fill="#000000" font-family="sans-serif" font-size="11" lengthAdjust="spacing" textLength="185" x="301.99" y="636.7573">otherNames : Multilingual_String</text><!--MD5=[41314a0efc36828092cff9ebad2fcafd]
class Group--><rect codeLine="106" fill="#FFFFFF" filter="url(#f10u7xaob74htw)" height="32" id="Group" style="stroke:#A80036;stroke-width:1.5;" width="70" x="780.49" y="585"/><ellipse cx="795.49" cy="601" fill="#ADD1B2" rx="11" ry="11" style="stroke:#A80036;stroke-width:1.0;"/><path d="M798.4588,606.6406 Q797.8806,606.9375 797.24,607.0781 Q796.5994,607.2344 795.8963,607.2344 Q793.3963,607.2344 792.0681,605.5938 Q790.7556,603.9375 790.7556,600.8125 Q790.7556,597.6875 792.0681,596.0313 Q793.3963,594.375 795.8963,594.375 Q796.5994,594.375 797.24,594.5313 Q797.8963,594.6875 798.4588,594.9844 L798.4588,597.7031 Q797.8338,597.125 797.24,596.8594 Q796.6463,596.5781 796.0213,596.5781 Q794.6775,596.5781 793.99,597.6563 Q793.3025,598.7188 793.3025,600.8125 Q793.3025,602.9063 793.99,603.9844 Q794.6775,605.0469 796.0213,605.0469 Q796.6463,605.0469 797.24,604.7813 Q797.8338,604.5 798.4588,603.9219 L798.4588,606.6406 Z " fill="#000000"/><text fill="#000000" font-family="sans-serif" font-size="12" lengthAdjust="spacing" textLength="38" x="809.49" y="605.1543">Group</text><!--MD5=[affb11a45f8309443fb20b6133e8d181]
class Group_or_Organisation_Unit--><rect codeLine="94" fill="#FFFFFF" filter="url(#f10u7xaob74htw)" height="78.4141" id="Group_or_Organisation_Unit" style="stroke:#A80036;stroke-width:1.5;" width="206" x="961.49" y="410.5"/><ellipse cx="976.49" cy="426.5" fill="#ADD1B2" rx="11" ry="11" style="stroke:#A80036;stroke-width:1.0;"/><path d="M979.4588,432.1406 Q978.8806,432.4375 978.24,432.5781 Q977.5994,432.7344 976.8963,432.7344 Q974.3963,432.7344 973.0681,431.0938 Q971.7556,429.4375 971.7556,426.3125 Q971.7556,423.1875 973.0681,421.5313 Q974.3963,419.875 976.8963,419.875 Q977.5994,419.875 978.24,420.0313 Q978.8963,420.1875 979.4588,420.4844 L979.4588,423.2031 Q978.8338,422.625 978.24,422.3594 Q977.6463,422.0781 977.0213,422.0781 Q975.6775,422.0781 974.99,423.1563 Q974.3025,424.2188 974.3025,426.3125 Q974.3025,428.4063 974.99,429.4844 Q975.6775,430.5469 977.0213,430.5469 Q977.6463,430.5469 978.24,430.2813 Q978.8338,430 979.4588,429.4219 L979.4588,432.1406 Z " fill="#000000"/><text fill="#000000" font-family="sans-serif" font-size="12" lengthAdjust="spacing" textLength="174" x="990.49" y="430.6543">Group_or_Organisation_Unit</text><line style="stroke:#A80036;stroke-width:1.5;" x1="962.49" x2="1166.49" y1="442.5" y2="442.5"/><text fill="#000000" font-family="sans-serif" font-size="11" lengthAdjust="spacing" textLength="147" x="967.49" y="456.7104">name : Multilingual_String</text><text fill="#000000" font-family="sans-serif" font-size="11" lengthAdjust="spacing" textLength="95" x="967.49" y="469.5151">acronym : String</text><text fill="#000000" font-family="sans-serif" font-size="11" lengthAdjust="spacing" textLength="178" x="967.49" y="482.3198">description : Multilingual_String</text><!--MD5=[779f3743e425ed8a6f0bf188ddea4860]
class Organisation_Unit--><rect codeLine="115" fill="#FFFFFF" filter="url(#f10u7xaob74htw)" height="32" id="Organisation_Unit" style="stroke:#A80036;stroke-width:1.5;" width="143" x="105.99" y="585"/><ellipse cx="120.99" cy="601" fill="#ADD1B2" rx="11" ry="11" style="stroke:#A80036;stroke-width:1.0;"/><path d="M123.9588,606.6406 Q123.3806,606.9375 122.74,607.0781 Q122.0994,607.2344 121.3963,607.2344 Q118.8963,607.2344 117.5681,605.5938 Q116.2556,603.9375 116.2556,600.8125 Q116.2556,597.6875 117.5681,596.0313 Q118.8963,594.375 121.3963,594.375 Q122.0994,594.375 122.74,594.5313 Q123.3963,594.6875 123.9588,594.9844 L123.9588,597.7031 Q123.3338,597.125 122.74,596.8594 Q122.1463,596.5781 121.5213,596.5781 Q120.1775,596.5781 119.49,597.6563 Q118.8025,598.7188 118.8025,600.8125 Q118.8025,602.9063 119.49,603.9844 Q120.1775,605.0469 121.5213,605.0469 Q122.1463,605.0469 122.74,604.7813 Q123.3338,604.5 123.9588,603.9219 L123.9588,606.6406 Z " fill="#000000"/><text fill="#000000" font-family="sans-serif" font-size="12" lengthAdjust="spacing" textLength="111" x="134.99" y="605.1543">Organisation_Unit</text><!--MD5=[dae000cba6c379e3053478bba72a741c]
class Organisation_Unit_with_Members--><rect codeLine="128" fill="#FFFFFF" filter="url(#f10u7xaob74htw)" height="32" id="Organisation_Unit_with_Members" style="stroke:#A80036;stroke-width:1.5;" width="237" x="246.99" y="704"/><ellipse cx="261.99" cy="720" fill="#ADD1B2" rx="11" ry="11" style="stroke:#A80036;stroke-width:1.0;"/><path d="M264.9588,725.6406 Q264.3806,725.9375 263.74,726.0781 Q263.0994,726.2344 262.3963,726.2344 Q259.8963,726.2344 258.5681,724.5938 Q257.2556,722.9375 257.2556,719.8125 Q257.2556,716.6875 258.5681,715.0313 Q259.8963,713.375 262.3963,713.375 Q263.0994,713.375 263.74,713.5313 Q264.3963,713.6875 264.9588,713.9844 L264.9588,716.7031 Q264.3338,716.125 263.74,715.8594 Q263.1463,715.5781 262.5213,715.5781 Q261.1775,715.5781 260.49,716.6563 Q259.8025,717.7188 259.8025,719.8125 Q259.8025,721.9063 260.49,722.9844 Q261.1775,724.0469 262.5213,724.0469 Q263.1463,724.0469 263.74,723.7813 Q264.3338,723.5 264.9588,722.9219 L264.9588,725.6406 Z " fill="#000000"/><text fill="#000000" font-family="sans-serif" font-size="12" lengthAdjust="spacing" textLength="205" x="275.99" y="724.1543">Organisation_Unit_with_Members</text><!--MD5=[ddbff00b4911ad4b77d6aa32dd14d1d7]
class Affiliation_Statement--><rect codeLine="447" fill="#FFFFFF" filter="url(#f10u7xaob74htw)" height="78.4141" id="Affiliation_Statement" style="stroke:#A80036;stroke-width:1.5;" width="224" x="284.49" y="246"/><ellipse cx="327.84" cy="262" fill="#ADD1B2" rx="11" ry="11" style="stroke:#A80036;stroke-width:1.0;"/><path d="M330.8088,267.6406 Q330.2306,267.9375 329.59,268.0781 Q328.9494,268.2344 328.2463,268.2344 Q325.7463,268.2344 324.4181,266.5938 Q323.1056,264.9375 323.1056,261.8125 Q323.1056,258.6875 324.4181,257.0313 Q325.7463,255.375 328.2463,255.375 Q328.9494,255.375 329.59,255.5313 Q330.2463,255.6875 330.8088,255.9844 L330.8088,258.7031 Q330.1838,258.125 329.59,257.8594 Q328.9963,257.5781 328.3713,257.5781 Q327.0275,257.5781 326.34,258.6563 Q325.6525,259.7188 325.6525,261.8125 Q325.6525,263.9063 326.34,264.9844 Q327.0275,266.0469 328.3713,266.0469 Q328.9963,266.0469 329.59,265.7813 Q330.1838,265.5 330.8088,264.9219 L330.8088,267.6406 Z " fill="#000000"/><text fill="#000000" font-family="sans-serif" font-size="12" lengthAdjust="spacing" textLength="129" x="348.14" y="266.1543">Affiliation_Statement</text><line style="stroke:#A80036;stroke-width:1.5;" x1="285.49" x2="507.49" y1="278" y2="278"/><text fill="#000000" font-family="sans-serif" font-size="11" lengthAdjust="spacing" textLength="203" x="290.49" y="292.2104">displayAffiliation_Statement : String</text><text fill="#000000" font-family="sans-serif" font-size="11" lengthAdjust="spacing" textLength="159" x="290.49" y="305.0151">displayPersonName : String</text><text fill="#000000" font-family="sans-serif" font-size="11" lengthAdjust="spacing" textLength="212" x="290.49" y="317.8198">contacts : List&lt;Contact_Information&gt;</text><!--MD5=[392b5d5331db5043115a06bd654f787a]
link Agent to Date_Range--><path codeLine="15" d="M697.46,324.1 C721.49,345.92 751.96,373.58 778.07,397.28 " fill="none" id="Agent-to-Date_Range" style="stroke:#A80036;stroke-width:1.0;stroke-dasharray:7.0,7.0;"/><polygon fill="#A80036" points="781.89,400.74,777.9126,391.73,778.1871,397.3802,772.5369,397.6547,781.89,400.74" style="stroke:#A80036;stroke-width:1.0;"/><!--MD5=[d43df4fbdad36fd00892352d175d5460]
link Agent to Contact_Information--><path codeLine="16" d="M649.16,324.1 C643.78,356.5 636.25,401.81 631.92,427.86 " fill="none" id="Agent-to-Contact_Information" style="stroke:#A80036;stroke-width:1.0;stroke-dasharray:7.0,7.0;"/><polygon fill="#A80036" points="631.05,433.11,636.4867,424.8977,631.8789,428.1792,628.5975,423.5714,631.05,433.11" style="stroke:#A80036;stroke-width:1.0;"/><text fill="#000000" font-family="sans-serif" font-size="13" lengthAdjust="spacing" textLength="23" x="605.0886" y="422.2853">0..*</text><!--MD5=[ff9dfe2dddb5fe4a69020d7834f0d207]
link Document to Activity--><path codeLine="222" d="M854.49,39.36 C854.49,58.77 854.49,92.45 854.49,115.8 " fill="none" id="Document-Activity" style="stroke:#A80036;stroke-width:1.0;"/><polygon fill="#000000" points="859.49,82.5664,862.4289,73.5213,856.5511,73.5213,859.49,82.5664" style="stroke:#000000;stroke-width:1.0;"/><text fill="#000000" font-family="sans-serif" font-size="13" lengthAdjust="spacing" textLength="36" x="868.49" y="82.0669">prove</text><text fill="#000000" font-family="sans-serif" font-size="13" lengthAdjust="spacing" textLength="23" x="827.8244" y="59.0534">0..*</text><text fill="#000000" font-family="sans-serif" font-size="13" lengthAdjust="spacing" textLength="23" x="828.8306" y="104.9961">0..*</text><!--MD5=[cd935cc757d29bd6a59b1252b30899e0]
link Activity to Agent--><path codeLine="228" d="M778.96,152.43 C721.96,160.9 650.58,175.83 632.49,199 C623.11,211.02 624.53,226.57 629.75,241.08 " fill="none" id="Activity-to-Agent" style="stroke:#A80036;stroke-width:1.0;"/><polygon fill="#A80036" points="631.66,245.96,632.094,236.1207,629.8326,241.3059,624.6474,239.0445,631.66,245.96" style="stroke:#A80036;stroke-width:1.0;"/><polygon fill="#000000" points="633.1914,210.1203,642.4688,208.0269,639.4665,202.9736,633.1914,210.1203" style="stroke:#000000;stroke-width:1.0;"/><text fill="#000000" font-family="sans-serif" font-size="13" lengthAdjust="spacing" textLength="33" x="646.49" y="212.0669">actor</text><text fill="#000000" font-family="sans-serif" font-size="13" lengthAdjust="spacing" textLength="23" x="747.9369" y="166.1188">0..*</text><text fill="#000000" font-family="sans-serif" font-size="13" lengthAdjust="spacing" textLength="24" x="601.5017" y="235.0037">0..1</text><!--MD5=[2da288daa10c3ee0fffff7997d0d73e1]
link Activity to Date_Range--><path codeLine="775" d="M852.8,169.24 C849.54,219.07 842.29,329.61 837.95,395.69 " fill="none" id="Activity-to-Date_Range" style="stroke:#A80036;stroke-width:1.0;stroke-dasharray:7.0,7.0;"/><polygon fill="#A80036" points="837.62,400.76,842.2015,392.0417,837.9479,395.7708,834.2188,391.5171,837.62,400.76" style="stroke:#A80036;stroke-width:1.0;"/><!--MD5=[ff11c2ae19cf8b0222e8ec830cb319de]
link Activity to Funding--><path codeLine="776" d="M930.12,150.64 C1010.48,161.13 1138.64,186.41 1232.49,246 C1312.12,296.56 1374.29,395.56 1396.08,433.35 " fill="none" id="Activity-Funding" style="stroke:#A80036;stroke-width:1.0;"/><polygon fill="#000000" points="1319.2153,282.4728,1325.4239,289.6773,1328.4728,284.652,1319.2153,282.4728" style="stroke:#000000;stroke-width:1.0;"/><text fill="#000000" font-family="sans-serif" font-size="13" lengthAdjust="spacing" textLength="42" x="1332.49" y="289.5669">covers</text><text fill="#000000" font-family="sans-serif" font-size="13" lengthAdjust="spacing" textLength="23" x="937.88" y="147.7785">0..*</text><text fill="#000000" font-family="sans-serif" font-size="13" lengthAdjust="spacing" textLength="23" x="1366.2359" y="422.31">0..*</text><!--MD5=[774ab914c44fde287bade86ae1a1d531]
reverse link Involvement to Membership--><path codeLine="182" d="M1015.22,309.13 C1065.25,330.91 1140.77,365.43 1203.49,401 C1220.91,410.88 1239.7,423.54 1253.57,433.31 " fill="none" id="Involvement-backto-Membership" style="stroke:#A80036;stroke-width:1.0;"/><polygon fill="none" points="1012.33,315.5,996.74,301.15,1017.88,302.65,1012.33,315.5" style="stroke:#A80036;stroke-width:1.0;"/><!--MD5=[de96f77e660762cb21a195b4097c3876]
reverse link Agent to Person--><path codeLine="78" d="M577.63,334.85 C535.54,361.26 484.75,393.13 447.67,416.39 " fill="none" id="Agent-backto-Person" style="stroke:#A80036;stroke-width:1.0;"/><polygon fill="none" points="574.11,328.8,594.77,324.1,581.55,340.66,574.11,328.8" style="stroke:#A80036;stroke-width:1.0;"/><!--MD5=[5d8901ce694eb85aefa78b7d82d9f6f6]
link Person to Person_Name--><path codeLine="90" d="M396.49,482.57 C396.49,503.31 396.49,530.64 396.49,553.72 " fill="none" id="Person-to-Person_Name" style="stroke:#A80036;stroke-width:1.0;stroke-dasharray:7.0,7.0;"/><polygon fill="#A80036" points="396.49,558.87,400.49,549.87,396.49,553.87,392.49,549.87,396.49,558.87" style="stroke:#A80036;stroke-width:1.0;"/><!--MD5=[ef849346ed6a9c6429a3acad43755067]
reverse link Group_or_Organisation_Unit to Group--><path codeLine="111" d="M983.61,499.06 C933.96,528.87 873.71,565.04 840.5,584.98 " fill="none" id="Group_or_Organisation_Unit-backto-Group" style="stroke:#A80036;stroke-width:1.0;"/><polygon fill="none" points="980.26,492.91,1001.01,488.61,987.47,504.91,980.26,492.91" style="stroke:#A80036;stroke-width:1.0;"/><!--MD5=[46aa33658a7939f97c192b82d622be7c]
reverse link Group_or_Organisation_Unit to Organisation_Unit--><path codeLine="120" d="M956.59,494.58 C952.2,495.83 947.82,496.97 943.49,498 C654.7,566.46 566.88,488.87 278.49,559 C254.03,564.95 227.73,575.78 208.1,584.82 " fill="none" id="Group_or_Organisation_Unit-backto-Organisation_Unit" style="stroke:#A80036;stroke-width:1.0;"/><polygon fill="none" points="954.69,487.84,975.87,488.55,958.86,501.2,954.69,487.84" style="stroke:#A80036;stroke-width:1.0;"/><!--MD5=[854899a0b21de2cb3f4d3222738c1bb3]
reverse link Group to Organisation_Unit_with_Members--><path codeLine="133" d="M760.74,616.24 C675.27,638.46 510.92,681.19 423.5,703.92 " fill="none" id="Group-backto-Organisation_Unit_with_Members" style="stroke:#A80036;stroke-width:1.0;"/><polygon fill="none" points="759.06,609.44,780.18,611.18,762.59,622.99,759.06,609.44" style="stroke:#A80036;stroke-width:1.0;"/><!--MD5=[adeab3cf6be56cae862ee063039c31ec]
reverse link Organisation_Unit to Organisation_Unit_with_Members--><path codeLine="137" d="M218.81,627.71 C256.24,651.01 310.13,684.54 341.09,703.82 " fill="none" id="Organisation_Unit-backto-Organisation_Unit_with_Members" style="stroke:#A80036;stroke-width:1.0;"/><polygon fill="none" points="214.97,633.57,201.68,617.06,222.36,621.68,214.97,633.57" style="stroke:#A80036;stroke-width:1.0;"/><!--MD5=[8baa0633a34be8ca6adcc4fd46743d97]
reverse link Agent to Group_or_Organisation_Unit--><path codeLine="102" d="M770.33,331.63 C832.93,356.5 909.52,386.93 968.85,410.5 " fill="none" id="Agent-backto-Group_or_Organisation_Unit" style="stroke:#A80036;stroke-width:1.0;"/><polygon fill="none" points="767.39,337.99,751.38,324.1,772.56,324.98,767.39,337.99" style="stroke:#A80036;stroke-width:1.0;"/><!--MD5=[eebede85e8e6ba3335a352732690084a]
link Group_or_Organisation_Unit to Group_or_Organisation_Unit--><path codeLine="124" d="M1172.81,435.98 C1190.41,437.93 1202.49,442.43 1202.49,449.5 C1202.49,456.57 1190.41,461.07 1172.81,463.02 " fill="none" id="Group_or_Organisation_Unit-Group_or_Organisation_Unit" style="stroke:#A80036;stroke-width:1.0;stroke-dasharray:7.0,7.0;"/><polygon fill="#A80036" points="1167.71,463.5,1177.0474,466.6325,1172.6877,463.028,1176.2922,458.6682,1167.71,463.5" style="stroke:#A80036;stroke-width:1.0;"/><polygon fill="#A80036" points="1167.71,435.5,1176.2922,440.3318,1172.6877,435.972,1177.0474,432.3675,1167.71,435.5" style="stroke:#A80036;stroke-width:1.0;"/><text fill="#000000" font-family="sans-serif" font-size="13" lengthAdjust="spacing" textLength="69" x="1175.7671" y="417.3838">0..* part of</text><text fill="#000000" font-family="sans-serif" font-size="13" lengthAdjust="spacing" textLength="60" x="1175.8457" y="484.8538">0..* parts</text><!--MD5=[5310b7429ef001befd0a176a00932538]
reverse link Activity to Involvement--><path codeLine="154" d="M885.98,185.24 C907.24,213.41 934.04,248.95 949.02,268.8 " fill="none" id="Activity-backto-Involvement" style="stroke:#A80036;stroke-width:1.0;"/><polygon fill="none" points="880.39,189.45,873.93,169.27,891.57,181.02,880.39,189.45" style="stroke:#A80036;stroke-width:1.0;"/><!--MD5=[3e6df519c6409dff9ecce5f5942987dd]
link Involvement to Group_or_Organisation_Unit--><path codeLine="232" d="M970.28,301.29 C985.42,324.95 1015.1,371.32 1037.11,405.72 " fill="none" id="Involvement-to-Group_or_Organisation_Unit" style="stroke:#A80036;stroke-width:1.0;"/><polygon fill="#A80036" points="1040.03,410.28,1038.5429,400.5441,1037.3327,406.0699,1031.8068,404.8597,1040.03,410.28" style="stroke:#A80036;stroke-width:1.0;"/><polygon fill="#000000" points="1020.1851,366.7779,1017.785,357.5751,1012.8342,360.7434,1020.1851,366.7779" style="stroke:#000000;stroke-width:1.0;"/><text fill="#000000" font-family="sans-serif" font-size="13" lengthAdjust="spacing" textLength="67" x="1026.49" y="367.0669">involved in</text><text fill="#000000" font-family="sans-serif" font-size="13" lengthAdjust="spacing" textLength="23" x="946.7349" y="320.9611">0..*</text><!--MD5=[ec091f800280b56df8e15aaaa2e5104f]
reverse link Affiliation_Statement to Involvement--><path codeLine="757" d="M495.5,244.26 C584.29,213.36 717.65,180.9 830.99,211 C873.04,222.17 915.67,250.55 940.01,268.74 " fill="none" id="Affiliation_Statement-backto-Involvement" style="stroke:#A80036;stroke-width:1.0;"/><polygon fill="#A80036" points="490.78,245.92,500.5964,246.7183,495.4986,244.2663,497.9506,239.1685,490.78,245.92" style="stroke:#A80036;stroke-width:1.0;"/><polygon fill="#000000" points="687.9976,207.2915,696.8674,210.7233,697.1906,204.8544,687.9976,207.2915" style="stroke:#000000;stroke-width:1.0;"/><text fill="#000000" font-family="sans-serif" font-size="13" lengthAdjust="spacing" textLength="128" x="701.99" y="212.0669">is the foundation for</text><text fill="#000000" font-family="sans-serif" font-size="13" lengthAdjust="spacing" textLength="23" x="482.0095" y="234.9568">0..*</text><text fill="#000000" font-family="sans-serif" font-size="13" lengthAdjust="spacing" textLength="23" x="906.4166" y="257.9584">0..*</text><!--MD5=[eeb1986463f873db234da87eccdc590b]
link Involvement to Involvement--><path codeLine="761" d="M1013.76,277.88 C1032.89,277.73 1048.49,280.1 1048.49,285 C1048.49,289.44 1035.68,291.8 1019.04,292.09 " fill="none" id="Involvement-to-Involvement" style="stroke:#A80036;stroke-width:1.0;"/><polygon fill="#A80036" points="1013.76,292.12,1022.7827,296.0685,1018.7599,292.0914,1022.737,288.0686,1013.76,292.12" style="stroke:#A80036;stroke-width:1.0;"/><polygon fill="#000000" points="1053.4508,290.0663,1056.4606,281.0445,1050.5829,280.9984,1053.4508,290.0663" style="stroke:#000000;stroke-width:1.0;"/><text fill="#000000" font-family="sans-serif" font-size="13" lengthAdjust="spacing" textLength="26" x="1067.49" y="289.5669">part</text><text fill="#000000" font-family="sans-serif" font-size="13" lengthAdjust="spacing" textLength="23" x="1021.6538" y="290.0013">0..*</text><text fill="#000000" font-family="sans-serif" font-size="13" lengthAdjust="spacing" textLength="24" x="1021.3068" y="305.885">0..1</text><!--MD5=[eeb1986463f873db234da87eccdc590b]
link Involvement to Involvement--><path codeLine="765" d="M1013.79,272.43 C1055.25,268.05 1099.49,272.23 1099.49,285 C1099.49,297.22 1058.97,301.58 1019.14,298.08 " fill="none" id="Involvement-to-Involvement-1" style="stroke:#A80036;stroke-width:1.0;"/><polygon fill="#A80036" points="1013.79,297.57,1022.3584,302.4262,1018.7663,298.0562,1023.1363,294.4641,1013.79,297.57" style="stroke:#A80036;stroke-width:1.0;"/><polygon fill="#000000" points="1103.9647,290.0387,1107.8376,281.3525,1101.9923,280.7349,1103.9647,290.0387" style="stroke:#000000;stroke-width:1.0;"/><text fill="#000000" font-family="sans-serif" font-size="13" lengthAdjust="spacing" textLength="89" x="1118.49" y="289.5669">part transitive</text><text fill="#000000" font-family="sans-serif" font-size="13" lengthAdjust="spacing" textLength="23" x="1021.6875" y="267.059">0..*</text><text fill="#000000" font-family="sans-serif" font-size="13" lengthAdjust="spacing" textLength="23" x="1014.3025" y="320.9636">0..*</text><!--MD5=[335bc652314d68e20c6b9db39c8a9e92]
reverse link Activity to Affiliation_Statement--><path codeLine="567" d="M765.56,149.19 C668.37,156.65 519.9,172.07 470.49,199 C450.39,209.95 433.21,228.65 420.47,245.72 " fill="none" id="Activity-backto-Affiliation_Statement" style="stroke:#A80036;stroke-width:1.0;"/><polygon fill="#FFFFFF" points="778.62,148.21,772.3377,144.6698,766.6536,149.1072,772.9358,152.6474,778.62,148.21" style="stroke:#A80036;stroke-width:1.0;"/><polygon fill="#000000" points="470.6748,208.9133,480.1772,209.307,478.5939,203.6464,470.6748,208.9133" style="stroke:#000000;stroke-width:1.0;"/><text fill="#000000" font-family="sans-serif" font-size="13" lengthAdjust="spacing" textLength="132" x="484.49" y="212.0669">affilation statements</text><text fill="#000000" font-family="sans-serif" font-size="13" lengthAdjust="spacing" textLength="23" x="748.1116" y="145.1372">0..*</text><text fill="#000000" font-family="sans-serif" font-size="13" lengthAdjust="spacing" textLength="23" x="399.537" y="235.0157">0..*</text><!--MD5=[08193f8303ce63c6cbc57ff8816f81b7]
link Affiliation_Statement to Organisation_Unit--><path codeLine="568" d="M284.34,319.84 C245.29,337.53 205.53,363.55 182.49,401 C147.72,457.54 162.31,541.25 171.76,579.54 " fill="none" id="Affiliation_Statement-to-Organisation_Unit" style="stroke:#A80036;stroke-width:1.0;"/><polygon fill="#A80036" points="173.11,584.85,174.7741,575.1427,171.8805,580.0035,167.0197,577.1099,173.11,584.85" style="stroke:#A80036;stroke-width:1.0;"/><polygon fill="#000000" points="185.5013,454.1539,191.7953,447.024,186.4024,444.6861,185.5013,454.1539" style="stroke:#000000;stroke-width:1.0;"/><text fill="#000000" font-family="sans-serif" font-size="13" lengthAdjust="spacing" textLength="63" x="196.49" y="454.0669">institution</text><text fill="#000000" font-family="sans-serif" font-size="13" lengthAdjust="spacing" textLength="23" x="253.4187" y="334.6103">0..*</text><text fill="#000000" font-family="sans-serif" font-size="13" lengthAdjust="spacing" textLength="8" x="162.2294" y="573.81">1</text><!--MD5=[08193f8303ce63c6cbc57ff8816f81b7]
link Affiliation_Statement to Organisation_Unit--><path codeLine="569" d="M284.17,306.38 C188.5,326.29 61.84,359.61 31.49,401 C6,435.76 11.56,459.77 31.49,498 C52.76,538.8 98.64,566.64 133.33,582.79 " fill="none" id="Affiliation_Statement-to-Organisation_Unit-1" style="stroke:#A80036;stroke-width:1.0;"/><polygon fill="#A80036" points="137.93,584.9,131.3919,577.5343,133.3782,582.831,128.0815,584.8172,137.93,584.9" style="stroke:#A80036;stroke-width:1.0;"/><polygon fill="#000000" points="34.0949,453.9554,41.0075,447.4234,35.8479,444.6078,34.0949,453.9554" style="stroke:#000000;stroke-width:1.0;"/><text fill="#000000" font-family="sans-serif" font-size="13" lengthAdjust="spacing" textLength="107" x="45.49" y="454.0669">organisation unit</text><text fill="#000000" font-family="sans-serif" font-size="13" lengthAdjust="spacing" textLength="23" x="253.6247" y="304.2841">0..*</text><text fill="#000000" font-family="sans-serif" font-size="13" lengthAdjust="spacing" textLength="24" x="96.2063" y="573.8772">0..1</text><!--MD5=[df6fa22554e93164629bbf1a9b0c08c4]
link Affiliation_Statement to Person--><path codeLine="570" d="M396.49,324.1 C396.49,350.39 396.49,385.19 396.49,411.29 " fill="none" id="Affiliation_Statement-to-Person" style="stroke:#A80036;stroke-width:1.0;"/><polygon fill="#A80036" points="396.49,416.39,400.49,407.39,396.49,411.39,392.49,407.39,396.49,416.39" style="stroke:#A80036;stroke-width:1.0;"/><polygon fill="#000000" points="401.49,367.5664,404.4289,358.5213,398.5511,358.5213,401.49,367.5664" style="stroke:#000000;stroke-width:1.0;"/><text fill="#000000" font-family="sans-serif" font-size="13" lengthAdjust="spacing" textLength="44" x="410.49" y="367.0669">person</text><text fill="#000000" font-family="sans-serif" font-size="13" lengthAdjust="spacing" textLength="23" x="371.4416" y="344.4425">0..*</text><text fill="#000000" font-family="sans-serif" font-size="13" lengthAdjust="spacing" textLength="24" x="370.1275" y="405.5133">0..1</text><!--MD5=[b1e3a8ae505f545e99bf74cef730340c]
@startuml

    !includesub core.puml!common
    !includesub core.puml!Agent
    !includesub core.puml!Activity
    !includesub core.puml!Membership
    !includesub core.puml!Person
    !includesub core.puml!Group
    !includesub core.puml!Organisation_Unit
    !includesub core.puml!Organisation_Unit_with_Members
    !includesub core.puml!Group_or_Organisation_Unit
    !includesub core.puml!Involvement
    !includesub core.puml!Affiliation_Statement

@enduml

@startuml

    hide empty members
    skinparam BoxPadding 120
    class "Agent" #ffffff {
        keywords : List<Multilingual_String>
    	lifetime : Date_Range
    	contacts : List<Contact_Information>
    }
    "Agent" ..> "Date_Range"
    "Agent" ..> "0..*" "Contact_Information"
    class "Activity" #ffffff {
  		dateRange : Date_Range
    }
	"Document" "0..*" - - "0..*" "Activity" : prove >
    "Activity" "0..*" - -> "0..1" "Agent" : actor >
    class Date_Range << (D,#add0b2) DataType>> #ffffff {
        start_date : Date
        start_date_inclusive : Boolean
        end_date : Date
        end_date_inclusive : Boolean
	}
	"Activity" ..> "Date_Range"
	"Activity" "0..*" - - - "0..*" "Funding" : covers <
    class "Membership" #ffffff {
    }
    "Involvement" <|-d- "Membership"
    class "Person" #ffffff {
        name            : Person_Name
        alternateNames  : List<Person_Name>
    }
    "Agent" <|- - "Person"
    class Person_Name << (D,#add0b2) DataType>> #ffffff {
        firstNames : Multilingual_String
        familyNames : Multilingual_String
        otherNames : Multilingual_String
    }
    "Person" ..> "Person_Name"
    class "Group" #ffffff {
    }
	"Group_or_Organisation_Unit" <|- - "Group"
    class "Organisation_Unit" #ffffff {
    }
	"Group_or_Organisation_Unit" <|- - "Organisation_Unit"
    class "Organisation_Unit_with_Members" #ffffff {
    }
    "Group" <|- - "Organisation_Unit_with_Members"
    "Organisation_Unit" <|- - "Organisation_Unit_with_Members"
    class "Group_or_Organisation_Unit" #ffffff {
        name : Multilingual_String
        acronym : String
        description : Multilingual_String
    }
	"Agent" <|- - "Group_or_Organisation_Unit"
	"Group_or_Organisation_Unit" "0..* part of" <..> "0..* parts" "Group_or_Organisation_Unit"
    class "Involvement" #ffffff {
    }
   "Activity" <|-d- "Involvement"
	"Involvement" "0..*" - -> "Group_or_Organisation_Unit" : involved in >
	"Involvement" "0..*" -l-> "0..*" "Affiliation_Statement" : is the foundation for >
	"Involvement" "0..*" - -> "0..1" "Involvement" : part >
	"Involvement" "0..*" - -> "0..*" "Involvement" : part transitive >
    class "Affiliation_Statement" #ffffff {
        displayAffiliation_Statement : String
        displayPersonName : String
        contacts : List<Contact_Information>
    }
    "Activity" "0..*" o- - "0..*" "Affiliation_Statement" : affilation statements >
    "Affiliation_Statement" "0..*" - -> "1" "Organisation_Unit" : institution >
    "Affiliation_Statement" "0..*" - -> "0..1" "Organisation_Unit" : organisation unit >
    "Affiliation_Statement" "0..*" - -> "0..1" "Person" : person >

@enduml

PlantUML version 1.2021.8(Sat Jun 26 08:20:59 UTC 2021)
(GPL source distribution)
Java Runtime: OpenJDK Runtime Environment
JVM: OpenJDK 64-Bit Server VM
Default Encoding: UTF-8
Language: en
Country: null
--></g></svg>