<?xml version="1.0" encoding="UTF-8" standalone="no"?><svg xmlns="http://www.w3.org/2000/svg" xmlns:xlink="http://www.w3.org/1999/xlink" contentScriptType="application/ecmascript" contentStyleType="text/css" height="750px" preserveAspectRatio="none" style="width:1445px;height:750px;background:#FFFFFF;" version="1.1" viewBox="0 0 1445 750" width="1445px" zoomAndPan="magnify"><defs><filter height="300%" id="f191o1wiycrvz3" width="300%" x="-1" y="-1"><feGaussianBlur result="blurOut" stdDeviation="2.0"/><feColorMatrix in="blurOut" result="blurOut2" type="matrix" values="0 0 0 0 0 0 0 0 0 0 0 0 0 0 0 0 0 0 .4 0"/><feOffset dx="4.0" dy="4.0" in="blurOut2" result="blurOut3"/><feBlend in="SourceGraphic" in2="blurOut3" mode="normal"/></filter></defs><g><!--MD5=[9d44916250b776386006c440668bcfbb]
class Agent--><rect codeLine="10" fill="#FFFFFF" filter="url(#f191o1wiycrvz3)" height="78.4141" id="Agent" style="stroke:#A80036;stroke-width:1.5;" width="224" x="547.55" y="246"/><ellipse cx="636.8" cy="262" fill="#ADD1B2" rx="11" ry="11" style="stroke:#A80036;stroke-width:1.0;"/><path d="M639.7688,267.6406 Q639.1906,267.9375 638.55,268.0781 Q637.9094,268.2344 637.2063,268.2344 Q634.7063,268.2344 633.3781,266.5938 Q632.0656,264.9375 632.0656,261.8125 Q632.0656,258.6875 633.3781,257.0313 Q634.7063,255.375 637.2063,255.375 Q637.9094,255.375 638.55,255.5313 Q639.2063,255.6875 639.7688,255.9844 L639.7688,258.7031 Q639.1438,258.125 638.55,257.8594 Q637.9563,257.5781 637.3313,257.5781 Q635.9875,257.5781 635.3,258.6563 Q634.6125,259.7188 634.6125,261.8125 Q634.6125,263.9063 635.3,264.9844 Q635.9875,266.0469 637.3313,266.0469 Q637.9563,266.0469 638.55,265.7813 Q639.1438,265.5 639.7688,264.9219 L639.7688,267.6406 Z " fill="#000000"/><text fill="#000000" font-family="sans-serif" font-size="12" lengthAdjust="spacing" textLength="37" x="657.3" y="266.1543">Agent</text><line style="stroke:#A80036;stroke-width:1.5;" x1="548.55" x2="770.55" y1="278" y2="278"/><text fill="#000000" font-family="sans-serif" font-size="11" lengthAdjust="spacing" textLength="207" x="553.55" y="292.2104">keywords : List&lt;Multilingual_String&gt;</text><text fill="#000000" font-family="sans-serif" font-size="11" lengthAdjust="spacing" textLength="121" x="553.55" y="305.0151">lifetime : Date_Range</text><text fill="#000000" font-family="sans-serif" font-size="11" lengthAdjust="spacing" textLength="212" x="553.55" y="317.8198">contacts : List&lt;Contact_Information&gt;</text><!--MD5=[176bc0a65f2558a2e68a39a8b34c74bb]
class Date_Range--><rect codeLine="775" fill="#FFFFFF" filter="url(#f191o1wiycrvz3)" height="97.1563" id="Date_Range" style="stroke:#A80036;stroke-width:1.5;" width="183" x="747.05" y="401"/><ellipse cx="796.3" cy="419.9688" fill="#ADD0B2" rx="11" ry="11" style="stroke:#A80036;stroke-width:1.0;"/><path d="M795.8938,415.7813 L795.8938,423.7656 L796.55,423.7656 Q797.9875,423.7656 798.5969,422.8594 Q799.2219,421.9375 799.2219,419.7656 Q799.2219,417.5938 798.5969,416.6875 Q797.9875,415.7813 796.55,415.7813 L795.8938,415.7813 Z M793.4406,413.5781 L796.0656,413.5781 Q799.0969,413.5781 800.425,415.0313 Q801.7688,416.4688 801.7688,419.7656 Q801.7688,423.0625 800.425,424.5156 Q799.0969,425.9688 796.0656,425.9688 L793.4406,425.9688 L793.4406,413.5781 Z " fill="#000000"/><text fill="#000000" font-family="sans-serif" font-size="12" font-style="italic" lengthAdjust="spacing" textLength="74" x="817.8" y="417.1387">«DataType»</text><text fill="#000000" font-family="sans-serif" font-size="12" lengthAdjust="spacing" textLength="76" x="816.8" y="431.1074">Date_Range</text><line style="stroke:#A80036;stroke-width:1.5;" x1="748.05" x2="929.05" y1="438.9375" y2="438.9375"/><text fill="#000000" font-family="sans-serif" font-size="11" lengthAdjust="spacing" textLength="96" x="753.05" y="453.1479">start_date : Date</text><text fill="#000000" font-family="sans-serif" font-size="11" lengthAdjust="spacing" textLength="171" x="753.05" y="465.9526">start_date_inclusive : Boolean</text><text fill="#000000" font-family="sans-serif" font-size="11" lengthAdjust="spacing" textLength="90" x="753.05" y="478.7573">end_date : Date</text><text fill="#000000" font-family="sans-serif" font-size="11" lengthAdjust="spacing" textLength="165" x="753.05" y="491.562">end_date_inclusive : Boolean</text><!--MD5=[a0318ef586937002b2555963e2a1f4ad]
class Contact_Information--><rect fill="#FEFECE" filter="url(#f191o1wiycrvz3)" height="32" id="Contact_Information" style="stroke:#A80036;stroke-width:1.5;" width="158" x="553.55" y="433.5"/><ellipse cx="568.55" cy="449.5" fill="#ADD1B2" rx="11" ry="11" style="stroke:#A80036;stroke-width:1.0;"/><path d="M571.5188,455.1406 Q570.9406,455.4375 570.3,455.5781 Q569.6594,455.7344 568.9563,455.7344 Q566.4563,455.7344 565.1281,454.0938 Q563.8156,452.4375 563.8156,449.3125 Q563.8156,446.1875 565.1281,444.5313 Q566.4563,442.875 568.9563,442.875 Q569.6594,442.875 570.3,443.0313 Q570.9563,443.1875 571.5188,443.4844 L571.5188,446.2031 Q570.8938,445.625 570.3,445.3594 Q569.7063,445.0781 569.0813,445.0781 Q567.7375,445.0781 567.05,446.1563 Q566.3625,447.2188 566.3625,449.3125 Q566.3625,451.4063 567.05,452.4844 Q567.7375,453.5469 569.0813,453.5469 Q569.7063,453.5469 570.3,453.2813 Q570.8938,453 571.5188,452.4219 L571.5188,455.1406 Z " fill="#000000"/><text fill="#000000" font-family="sans-serif" font-size="12" lengthAdjust="spacing" textLength="126" x="582.55" y="453.6543">Contact_Information</text><!--MD5=[c881b25adf3665c6568c9693d41a70f3]
class Activity--><rect codeLine="147" fill="#FFFFFF" filter="url(#f191o1wiycrvz3)" height="52.8047" id="Activity" style="stroke:#A80036;stroke-width:1.5;" width="151" x="782.05" y="116"/><ellipse cx="831.8" cy="132" fill="#ADD1B2" rx="11" ry="11" style="stroke:#A80036;stroke-width:1.0;"/><path d="M834.7688,137.6406 Q834.1906,137.9375 833.55,138.0781 Q832.9094,138.2344 832.2063,138.2344 Q829.7063,138.2344 828.3781,136.5938 Q827.0656,134.9375 827.0656,131.8125 Q827.0656,128.6875 828.3781,127.0313 Q829.7063,125.375 832.2063,125.375 Q832.9094,125.375 833.55,125.5313 Q834.2063,125.6875 834.7688,125.9844 L834.7688,128.7031 Q834.1438,128.125 833.55,127.8594 Q832.9563,127.5781 832.3313,127.5781 Q830.9875,127.5781 830.3,128.6563 Q829.6125,129.7188 829.6125,131.8125 Q829.6125,133.9063 830.3,134.9844 Q830.9875,136.0469 832.3313,136.0469 Q832.9563,136.0469 833.55,135.7813 Q834.1438,135.5 834.7688,134.9219 L834.7688,137.6406 Z " fill="#000000"/><text fill="#000000" font-family="sans-serif" font-size="12" lengthAdjust="spacing" textLength="43" x="852.3" y="136.1543">Activity</text><line style="stroke:#A80036;stroke-width:1.5;" x1="783.05" x2="932.05" y1="148" y2="148"/><text fill="#000000" font-family="sans-serif" font-size="11" lengthAdjust="spacing" textLength="139" x="788.05" y="162.2104">dateRange : Date_Range</text><!--MD5=[59b530d44ae785dc18db921986a9c15c]
class Document--><rect fill="#FEFECE" filter="url(#f191o1wiycrvz3)" height="32" id="Document" style="stroke:#A80036;stroke-width:1.5;" width="96" x="809.55" y="7"/><ellipse cx="824.55" cy="23" fill="#ADD1B2" rx="11" ry="11" style="stroke:#A80036;stroke-width:1.0;"/><path d="M827.5188,28.6406 Q826.9406,28.9375 826.3,29.0781 Q825.6594,29.2344 824.9563,29.2344 Q822.4563,29.2344 821.1281,27.5938 Q819.8156,25.9375 819.8156,22.8125 Q819.8156,19.6875 821.1281,18.0313 Q822.4563,16.375 824.9563,16.375 Q825.6594,16.375 826.3,16.5313 Q826.9563,16.6875 827.5188,16.9844 L827.5188,19.7031 Q826.8938,19.125 826.3,18.8594 Q825.7063,18.5781 825.0813,18.5781 Q823.7375,18.5781 823.05,19.6563 Q822.3625,20.7188 822.3625,22.8125 Q822.3625,24.9063 823.05,25.9844 Q823.7375,27.0469 825.0813,27.0469 Q825.7063,27.0469 826.3,26.7813 Q826.8938,26.5 827.5188,25.9219 L827.5188,28.6406 Z " fill="#000000"/><text fill="#000000" font-family="sans-serif" font-size="12" lengthAdjust="spacing" textLength="64" x="838.55" y="27.1543">Document</text><!--MD5=[92dc6ef2f70a23983af4e570fc6275cd]
class Funding--><rect fill="#FEFECE" filter="url(#f191o1wiycrvz3)" height="32" id="Funding" style="stroke:#A80036;stroke-width:1.5;" width="82" x="1349.55" y="433.5"/><ellipse cx="1364.55" cy="449.5" fill="#ADD1B2" rx="11" ry="11" style="stroke:#A80036;stroke-width:1.0;"/><path d="M1367.5188,455.1406 Q1366.9406,455.4375 1366.3,455.5781 Q1365.6594,455.7344 1364.9563,455.7344 Q1362.4563,455.7344 1361.1281,454.0938 Q1359.8156,452.4375 1359.8156,449.3125 Q1359.8156,446.1875 1361.1281,444.5313 Q1362.4563,442.875 1364.9563,442.875 Q1365.6594,442.875 1366.3,443.0313 Q1366.9563,443.1875 1367.5188,443.4844 L1367.5188,446.2031 Q1366.8938,445.625 1366.3,445.3594 Q1365.7063,445.0781 1365.0813,445.0781 Q1363.7375,445.0781 1363.05,446.1563 Q1362.3625,447.2188 1362.3625,449.3125 Q1362.3625,451.4063 1363.05,452.4844 Q1363.7375,453.5469 1365.0813,453.5469 Q1365.7063,453.5469 1366.3,453.2813 Q1366.8938,453 1367.5188,452.4219 L1367.5188,455.1406 Z " fill="#000000"/><text fill="#000000" font-family="sans-serif" font-size="12" lengthAdjust="spacing" textLength="50" x="1378.55" y="453.6543">Funding</text><!--MD5=[77463bb17ddcfe3891c27a1f4a877731]
class Membership--><rect codeLine="183" fill="#FFFFFF" filter="url(#f191o1wiycrvz3)" height="32" id="Membership" style="stroke:#A80036;stroke-width:1.5;" width="108" x="1206.55" y="433.5"/><ellipse cx="1221.55" cy="449.5" fill="#ADD1B2" rx="11" ry="11" style="stroke:#A80036;stroke-width:1.0;"/><path d="M1224.5188,455.1406 Q1223.9406,455.4375 1223.3,455.5781 Q1222.6594,455.7344 1221.9563,455.7344 Q1219.4563,455.7344 1218.1281,454.0938 Q1216.8156,452.4375 1216.8156,449.3125 Q1216.8156,446.1875 1218.1281,444.5313 Q1219.4563,442.875 1221.9563,442.875 Q1222.6594,442.875 1223.3,443.0313 Q1223.9563,443.1875 1224.5188,443.4844 L1224.5188,446.2031 Q1223.8938,445.625 1223.3,445.3594 Q1222.7063,445.0781 1222.0813,445.0781 Q1220.7375,445.0781 1220.05,446.1563 Q1219.3625,447.2188 1219.3625,449.3125 Q1219.3625,451.4063 1220.05,452.4844 Q1220.7375,453.5469 1222.0813,453.5469 Q1222.7063,453.5469 1223.3,453.2813 Q1223.8938,453 1224.5188,452.4219 L1224.5188,455.1406 Z " fill="#000000"/><text fill="#000000" font-family="sans-serif" font-size="12" lengthAdjust="spacing" textLength="76" x="1235.55" y="453.6543">Membership</text><!--MD5=[6a029e66987f6edc98a50822cc78695f]
class Involvement--><rect codeLine="153" fill="#FFFFFF" filter="url(#f191o1wiycrvz3)" height="65.6094" id="Involvement" style="stroke:#A80036;stroke-width:1.5;" width="190" x="910.55" y="252"/><ellipse cx="964.3" cy="268" fill="#ADD1B2" rx="11" ry="11" style="stroke:#A80036;stroke-width:1.0;"/><path d="M967.2688,273.6406 Q966.6906,273.9375 966.05,274.0781 Q965.4094,274.2344 964.7063,274.2344 Q962.2063,274.2344 960.8781,272.5938 Q959.5656,270.9375 959.5656,267.8125 Q959.5656,264.6875 960.8781,263.0313 Q962.2063,261.375 964.7063,261.375 Q965.4094,261.375 966.05,261.5313 Q966.7063,261.6875 967.2688,261.9844 L967.2688,264.7031 Q966.6438,264.125 966.05,263.8594 Q965.4563,263.5781 964.8313,263.5781 Q963.4875,263.5781 962.8,264.6563 Q962.1125,265.7188 962.1125,267.8125 Q962.1125,269.9063 962.8,270.9844 Q963.4875,272.0469 964.8313,272.0469 Q965.4563,272.0469 966.05,271.7813 Q966.6438,271.5 967.2688,270.9219 L967.2688,273.6406 Z " fill="#000000"/><text fill="#000000" font-family="sans-serif" font-size="12" lengthAdjust="spacing" textLength="74" x="984.8" y="272.1543">Involvement</text><line style="stroke:#A80036;stroke-width:1.5;" x1="911.55" x2="1099.55" y1="284" y2="284"/><text fill="#000000" font-family="sans-serif" font-size="11" lengthAdjust="spacing" textLength="178" x="916.55" y="298.2104">description : Multilingual_String</text><text fill="#000000" font-family="sans-serif" font-size="11" lengthAdjust="spacing" textLength="114" x="916.55" y="311.0151">position    : Position</text><!--MD5=[09ce52be0ee7de43c61b6e2d59bf108b]
class Person--><rect codeLine="20" fill="#FFFFFF" filter="url(#f191o1wiycrvz3)" height="65.6094" id="Person" style="stroke:#A80036;stroke-width:1.5;" width="236" x="282.55" y="416.5"/><ellipse cx="374.3" cy="432.5" fill="#ADD1B2" rx="11" ry="11" style="stroke:#A80036;stroke-width:1.0;"/><path d="M377.2688,438.1406 Q376.6906,438.4375 376.05,438.5781 Q375.4094,438.7344 374.7063,438.7344 Q372.2063,438.7344 370.8781,437.0938 Q369.5656,435.4375 369.5656,432.3125 Q369.5656,429.1875 370.8781,427.5313 Q372.2063,425.875 374.7063,425.875 Q375.4094,425.875 376.05,426.0313 Q376.7063,426.1875 377.2688,426.4844 L377.2688,429.2031 Q376.6438,428.625 376.05,428.3594 Q375.4563,428.0781 374.8313,428.0781 Q373.4875,428.0781 372.8,429.1563 Q372.1125,430.2188 372.1125,432.3125 Q372.1125,434.4063 372.8,435.4844 Q373.4875,436.5469 374.8313,436.5469 Q375.4563,436.5469 376.05,436.2813 Q376.6438,436 377.2688,435.4219 L377.2688,438.1406 Z " fill="#000000"/><text fill="#000000" font-family="sans-serif" font-size="12" lengthAdjust="spacing" textLength="44" x="394.8" y="436.6543">Person</text><line style="stroke:#A80036;stroke-width:1.5;" x1="283.55" x2="517.55" y1="448.5" y2="448.5"/><text fill="#000000" font-family="sans-serif" font-size="11" lengthAdjust="spacing" textLength="167" x="288.55" y="462.7104">name            : Person_Name</text><text fill="#000000" font-family="sans-serif" font-size="11" lengthAdjust="spacing" textLength="224" x="288.55" y="475.5151">alternateNames  : List&lt;Person_Name&gt;</text><!--MD5=[7b209ef07eb91b93e0aebc9fe4fb9a26]
class Person_Name--><rect codeLine="82" fill="#FFFFFF" filter="url(#f191o1wiycrvz3)" height="84.3516" id="Person_Name" style="stroke:#A80036;stroke-width:1.5;" width="201" x="300.05" y="559"/><ellipse cx="353.3" cy="577.9688" fill="#ADD0B2" rx="11" ry="11" style="stroke:#A80036;stroke-width:1.0;"/><path d="M352.8938,573.7813 L352.8938,581.7656 L353.55,581.7656 Q354.9875,581.7656 355.5969,580.8594 Q356.2219,579.9375 356.2219,577.7656 Q356.2219,575.5938 355.5969,574.6875 Q354.9875,573.7813 353.55,573.7813 L352.8938,573.7813 Z M350.4406,571.5781 L353.0656,571.5781 Q356.0969,571.5781 357.425,573.0313 Q358.7688,574.4688 358.7688,577.7656 Q358.7688,581.0625 357.425,582.5156 Q356.0969,583.9688 353.0656,583.9688 L350.4406,583.9688 L350.4406,571.5781 Z " fill="#000000"/><text fill="#000000" font-family="sans-serif" font-size="12" font-style="italic" lengthAdjust="spacing" textLength="74" x="379.8" y="575.1387">«DataType»</text><text fill="#000000" font-family="sans-serif" font-size="12" lengthAdjust="spacing" textLength="86" x="373.8" y="589.1074">Person_Name</text><line style="stroke:#A80036;stroke-width:1.5;" x1="301.05" x2="500.05" y1="596.9375" y2="596.9375"/><text fill="#000000" font-family="sans-serif" font-size="11" lengthAdjust="spacing" textLength="178" x="306.05" y="611.1479">firstNames : Multilingual_String</text><text fill="#000000" font-family="sans-serif" font-size="11" lengthAdjust="spacing" textLength="189" x="306.05" y="623.9526">familyNames : Multilingual_String</text><text fill="#000000" font-family="sans-serif" font-size="11" lengthAdjust="spacing" textLength="185" x="306.05" y="636.7573">otherNames : Multilingual_String</text><!--MD5=[41314a0efc36828092cff9ebad2fcafd]
class Group--><rect codeLine="106" fill="#FFFFFF" filter="url(#f191o1wiycrvz3)" height="32" id="Group" style="stroke:#A80036;stroke-width:1.5;" width="70" x="784.55" y="585"/><ellipse cx="799.55" cy="601" fill="#ADD1B2" rx="11" ry="11" style="stroke:#A80036;stroke-width:1.0;"/><path d="M802.5188,606.6406 Q801.9406,606.9375 801.3,607.0781 Q800.6594,607.2344 799.9563,607.2344 Q797.4563,607.2344 796.1281,605.5938 Q794.8156,603.9375 794.8156,600.8125 Q794.8156,597.6875 796.1281,596.0313 Q797.4563,594.375 799.9563,594.375 Q800.6594,594.375 801.3,594.5313 Q801.9563,594.6875 802.5188,594.9844 L802.5188,597.7031 Q801.8938,597.125 801.3,596.8594 Q800.7063,596.5781 800.0813,596.5781 Q798.7375,596.5781 798.05,597.6563 Q797.3625,598.7188 797.3625,600.8125 Q797.3625,602.9063 798.05,603.9844 Q798.7375,605.0469 800.0813,605.0469 Q800.7063,605.0469 801.3,604.7813 Q801.8938,604.5 802.5188,603.9219 L802.5188,606.6406 Z " fill="#000000"/><text fill="#000000" font-family="sans-serif" font-size="12" lengthAdjust="spacing" textLength="38" x="813.55" y="605.1543">Group</text><!--MD5=[affb11a45f8309443fb20b6133e8d181]
class Group_or_Organisation_Unit--><rect codeLine="94" fill="#FFFFFF" filter="url(#f191o1wiycrvz3)" height="78.4141" id="Group_or_Organisation_Unit" style="stroke:#A80036;stroke-width:1.5;" width="206" x="965.55" y="410.5"/><ellipse cx="980.55" cy="426.5" fill="#ADD1B2" rx="11" ry="11" style="stroke:#A80036;stroke-width:1.0;"/><path d="M983.5188,432.1406 Q982.9406,432.4375 982.3,432.5781 Q981.6594,432.7344 980.9563,432.7344 Q978.4563,432.7344 977.1281,431.0938 Q975.8156,429.4375 975.8156,426.3125 Q975.8156,423.1875 977.1281,421.5313 Q978.4563,419.875 980.9563,419.875 Q981.6594,419.875 982.3,420.0313 Q982.9563,420.1875 983.5188,420.4844 L983.5188,423.2031 Q982.8938,422.625 982.3,422.3594 Q981.7063,422.0781 981.0813,422.0781 Q979.7375,422.0781 979.05,423.1563 Q978.3625,424.2188 978.3625,426.3125 Q978.3625,428.4063 979.05,429.4844 Q979.7375,430.5469 981.0813,430.5469 Q981.7063,430.5469 982.3,430.2813 Q982.8938,430 983.5188,429.4219 L983.5188,432.1406 Z " fill="#000000"/><text fill="#000000" font-family="sans-serif" font-size="12" lengthAdjust="spacing" textLength="174" x="994.55" y="430.6543">Group_or_Organisation_Unit</text><line style="stroke:#A80036;stroke-width:1.5;" x1="966.55" x2="1170.55" y1="442.5" y2="442.5"/><text fill="#000000" font-family="sans-serif" font-size="11" lengthAdjust="spacing" textLength="147" x="971.55" y="456.7104">name : Multilingual_String</text><text fill="#000000" font-family="sans-serif" font-size="11" lengthAdjust="spacing" textLength="95" x="971.55" y="469.5151">acronym : String</text><text fill="#000000" font-family="sans-serif" font-size="11" lengthAdjust="spacing" textLength="178" x="971.55" y="482.3198">description : Multilingual_String</text><!--MD5=[779f3743e425ed8a6f0bf188ddea4860]
class Organisation_Unit--><rect codeLine="115" fill="#FFFFFF" filter="url(#f191o1wiycrvz3)" height="32" id="Organisation_Unit" style="stroke:#A80036;stroke-width:1.5;" width="143" x="101.05" y="585"/><ellipse cx="116.05" cy="601" fill="#ADD1B2" rx="11" ry="11" style="stroke:#A80036;stroke-width:1.0;"/><path d="M119.0188,606.6406 Q118.4406,606.9375 117.8,607.0781 Q117.1594,607.2344 116.4563,607.2344 Q113.9563,607.2344 112.6281,605.5938 Q111.3156,603.9375 111.3156,600.8125 Q111.3156,597.6875 112.6281,596.0313 Q113.9563,594.375 116.4563,594.375 Q117.1594,594.375 117.8,594.5313 Q118.4563,594.6875 119.0188,594.9844 L119.0188,597.7031 Q118.3938,597.125 117.8,596.8594 Q117.2063,596.5781 116.5813,596.5781 Q115.2375,596.5781 114.55,597.6563 Q113.8625,598.7188 113.8625,600.8125 Q113.8625,602.9063 114.55,603.9844 Q115.2375,605.0469 116.5813,605.0469 Q117.2063,605.0469 117.8,604.7813 Q118.3938,604.5 119.0188,603.9219 L119.0188,606.6406 Z " fill="#000000"/><text fill="#000000" font-family="sans-serif" font-size="12" lengthAdjust="spacing" textLength="111" x="130.05" y="605.1543">Organisation_Unit</text><!--MD5=[dae000cba6c379e3053478bba72a741c]
class Organisation_Unit_with_Members--><rect codeLine="132" fill="#FFFFFF" filter="url(#f191o1wiycrvz3)" height="32" id="Organisation_Unit_with_Members" style="stroke:#A80036;stroke-width:1.5;" width="237" x="251.05" y="704"/><ellipse cx="266.05" cy="720" fill="#ADD1B2" rx="11" ry="11" style="stroke:#A80036;stroke-width:1.0;"/><path d="M269.0188,725.6406 Q268.4406,725.9375 267.8,726.0781 Q267.1594,726.2344 266.4563,726.2344 Q263.9563,726.2344 262.6281,724.5938 Q261.3156,722.9375 261.3156,719.8125 Q261.3156,716.6875 262.6281,715.0313 Q263.9563,713.375 266.4563,713.375 Q267.1594,713.375 267.8,713.5313 Q268.4563,713.6875 269.0188,713.9844 L269.0188,716.7031 Q268.3938,716.125 267.8,715.8594 Q267.2063,715.5781 266.5813,715.5781 Q265.2375,715.5781 264.55,716.6563 Q263.8625,717.7188 263.8625,719.8125 Q263.8625,721.9063 264.55,722.9844 Q265.2375,724.0469 266.5813,724.0469 Q267.2063,724.0469 267.8,723.7813 Q268.3938,723.5 269.0188,722.9219 L269.0188,725.6406 Z " fill="#000000"/><text fill="#000000" font-family="sans-serif" font-size="12" lengthAdjust="spacing" textLength="205" x="280.05" y="724.1543">Organisation_Unit_with_Members</text><!--MD5=[ddbff00b4911ad4b77d6aa32dd14d1d7]
class Affiliation_Statement--><rect codeLine="453" fill="#FFFFFF" filter="url(#f191o1wiycrvz3)" height="78.4141" id="Affiliation_Statement" style="stroke:#A80036;stroke-width:1.5;" width="224" x="288.55" y="246"/><ellipse cx="331.9" cy="262" fill="#ADD1B2" rx="11" ry="11" style="stroke:#A80036;stroke-width:1.0;"/><path d="M334.8688,267.6406 Q334.2906,267.9375 333.65,268.0781 Q333.0094,268.2344 332.3063,268.2344 Q329.8063,268.2344 328.4781,266.5938 Q327.1656,264.9375 327.1656,261.8125 Q327.1656,258.6875 328.4781,257.0313 Q329.8063,255.375 332.3063,255.375 Q333.0094,255.375 333.65,255.5313 Q334.3063,255.6875 334.8688,255.9844 L334.8688,258.7031 Q334.2438,258.125 333.65,257.8594 Q333.0563,257.5781 332.4313,257.5781 Q331.0875,257.5781 330.4,258.6563 Q329.7125,259.7188 329.7125,261.8125 Q329.7125,263.9063 330.4,264.9844 Q331.0875,266.0469 332.4313,266.0469 Q333.0563,266.0469 333.65,265.7813 Q334.2438,265.5 334.8688,264.9219 L334.8688,267.6406 Z " fill="#000000"/><text fill="#000000" font-family="sans-serif" font-size="12" lengthAdjust="spacing" textLength="129" x="352.2" y="266.1543">Affiliation_Statement</text><line style="stroke:#A80036;stroke-width:1.5;" x1="289.55" x2="511.55" y1="278" y2="278"/><text fill="#000000" font-family="sans-serif" font-size="11" lengthAdjust="spacing" textLength="203" x="294.55" y="292.2104">displayAffiliation_Statement : String</text><text fill="#000000" font-family="sans-serif" font-size="11" lengthAdjust="spacing" textLength="159" x="294.55" y="305.0151">displayPersonName : String</text><text fill="#000000" font-family="sans-serif" font-size="11" lengthAdjust="spacing" textLength="212" x="294.55" y="317.8198">contacts : List&lt;Contact_Information&gt;</text><!--MD5=[392b5d5331db5043115a06bd654f787a]
link Agent to Date_Range--><path codeLine="15" d="M701.51,324.1 C725.55,345.92 756.02,373.58 782.12,397.28 " fill="none" id="Agent-to-Date_Range" style="stroke:#A80036;stroke-width:1.0;stroke-dasharray:7.0,7.0;"/><polygon fill="#A80036" points="785.94,400.74,781.9816,391.7216,782.2442,397.3724,776.5934,397.6349,785.94,400.74" style="stroke:#A80036;stroke-width:1.0;"/><!--MD5=[d43df4fbdad36fd00892352d175d5460]
link Agent to Contact_Information--><path codeLine="16" d="M653.22,324.1 C647.83,356.5 640.3,401.81 635.98,427.86 " fill="none" id="Agent-to-Contact_Information" style="stroke:#A80036;stroke-width:1.0;stroke-dasharray:7.0,7.0;"/><polygon fill="#A80036" points="635.1,433.11,640.5367,424.8977,635.9289,428.1792,632.6475,423.5714,635.1,433.11" style="stroke:#A80036;stroke-width:1.0;"/><text fill="#000000" font-family="sans-serif" font-size="13" lengthAdjust="spacing" textLength="23" x="609.1353" y="422.2853">0..*</text><!--MD5=[ff9dfe2dddb5fe4a69020d7834f0d207]
link Document to Activity--><path codeLine="228" d="M857.55,39.36 C857.55,58.77 857.55,92.45 857.55,115.8 " fill="none" id="Document-Activity" style="stroke:#A80036;stroke-width:1.0;"/><polygon fill="#000000" points="862.55,82.5664,865.4889,73.5213,859.6111,73.5213,862.55,82.5664" style="stroke:#000000;stroke-width:1.0;"/><text fill="#000000" font-family="sans-serif" font-size="13" lengthAdjust="spacing" textLength="36" x="871.55" y="82.0669">prove</text><text fill="#000000" font-family="sans-serif" font-size="13" lengthAdjust="spacing" textLength="23" x="830.8844" y="59.0534">0..*</text><text fill="#000000" font-family="sans-serif" font-size="13" lengthAdjust="spacing" textLength="23" x="831.8906" y="104.9961">0..*</text><!--MD5=[cd935cc757d29bd6a59b1252b30899e0]
link Activity to Agent--><path codeLine="234" d="M782.01,152.43 C725.01,160.9 653.64,175.83 635.55,199 C626.14,211.05 627.7,226.61 633.11,241.12 " fill="none" id="Activity-to-Agent" style="stroke:#A80036;stroke-width:1.0;"/><polygon fill="#A80036" points="635.09,245.99,635.3987,236.146,633.2035,241.3595,627.99,239.1644,635.09,245.99" style="stroke:#A80036;stroke-width:1.0;"/><polygon fill="#000000" points="636.2543,210.1251,645.5293,208.0214,642.5214,202.9714,636.2543,210.1251" style="stroke:#000000;stroke-width:1.0;"/><text fill="#000000" font-family="sans-serif" font-size="13" lengthAdjust="spacing" textLength="33" x="649.55" y="212.0669">actor</text><text fill="#000000" font-family="sans-serif" font-size="13" lengthAdjust="spacing" textLength="23" x="750.986" y="166.1188">0..*</text><text fill="#000000" font-family="sans-serif" font-size="13" lengthAdjust="spacing" textLength="24" x="604.8234" y="235.0388">0..1</text><!--MD5=[2da288daa10c3ee0fffff7997d0d73e1]
link Activity to Date_Range--><path codeLine="781" d="M855.94,169.24 C852.84,219.07 845.95,329.61 841.84,395.69 " fill="none" id="Activity-to-Date_Range" style="stroke:#A80036;stroke-width:1.0;stroke-dasharray:7.0,7.0;"/><polygon fill="#A80036" points="841.52,400.76,846.0767,392.0287,841.8337,395.7698,838.0925,391.5268,841.52,400.76" style="stroke:#A80036;stroke-width:1.0;"/><!--MD5=[ff11c2ae19cf8b0222e8ec830cb319de]
link Activity to Funding--><path codeLine="782" d="M933.21,151.36 C1049.08,164.82 1263.02,195.82 1319.55,246 C1376.52,296.58 1387.78,395.57 1390,433.35 " fill="none" id="Activity-Funding" style="stroke:#A80036;stroke-width:1.0;"/><polygon fill="#000000" points="1369.2954,282.4399,1375.4482,289.6921,1378.5358,284.6905,1369.2954,282.4399" style="stroke:#000000;stroke-width:1.0;"/><text fill="#000000" font-family="sans-serif" font-size="13" lengthAdjust="spacing" textLength="42" x="1382.55" y="289.5669">covers</text><text fill="#000000" font-family="sans-serif" font-size="13" lengthAdjust="spacing" textLength="23" x="940.9727" y="148.5626">0..*</text><text fill="#000000" font-family="sans-serif" font-size="13" lengthAdjust="spacing" textLength="23" x="1362.8578" y="422.31">0..*</text><!--MD5=[774ab914c44fde287bade86ae1a1d531]
reverse link Involvement to Membership--><path codeLine="188" d="M1082.89,327.91 C1097.55,336.29 1112.64,345.22 1126.55,354 C1168.19,380.29 1214.75,414.2 1240.56,433.43 " fill="none" id="Involvement-backto-Membership" style="stroke:#A80036;stroke-width:1.0;"/><polygon fill="none" points="1079.32,333.93,1065.34,318.01,1086.2,321.74,1079.32,333.93" style="stroke:#A80036;stroke-width:1.0;"/><!--MD5=[de96f77e660762cb21a195b4097c3876]
reverse link Agent to Person--><path codeLine="78" d="M581.68,334.85 C539.59,361.26 488.8,393.13 451.73,416.39 " fill="none" id="Agent-backto-Person" style="stroke:#A80036;stroke-width:1.0;"/><polygon fill="none" points="578.16,328.8,598.82,324.1,585.6,340.66,578.16,328.8" style="stroke:#A80036;stroke-width:1.0;"/><!--MD5=[5d8901ce694eb85aefa78b7d82d9f6f6]
link Person to Person_Name--><path codeLine="90" d="M400.55,482.57 C400.55,503.31 400.55,530.64 400.55,553.72 " fill="none" id="Person-to-Person_Name" style="stroke:#A80036;stroke-width:1.0;stroke-dasharray:7.0,7.0;"/><polygon fill="#A80036" points="400.55,558.87,404.55,549.87,400.55,553.87,396.55,549.87,400.55,558.87" style="stroke:#A80036;stroke-width:1.0;"/><!--MD5=[ef849346ed6a9c6429a3acad43755067]
reverse link Group_or_Organisation_Unit to Group--><path codeLine="111" d="M987.67,499.06 C938.02,528.87 877.77,565.04 844.56,584.98 " fill="none" id="Group_or_Organisation_Unit-backto-Group" style="stroke:#A80036;stroke-width:1.0;"/><polygon fill="none" points="984.32,492.91,1005.07,488.61,991.53,504.91,984.32,492.91" style="stroke:#A80036;stroke-width:1.0;"/><!--MD5=[69e875cd42dba5e548805475ea29280d]
link Group to Group--><path codeLine="128" d="M859.92,587.58 C876.03,586.84 889.55,591.31 889.55,601 C889.55,610.69 876.03,615.16 859.92,614.42 " fill="none" id="Group-Group" style="stroke:#A80036;stroke-width:1.0;stroke-dasharray:7.0,7.0;"/><polygon fill="#A80036" points="854.84,614.03,863.5047,618.7123,859.8251,614.4157,864.1217,610.7361,854.84,614.03" style="stroke:#A80036;stroke-width:1.0;"/><polygon fill="#A80036" points="854.84,587.97,864.1217,591.2639,859.8251,587.5843,863.5047,583.2877,854.84,587.97" style="stroke:#A80036;stroke-width:1.0;"/><text fill="#000000" font-family="sans-serif" font-size="13" lengthAdjust="spacing" textLength="69" x="862.4733" y="582.7987">0..* part of</text><text fill="#000000" font-family="sans-serif" font-size="13" lengthAdjust="spacing" textLength="60" x="862.3892" y="611.744">0..* parts</text><!--MD5=[46aa33658a7939f97c192b82d622be7c]
reverse link Group_or_Organisation_Unit to Organisation_Unit--><path codeLine="120" d="M960.65,494.58 C956.25,495.83 951.87,496.97 947.55,498 C658.75,566.46 571.92,493.04 282.55,559 C256.12,565.02 227.46,575.86 206.02,584.87 " fill="none" id="Group_or_Organisation_Unit-backto-Organisation_Unit" style="stroke:#A80036;stroke-width:1.0;"/><polygon fill="none" points="958.74,487.84,979.92,488.55,962.92,501.2,958.74,487.84" style="stroke:#A80036;stroke-width:1.0;"/><!--MD5=[f47b8cdb810f6f32f0d73f513aa4cbda]
link Organisation_Unit to Organisation_Unit--><path codeLine="124" d="M249.64,587.87 C266.66,589.1 279.05,593.48 279.05,601 C279.05,608.52 266.66,612.9 249.64,614.13 " fill="none" id="Organisation_Unit-Organisation_Unit" style="stroke:#A80036;stroke-width:1.0;stroke-dasharray:7.0,7.0;"/><polygon fill="#A80036" points="244.22,614.42,253.4241,617.9248,249.2126,614.1482,252.9892,609.9367,244.22,614.42" style="stroke:#A80036;stroke-width:1.0;"/><polygon fill="#A80036" points="244.22,587.58,252.9892,592.0633,249.2126,587.8518,253.4241,584.0752,244.22,587.58" style="stroke:#A80036;stroke-width:1.0;"/><text fill="#000000" font-family="sans-serif" font-size="13" lengthAdjust="spacing" textLength="69" x="248.3169" y="573.845">0..* part of</text><text fill="#000000" font-family="sans-serif" font-size="13" lengthAdjust="spacing" textLength="60" x="252.5126" y="632.127">0..* parts</text><!--MD5=[854899a0b21de2cb3f4d3222738c1bb3]
reverse link Group to Organisation_Unit_with_Members--><path codeLine="137" d="M764.79,616.24 C679.33,638.46 514.98,681.19 427.56,703.92 " fill="none" id="Group-backto-Organisation_Unit_with_Members" style="stroke:#A80036;stroke-width:1.0;"/><polygon fill="none" points="763.12,609.44,784.24,611.18,766.64,622.99,763.12,609.44" style="stroke:#A80036;stroke-width:1.0;"/><!--MD5=[adeab3cf6be56cae862ee063039c31ec]
reverse link Organisation_Unit to Organisation_Unit_with_Members--><path codeLine="141" d="M215.31,627.4 C254.55,650.7 311.38,684.46 343.98,703.82 " fill="none" id="Organisation_Unit-backto-Organisation_Unit_with_Members" style="stroke:#A80036;stroke-width:1.0;"/><polygon fill="none" points="211.52,633.29,197.9,617.06,218.67,621.25,211.52,633.29" style="stroke:#A80036;stroke-width:1.0;"/><!--MD5=[8baa0633a34be8ca6adcc4fd46743d97]
reverse link Agent to Group_or_Organisation_Unit--><path codeLine="102" d="M774.38,331.63 C836.99,356.5 913.57,386.93 972.9,410.5 " fill="none" id="Agent-backto-Group_or_Organisation_Unit" style="stroke:#A80036;stroke-width:1.0;"/><polygon fill="none" points="771.44,337.99,755.44,324.1,776.61,324.98,771.44,337.99" style="stroke:#A80036;stroke-width:1.0;"/><!--MD5=[5310b7429ef001befd0a176a00932538]
reverse link Activity to Involvement--><path codeLine="160" d="M899.25,183.09 C922.19,204.87 950.28,231.53 971.82,251.98 " fill="none" id="Activity-backto-Involvement" style="stroke:#A80036;stroke-width:1.0;"/><polygon fill="none" points="894.38,188.12,884.69,169.27,904.02,177.96,894.38,188.12" style="stroke:#A80036;stroke-width:1.0;"/><!--MD5=[3e6df519c6409dff9ecce5f5942987dd]
link Involvement to Group_or_Organisation_Unit--><path codeLine="238" d="M1017.99,318.1 C1027.72,343.2 1041.34,378.31 1051.98,405.78 " fill="none" id="Involvement-to-Group_or_Organisation_Unit" style="stroke:#A80036;stroke-width:1.0;"/><polygon fill="#A80036" points="1053.8,410.47,1054.2704,400.6324,1051.9898,405.8092,1046.813,403.5286,1053.8,410.47" style="stroke:#A80036;stroke-width:1.0;"/><polygon fill="#000000" points="1043.3573,367.2284,1042.8281,357.7325,1037.3477,359.8571,1043.3573,367.2284" style="stroke:#000000;stroke-width:1.0;"/><text fill="#000000" font-family="sans-serif" font-size="13" lengthAdjust="spacing" textLength="67" x="1050.55" y="367.0669">involved in</text><text fill="#000000" font-family="sans-serif" font-size="13" lengthAdjust="spacing" textLength="23" x="995.1633" y="337.7008">0..*</text><!--MD5=[ec091f800280b56df8e15aaaa2e5104f]
reverse link Affiliation_Statement to Involvement--><path codeLine="763" d="M507.91,244.37 C595.87,216.43 723.42,188.15 834.05,211 C872.79,219 913.56,236.18 945.62,251.98 " fill="none" id="Affiliation_Statement-backto-Involvement" style="stroke:#A80036;stroke-width:1.0;"/><polygon fill="#A80036" points="502.96,245.96,512.7513,247.0235,507.7216,244.4346,510.3106,239.4049,502.96,245.96" style="stroke:#A80036;stroke-width:1.0;"/><polygon fill="#000000" points="691.0508,207.4795,700.0434,210.5752,700.1456,204.6982,691.0508,207.4795" style="stroke:#000000;stroke-width:1.0;"/><text fill="#000000" font-family="sans-serif" font-size="13" lengthAdjust="spacing" textLength="128" x="705.05" y="212.0669">is the foundation for</text><text fill="#000000" font-family="sans-serif" font-size="13" lengthAdjust="spacing" textLength="23" x="495.5852" y="235.0037">0..*</text><text fill="#000000" font-family="sans-serif" font-size="13" lengthAdjust="spacing" textLength="23" x="907.8876" y="240.7436">0..*</text><!--MD5=[eeb1986463f873db234da87eccdc590b]
link Involvement to Involvement--><path codeLine="767" d="M1100.78,278.11 C1120.97,278.81 1135.55,281.1 1135.55,285 C1135.55,288.56 1123.37,290.79 1105.85,291.68 " fill="none" id="Involvement-to-Involvement" style="stroke:#A80036;stroke-width:1.0;"/><polygon fill="#A80036" points="1100.78,291.89,1109.943,295.501,1105.7754,291.6759,1109.6005,287.5083,1100.78,291.89" style="stroke:#A80036;stroke-width:1.0;"/><polygon fill="#000000" points="1140.7232,290.0634,1143.347,280.9219,1137.4727,281.1256,1140.7232,290.0634" style="stroke:#000000;stroke-width:1.0;"/><text fill="#000000" font-family="sans-serif" font-size="13" lengthAdjust="spacing" textLength="26" x="1154.55" y="289.5669">part</text><text fill="#000000" font-family="sans-serif" font-size="13" lengthAdjust="spacing" textLength="23" x="1108.618" y="274.1393">0..*</text><text fill="#000000" font-family="sans-serif" font-size="13" lengthAdjust="spacing" textLength="24" x="1108.6547" y="305.0329">0..1</text><!--MD5=[eeb1986463f873db234da87eccdc590b]
link Involvement to Involvement--><path codeLine="771" d="M1100.61,271.02 C1145.84,269.54 1186.55,274.2 1186.55,285 C1186.55,295.4 1148.81,300.11 1105.62,299.12 " fill="none" id="Involvement-to-Involvement-1" style="stroke:#A80036;stroke-width:1.0;"/><polygon fill="#A80036" points="1100.61,298.98,1109.4921,303.2354,1105.608,299.1228,1109.7206,295.2387,1100.61,298.98" style="stroke:#A80036;stroke-width:1.0;"/><polygon fill="#000000" points="1191.3865,290.0637,1194.6196,281.1196,1188.7449,280.9274,1191.3865,290.0637" style="stroke:#000000;stroke-width:1.0;"/><text fill="#000000" font-family="sans-serif" font-size="13" lengthAdjust="spacing" textLength="89" x="1205.55" y="289.5669">part transitive</text><text fill="#000000" font-family="sans-serif" font-size="13" lengthAdjust="spacing" textLength="23" x="1108.4355" y="282.6302">0..*</text><text fill="#000000" font-family="sans-serif" font-size="13" lengthAdjust="spacing" textLength="23" x="1108.4355" y="312.6436">0..*</text><!--MD5=[335bc652314d68e20c6b9db39c8a9e92]
reverse link Activity to Affiliation_Statement--><path codeLine="573" d="M768.58,149.13 C671.36,156.54 522.86,171.91 473.55,199 C453.6,209.96 436.64,228.65 424.1,245.73 " fill="none" id="Activity-backto-Affiliation_Statement" style="stroke:#A80036;stroke-width:1.0;"/><polygon fill="#FFFFFF" points="781.65,148.16,775.3677,144.6198,769.6836,149.0572,775.9658,152.5974,781.65,148.16" style="stroke:#A80036;stroke-width:1.0;"/><polygon fill="#000000" points="473.7357,208.9164,483.2384,209.304,481.6513,203.6444,473.7357,208.9164" style="stroke:#000000;stroke-width:1.0;"/><text fill="#000000" font-family="sans-serif" font-size="13" lengthAdjust="spacing" textLength="132" x="487.55" y="212.0669">affilation statements</text><text fill="#000000" font-family="sans-serif" font-size="13" lengthAdjust="spacing" textLength="23" x="751.1391" y="145.0829">0..*</text><text fill="#000000" font-family="sans-serif" font-size="13" lengthAdjust="spacing" textLength="23" x="403.0958" y="235.0273">0..*</text><!--MD5=[08193f8303ce63c6cbc57ff8816f81b7]
link Affiliation_Statement to Organisation_Unit--><path codeLine="574" d="M288.43,320.78 C249.77,338.53 210.25,364.34 186.55,401 C150.43,456.86 160.62,540.91 167.97,579.41 " fill="none" id="Affiliation_Statement-to-Organisation_Unit" style="stroke:#A80036;stroke-width:1.0;"/><polygon fill="#A80036" points="169.03,584.75,171.2034,575.144,168.0577,579.8455,163.3562,576.6997,169.03,584.75" style="stroke:#A80036;stroke-width:1.0;"/><polygon fill="#000000" points="189.4389,454.0989,195.922,447.1404,190.5938,444.6587,189.4389,454.0989" style="stroke:#000000;stroke-width:1.0;"/><text fill="#000000" font-family="sans-serif" font-size="13" lengthAdjust="spacing" textLength="63" x="200.55" y="454.0669">institution</text><text fill="#000000" font-family="sans-serif" font-size="13" lengthAdjust="spacing" textLength="23" x="257.5106" y="335.6105">0..*</text><text fill="#000000" font-family="sans-serif" font-size="13" lengthAdjust="spacing" textLength="8" x="158.539" y="573.9717">1</text><!--MD5=[08193f8303ce63c6cbc57ff8816f81b7]
link Affiliation_Statement to Organisation_Unit--><path codeLine="575" d="M288.42,305.92 C191.55,325.68 62.42,359.05 31.55,401 C6,435.72 11.94,459.61 31.55,498 C52.11,538.26 96.81,566.31 130.41,582.66 " fill="none" id="Affiliation_Statement-to-Organisation_Unit-1" style="stroke:#A80036;stroke-width:1.0;"/><polygon fill="#A80036" points="135.28,584.99,128.8841,577.5005,130.7686,582.8342,125.4349,584.7187,135.28,584.99" style="stroke:#A80036;stroke-width:1.0;"/><polygon fill="#000000" points="34.0708,453.9085,41.1079,447.5108,36.0035,444.5964,34.0708,453.9085" style="stroke:#000000;stroke-width:1.0;"/><text fill="#000000" font-family="sans-serif" font-size="13" lengthAdjust="spacing" textLength="107" x="45.55" y="454.0669">organisation unit</text><text fill="#000000" font-family="sans-serif" font-size="13" lengthAdjust="spacing" textLength="23" x="257.5" y="303.8376">0..*</text><text fill="#000000" font-family="sans-serif" font-size="13" lengthAdjust="spacing" textLength="24" x="94.3434" y="573.9982">0..1</text><!--MD5=[df6fa22554e93164629bbf1a9b0c08c4]
link Affiliation_Statement to Person--><path codeLine="576" d="M400.55,324.1 C400.55,350.39 400.55,385.19 400.55,411.29 " fill="none" id="Affiliation_Statement-to-Person" style="stroke:#A80036;stroke-width:1.0;"/><polygon fill="#A80036" points="400.55,416.39,404.55,407.39,400.55,411.39,396.55,407.39,400.55,416.39" style="stroke:#A80036;stroke-width:1.0;"/><polygon fill="#000000" points="405.55,367.5664,408.4889,358.5213,402.6111,358.5213,405.55,367.5664" style="stroke:#000000;stroke-width:1.0;"/><text fill="#000000" font-family="sans-serif" font-size="13" lengthAdjust="spacing" textLength="44" x="414.55" y="367.0669">person</text><text fill="#000000" font-family="sans-serif" font-size="13" lengthAdjust="spacing" textLength="23" x="375.5016" y="344.4425">0..*</text><text fill="#000000" font-family="sans-serif" font-size="13" lengthAdjust="spacing" textLength="24" x="374.1875" y="405.5133">0..1</text><!--MD5=[3e39b917f7e055c1bb394952ac8c4107]
@startuml

    !includesub core.puml!common
    !includesub core.puml!Agent
    !includesub core.puml!Activity
    !includesub core.puml!Membership
    !includesub core.puml!Person
    !includesub core.puml!Group
    !includesub core.puml!Organisation_Unit
    !includesub core.puml!Organisation_Unit_with_Members
    !includesub core.puml!Group_or_Organisation_Unit
    !includesub core.puml!Involvement
    !includesub core.puml!Affiliation_Statement

@enduml

@startuml

    hide empty members
    skinparam BoxPadding 120
    class "Agent" #ffffff {
        keywords : List<Multilingual_String>
    	lifetime : Date_Range
    	contacts : List<Contact_Information>
    }
    "Agent" ..> "Date_Range"
    "Agent" ..> "0..*" "Contact_Information"
    class "Activity" #ffffff {
  		dateRange : Date_Range
    }
	"Document" "0..*" - - "0..*" "Activity" : prove >
    "Activity" "0..*" - -> "0..1" "Agent" : actor >
    class Date_Range << (D,#add0b2) DataType>> #ffffff {
        start_date : Date
        start_date_inclusive : Boolean
        end_date : Date
        end_date_inclusive : Boolean
	}
	"Activity" ..> "Date_Range"
	"Activity" "0..*" - - - "0..*" "Funding" : covers <
    class "Membership" #ffffff {
    }
    "Involvement" <|-d- "Membership"
    class "Person" #ffffff {
        name            : Person_Name
        alternateNames  : List<Person_Name>
    }
    "Agent" <|- - "Person"
    class Person_Name << (D,#add0b2) DataType>> #ffffff {
        firstNames : Multilingual_String
        familyNames : Multilingual_String
        otherNames : Multilingual_String
    }
    "Person" ..> "Person_Name"
    class "Group" #ffffff {
    }
	"Group_or_Organisation_Unit" <|- - "Group"
	"Group" "0..* part of" <..> "0..* parts" "Group"
    class "Organisation_Unit" #ffffff {
    }
	"Group_or_Organisation_Unit" <|- - "Organisation_Unit"
	"Organisation_Unit" "0..* part of" <..> "0..* parts" "Organisation_Unit"
    class "Organisation_Unit_with_Members" #ffffff {
    }
    "Group" <|- - "Organisation_Unit_with_Members"
    "Organisation_Unit" <|- - "Organisation_Unit_with_Members"
    class "Group_or_Organisation_Unit" #ffffff {
        name : Multilingual_String
        acronym : String
        description : Multilingual_String
    }
	"Agent" <|- - "Group_or_Organisation_Unit"
    class "Involvement" #ffffff {
        description : Multilingual_String
        position    : Position
    }
   "Activity" <|-d- "Involvement"
	"Involvement" "0..*" - -> "Group_or_Organisation_Unit" : involved in >
	"Involvement" "0..*" -l-> "0..*" "Affiliation_Statement" : is the foundation for >
	"Involvement" "0..*" - -> "0..1" "Involvement" : part >
	"Involvement" "0..*" - -> "0..*" "Involvement" : part transitive >
    class "Affiliation_Statement" #ffffff {
        displayAffiliation_Statement : String
        displayPersonName : String
        contacts : List<Contact_Information>
    }
    "Activity" "0..*" o- - "0..*" "Affiliation_Statement" : affilation statements >
    "Affiliation_Statement" "0..*" - -> "1" "Organisation_Unit" : institution >
    "Affiliation_Statement" "0..*" - -> "0..1" "Organisation_Unit" : organisation unit >
    "Affiliation_Statement" "0..*" - -> "0..1" "Person" : person >

@enduml

PlantUML version 1.2021.8(Sat Jun 26 08:20:59 UTC 2021)
(GPL source distribution)
Java Runtime: OpenJDK Runtime Environment
JVM: OpenJDK 64-Bit Server VM
Default Encoding: UTF-8
Language: en
Country: null
--></g></svg>