<?xml version="1.0" encoding="UTF-8" standalone="no"?><svg xmlns="http://www.w3.org/2000/svg" xmlns:xlink="http://www.w3.org/1999/xlink" contentScriptType="application/ecmascript" contentStyleType="text/css" height="415px" preserveAspectRatio="none" style="width:464px;height:415px;background:#FFFFFF;" version="1.1" viewBox="0 0 464 415" width="464px" zoomAndPan="magnify"><defs><filter height="300%" id="f5pazaabra1dg" width="300%" x="-1" y="-1"><feGaussianBlur result="blurOut" stdDeviation="2.0"/><feColorMatrix in="blurOut" result="blurOut2" type="matrix" values="0 0 0 0 0 0 0 0 0 0 0 0 0 0 0 0 0 0 .4 0"/><feOffset dx="4.0" dy="4.0" in="blurOut2" result="blurOut3"/><feBlend in="SourceGraphic" in2="blurOut3" mode="normal"/></filter></defs><g><!--MD5=[05151c161079be2c12996cf31a3c6866]
class Contribution_to_Document--><rect codeLine="210" fill="#FFFFFF" filter="url(#f5pazaabra1dg)" height="32" id="Contribution_to_Document" style="stroke:#A80036;stroke-width:1.5;" width="198" x="150.75" y="100"/><ellipse cx="165.75" cy="116" fill="#ADD1B2" rx="11" ry="11" style="stroke:#A80036;stroke-width:1.0;"/><path d="M168.7188,121.6406 Q168.1406,121.9375 167.5,122.0781 Q166.8594,122.2344 166.1563,122.2344 Q163.6563,122.2344 162.3281,120.5938 Q161.0156,118.9375 161.0156,115.8125 Q161.0156,112.6875 162.3281,111.0313 Q163.6563,109.375 166.1563,109.375 Q166.8594,109.375 167.5,109.5313 Q168.1563,109.6875 168.7188,109.9844 L168.7188,112.7031 Q168.0938,112.125 167.5,111.8594 Q166.9063,111.5781 166.2813,111.5781 Q164.9375,111.5781 164.25,112.6563 Q163.5625,113.7188 163.5625,115.8125 Q163.5625,117.9063 164.25,118.9844 Q164.9375,120.0469 166.2813,120.0469 Q166.9063,120.0469 167.5,119.7813 Q168.0938,119.5 168.7188,118.9219 L168.7188,121.6406 Z " fill="#000000"/><text fill="#000000" font-family="sans-serif" font-size="12" lengthAdjust="spacing" textLength="166" x="179.75" y="120.1543">Contribution_to_Document</text><!--MD5=[0330879a1a385efee19ba3488ed490fa]
class Contribution--><rect fill="#FEFECE" filter="url(#f5pazaabra1dg)" height="32" id="Contribution" style="stroke:#A80036;stroke-width:1.5;" width="109" x="195.25" y="7"/><ellipse cx="210.25" cy="23" fill="#ADD1B2" rx="11" ry="11" style="stroke:#A80036;stroke-width:1.0;"/><path d="M213.2188,28.6406 Q212.6406,28.9375 212,29.0781 Q211.3594,29.2344 210.6563,29.2344 Q208.1563,29.2344 206.8281,27.5938 Q205.5156,25.9375 205.5156,22.8125 Q205.5156,19.6875 206.8281,18.0313 Q208.1563,16.375 210.6563,16.375 Q211.3594,16.375 212,16.5313 Q212.6563,16.6875 213.2188,16.9844 L213.2188,19.7031 Q212.5938,19.125 212,18.8594 Q211.4063,18.5781 210.7813,18.5781 Q209.4375,18.5781 208.75,19.6563 Q208.0625,20.7188 208.0625,22.8125 Q208.0625,24.9063 208.75,25.9844 Q209.4375,27.0469 210.7813,27.0469 Q211.4063,27.0469 212,26.7813 Q212.5938,26.5 213.2188,25.9219 L213.2188,28.6406 Z " fill="#000000"/><text fill="#000000" font-family="sans-serif" font-size="12" lengthAdjust="spacing" textLength="77" x="224.25" y="27.1543">Contribution</text><!--MD5=[59b530d44ae785dc18db921986a9c15c]
class Document--><rect codeLine="317" fill="#FFFFFF" filter="url(#f5pazaabra1dg)" height="65.6094" id="Document" style="stroke:#A80036;stroke-width:1.5;" width="148" x="175.75" y="193"/><ellipse cx="214.15" cy="209" fill="#ADD1B2" rx="11" ry="11" style="stroke:#A80036;stroke-width:1.0;"/><path d="M217.1188,214.6406 Q216.5406,214.9375 215.9,215.0781 Q215.2594,215.2344 214.5563,215.2344 Q212.0563,215.2344 210.7281,213.5938 Q209.4156,211.9375 209.4156,208.8125 Q209.4156,205.6875 210.7281,204.0313 Q212.0563,202.375 214.5563,202.375 Q215.2594,202.375 215.9,202.5313 Q216.5563,202.6875 217.1188,202.9844 L217.1188,205.7031 Q216.4938,205.125 215.9,204.8594 Q215.3063,204.5781 214.6813,204.5781 Q213.3375,204.5781 212.65,205.6563 Q211.9625,206.7188 211.9625,208.8125 Q211.9625,210.9063 212.65,211.9844 Q213.3375,213.0469 214.6813,213.0469 Q215.3063,213.0469 215.9,212.7813 Q216.4938,212.5 217.1188,211.9219 L217.1188,214.6406 Z " fill="#000000"/><text fill="#000000" font-family="sans-serif" font-size="12" lengthAdjust="spacing" textLength="64" x="233.35" y="213.1543">Document</text><line style="stroke:#A80036;stroke-width:1.5;" x1="176.75" x2="322.75" y1="225" y2="225"/><text fill="#000000" font-family="sans-serif" font-size="11" lengthAdjust="spacing" textLength="136" x="181.75" y="239.2104">title : Multilingual_String</text><text fill="#000000" font-family="sans-serif" font-size="11" lengthAdjust="spacing" textLength="125" x="181.75" y="252.0151">publicationDate : Date</text><!--MD5=[fe105c2ee1fabf2400c31a97ce9128bc]
class Textual_Document--><rect codeLine="324" fill="#FFFFFF" filter="url(#f5pazaabra1dg)" height="32" id="Textual_Document" style="stroke:#A80036;stroke-width:1.5;" width="147" x="78.25" y="353"/><ellipse cx="93.25" cy="369" fill="#ADD1B2" rx="11" ry="11" style="stroke:#A80036;stroke-width:1.0;"/><path d="M96.2188,374.6406 Q95.6406,374.9375 95,375.0781 Q94.3594,375.2344 93.6563,375.2344 Q91.1563,375.2344 89.8281,373.5938 Q88.5156,371.9375 88.5156,368.8125 Q88.5156,365.6875 89.8281,364.0313 Q91.1563,362.375 93.6563,362.375 Q94.3594,362.375 95,362.5313 Q95.6563,362.6875 96.2188,362.9844 L96.2188,365.7031 Q95.5938,365.125 95,364.8594 Q94.4063,364.5781 93.7813,364.5781 Q92.4375,364.5781 91.75,365.6563 Q91.0625,366.7188 91.0625,368.8125 Q91.0625,370.9063 91.75,371.9844 Q92.4375,373.0469 93.7813,373.0469 Q94.4063,373.0469 95,372.7813 Q95.5938,372.5 96.2188,371.9219 L96.2188,374.6406 Z " fill="#000000"/><text fill="#000000" font-family="sans-serif" font-size="12" lengthAdjust="spacing" textLength="115" x="107.25" y="373.1543">Textual_Document</text><!--MD5=[bcc382d868f32e5ce25faf6e44aed96d]
class Publication_Channel--><rect codeLine="333" fill="#FFFFFF" filter="url(#f5pazaabra1dg)" height="65.6094" id="Publication_Channel" style="stroke:#A80036;stroke-width:1.5;" width="176" x="260.75" y="336"/><ellipse cx="283.85" cy="352" fill="#ADD1B2" rx="11" ry="11" style="stroke:#A80036;stroke-width:1.0;"/><path d="M286.8188,357.6406 Q286.2406,357.9375 285.6,358.0781 Q284.9594,358.2344 284.2563,358.2344 Q281.7563,358.2344 280.4281,356.5938 Q279.1156,354.9375 279.1156,351.8125 Q279.1156,348.6875 280.4281,347.0313 Q281.7563,345.375 284.2563,345.375 Q284.9594,345.375 285.6,345.5313 Q286.2563,345.6875 286.8188,345.9844 L286.8188,348.7031 Q286.1938,348.125 285.6,347.8594 Q285.0063,347.5781 284.3813,347.5781 Q283.0375,347.5781 282.35,348.6563 Q281.6625,349.7188 281.6625,351.8125 Q281.6625,353.9063 282.35,354.9844 Q283.0375,356.0469 284.3813,356.0469 Q285.0063,356.0469 285.6,355.7813 Q286.1938,355.5 286.8188,354.9219 L286.8188,357.6406 Z " fill="#000000"/><text fill="#000000" font-family="sans-serif" font-size="12" lengthAdjust="spacing" textLength="126" x="299.65" y="356.1543">Publication_Channel</text><line style="stroke:#A80036;stroke-width:1.5;" x1="261.75" x2="435.75" y1="368" y2="368"/><text fill="#000000" font-family="sans-serif" font-size="11" lengthAdjust="spacing" textLength="136" x="266.75" y="382.2104">title : Multilingual_String</text><text fill="#000000" font-family="sans-serif" font-size="11" lengthAdjust="spacing" textLength="164" x="266.75" y="395.0151">acronym : Multilingual_String</text><!--MD5=[8d7c614e8203540f95956299e63d224a]
reverse link Contribution to Contribution_to_Document--><path codeLine="215" d="M249.75,59.24 C249.75,73.36 249.75,88.88 249.75,99.95 " fill="none" id="Contribution-backto-Contribution_to_Document" style="stroke:#A80036;stroke-width:1.0;"/><polygon fill="none" points="242.75,59.03,249.75,39.03,256.75,59.03,242.75,59.03" style="stroke:#A80036;stroke-width:1.0;"/><!--MD5=[117c8d017b65f89954aa553a8ad2cfe8]
link Contribution_to_Document to Document--><path codeLine="657" d="M249.75,137.06 C249.75,151.23 249.75,170.64 249.75,187.62 " fill="none" id="Contribution_to_Document-Document" style="stroke:#A80036;stroke-width:1.0;"/><polygon fill="#A80036" points="249.75,192.81,253.75,183.81,249.75,187.81,245.75,183.81,249.75,192.81" style="stroke:#A80036;stroke-width:1.0;"/><polygon fill="#A80036" points="249.75,132.02,245.75,141.02,249.75,137.02,253.75,141.02,249.75,132.02" style="stroke:#A80036;stroke-width:1.0;"/><text fill="#000000" font-family="sans-serif" font-size="13" lengthAdjust="spacing" textLength="208" x="6" y="152.1947">0..* contributions &lt;&lt;ordered&gt;&gt;</text><text fill="#000000" font-family="sans-serif" font-size="13" lengthAdjust="spacing" textLength="8" x="240.9625" y="181.9176">1</text><!--MD5=[67ceb885199ca7e1fa058287d8756a2e]
reverse link Document to Textual_Document--><path codeLine="329" d="M215.85,275.77 C197.12,302.72 175.13,334.35 162.39,352.7 " fill="none" id="Document-backto-Textual_Document" style="stroke:#A80036;stroke-width:1.0;"/><polygon fill="none" points="210.1,271.78,227.27,259.35,221.6,279.77,210.1,271.78" style="stroke:#A80036;stroke-width:1.0;"/><!--MD5=[3e969255208de71f7bfccf2b9540bd27]
link Document to Publication_Channel--><path codeLine="338" d="M272.46,259.35 C287.62,280.93 307.57,309.34 323.26,331.7 " fill="none" id="Document-to-Publication_Channel" style="stroke:#A80036;stroke-width:1.0;"/><polygon fill="#A80036" points="326.14,335.8,324.2151,326.1411,323.2555,331.716,317.6806,330.7563,326.14,335.8" style="stroke:#A80036;stroke-width:1.0;"/><polygon fill="#000000" points="313.6232,301.6584,310.8308,292.5671,306.0203,295.9447,313.6232,301.6584" style="stroke:#000000;stroke-width:1.0;"/><text fill="#000000" font-family="sans-serif" font-size="13" lengthAdjust="spacing" textLength="137" x="319.75" y="302.0669">published via channel</text><text fill="#000000" font-family="sans-serif" font-size="13" lengthAdjust="spacing" textLength="24" x="295.3262" y="324.9056">0..1</text><!--MD5=[c0d3cc1555380593cd6fd93ca8236a21]
@startuml

    !includesub core.puml!common
    !includesub core.puml!Contribution_to_Document
    !includesub core.puml!Document
    !includesub core.puml!Textual_Document
    !includesub core.puml!Publication_Channel

@enduml

@startuml

    hide empty members
    skinparam BoxPadding 120
    class "Contribution_to_Document" #ffffff {
    }
    "Contribution" <|-d- "Contribution_to_Document"
    "Contribution_to_Document" "0..* contributions <<ordered>>" <- -> "1" "Document"
    class "Document" #ffffff {
        title : Multilingual_String
        publicationDate : Date
    }
    class "Textual_Document" #ffffff {
    }
    "Document" <|- - "Textual_Document"
    class "Publication_Channel" #ffffff {
        title : Multilingual_String
        acronym : Multilingual_String
    }

    "Document" - -> "0..1" "Publication_Channel" : published via channel >


@enduml

PlantUML version 1.2021.8(Sat Jun 26 08:20:59 UTC 2021)
(GPL source distribution)
Java Runtime: OpenJDK Runtime Environment
JVM: OpenJDK 64-Bit Server VM
Default Encoding: UTF-8
Language: en
Country: null
--></g></svg>